G04 #@! TF.FileFunction,Legend,Bot*
%FSLAX46Y46*%
G04 Gerber Fmt 4.6, Leading zero omitted, Abs format (unit mm)*
G04 Created by KiCad (PCBNEW 4.0.6) date 05/07/17 20:55:24*
%MOMM*%
%LPD*%
G01*
G04 APERTURE LIST*
%ADD10C,0.100000*%
%ADD11C,0.113792*%
%ADD12C,0.127000*%
G04 APERTURE END LIST*
D10*
D11*
X54271633Y-122667140D02*
X54722060Y-122667140D01*
X54915100Y-123374953D02*
X54271633Y-123374953D01*
X54271633Y-122023673D01*
X54915100Y-122023673D01*
X55494220Y-123374953D02*
X55494220Y-122023673D01*
X55944647Y-122988873D01*
X56395074Y-122023673D01*
X56395074Y-123374953D01*
X57038540Y-122667140D02*
X57488967Y-122667140D01*
X57682007Y-123374953D02*
X57038540Y-123374953D01*
X57038540Y-122023673D01*
X57682007Y-122023673D01*
X59033287Y-123374953D02*
X58582861Y-122731487D01*
X58261127Y-123374953D02*
X58261127Y-122023673D01*
X58775901Y-122023673D01*
X58904594Y-122088020D01*
X58968941Y-122152367D01*
X59033287Y-122281060D01*
X59033287Y-122474100D01*
X58968941Y-122602793D01*
X58904594Y-122667140D01*
X58775901Y-122731487D01*
X58261127Y-122731487D01*
X60320221Y-122088020D02*
X60191527Y-122023673D01*
X59998487Y-122023673D01*
X59805447Y-122088020D01*
X59676754Y-122216713D01*
X59612407Y-122345407D01*
X59548061Y-122602793D01*
X59548061Y-122795833D01*
X59612407Y-123053220D01*
X59676754Y-123181913D01*
X59805447Y-123310607D01*
X59998487Y-123374953D01*
X60127181Y-123374953D01*
X60320221Y-123310607D01*
X60384567Y-123246260D01*
X60384567Y-122795833D01*
X60127181Y-122795833D01*
X60963687Y-122667140D02*
X61414114Y-122667140D01*
X61607154Y-123374953D02*
X60963687Y-123374953D01*
X60963687Y-122023673D01*
X61607154Y-122023673D01*
X63666248Y-122667140D02*
X63215821Y-122667140D01*
X63215821Y-123374953D02*
X63215821Y-122023673D01*
X63859288Y-122023673D01*
X64309715Y-122988873D02*
X64953181Y-122988873D01*
X64181021Y-123374953D02*
X64631448Y-122023673D01*
X65081875Y-123374953D01*
X66304461Y-123246260D02*
X66240115Y-123310607D01*
X66047075Y-123374953D01*
X65918381Y-123374953D01*
X65725341Y-123310607D01*
X65596648Y-123181913D01*
X65532301Y-123053220D01*
X65467955Y-122795833D01*
X65467955Y-122602793D01*
X65532301Y-122345407D01*
X65596648Y-122216713D01*
X65725341Y-122088020D01*
X65918381Y-122023673D01*
X66047075Y-122023673D01*
X66240115Y-122088020D01*
X66304461Y-122152367D01*
X66883581Y-122667140D02*
X67334008Y-122667140D01*
X67527048Y-123374953D02*
X66883581Y-123374953D01*
X66883581Y-122023673D01*
X67527048Y-122023673D01*
X69714835Y-122474100D02*
X69714835Y-123374953D01*
X69393102Y-121959327D02*
X69071369Y-122924527D01*
X69907875Y-122924527D01*
D12*
X70246205Y-113656348D02*
X70648371Y-114862848D01*
X71050538Y-113656348D01*
X72142133Y-114747943D02*
X72084681Y-114805395D01*
X71912324Y-114862848D01*
X71797419Y-114862848D01*
X71625062Y-114805395D01*
X71510157Y-114690490D01*
X71452705Y-114575586D01*
X71395253Y-114345776D01*
X71395253Y-114173419D01*
X71452705Y-113943610D01*
X71510157Y-113828705D01*
X71625062Y-113713800D01*
X71797419Y-113656348D01*
X71912324Y-113656348D01*
X72084681Y-113713800D01*
X72142133Y-113771252D01*
X73348633Y-114747943D02*
X73291181Y-114805395D01*
X73118824Y-114862848D01*
X73003919Y-114862848D01*
X72831562Y-114805395D01*
X72716657Y-114690490D01*
X72659205Y-114575586D01*
X72601753Y-114345776D01*
X72601753Y-114173419D01*
X72659205Y-113943610D01*
X72716657Y-113828705D01*
X72831562Y-113713800D01*
X73003919Y-113656348D01*
X73118824Y-113656348D01*
X73291181Y-113713800D01*
X73348633Y-113771252D01*
X73578443Y-114977752D02*
X74497681Y-114977752D01*
X74727491Y-113771252D02*
X74784943Y-113713800D01*
X74899848Y-113656348D01*
X75187110Y-113656348D01*
X75302014Y-113713800D01*
X75359467Y-113771252D01*
X75416919Y-113886157D01*
X75416919Y-114001062D01*
X75359467Y-114173419D01*
X74670038Y-114862848D01*
X75416919Y-114862848D01*
X75646729Y-114977752D02*
X76565967Y-114977752D01*
X77542657Y-114747943D02*
X77485205Y-114805395D01*
X77312848Y-114862848D01*
X77197943Y-114862848D01*
X77025586Y-114805395D01*
X76910681Y-114690490D01*
X76853229Y-114575586D01*
X76795777Y-114345776D01*
X76795777Y-114173419D01*
X76853229Y-113943610D01*
X76910681Y-113828705D01*
X77025586Y-113713800D01*
X77197943Y-113656348D01*
X77312848Y-113656348D01*
X77485205Y-113713800D01*
X77542657Y-113771252D01*
X78576800Y-114058514D02*
X78576800Y-114862848D01*
X78289538Y-113598895D02*
X78002277Y-114460681D01*
X78749157Y-114460681D01*
X46106205Y-113837348D02*
X46508371Y-115043848D01*
X46910538Y-113837348D01*
X48002133Y-114928943D02*
X47944681Y-114986395D01*
X47772324Y-115043848D01*
X47657419Y-115043848D01*
X47485062Y-114986395D01*
X47370157Y-114871490D01*
X47312705Y-114756586D01*
X47255253Y-114526776D01*
X47255253Y-114354419D01*
X47312705Y-114124610D01*
X47370157Y-114009705D01*
X47485062Y-113894800D01*
X47657419Y-113837348D01*
X47772324Y-113837348D01*
X47944681Y-113894800D01*
X48002133Y-113952252D01*
X49208633Y-114928943D02*
X49151181Y-114986395D01*
X48978824Y-115043848D01*
X48863919Y-115043848D01*
X48691562Y-114986395D01*
X48576657Y-114871490D01*
X48519205Y-114756586D01*
X48461753Y-114526776D01*
X48461753Y-114354419D01*
X48519205Y-114124610D01*
X48576657Y-114009705D01*
X48691562Y-113894800D01*
X48863919Y-113837348D01*
X48978824Y-113837348D01*
X49151181Y-113894800D01*
X49208633Y-113952252D01*
X49438443Y-115158752D02*
X50357681Y-115158752D01*
X51276919Y-115043848D02*
X50587491Y-115043848D01*
X50932205Y-115043848D02*
X50932205Y-113837348D01*
X50817300Y-114009705D01*
X50702395Y-114124610D01*
X50587491Y-114182062D01*
X51506729Y-115158752D02*
X52425967Y-115158752D01*
X53402657Y-114928943D02*
X53345205Y-114986395D01*
X53172848Y-115043848D01*
X53057943Y-115043848D01*
X52885586Y-114986395D01*
X52770681Y-114871490D01*
X52713229Y-114756586D01*
X52655777Y-114526776D01*
X52655777Y-114354419D01*
X52713229Y-114124610D01*
X52770681Y-114009705D01*
X52885586Y-113894800D01*
X53057943Y-113837348D01*
X53172848Y-113837348D01*
X53345205Y-113894800D01*
X53402657Y-113952252D01*
X54436800Y-114239514D02*
X54436800Y-115043848D01*
X54149538Y-113779895D02*
X53862277Y-114641681D01*
X54609157Y-114641681D01*
X70135205Y-89787348D02*
X70537371Y-90993848D01*
X70939538Y-89787348D01*
X72031133Y-90878943D02*
X71973681Y-90936395D01*
X71801324Y-90993848D01*
X71686419Y-90993848D01*
X71514062Y-90936395D01*
X71399157Y-90821490D01*
X71341705Y-90706586D01*
X71284253Y-90476776D01*
X71284253Y-90304419D01*
X71341705Y-90074610D01*
X71399157Y-89959705D01*
X71514062Y-89844800D01*
X71686419Y-89787348D01*
X71801324Y-89787348D01*
X71973681Y-89844800D01*
X72031133Y-89902252D01*
X73237633Y-90878943D02*
X73180181Y-90936395D01*
X73007824Y-90993848D01*
X72892919Y-90993848D01*
X72720562Y-90936395D01*
X72605657Y-90821490D01*
X72548205Y-90706586D01*
X72490753Y-90476776D01*
X72490753Y-90304419D01*
X72548205Y-90074610D01*
X72605657Y-89959705D01*
X72720562Y-89844800D01*
X72892919Y-89787348D01*
X73007824Y-89787348D01*
X73180181Y-89844800D01*
X73237633Y-89902252D01*
X73467443Y-91108752D02*
X74386681Y-91108752D01*
X74559038Y-89787348D02*
X75305919Y-89787348D01*
X74903752Y-90246967D01*
X75076110Y-90246967D01*
X75191014Y-90304419D01*
X75248467Y-90361871D01*
X75305919Y-90476776D01*
X75305919Y-90764038D01*
X75248467Y-90878943D01*
X75191014Y-90936395D01*
X75076110Y-90993848D01*
X74731395Y-90993848D01*
X74616491Y-90936395D01*
X74559038Y-90878943D01*
X75535729Y-91108752D02*
X76454967Y-91108752D01*
X77431657Y-90878943D02*
X77374205Y-90936395D01*
X77201848Y-90993848D01*
X77086943Y-90993848D01*
X76914586Y-90936395D01*
X76799681Y-90821490D01*
X76742229Y-90706586D01*
X76684777Y-90476776D01*
X76684777Y-90304419D01*
X76742229Y-90074610D01*
X76799681Y-89959705D01*
X76914586Y-89844800D01*
X77086943Y-89787348D01*
X77201848Y-89787348D01*
X77374205Y-89844800D01*
X77431657Y-89902252D01*
X78465800Y-90189514D02*
X78465800Y-90993848D01*
X78178538Y-89729895D02*
X77891277Y-90591681D01*
X78638157Y-90591681D01*
X46185205Y-89727348D02*
X46587371Y-90933848D01*
X46989538Y-89727348D01*
X48081133Y-90818943D02*
X48023681Y-90876395D01*
X47851324Y-90933848D01*
X47736419Y-90933848D01*
X47564062Y-90876395D01*
X47449157Y-90761490D01*
X47391705Y-90646586D01*
X47334253Y-90416776D01*
X47334253Y-90244419D01*
X47391705Y-90014610D01*
X47449157Y-89899705D01*
X47564062Y-89784800D01*
X47736419Y-89727348D01*
X47851324Y-89727348D01*
X48023681Y-89784800D01*
X48081133Y-89842252D01*
X49287633Y-90818943D02*
X49230181Y-90876395D01*
X49057824Y-90933848D01*
X48942919Y-90933848D01*
X48770562Y-90876395D01*
X48655657Y-90761490D01*
X48598205Y-90646586D01*
X48540753Y-90416776D01*
X48540753Y-90244419D01*
X48598205Y-90014610D01*
X48655657Y-89899705D01*
X48770562Y-89784800D01*
X48942919Y-89727348D01*
X49057824Y-89727348D01*
X49230181Y-89784800D01*
X49287633Y-89842252D01*
X49517443Y-91048752D02*
X50436681Y-91048752D01*
X51241014Y-90129514D02*
X51241014Y-90933848D01*
X50953752Y-89669895D02*
X50666491Y-90531681D01*
X51413371Y-90531681D01*
X51585729Y-91048752D02*
X52504967Y-91048752D01*
X53481657Y-90818943D02*
X53424205Y-90876395D01*
X53251848Y-90933848D01*
X53136943Y-90933848D01*
X52964586Y-90876395D01*
X52849681Y-90761490D01*
X52792229Y-90646586D01*
X52734777Y-90416776D01*
X52734777Y-90244419D01*
X52792229Y-90014610D01*
X52849681Y-89899705D01*
X52964586Y-89784800D01*
X53136943Y-89727348D01*
X53251848Y-89727348D01*
X53424205Y-89784800D01*
X53481657Y-89842252D01*
X54515800Y-90129514D02*
X54515800Y-90933848D01*
X54228538Y-89669895D02*
X53941277Y-90531681D01*
X54688157Y-90531681D01*
X67005538Y-109740800D02*
X66890633Y-109683348D01*
X66718276Y-109683348D01*
X66545919Y-109740800D01*
X66431014Y-109855705D01*
X66373562Y-109970610D01*
X66316110Y-110200419D01*
X66316110Y-110372776D01*
X66373562Y-110602586D01*
X66431014Y-110717490D01*
X66545919Y-110832395D01*
X66718276Y-110889848D01*
X66833181Y-110889848D01*
X67005538Y-110832395D01*
X67062990Y-110774943D01*
X67062990Y-110372776D01*
X66833181Y-110372776D01*
X67580062Y-110889848D02*
X67580062Y-109683348D01*
X68269490Y-110889848D01*
X68269490Y-109683348D01*
X68844014Y-110889848D02*
X68844014Y-109683348D01*
X69131276Y-109683348D01*
X69303633Y-109740800D01*
X69418538Y-109855705D01*
X69475990Y-109970610D01*
X69533442Y-110200419D01*
X69533442Y-110372776D01*
X69475990Y-110602586D01*
X69418538Y-110717490D01*
X69303633Y-110832395D01*
X69131276Y-110889848D01*
X68844014Y-110889848D01*
X69763252Y-111004752D02*
X70682490Y-111004752D01*
X70912300Y-109798252D02*
X70969752Y-109740800D01*
X71084657Y-109683348D01*
X71371919Y-109683348D01*
X71486823Y-109740800D01*
X71544276Y-109798252D01*
X71601728Y-109913157D01*
X71601728Y-110028062D01*
X71544276Y-110200419D01*
X70854847Y-110889848D01*
X71601728Y-110889848D01*
X71831538Y-111004752D02*
X72750776Y-111004752D01*
X73727466Y-110774943D02*
X73670014Y-110832395D01*
X73497657Y-110889848D01*
X73382752Y-110889848D01*
X73210395Y-110832395D01*
X73095490Y-110717490D01*
X73038038Y-110602586D01*
X72980586Y-110372776D01*
X72980586Y-110200419D01*
X73038038Y-109970610D01*
X73095490Y-109855705D01*
X73210395Y-109740800D01*
X73382752Y-109683348D01*
X73497657Y-109683348D01*
X73670014Y-109740800D01*
X73727466Y-109798252D01*
X74761609Y-110085514D02*
X74761609Y-110889848D01*
X74474347Y-109625895D02*
X74187086Y-110487681D01*
X74933966Y-110487681D01*
X51013538Y-109728800D02*
X50898633Y-109671348D01*
X50726276Y-109671348D01*
X50553919Y-109728800D01*
X50439014Y-109843705D01*
X50381562Y-109958610D01*
X50324110Y-110188419D01*
X50324110Y-110360776D01*
X50381562Y-110590586D01*
X50439014Y-110705490D01*
X50553919Y-110820395D01*
X50726276Y-110877848D01*
X50841181Y-110877848D01*
X51013538Y-110820395D01*
X51070990Y-110762943D01*
X51070990Y-110360776D01*
X50841181Y-110360776D01*
X51588062Y-110877848D02*
X51588062Y-109671348D01*
X52277490Y-110877848D01*
X52277490Y-109671348D01*
X52852014Y-110877848D02*
X52852014Y-109671348D01*
X53139276Y-109671348D01*
X53311633Y-109728800D01*
X53426538Y-109843705D01*
X53483990Y-109958610D01*
X53541442Y-110188419D01*
X53541442Y-110360776D01*
X53483990Y-110590586D01*
X53426538Y-110705490D01*
X53311633Y-110820395D01*
X53139276Y-110877848D01*
X52852014Y-110877848D01*
X53771252Y-110992752D02*
X54690490Y-110992752D01*
X55609728Y-110877848D02*
X54920300Y-110877848D01*
X55265014Y-110877848D02*
X55265014Y-109671348D01*
X55150109Y-109843705D01*
X55035204Y-109958610D01*
X54920300Y-110016062D01*
X55839538Y-110992752D02*
X56758776Y-110992752D01*
X57735466Y-110762943D02*
X57678014Y-110820395D01*
X57505657Y-110877848D01*
X57390752Y-110877848D01*
X57218395Y-110820395D01*
X57103490Y-110705490D01*
X57046038Y-110590586D01*
X56988586Y-110360776D01*
X56988586Y-110188419D01*
X57046038Y-109958610D01*
X57103490Y-109843705D01*
X57218395Y-109728800D01*
X57390752Y-109671348D01*
X57505657Y-109671348D01*
X57678014Y-109728800D01*
X57735466Y-109786252D01*
X58769609Y-110073514D02*
X58769609Y-110877848D01*
X58482347Y-109613895D02*
X58195086Y-110475681D01*
X58941966Y-110475681D01*
X67054538Y-93723800D02*
X66939633Y-93666348D01*
X66767276Y-93666348D01*
X66594919Y-93723800D01*
X66480014Y-93838705D01*
X66422562Y-93953610D01*
X66365110Y-94183419D01*
X66365110Y-94355776D01*
X66422562Y-94585586D01*
X66480014Y-94700490D01*
X66594919Y-94815395D01*
X66767276Y-94872848D01*
X66882181Y-94872848D01*
X67054538Y-94815395D01*
X67111990Y-94757943D01*
X67111990Y-94355776D01*
X66882181Y-94355776D01*
X67629062Y-94872848D02*
X67629062Y-93666348D01*
X68318490Y-94872848D01*
X68318490Y-93666348D01*
X68893014Y-94872848D02*
X68893014Y-93666348D01*
X69180276Y-93666348D01*
X69352633Y-93723800D01*
X69467538Y-93838705D01*
X69524990Y-93953610D01*
X69582442Y-94183419D01*
X69582442Y-94355776D01*
X69524990Y-94585586D01*
X69467538Y-94700490D01*
X69352633Y-94815395D01*
X69180276Y-94872848D01*
X68893014Y-94872848D01*
X69812252Y-94987752D02*
X70731490Y-94987752D01*
X70903847Y-93666348D02*
X71650728Y-93666348D01*
X71248561Y-94125967D01*
X71420919Y-94125967D01*
X71535823Y-94183419D01*
X71593276Y-94240871D01*
X71650728Y-94355776D01*
X71650728Y-94643038D01*
X71593276Y-94757943D01*
X71535823Y-94815395D01*
X71420919Y-94872848D01*
X71076204Y-94872848D01*
X70961300Y-94815395D01*
X70903847Y-94757943D01*
X71880538Y-94987752D02*
X72799776Y-94987752D01*
X73776466Y-94757943D02*
X73719014Y-94815395D01*
X73546657Y-94872848D01*
X73431752Y-94872848D01*
X73259395Y-94815395D01*
X73144490Y-94700490D01*
X73087038Y-94585586D01*
X73029586Y-94355776D01*
X73029586Y-94183419D01*
X73087038Y-93953610D01*
X73144490Y-93838705D01*
X73259395Y-93723800D01*
X73431752Y-93666348D01*
X73546657Y-93666348D01*
X73719014Y-93723800D01*
X73776466Y-93781252D01*
X74810609Y-94068514D02*
X74810609Y-94872848D01*
X74523347Y-93608895D02*
X74236086Y-94470681D01*
X74982966Y-94470681D01*
X50907538Y-93749800D02*
X50792633Y-93692348D01*
X50620276Y-93692348D01*
X50447919Y-93749800D01*
X50333014Y-93864705D01*
X50275562Y-93979610D01*
X50218110Y-94209419D01*
X50218110Y-94381776D01*
X50275562Y-94611586D01*
X50333014Y-94726490D01*
X50447919Y-94841395D01*
X50620276Y-94898848D01*
X50735181Y-94898848D01*
X50907538Y-94841395D01*
X50964990Y-94783943D01*
X50964990Y-94381776D01*
X50735181Y-94381776D01*
X51482062Y-94898848D02*
X51482062Y-93692348D01*
X52171490Y-94898848D01*
X52171490Y-93692348D01*
X52746014Y-94898848D02*
X52746014Y-93692348D01*
X53033276Y-93692348D01*
X53205633Y-93749800D01*
X53320538Y-93864705D01*
X53377990Y-93979610D01*
X53435442Y-94209419D01*
X53435442Y-94381776D01*
X53377990Y-94611586D01*
X53320538Y-94726490D01*
X53205633Y-94841395D01*
X53033276Y-94898848D01*
X52746014Y-94898848D01*
X53665252Y-95013752D02*
X54584490Y-95013752D01*
X55388823Y-94094514D02*
X55388823Y-94898848D01*
X55101561Y-93634895D02*
X54814300Y-94496681D01*
X55561180Y-94496681D01*
X55733538Y-95013752D02*
X56652776Y-95013752D01*
X57629466Y-94783943D02*
X57572014Y-94841395D01*
X57399657Y-94898848D01*
X57284752Y-94898848D01*
X57112395Y-94841395D01*
X56997490Y-94726490D01*
X56940038Y-94611586D01*
X56882586Y-94381776D01*
X56882586Y-94209419D01*
X56940038Y-93979610D01*
X56997490Y-93864705D01*
X57112395Y-93749800D01*
X57284752Y-93692348D01*
X57399657Y-93692348D01*
X57572014Y-93749800D01*
X57629466Y-93807252D01*
X58663609Y-94094514D02*
X58663609Y-94898848D01*
X58376347Y-93634895D02*
X58089086Y-94496681D01*
X58835966Y-94496681D01*
X42947990Y-86806943D02*
X42890538Y-86864395D01*
X42718181Y-86921848D01*
X42603276Y-86921848D01*
X42430919Y-86864395D01*
X42316014Y-86749490D01*
X42258562Y-86634586D01*
X42201110Y-86404776D01*
X42201110Y-86232419D01*
X42258562Y-86002610D01*
X42316014Y-85887705D01*
X42430919Y-85772800D01*
X42603276Y-85715348D01*
X42718181Y-85715348D01*
X42890538Y-85772800D01*
X42947990Y-85830252D01*
X43407610Y-86577133D02*
X43982133Y-86577133D01*
X43292705Y-86921848D02*
X43694871Y-85715348D01*
X44097038Y-86921848D01*
X44499205Y-86921848D02*
X44499205Y-85715348D01*
X45188633Y-86921848D01*
X45188633Y-85715348D01*
X45763157Y-86921848D02*
X45763157Y-85715348D01*
X45763157Y-86289871D02*
X46452585Y-86289871D01*
X46452585Y-86921848D02*
X46452585Y-85715348D01*
X46739847Y-87036752D02*
X47659085Y-87036752D01*
X47888895Y-85830252D02*
X47946347Y-85772800D01*
X48061252Y-85715348D01*
X48348514Y-85715348D01*
X48463418Y-85772800D01*
X48520871Y-85830252D01*
X48578323Y-85945157D01*
X48578323Y-86060062D01*
X48520871Y-86232419D01*
X47831442Y-86921848D01*
X48578323Y-86921848D01*
X48808133Y-87036752D02*
X49727371Y-87036752D01*
X50704061Y-86806943D02*
X50646609Y-86864395D01*
X50474252Y-86921848D01*
X50359347Y-86921848D01*
X50186990Y-86864395D01*
X50072085Y-86749490D01*
X50014633Y-86634586D01*
X49957181Y-86404776D01*
X49957181Y-86232419D01*
X50014633Y-86002610D01*
X50072085Y-85887705D01*
X50186990Y-85772800D01*
X50359347Y-85715348D01*
X50474252Y-85715348D01*
X50646609Y-85772800D01*
X50704061Y-85830252D01*
X51738204Y-86117514D02*
X51738204Y-86921848D01*
X51450942Y-85657895D02*
X51163681Y-86519681D01*
X51910561Y-86519681D01*
X43092990Y-118729943D02*
X43035538Y-118787395D01*
X42863181Y-118844848D01*
X42748276Y-118844848D01*
X42575919Y-118787395D01*
X42461014Y-118672490D01*
X42403562Y-118557586D01*
X42346110Y-118327776D01*
X42346110Y-118155419D01*
X42403562Y-117925610D01*
X42461014Y-117810705D01*
X42575919Y-117695800D01*
X42748276Y-117638348D01*
X42863181Y-117638348D01*
X43035538Y-117695800D01*
X43092990Y-117753252D01*
X43552610Y-118500133D02*
X44127133Y-118500133D01*
X43437705Y-118844848D02*
X43839871Y-117638348D01*
X44242038Y-118844848D01*
X44644205Y-118844848D02*
X44644205Y-117638348D01*
X45333633Y-118844848D01*
X45333633Y-117638348D01*
X45908157Y-118844848D02*
X45908157Y-117638348D01*
X45908157Y-118212871D02*
X46597585Y-118212871D01*
X46597585Y-118844848D02*
X46597585Y-117638348D01*
X46884847Y-118959752D02*
X47804085Y-118959752D01*
X48723323Y-118844848D02*
X48033895Y-118844848D01*
X48378609Y-118844848D02*
X48378609Y-117638348D01*
X48263704Y-117810705D01*
X48148799Y-117925610D01*
X48033895Y-117983062D01*
X48953133Y-118959752D02*
X49872371Y-118959752D01*
X50849061Y-118729943D02*
X50791609Y-118787395D01*
X50619252Y-118844848D01*
X50504347Y-118844848D01*
X50331990Y-118787395D01*
X50217085Y-118672490D01*
X50159633Y-118557586D01*
X50102181Y-118327776D01*
X50102181Y-118155419D01*
X50159633Y-117925610D01*
X50217085Y-117810705D01*
X50331990Y-117695800D01*
X50504347Y-117638348D01*
X50619252Y-117638348D01*
X50791609Y-117695800D01*
X50849061Y-117753252D01*
X51883204Y-118040514D02*
X51883204Y-118844848D01*
X51595942Y-117580895D02*
X51308681Y-118442681D01*
X52055561Y-118442681D01*
X74911990Y-118756943D02*
X74854538Y-118814395D01*
X74682181Y-118871848D01*
X74567276Y-118871848D01*
X74394919Y-118814395D01*
X74280014Y-118699490D01*
X74222562Y-118584586D01*
X74165110Y-118354776D01*
X74165110Y-118182419D01*
X74222562Y-117952610D01*
X74280014Y-117837705D01*
X74394919Y-117722800D01*
X74567276Y-117665348D01*
X74682181Y-117665348D01*
X74854538Y-117722800D01*
X74911990Y-117780252D01*
X75371610Y-118527133D02*
X75946133Y-118527133D01*
X75256705Y-118871848D02*
X75658871Y-117665348D01*
X76061038Y-118871848D01*
X76463205Y-118871848D02*
X76463205Y-117665348D01*
X77152633Y-118871848D01*
X77152633Y-117665348D01*
X77727157Y-118871848D02*
X77727157Y-117665348D01*
X77727157Y-118239871D02*
X78416585Y-118239871D01*
X78416585Y-118871848D02*
X78416585Y-117665348D01*
X78703847Y-118986752D02*
X79623085Y-118986752D01*
X79795442Y-117665348D02*
X80542323Y-117665348D01*
X80140156Y-118124967D01*
X80312514Y-118124967D01*
X80427418Y-118182419D01*
X80484871Y-118239871D01*
X80542323Y-118354776D01*
X80542323Y-118642038D01*
X80484871Y-118756943D01*
X80427418Y-118814395D01*
X80312514Y-118871848D01*
X79967799Y-118871848D01*
X79852895Y-118814395D01*
X79795442Y-118756943D01*
X80772133Y-118986752D02*
X81691371Y-118986752D01*
X82668061Y-118756943D02*
X82610609Y-118814395D01*
X82438252Y-118871848D01*
X82323347Y-118871848D01*
X82150990Y-118814395D01*
X82036085Y-118699490D01*
X81978633Y-118584586D01*
X81921181Y-118354776D01*
X81921181Y-118182419D01*
X81978633Y-117952610D01*
X82036085Y-117837705D01*
X82150990Y-117722800D01*
X82323347Y-117665348D01*
X82438252Y-117665348D01*
X82610609Y-117722800D01*
X82668061Y-117780252D01*
X83702204Y-118067514D02*
X83702204Y-118871848D01*
X83414942Y-117607895D02*
X83127681Y-118469681D01*
X83874561Y-118469681D01*
X75076990Y-86724943D02*
X75019538Y-86782395D01*
X74847181Y-86839848D01*
X74732276Y-86839848D01*
X74559919Y-86782395D01*
X74445014Y-86667490D01*
X74387562Y-86552586D01*
X74330110Y-86322776D01*
X74330110Y-86150419D01*
X74387562Y-85920610D01*
X74445014Y-85805705D01*
X74559919Y-85690800D01*
X74732276Y-85633348D01*
X74847181Y-85633348D01*
X75019538Y-85690800D01*
X75076990Y-85748252D01*
X75536610Y-86495133D02*
X76111133Y-86495133D01*
X75421705Y-86839848D02*
X75823871Y-85633348D01*
X76226038Y-86839848D01*
X76628205Y-86839848D02*
X76628205Y-85633348D01*
X77317633Y-86839848D01*
X77317633Y-85633348D01*
X77892157Y-86839848D02*
X77892157Y-85633348D01*
X77892157Y-86207871D02*
X78581585Y-86207871D01*
X78581585Y-86839848D02*
X78581585Y-85633348D01*
X78868847Y-86954752D02*
X79788085Y-86954752D01*
X80592418Y-86035514D02*
X80592418Y-86839848D01*
X80305156Y-85575895D02*
X80017895Y-86437681D01*
X80764775Y-86437681D01*
X80937133Y-86954752D02*
X81856371Y-86954752D01*
X82833061Y-86724943D02*
X82775609Y-86782395D01*
X82603252Y-86839848D01*
X82488347Y-86839848D01*
X82315990Y-86782395D01*
X82201085Y-86667490D01*
X82143633Y-86552586D01*
X82086181Y-86322776D01*
X82086181Y-86150419D01*
X82143633Y-85920610D01*
X82201085Y-85805705D01*
X82315990Y-85690800D01*
X82488347Y-85633348D01*
X82603252Y-85633348D01*
X82775609Y-85690800D01*
X82833061Y-85748252D01*
X83867204Y-86035514D02*
X83867204Y-86839848D01*
X83579942Y-85575895D02*
X83292681Y-86437681D01*
X84039561Y-86437681D01*
M02*
