G04 #@! TF.FileFunction,Legend,Top*
%FSLAX46Y46*%
G04 Gerber Fmt 4.6, Leading zero omitted, Abs format (unit mm)*
G04 Created by KiCad (PCBNEW 4.0.6) date 05/07/17 20:55:24*
%MOMM*%
%LPD*%
G01*
G04 APERTURE LIST*
%ADD10C,0.100000*%
%ADD11C,0.101600*%
%ADD12C,0.127000*%
%ADD13C,0.002032*%
%ADD14C,0.081280*%
%ADD15C,0.032512*%
G04 APERTURE END LIST*
D10*
D11*
X33828100Y-126757898D02*
G75*
G03X41528100Y-126757900I3850000J872599D01*
G01*
X41778100Y-126707900D02*
X41778100Y-129982900D01*
X41778100Y-129982900D02*
X34378100Y-129982900D01*
X34378100Y-129982900D02*
X33578100Y-129182900D01*
X33578100Y-122582900D02*
X34378100Y-121782900D01*
X34378100Y-121782900D02*
X41778100Y-121782900D01*
X41778100Y-121782900D02*
X41778100Y-125032900D01*
X41528100Y-125007902D02*
G75*
G03X33828100Y-125007900I-3850000J-872599D01*
G01*
D12*
X33143100Y-120475900D02*
X33143100Y-120227900D01*
X33143100Y-120227900D02*
X33143100Y-117481900D01*
X33143100Y-117481900D02*
X40748100Y-117481900D01*
X40748100Y-117481900D02*
X40748100Y-117687900D01*
X40748100Y-117687900D02*
X40748100Y-117745400D01*
X40748100Y-117687900D02*
X40748100Y-120681900D01*
X40748100Y-120681900D02*
X33143100Y-120681900D01*
X33143100Y-120681900D02*
X33143100Y-120227900D01*
X36614600Y-119526400D02*
X36614600Y-118637400D01*
X36614600Y-118637400D02*
X36233600Y-119081900D01*
X36233600Y-119081900D02*
X36614600Y-119526400D01*
X36233600Y-119526400D02*
X36233600Y-118637400D01*
D13*
X70133598Y-117943021D02*
X70147387Y-117943021D01*
X70140492Y-117967151D02*
X70140492Y-117943021D01*
X70155430Y-117967151D02*
X70155430Y-117943021D01*
X70164623Y-117943021D01*
X70166921Y-117944170D01*
X70168070Y-117945319D01*
X70169219Y-117947617D01*
X70169219Y-117951064D01*
X70168070Y-117953362D01*
X70166921Y-117954511D01*
X70164623Y-117955660D01*
X70155430Y-117955660D01*
X70187604Y-117954511D02*
X70191051Y-117955660D01*
X70192200Y-117956810D01*
X70193349Y-117959108D01*
X70193349Y-117962555D01*
X70192200Y-117964853D01*
X70191051Y-117966002D01*
X70188753Y-117967151D01*
X70179560Y-117967151D01*
X70179560Y-117943021D01*
X70187604Y-117943021D01*
X70189902Y-117944170D01*
X70191051Y-117945319D01*
X70192200Y-117947617D01*
X70192200Y-117949915D01*
X70191051Y-117952213D01*
X70189902Y-117953362D01*
X70187604Y-117954511D01*
X70179560Y-117954511D01*
X70202541Y-117945319D02*
X70203690Y-117944170D01*
X70205988Y-117943021D01*
X70211734Y-117943021D01*
X70214032Y-117944170D01*
X70215181Y-117945319D01*
X70216330Y-117947617D01*
X70216330Y-117949915D01*
X70215181Y-117953362D01*
X70201392Y-117967151D01*
X70216330Y-117967151D01*
X70227820Y-117966002D02*
X70227820Y-117967151D01*
X70226671Y-117969449D01*
X70225522Y-117970598D01*
X70249652Y-117943021D02*
X70238161Y-117943021D01*
X70237012Y-117954511D01*
X70238161Y-117953362D01*
X70240459Y-117952213D01*
X70246205Y-117952213D01*
X70248503Y-117953362D01*
X70249652Y-117954511D01*
X70250801Y-117956810D01*
X70250801Y-117962555D01*
X70249652Y-117964853D01*
X70248503Y-117966002D01*
X70246205Y-117967151D01*
X70240459Y-117967151D01*
X70238161Y-117966002D01*
X70237012Y-117964853D01*
X70271484Y-117951064D02*
X70271484Y-117967151D01*
X70265738Y-117941872D02*
X70259993Y-117959108D01*
X70274931Y-117959108D01*
X45993598Y-118124021D02*
X46007387Y-118124021D01*
X46000492Y-118148151D02*
X46000492Y-118124021D01*
X46015430Y-118148151D02*
X46015430Y-118124021D01*
X46024623Y-118124021D01*
X46026921Y-118125170D01*
X46028070Y-118126319D01*
X46029219Y-118128617D01*
X46029219Y-118132064D01*
X46028070Y-118134362D01*
X46026921Y-118135511D01*
X46024623Y-118136660D01*
X46015430Y-118136660D01*
X46047604Y-118135511D02*
X46051051Y-118136660D01*
X46052200Y-118137810D01*
X46053349Y-118140108D01*
X46053349Y-118143555D01*
X46052200Y-118145853D01*
X46051051Y-118147002D01*
X46048753Y-118148151D01*
X46039560Y-118148151D01*
X46039560Y-118124021D01*
X46047604Y-118124021D01*
X46049902Y-118125170D01*
X46051051Y-118126319D01*
X46052200Y-118128617D01*
X46052200Y-118130915D01*
X46051051Y-118133213D01*
X46049902Y-118134362D01*
X46047604Y-118135511D01*
X46039560Y-118135511D01*
X46062541Y-118126319D02*
X46063690Y-118125170D01*
X46065988Y-118124021D01*
X46071734Y-118124021D01*
X46074032Y-118125170D01*
X46075181Y-118126319D01*
X46076330Y-118128617D01*
X46076330Y-118130915D01*
X46075181Y-118134362D01*
X46061392Y-118148151D01*
X46076330Y-118148151D01*
X46087820Y-118147002D02*
X46087820Y-118148151D01*
X46086671Y-118150449D01*
X46085522Y-118151598D01*
X46109652Y-118124021D02*
X46098161Y-118124021D01*
X46097012Y-118135511D01*
X46098161Y-118134362D01*
X46100459Y-118133213D01*
X46106205Y-118133213D01*
X46108503Y-118134362D01*
X46109652Y-118135511D01*
X46110801Y-118137810D01*
X46110801Y-118143555D01*
X46109652Y-118145853D01*
X46108503Y-118147002D01*
X46106205Y-118148151D01*
X46100459Y-118148151D01*
X46098161Y-118147002D01*
X46097012Y-118145853D01*
X46131484Y-118132064D02*
X46131484Y-118148151D01*
X46125738Y-118122872D02*
X46119993Y-118140108D01*
X46134931Y-118140108D01*
X70022598Y-94074021D02*
X70036387Y-94074021D01*
X70029492Y-94098151D02*
X70029492Y-94074021D01*
X70044430Y-94098151D02*
X70044430Y-94074021D01*
X70053623Y-94074021D01*
X70055921Y-94075170D01*
X70057070Y-94076319D01*
X70058219Y-94078617D01*
X70058219Y-94082064D01*
X70057070Y-94084362D01*
X70055921Y-94085511D01*
X70053623Y-94086660D01*
X70044430Y-94086660D01*
X70076604Y-94085511D02*
X70080051Y-94086660D01*
X70081200Y-94087810D01*
X70082349Y-94090108D01*
X70082349Y-94093555D01*
X70081200Y-94095853D01*
X70080051Y-94097002D01*
X70077753Y-94098151D01*
X70068560Y-94098151D01*
X70068560Y-94074021D01*
X70076604Y-94074021D01*
X70078902Y-94075170D01*
X70080051Y-94076319D01*
X70081200Y-94078617D01*
X70081200Y-94080915D01*
X70080051Y-94083213D01*
X70078902Y-94084362D01*
X70076604Y-94085511D01*
X70068560Y-94085511D01*
X70091541Y-94076319D02*
X70092690Y-94075170D01*
X70094988Y-94074021D01*
X70100734Y-94074021D01*
X70103032Y-94075170D01*
X70104181Y-94076319D01*
X70105330Y-94078617D01*
X70105330Y-94080915D01*
X70104181Y-94084362D01*
X70090392Y-94098151D01*
X70105330Y-94098151D01*
X70116820Y-94097002D02*
X70116820Y-94098151D01*
X70115671Y-94100449D01*
X70114522Y-94101598D01*
X70138652Y-94074021D02*
X70127161Y-94074021D01*
X70126012Y-94085511D01*
X70127161Y-94084362D01*
X70129459Y-94083213D01*
X70135205Y-94083213D01*
X70137503Y-94084362D01*
X70138652Y-94085511D01*
X70139801Y-94087810D01*
X70139801Y-94093555D01*
X70138652Y-94095853D01*
X70137503Y-94097002D01*
X70135205Y-94098151D01*
X70129459Y-94098151D01*
X70127161Y-94097002D01*
X70126012Y-94095853D01*
X70160484Y-94082064D02*
X70160484Y-94098151D01*
X70154738Y-94072872D02*
X70148993Y-94090108D01*
X70163931Y-94090108D01*
X46072598Y-94014021D02*
X46086387Y-94014021D01*
X46079492Y-94038151D02*
X46079492Y-94014021D01*
X46094430Y-94038151D02*
X46094430Y-94014021D01*
X46103623Y-94014021D01*
X46105921Y-94015170D01*
X46107070Y-94016319D01*
X46108219Y-94018617D01*
X46108219Y-94022064D01*
X46107070Y-94024362D01*
X46105921Y-94025511D01*
X46103623Y-94026660D01*
X46094430Y-94026660D01*
X46126604Y-94025511D02*
X46130051Y-94026660D01*
X46131200Y-94027810D01*
X46132349Y-94030108D01*
X46132349Y-94033555D01*
X46131200Y-94035853D01*
X46130051Y-94037002D01*
X46127753Y-94038151D01*
X46118560Y-94038151D01*
X46118560Y-94014021D01*
X46126604Y-94014021D01*
X46128902Y-94015170D01*
X46130051Y-94016319D01*
X46131200Y-94018617D01*
X46131200Y-94020915D01*
X46130051Y-94023213D01*
X46128902Y-94024362D01*
X46126604Y-94025511D01*
X46118560Y-94025511D01*
X46141541Y-94016319D02*
X46142690Y-94015170D01*
X46144988Y-94014021D01*
X46150734Y-94014021D01*
X46153032Y-94015170D01*
X46154181Y-94016319D01*
X46155330Y-94018617D01*
X46155330Y-94020915D01*
X46154181Y-94024362D01*
X46140392Y-94038151D01*
X46155330Y-94038151D01*
X46166820Y-94037002D02*
X46166820Y-94038151D01*
X46165671Y-94040449D01*
X46164522Y-94041598D01*
X46188652Y-94014021D02*
X46177161Y-94014021D01*
X46176012Y-94025511D01*
X46177161Y-94024362D01*
X46179459Y-94023213D01*
X46185205Y-94023213D01*
X46187503Y-94024362D01*
X46188652Y-94025511D01*
X46189801Y-94027810D01*
X46189801Y-94033555D01*
X46188652Y-94035853D01*
X46187503Y-94037002D01*
X46185205Y-94038151D01*
X46179459Y-94038151D01*
X46177161Y-94037002D01*
X46176012Y-94035853D01*
X46210484Y-94022064D02*
X46210484Y-94038151D01*
X46204738Y-94012872D02*
X46198993Y-94030108D01*
X46213931Y-94030108D01*
X66088598Y-113970021D02*
X66102387Y-113970021D01*
X66095492Y-113994151D02*
X66095492Y-113970021D01*
X66110430Y-113994151D02*
X66110430Y-113970021D01*
X66119623Y-113970021D01*
X66121921Y-113971170D01*
X66123070Y-113972319D01*
X66124219Y-113974617D01*
X66124219Y-113978064D01*
X66123070Y-113980362D01*
X66121921Y-113981511D01*
X66119623Y-113982660D01*
X66110430Y-113982660D01*
X66142604Y-113981511D02*
X66146051Y-113982660D01*
X66147200Y-113983810D01*
X66148349Y-113986108D01*
X66148349Y-113989555D01*
X66147200Y-113991853D01*
X66146051Y-113993002D01*
X66143753Y-113994151D01*
X66134560Y-113994151D01*
X66134560Y-113970021D01*
X66142604Y-113970021D01*
X66144902Y-113971170D01*
X66146051Y-113972319D01*
X66147200Y-113974617D01*
X66147200Y-113976915D01*
X66146051Y-113979213D01*
X66144902Y-113980362D01*
X66142604Y-113981511D01*
X66134560Y-113981511D01*
X66157541Y-113972319D02*
X66158690Y-113971170D01*
X66160988Y-113970021D01*
X66166734Y-113970021D01*
X66169032Y-113971170D01*
X66170181Y-113972319D01*
X66171330Y-113974617D01*
X66171330Y-113976915D01*
X66170181Y-113980362D01*
X66156392Y-113994151D01*
X66171330Y-113994151D01*
X66182820Y-113993002D02*
X66182820Y-113994151D01*
X66181671Y-113996449D01*
X66180522Y-113997598D01*
X66204652Y-113970021D02*
X66193161Y-113970021D01*
X66192012Y-113981511D01*
X66193161Y-113980362D01*
X66195459Y-113979213D01*
X66201205Y-113979213D01*
X66203503Y-113980362D01*
X66204652Y-113981511D01*
X66205801Y-113983810D01*
X66205801Y-113989555D01*
X66204652Y-113991853D01*
X66203503Y-113993002D01*
X66201205Y-113994151D01*
X66195459Y-113994151D01*
X66193161Y-113993002D01*
X66192012Y-113991853D01*
X66226484Y-113978064D02*
X66226484Y-113994151D01*
X66220738Y-113968872D02*
X66214993Y-113986108D01*
X66229931Y-113986108D01*
X50096598Y-113958021D02*
X50110387Y-113958021D01*
X50103492Y-113982151D02*
X50103492Y-113958021D01*
X50118430Y-113982151D02*
X50118430Y-113958021D01*
X50127623Y-113958021D01*
X50129921Y-113959170D01*
X50131070Y-113960319D01*
X50132219Y-113962617D01*
X50132219Y-113966064D01*
X50131070Y-113968362D01*
X50129921Y-113969511D01*
X50127623Y-113970660D01*
X50118430Y-113970660D01*
X50150604Y-113969511D02*
X50154051Y-113970660D01*
X50155200Y-113971810D01*
X50156349Y-113974108D01*
X50156349Y-113977555D01*
X50155200Y-113979853D01*
X50154051Y-113981002D01*
X50151753Y-113982151D01*
X50142560Y-113982151D01*
X50142560Y-113958021D01*
X50150604Y-113958021D01*
X50152902Y-113959170D01*
X50154051Y-113960319D01*
X50155200Y-113962617D01*
X50155200Y-113964915D01*
X50154051Y-113967213D01*
X50152902Y-113968362D01*
X50150604Y-113969511D01*
X50142560Y-113969511D01*
X50165541Y-113960319D02*
X50166690Y-113959170D01*
X50168988Y-113958021D01*
X50174734Y-113958021D01*
X50177032Y-113959170D01*
X50178181Y-113960319D01*
X50179330Y-113962617D01*
X50179330Y-113964915D01*
X50178181Y-113968362D01*
X50164392Y-113982151D01*
X50179330Y-113982151D01*
X50190820Y-113981002D02*
X50190820Y-113982151D01*
X50189671Y-113984449D01*
X50188522Y-113985598D01*
X50212652Y-113958021D02*
X50201161Y-113958021D01*
X50200012Y-113969511D01*
X50201161Y-113968362D01*
X50203459Y-113967213D01*
X50209205Y-113967213D01*
X50211503Y-113968362D01*
X50212652Y-113969511D01*
X50213801Y-113971810D01*
X50213801Y-113977555D01*
X50212652Y-113979853D01*
X50211503Y-113981002D01*
X50209205Y-113982151D01*
X50203459Y-113982151D01*
X50201161Y-113981002D01*
X50200012Y-113979853D01*
X50234484Y-113966064D02*
X50234484Y-113982151D01*
X50228738Y-113956872D02*
X50222993Y-113974108D01*
X50237931Y-113974108D01*
X66137598Y-97953021D02*
X66151387Y-97953021D01*
X66144492Y-97977151D02*
X66144492Y-97953021D01*
X66159430Y-97977151D02*
X66159430Y-97953021D01*
X66168623Y-97953021D01*
X66170921Y-97954170D01*
X66172070Y-97955319D01*
X66173219Y-97957617D01*
X66173219Y-97961064D01*
X66172070Y-97963362D01*
X66170921Y-97964511D01*
X66168623Y-97965660D01*
X66159430Y-97965660D01*
X66191604Y-97964511D02*
X66195051Y-97965660D01*
X66196200Y-97966810D01*
X66197349Y-97969108D01*
X66197349Y-97972555D01*
X66196200Y-97974853D01*
X66195051Y-97976002D01*
X66192753Y-97977151D01*
X66183560Y-97977151D01*
X66183560Y-97953021D01*
X66191604Y-97953021D01*
X66193902Y-97954170D01*
X66195051Y-97955319D01*
X66196200Y-97957617D01*
X66196200Y-97959915D01*
X66195051Y-97962213D01*
X66193902Y-97963362D01*
X66191604Y-97964511D01*
X66183560Y-97964511D01*
X66206541Y-97955319D02*
X66207690Y-97954170D01*
X66209988Y-97953021D01*
X66215734Y-97953021D01*
X66218032Y-97954170D01*
X66219181Y-97955319D01*
X66220330Y-97957617D01*
X66220330Y-97959915D01*
X66219181Y-97963362D01*
X66205392Y-97977151D01*
X66220330Y-97977151D01*
X66231820Y-97976002D02*
X66231820Y-97977151D01*
X66230671Y-97979449D01*
X66229522Y-97980598D01*
X66253652Y-97953021D02*
X66242161Y-97953021D01*
X66241012Y-97964511D01*
X66242161Y-97963362D01*
X66244459Y-97962213D01*
X66250205Y-97962213D01*
X66252503Y-97963362D01*
X66253652Y-97964511D01*
X66254801Y-97966810D01*
X66254801Y-97972555D01*
X66253652Y-97974853D01*
X66252503Y-97976002D01*
X66250205Y-97977151D01*
X66244459Y-97977151D01*
X66242161Y-97976002D01*
X66241012Y-97974853D01*
X66275484Y-97961064D02*
X66275484Y-97977151D01*
X66269738Y-97951872D02*
X66263993Y-97969108D01*
X66278931Y-97969108D01*
X49990598Y-97979021D02*
X50004387Y-97979021D01*
X49997492Y-98003151D02*
X49997492Y-97979021D01*
X50012430Y-98003151D02*
X50012430Y-97979021D01*
X50021623Y-97979021D01*
X50023921Y-97980170D01*
X50025070Y-97981319D01*
X50026219Y-97983617D01*
X50026219Y-97987064D01*
X50025070Y-97989362D01*
X50023921Y-97990511D01*
X50021623Y-97991660D01*
X50012430Y-97991660D01*
X50044604Y-97990511D02*
X50048051Y-97991660D01*
X50049200Y-97992810D01*
X50050349Y-97995108D01*
X50050349Y-97998555D01*
X50049200Y-98000853D01*
X50048051Y-98002002D01*
X50045753Y-98003151D01*
X50036560Y-98003151D01*
X50036560Y-97979021D01*
X50044604Y-97979021D01*
X50046902Y-97980170D01*
X50048051Y-97981319D01*
X50049200Y-97983617D01*
X50049200Y-97985915D01*
X50048051Y-97988213D01*
X50046902Y-97989362D01*
X50044604Y-97990511D01*
X50036560Y-97990511D01*
X50059541Y-97981319D02*
X50060690Y-97980170D01*
X50062988Y-97979021D01*
X50068734Y-97979021D01*
X50071032Y-97980170D01*
X50072181Y-97981319D01*
X50073330Y-97983617D01*
X50073330Y-97985915D01*
X50072181Y-97989362D01*
X50058392Y-98003151D01*
X50073330Y-98003151D01*
X50084820Y-98002002D02*
X50084820Y-98003151D01*
X50083671Y-98005449D01*
X50082522Y-98006598D01*
X50106652Y-97979021D02*
X50095161Y-97979021D01*
X50094012Y-97990511D01*
X50095161Y-97989362D01*
X50097459Y-97988213D01*
X50103205Y-97988213D01*
X50105503Y-97989362D01*
X50106652Y-97990511D01*
X50107801Y-97992810D01*
X50107801Y-97998555D01*
X50106652Y-98000853D01*
X50105503Y-98002002D01*
X50103205Y-98003151D01*
X50097459Y-98003151D01*
X50095161Y-98002002D01*
X50094012Y-98000853D01*
X50128484Y-97987064D02*
X50128484Y-98003151D01*
X50122738Y-97977872D02*
X50116993Y-97995108D01*
X50131931Y-97995108D01*
X41973598Y-90002021D02*
X41987387Y-90002021D01*
X41980492Y-90026151D02*
X41980492Y-90002021D01*
X41995430Y-90026151D02*
X41995430Y-90002021D01*
X42004623Y-90002021D01*
X42006921Y-90003170D01*
X42008070Y-90004319D01*
X42009219Y-90006617D01*
X42009219Y-90010064D01*
X42008070Y-90012362D01*
X42006921Y-90013511D01*
X42004623Y-90014660D01*
X41995430Y-90014660D01*
X42027604Y-90013511D02*
X42031051Y-90014660D01*
X42032200Y-90015810D01*
X42033349Y-90018108D01*
X42033349Y-90021555D01*
X42032200Y-90023853D01*
X42031051Y-90025002D01*
X42028753Y-90026151D01*
X42019560Y-90026151D01*
X42019560Y-90002021D01*
X42027604Y-90002021D01*
X42029902Y-90003170D01*
X42031051Y-90004319D01*
X42032200Y-90006617D01*
X42032200Y-90008915D01*
X42031051Y-90011213D01*
X42029902Y-90012362D01*
X42027604Y-90013511D01*
X42019560Y-90013511D01*
X42042541Y-90004319D02*
X42043690Y-90003170D01*
X42045988Y-90002021D01*
X42051734Y-90002021D01*
X42054032Y-90003170D01*
X42055181Y-90004319D01*
X42056330Y-90006617D01*
X42056330Y-90008915D01*
X42055181Y-90012362D01*
X42041392Y-90026151D01*
X42056330Y-90026151D01*
X42067820Y-90025002D02*
X42067820Y-90026151D01*
X42066671Y-90028449D01*
X42065522Y-90029598D01*
X42089652Y-90002021D02*
X42078161Y-90002021D01*
X42077012Y-90013511D01*
X42078161Y-90012362D01*
X42080459Y-90011213D01*
X42086205Y-90011213D01*
X42088503Y-90012362D01*
X42089652Y-90013511D01*
X42090801Y-90015810D01*
X42090801Y-90021555D01*
X42089652Y-90023853D01*
X42088503Y-90025002D01*
X42086205Y-90026151D01*
X42080459Y-90026151D01*
X42078161Y-90025002D01*
X42077012Y-90023853D01*
X42111484Y-90010064D02*
X42111484Y-90026151D01*
X42105738Y-90000872D02*
X42099993Y-90018108D01*
X42114931Y-90018108D01*
X42118598Y-121925021D02*
X42132387Y-121925021D01*
X42125492Y-121949151D02*
X42125492Y-121925021D01*
X42140430Y-121949151D02*
X42140430Y-121925021D01*
X42149623Y-121925021D01*
X42151921Y-121926170D01*
X42153070Y-121927319D01*
X42154219Y-121929617D01*
X42154219Y-121933064D01*
X42153070Y-121935362D01*
X42151921Y-121936511D01*
X42149623Y-121937660D01*
X42140430Y-121937660D01*
X42172604Y-121936511D02*
X42176051Y-121937660D01*
X42177200Y-121938810D01*
X42178349Y-121941108D01*
X42178349Y-121944555D01*
X42177200Y-121946853D01*
X42176051Y-121948002D01*
X42173753Y-121949151D01*
X42164560Y-121949151D01*
X42164560Y-121925021D01*
X42172604Y-121925021D01*
X42174902Y-121926170D01*
X42176051Y-121927319D01*
X42177200Y-121929617D01*
X42177200Y-121931915D01*
X42176051Y-121934213D01*
X42174902Y-121935362D01*
X42172604Y-121936511D01*
X42164560Y-121936511D01*
X42187541Y-121927319D02*
X42188690Y-121926170D01*
X42190988Y-121925021D01*
X42196734Y-121925021D01*
X42199032Y-121926170D01*
X42200181Y-121927319D01*
X42201330Y-121929617D01*
X42201330Y-121931915D01*
X42200181Y-121935362D01*
X42186392Y-121949151D01*
X42201330Y-121949151D01*
X42212820Y-121948002D02*
X42212820Y-121949151D01*
X42211671Y-121951449D01*
X42210522Y-121952598D01*
X42234652Y-121925021D02*
X42223161Y-121925021D01*
X42222012Y-121936511D01*
X42223161Y-121935362D01*
X42225459Y-121934213D01*
X42231205Y-121934213D01*
X42233503Y-121935362D01*
X42234652Y-121936511D01*
X42235801Y-121938810D01*
X42235801Y-121944555D01*
X42234652Y-121946853D01*
X42233503Y-121948002D01*
X42231205Y-121949151D01*
X42225459Y-121949151D01*
X42223161Y-121948002D01*
X42222012Y-121946853D01*
X42256484Y-121933064D02*
X42256484Y-121949151D01*
X42250738Y-121923872D02*
X42244993Y-121941108D01*
X42259931Y-121941108D01*
X73937598Y-121952021D02*
X73951387Y-121952021D01*
X73944492Y-121976151D02*
X73944492Y-121952021D01*
X73959430Y-121976151D02*
X73959430Y-121952021D01*
X73968623Y-121952021D01*
X73970921Y-121953170D01*
X73972070Y-121954319D01*
X73973219Y-121956617D01*
X73973219Y-121960064D01*
X73972070Y-121962362D01*
X73970921Y-121963511D01*
X73968623Y-121964660D01*
X73959430Y-121964660D01*
X73991604Y-121963511D02*
X73995051Y-121964660D01*
X73996200Y-121965810D01*
X73997349Y-121968108D01*
X73997349Y-121971555D01*
X73996200Y-121973853D01*
X73995051Y-121975002D01*
X73992753Y-121976151D01*
X73983560Y-121976151D01*
X73983560Y-121952021D01*
X73991604Y-121952021D01*
X73993902Y-121953170D01*
X73995051Y-121954319D01*
X73996200Y-121956617D01*
X73996200Y-121958915D01*
X73995051Y-121961213D01*
X73993902Y-121962362D01*
X73991604Y-121963511D01*
X73983560Y-121963511D01*
X74006541Y-121954319D02*
X74007690Y-121953170D01*
X74009988Y-121952021D01*
X74015734Y-121952021D01*
X74018032Y-121953170D01*
X74019181Y-121954319D01*
X74020330Y-121956617D01*
X74020330Y-121958915D01*
X74019181Y-121962362D01*
X74005392Y-121976151D01*
X74020330Y-121976151D01*
X74031820Y-121975002D02*
X74031820Y-121976151D01*
X74030671Y-121978449D01*
X74029522Y-121979598D01*
X74053652Y-121952021D02*
X74042161Y-121952021D01*
X74041012Y-121963511D01*
X74042161Y-121962362D01*
X74044459Y-121961213D01*
X74050205Y-121961213D01*
X74052503Y-121962362D01*
X74053652Y-121963511D01*
X74054801Y-121965810D01*
X74054801Y-121971555D01*
X74053652Y-121973853D01*
X74052503Y-121975002D01*
X74050205Y-121976151D01*
X74044459Y-121976151D01*
X74042161Y-121975002D01*
X74041012Y-121973853D01*
X74075484Y-121960064D02*
X74075484Y-121976151D01*
X74069738Y-121950872D02*
X74063993Y-121968108D01*
X74078931Y-121968108D01*
X74102598Y-89920021D02*
X74116387Y-89920021D01*
X74109492Y-89944151D02*
X74109492Y-89920021D01*
X74124430Y-89944151D02*
X74124430Y-89920021D01*
X74133623Y-89920021D01*
X74135921Y-89921170D01*
X74137070Y-89922319D01*
X74138219Y-89924617D01*
X74138219Y-89928064D01*
X74137070Y-89930362D01*
X74135921Y-89931511D01*
X74133623Y-89932660D01*
X74124430Y-89932660D01*
X74156604Y-89931511D02*
X74160051Y-89932660D01*
X74161200Y-89933810D01*
X74162349Y-89936108D01*
X74162349Y-89939555D01*
X74161200Y-89941853D01*
X74160051Y-89943002D01*
X74157753Y-89944151D01*
X74148560Y-89944151D01*
X74148560Y-89920021D01*
X74156604Y-89920021D01*
X74158902Y-89921170D01*
X74160051Y-89922319D01*
X74161200Y-89924617D01*
X74161200Y-89926915D01*
X74160051Y-89929213D01*
X74158902Y-89930362D01*
X74156604Y-89931511D01*
X74148560Y-89931511D01*
X74171541Y-89922319D02*
X74172690Y-89921170D01*
X74174988Y-89920021D01*
X74180734Y-89920021D01*
X74183032Y-89921170D01*
X74184181Y-89922319D01*
X74185330Y-89924617D01*
X74185330Y-89926915D01*
X74184181Y-89930362D01*
X74170392Y-89944151D01*
X74185330Y-89944151D01*
X74196820Y-89943002D02*
X74196820Y-89944151D01*
X74195671Y-89946449D01*
X74194522Y-89947598D01*
X74218652Y-89920021D02*
X74207161Y-89920021D01*
X74206012Y-89931511D01*
X74207161Y-89930362D01*
X74209459Y-89929213D01*
X74215205Y-89929213D01*
X74217503Y-89930362D01*
X74218652Y-89931511D01*
X74219801Y-89933810D01*
X74219801Y-89939555D01*
X74218652Y-89941853D01*
X74217503Y-89943002D01*
X74215205Y-89944151D01*
X74209459Y-89944151D01*
X74207161Y-89943002D01*
X74206012Y-89941853D01*
X74240484Y-89928064D02*
X74240484Y-89944151D01*
X74234738Y-89918872D02*
X74228993Y-89936108D01*
X74243931Y-89936108D01*
D11*
X78602229Y-124543571D02*
X78774586Y-124601024D01*
X78832038Y-124658476D01*
X78889490Y-124773381D01*
X78889490Y-124945738D01*
X78832038Y-125060643D01*
X78774586Y-125118095D01*
X78659681Y-125175548D01*
X78200062Y-125175548D01*
X78200062Y-123969048D01*
X78602229Y-123969048D01*
X78717133Y-124026500D01*
X78774586Y-124083952D01*
X78832038Y-124198857D01*
X78832038Y-124313762D01*
X78774586Y-124428667D01*
X78717133Y-124486119D01*
X78602229Y-124543571D01*
X78200062Y-124543571D01*
X79349110Y-124830833D02*
X79923633Y-124830833D01*
X79234205Y-125175548D02*
X79636371Y-123969048D01*
X80038538Y-125175548D01*
X80268348Y-123969048D02*
X80957776Y-123969048D01*
X80613062Y-125175548D02*
X80613062Y-123969048D01*
X81187586Y-123969048D02*
X81877014Y-123969048D01*
X81532300Y-125175548D02*
X81532300Y-123969048D01*
X82279181Y-124543571D02*
X82681348Y-124543571D01*
X82853705Y-125175548D02*
X82279181Y-125175548D01*
X82279181Y-123969048D01*
X82853705Y-123969048D01*
X84060204Y-125175548D02*
X83658038Y-124601024D01*
X83370776Y-125175548D02*
X83370776Y-123969048D01*
X83830395Y-123969048D01*
X83945300Y-124026500D01*
X84002752Y-124083952D01*
X84060204Y-124198857D01*
X84060204Y-124371214D01*
X84002752Y-124486119D01*
X83945300Y-124543571D01*
X83830395Y-124601024D01*
X83370776Y-124601024D01*
X84807085Y-124601024D02*
X84807085Y-125175548D01*
X84404919Y-123969048D02*
X84807085Y-124601024D01*
X85209252Y-123969048D01*
X85611419Y-124715929D02*
X86530657Y-124715929D01*
X86071038Y-125175548D02*
X86071038Y-124256310D01*
D13*
X77960445Y-126339751D02*
X77960445Y-126315621D01*
X77969638Y-126315621D01*
X77971936Y-126316770D01*
X77973085Y-126317919D01*
X77974234Y-126320217D01*
X77974234Y-126323664D01*
X77973085Y-126325962D01*
X77971936Y-126327111D01*
X77969638Y-126328260D01*
X77960445Y-126328260D01*
X77981128Y-126315621D02*
X77994917Y-126315621D01*
X77988022Y-126339751D02*
X77988022Y-126315621D01*
X78016749Y-126339751D02*
X78008705Y-126328260D01*
X78002960Y-126339751D02*
X78002960Y-126315621D01*
X78012153Y-126315621D01*
X78014451Y-126316770D01*
X78015600Y-126317919D01*
X78016749Y-126320217D01*
X78016749Y-126323664D01*
X78015600Y-126325962D01*
X78014451Y-126327111D01*
X78012153Y-126328260D01*
X78002960Y-126328260D01*
X78039730Y-126339751D02*
X78025941Y-126339751D01*
X78032835Y-126339751D02*
X78032835Y-126315621D01*
X78030537Y-126319068D01*
X78028239Y-126321366D01*
X78025941Y-126322515D01*
X78046624Y-126315621D02*
X78060413Y-126315621D01*
X78053518Y-126339751D02*
X78053518Y-126315621D01*
X78068456Y-126339751D02*
X78068456Y-126315621D01*
X78077649Y-126315621D01*
X78079947Y-126316770D01*
X78081096Y-126317919D01*
X78082245Y-126320217D01*
X78082245Y-126323664D01*
X78081096Y-126325962D01*
X78079947Y-126327111D01*
X78077649Y-126328260D01*
X78068456Y-126328260D01*
X78105226Y-126339751D02*
X78091437Y-126339751D01*
X78098331Y-126339751D02*
X78098331Y-126315621D01*
X78096033Y-126319068D01*
X78093735Y-126321366D01*
X78091437Y-126322515D01*
X78128207Y-126339751D02*
X78114418Y-126339751D01*
X78121312Y-126339751D02*
X78121312Y-126315621D01*
X78119014Y-126319068D01*
X78116716Y-126321366D01*
X78114418Y-126322515D01*
X78152337Y-126339751D02*
X78144293Y-126328260D01*
X78138548Y-126339751D02*
X78138548Y-126315621D01*
X78147741Y-126315621D01*
X78150039Y-126316770D01*
X78151188Y-126317919D01*
X78152337Y-126320217D01*
X78152337Y-126323664D01*
X78151188Y-126325962D01*
X78150039Y-126327111D01*
X78147741Y-126328260D01*
X78138548Y-126328260D01*
D11*
X78584029Y-128677571D02*
X78756386Y-128735024D01*
X78813838Y-128792476D01*
X78871290Y-128907381D01*
X78871290Y-129079738D01*
X78813838Y-129194643D01*
X78756386Y-129252095D01*
X78641481Y-129309548D01*
X78181862Y-129309548D01*
X78181862Y-128103048D01*
X78584029Y-128103048D01*
X78698933Y-128160500D01*
X78756386Y-128217952D01*
X78813838Y-128332857D01*
X78813838Y-128447762D01*
X78756386Y-128562667D01*
X78698933Y-128620119D01*
X78584029Y-128677571D01*
X78181862Y-128677571D01*
X79330910Y-128964833D02*
X79905433Y-128964833D01*
X79216005Y-129309548D02*
X79618171Y-128103048D01*
X80020338Y-129309548D01*
X80250148Y-128103048D02*
X80939576Y-128103048D01*
X80594862Y-129309548D02*
X80594862Y-128103048D01*
X81169386Y-128103048D02*
X81858814Y-128103048D01*
X81514100Y-129309548D02*
X81514100Y-128103048D01*
X82260981Y-128677571D02*
X82663148Y-128677571D01*
X82835505Y-129309548D02*
X82260981Y-129309548D01*
X82260981Y-128103048D01*
X82835505Y-128103048D01*
X84042004Y-129309548D02*
X83639838Y-128735024D01*
X83352576Y-129309548D02*
X83352576Y-128103048D01*
X83812195Y-128103048D01*
X83927100Y-128160500D01*
X83984552Y-128217952D01*
X84042004Y-128332857D01*
X84042004Y-128505214D01*
X83984552Y-128620119D01*
X83927100Y-128677571D01*
X83812195Y-128735024D01*
X83352576Y-128735024D01*
X84788885Y-128735024D02*
X84788885Y-129309548D01*
X84386719Y-128103048D02*
X84788885Y-128735024D01*
X85191052Y-128103048D01*
X85593219Y-128849929D02*
X86512457Y-128849929D01*
D13*
X77942245Y-130473751D02*
X77942245Y-130449621D01*
X77951438Y-130449621D01*
X77953736Y-130450770D01*
X77954885Y-130451919D01*
X77956034Y-130454217D01*
X77956034Y-130457664D01*
X77954885Y-130459962D01*
X77953736Y-130461111D01*
X77951438Y-130462260D01*
X77942245Y-130462260D01*
X77962928Y-130449621D02*
X77976717Y-130449621D01*
X77969822Y-130473751D02*
X77969822Y-130449621D01*
X77998549Y-130473751D02*
X77990505Y-130462260D01*
X77984760Y-130473751D02*
X77984760Y-130449621D01*
X77993953Y-130449621D01*
X77996251Y-130450770D01*
X77997400Y-130451919D01*
X77998549Y-130454217D01*
X77998549Y-130457664D01*
X77997400Y-130459962D01*
X77996251Y-130461111D01*
X77993953Y-130462260D01*
X77984760Y-130462260D01*
X78021530Y-130473751D02*
X78007741Y-130473751D01*
X78014635Y-130473751D02*
X78014635Y-130449621D01*
X78012337Y-130453068D01*
X78010039Y-130455366D01*
X78007741Y-130456515D01*
X78028424Y-130449621D02*
X78042213Y-130449621D01*
X78035318Y-130473751D02*
X78035318Y-130449621D01*
X78050256Y-130473751D02*
X78050256Y-130449621D01*
X78059449Y-130449621D01*
X78061747Y-130450770D01*
X78062896Y-130451919D01*
X78064045Y-130454217D01*
X78064045Y-130457664D01*
X78062896Y-130459962D01*
X78061747Y-130461111D01*
X78059449Y-130462260D01*
X78050256Y-130462260D01*
X78087026Y-130473751D02*
X78073237Y-130473751D01*
X78080131Y-130473751D02*
X78080131Y-130449621D01*
X78077833Y-130453068D01*
X78075535Y-130455366D01*
X78073237Y-130456515D01*
X78110007Y-130473751D02*
X78096218Y-130473751D01*
X78103112Y-130473751D02*
X78103112Y-130449621D01*
X78100814Y-130453068D01*
X78098516Y-130455366D01*
X78096218Y-130456515D01*
X78134137Y-130473751D02*
X78126093Y-130462260D01*
X78120348Y-130473751D02*
X78120348Y-130449621D01*
X78129541Y-130449621D01*
X78131839Y-130450770D01*
X78132988Y-130451919D01*
X78134137Y-130454217D01*
X78134137Y-130457664D01*
X78132988Y-130459962D01*
X78131839Y-130461111D01*
X78129541Y-130462260D01*
X78120348Y-130462260D01*
D11*
X35832105Y-78055048D02*
X36234271Y-79261548D01*
X36636438Y-78055048D01*
X37728033Y-79146643D02*
X37670581Y-79204095D01*
X37498224Y-79261548D01*
X37383319Y-79261548D01*
X37210962Y-79204095D01*
X37096057Y-79089190D01*
X37038605Y-78974286D01*
X36981153Y-78744476D01*
X36981153Y-78572119D01*
X37038605Y-78342310D01*
X37096057Y-78227405D01*
X37210962Y-78112500D01*
X37383319Y-78055048D01*
X37498224Y-78055048D01*
X37670581Y-78112500D01*
X37728033Y-78169952D01*
X38934533Y-79146643D02*
X38877081Y-79204095D01*
X38704724Y-79261548D01*
X38589819Y-79261548D01*
X38417462Y-79204095D01*
X38302557Y-79089190D01*
X38245105Y-78974286D01*
X38187653Y-78744476D01*
X38187653Y-78572119D01*
X38245105Y-78342310D01*
X38302557Y-78227405D01*
X38417462Y-78112500D01*
X38589819Y-78055048D01*
X38704724Y-78055048D01*
X38877081Y-78112500D01*
X38934533Y-78169952D01*
X39394153Y-78169952D02*
X39451605Y-78112500D01*
X39566510Y-78055048D01*
X39853772Y-78055048D01*
X39968676Y-78112500D01*
X40026129Y-78169952D01*
X40083581Y-78284857D01*
X40083581Y-78399762D01*
X40026129Y-78572119D01*
X39336700Y-79261548D01*
X40083581Y-79261548D01*
D13*
X35764845Y-80425751D02*
X35764845Y-80401621D01*
X35774038Y-80401621D01*
X35776336Y-80402770D01*
X35777485Y-80403919D01*
X35778634Y-80406217D01*
X35778634Y-80409664D01*
X35777485Y-80411962D01*
X35776336Y-80413111D01*
X35774038Y-80414260D01*
X35764845Y-80414260D01*
X35785528Y-80401621D02*
X35799317Y-80401621D01*
X35792422Y-80425751D02*
X35792422Y-80401621D01*
X35821149Y-80425751D02*
X35813105Y-80414260D01*
X35807360Y-80425751D02*
X35807360Y-80401621D01*
X35816553Y-80401621D01*
X35818851Y-80402770D01*
X35820000Y-80403919D01*
X35821149Y-80406217D01*
X35821149Y-80409664D01*
X35820000Y-80411962D01*
X35818851Y-80413111D01*
X35816553Y-80414260D01*
X35807360Y-80414260D01*
X35844130Y-80425751D02*
X35830341Y-80425751D01*
X35837235Y-80425751D02*
X35837235Y-80401621D01*
X35834937Y-80405068D01*
X35832639Y-80407366D01*
X35830341Y-80408515D01*
X35851024Y-80401621D02*
X35864813Y-80401621D01*
X35857918Y-80425751D02*
X35857918Y-80401621D01*
X35872856Y-80425751D02*
X35872856Y-80401621D01*
X35882049Y-80401621D01*
X35884347Y-80402770D01*
X35885496Y-80403919D01*
X35886645Y-80406217D01*
X35886645Y-80409664D01*
X35885496Y-80411962D01*
X35884347Y-80413111D01*
X35882049Y-80414260D01*
X35872856Y-80414260D01*
X35909626Y-80425751D02*
X35895837Y-80425751D01*
X35902731Y-80425751D02*
X35902731Y-80401621D01*
X35900433Y-80405068D01*
X35898135Y-80407366D01*
X35895837Y-80408515D01*
X35932607Y-80425751D02*
X35918818Y-80425751D01*
X35925712Y-80425751D02*
X35925712Y-80401621D01*
X35923414Y-80405068D01*
X35921116Y-80407366D01*
X35918818Y-80408515D01*
X35956737Y-80425751D02*
X35948693Y-80414260D01*
X35942948Y-80425751D02*
X35942948Y-80401621D01*
X35952141Y-80401621D01*
X35954439Y-80402770D01*
X35955588Y-80403919D01*
X35956737Y-80406217D01*
X35956737Y-80409664D01*
X35955588Y-80411962D01*
X35954439Y-80413111D01*
X35952141Y-80414260D01*
X35942948Y-80414260D01*
D11*
X36822438Y-81057500D02*
X36707533Y-81000048D01*
X36535176Y-81000048D01*
X36362819Y-81057500D01*
X36247914Y-81172405D01*
X36190462Y-81287310D01*
X36133010Y-81517119D01*
X36133010Y-81689476D01*
X36190462Y-81919286D01*
X36247914Y-82034190D01*
X36362819Y-82149095D01*
X36535176Y-82206548D01*
X36650081Y-82206548D01*
X36822438Y-82149095D01*
X36879890Y-82091643D01*
X36879890Y-81689476D01*
X36650081Y-81689476D01*
X37396962Y-82206548D02*
X37396962Y-81000048D01*
X38086390Y-82206548D01*
X38086390Y-81000048D01*
X38660914Y-82206548D02*
X38660914Y-81000048D01*
X38948176Y-81000048D01*
X39120533Y-81057500D01*
X39235438Y-81172405D01*
X39292890Y-81287310D01*
X39350342Y-81517119D01*
X39350342Y-81689476D01*
X39292890Y-81919286D01*
X39235438Y-82034190D01*
X39120533Y-82149095D01*
X38948176Y-82206548D01*
X38660914Y-82206548D01*
X39809962Y-81114952D02*
X39867414Y-81057500D01*
X39982319Y-81000048D01*
X40269581Y-81000048D01*
X40384485Y-81057500D01*
X40441938Y-81114952D01*
X40499390Y-81229857D01*
X40499390Y-81344762D01*
X40441938Y-81517119D01*
X39752509Y-82206548D01*
X40499390Y-82206548D01*
D13*
X35950845Y-83370751D02*
X35950845Y-83346621D01*
X35960038Y-83346621D01*
X35962336Y-83347770D01*
X35963485Y-83348919D01*
X35964634Y-83351217D01*
X35964634Y-83354664D01*
X35963485Y-83356962D01*
X35962336Y-83358111D01*
X35960038Y-83359260D01*
X35950845Y-83359260D01*
X35971528Y-83346621D02*
X35985317Y-83346621D01*
X35978422Y-83370751D02*
X35978422Y-83346621D01*
X36007149Y-83370751D02*
X35999105Y-83359260D01*
X35993360Y-83370751D02*
X35993360Y-83346621D01*
X36002553Y-83346621D01*
X36004851Y-83347770D01*
X36006000Y-83348919D01*
X36007149Y-83351217D01*
X36007149Y-83354664D01*
X36006000Y-83356962D01*
X36004851Y-83358111D01*
X36002553Y-83359260D01*
X35993360Y-83359260D01*
X36030130Y-83370751D02*
X36016341Y-83370751D01*
X36023235Y-83370751D02*
X36023235Y-83346621D01*
X36020937Y-83350068D01*
X36018639Y-83352366D01*
X36016341Y-83353515D01*
X36037024Y-83346621D02*
X36050813Y-83346621D01*
X36043918Y-83370751D02*
X36043918Y-83346621D01*
X36058856Y-83370751D02*
X36058856Y-83346621D01*
X36068049Y-83346621D01*
X36070347Y-83347770D01*
X36071496Y-83348919D01*
X36072645Y-83351217D01*
X36072645Y-83354664D01*
X36071496Y-83356962D01*
X36070347Y-83358111D01*
X36068049Y-83359260D01*
X36058856Y-83359260D01*
X36095626Y-83370751D02*
X36081837Y-83370751D01*
X36088731Y-83370751D02*
X36088731Y-83346621D01*
X36086433Y-83350068D01*
X36084135Y-83352366D01*
X36081837Y-83353515D01*
X36118607Y-83370751D02*
X36104818Y-83370751D01*
X36111712Y-83370751D02*
X36111712Y-83346621D01*
X36109414Y-83350068D01*
X36107116Y-83352366D01*
X36104818Y-83353515D01*
X36142737Y-83370751D02*
X36134693Y-83359260D01*
X36128948Y-83370751D02*
X36128948Y-83346621D01*
X36138141Y-83346621D01*
X36140439Y-83347770D01*
X36141588Y-83348919D01*
X36142737Y-83351217D01*
X36142737Y-83354664D01*
X36141588Y-83356962D01*
X36140439Y-83358111D01*
X36138141Y-83359260D01*
X36128948Y-83359260D01*
D11*
X36991890Y-90516643D02*
X36934438Y-90574095D01*
X36762081Y-90631548D01*
X36647176Y-90631548D01*
X36474819Y-90574095D01*
X36359914Y-90459190D01*
X36302462Y-90344286D01*
X36245010Y-90114476D01*
X36245010Y-89942119D01*
X36302462Y-89712310D01*
X36359914Y-89597405D01*
X36474819Y-89482500D01*
X36647176Y-89425048D01*
X36762081Y-89425048D01*
X36934438Y-89482500D01*
X36991890Y-89539952D01*
X37451510Y-90286833D02*
X38026033Y-90286833D01*
X37336605Y-90631548D02*
X37738771Y-89425048D01*
X38140938Y-90631548D01*
X38543105Y-90631548D02*
X38543105Y-89425048D01*
X39232533Y-90631548D01*
X39232533Y-89425048D01*
X40381581Y-90631548D02*
X39807057Y-90631548D01*
X39807057Y-89425048D01*
X40726295Y-89539952D02*
X40783747Y-89482500D01*
X40898652Y-89425048D01*
X41185914Y-89425048D01*
X41300818Y-89482500D01*
X41358271Y-89539952D01*
X41415723Y-89654857D01*
X41415723Y-89769762D01*
X41358271Y-89942119D01*
X40668842Y-90631548D01*
X41415723Y-90631548D01*
D13*
X36062845Y-91795751D02*
X36062845Y-91771621D01*
X36072038Y-91771621D01*
X36074336Y-91772770D01*
X36075485Y-91773919D01*
X36076634Y-91776217D01*
X36076634Y-91779664D01*
X36075485Y-91781962D01*
X36074336Y-91783111D01*
X36072038Y-91784260D01*
X36062845Y-91784260D01*
X36083528Y-91771621D02*
X36097317Y-91771621D01*
X36090422Y-91795751D02*
X36090422Y-91771621D01*
X36119149Y-91795751D02*
X36111105Y-91784260D01*
X36105360Y-91795751D02*
X36105360Y-91771621D01*
X36114553Y-91771621D01*
X36116851Y-91772770D01*
X36118000Y-91773919D01*
X36119149Y-91776217D01*
X36119149Y-91779664D01*
X36118000Y-91781962D01*
X36116851Y-91783111D01*
X36114553Y-91784260D01*
X36105360Y-91784260D01*
X36142130Y-91795751D02*
X36128341Y-91795751D01*
X36135235Y-91795751D02*
X36135235Y-91771621D01*
X36132937Y-91775068D01*
X36130639Y-91777366D01*
X36128341Y-91778515D01*
X36149024Y-91771621D02*
X36162813Y-91771621D01*
X36155918Y-91795751D02*
X36155918Y-91771621D01*
X36170856Y-91795751D02*
X36170856Y-91771621D01*
X36180049Y-91771621D01*
X36182347Y-91772770D01*
X36183496Y-91773919D01*
X36184645Y-91776217D01*
X36184645Y-91779664D01*
X36183496Y-91781962D01*
X36182347Y-91783111D01*
X36180049Y-91784260D01*
X36170856Y-91784260D01*
X36207626Y-91795751D02*
X36193837Y-91795751D01*
X36200731Y-91795751D02*
X36200731Y-91771621D01*
X36198433Y-91775068D01*
X36196135Y-91777366D01*
X36193837Y-91778515D01*
X36230607Y-91795751D02*
X36216818Y-91795751D01*
X36223712Y-91795751D02*
X36223712Y-91771621D01*
X36221414Y-91775068D01*
X36219116Y-91777366D01*
X36216818Y-91778515D01*
X36254737Y-91795751D02*
X36246693Y-91784260D01*
X36240948Y-91795751D02*
X36240948Y-91771621D01*
X36250141Y-91771621D01*
X36252439Y-91772770D01*
X36253588Y-91773919D01*
X36254737Y-91776217D01*
X36254737Y-91779664D01*
X36253588Y-91781962D01*
X36252439Y-91783111D01*
X36250141Y-91784260D01*
X36240948Y-91784260D01*
D11*
X36980890Y-93494643D02*
X36923438Y-93552095D01*
X36751081Y-93609548D01*
X36636176Y-93609548D01*
X36463819Y-93552095D01*
X36348914Y-93437190D01*
X36291462Y-93322286D01*
X36234010Y-93092476D01*
X36234010Y-92920119D01*
X36291462Y-92690310D01*
X36348914Y-92575405D01*
X36463819Y-92460500D01*
X36636176Y-92403048D01*
X36751081Y-92403048D01*
X36923438Y-92460500D01*
X36980890Y-92517952D01*
X37440510Y-93264833D02*
X38015033Y-93264833D01*
X37325605Y-93609548D02*
X37727771Y-92403048D01*
X38129938Y-93609548D01*
X38532105Y-93609548D02*
X38532105Y-92403048D01*
X39221533Y-93609548D01*
X39221533Y-92403048D01*
X39796057Y-93609548D02*
X39796057Y-92403048D01*
X39796057Y-92977571D02*
X40485485Y-92977571D01*
X40485485Y-93609548D02*
X40485485Y-92403048D01*
X41002557Y-92517952D02*
X41060009Y-92460500D01*
X41174914Y-92403048D01*
X41462176Y-92403048D01*
X41577080Y-92460500D01*
X41634533Y-92517952D01*
X41691985Y-92632857D01*
X41691985Y-92747762D01*
X41634533Y-92920119D01*
X40945104Y-93609548D01*
X41691985Y-93609548D01*
D13*
X36051845Y-94773751D02*
X36051845Y-94749621D01*
X36061038Y-94749621D01*
X36063336Y-94750770D01*
X36064485Y-94751919D01*
X36065634Y-94754217D01*
X36065634Y-94757664D01*
X36064485Y-94759962D01*
X36063336Y-94761111D01*
X36061038Y-94762260D01*
X36051845Y-94762260D01*
X36072528Y-94749621D02*
X36086317Y-94749621D01*
X36079422Y-94773751D02*
X36079422Y-94749621D01*
X36108149Y-94773751D02*
X36100105Y-94762260D01*
X36094360Y-94773751D02*
X36094360Y-94749621D01*
X36103553Y-94749621D01*
X36105851Y-94750770D01*
X36107000Y-94751919D01*
X36108149Y-94754217D01*
X36108149Y-94757664D01*
X36107000Y-94759962D01*
X36105851Y-94761111D01*
X36103553Y-94762260D01*
X36094360Y-94762260D01*
X36131130Y-94773751D02*
X36117341Y-94773751D01*
X36124235Y-94773751D02*
X36124235Y-94749621D01*
X36121937Y-94753068D01*
X36119639Y-94755366D01*
X36117341Y-94756515D01*
X36138024Y-94749621D02*
X36151813Y-94749621D01*
X36144918Y-94773751D02*
X36144918Y-94749621D01*
X36159856Y-94773751D02*
X36159856Y-94749621D01*
X36169049Y-94749621D01*
X36171347Y-94750770D01*
X36172496Y-94751919D01*
X36173645Y-94754217D01*
X36173645Y-94757664D01*
X36172496Y-94759962D01*
X36171347Y-94761111D01*
X36169049Y-94762260D01*
X36159856Y-94762260D01*
X36196626Y-94773751D02*
X36182837Y-94773751D01*
X36189731Y-94773751D02*
X36189731Y-94749621D01*
X36187433Y-94753068D01*
X36185135Y-94755366D01*
X36182837Y-94756515D01*
X36219607Y-94773751D02*
X36205818Y-94773751D01*
X36212712Y-94773751D02*
X36212712Y-94749621D01*
X36210414Y-94753068D01*
X36208116Y-94755366D01*
X36205818Y-94756515D01*
X36243737Y-94773751D02*
X36235693Y-94762260D01*
X36229948Y-94773751D02*
X36229948Y-94749621D01*
X36239141Y-94749621D01*
X36241439Y-94750770D01*
X36242588Y-94751919D01*
X36243737Y-94754217D01*
X36243737Y-94757664D01*
X36242588Y-94759962D01*
X36241439Y-94761111D01*
X36239141Y-94762260D01*
X36229948Y-94762260D01*
D11*
X36154557Y-83843048D02*
X36901438Y-83843048D01*
X36499271Y-84302667D01*
X36671629Y-84302667D01*
X36786533Y-84360119D01*
X36843986Y-84417571D01*
X36901438Y-84532476D01*
X36901438Y-84819738D01*
X36843986Y-84934643D01*
X36786533Y-84992095D01*
X36671629Y-85049548D01*
X36326914Y-85049548D01*
X36212010Y-84992095D01*
X36154557Y-84934643D01*
X37246153Y-83843048D02*
X37648319Y-85049548D01*
X38050486Y-83843048D01*
X38337748Y-83843048D02*
X39084629Y-83843048D01*
X38682462Y-84302667D01*
X38854820Y-84302667D01*
X38969724Y-84360119D01*
X39027177Y-84417571D01*
X39084629Y-84532476D01*
X39084629Y-84819738D01*
X39027177Y-84934643D01*
X38969724Y-84992095D01*
X38854820Y-85049548D01*
X38510105Y-85049548D01*
X38395201Y-84992095D01*
X38337748Y-84934643D01*
X39544249Y-83957952D02*
X39601701Y-83900500D01*
X39716606Y-83843048D01*
X40003868Y-83843048D01*
X40118772Y-83900500D01*
X40176225Y-83957952D01*
X40233677Y-84072857D01*
X40233677Y-84187762D01*
X40176225Y-84360119D01*
X39486796Y-85049548D01*
X40233677Y-85049548D01*
D13*
X36029845Y-86213751D02*
X36029845Y-86189621D01*
X36039038Y-86189621D01*
X36041336Y-86190770D01*
X36042485Y-86191919D01*
X36043634Y-86194217D01*
X36043634Y-86197664D01*
X36042485Y-86199962D01*
X36041336Y-86201111D01*
X36039038Y-86202260D01*
X36029845Y-86202260D01*
X36050528Y-86189621D02*
X36064317Y-86189621D01*
X36057422Y-86213751D02*
X36057422Y-86189621D01*
X36086149Y-86213751D02*
X36078105Y-86202260D01*
X36072360Y-86213751D02*
X36072360Y-86189621D01*
X36081553Y-86189621D01*
X36083851Y-86190770D01*
X36085000Y-86191919D01*
X36086149Y-86194217D01*
X36086149Y-86197664D01*
X36085000Y-86199962D01*
X36083851Y-86201111D01*
X36081553Y-86202260D01*
X36072360Y-86202260D01*
X36109130Y-86213751D02*
X36095341Y-86213751D01*
X36102235Y-86213751D02*
X36102235Y-86189621D01*
X36099937Y-86193068D01*
X36097639Y-86195366D01*
X36095341Y-86196515D01*
X36116024Y-86189621D02*
X36129813Y-86189621D01*
X36122918Y-86213751D02*
X36122918Y-86189621D01*
X36137856Y-86213751D02*
X36137856Y-86189621D01*
X36147049Y-86189621D01*
X36149347Y-86190770D01*
X36150496Y-86191919D01*
X36151645Y-86194217D01*
X36151645Y-86197664D01*
X36150496Y-86199962D01*
X36149347Y-86201111D01*
X36147049Y-86202260D01*
X36137856Y-86202260D01*
X36174626Y-86213751D02*
X36160837Y-86213751D01*
X36167731Y-86213751D02*
X36167731Y-86189621D01*
X36165433Y-86193068D01*
X36163135Y-86195366D01*
X36160837Y-86196515D01*
X36197607Y-86213751D02*
X36183818Y-86213751D01*
X36190712Y-86213751D02*
X36190712Y-86189621D01*
X36188414Y-86193068D01*
X36186116Y-86195366D01*
X36183818Y-86196515D01*
X36221737Y-86213751D02*
X36213693Y-86202260D01*
X36207948Y-86213751D02*
X36207948Y-86189621D01*
X36217141Y-86189621D01*
X36219439Y-86190770D01*
X36220588Y-86191919D01*
X36221737Y-86194217D01*
X36221737Y-86197664D01*
X36220588Y-86199962D01*
X36219439Y-86201111D01*
X36217141Y-86202260D01*
X36207948Y-86202260D01*
D11*
X36384010Y-99232095D02*
X36556367Y-99289548D01*
X36843629Y-99289548D01*
X36958533Y-99232095D01*
X37015986Y-99174643D01*
X37073438Y-99059738D01*
X37073438Y-98944833D01*
X37015986Y-98829929D01*
X36958533Y-98772476D01*
X36843629Y-98715024D01*
X36613819Y-98657571D01*
X36498914Y-98600119D01*
X36441462Y-98542667D01*
X36384010Y-98427762D01*
X36384010Y-98312857D01*
X36441462Y-98197952D01*
X36498914Y-98140500D01*
X36613819Y-98083048D01*
X36901081Y-98083048D01*
X37073438Y-98140500D01*
X38279938Y-99174643D02*
X38222486Y-99232095D01*
X38050129Y-99289548D01*
X37935224Y-99289548D01*
X37762867Y-99232095D01*
X37647962Y-99117190D01*
X37590510Y-99002286D01*
X37533058Y-98772476D01*
X37533058Y-98600119D01*
X37590510Y-98370310D01*
X37647962Y-98255405D01*
X37762867Y-98140500D01*
X37935224Y-98083048D01*
X38050129Y-98083048D01*
X38222486Y-98140500D01*
X38279938Y-98197952D01*
X39371534Y-99289548D02*
X38797010Y-99289548D01*
X38797010Y-98083048D01*
X39716248Y-98197952D02*
X39773700Y-98140500D01*
X39888605Y-98083048D01*
X40175867Y-98083048D01*
X40290771Y-98140500D01*
X40348224Y-98197952D01*
X40405676Y-98312857D01*
X40405676Y-98427762D01*
X40348224Y-98600119D01*
X39658795Y-99289548D01*
X40405676Y-99289548D01*
D13*
X36201845Y-100453751D02*
X36201845Y-100429621D01*
X36211038Y-100429621D01*
X36213336Y-100430770D01*
X36214485Y-100431919D01*
X36215634Y-100434217D01*
X36215634Y-100437664D01*
X36214485Y-100439962D01*
X36213336Y-100441111D01*
X36211038Y-100442260D01*
X36201845Y-100442260D01*
X36222528Y-100429621D02*
X36236317Y-100429621D01*
X36229422Y-100453751D02*
X36229422Y-100429621D01*
X36258149Y-100453751D02*
X36250105Y-100442260D01*
X36244360Y-100453751D02*
X36244360Y-100429621D01*
X36253553Y-100429621D01*
X36255851Y-100430770D01*
X36257000Y-100431919D01*
X36258149Y-100434217D01*
X36258149Y-100437664D01*
X36257000Y-100439962D01*
X36255851Y-100441111D01*
X36253553Y-100442260D01*
X36244360Y-100442260D01*
X36281130Y-100453751D02*
X36267341Y-100453751D01*
X36274235Y-100453751D02*
X36274235Y-100429621D01*
X36271937Y-100433068D01*
X36269639Y-100435366D01*
X36267341Y-100436515D01*
X36288024Y-100429621D02*
X36301813Y-100429621D01*
X36294918Y-100453751D02*
X36294918Y-100429621D01*
X36309856Y-100453751D02*
X36309856Y-100429621D01*
X36319049Y-100429621D01*
X36321347Y-100430770D01*
X36322496Y-100431919D01*
X36323645Y-100434217D01*
X36323645Y-100437664D01*
X36322496Y-100439962D01*
X36321347Y-100441111D01*
X36319049Y-100442260D01*
X36309856Y-100442260D01*
X36346626Y-100453751D02*
X36332837Y-100453751D01*
X36339731Y-100453751D02*
X36339731Y-100429621D01*
X36337433Y-100433068D01*
X36335135Y-100435366D01*
X36332837Y-100436515D01*
X36369607Y-100453751D02*
X36355818Y-100453751D01*
X36362712Y-100453751D02*
X36362712Y-100429621D01*
X36360414Y-100433068D01*
X36358116Y-100435366D01*
X36355818Y-100436515D01*
X36393737Y-100453751D02*
X36385693Y-100442260D01*
X36379948Y-100453751D02*
X36379948Y-100429621D01*
X36389141Y-100429621D01*
X36391439Y-100430770D01*
X36392588Y-100431919D01*
X36393737Y-100434217D01*
X36393737Y-100437664D01*
X36392588Y-100439962D01*
X36391439Y-100441111D01*
X36389141Y-100442260D01*
X36379948Y-100442260D01*
D11*
X36235010Y-96416095D02*
X36407367Y-96473548D01*
X36694629Y-96473548D01*
X36809533Y-96416095D01*
X36866986Y-96358643D01*
X36924438Y-96243738D01*
X36924438Y-96128833D01*
X36866986Y-96013929D01*
X36809533Y-95956476D01*
X36694629Y-95899024D01*
X36464819Y-95841571D01*
X36349914Y-95784119D01*
X36292462Y-95726667D01*
X36235010Y-95611762D01*
X36235010Y-95496857D01*
X36292462Y-95381952D01*
X36349914Y-95324500D01*
X36464819Y-95267048D01*
X36752081Y-95267048D01*
X36924438Y-95324500D01*
X37441510Y-96473548D02*
X37441510Y-95267048D01*
X37728772Y-95267048D01*
X37901129Y-95324500D01*
X38016034Y-95439405D01*
X38073486Y-95554310D01*
X38130938Y-95784119D01*
X38130938Y-95956476D01*
X38073486Y-96186286D01*
X38016034Y-96301190D01*
X37901129Y-96416095D01*
X37728772Y-96473548D01*
X37441510Y-96473548D01*
X38590558Y-96128833D02*
X39165081Y-96128833D01*
X38475653Y-96473548D02*
X38877819Y-95267048D01*
X39279986Y-96473548D01*
X39624701Y-95381952D02*
X39682153Y-95324500D01*
X39797058Y-95267048D01*
X40084320Y-95267048D01*
X40199224Y-95324500D01*
X40256677Y-95381952D01*
X40314129Y-95496857D01*
X40314129Y-95611762D01*
X40256677Y-95784119D01*
X39567248Y-96473548D01*
X40314129Y-96473548D01*
D13*
X36052845Y-97637751D02*
X36052845Y-97613621D01*
X36062038Y-97613621D01*
X36064336Y-97614770D01*
X36065485Y-97615919D01*
X36066634Y-97618217D01*
X36066634Y-97621664D01*
X36065485Y-97623962D01*
X36064336Y-97625111D01*
X36062038Y-97626260D01*
X36052845Y-97626260D01*
X36073528Y-97613621D02*
X36087317Y-97613621D01*
X36080422Y-97637751D02*
X36080422Y-97613621D01*
X36109149Y-97637751D02*
X36101105Y-97626260D01*
X36095360Y-97637751D02*
X36095360Y-97613621D01*
X36104553Y-97613621D01*
X36106851Y-97614770D01*
X36108000Y-97615919D01*
X36109149Y-97618217D01*
X36109149Y-97621664D01*
X36108000Y-97623962D01*
X36106851Y-97625111D01*
X36104553Y-97626260D01*
X36095360Y-97626260D01*
X36132130Y-97637751D02*
X36118341Y-97637751D01*
X36125235Y-97637751D02*
X36125235Y-97613621D01*
X36122937Y-97617068D01*
X36120639Y-97619366D01*
X36118341Y-97620515D01*
X36139024Y-97613621D02*
X36152813Y-97613621D01*
X36145918Y-97637751D02*
X36145918Y-97613621D01*
X36160856Y-97637751D02*
X36160856Y-97613621D01*
X36170049Y-97613621D01*
X36172347Y-97614770D01*
X36173496Y-97615919D01*
X36174645Y-97618217D01*
X36174645Y-97621664D01*
X36173496Y-97623962D01*
X36172347Y-97625111D01*
X36170049Y-97626260D01*
X36160856Y-97626260D01*
X36197626Y-97637751D02*
X36183837Y-97637751D01*
X36190731Y-97637751D02*
X36190731Y-97613621D01*
X36188433Y-97617068D01*
X36186135Y-97619366D01*
X36183837Y-97620515D01*
X36220607Y-97637751D02*
X36206818Y-97637751D01*
X36213712Y-97637751D02*
X36213712Y-97613621D01*
X36211414Y-97617068D01*
X36209116Y-97619366D01*
X36206818Y-97620515D01*
X36244737Y-97637751D02*
X36236693Y-97626260D01*
X36230948Y-97637751D02*
X36230948Y-97613621D01*
X36240141Y-97613621D01*
X36242439Y-97614770D01*
X36243588Y-97615919D01*
X36244737Y-97618217D01*
X36244737Y-97621664D01*
X36243588Y-97623962D01*
X36242439Y-97625111D01*
X36240141Y-97626260D01*
X36230948Y-97626260D01*
D11*
X36880986Y-87834548D02*
X36306462Y-87834548D01*
X36306462Y-86628048D01*
X37283152Y-87202571D02*
X37685319Y-87202571D01*
X37857676Y-87834548D02*
X37283152Y-87834548D01*
X37283152Y-86628048D01*
X37857676Y-86628048D01*
X38374747Y-87834548D02*
X38374747Y-86628048D01*
X38662009Y-86628048D01*
X38834366Y-86685500D01*
X38949271Y-86800405D01*
X39006723Y-86915310D01*
X39064175Y-87145119D01*
X39064175Y-87317476D01*
X39006723Y-87547286D01*
X38949271Y-87662190D01*
X38834366Y-87777095D01*
X38662009Y-87834548D01*
X38374747Y-87834548D01*
X40270675Y-87719643D02*
X40213223Y-87777095D01*
X40040866Y-87834548D01*
X39925961Y-87834548D01*
X39753604Y-87777095D01*
X39638699Y-87662190D01*
X39581247Y-87547286D01*
X39523795Y-87317476D01*
X39523795Y-87145119D01*
X39581247Y-86915310D01*
X39638699Y-86800405D01*
X39753604Y-86685500D01*
X39925961Y-86628048D01*
X40040866Y-86628048D01*
X40213223Y-86685500D01*
X40270675Y-86742952D01*
D13*
X36066845Y-88998751D02*
X36066845Y-88974621D01*
X36076038Y-88974621D01*
X36078336Y-88975770D01*
X36079485Y-88976919D01*
X36080634Y-88979217D01*
X36080634Y-88982664D01*
X36079485Y-88984962D01*
X36078336Y-88986111D01*
X36076038Y-88987260D01*
X36066845Y-88987260D01*
X36087528Y-88974621D02*
X36101317Y-88974621D01*
X36094422Y-88998751D02*
X36094422Y-88974621D01*
X36123149Y-88998751D02*
X36115105Y-88987260D01*
X36109360Y-88998751D02*
X36109360Y-88974621D01*
X36118553Y-88974621D01*
X36120851Y-88975770D01*
X36122000Y-88976919D01*
X36123149Y-88979217D01*
X36123149Y-88982664D01*
X36122000Y-88984962D01*
X36120851Y-88986111D01*
X36118553Y-88987260D01*
X36109360Y-88987260D01*
X36146130Y-88998751D02*
X36132341Y-88998751D01*
X36139235Y-88998751D02*
X36139235Y-88974621D01*
X36136937Y-88978068D01*
X36134639Y-88980366D01*
X36132341Y-88981515D01*
X36153024Y-88974621D02*
X36166813Y-88974621D01*
X36159918Y-88998751D02*
X36159918Y-88974621D01*
X36174856Y-88998751D02*
X36174856Y-88974621D01*
X36184049Y-88974621D01*
X36186347Y-88975770D01*
X36187496Y-88976919D01*
X36188645Y-88979217D01*
X36188645Y-88982664D01*
X36187496Y-88984962D01*
X36186347Y-88986111D01*
X36184049Y-88987260D01*
X36174856Y-88987260D01*
X36211626Y-88998751D02*
X36197837Y-88998751D01*
X36204731Y-88998751D02*
X36204731Y-88974621D01*
X36202433Y-88978068D01*
X36200135Y-88980366D01*
X36197837Y-88981515D01*
X36234607Y-88998751D02*
X36220818Y-88998751D01*
X36227712Y-88998751D02*
X36227712Y-88974621D01*
X36225414Y-88978068D01*
X36223116Y-88980366D01*
X36220818Y-88981515D01*
X36258737Y-88998751D02*
X36250693Y-88987260D01*
X36244948Y-88998751D02*
X36244948Y-88974621D01*
X36254141Y-88974621D01*
X36256439Y-88975770D01*
X36257588Y-88976919D01*
X36258737Y-88979217D01*
X36258737Y-88982664D01*
X36257588Y-88984962D01*
X36256439Y-88986111D01*
X36254141Y-88987260D01*
X36244948Y-88987260D01*
D14*
X40385014Y-131155214D02*
X40339052Y-131201176D01*
X40201167Y-131247138D01*
X40109243Y-131247138D01*
X39971357Y-131201176D01*
X39879433Y-131109252D01*
X39833472Y-131017329D01*
X39787510Y-130833481D01*
X39787510Y-130695595D01*
X39833472Y-130511748D01*
X39879433Y-130419824D01*
X39971357Y-130327900D01*
X40109243Y-130281938D01*
X40201167Y-130281938D01*
X40339052Y-130327900D01*
X40385014Y-130373862D01*
X40752710Y-130373862D02*
X40798672Y-130327900D01*
X40890595Y-130281938D01*
X41120405Y-130281938D01*
X41212329Y-130327900D01*
X41258291Y-130373862D01*
X41304252Y-130465786D01*
X41304252Y-130557710D01*
X41258291Y-130695595D01*
X40706748Y-131247138D01*
X41304252Y-131247138D01*
D15*
X34484024Y-117158515D02*
X34484024Y-116772435D01*
X34575948Y-116772435D01*
X34631102Y-116790820D01*
X34667871Y-116827590D01*
X34686256Y-116864359D01*
X34704641Y-116937898D01*
X34704641Y-116993052D01*
X34686256Y-117066591D01*
X34667871Y-117103361D01*
X34631102Y-117140130D01*
X34575948Y-117158515D01*
X34484024Y-117158515D01*
X35072336Y-117158515D02*
X34851719Y-117158515D01*
X34962028Y-117158515D02*
X34962028Y-116772435D01*
X34925258Y-116827590D01*
X34888489Y-116864359D01*
X34851719Y-116882744D01*
M02*
