G04 #@! TF.FileFunction,Other,Comment*
%FSLAX46Y46*%
G04 Gerber Fmt 4.6, Leading zero omitted, Abs format (unit mm)*
G04 Created by KiCad (PCBNEW 4.0.6) date 05/08/17 07:30:41*
%MOMM*%
%LPD*%
G01*
G04 APERTURE LIST*
%ADD10C,0.100000*%
%ADD11C,0.254000*%
%ADD12C,0.080000*%
G04 APERTURE END LIST*
D10*
D11*
X72036300Y-116571300D02*
G75*
G03X72036300Y-116571300I-635000J0D01*
G01*
X47896300Y-116752300D02*
G75*
G03X47896300Y-116752300I-635000J0D01*
G01*
X71925300Y-92702300D02*
G75*
G03X71925300Y-92702300I-635000J0D01*
G01*
X47975300Y-92642300D02*
G75*
G03X47975300Y-92642300I-635000J0D01*
G01*
X67991300Y-112598300D02*
G75*
G03X67991300Y-112598300I-635000J0D01*
G01*
X51999300Y-112586300D02*
G75*
G03X51999300Y-112586300I-635000J0D01*
G01*
X68040300Y-96581300D02*
G75*
G03X68040300Y-96581300I-635000J0D01*
G01*
X51893300Y-96607300D02*
G75*
G03X51893300Y-96607300I-635000J0D01*
G01*
X43876300Y-88630300D02*
G75*
G03X43876300Y-88630300I-635000J0D01*
G01*
X44021300Y-120553300D02*
G75*
G03X44021300Y-120553300I-635000J0D01*
G01*
X75840300Y-120580300D02*
G75*
G03X75840300Y-120580300I-635000J0D01*
G01*
X76005300Y-88548300D02*
G75*
G03X76005300Y-88548300I-635000J0D01*
G01*
D12*
X70357490Y-119067729D02*
X71081300Y-119339157D01*
X70357490Y-119610586D01*
X71397966Y-118751062D02*
X71940823Y-118751062D01*
X71669395Y-119701062D02*
X71669395Y-118751062D01*
X72257490Y-119701062D02*
X72257490Y-118751062D01*
X72619395Y-118751062D01*
X72709871Y-118796300D01*
X72755110Y-118841538D01*
X72800348Y-118932014D01*
X72800348Y-119067729D01*
X72755110Y-119158205D01*
X72709871Y-119203443D01*
X72619395Y-119248681D01*
X72257490Y-119248681D01*
X72981300Y-119791538D02*
X73705110Y-119791538D01*
X73886062Y-119655824D02*
X74021777Y-119701062D01*
X74247967Y-119701062D01*
X74338443Y-119655824D01*
X74383681Y-119610586D01*
X74428920Y-119520110D01*
X74428920Y-119429633D01*
X74383681Y-119339157D01*
X74338443Y-119293919D01*
X74247967Y-119248681D01*
X74067015Y-119203443D01*
X73976539Y-119158205D01*
X73931300Y-119112967D01*
X73886062Y-119022490D01*
X73886062Y-118932014D01*
X73931300Y-118841538D01*
X73976539Y-118796300D01*
X74067015Y-118751062D01*
X74293205Y-118751062D01*
X74428920Y-118796300D01*
X74836062Y-119701062D02*
X74836062Y-118751062D01*
X75786063Y-118796300D02*
X75695586Y-118751062D01*
X75559872Y-118751062D01*
X75424158Y-118796300D01*
X75333682Y-118886776D01*
X75288443Y-118977252D01*
X75243205Y-119158205D01*
X75243205Y-119293919D01*
X75288443Y-119474871D01*
X75333682Y-119565348D01*
X75424158Y-119655824D01*
X75559872Y-119701062D01*
X75650348Y-119701062D01*
X75786063Y-119655824D01*
X75831301Y-119610586D01*
X75831301Y-119293919D01*
X75650348Y-119293919D01*
X76238443Y-119701062D02*
X76238443Y-118751062D01*
X76781301Y-119701062D01*
X76781301Y-118751062D01*
X77188443Y-119429633D02*
X77640824Y-119429633D01*
X77097967Y-119701062D02*
X77414634Y-118751062D01*
X77731301Y-119701062D01*
X78500348Y-119701062D02*
X78047967Y-119701062D01*
X78047967Y-118751062D01*
X78590825Y-119791538D02*
X79314635Y-119791538D01*
X79540825Y-119701062D02*
X79540825Y-118751062D01*
X80083683Y-119701062D01*
X80083683Y-118751062D01*
X80490825Y-119429633D02*
X80943206Y-119429633D01*
X80400349Y-119701062D02*
X80717016Y-118751062D01*
X81033683Y-119701062D01*
X81350349Y-119701062D02*
X81350349Y-118751062D01*
X81667016Y-119429633D01*
X81983683Y-118751062D01*
X81983683Y-119701062D01*
X82436063Y-119203443D02*
X82752730Y-119203443D01*
X82888444Y-119701062D02*
X82436063Y-119701062D01*
X82436063Y-118751062D01*
X82888444Y-118751062D01*
X46217490Y-119248729D02*
X46941300Y-119520157D01*
X46217490Y-119791586D01*
X47257966Y-118932062D02*
X47800823Y-118932062D01*
X47529395Y-119882062D02*
X47529395Y-118932062D01*
X48117490Y-119882062D02*
X48117490Y-118932062D01*
X48479395Y-118932062D01*
X48569871Y-118977300D01*
X48615110Y-119022538D01*
X48660348Y-119113014D01*
X48660348Y-119248729D01*
X48615110Y-119339205D01*
X48569871Y-119384443D01*
X48479395Y-119429681D01*
X48117490Y-119429681D01*
X48841300Y-119972538D02*
X49565110Y-119972538D01*
X49746062Y-119836824D02*
X49881777Y-119882062D01*
X50107967Y-119882062D01*
X50198443Y-119836824D01*
X50243681Y-119791586D01*
X50288920Y-119701110D01*
X50288920Y-119610633D01*
X50243681Y-119520157D01*
X50198443Y-119474919D01*
X50107967Y-119429681D01*
X49927015Y-119384443D01*
X49836539Y-119339205D01*
X49791300Y-119293967D01*
X49746062Y-119203490D01*
X49746062Y-119113014D01*
X49791300Y-119022538D01*
X49836539Y-118977300D01*
X49927015Y-118932062D01*
X50153205Y-118932062D01*
X50288920Y-118977300D01*
X50696062Y-119882062D02*
X50696062Y-118932062D01*
X51646063Y-118977300D02*
X51555586Y-118932062D01*
X51419872Y-118932062D01*
X51284158Y-118977300D01*
X51193682Y-119067776D01*
X51148443Y-119158252D01*
X51103205Y-119339205D01*
X51103205Y-119474919D01*
X51148443Y-119655871D01*
X51193682Y-119746348D01*
X51284158Y-119836824D01*
X51419872Y-119882062D01*
X51510348Y-119882062D01*
X51646063Y-119836824D01*
X51691301Y-119791586D01*
X51691301Y-119474919D01*
X51510348Y-119474919D01*
X52098443Y-119882062D02*
X52098443Y-118932062D01*
X52641301Y-119882062D01*
X52641301Y-118932062D01*
X53048443Y-119610633D02*
X53500824Y-119610633D01*
X52957967Y-119882062D02*
X53274634Y-118932062D01*
X53591301Y-119882062D01*
X54360348Y-119882062D02*
X53907967Y-119882062D01*
X53907967Y-118932062D01*
X54450825Y-119972538D02*
X55174635Y-119972538D01*
X55400825Y-119882062D02*
X55400825Y-118932062D01*
X55943683Y-119882062D01*
X55943683Y-118932062D01*
X56350825Y-119610633D02*
X56803206Y-119610633D01*
X56260349Y-119882062D02*
X56577016Y-118932062D01*
X56893683Y-119882062D01*
X57210349Y-119882062D02*
X57210349Y-118932062D01*
X57527016Y-119610633D01*
X57843683Y-118932062D01*
X57843683Y-119882062D01*
X58296063Y-119384443D02*
X58612730Y-119384443D01*
X58748444Y-119882062D02*
X58296063Y-119882062D01*
X58296063Y-118932062D01*
X58748444Y-118932062D01*
X70246490Y-95198729D02*
X70970300Y-95470157D01*
X70246490Y-95741586D01*
X71286966Y-94882062D02*
X71829823Y-94882062D01*
X71558395Y-95832062D02*
X71558395Y-94882062D01*
X72146490Y-95832062D02*
X72146490Y-94882062D01*
X72508395Y-94882062D01*
X72598871Y-94927300D01*
X72644110Y-94972538D01*
X72689348Y-95063014D01*
X72689348Y-95198729D01*
X72644110Y-95289205D01*
X72598871Y-95334443D01*
X72508395Y-95379681D01*
X72146490Y-95379681D01*
X72870300Y-95922538D02*
X73594110Y-95922538D01*
X73775062Y-95786824D02*
X73910777Y-95832062D01*
X74136967Y-95832062D01*
X74227443Y-95786824D01*
X74272681Y-95741586D01*
X74317920Y-95651110D01*
X74317920Y-95560633D01*
X74272681Y-95470157D01*
X74227443Y-95424919D01*
X74136967Y-95379681D01*
X73956015Y-95334443D01*
X73865539Y-95289205D01*
X73820300Y-95243967D01*
X73775062Y-95153490D01*
X73775062Y-95063014D01*
X73820300Y-94972538D01*
X73865539Y-94927300D01*
X73956015Y-94882062D01*
X74182205Y-94882062D01*
X74317920Y-94927300D01*
X74725062Y-95832062D02*
X74725062Y-94882062D01*
X75675063Y-94927300D02*
X75584586Y-94882062D01*
X75448872Y-94882062D01*
X75313158Y-94927300D01*
X75222682Y-95017776D01*
X75177443Y-95108252D01*
X75132205Y-95289205D01*
X75132205Y-95424919D01*
X75177443Y-95605871D01*
X75222682Y-95696348D01*
X75313158Y-95786824D01*
X75448872Y-95832062D01*
X75539348Y-95832062D01*
X75675063Y-95786824D01*
X75720301Y-95741586D01*
X75720301Y-95424919D01*
X75539348Y-95424919D01*
X76127443Y-95832062D02*
X76127443Y-94882062D01*
X76670301Y-95832062D01*
X76670301Y-94882062D01*
X77077443Y-95560633D02*
X77529824Y-95560633D01*
X76986967Y-95832062D02*
X77303634Y-94882062D01*
X77620301Y-95832062D01*
X78389348Y-95832062D02*
X77936967Y-95832062D01*
X77936967Y-94882062D01*
X78479825Y-95922538D02*
X79203635Y-95922538D01*
X79429825Y-95832062D02*
X79429825Y-94882062D01*
X79972683Y-95832062D01*
X79972683Y-94882062D01*
X80379825Y-95560633D02*
X80832206Y-95560633D01*
X80289349Y-95832062D02*
X80606016Y-94882062D01*
X80922683Y-95832062D01*
X81239349Y-95832062D02*
X81239349Y-94882062D01*
X81556016Y-95560633D01*
X81872683Y-94882062D01*
X81872683Y-95832062D01*
X82325063Y-95334443D02*
X82641730Y-95334443D01*
X82777444Y-95832062D02*
X82325063Y-95832062D01*
X82325063Y-94882062D01*
X82777444Y-94882062D01*
X46296490Y-95138729D02*
X47020300Y-95410157D01*
X46296490Y-95681586D01*
X47336966Y-94822062D02*
X47879823Y-94822062D01*
X47608395Y-95772062D02*
X47608395Y-94822062D01*
X48196490Y-95772062D02*
X48196490Y-94822062D01*
X48558395Y-94822062D01*
X48648871Y-94867300D01*
X48694110Y-94912538D01*
X48739348Y-95003014D01*
X48739348Y-95138729D01*
X48694110Y-95229205D01*
X48648871Y-95274443D01*
X48558395Y-95319681D01*
X48196490Y-95319681D01*
X48920300Y-95862538D02*
X49644110Y-95862538D01*
X49825062Y-95726824D02*
X49960777Y-95772062D01*
X50186967Y-95772062D01*
X50277443Y-95726824D01*
X50322681Y-95681586D01*
X50367920Y-95591110D01*
X50367920Y-95500633D01*
X50322681Y-95410157D01*
X50277443Y-95364919D01*
X50186967Y-95319681D01*
X50006015Y-95274443D01*
X49915539Y-95229205D01*
X49870300Y-95183967D01*
X49825062Y-95093490D01*
X49825062Y-95003014D01*
X49870300Y-94912538D01*
X49915539Y-94867300D01*
X50006015Y-94822062D01*
X50232205Y-94822062D01*
X50367920Y-94867300D01*
X50775062Y-95772062D02*
X50775062Y-94822062D01*
X51725063Y-94867300D02*
X51634586Y-94822062D01*
X51498872Y-94822062D01*
X51363158Y-94867300D01*
X51272682Y-94957776D01*
X51227443Y-95048252D01*
X51182205Y-95229205D01*
X51182205Y-95364919D01*
X51227443Y-95545871D01*
X51272682Y-95636348D01*
X51363158Y-95726824D01*
X51498872Y-95772062D01*
X51589348Y-95772062D01*
X51725063Y-95726824D01*
X51770301Y-95681586D01*
X51770301Y-95364919D01*
X51589348Y-95364919D01*
X52177443Y-95772062D02*
X52177443Y-94822062D01*
X52720301Y-95772062D01*
X52720301Y-94822062D01*
X53127443Y-95500633D02*
X53579824Y-95500633D01*
X53036967Y-95772062D02*
X53353634Y-94822062D01*
X53670301Y-95772062D01*
X54439348Y-95772062D02*
X53986967Y-95772062D01*
X53986967Y-94822062D01*
X54529825Y-95862538D02*
X55253635Y-95862538D01*
X55479825Y-95772062D02*
X55479825Y-94822062D01*
X56022683Y-95772062D01*
X56022683Y-94822062D01*
X56429825Y-95500633D02*
X56882206Y-95500633D01*
X56339349Y-95772062D02*
X56656016Y-94822062D01*
X56972683Y-95772062D01*
X57289349Y-95772062D02*
X57289349Y-94822062D01*
X57606016Y-95500633D01*
X57922683Y-94822062D01*
X57922683Y-95772062D01*
X58375063Y-95274443D02*
X58691730Y-95274443D01*
X58827444Y-95772062D02*
X58375063Y-95772062D01*
X58375063Y-94822062D01*
X58827444Y-94822062D01*
X66312490Y-115094729D02*
X67036300Y-115366157D01*
X66312490Y-115637586D01*
X67352966Y-114778062D02*
X67895823Y-114778062D01*
X67624395Y-115728062D02*
X67624395Y-114778062D01*
X68212490Y-115728062D02*
X68212490Y-114778062D01*
X68574395Y-114778062D01*
X68664871Y-114823300D01*
X68710110Y-114868538D01*
X68755348Y-114959014D01*
X68755348Y-115094729D01*
X68710110Y-115185205D01*
X68664871Y-115230443D01*
X68574395Y-115275681D01*
X68212490Y-115275681D01*
X68936300Y-115818538D02*
X69660110Y-115818538D01*
X69841062Y-115682824D02*
X69976777Y-115728062D01*
X70202967Y-115728062D01*
X70293443Y-115682824D01*
X70338681Y-115637586D01*
X70383920Y-115547110D01*
X70383920Y-115456633D01*
X70338681Y-115366157D01*
X70293443Y-115320919D01*
X70202967Y-115275681D01*
X70022015Y-115230443D01*
X69931539Y-115185205D01*
X69886300Y-115139967D01*
X69841062Y-115049490D01*
X69841062Y-114959014D01*
X69886300Y-114868538D01*
X69931539Y-114823300D01*
X70022015Y-114778062D01*
X70248205Y-114778062D01*
X70383920Y-114823300D01*
X70791062Y-115728062D02*
X70791062Y-114778062D01*
X71741063Y-114823300D02*
X71650586Y-114778062D01*
X71514872Y-114778062D01*
X71379158Y-114823300D01*
X71288682Y-114913776D01*
X71243443Y-115004252D01*
X71198205Y-115185205D01*
X71198205Y-115320919D01*
X71243443Y-115501871D01*
X71288682Y-115592348D01*
X71379158Y-115682824D01*
X71514872Y-115728062D01*
X71605348Y-115728062D01*
X71741063Y-115682824D01*
X71786301Y-115637586D01*
X71786301Y-115320919D01*
X71605348Y-115320919D01*
X72193443Y-115728062D02*
X72193443Y-114778062D01*
X72736301Y-115728062D01*
X72736301Y-114778062D01*
X73143443Y-115456633D02*
X73595824Y-115456633D01*
X73052967Y-115728062D02*
X73369634Y-114778062D01*
X73686301Y-115728062D01*
X74455348Y-115728062D02*
X74002967Y-115728062D01*
X74002967Y-114778062D01*
X74545825Y-115818538D02*
X75269635Y-115818538D01*
X75495825Y-115728062D02*
X75495825Y-114778062D01*
X76038683Y-115728062D01*
X76038683Y-114778062D01*
X76445825Y-115456633D02*
X76898206Y-115456633D01*
X76355349Y-115728062D02*
X76672016Y-114778062D01*
X76988683Y-115728062D01*
X77305349Y-115728062D02*
X77305349Y-114778062D01*
X77622016Y-115456633D01*
X77938683Y-114778062D01*
X77938683Y-115728062D01*
X78391063Y-115230443D02*
X78707730Y-115230443D01*
X78843444Y-115728062D02*
X78391063Y-115728062D01*
X78391063Y-114778062D01*
X78843444Y-114778062D01*
X50320490Y-115082729D02*
X51044300Y-115354157D01*
X50320490Y-115625586D01*
X51360966Y-114766062D02*
X51903823Y-114766062D01*
X51632395Y-115716062D02*
X51632395Y-114766062D01*
X52220490Y-115716062D02*
X52220490Y-114766062D01*
X52582395Y-114766062D01*
X52672871Y-114811300D01*
X52718110Y-114856538D01*
X52763348Y-114947014D01*
X52763348Y-115082729D01*
X52718110Y-115173205D01*
X52672871Y-115218443D01*
X52582395Y-115263681D01*
X52220490Y-115263681D01*
X52944300Y-115806538D02*
X53668110Y-115806538D01*
X53849062Y-115670824D02*
X53984777Y-115716062D01*
X54210967Y-115716062D01*
X54301443Y-115670824D01*
X54346681Y-115625586D01*
X54391920Y-115535110D01*
X54391920Y-115444633D01*
X54346681Y-115354157D01*
X54301443Y-115308919D01*
X54210967Y-115263681D01*
X54030015Y-115218443D01*
X53939539Y-115173205D01*
X53894300Y-115127967D01*
X53849062Y-115037490D01*
X53849062Y-114947014D01*
X53894300Y-114856538D01*
X53939539Y-114811300D01*
X54030015Y-114766062D01*
X54256205Y-114766062D01*
X54391920Y-114811300D01*
X54799062Y-115716062D02*
X54799062Y-114766062D01*
X55749063Y-114811300D02*
X55658586Y-114766062D01*
X55522872Y-114766062D01*
X55387158Y-114811300D01*
X55296682Y-114901776D01*
X55251443Y-114992252D01*
X55206205Y-115173205D01*
X55206205Y-115308919D01*
X55251443Y-115489871D01*
X55296682Y-115580348D01*
X55387158Y-115670824D01*
X55522872Y-115716062D01*
X55613348Y-115716062D01*
X55749063Y-115670824D01*
X55794301Y-115625586D01*
X55794301Y-115308919D01*
X55613348Y-115308919D01*
X56201443Y-115716062D02*
X56201443Y-114766062D01*
X56744301Y-115716062D01*
X56744301Y-114766062D01*
X57151443Y-115444633D02*
X57603824Y-115444633D01*
X57060967Y-115716062D02*
X57377634Y-114766062D01*
X57694301Y-115716062D01*
X58463348Y-115716062D02*
X58010967Y-115716062D01*
X58010967Y-114766062D01*
X58553825Y-115806538D02*
X59277635Y-115806538D01*
X59503825Y-115716062D02*
X59503825Y-114766062D01*
X60046683Y-115716062D01*
X60046683Y-114766062D01*
X60453825Y-115444633D02*
X60906206Y-115444633D01*
X60363349Y-115716062D02*
X60680016Y-114766062D01*
X60996683Y-115716062D01*
X61313349Y-115716062D02*
X61313349Y-114766062D01*
X61630016Y-115444633D01*
X61946683Y-114766062D01*
X61946683Y-115716062D01*
X62399063Y-115218443D02*
X62715730Y-115218443D01*
X62851444Y-115716062D02*
X62399063Y-115716062D01*
X62399063Y-114766062D01*
X62851444Y-114766062D01*
X66361490Y-99077729D02*
X67085300Y-99349157D01*
X66361490Y-99620586D01*
X67401966Y-98761062D02*
X67944823Y-98761062D01*
X67673395Y-99711062D02*
X67673395Y-98761062D01*
X68261490Y-99711062D02*
X68261490Y-98761062D01*
X68623395Y-98761062D01*
X68713871Y-98806300D01*
X68759110Y-98851538D01*
X68804348Y-98942014D01*
X68804348Y-99077729D01*
X68759110Y-99168205D01*
X68713871Y-99213443D01*
X68623395Y-99258681D01*
X68261490Y-99258681D01*
X68985300Y-99801538D02*
X69709110Y-99801538D01*
X69890062Y-99665824D02*
X70025777Y-99711062D01*
X70251967Y-99711062D01*
X70342443Y-99665824D01*
X70387681Y-99620586D01*
X70432920Y-99530110D01*
X70432920Y-99439633D01*
X70387681Y-99349157D01*
X70342443Y-99303919D01*
X70251967Y-99258681D01*
X70071015Y-99213443D01*
X69980539Y-99168205D01*
X69935300Y-99122967D01*
X69890062Y-99032490D01*
X69890062Y-98942014D01*
X69935300Y-98851538D01*
X69980539Y-98806300D01*
X70071015Y-98761062D01*
X70297205Y-98761062D01*
X70432920Y-98806300D01*
X70840062Y-99711062D02*
X70840062Y-98761062D01*
X71790063Y-98806300D02*
X71699586Y-98761062D01*
X71563872Y-98761062D01*
X71428158Y-98806300D01*
X71337682Y-98896776D01*
X71292443Y-98987252D01*
X71247205Y-99168205D01*
X71247205Y-99303919D01*
X71292443Y-99484871D01*
X71337682Y-99575348D01*
X71428158Y-99665824D01*
X71563872Y-99711062D01*
X71654348Y-99711062D01*
X71790063Y-99665824D01*
X71835301Y-99620586D01*
X71835301Y-99303919D01*
X71654348Y-99303919D01*
X72242443Y-99711062D02*
X72242443Y-98761062D01*
X72785301Y-99711062D01*
X72785301Y-98761062D01*
X73192443Y-99439633D02*
X73644824Y-99439633D01*
X73101967Y-99711062D02*
X73418634Y-98761062D01*
X73735301Y-99711062D01*
X74504348Y-99711062D02*
X74051967Y-99711062D01*
X74051967Y-98761062D01*
X74594825Y-99801538D02*
X75318635Y-99801538D01*
X75544825Y-99711062D02*
X75544825Y-98761062D01*
X76087683Y-99711062D01*
X76087683Y-98761062D01*
X76494825Y-99439633D02*
X76947206Y-99439633D01*
X76404349Y-99711062D02*
X76721016Y-98761062D01*
X77037683Y-99711062D01*
X77354349Y-99711062D02*
X77354349Y-98761062D01*
X77671016Y-99439633D01*
X77987683Y-98761062D01*
X77987683Y-99711062D01*
X78440063Y-99213443D02*
X78756730Y-99213443D01*
X78892444Y-99711062D02*
X78440063Y-99711062D01*
X78440063Y-98761062D01*
X78892444Y-98761062D01*
X50214490Y-99103729D02*
X50938300Y-99375157D01*
X50214490Y-99646586D01*
X51254966Y-98787062D02*
X51797823Y-98787062D01*
X51526395Y-99737062D02*
X51526395Y-98787062D01*
X52114490Y-99737062D02*
X52114490Y-98787062D01*
X52476395Y-98787062D01*
X52566871Y-98832300D01*
X52612110Y-98877538D01*
X52657348Y-98968014D01*
X52657348Y-99103729D01*
X52612110Y-99194205D01*
X52566871Y-99239443D01*
X52476395Y-99284681D01*
X52114490Y-99284681D01*
X52838300Y-99827538D02*
X53562110Y-99827538D01*
X53743062Y-99691824D02*
X53878777Y-99737062D01*
X54104967Y-99737062D01*
X54195443Y-99691824D01*
X54240681Y-99646586D01*
X54285920Y-99556110D01*
X54285920Y-99465633D01*
X54240681Y-99375157D01*
X54195443Y-99329919D01*
X54104967Y-99284681D01*
X53924015Y-99239443D01*
X53833539Y-99194205D01*
X53788300Y-99148967D01*
X53743062Y-99058490D01*
X53743062Y-98968014D01*
X53788300Y-98877538D01*
X53833539Y-98832300D01*
X53924015Y-98787062D01*
X54150205Y-98787062D01*
X54285920Y-98832300D01*
X54693062Y-99737062D02*
X54693062Y-98787062D01*
X55643063Y-98832300D02*
X55552586Y-98787062D01*
X55416872Y-98787062D01*
X55281158Y-98832300D01*
X55190682Y-98922776D01*
X55145443Y-99013252D01*
X55100205Y-99194205D01*
X55100205Y-99329919D01*
X55145443Y-99510871D01*
X55190682Y-99601348D01*
X55281158Y-99691824D01*
X55416872Y-99737062D01*
X55507348Y-99737062D01*
X55643063Y-99691824D01*
X55688301Y-99646586D01*
X55688301Y-99329919D01*
X55507348Y-99329919D01*
X56095443Y-99737062D02*
X56095443Y-98787062D01*
X56638301Y-99737062D01*
X56638301Y-98787062D01*
X57045443Y-99465633D02*
X57497824Y-99465633D01*
X56954967Y-99737062D02*
X57271634Y-98787062D01*
X57588301Y-99737062D01*
X58357348Y-99737062D02*
X57904967Y-99737062D01*
X57904967Y-98787062D01*
X58447825Y-99827538D02*
X59171635Y-99827538D01*
X59397825Y-99737062D02*
X59397825Y-98787062D01*
X59940683Y-99737062D01*
X59940683Y-98787062D01*
X60347825Y-99465633D02*
X60800206Y-99465633D01*
X60257349Y-99737062D02*
X60574016Y-98787062D01*
X60890683Y-99737062D01*
X61207349Y-99737062D02*
X61207349Y-98787062D01*
X61524016Y-99465633D01*
X61840683Y-98787062D01*
X61840683Y-99737062D01*
X62293063Y-99239443D02*
X62609730Y-99239443D01*
X62745444Y-99737062D02*
X62293063Y-99737062D01*
X62293063Y-98787062D01*
X62745444Y-98787062D01*
X42197490Y-91126729D02*
X42921300Y-91398157D01*
X42197490Y-91669586D01*
X43237966Y-90810062D02*
X43780823Y-90810062D01*
X43509395Y-91760062D02*
X43509395Y-90810062D01*
X44097490Y-91760062D02*
X44097490Y-90810062D01*
X44459395Y-90810062D01*
X44549871Y-90855300D01*
X44595110Y-90900538D01*
X44640348Y-90991014D01*
X44640348Y-91126729D01*
X44595110Y-91217205D01*
X44549871Y-91262443D01*
X44459395Y-91307681D01*
X44097490Y-91307681D01*
X44821300Y-91850538D02*
X45545110Y-91850538D01*
X45726062Y-91714824D02*
X45861777Y-91760062D01*
X46087967Y-91760062D01*
X46178443Y-91714824D01*
X46223681Y-91669586D01*
X46268920Y-91579110D01*
X46268920Y-91488633D01*
X46223681Y-91398157D01*
X46178443Y-91352919D01*
X46087967Y-91307681D01*
X45907015Y-91262443D01*
X45816539Y-91217205D01*
X45771300Y-91171967D01*
X45726062Y-91081490D01*
X45726062Y-90991014D01*
X45771300Y-90900538D01*
X45816539Y-90855300D01*
X45907015Y-90810062D01*
X46133205Y-90810062D01*
X46268920Y-90855300D01*
X46676062Y-91760062D02*
X46676062Y-90810062D01*
X47626063Y-90855300D02*
X47535586Y-90810062D01*
X47399872Y-90810062D01*
X47264158Y-90855300D01*
X47173682Y-90945776D01*
X47128443Y-91036252D01*
X47083205Y-91217205D01*
X47083205Y-91352919D01*
X47128443Y-91533871D01*
X47173682Y-91624348D01*
X47264158Y-91714824D01*
X47399872Y-91760062D01*
X47490348Y-91760062D01*
X47626063Y-91714824D01*
X47671301Y-91669586D01*
X47671301Y-91352919D01*
X47490348Y-91352919D01*
X48078443Y-91760062D02*
X48078443Y-90810062D01*
X48621301Y-91760062D01*
X48621301Y-90810062D01*
X49028443Y-91488633D02*
X49480824Y-91488633D01*
X48937967Y-91760062D02*
X49254634Y-90810062D01*
X49571301Y-91760062D01*
X50340348Y-91760062D02*
X49887967Y-91760062D01*
X49887967Y-90810062D01*
X50430825Y-91850538D02*
X51154635Y-91850538D01*
X51380825Y-91760062D02*
X51380825Y-90810062D01*
X51923683Y-91760062D01*
X51923683Y-90810062D01*
X52330825Y-91488633D02*
X52783206Y-91488633D01*
X52240349Y-91760062D02*
X52557016Y-90810062D01*
X52873683Y-91760062D01*
X53190349Y-91760062D02*
X53190349Y-90810062D01*
X53507016Y-91488633D01*
X53823683Y-90810062D01*
X53823683Y-91760062D01*
X54276063Y-91262443D02*
X54592730Y-91262443D01*
X54728444Y-91760062D02*
X54276063Y-91760062D01*
X54276063Y-90810062D01*
X54728444Y-90810062D01*
X42342490Y-123049729D02*
X43066300Y-123321157D01*
X42342490Y-123592586D01*
X43382966Y-122733062D02*
X43925823Y-122733062D01*
X43654395Y-123683062D02*
X43654395Y-122733062D01*
X44242490Y-123683062D02*
X44242490Y-122733062D01*
X44604395Y-122733062D01*
X44694871Y-122778300D01*
X44740110Y-122823538D01*
X44785348Y-122914014D01*
X44785348Y-123049729D01*
X44740110Y-123140205D01*
X44694871Y-123185443D01*
X44604395Y-123230681D01*
X44242490Y-123230681D01*
X44966300Y-123773538D02*
X45690110Y-123773538D01*
X45871062Y-123637824D02*
X46006777Y-123683062D01*
X46232967Y-123683062D01*
X46323443Y-123637824D01*
X46368681Y-123592586D01*
X46413920Y-123502110D01*
X46413920Y-123411633D01*
X46368681Y-123321157D01*
X46323443Y-123275919D01*
X46232967Y-123230681D01*
X46052015Y-123185443D01*
X45961539Y-123140205D01*
X45916300Y-123094967D01*
X45871062Y-123004490D01*
X45871062Y-122914014D01*
X45916300Y-122823538D01*
X45961539Y-122778300D01*
X46052015Y-122733062D01*
X46278205Y-122733062D01*
X46413920Y-122778300D01*
X46821062Y-123683062D02*
X46821062Y-122733062D01*
X47771063Y-122778300D02*
X47680586Y-122733062D01*
X47544872Y-122733062D01*
X47409158Y-122778300D01*
X47318682Y-122868776D01*
X47273443Y-122959252D01*
X47228205Y-123140205D01*
X47228205Y-123275919D01*
X47273443Y-123456871D01*
X47318682Y-123547348D01*
X47409158Y-123637824D01*
X47544872Y-123683062D01*
X47635348Y-123683062D01*
X47771063Y-123637824D01*
X47816301Y-123592586D01*
X47816301Y-123275919D01*
X47635348Y-123275919D01*
X48223443Y-123683062D02*
X48223443Y-122733062D01*
X48766301Y-123683062D01*
X48766301Y-122733062D01*
X49173443Y-123411633D02*
X49625824Y-123411633D01*
X49082967Y-123683062D02*
X49399634Y-122733062D01*
X49716301Y-123683062D01*
X50485348Y-123683062D02*
X50032967Y-123683062D01*
X50032967Y-122733062D01*
X50575825Y-123773538D02*
X51299635Y-123773538D01*
X51525825Y-123683062D02*
X51525825Y-122733062D01*
X52068683Y-123683062D01*
X52068683Y-122733062D01*
X52475825Y-123411633D02*
X52928206Y-123411633D01*
X52385349Y-123683062D02*
X52702016Y-122733062D01*
X53018683Y-123683062D01*
X53335349Y-123683062D02*
X53335349Y-122733062D01*
X53652016Y-123411633D01*
X53968683Y-122733062D01*
X53968683Y-123683062D01*
X54421063Y-123185443D02*
X54737730Y-123185443D01*
X54873444Y-123683062D02*
X54421063Y-123683062D01*
X54421063Y-122733062D01*
X54873444Y-122733062D01*
X74161490Y-123076729D02*
X74885300Y-123348157D01*
X74161490Y-123619586D01*
X75201966Y-122760062D02*
X75744823Y-122760062D01*
X75473395Y-123710062D02*
X75473395Y-122760062D01*
X76061490Y-123710062D02*
X76061490Y-122760062D01*
X76423395Y-122760062D01*
X76513871Y-122805300D01*
X76559110Y-122850538D01*
X76604348Y-122941014D01*
X76604348Y-123076729D01*
X76559110Y-123167205D01*
X76513871Y-123212443D01*
X76423395Y-123257681D01*
X76061490Y-123257681D01*
X76785300Y-123800538D02*
X77509110Y-123800538D01*
X77690062Y-123664824D02*
X77825777Y-123710062D01*
X78051967Y-123710062D01*
X78142443Y-123664824D01*
X78187681Y-123619586D01*
X78232920Y-123529110D01*
X78232920Y-123438633D01*
X78187681Y-123348157D01*
X78142443Y-123302919D01*
X78051967Y-123257681D01*
X77871015Y-123212443D01*
X77780539Y-123167205D01*
X77735300Y-123121967D01*
X77690062Y-123031490D01*
X77690062Y-122941014D01*
X77735300Y-122850538D01*
X77780539Y-122805300D01*
X77871015Y-122760062D01*
X78097205Y-122760062D01*
X78232920Y-122805300D01*
X78640062Y-123710062D02*
X78640062Y-122760062D01*
X79590063Y-122805300D02*
X79499586Y-122760062D01*
X79363872Y-122760062D01*
X79228158Y-122805300D01*
X79137682Y-122895776D01*
X79092443Y-122986252D01*
X79047205Y-123167205D01*
X79047205Y-123302919D01*
X79092443Y-123483871D01*
X79137682Y-123574348D01*
X79228158Y-123664824D01*
X79363872Y-123710062D01*
X79454348Y-123710062D01*
X79590063Y-123664824D01*
X79635301Y-123619586D01*
X79635301Y-123302919D01*
X79454348Y-123302919D01*
X80042443Y-123710062D02*
X80042443Y-122760062D01*
X80585301Y-123710062D01*
X80585301Y-122760062D01*
X80992443Y-123438633D02*
X81444824Y-123438633D01*
X80901967Y-123710062D02*
X81218634Y-122760062D01*
X81535301Y-123710062D01*
X82304348Y-123710062D02*
X81851967Y-123710062D01*
X81851967Y-122760062D01*
X82394825Y-123800538D02*
X83118635Y-123800538D01*
X83344825Y-123710062D02*
X83344825Y-122760062D01*
X83887683Y-123710062D01*
X83887683Y-122760062D01*
X84294825Y-123438633D02*
X84747206Y-123438633D01*
X84204349Y-123710062D02*
X84521016Y-122760062D01*
X84837683Y-123710062D01*
X85154349Y-123710062D02*
X85154349Y-122760062D01*
X85471016Y-123438633D01*
X85787683Y-122760062D01*
X85787683Y-123710062D01*
X86240063Y-123212443D02*
X86556730Y-123212443D01*
X86692444Y-123710062D02*
X86240063Y-123710062D01*
X86240063Y-122760062D01*
X86692444Y-122760062D01*
X74326490Y-91044729D02*
X75050300Y-91316157D01*
X74326490Y-91587586D01*
X75366966Y-90728062D02*
X75909823Y-90728062D01*
X75638395Y-91678062D02*
X75638395Y-90728062D01*
X76226490Y-91678062D02*
X76226490Y-90728062D01*
X76588395Y-90728062D01*
X76678871Y-90773300D01*
X76724110Y-90818538D01*
X76769348Y-90909014D01*
X76769348Y-91044729D01*
X76724110Y-91135205D01*
X76678871Y-91180443D01*
X76588395Y-91225681D01*
X76226490Y-91225681D01*
X76950300Y-91768538D02*
X77674110Y-91768538D01*
X77855062Y-91632824D02*
X77990777Y-91678062D01*
X78216967Y-91678062D01*
X78307443Y-91632824D01*
X78352681Y-91587586D01*
X78397920Y-91497110D01*
X78397920Y-91406633D01*
X78352681Y-91316157D01*
X78307443Y-91270919D01*
X78216967Y-91225681D01*
X78036015Y-91180443D01*
X77945539Y-91135205D01*
X77900300Y-91089967D01*
X77855062Y-90999490D01*
X77855062Y-90909014D01*
X77900300Y-90818538D01*
X77945539Y-90773300D01*
X78036015Y-90728062D01*
X78262205Y-90728062D01*
X78397920Y-90773300D01*
X78805062Y-91678062D02*
X78805062Y-90728062D01*
X79755063Y-90773300D02*
X79664586Y-90728062D01*
X79528872Y-90728062D01*
X79393158Y-90773300D01*
X79302682Y-90863776D01*
X79257443Y-90954252D01*
X79212205Y-91135205D01*
X79212205Y-91270919D01*
X79257443Y-91451871D01*
X79302682Y-91542348D01*
X79393158Y-91632824D01*
X79528872Y-91678062D01*
X79619348Y-91678062D01*
X79755063Y-91632824D01*
X79800301Y-91587586D01*
X79800301Y-91270919D01*
X79619348Y-91270919D01*
X80207443Y-91678062D02*
X80207443Y-90728062D01*
X80750301Y-91678062D01*
X80750301Y-90728062D01*
X81157443Y-91406633D02*
X81609824Y-91406633D01*
X81066967Y-91678062D02*
X81383634Y-90728062D01*
X81700301Y-91678062D01*
X82469348Y-91678062D02*
X82016967Y-91678062D01*
X82016967Y-90728062D01*
X82559825Y-91768538D02*
X83283635Y-91768538D01*
X83509825Y-91678062D02*
X83509825Y-90728062D01*
X84052683Y-91678062D01*
X84052683Y-90728062D01*
X84459825Y-91406633D02*
X84912206Y-91406633D01*
X84369349Y-91678062D02*
X84686016Y-90728062D01*
X85002683Y-91678062D01*
X85319349Y-91678062D02*
X85319349Y-90728062D01*
X85636016Y-91406633D01*
X85952683Y-90728062D01*
X85952683Y-91678062D01*
X86405063Y-91180443D02*
X86721730Y-91180443D01*
X86857444Y-91678062D02*
X86405063Y-91678062D01*
X86405063Y-90728062D01*
X86857444Y-90728062D01*
X78688890Y-127059329D02*
X79412700Y-127330757D01*
X78688890Y-127602186D01*
X79729366Y-126742662D02*
X80272223Y-126742662D01*
X80000795Y-127692662D02*
X80000795Y-126742662D01*
X80588890Y-127692662D02*
X80588890Y-126742662D01*
X80950795Y-126742662D01*
X81041271Y-126787900D01*
X81086510Y-126833138D01*
X81131748Y-126923614D01*
X81131748Y-127059329D01*
X81086510Y-127149805D01*
X81041271Y-127195043D01*
X80950795Y-127240281D01*
X80588890Y-127240281D01*
X81312700Y-127783138D02*
X82036510Y-127783138D01*
X82217462Y-127647424D02*
X82353177Y-127692662D01*
X82579367Y-127692662D01*
X82669843Y-127647424D01*
X82715081Y-127602186D01*
X82760320Y-127511710D01*
X82760320Y-127421233D01*
X82715081Y-127330757D01*
X82669843Y-127285519D01*
X82579367Y-127240281D01*
X82398415Y-127195043D01*
X82307939Y-127149805D01*
X82262700Y-127104567D01*
X82217462Y-127014090D01*
X82217462Y-126923614D01*
X82262700Y-126833138D01*
X82307939Y-126787900D01*
X82398415Y-126742662D01*
X82624605Y-126742662D01*
X82760320Y-126787900D01*
X83167462Y-127692662D02*
X83167462Y-126742662D01*
X84117463Y-126787900D02*
X84026986Y-126742662D01*
X83891272Y-126742662D01*
X83755558Y-126787900D01*
X83665082Y-126878376D01*
X83619843Y-126968852D01*
X83574605Y-127149805D01*
X83574605Y-127285519D01*
X83619843Y-127466471D01*
X83665082Y-127556948D01*
X83755558Y-127647424D01*
X83891272Y-127692662D01*
X83981748Y-127692662D01*
X84117463Y-127647424D01*
X84162701Y-127602186D01*
X84162701Y-127285519D01*
X83981748Y-127285519D01*
X84569843Y-127692662D02*
X84569843Y-126742662D01*
X85112701Y-127692662D01*
X85112701Y-126742662D01*
X85519843Y-127421233D02*
X85972224Y-127421233D01*
X85429367Y-127692662D02*
X85746034Y-126742662D01*
X86062701Y-127692662D01*
X86831748Y-127692662D02*
X86379367Y-127692662D01*
X86379367Y-126742662D01*
X86922225Y-127783138D02*
X87646035Y-127783138D01*
X87872225Y-127692662D02*
X87872225Y-126742662D01*
X88415083Y-127692662D01*
X88415083Y-126742662D01*
X88822225Y-127421233D02*
X89274606Y-127421233D01*
X88731749Y-127692662D02*
X89048416Y-126742662D01*
X89365083Y-127692662D01*
X89681749Y-127692662D02*
X89681749Y-126742662D01*
X89998416Y-127421233D01*
X90315083Y-126742662D01*
X90315083Y-127692662D01*
X90767463Y-127195043D02*
X91084130Y-127195043D01*
X91219844Y-127692662D02*
X90767463Y-127692662D01*
X90767463Y-126742662D01*
X91219844Y-126742662D01*
X78670690Y-131193329D02*
X79394500Y-131464757D01*
X78670690Y-131736186D01*
X79711166Y-130876662D02*
X80254023Y-130876662D01*
X79982595Y-131826662D02*
X79982595Y-130876662D01*
X80570690Y-131826662D02*
X80570690Y-130876662D01*
X80932595Y-130876662D01*
X81023071Y-130921900D01*
X81068310Y-130967138D01*
X81113548Y-131057614D01*
X81113548Y-131193329D01*
X81068310Y-131283805D01*
X81023071Y-131329043D01*
X80932595Y-131374281D01*
X80570690Y-131374281D01*
X81294500Y-131917138D02*
X82018310Y-131917138D01*
X82199262Y-131781424D02*
X82334977Y-131826662D01*
X82561167Y-131826662D01*
X82651643Y-131781424D01*
X82696881Y-131736186D01*
X82742120Y-131645710D01*
X82742120Y-131555233D01*
X82696881Y-131464757D01*
X82651643Y-131419519D01*
X82561167Y-131374281D01*
X82380215Y-131329043D01*
X82289739Y-131283805D01*
X82244500Y-131238567D01*
X82199262Y-131148090D01*
X82199262Y-131057614D01*
X82244500Y-130967138D01*
X82289739Y-130921900D01*
X82380215Y-130876662D01*
X82606405Y-130876662D01*
X82742120Y-130921900D01*
X83149262Y-131826662D02*
X83149262Y-130876662D01*
X84099263Y-130921900D02*
X84008786Y-130876662D01*
X83873072Y-130876662D01*
X83737358Y-130921900D01*
X83646882Y-131012376D01*
X83601643Y-131102852D01*
X83556405Y-131283805D01*
X83556405Y-131419519D01*
X83601643Y-131600471D01*
X83646882Y-131690948D01*
X83737358Y-131781424D01*
X83873072Y-131826662D01*
X83963548Y-131826662D01*
X84099263Y-131781424D01*
X84144501Y-131736186D01*
X84144501Y-131419519D01*
X83963548Y-131419519D01*
X84551643Y-131826662D02*
X84551643Y-130876662D01*
X85094501Y-131826662D01*
X85094501Y-130876662D01*
X85501643Y-131555233D02*
X85954024Y-131555233D01*
X85411167Y-131826662D02*
X85727834Y-130876662D01*
X86044501Y-131826662D01*
X86813548Y-131826662D02*
X86361167Y-131826662D01*
X86361167Y-130876662D01*
X86904025Y-131917138D02*
X87627835Y-131917138D01*
X87854025Y-131826662D02*
X87854025Y-130876662D01*
X88396883Y-131826662D01*
X88396883Y-130876662D01*
X88804025Y-131555233D02*
X89256406Y-131555233D01*
X88713549Y-131826662D02*
X89030216Y-130876662D01*
X89346883Y-131826662D01*
X89663549Y-131826662D02*
X89663549Y-130876662D01*
X89980216Y-131555233D01*
X90296883Y-130876662D01*
X90296883Y-131826662D01*
X90749263Y-131329043D02*
X91065930Y-131329043D01*
X91201644Y-131826662D02*
X90749263Y-131826662D01*
X90749263Y-130876662D01*
X91201644Y-130876662D01*
X36493290Y-81145329D02*
X37217100Y-81416757D01*
X36493290Y-81688186D01*
X37533766Y-80828662D02*
X38076623Y-80828662D01*
X37805195Y-81778662D02*
X37805195Y-80828662D01*
X38393290Y-81778662D02*
X38393290Y-80828662D01*
X38755195Y-80828662D01*
X38845671Y-80873900D01*
X38890910Y-80919138D01*
X38936148Y-81009614D01*
X38936148Y-81145329D01*
X38890910Y-81235805D01*
X38845671Y-81281043D01*
X38755195Y-81326281D01*
X38393290Y-81326281D01*
X39117100Y-81869138D02*
X39840910Y-81869138D01*
X40021862Y-81733424D02*
X40157577Y-81778662D01*
X40383767Y-81778662D01*
X40474243Y-81733424D01*
X40519481Y-81688186D01*
X40564720Y-81597710D01*
X40564720Y-81507233D01*
X40519481Y-81416757D01*
X40474243Y-81371519D01*
X40383767Y-81326281D01*
X40202815Y-81281043D01*
X40112339Y-81235805D01*
X40067100Y-81190567D01*
X40021862Y-81100090D01*
X40021862Y-81009614D01*
X40067100Y-80919138D01*
X40112339Y-80873900D01*
X40202815Y-80828662D01*
X40429005Y-80828662D01*
X40564720Y-80873900D01*
X40971862Y-81778662D02*
X40971862Y-80828662D01*
X41921863Y-80873900D02*
X41831386Y-80828662D01*
X41695672Y-80828662D01*
X41559958Y-80873900D01*
X41469482Y-80964376D01*
X41424243Y-81054852D01*
X41379005Y-81235805D01*
X41379005Y-81371519D01*
X41424243Y-81552471D01*
X41469482Y-81642948D01*
X41559958Y-81733424D01*
X41695672Y-81778662D01*
X41786148Y-81778662D01*
X41921863Y-81733424D01*
X41967101Y-81688186D01*
X41967101Y-81371519D01*
X41786148Y-81371519D01*
X42374243Y-81778662D02*
X42374243Y-80828662D01*
X42917101Y-81778662D01*
X42917101Y-80828662D01*
X43324243Y-81507233D02*
X43776624Y-81507233D01*
X43233767Y-81778662D02*
X43550434Y-80828662D01*
X43867101Y-81778662D01*
X44636148Y-81778662D02*
X44183767Y-81778662D01*
X44183767Y-80828662D01*
X44726625Y-81869138D02*
X45450435Y-81869138D01*
X45676625Y-81778662D02*
X45676625Y-80828662D01*
X46219483Y-81778662D01*
X46219483Y-80828662D01*
X46626625Y-81507233D02*
X47079006Y-81507233D01*
X46536149Y-81778662D02*
X46852816Y-80828662D01*
X47169483Y-81778662D01*
X47486149Y-81778662D02*
X47486149Y-80828662D01*
X47802816Y-81507233D01*
X48119483Y-80828662D01*
X48119483Y-81778662D01*
X48571863Y-81281043D02*
X48888530Y-81281043D01*
X49024244Y-81778662D02*
X48571863Y-81778662D01*
X48571863Y-80828662D01*
X49024244Y-80828662D01*
X36679290Y-84090329D02*
X37403100Y-84361757D01*
X36679290Y-84633186D01*
X37719766Y-83773662D02*
X38262623Y-83773662D01*
X37991195Y-84723662D02*
X37991195Y-83773662D01*
X38579290Y-84723662D02*
X38579290Y-83773662D01*
X38941195Y-83773662D01*
X39031671Y-83818900D01*
X39076910Y-83864138D01*
X39122148Y-83954614D01*
X39122148Y-84090329D01*
X39076910Y-84180805D01*
X39031671Y-84226043D01*
X38941195Y-84271281D01*
X38579290Y-84271281D01*
X39303100Y-84814138D02*
X40026910Y-84814138D01*
X40207862Y-84678424D02*
X40343577Y-84723662D01*
X40569767Y-84723662D01*
X40660243Y-84678424D01*
X40705481Y-84633186D01*
X40750720Y-84542710D01*
X40750720Y-84452233D01*
X40705481Y-84361757D01*
X40660243Y-84316519D01*
X40569767Y-84271281D01*
X40388815Y-84226043D01*
X40298339Y-84180805D01*
X40253100Y-84135567D01*
X40207862Y-84045090D01*
X40207862Y-83954614D01*
X40253100Y-83864138D01*
X40298339Y-83818900D01*
X40388815Y-83773662D01*
X40615005Y-83773662D01*
X40750720Y-83818900D01*
X41157862Y-84723662D02*
X41157862Y-83773662D01*
X42107863Y-83818900D02*
X42017386Y-83773662D01*
X41881672Y-83773662D01*
X41745958Y-83818900D01*
X41655482Y-83909376D01*
X41610243Y-83999852D01*
X41565005Y-84180805D01*
X41565005Y-84316519D01*
X41610243Y-84497471D01*
X41655482Y-84587948D01*
X41745958Y-84678424D01*
X41881672Y-84723662D01*
X41972148Y-84723662D01*
X42107863Y-84678424D01*
X42153101Y-84633186D01*
X42153101Y-84316519D01*
X41972148Y-84316519D01*
X42560243Y-84723662D02*
X42560243Y-83773662D01*
X43103101Y-84723662D01*
X43103101Y-83773662D01*
X43510243Y-84452233D02*
X43962624Y-84452233D01*
X43419767Y-84723662D02*
X43736434Y-83773662D01*
X44053101Y-84723662D01*
X44822148Y-84723662D02*
X44369767Y-84723662D01*
X44369767Y-83773662D01*
X44912625Y-84814138D02*
X45636435Y-84814138D01*
X45862625Y-84723662D02*
X45862625Y-83773662D01*
X46405483Y-84723662D01*
X46405483Y-83773662D01*
X46812625Y-84452233D02*
X47265006Y-84452233D01*
X46722149Y-84723662D02*
X47038816Y-83773662D01*
X47355483Y-84723662D01*
X47672149Y-84723662D02*
X47672149Y-83773662D01*
X47988816Y-84452233D01*
X48305483Y-83773662D01*
X48305483Y-84723662D01*
X48757863Y-84226043D02*
X49074530Y-84226043D01*
X49210244Y-84723662D02*
X48757863Y-84723662D01*
X48757863Y-83773662D01*
X49210244Y-83773662D01*
X36791290Y-92515329D02*
X37515100Y-92786757D01*
X36791290Y-93058186D01*
X37831766Y-92198662D02*
X38374623Y-92198662D01*
X38103195Y-93148662D02*
X38103195Y-92198662D01*
X38691290Y-93148662D02*
X38691290Y-92198662D01*
X39053195Y-92198662D01*
X39143671Y-92243900D01*
X39188910Y-92289138D01*
X39234148Y-92379614D01*
X39234148Y-92515329D01*
X39188910Y-92605805D01*
X39143671Y-92651043D01*
X39053195Y-92696281D01*
X38691290Y-92696281D01*
X39415100Y-93239138D02*
X40138910Y-93239138D01*
X40319862Y-93103424D02*
X40455577Y-93148662D01*
X40681767Y-93148662D01*
X40772243Y-93103424D01*
X40817481Y-93058186D01*
X40862720Y-92967710D01*
X40862720Y-92877233D01*
X40817481Y-92786757D01*
X40772243Y-92741519D01*
X40681767Y-92696281D01*
X40500815Y-92651043D01*
X40410339Y-92605805D01*
X40365100Y-92560567D01*
X40319862Y-92470090D01*
X40319862Y-92379614D01*
X40365100Y-92289138D01*
X40410339Y-92243900D01*
X40500815Y-92198662D01*
X40727005Y-92198662D01*
X40862720Y-92243900D01*
X41269862Y-93148662D02*
X41269862Y-92198662D01*
X42219863Y-92243900D02*
X42129386Y-92198662D01*
X41993672Y-92198662D01*
X41857958Y-92243900D01*
X41767482Y-92334376D01*
X41722243Y-92424852D01*
X41677005Y-92605805D01*
X41677005Y-92741519D01*
X41722243Y-92922471D01*
X41767482Y-93012948D01*
X41857958Y-93103424D01*
X41993672Y-93148662D01*
X42084148Y-93148662D01*
X42219863Y-93103424D01*
X42265101Y-93058186D01*
X42265101Y-92741519D01*
X42084148Y-92741519D01*
X42672243Y-93148662D02*
X42672243Y-92198662D01*
X43215101Y-93148662D01*
X43215101Y-92198662D01*
X43622243Y-92877233D02*
X44074624Y-92877233D01*
X43531767Y-93148662D02*
X43848434Y-92198662D01*
X44165101Y-93148662D01*
X44934148Y-93148662D02*
X44481767Y-93148662D01*
X44481767Y-92198662D01*
X45024625Y-93239138D02*
X45748435Y-93239138D01*
X45974625Y-93148662D02*
X45974625Y-92198662D01*
X46517483Y-93148662D01*
X46517483Y-92198662D01*
X46924625Y-92877233D02*
X47377006Y-92877233D01*
X46834149Y-93148662D02*
X47150816Y-92198662D01*
X47467483Y-93148662D01*
X47784149Y-93148662D02*
X47784149Y-92198662D01*
X48100816Y-92877233D01*
X48417483Y-92198662D01*
X48417483Y-93148662D01*
X48869863Y-92651043D02*
X49186530Y-92651043D01*
X49322244Y-93148662D02*
X48869863Y-93148662D01*
X48869863Y-92198662D01*
X49322244Y-92198662D01*
X36780290Y-95493329D02*
X37504100Y-95764757D01*
X36780290Y-96036186D01*
X37820766Y-95176662D02*
X38363623Y-95176662D01*
X38092195Y-96126662D02*
X38092195Y-95176662D01*
X38680290Y-96126662D02*
X38680290Y-95176662D01*
X39042195Y-95176662D01*
X39132671Y-95221900D01*
X39177910Y-95267138D01*
X39223148Y-95357614D01*
X39223148Y-95493329D01*
X39177910Y-95583805D01*
X39132671Y-95629043D01*
X39042195Y-95674281D01*
X38680290Y-95674281D01*
X39404100Y-96217138D02*
X40127910Y-96217138D01*
X40308862Y-96081424D02*
X40444577Y-96126662D01*
X40670767Y-96126662D01*
X40761243Y-96081424D01*
X40806481Y-96036186D01*
X40851720Y-95945710D01*
X40851720Y-95855233D01*
X40806481Y-95764757D01*
X40761243Y-95719519D01*
X40670767Y-95674281D01*
X40489815Y-95629043D01*
X40399339Y-95583805D01*
X40354100Y-95538567D01*
X40308862Y-95448090D01*
X40308862Y-95357614D01*
X40354100Y-95267138D01*
X40399339Y-95221900D01*
X40489815Y-95176662D01*
X40716005Y-95176662D01*
X40851720Y-95221900D01*
X41258862Y-96126662D02*
X41258862Y-95176662D01*
X42208863Y-95221900D02*
X42118386Y-95176662D01*
X41982672Y-95176662D01*
X41846958Y-95221900D01*
X41756482Y-95312376D01*
X41711243Y-95402852D01*
X41666005Y-95583805D01*
X41666005Y-95719519D01*
X41711243Y-95900471D01*
X41756482Y-95990948D01*
X41846958Y-96081424D01*
X41982672Y-96126662D01*
X42073148Y-96126662D01*
X42208863Y-96081424D01*
X42254101Y-96036186D01*
X42254101Y-95719519D01*
X42073148Y-95719519D01*
X42661243Y-96126662D02*
X42661243Y-95176662D01*
X43204101Y-96126662D01*
X43204101Y-95176662D01*
X43611243Y-95855233D02*
X44063624Y-95855233D01*
X43520767Y-96126662D02*
X43837434Y-95176662D01*
X44154101Y-96126662D01*
X44923148Y-96126662D02*
X44470767Y-96126662D01*
X44470767Y-95176662D01*
X45013625Y-96217138D02*
X45737435Y-96217138D01*
X45963625Y-96126662D02*
X45963625Y-95176662D01*
X46506483Y-96126662D01*
X46506483Y-95176662D01*
X46913625Y-95855233D02*
X47366006Y-95855233D01*
X46823149Y-96126662D02*
X47139816Y-95176662D01*
X47456483Y-96126662D01*
X47773149Y-96126662D02*
X47773149Y-95176662D01*
X48089816Y-95855233D01*
X48406483Y-95176662D01*
X48406483Y-96126662D01*
X48858863Y-95629043D02*
X49175530Y-95629043D01*
X49311244Y-96126662D02*
X48858863Y-96126662D01*
X48858863Y-95176662D01*
X49311244Y-95176662D01*
X36758290Y-86933329D02*
X37482100Y-87204757D01*
X36758290Y-87476186D01*
X37798766Y-86616662D02*
X38341623Y-86616662D01*
X38070195Y-87566662D02*
X38070195Y-86616662D01*
X38658290Y-87566662D02*
X38658290Y-86616662D01*
X39020195Y-86616662D01*
X39110671Y-86661900D01*
X39155910Y-86707138D01*
X39201148Y-86797614D01*
X39201148Y-86933329D01*
X39155910Y-87023805D01*
X39110671Y-87069043D01*
X39020195Y-87114281D01*
X38658290Y-87114281D01*
X39382100Y-87657138D02*
X40105910Y-87657138D01*
X40286862Y-87521424D02*
X40422577Y-87566662D01*
X40648767Y-87566662D01*
X40739243Y-87521424D01*
X40784481Y-87476186D01*
X40829720Y-87385710D01*
X40829720Y-87295233D01*
X40784481Y-87204757D01*
X40739243Y-87159519D01*
X40648767Y-87114281D01*
X40467815Y-87069043D01*
X40377339Y-87023805D01*
X40332100Y-86978567D01*
X40286862Y-86888090D01*
X40286862Y-86797614D01*
X40332100Y-86707138D01*
X40377339Y-86661900D01*
X40467815Y-86616662D01*
X40694005Y-86616662D01*
X40829720Y-86661900D01*
X41236862Y-87566662D02*
X41236862Y-86616662D01*
X42186863Y-86661900D02*
X42096386Y-86616662D01*
X41960672Y-86616662D01*
X41824958Y-86661900D01*
X41734482Y-86752376D01*
X41689243Y-86842852D01*
X41644005Y-87023805D01*
X41644005Y-87159519D01*
X41689243Y-87340471D01*
X41734482Y-87430948D01*
X41824958Y-87521424D01*
X41960672Y-87566662D01*
X42051148Y-87566662D01*
X42186863Y-87521424D01*
X42232101Y-87476186D01*
X42232101Y-87159519D01*
X42051148Y-87159519D01*
X42639243Y-87566662D02*
X42639243Y-86616662D01*
X43182101Y-87566662D01*
X43182101Y-86616662D01*
X43589243Y-87295233D02*
X44041624Y-87295233D01*
X43498767Y-87566662D02*
X43815434Y-86616662D01*
X44132101Y-87566662D01*
X44901148Y-87566662D02*
X44448767Y-87566662D01*
X44448767Y-86616662D01*
X44991625Y-87657138D02*
X45715435Y-87657138D01*
X45941625Y-87566662D02*
X45941625Y-86616662D01*
X46484483Y-87566662D01*
X46484483Y-86616662D01*
X46891625Y-87295233D02*
X47344006Y-87295233D01*
X46801149Y-87566662D02*
X47117816Y-86616662D01*
X47434483Y-87566662D01*
X47751149Y-87566662D02*
X47751149Y-86616662D01*
X48067816Y-87295233D01*
X48384483Y-86616662D01*
X48384483Y-87566662D01*
X48836863Y-87069043D02*
X49153530Y-87069043D01*
X49289244Y-87566662D02*
X48836863Y-87566662D01*
X48836863Y-86616662D01*
X49289244Y-86616662D01*
X36930290Y-101173329D02*
X37654100Y-101444757D01*
X36930290Y-101716186D01*
X37970766Y-100856662D02*
X38513623Y-100856662D01*
X38242195Y-101806662D02*
X38242195Y-100856662D01*
X38830290Y-101806662D02*
X38830290Y-100856662D01*
X39192195Y-100856662D01*
X39282671Y-100901900D01*
X39327910Y-100947138D01*
X39373148Y-101037614D01*
X39373148Y-101173329D01*
X39327910Y-101263805D01*
X39282671Y-101309043D01*
X39192195Y-101354281D01*
X38830290Y-101354281D01*
X39554100Y-101897138D02*
X40277910Y-101897138D01*
X40458862Y-101761424D02*
X40594577Y-101806662D01*
X40820767Y-101806662D01*
X40911243Y-101761424D01*
X40956481Y-101716186D01*
X41001720Y-101625710D01*
X41001720Y-101535233D01*
X40956481Y-101444757D01*
X40911243Y-101399519D01*
X40820767Y-101354281D01*
X40639815Y-101309043D01*
X40549339Y-101263805D01*
X40504100Y-101218567D01*
X40458862Y-101128090D01*
X40458862Y-101037614D01*
X40504100Y-100947138D01*
X40549339Y-100901900D01*
X40639815Y-100856662D01*
X40866005Y-100856662D01*
X41001720Y-100901900D01*
X41408862Y-101806662D02*
X41408862Y-100856662D01*
X42358863Y-100901900D02*
X42268386Y-100856662D01*
X42132672Y-100856662D01*
X41996958Y-100901900D01*
X41906482Y-100992376D01*
X41861243Y-101082852D01*
X41816005Y-101263805D01*
X41816005Y-101399519D01*
X41861243Y-101580471D01*
X41906482Y-101670948D01*
X41996958Y-101761424D01*
X42132672Y-101806662D01*
X42223148Y-101806662D01*
X42358863Y-101761424D01*
X42404101Y-101716186D01*
X42404101Y-101399519D01*
X42223148Y-101399519D01*
X42811243Y-101806662D02*
X42811243Y-100856662D01*
X43354101Y-101806662D01*
X43354101Y-100856662D01*
X43761243Y-101535233D02*
X44213624Y-101535233D01*
X43670767Y-101806662D02*
X43987434Y-100856662D01*
X44304101Y-101806662D01*
X45073148Y-101806662D02*
X44620767Y-101806662D01*
X44620767Y-100856662D01*
X45163625Y-101897138D02*
X45887435Y-101897138D01*
X46113625Y-101806662D02*
X46113625Y-100856662D01*
X46656483Y-101806662D01*
X46656483Y-100856662D01*
X47063625Y-101535233D02*
X47516006Y-101535233D01*
X46973149Y-101806662D02*
X47289816Y-100856662D01*
X47606483Y-101806662D01*
X47923149Y-101806662D02*
X47923149Y-100856662D01*
X48239816Y-101535233D01*
X48556483Y-100856662D01*
X48556483Y-101806662D01*
X49008863Y-101309043D02*
X49325530Y-101309043D01*
X49461244Y-101806662D02*
X49008863Y-101806662D01*
X49008863Y-100856662D01*
X49461244Y-100856662D01*
X36781290Y-98357329D02*
X37505100Y-98628757D01*
X36781290Y-98900186D01*
X37821766Y-98040662D02*
X38364623Y-98040662D01*
X38093195Y-98990662D02*
X38093195Y-98040662D01*
X38681290Y-98990662D02*
X38681290Y-98040662D01*
X39043195Y-98040662D01*
X39133671Y-98085900D01*
X39178910Y-98131138D01*
X39224148Y-98221614D01*
X39224148Y-98357329D01*
X39178910Y-98447805D01*
X39133671Y-98493043D01*
X39043195Y-98538281D01*
X38681290Y-98538281D01*
X39405100Y-99081138D02*
X40128910Y-99081138D01*
X40309862Y-98945424D02*
X40445577Y-98990662D01*
X40671767Y-98990662D01*
X40762243Y-98945424D01*
X40807481Y-98900186D01*
X40852720Y-98809710D01*
X40852720Y-98719233D01*
X40807481Y-98628757D01*
X40762243Y-98583519D01*
X40671767Y-98538281D01*
X40490815Y-98493043D01*
X40400339Y-98447805D01*
X40355100Y-98402567D01*
X40309862Y-98312090D01*
X40309862Y-98221614D01*
X40355100Y-98131138D01*
X40400339Y-98085900D01*
X40490815Y-98040662D01*
X40717005Y-98040662D01*
X40852720Y-98085900D01*
X41259862Y-98990662D02*
X41259862Y-98040662D01*
X42209863Y-98085900D02*
X42119386Y-98040662D01*
X41983672Y-98040662D01*
X41847958Y-98085900D01*
X41757482Y-98176376D01*
X41712243Y-98266852D01*
X41667005Y-98447805D01*
X41667005Y-98583519D01*
X41712243Y-98764471D01*
X41757482Y-98854948D01*
X41847958Y-98945424D01*
X41983672Y-98990662D01*
X42074148Y-98990662D01*
X42209863Y-98945424D01*
X42255101Y-98900186D01*
X42255101Y-98583519D01*
X42074148Y-98583519D01*
X42662243Y-98990662D02*
X42662243Y-98040662D01*
X43205101Y-98990662D01*
X43205101Y-98040662D01*
X43612243Y-98719233D02*
X44064624Y-98719233D01*
X43521767Y-98990662D02*
X43838434Y-98040662D01*
X44155101Y-98990662D01*
X44924148Y-98990662D02*
X44471767Y-98990662D01*
X44471767Y-98040662D01*
X45014625Y-99081138D02*
X45738435Y-99081138D01*
X45964625Y-98990662D02*
X45964625Y-98040662D01*
X46507483Y-98990662D01*
X46507483Y-98040662D01*
X46914625Y-98719233D02*
X47367006Y-98719233D01*
X46824149Y-98990662D02*
X47140816Y-98040662D01*
X47457483Y-98990662D01*
X47774149Y-98990662D02*
X47774149Y-98040662D01*
X48090816Y-98719233D01*
X48407483Y-98040662D01*
X48407483Y-98990662D01*
X48859863Y-98493043D02*
X49176530Y-98493043D01*
X49312244Y-98990662D02*
X48859863Y-98990662D01*
X48859863Y-98040662D01*
X49312244Y-98040662D01*
X36795290Y-89718329D02*
X37519100Y-89989757D01*
X36795290Y-90261186D01*
X37835766Y-89401662D02*
X38378623Y-89401662D01*
X38107195Y-90351662D02*
X38107195Y-89401662D01*
X38695290Y-90351662D02*
X38695290Y-89401662D01*
X39057195Y-89401662D01*
X39147671Y-89446900D01*
X39192910Y-89492138D01*
X39238148Y-89582614D01*
X39238148Y-89718329D01*
X39192910Y-89808805D01*
X39147671Y-89854043D01*
X39057195Y-89899281D01*
X38695290Y-89899281D01*
X39419100Y-90442138D02*
X40142910Y-90442138D01*
X40323862Y-90306424D02*
X40459577Y-90351662D01*
X40685767Y-90351662D01*
X40776243Y-90306424D01*
X40821481Y-90261186D01*
X40866720Y-90170710D01*
X40866720Y-90080233D01*
X40821481Y-89989757D01*
X40776243Y-89944519D01*
X40685767Y-89899281D01*
X40504815Y-89854043D01*
X40414339Y-89808805D01*
X40369100Y-89763567D01*
X40323862Y-89673090D01*
X40323862Y-89582614D01*
X40369100Y-89492138D01*
X40414339Y-89446900D01*
X40504815Y-89401662D01*
X40731005Y-89401662D01*
X40866720Y-89446900D01*
X41273862Y-90351662D02*
X41273862Y-89401662D01*
X42223863Y-89446900D02*
X42133386Y-89401662D01*
X41997672Y-89401662D01*
X41861958Y-89446900D01*
X41771482Y-89537376D01*
X41726243Y-89627852D01*
X41681005Y-89808805D01*
X41681005Y-89944519D01*
X41726243Y-90125471D01*
X41771482Y-90215948D01*
X41861958Y-90306424D01*
X41997672Y-90351662D01*
X42088148Y-90351662D01*
X42223863Y-90306424D01*
X42269101Y-90261186D01*
X42269101Y-89944519D01*
X42088148Y-89944519D01*
X42676243Y-90351662D02*
X42676243Y-89401662D01*
X43219101Y-90351662D01*
X43219101Y-89401662D01*
X43626243Y-90080233D02*
X44078624Y-90080233D01*
X43535767Y-90351662D02*
X43852434Y-89401662D01*
X44169101Y-90351662D01*
X44938148Y-90351662D02*
X44485767Y-90351662D01*
X44485767Y-89401662D01*
X45028625Y-90442138D02*
X45752435Y-90442138D01*
X45978625Y-90351662D02*
X45978625Y-89401662D01*
X46521483Y-90351662D01*
X46521483Y-89401662D01*
X46928625Y-90080233D02*
X47381006Y-90080233D01*
X46838149Y-90351662D02*
X47154816Y-89401662D01*
X47471483Y-90351662D01*
X47788149Y-90351662D02*
X47788149Y-89401662D01*
X48104816Y-90080233D01*
X48421483Y-89401662D01*
X48421483Y-90351662D01*
X48873863Y-89854043D02*
X49190530Y-89854043D01*
X49326244Y-90351662D02*
X48873863Y-90351662D01*
X48873863Y-89401662D01*
X49326244Y-89401662D01*
M02*
