%FSLAX45Y45*%
G04 Gerber Fmt 4.5, Leading zero omitted, Abs format (unit mm)*
G04 Created by KiCad (PCBNEW 4.0.6) date 05/08/17 07:30:47*
%MOMM*%
%LPD*%
G01*
G04 APERTURE LIST*
%ADD10C,0.127000*%
%ADD11C,0.150000*%
%ADD12C,0.200000*%
%ADD13C,0.300000*%
G04 APERTURE END LIST*
D10*
D11*
X3177810Y-13232890D02*
X8677810Y-13232890D01*
X3177810Y-13232890D02*
X3177810Y-7732890D01*
X8677810Y-13232890D02*
X8677810Y-7732890D01*
X3176210Y-7718290D02*
X8676210Y-7718290D01*
X8676410Y-13209690D02*
X8676410Y-7709690D01*
X3176410Y-13209690D02*
X3176410Y-7709690D01*
X3188010Y-7705990D02*
X8688010Y-7705990D01*
X8677110Y-7705990D02*
X3177110Y-7705990D01*
X8677110Y-13205990D02*
X8677110Y-7705990D01*
X3177110Y-13205990D02*
X3177110Y-7705990D01*
D12*
X4059010Y-9388390D02*
X4119010Y-9448390D01*
X4119010Y-9388390D02*
X4059010Y-9448390D01*
X4935300Y-11884400D02*
X4995300Y-11944400D01*
X4995300Y-11884400D02*
X4935300Y-11944400D01*
X5989310Y-11688290D02*
X6049310Y-11748290D01*
X6049310Y-11688290D02*
X5989310Y-11748290D01*
X6426810Y-12076690D02*
X6486810Y-12136690D01*
X6486810Y-12076690D02*
X6426810Y-12136690D01*
X7066210Y-10096890D02*
X7126210Y-10156890D01*
X7126210Y-10096890D02*
X7066210Y-10156890D01*
X7425410Y-9566390D02*
X7485410Y-9626390D01*
X7485410Y-9566390D02*
X7425410Y-9626390D01*
X3551510Y-11229890D02*
G75*
G03X3551510Y-11229890I-100000J0D01*
G01*
X4371910Y-11223290D02*
G75*
G03X4371910Y-11223290I-100000J0D01*
G01*
X5233370Y-10474490D02*
G75*
G03X5233370Y-10474490I-100000J0D01*
G01*
X6033470Y-9674390D02*
G75*
G03X6033470Y-9674390I-100000J0D01*
G01*
X6033470Y-11277130D02*
G75*
G03X6033470Y-11277130I-100000J0D01*
G01*
X6833570Y-10474490D02*
G75*
G03X6833570Y-10474490I-100000J0D01*
G01*
D13*
X3440138Y-13706104D02*
X3440138Y-13406104D01*
X3511567Y-13406104D01*
X3554424Y-13420390D01*
X3582996Y-13448961D01*
X3597281Y-13477533D01*
X3611567Y-13534676D01*
X3611567Y-13577533D01*
X3597281Y-13634676D01*
X3582996Y-13663247D01*
X3554424Y-13691819D01*
X3511567Y-13706104D01*
X3440138Y-13706104D01*
X3740138Y-13706104D02*
X3740138Y-13506104D01*
X3740138Y-13563247D02*
X3754424Y-13534676D01*
X3768710Y-13520390D01*
X3797281Y-13506104D01*
X3825853Y-13506104D01*
X3925853Y-13706104D02*
X3925853Y-13506104D01*
X3925853Y-13406104D02*
X3911567Y-13420390D01*
X3925853Y-13434676D01*
X3940138Y-13420390D01*
X3925853Y-13406104D01*
X3925853Y-13434676D01*
X4111567Y-13706104D02*
X4082996Y-13691819D01*
X4068710Y-13663247D01*
X4068710Y-13406104D01*
X4268710Y-13706104D02*
X4240139Y-13691819D01*
X4225853Y-13663247D01*
X4225853Y-13406104D01*
X4611567Y-13706104D02*
X4611567Y-13406104D01*
X4711567Y-13620390D01*
X4811567Y-13406104D01*
X4811567Y-13706104D01*
X5082996Y-13706104D02*
X5082996Y-13548961D01*
X5068710Y-13520390D01*
X5040139Y-13506104D01*
X4982996Y-13506104D01*
X4954424Y-13520390D01*
X5082996Y-13691819D02*
X5054424Y-13706104D01*
X4982996Y-13706104D01*
X4954424Y-13691819D01*
X4940139Y-13663247D01*
X4940139Y-13634676D01*
X4954424Y-13606104D01*
X4982996Y-13591819D01*
X5054424Y-13591819D01*
X5082996Y-13577533D01*
X5225853Y-13506104D02*
X5225853Y-13806104D01*
X5225853Y-13520390D02*
X5254424Y-13506104D01*
X5311567Y-13506104D01*
X5340139Y-13520390D01*
X5354424Y-13534676D01*
X5368710Y-13563247D01*
X5368710Y-13648961D01*
X5354424Y-13677533D01*
X5340139Y-13691819D01*
X5311567Y-13706104D01*
X5254424Y-13706104D01*
X5225853Y-13691819D01*
X5497281Y-13677533D02*
X5511567Y-13691819D01*
X5497281Y-13706104D01*
X5482996Y-13691819D01*
X5497281Y-13677533D01*
X5497281Y-13706104D01*
X5497281Y-13520390D02*
X5511567Y-13534676D01*
X5497281Y-13548961D01*
X5482996Y-13534676D01*
X5497281Y-13520390D01*
X5497281Y-13548961D01*
X3108710Y-14170390D02*
X3168710Y-14230390D01*
X3168710Y-14170390D02*
X3108710Y-14230390D01*
X3497281Y-14036104D02*
X3525853Y-14036104D01*
X3554424Y-14050390D01*
X3568710Y-14064676D01*
X3582996Y-14093247D01*
X3597281Y-14150390D01*
X3597281Y-14221819D01*
X3582996Y-14278961D01*
X3568710Y-14307533D01*
X3554424Y-14321819D01*
X3525853Y-14336104D01*
X3497281Y-14336104D01*
X3468710Y-14321819D01*
X3454424Y-14307533D01*
X3440138Y-14278961D01*
X3425853Y-14221819D01*
X3425853Y-14150390D01*
X3440138Y-14093247D01*
X3454424Y-14064676D01*
X3468710Y-14050390D01*
X3497281Y-14036104D01*
X3725853Y-14307533D02*
X3740138Y-14321819D01*
X3725853Y-14336104D01*
X3711567Y-14321819D01*
X3725853Y-14307533D01*
X3725853Y-14336104D01*
X3997281Y-14036104D02*
X3940138Y-14036104D01*
X3911567Y-14050390D01*
X3897281Y-14064676D01*
X3868710Y-14107533D01*
X3854424Y-14164676D01*
X3854424Y-14278961D01*
X3868710Y-14307533D01*
X3882996Y-14321819D01*
X3911567Y-14336104D01*
X3968710Y-14336104D01*
X3997281Y-14321819D01*
X4011567Y-14307533D01*
X4025853Y-14278961D01*
X4025853Y-14207533D01*
X4011567Y-14178961D01*
X3997281Y-14164676D01*
X3968710Y-14150390D01*
X3911567Y-14150390D01*
X3882996Y-14164676D01*
X3868710Y-14178961D01*
X3854424Y-14207533D01*
X4211567Y-14036104D02*
X4240139Y-14036104D01*
X4268710Y-14050390D01*
X4282996Y-14064676D01*
X4297281Y-14093247D01*
X4311567Y-14150390D01*
X4311567Y-14221819D01*
X4297281Y-14278961D01*
X4282996Y-14307533D01*
X4268710Y-14321819D01*
X4240139Y-14336104D01*
X4211567Y-14336104D01*
X4182996Y-14321819D01*
X4168710Y-14307533D01*
X4154424Y-14278961D01*
X4140138Y-14221819D01*
X4140138Y-14150390D01*
X4154424Y-14093247D01*
X4168710Y-14064676D01*
X4182996Y-14050390D01*
X4211567Y-14036104D01*
X4440139Y-14336104D02*
X4440139Y-14136104D01*
X4440139Y-14164676D02*
X4454424Y-14150390D01*
X4482996Y-14136104D01*
X4525853Y-14136104D01*
X4554424Y-14150390D01*
X4568710Y-14178961D01*
X4568710Y-14336104D01*
X4568710Y-14178961D02*
X4582996Y-14150390D01*
X4611567Y-14136104D01*
X4654424Y-14136104D01*
X4682996Y-14150390D01*
X4697281Y-14178961D01*
X4697281Y-14336104D01*
X4840139Y-14336104D02*
X4840139Y-14136104D01*
X4840139Y-14164676D02*
X4854424Y-14150390D01*
X4882996Y-14136104D01*
X4925853Y-14136104D01*
X4954424Y-14150390D01*
X4968710Y-14178961D01*
X4968710Y-14336104D01*
X4968710Y-14178961D02*
X4982996Y-14150390D01*
X5011567Y-14136104D01*
X5054424Y-14136104D01*
X5082996Y-14150390D01*
X5097281Y-14178961D01*
X5097281Y-14336104D01*
X5682996Y-14021819D02*
X5425853Y-14407533D01*
X6068710Y-14036104D02*
X6097281Y-14036104D01*
X6125853Y-14050390D01*
X6140138Y-14064676D01*
X6154424Y-14093247D01*
X6168710Y-14150390D01*
X6168710Y-14221819D01*
X6154424Y-14278961D01*
X6140138Y-14307533D01*
X6125853Y-14321819D01*
X6097281Y-14336104D01*
X6068710Y-14336104D01*
X6040138Y-14321819D01*
X6025853Y-14307533D01*
X6011567Y-14278961D01*
X5997281Y-14221819D01*
X5997281Y-14150390D01*
X6011567Y-14093247D01*
X6025853Y-14064676D01*
X6040138Y-14050390D01*
X6068710Y-14036104D01*
X6297281Y-14307533D02*
X6311567Y-14321819D01*
X6297281Y-14336104D01*
X6282996Y-14321819D01*
X6297281Y-14307533D01*
X6297281Y-14336104D01*
X6497281Y-14036104D02*
X6525853Y-14036104D01*
X6554424Y-14050390D01*
X6568710Y-14064676D01*
X6582995Y-14093247D01*
X6597281Y-14150390D01*
X6597281Y-14221819D01*
X6582995Y-14278961D01*
X6568710Y-14307533D01*
X6554424Y-14321819D01*
X6525853Y-14336104D01*
X6497281Y-14336104D01*
X6468710Y-14321819D01*
X6454424Y-14307533D01*
X6440138Y-14278961D01*
X6425853Y-14221819D01*
X6425853Y-14150390D01*
X6440138Y-14093247D01*
X6454424Y-14064676D01*
X6468710Y-14050390D01*
X6497281Y-14036104D01*
X6711567Y-14064676D02*
X6725853Y-14050390D01*
X6754424Y-14036104D01*
X6825853Y-14036104D01*
X6854424Y-14050390D01*
X6868710Y-14064676D01*
X6882995Y-14093247D01*
X6882995Y-14121819D01*
X6868710Y-14164676D01*
X6697281Y-14336104D01*
X6882995Y-14336104D01*
X7140138Y-14136104D02*
X7140138Y-14336104D01*
X7068710Y-14021819D02*
X6997281Y-14236104D01*
X7182995Y-14236104D01*
X7282996Y-14036104D02*
X7282996Y-14093247D01*
X7397281Y-14036104D02*
X7397281Y-14093247D01*
X7840138Y-14450390D02*
X7825853Y-14436104D01*
X7797281Y-14393247D01*
X7782995Y-14364676D01*
X7768710Y-14321819D01*
X7754424Y-14250390D01*
X7754424Y-14193247D01*
X7768710Y-14121819D01*
X7782995Y-14078961D01*
X7797281Y-14050390D01*
X7825853Y-14007533D01*
X7840138Y-13993247D01*
X8082995Y-14036104D02*
X8025853Y-14036104D01*
X7997281Y-14050390D01*
X7982995Y-14064676D01*
X7954424Y-14107533D01*
X7940138Y-14164676D01*
X7940138Y-14278961D01*
X7954424Y-14307533D01*
X7968710Y-14321819D01*
X7997281Y-14336104D01*
X8054424Y-14336104D01*
X8082995Y-14321819D01*
X8097281Y-14307533D01*
X8111567Y-14278961D01*
X8111567Y-14207533D01*
X8097281Y-14178961D01*
X8082995Y-14164676D01*
X8054424Y-14150390D01*
X7997281Y-14150390D01*
X7968710Y-14164676D01*
X7954424Y-14178961D01*
X7940138Y-14207533D01*
X8468710Y-14336104D02*
X8468710Y-14036104D01*
X8597281Y-14336104D02*
X8597281Y-14178961D01*
X8582996Y-14150390D01*
X8554424Y-14136104D01*
X8511567Y-14136104D01*
X8482996Y-14150390D01*
X8468710Y-14164676D01*
X8782996Y-14336104D02*
X8754424Y-14321819D01*
X8740138Y-14307533D01*
X8725853Y-14278961D01*
X8725853Y-14193247D01*
X8740138Y-14164676D01*
X8754424Y-14150390D01*
X8782996Y-14136104D01*
X8825853Y-14136104D01*
X8854424Y-14150390D01*
X8868710Y-14164676D01*
X8882996Y-14193247D01*
X8882996Y-14278961D01*
X8868710Y-14307533D01*
X8854424Y-14321819D01*
X8825853Y-14336104D01*
X8782996Y-14336104D01*
X9054424Y-14336104D02*
X9025853Y-14321819D01*
X9011567Y-14293247D01*
X9011567Y-14036104D01*
X9282996Y-14321819D02*
X9254424Y-14336104D01*
X9197281Y-14336104D01*
X9168710Y-14321819D01*
X9154424Y-14293247D01*
X9154424Y-14178961D01*
X9168710Y-14150390D01*
X9197281Y-14136104D01*
X9254424Y-14136104D01*
X9282996Y-14150390D01*
X9297281Y-14178961D01*
X9297281Y-14207533D01*
X9154424Y-14236104D01*
X9411567Y-14321819D02*
X9440139Y-14336104D01*
X9497281Y-14336104D01*
X9525853Y-14321819D01*
X9540139Y-14293247D01*
X9540139Y-14278961D01*
X9525853Y-14250390D01*
X9497281Y-14236104D01*
X9454424Y-14236104D01*
X9425853Y-14221819D01*
X9411567Y-14193247D01*
X9411567Y-14178961D01*
X9425853Y-14150390D01*
X9454424Y-14136104D01*
X9497281Y-14136104D01*
X9525853Y-14150390D01*
X9640138Y-14450390D02*
X9654424Y-14436104D01*
X9682996Y-14393247D01*
X9697281Y-14364676D01*
X9711567Y-14321819D01*
X9725853Y-14250390D01*
X9725853Y-14193247D01*
X9711567Y-14121819D01*
X9697281Y-14078961D01*
X9682996Y-14050390D01*
X9654424Y-14007533D01*
X9640138Y-13993247D01*
X3168710Y-14596390D02*
G75*
G03X3168710Y-14596390I-100000J0D01*
G01*
X3425853Y-14460676D02*
X3440138Y-14446390D01*
X3468710Y-14432104D01*
X3540138Y-14432104D01*
X3568710Y-14446390D01*
X3582996Y-14460676D01*
X3597281Y-14489247D01*
X3597281Y-14517819D01*
X3582996Y-14560676D01*
X3411567Y-14732104D01*
X3597281Y-14732104D01*
X3725853Y-14703533D02*
X3740138Y-14717819D01*
X3725853Y-14732104D01*
X3711567Y-14717819D01*
X3725853Y-14703533D01*
X3725853Y-14732104D01*
X3925853Y-14432104D02*
X3954424Y-14432104D01*
X3982996Y-14446390D01*
X3997281Y-14460676D01*
X4011567Y-14489247D01*
X4025853Y-14546390D01*
X4025853Y-14617819D01*
X4011567Y-14674961D01*
X3997281Y-14703533D01*
X3982996Y-14717819D01*
X3954424Y-14732104D01*
X3925853Y-14732104D01*
X3897281Y-14717819D01*
X3882996Y-14703533D01*
X3868710Y-14674961D01*
X3854424Y-14617819D01*
X3854424Y-14546390D01*
X3868710Y-14489247D01*
X3882996Y-14460676D01*
X3897281Y-14446390D01*
X3925853Y-14432104D01*
X4211567Y-14432104D02*
X4240139Y-14432104D01*
X4268710Y-14446390D01*
X4282996Y-14460676D01*
X4297281Y-14489247D01*
X4311567Y-14546390D01*
X4311567Y-14617819D01*
X4297281Y-14674961D01*
X4282996Y-14703533D01*
X4268710Y-14717819D01*
X4240139Y-14732104D01*
X4211567Y-14732104D01*
X4182996Y-14717819D01*
X4168710Y-14703533D01*
X4154424Y-14674961D01*
X4140138Y-14617819D01*
X4140138Y-14546390D01*
X4154424Y-14489247D01*
X4168710Y-14460676D01*
X4182996Y-14446390D01*
X4211567Y-14432104D01*
X4440139Y-14732104D02*
X4440139Y-14532104D01*
X4440139Y-14560676D02*
X4454424Y-14546390D01*
X4482996Y-14532104D01*
X4525853Y-14532104D01*
X4554424Y-14546390D01*
X4568710Y-14574961D01*
X4568710Y-14732104D01*
X4568710Y-14574961D02*
X4582996Y-14546390D01*
X4611567Y-14532104D01*
X4654424Y-14532104D01*
X4682996Y-14546390D01*
X4697281Y-14574961D01*
X4697281Y-14732104D01*
X4840139Y-14732104D02*
X4840139Y-14532104D01*
X4840139Y-14560676D02*
X4854424Y-14546390D01*
X4882996Y-14532104D01*
X4925853Y-14532104D01*
X4954424Y-14546390D01*
X4968710Y-14574961D01*
X4968710Y-14732104D01*
X4968710Y-14574961D02*
X4982996Y-14546390D01*
X5011567Y-14532104D01*
X5054424Y-14532104D01*
X5082996Y-14546390D01*
X5097281Y-14574961D01*
X5097281Y-14732104D01*
X5682996Y-14417819D02*
X5425853Y-14803533D01*
X6068710Y-14432104D02*
X6097281Y-14432104D01*
X6125853Y-14446390D01*
X6140138Y-14460676D01*
X6154424Y-14489247D01*
X6168710Y-14546390D01*
X6168710Y-14617819D01*
X6154424Y-14674961D01*
X6140138Y-14703533D01*
X6125853Y-14717819D01*
X6097281Y-14732104D01*
X6068710Y-14732104D01*
X6040138Y-14717819D01*
X6025853Y-14703533D01*
X6011567Y-14674961D01*
X5997281Y-14617819D01*
X5997281Y-14546390D01*
X6011567Y-14489247D01*
X6025853Y-14460676D01*
X6040138Y-14446390D01*
X6068710Y-14432104D01*
X6297281Y-14703533D02*
X6311567Y-14717819D01*
X6297281Y-14732104D01*
X6282996Y-14717819D01*
X6297281Y-14703533D01*
X6297281Y-14732104D01*
X6497281Y-14432104D02*
X6525853Y-14432104D01*
X6554424Y-14446390D01*
X6568710Y-14460676D01*
X6582995Y-14489247D01*
X6597281Y-14546390D01*
X6597281Y-14617819D01*
X6582995Y-14674961D01*
X6568710Y-14703533D01*
X6554424Y-14717819D01*
X6525853Y-14732104D01*
X6497281Y-14732104D01*
X6468710Y-14717819D01*
X6454424Y-14703533D01*
X6440138Y-14674961D01*
X6425853Y-14617819D01*
X6425853Y-14546390D01*
X6440138Y-14489247D01*
X6454424Y-14460676D01*
X6468710Y-14446390D01*
X6497281Y-14432104D01*
X6697281Y-14432104D02*
X6897281Y-14432104D01*
X6768710Y-14732104D01*
X7025853Y-14732104D02*
X7082995Y-14732104D01*
X7111567Y-14717819D01*
X7125853Y-14703533D01*
X7154424Y-14660676D01*
X7168710Y-14603533D01*
X7168710Y-14489247D01*
X7154424Y-14460676D01*
X7140138Y-14446390D01*
X7111567Y-14432104D01*
X7054424Y-14432104D01*
X7025853Y-14446390D01*
X7011567Y-14460676D01*
X6997281Y-14489247D01*
X6997281Y-14560676D01*
X7011567Y-14589247D01*
X7025853Y-14603533D01*
X7054424Y-14617819D01*
X7111567Y-14617819D01*
X7140138Y-14603533D01*
X7154424Y-14589247D01*
X7168710Y-14560676D01*
X7282996Y-14432104D02*
X7282996Y-14489247D01*
X7397281Y-14432104D02*
X7397281Y-14489247D01*
X7840138Y-14846390D02*
X7825853Y-14832104D01*
X7797281Y-14789247D01*
X7782995Y-14760676D01*
X7768710Y-14717819D01*
X7754424Y-14646390D01*
X7754424Y-14589247D01*
X7768710Y-14517819D01*
X7782995Y-14474961D01*
X7797281Y-14446390D01*
X7825853Y-14403533D01*
X7840138Y-14389247D01*
X8082995Y-14432104D02*
X8025853Y-14432104D01*
X7997281Y-14446390D01*
X7982995Y-14460676D01*
X7954424Y-14503533D01*
X7940138Y-14560676D01*
X7940138Y-14674961D01*
X7954424Y-14703533D01*
X7968710Y-14717819D01*
X7997281Y-14732104D01*
X8054424Y-14732104D01*
X8082995Y-14717819D01*
X8097281Y-14703533D01*
X8111567Y-14674961D01*
X8111567Y-14603533D01*
X8097281Y-14574961D01*
X8082995Y-14560676D01*
X8054424Y-14546390D01*
X7997281Y-14546390D01*
X7968710Y-14560676D01*
X7954424Y-14574961D01*
X7940138Y-14603533D01*
X8468710Y-14732104D02*
X8468710Y-14432104D01*
X8597281Y-14732104D02*
X8597281Y-14574961D01*
X8582996Y-14546390D01*
X8554424Y-14532104D01*
X8511567Y-14532104D01*
X8482996Y-14546390D01*
X8468710Y-14560676D01*
X8782996Y-14732104D02*
X8754424Y-14717819D01*
X8740138Y-14703533D01*
X8725853Y-14674961D01*
X8725853Y-14589247D01*
X8740138Y-14560676D01*
X8754424Y-14546390D01*
X8782996Y-14532104D01*
X8825853Y-14532104D01*
X8854424Y-14546390D01*
X8868710Y-14560676D01*
X8882996Y-14589247D01*
X8882996Y-14674961D01*
X8868710Y-14703533D01*
X8854424Y-14717819D01*
X8825853Y-14732104D01*
X8782996Y-14732104D01*
X9054424Y-14732104D02*
X9025853Y-14717819D01*
X9011567Y-14689247D01*
X9011567Y-14432104D01*
X9282996Y-14717819D02*
X9254424Y-14732104D01*
X9197281Y-14732104D01*
X9168710Y-14717819D01*
X9154424Y-14689247D01*
X9154424Y-14574961D01*
X9168710Y-14546390D01*
X9197281Y-14532104D01*
X9254424Y-14532104D01*
X9282996Y-14546390D01*
X9297281Y-14574961D01*
X9297281Y-14603533D01*
X9154424Y-14632104D01*
X9411567Y-14717819D02*
X9440139Y-14732104D01*
X9497281Y-14732104D01*
X9525853Y-14717819D01*
X9540139Y-14689247D01*
X9540139Y-14674961D01*
X9525853Y-14646390D01*
X9497281Y-14632104D01*
X9454424Y-14632104D01*
X9425853Y-14617819D01*
X9411567Y-14589247D01*
X9411567Y-14574961D01*
X9425853Y-14546390D01*
X9454424Y-14532104D01*
X9497281Y-14532104D01*
X9525853Y-14546390D01*
X9640138Y-14846390D02*
X9654424Y-14832104D01*
X9682996Y-14789247D01*
X9697281Y-14760676D01*
X9711567Y-14717819D01*
X9725853Y-14646390D01*
X9725853Y-14589247D01*
X9711567Y-14517819D01*
X9697281Y-14474961D01*
X9682996Y-14446390D01*
X9654424Y-14403533D01*
X9640138Y-14389247D01*
M02*
