G04 #@! TF.FileFunction,Soldermask,Top*
%FSLAX46Y46*%
G04 Gerber Fmt 4.6, Leading zero omitted, Abs format (unit mm)*
G04 Created by KiCad (PCBNEW 4.0.6) date 05/08/17 07:30:41*
%MOMM*%
%LPD*%
G01*
G04 APERTURE LIST*
%ADD10C,0.100000*%
%ADD11C,1.500000*%
%ADD12R,1.035000X1.670000*%
%ADD13R,3.700000X1.700000*%
%ADD14R,2.940000X2.940000*%
G04 APERTURE END LIST*
D10*
D11*
X78462700Y-125832900D03*
D12*
X78843700Y-125832900D03*
X79478700Y-125832900D03*
X78208700Y-125832900D03*
X77573700Y-125832900D03*
X76938700Y-125832900D03*
X80075600Y-125832900D03*
X80672500Y-125832900D03*
X76316400Y-125832900D03*
X75694100Y-125832900D03*
D11*
X78444500Y-129966900D03*
D12*
X78825500Y-129966900D03*
X79460500Y-129966900D03*
X78190500Y-129966900D03*
X77555500Y-129966900D03*
X76920500Y-129966900D03*
X80057400Y-129966900D03*
X80654300Y-129966900D03*
X76298200Y-129966900D03*
X75675900Y-129966900D03*
D11*
X36267100Y-79918900D03*
D12*
X36648100Y-79918900D03*
X37283100Y-79918900D03*
X36013100Y-79918900D03*
X35378100Y-79918900D03*
X34743100Y-79918900D03*
X37880000Y-79918900D03*
X38476900Y-79918900D03*
X34120800Y-79918900D03*
X33498500Y-79918900D03*
D11*
X36453100Y-82863900D03*
D12*
X36834100Y-82863900D03*
X37469100Y-82863900D03*
X36199100Y-82863900D03*
X35564100Y-82863900D03*
X34929100Y-82863900D03*
X38066000Y-82863900D03*
X38662900Y-82863900D03*
X34306800Y-82863900D03*
X33684500Y-82863900D03*
D11*
X36565100Y-91288900D03*
D12*
X36946100Y-91288900D03*
X37581100Y-91288900D03*
X36311100Y-91288900D03*
X35676100Y-91288900D03*
X35041100Y-91288900D03*
X38178000Y-91288900D03*
X38774900Y-91288900D03*
X34418800Y-91288900D03*
X33796500Y-91288900D03*
D11*
X36554100Y-94266900D03*
D12*
X36935100Y-94266900D03*
X37570100Y-94266900D03*
X36300100Y-94266900D03*
X35665100Y-94266900D03*
X35030100Y-94266900D03*
X38167000Y-94266900D03*
X38763900Y-94266900D03*
X34407800Y-94266900D03*
X33785500Y-94266900D03*
D11*
X36532100Y-85706900D03*
D12*
X36913100Y-85706900D03*
X37548100Y-85706900D03*
X36278100Y-85706900D03*
X35643100Y-85706900D03*
X35008100Y-85706900D03*
X38145000Y-85706900D03*
X38741900Y-85706900D03*
X34385800Y-85706900D03*
X33763500Y-85706900D03*
D11*
X36704100Y-99946900D03*
D12*
X37085100Y-99946900D03*
X37720100Y-99946900D03*
X36450100Y-99946900D03*
X35815100Y-99946900D03*
X35180100Y-99946900D03*
X38317000Y-99946900D03*
X38913900Y-99946900D03*
X34557800Y-99946900D03*
X33935500Y-99946900D03*
D11*
X36555100Y-97130900D03*
D12*
X36936100Y-97130900D03*
X37571100Y-97130900D03*
X36301100Y-97130900D03*
X35666100Y-97130900D03*
X35031100Y-97130900D03*
X38168000Y-97130900D03*
X38764900Y-97130900D03*
X34408800Y-97130900D03*
X33786500Y-97130900D03*
D11*
X36569100Y-88491900D03*
D12*
X36950100Y-88491900D03*
X37585100Y-88491900D03*
X36315100Y-88491900D03*
X35680100Y-88491900D03*
X35045100Y-88491900D03*
X38182000Y-88491900D03*
X38778900Y-88491900D03*
X34422800Y-88491900D03*
X33800500Y-88491900D03*
D13*
X40803100Y-125882900D03*
X34553100Y-125882900D03*
D14*
X34582600Y-119081900D03*
X39281600Y-119081900D03*
M02*
