G04 #@! TF.FileFunction,Copper,L2,Bot,Signal*
%FSLAX46Y46*%
G04 Gerber Fmt 4.6, Leading zero omitted, Abs format (unit mm)*
G04 Created by KiCad (PCBNEW 4.0.6) date 05/07/17 20:58:39*
%MOMM*%
%LPD*%
G01*
G04 APERTURE LIST*
%ADD10C,0.100000*%
%ADD11C,1.100000*%
%ADD12R,0.635000X1.270000*%
%ADD13C,2.184400*%
%ADD14C,1.006400*%
%ADD15C,2.540000*%
%ADD16C,1.270000*%
%ADD17C,0.609600*%
%ADD18C,0.406400*%
G04 APERTURE END LIST*
D10*
D11*
X203057700Y-116728300D03*
D12*
X203438700Y-116728300D03*
X204073700Y-116728300D03*
X202803700Y-116728300D03*
X202168700Y-116728300D03*
X201533700Y-116728300D03*
X204670600Y-116728300D03*
X205267500Y-116728300D03*
X200911400Y-116728300D03*
X200289100Y-116728300D03*
D11*
X205013500Y-124602300D03*
D12*
X205394500Y-124602300D03*
X206029500Y-124602300D03*
X204759500Y-124602300D03*
X204124500Y-124602300D03*
X203489500Y-124602300D03*
X206626400Y-124602300D03*
X207223300Y-124602300D03*
X202867200Y-124602300D03*
X202244900Y-124602300D03*
D11*
X156042300Y-116677500D03*
D12*
X156423300Y-116677500D03*
X157058300Y-116677500D03*
X155788300Y-116677500D03*
X155153300Y-116677500D03*
X154518300Y-116677500D03*
X157655200Y-116677500D03*
X158252100Y-116677500D03*
X153896000Y-116677500D03*
X153273700Y-116677500D03*
D11*
X153375300Y-126685100D03*
D12*
X153756300Y-126685100D03*
X154391300Y-126685100D03*
X153121300Y-126685100D03*
X152486300Y-126685100D03*
X151851300Y-126685100D03*
X154988200Y-126685100D03*
X155585100Y-126685100D03*
X151229000Y-126685100D03*
X150606700Y-126685100D03*
D11*
X202981500Y-103240900D03*
D12*
X203362500Y-103240900D03*
X203997500Y-103240900D03*
X202727500Y-103240900D03*
X202092500Y-103240900D03*
X201457500Y-103240900D03*
X204594400Y-103240900D03*
X205191300Y-103240900D03*
X200835200Y-103240900D03*
X200212900Y-103240900D03*
D11*
X202879900Y-100624700D03*
D12*
X203260900Y-100624700D03*
X203895900Y-100624700D03*
X202625900Y-100624700D03*
X201990900Y-100624700D03*
X201355900Y-100624700D03*
X204492800Y-100624700D03*
X205089700Y-100624700D03*
X200733600Y-100624700D03*
X200111300Y-100624700D03*
D11*
X156067700Y-100700900D03*
D12*
X156448700Y-100700900D03*
X157083700Y-100700900D03*
X155813700Y-100700900D03*
X155178700Y-100700900D03*
X154543700Y-100700900D03*
X157680600Y-100700900D03*
X158277500Y-100700900D03*
X153921400Y-100700900D03*
X153299100Y-100700900D03*
D11*
X202981500Y-97983100D03*
D12*
X203362500Y-97983100D03*
X203997500Y-97983100D03*
X202727500Y-97983100D03*
X202092500Y-97983100D03*
X201457500Y-97983100D03*
X204594400Y-97983100D03*
X205191300Y-97983100D03*
X200835200Y-97983100D03*
X200212900Y-97983100D03*
D11*
X156093100Y-97932300D03*
D12*
X156474100Y-97932300D03*
X157109100Y-97932300D03*
X155839100Y-97932300D03*
X155204100Y-97932300D03*
X154569100Y-97932300D03*
X157706000Y-97932300D03*
X158302900Y-97932300D03*
X153946800Y-97932300D03*
X153324500Y-97932300D03*
D11*
X203006900Y-114112100D03*
D12*
X203387900Y-114112100D03*
X204022900Y-114112100D03*
X202752900Y-114112100D03*
X202117900Y-114112100D03*
X201482900Y-114112100D03*
X204619800Y-114112100D03*
X205216700Y-114112100D03*
X200860600Y-114112100D03*
X200238300Y-114112100D03*
D11*
X203057700Y-92395100D03*
D12*
X203438700Y-92395100D03*
X204073700Y-92395100D03*
X202803700Y-92395100D03*
X202168700Y-92395100D03*
X201533700Y-92395100D03*
X204670600Y-92395100D03*
X205267500Y-92395100D03*
X200911400Y-92395100D03*
X200289100Y-92395100D03*
D11*
X156016900Y-92496700D03*
D12*
X156397900Y-92496700D03*
X157032900Y-92496700D03*
X155762900Y-92496700D03*
X155127900Y-92496700D03*
X154492900Y-92496700D03*
X157629800Y-92496700D03*
X158226700Y-92496700D03*
X153870600Y-92496700D03*
X153248300Y-92496700D03*
D11*
X202981500Y-108600300D03*
D12*
X203362500Y-108600300D03*
X203997500Y-108600300D03*
X202727500Y-108600300D03*
X202092500Y-108600300D03*
X201457500Y-108600300D03*
X204594400Y-108600300D03*
X205191300Y-108600300D03*
X200835200Y-108600300D03*
X200212900Y-108600300D03*
D11*
X155966100Y-108600300D03*
D12*
X156347100Y-108600300D03*
X156982100Y-108600300D03*
X155712100Y-108600300D03*
X155077100Y-108600300D03*
X154442100Y-108600300D03*
X157579000Y-108600300D03*
X158175900Y-108600300D03*
X153819800Y-108600300D03*
X153197500Y-108600300D03*
D11*
X205038900Y-121655900D03*
D12*
X205419900Y-121655900D03*
X206054900Y-121655900D03*
X204784900Y-121655900D03*
X204149900Y-121655900D03*
X203514900Y-121655900D03*
X206651800Y-121655900D03*
X207248700Y-121655900D03*
X202892600Y-121655900D03*
X202270300Y-121655900D03*
D11*
X205165900Y-82133500D03*
D12*
X205546900Y-82133500D03*
X206181900Y-82133500D03*
X204911900Y-82133500D03*
X204276900Y-82133500D03*
X203641900Y-82133500D03*
X206778800Y-82133500D03*
X207375700Y-82133500D03*
X203019600Y-82133500D03*
X202397300Y-82133500D03*
D11*
X153375300Y-123764100D03*
D12*
X153756300Y-123764100D03*
X154391300Y-123764100D03*
X153121300Y-123764100D03*
X152486300Y-123764100D03*
X151851300Y-123764100D03*
X154988200Y-123764100D03*
X155585100Y-123764100D03*
X151229000Y-123764100D03*
X150606700Y-123764100D03*
D11*
X153400700Y-81219100D03*
D12*
X153781700Y-81219100D03*
X154416700Y-81219100D03*
X153146700Y-81219100D03*
X152511700Y-81219100D03*
X151876700Y-81219100D03*
X155013600Y-81219100D03*
X155610500Y-81219100D03*
X151254400Y-81219100D03*
X150632100Y-81219100D03*
D11*
X155966100Y-113883500D03*
D12*
X156347100Y-113883500D03*
X156982100Y-113883500D03*
X155712100Y-113883500D03*
X155077100Y-113883500D03*
X154442100Y-113883500D03*
X157579000Y-113883500D03*
X158175900Y-113883500D03*
X153819800Y-113883500D03*
X153197500Y-113883500D03*
D11*
X156042300Y-111267300D03*
D12*
X156423300Y-111267300D03*
X157058300Y-111267300D03*
X155788300Y-111267300D03*
X155153300Y-111267300D03*
X154518300Y-111267300D03*
X157655200Y-111267300D03*
X158252100Y-111267300D03*
X153896000Y-111267300D03*
X153273700Y-111267300D03*
D11*
X156016900Y-103367900D03*
D12*
X156397900Y-103367900D03*
X157032900Y-103367900D03*
X155762900Y-103367900D03*
X155127900Y-103367900D03*
X154492900Y-103367900D03*
X157629800Y-103367900D03*
X158226700Y-103367900D03*
X153870600Y-103367900D03*
X153248300Y-103367900D03*
D11*
X155864500Y-95239900D03*
D12*
X156245500Y-95239900D03*
X156880500Y-95239900D03*
X155610500Y-95239900D03*
X154975500Y-95239900D03*
X154340500Y-95239900D03*
X157477400Y-95239900D03*
X158074300Y-95239900D03*
X153718200Y-95239900D03*
X153095900Y-95239900D03*
D11*
X156067700Y-86578500D03*
D12*
X156448700Y-86578500D03*
X157083700Y-86578500D03*
X155813700Y-86578500D03*
X155178700Y-86578500D03*
X154543700Y-86578500D03*
X157680600Y-86578500D03*
X158277500Y-86578500D03*
X153921400Y-86578500D03*
X153299100Y-86578500D03*
D11*
X205038900Y-127370900D03*
D12*
X205419900Y-127370900D03*
X206054900Y-127370900D03*
X204784900Y-127370900D03*
X204149900Y-127370900D03*
X203514900Y-127370900D03*
X206651800Y-127370900D03*
X207248700Y-127370900D03*
X202892600Y-127370900D03*
X202270300Y-127370900D03*
D11*
X202981500Y-87111900D03*
D12*
X203362500Y-87111900D03*
X203997500Y-87111900D03*
X202727500Y-87111900D03*
X202092500Y-87111900D03*
X201457500Y-87111900D03*
X204594400Y-87111900D03*
X205191300Y-87111900D03*
X200835200Y-87111900D03*
X200212900Y-87111900D03*
D11*
X203057700Y-95163700D03*
D12*
X203438700Y-95163700D03*
X204073700Y-95163700D03*
X202803700Y-95163700D03*
X202168700Y-95163700D03*
X201533700Y-95163700D03*
X204670600Y-95163700D03*
X205267500Y-95163700D03*
X200911400Y-95163700D03*
X200289100Y-95163700D03*
D11*
X203057700Y-111343500D03*
D12*
X203438700Y-111343500D03*
X204073700Y-111343500D03*
X202803700Y-111343500D03*
X202168700Y-111343500D03*
X201533700Y-111343500D03*
X204670600Y-111343500D03*
X205267500Y-111343500D03*
X200911400Y-111343500D03*
X200289100Y-111343500D03*
D11*
X203108500Y-89728100D03*
D12*
X203489500Y-89728100D03*
X204124500Y-89728100D03*
X202854500Y-89728100D03*
X202219500Y-89728100D03*
X201584500Y-89728100D03*
X204721400Y-89728100D03*
X205318300Y-89728100D03*
X200962200Y-89728100D03*
X200339900Y-89728100D03*
D11*
X156042300Y-89702700D03*
D12*
X156423300Y-89702700D03*
X157058300Y-89702700D03*
X155788300Y-89702700D03*
X155153300Y-89702700D03*
X154518300Y-89702700D03*
X157655200Y-89702700D03*
X158252100Y-89702700D03*
X153896000Y-89702700D03*
X153273700Y-89702700D03*
D11*
X203006900Y-106034900D03*
D12*
X203387900Y-106034900D03*
X204022900Y-106034900D03*
X202752900Y-106034900D03*
X202117900Y-106034900D03*
X201482900Y-106034900D03*
X204619800Y-106034900D03*
X205216700Y-106034900D03*
X200860600Y-106034900D03*
X200238300Y-106034900D03*
D11*
X156067700Y-106060300D03*
D12*
X156448700Y-106060300D03*
X157083700Y-106060300D03*
X155813700Y-106060300D03*
X155178700Y-106060300D03*
X154543700Y-106060300D03*
X157680600Y-106060300D03*
X158277500Y-106060300D03*
X153921400Y-106060300D03*
X153299100Y-106060300D03*
D13*
X171307700Y-101920100D03*
X179257700Y-109896500D03*
X187309700Y-101920100D03*
X179308700Y-93919100D03*
D14*
X178435100Y-113603100D03*
X201688100Y-121466100D03*
X171363300Y-117676100D03*
X200429100Y-84685100D03*
X165296100Y-81301100D03*
D15*
X153375300Y-126685100D02*
X176531100Y-126685100D01*
X176531100Y-126685100D02*
X178624100Y-124592100D01*
D16*
X178624100Y-124592100D02*
X179475100Y-124592100D01*
D15*
X179475100Y-124592100D02*
X205003300Y-124592100D01*
D16*
X205003300Y-124592100D02*
X205013500Y-124602300D01*
D15*
X178435100Y-113603100D02*
X178435100Y-123552100D01*
D16*
X178435100Y-123552100D02*
X179475100Y-124592100D01*
D15*
X201688100Y-121466100D02*
X204849100Y-121466100D01*
D16*
X204849100Y-121466100D02*
X205038900Y-121655900D01*
D15*
X153375300Y-123764100D02*
X167911100Y-123764100D01*
X167911100Y-123764100D02*
X171251100Y-120424100D01*
X171251100Y-120424100D02*
X171251100Y-117788300D01*
X171251100Y-117788300D02*
X171363300Y-117676100D01*
X205165900Y-82133500D02*
X200836700Y-82133500D01*
X200836700Y-82133500D02*
X200429100Y-82541100D01*
X200429100Y-82541100D02*
X200429100Y-84685100D01*
D17*
X153400700Y-81219100D02*
X165214100Y-81219100D01*
X165214100Y-81219100D02*
X165296100Y-81301100D01*
D18*
G36*
X176174534Y-123808774D02*
X176149323Y-123584018D01*
X176149100Y-123552100D01*
X176149100Y-113603100D01*
X176192637Y-113159080D01*
X176321588Y-112731973D01*
X176531042Y-112338047D01*
X176813021Y-111992306D01*
X177156785Y-111707920D01*
X177549239Y-111495721D01*
X177798641Y-111418518D01*
X177634911Y-111258182D01*
X177401331Y-110917047D01*
X177238460Y-110537041D01*
X177152501Y-110132636D01*
X177146729Y-109719237D01*
X177221362Y-109312590D01*
X177373559Y-108928183D01*
X177597523Y-108580660D01*
X177884722Y-108283256D01*
X178224218Y-108047301D01*
X178603078Y-107881781D01*
X179006873Y-107793001D01*
X179420222Y-107784342D01*
X179827380Y-107856135D01*
X180212839Y-108005645D01*
X180561918Y-108227177D01*
X180861319Y-108512293D01*
X181099639Y-108850133D01*
X181267800Y-109227829D01*
X181359397Y-109630994D01*
X181365991Y-110103220D01*
X181285687Y-110508785D01*
X181128137Y-110891029D01*
X180899343Y-111235392D01*
X180608020Y-111528756D01*
X180265263Y-111759948D01*
X179942340Y-111895693D01*
X180034530Y-111969815D01*
X180321309Y-112311585D01*
X180536243Y-112702549D01*
X180671145Y-113127814D01*
X180720877Y-113571182D01*
X180721100Y-113603100D01*
X180721100Y-122306100D01*
X200934045Y-122306100D01*
X200931885Y-122290900D01*
X200931885Y-121020900D01*
X200944787Y-120859106D01*
X201029770Y-120584686D01*
X201187840Y-120344806D01*
X201406481Y-120158460D01*
X201668380Y-120040404D01*
X201952800Y-119999985D01*
X204223689Y-119999985D01*
X204219464Y-119963292D01*
X204206743Y-119893174D01*
X204207310Y-119857759D01*
X204203256Y-119822560D01*
X204203105Y-119807327D01*
X204198895Y-118384215D01*
X199971600Y-118384215D01*
X199809806Y-118371313D01*
X199535386Y-118286330D01*
X199295506Y-118128260D01*
X199109160Y-117909619D01*
X198991104Y-117647720D01*
X198950685Y-117363300D01*
X198950685Y-116093300D01*
X198963587Y-115931506D01*
X199048570Y-115657086D01*
X199187988Y-115445512D01*
X199058360Y-115293419D01*
X198940304Y-115031520D01*
X198899885Y-114747100D01*
X198899885Y-113477100D01*
X198912787Y-113315306D01*
X198997770Y-113040886D01*
X199155840Y-112801006D01*
X199265149Y-112707842D01*
X199109160Y-112524819D01*
X198991104Y-112262920D01*
X198950685Y-111978500D01*
X198950685Y-110708500D01*
X198963587Y-110546706D01*
X199048570Y-110272286D01*
X199206640Y-110032406D01*
X199233434Y-110009570D01*
X199219306Y-110000260D01*
X199032960Y-109781619D01*
X198914904Y-109519720D01*
X198874485Y-109235300D01*
X198874485Y-107965300D01*
X198887387Y-107803506D01*
X198972370Y-107529086D01*
X199126135Y-107295740D01*
X199058360Y-107216219D01*
X198940304Y-106954320D01*
X198899885Y-106669900D01*
X198899885Y-105399900D01*
X198912787Y-105238106D01*
X198997770Y-104963686D01*
X199155840Y-104723806D01*
X199238399Y-104653442D01*
X199219306Y-104640860D01*
X199032960Y-104422219D01*
X198914904Y-104160320D01*
X198874485Y-103875900D01*
X198874485Y-102605900D01*
X198887387Y-102444106D01*
X198972370Y-102169686D01*
X199089637Y-101991727D01*
X198931360Y-101806019D01*
X198813304Y-101544120D01*
X198772885Y-101259700D01*
X198772885Y-99989700D01*
X198785787Y-99827906D01*
X198870770Y-99553486D01*
X199028840Y-99313606D01*
X199104877Y-99248800D01*
X199032960Y-99164419D01*
X198914904Y-98902520D01*
X198874485Y-98618100D01*
X198874485Y-97348100D01*
X198887387Y-97186306D01*
X198972370Y-96911886D01*
X199130440Y-96672006D01*
X199279541Y-96544928D01*
X199109160Y-96345019D01*
X198991104Y-96083120D01*
X198950685Y-95798700D01*
X198950685Y-94528700D01*
X198963587Y-94366906D01*
X199048570Y-94092486D01*
X199206640Y-93852606D01*
X199286524Y-93784521D01*
X199109160Y-93576419D01*
X198991104Y-93314520D01*
X198950685Y-93030100D01*
X198950685Y-91760100D01*
X198963587Y-91598306D01*
X199048570Y-91323886D01*
X199206640Y-91084006D01*
X199265791Y-91033592D01*
X199159960Y-90909419D01*
X199041904Y-90647520D01*
X199001485Y-90363100D01*
X199001485Y-89093100D01*
X199014387Y-88931306D01*
X199099370Y-88656886D01*
X199205562Y-88495734D01*
X199032960Y-88293219D01*
X198914904Y-88031320D01*
X198874485Y-87746900D01*
X198874485Y-86476900D01*
X198883664Y-86361797D01*
X198829670Y-86318385D01*
X198542891Y-85976615D01*
X198327957Y-85585651D01*
X198193055Y-85160386D01*
X198143323Y-84717018D01*
X198143100Y-84685100D01*
X198143100Y-82541100D01*
X198163704Y-82330966D01*
X198182110Y-82120588D01*
X198185464Y-82109044D01*
X198186637Y-82097080D01*
X198247675Y-81894913D01*
X198306582Y-81692153D01*
X198312113Y-81681482D01*
X198315588Y-81669973D01*
X198414725Y-81483522D01*
X198511899Y-81296055D01*
X198519399Y-81286660D01*
X198525042Y-81276047D01*
X198658507Y-81112402D01*
X198790242Y-80947381D01*
X198806737Y-80930654D01*
X198807021Y-80930306D01*
X198807343Y-80930039D01*
X198812654Y-80924654D01*
X199220254Y-80517054D01*
X199383415Y-80383032D01*
X199545185Y-80247291D01*
X199555720Y-80241500D01*
X199565008Y-80233870D01*
X199751097Y-80134090D01*
X199936149Y-80032357D01*
X199947608Y-80028722D01*
X199958201Y-80023042D01*
X200160157Y-79961298D01*
X200361414Y-79897455D01*
X200373357Y-79896115D01*
X200384855Y-79892600D01*
X200594966Y-79871258D01*
X200804782Y-79847723D01*
X200828279Y-79847559D01*
X200828720Y-79847514D01*
X200829131Y-79847553D01*
X200836700Y-79847500D01*
X205165900Y-79847500D01*
X205609920Y-79891037D01*
X205647701Y-79902444D01*
X205696327Y-75275100D01*
X152376222Y-75275100D01*
X152328657Y-79563185D01*
X155928000Y-79563185D01*
X156089794Y-79576087D01*
X156364214Y-79661070D01*
X156604094Y-79819140D01*
X156671561Y-79898300D01*
X164712131Y-79898300D01*
X164824370Y-79849264D01*
X165115350Y-79785288D01*
X165413216Y-79779048D01*
X165706620Y-79830783D01*
X165984388Y-79938522D01*
X166235939Y-80098161D01*
X166451692Y-80303620D01*
X166623428Y-80547073D01*
X166744608Y-80819246D01*
X166810614Y-81109772D01*
X166815365Y-81450065D01*
X166757497Y-81742322D01*
X166643965Y-82017772D01*
X166479092Y-82265925D01*
X166269160Y-82477328D01*
X166022165Y-82643928D01*
X165747513Y-82759381D01*
X165455668Y-82819288D01*
X165157745Y-82821368D01*
X164865091Y-82765542D01*
X164588855Y-82653935D01*
X164414591Y-82539900D01*
X156681572Y-82539900D01*
X156474319Y-82716540D01*
X156212420Y-82834596D01*
X155928000Y-82875015D01*
X153327812Y-82875015D01*
X153339796Y-82878542D01*
X153415263Y-82917996D01*
X153492214Y-82954455D01*
X153509462Y-82967242D01*
X153528491Y-82977190D01*
X153594856Y-83030549D01*
X153663263Y-83081262D01*
X153677699Y-83097155D01*
X153694433Y-83110610D01*
X153749176Y-83175850D01*
X153806423Y-83238878D01*
X153817496Y-83257271D01*
X153831299Y-83273721D01*
X153872327Y-83348350D01*
X153916242Y-83421297D01*
X153923532Y-83441491D01*
X153933877Y-83460309D01*
X153959627Y-83541483D01*
X153988538Y-83621574D01*
X153991767Y-83642801D01*
X153998259Y-83663268D01*
X154007753Y-83747911D01*
X154020555Y-83832079D01*
X154019600Y-83853521D01*
X154021994Y-83874867D01*
X154022100Y-83890100D01*
X154022100Y-84922585D01*
X158595000Y-84922585D01*
X158756794Y-84935487D01*
X159031214Y-85020470D01*
X159271094Y-85178540D01*
X159457440Y-85397181D01*
X159575496Y-85659080D01*
X159615915Y-85943500D01*
X159615915Y-87213500D01*
X159603013Y-87375294D01*
X159518030Y-87649714D01*
X159359960Y-87889594D01*
X159141319Y-88075940D01*
X158995756Y-88141555D01*
X159005814Y-88144670D01*
X159245694Y-88302740D01*
X159432040Y-88521381D01*
X159550096Y-88783280D01*
X159590515Y-89067700D01*
X159590515Y-90337700D01*
X159577613Y-90499494D01*
X159492630Y-90773914D01*
X159334560Y-91013794D01*
X159227424Y-91105105D01*
X159406640Y-91315381D01*
X159524696Y-91577280D01*
X159565115Y-91861700D01*
X159565115Y-93131700D01*
X159552213Y-93293494D01*
X159467230Y-93567914D01*
X159352623Y-93741837D01*
X177197729Y-93741837D01*
X177272362Y-93335190D01*
X177424559Y-92950783D01*
X177648523Y-92603260D01*
X177935722Y-92305856D01*
X178275218Y-92069901D01*
X178654078Y-91904381D01*
X179057873Y-91815601D01*
X179471222Y-91806942D01*
X179878380Y-91878735D01*
X180263839Y-92028245D01*
X180612918Y-92249777D01*
X180912319Y-92534893D01*
X181150639Y-92872733D01*
X181318800Y-93250429D01*
X181410397Y-93653594D01*
X181416991Y-94125820D01*
X181336687Y-94531385D01*
X181179137Y-94913629D01*
X180950343Y-95257992D01*
X180659020Y-95551356D01*
X180316263Y-95782548D01*
X179935128Y-95942763D01*
X179530133Y-96025896D01*
X179116704Y-96028783D01*
X178710588Y-95951312D01*
X178327253Y-95796435D01*
X177981302Y-95570050D01*
X177685911Y-95280782D01*
X177452331Y-94939647D01*
X177289460Y-94559641D01*
X177203501Y-94155236D01*
X177197729Y-93741837D01*
X159352623Y-93741837D01*
X159309160Y-93807794D01*
X159153539Y-93940428D01*
X159254240Y-94058581D01*
X159372296Y-94320480D01*
X159412715Y-94604900D01*
X159412715Y-95874900D01*
X159399813Y-96036694D01*
X159314830Y-96311114D01*
X159207636Y-96473787D01*
X159296494Y-96532340D01*
X159482840Y-96750981D01*
X159600896Y-97012880D01*
X159641315Y-97297300D01*
X159641315Y-98567300D01*
X159628413Y-98729094D01*
X159543430Y-99003514D01*
X159385360Y-99243394D01*
X159290763Y-99324018D01*
X159457440Y-99519581D01*
X159575496Y-99781480D01*
X159615915Y-100065900D01*
X159615915Y-101335900D01*
X159603013Y-101497694D01*
X159527097Y-101742837D01*
X169196729Y-101742837D01*
X169271362Y-101336190D01*
X169423559Y-100951783D01*
X169647523Y-100604260D01*
X169934722Y-100306856D01*
X170274218Y-100070901D01*
X170653078Y-99905381D01*
X171056873Y-99816601D01*
X171470222Y-99807942D01*
X171877380Y-99879735D01*
X172262839Y-100029245D01*
X172611918Y-100250777D01*
X172911319Y-100535893D01*
X173149639Y-100873733D01*
X173317800Y-101251429D01*
X173409397Y-101654594D01*
X173410629Y-101742837D01*
X185198729Y-101742837D01*
X185273362Y-101336190D01*
X185425559Y-100951783D01*
X185649523Y-100604260D01*
X185936722Y-100306856D01*
X186276218Y-100070901D01*
X186655078Y-99905381D01*
X187058873Y-99816601D01*
X187472222Y-99807942D01*
X187879380Y-99879735D01*
X188264839Y-100029245D01*
X188613918Y-100250777D01*
X188913319Y-100535893D01*
X189151639Y-100873733D01*
X189319800Y-101251429D01*
X189411397Y-101654594D01*
X189417991Y-102126820D01*
X189337687Y-102532385D01*
X189180137Y-102914629D01*
X188951343Y-103258992D01*
X188660020Y-103552356D01*
X188317263Y-103783548D01*
X187936128Y-103943763D01*
X187531133Y-104026896D01*
X187117704Y-104029783D01*
X186711588Y-103952312D01*
X186328253Y-103797435D01*
X185982302Y-103571050D01*
X185686911Y-103281782D01*
X185453331Y-102940647D01*
X185290460Y-102560641D01*
X185204501Y-102156236D01*
X185198729Y-101742837D01*
X173410629Y-101742837D01*
X173415991Y-102126820D01*
X173335687Y-102532385D01*
X173178137Y-102914629D01*
X172949343Y-103258992D01*
X172658020Y-103552356D01*
X172315263Y-103783548D01*
X171934128Y-103943763D01*
X171529133Y-104026896D01*
X171115704Y-104029783D01*
X170709588Y-103952312D01*
X170326253Y-103797435D01*
X169980302Y-103571050D01*
X169684911Y-103281782D01*
X169451331Y-102940647D01*
X169288460Y-102560641D01*
X169202501Y-102156236D01*
X169196729Y-101742837D01*
X159527097Y-101742837D01*
X159518030Y-101772114D01*
X159359960Y-102011994D01*
X159300809Y-102062408D01*
X159406640Y-102186581D01*
X159524696Y-102448480D01*
X159565115Y-102732900D01*
X159565115Y-104002900D01*
X159552213Y-104164694D01*
X159467230Y-104439114D01*
X159309160Y-104678994D01*
X159296320Y-104689938D01*
X159457440Y-104878981D01*
X159575496Y-105140880D01*
X159615915Y-105425300D01*
X159615915Y-106695300D01*
X159603013Y-106857094D01*
X159518030Y-107131514D01*
X159359960Y-107371394D01*
X159334081Y-107393451D01*
X159355840Y-107418981D01*
X159473896Y-107680880D01*
X159514315Y-107965300D01*
X159514315Y-109235300D01*
X159501413Y-109397094D01*
X159416430Y-109671514D01*
X159269209Y-109894930D01*
X159432040Y-110085981D01*
X159550096Y-110347880D01*
X159590515Y-110632300D01*
X159590515Y-111902300D01*
X159577613Y-112064094D01*
X159492630Y-112338514D01*
X159334560Y-112578394D01*
X159285775Y-112619973D01*
X159355840Y-112702181D01*
X159473896Y-112964080D01*
X159514315Y-113248500D01*
X159514315Y-114518500D01*
X159501413Y-114680294D01*
X159416430Y-114954714D01*
X159258360Y-115194594D01*
X159197951Y-115246080D01*
X159245694Y-115277540D01*
X159432040Y-115496181D01*
X159550096Y-115758080D01*
X159590515Y-116042500D01*
X159590515Y-117312500D01*
X159577613Y-117474294D01*
X159492630Y-117748714D01*
X159334560Y-117988594D01*
X159115919Y-118174940D01*
X158854020Y-118292996D01*
X158569600Y-118333415D01*
X154022100Y-118333415D01*
X154022100Y-120227100D01*
X154020479Y-120243633D01*
X154021597Y-120260200D01*
X154010105Y-120349434D01*
X154001322Y-120439010D01*
X153996521Y-120454911D01*
X153994400Y-120471382D01*
X153965792Y-120556692D01*
X153939780Y-120642848D01*
X153931982Y-120657514D01*
X153926702Y-120673259D01*
X153882067Y-120751390D01*
X153839817Y-120830850D01*
X153829319Y-120843722D01*
X153821081Y-120858142D01*
X153762122Y-120926114D01*
X153705242Y-120995856D01*
X153692444Y-121006443D01*
X153681562Y-121018989D01*
X153610515Y-121074221D01*
X153541179Y-121131580D01*
X153526570Y-121139479D01*
X153513457Y-121149673D01*
X153433041Y-121190050D01*
X153353880Y-121232853D01*
X153338013Y-121237765D01*
X153323171Y-121245217D01*
X153236449Y-121269204D01*
X153150476Y-121295817D01*
X153133955Y-121297553D01*
X153117951Y-121301980D01*
X153028206Y-121308668D01*
X152938717Y-121318073D01*
X152922183Y-121316568D01*
X152905614Y-121317803D01*
X152890387Y-121317340D01*
X152531380Y-121303934D01*
X152522438Y-122108185D01*
X155902600Y-122108185D01*
X156064394Y-122121087D01*
X156338814Y-122206070D01*
X156578694Y-122364140D01*
X156765040Y-122582781D01*
X156883096Y-122844680D01*
X156923515Y-123129100D01*
X156923515Y-124399100D01*
X175584208Y-124399100D01*
X176174534Y-123808774D01*
X176174534Y-123808774D01*
G37*
X176174534Y-123808774D02*
X176149323Y-123584018D01*
X176149100Y-123552100D01*
X176149100Y-113603100D01*
X176192637Y-113159080D01*
X176321588Y-112731973D01*
X176531042Y-112338047D01*
X176813021Y-111992306D01*
X177156785Y-111707920D01*
X177549239Y-111495721D01*
X177798641Y-111418518D01*
X177634911Y-111258182D01*
X177401331Y-110917047D01*
X177238460Y-110537041D01*
X177152501Y-110132636D01*
X177146729Y-109719237D01*
X177221362Y-109312590D01*
X177373559Y-108928183D01*
X177597523Y-108580660D01*
X177884722Y-108283256D01*
X178224218Y-108047301D01*
X178603078Y-107881781D01*
X179006873Y-107793001D01*
X179420222Y-107784342D01*
X179827380Y-107856135D01*
X180212839Y-108005645D01*
X180561918Y-108227177D01*
X180861319Y-108512293D01*
X181099639Y-108850133D01*
X181267800Y-109227829D01*
X181359397Y-109630994D01*
X181365991Y-110103220D01*
X181285687Y-110508785D01*
X181128137Y-110891029D01*
X180899343Y-111235392D01*
X180608020Y-111528756D01*
X180265263Y-111759948D01*
X179942340Y-111895693D01*
X180034530Y-111969815D01*
X180321309Y-112311585D01*
X180536243Y-112702549D01*
X180671145Y-113127814D01*
X180720877Y-113571182D01*
X180721100Y-113603100D01*
X180721100Y-122306100D01*
X200934045Y-122306100D01*
X200931885Y-122290900D01*
X200931885Y-121020900D01*
X200944787Y-120859106D01*
X201029770Y-120584686D01*
X201187840Y-120344806D01*
X201406481Y-120158460D01*
X201668380Y-120040404D01*
X201952800Y-119999985D01*
X204223689Y-119999985D01*
X204219464Y-119963292D01*
X204206743Y-119893174D01*
X204207310Y-119857759D01*
X204203256Y-119822560D01*
X204203105Y-119807327D01*
X204198895Y-118384215D01*
X199971600Y-118384215D01*
X199809806Y-118371313D01*
X199535386Y-118286330D01*
X199295506Y-118128260D01*
X199109160Y-117909619D01*
X198991104Y-117647720D01*
X198950685Y-117363300D01*
X198950685Y-116093300D01*
X198963587Y-115931506D01*
X199048570Y-115657086D01*
X199187988Y-115445512D01*
X199058360Y-115293419D01*
X198940304Y-115031520D01*
X198899885Y-114747100D01*
X198899885Y-113477100D01*
X198912787Y-113315306D01*
X198997770Y-113040886D01*
X199155840Y-112801006D01*
X199265149Y-112707842D01*
X199109160Y-112524819D01*
X198991104Y-112262920D01*
X198950685Y-111978500D01*
X198950685Y-110708500D01*
X198963587Y-110546706D01*
X199048570Y-110272286D01*
X199206640Y-110032406D01*
X199233434Y-110009570D01*
X199219306Y-110000260D01*
X199032960Y-109781619D01*
X198914904Y-109519720D01*
X198874485Y-109235300D01*
X198874485Y-107965300D01*
X198887387Y-107803506D01*
X198972370Y-107529086D01*
X199126135Y-107295740D01*
X199058360Y-107216219D01*
X198940304Y-106954320D01*
X198899885Y-106669900D01*
X198899885Y-105399900D01*
X198912787Y-105238106D01*
X198997770Y-104963686D01*
X199155840Y-104723806D01*
X199238399Y-104653442D01*
X199219306Y-104640860D01*
X199032960Y-104422219D01*
X198914904Y-104160320D01*
X198874485Y-103875900D01*
X198874485Y-102605900D01*
X198887387Y-102444106D01*
X198972370Y-102169686D01*
X199089637Y-101991727D01*
X198931360Y-101806019D01*
X198813304Y-101544120D01*
X198772885Y-101259700D01*
X198772885Y-99989700D01*
X198785787Y-99827906D01*
X198870770Y-99553486D01*
X199028840Y-99313606D01*
X199104877Y-99248800D01*
X199032960Y-99164419D01*
X198914904Y-98902520D01*
X198874485Y-98618100D01*
X198874485Y-97348100D01*
X198887387Y-97186306D01*
X198972370Y-96911886D01*
X199130440Y-96672006D01*
X199279541Y-96544928D01*
X199109160Y-96345019D01*
X198991104Y-96083120D01*
X198950685Y-95798700D01*
X198950685Y-94528700D01*
X198963587Y-94366906D01*
X199048570Y-94092486D01*
X199206640Y-93852606D01*
X199286524Y-93784521D01*
X199109160Y-93576419D01*
X198991104Y-93314520D01*
X198950685Y-93030100D01*
X198950685Y-91760100D01*
X198963587Y-91598306D01*
X199048570Y-91323886D01*
X199206640Y-91084006D01*
X199265791Y-91033592D01*
X199159960Y-90909419D01*
X199041904Y-90647520D01*
X199001485Y-90363100D01*
X199001485Y-89093100D01*
X199014387Y-88931306D01*
X199099370Y-88656886D01*
X199205562Y-88495734D01*
X199032960Y-88293219D01*
X198914904Y-88031320D01*
X198874485Y-87746900D01*
X198874485Y-86476900D01*
X198883664Y-86361797D01*
X198829670Y-86318385D01*
X198542891Y-85976615D01*
X198327957Y-85585651D01*
X198193055Y-85160386D01*
X198143323Y-84717018D01*
X198143100Y-84685100D01*
X198143100Y-82541100D01*
X198163704Y-82330966D01*
X198182110Y-82120588D01*
X198185464Y-82109044D01*
X198186637Y-82097080D01*
X198247675Y-81894913D01*
X198306582Y-81692153D01*
X198312113Y-81681482D01*
X198315588Y-81669973D01*
X198414725Y-81483522D01*
X198511899Y-81296055D01*
X198519399Y-81286660D01*
X198525042Y-81276047D01*
X198658507Y-81112402D01*
X198790242Y-80947381D01*
X198806737Y-80930654D01*
X198807021Y-80930306D01*
X198807343Y-80930039D01*
X198812654Y-80924654D01*
X199220254Y-80517054D01*
X199383415Y-80383032D01*
X199545185Y-80247291D01*
X199555720Y-80241500D01*
X199565008Y-80233870D01*
X199751097Y-80134090D01*
X199936149Y-80032357D01*
X199947608Y-80028722D01*
X199958201Y-80023042D01*
X200160157Y-79961298D01*
X200361414Y-79897455D01*
X200373357Y-79896115D01*
X200384855Y-79892600D01*
X200594966Y-79871258D01*
X200804782Y-79847723D01*
X200828279Y-79847559D01*
X200828720Y-79847514D01*
X200829131Y-79847553D01*
X200836700Y-79847500D01*
X205165900Y-79847500D01*
X205609920Y-79891037D01*
X205647701Y-79902444D01*
X205696327Y-75275100D01*
X152376222Y-75275100D01*
X152328657Y-79563185D01*
X155928000Y-79563185D01*
X156089794Y-79576087D01*
X156364214Y-79661070D01*
X156604094Y-79819140D01*
X156671561Y-79898300D01*
X164712131Y-79898300D01*
X164824370Y-79849264D01*
X165115350Y-79785288D01*
X165413216Y-79779048D01*
X165706620Y-79830783D01*
X165984388Y-79938522D01*
X166235939Y-80098161D01*
X166451692Y-80303620D01*
X166623428Y-80547073D01*
X166744608Y-80819246D01*
X166810614Y-81109772D01*
X166815365Y-81450065D01*
X166757497Y-81742322D01*
X166643965Y-82017772D01*
X166479092Y-82265925D01*
X166269160Y-82477328D01*
X166022165Y-82643928D01*
X165747513Y-82759381D01*
X165455668Y-82819288D01*
X165157745Y-82821368D01*
X164865091Y-82765542D01*
X164588855Y-82653935D01*
X164414591Y-82539900D01*
X156681572Y-82539900D01*
X156474319Y-82716540D01*
X156212420Y-82834596D01*
X155928000Y-82875015D01*
X153327812Y-82875015D01*
X153339796Y-82878542D01*
X153415263Y-82917996D01*
X153492214Y-82954455D01*
X153509462Y-82967242D01*
X153528491Y-82977190D01*
X153594856Y-83030549D01*
X153663263Y-83081262D01*
X153677699Y-83097155D01*
X153694433Y-83110610D01*
X153749176Y-83175850D01*
X153806423Y-83238878D01*
X153817496Y-83257271D01*
X153831299Y-83273721D01*
X153872327Y-83348350D01*
X153916242Y-83421297D01*
X153923532Y-83441491D01*
X153933877Y-83460309D01*
X153959627Y-83541483D01*
X153988538Y-83621574D01*
X153991767Y-83642801D01*
X153998259Y-83663268D01*
X154007753Y-83747911D01*
X154020555Y-83832079D01*
X154019600Y-83853521D01*
X154021994Y-83874867D01*
X154022100Y-83890100D01*
X154022100Y-84922585D01*
X158595000Y-84922585D01*
X158756794Y-84935487D01*
X159031214Y-85020470D01*
X159271094Y-85178540D01*
X159457440Y-85397181D01*
X159575496Y-85659080D01*
X159615915Y-85943500D01*
X159615915Y-87213500D01*
X159603013Y-87375294D01*
X159518030Y-87649714D01*
X159359960Y-87889594D01*
X159141319Y-88075940D01*
X158995756Y-88141555D01*
X159005814Y-88144670D01*
X159245694Y-88302740D01*
X159432040Y-88521381D01*
X159550096Y-88783280D01*
X159590515Y-89067700D01*
X159590515Y-90337700D01*
X159577613Y-90499494D01*
X159492630Y-90773914D01*
X159334560Y-91013794D01*
X159227424Y-91105105D01*
X159406640Y-91315381D01*
X159524696Y-91577280D01*
X159565115Y-91861700D01*
X159565115Y-93131700D01*
X159552213Y-93293494D01*
X159467230Y-93567914D01*
X159352623Y-93741837D01*
X177197729Y-93741837D01*
X177272362Y-93335190D01*
X177424559Y-92950783D01*
X177648523Y-92603260D01*
X177935722Y-92305856D01*
X178275218Y-92069901D01*
X178654078Y-91904381D01*
X179057873Y-91815601D01*
X179471222Y-91806942D01*
X179878380Y-91878735D01*
X180263839Y-92028245D01*
X180612918Y-92249777D01*
X180912319Y-92534893D01*
X181150639Y-92872733D01*
X181318800Y-93250429D01*
X181410397Y-93653594D01*
X181416991Y-94125820D01*
X181336687Y-94531385D01*
X181179137Y-94913629D01*
X180950343Y-95257992D01*
X180659020Y-95551356D01*
X180316263Y-95782548D01*
X179935128Y-95942763D01*
X179530133Y-96025896D01*
X179116704Y-96028783D01*
X178710588Y-95951312D01*
X178327253Y-95796435D01*
X177981302Y-95570050D01*
X177685911Y-95280782D01*
X177452331Y-94939647D01*
X177289460Y-94559641D01*
X177203501Y-94155236D01*
X177197729Y-93741837D01*
X159352623Y-93741837D01*
X159309160Y-93807794D01*
X159153539Y-93940428D01*
X159254240Y-94058581D01*
X159372296Y-94320480D01*
X159412715Y-94604900D01*
X159412715Y-95874900D01*
X159399813Y-96036694D01*
X159314830Y-96311114D01*
X159207636Y-96473787D01*
X159296494Y-96532340D01*
X159482840Y-96750981D01*
X159600896Y-97012880D01*
X159641315Y-97297300D01*
X159641315Y-98567300D01*
X159628413Y-98729094D01*
X159543430Y-99003514D01*
X159385360Y-99243394D01*
X159290763Y-99324018D01*
X159457440Y-99519581D01*
X159575496Y-99781480D01*
X159615915Y-100065900D01*
X159615915Y-101335900D01*
X159603013Y-101497694D01*
X159527097Y-101742837D01*
X169196729Y-101742837D01*
X169271362Y-101336190D01*
X169423559Y-100951783D01*
X169647523Y-100604260D01*
X169934722Y-100306856D01*
X170274218Y-100070901D01*
X170653078Y-99905381D01*
X171056873Y-99816601D01*
X171470222Y-99807942D01*
X171877380Y-99879735D01*
X172262839Y-100029245D01*
X172611918Y-100250777D01*
X172911319Y-100535893D01*
X173149639Y-100873733D01*
X173317800Y-101251429D01*
X173409397Y-101654594D01*
X173410629Y-101742837D01*
X185198729Y-101742837D01*
X185273362Y-101336190D01*
X185425559Y-100951783D01*
X185649523Y-100604260D01*
X185936722Y-100306856D01*
X186276218Y-100070901D01*
X186655078Y-99905381D01*
X187058873Y-99816601D01*
X187472222Y-99807942D01*
X187879380Y-99879735D01*
X188264839Y-100029245D01*
X188613918Y-100250777D01*
X188913319Y-100535893D01*
X189151639Y-100873733D01*
X189319800Y-101251429D01*
X189411397Y-101654594D01*
X189417991Y-102126820D01*
X189337687Y-102532385D01*
X189180137Y-102914629D01*
X188951343Y-103258992D01*
X188660020Y-103552356D01*
X188317263Y-103783548D01*
X187936128Y-103943763D01*
X187531133Y-104026896D01*
X187117704Y-104029783D01*
X186711588Y-103952312D01*
X186328253Y-103797435D01*
X185982302Y-103571050D01*
X185686911Y-103281782D01*
X185453331Y-102940647D01*
X185290460Y-102560641D01*
X185204501Y-102156236D01*
X185198729Y-101742837D01*
X173410629Y-101742837D01*
X173415991Y-102126820D01*
X173335687Y-102532385D01*
X173178137Y-102914629D01*
X172949343Y-103258992D01*
X172658020Y-103552356D01*
X172315263Y-103783548D01*
X171934128Y-103943763D01*
X171529133Y-104026896D01*
X171115704Y-104029783D01*
X170709588Y-103952312D01*
X170326253Y-103797435D01*
X169980302Y-103571050D01*
X169684911Y-103281782D01*
X169451331Y-102940647D01*
X169288460Y-102560641D01*
X169202501Y-102156236D01*
X169196729Y-101742837D01*
X159527097Y-101742837D01*
X159518030Y-101772114D01*
X159359960Y-102011994D01*
X159300809Y-102062408D01*
X159406640Y-102186581D01*
X159524696Y-102448480D01*
X159565115Y-102732900D01*
X159565115Y-104002900D01*
X159552213Y-104164694D01*
X159467230Y-104439114D01*
X159309160Y-104678994D01*
X159296320Y-104689938D01*
X159457440Y-104878981D01*
X159575496Y-105140880D01*
X159615915Y-105425300D01*
X159615915Y-106695300D01*
X159603013Y-106857094D01*
X159518030Y-107131514D01*
X159359960Y-107371394D01*
X159334081Y-107393451D01*
X159355840Y-107418981D01*
X159473896Y-107680880D01*
X159514315Y-107965300D01*
X159514315Y-109235300D01*
X159501413Y-109397094D01*
X159416430Y-109671514D01*
X159269209Y-109894930D01*
X159432040Y-110085981D01*
X159550096Y-110347880D01*
X159590515Y-110632300D01*
X159590515Y-111902300D01*
X159577613Y-112064094D01*
X159492630Y-112338514D01*
X159334560Y-112578394D01*
X159285775Y-112619973D01*
X159355840Y-112702181D01*
X159473896Y-112964080D01*
X159514315Y-113248500D01*
X159514315Y-114518500D01*
X159501413Y-114680294D01*
X159416430Y-114954714D01*
X159258360Y-115194594D01*
X159197951Y-115246080D01*
X159245694Y-115277540D01*
X159432040Y-115496181D01*
X159550096Y-115758080D01*
X159590515Y-116042500D01*
X159590515Y-117312500D01*
X159577613Y-117474294D01*
X159492630Y-117748714D01*
X159334560Y-117988594D01*
X159115919Y-118174940D01*
X158854020Y-118292996D01*
X158569600Y-118333415D01*
X154022100Y-118333415D01*
X154022100Y-120227100D01*
X154020479Y-120243633D01*
X154021597Y-120260200D01*
X154010105Y-120349434D01*
X154001322Y-120439010D01*
X153996521Y-120454911D01*
X153994400Y-120471382D01*
X153965792Y-120556692D01*
X153939780Y-120642848D01*
X153931982Y-120657514D01*
X153926702Y-120673259D01*
X153882067Y-120751390D01*
X153839817Y-120830850D01*
X153829319Y-120843722D01*
X153821081Y-120858142D01*
X153762122Y-120926114D01*
X153705242Y-120995856D01*
X153692444Y-121006443D01*
X153681562Y-121018989D01*
X153610515Y-121074221D01*
X153541179Y-121131580D01*
X153526570Y-121139479D01*
X153513457Y-121149673D01*
X153433041Y-121190050D01*
X153353880Y-121232853D01*
X153338013Y-121237765D01*
X153323171Y-121245217D01*
X153236449Y-121269204D01*
X153150476Y-121295817D01*
X153133955Y-121297553D01*
X153117951Y-121301980D01*
X153028206Y-121308668D01*
X152938717Y-121318073D01*
X152922183Y-121316568D01*
X152905614Y-121317803D01*
X152890387Y-121317340D01*
X152531380Y-121303934D01*
X152522438Y-122108185D01*
X155902600Y-122108185D01*
X156064394Y-122121087D01*
X156338814Y-122206070D01*
X156578694Y-122364140D01*
X156765040Y-122582781D01*
X156883096Y-122844680D01*
X156923515Y-123129100D01*
X156923515Y-124399100D01*
X175584208Y-124399100D01*
X176174534Y-123808774D01*
M02*
