G04 #@! TF.FileFunction,Soldermask,Bot*
%FSLAX46Y46*%
G04 Gerber Fmt 4.6, Leading zero omitted, Abs format (unit mm)*
G04 Created by KiCad (PCBNEW 4.0.6) date 05/08/17 07:31:19*
%MOMM*%
%LPD*%
G01*
G04 APERTURE LIST*
%ADD10C,0.100000*%
%ADD11C,1.500000*%
%ADD12R,1.035000X1.670000*%
G04 APERTURE END LIST*
D10*
D11*
X203057700Y-116728300D03*
D12*
X203438700Y-116728300D03*
X204073700Y-116728300D03*
X202803700Y-116728300D03*
X202168700Y-116728300D03*
X201533700Y-116728300D03*
X204670600Y-116728300D03*
X205267500Y-116728300D03*
X200911400Y-116728300D03*
X200289100Y-116728300D03*
D11*
X205013500Y-124602300D03*
D12*
X205394500Y-124602300D03*
X206029500Y-124602300D03*
X204759500Y-124602300D03*
X204124500Y-124602300D03*
X203489500Y-124602300D03*
X206626400Y-124602300D03*
X207223300Y-124602300D03*
X202867200Y-124602300D03*
X202244900Y-124602300D03*
D11*
X156042300Y-116677500D03*
D12*
X156423300Y-116677500D03*
X157058300Y-116677500D03*
X155788300Y-116677500D03*
X155153300Y-116677500D03*
X154518300Y-116677500D03*
X157655200Y-116677500D03*
X158252100Y-116677500D03*
X153896000Y-116677500D03*
X153273700Y-116677500D03*
D11*
X153375300Y-126685100D03*
D12*
X153756300Y-126685100D03*
X154391300Y-126685100D03*
X153121300Y-126685100D03*
X152486300Y-126685100D03*
X151851300Y-126685100D03*
X154988200Y-126685100D03*
X155585100Y-126685100D03*
X151229000Y-126685100D03*
X150606700Y-126685100D03*
D11*
X202981500Y-103240900D03*
D12*
X203362500Y-103240900D03*
X203997500Y-103240900D03*
X202727500Y-103240900D03*
X202092500Y-103240900D03*
X201457500Y-103240900D03*
X204594400Y-103240900D03*
X205191300Y-103240900D03*
X200835200Y-103240900D03*
X200212900Y-103240900D03*
D11*
X202879900Y-100624700D03*
D12*
X203260900Y-100624700D03*
X203895900Y-100624700D03*
X202625900Y-100624700D03*
X201990900Y-100624700D03*
X201355900Y-100624700D03*
X204492800Y-100624700D03*
X205089700Y-100624700D03*
X200733600Y-100624700D03*
X200111300Y-100624700D03*
D11*
X156067700Y-100700900D03*
D12*
X156448700Y-100700900D03*
X157083700Y-100700900D03*
X155813700Y-100700900D03*
X155178700Y-100700900D03*
X154543700Y-100700900D03*
X157680600Y-100700900D03*
X158277500Y-100700900D03*
X153921400Y-100700900D03*
X153299100Y-100700900D03*
D11*
X202981500Y-97983100D03*
D12*
X203362500Y-97983100D03*
X203997500Y-97983100D03*
X202727500Y-97983100D03*
X202092500Y-97983100D03*
X201457500Y-97983100D03*
X204594400Y-97983100D03*
X205191300Y-97983100D03*
X200835200Y-97983100D03*
X200212900Y-97983100D03*
D11*
X156093100Y-97932300D03*
D12*
X156474100Y-97932300D03*
X157109100Y-97932300D03*
X155839100Y-97932300D03*
X155204100Y-97932300D03*
X154569100Y-97932300D03*
X157706000Y-97932300D03*
X158302900Y-97932300D03*
X153946800Y-97932300D03*
X153324500Y-97932300D03*
D11*
X203006900Y-114112100D03*
D12*
X203387900Y-114112100D03*
X204022900Y-114112100D03*
X202752900Y-114112100D03*
X202117900Y-114112100D03*
X201482900Y-114112100D03*
X204619800Y-114112100D03*
X205216700Y-114112100D03*
X200860600Y-114112100D03*
X200238300Y-114112100D03*
D11*
X203057700Y-92395100D03*
D12*
X203438700Y-92395100D03*
X204073700Y-92395100D03*
X202803700Y-92395100D03*
X202168700Y-92395100D03*
X201533700Y-92395100D03*
X204670600Y-92395100D03*
X205267500Y-92395100D03*
X200911400Y-92395100D03*
X200289100Y-92395100D03*
D11*
X156016900Y-92496700D03*
D12*
X156397900Y-92496700D03*
X157032900Y-92496700D03*
X155762900Y-92496700D03*
X155127900Y-92496700D03*
X154492900Y-92496700D03*
X157629800Y-92496700D03*
X158226700Y-92496700D03*
X153870600Y-92496700D03*
X153248300Y-92496700D03*
D11*
X202981500Y-108600300D03*
D12*
X203362500Y-108600300D03*
X203997500Y-108600300D03*
X202727500Y-108600300D03*
X202092500Y-108600300D03*
X201457500Y-108600300D03*
X204594400Y-108600300D03*
X205191300Y-108600300D03*
X200835200Y-108600300D03*
X200212900Y-108600300D03*
D11*
X155966100Y-108600300D03*
D12*
X156347100Y-108600300D03*
X156982100Y-108600300D03*
X155712100Y-108600300D03*
X155077100Y-108600300D03*
X154442100Y-108600300D03*
X157579000Y-108600300D03*
X158175900Y-108600300D03*
X153819800Y-108600300D03*
X153197500Y-108600300D03*
D11*
X205038900Y-121655900D03*
D12*
X205419900Y-121655900D03*
X206054900Y-121655900D03*
X204784900Y-121655900D03*
X204149900Y-121655900D03*
X203514900Y-121655900D03*
X206651800Y-121655900D03*
X207248700Y-121655900D03*
X202892600Y-121655900D03*
X202270300Y-121655900D03*
D11*
X205165900Y-82133500D03*
D12*
X205546900Y-82133500D03*
X206181900Y-82133500D03*
X204911900Y-82133500D03*
X204276900Y-82133500D03*
X203641900Y-82133500D03*
X206778800Y-82133500D03*
X207375700Y-82133500D03*
X203019600Y-82133500D03*
X202397300Y-82133500D03*
D11*
X153375300Y-123764100D03*
D12*
X153756300Y-123764100D03*
X154391300Y-123764100D03*
X153121300Y-123764100D03*
X152486300Y-123764100D03*
X151851300Y-123764100D03*
X154988200Y-123764100D03*
X155585100Y-123764100D03*
X151229000Y-123764100D03*
X150606700Y-123764100D03*
D11*
X153400700Y-81219100D03*
D12*
X153781700Y-81219100D03*
X154416700Y-81219100D03*
X153146700Y-81219100D03*
X152511700Y-81219100D03*
X151876700Y-81219100D03*
X155013600Y-81219100D03*
X155610500Y-81219100D03*
X151254400Y-81219100D03*
X150632100Y-81219100D03*
D11*
X155966100Y-113883500D03*
D12*
X156347100Y-113883500D03*
X156982100Y-113883500D03*
X155712100Y-113883500D03*
X155077100Y-113883500D03*
X154442100Y-113883500D03*
X157579000Y-113883500D03*
X158175900Y-113883500D03*
X153819800Y-113883500D03*
X153197500Y-113883500D03*
D11*
X156042300Y-111267300D03*
D12*
X156423300Y-111267300D03*
X157058300Y-111267300D03*
X155788300Y-111267300D03*
X155153300Y-111267300D03*
X154518300Y-111267300D03*
X157655200Y-111267300D03*
X158252100Y-111267300D03*
X153896000Y-111267300D03*
X153273700Y-111267300D03*
D11*
X156016900Y-103367900D03*
D12*
X156397900Y-103367900D03*
X157032900Y-103367900D03*
X155762900Y-103367900D03*
X155127900Y-103367900D03*
X154492900Y-103367900D03*
X157629800Y-103367900D03*
X158226700Y-103367900D03*
X153870600Y-103367900D03*
X153248300Y-103367900D03*
D11*
X155864500Y-95239900D03*
D12*
X156245500Y-95239900D03*
X156880500Y-95239900D03*
X155610500Y-95239900D03*
X154975500Y-95239900D03*
X154340500Y-95239900D03*
X157477400Y-95239900D03*
X158074300Y-95239900D03*
X153718200Y-95239900D03*
X153095900Y-95239900D03*
D11*
X156067700Y-86578500D03*
D12*
X156448700Y-86578500D03*
X157083700Y-86578500D03*
X155813700Y-86578500D03*
X155178700Y-86578500D03*
X154543700Y-86578500D03*
X157680600Y-86578500D03*
X158277500Y-86578500D03*
X153921400Y-86578500D03*
X153299100Y-86578500D03*
D11*
X205038900Y-127370900D03*
D12*
X205419900Y-127370900D03*
X206054900Y-127370900D03*
X204784900Y-127370900D03*
X204149900Y-127370900D03*
X203514900Y-127370900D03*
X206651800Y-127370900D03*
X207248700Y-127370900D03*
X202892600Y-127370900D03*
X202270300Y-127370900D03*
D11*
X202981500Y-87111900D03*
D12*
X203362500Y-87111900D03*
X203997500Y-87111900D03*
X202727500Y-87111900D03*
X202092500Y-87111900D03*
X201457500Y-87111900D03*
X204594400Y-87111900D03*
X205191300Y-87111900D03*
X200835200Y-87111900D03*
X200212900Y-87111900D03*
D11*
X203057700Y-95163700D03*
D12*
X203438700Y-95163700D03*
X204073700Y-95163700D03*
X202803700Y-95163700D03*
X202168700Y-95163700D03*
X201533700Y-95163700D03*
X204670600Y-95163700D03*
X205267500Y-95163700D03*
X200911400Y-95163700D03*
X200289100Y-95163700D03*
D11*
X203057700Y-111343500D03*
D12*
X203438700Y-111343500D03*
X204073700Y-111343500D03*
X202803700Y-111343500D03*
X202168700Y-111343500D03*
X201533700Y-111343500D03*
X204670600Y-111343500D03*
X205267500Y-111343500D03*
X200911400Y-111343500D03*
X200289100Y-111343500D03*
D11*
X203108500Y-89728100D03*
D12*
X203489500Y-89728100D03*
X204124500Y-89728100D03*
X202854500Y-89728100D03*
X202219500Y-89728100D03*
X201584500Y-89728100D03*
X204721400Y-89728100D03*
X205318300Y-89728100D03*
X200962200Y-89728100D03*
X200339900Y-89728100D03*
D11*
X156042300Y-89702700D03*
D12*
X156423300Y-89702700D03*
X157058300Y-89702700D03*
X155788300Y-89702700D03*
X155153300Y-89702700D03*
X154518300Y-89702700D03*
X157655200Y-89702700D03*
X158252100Y-89702700D03*
X153896000Y-89702700D03*
X153273700Y-89702700D03*
D11*
X203006900Y-106034900D03*
D12*
X203387900Y-106034900D03*
X204022900Y-106034900D03*
X202752900Y-106034900D03*
X202117900Y-106034900D03*
X201482900Y-106034900D03*
X204619800Y-106034900D03*
X205216700Y-106034900D03*
X200860600Y-106034900D03*
X200238300Y-106034900D03*
D11*
X156067700Y-106060300D03*
D12*
X156448700Y-106060300D03*
X157083700Y-106060300D03*
X155813700Y-106060300D03*
X155178700Y-106060300D03*
X154543700Y-106060300D03*
X157680600Y-106060300D03*
X158277500Y-106060300D03*
X153921400Y-106060300D03*
X153299100Y-106060300D03*
M02*
