G04 #@! TF.FileFunction,Legend,Top*
%FSLAX46Y46*%
G04 Gerber Fmt 4.6, Leading zero omitted, Abs format (unit mm)*
G04 Created by KiCad (PCBNEW 4.0.6) date 05/07/17 20:58:39*
%MOMM*%
%LPD*%
G01*
G04 APERTURE LIST*
%ADD10C,0.100000*%
%ADD11C,0.113792*%
%ADD12C,0.127000*%
G04 APERTURE END LIST*
D10*
D11*
X188867567Y-74071540D02*
X188417140Y-74071540D01*
X188224100Y-74779353D02*
X188867567Y-74779353D01*
X188867567Y-73428073D01*
X188224100Y-73428073D01*
X187644980Y-74779353D02*
X187644980Y-73428073D01*
X187194553Y-74393273D01*
X186744126Y-73428073D01*
X186744126Y-74779353D01*
X186100660Y-74071540D02*
X185650233Y-74071540D01*
X185457193Y-74779353D02*
X186100660Y-74779353D01*
X186100660Y-73428073D01*
X185457193Y-73428073D01*
X184105913Y-74779353D02*
X184556339Y-74135887D01*
X184878073Y-74779353D02*
X184878073Y-73428073D01*
X184363299Y-73428073D01*
X184234606Y-73492420D01*
X184170259Y-73556767D01*
X184105913Y-73685460D01*
X184105913Y-73878500D01*
X184170259Y-74007193D01*
X184234606Y-74071540D01*
X184363299Y-74135887D01*
X184878073Y-74135887D01*
X182818979Y-73492420D02*
X182947673Y-73428073D01*
X183140713Y-73428073D01*
X183333753Y-73492420D01*
X183462446Y-73621113D01*
X183526793Y-73749807D01*
X183591139Y-74007193D01*
X183591139Y-74200233D01*
X183526793Y-74457620D01*
X183462446Y-74586313D01*
X183333753Y-74715007D01*
X183140713Y-74779353D01*
X183012019Y-74779353D01*
X182818979Y-74715007D01*
X182754633Y-74650660D01*
X182754633Y-74200233D01*
X183012019Y-74200233D01*
X182175513Y-74071540D02*
X181725086Y-74071540D01*
X181532046Y-74779353D02*
X182175513Y-74779353D01*
X182175513Y-73428073D01*
X181532046Y-73428073D01*
X179472952Y-74071540D02*
X179923379Y-74071540D01*
X179923379Y-74779353D02*
X179923379Y-73428073D01*
X179279912Y-73428073D01*
X178829485Y-74393273D02*
X178186019Y-74393273D01*
X178958179Y-74779353D02*
X178507752Y-73428073D01*
X178057325Y-74779353D01*
X176834739Y-74650660D02*
X176899085Y-74715007D01*
X177092125Y-74779353D01*
X177220819Y-74779353D01*
X177413859Y-74715007D01*
X177542552Y-74586313D01*
X177606899Y-74457620D01*
X177671245Y-74200233D01*
X177671245Y-74007193D01*
X177606899Y-73749807D01*
X177542552Y-73621113D01*
X177413859Y-73492420D01*
X177220819Y-73428073D01*
X177092125Y-73428073D01*
X176899085Y-73492420D01*
X176834739Y-73556767D01*
X176255619Y-74071540D02*
X175805192Y-74071540D01*
X175612152Y-74779353D02*
X176255619Y-74779353D01*
X176255619Y-73428073D01*
X175612152Y-73428073D01*
X174067831Y-73556767D02*
X174003485Y-73492420D01*
X173874791Y-73428073D01*
X173553058Y-73428073D01*
X173424365Y-73492420D01*
X173360018Y-73556767D01*
X173295671Y-73685460D01*
X173295671Y-73814153D01*
X173360018Y-74007193D01*
X174132178Y-74779353D01*
X173295671Y-74779353D01*
D12*
X190230005Y-114241148D02*
X190632171Y-115447648D01*
X191034338Y-114241148D01*
X192125933Y-115332743D02*
X192068481Y-115390195D01*
X191896124Y-115447648D01*
X191781219Y-115447648D01*
X191608862Y-115390195D01*
X191493957Y-115275290D01*
X191436505Y-115160386D01*
X191379053Y-114930576D01*
X191379053Y-114758219D01*
X191436505Y-114528410D01*
X191493957Y-114413505D01*
X191608862Y-114298600D01*
X191781219Y-114241148D01*
X191896124Y-114241148D01*
X192068481Y-114298600D01*
X192125933Y-114356052D01*
X193332433Y-115332743D02*
X193274981Y-115390195D01*
X193102624Y-115447648D01*
X192987719Y-115447648D01*
X192815362Y-115390195D01*
X192700457Y-115275290D01*
X192643005Y-115160386D01*
X192585553Y-114930576D01*
X192585553Y-114758219D01*
X192643005Y-114528410D01*
X192700457Y-114413505D01*
X192815362Y-114298600D01*
X192987719Y-114241148D01*
X193102624Y-114241148D01*
X193274981Y-114298600D01*
X193332433Y-114356052D01*
X193562243Y-115562552D02*
X194481481Y-115562552D01*
X194711291Y-114356052D02*
X194768743Y-114298600D01*
X194883648Y-114241148D01*
X195170910Y-114241148D01*
X195285814Y-114298600D01*
X195343267Y-114356052D01*
X195400719Y-114470957D01*
X195400719Y-114585862D01*
X195343267Y-114758219D01*
X194653838Y-115447648D01*
X195400719Y-115447648D01*
X195630529Y-115562552D02*
X196549767Y-115562552D01*
X197526457Y-115332743D02*
X197469005Y-115390195D01*
X197296648Y-115447648D01*
X197181743Y-115447648D01*
X197009386Y-115390195D01*
X196894481Y-115275290D01*
X196837029Y-115160386D01*
X196779577Y-114930576D01*
X196779577Y-114758219D01*
X196837029Y-114528410D01*
X196894481Y-114413505D01*
X197009386Y-114298600D01*
X197181743Y-114241148D01*
X197296648Y-114241148D01*
X197469005Y-114298600D01*
X197526457Y-114356052D01*
X197986077Y-114356052D02*
X198043529Y-114298600D01*
X198158434Y-114241148D01*
X198445696Y-114241148D01*
X198560600Y-114298600D01*
X198618053Y-114356052D01*
X198675505Y-114470957D01*
X198675505Y-114585862D01*
X198618053Y-114758219D01*
X197928624Y-115447648D01*
X198675505Y-115447648D01*
X166221005Y-90206148D02*
X166623171Y-91412648D01*
X167025338Y-90206148D01*
X168116933Y-91297743D02*
X168059481Y-91355195D01*
X167887124Y-91412648D01*
X167772219Y-91412648D01*
X167599862Y-91355195D01*
X167484957Y-91240290D01*
X167427505Y-91125386D01*
X167370053Y-90895576D01*
X167370053Y-90723219D01*
X167427505Y-90493410D01*
X167484957Y-90378505D01*
X167599862Y-90263600D01*
X167772219Y-90206148D01*
X167887124Y-90206148D01*
X168059481Y-90263600D01*
X168116933Y-90321052D01*
X169323433Y-91297743D02*
X169265981Y-91355195D01*
X169093624Y-91412648D01*
X168978719Y-91412648D01*
X168806362Y-91355195D01*
X168691457Y-91240290D01*
X168634005Y-91125386D01*
X168576553Y-90895576D01*
X168576553Y-90723219D01*
X168634005Y-90493410D01*
X168691457Y-90378505D01*
X168806362Y-90263600D01*
X168978719Y-90206148D01*
X169093624Y-90206148D01*
X169265981Y-90263600D01*
X169323433Y-90321052D01*
X169553243Y-91527552D02*
X170472481Y-91527552D01*
X171391719Y-91412648D02*
X170702291Y-91412648D01*
X171047005Y-91412648D02*
X171047005Y-90206148D01*
X170932100Y-90378505D01*
X170817195Y-90493410D01*
X170702291Y-90550862D01*
X171621529Y-91527552D02*
X172540767Y-91527552D01*
X173517457Y-91297743D02*
X173460005Y-91355195D01*
X173287648Y-91412648D01*
X173172743Y-91412648D01*
X173000386Y-91355195D01*
X172885481Y-91240290D01*
X172828029Y-91125386D01*
X172770577Y-90895576D01*
X172770577Y-90723219D01*
X172828029Y-90493410D01*
X172885481Y-90378505D01*
X173000386Y-90263600D01*
X173172743Y-90206148D01*
X173287648Y-90206148D01*
X173460005Y-90263600D01*
X173517457Y-90321052D01*
X173977077Y-90321052D02*
X174034529Y-90263600D01*
X174149434Y-90206148D01*
X174436696Y-90206148D01*
X174551600Y-90263600D01*
X174609053Y-90321052D01*
X174666505Y-90435957D01*
X174666505Y-90550862D01*
X174609053Y-90723219D01*
X173919624Y-91412648D01*
X174666505Y-91412648D01*
X171120338Y-94141600D02*
X171005433Y-94084148D01*
X170833076Y-94084148D01*
X170660719Y-94141600D01*
X170545814Y-94256505D01*
X170488362Y-94371410D01*
X170430910Y-94601219D01*
X170430910Y-94773576D01*
X170488362Y-95003386D01*
X170545814Y-95118290D01*
X170660719Y-95233195D01*
X170833076Y-95290648D01*
X170947981Y-95290648D01*
X171120338Y-95233195D01*
X171177790Y-95175743D01*
X171177790Y-94773576D01*
X170947981Y-94773576D01*
X171694862Y-95290648D02*
X171694862Y-94084148D01*
X172384290Y-95290648D01*
X172384290Y-94084148D01*
X172958814Y-95290648D02*
X172958814Y-94084148D01*
X173246076Y-94084148D01*
X173418433Y-94141600D01*
X173533338Y-94256505D01*
X173590790Y-94371410D01*
X173648242Y-94601219D01*
X173648242Y-94773576D01*
X173590790Y-95003386D01*
X173533338Y-95118290D01*
X173418433Y-95233195D01*
X173246076Y-95290648D01*
X172958814Y-95290648D01*
X173878052Y-95405552D02*
X174797290Y-95405552D01*
X175027100Y-94199052D02*
X175084552Y-94141600D01*
X175199457Y-94084148D01*
X175486719Y-94084148D01*
X175601623Y-94141600D01*
X175659076Y-94199052D01*
X175716528Y-94313957D01*
X175716528Y-94428862D01*
X175659076Y-94601219D01*
X174969647Y-95290648D01*
X175716528Y-95290648D01*
X175946338Y-95405552D02*
X176865576Y-95405552D01*
X177842266Y-95175743D02*
X177784814Y-95233195D01*
X177612457Y-95290648D01*
X177497552Y-95290648D01*
X177325195Y-95233195D01*
X177210290Y-95118290D01*
X177152838Y-95003386D01*
X177095386Y-94773576D01*
X177095386Y-94601219D01*
X177152838Y-94371410D01*
X177210290Y-94256505D01*
X177325195Y-94141600D01*
X177497552Y-94084148D01*
X177612457Y-94084148D01*
X177784814Y-94141600D01*
X177842266Y-94199052D01*
X178301886Y-94199052D02*
X178359338Y-94141600D01*
X178474243Y-94084148D01*
X178761505Y-94084148D01*
X178876409Y-94141600D01*
X178933862Y-94199052D01*
X178991314Y-94313957D01*
X178991314Y-94428862D01*
X178933862Y-94601219D01*
X178244433Y-95290648D01*
X178991314Y-95290648D01*
X187151338Y-110109600D02*
X187036433Y-110052148D01*
X186864076Y-110052148D01*
X186691719Y-110109600D01*
X186576814Y-110224505D01*
X186519362Y-110339410D01*
X186461910Y-110569219D01*
X186461910Y-110741576D01*
X186519362Y-110971386D01*
X186576814Y-111086290D01*
X186691719Y-111201195D01*
X186864076Y-111258648D01*
X186978981Y-111258648D01*
X187151338Y-111201195D01*
X187208790Y-111143743D01*
X187208790Y-110741576D01*
X186978981Y-110741576D01*
X187725862Y-111258648D02*
X187725862Y-110052148D01*
X188415290Y-111258648D01*
X188415290Y-110052148D01*
X188989814Y-111258648D02*
X188989814Y-110052148D01*
X189277076Y-110052148D01*
X189449433Y-110109600D01*
X189564338Y-110224505D01*
X189621790Y-110339410D01*
X189679242Y-110569219D01*
X189679242Y-110741576D01*
X189621790Y-110971386D01*
X189564338Y-111086290D01*
X189449433Y-111201195D01*
X189277076Y-111258648D01*
X188989814Y-111258648D01*
X189909052Y-111373552D02*
X190828290Y-111373552D01*
X191747528Y-111258648D02*
X191058100Y-111258648D01*
X191402814Y-111258648D02*
X191402814Y-110052148D01*
X191287909Y-110224505D01*
X191173004Y-110339410D01*
X191058100Y-110396862D01*
X191977338Y-111373552D02*
X192896576Y-111373552D01*
X193873266Y-111143743D02*
X193815814Y-111201195D01*
X193643457Y-111258648D01*
X193528552Y-111258648D01*
X193356195Y-111201195D01*
X193241290Y-111086290D01*
X193183838Y-110971386D01*
X193126386Y-110741576D01*
X193126386Y-110569219D01*
X193183838Y-110339410D01*
X193241290Y-110224505D01*
X193356195Y-110109600D01*
X193528552Y-110052148D01*
X193643457Y-110052148D01*
X193815814Y-110109600D01*
X193873266Y-110167052D01*
X194332886Y-110167052D02*
X194390338Y-110109600D01*
X194505243Y-110052148D01*
X194792505Y-110052148D01*
X194907409Y-110109600D01*
X194964862Y-110167052D01*
X195022314Y-110281957D01*
X195022314Y-110396862D01*
X194964862Y-110569219D01*
X194275433Y-111258648D01*
X195022314Y-111258648D01*
X195086790Y-119089743D02*
X195029338Y-119147195D01*
X194856981Y-119204648D01*
X194742076Y-119204648D01*
X194569719Y-119147195D01*
X194454814Y-119032290D01*
X194397362Y-118917386D01*
X194339910Y-118687576D01*
X194339910Y-118515219D01*
X194397362Y-118285410D01*
X194454814Y-118170505D01*
X194569719Y-118055600D01*
X194742076Y-117998148D01*
X194856981Y-117998148D01*
X195029338Y-118055600D01*
X195086790Y-118113052D01*
X195546410Y-118859933D02*
X196120933Y-118859933D01*
X195431505Y-119204648D02*
X195833671Y-117998148D01*
X196235838Y-119204648D01*
X196638005Y-119204648D02*
X196638005Y-117998148D01*
X197327433Y-119204648D01*
X197327433Y-117998148D01*
X197901957Y-119204648D02*
X197901957Y-117998148D01*
X197901957Y-118572671D02*
X198591385Y-118572671D01*
X198591385Y-119204648D02*
X198591385Y-117998148D01*
X198878647Y-119319552D02*
X199797885Y-119319552D01*
X200027695Y-118113052D02*
X200085147Y-118055600D01*
X200200052Y-117998148D01*
X200487314Y-117998148D01*
X200602218Y-118055600D01*
X200659671Y-118113052D01*
X200717123Y-118227957D01*
X200717123Y-118342862D01*
X200659671Y-118515219D01*
X199970242Y-119204648D01*
X200717123Y-119204648D01*
X200946933Y-119319552D02*
X201866171Y-119319552D01*
X202842861Y-119089743D02*
X202785409Y-119147195D01*
X202613052Y-119204648D01*
X202498147Y-119204648D01*
X202325790Y-119147195D01*
X202210885Y-119032290D01*
X202153433Y-118917386D01*
X202095981Y-118687576D01*
X202095981Y-118515219D01*
X202153433Y-118285410D01*
X202210885Y-118170505D01*
X202325790Y-118055600D01*
X202498147Y-117998148D01*
X202613052Y-117998148D01*
X202785409Y-118055600D01*
X202842861Y-118113052D01*
X203302481Y-118113052D02*
X203359933Y-118055600D01*
X203474838Y-117998148D01*
X203762100Y-117998148D01*
X203877004Y-118055600D01*
X203934457Y-118113052D01*
X203991909Y-118227957D01*
X203991909Y-118342862D01*
X203934457Y-118515219D01*
X203245028Y-119204648D01*
X203991909Y-119204648D01*
X163195790Y-87139743D02*
X163138338Y-87197195D01*
X162965981Y-87254648D01*
X162851076Y-87254648D01*
X162678719Y-87197195D01*
X162563814Y-87082290D01*
X162506362Y-86967386D01*
X162448910Y-86737576D01*
X162448910Y-86565219D01*
X162506362Y-86335410D01*
X162563814Y-86220505D01*
X162678719Y-86105600D01*
X162851076Y-86048148D01*
X162965981Y-86048148D01*
X163138338Y-86105600D01*
X163195790Y-86163052D01*
X163655410Y-86909933D02*
X164229933Y-86909933D01*
X163540505Y-87254648D02*
X163942671Y-86048148D01*
X164344838Y-87254648D01*
X164747005Y-87254648D02*
X164747005Y-86048148D01*
X165436433Y-87254648D01*
X165436433Y-86048148D01*
X166010957Y-87254648D02*
X166010957Y-86048148D01*
X166010957Y-86622671D02*
X166700385Y-86622671D01*
X166700385Y-87254648D02*
X166700385Y-86048148D01*
X166987647Y-87369552D02*
X167906885Y-87369552D01*
X168826123Y-87254648D02*
X168136695Y-87254648D01*
X168481409Y-87254648D02*
X168481409Y-86048148D01*
X168366504Y-86220505D01*
X168251599Y-86335410D01*
X168136695Y-86392862D01*
X169055933Y-87369552D02*
X169975171Y-87369552D01*
X170951861Y-87139743D02*
X170894409Y-87197195D01*
X170722052Y-87254648D01*
X170607147Y-87254648D01*
X170434790Y-87197195D01*
X170319885Y-87082290D01*
X170262433Y-86967386D01*
X170204981Y-86737576D01*
X170204981Y-86565219D01*
X170262433Y-86335410D01*
X170319885Y-86220505D01*
X170434790Y-86105600D01*
X170607147Y-86048148D01*
X170722052Y-86048148D01*
X170894409Y-86105600D01*
X170951861Y-86163052D01*
X171411481Y-86163052D02*
X171468933Y-86105600D01*
X171583838Y-86048148D01*
X171871100Y-86048148D01*
X171986004Y-86105600D01*
X172043457Y-86163052D01*
X172100909Y-86277957D01*
X172100909Y-86392862D01*
X172043457Y-86565219D01*
X171354028Y-87254648D01*
X172100909Y-87254648D01*
X186974338Y-94118600D02*
X186859433Y-94061148D01*
X186687076Y-94061148D01*
X186514719Y-94118600D01*
X186399814Y-94233505D01*
X186342362Y-94348410D01*
X186284910Y-94578219D01*
X186284910Y-94750576D01*
X186342362Y-94980386D01*
X186399814Y-95095290D01*
X186514719Y-95210195D01*
X186687076Y-95267648D01*
X186801981Y-95267648D01*
X186974338Y-95210195D01*
X187031790Y-95152743D01*
X187031790Y-94750576D01*
X186801981Y-94750576D01*
X187548862Y-95267648D02*
X187548862Y-94061148D01*
X188238290Y-95267648D01*
X188238290Y-94061148D01*
X188812814Y-95267648D02*
X188812814Y-94061148D01*
X189100076Y-94061148D01*
X189272433Y-94118600D01*
X189387338Y-94233505D01*
X189444790Y-94348410D01*
X189502242Y-94578219D01*
X189502242Y-94750576D01*
X189444790Y-94980386D01*
X189387338Y-95095290D01*
X189272433Y-95210195D01*
X189100076Y-95267648D01*
X188812814Y-95267648D01*
X189732052Y-95382552D02*
X190651290Y-95382552D01*
X191455623Y-94463314D02*
X191455623Y-95267648D01*
X191168361Y-94003695D02*
X190881100Y-94865481D01*
X191627980Y-94865481D01*
X191800338Y-95382552D02*
X192719576Y-95382552D01*
X193696266Y-95152743D02*
X193638814Y-95210195D01*
X193466457Y-95267648D01*
X193351552Y-95267648D01*
X193179195Y-95210195D01*
X193064290Y-95095290D01*
X193006838Y-94980386D01*
X192949386Y-94750576D01*
X192949386Y-94578219D01*
X193006838Y-94348410D01*
X193064290Y-94233505D01*
X193179195Y-94118600D01*
X193351552Y-94061148D01*
X193466457Y-94061148D01*
X193638814Y-94118600D01*
X193696266Y-94176052D01*
X194155886Y-94176052D02*
X194213338Y-94118600D01*
X194328243Y-94061148D01*
X194615505Y-94061148D01*
X194730409Y-94118600D01*
X194787862Y-94176052D01*
X194845314Y-94290957D01*
X194845314Y-94405862D01*
X194787862Y-94578219D01*
X194098433Y-95267648D01*
X194845314Y-95267648D01*
X170989738Y-110136000D02*
X170874833Y-110078548D01*
X170702476Y-110078548D01*
X170530119Y-110136000D01*
X170415214Y-110250905D01*
X170357762Y-110365810D01*
X170300310Y-110595619D01*
X170300310Y-110767976D01*
X170357762Y-110997786D01*
X170415214Y-111112690D01*
X170530119Y-111227595D01*
X170702476Y-111285048D01*
X170817381Y-111285048D01*
X170989738Y-111227595D01*
X171047190Y-111170143D01*
X171047190Y-110767976D01*
X170817381Y-110767976D01*
X171564262Y-111285048D02*
X171564262Y-110078548D01*
X172253690Y-111285048D01*
X172253690Y-110078548D01*
X172828214Y-111285048D02*
X172828214Y-110078548D01*
X173115476Y-110078548D01*
X173287833Y-110136000D01*
X173402738Y-110250905D01*
X173460190Y-110365810D01*
X173517642Y-110595619D01*
X173517642Y-110767976D01*
X173460190Y-110997786D01*
X173402738Y-111112690D01*
X173287833Y-111227595D01*
X173115476Y-111285048D01*
X172828214Y-111285048D01*
X173747452Y-111399952D02*
X174666690Y-111399952D01*
X174839047Y-110078548D02*
X175585928Y-110078548D01*
X175183761Y-110538167D01*
X175356119Y-110538167D01*
X175471023Y-110595619D01*
X175528476Y-110653071D01*
X175585928Y-110767976D01*
X175585928Y-111055238D01*
X175528476Y-111170143D01*
X175471023Y-111227595D01*
X175356119Y-111285048D01*
X175011404Y-111285048D01*
X174896500Y-111227595D01*
X174839047Y-111170143D01*
X175815738Y-111399952D02*
X176734976Y-111399952D01*
X177711666Y-111170143D02*
X177654214Y-111227595D01*
X177481857Y-111285048D01*
X177366952Y-111285048D01*
X177194595Y-111227595D01*
X177079690Y-111112690D01*
X177022238Y-110997786D01*
X176964786Y-110767976D01*
X176964786Y-110595619D01*
X177022238Y-110365810D01*
X177079690Y-110250905D01*
X177194595Y-110136000D01*
X177366952Y-110078548D01*
X177481857Y-110078548D01*
X177654214Y-110136000D01*
X177711666Y-110193452D01*
X178171286Y-110193452D02*
X178228738Y-110136000D01*
X178343643Y-110078548D01*
X178630905Y-110078548D01*
X178745809Y-110136000D01*
X178803262Y-110193452D01*
X178860714Y-110308357D01*
X178860714Y-110423262D01*
X178803262Y-110595619D01*
X178113833Y-111285048D01*
X178860714Y-111285048D01*
X166298405Y-114153348D02*
X166700571Y-115359848D01*
X167102738Y-114153348D01*
X168194333Y-115244943D02*
X168136881Y-115302395D01*
X167964524Y-115359848D01*
X167849619Y-115359848D01*
X167677262Y-115302395D01*
X167562357Y-115187490D01*
X167504905Y-115072586D01*
X167447453Y-114842776D01*
X167447453Y-114670419D01*
X167504905Y-114440610D01*
X167562357Y-114325705D01*
X167677262Y-114210800D01*
X167849619Y-114153348D01*
X167964524Y-114153348D01*
X168136881Y-114210800D01*
X168194333Y-114268252D01*
X169400833Y-115244943D02*
X169343381Y-115302395D01*
X169171024Y-115359848D01*
X169056119Y-115359848D01*
X168883762Y-115302395D01*
X168768857Y-115187490D01*
X168711405Y-115072586D01*
X168653953Y-114842776D01*
X168653953Y-114670419D01*
X168711405Y-114440610D01*
X168768857Y-114325705D01*
X168883762Y-114210800D01*
X169056119Y-114153348D01*
X169171024Y-114153348D01*
X169343381Y-114210800D01*
X169400833Y-114268252D01*
X169630643Y-115474752D02*
X170549881Y-115474752D01*
X170722238Y-114153348D02*
X171469119Y-114153348D01*
X171066952Y-114612967D01*
X171239310Y-114612967D01*
X171354214Y-114670419D01*
X171411667Y-114727871D01*
X171469119Y-114842776D01*
X171469119Y-115130038D01*
X171411667Y-115244943D01*
X171354214Y-115302395D01*
X171239310Y-115359848D01*
X170894595Y-115359848D01*
X170779691Y-115302395D01*
X170722238Y-115244943D01*
X171698929Y-115474752D02*
X172618167Y-115474752D01*
X173594857Y-115244943D02*
X173537405Y-115302395D01*
X173365048Y-115359848D01*
X173250143Y-115359848D01*
X173077786Y-115302395D01*
X172962881Y-115187490D01*
X172905429Y-115072586D01*
X172847977Y-114842776D01*
X172847977Y-114670419D01*
X172905429Y-114440610D01*
X172962881Y-114325705D01*
X173077786Y-114210800D01*
X173250143Y-114153348D01*
X173365048Y-114153348D01*
X173537405Y-114210800D01*
X173594857Y-114268252D01*
X174054477Y-114268252D02*
X174111929Y-114210800D01*
X174226834Y-114153348D01*
X174514096Y-114153348D01*
X174629000Y-114210800D01*
X174686453Y-114268252D01*
X174743905Y-114383157D01*
X174743905Y-114498062D01*
X174686453Y-114670419D01*
X173997024Y-115359848D01*
X174743905Y-115359848D01*
X190254205Y-90190348D02*
X190656371Y-91396848D01*
X191058538Y-90190348D01*
X192150133Y-91281943D02*
X192092681Y-91339395D01*
X191920324Y-91396848D01*
X191805419Y-91396848D01*
X191633062Y-91339395D01*
X191518157Y-91224490D01*
X191460705Y-91109586D01*
X191403253Y-90879776D01*
X191403253Y-90707419D01*
X191460705Y-90477610D01*
X191518157Y-90362705D01*
X191633062Y-90247800D01*
X191805419Y-90190348D01*
X191920324Y-90190348D01*
X192092681Y-90247800D01*
X192150133Y-90305252D01*
X193356633Y-91281943D02*
X193299181Y-91339395D01*
X193126824Y-91396848D01*
X193011919Y-91396848D01*
X192839562Y-91339395D01*
X192724657Y-91224490D01*
X192667205Y-91109586D01*
X192609753Y-90879776D01*
X192609753Y-90707419D01*
X192667205Y-90477610D01*
X192724657Y-90362705D01*
X192839562Y-90247800D01*
X193011919Y-90190348D01*
X193126824Y-90190348D01*
X193299181Y-90247800D01*
X193356633Y-90305252D01*
X193586443Y-91511752D02*
X194505681Y-91511752D01*
X195310014Y-90592514D02*
X195310014Y-91396848D01*
X195022752Y-90132895D02*
X194735491Y-90994681D01*
X195482371Y-90994681D01*
X195654729Y-91511752D02*
X196573967Y-91511752D01*
X197550657Y-91281943D02*
X197493205Y-91339395D01*
X197320848Y-91396848D01*
X197205943Y-91396848D01*
X197033586Y-91339395D01*
X196918681Y-91224490D01*
X196861229Y-91109586D01*
X196803777Y-90879776D01*
X196803777Y-90707419D01*
X196861229Y-90477610D01*
X196918681Y-90362705D01*
X197033586Y-90247800D01*
X197205943Y-90190348D01*
X197320848Y-90190348D01*
X197493205Y-90247800D01*
X197550657Y-90305252D01*
X198010277Y-90305252D02*
X198067729Y-90247800D01*
X198182634Y-90190348D01*
X198469896Y-90190348D01*
X198584800Y-90247800D01*
X198642253Y-90305252D01*
X198699705Y-90420157D01*
X198699705Y-90535062D01*
X198642253Y-90707419D01*
X197952824Y-91396848D01*
X198699705Y-91396848D01*
X163073990Y-119124543D02*
X163016538Y-119181995D01*
X162844181Y-119239448D01*
X162729276Y-119239448D01*
X162556919Y-119181995D01*
X162442014Y-119067090D01*
X162384562Y-118952186D01*
X162327110Y-118722376D01*
X162327110Y-118550019D01*
X162384562Y-118320210D01*
X162442014Y-118205305D01*
X162556919Y-118090400D01*
X162729276Y-118032948D01*
X162844181Y-118032948D01*
X163016538Y-118090400D01*
X163073990Y-118147852D01*
X163533610Y-118894733D02*
X164108133Y-118894733D01*
X163418705Y-119239448D02*
X163820871Y-118032948D01*
X164223038Y-119239448D01*
X164625205Y-119239448D02*
X164625205Y-118032948D01*
X165314633Y-119239448D01*
X165314633Y-118032948D01*
X165889157Y-119239448D02*
X165889157Y-118032948D01*
X165889157Y-118607471D02*
X166578585Y-118607471D01*
X166578585Y-119239448D02*
X166578585Y-118032948D01*
X166865847Y-119354352D02*
X167785085Y-119354352D01*
X168589418Y-118435114D02*
X168589418Y-119239448D01*
X168302156Y-117975495D02*
X168014895Y-118837281D01*
X168761775Y-118837281D01*
X168934133Y-119354352D02*
X169853371Y-119354352D01*
X170830061Y-119124543D02*
X170772609Y-119181995D01*
X170600252Y-119239448D01*
X170485347Y-119239448D01*
X170312990Y-119181995D01*
X170198085Y-119067090D01*
X170140633Y-118952186D01*
X170083181Y-118722376D01*
X170083181Y-118550019D01*
X170140633Y-118320210D01*
X170198085Y-118205305D01*
X170312990Y-118090400D01*
X170485347Y-118032948D01*
X170600252Y-118032948D01*
X170772609Y-118090400D01*
X170830061Y-118147852D01*
X171289681Y-118147852D02*
X171347133Y-118090400D01*
X171462038Y-118032948D01*
X171749300Y-118032948D01*
X171864204Y-118090400D01*
X171921657Y-118147852D01*
X171979109Y-118262757D01*
X171979109Y-118377662D01*
X171921657Y-118550019D01*
X171232228Y-119239448D01*
X171979109Y-119239448D01*
X195085990Y-87156743D02*
X195028538Y-87214195D01*
X194856181Y-87271648D01*
X194741276Y-87271648D01*
X194568919Y-87214195D01*
X194454014Y-87099290D01*
X194396562Y-86984386D01*
X194339110Y-86754576D01*
X194339110Y-86582219D01*
X194396562Y-86352410D01*
X194454014Y-86237505D01*
X194568919Y-86122600D01*
X194741276Y-86065148D01*
X194856181Y-86065148D01*
X195028538Y-86122600D01*
X195085990Y-86180052D01*
X195545610Y-86926933D02*
X196120133Y-86926933D01*
X195430705Y-87271648D02*
X195832871Y-86065148D01*
X196235038Y-87271648D01*
X196637205Y-87271648D02*
X196637205Y-86065148D01*
X197326633Y-87271648D01*
X197326633Y-86065148D01*
X197901157Y-87271648D02*
X197901157Y-86065148D01*
X197901157Y-86639671D02*
X198590585Y-86639671D01*
X198590585Y-87271648D02*
X198590585Y-86065148D01*
X198877847Y-87386552D02*
X199797085Y-87386552D01*
X199969442Y-86065148D02*
X200716323Y-86065148D01*
X200314156Y-86524767D01*
X200486514Y-86524767D01*
X200601418Y-86582219D01*
X200658871Y-86639671D01*
X200716323Y-86754576D01*
X200716323Y-87041838D01*
X200658871Y-87156743D01*
X200601418Y-87214195D01*
X200486514Y-87271648D01*
X200141799Y-87271648D01*
X200026895Y-87214195D01*
X199969442Y-87156743D01*
X200946133Y-87386552D02*
X201865371Y-87386552D01*
X202842061Y-87156743D02*
X202784609Y-87214195D01*
X202612252Y-87271648D01*
X202497347Y-87271648D01*
X202324990Y-87214195D01*
X202210085Y-87099290D01*
X202152633Y-86984386D01*
X202095181Y-86754576D01*
X202095181Y-86582219D01*
X202152633Y-86352410D01*
X202210085Y-86237505D01*
X202324990Y-86122600D01*
X202497347Y-86065148D01*
X202612252Y-86065148D01*
X202784609Y-86122600D01*
X202842061Y-86180052D01*
X203301681Y-86180052D02*
X203359133Y-86122600D01*
X203474038Y-86065148D01*
X203761300Y-86065148D01*
X203876204Y-86122600D01*
X203933657Y-86180052D01*
X203991109Y-86294957D01*
X203991109Y-86409862D01*
X203933657Y-86582219D01*
X203244228Y-87271648D01*
X203991109Y-87271648D01*
M02*
