G04 #@! TF.FileFunction,Copper,L1,Top,Signal*
%FSLAX46Y46*%
G04 Gerber Fmt 4.6, Leading zero omitted, Abs format (unit mm)*
G04 Created by KiCad (PCBNEW 4.0.6) date 05/08/17 07:31:19*
%MOMM*%
%LPD*%
G01*
G04 APERTURE LIST*
%ADD10C,0.100000*%
%ADD11C,2.540000*%
%ADD12C,3.175000*%
%ADD13C,2.184400*%
%ADD14C,1.006400*%
%ADD15C,3.200000*%
%ADD16C,1.270000*%
%ADD17C,2.540000*%
%ADD18C,0.609600*%
%ADD19C,0.406400*%
G04 APERTURE END LIST*
D10*
D11*
X191385100Y-113854100D03*
D12*
X191385100Y-113854100D03*
D11*
X167376100Y-89819100D03*
D12*
X167376100Y-89819100D03*
D11*
X171471100Y-93697100D03*
D12*
X171471100Y-93697100D03*
D11*
X187502100Y-109665100D03*
D12*
X187502100Y-109665100D03*
D11*
X195380100Y-117611100D03*
D12*
X195380100Y-117611100D03*
D11*
X163489100Y-85661100D03*
D12*
X163489100Y-85661100D03*
D11*
X187325100Y-93674100D03*
D12*
X187325100Y-93674100D03*
D11*
X171340500Y-109691500D03*
D12*
X171340500Y-109691500D03*
D11*
X167453500Y-113766300D03*
D12*
X167453500Y-113766300D03*
D11*
X191409300Y-89803300D03*
D12*
X191409300Y-89803300D03*
D11*
X163367300Y-117645900D03*
D12*
X163367300Y-117645900D03*
D11*
X195379300Y-85678100D03*
D12*
X195379300Y-85678100D03*
D13*
X171307700Y-101920100D03*
X179257700Y-109896500D03*
X187309700Y-101920100D03*
X179308700Y-93919100D03*
D14*
X178435100Y-113603100D03*
X201688100Y-121466100D03*
X171363300Y-117676100D03*
X200429100Y-84685100D03*
X165296100Y-81301100D03*
D15*
X187325100Y-93674100D02*
X187325100Y-93533100D01*
X187325100Y-93533100D02*
X183835100Y-90043100D01*
X183835100Y-90043100D02*
X175125100Y-90043100D01*
X175125100Y-90043100D02*
X171471100Y-93697100D01*
X171471100Y-93697100D02*
X171471100Y-93832100D01*
X171471100Y-93832100D02*
X168360100Y-96943100D01*
X168360100Y-96943100D02*
X168360100Y-96999100D01*
X168360100Y-96999100D02*
X167375100Y-97984100D01*
X167375100Y-97984100D02*
X167375100Y-105726100D01*
X167375100Y-105726100D02*
X171340500Y-109691500D01*
X171340500Y-109691500D02*
X171340500Y-110005500D01*
X171340500Y-110005500D02*
X174654100Y-113319100D01*
X174654100Y-113319100D02*
X183848100Y-113319100D01*
X183848100Y-113319100D02*
X187502100Y-109665100D01*
D16*
X174654100Y-113319100D02*
X178151100Y-113319100D01*
X178151100Y-113319100D02*
X178435100Y-113603100D01*
D15*
X191409300Y-89803300D02*
X191311300Y-89803300D01*
X191311300Y-89803300D02*
X188265100Y-86757100D01*
X188265100Y-86757100D02*
X188265100Y-86700100D01*
X188265100Y-86700100D02*
X187445100Y-85880100D01*
X187445100Y-85880100D02*
X171315100Y-85880100D01*
X171315100Y-85880100D02*
X167376100Y-89819100D01*
X191385100Y-113854100D02*
X191385100Y-113990100D01*
X191385100Y-113990100D02*
X187699100Y-117676100D01*
X187699100Y-117676100D02*
X171363300Y-117676100D01*
X171363300Y-117676100D02*
X167453500Y-113766300D01*
X167453500Y-113766300D02*
X167357300Y-113766300D01*
X167357300Y-113766300D02*
X163784100Y-110193100D01*
X163784100Y-110193100D02*
X163784100Y-93411100D01*
X163784100Y-93411100D02*
X167376100Y-89819100D01*
D17*
X191385100Y-113990100D02*
X198856100Y-113990100D01*
X198856100Y-113990100D02*
X200743100Y-115877100D01*
X200743100Y-115877100D02*
X200743100Y-120521100D01*
X200743100Y-120521100D02*
X201688100Y-121466100D01*
D18*
X195380100Y-117611100D02*
X195380100Y-119904100D01*
X195380100Y-119904100D02*
X193503100Y-121781100D01*
X193503100Y-121781100D02*
X167502500Y-121781100D01*
X167502500Y-121781100D02*
X163367300Y-117645900D01*
X163489100Y-85661100D02*
X163097100Y-85661100D01*
X163097100Y-85661100D02*
X160924100Y-87834100D01*
X160924100Y-87834100D02*
X160924100Y-87880100D01*
X160924100Y-87880100D02*
X160651100Y-88153100D01*
X160651100Y-88153100D02*
X160651100Y-114929700D01*
X160651100Y-114929700D02*
X163367300Y-117645900D01*
D16*
X200429100Y-84685100D02*
X200429100Y-85051100D01*
X200429100Y-85051100D02*
X199791100Y-85689100D01*
X199791100Y-85689100D02*
X195390300Y-85689100D01*
X195390300Y-85689100D02*
X195379300Y-85678100D01*
D18*
X163489100Y-85661100D02*
X166619100Y-82531100D01*
X166619100Y-82531100D02*
X167565100Y-81585100D01*
X167565100Y-81585100D02*
X191286300Y-81585100D01*
X191286300Y-81585100D02*
X195379300Y-85678100D01*
X165296100Y-81301100D02*
X165389100Y-81301100D01*
X165389100Y-81301100D02*
X166619100Y-82531100D01*
D19*
G36*
X205612914Y-83212785D02*
X205170673Y-83220256D01*
X205076198Y-83231133D01*
X204981498Y-83240034D01*
X204970520Y-83243300D01*
X204959144Y-83244610D01*
X204868590Y-83273627D01*
X204777413Y-83300755D01*
X204767277Y-83306092D01*
X204756374Y-83309586D01*
X204673178Y-83355642D01*
X204589011Y-83399961D01*
X204580106Y-83407164D01*
X204570088Y-83412710D01*
X204497416Y-83474052D01*
X204423464Y-83533872D01*
X204416129Y-83542667D01*
X204407378Y-83550053D01*
X204348014Y-83624332D01*
X204287081Y-83697387D01*
X204281591Y-83707444D01*
X204274445Y-83716385D01*
X204230647Y-83800762D01*
X204185056Y-83884277D01*
X204181625Y-83895206D01*
X204176350Y-83905368D01*
X204149762Y-83996693D01*
X204121275Y-84087426D01*
X204120033Y-84098806D01*
X204116830Y-84109806D01*
X204108487Y-84204559D01*
X204098166Y-84299094D01*
X204098105Y-84314328D01*
X204203105Y-119807327D01*
X204206666Y-119842573D01*
X204205605Y-119877982D01*
X204217346Y-119948270D01*
X204224510Y-120019175D01*
X204234850Y-120053060D01*
X204240686Y-120087999D01*
X204265853Y-120154663D01*
X204286654Y-120222830D01*
X204303378Y-120254060D01*
X204315890Y-120287202D01*
X204353534Y-120347719D01*
X204387173Y-120410535D01*
X204409642Y-120437919D01*
X204428355Y-120468002D01*
X204477036Y-120520055D01*
X204522236Y-120575142D01*
X204549594Y-120597639D01*
X204573796Y-120623517D01*
X204631663Y-120665124D01*
X204686699Y-120710381D01*
X204717909Y-120727137D01*
X204746673Y-120747819D01*
X204811513Y-120777391D01*
X204874297Y-120811099D01*
X204908168Y-120821474D01*
X204940401Y-120836175D01*
X205009750Y-120852590D01*
X205077887Y-120873461D01*
X205113129Y-120877060D01*
X205147601Y-120885219D01*
X205218824Y-120887852D01*
X205289710Y-120895090D01*
X205324970Y-120891776D01*
X205360382Y-120893085D01*
X205375580Y-120892053D01*
X205605100Y-120874864D01*
X205605100Y-128569691D01*
X152448961Y-128716223D01*
X152531380Y-121303934D01*
X152890387Y-121317340D01*
X152906967Y-121316337D01*
X152923483Y-121318073D01*
X153013097Y-121309918D01*
X153102925Y-121304484D01*
X153118993Y-121300280D01*
X153135533Y-121298775D01*
X153221854Y-121273370D01*
X153308918Y-121250592D01*
X153323864Y-121243347D01*
X153339796Y-121238658D01*
X153419547Y-121196965D01*
X153500519Y-121157714D01*
X153513772Y-121147705D01*
X153528491Y-121140010D01*
X153598627Y-121083620D01*
X153670432Y-121029390D01*
X153681487Y-121016998D01*
X153694433Y-121006590D01*
X153752287Y-120937642D01*
X153812184Y-120870506D01*
X153820622Y-120856204D01*
X153831299Y-120843479D01*
X153874658Y-120764609D01*
X153920375Y-120687117D01*
X153925874Y-120671449D01*
X153933877Y-120656891D01*
X153961090Y-120571105D01*
X153990886Y-120486204D01*
X153993237Y-120469763D01*
X153998259Y-120453932D01*
X154008291Y-120364496D01*
X154021029Y-120275423D01*
X154020142Y-120258842D01*
X154021994Y-120242333D01*
X154022100Y-120227100D01*
X154022100Y-88153100D01*
X159330300Y-88153100D01*
X159330300Y-114929700D01*
X159342206Y-115051128D01*
X159352839Y-115172663D01*
X159354776Y-115179330D01*
X159355454Y-115186245D01*
X159390720Y-115303051D01*
X159424756Y-115420203D01*
X159427953Y-115426371D01*
X159429960Y-115433018D01*
X159487232Y-115540730D01*
X159543384Y-115649059D01*
X159547717Y-115654487D01*
X159550978Y-115660620D01*
X159628102Y-115755184D01*
X159704205Y-115850516D01*
X159713739Y-115860184D01*
X159713899Y-115860381D01*
X159714081Y-115860531D01*
X159717153Y-115863647D01*
X160844687Y-116991181D01*
X160767507Y-117354286D01*
X160760378Y-117864809D01*
X160852546Y-118366994D01*
X161040500Y-118841713D01*
X161317082Y-119270883D01*
X161671755Y-119638158D01*
X162091012Y-119929549D01*
X162558882Y-120133956D01*
X163057544Y-120243594D01*
X163568004Y-120254287D01*
X164026881Y-120173375D01*
X166568553Y-122715047D01*
X166662870Y-122792520D01*
X166756292Y-122870910D01*
X166762375Y-122874254D01*
X166767745Y-122878665D01*
X166875297Y-122936333D01*
X166982182Y-122995094D01*
X166988802Y-122997194D01*
X166994923Y-123000476D01*
X167111590Y-123036145D01*
X167227890Y-123073037D01*
X167234793Y-123073811D01*
X167241435Y-123075842D01*
X167362830Y-123088173D01*
X167484059Y-123101771D01*
X167497634Y-123101866D01*
X167497890Y-123101892D01*
X167498129Y-123101869D01*
X167502500Y-123101900D01*
X193503100Y-123101900D01*
X193624528Y-123089994D01*
X193746063Y-123079361D01*
X193752730Y-123077424D01*
X193759645Y-123076746D01*
X193876451Y-123041480D01*
X193993603Y-123007444D01*
X193999771Y-123004247D01*
X194006418Y-123002240D01*
X194114130Y-122944968D01*
X194222459Y-122888816D01*
X194227887Y-122884483D01*
X194234020Y-122881222D01*
X194328584Y-122804098D01*
X194423916Y-122727995D01*
X194433584Y-122718461D01*
X194433781Y-122718301D01*
X194433931Y-122718119D01*
X194437047Y-122715047D01*
X196314047Y-120838047D01*
X196391520Y-120743730D01*
X196469910Y-120650308D01*
X196473254Y-120644225D01*
X196477665Y-120638855D01*
X196535333Y-120531303D01*
X196594094Y-120424418D01*
X196596194Y-120417798D01*
X196599476Y-120411677D01*
X196635145Y-120295010D01*
X196672037Y-120178710D01*
X196672811Y-120171807D01*
X196674842Y-120165165D01*
X196687173Y-120043770D01*
X196700771Y-119922541D01*
X196700866Y-119908966D01*
X196700892Y-119908710D01*
X196700869Y-119908471D01*
X196700900Y-119904100D01*
X196700900Y-119856544D01*
X196990730Y-119672613D01*
X197360472Y-119320512D01*
X197654783Y-118903300D01*
X197862452Y-118436868D01*
X197975568Y-117938984D01*
X197983711Y-117355814D01*
X197884541Y-116854965D01*
X197689977Y-116382917D01*
X197619008Y-116276100D01*
X197909208Y-116276100D01*
X198457100Y-116823992D01*
X198457100Y-120521100D01*
X198477704Y-120731234D01*
X198496110Y-120941612D01*
X198499464Y-120953156D01*
X198500637Y-120965120D01*
X198561675Y-121167287D01*
X198620582Y-121370047D01*
X198626113Y-121380718D01*
X198629588Y-121392227D01*
X198728725Y-121578678D01*
X198825899Y-121766145D01*
X198833399Y-121775540D01*
X198839042Y-121786153D01*
X198972507Y-121949798D01*
X199104242Y-122114819D01*
X199120737Y-122131546D01*
X199121021Y-122131894D01*
X199121343Y-122132161D01*
X199126654Y-122137546D01*
X200071654Y-123082546D01*
X200416409Y-123365730D01*
X200809601Y-123576559D01*
X201236255Y-123707000D01*
X201680120Y-123752087D01*
X202124290Y-123710100D01*
X202551844Y-123582640D01*
X202946499Y-123374562D01*
X203293222Y-123093791D01*
X203578807Y-122751023D01*
X203792374Y-122359311D01*
X203925791Y-121933578D01*
X203973975Y-121490039D01*
X203935090Y-121045588D01*
X203810618Y-120617153D01*
X203605301Y-120221056D01*
X203326958Y-119872381D01*
X203304546Y-119849654D01*
X203029100Y-119574208D01*
X203029100Y-115877100D01*
X203008496Y-115666966D01*
X202990090Y-115456588D01*
X202986736Y-115445044D01*
X202985563Y-115433080D01*
X202924525Y-115230913D01*
X202865618Y-115028153D01*
X202860087Y-115017482D01*
X202856612Y-115005973D01*
X202757475Y-114819522D01*
X202660301Y-114632055D01*
X202652801Y-114622660D01*
X202647158Y-114612047D01*
X202513693Y-114448402D01*
X202381958Y-114283381D01*
X202365463Y-114266654D01*
X202365179Y-114266306D01*
X202364857Y-114266039D01*
X202359546Y-114260654D01*
X200472546Y-112373654D01*
X200309407Y-112239650D01*
X200147615Y-112103891D01*
X200137077Y-112098098D01*
X200127791Y-112090470D01*
X199941724Y-111990701D01*
X199756651Y-111888957D01*
X199745192Y-111885322D01*
X199734599Y-111879642D01*
X199532643Y-111817898D01*
X199331386Y-111754055D01*
X199319443Y-111752715D01*
X199307945Y-111749200D01*
X199097834Y-111727858D01*
X198888018Y-111704323D01*
X198864521Y-111704159D01*
X198864080Y-111704114D01*
X198863669Y-111704153D01*
X198856100Y-111704100D01*
X192870628Y-111704100D01*
X192847949Y-111685338D01*
X192736273Y-111624955D01*
X192629379Y-111552854D01*
X192510516Y-111502889D01*
X192398841Y-111442506D01*
X192277564Y-111404965D01*
X192158701Y-111354999D01*
X192032396Y-111329072D01*
X191911120Y-111291531D01*
X191784863Y-111278261D01*
X191658557Y-111252334D01*
X191529619Y-111251434D01*
X191403363Y-111238164D01*
X191276933Y-111249670D01*
X191147996Y-111248770D01*
X191021341Y-111272931D01*
X190894910Y-111284437D01*
X190773121Y-111320281D01*
X190646467Y-111344442D01*
X190526919Y-111392742D01*
X190405129Y-111428587D01*
X190292624Y-111487404D01*
X190173073Y-111535705D01*
X190065177Y-111606310D01*
X189952675Y-111665125D01*
X189853738Y-111744672D01*
X189745844Y-111815276D01*
X189653720Y-111905490D01*
X189554781Y-111985039D01*
X189473177Y-112082290D01*
X189381053Y-112172505D01*
X189308207Y-112278894D01*
X189226603Y-112376146D01*
X189165440Y-112487400D01*
X189115975Y-112559643D01*
X186615518Y-115060100D01*
X172446882Y-115060100D01*
X169303291Y-111916509D01*
X169208683Y-111838796D01*
X169121063Y-111750563D01*
X169021781Y-111683596D01*
X168931454Y-111607803D01*
X168919402Y-111601178D01*
X168908770Y-111592444D01*
X168853264Y-111562682D01*
X167200991Y-109910409D01*
X168733578Y-109910409D01*
X168825746Y-110412594D01*
X169013700Y-110887313D01*
X169290282Y-111316483D01*
X169644955Y-111683758D01*
X170064212Y-111975149D01*
X170532082Y-112179556D01*
X171030744Y-112289194D01*
X171541204Y-112299887D01*
X172044020Y-112211227D01*
X172520039Y-112026591D01*
X172951130Y-111753013D01*
X173320872Y-111400912D01*
X173615183Y-110983700D01*
X173822852Y-110517268D01*
X173923613Y-110073763D01*
X177146729Y-110073763D01*
X177221362Y-110480410D01*
X177373559Y-110864817D01*
X177597523Y-111212340D01*
X177884722Y-111509744D01*
X178224218Y-111745699D01*
X178603078Y-111911219D01*
X179006873Y-111999999D01*
X179420222Y-112008658D01*
X179827380Y-111936865D01*
X180212839Y-111787355D01*
X180561918Y-111565823D01*
X180861319Y-111280707D01*
X181099639Y-110942867D01*
X181267800Y-110565171D01*
X181359397Y-110162006D01*
X181363278Y-109884009D01*
X184895178Y-109884009D01*
X184987346Y-110386194D01*
X185175300Y-110860913D01*
X185451882Y-111290083D01*
X185806555Y-111657358D01*
X186225812Y-111948749D01*
X186693682Y-112153156D01*
X187192344Y-112262794D01*
X187702804Y-112273487D01*
X188205620Y-112184827D01*
X188681639Y-112000191D01*
X189112730Y-111726613D01*
X189482472Y-111374512D01*
X189776783Y-110957300D01*
X189984452Y-110490868D01*
X190097568Y-109992984D01*
X190105711Y-109409814D01*
X190006541Y-108908965D01*
X189811977Y-108436917D01*
X189529430Y-108011650D01*
X189169663Y-107649363D01*
X188746379Y-107363854D01*
X188275701Y-107165999D01*
X187775557Y-107063334D01*
X187264996Y-107059770D01*
X186763467Y-107155442D01*
X186290073Y-107346705D01*
X185862844Y-107626276D01*
X185498053Y-107983505D01*
X185209597Y-108404786D01*
X185008461Y-108874071D01*
X184902307Y-109373486D01*
X184895178Y-109884009D01*
X181363278Y-109884009D01*
X181365991Y-109689780D01*
X181285687Y-109284215D01*
X181128137Y-108901971D01*
X180899343Y-108557608D01*
X180608020Y-108264244D01*
X180265263Y-108033052D01*
X179884128Y-107872837D01*
X179479133Y-107789704D01*
X179065704Y-107786817D01*
X178659588Y-107864288D01*
X178276253Y-108019165D01*
X177930302Y-108245550D01*
X177634911Y-108534818D01*
X177401331Y-108875953D01*
X177238460Y-109255959D01*
X177152501Y-109660364D01*
X177146729Y-110073763D01*
X173923613Y-110073763D01*
X173935968Y-110019384D01*
X173944111Y-109436214D01*
X173844941Y-108935365D01*
X173650377Y-108463317D01*
X173367830Y-108038050D01*
X173008063Y-107675763D01*
X172584779Y-107390254D01*
X172114101Y-107192399D01*
X171613957Y-107089734D01*
X171103396Y-107086170D01*
X170601867Y-107181842D01*
X170128473Y-107373105D01*
X169701244Y-107652676D01*
X169336453Y-108009905D01*
X169047997Y-108431186D01*
X168846861Y-108900471D01*
X168740707Y-109399886D01*
X168733578Y-109910409D01*
X167200991Y-109910409D01*
X166400100Y-109109518D01*
X166400100Y-102097363D01*
X169196729Y-102097363D01*
X169271362Y-102504010D01*
X169423559Y-102888417D01*
X169647523Y-103235940D01*
X169934722Y-103533344D01*
X170274218Y-103769299D01*
X170653078Y-103934819D01*
X171056873Y-104023599D01*
X171470222Y-104032258D01*
X171877380Y-103960465D01*
X172262839Y-103810955D01*
X172611918Y-103589423D01*
X172911319Y-103304307D01*
X173149639Y-102966467D01*
X173317800Y-102588771D01*
X173409397Y-102185606D01*
X173410629Y-102097363D01*
X185198729Y-102097363D01*
X185273362Y-102504010D01*
X185425559Y-102888417D01*
X185649523Y-103235940D01*
X185936722Y-103533344D01*
X186276218Y-103769299D01*
X186655078Y-103934819D01*
X187058873Y-104023599D01*
X187472222Y-104032258D01*
X187879380Y-103960465D01*
X188264839Y-103810955D01*
X188613918Y-103589423D01*
X188913319Y-103304307D01*
X189151639Y-102966467D01*
X189319800Y-102588771D01*
X189411397Y-102185606D01*
X189417991Y-101713380D01*
X189337687Y-101307815D01*
X189180137Y-100925571D01*
X188951343Y-100581208D01*
X188660020Y-100287844D01*
X188317263Y-100056652D01*
X187936128Y-99896437D01*
X187531133Y-99813304D01*
X187117704Y-99810417D01*
X186711588Y-99887888D01*
X186328253Y-100042765D01*
X185982302Y-100269150D01*
X185686911Y-100558418D01*
X185453331Y-100899553D01*
X185290460Y-101279559D01*
X185204501Y-101683964D01*
X185198729Y-102097363D01*
X173410629Y-102097363D01*
X173415991Y-101713380D01*
X173335687Y-101307815D01*
X173178137Y-100925571D01*
X172949343Y-100581208D01*
X172658020Y-100287844D01*
X172315263Y-100056652D01*
X171934128Y-99896437D01*
X171529133Y-99813304D01*
X171115704Y-99810417D01*
X170709588Y-99887888D01*
X170326253Y-100042765D01*
X169980302Y-100269150D01*
X169684911Y-100558418D01*
X169451331Y-100899553D01*
X169288460Y-101279559D01*
X169202501Y-101683964D01*
X169196729Y-102097363D01*
X166400100Y-102097363D01*
X166400100Y-94494682D01*
X166978773Y-93916009D01*
X168864178Y-93916009D01*
X168956346Y-94418194D01*
X169144300Y-94892913D01*
X169420882Y-95322083D01*
X169775555Y-95689358D01*
X170194812Y-95980749D01*
X170662682Y-96185156D01*
X171161344Y-96294794D01*
X171671804Y-96305487D01*
X172174620Y-96216827D01*
X172650639Y-96032191D01*
X173081730Y-95758613D01*
X173451472Y-95406512D01*
X173745783Y-94989300D01*
X173953452Y-94522868D01*
X174050351Y-94096363D01*
X177197729Y-94096363D01*
X177272362Y-94503010D01*
X177424559Y-94887417D01*
X177648523Y-95234940D01*
X177935722Y-95532344D01*
X178275218Y-95768299D01*
X178654078Y-95933819D01*
X179057873Y-96022599D01*
X179471222Y-96031258D01*
X179878380Y-95959465D01*
X180263839Y-95809955D01*
X180612918Y-95588423D01*
X180912319Y-95303307D01*
X181150639Y-94965467D01*
X181318800Y-94587771D01*
X181410397Y-94184606D01*
X181414468Y-93893009D01*
X184718178Y-93893009D01*
X184810346Y-94395194D01*
X184998300Y-94869913D01*
X185274882Y-95299083D01*
X185629555Y-95666358D01*
X186048812Y-95957749D01*
X186516682Y-96162156D01*
X187015344Y-96271794D01*
X187525804Y-96282487D01*
X188028620Y-96193827D01*
X188504639Y-96009191D01*
X188935730Y-95735613D01*
X189305472Y-95383512D01*
X189599783Y-94966300D01*
X189807452Y-94499868D01*
X189920568Y-94001984D01*
X189928711Y-93418814D01*
X189829541Y-92917965D01*
X189634977Y-92445917D01*
X189352430Y-92020650D01*
X188992663Y-91658363D01*
X188569379Y-91372854D01*
X188098701Y-91174999D01*
X187598557Y-91072334D01*
X187087996Y-91068770D01*
X186586467Y-91164442D01*
X186113073Y-91355705D01*
X185685844Y-91635276D01*
X185321053Y-91992505D01*
X185032597Y-92413786D01*
X184831461Y-92883071D01*
X184725307Y-93382486D01*
X184718178Y-93893009D01*
X181414468Y-93893009D01*
X181416991Y-93712380D01*
X181336687Y-93306815D01*
X181179137Y-92924571D01*
X180950343Y-92580208D01*
X180659020Y-92286844D01*
X180316263Y-92055652D01*
X179935128Y-91895437D01*
X179530133Y-91812304D01*
X179116704Y-91809417D01*
X178710588Y-91886888D01*
X178327253Y-92041765D01*
X177981302Y-92268150D01*
X177685911Y-92557418D01*
X177452331Y-92898553D01*
X177289460Y-93278559D01*
X177203501Y-93682964D01*
X177197729Y-94096363D01*
X174050351Y-94096363D01*
X174066568Y-94024984D01*
X174074711Y-93441814D01*
X173975541Y-92940965D01*
X173780977Y-92468917D01*
X173498430Y-92043650D01*
X173138663Y-91681363D01*
X172715379Y-91395854D01*
X172244701Y-91197999D01*
X171744557Y-91095334D01*
X171233996Y-91091770D01*
X170732467Y-91187442D01*
X170259073Y-91378705D01*
X169831844Y-91658276D01*
X169467053Y-92015505D01*
X169178597Y-92436786D01*
X168977461Y-92906071D01*
X168871307Y-93405486D01*
X168864178Y-93916009D01*
X166978773Y-93916009D01*
X172398682Y-88496100D01*
X186321980Y-88496100D01*
X186389662Y-88580884D01*
X186408540Y-88600027D01*
X186408863Y-88600423D01*
X186409230Y-88600726D01*
X186415309Y-88606891D01*
X189461508Y-91653091D01*
X189648233Y-91806469D01*
X189833346Y-91961797D01*
X189845401Y-91968424D01*
X189856030Y-91977155D01*
X190068962Y-92091328D01*
X190280748Y-92207758D01*
X190293863Y-92211918D01*
X190305983Y-92218417D01*
X190537030Y-92289055D01*
X190767403Y-92362134D01*
X190781074Y-92363667D01*
X190794228Y-92367689D01*
X191034624Y-92392108D01*
X191084647Y-92397719D01*
X191099544Y-92400994D01*
X191117132Y-92401362D01*
X191274775Y-92419045D01*
X191301663Y-92419233D01*
X191302168Y-92419284D01*
X191302638Y-92419240D01*
X191311300Y-92419300D01*
X191409300Y-92419300D01*
X191508607Y-92409563D01*
X191610004Y-92411687D01*
X191764151Y-92384507D01*
X191917417Y-92369479D01*
X192012942Y-92340638D01*
X192112820Y-92323027D01*
X192258755Y-92266423D01*
X192406180Y-92221912D01*
X192494283Y-92175067D01*
X192588839Y-92138391D01*
X192720998Y-92054521D01*
X192856972Y-91982222D01*
X192934297Y-91919157D01*
X193019930Y-91864813D01*
X193133283Y-91756869D01*
X193252623Y-91659537D01*
X193316228Y-91582652D01*
X193389672Y-91512712D01*
X193479897Y-91384810D01*
X193578062Y-91266149D01*
X193625522Y-91178374D01*
X193683983Y-91095500D01*
X193747647Y-90952508D01*
X193820894Y-90817041D01*
X193850401Y-90721719D01*
X193891652Y-90629068D01*
X193926329Y-90476435D01*
X193971869Y-90329320D01*
X193982299Y-90230080D01*
X194004768Y-90131184D01*
X194006618Y-89998704D01*
X194025236Y-89821563D01*
X194011239Y-89667762D01*
X194012911Y-89548014D01*
X193989649Y-89430533D01*
X193978963Y-89313110D01*
X193940569Y-89182659D01*
X193913741Y-89047165D01*
X193868103Y-88936438D01*
X193834813Y-88823329D01*
X193771813Y-88702821D01*
X193719177Y-88575117D01*
X193652899Y-88475361D01*
X193598275Y-88370875D01*
X193513069Y-88264900D01*
X193436630Y-88149850D01*
X193352243Y-88064872D01*
X193278361Y-87972981D01*
X193174186Y-87885568D01*
X193076863Y-87787563D01*
X192977581Y-87720596D01*
X192887254Y-87644803D01*
X192809812Y-87602229D01*
X190373316Y-85165734D01*
X190291302Y-85065174D01*
X190140538Y-84876316D01*
X190121660Y-84857173D01*
X190121337Y-84856777D01*
X190120970Y-84856474D01*
X190114891Y-84850309D01*
X189294891Y-84030309D01*
X189108164Y-83876929D01*
X188923054Y-83721603D01*
X188911002Y-83714978D01*
X188900370Y-83706244D01*
X188687383Y-83592042D01*
X188475652Y-83475642D01*
X188462539Y-83471482D01*
X188450416Y-83464982D01*
X188219338Y-83394335D01*
X187988997Y-83321266D01*
X187975326Y-83319733D01*
X187962172Y-83315711D01*
X187721776Y-83291292D01*
X187481625Y-83264355D01*
X187454737Y-83264167D01*
X187454232Y-83264116D01*
X187453762Y-83264160D01*
X187445100Y-83264100D01*
X171315100Y-83264100D01*
X171074619Y-83287679D01*
X170833883Y-83308741D01*
X170820674Y-83312579D01*
X170806983Y-83313921D01*
X170575666Y-83383760D01*
X170343602Y-83451181D01*
X170331387Y-83457513D01*
X170318220Y-83461488D01*
X170104879Y-83574923D01*
X169890324Y-83686138D01*
X169879573Y-83694720D01*
X169867428Y-83701178D01*
X169680174Y-83853898D01*
X169491316Y-84004662D01*
X169472173Y-84023540D01*
X169471777Y-84023863D01*
X169471474Y-84024230D01*
X169465309Y-84030309D01*
X161971900Y-91523718D01*
X161971900Y-88676374D01*
X162013910Y-88626308D01*
X162017253Y-88620227D01*
X162021665Y-88614856D01*
X162033719Y-88592375D01*
X162538887Y-88087207D01*
X162680682Y-88149156D01*
X163179344Y-88258794D01*
X163689804Y-88269487D01*
X164192620Y-88180827D01*
X164668639Y-87996191D01*
X165099730Y-87722613D01*
X165469472Y-87370512D01*
X165763783Y-86953300D01*
X165971452Y-86486868D01*
X166084568Y-85988984D01*
X166092711Y-85405814D01*
X166013306Y-85004787D01*
X167552975Y-83465118D01*
X167553047Y-83465047D01*
X168112194Y-82905900D01*
X190739206Y-82905900D01*
X192856687Y-85023381D01*
X192779507Y-85386486D01*
X192772378Y-85897009D01*
X192864546Y-86399194D01*
X193052500Y-86873913D01*
X193329082Y-87303083D01*
X193683755Y-87670358D01*
X194103012Y-87961749D01*
X194570882Y-88166156D01*
X195069544Y-88275794D01*
X195580004Y-88286487D01*
X196082820Y-88197827D01*
X196558839Y-88013191D01*
X196989930Y-87739613D01*
X197359672Y-87387512D01*
X197393118Y-87340100D01*
X199791100Y-87340100D01*
X199942918Y-87325214D01*
X200094803Y-87311926D01*
X200103138Y-87309504D01*
X200111781Y-87308657D01*
X200257827Y-87264563D01*
X200404228Y-87222030D01*
X200411933Y-87218036D01*
X200420247Y-87215526D01*
X200554924Y-87143916D01*
X200690299Y-87073745D01*
X200697084Y-87068328D01*
X200704749Y-87064253D01*
X200822914Y-86967880D01*
X200942119Y-86872720D01*
X200954202Y-86860804D01*
X200954451Y-86860601D01*
X200954642Y-86860370D01*
X200958533Y-86856533D01*
X201596533Y-86218533D01*
X201693322Y-86100701D01*
X201791362Y-85983861D01*
X201795545Y-85976252D01*
X201801055Y-85969544D01*
X201873129Y-85835126D01*
X201946592Y-85701498D01*
X201949216Y-85693226D01*
X201953320Y-85685572D01*
X201997906Y-85539738D01*
X202044022Y-85394362D01*
X202044990Y-85385731D01*
X202047527Y-85377433D01*
X202062935Y-85225748D01*
X202079939Y-85074152D01*
X202080058Y-85057183D01*
X202080090Y-85056863D01*
X202080062Y-85056565D01*
X202080100Y-85051100D01*
X202080100Y-84685100D01*
X202048657Y-84364419D01*
X201955526Y-84055953D01*
X201804253Y-83771451D01*
X201600601Y-83521749D01*
X201352327Y-83316359D01*
X201068888Y-83163104D01*
X200761080Y-83067821D01*
X200440626Y-83034140D01*
X200119733Y-83063344D01*
X199810625Y-83154319D01*
X199525073Y-83303602D01*
X199273956Y-83505506D01*
X199066838Y-83752339D01*
X198911608Y-84034702D01*
X198910530Y-84038100D01*
X197415566Y-84038100D01*
X197406630Y-84024650D01*
X197046863Y-83662363D01*
X196623579Y-83376854D01*
X196152901Y-83178999D01*
X195652757Y-83076334D01*
X195142196Y-83072770D01*
X194722018Y-83152924D01*
X192220247Y-80651153D01*
X192125930Y-80573680D01*
X192032508Y-80495290D01*
X192026425Y-80491946D01*
X192021055Y-80487535D01*
X191913503Y-80429867D01*
X191806618Y-80371106D01*
X191799998Y-80369006D01*
X191793877Y-80365724D01*
X191677210Y-80330055D01*
X191560910Y-80293163D01*
X191554007Y-80292389D01*
X191547365Y-80290358D01*
X191425970Y-80278027D01*
X191304741Y-80264429D01*
X191291166Y-80264334D01*
X191290910Y-80264308D01*
X191290671Y-80264331D01*
X191286300Y-80264300D01*
X167565100Y-80264300D01*
X167443672Y-80276206D01*
X167322137Y-80286839D01*
X167315470Y-80288776D01*
X167308555Y-80289454D01*
X167191749Y-80324720D01*
X167074597Y-80358756D01*
X167068429Y-80361953D01*
X167061782Y-80363960D01*
X166954070Y-80421232D01*
X166845741Y-80477384D01*
X166840313Y-80481717D01*
X166834180Y-80484978D01*
X166739616Y-80562102D01*
X166660722Y-80625083D01*
X166643965Y-80584428D01*
X166479092Y-80336275D01*
X166269160Y-80124872D01*
X166022165Y-79958272D01*
X165747513Y-79842819D01*
X165455668Y-79782912D01*
X165157745Y-79780832D01*
X164865091Y-79836658D01*
X164588855Y-79948265D01*
X164339557Y-80111401D01*
X164126694Y-80319852D01*
X163958373Y-80565678D01*
X163841006Y-80839517D01*
X163779063Y-81130937D01*
X163774903Y-81428838D01*
X163828685Y-81721874D01*
X163938361Y-81998883D01*
X164099752Y-82249314D01*
X164306712Y-82463627D01*
X164551357Y-82633660D01*
X164619066Y-82663241D01*
X164144559Y-83137748D01*
X163762557Y-83059334D01*
X163251996Y-83055770D01*
X162750467Y-83151442D01*
X162277073Y-83342705D01*
X161849844Y-83622276D01*
X161485053Y-83979505D01*
X161196597Y-84400786D01*
X160995461Y-84870071D01*
X160889307Y-85369486D01*
X160882178Y-85880009D01*
X160902046Y-85988260D01*
X159990153Y-86900153D01*
X159912680Y-86994470D01*
X159834290Y-87087892D01*
X159830946Y-87093975D01*
X159826535Y-87099345D01*
X159814481Y-87121825D01*
X159717153Y-87219153D01*
X159639680Y-87313470D01*
X159561290Y-87406892D01*
X159557946Y-87412975D01*
X159553535Y-87418345D01*
X159495867Y-87525897D01*
X159437106Y-87632782D01*
X159435006Y-87639402D01*
X159431724Y-87645523D01*
X159396055Y-87762190D01*
X159359163Y-87878490D01*
X159358389Y-87885393D01*
X159356358Y-87892035D01*
X159344027Y-88013430D01*
X159330429Y-88134659D01*
X159330334Y-88148234D01*
X159330308Y-88148490D01*
X159330331Y-88148729D01*
X159330300Y-88153100D01*
X154022100Y-88153100D01*
X154022100Y-83890100D01*
X154020004Y-83868725D01*
X154021259Y-83847297D01*
X154009634Y-83762966D01*
X154001322Y-83678190D01*
X153995114Y-83657628D01*
X153992183Y-83636365D01*
X153964398Y-83555892D01*
X153939780Y-83474352D01*
X153929699Y-83455393D01*
X153922692Y-83435098D01*
X153879796Y-83361539D01*
X153839817Y-83286350D01*
X153826245Y-83269710D01*
X153815430Y-83251163D01*
X153759064Y-83187337D01*
X153705242Y-83121344D01*
X153688700Y-83107659D01*
X153674485Y-83091563D01*
X153606787Y-83039896D01*
X153541179Y-82985620D01*
X153522290Y-82975407D01*
X153505223Y-82962381D01*
X153428793Y-82924852D01*
X153353880Y-82884347D01*
X153333369Y-82877998D01*
X153314095Y-82868534D01*
X153231820Y-82846563D01*
X153150476Y-82821383D01*
X153129123Y-82819139D01*
X153108378Y-82813599D01*
X153023390Y-82808026D01*
X152938717Y-82799127D01*
X152917341Y-82801072D01*
X152895908Y-82799667D01*
X152880686Y-82800265D01*
X152292448Y-82827476D01*
X152376222Y-75275100D01*
X205696327Y-75275100D01*
X205612914Y-83212785D01*
X205612914Y-83212785D01*
G37*
X205612914Y-83212785D02*
X205170673Y-83220256D01*
X205076198Y-83231133D01*
X204981498Y-83240034D01*
X204970520Y-83243300D01*
X204959144Y-83244610D01*
X204868590Y-83273627D01*
X204777413Y-83300755D01*
X204767277Y-83306092D01*
X204756374Y-83309586D01*
X204673178Y-83355642D01*
X204589011Y-83399961D01*
X204580106Y-83407164D01*
X204570088Y-83412710D01*
X204497416Y-83474052D01*
X204423464Y-83533872D01*
X204416129Y-83542667D01*
X204407378Y-83550053D01*
X204348014Y-83624332D01*
X204287081Y-83697387D01*
X204281591Y-83707444D01*
X204274445Y-83716385D01*
X204230647Y-83800762D01*
X204185056Y-83884277D01*
X204181625Y-83895206D01*
X204176350Y-83905368D01*
X204149762Y-83996693D01*
X204121275Y-84087426D01*
X204120033Y-84098806D01*
X204116830Y-84109806D01*
X204108487Y-84204559D01*
X204098166Y-84299094D01*
X204098105Y-84314328D01*
X204203105Y-119807327D01*
X204206666Y-119842573D01*
X204205605Y-119877982D01*
X204217346Y-119948270D01*
X204224510Y-120019175D01*
X204234850Y-120053060D01*
X204240686Y-120087999D01*
X204265853Y-120154663D01*
X204286654Y-120222830D01*
X204303378Y-120254060D01*
X204315890Y-120287202D01*
X204353534Y-120347719D01*
X204387173Y-120410535D01*
X204409642Y-120437919D01*
X204428355Y-120468002D01*
X204477036Y-120520055D01*
X204522236Y-120575142D01*
X204549594Y-120597639D01*
X204573796Y-120623517D01*
X204631663Y-120665124D01*
X204686699Y-120710381D01*
X204717909Y-120727137D01*
X204746673Y-120747819D01*
X204811513Y-120777391D01*
X204874297Y-120811099D01*
X204908168Y-120821474D01*
X204940401Y-120836175D01*
X205009750Y-120852590D01*
X205077887Y-120873461D01*
X205113129Y-120877060D01*
X205147601Y-120885219D01*
X205218824Y-120887852D01*
X205289710Y-120895090D01*
X205324970Y-120891776D01*
X205360382Y-120893085D01*
X205375580Y-120892053D01*
X205605100Y-120874864D01*
X205605100Y-128569691D01*
X152448961Y-128716223D01*
X152531380Y-121303934D01*
X152890387Y-121317340D01*
X152906967Y-121316337D01*
X152923483Y-121318073D01*
X153013097Y-121309918D01*
X153102925Y-121304484D01*
X153118993Y-121300280D01*
X153135533Y-121298775D01*
X153221854Y-121273370D01*
X153308918Y-121250592D01*
X153323864Y-121243347D01*
X153339796Y-121238658D01*
X153419547Y-121196965D01*
X153500519Y-121157714D01*
X153513772Y-121147705D01*
X153528491Y-121140010D01*
X153598627Y-121083620D01*
X153670432Y-121029390D01*
X153681487Y-121016998D01*
X153694433Y-121006590D01*
X153752287Y-120937642D01*
X153812184Y-120870506D01*
X153820622Y-120856204D01*
X153831299Y-120843479D01*
X153874658Y-120764609D01*
X153920375Y-120687117D01*
X153925874Y-120671449D01*
X153933877Y-120656891D01*
X153961090Y-120571105D01*
X153990886Y-120486204D01*
X153993237Y-120469763D01*
X153998259Y-120453932D01*
X154008291Y-120364496D01*
X154021029Y-120275423D01*
X154020142Y-120258842D01*
X154021994Y-120242333D01*
X154022100Y-120227100D01*
X154022100Y-88153100D01*
X159330300Y-88153100D01*
X159330300Y-114929700D01*
X159342206Y-115051128D01*
X159352839Y-115172663D01*
X159354776Y-115179330D01*
X159355454Y-115186245D01*
X159390720Y-115303051D01*
X159424756Y-115420203D01*
X159427953Y-115426371D01*
X159429960Y-115433018D01*
X159487232Y-115540730D01*
X159543384Y-115649059D01*
X159547717Y-115654487D01*
X159550978Y-115660620D01*
X159628102Y-115755184D01*
X159704205Y-115850516D01*
X159713739Y-115860184D01*
X159713899Y-115860381D01*
X159714081Y-115860531D01*
X159717153Y-115863647D01*
X160844687Y-116991181D01*
X160767507Y-117354286D01*
X160760378Y-117864809D01*
X160852546Y-118366994D01*
X161040500Y-118841713D01*
X161317082Y-119270883D01*
X161671755Y-119638158D01*
X162091012Y-119929549D01*
X162558882Y-120133956D01*
X163057544Y-120243594D01*
X163568004Y-120254287D01*
X164026881Y-120173375D01*
X166568553Y-122715047D01*
X166662870Y-122792520D01*
X166756292Y-122870910D01*
X166762375Y-122874254D01*
X166767745Y-122878665D01*
X166875297Y-122936333D01*
X166982182Y-122995094D01*
X166988802Y-122997194D01*
X166994923Y-123000476D01*
X167111590Y-123036145D01*
X167227890Y-123073037D01*
X167234793Y-123073811D01*
X167241435Y-123075842D01*
X167362830Y-123088173D01*
X167484059Y-123101771D01*
X167497634Y-123101866D01*
X167497890Y-123101892D01*
X167498129Y-123101869D01*
X167502500Y-123101900D01*
X193503100Y-123101900D01*
X193624528Y-123089994D01*
X193746063Y-123079361D01*
X193752730Y-123077424D01*
X193759645Y-123076746D01*
X193876451Y-123041480D01*
X193993603Y-123007444D01*
X193999771Y-123004247D01*
X194006418Y-123002240D01*
X194114130Y-122944968D01*
X194222459Y-122888816D01*
X194227887Y-122884483D01*
X194234020Y-122881222D01*
X194328584Y-122804098D01*
X194423916Y-122727995D01*
X194433584Y-122718461D01*
X194433781Y-122718301D01*
X194433931Y-122718119D01*
X194437047Y-122715047D01*
X196314047Y-120838047D01*
X196391520Y-120743730D01*
X196469910Y-120650308D01*
X196473254Y-120644225D01*
X196477665Y-120638855D01*
X196535333Y-120531303D01*
X196594094Y-120424418D01*
X196596194Y-120417798D01*
X196599476Y-120411677D01*
X196635145Y-120295010D01*
X196672037Y-120178710D01*
X196672811Y-120171807D01*
X196674842Y-120165165D01*
X196687173Y-120043770D01*
X196700771Y-119922541D01*
X196700866Y-119908966D01*
X196700892Y-119908710D01*
X196700869Y-119908471D01*
X196700900Y-119904100D01*
X196700900Y-119856544D01*
X196990730Y-119672613D01*
X197360472Y-119320512D01*
X197654783Y-118903300D01*
X197862452Y-118436868D01*
X197975568Y-117938984D01*
X197983711Y-117355814D01*
X197884541Y-116854965D01*
X197689977Y-116382917D01*
X197619008Y-116276100D01*
X197909208Y-116276100D01*
X198457100Y-116823992D01*
X198457100Y-120521100D01*
X198477704Y-120731234D01*
X198496110Y-120941612D01*
X198499464Y-120953156D01*
X198500637Y-120965120D01*
X198561675Y-121167287D01*
X198620582Y-121370047D01*
X198626113Y-121380718D01*
X198629588Y-121392227D01*
X198728725Y-121578678D01*
X198825899Y-121766145D01*
X198833399Y-121775540D01*
X198839042Y-121786153D01*
X198972507Y-121949798D01*
X199104242Y-122114819D01*
X199120737Y-122131546D01*
X199121021Y-122131894D01*
X199121343Y-122132161D01*
X199126654Y-122137546D01*
X200071654Y-123082546D01*
X200416409Y-123365730D01*
X200809601Y-123576559D01*
X201236255Y-123707000D01*
X201680120Y-123752087D01*
X202124290Y-123710100D01*
X202551844Y-123582640D01*
X202946499Y-123374562D01*
X203293222Y-123093791D01*
X203578807Y-122751023D01*
X203792374Y-122359311D01*
X203925791Y-121933578D01*
X203973975Y-121490039D01*
X203935090Y-121045588D01*
X203810618Y-120617153D01*
X203605301Y-120221056D01*
X203326958Y-119872381D01*
X203304546Y-119849654D01*
X203029100Y-119574208D01*
X203029100Y-115877100D01*
X203008496Y-115666966D01*
X202990090Y-115456588D01*
X202986736Y-115445044D01*
X202985563Y-115433080D01*
X202924525Y-115230913D01*
X202865618Y-115028153D01*
X202860087Y-115017482D01*
X202856612Y-115005973D01*
X202757475Y-114819522D01*
X202660301Y-114632055D01*
X202652801Y-114622660D01*
X202647158Y-114612047D01*
X202513693Y-114448402D01*
X202381958Y-114283381D01*
X202365463Y-114266654D01*
X202365179Y-114266306D01*
X202364857Y-114266039D01*
X202359546Y-114260654D01*
X200472546Y-112373654D01*
X200309407Y-112239650D01*
X200147615Y-112103891D01*
X200137077Y-112098098D01*
X200127791Y-112090470D01*
X199941724Y-111990701D01*
X199756651Y-111888957D01*
X199745192Y-111885322D01*
X199734599Y-111879642D01*
X199532643Y-111817898D01*
X199331386Y-111754055D01*
X199319443Y-111752715D01*
X199307945Y-111749200D01*
X199097834Y-111727858D01*
X198888018Y-111704323D01*
X198864521Y-111704159D01*
X198864080Y-111704114D01*
X198863669Y-111704153D01*
X198856100Y-111704100D01*
X192870628Y-111704100D01*
X192847949Y-111685338D01*
X192736273Y-111624955D01*
X192629379Y-111552854D01*
X192510516Y-111502889D01*
X192398841Y-111442506D01*
X192277564Y-111404965D01*
X192158701Y-111354999D01*
X192032396Y-111329072D01*
X191911120Y-111291531D01*
X191784863Y-111278261D01*
X191658557Y-111252334D01*
X191529619Y-111251434D01*
X191403363Y-111238164D01*
X191276933Y-111249670D01*
X191147996Y-111248770D01*
X191021341Y-111272931D01*
X190894910Y-111284437D01*
X190773121Y-111320281D01*
X190646467Y-111344442D01*
X190526919Y-111392742D01*
X190405129Y-111428587D01*
X190292624Y-111487404D01*
X190173073Y-111535705D01*
X190065177Y-111606310D01*
X189952675Y-111665125D01*
X189853738Y-111744672D01*
X189745844Y-111815276D01*
X189653720Y-111905490D01*
X189554781Y-111985039D01*
X189473177Y-112082290D01*
X189381053Y-112172505D01*
X189308207Y-112278894D01*
X189226603Y-112376146D01*
X189165440Y-112487400D01*
X189115975Y-112559643D01*
X186615518Y-115060100D01*
X172446882Y-115060100D01*
X169303291Y-111916509D01*
X169208683Y-111838796D01*
X169121063Y-111750563D01*
X169021781Y-111683596D01*
X168931454Y-111607803D01*
X168919402Y-111601178D01*
X168908770Y-111592444D01*
X168853264Y-111562682D01*
X167200991Y-109910409D01*
X168733578Y-109910409D01*
X168825746Y-110412594D01*
X169013700Y-110887313D01*
X169290282Y-111316483D01*
X169644955Y-111683758D01*
X170064212Y-111975149D01*
X170532082Y-112179556D01*
X171030744Y-112289194D01*
X171541204Y-112299887D01*
X172044020Y-112211227D01*
X172520039Y-112026591D01*
X172951130Y-111753013D01*
X173320872Y-111400912D01*
X173615183Y-110983700D01*
X173822852Y-110517268D01*
X173923613Y-110073763D01*
X177146729Y-110073763D01*
X177221362Y-110480410D01*
X177373559Y-110864817D01*
X177597523Y-111212340D01*
X177884722Y-111509744D01*
X178224218Y-111745699D01*
X178603078Y-111911219D01*
X179006873Y-111999999D01*
X179420222Y-112008658D01*
X179827380Y-111936865D01*
X180212839Y-111787355D01*
X180561918Y-111565823D01*
X180861319Y-111280707D01*
X181099639Y-110942867D01*
X181267800Y-110565171D01*
X181359397Y-110162006D01*
X181363278Y-109884009D01*
X184895178Y-109884009D01*
X184987346Y-110386194D01*
X185175300Y-110860913D01*
X185451882Y-111290083D01*
X185806555Y-111657358D01*
X186225812Y-111948749D01*
X186693682Y-112153156D01*
X187192344Y-112262794D01*
X187702804Y-112273487D01*
X188205620Y-112184827D01*
X188681639Y-112000191D01*
X189112730Y-111726613D01*
X189482472Y-111374512D01*
X189776783Y-110957300D01*
X189984452Y-110490868D01*
X190097568Y-109992984D01*
X190105711Y-109409814D01*
X190006541Y-108908965D01*
X189811977Y-108436917D01*
X189529430Y-108011650D01*
X189169663Y-107649363D01*
X188746379Y-107363854D01*
X188275701Y-107165999D01*
X187775557Y-107063334D01*
X187264996Y-107059770D01*
X186763467Y-107155442D01*
X186290073Y-107346705D01*
X185862844Y-107626276D01*
X185498053Y-107983505D01*
X185209597Y-108404786D01*
X185008461Y-108874071D01*
X184902307Y-109373486D01*
X184895178Y-109884009D01*
X181363278Y-109884009D01*
X181365991Y-109689780D01*
X181285687Y-109284215D01*
X181128137Y-108901971D01*
X180899343Y-108557608D01*
X180608020Y-108264244D01*
X180265263Y-108033052D01*
X179884128Y-107872837D01*
X179479133Y-107789704D01*
X179065704Y-107786817D01*
X178659588Y-107864288D01*
X178276253Y-108019165D01*
X177930302Y-108245550D01*
X177634911Y-108534818D01*
X177401331Y-108875953D01*
X177238460Y-109255959D01*
X177152501Y-109660364D01*
X177146729Y-110073763D01*
X173923613Y-110073763D01*
X173935968Y-110019384D01*
X173944111Y-109436214D01*
X173844941Y-108935365D01*
X173650377Y-108463317D01*
X173367830Y-108038050D01*
X173008063Y-107675763D01*
X172584779Y-107390254D01*
X172114101Y-107192399D01*
X171613957Y-107089734D01*
X171103396Y-107086170D01*
X170601867Y-107181842D01*
X170128473Y-107373105D01*
X169701244Y-107652676D01*
X169336453Y-108009905D01*
X169047997Y-108431186D01*
X168846861Y-108900471D01*
X168740707Y-109399886D01*
X168733578Y-109910409D01*
X167200991Y-109910409D01*
X166400100Y-109109518D01*
X166400100Y-102097363D01*
X169196729Y-102097363D01*
X169271362Y-102504010D01*
X169423559Y-102888417D01*
X169647523Y-103235940D01*
X169934722Y-103533344D01*
X170274218Y-103769299D01*
X170653078Y-103934819D01*
X171056873Y-104023599D01*
X171470222Y-104032258D01*
X171877380Y-103960465D01*
X172262839Y-103810955D01*
X172611918Y-103589423D01*
X172911319Y-103304307D01*
X173149639Y-102966467D01*
X173317800Y-102588771D01*
X173409397Y-102185606D01*
X173410629Y-102097363D01*
X185198729Y-102097363D01*
X185273362Y-102504010D01*
X185425559Y-102888417D01*
X185649523Y-103235940D01*
X185936722Y-103533344D01*
X186276218Y-103769299D01*
X186655078Y-103934819D01*
X187058873Y-104023599D01*
X187472222Y-104032258D01*
X187879380Y-103960465D01*
X188264839Y-103810955D01*
X188613918Y-103589423D01*
X188913319Y-103304307D01*
X189151639Y-102966467D01*
X189319800Y-102588771D01*
X189411397Y-102185606D01*
X189417991Y-101713380D01*
X189337687Y-101307815D01*
X189180137Y-100925571D01*
X188951343Y-100581208D01*
X188660020Y-100287844D01*
X188317263Y-100056652D01*
X187936128Y-99896437D01*
X187531133Y-99813304D01*
X187117704Y-99810417D01*
X186711588Y-99887888D01*
X186328253Y-100042765D01*
X185982302Y-100269150D01*
X185686911Y-100558418D01*
X185453331Y-100899553D01*
X185290460Y-101279559D01*
X185204501Y-101683964D01*
X185198729Y-102097363D01*
X173410629Y-102097363D01*
X173415991Y-101713380D01*
X173335687Y-101307815D01*
X173178137Y-100925571D01*
X172949343Y-100581208D01*
X172658020Y-100287844D01*
X172315263Y-100056652D01*
X171934128Y-99896437D01*
X171529133Y-99813304D01*
X171115704Y-99810417D01*
X170709588Y-99887888D01*
X170326253Y-100042765D01*
X169980302Y-100269150D01*
X169684911Y-100558418D01*
X169451331Y-100899553D01*
X169288460Y-101279559D01*
X169202501Y-101683964D01*
X169196729Y-102097363D01*
X166400100Y-102097363D01*
X166400100Y-94494682D01*
X166978773Y-93916009D01*
X168864178Y-93916009D01*
X168956346Y-94418194D01*
X169144300Y-94892913D01*
X169420882Y-95322083D01*
X169775555Y-95689358D01*
X170194812Y-95980749D01*
X170662682Y-96185156D01*
X171161344Y-96294794D01*
X171671804Y-96305487D01*
X172174620Y-96216827D01*
X172650639Y-96032191D01*
X173081730Y-95758613D01*
X173451472Y-95406512D01*
X173745783Y-94989300D01*
X173953452Y-94522868D01*
X174050351Y-94096363D01*
X177197729Y-94096363D01*
X177272362Y-94503010D01*
X177424559Y-94887417D01*
X177648523Y-95234940D01*
X177935722Y-95532344D01*
X178275218Y-95768299D01*
X178654078Y-95933819D01*
X179057873Y-96022599D01*
X179471222Y-96031258D01*
X179878380Y-95959465D01*
X180263839Y-95809955D01*
X180612918Y-95588423D01*
X180912319Y-95303307D01*
X181150639Y-94965467D01*
X181318800Y-94587771D01*
X181410397Y-94184606D01*
X181414468Y-93893009D01*
X184718178Y-93893009D01*
X184810346Y-94395194D01*
X184998300Y-94869913D01*
X185274882Y-95299083D01*
X185629555Y-95666358D01*
X186048812Y-95957749D01*
X186516682Y-96162156D01*
X187015344Y-96271794D01*
X187525804Y-96282487D01*
X188028620Y-96193827D01*
X188504639Y-96009191D01*
X188935730Y-95735613D01*
X189305472Y-95383512D01*
X189599783Y-94966300D01*
X189807452Y-94499868D01*
X189920568Y-94001984D01*
X189928711Y-93418814D01*
X189829541Y-92917965D01*
X189634977Y-92445917D01*
X189352430Y-92020650D01*
X188992663Y-91658363D01*
X188569379Y-91372854D01*
X188098701Y-91174999D01*
X187598557Y-91072334D01*
X187087996Y-91068770D01*
X186586467Y-91164442D01*
X186113073Y-91355705D01*
X185685844Y-91635276D01*
X185321053Y-91992505D01*
X185032597Y-92413786D01*
X184831461Y-92883071D01*
X184725307Y-93382486D01*
X184718178Y-93893009D01*
X181414468Y-93893009D01*
X181416991Y-93712380D01*
X181336687Y-93306815D01*
X181179137Y-92924571D01*
X180950343Y-92580208D01*
X180659020Y-92286844D01*
X180316263Y-92055652D01*
X179935128Y-91895437D01*
X179530133Y-91812304D01*
X179116704Y-91809417D01*
X178710588Y-91886888D01*
X178327253Y-92041765D01*
X177981302Y-92268150D01*
X177685911Y-92557418D01*
X177452331Y-92898553D01*
X177289460Y-93278559D01*
X177203501Y-93682964D01*
X177197729Y-94096363D01*
X174050351Y-94096363D01*
X174066568Y-94024984D01*
X174074711Y-93441814D01*
X173975541Y-92940965D01*
X173780977Y-92468917D01*
X173498430Y-92043650D01*
X173138663Y-91681363D01*
X172715379Y-91395854D01*
X172244701Y-91197999D01*
X171744557Y-91095334D01*
X171233996Y-91091770D01*
X170732467Y-91187442D01*
X170259073Y-91378705D01*
X169831844Y-91658276D01*
X169467053Y-92015505D01*
X169178597Y-92436786D01*
X168977461Y-92906071D01*
X168871307Y-93405486D01*
X168864178Y-93916009D01*
X166978773Y-93916009D01*
X172398682Y-88496100D01*
X186321980Y-88496100D01*
X186389662Y-88580884D01*
X186408540Y-88600027D01*
X186408863Y-88600423D01*
X186409230Y-88600726D01*
X186415309Y-88606891D01*
X189461508Y-91653091D01*
X189648233Y-91806469D01*
X189833346Y-91961797D01*
X189845401Y-91968424D01*
X189856030Y-91977155D01*
X190068962Y-92091328D01*
X190280748Y-92207758D01*
X190293863Y-92211918D01*
X190305983Y-92218417D01*
X190537030Y-92289055D01*
X190767403Y-92362134D01*
X190781074Y-92363667D01*
X190794228Y-92367689D01*
X191034624Y-92392108D01*
X191084647Y-92397719D01*
X191099544Y-92400994D01*
X191117132Y-92401362D01*
X191274775Y-92419045D01*
X191301663Y-92419233D01*
X191302168Y-92419284D01*
X191302638Y-92419240D01*
X191311300Y-92419300D01*
X191409300Y-92419300D01*
X191508607Y-92409563D01*
X191610004Y-92411687D01*
X191764151Y-92384507D01*
X191917417Y-92369479D01*
X192012942Y-92340638D01*
X192112820Y-92323027D01*
X192258755Y-92266423D01*
X192406180Y-92221912D01*
X192494283Y-92175067D01*
X192588839Y-92138391D01*
X192720998Y-92054521D01*
X192856972Y-91982222D01*
X192934297Y-91919157D01*
X193019930Y-91864813D01*
X193133283Y-91756869D01*
X193252623Y-91659537D01*
X193316228Y-91582652D01*
X193389672Y-91512712D01*
X193479897Y-91384810D01*
X193578062Y-91266149D01*
X193625522Y-91178374D01*
X193683983Y-91095500D01*
X193747647Y-90952508D01*
X193820894Y-90817041D01*
X193850401Y-90721719D01*
X193891652Y-90629068D01*
X193926329Y-90476435D01*
X193971869Y-90329320D01*
X193982299Y-90230080D01*
X194004768Y-90131184D01*
X194006618Y-89998704D01*
X194025236Y-89821563D01*
X194011239Y-89667762D01*
X194012911Y-89548014D01*
X193989649Y-89430533D01*
X193978963Y-89313110D01*
X193940569Y-89182659D01*
X193913741Y-89047165D01*
X193868103Y-88936438D01*
X193834813Y-88823329D01*
X193771813Y-88702821D01*
X193719177Y-88575117D01*
X193652899Y-88475361D01*
X193598275Y-88370875D01*
X193513069Y-88264900D01*
X193436630Y-88149850D01*
X193352243Y-88064872D01*
X193278361Y-87972981D01*
X193174186Y-87885568D01*
X193076863Y-87787563D01*
X192977581Y-87720596D01*
X192887254Y-87644803D01*
X192809812Y-87602229D01*
X190373316Y-85165734D01*
X190291302Y-85065174D01*
X190140538Y-84876316D01*
X190121660Y-84857173D01*
X190121337Y-84856777D01*
X190120970Y-84856474D01*
X190114891Y-84850309D01*
X189294891Y-84030309D01*
X189108164Y-83876929D01*
X188923054Y-83721603D01*
X188911002Y-83714978D01*
X188900370Y-83706244D01*
X188687383Y-83592042D01*
X188475652Y-83475642D01*
X188462539Y-83471482D01*
X188450416Y-83464982D01*
X188219338Y-83394335D01*
X187988997Y-83321266D01*
X187975326Y-83319733D01*
X187962172Y-83315711D01*
X187721776Y-83291292D01*
X187481625Y-83264355D01*
X187454737Y-83264167D01*
X187454232Y-83264116D01*
X187453762Y-83264160D01*
X187445100Y-83264100D01*
X171315100Y-83264100D01*
X171074619Y-83287679D01*
X170833883Y-83308741D01*
X170820674Y-83312579D01*
X170806983Y-83313921D01*
X170575666Y-83383760D01*
X170343602Y-83451181D01*
X170331387Y-83457513D01*
X170318220Y-83461488D01*
X170104879Y-83574923D01*
X169890324Y-83686138D01*
X169879573Y-83694720D01*
X169867428Y-83701178D01*
X169680174Y-83853898D01*
X169491316Y-84004662D01*
X169472173Y-84023540D01*
X169471777Y-84023863D01*
X169471474Y-84024230D01*
X169465309Y-84030309D01*
X161971900Y-91523718D01*
X161971900Y-88676374D01*
X162013910Y-88626308D01*
X162017253Y-88620227D01*
X162021665Y-88614856D01*
X162033719Y-88592375D01*
X162538887Y-88087207D01*
X162680682Y-88149156D01*
X163179344Y-88258794D01*
X163689804Y-88269487D01*
X164192620Y-88180827D01*
X164668639Y-87996191D01*
X165099730Y-87722613D01*
X165469472Y-87370512D01*
X165763783Y-86953300D01*
X165971452Y-86486868D01*
X166084568Y-85988984D01*
X166092711Y-85405814D01*
X166013306Y-85004787D01*
X167552975Y-83465118D01*
X167553047Y-83465047D01*
X168112194Y-82905900D01*
X190739206Y-82905900D01*
X192856687Y-85023381D01*
X192779507Y-85386486D01*
X192772378Y-85897009D01*
X192864546Y-86399194D01*
X193052500Y-86873913D01*
X193329082Y-87303083D01*
X193683755Y-87670358D01*
X194103012Y-87961749D01*
X194570882Y-88166156D01*
X195069544Y-88275794D01*
X195580004Y-88286487D01*
X196082820Y-88197827D01*
X196558839Y-88013191D01*
X196989930Y-87739613D01*
X197359672Y-87387512D01*
X197393118Y-87340100D01*
X199791100Y-87340100D01*
X199942918Y-87325214D01*
X200094803Y-87311926D01*
X200103138Y-87309504D01*
X200111781Y-87308657D01*
X200257827Y-87264563D01*
X200404228Y-87222030D01*
X200411933Y-87218036D01*
X200420247Y-87215526D01*
X200554924Y-87143916D01*
X200690299Y-87073745D01*
X200697084Y-87068328D01*
X200704749Y-87064253D01*
X200822914Y-86967880D01*
X200942119Y-86872720D01*
X200954202Y-86860804D01*
X200954451Y-86860601D01*
X200954642Y-86860370D01*
X200958533Y-86856533D01*
X201596533Y-86218533D01*
X201693322Y-86100701D01*
X201791362Y-85983861D01*
X201795545Y-85976252D01*
X201801055Y-85969544D01*
X201873129Y-85835126D01*
X201946592Y-85701498D01*
X201949216Y-85693226D01*
X201953320Y-85685572D01*
X201997906Y-85539738D01*
X202044022Y-85394362D01*
X202044990Y-85385731D01*
X202047527Y-85377433D01*
X202062935Y-85225748D01*
X202079939Y-85074152D01*
X202080058Y-85057183D01*
X202080090Y-85056863D01*
X202080062Y-85056565D01*
X202080100Y-85051100D01*
X202080100Y-84685100D01*
X202048657Y-84364419D01*
X201955526Y-84055953D01*
X201804253Y-83771451D01*
X201600601Y-83521749D01*
X201352327Y-83316359D01*
X201068888Y-83163104D01*
X200761080Y-83067821D01*
X200440626Y-83034140D01*
X200119733Y-83063344D01*
X199810625Y-83154319D01*
X199525073Y-83303602D01*
X199273956Y-83505506D01*
X199066838Y-83752339D01*
X198911608Y-84034702D01*
X198910530Y-84038100D01*
X197415566Y-84038100D01*
X197406630Y-84024650D01*
X197046863Y-83662363D01*
X196623579Y-83376854D01*
X196152901Y-83178999D01*
X195652757Y-83076334D01*
X195142196Y-83072770D01*
X194722018Y-83152924D01*
X192220247Y-80651153D01*
X192125930Y-80573680D01*
X192032508Y-80495290D01*
X192026425Y-80491946D01*
X192021055Y-80487535D01*
X191913503Y-80429867D01*
X191806618Y-80371106D01*
X191799998Y-80369006D01*
X191793877Y-80365724D01*
X191677210Y-80330055D01*
X191560910Y-80293163D01*
X191554007Y-80292389D01*
X191547365Y-80290358D01*
X191425970Y-80278027D01*
X191304741Y-80264429D01*
X191291166Y-80264334D01*
X191290910Y-80264308D01*
X191290671Y-80264331D01*
X191286300Y-80264300D01*
X167565100Y-80264300D01*
X167443672Y-80276206D01*
X167322137Y-80286839D01*
X167315470Y-80288776D01*
X167308555Y-80289454D01*
X167191749Y-80324720D01*
X167074597Y-80358756D01*
X167068429Y-80361953D01*
X167061782Y-80363960D01*
X166954070Y-80421232D01*
X166845741Y-80477384D01*
X166840313Y-80481717D01*
X166834180Y-80484978D01*
X166739616Y-80562102D01*
X166660722Y-80625083D01*
X166643965Y-80584428D01*
X166479092Y-80336275D01*
X166269160Y-80124872D01*
X166022165Y-79958272D01*
X165747513Y-79842819D01*
X165455668Y-79782912D01*
X165157745Y-79780832D01*
X164865091Y-79836658D01*
X164588855Y-79948265D01*
X164339557Y-80111401D01*
X164126694Y-80319852D01*
X163958373Y-80565678D01*
X163841006Y-80839517D01*
X163779063Y-81130937D01*
X163774903Y-81428838D01*
X163828685Y-81721874D01*
X163938361Y-81998883D01*
X164099752Y-82249314D01*
X164306712Y-82463627D01*
X164551357Y-82633660D01*
X164619066Y-82663241D01*
X164144559Y-83137748D01*
X163762557Y-83059334D01*
X163251996Y-83055770D01*
X162750467Y-83151442D01*
X162277073Y-83342705D01*
X161849844Y-83622276D01*
X161485053Y-83979505D01*
X161196597Y-84400786D01*
X160995461Y-84870071D01*
X160889307Y-85369486D01*
X160882178Y-85880009D01*
X160902046Y-85988260D01*
X159990153Y-86900153D01*
X159912680Y-86994470D01*
X159834290Y-87087892D01*
X159830946Y-87093975D01*
X159826535Y-87099345D01*
X159814481Y-87121825D01*
X159717153Y-87219153D01*
X159639680Y-87313470D01*
X159561290Y-87406892D01*
X159557946Y-87412975D01*
X159553535Y-87418345D01*
X159495867Y-87525897D01*
X159437106Y-87632782D01*
X159435006Y-87639402D01*
X159431724Y-87645523D01*
X159396055Y-87762190D01*
X159359163Y-87878490D01*
X159358389Y-87885393D01*
X159356358Y-87892035D01*
X159344027Y-88013430D01*
X159330429Y-88134659D01*
X159330334Y-88148234D01*
X159330308Y-88148490D01*
X159330331Y-88148729D01*
X159330300Y-88153100D01*
X154022100Y-88153100D01*
X154022100Y-83890100D01*
X154020004Y-83868725D01*
X154021259Y-83847297D01*
X154009634Y-83762966D01*
X154001322Y-83678190D01*
X153995114Y-83657628D01*
X153992183Y-83636365D01*
X153964398Y-83555892D01*
X153939780Y-83474352D01*
X153929699Y-83455393D01*
X153922692Y-83435098D01*
X153879796Y-83361539D01*
X153839817Y-83286350D01*
X153826245Y-83269710D01*
X153815430Y-83251163D01*
X153759064Y-83187337D01*
X153705242Y-83121344D01*
X153688700Y-83107659D01*
X153674485Y-83091563D01*
X153606787Y-83039896D01*
X153541179Y-82985620D01*
X153522290Y-82975407D01*
X153505223Y-82962381D01*
X153428793Y-82924852D01*
X153353880Y-82884347D01*
X153333369Y-82877998D01*
X153314095Y-82868534D01*
X153231820Y-82846563D01*
X153150476Y-82821383D01*
X153129123Y-82819139D01*
X153108378Y-82813599D01*
X153023390Y-82808026D01*
X152938717Y-82799127D01*
X152917341Y-82801072D01*
X152895908Y-82799667D01*
X152880686Y-82800265D01*
X152292448Y-82827476D01*
X152376222Y-75275100D01*
X205696327Y-75275100D01*
X205612914Y-83212785D01*
M02*
