G04 #@! TF.FileFunction,Other,Comment*
%FSLAX46Y46*%
G04 Gerber Fmt 4.6, Leading zero omitted, Abs format (unit mm)*
G04 Created by KiCad (PCBNEW 4.0.6) date 05/08/17 07:31:19*
%MOMM*%
%LPD*%
G01*
G04 APERTURE LIST*
%ADD10C,0.100000*%
%ADD11C,0.254000*%
%ADD12C,0.080000*%
G04 APERTURE END LIST*
D10*
D11*
X192020100Y-113854100D02*
G75*
G03X192020100Y-113854100I-635000J0D01*
G01*
X168011100Y-89819100D02*
G75*
G03X168011100Y-89819100I-635000J0D01*
G01*
X172106100Y-93697100D02*
G75*
G03X172106100Y-93697100I-635000J0D01*
G01*
X188137100Y-109665100D02*
G75*
G03X188137100Y-109665100I-635000J0D01*
G01*
X196015100Y-117611100D02*
G75*
G03X196015100Y-117611100I-635000J0D01*
G01*
X164124100Y-85661100D02*
G75*
G03X164124100Y-85661100I-635000J0D01*
G01*
X187960100Y-93674100D02*
G75*
G03X187960100Y-93674100I-635000J0D01*
G01*
X171975500Y-109691500D02*
G75*
G03X171975500Y-109691500I-635000J0D01*
G01*
X168088500Y-113766300D02*
G75*
G03X168088500Y-113766300I-635000J0D01*
G01*
X192044300Y-89803300D02*
G75*
G03X192044300Y-89803300I-635000J0D01*
G01*
X164002300Y-117645900D02*
G75*
G03X164002300Y-117645900I-635000J0D01*
G01*
X196014300Y-85678100D02*
G75*
G03X196014300Y-85678100I-635000J0D01*
G01*
D12*
X203283890Y-114144729D02*
X204007700Y-114416157D01*
X203283890Y-114687586D01*
X204324366Y-113828062D02*
X204867223Y-113828062D01*
X204595795Y-114778062D02*
X204595795Y-113828062D01*
X205183890Y-114778062D02*
X205183890Y-113828062D01*
X205545795Y-113828062D01*
X205636271Y-113873300D01*
X205681510Y-113918538D01*
X205726748Y-114009014D01*
X205726748Y-114144729D01*
X205681510Y-114235205D01*
X205636271Y-114280443D01*
X205545795Y-114325681D01*
X205183890Y-114325681D01*
X205907700Y-114868538D02*
X206631510Y-114868538D01*
X206812462Y-114732824D02*
X206948177Y-114778062D01*
X207174367Y-114778062D01*
X207264843Y-114732824D01*
X207310081Y-114687586D01*
X207355320Y-114597110D01*
X207355320Y-114506633D01*
X207310081Y-114416157D01*
X207264843Y-114370919D01*
X207174367Y-114325681D01*
X206993415Y-114280443D01*
X206902939Y-114235205D01*
X206857700Y-114189967D01*
X206812462Y-114099490D01*
X206812462Y-114009014D01*
X206857700Y-113918538D01*
X206902939Y-113873300D01*
X206993415Y-113828062D01*
X207219605Y-113828062D01*
X207355320Y-113873300D01*
X207762462Y-114778062D02*
X207762462Y-113828062D01*
X208712463Y-113873300D02*
X208621986Y-113828062D01*
X208486272Y-113828062D01*
X208350558Y-113873300D01*
X208260082Y-113963776D01*
X208214843Y-114054252D01*
X208169605Y-114235205D01*
X208169605Y-114370919D01*
X208214843Y-114551871D01*
X208260082Y-114642348D01*
X208350558Y-114732824D01*
X208486272Y-114778062D01*
X208576748Y-114778062D01*
X208712463Y-114732824D01*
X208757701Y-114687586D01*
X208757701Y-114370919D01*
X208576748Y-114370919D01*
X209164843Y-114778062D02*
X209164843Y-113828062D01*
X209707701Y-114778062D01*
X209707701Y-113828062D01*
X210114843Y-114506633D02*
X210567224Y-114506633D01*
X210024367Y-114778062D02*
X210341034Y-113828062D01*
X210657701Y-114778062D01*
X211426748Y-114778062D02*
X210974367Y-114778062D01*
X210974367Y-113828062D01*
X211517225Y-114868538D02*
X212241035Y-114868538D01*
X212467225Y-114778062D02*
X212467225Y-113828062D01*
X213010083Y-114778062D01*
X213010083Y-113828062D01*
X213417225Y-114506633D02*
X213869606Y-114506633D01*
X213326749Y-114778062D02*
X213643416Y-113828062D01*
X213960083Y-114778062D01*
X214276749Y-114778062D02*
X214276749Y-113828062D01*
X214593416Y-114506633D01*
X214910083Y-113828062D01*
X214910083Y-114778062D01*
X215362463Y-114280443D02*
X215679130Y-114280443D01*
X215814844Y-114778062D02*
X215362463Y-114778062D01*
X215362463Y-113828062D01*
X215814844Y-113828062D01*
X205239690Y-122018729D02*
X205963500Y-122290157D01*
X205239690Y-122561586D01*
X206280166Y-121702062D02*
X206823023Y-121702062D01*
X206551595Y-122652062D02*
X206551595Y-121702062D01*
X207139690Y-122652062D02*
X207139690Y-121702062D01*
X207501595Y-121702062D01*
X207592071Y-121747300D01*
X207637310Y-121792538D01*
X207682548Y-121883014D01*
X207682548Y-122018729D01*
X207637310Y-122109205D01*
X207592071Y-122154443D01*
X207501595Y-122199681D01*
X207139690Y-122199681D01*
X207863500Y-122742538D02*
X208587310Y-122742538D01*
X208768262Y-122606824D02*
X208903977Y-122652062D01*
X209130167Y-122652062D01*
X209220643Y-122606824D01*
X209265881Y-122561586D01*
X209311120Y-122471110D01*
X209311120Y-122380633D01*
X209265881Y-122290157D01*
X209220643Y-122244919D01*
X209130167Y-122199681D01*
X208949215Y-122154443D01*
X208858739Y-122109205D01*
X208813500Y-122063967D01*
X208768262Y-121973490D01*
X208768262Y-121883014D01*
X208813500Y-121792538D01*
X208858739Y-121747300D01*
X208949215Y-121702062D01*
X209175405Y-121702062D01*
X209311120Y-121747300D01*
X209718262Y-122652062D02*
X209718262Y-121702062D01*
X210668263Y-121747300D02*
X210577786Y-121702062D01*
X210442072Y-121702062D01*
X210306358Y-121747300D01*
X210215882Y-121837776D01*
X210170643Y-121928252D01*
X210125405Y-122109205D01*
X210125405Y-122244919D01*
X210170643Y-122425871D01*
X210215882Y-122516348D01*
X210306358Y-122606824D01*
X210442072Y-122652062D01*
X210532548Y-122652062D01*
X210668263Y-122606824D01*
X210713501Y-122561586D01*
X210713501Y-122244919D01*
X210532548Y-122244919D01*
X211120643Y-122652062D02*
X211120643Y-121702062D01*
X211663501Y-122652062D01*
X211663501Y-121702062D01*
X212070643Y-122380633D02*
X212523024Y-122380633D01*
X211980167Y-122652062D02*
X212296834Y-121702062D01*
X212613501Y-122652062D01*
X213382548Y-122652062D02*
X212930167Y-122652062D01*
X212930167Y-121702062D01*
X213473025Y-122742538D02*
X214196835Y-122742538D01*
X214423025Y-122652062D02*
X214423025Y-121702062D01*
X214965883Y-122652062D01*
X214965883Y-121702062D01*
X215373025Y-122380633D02*
X215825406Y-122380633D01*
X215282549Y-122652062D02*
X215599216Y-121702062D01*
X215915883Y-122652062D01*
X216232549Y-122652062D02*
X216232549Y-121702062D01*
X216549216Y-122380633D01*
X216865883Y-121702062D01*
X216865883Y-122652062D01*
X217318263Y-122154443D02*
X217634930Y-122154443D01*
X217770644Y-122652062D02*
X217318263Y-122652062D01*
X217318263Y-121702062D01*
X217770644Y-121702062D01*
X156268490Y-114093929D02*
X156992300Y-114365357D01*
X156268490Y-114636786D01*
X157308966Y-113777262D02*
X157851823Y-113777262D01*
X157580395Y-114727262D02*
X157580395Y-113777262D01*
X158168490Y-114727262D02*
X158168490Y-113777262D01*
X158530395Y-113777262D01*
X158620871Y-113822500D01*
X158666110Y-113867738D01*
X158711348Y-113958214D01*
X158711348Y-114093929D01*
X158666110Y-114184405D01*
X158620871Y-114229643D01*
X158530395Y-114274881D01*
X158168490Y-114274881D01*
X158892300Y-114817738D02*
X159616110Y-114817738D01*
X159797062Y-114682024D02*
X159932777Y-114727262D01*
X160158967Y-114727262D01*
X160249443Y-114682024D01*
X160294681Y-114636786D01*
X160339920Y-114546310D01*
X160339920Y-114455833D01*
X160294681Y-114365357D01*
X160249443Y-114320119D01*
X160158967Y-114274881D01*
X159978015Y-114229643D01*
X159887539Y-114184405D01*
X159842300Y-114139167D01*
X159797062Y-114048690D01*
X159797062Y-113958214D01*
X159842300Y-113867738D01*
X159887539Y-113822500D01*
X159978015Y-113777262D01*
X160204205Y-113777262D01*
X160339920Y-113822500D01*
X160747062Y-114727262D02*
X160747062Y-113777262D01*
X161697063Y-113822500D02*
X161606586Y-113777262D01*
X161470872Y-113777262D01*
X161335158Y-113822500D01*
X161244682Y-113912976D01*
X161199443Y-114003452D01*
X161154205Y-114184405D01*
X161154205Y-114320119D01*
X161199443Y-114501071D01*
X161244682Y-114591548D01*
X161335158Y-114682024D01*
X161470872Y-114727262D01*
X161561348Y-114727262D01*
X161697063Y-114682024D01*
X161742301Y-114636786D01*
X161742301Y-114320119D01*
X161561348Y-114320119D01*
X162149443Y-114727262D02*
X162149443Y-113777262D01*
X162692301Y-114727262D01*
X162692301Y-113777262D01*
X163099443Y-114455833D02*
X163551824Y-114455833D01*
X163008967Y-114727262D02*
X163325634Y-113777262D01*
X163642301Y-114727262D01*
X164411348Y-114727262D02*
X163958967Y-114727262D01*
X163958967Y-113777262D01*
X164501825Y-114817738D02*
X165225635Y-114817738D01*
X165451825Y-114727262D02*
X165451825Y-113777262D01*
X165994683Y-114727262D01*
X165994683Y-113777262D01*
X166401825Y-114455833D02*
X166854206Y-114455833D01*
X166311349Y-114727262D02*
X166628016Y-113777262D01*
X166944683Y-114727262D01*
X167261349Y-114727262D02*
X167261349Y-113777262D01*
X167578016Y-114455833D01*
X167894683Y-113777262D01*
X167894683Y-114727262D01*
X168347063Y-114229643D02*
X168663730Y-114229643D01*
X168799444Y-114727262D02*
X168347063Y-114727262D01*
X168347063Y-113777262D01*
X168799444Y-113777262D01*
X153601490Y-124101529D02*
X154325300Y-124372957D01*
X153601490Y-124644386D01*
X154641966Y-123784862D02*
X155184823Y-123784862D01*
X154913395Y-124734862D02*
X154913395Y-123784862D01*
X155501490Y-124734862D02*
X155501490Y-123784862D01*
X155863395Y-123784862D01*
X155953871Y-123830100D01*
X155999110Y-123875338D01*
X156044348Y-123965814D01*
X156044348Y-124101529D01*
X155999110Y-124192005D01*
X155953871Y-124237243D01*
X155863395Y-124282481D01*
X155501490Y-124282481D01*
X156225300Y-124825338D02*
X156949110Y-124825338D01*
X157130062Y-124689624D02*
X157265777Y-124734862D01*
X157491967Y-124734862D01*
X157582443Y-124689624D01*
X157627681Y-124644386D01*
X157672920Y-124553910D01*
X157672920Y-124463433D01*
X157627681Y-124372957D01*
X157582443Y-124327719D01*
X157491967Y-124282481D01*
X157311015Y-124237243D01*
X157220539Y-124192005D01*
X157175300Y-124146767D01*
X157130062Y-124056290D01*
X157130062Y-123965814D01*
X157175300Y-123875338D01*
X157220539Y-123830100D01*
X157311015Y-123784862D01*
X157537205Y-123784862D01*
X157672920Y-123830100D01*
X158080062Y-124734862D02*
X158080062Y-123784862D01*
X159030063Y-123830100D02*
X158939586Y-123784862D01*
X158803872Y-123784862D01*
X158668158Y-123830100D01*
X158577682Y-123920576D01*
X158532443Y-124011052D01*
X158487205Y-124192005D01*
X158487205Y-124327719D01*
X158532443Y-124508671D01*
X158577682Y-124599148D01*
X158668158Y-124689624D01*
X158803872Y-124734862D01*
X158894348Y-124734862D01*
X159030063Y-124689624D01*
X159075301Y-124644386D01*
X159075301Y-124327719D01*
X158894348Y-124327719D01*
X159482443Y-124734862D02*
X159482443Y-123784862D01*
X160025301Y-124734862D01*
X160025301Y-123784862D01*
X160432443Y-124463433D02*
X160884824Y-124463433D01*
X160341967Y-124734862D02*
X160658634Y-123784862D01*
X160975301Y-124734862D01*
X161744348Y-124734862D02*
X161291967Y-124734862D01*
X161291967Y-123784862D01*
X161834825Y-124825338D02*
X162558635Y-124825338D01*
X162784825Y-124734862D02*
X162784825Y-123784862D01*
X163327683Y-124734862D01*
X163327683Y-123784862D01*
X163734825Y-124463433D02*
X164187206Y-124463433D01*
X163644349Y-124734862D02*
X163961016Y-123784862D01*
X164277683Y-124734862D01*
X164594349Y-124734862D02*
X164594349Y-123784862D01*
X164911016Y-124463433D01*
X165227683Y-123784862D01*
X165227683Y-124734862D01*
X165680063Y-124237243D02*
X165996730Y-124237243D01*
X166132444Y-124734862D02*
X165680063Y-124734862D01*
X165680063Y-123784862D01*
X166132444Y-123784862D01*
X203207690Y-100657329D02*
X203931500Y-100928757D01*
X203207690Y-101200186D01*
X204248166Y-100340662D02*
X204791023Y-100340662D01*
X204519595Y-101290662D02*
X204519595Y-100340662D01*
X205107690Y-101290662D02*
X205107690Y-100340662D01*
X205469595Y-100340662D01*
X205560071Y-100385900D01*
X205605310Y-100431138D01*
X205650548Y-100521614D01*
X205650548Y-100657329D01*
X205605310Y-100747805D01*
X205560071Y-100793043D01*
X205469595Y-100838281D01*
X205107690Y-100838281D01*
X205831500Y-101381138D02*
X206555310Y-101381138D01*
X206736262Y-101245424D02*
X206871977Y-101290662D01*
X207098167Y-101290662D01*
X207188643Y-101245424D01*
X207233881Y-101200186D01*
X207279120Y-101109710D01*
X207279120Y-101019233D01*
X207233881Y-100928757D01*
X207188643Y-100883519D01*
X207098167Y-100838281D01*
X206917215Y-100793043D01*
X206826739Y-100747805D01*
X206781500Y-100702567D01*
X206736262Y-100612090D01*
X206736262Y-100521614D01*
X206781500Y-100431138D01*
X206826739Y-100385900D01*
X206917215Y-100340662D01*
X207143405Y-100340662D01*
X207279120Y-100385900D01*
X207686262Y-101290662D02*
X207686262Y-100340662D01*
X208636263Y-100385900D02*
X208545786Y-100340662D01*
X208410072Y-100340662D01*
X208274358Y-100385900D01*
X208183882Y-100476376D01*
X208138643Y-100566852D01*
X208093405Y-100747805D01*
X208093405Y-100883519D01*
X208138643Y-101064471D01*
X208183882Y-101154948D01*
X208274358Y-101245424D01*
X208410072Y-101290662D01*
X208500548Y-101290662D01*
X208636263Y-101245424D01*
X208681501Y-101200186D01*
X208681501Y-100883519D01*
X208500548Y-100883519D01*
X209088643Y-101290662D02*
X209088643Y-100340662D01*
X209631501Y-101290662D01*
X209631501Y-100340662D01*
X210038643Y-101019233D02*
X210491024Y-101019233D01*
X209948167Y-101290662D02*
X210264834Y-100340662D01*
X210581501Y-101290662D01*
X211350548Y-101290662D02*
X210898167Y-101290662D01*
X210898167Y-100340662D01*
X211441025Y-101381138D02*
X212164835Y-101381138D01*
X212391025Y-101290662D02*
X212391025Y-100340662D01*
X212933883Y-101290662D01*
X212933883Y-100340662D01*
X213341025Y-101019233D02*
X213793406Y-101019233D01*
X213250549Y-101290662D02*
X213567216Y-100340662D01*
X213883883Y-101290662D01*
X214200549Y-101290662D02*
X214200549Y-100340662D01*
X214517216Y-101019233D01*
X214833883Y-100340662D01*
X214833883Y-101290662D01*
X215286263Y-100793043D02*
X215602930Y-100793043D01*
X215738644Y-101290662D02*
X215286263Y-101290662D01*
X215286263Y-100340662D01*
X215738644Y-100340662D01*
X203106090Y-98041129D02*
X203829900Y-98312557D01*
X203106090Y-98583986D01*
X204146566Y-97724462D02*
X204689423Y-97724462D01*
X204417995Y-98674462D02*
X204417995Y-97724462D01*
X205006090Y-98674462D02*
X205006090Y-97724462D01*
X205367995Y-97724462D01*
X205458471Y-97769700D01*
X205503710Y-97814938D01*
X205548948Y-97905414D01*
X205548948Y-98041129D01*
X205503710Y-98131605D01*
X205458471Y-98176843D01*
X205367995Y-98222081D01*
X205006090Y-98222081D01*
X205729900Y-98764938D02*
X206453710Y-98764938D01*
X206634662Y-98629224D02*
X206770377Y-98674462D01*
X206996567Y-98674462D01*
X207087043Y-98629224D01*
X207132281Y-98583986D01*
X207177520Y-98493510D01*
X207177520Y-98403033D01*
X207132281Y-98312557D01*
X207087043Y-98267319D01*
X206996567Y-98222081D01*
X206815615Y-98176843D01*
X206725139Y-98131605D01*
X206679900Y-98086367D01*
X206634662Y-97995890D01*
X206634662Y-97905414D01*
X206679900Y-97814938D01*
X206725139Y-97769700D01*
X206815615Y-97724462D01*
X207041805Y-97724462D01*
X207177520Y-97769700D01*
X207584662Y-98674462D02*
X207584662Y-97724462D01*
X208534663Y-97769700D02*
X208444186Y-97724462D01*
X208308472Y-97724462D01*
X208172758Y-97769700D01*
X208082282Y-97860176D01*
X208037043Y-97950652D01*
X207991805Y-98131605D01*
X207991805Y-98267319D01*
X208037043Y-98448271D01*
X208082282Y-98538748D01*
X208172758Y-98629224D01*
X208308472Y-98674462D01*
X208398948Y-98674462D01*
X208534663Y-98629224D01*
X208579901Y-98583986D01*
X208579901Y-98267319D01*
X208398948Y-98267319D01*
X208987043Y-98674462D02*
X208987043Y-97724462D01*
X209529901Y-98674462D01*
X209529901Y-97724462D01*
X209937043Y-98403033D02*
X210389424Y-98403033D01*
X209846567Y-98674462D02*
X210163234Y-97724462D01*
X210479901Y-98674462D01*
X211248948Y-98674462D02*
X210796567Y-98674462D01*
X210796567Y-97724462D01*
X211339425Y-98764938D02*
X212063235Y-98764938D01*
X212289425Y-98674462D02*
X212289425Y-97724462D01*
X212832283Y-98674462D01*
X212832283Y-97724462D01*
X213239425Y-98403033D02*
X213691806Y-98403033D01*
X213148949Y-98674462D02*
X213465616Y-97724462D01*
X213782283Y-98674462D01*
X214098949Y-98674462D02*
X214098949Y-97724462D01*
X214415616Y-98403033D01*
X214732283Y-97724462D01*
X214732283Y-98674462D01*
X215184663Y-98176843D02*
X215501330Y-98176843D01*
X215637044Y-98674462D02*
X215184663Y-98674462D01*
X215184663Y-97724462D01*
X215637044Y-97724462D01*
X156293890Y-98117329D02*
X157017700Y-98388757D01*
X156293890Y-98660186D01*
X157334366Y-97800662D02*
X157877223Y-97800662D01*
X157605795Y-98750662D02*
X157605795Y-97800662D01*
X158193890Y-98750662D02*
X158193890Y-97800662D01*
X158555795Y-97800662D01*
X158646271Y-97845900D01*
X158691510Y-97891138D01*
X158736748Y-97981614D01*
X158736748Y-98117329D01*
X158691510Y-98207805D01*
X158646271Y-98253043D01*
X158555795Y-98298281D01*
X158193890Y-98298281D01*
X158917700Y-98841138D02*
X159641510Y-98841138D01*
X159822462Y-98705424D02*
X159958177Y-98750662D01*
X160184367Y-98750662D01*
X160274843Y-98705424D01*
X160320081Y-98660186D01*
X160365320Y-98569710D01*
X160365320Y-98479233D01*
X160320081Y-98388757D01*
X160274843Y-98343519D01*
X160184367Y-98298281D01*
X160003415Y-98253043D01*
X159912939Y-98207805D01*
X159867700Y-98162567D01*
X159822462Y-98072090D01*
X159822462Y-97981614D01*
X159867700Y-97891138D01*
X159912939Y-97845900D01*
X160003415Y-97800662D01*
X160229605Y-97800662D01*
X160365320Y-97845900D01*
X160772462Y-98750662D02*
X160772462Y-97800662D01*
X161722463Y-97845900D02*
X161631986Y-97800662D01*
X161496272Y-97800662D01*
X161360558Y-97845900D01*
X161270082Y-97936376D01*
X161224843Y-98026852D01*
X161179605Y-98207805D01*
X161179605Y-98343519D01*
X161224843Y-98524471D01*
X161270082Y-98614948D01*
X161360558Y-98705424D01*
X161496272Y-98750662D01*
X161586748Y-98750662D01*
X161722463Y-98705424D01*
X161767701Y-98660186D01*
X161767701Y-98343519D01*
X161586748Y-98343519D01*
X162174843Y-98750662D02*
X162174843Y-97800662D01*
X162717701Y-98750662D01*
X162717701Y-97800662D01*
X163124843Y-98479233D02*
X163577224Y-98479233D01*
X163034367Y-98750662D02*
X163351034Y-97800662D01*
X163667701Y-98750662D01*
X164436748Y-98750662D02*
X163984367Y-98750662D01*
X163984367Y-97800662D01*
X164527225Y-98841138D02*
X165251035Y-98841138D01*
X165477225Y-98750662D02*
X165477225Y-97800662D01*
X166020083Y-98750662D01*
X166020083Y-97800662D01*
X166427225Y-98479233D02*
X166879606Y-98479233D01*
X166336749Y-98750662D02*
X166653416Y-97800662D01*
X166970083Y-98750662D01*
X167286749Y-98750662D02*
X167286749Y-97800662D01*
X167603416Y-98479233D01*
X167920083Y-97800662D01*
X167920083Y-98750662D01*
X168372463Y-98253043D02*
X168689130Y-98253043D01*
X168824844Y-98750662D02*
X168372463Y-98750662D01*
X168372463Y-97800662D01*
X168824844Y-97800662D01*
X203207690Y-95399529D02*
X203931500Y-95670957D01*
X203207690Y-95942386D01*
X204248166Y-95082862D02*
X204791023Y-95082862D01*
X204519595Y-96032862D02*
X204519595Y-95082862D01*
X205107690Y-96032862D02*
X205107690Y-95082862D01*
X205469595Y-95082862D01*
X205560071Y-95128100D01*
X205605310Y-95173338D01*
X205650548Y-95263814D01*
X205650548Y-95399529D01*
X205605310Y-95490005D01*
X205560071Y-95535243D01*
X205469595Y-95580481D01*
X205107690Y-95580481D01*
X205831500Y-96123338D02*
X206555310Y-96123338D01*
X206736262Y-95987624D02*
X206871977Y-96032862D01*
X207098167Y-96032862D01*
X207188643Y-95987624D01*
X207233881Y-95942386D01*
X207279120Y-95851910D01*
X207279120Y-95761433D01*
X207233881Y-95670957D01*
X207188643Y-95625719D01*
X207098167Y-95580481D01*
X206917215Y-95535243D01*
X206826739Y-95490005D01*
X206781500Y-95444767D01*
X206736262Y-95354290D01*
X206736262Y-95263814D01*
X206781500Y-95173338D01*
X206826739Y-95128100D01*
X206917215Y-95082862D01*
X207143405Y-95082862D01*
X207279120Y-95128100D01*
X207686262Y-96032862D02*
X207686262Y-95082862D01*
X208636263Y-95128100D02*
X208545786Y-95082862D01*
X208410072Y-95082862D01*
X208274358Y-95128100D01*
X208183882Y-95218576D01*
X208138643Y-95309052D01*
X208093405Y-95490005D01*
X208093405Y-95625719D01*
X208138643Y-95806671D01*
X208183882Y-95897148D01*
X208274358Y-95987624D01*
X208410072Y-96032862D01*
X208500548Y-96032862D01*
X208636263Y-95987624D01*
X208681501Y-95942386D01*
X208681501Y-95625719D01*
X208500548Y-95625719D01*
X209088643Y-96032862D02*
X209088643Y-95082862D01*
X209631501Y-96032862D01*
X209631501Y-95082862D01*
X210038643Y-95761433D02*
X210491024Y-95761433D01*
X209948167Y-96032862D02*
X210264834Y-95082862D01*
X210581501Y-96032862D01*
X211350548Y-96032862D02*
X210898167Y-96032862D01*
X210898167Y-95082862D01*
X211441025Y-96123338D02*
X212164835Y-96123338D01*
X212391025Y-96032862D02*
X212391025Y-95082862D01*
X212933883Y-96032862D01*
X212933883Y-95082862D01*
X213341025Y-95761433D02*
X213793406Y-95761433D01*
X213250549Y-96032862D02*
X213567216Y-95082862D01*
X213883883Y-96032862D01*
X214200549Y-96032862D02*
X214200549Y-95082862D01*
X214517216Y-95761433D01*
X214833883Y-95082862D01*
X214833883Y-96032862D01*
X215286263Y-95535243D02*
X215602930Y-95535243D01*
X215738644Y-96032862D02*
X215286263Y-96032862D01*
X215286263Y-95082862D01*
X215738644Y-95082862D01*
X156319290Y-95348729D02*
X157043100Y-95620157D01*
X156319290Y-95891586D01*
X157359766Y-95032062D02*
X157902623Y-95032062D01*
X157631195Y-95982062D02*
X157631195Y-95032062D01*
X158219290Y-95982062D02*
X158219290Y-95032062D01*
X158581195Y-95032062D01*
X158671671Y-95077300D01*
X158716910Y-95122538D01*
X158762148Y-95213014D01*
X158762148Y-95348729D01*
X158716910Y-95439205D01*
X158671671Y-95484443D01*
X158581195Y-95529681D01*
X158219290Y-95529681D01*
X158943100Y-96072538D02*
X159666910Y-96072538D01*
X159847862Y-95936824D02*
X159983577Y-95982062D01*
X160209767Y-95982062D01*
X160300243Y-95936824D01*
X160345481Y-95891586D01*
X160390720Y-95801110D01*
X160390720Y-95710633D01*
X160345481Y-95620157D01*
X160300243Y-95574919D01*
X160209767Y-95529681D01*
X160028815Y-95484443D01*
X159938339Y-95439205D01*
X159893100Y-95393967D01*
X159847862Y-95303490D01*
X159847862Y-95213014D01*
X159893100Y-95122538D01*
X159938339Y-95077300D01*
X160028815Y-95032062D01*
X160255005Y-95032062D01*
X160390720Y-95077300D01*
X160797862Y-95982062D02*
X160797862Y-95032062D01*
X161747863Y-95077300D02*
X161657386Y-95032062D01*
X161521672Y-95032062D01*
X161385958Y-95077300D01*
X161295482Y-95167776D01*
X161250243Y-95258252D01*
X161205005Y-95439205D01*
X161205005Y-95574919D01*
X161250243Y-95755871D01*
X161295482Y-95846348D01*
X161385958Y-95936824D01*
X161521672Y-95982062D01*
X161612148Y-95982062D01*
X161747863Y-95936824D01*
X161793101Y-95891586D01*
X161793101Y-95574919D01*
X161612148Y-95574919D01*
X162200243Y-95982062D02*
X162200243Y-95032062D01*
X162743101Y-95982062D01*
X162743101Y-95032062D01*
X163150243Y-95710633D02*
X163602624Y-95710633D01*
X163059767Y-95982062D02*
X163376434Y-95032062D01*
X163693101Y-95982062D01*
X164462148Y-95982062D02*
X164009767Y-95982062D01*
X164009767Y-95032062D01*
X164552625Y-96072538D02*
X165276435Y-96072538D01*
X165502625Y-95982062D02*
X165502625Y-95032062D01*
X166045483Y-95982062D01*
X166045483Y-95032062D01*
X166452625Y-95710633D02*
X166905006Y-95710633D01*
X166362149Y-95982062D02*
X166678816Y-95032062D01*
X166995483Y-95982062D01*
X167312149Y-95982062D02*
X167312149Y-95032062D01*
X167628816Y-95710633D01*
X167945483Y-95032062D01*
X167945483Y-95982062D01*
X168397863Y-95484443D02*
X168714530Y-95484443D01*
X168850244Y-95982062D02*
X168397863Y-95982062D01*
X168397863Y-95032062D01*
X168850244Y-95032062D01*
X203233090Y-111528529D02*
X203956900Y-111799957D01*
X203233090Y-112071386D01*
X204273566Y-111211862D02*
X204816423Y-111211862D01*
X204544995Y-112161862D02*
X204544995Y-111211862D01*
X205133090Y-112161862D02*
X205133090Y-111211862D01*
X205494995Y-111211862D01*
X205585471Y-111257100D01*
X205630710Y-111302338D01*
X205675948Y-111392814D01*
X205675948Y-111528529D01*
X205630710Y-111619005D01*
X205585471Y-111664243D01*
X205494995Y-111709481D01*
X205133090Y-111709481D01*
X205856900Y-112252338D02*
X206580710Y-112252338D01*
X206761662Y-112116624D02*
X206897377Y-112161862D01*
X207123567Y-112161862D01*
X207214043Y-112116624D01*
X207259281Y-112071386D01*
X207304520Y-111980910D01*
X207304520Y-111890433D01*
X207259281Y-111799957D01*
X207214043Y-111754719D01*
X207123567Y-111709481D01*
X206942615Y-111664243D01*
X206852139Y-111619005D01*
X206806900Y-111573767D01*
X206761662Y-111483290D01*
X206761662Y-111392814D01*
X206806900Y-111302338D01*
X206852139Y-111257100D01*
X206942615Y-111211862D01*
X207168805Y-111211862D01*
X207304520Y-111257100D01*
X207711662Y-112161862D02*
X207711662Y-111211862D01*
X208661663Y-111257100D02*
X208571186Y-111211862D01*
X208435472Y-111211862D01*
X208299758Y-111257100D01*
X208209282Y-111347576D01*
X208164043Y-111438052D01*
X208118805Y-111619005D01*
X208118805Y-111754719D01*
X208164043Y-111935671D01*
X208209282Y-112026148D01*
X208299758Y-112116624D01*
X208435472Y-112161862D01*
X208525948Y-112161862D01*
X208661663Y-112116624D01*
X208706901Y-112071386D01*
X208706901Y-111754719D01*
X208525948Y-111754719D01*
X209114043Y-112161862D02*
X209114043Y-111211862D01*
X209656901Y-112161862D01*
X209656901Y-111211862D01*
X210064043Y-111890433D02*
X210516424Y-111890433D01*
X209973567Y-112161862D02*
X210290234Y-111211862D01*
X210606901Y-112161862D01*
X211375948Y-112161862D02*
X210923567Y-112161862D01*
X210923567Y-111211862D01*
X211466425Y-112252338D02*
X212190235Y-112252338D01*
X212416425Y-112161862D02*
X212416425Y-111211862D01*
X212959283Y-112161862D01*
X212959283Y-111211862D01*
X213366425Y-111890433D02*
X213818806Y-111890433D01*
X213275949Y-112161862D02*
X213592616Y-111211862D01*
X213909283Y-112161862D01*
X214225949Y-112161862D02*
X214225949Y-111211862D01*
X214542616Y-111890433D01*
X214859283Y-111211862D01*
X214859283Y-112161862D01*
X215311663Y-111664243D02*
X215628330Y-111664243D01*
X215764044Y-112161862D02*
X215311663Y-112161862D01*
X215311663Y-111211862D01*
X215764044Y-111211862D01*
X203283890Y-89811529D02*
X204007700Y-90082957D01*
X203283890Y-90354386D01*
X204324366Y-89494862D02*
X204867223Y-89494862D01*
X204595795Y-90444862D02*
X204595795Y-89494862D01*
X205183890Y-90444862D02*
X205183890Y-89494862D01*
X205545795Y-89494862D01*
X205636271Y-89540100D01*
X205681510Y-89585338D01*
X205726748Y-89675814D01*
X205726748Y-89811529D01*
X205681510Y-89902005D01*
X205636271Y-89947243D01*
X205545795Y-89992481D01*
X205183890Y-89992481D01*
X205907700Y-90535338D02*
X206631510Y-90535338D01*
X206812462Y-90399624D02*
X206948177Y-90444862D01*
X207174367Y-90444862D01*
X207264843Y-90399624D01*
X207310081Y-90354386D01*
X207355320Y-90263910D01*
X207355320Y-90173433D01*
X207310081Y-90082957D01*
X207264843Y-90037719D01*
X207174367Y-89992481D01*
X206993415Y-89947243D01*
X206902939Y-89902005D01*
X206857700Y-89856767D01*
X206812462Y-89766290D01*
X206812462Y-89675814D01*
X206857700Y-89585338D01*
X206902939Y-89540100D01*
X206993415Y-89494862D01*
X207219605Y-89494862D01*
X207355320Y-89540100D01*
X207762462Y-90444862D02*
X207762462Y-89494862D01*
X208712463Y-89540100D02*
X208621986Y-89494862D01*
X208486272Y-89494862D01*
X208350558Y-89540100D01*
X208260082Y-89630576D01*
X208214843Y-89721052D01*
X208169605Y-89902005D01*
X208169605Y-90037719D01*
X208214843Y-90218671D01*
X208260082Y-90309148D01*
X208350558Y-90399624D01*
X208486272Y-90444862D01*
X208576748Y-90444862D01*
X208712463Y-90399624D01*
X208757701Y-90354386D01*
X208757701Y-90037719D01*
X208576748Y-90037719D01*
X209164843Y-90444862D02*
X209164843Y-89494862D01*
X209707701Y-90444862D01*
X209707701Y-89494862D01*
X210114843Y-90173433D02*
X210567224Y-90173433D01*
X210024367Y-90444862D02*
X210341034Y-89494862D01*
X210657701Y-90444862D01*
X211426748Y-90444862D02*
X210974367Y-90444862D01*
X210974367Y-89494862D01*
X211517225Y-90535338D02*
X212241035Y-90535338D01*
X212467225Y-90444862D02*
X212467225Y-89494862D01*
X213010083Y-90444862D01*
X213010083Y-89494862D01*
X213417225Y-90173433D02*
X213869606Y-90173433D01*
X213326749Y-90444862D02*
X213643416Y-89494862D01*
X213960083Y-90444862D01*
X214276749Y-90444862D02*
X214276749Y-89494862D01*
X214593416Y-90173433D01*
X214910083Y-89494862D01*
X214910083Y-90444862D01*
X215362463Y-89947243D02*
X215679130Y-89947243D01*
X215814844Y-90444862D02*
X215362463Y-90444862D01*
X215362463Y-89494862D01*
X215814844Y-89494862D01*
X156243090Y-89913129D02*
X156966900Y-90184557D01*
X156243090Y-90455986D01*
X157283566Y-89596462D02*
X157826423Y-89596462D01*
X157554995Y-90546462D02*
X157554995Y-89596462D01*
X158143090Y-90546462D02*
X158143090Y-89596462D01*
X158504995Y-89596462D01*
X158595471Y-89641700D01*
X158640710Y-89686938D01*
X158685948Y-89777414D01*
X158685948Y-89913129D01*
X158640710Y-90003605D01*
X158595471Y-90048843D01*
X158504995Y-90094081D01*
X158143090Y-90094081D01*
X158866900Y-90636938D02*
X159590710Y-90636938D01*
X159771662Y-90501224D02*
X159907377Y-90546462D01*
X160133567Y-90546462D01*
X160224043Y-90501224D01*
X160269281Y-90455986D01*
X160314520Y-90365510D01*
X160314520Y-90275033D01*
X160269281Y-90184557D01*
X160224043Y-90139319D01*
X160133567Y-90094081D01*
X159952615Y-90048843D01*
X159862139Y-90003605D01*
X159816900Y-89958367D01*
X159771662Y-89867890D01*
X159771662Y-89777414D01*
X159816900Y-89686938D01*
X159862139Y-89641700D01*
X159952615Y-89596462D01*
X160178805Y-89596462D01*
X160314520Y-89641700D01*
X160721662Y-90546462D02*
X160721662Y-89596462D01*
X161671663Y-89641700D02*
X161581186Y-89596462D01*
X161445472Y-89596462D01*
X161309758Y-89641700D01*
X161219282Y-89732176D01*
X161174043Y-89822652D01*
X161128805Y-90003605D01*
X161128805Y-90139319D01*
X161174043Y-90320271D01*
X161219282Y-90410748D01*
X161309758Y-90501224D01*
X161445472Y-90546462D01*
X161535948Y-90546462D01*
X161671663Y-90501224D01*
X161716901Y-90455986D01*
X161716901Y-90139319D01*
X161535948Y-90139319D01*
X162124043Y-90546462D02*
X162124043Y-89596462D01*
X162666901Y-90546462D01*
X162666901Y-89596462D01*
X163074043Y-90275033D02*
X163526424Y-90275033D01*
X162983567Y-90546462D02*
X163300234Y-89596462D01*
X163616901Y-90546462D01*
X164385948Y-90546462D02*
X163933567Y-90546462D01*
X163933567Y-89596462D01*
X164476425Y-90636938D02*
X165200235Y-90636938D01*
X165426425Y-90546462D02*
X165426425Y-89596462D01*
X165969283Y-90546462D01*
X165969283Y-89596462D01*
X166376425Y-90275033D02*
X166828806Y-90275033D01*
X166285949Y-90546462D02*
X166602616Y-89596462D01*
X166919283Y-90546462D01*
X167235949Y-90546462D02*
X167235949Y-89596462D01*
X167552616Y-90275033D01*
X167869283Y-89596462D01*
X167869283Y-90546462D01*
X168321663Y-90048843D02*
X168638330Y-90048843D01*
X168774044Y-90546462D02*
X168321663Y-90546462D01*
X168321663Y-89596462D01*
X168774044Y-89596462D01*
X203207690Y-106016729D02*
X203931500Y-106288157D01*
X203207690Y-106559586D01*
X204248166Y-105700062D02*
X204791023Y-105700062D01*
X204519595Y-106650062D02*
X204519595Y-105700062D01*
X205107690Y-106650062D02*
X205107690Y-105700062D01*
X205469595Y-105700062D01*
X205560071Y-105745300D01*
X205605310Y-105790538D01*
X205650548Y-105881014D01*
X205650548Y-106016729D01*
X205605310Y-106107205D01*
X205560071Y-106152443D01*
X205469595Y-106197681D01*
X205107690Y-106197681D01*
X205831500Y-106740538D02*
X206555310Y-106740538D01*
X206736262Y-106604824D02*
X206871977Y-106650062D01*
X207098167Y-106650062D01*
X207188643Y-106604824D01*
X207233881Y-106559586D01*
X207279120Y-106469110D01*
X207279120Y-106378633D01*
X207233881Y-106288157D01*
X207188643Y-106242919D01*
X207098167Y-106197681D01*
X206917215Y-106152443D01*
X206826739Y-106107205D01*
X206781500Y-106061967D01*
X206736262Y-105971490D01*
X206736262Y-105881014D01*
X206781500Y-105790538D01*
X206826739Y-105745300D01*
X206917215Y-105700062D01*
X207143405Y-105700062D01*
X207279120Y-105745300D01*
X207686262Y-106650062D02*
X207686262Y-105700062D01*
X208636263Y-105745300D02*
X208545786Y-105700062D01*
X208410072Y-105700062D01*
X208274358Y-105745300D01*
X208183882Y-105835776D01*
X208138643Y-105926252D01*
X208093405Y-106107205D01*
X208093405Y-106242919D01*
X208138643Y-106423871D01*
X208183882Y-106514348D01*
X208274358Y-106604824D01*
X208410072Y-106650062D01*
X208500548Y-106650062D01*
X208636263Y-106604824D01*
X208681501Y-106559586D01*
X208681501Y-106242919D01*
X208500548Y-106242919D01*
X209088643Y-106650062D02*
X209088643Y-105700062D01*
X209631501Y-106650062D01*
X209631501Y-105700062D01*
X210038643Y-106378633D02*
X210491024Y-106378633D01*
X209948167Y-106650062D02*
X210264834Y-105700062D01*
X210581501Y-106650062D01*
X211350548Y-106650062D02*
X210898167Y-106650062D01*
X210898167Y-105700062D01*
X211441025Y-106740538D02*
X212164835Y-106740538D01*
X212391025Y-106650062D02*
X212391025Y-105700062D01*
X212933883Y-106650062D01*
X212933883Y-105700062D01*
X213341025Y-106378633D02*
X213793406Y-106378633D01*
X213250549Y-106650062D02*
X213567216Y-105700062D01*
X213883883Y-106650062D01*
X214200549Y-106650062D02*
X214200549Y-105700062D01*
X214517216Y-106378633D01*
X214833883Y-105700062D01*
X214833883Y-106650062D01*
X215286263Y-106152443D02*
X215602930Y-106152443D01*
X215738644Y-106650062D02*
X215286263Y-106650062D01*
X215286263Y-105700062D01*
X215738644Y-105700062D01*
X156192290Y-106016729D02*
X156916100Y-106288157D01*
X156192290Y-106559586D01*
X157232766Y-105700062D02*
X157775623Y-105700062D01*
X157504195Y-106650062D02*
X157504195Y-105700062D01*
X158092290Y-106650062D02*
X158092290Y-105700062D01*
X158454195Y-105700062D01*
X158544671Y-105745300D01*
X158589910Y-105790538D01*
X158635148Y-105881014D01*
X158635148Y-106016729D01*
X158589910Y-106107205D01*
X158544671Y-106152443D01*
X158454195Y-106197681D01*
X158092290Y-106197681D01*
X158816100Y-106740538D02*
X159539910Y-106740538D01*
X159720862Y-106604824D02*
X159856577Y-106650062D01*
X160082767Y-106650062D01*
X160173243Y-106604824D01*
X160218481Y-106559586D01*
X160263720Y-106469110D01*
X160263720Y-106378633D01*
X160218481Y-106288157D01*
X160173243Y-106242919D01*
X160082767Y-106197681D01*
X159901815Y-106152443D01*
X159811339Y-106107205D01*
X159766100Y-106061967D01*
X159720862Y-105971490D01*
X159720862Y-105881014D01*
X159766100Y-105790538D01*
X159811339Y-105745300D01*
X159901815Y-105700062D01*
X160128005Y-105700062D01*
X160263720Y-105745300D01*
X160670862Y-106650062D02*
X160670862Y-105700062D01*
X161620863Y-105745300D02*
X161530386Y-105700062D01*
X161394672Y-105700062D01*
X161258958Y-105745300D01*
X161168482Y-105835776D01*
X161123243Y-105926252D01*
X161078005Y-106107205D01*
X161078005Y-106242919D01*
X161123243Y-106423871D01*
X161168482Y-106514348D01*
X161258958Y-106604824D01*
X161394672Y-106650062D01*
X161485148Y-106650062D01*
X161620863Y-106604824D01*
X161666101Y-106559586D01*
X161666101Y-106242919D01*
X161485148Y-106242919D01*
X162073243Y-106650062D02*
X162073243Y-105700062D01*
X162616101Y-106650062D01*
X162616101Y-105700062D01*
X163023243Y-106378633D02*
X163475624Y-106378633D01*
X162932767Y-106650062D02*
X163249434Y-105700062D01*
X163566101Y-106650062D01*
X164335148Y-106650062D02*
X163882767Y-106650062D01*
X163882767Y-105700062D01*
X164425625Y-106740538D02*
X165149435Y-106740538D01*
X165375625Y-106650062D02*
X165375625Y-105700062D01*
X165918483Y-106650062D01*
X165918483Y-105700062D01*
X166325625Y-106378633D02*
X166778006Y-106378633D01*
X166235149Y-106650062D02*
X166551816Y-105700062D01*
X166868483Y-106650062D01*
X167185149Y-106650062D02*
X167185149Y-105700062D01*
X167501816Y-106378633D01*
X167818483Y-105700062D01*
X167818483Y-106650062D01*
X168270863Y-106152443D02*
X168587530Y-106152443D01*
X168723244Y-106650062D02*
X168270863Y-106650062D01*
X168270863Y-105700062D01*
X168723244Y-105700062D01*
X190341290Y-110000529D02*
X191065100Y-110271957D01*
X190341290Y-110543386D01*
X191381766Y-109683862D02*
X191924623Y-109683862D01*
X191653195Y-110633862D02*
X191653195Y-109683862D01*
X192241290Y-110633862D02*
X192241290Y-109683862D01*
X192603195Y-109683862D01*
X192693671Y-109729100D01*
X192738910Y-109774338D01*
X192784148Y-109864814D01*
X192784148Y-110000529D01*
X192738910Y-110091005D01*
X192693671Y-110136243D01*
X192603195Y-110181481D01*
X192241290Y-110181481D01*
X192965100Y-110724338D02*
X193688910Y-110724338D01*
X193869862Y-110588624D02*
X194005577Y-110633862D01*
X194231767Y-110633862D01*
X194322243Y-110588624D01*
X194367481Y-110543386D01*
X194412720Y-110452910D01*
X194412720Y-110362433D01*
X194367481Y-110271957D01*
X194322243Y-110226719D01*
X194231767Y-110181481D01*
X194050815Y-110136243D01*
X193960339Y-110091005D01*
X193915100Y-110045767D01*
X193869862Y-109955290D01*
X193869862Y-109864814D01*
X193915100Y-109774338D01*
X193960339Y-109729100D01*
X194050815Y-109683862D01*
X194277005Y-109683862D01*
X194412720Y-109729100D01*
X194819862Y-110633862D02*
X194819862Y-109683862D01*
X195769863Y-109729100D02*
X195679386Y-109683862D01*
X195543672Y-109683862D01*
X195407958Y-109729100D01*
X195317482Y-109819576D01*
X195272243Y-109910052D01*
X195227005Y-110091005D01*
X195227005Y-110226719D01*
X195272243Y-110407671D01*
X195317482Y-110498148D01*
X195407958Y-110588624D01*
X195543672Y-110633862D01*
X195634148Y-110633862D01*
X195769863Y-110588624D01*
X195815101Y-110543386D01*
X195815101Y-110226719D01*
X195634148Y-110226719D01*
X196222243Y-110633862D02*
X196222243Y-109683862D01*
X196765101Y-110633862D01*
X196765101Y-109683862D01*
X197172243Y-110362433D02*
X197624624Y-110362433D01*
X197081767Y-110633862D02*
X197398434Y-109683862D01*
X197715101Y-110633862D01*
X198484148Y-110633862D02*
X198031767Y-110633862D01*
X198031767Y-109683862D01*
X198574625Y-110724338D02*
X199298435Y-110724338D01*
X199524625Y-110633862D02*
X199524625Y-109683862D01*
X200067483Y-110633862D01*
X200067483Y-109683862D01*
X200474625Y-110362433D02*
X200927006Y-110362433D01*
X200384149Y-110633862D02*
X200700816Y-109683862D01*
X201017483Y-110633862D01*
X201334149Y-110633862D02*
X201334149Y-109683862D01*
X201650816Y-110362433D01*
X201967483Y-109683862D01*
X201967483Y-110633862D01*
X202419863Y-110136243D02*
X202736530Y-110136243D01*
X202872244Y-110633862D02*
X202419863Y-110633862D01*
X202419863Y-109683862D01*
X202872244Y-109683862D01*
X166332290Y-85965529D02*
X167056100Y-86236957D01*
X166332290Y-86508386D01*
X167372766Y-85648862D02*
X167915623Y-85648862D01*
X167644195Y-86598862D02*
X167644195Y-85648862D01*
X168232290Y-86598862D02*
X168232290Y-85648862D01*
X168594195Y-85648862D01*
X168684671Y-85694100D01*
X168729910Y-85739338D01*
X168775148Y-85829814D01*
X168775148Y-85965529D01*
X168729910Y-86056005D01*
X168684671Y-86101243D01*
X168594195Y-86146481D01*
X168232290Y-86146481D01*
X168956100Y-86689338D02*
X169679910Y-86689338D01*
X169860862Y-86553624D02*
X169996577Y-86598862D01*
X170222767Y-86598862D01*
X170313243Y-86553624D01*
X170358481Y-86508386D01*
X170403720Y-86417910D01*
X170403720Y-86327433D01*
X170358481Y-86236957D01*
X170313243Y-86191719D01*
X170222767Y-86146481D01*
X170041815Y-86101243D01*
X169951339Y-86056005D01*
X169906100Y-86010767D01*
X169860862Y-85920290D01*
X169860862Y-85829814D01*
X169906100Y-85739338D01*
X169951339Y-85694100D01*
X170041815Y-85648862D01*
X170268005Y-85648862D01*
X170403720Y-85694100D01*
X170810862Y-86598862D02*
X170810862Y-85648862D01*
X171760863Y-85694100D02*
X171670386Y-85648862D01*
X171534672Y-85648862D01*
X171398958Y-85694100D01*
X171308482Y-85784576D01*
X171263243Y-85875052D01*
X171218005Y-86056005D01*
X171218005Y-86191719D01*
X171263243Y-86372671D01*
X171308482Y-86463148D01*
X171398958Y-86553624D01*
X171534672Y-86598862D01*
X171625148Y-86598862D01*
X171760863Y-86553624D01*
X171806101Y-86508386D01*
X171806101Y-86191719D01*
X171625148Y-86191719D01*
X172213243Y-86598862D02*
X172213243Y-85648862D01*
X172756101Y-86598862D01*
X172756101Y-85648862D01*
X173163243Y-86327433D02*
X173615624Y-86327433D01*
X173072767Y-86598862D02*
X173389434Y-85648862D01*
X173706101Y-86598862D01*
X174475148Y-86598862D02*
X174022767Y-86598862D01*
X174022767Y-85648862D01*
X174565625Y-86689338D02*
X175289435Y-86689338D01*
X175515625Y-86598862D02*
X175515625Y-85648862D01*
X176058483Y-86598862D01*
X176058483Y-85648862D01*
X176465625Y-86327433D02*
X176918006Y-86327433D01*
X176375149Y-86598862D02*
X176691816Y-85648862D01*
X177008483Y-86598862D01*
X177325149Y-86598862D02*
X177325149Y-85648862D01*
X177641816Y-86327433D01*
X177958483Y-85648862D01*
X177958483Y-86598862D01*
X178410863Y-86101243D02*
X178727530Y-86101243D01*
X178863244Y-86598862D02*
X178410863Y-86598862D01*
X178410863Y-85648862D01*
X178863244Y-85648862D01*
X205265090Y-119072329D02*
X205988900Y-119343757D01*
X205265090Y-119615186D01*
X206305566Y-118755662D02*
X206848423Y-118755662D01*
X206576995Y-119705662D02*
X206576995Y-118755662D01*
X207165090Y-119705662D02*
X207165090Y-118755662D01*
X207526995Y-118755662D01*
X207617471Y-118800900D01*
X207662710Y-118846138D01*
X207707948Y-118936614D01*
X207707948Y-119072329D01*
X207662710Y-119162805D01*
X207617471Y-119208043D01*
X207526995Y-119253281D01*
X207165090Y-119253281D01*
X207888900Y-119796138D02*
X208612710Y-119796138D01*
X208793662Y-119660424D02*
X208929377Y-119705662D01*
X209155567Y-119705662D01*
X209246043Y-119660424D01*
X209291281Y-119615186D01*
X209336520Y-119524710D01*
X209336520Y-119434233D01*
X209291281Y-119343757D01*
X209246043Y-119298519D01*
X209155567Y-119253281D01*
X208974615Y-119208043D01*
X208884139Y-119162805D01*
X208838900Y-119117567D01*
X208793662Y-119027090D01*
X208793662Y-118936614D01*
X208838900Y-118846138D01*
X208884139Y-118800900D01*
X208974615Y-118755662D01*
X209200805Y-118755662D01*
X209336520Y-118800900D01*
X209743662Y-119705662D02*
X209743662Y-118755662D01*
X210693663Y-118800900D02*
X210603186Y-118755662D01*
X210467472Y-118755662D01*
X210331758Y-118800900D01*
X210241282Y-118891376D01*
X210196043Y-118981852D01*
X210150805Y-119162805D01*
X210150805Y-119298519D01*
X210196043Y-119479471D01*
X210241282Y-119569948D01*
X210331758Y-119660424D01*
X210467472Y-119705662D01*
X210557948Y-119705662D01*
X210693663Y-119660424D01*
X210738901Y-119615186D01*
X210738901Y-119298519D01*
X210557948Y-119298519D01*
X211146043Y-119705662D02*
X211146043Y-118755662D01*
X211688901Y-119705662D01*
X211688901Y-118755662D01*
X212096043Y-119434233D02*
X212548424Y-119434233D01*
X212005567Y-119705662D02*
X212322234Y-118755662D01*
X212638901Y-119705662D01*
X213407948Y-119705662D02*
X212955567Y-119705662D01*
X212955567Y-118755662D01*
X213498425Y-119796138D02*
X214222235Y-119796138D01*
X214448425Y-119705662D02*
X214448425Y-118755662D01*
X214991283Y-119705662D01*
X214991283Y-118755662D01*
X215398425Y-119434233D02*
X215850806Y-119434233D01*
X215307949Y-119705662D02*
X215624616Y-118755662D01*
X215941283Y-119705662D01*
X216257949Y-119705662D02*
X216257949Y-118755662D01*
X216574616Y-119434233D01*
X216891283Y-118755662D01*
X216891283Y-119705662D01*
X217343663Y-119208043D02*
X217660330Y-119208043D01*
X217796044Y-119705662D02*
X217343663Y-119705662D01*
X217343663Y-118755662D01*
X217796044Y-118755662D01*
X170427290Y-89843529D02*
X171151100Y-90114957D01*
X170427290Y-90386386D01*
X171467766Y-89526862D02*
X172010623Y-89526862D01*
X171739195Y-90476862D02*
X171739195Y-89526862D01*
X172327290Y-90476862D02*
X172327290Y-89526862D01*
X172689195Y-89526862D01*
X172779671Y-89572100D01*
X172824910Y-89617338D01*
X172870148Y-89707814D01*
X172870148Y-89843529D01*
X172824910Y-89934005D01*
X172779671Y-89979243D01*
X172689195Y-90024481D01*
X172327290Y-90024481D01*
X173051100Y-90567338D02*
X173774910Y-90567338D01*
X173955862Y-90431624D02*
X174091577Y-90476862D01*
X174317767Y-90476862D01*
X174408243Y-90431624D01*
X174453481Y-90386386D01*
X174498720Y-90295910D01*
X174498720Y-90205433D01*
X174453481Y-90114957D01*
X174408243Y-90069719D01*
X174317767Y-90024481D01*
X174136815Y-89979243D01*
X174046339Y-89934005D01*
X174001100Y-89888767D01*
X173955862Y-89798290D01*
X173955862Y-89707814D01*
X174001100Y-89617338D01*
X174046339Y-89572100D01*
X174136815Y-89526862D01*
X174363005Y-89526862D01*
X174498720Y-89572100D01*
X174905862Y-90476862D02*
X174905862Y-89526862D01*
X175855863Y-89572100D02*
X175765386Y-89526862D01*
X175629672Y-89526862D01*
X175493958Y-89572100D01*
X175403482Y-89662576D01*
X175358243Y-89753052D01*
X175313005Y-89934005D01*
X175313005Y-90069719D01*
X175358243Y-90250671D01*
X175403482Y-90341148D01*
X175493958Y-90431624D01*
X175629672Y-90476862D01*
X175720148Y-90476862D01*
X175855863Y-90431624D01*
X175901101Y-90386386D01*
X175901101Y-90069719D01*
X175720148Y-90069719D01*
X176308243Y-90476862D02*
X176308243Y-89526862D01*
X176851101Y-90476862D01*
X176851101Y-89526862D01*
X177258243Y-90205433D02*
X177710624Y-90205433D01*
X177167767Y-90476862D02*
X177484434Y-89526862D01*
X177801101Y-90476862D01*
X178570148Y-90476862D02*
X178117767Y-90476862D01*
X178117767Y-89526862D01*
X178660625Y-90567338D02*
X179384435Y-90567338D01*
X179610625Y-90476862D02*
X179610625Y-89526862D01*
X180153483Y-90476862D01*
X180153483Y-89526862D01*
X180560625Y-90205433D02*
X181013006Y-90205433D01*
X180470149Y-90476862D02*
X180786816Y-89526862D01*
X181103483Y-90476862D01*
X181420149Y-90476862D02*
X181420149Y-89526862D01*
X181736816Y-90205433D01*
X182053483Y-89526862D01*
X182053483Y-90476862D01*
X182505863Y-89979243D02*
X182822530Y-89979243D01*
X182958244Y-90476862D02*
X182505863Y-90476862D01*
X182505863Y-89526862D01*
X182958244Y-89526862D01*
X186458290Y-105811529D02*
X187182100Y-106082957D01*
X186458290Y-106354386D01*
X187498766Y-105494862D02*
X188041623Y-105494862D01*
X187770195Y-106444862D02*
X187770195Y-105494862D01*
X188358290Y-106444862D02*
X188358290Y-105494862D01*
X188720195Y-105494862D01*
X188810671Y-105540100D01*
X188855910Y-105585338D01*
X188901148Y-105675814D01*
X188901148Y-105811529D01*
X188855910Y-105902005D01*
X188810671Y-105947243D01*
X188720195Y-105992481D01*
X188358290Y-105992481D01*
X189082100Y-106535338D02*
X189805910Y-106535338D01*
X189986862Y-106399624D02*
X190122577Y-106444862D01*
X190348767Y-106444862D01*
X190439243Y-106399624D01*
X190484481Y-106354386D01*
X190529720Y-106263910D01*
X190529720Y-106173433D01*
X190484481Y-106082957D01*
X190439243Y-106037719D01*
X190348767Y-105992481D01*
X190167815Y-105947243D01*
X190077339Y-105902005D01*
X190032100Y-105856767D01*
X189986862Y-105766290D01*
X189986862Y-105675814D01*
X190032100Y-105585338D01*
X190077339Y-105540100D01*
X190167815Y-105494862D01*
X190394005Y-105494862D01*
X190529720Y-105540100D01*
X190936862Y-106444862D02*
X190936862Y-105494862D01*
X191886863Y-105540100D02*
X191796386Y-105494862D01*
X191660672Y-105494862D01*
X191524958Y-105540100D01*
X191434482Y-105630576D01*
X191389243Y-105721052D01*
X191344005Y-105902005D01*
X191344005Y-106037719D01*
X191389243Y-106218671D01*
X191434482Y-106309148D01*
X191524958Y-106399624D01*
X191660672Y-106444862D01*
X191751148Y-106444862D01*
X191886863Y-106399624D01*
X191932101Y-106354386D01*
X191932101Y-106037719D01*
X191751148Y-106037719D01*
X192339243Y-106444862D02*
X192339243Y-105494862D01*
X192882101Y-106444862D01*
X192882101Y-105494862D01*
X193289243Y-106173433D02*
X193741624Y-106173433D01*
X193198767Y-106444862D02*
X193515434Y-105494862D01*
X193832101Y-106444862D01*
X194601148Y-106444862D02*
X194148767Y-106444862D01*
X194148767Y-105494862D01*
X194691625Y-106535338D02*
X195415435Y-106535338D01*
X195641625Y-106444862D02*
X195641625Y-105494862D01*
X196184483Y-106444862D01*
X196184483Y-105494862D01*
X196591625Y-106173433D02*
X197044006Y-106173433D01*
X196501149Y-106444862D02*
X196817816Y-105494862D01*
X197134483Y-106444862D01*
X197451149Y-106444862D02*
X197451149Y-105494862D01*
X197767816Y-106173433D01*
X198084483Y-105494862D01*
X198084483Y-106444862D01*
X198536863Y-105947243D02*
X198853530Y-105947243D01*
X198989244Y-106444862D02*
X198536863Y-106444862D01*
X198536863Y-105494862D01*
X198989244Y-105494862D01*
X194336290Y-113757529D02*
X195060100Y-114028957D01*
X194336290Y-114300386D01*
X195376766Y-113440862D02*
X195919623Y-113440862D01*
X195648195Y-114390862D02*
X195648195Y-113440862D01*
X196236290Y-114390862D02*
X196236290Y-113440862D01*
X196598195Y-113440862D01*
X196688671Y-113486100D01*
X196733910Y-113531338D01*
X196779148Y-113621814D01*
X196779148Y-113757529D01*
X196733910Y-113848005D01*
X196688671Y-113893243D01*
X196598195Y-113938481D01*
X196236290Y-113938481D01*
X196960100Y-114481338D02*
X197683910Y-114481338D01*
X197864862Y-114345624D02*
X198000577Y-114390862D01*
X198226767Y-114390862D01*
X198317243Y-114345624D01*
X198362481Y-114300386D01*
X198407720Y-114209910D01*
X198407720Y-114119433D01*
X198362481Y-114028957D01*
X198317243Y-113983719D01*
X198226767Y-113938481D01*
X198045815Y-113893243D01*
X197955339Y-113848005D01*
X197910100Y-113802767D01*
X197864862Y-113712290D01*
X197864862Y-113621814D01*
X197910100Y-113531338D01*
X197955339Y-113486100D01*
X198045815Y-113440862D01*
X198272005Y-113440862D01*
X198407720Y-113486100D01*
X198814862Y-114390862D02*
X198814862Y-113440862D01*
X199764863Y-113486100D02*
X199674386Y-113440862D01*
X199538672Y-113440862D01*
X199402958Y-113486100D01*
X199312482Y-113576576D01*
X199267243Y-113667052D01*
X199222005Y-113848005D01*
X199222005Y-113983719D01*
X199267243Y-114164671D01*
X199312482Y-114255148D01*
X199402958Y-114345624D01*
X199538672Y-114390862D01*
X199629148Y-114390862D01*
X199764863Y-114345624D01*
X199810101Y-114300386D01*
X199810101Y-113983719D01*
X199629148Y-113983719D01*
X200217243Y-114390862D02*
X200217243Y-113440862D01*
X200760101Y-114390862D01*
X200760101Y-113440862D01*
X201167243Y-114119433D02*
X201619624Y-114119433D01*
X201076767Y-114390862D02*
X201393434Y-113440862D01*
X201710101Y-114390862D01*
X202479148Y-114390862D02*
X202026767Y-114390862D01*
X202026767Y-113440862D01*
X202569625Y-114481338D02*
X203293435Y-114481338D01*
X203519625Y-114390862D02*
X203519625Y-113440862D01*
X204062483Y-114390862D01*
X204062483Y-113440862D01*
X204469625Y-114119433D02*
X204922006Y-114119433D01*
X204379149Y-114390862D02*
X204695816Y-113440862D01*
X205012483Y-114390862D01*
X205329149Y-114390862D02*
X205329149Y-113440862D01*
X205645816Y-114119433D01*
X205962483Y-113440862D01*
X205962483Y-114390862D01*
X206414863Y-113893243D02*
X206731530Y-113893243D01*
X206867244Y-114390862D02*
X206414863Y-114390862D01*
X206414863Y-113440862D01*
X206867244Y-113440862D01*
X162445290Y-81807529D02*
X163169100Y-82078957D01*
X162445290Y-82350386D01*
X163485766Y-81490862D02*
X164028623Y-81490862D01*
X163757195Y-82440862D02*
X163757195Y-81490862D01*
X164345290Y-82440862D02*
X164345290Y-81490862D01*
X164707195Y-81490862D01*
X164797671Y-81536100D01*
X164842910Y-81581338D01*
X164888148Y-81671814D01*
X164888148Y-81807529D01*
X164842910Y-81898005D01*
X164797671Y-81943243D01*
X164707195Y-81988481D01*
X164345290Y-81988481D01*
X165069100Y-82531338D02*
X165792910Y-82531338D01*
X165973862Y-82395624D02*
X166109577Y-82440862D01*
X166335767Y-82440862D01*
X166426243Y-82395624D01*
X166471481Y-82350386D01*
X166516720Y-82259910D01*
X166516720Y-82169433D01*
X166471481Y-82078957D01*
X166426243Y-82033719D01*
X166335767Y-81988481D01*
X166154815Y-81943243D01*
X166064339Y-81898005D01*
X166019100Y-81852767D01*
X165973862Y-81762290D01*
X165973862Y-81671814D01*
X166019100Y-81581338D01*
X166064339Y-81536100D01*
X166154815Y-81490862D01*
X166381005Y-81490862D01*
X166516720Y-81536100D01*
X166923862Y-82440862D02*
X166923862Y-81490862D01*
X167873863Y-81536100D02*
X167783386Y-81490862D01*
X167647672Y-81490862D01*
X167511958Y-81536100D01*
X167421482Y-81626576D01*
X167376243Y-81717052D01*
X167331005Y-81898005D01*
X167331005Y-82033719D01*
X167376243Y-82214671D01*
X167421482Y-82305148D01*
X167511958Y-82395624D01*
X167647672Y-82440862D01*
X167738148Y-82440862D01*
X167873863Y-82395624D01*
X167919101Y-82350386D01*
X167919101Y-82033719D01*
X167738148Y-82033719D01*
X168326243Y-82440862D02*
X168326243Y-81490862D01*
X168869101Y-82440862D01*
X168869101Y-81490862D01*
X169276243Y-82169433D02*
X169728624Y-82169433D01*
X169185767Y-82440862D02*
X169502434Y-81490862D01*
X169819101Y-82440862D01*
X170588148Y-82440862D02*
X170135767Y-82440862D01*
X170135767Y-81490862D01*
X170678625Y-82531338D02*
X171402435Y-82531338D01*
X171628625Y-82440862D02*
X171628625Y-81490862D01*
X172171483Y-82440862D01*
X172171483Y-81490862D01*
X172578625Y-82169433D02*
X173031006Y-82169433D01*
X172488149Y-82440862D02*
X172804816Y-81490862D01*
X173121483Y-82440862D01*
X173438149Y-82440862D02*
X173438149Y-81490862D01*
X173754816Y-82169433D01*
X174071483Y-81490862D01*
X174071483Y-82440862D01*
X174523863Y-81943243D02*
X174840530Y-81943243D01*
X174976244Y-82440862D02*
X174523863Y-82440862D01*
X174523863Y-81490862D01*
X174976244Y-81490862D01*
X205392090Y-79549929D02*
X206115900Y-79821357D01*
X205392090Y-80092786D01*
X206432566Y-79233262D02*
X206975423Y-79233262D01*
X206703995Y-80183262D02*
X206703995Y-79233262D01*
X207292090Y-80183262D02*
X207292090Y-79233262D01*
X207653995Y-79233262D01*
X207744471Y-79278500D01*
X207789710Y-79323738D01*
X207834948Y-79414214D01*
X207834948Y-79549929D01*
X207789710Y-79640405D01*
X207744471Y-79685643D01*
X207653995Y-79730881D01*
X207292090Y-79730881D01*
X208015900Y-80273738D02*
X208739710Y-80273738D01*
X208920662Y-80138024D02*
X209056377Y-80183262D01*
X209282567Y-80183262D01*
X209373043Y-80138024D01*
X209418281Y-80092786D01*
X209463520Y-80002310D01*
X209463520Y-79911833D01*
X209418281Y-79821357D01*
X209373043Y-79776119D01*
X209282567Y-79730881D01*
X209101615Y-79685643D01*
X209011139Y-79640405D01*
X208965900Y-79595167D01*
X208920662Y-79504690D01*
X208920662Y-79414214D01*
X208965900Y-79323738D01*
X209011139Y-79278500D01*
X209101615Y-79233262D01*
X209327805Y-79233262D01*
X209463520Y-79278500D01*
X209870662Y-80183262D02*
X209870662Y-79233262D01*
X210820663Y-79278500D02*
X210730186Y-79233262D01*
X210594472Y-79233262D01*
X210458758Y-79278500D01*
X210368282Y-79368976D01*
X210323043Y-79459452D01*
X210277805Y-79640405D01*
X210277805Y-79776119D01*
X210323043Y-79957071D01*
X210368282Y-80047548D01*
X210458758Y-80138024D01*
X210594472Y-80183262D01*
X210684948Y-80183262D01*
X210820663Y-80138024D01*
X210865901Y-80092786D01*
X210865901Y-79776119D01*
X210684948Y-79776119D01*
X211273043Y-80183262D02*
X211273043Y-79233262D01*
X211815901Y-80183262D01*
X211815901Y-79233262D01*
X212223043Y-79911833D02*
X212675424Y-79911833D01*
X212132567Y-80183262D02*
X212449234Y-79233262D01*
X212765901Y-80183262D01*
X213534948Y-80183262D02*
X213082567Y-80183262D01*
X213082567Y-79233262D01*
X213625425Y-80273738D02*
X214349235Y-80273738D01*
X214575425Y-80183262D02*
X214575425Y-79233262D01*
X215118283Y-80183262D01*
X215118283Y-79233262D01*
X215525425Y-79911833D02*
X215977806Y-79911833D01*
X215434949Y-80183262D02*
X215751616Y-79233262D01*
X216068283Y-80183262D01*
X216384949Y-80183262D02*
X216384949Y-79233262D01*
X216701616Y-79911833D01*
X217018283Y-79233262D01*
X217018283Y-80183262D01*
X217470663Y-79685643D02*
X217787330Y-79685643D01*
X217923044Y-80183262D02*
X217470663Y-80183262D01*
X217470663Y-79233262D01*
X217923044Y-79233262D01*
X153601490Y-121180529D02*
X154325300Y-121451957D01*
X153601490Y-121723386D01*
X154641966Y-120863862D02*
X155184823Y-120863862D01*
X154913395Y-121813862D02*
X154913395Y-120863862D01*
X155501490Y-121813862D02*
X155501490Y-120863862D01*
X155863395Y-120863862D01*
X155953871Y-120909100D01*
X155999110Y-120954338D01*
X156044348Y-121044814D01*
X156044348Y-121180529D01*
X155999110Y-121271005D01*
X155953871Y-121316243D01*
X155863395Y-121361481D01*
X155501490Y-121361481D01*
X156225300Y-121904338D02*
X156949110Y-121904338D01*
X157130062Y-121768624D02*
X157265777Y-121813862D01*
X157491967Y-121813862D01*
X157582443Y-121768624D01*
X157627681Y-121723386D01*
X157672920Y-121632910D01*
X157672920Y-121542433D01*
X157627681Y-121451957D01*
X157582443Y-121406719D01*
X157491967Y-121361481D01*
X157311015Y-121316243D01*
X157220539Y-121271005D01*
X157175300Y-121225767D01*
X157130062Y-121135290D01*
X157130062Y-121044814D01*
X157175300Y-120954338D01*
X157220539Y-120909100D01*
X157311015Y-120863862D01*
X157537205Y-120863862D01*
X157672920Y-120909100D01*
X158080062Y-121813862D02*
X158080062Y-120863862D01*
X159030063Y-120909100D02*
X158939586Y-120863862D01*
X158803872Y-120863862D01*
X158668158Y-120909100D01*
X158577682Y-120999576D01*
X158532443Y-121090052D01*
X158487205Y-121271005D01*
X158487205Y-121406719D01*
X158532443Y-121587671D01*
X158577682Y-121678148D01*
X158668158Y-121768624D01*
X158803872Y-121813862D01*
X158894348Y-121813862D01*
X159030063Y-121768624D01*
X159075301Y-121723386D01*
X159075301Y-121406719D01*
X158894348Y-121406719D01*
X159482443Y-121813862D02*
X159482443Y-120863862D01*
X160025301Y-121813862D01*
X160025301Y-120863862D01*
X160432443Y-121542433D02*
X160884824Y-121542433D01*
X160341967Y-121813862D02*
X160658634Y-120863862D01*
X160975301Y-121813862D01*
X161744348Y-121813862D02*
X161291967Y-121813862D01*
X161291967Y-120863862D01*
X161834825Y-121904338D02*
X162558635Y-121904338D01*
X162784825Y-121813862D02*
X162784825Y-120863862D01*
X163327683Y-121813862D01*
X163327683Y-120863862D01*
X163734825Y-121542433D02*
X164187206Y-121542433D01*
X163644349Y-121813862D02*
X163961016Y-120863862D01*
X164277683Y-121813862D01*
X164594349Y-121813862D02*
X164594349Y-120863862D01*
X164911016Y-121542433D01*
X165227683Y-120863862D01*
X165227683Y-121813862D01*
X165680063Y-121316243D02*
X165996730Y-121316243D01*
X166132444Y-121813862D02*
X165680063Y-121813862D01*
X165680063Y-120863862D01*
X166132444Y-120863862D01*
X153626890Y-78635529D02*
X154350700Y-78906957D01*
X153626890Y-79178386D01*
X154667366Y-78318862D02*
X155210223Y-78318862D01*
X154938795Y-79268862D02*
X154938795Y-78318862D01*
X155526890Y-79268862D02*
X155526890Y-78318862D01*
X155888795Y-78318862D01*
X155979271Y-78364100D01*
X156024510Y-78409338D01*
X156069748Y-78499814D01*
X156069748Y-78635529D01*
X156024510Y-78726005D01*
X155979271Y-78771243D01*
X155888795Y-78816481D01*
X155526890Y-78816481D01*
X156250700Y-79359338D02*
X156974510Y-79359338D01*
X157155462Y-79223624D02*
X157291177Y-79268862D01*
X157517367Y-79268862D01*
X157607843Y-79223624D01*
X157653081Y-79178386D01*
X157698320Y-79087910D01*
X157698320Y-78997433D01*
X157653081Y-78906957D01*
X157607843Y-78861719D01*
X157517367Y-78816481D01*
X157336415Y-78771243D01*
X157245939Y-78726005D01*
X157200700Y-78680767D01*
X157155462Y-78590290D01*
X157155462Y-78499814D01*
X157200700Y-78409338D01*
X157245939Y-78364100D01*
X157336415Y-78318862D01*
X157562605Y-78318862D01*
X157698320Y-78364100D01*
X158105462Y-79268862D02*
X158105462Y-78318862D01*
X159055463Y-78364100D02*
X158964986Y-78318862D01*
X158829272Y-78318862D01*
X158693558Y-78364100D01*
X158603082Y-78454576D01*
X158557843Y-78545052D01*
X158512605Y-78726005D01*
X158512605Y-78861719D01*
X158557843Y-79042671D01*
X158603082Y-79133148D01*
X158693558Y-79223624D01*
X158829272Y-79268862D01*
X158919748Y-79268862D01*
X159055463Y-79223624D01*
X159100701Y-79178386D01*
X159100701Y-78861719D01*
X158919748Y-78861719D01*
X159507843Y-79268862D02*
X159507843Y-78318862D01*
X160050701Y-79268862D01*
X160050701Y-78318862D01*
X160457843Y-78997433D02*
X160910224Y-78997433D01*
X160367367Y-79268862D02*
X160684034Y-78318862D01*
X161000701Y-79268862D01*
X161769748Y-79268862D02*
X161317367Y-79268862D01*
X161317367Y-78318862D01*
X161860225Y-79359338D02*
X162584035Y-79359338D01*
X162810225Y-79268862D02*
X162810225Y-78318862D01*
X163353083Y-79268862D01*
X163353083Y-78318862D01*
X163760225Y-78997433D02*
X164212606Y-78997433D01*
X163669749Y-79268862D02*
X163986416Y-78318862D01*
X164303083Y-79268862D01*
X164619749Y-79268862D02*
X164619749Y-78318862D01*
X164936416Y-78997433D01*
X165253083Y-78318862D01*
X165253083Y-79268862D01*
X165705463Y-78771243D02*
X166022130Y-78771243D01*
X166157844Y-79268862D02*
X165705463Y-79268862D01*
X165705463Y-78318862D01*
X166157844Y-78318862D01*
X156192290Y-111299929D02*
X156916100Y-111571357D01*
X156192290Y-111842786D01*
X157232766Y-110983262D02*
X157775623Y-110983262D01*
X157504195Y-111933262D02*
X157504195Y-110983262D01*
X158092290Y-111933262D02*
X158092290Y-110983262D01*
X158454195Y-110983262D01*
X158544671Y-111028500D01*
X158589910Y-111073738D01*
X158635148Y-111164214D01*
X158635148Y-111299929D01*
X158589910Y-111390405D01*
X158544671Y-111435643D01*
X158454195Y-111480881D01*
X158092290Y-111480881D01*
X158816100Y-112023738D02*
X159539910Y-112023738D01*
X159720862Y-111888024D02*
X159856577Y-111933262D01*
X160082767Y-111933262D01*
X160173243Y-111888024D01*
X160218481Y-111842786D01*
X160263720Y-111752310D01*
X160263720Y-111661833D01*
X160218481Y-111571357D01*
X160173243Y-111526119D01*
X160082767Y-111480881D01*
X159901815Y-111435643D01*
X159811339Y-111390405D01*
X159766100Y-111345167D01*
X159720862Y-111254690D01*
X159720862Y-111164214D01*
X159766100Y-111073738D01*
X159811339Y-111028500D01*
X159901815Y-110983262D01*
X160128005Y-110983262D01*
X160263720Y-111028500D01*
X160670862Y-111933262D02*
X160670862Y-110983262D01*
X161620863Y-111028500D02*
X161530386Y-110983262D01*
X161394672Y-110983262D01*
X161258958Y-111028500D01*
X161168482Y-111118976D01*
X161123243Y-111209452D01*
X161078005Y-111390405D01*
X161078005Y-111526119D01*
X161123243Y-111707071D01*
X161168482Y-111797548D01*
X161258958Y-111888024D01*
X161394672Y-111933262D01*
X161485148Y-111933262D01*
X161620863Y-111888024D01*
X161666101Y-111842786D01*
X161666101Y-111526119D01*
X161485148Y-111526119D01*
X162073243Y-111933262D02*
X162073243Y-110983262D01*
X162616101Y-111933262D01*
X162616101Y-110983262D01*
X163023243Y-111661833D02*
X163475624Y-111661833D01*
X162932767Y-111933262D02*
X163249434Y-110983262D01*
X163566101Y-111933262D01*
X164335148Y-111933262D02*
X163882767Y-111933262D01*
X163882767Y-110983262D01*
X164425625Y-112023738D02*
X165149435Y-112023738D01*
X165375625Y-111933262D02*
X165375625Y-110983262D01*
X165918483Y-111933262D01*
X165918483Y-110983262D01*
X166325625Y-111661833D02*
X166778006Y-111661833D01*
X166235149Y-111933262D02*
X166551816Y-110983262D01*
X166868483Y-111933262D01*
X167185149Y-111933262D02*
X167185149Y-110983262D01*
X167501816Y-111661833D01*
X167818483Y-110983262D01*
X167818483Y-111933262D01*
X168270863Y-111435643D02*
X168587530Y-111435643D01*
X168723244Y-111933262D02*
X168270863Y-111933262D01*
X168270863Y-110983262D01*
X168723244Y-110983262D01*
X156268490Y-108683729D02*
X156992300Y-108955157D01*
X156268490Y-109226586D01*
X157308966Y-108367062D02*
X157851823Y-108367062D01*
X157580395Y-109317062D02*
X157580395Y-108367062D01*
X158168490Y-109317062D02*
X158168490Y-108367062D01*
X158530395Y-108367062D01*
X158620871Y-108412300D01*
X158666110Y-108457538D01*
X158711348Y-108548014D01*
X158711348Y-108683729D01*
X158666110Y-108774205D01*
X158620871Y-108819443D01*
X158530395Y-108864681D01*
X158168490Y-108864681D01*
X158892300Y-109407538D02*
X159616110Y-109407538D01*
X159797062Y-109271824D02*
X159932777Y-109317062D01*
X160158967Y-109317062D01*
X160249443Y-109271824D01*
X160294681Y-109226586D01*
X160339920Y-109136110D01*
X160339920Y-109045633D01*
X160294681Y-108955157D01*
X160249443Y-108909919D01*
X160158967Y-108864681D01*
X159978015Y-108819443D01*
X159887539Y-108774205D01*
X159842300Y-108728967D01*
X159797062Y-108638490D01*
X159797062Y-108548014D01*
X159842300Y-108457538D01*
X159887539Y-108412300D01*
X159978015Y-108367062D01*
X160204205Y-108367062D01*
X160339920Y-108412300D01*
X160747062Y-109317062D02*
X160747062Y-108367062D01*
X161697063Y-108412300D02*
X161606586Y-108367062D01*
X161470872Y-108367062D01*
X161335158Y-108412300D01*
X161244682Y-108502776D01*
X161199443Y-108593252D01*
X161154205Y-108774205D01*
X161154205Y-108909919D01*
X161199443Y-109090871D01*
X161244682Y-109181348D01*
X161335158Y-109271824D01*
X161470872Y-109317062D01*
X161561348Y-109317062D01*
X161697063Y-109271824D01*
X161742301Y-109226586D01*
X161742301Y-108909919D01*
X161561348Y-108909919D01*
X162149443Y-109317062D02*
X162149443Y-108367062D01*
X162692301Y-109317062D01*
X162692301Y-108367062D01*
X163099443Y-109045633D02*
X163551824Y-109045633D01*
X163008967Y-109317062D02*
X163325634Y-108367062D01*
X163642301Y-109317062D01*
X164411348Y-109317062D02*
X163958967Y-109317062D01*
X163958967Y-108367062D01*
X164501825Y-109407538D02*
X165225635Y-109407538D01*
X165451825Y-109317062D02*
X165451825Y-108367062D01*
X165994683Y-109317062D01*
X165994683Y-108367062D01*
X166401825Y-109045633D02*
X166854206Y-109045633D01*
X166311349Y-109317062D02*
X166628016Y-108367062D01*
X166944683Y-109317062D01*
X167261349Y-109317062D02*
X167261349Y-108367062D01*
X167578016Y-109045633D01*
X167894683Y-108367062D01*
X167894683Y-109317062D01*
X168347063Y-108819443D02*
X168663730Y-108819443D01*
X168799444Y-109317062D02*
X168347063Y-109317062D01*
X168347063Y-108367062D01*
X168799444Y-108367062D01*
X156243090Y-100784329D02*
X156966900Y-101055757D01*
X156243090Y-101327186D01*
X157283566Y-100467662D02*
X157826423Y-100467662D01*
X157554995Y-101417662D02*
X157554995Y-100467662D01*
X158143090Y-101417662D02*
X158143090Y-100467662D01*
X158504995Y-100467662D01*
X158595471Y-100512900D01*
X158640710Y-100558138D01*
X158685948Y-100648614D01*
X158685948Y-100784329D01*
X158640710Y-100874805D01*
X158595471Y-100920043D01*
X158504995Y-100965281D01*
X158143090Y-100965281D01*
X158866900Y-101508138D02*
X159590710Y-101508138D01*
X159771662Y-101372424D02*
X159907377Y-101417662D01*
X160133567Y-101417662D01*
X160224043Y-101372424D01*
X160269281Y-101327186D01*
X160314520Y-101236710D01*
X160314520Y-101146233D01*
X160269281Y-101055757D01*
X160224043Y-101010519D01*
X160133567Y-100965281D01*
X159952615Y-100920043D01*
X159862139Y-100874805D01*
X159816900Y-100829567D01*
X159771662Y-100739090D01*
X159771662Y-100648614D01*
X159816900Y-100558138D01*
X159862139Y-100512900D01*
X159952615Y-100467662D01*
X160178805Y-100467662D01*
X160314520Y-100512900D01*
X160721662Y-101417662D02*
X160721662Y-100467662D01*
X161671663Y-100512900D02*
X161581186Y-100467662D01*
X161445472Y-100467662D01*
X161309758Y-100512900D01*
X161219282Y-100603376D01*
X161174043Y-100693852D01*
X161128805Y-100874805D01*
X161128805Y-101010519D01*
X161174043Y-101191471D01*
X161219282Y-101281948D01*
X161309758Y-101372424D01*
X161445472Y-101417662D01*
X161535948Y-101417662D01*
X161671663Y-101372424D01*
X161716901Y-101327186D01*
X161716901Y-101010519D01*
X161535948Y-101010519D01*
X162124043Y-101417662D02*
X162124043Y-100467662D01*
X162666901Y-101417662D01*
X162666901Y-100467662D01*
X163074043Y-101146233D02*
X163526424Y-101146233D01*
X162983567Y-101417662D02*
X163300234Y-100467662D01*
X163616901Y-101417662D01*
X164385948Y-101417662D02*
X163933567Y-101417662D01*
X163933567Y-100467662D01*
X164476425Y-101508138D02*
X165200235Y-101508138D01*
X165426425Y-101417662D02*
X165426425Y-100467662D01*
X165969283Y-101417662D01*
X165969283Y-100467662D01*
X166376425Y-101146233D02*
X166828806Y-101146233D01*
X166285949Y-101417662D02*
X166602616Y-100467662D01*
X166919283Y-101417662D01*
X167235949Y-101417662D02*
X167235949Y-100467662D01*
X167552616Y-101146233D01*
X167869283Y-100467662D01*
X167869283Y-101417662D01*
X168321663Y-100920043D02*
X168638330Y-100920043D01*
X168774044Y-101417662D02*
X168321663Y-101417662D01*
X168321663Y-100467662D01*
X168774044Y-100467662D01*
X156090690Y-92656329D02*
X156814500Y-92927757D01*
X156090690Y-93199186D01*
X157131166Y-92339662D02*
X157674023Y-92339662D01*
X157402595Y-93289662D02*
X157402595Y-92339662D01*
X157990690Y-93289662D02*
X157990690Y-92339662D01*
X158352595Y-92339662D01*
X158443071Y-92384900D01*
X158488310Y-92430138D01*
X158533548Y-92520614D01*
X158533548Y-92656329D01*
X158488310Y-92746805D01*
X158443071Y-92792043D01*
X158352595Y-92837281D01*
X157990690Y-92837281D01*
X158714500Y-93380138D02*
X159438310Y-93380138D01*
X159619262Y-93244424D02*
X159754977Y-93289662D01*
X159981167Y-93289662D01*
X160071643Y-93244424D01*
X160116881Y-93199186D01*
X160162120Y-93108710D01*
X160162120Y-93018233D01*
X160116881Y-92927757D01*
X160071643Y-92882519D01*
X159981167Y-92837281D01*
X159800215Y-92792043D01*
X159709739Y-92746805D01*
X159664500Y-92701567D01*
X159619262Y-92611090D01*
X159619262Y-92520614D01*
X159664500Y-92430138D01*
X159709739Y-92384900D01*
X159800215Y-92339662D01*
X160026405Y-92339662D01*
X160162120Y-92384900D01*
X160569262Y-93289662D02*
X160569262Y-92339662D01*
X161519263Y-92384900D02*
X161428786Y-92339662D01*
X161293072Y-92339662D01*
X161157358Y-92384900D01*
X161066882Y-92475376D01*
X161021643Y-92565852D01*
X160976405Y-92746805D01*
X160976405Y-92882519D01*
X161021643Y-93063471D01*
X161066882Y-93153948D01*
X161157358Y-93244424D01*
X161293072Y-93289662D01*
X161383548Y-93289662D01*
X161519263Y-93244424D01*
X161564501Y-93199186D01*
X161564501Y-92882519D01*
X161383548Y-92882519D01*
X161971643Y-93289662D02*
X161971643Y-92339662D01*
X162514501Y-93289662D01*
X162514501Y-92339662D01*
X162921643Y-93018233D02*
X163374024Y-93018233D01*
X162831167Y-93289662D02*
X163147834Y-92339662D01*
X163464501Y-93289662D01*
X164233548Y-93289662D02*
X163781167Y-93289662D01*
X163781167Y-92339662D01*
X164324025Y-93380138D02*
X165047835Y-93380138D01*
X165274025Y-93289662D02*
X165274025Y-92339662D01*
X165816883Y-93289662D01*
X165816883Y-92339662D01*
X166224025Y-93018233D02*
X166676406Y-93018233D01*
X166133549Y-93289662D02*
X166450216Y-92339662D01*
X166766883Y-93289662D01*
X167083549Y-93289662D02*
X167083549Y-92339662D01*
X167400216Y-93018233D01*
X167716883Y-92339662D01*
X167716883Y-93289662D01*
X168169263Y-92792043D02*
X168485930Y-92792043D01*
X168621644Y-93289662D02*
X168169263Y-93289662D01*
X168169263Y-92339662D01*
X168621644Y-92339662D01*
X156293890Y-83994929D02*
X157017700Y-84266357D01*
X156293890Y-84537786D01*
X157334366Y-83678262D02*
X157877223Y-83678262D01*
X157605795Y-84628262D02*
X157605795Y-83678262D01*
X158193890Y-84628262D02*
X158193890Y-83678262D01*
X158555795Y-83678262D01*
X158646271Y-83723500D01*
X158691510Y-83768738D01*
X158736748Y-83859214D01*
X158736748Y-83994929D01*
X158691510Y-84085405D01*
X158646271Y-84130643D01*
X158555795Y-84175881D01*
X158193890Y-84175881D01*
X158917700Y-84718738D02*
X159641510Y-84718738D01*
X159822462Y-84583024D02*
X159958177Y-84628262D01*
X160184367Y-84628262D01*
X160274843Y-84583024D01*
X160320081Y-84537786D01*
X160365320Y-84447310D01*
X160365320Y-84356833D01*
X160320081Y-84266357D01*
X160274843Y-84221119D01*
X160184367Y-84175881D01*
X160003415Y-84130643D01*
X159912939Y-84085405D01*
X159867700Y-84040167D01*
X159822462Y-83949690D01*
X159822462Y-83859214D01*
X159867700Y-83768738D01*
X159912939Y-83723500D01*
X160003415Y-83678262D01*
X160229605Y-83678262D01*
X160365320Y-83723500D01*
X160772462Y-84628262D02*
X160772462Y-83678262D01*
X161722463Y-83723500D02*
X161631986Y-83678262D01*
X161496272Y-83678262D01*
X161360558Y-83723500D01*
X161270082Y-83813976D01*
X161224843Y-83904452D01*
X161179605Y-84085405D01*
X161179605Y-84221119D01*
X161224843Y-84402071D01*
X161270082Y-84492548D01*
X161360558Y-84583024D01*
X161496272Y-84628262D01*
X161586748Y-84628262D01*
X161722463Y-84583024D01*
X161767701Y-84537786D01*
X161767701Y-84221119D01*
X161586748Y-84221119D01*
X162174843Y-84628262D02*
X162174843Y-83678262D01*
X162717701Y-84628262D01*
X162717701Y-83678262D01*
X163124843Y-84356833D02*
X163577224Y-84356833D01*
X163034367Y-84628262D02*
X163351034Y-83678262D01*
X163667701Y-84628262D01*
X164436748Y-84628262D02*
X163984367Y-84628262D01*
X163984367Y-83678262D01*
X164527225Y-84718738D02*
X165251035Y-84718738D01*
X165477225Y-84628262D02*
X165477225Y-83678262D01*
X166020083Y-84628262D01*
X166020083Y-83678262D01*
X166427225Y-84356833D02*
X166879606Y-84356833D01*
X166336749Y-84628262D02*
X166653416Y-83678262D01*
X166970083Y-84628262D01*
X167286749Y-84628262D02*
X167286749Y-83678262D01*
X167603416Y-84356833D01*
X167920083Y-83678262D01*
X167920083Y-84628262D01*
X168372463Y-84130643D02*
X168689130Y-84130643D01*
X168824844Y-84628262D02*
X168372463Y-84628262D01*
X168372463Y-83678262D01*
X168824844Y-83678262D01*
X205265090Y-124787329D02*
X205988900Y-125058757D01*
X205265090Y-125330186D01*
X206305566Y-124470662D02*
X206848423Y-124470662D01*
X206576995Y-125420662D02*
X206576995Y-124470662D01*
X207165090Y-125420662D02*
X207165090Y-124470662D01*
X207526995Y-124470662D01*
X207617471Y-124515900D01*
X207662710Y-124561138D01*
X207707948Y-124651614D01*
X207707948Y-124787329D01*
X207662710Y-124877805D01*
X207617471Y-124923043D01*
X207526995Y-124968281D01*
X207165090Y-124968281D01*
X207888900Y-125511138D02*
X208612710Y-125511138D01*
X208793662Y-125375424D02*
X208929377Y-125420662D01*
X209155567Y-125420662D01*
X209246043Y-125375424D01*
X209291281Y-125330186D01*
X209336520Y-125239710D01*
X209336520Y-125149233D01*
X209291281Y-125058757D01*
X209246043Y-125013519D01*
X209155567Y-124968281D01*
X208974615Y-124923043D01*
X208884139Y-124877805D01*
X208838900Y-124832567D01*
X208793662Y-124742090D01*
X208793662Y-124651614D01*
X208838900Y-124561138D01*
X208884139Y-124515900D01*
X208974615Y-124470662D01*
X209200805Y-124470662D01*
X209336520Y-124515900D01*
X209743662Y-125420662D02*
X209743662Y-124470662D01*
X210693663Y-124515900D02*
X210603186Y-124470662D01*
X210467472Y-124470662D01*
X210331758Y-124515900D01*
X210241282Y-124606376D01*
X210196043Y-124696852D01*
X210150805Y-124877805D01*
X210150805Y-125013519D01*
X210196043Y-125194471D01*
X210241282Y-125284948D01*
X210331758Y-125375424D01*
X210467472Y-125420662D01*
X210557948Y-125420662D01*
X210693663Y-125375424D01*
X210738901Y-125330186D01*
X210738901Y-125013519D01*
X210557948Y-125013519D01*
X211146043Y-125420662D02*
X211146043Y-124470662D01*
X211688901Y-125420662D01*
X211688901Y-124470662D01*
X212096043Y-125149233D02*
X212548424Y-125149233D01*
X212005567Y-125420662D02*
X212322234Y-124470662D01*
X212638901Y-125420662D01*
X213407948Y-125420662D02*
X212955567Y-125420662D01*
X212955567Y-124470662D01*
X213498425Y-125511138D02*
X214222235Y-125511138D01*
X214448425Y-125420662D02*
X214448425Y-124470662D01*
X214991283Y-125420662D01*
X214991283Y-124470662D01*
X215398425Y-125149233D02*
X215850806Y-125149233D01*
X215307949Y-125420662D02*
X215624616Y-124470662D01*
X215941283Y-125420662D01*
X216257949Y-125420662D02*
X216257949Y-124470662D01*
X216574616Y-125149233D01*
X216891283Y-124470662D01*
X216891283Y-125420662D01*
X217343663Y-124923043D02*
X217660330Y-124923043D01*
X217796044Y-125420662D02*
X217343663Y-125420662D01*
X217343663Y-124470662D01*
X217796044Y-124470662D01*
X203207690Y-84528329D02*
X203931500Y-84799757D01*
X203207690Y-85071186D01*
X204248166Y-84211662D02*
X204791023Y-84211662D01*
X204519595Y-85161662D02*
X204519595Y-84211662D01*
X205107690Y-85161662D02*
X205107690Y-84211662D01*
X205469595Y-84211662D01*
X205560071Y-84256900D01*
X205605310Y-84302138D01*
X205650548Y-84392614D01*
X205650548Y-84528329D01*
X205605310Y-84618805D01*
X205560071Y-84664043D01*
X205469595Y-84709281D01*
X205107690Y-84709281D01*
X205831500Y-85252138D02*
X206555310Y-85252138D01*
X206736262Y-85116424D02*
X206871977Y-85161662D01*
X207098167Y-85161662D01*
X207188643Y-85116424D01*
X207233881Y-85071186D01*
X207279120Y-84980710D01*
X207279120Y-84890233D01*
X207233881Y-84799757D01*
X207188643Y-84754519D01*
X207098167Y-84709281D01*
X206917215Y-84664043D01*
X206826739Y-84618805D01*
X206781500Y-84573567D01*
X206736262Y-84483090D01*
X206736262Y-84392614D01*
X206781500Y-84302138D01*
X206826739Y-84256900D01*
X206917215Y-84211662D01*
X207143405Y-84211662D01*
X207279120Y-84256900D01*
X207686262Y-85161662D02*
X207686262Y-84211662D01*
X208636263Y-84256900D02*
X208545786Y-84211662D01*
X208410072Y-84211662D01*
X208274358Y-84256900D01*
X208183882Y-84347376D01*
X208138643Y-84437852D01*
X208093405Y-84618805D01*
X208093405Y-84754519D01*
X208138643Y-84935471D01*
X208183882Y-85025948D01*
X208274358Y-85116424D01*
X208410072Y-85161662D01*
X208500548Y-85161662D01*
X208636263Y-85116424D01*
X208681501Y-85071186D01*
X208681501Y-84754519D01*
X208500548Y-84754519D01*
X209088643Y-85161662D02*
X209088643Y-84211662D01*
X209631501Y-85161662D01*
X209631501Y-84211662D01*
X210038643Y-84890233D02*
X210491024Y-84890233D01*
X209948167Y-85161662D02*
X210264834Y-84211662D01*
X210581501Y-85161662D01*
X211350548Y-85161662D02*
X210898167Y-85161662D01*
X210898167Y-84211662D01*
X211441025Y-85252138D02*
X212164835Y-85252138D01*
X212391025Y-85161662D02*
X212391025Y-84211662D01*
X212933883Y-85161662D01*
X212933883Y-84211662D01*
X213341025Y-84890233D02*
X213793406Y-84890233D01*
X213250549Y-85161662D02*
X213567216Y-84211662D01*
X213883883Y-85161662D01*
X214200549Y-85161662D02*
X214200549Y-84211662D01*
X214517216Y-84890233D01*
X214833883Y-84211662D01*
X214833883Y-85161662D01*
X215286263Y-84664043D02*
X215602930Y-84664043D01*
X215738644Y-85161662D02*
X215286263Y-85161662D01*
X215286263Y-84211662D01*
X215738644Y-84211662D01*
X203283890Y-92580129D02*
X204007700Y-92851557D01*
X203283890Y-93122986D01*
X204324366Y-92263462D02*
X204867223Y-92263462D01*
X204595795Y-93213462D02*
X204595795Y-92263462D01*
X205183890Y-93213462D02*
X205183890Y-92263462D01*
X205545795Y-92263462D01*
X205636271Y-92308700D01*
X205681510Y-92353938D01*
X205726748Y-92444414D01*
X205726748Y-92580129D01*
X205681510Y-92670605D01*
X205636271Y-92715843D01*
X205545795Y-92761081D01*
X205183890Y-92761081D01*
X205907700Y-93303938D02*
X206631510Y-93303938D01*
X206812462Y-93168224D02*
X206948177Y-93213462D01*
X207174367Y-93213462D01*
X207264843Y-93168224D01*
X207310081Y-93122986D01*
X207355320Y-93032510D01*
X207355320Y-92942033D01*
X207310081Y-92851557D01*
X207264843Y-92806319D01*
X207174367Y-92761081D01*
X206993415Y-92715843D01*
X206902939Y-92670605D01*
X206857700Y-92625367D01*
X206812462Y-92534890D01*
X206812462Y-92444414D01*
X206857700Y-92353938D01*
X206902939Y-92308700D01*
X206993415Y-92263462D01*
X207219605Y-92263462D01*
X207355320Y-92308700D01*
X207762462Y-93213462D02*
X207762462Y-92263462D01*
X208712463Y-92308700D02*
X208621986Y-92263462D01*
X208486272Y-92263462D01*
X208350558Y-92308700D01*
X208260082Y-92399176D01*
X208214843Y-92489652D01*
X208169605Y-92670605D01*
X208169605Y-92806319D01*
X208214843Y-92987271D01*
X208260082Y-93077748D01*
X208350558Y-93168224D01*
X208486272Y-93213462D01*
X208576748Y-93213462D01*
X208712463Y-93168224D01*
X208757701Y-93122986D01*
X208757701Y-92806319D01*
X208576748Y-92806319D01*
X209164843Y-93213462D02*
X209164843Y-92263462D01*
X209707701Y-93213462D01*
X209707701Y-92263462D01*
X210114843Y-92942033D02*
X210567224Y-92942033D01*
X210024367Y-93213462D02*
X210341034Y-92263462D01*
X210657701Y-93213462D01*
X211426748Y-93213462D02*
X210974367Y-93213462D01*
X210974367Y-92263462D01*
X211517225Y-93303938D02*
X212241035Y-93303938D01*
X212467225Y-93213462D02*
X212467225Y-92263462D01*
X213010083Y-93213462D01*
X213010083Y-92263462D01*
X213417225Y-92942033D02*
X213869606Y-92942033D01*
X213326749Y-93213462D02*
X213643416Y-92263462D01*
X213960083Y-93213462D01*
X214276749Y-93213462D02*
X214276749Y-92263462D01*
X214593416Y-92942033D01*
X214910083Y-92263462D01*
X214910083Y-93213462D01*
X215362463Y-92715843D02*
X215679130Y-92715843D01*
X215814844Y-93213462D02*
X215362463Y-93213462D01*
X215362463Y-92263462D01*
X215814844Y-92263462D01*
X203283890Y-108759929D02*
X204007700Y-109031357D01*
X203283890Y-109302786D01*
X204324366Y-108443262D02*
X204867223Y-108443262D01*
X204595795Y-109393262D02*
X204595795Y-108443262D01*
X205183890Y-109393262D02*
X205183890Y-108443262D01*
X205545795Y-108443262D01*
X205636271Y-108488500D01*
X205681510Y-108533738D01*
X205726748Y-108624214D01*
X205726748Y-108759929D01*
X205681510Y-108850405D01*
X205636271Y-108895643D01*
X205545795Y-108940881D01*
X205183890Y-108940881D01*
X205907700Y-109483738D02*
X206631510Y-109483738D01*
X206812462Y-109348024D02*
X206948177Y-109393262D01*
X207174367Y-109393262D01*
X207264843Y-109348024D01*
X207310081Y-109302786D01*
X207355320Y-109212310D01*
X207355320Y-109121833D01*
X207310081Y-109031357D01*
X207264843Y-108986119D01*
X207174367Y-108940881D01*
X206993415Y-108895643D01*
X206902939Y-108850405D01*
X206857700Y-108805167D01*
X206812462Y-108714690D01*
X206812462Y-108624214D01*
X206857700Y-108533738D01*
X206902939Y-108488500D01*
X206993415Y-108443262D01*
X207219605Y-108443262D01*
X207355320Y-108488500D01*
X207762462Y-109393262D02*
X207762462Y-108443262D01*
X208712463Y-108488500D02*
X208621986Y-108443262D01*
X208486272Y-108443262D01*
X208350558Y-108488500D01*
X208260082Y-108578976D01*
X208214843Y-108669452D01*
X208169605Y-108850405D01*
X208169605Y-108986119D01*
X208214843Y-109167071D01*
X208260082Y-109257548D01*
X208350558Y-109348024D01*
X208486272Y-109393262D01*
X208576748Y-109393262D01*
X208712463Y-109348024D01*
X208757701Y-109302786D01*
X208757701Y-108986119D01*
X208576748Y-108986119D01*
X209164843Y-109393262D02*
X209164843Y-108443262D01*
X209707701Y-109393262D01*
X209707701Y-108443262D01*
X210114843Y-109121833D02*
X210567224Y-109121833D01*
X210024367Y-109393262D02*
X210341034Y-108443262D01*
X210657701Y-109393262D01*
X211426748Y-109393262D02*
X210974367Y-109393262D01*
X210974367Y-108443262D01*
X211517225Y-109483738D02*
X212241035Y-109483738D01*
X212467225Y-109393262D02*
X212467225Y-108443262D01*
X213010083Y-109393262D01*
X213010083Y-108443262D01*
X213417225Y-109121833D02*
X213869606Y-109121833D01*
X213326749Y-109393262D02*
X213643416Y-108443262D01*
X213960083Y-109393262D01*
X214276749Y-109393262D02*
X214276749Y-108443262D01*
X214593416Y-109121833D01*
X214910083Y-108443262D01*
X214910083Y-109393262D01*
X215362463Y-108895643D02*
X215679130Y-108895643D01*
X215814844Y-109393262D02*
X215362463Y-109393262D01*
X215362463Y-108443262D01*
X215814844Y-108443262D01*
X203334690Y-87144529D02*
X204058500Y-87415957D01*
X203334690Y-87687386D01*
X204375166Y-86827862D02*
X204918023Y-86827862D01*
X204646595Y-87777862D02*
X204646595Y-86827862D01*
X205234690Y-87777862D02*
X205234690Y-86827862D01*
X205596595Y-86827862D01*
X205687071Y-86873100D01*
X205732310Y-86918338D01*
X205777548Y-87008814D01*
X205777548Y-87144529D01*
X205732310Y-87235005D01*
X205687071Y-87280243D01*
X205596595Y-87325481D01*
X205234690Y-87325481D01*
X205958500Y-87868338D02*
X206682310Y-87868338D01*
X206863262Y-87732624D02*
X206998977Y-87777862D01*
X207225167Y-87777862D01*
X207315643Y-87732624D01*
X207360881Y-87687386D01*
X207406120Y-87596910D01*
X207406120Y-87506433D01*
X207360881Y-87415957D01*
X207315643Y-87370719D01*
X207225167Y-87325481D01*
X207044215Y-87280243D01*
X206953739Y-87235005D01*
X206908500Y-87189767D01*
X206863262Y-87099290D01*
X206863262Y-87008814D01*
X206908500Y-86918338D01*
X206953739Y-86873100D01*
X207044215Y-86827862D01*
X207270405Y-86827862D01*
X207406120Y-86873100D01*
X207813262Y-87777862D02*
X207813262Y-86827862D01*
X208763263Y-86873100D02*
X208672786Y-86827862D01*
X208537072Y-86827862D01*
X208401358Y-86873100D01*
X208310882Y-86963576D01*
X208265643Y-87054052D01*
X208220405Y-87235005D01*
X208220405Y-87370719D01*
X208265643Y-87551671D01*
X208310882Y-87642148D01*
X208401358Y-87732624D01*
X208537072Y-87777862D01*
X208627548Y-87777862D01*
X208763263Y-87732624D01*
X208808501Y-87687386D01*
X208808501Y-87370719D01*
X208627548Y-87370719D01*
X209215643Y-87777862D02*
X209215643Y-86827862D01*
X209758501Y-87777862D01*
X209758501Y-86827862D01*
X210165643Y-87506433D02*
X210618024Y-87506433D01*
X210075167Y-87777862D02*
X210391834Y-86827862D01*
X210708501Y-87777862D01*
X211477548Y-87777862D02*
X211025167Y-87777862D01*
X211025167Y-86827862D01*
X211568025Y-87868338D02*
X212291835Y-87868338D01*
X212518025Y-87777862D02*
X212518025Y-86827862D01*
X213060883Y-87777862D01*
X213060883Y-86827862D01*
X213468025Y-87506433D02*
X213920406Y-87506433D01*
X213377549Y-87777862D02*
X213694216Y-86827862D01*
X214010883Y-87777862D01*
X214327549Y-87777862D02*
X214327549Y-86827862D01*
X214644216Y-87506433D01*
X214960883Y-86827862D01*
X214960883Y-87777862D01*
X215413263Y-87280243D02*
X215729930Y-87280243D01*
X215865644Y-87777862D02*
X215413263Y-87777862D01*
X215413263Y-86827862D01*
X215865644Y-86827862D01*
X156268490Y-87119129D02*
X156992300Y-87390557D01*
X156268490Y-87661986D01*
X157308966Y-86802462D02*
X157851823Y-86802462D01*
X157580395Y-87752462D02*
X157580395Y-86802462D01*
X158168490Y-87752462D02*
X158168490Y-86802462D01*
X158530395Y-86802462D01*
X158620871Y-86847700D01*
X158666110Y-86892938D01*
X158711348Y-86983414D01*
X158711348Y-87119129D01*
X158666110Y-87209605D01*
X158620871Y-87254843D01*
X158530395Y-87300081D01*
X158168490Y-87300081D01*
X158892300Y-87842938D02*
X159616110Y-87842938D01*
X159797062Y-87707224D02*
X159932777Y-87752462D01*
X160158967Y-87752462D01*
X160249443Y-87707224D01*
X160294681Y-87661986D01*
X160339920Y-87571510D01*
X160339920Y-87481033D01*
X160294681Y-87390557D01*
X160249443Y-87345319D01*
X160158967Y-87300081D01*
X159978015Y-87254843D01*
X159887539Y-87209605D01*
X159842300Y-87164367D01*
X159797062Y-87073890D01*
X159797062Y-86983414D01*
X159842300Y-86892938D01*
X159887539Y-86847700D01*
X159978015Y-86802462D01*
X160204205Y-86802462D01*
X160339920Y-86847700D01*
X160747062Y-87752462D02*
X160747062Y-86802462D01*
X161697063Y-86847700D02*
X161606586Y-86802462D01*
X161470872Y-86802462D01*
X161335158Y-86847700D01*
X161244682Y-86938176D01*
X161199443Y-87028652D01*
X161154205Y-87209605D01*
X161154205Y-87345319D01*
X161199443Y-87526271D01*
X161244682Y-87616748D01*
X161335158Y-87707224D01*
X161470872Y-87752462D01*
X161561348Y-87752462D01*
X161697063Y-87707224D01*
X161742301Y-87661986D01*
X161742301Y-87345319D01*
X161561348Y-87345319D01*
X162149443Y-87752462D02*
X162149443Y-86802462D01*
X162692301Y-87752462D01*
X162692301Y-86802462D01*
X163099443Y-87481033D02*
X163551824Y-87481033D01*
X163008967Y-87752462D02*
X163325634Y-86802462D01*
X163642301Y-87752462D01*
X164411348Y-87752462D02*
X163958967Y-87752462D01*
X163958967Y-86802462D01*
X164501825Y-87842938D02*
X165225635Y-87842938D01*
X165451825Y-87752462D02*
X165451825Y-86802462D01*
X165994683Y-87752462D01*
X165994683Y-86802462D01*
X166401825Y-87481033D02*
X166854206Y-87481033D01*
X166311349Y-87752462D02*
X166628016Y-86802462D01*
X166944683Y-87752462D01*
X167261349Y-87752462D02*
X167261349Y-86802462D01*
X167578016Y-87481033D01*
X167894683Y-86802462D01*
X167894683Y-87752462D01*
X168347063Y-87254843D02*
X168663730Y-87254843D01*
X168799444Y-87752462D02*
X168347063Y-87752462D01*
X168347063Y-86802462D01*
X168799444Y-86802462D01*
X203233090Y-103451329D02*
X203956900Y-103722757D01*
X203233090Y-103994186D01*
X204273566Y-103134662D02*
X204816423Y-103134662D01*
X204544995Y-104084662D02*
X204544995Y-103134662D01*
X205133090Y-104084662D02*
X205133090Y-103134662D01*
X205494995Y-103134662D01*
X205585471Y-103179900D01*
X205630710Y-103225138D01*
X205675948Y-103315614D01*
X205675948Y-103451329D01*
X205630710Y-103541805D01*
X205585471Y-103587043D01*
X205494995Y-103632281D01*
X205133090Y-103632281D01*
X205856900Y-104175138D02*
X206580710Y-104175138D01*
X206761662Y-104039424D02*
X206897377Y-104084662D01*
X207123567Y-104084662D01*
X207214043Y-104039424D01*
X207259281Y-103994186D01*
X207304520Y-103903710D01*
X207304520Y-103813233D01*
X207259281Y-103722757D01*
X207214043Y-103677519D01*
X207123567Y-103632281D01*
X206942615Y-103587043D01*
X206852139Y-103541805D01*
X206806900Y-103496567D01*
X206761662Y-103406090D01*
X206761662Y-103315614D01*
X206806900Y-103225138D01*
X206852139Y-103179900D01*
X206942615Y-103134662D01*
X207168805Y-103134662D01*
X207304520Y-103179900D01*
X207711662Y-104084662D02*
X207711662Y-103134662D01*
X208661663Y-103179900D02*
X208571186Y-103134662D01*
X208435472Y-103134662D01*
X208299758Y-103179900D01*
X208209282Y-103270376D01*
X208164043Y-103360852D01*
X208118805Y-103541805D01*
X208118805Y-103677519D01*
X208164043Y-103858471D01*
X208209282Y-103948948D01*
X208299758Y-104039424D01*
X208435472Y-104084662D01*
X208525948Y-104084662D01*
X208661663Y-104039424D01*
X208706901Y-103994186D01*
X208706901Y-103677519D01*
X208525948Y-103677519D01*
X209114043Y-104084662D02*
X209114043Y-103134662D01*
X209656901Y-104084662D01*
X209656901Y-103134662D01*
X210064043Y-103813233D02*
X210516424Y-103813233D01*
X209973567Y-104084662D02*
X210290234Y-103134662D01*
X210606901Y-104084662D01*
X211375948Y-104084662D02*
X210923567Y-104084662D01*
X210923567Y-103134662D01*
X211466425Y-104175138D02*
X212190235Y-104175138D01*
X212416425Y-104084662D02*
X212416425Y-103134662D01*
X212959283Y-104084662D01*
X212959283Y-103134662D01*
X213366425Y-103813233D02*
X213818806Y-103813233D01*
X213275949Y-104084662D02*
X213592616Y-103134662D01*
X213909283Y-104084662D01*
X214225949Y-104084662D02*
X214225949Y-103134662D01*
X214542616Y-103813233D01*
X214859283Y-103134662D01*
X214859283Y-104084662D01*
X215311663Y-103587043D02*
X215628330Y-103587043D01*
X215764044Y-104084662D02*
X215311663Y-104084662D01*
X215311663Y-103134662D01*
X215764044Y-103134662D01*
X156293890Y-103476729D02*
X157017700Y-103748157D01*
X156293890Y-104019586D01*
X157334366Y-103160062D02*
X157877223Y-103160062D01*
X157605795Y-104110062D02*
X157605795Y-103160062D01*
X158193890Y-104110062D02*
X158193890Y-103160062D01*
X158555795Y-103160062D01*
X158646271Y-103205300D01*
X158691510Y-103250538D01*
X158736748Y-103341014D01*
X158736748Y-103476729D01*
X158691510Y-103567205D01*
X158646271Y-103612443D01*
X158555795Y-103657681D01*
X158193890Y-103657681D01*
X158917700Y-104200538D02*
X159641510Y-104200538D01*
X159822462Y-104064824D02*
X159958177Y-104110062D01*
X160184367Y-104110062D01*
X160274843Y-104064824D01*
X160320081Y-104019586D01*
X160365320Y-103929110D01*
X160365320Y-103838633D01*
X160320081Y-103748157D01*
X160274843Y-103702919D01*
X160184367Y-103657681D01*
X160003415Y-103612443D01*
X159912939Y-103567205D01*
X159867700Y-103521967D01*
X159822462Y-103431490D01*
X159822462Y-103341014D01*
X159867700Y-103250538D01*
X159912939Y-103205300D01*
X160003415Y-103160062D01*
X160229605Y-103160062D01*
X160365320Y-103205300D01*
X160772462Y-104110062D02*
X160772462Y-103160062D01*
X161722463Y-103205300D02*
X161631986Y-103160062D01*
X161496272Y-103160062D01*
X161360558Y-103205300D01*
X161270082Y-103295776D01*
X161224843Y-103386252D01*
X161179605Y-103567205D01*
X161179605Y-103702919D01*
X161224843Y-103883871D01*
X161270082Y-103974348D01*
X161360558Y-104064824D01*
X161496272Y-104110062D01*
X161586748Y-104110062D01*
X161722463Y-104064824D01*
X161767701Y-104019586D01*
X161767701Y-103702919D01*
X161586748Y-103702919D01*
X162174843Y-104110062D02*
X162174843Y-103160062D01*
X162717701Y-104110062D01*
X162717701Y-103160062D01*
X163124843Y-103838633D02*
X163577224Y-103838633D01*
X163034367Y-104110062D02*
X163351034Y-103160062D01*
X163667701Y-104110062D01*
X164436748Y-104110062D02*
X163984367Y-104110062D01*
X163984367Y-103160062D01*
X164527225Y-104200538D02*
X165251035Y-104200538D01*
X165477225Y-104110062D02*
X165477225Y-103160062D01*
X166020083Y-104110062D01*
X166020083Y-103160062D01*
X166427225Y-103838633D02*
X166879606Y-103838633D01*
X166336749Y-104110062D02*
X166653416Y-103160062D01*
X166970083Y-104110062D01*
X167286749Y-104110062D02*
X167286749Y-103160062D01*
X167603416Y-103838633D01*
X167920083Y-103160062D01*
X167920083Y-104110062D01*
X168372463Y-103612443D02*
X168689130Y-103612443D01*
X168824844Y-104110062D02*
X168372463Y-104110062D01*
X168372463Y-103160062D01*
X168824844Y-103160062D01*
X186281290Y-89820529D02*
X187005100Y-90091957D01*
X186281290Y-90363386D01*
X187321766Y-89503862D02*
X187864623Y-89503862D01*
X187593195Y-90453862D02*
X187593195Y-89503862D01*
X188181290Y-90453862D02*
X188181290Y-89503862D01*
X188543195Y-89503862D01*
X188633671Y-89549100D01*
X188678910Y-89594338D01*
X188724148Y-89684814D01*
X188724148Y-89820529D01*
X188678910Y-89911005D01*
X188633671Y-89956243D01*
X188543195Y-90001481D01*
X188181290Y-90001481D01*
X188905100Y-90544338D02*
X189628910Y-90544338D01*
X189809862Y-90408624D02*
X189945577Y-90453862D01*
X190171767Y-90453862D01*
X190262243Y-90408624D01*
X190307481Y-90363386D01*
X190352720Y-90272910D01*
X190352720Y-90182433D01*
X190307481Y-90091957D01*
X190262243Y-90046719D01*
X190171767Y-90001481D01*
X189990815Y-89956243D01*
X189900339Y-89911005D01*
X189855100Y-89865767D01*
X189809862Y-89775290D01*
X189809862Y-89684814D01*
X189855100Y-89594338D01*
X189900339Y-89549100D01*
X189990815Y-89503862D01*
X190217005Y-89503862D01*
X190352720Y-89549100D01*
X190759862Y-90453862D02*
X190759862Y-89503862D01*
X191709863Y-89549100D02*
X191619386Y-89503862D01*
X191483672Y-89503862D01*
X191347958Y-89549100D01*
X191257482Y-89639576D01*
X191212243Y-89730052D01*
X191167005Y-89911005D01*
X191167005Y-90046719D01*
X191212243Y-90227671D01*
X191257482Y-90318148D01*
X191347958Y-90408624D01*
X191483672Y-90453862D01*
X191574148Y-90453862D01*
X191709863Y-90408624D01*
X191755101Y-90363386D01*
X191755101Y-90046719D01*
X191574148Y-90046719D01*
X192162243Y-90453862D02*
X192162243Y-89503862D01*
X192705101Y-90453862D01*
X192705101Y-89503862D01*
X193112243Y-90182433D02*
X193564624Y-90182433D01*
X193021767Y-90453862D02*
X193338434Y-89503862D01*
X193655101Y-90453862D01*
X194424148Y-90453862D02*
X193971767Y-90453862D01*
X193971767Y-89503862D01*
X194514625Y-90544338D02*
X195238435Y-90544338D01*
X195464625Y-90453862D02*
X195464625Y-89503862D01*
X196007483Y-90453862D01*
X196007483Y-89503862D01*
X196414625Y-90182433D02*
X196867006Y-90182433D01*
X196324149Y-90453862D02*
X196640816Y-89503862D01*
X196957483Y-90453862D01*
X197274149Y-90453862D02*
X197274149Y-89503862D01*
X197590816Y-90182433D01*
X197907483Y-89503862D01*
X197907483Y-90453862D01*
X198359863Y-89956243D02*
X198676530Y-89956243D01*
X198812244Y-90453862D02*
X198359863Y-90453862D01*
X198359863Y-89503862D01*
X198812244Y-89503862D01*
X170296690Y-105837929D02*
X171020500Y-106109357D01*
X170296690Y-106380786D01*
X171337166Y-105521262D02*
X171880023Y-105521262D01*
X171608595Y-106471262D02*
X171608595Y-105521262D01*
X172196690Y-106471262D02*
X172196690Y-105521262D01*
X172558595Y-105521262D01*
X172649071Y-105566500D01*
X172694310Y-105611738D01*
X172739548Y-105702214D01*
X172739548Y-105837929D01*
X172694310Y-105928405D01*
X172649071Y-105973643D01*
X172558595Y-106018881D01*
X172196690Y-106018881D01*
X172920500Y-106561738D02*
X173644310Y-106561738D01*
X173825262Y-106426024D02*
X173960977Y-106471262D01*
X174187167Y-106471262D01*
X174277643Y-106426024D01*
X174322881Y-106380786D01*
X174368120Y-106290310D01*
X174368120Y-106199833D01*
X174322881Y-106109357D01*
X174277643Y-106064119D01*
X174187167Y-106018881D01*
X174006215Y-105973643D01*
X173915739Y-105928405D01*
X173870500Y-105883167D01*
X173825262Y-105792690D01*
X173825262Y-105702214D01*
X173870500Y-105611738D01*
X173915739Y-105566500D01*
X174006215Y-105521262D01*
X174232405Y-105521262D01*
X174368120Y-105566500D01*
X174775262Y-106471262D02*
X174775262Y-105521262D01*
X175725263Y-105566500D02*
X175634786Y-105521262D01*
X175499072Y-105521262D01*
X175363358Y-105566500D01*
X175272882Y-105656976D01*
X175227643Y-105747452D01*
X175182405Y-105928405D01*
X175182405Y-106064119D01*
X175227643Y-106245071D01*
X175272882Y-106335548D01*
X175363358Y-106426024D01*
X175499072Y-106471262D01*
X175589548Y-106471262D01*
X175725263Y-106426024D01*
X175770501Y-106380786D01*
X175770501Y-106064119D01*
X175589548Y-106064119D01*
X176177643Y-106471262D02*
X176177643Y-105521262D01*
X176720501Y-106471262D01*
X176720501Y-105521262D01*
X177127643Y-106199833D02*
X177580024Y-106199833D01*
X177037167Y-106471262D02*
X177353834Y-105521262D01*
X177670501Y-106471262D01*
X178439548Y-106471262D02*
X177987167Y-106471262D01*
X177987167Y-105521262D01*
X178530025Y-106561738D02*
X179253835Y-106561738D01*
X179480025Y-106471262D02*
X179480025Y-105521262D01*
X180022883Y-106471262D01*
X180022883Y-105521262D01*
X180430025Y-106199833D02*
X180882406Y-106199833D01*
X180339549Y-106471262D02*
X180656216Y-105521262D01*
X180972883Y-106471262D01*
X181289549Y-106471262D02*
X181289549Y-105521262D01*
X181606216Y-106199833D01*
X181922883Y-105521262D01*
X181922883Y-106471262D01*
X182375263Y-105973643D02*
X182691930Y-105973643D01*
X182827644Y-106471262D02*
X182375263Y-106471262D01*
X182375263Y-105521262D01*
X182827644Y-105521262D01*
X166409690Y-109912729D02*
X167133500Y-110184157D01*
X166409690Y-110455586D01*
X167450166Y-109596062D02*
X167993023Y-109596062D01*
X167721595Y-110546062D02*
X167721595Y-109596062D01*
X168309690Y-110546062D02*
X168309690Y-109596062D01*
X168671595Y-109596062D01*
X168762071Y-109641300D01*
X168807310Y-109686538D01*
X168852548Y-109777014D01*
X168852548Y-109912729D01*
X168807310Y-110003205D01*
X168762071Y-110048443D01*
X168671595Y-110093681D01*
X168309690Y-110093681D01*
X169033500Y-110636538D02*
X169757310Y-110636538D01*
X169938262Y-110500824D02*
X170073977Y-110546062D01*
X170300167Y-110546062D01*
X170390643Y-110500824D01*
X170435881Y-110455586D01*
X170481120Y-110365110D01*
X170481120Y-110274633D01*
X170435881Y-110184157D01*
X170390643Y-110138919D01*
X170300167Y-110093681D01*
X170119215Y-110048443D01*
X170028739Y-110003205D01*
X169983500Y-109957967D01*
X169938262Y-109867490D01*
X169938262Y-109777014D01*
X169983500Y-109686538D01*
X170028739Y-109641300D01*
X170119215Y-109596062D01*
X170345405Y-109596062D01*
X170481120Y-109641300D01*
X170888262Y-110546062D02*
X170888262Y-109596062D01*
X171838263Y-109641300D02*
X171747786Y-109596062D01*
X171612072Y-109596062D01*
X171476358Y-109641300D01*
X171385882Y-109731776D01*
X171340643Y-109822252D01*
X171295405Y-110003205D01*
X171295405Y-110138919D01*
X171340643Y-110319871D01*
X171385882Y-110410348D01*
X171476358Y-110500824D01*
X171612072Y-110546062D01*
X171702548Y-110546062D01*
X171838263Y-110500824D01*
X171883501Y-110455586D01*
X171883501Y-110138919D01*
X171702548Y-110138919D01*
X172290643Y-110546062D02*
X172290643Y-109596062D01*
X172833501Y-110546062D01*
X172833501Y-109596062D01*
X173240643Y-110274633D02*
X173693024Y-110274633D01*
X173150167Y-110546062D02*
X173466834Y-109596062D01*
X173783501Y-110546062D01*
X174552548Y-110546062D02*
X174100167Y-110546062D01*
X174100167Y-109596062D01*
X174643025Y-110636538D02*
X175366835Y-110636538D01*
X175593025Y-110546062D02*
X175593025Y-109596062D01*
X176135883Y-110546062D01*
X176135883Y-109596062D01*
X176543025Y-110274633D02*
X176995406Y-110274633D01*
X176452549Y-110546062D02*
X176769216Y-109596062D01*
X177085883Y-110546062D01*
X177402549Y-110546062D02*
X177402549Y-109596062D01*
X177719216Y-110274633D01*
X178035883Y-109596062D01*
X178035883Y-110546062D01*
X178488263Y-110048443D02*
X178804930Y-110048443D01*
X178940644Y-110546062D02*
X178488263Y-110546062D01*
X178488263Y-109596062D01*
X178940644Y-109596062D01*
X190365490Y-85949729D02*
X191089300Y-86221157D01*
X190365490Y-86492586D01*
X191405966Y-85633062D02*
X191948823Y-85633062D01*
X191677395Y-86583062D02*
X191677395Y-85633062D01*
X192265490Y-86583062D02*
X192265490Y-85633062D01*
X192627395Y-85633062D01*
X192717871Y-85678300D01*
X192763110Y-85723538D01*
X192808348Y-85814014D01*
X192808348Y-85949729D01*
X192763110Y-86040205D01*
X192717871Y-86085443D01*
X192627395Y-86130681D01*
X192265490Y-86130681D01*
X192989300Y-86673538D02*
X193713110Y-86673538D01*
X193894062Y-86537824D02*
X194029777Y-86583062D01*
X194255967Y-86583062D01*
X194346443Y-86537824D01*
X194391681Y-86492586D01*
X194436920Y-86402110D01*
X194436920Y-86311633D01*
X194391681Y-86221157D01*
X194346443Y-86175919D01*
X194255967Y-86130681D01*
X194075015Y-86085443D01*
X193984539Y-86040205D01*
X193939300Y-85994967D01*
X193894062Y-85904490D01*
X193894062Y-85814014D01*
X193939300Y-85723538D01*
X193984539Y-85678300D01*
X194075015Y-85633062D01*
X194301205Y-85633062D01*
X194436920Y-85678300D01*
X194844062Y-86583062D02*
X194844062Y-85633062D01*
X195794063Y-85678300D02*
X195703586Y-85633062D01*
X195567872Y-85633062D01*
X195432158Y-85678300D01*
X195341682Y-85768776D01*
X195296443Y-85859252D01*
X195251205Y-86040205D01*
X195251205Y-86175919D01*
X195296443Y-86356871D01*
X195341682Y-86447348D01*
X195432158Y-86537824D01*
X195567872Y-86583062D01*
X195658348Y-86583062D01*
X195794063Y-86537824D01*
X195839301Y-86492586D01*
X195839301Y-86175919D01*
X195658348Y-86175919D01*
X196246443Y-86583062D02*
X196246443Y-85633062D01*
X196789301Y-86583062D01*
X196789301Y-85633062D01*
X197196443Y-86311633D02*
X197648824Y-86311633D01*
X197105967Y-86583062D02*
X197422634Y-85633062D01*
X197739301Y-86583062D01*
X198508348Y-86583062D02*
X198055967Y-86583062D01*
X198055967Y-85633062D01*
X198598825Y-86673538D02*
X199322635Y-86673538D01*
X199548825Y-86583062D02*
X199548825Y-85633062D01*
X200091683Y-86583062D01*
X200091683Y-85633062D01*
X200498825Y-86311633D02*
X200951206Y-86311633D01*
X200408349Y-86583062D02*
X200725016Y-85633062D01*
X201041683Y-86583062D01*
X201358349Y-86583062D02*
X201358349Y-85633062D01*
X201675016Y-86311633D01*
X201991683Y-85633062D01*
X201991683Y-86583062D01*
X202444063Y-86085443D02*
X202760730Y-86085443D01*
X202896444Y-86583062D02*
X202444063Y-86583062D01*
X202444063Y-85633062D01*
X202896444Y-85633062D01*
X162323490Y-113792329D02*
X163047300Y-114063757D01*
X162323490Y-114335186D01*
X163363966Y-113475662D02*
X163906823Y-113475662D01*
X163635395Y-114425662D02*
X163635395Y-113475662D01*
X164223490Y-114425662D02*
X164223490Y-113475662D01*
X164585395Y-113475662D01*
X164675871Y-113520900D01*
X164721110Y-113566138D01*
X164766348Y-113656614D01*
X164766348Y-113792329D01*
X164721110Y-113882805D01*
X164675871Y-113928043D01*
X164585395Y-113973281D01*
X164223490Y-113973281D01*
X164947300Y-114516138D02*
X165671110Y-114516138D01*
X165852062Y-114380424D02*
X165987777Y-114425662D01*
X166213967Y-114425662D01*
X166304443Y-114380424D01*
X166349681Y-114335186D01*
X166394920Y-114244710D01*
X166394920Y-114154233D01*
X166349681Y-114063757D01*
X166304443Y-114018519D01*
X166213967Y-113973281D01*
X166033015Y-113928043D01*
X165942539Y-113882805D01*
X165897300Y-113837567D01*
X165852062Y-113747090D01*
X165852062Y-113656614D01*
X165897300Y-113566138D01*
X165942539Y-113520900D01*
X166033015Y-113475662D01*
X166259205Y-113475662D01*
X166394920Y-113520900D01*
X166802062Y-114425662D02*
X166802062Y-113475662D01*
X167752063Y-113520900D02*
X167661586Y-113475662D01*
X167525872Y-113475662D01*
X167390158Y-113520900D01*
X167299682Y-113611376D01*
X167254443Y-113701852D01*
X167209205Y-113882805D01*
X167209205Y-114018519D01*
X167254443Y-114199471D01*
X167299682Y-114289948D01*
X167390158Y-114380424D01*
X167525872Y-114425662D01*
X167616348Y-114425662D01*
X167752063Y-114380424D01*
X167797301Y-114335186D01*
X167797301Y-114018519D01*
X167616348Y-114018519D01*
X168204443Y-114425662D02*
X168204443Y-113475662D01*
X168747301Y-114425662D01*
X168747301Y-113475662D01*
X169154443Y-114154233D02*
X169606824Y-114154233D01*
X169063967Y-114425662D02*
X169380634Y-113475662D01*
X169697301Y-114425662D01*
X170466348Y-114425662D02*
X170013967Y-114425662D01*
X170013967Y-113475662D01*
X170556825Y-114516138D02*
X171280635Y-114516138D01*
X171506825Y-114425662D02*
X171506825Y-113475662D01*
X172049683Y-114425662D01*
X172049683Y-113475662D01*
X172456825Y-114154233D02*
X172909206Y-114154233D01*
X172366349Y-114425662D02*
X172683016Y-113475662D01*
X172999683Y-114425662D01*
X173316349Y-114425662D02*
X173316349Y-113475662D01*
X173633016Y-114154233D01*
X173949683Y-113475662D01*
X173949683Y-114425662D01*
X174402063Y-113928043D02*
X174718730Y-113928043D01*
X174854444Y-114425662D02*
X174402063Y-114425662D01*
X174402063Y-113475662D01*
X174854444Y-113475662D01*
X194335490Y-81824529D02*
X195059300Y-82095957D01*
X194335490Y-82367386D01*
X195375966Y-81507862D02*
X195918823Y-81507862D01*
X195647395Y-82457862D02*
X195647395Y-81507862D01*
X196235490Y-82457862D02*
X196235490Y-81507862D01*
X196597395Y-81507862D01*
X196687871Y-81553100D01*
X196733110Y-81598338D01*
X196778348Y-81688814D01*
X196778348Y-81824529D01*
X196733110Y-81915005D01*
X196687871Y-81960243D01*
X196597395Y-82005481D01*
X196235490Y-82005481D01*
X196959300Y-82548338D02*
X197683110Y-82548338D01*
X197864062Y-82412624D02*
X197999777Y-82457862D01*
X198225967Y-82457862D01*
X198316443Y-82412624D01*
X198361681Y-82367386D01*
X198406920Y-82276910D01*
X198406920Y-82186433D01*
X198361681Y-82095957D01*
X198316443Y-82050719D01*
X198225967Y-82005481D01*
X198045015Y-81960243D01*
X197954539Y-81915005D01*
X197909300Y-81869767D01*
X197864062Y-81779290D01*
X197864062Y-81688814D01*
X197909300Y-81598338D01*
X197954539Y-81553100D01*
X198045015Y-81507862D01*
X198271205Y-81507862D01*
X198406920Y-81553100D01*
X198814062Y-82457862D02*
X198814062Y-81507862D01*
X199764063Y-81553100D02*
X199673586Y-81507862D01*
X199537872Y-81507862D01*
X199402158Y-81553100D01*
X199311682Y-81643576D01*
X199266443Y-81734052D01*
X199221205Y-81915005D01*
X199221205Y-82050719D01*
X199266443Y-82231671D01*
X199311682Y-82322148D01*
X199402158Y-82412624D01*
X199537872Y-82457862D01*
X199628348Y-82457862D01*
X199764063Y-82412624D01*
X199809301Y-82367386D01*
X199809301Y-82050719D01*
X199628348Y-82050719D01*
X200216443Y-82457862D02*
X200216443Y-81507862D01*
X200759301Y-82457862D01*
X200759301Y-81507862D01*
X201166443Y-82186433D02*
X201618824Y-82186433D01*
X201075967Y-82457862D02*
X201392634Y-81507862D01*
X201709301Y-82457862D01*
X202478348Y-82457862D02*
X202025967Y-82457862D01*
X202025967Y-81507862D01*
X202568825Y-82548338D02*
X203292635Y-82548338D01*
X203518825Y-82457862D02*
X203518825Y-81507862D01*
X204061683Y-82457862D01*
X204061683Y-81507862D01*
X204468825Y-82186433D02*
X204921206Y-82186433D01*
X204378349Y-82457862D02*
X204695016Y-81507862D01*
X205011683Y-82457862D01*
X205328349Y-82457862D02*
X205328349Y-81507862D01*
X205645016Y-82186433D01*
X205961683Y-81507862D01*
X205961683Y-82457862D01*
X206414063Y-81960243D02*
X206730730Y-81960243D01*
X206866444Y-82457862D02*
X206414063Y-82457862D01*
X206414063Y-81507862D01*
X206866444Y-81507862D01*
M02*
