G04 #@! TF.FileFunction,Legend,Bot*
%FSLAX46Y46*%
G04 Gerber Fmt 4.6, Leading zero omitted, Abs format (unit mm)*
G04 Created by KiCad (PCBNEW 4.0.6) date 05/07/17 20:58:39*
%MOMM*%
%LPD*%
G01*
G04 APERTURE LIST*
%ADD10C,0.100000*%
%ADD11C,0.101600*%
%ADD12C,0.002032*%
G04 APERTURE END LIST*
D10*
D11*
X202335443Y-116064248D02*
X201588562Y-116064248D01*
X201990729Y-116523867D01*
X201818371Y-116523867D01*
X201703467Y-116581319D01*
X201646014Y-116638771D01*
X201588562Y-116753676D01*
X201588562Y-117040938D01*
X201646014Y-117155843D01*
X201703467Y-117213295D01*
X201818371Y-117270748D01*
X202163086Y-117270748D01*
X202277990Y-117213295D01*
X202335443Y-117155843D01*
X201243847Y-116064248D02*
X200841681Y-117270748D01*
X200439514Y-116064248D01*
X200152252Y-116064248D02*
X199405371Y-116064248D01*
X199807538Y-116523867D01*
X199635180Y-116523867D01*
X199520276Y-116581319D01*
X199462823Y-116638771D01*
X199405371Y-116753676D01*
X199405371Y-117040938D01*
X199462823Y-117155843D01*
X199520276Y-117213295D01*
X199635180Y-117270748D01*
X199979895Y-117270748D01*
X200094799Y-117213295D01*
X200152252Y-117155843D01*
X199175561Y-117385652D02*
X198256323Y-117385652D01*
X197279633Y-117155843D02*
X197337085Y-117213295D01*
X197509442Y-117270748D01*
X197624347Y-117270748D01*
X197796704Y-117213295D01*
X197911609Y-117098390D01*
X197969061Y-116983486D01*
X198026513Y-116753676D01*
X198026513Y-116581319D01*
X197969061Y-116351510D01*
X197911609Y-116236605D01*
X197796704Y-116121700D01*
X197624347Y-116064248D01*
X197509442Y-116064248D01*
X197337085Y-116121700D01*
X197279633Y-116179152D01*
X196820013Y-116179152D02*
X196762561Y-116121700D01*
X196647656Y-116064248D01*
X196360394Y-116064248D01*
X196245490Y-116121700D01*
X196188037Y-116179152D01*
X196130585Y-116294057D01*
X196130585Y-116408962D01*
X196188037Y-116581319D01*
X196877466Y-117270748D01*
X196130585Y-117270748D01*
D12*
X202543955Y-116219151D02*
X202543955Y-116195021D01*
X202534762Y-116195021D01*
X202532464Y-116196170D01*
X202531315Y-116197319D01*
X202530166Y-116199617D01*
X202530166Y-116203064D01*
X202531315Y-116205362D01*
X202532464Y-116206511D01*
X202534762Y-116207660D01*
X202543955Y-116207660D01*
X202523272Y-116195021D02*
X202509483Y-116195021D01*
X202516378Y-116219151D02*
X202516378Y-116195021D01*
X202487651Y-116219151D02*
X202495695Y-116207660D01*
X202501440Y-116219151D02*
X202501440Y-116195021D01*
X202492247Y-116195021D01*
X202489949Y-116196170D01*
X202488800Y-116197319D01*
X202487651Y-116199617D01*
X202487651Y-116203064D01*
X202488800Y-116205362D01*
X202489949Y-116206511D01*
X202492247Y-116207660D01*
X202501440Y-116207660D01*
X202464670Y-116219151D02*
X202478459Y-116219151D01*
X202471565Y-116219151D02*
X202471565Y-116195021D01*
X202473863Y-116198468D01*
X202476161Y-116200766D01*
X202478459Y-116201915D01*
X202457776Y-116195021D02*
X202443987Y-116195021D01*
X202450882Y-116219151D02*
X202450882Y-116195021D01*
X202435944Y-116219151D02*
X202435944Y-116195021D01*
X202426751Y-116195021D01*
X202424453Y-116196170D01*
X202423304Y-116197319D01*
X202422155Y-116199617D01*
X202422155Y-116203064D01*
X202423304Y-116205362D01*
X202424453Y-116206511D01*
X202426751Y-116207660D01*
X202435944Y-116207660D01*
X202399174Y-116219151D02*
X202412963Y-116219151D01*
X202406069Y-116219151D02*
X202406069Y-116195021D01*
X202408367Y-116198468D01*
X202410665Y-116200766D01*
X202412963Y-116201915D01*
X202376193Y-116219151D02*
X202389982Y-116219151D01*
X202383088Y-116219151D02*
X202383088Y-116195021D01*
X202385386Y-116198468D01*
X202387684Y-116200766D01*
X202389982Y-116201915D01*
X202352063Y-116219151D02*
X202360107Y-116207660D01*
X202365852Y-116219151D02*
X202365852Y-116195021D01*
X202356659Y-116195021D01*
X202354361Y-116196170D01*
X202353212Y-116197319D01*
X202352063Y-116199617D01*
X202352063Y-116203064D01*
X202353212Y-116205362D01*
X202354361Y-116206511D01*
X202356659Y-116207660D01*
X202365852Y-116207660D01*
D11*
X203544362Y-123995700D02*
X203659267Y-123938248D01*
X203831624Y-123938248D01*
X204003981Y-123995700D01*
X204118886Y-124110605D01*
X204176338Y-124225510D01*
X204233790Y-124455319D01*
X204233790Y-124627676D01*
X204176338Y-124857486D01*
X204118886Y-124972390D01*
X204003981Y-125087295D01*
X203831624Y-125144748D01*
X203716719Y-125144748D01*
X203544362Y-125087295D01*
X203486910Y-125029843D01*
X203486910Y-124627676D01*
X203716719Y-124627676D01*
X202969838Y-125144748D02*
X202969838Y-123938248D01*
X202280410Y-125144748D01*
X202280410Y-123938248D01*
X201705886Y-125144748D02*
X201705886Y-123938248D01*
X201418624Y-123938248D01*
X201246267Y-123995700D01*
X201131362Y-124110605D01*
X201073910Y-124225510D01*
X201016458Y-124455319D01*
X201016458Y-124627676D01*
X201073910Y-124857486D01*
X201131362Y-124972390D01*
X201246267Y-125087295D01*
X201418624Y-125144748D01*
X201705886Y-125144748D01*
X200786648Y-125259652D02*
X199867410Y-125259652D01*
X198890720Y-125029843D02*
X198948172Y-125087295D01*
X199120529Y-125144748D01*
X199235434Y-125144748D01*
X199407791Y-125087295D01*
X199522696Y-124972390D01*
X199580148Y-124857486D01*
X199637600Y-124627676D01*
X199637600Y-124455319D01*
X199580148Y-124225510D01*
X199522696Y-124110605D01*
X199407791Y-123995700D01*
X199235434Y-123938248D01*
X199120529Y-123938248D01*
X198948172Y-123995700D01*
X198890720Y-124053152D01*
X198431100Y-124053152D02*
X198373648Y-123995700D01*
X198258743Y-123938248D01*
X197971481Y-123938248D01*
X197856577Y-123995700D01*
X197799124Y-124053152D01*
X197741672Y-124168057D01*
X197741672Y-124282962D01*
X197799124Y-124455319D01*
X198488553Y-125144748D01*
X197741672Y-125144748D01*
D12*
X204499755Y-124093151D02*
X204499755Y-124069021D01*
X204490562Y-124069021D01*
X204488264Y-124070170D01*
X204487115Y-124071319D01*
X204485966Y-124073617D01*
X204485966Y-124077064D01*
X204487115Y-124079362D01*
X204488264Y-124080511D01*
X204490562Y-124081660D01*
X204499755Y-124081660D01*
X204479072Y-124069021D02*
X204465283Y-124069021D01*
X204472178Y-124093151D02*
X204472178Y-124069021D01*
X204443451Y-124093151D02*
X204451495Y-124081660D01*
X204457240Y-124093151D02*
X204457240Y-124069021D01*
X204448047Y-124069021D01*
X204445749Y-124070170D01*
X204444600Y-124071319D01*
X204443451Y-124073617D01*
X204443451Y-124077064D01*
X204444600Y-124079362D01*
X204445749Y-124080511D01*
X204448047Y-124081660D01*
X204457240Y-124081660D01*
X204420470Y-124093151D02*
X204434259Y-124093151D01*
X204427365Y-124093151D02*
X204427365Y-124069021D01*
X204429663Y-124072468D01*
X204431961Y-124074766D01*
X204434259Y-124075915D01*
X204413576Y-124069021D02*
X204399787Y-124069021D01*
X204406682Y-124093151D02*
X204406682Y-124069021D01*
X204391744Y-124093151D02*
X204391744Y-124069021D01*
X204382551Y-124069021D01*
X204380253Y-124070170D01*
X204379104Y-124071319D01*
X204377955Y-124073617D01*
X204377955Y-124077064D01*
X204379104Y-124079362D01*
X204380253Y-124080511D01*
X204382551Y-124081660D01*
X204391744Y-124081660D01*
X204354974Y-124093151D02*
X204368763Y-124093151D01*
X204361869Y-124093151D02*
X204361869Y-124069021D01*
X204364167Y-124072468D01*
X204366465Y-124074766D01*
X204368763Y-124075915D01*
X204331993Y-124093151D02*
X204345782Y-124093151D01*
X204338888Y-124093151D02*
X204338888Y-124069021D01*
X204341186Y-124072468D01*
X204343484Y-124074766D01*
X204345782Y-124075915D01*
X204307863Y-124093151D02*
X204315907Y-124081660D01*
X204321652Y-124093151D02*
X204321652Y-124069021D01*
X204312459Y-124069021D01*
X204310161Y-124070170D01*
X204309012Y-124071319D01*
X204307863Y-124073617D01*
X204307863Y-124077064D01*
X204309012Y-124079362D01*
X204310161Y-124080511D01*
X204312459Y-124081660D01*
X204321652Y-124081660D01*
D11*
X155320043Y-116013448D02*
X154573162Y-116013448D01*
X154975329Y-116473067D01*
X154802971Y-116473067D01*
X154688067Y-116530519D01*
X154630614Y-116587971D01*
X154573162Y-116702876D01*
X154573162Y-116990138D01*
X154630614Y-117105043D01*
X154688067Y-117162495D01*
X154802971Y-117219948D01*
X155147686Y-117219948D01*
X155262590Y-117162495D01*
X155320043Y-117105043D01*
X154228447Y-116013448D02*
X153826281Y-117219948D01*
X153424114Y-116013448D01*
X153136852Y-116013448D02*
X152389971Y-116013448D01*
X152792138Y-116473067D01*
X152619780Y-116473067D01*
X152504876Y-116530519D01*
X152447423Y-116587971D01*
X152389971Y-116702876D01*
X152389971Y-116990138D01*
X152447423Y-117105043D01*
X152504876Y-117162495D01*
X152619780Y-117219948D01*
X152964495Y-117219948D01*
X153079399Y-117162495D01*
X153136852Y-117105043D01*
X152160161Y-117334852D02*
X151240923Y-117334852D01*
X150264233Y-117105043D02*
X150321685Y-117162495D01*
X150494042Y-117219948D01*
X150608947Y-117219948D01*
X150781304Y-117162495D01*
X150896209Y-117047590D01*
X150953661Y-116932686D01*
X151011113Y-116702876D01*
X151011113Y-116530519D01*
X150953661Y-116300710D01*
X150896209Y-116185805D01*
X150781304Y-116070900D01*
X150608947Y-116013448D01*
X150494042Y-116013448D01*
X150321685Y-116070900D01*
X150264233Y-116128352D01*
X149804613Y-116128352D02*
X149747161Y-116070900D01*
X149632256Y-116013448D01*
X149344994Y-116013448D01*
X149230090Y-116070900D01*
X149172637Y-116128352D01*
X149115185Y-116243257D01*
X149115185Y-116358162D01*
X149172637Y-116530519D01*
X149862066Y-117219948D01*
X149115185Y-117219948D01*
X148885375Y-117334852D02*
X147966137Y-117334852D01*
X146989447Y-117105043D02*
X147046899Y-117162495D01*
X147219256Y-117219948D01*
X147334161Y-117219948D01*
X147506518Y-117162495D01*
X147621423Y-117047590D01*
X147678875Y-116932686D01*
X147736327Y-116702876D01*
X147736327Y-116530519D01*
X147678875Y-116300710D01*
X147621423Y-116185805D01*
X147506518Y-116070900D01*
X147334161Y-116013448D01*
X147219256Y-116013448D01*
X147046899Y-116070900D01*
X146989447Y-116128352D01*
X146587280Y-116013448D02*
X145840399Y-116013448D01*
X146242566Y-116473067D01*
X146070208Y-116473067D01*
X145955304Y-116530519D01*
X145897851Y-116587971D01*
X145840399Y-116702876D01*
X145840399Y-116990138D01*
X145897851Y-117105043D01*
X145955304Y-117162495D01*
X146070208Y-117219948D01*
X146414923Y-117219948D01*
X146529827Y-117162495D01*
X146587280Y-117105043D01*
D12*
X155528555Y-116168351D02*
X155528555Y-116144221D01*
X155519362Y-116144221D01*
X155517064Y-116145370D01*
X155515915Y-116146519D01*
X155514766Y-116148817D01*
X155514766Y-116152264D01*
X155515915Y-116154562D01*
X155517064Y-116155711D01*
X155519362Y-116156860D01*
X155528555Y-116156860D01*
X155507872Y-116144221D02*
X155494083Y-116144221D01*
X155500978Y-116168351D02*
X155500978Y-116144221D01*
X155472251Y-116168351D02*
X155480295Y-116156860D01*
X155486040Y-116168351D02*
X155486040Y-116144221D01*
X155476847Y-116144221D01*
X155474549Y-116145370D01*
X155473400Y-116146519D01*
X155472251Y-116148817D01*
X155472251Y-116152264D01*
X155473400Y-116154562D01*
X155474549Y-116155711D01*
X155476847Y-116156860D01*
X155486040Y-116156860D01*
X155449270Y-116168351D02*
X155463059Y-116168351D01*
X155456165Y-116168351D02*
X155456165Y-116144221D01*
X155458463Y-116147668D01*
X155460761Y-116149966D01*
X155463059Y-116151115D01*
X155442376Y-116144221D02*
X155428587Y-116144221D01*
X155435482Y-116168351D02*
X155435482Y-116144221D01*
X155420544Y-116168351D02*
X155420544Y-116144221D01*
X155411351Y-116144221D01*
X155409053Y-116145370D01*
X155407904Y-116146519D01*
X155406755Y-116148817D01*
X155406755Y-116152264D01*
X155407904Y-116154562D01*
X155409053Y-116155711D01*
X155411351Y-116156860D01*
X155420544Y-116156860D01*
X155383774Y-116168351D02*
X155397563Y-116168351D01*
X155390669Y-116168351D02*
X155390669Y-116144221D01*
X155392967Y-116147668D01*
X155395265Y-116149966D01*
X155397563Y-116151115D01*
X155360793Y-116168351D02*
X155374582Y-116168351D01*
X155367688Y-116168351D02*
X155367688Y-116144221D01*
X155369986Y-116147668D01*
X155372284Y-116149966D01*
X155374582Y-116151115D01*
X155336663Y-116168351D02*
X155344707Y-116156860D01*
X155350452Y-116168351D02*
X155350452Y-116144221D01*
X155341259Y-116144221D01*
X155338961Y-116145370D01*
X155337812Y-116146519D01*
X155336663Y-116148817D01*
X155336663Y-116152264D01*
X155337812Y-116154562D01*
X155338961Y-116155711D01*
X155341259Y-116156860D01*
X155350452Y-116156860D01*
D11*
X151906162Y-126078500D02*
X152021067Y-126021048D01*
X152193424Y-126021048D01*
X152365781Y-126078500D01*
X152480686Y-126193405D01*
X152538138Y-126308310D01*
X152595590Y-126538119D01*
X152595590Y-126710476D01*
X152538138Y-126940286D01*
X152480686Y-127055190D01*
X152365781Y-127170095D01*
X152193424Y-127227548D01*
X152078519Y-127227548D01*
X151906162Y-127170095D01*
X151848710Y-127112643D01*
X151848710Y-126710476D01*
X152078519Y-126710476D01*
X151331638Y-127227548D02*
X151331638Y-126021048D01*
X150642210Y-127227548D01*
X150642210Y-126021048D01*
X150067686Y-127227548D02*
X150067686Y-126021048D01*
X149780424Y-126021048D01*
X149608067Y-126078500D01*
X149493162Y-126193405D01*
X149435710Y-126308310D01*
X149378258Y-126538119D01*
X149378258Y-126710476D01*
X149435710Y-126940286D01*
X149493162Y-127055190D01*
X149608067Y-127170095D01*
X149780424Y-127227548D01*
X150067686Y-127227548D01*
X149148448Y-127342452D02*
X148229210Y-127342452D01*
X147252520Y-127112643D02*
X147309972Y-127170095D01*
X147482329Y-127227548D01*
X147597234Y-127227548D01*
X147769591Y-127170095D01*
X147884496Y-127055190D01*
X147941948Y-126940286D01*
X147999400Y-126710476D01*
X147999400Y-126538119D01*
X147941948Y-126308310D01*
X147884496Y-126193405D01*
X147769591Y-126078500D01*
X147597234Y-126021048D01*
X147482329Y-126021048D01*
X147309972Y-126078500D01*
X147252520Y-126135952D01*
X146792900Y-126135952D02*
X146735448Y-126078500D01*
X146620543Y-126021048D01*
X146333281Y-126021048D01*
X146218377Y-126078500D01*
X146160924Y-126135952D01*
X146103472Y-126250857D01*
X146103472Y-126365762D01*
X146160924Y-126538119D01*
X146850353Y-127227548D01*
X146103472Y-127227548D01*
X145873662Y-127342452D02*
X144954424Y-127342452D01*
X143977734Y-127112643D02*
X144035186Y-127170095D01*
X144207543Y-127227548D01*
X144322448Y-127227548D01*
X144494805Y-127170095D01*
X144609710Y-127055190D01*
X144667162Y-126940286D01*
X144724614Y-126710476D01*
X144724614Y-126538119D01*
X144667162Y-126308310D01*
X144609710Y-126193405D01*
X144494805Y-126078500D01*
X144322448Y-126021048D01*
X144207543Y-126021048D01*
X144035186Y-126078500D01*
X143977734Y-126135952D01*
X143575567Y-126021048D02*
X142828686Y-126021048D01*
X143230853Y-126480667D01*
X143058495Y-126480667D01*
X142943591Y-126538119D01*
X142886138Y-126595571D01*
X142828686Y-126710476D01*
X142828686Y-126997738D01*
X142886138Y-127112643D01*
X142943591Y-127170095D01*
X143058495Y-127227548D01*
X143403210Y-127227548D01*
X143518114Y-127170095D01*
X143575567Y-127112643D01*
D12*
X152861555Y-126175951D02*
X152861555Y-126151821D01*
X152852362Y-126151821D01*
X152850064Y-126152970D01*
X152848915Y-126154119D01*
X152847766Y-126156417D01*
X152847766Y-126159864D01*
X152848915Y-126162162D01*
X152850064Y-126163311D01*
X152852362Y-126164460D01*
X152861555Y-126164460D01*
X152840872Y-126151821D02*
X152827083Y-126151821D01*
X152833978Y-126175951D02*
X152833978Y-126151821D01*
X152805251Y-126175951D02*
X152813295Y-126164460D01*
X152819040Y-126175951D02*
X152819040Y-126151821D01*
X152809847Y-126151821D01*
X152807549Y-126152970D01*
X152806400Y-126154119D01*
X152805251Y-126156417D01*
X152805251Y-126159864D01*
X152806400Y-126162162D01*
X152807549Y-126163311D01*
X152809847Y-126164460D01*
X152819040Y-126164460D01*
X152782270Y-126175951D02*
X152796059Y-126175951D01*
X152789165Y-126175951D02*
X152789165Y-126151821D01*
X152791463Y-126155268D01*
X152793761Y-126157566D01*
X152796059Y-126158715D01*
X152775376Y-126151821D02*
X152761587Y-126151821D01*
X152768482Y-126175951D02*
X152768482Y-126151821D01*
X152753544Y-126175951D02*
X152753544Y-126151821D01*
X152744351Y-126151821D01*
X152742053Y-126152970D01*
X152740904Y-126154119D01*
X152739755Y-126156417D01*
X152739755Y-126159864D01*
X152740904Y-126162162D01*
X152742053Y-126163311D01*
X152744351Y-126164460D01*
X152753544Y-126164460D01*
X152716774Y-126175951D02*
X152730563Y-126175951D01*
X152723669Y-126175951D02*
X152723669Y-126151821D01*
X152725967Y-126155268D01*
X152728265Y-126157566D01*
X152730563Y-126158715D01*
X152693793Y-126175951D02*
X152707582Y-126175951D01*
X152700688Y-126175951D02*
X152700688Y-126151821D01*
X152702986Y-126155268D01*
X152705284Y-126157566D01*
X152707582Y-126158715D01*
X152669663Y-126175951D02*
X152677707Y-126164460D01*
X152683452Y-126175951D02*
X152683452Y-126151821D01*
X152674259Y-126151821D01*
X152671961Y-126152970D01*
X152670812Y-126154119D01*
X152669663Y-126156417D01*
X152669663Y-126159864D01*
X152670812Y-126162162D01*
X152671961Y-126163311D01*
X152674259Y-126164460D01*
X152683452Y-126164460D01*
D11*
X201569814Y-103783348D02*
X202144338Y-103783348D01*
X202144338Y-102576848D01*
X201454910Y-103898252D02*
X200535672Y-103898252D01*
X199558982Y-103668443D02*
X199616434Y-103725895D01*
X199788791Y-103783348D01*
X199903696Y-103783348D01*
X200076053Y-103725895D01*
X200190958Y-103610990D01*
X200248410Y-103496086D01*
X200305862Y-103266276D01*
X200305862Y-103093919D01*
X200248410Y-102864110D01*
X200190958Y-102749205D01*
X200076053Y-102634300D01*
X199903696Y-102576848D01*
X199788791Y-102576848D01*
X199616434Y-102634300D01*
X199558982Y-102691752D01*
X199099362Y-102691752D02*
X199041910Y-102634300D01*
X198927005Y-102576848D01*
X198639743Y-102576848D01*
X198524839Y-102634300D01*
X198467386Y-102691752D01*
X198409934Y-102806657D01*
X198409934Y-102921562D01*
X198467386Y-103093919D01*
X199156815Y-103783348D01*
X198409934Y-103783348D01*
X198180124Y-103898252D02*
X197260886Y-103898252D01*
X196284196Y-103668443D02*
X196341648Y-103725895D01*
X196514005Y-103783348D01*
X196628910Y-103783348D01*
X196801267Y-103725895D01*
X196916172Y-103610990D01*
X196973624Y-103496086D01*
X197031076Y-103266276D01*
X197031076Y-103093919D01*
X196973624Y-102864110D01*
X196916172Y-102749205D01*
X196801267Y-102634300D01*
X196628910Y-102576848D01*
X196514005Y-102576848D01*
X196341648Y-102634300D01*
X196284196Y-102691752D01*
X195135148Y-103783348D02*
X195824576Y-103783348D01*
X195479862Y-103783348D02*
X195479862Y-102576848D01*
X195594767Y-102749205D01*
X195709672Y-102864110D01*
X195824576Y-102921562D01*
D12*
X202467755Y-102731751D02*
X202467755Y-102707621D01*
X202458562Y-102707621D01*
X202456264Y-102708770D01*
X202455115Y-102709919D01*
X202453966Y-102712217D01*
X202453966Y-102715664D01*
X202455115Y-102717962D01*
X202456264Y-102719111D01*
X202458562Y-102720260D01*
X202467755Y-102720260D01*
X202447072Y-102707621D02*
X202433283Y-102707621D01*
X202440178Y-102731751D02*
X202440178Y-102707621D01*
X202411451Y-102731751D02*
X202419495Y-102720260D01*
X202425240Y-102731751D02*
X202425240Y-102707621D01*
X202416047Y-102707621D01*
X202413749Y-102708770D01*
X202412600Y-102709919D01*
X202411451Y-102712217D01*
X202411451Y-102715664D01*
X202412600Y-102717962D01*
X202413749Y-102719111D01*
X202416047Y-102720260D01*
X202425240Y-102720260D01*
X202388470Y-102731751D02*
X202402259Y-102731751D01*
X202395365Y-102731751D02*
X202395365Y-102707621D01*
X202397663Y-102711068D01*
X202399961Y-102713366D01*
X202402259Y-102714515D01*
X202381576Y-102707621D02*
X202367787Y-102707621D01*
X202374682Y-102731751D02*
X202374682Y-102707621D01*
X202359744Y-102731751D02*
X202359744Y-102707621D01*
X202350551Y-102707621D01*
X202348253Y-102708770D01*
X202347104Y-102709919D01*
X202345955Y-102712217D01*
X202345955Y-102715664D01*
X202347104Y-102717962D01*
X202348253Y-102719111D01*
X202350551Y-102720260D01*
X202359744Y-102720260D01*
X202322974Y-102731751D02*
X202336763Y-102731751D01*
X202329869Y-102731751D02*
X202329869Y-102707621D01*
X202332167Y-102711068D01*
X202334465Y-102713366D01*
X202336763Y-102714515D01*
X202299993Y-102731751D02*
X202313782Y-102731751D01*
X202306888Y-102731751D02*
X202306888Y-102707621D01*
X202309186Y-102711068D01*
X202311484Y-102713366D01*
X202313782Y-102714515D01*
X202275863Y-102731751D02*
X202283907Y-102720260D01*
X202289652Y-102731751D02*
X202289652Y-102707621D01*
X202280459Y-102707621D01*
X202278161Y-102708770D01*
X202277012Y-102709919D01*
X202275863Y-102712217D01*
X202275863Y-102715664D01*
X202277012Y-102717962D01*
X202278161Y-102719111D01*
X202280459Y-102720260D01*
X202289652Y-102720260D01*
D11*
X201468214Y-101167148D02*
X202042738Y-101167148D01*
X202042738Y-99960648D01*
X201353310Y-101282052D02*
X200434072Y-101282052D01*
X199457382Y-101052243D02*
X199514834Y-101109695D01*
X199687191Y-101167148D01*
X199802096Y-101167148D01*
X199974453Y-101109695D01*
X200089358Y-100994790D01*
X200146810Y-100879886D01*
X200204262Y-100650076D01*
X200204262Y-100477719D01*
X200146810Y-100247910D01*
X200089358Y-100133005D01*
X199974453Y-100018100D01*
X199802096Y-99960648D01*
X199687191Y-99960648D01*
X199514834Y-100018100D01*
X199457382Y-100075552D01*
X199055215Y-99960648D02*
X198308334Y-99960648D01*
X198710501Y-100420267D01*
X198538143Y-100420267D01*
X198423239Y-100477719D01*
X198365786Y-100535171D01*
X198308334Y-100650076D01*
X198308334Y-100937338D01*
X198365786Y-101052243D01*
X198423239Y-101109695D01*
X198538143Y-101167148D01*
X198882858Y-101167148D01*
X198997762Y-101109695D01*
X199055215Y-101052243D01*
X198078524Y-101282052D02*
X197159286Y-101282052D01*
X196182596Y-101052243D02*
X196240048Y-101109695D01*
X196412405Y-101167148D01*
X196527310Y-101167148D01*
X196699667Y-101109695D01*
X196814572Y-100994790D01*
X196872024Y-100879886D01*
X196929476Y-100650076D01*
X196929476Y-100477719D01*
X196872024Y-100247910D01*
X196814572Y-100133005D01*
X196699667Y-100018100D01*
X196527310Y-99960648D01*
X196412405Y-99960648D01*
X196240048Y-100018100D01*
X196182596Y-100075552D01*
X195722976Y-100075552D02*
X195665524Y-100018100D01*
X195550619Y-99960648D01*
X195263357Y-99960648D01*
X195148453Y-100018100D01*
X195091000Y-100075552D01*
X195033548Y-100190457D01*
X195033548Y-100305362D01*
X195091000Y-100477719D01*
X195780429Y-101167148D01*
X195033548Y-101167148D01*
D12*
X202366155Y-100115551D02*
X202366155Y-100091421D01*
X202356962Y-100091421D01*
X202354664Y-100092570D01*
X202353515Y-100093719D01*
X202352366Y-100096017D01*
X202352366Y-100099464D01*
X202353515Y-100101762D01*
X202354664Y-100102911D01*
X202356962Y-100104060D01*
X202366155Y-100104060D01*
X202345472Y-100091421D02*
X202331683Y-100091421D01*
X202338578Y-100115551D02*
X202338578Y-100091421D01*
X202309851Y-100115551D02*
X202317895Y-100104060D01*
X202323640Y-100115551D02*
X202323640Y-100091421D01*
X202314447Y-100091421D01*
X202312149Y-100092570D01*
X202311000Y-100093719D01*
X202309851Y-100096017D01*
X202309851Y-100099464D01*
X202311000Y-100101762D01*
X202312149Y-100102911D01*
X202314447Y-100104060D01*
X202323640Y-100104060D01*
X202286870Y-100115551D02*
X202300659Y-100115551D01*
X202293765Y-100115551D02*
X202293765Y-100091421D01*
X202296063Y-100094868D01*
X202298361Y-100097166D01*
X202300659Y-100098315D01*
X202279976Y-100091421D02*
X202266187Y-100091421D01*
X202273082Y-100115551D02*
X202273082Y-100091421D01*
X202258144Y-100115551D02*
X202258144Y-100091421D01*
X202248951Y-100091421D01*
X202246653Y-100092570D01*
X202245504Y-100093719D01*
X202244355Y-100096017D01*
X202244355Y-100099464D01*
X202245504Y-100101762D01*
X202246653Y-100102911D01*
X202248951Y-100104060D01*
X202258144Y-100104060D01*
X202221374Y-100115551D02*
X202235163Y-100115551D01*
X202228269Y-100115551D02*
X202228269Y-100091421D01*
X202230567Y-100094868D01*
X202232865Y-100097166D01*
X202235163Y-100098315D01*
X202198393Y-100115551D02*
X202212182Y-100115551D01*
X202205288Y-100115551D02*
X202205288Y-100091421D01*
X202207586Y-100094868D01*
X202209884Y-100097166D01*
X202212182Y-100098315D01*
X202174263Y-100115551D02*
X202182307Y-100104060D01*
X202188052Y-100115551D02*
X202188052Y-100091421D01*
X202178859Y-100091421D01*
X202176561Y-100092570D01*
X202175412Y-100093719D01*
X202174263Y-100096017D01*
X202174263Y-100099464D01*
X202175412Y-100101762D01*
X202176561Y-100102911D01*
X202178859Y-100104060D01*
X202188052Y-100104060D01*
D11*
X154656014Y-101243348D02*
X155230538Y-101243348D01*
X155230538Y-100036848D01*
X154541110Y-101358252D02*
X153621872Y-101358252D01*
X152645182Y-101128443D02*
X152702634Y-101185895D01*
X152874991Y-101243348D01*
X152989896Y-101243348D01*
X153162253Y-101185895D01*
X153277158Y-101070990D01*
X153334610Y-100956086D01*
X153392062Y-100726276D01*
X153392062Y-100553919D01*
X153334610Y-100324110D01*
X153277158Y-100209205D01*
X153162253Y-100094300D01*
X152989896Y-100036848D01*
X152874991Y-100036848D01*
X152702634Y-100094300D01*
X152645182Y-100151752D01*
X151496134Y-101243348D02*
X152185562Y-101243348D01*
X151840848Y-101243348D02*
X151840848Y-100036848D01*
X151955753Y-100209205D01*
X152070658Y-100324110D01*
X152185562Y-100381562D01*
X151266324Y-101358252D02*
X150347086Y-101358252D01*
X149370396Y-101128443D02*
X149427848Y-101185895D01*
X149600205Y-101243348D01*
X149715110Y-101243348D01*
X149887467Y-101185895D01*
X150002372Y-101070990D01*
X150059824Y-100956086D01*
X150117276Y-100726276D01*
X150117276Y-100553919D01*
X150059824Y-100324110D01*
X150002372Y-100209205D01*
X149887467Y-100094300D01*
X149715110Y-100036848D01*
X149600205Y-100036848D01*
X149427848Y-100094300D01*
X149370396Y-100151752D01*
X148968229Y-100036848D02*
X148221348Y-100036848D01*
X148623515Y-100496467D01*
X148451157Y-100496467D01*
X148336253Y-100553919D01*
X148278800Y-100611371D01*
X148221348Y-100726276D01*
X148221348Y-101013538D01*
X148278800Y-101128443D01*
X148336253Y-101185895D01*
X148451157Y-101243348D01*
X148795872Y-101243348D01*
X148910776Y-101185895D01*
X148968229Y-101128443D01*
D12*
X155553955Y-100191751D02*
X155553955Y-100167621D01*
X155544762Y-100167621D01*
X155542464Y-100168770D01*
X155541315Y-100169919D01*
X155540166Y-100172217D01*
X155540166Y-100175664D01*
X155541315Y-100177962D01*
X155542464Y-100179111D01*
X155544762Y-100180260D01*
X155553955Y-100180260D01*
X155533272Y-100167621D02*
X155519483Y-100167621D01*
X155526378Y-100191751D02*
X155526378Y-100167621D01*
X155497651Y-100191751D02*
X155505695Y-100180260D01*
X155511440Y-100191751D02*
X155511440Y-100167621D01*
X155502247Y-100167621D01*
X155499949Y-100168770D01*
X155498800Y-100169919D01*
X155497651Y-100172217D01*
X155497651Y-100175664D01*
X155498800Y-100177962D01*
X155499949Y-100179111D01*
X155502247Y-100180260D01*
X155511440Y-100180260D01*
X155474670Y-100191751D02*
X155488459Y-100191751D01*
X155481565Y-100191751D02*
X155481565Y-100167621D01*
X155483863Y-100171068D01*
X155486161Y-100173366D01*
X155488459Y-100174515D01*
X155467776Y-100167621D02*
X155453987Y-100167621D01*
X155460882Y-100191751D02*
X155460882Y-100167621D01*
X155445944Y-100191751D02*
X155445944Y-100167621D01*
X155436751Y-100167621D01*
X155434453Y-100168770D01*
X155433304Y-100169919D01*
X155432155Y-100172217D01*
X155432155Y-100175664D01*
X155433304Y-100177962D01*
X155434453Y-100179111D01*
X155436751Y-100180260D01*
X155445944Y-100180260D01*
X155409174Y-100191751D02*
X155422963Y-100191751D01*
X155416069Y-100191751D02*
X155416069Y-100167621D01*
X155418367Y-100171068D01*
X155420665Y-100173366D01*
X155422963Y-100174515D01*
X155386193Y-100191751D02*
X155399982Y-100191751D01*
X155393088Y-100191751D02*
X155393088Y-100167621D01*
X155395386Y-100171068D01*
X155397684Y-100173366D01*
X155399982Y-100174515D01*
X155362063Y-100191751D02*
X155370107Y-100180260D01*
X155375852Y-100191751D02*
X155375852Y-100167621D01*
X155366659Y-100167621D01*
X155364361Y-100168770D01*
X155363212Y-100169919D01*
X155362063Y-100172217D01*
X155362063Y-100175664D01*
X155363212Y-100177962D01*
X155364361Y-100179111D01*
X155366659Y-100180260D01*
X155375852Y-100180260D01*
D11*
X201569814Y-98525548D02*
X202144338Y-98525548D01*
X202144338Y-97319048D01*
X201454910Y-98640452D02*
X200535672Y-98640452D01*
X199558982Y-98410643D02*
X199616434Y-98468095D01*
X199788791Y-98525548D01*
X199903696Y-98525548D01*
X200076053Y-98468095D01*
X200190958Y-98353190D01*
X200248410Y-98238286D01*
X200305862Y-98008476D01*
X200305862Y-97836119D01*
X200248410Y-97606310D01*
X200190958Y-97491405D01*
X200076053Y-97376500D01*
X199903696Y-97319048D01*
X199788791Y-97319048D01*
X199616434Y-97376500D01*
X199558982Y-97433952D01*
X198524839Y-97721214D02*
X198524839Y-98525548D01*
X198812101Y-97261595D02*
X199099362Y-98123381D01*
X198352482Y-98123381D01*
X198180124Y-98640452D02*
X197260886Y-98640452D01*
X196284196Y-98410643D02*
X196341648Y-98468095D01*
X196514005Y-98525548D01*
X196628910Y-98525548D01*
X196801267Y-98468095D01*
X196916172Y-98353190D01*
X196973624Y-98238286D01*
X197031076Y-98008476D01*
X197031076Y-97836119D01*
X196973624Y-97606310D01*
X196916172Y-97491405D01*
X196801267Y-97376500D01*
X196628910Y-97319048D01*
X196514005Y-97319048D01*
X196341648Y-97376500D01*
X196284196Y-97433952D01*
X195135148Y-98525548D02*
X195824576Y-98525548D01*
X195479862Y-98525548D02*
X195479862Y-97319048D01*
X195594767Y-97491405D01*
X195709672Y-97606310D01*
X195824576Y-97663762D01*
D12*
X202467755Y-97473951D02*
X202467755Y-97449821D01*
X202458562Y-97449821D01*
X202456264Y-97450970D01*
X202455115Y-97452119D01*
X202453966Y-97454417D01*
X202453966Y-97457864D01*
X202455115Y-97460162D01*
X202456264Y-97461311D01*
X202458562Y-97462460D01*
X202467755Y-97462460D01*
X202447072Y-97449821D02*
X202433283Y-97449821D01*
X202440178Y-97473951D02*
X202440178Y-97449821D01*
X202411451Y-97473951D02*
X202419495Y-97462460D01*
X202425240Y-97473951D02*
X202425240Y-97449821D01*
X202416047Y-97449821D01*
X202413749Y-97450970D01*
X202412600Y-97452119D01*
X202411451Y-97454417D01*
X202411451Y-97457864D01*
X202412600Y-97460162D01*
X202413749Y-97461311D01*
X202416047Y-97462460D01*
X202425240Y-97462460D01*
X202388470Y-97473951D02*
X202402259Y-97473951D01*
X202395365Y-97473951D02*
X202395365Y-97449821D01*
X202397663Y-97453268D01*
X202399961Y-97455566D01*
X202402259Y-97456715D01*
X202381576Y-97449821D02*
X202367787Y-97449821D01*
X202374682Y-97473951D02*
X202374682Y-97449821D01*
X202359744Y-97473951D02*
X202359744Y-97449821D01*
X202350551Y-97449821D01*
X202348253Y-97450970D01*
X202347104Y-97452119D01*
X202345955Y-97454417D01*
X202345955Y-97457864D01*
X202347104Y-97460162D01*
X202348253Y-97461311D01*
X202350551Y-97462460D01*
X202359744Y-97462460D01*
X202322974Y-97473951D02*
X202336763Y-97473951D01*
X202329869Y-97473951D02*
X202329869Y-97449821D01*
X202332167Y-97453268D01*
X202334465Y-97455566D01*
X202336763Y-97456715D01*
X202299993Y-97473951D02*
X202313782Y-97473951D01*
X202306888Y-97473951D02*
X202306888Y-97449821D01*
X202309186Y-97453268D01*
X202311484Y-97455566D01*
X202313782Y-97456715D01*
X202275863Y-97473951D02*
X202283907Y-97462460D01*
X202289652Y-97473951D02*
X202289652Y-97449821D01*
X202280459Y-97449821D01*
X202278161Y-97450970D01*
X202277012Y-97452119D01*
X202275863Y-97454417D01*
X202275863Y-97457864D01*
X202277012Y-97460162D01*
X202278161Y-97461311D01*
X202280459Y-97462460D01*
X202289652Y-97462460D01*
D11*
X154681414Y-98474748D02*
X155255938Y-98474748D01*
X155255938Y-97268248D01*
X154566510Y-98589652D02*
X153647272Y-98589652D01*
X152670582Y-98359843D02*
X152728034Y-98417295D01*
X152900391Y-98474748D01*
X153015296Y-98474748D01*
X153187653Y-98417295D01*
X153302558Y-98302390D01*
X153360010Y-98187486D01*
X153417462Y-97957676D01*
X153417462Y-97785319D01*
X153360010Y-97555510D01*
X153302558Y-97440605D01*
X153187653Y-97325700D01*
X153015296Y-97268248D01*
X152900391Y-97268248D01*
X152728034Y-97325700D01*
X152670582Y-97383152D01*
X151521534Y-98474748D02*
X152210962Y-98474748D01*
X151866248Y-98474748D02*
X151866248Y-97268248D01*
X151981153Y-97440605D01*
X152096058Y-97555510D01*
X152210962Y-97612962D01*
X151291724Y-98589652D02*
X150372486Y-98589652D01*
X149395796Y-98359843D02*
X149453248Y-98417295D01*
X149625605Y-98474748D01*
X149740510Y-98474748D01*
X149912867Y-98417295D01*
X150027772Y-98302390D01*
X150085224Y-98187486D01*
X150142676Y-97957676D01*
X150142676Y-97785319D01*
X150085224Y-97555510D01*
X150027772Y-97440605D01*
X149912867Y-97325700D01*
X149740510Y-97268248D01*
X149625605Y-97268248D01*
X149453248Y-97325700D01*
X149395796Y-97383152D01*
X148361653Y-97670414D02*
X148361653Y-98474748D01*
X148648915Y-97210795D02*
X148936176Y-98072581D01*
X148189296Y-98072581D01*
D12*
X155579355Y-97423151D02*
X155579355Y-97399021D01*
X155570162Y-97399021D01*
X155567864Y-97400170D01*
X155566715Y-97401319D01*
X155565566Y-97403617D01*
X155565566Y-97407064D01*
X155566715Y-97409362D01*
X155567864Y-97410511D01*
X155570162Y-97411660D01*
X155579355Y-97411660D01*
X155558672Y-97399021D02*
X155544883Y-97399021D01*
X155551778Y-97423151D02*
X155551778Y-97399021D01*
X155523051Y-97423151D02*
X155531095Y-97411660D01*
X155536840Y-97423151D02*
X155536840Y-97399021D01*
X155527647Y-97399021D01*
X155525349Y-97400170D01*
X155524200Y-97401319D01*
X155523051Y-97403617D01*
X155523051Y-97407064D01*
X155524200Y-97409362D01*
X155525349Y-97410511D01*
X155527647Y-97411660D01*
X155536840Y-97411660D01*
X155500070Y-97423151D02*
X155513859Y-97423151D01*
X155506965Y-97423151D02*
X155506965Y-97399021D01*
X155509263Y-97402468D01*
X155511561Y-97404766D01*
X155513859Y-97405915D01*
X155493176Y-97399021D02*
X155479387Y-97399021D01*
X155486282Y-97423151D02*
X155486282Y-97399021D01*
X155471344Y-97423151D02*
X155471344Y-97399021D01*
X155462151Y-97399021D01*
X155459853Y-97400170D01*
X155458704Y-97401319D01*
X155457555Y-97403617D01*
X155457555Y-97407064D01*
X155458704Y-97409362D01*
X155459853Y-97410511D01*
X155462151Y-97411660D01*
X155471344Y-97411660D01*
X155434574Y-97423151D02*
X155448363Y-97423151D01*
X155441469Y-97423151D02*
X155441469Y-97399021D01*
X155443767Y-97402468D01*
X155446065Y-97404766D01*
X155448363Y-97405915D01*
X155411593Y-97423151D02*
X155425382Y-97423151D01*
X155418488Y-97423151D02*
X155418488Y-97399021D01*
X155420786Y-97402468D01*
X155423084Y-97404766D01*
X155425382Y-97405915D01*
X155387463Y-97423151D02*
X155395507Y-97411660D01*
X155401252Y-97423151D02*
X155401252Y-97399021D01*
X155392059Y-97399021D01*
X155389761Y-97400170D01*
X155388612Y-97401319D01*
X155387463Y-97403617D01*
X155387463Y-97407064D01*
X155388612Y-97409362D01*
X155389761Y-97410511D01*
X155392059Y-97411660D01*
X155401252Y-97411660D01*
D11*
X202227190Y-114597095D02*
X202054833Y-114654548D01*
X201767571Y-114654548D01*
X201652667Y-114597095D01*
X201595214Y-114539643D01*
X201537762Y-114424738D01*
X201537762Y-114309833D01*
X201595214Y-114194929D01*
X201652667Y-114137476D01*
X201767571Y-114080024D01*
X201997381Y-114022571D01*
X202112286Y-113965119D01*
X202169738Y-113907667D01*
X202227190Y-113792762D01*
X202227190Y-113677857D01*
X202169738Y-113562952D01*
X202112286Y-113505500D01*
X201997381Y-113448048D01*
X201710119Y-113448048D01*
X201537762Y-113505500D01*
X200331262Y-114539643D02*
X200388714Y-114597095D01*
X200561071Y-114654548D01*
X200675976Y-114654548D01*
X200848333Y-114597095D01*
X200963238Y-114482190D01*
X201020690Y-114367286D01*
X201078142Y-114137476D01*
X201078142Y-113965119D01*
X201020690Y-113735310D01*
X200963238Y-113620405D01*
X200848333Y-113505500D01*
X200675976Y-113448048D01*
X200561071Y-113448048D01*
X200388714Y-113505500D01*
X200331262Y-113562952D01*
X199239666Y-114654548D02*
X199814190Y-114654548D01*
X199814190Y-113448048D01*
X199124762Y-114769452D02*
X198205524Y-114769452D01*
X197975714Y-114597095D02*
X197803357Y-114654548D01*
X197516095Y-114654548D01*
X197401191Y-114597095D01*
X197343738Y-114539643D01*
X197286286Y-114424738D01*
X197286286Y-114309833D01*
X197343738Y-114194929D01*
X197401191Y-114137476D01*
X197516095Y-114080024D01*
X197745905Y-114022571D01*
X197860810Y-113965119D01*
X197918262Y-113907667D01*
X197975714Y-113792762D01*
X197975714Y-113677857D01*
X197918262Y-113562952D01*
X197860810Y-113505500D01*
X197745905Y-113448048D01*
X197458643Y-113448048D01*
X197286286Y-113505500D01*
X196826666Y-113562952D02*
X196769214Y-113505500D01*
X196654309Y-113448048D01*
X196367047Y-113448048D01*
X196252143Y-113505500D01*
X196194690Y-113562952D01*
X196137238Y-113677857D01*
X196137238Y-113792762D01*
X196194690Y-113965119D01*
X196884119Y-114654548D01*
X196137238Y-114654548D01*
X195907428Y-114769452D02*
X194988190Y-114769452D01*
X194011500Y-114539643D02*
X194068952Y-114597095D01*
X194241309Y-114654548D01*
X194356214Y-114654548D01*
X194528571Y-114597095D01*
X194643476Y-114482190D01*
X194700928Y-114367286D01*
X194758380Y-114137476D01*
X194758380Y-113965119D01*
X194700928Y-113735310D01*
X194643476Y-113620405D01*
X194528571Y-113505500D01*
X194356214Y-113448048D01*
X194241309Y-113448048D01*
X194068952Y-113505500D01*
X194011500Y-113562952D01*
X193551880Y-113562952D02*
X193494428Y-113505500D01*
X193379523Y-113448048D01*
X193092261Y-113448048D01*
X192977357Y-113505500D01*
X192919904Y-113562952D01*
X192862452Y-113677857D01*
X192862452Y-113792762D01*
X192919904Y-113965119D01*
X193609333Y-114654548D01*
X192862452Y-114654548D01*
X192632642Y-114769452D02*
X191713404Y-114769452D01*
X190736714Y-114539643D02*
X190794166Y-114597095D01*
X190966523Y-114654548D01*
X191081428Y-114654548D01*
X191253785Y-114597095D01*
X191368690Y-114482190D01*
X191426142Y-114367286D01*
X191483594Y-114137476D01*
X191483594Y-113965119D01*
X191426142Y-113735310D01*
X191368690Y-113620405D01*
X191253785Y-113505500D01*
X191081428Y-113448048D01*
X190966523Y-113448048D01*
X190794166Y-113505500D01*
X190736714Y-113562952D01*
X189587666Y-114654548D02*
X190277094Y-114654548D01*
X189932380Y-114654548D02*
X189932380Y-113448048D01*
X190047285Y-113620405D01*
X190162190Y-113735310D01*
X190277094Y-113792762D01*
D12*
X202493155Y-113602951D02*
X202493155Y-113578821D01*
X202483962Y-113578821D01*
X202481664Y-113579970D01*
X202480515Y-113581119D01*
X202479366Y-113583417D01*
X202479366Y-113586864D01*
X202480515Y-113589162D01*
X202481664Y-113590311D01*
X202483962Y-113591460D01*
X202493155Y-113591460D01*
X202472472Y-113578821D02*
X202458683Y-113578821D01*
X202465578Y-113602951D02*
X202465578Y-113578821D01*
X202436851Y-113602951D02*
X202444895Y-113591460D01*
X202450640Y-113602951D02*
X202450640Y-113578821D01*
X202441447Y-113578821D01*
X202439149Y-113579970D01*
X202438000Y-113581119D01*
X202436851Y-113583417D01*
X202436851Y-113586864D01*
X202438000Y-113589162D01*
X202439149Y-113590311D01*
X202441447Y-113591460D01*
X202450640Y-113591460D01*
X202413870Y-113602951D02*
X202427659Y-113602951D01*
X202420765Y-113602951D02*
X202420765Y-113578821D01*
X202423063Y-113582268D01*
X202425361Y-113584566D01*
X202427659Y-113585715D01*
X202406976Y-113578821D02*
X202393187Y-113578821D01*
X202400082Y-113602951D02*
X202400082Y-113578821D01*
X202385144Y-113602951D02*
X202385144Y-113578821D01*
X202375951Y-113578821D01*
X202373653Y-113579970D01*
X202372504Y-113581119D01*
X202371355Y-113583417D01*
X202371355Y-113586864D01*
X202372504Y-113589162D01*
X202373653Y-113590311D01*
X202375951Y-113591460D01*
X202385144Y-113591460D01*
X202348374Y-113602951D02*
X202362163Y-113602951D01*
X202355269Y-113602951D02*
X202355269Y-113578821D01*
X202357567Y-113582268D01*
X202359865Y-113584566D01*
X202362163Y-113585715D01*
X202325393Y-113602951D02*
X202339182Y-113602951D01*
X202332288Y-113602951D02*
X202332288Y-113578821D01*
X202334586Y-113582268D01*
X202336884Y-113584566D01*
X202339182Y-113585715D01*
X202301263Y-113602951D02*
X202309307Y-113591460D01*
X202315052Y-113602951D02*
X202315052Y-113578821D01*
X202305859Y-113578821D01*
X202303561Y-113579970D01*
X202302412Y-113581119D01*
X202301263Y-113583417D01*
X202301263Y-113586864D01*
X202302412Y-113589162D01*
X202303561Y-113590311D01*
X202305859Y-113591460D01*
X202315052Y-113591460D01*
D11*
X202277990Y-92880095D02*
X202105633Y-92937548D01*
X201818371Y-92937548D01*
X201703467Y-92880095D01*
X201646014Y-92822643D01*
X201588562Y-92707738D01*
X201588562Y-92592833D01*
X201646014Y-92477929D01*
X201703467Y-92420476D01*
X201818371Y-92363024D01*
X202048181Y-92305571D01*
X202163086Y-92248119D01*
X202220538Y-92190667D01*
X202277990Y-92075762D01*
X202277990Y-91960857D01*
X202220538Y-91845952D01*
X202163086Y-91788500D01*
X202048181Y-91731048D01*
X201760919Y-91731048D01*
X201588562Y-91788500D01*
X200382062Y-92822643D02*
X200439514Y-92880095D01*
X200611871Y-92937548D01*
X200726776Y-92937548D01*
X200899133Y-92880095D01*
X201014038Y-92765190D01*
X201071490Y-92650286D01*
X201128942Y-92420476D01*
X201128942Y-92248119D01*
X201071490Y-92018310D01*
X201014038Y-91903405D01*
X200899133Y-91788500D01*
X200726776Y-91731048D01*
X200611871Y-91731048D01*
X200439514Y-91788500D01*
X200382062Y-91845952D01*
X199290466Y-92937548D02*
X199864990Y-92937548D01*
X199864990Y-91731048D01*
X199175562Y-93052452D02*
X198256324Y-93052452D01*
X198026514Y-92880095D02*
X197854157Y-92937548D01*
X197566895Y-92937548D01*
X197451991Y-92880095D01*
X197394538Y-92822643D01*
X197337086Y-92707738D01*
X197337086Y-92592833D01*
X197394538Y-92477929D01*
X197451991Y-92420476D01*
X197566895Y-92363024D01*
X197796705Y-92305571D01*
X197911610Y-92248119D01*
X197969062Y-92190667D01*
X198026514Y-92075762D01*
X198026514Y-91960857D01*
X197969062Y-91845952D01*
X197911610Y-91788500D01*
X197796705Y-91731048D01*
X197509443Y-91731048D01*
X197337086Y-91788500D01*
X196934919Y-91731048D02*
X196188038Y-91731048D01*
X196590205Y-92190667D01*
X196417847Y-92190667D01*
X196302943Y-92248119D01*
X196245490Y-92305571D01*
X196188038Y-92420476D01*
X196188038Y-92707738D01*
X196245490Y-92822643D01*
X196302943Y-92880095D01*
X196417847Y-92937548D01*
X196762562Y-92937548D01*
X196877466Y-92880095D01*
X196934919Y-92822643D01*
X195958228Y-93052452D02*
X195038990Y-93052452D01*
X194062300Y-92822643D02*
X194119752Y-92880095D01*
X194292109Y-92937548D01*
X194407014Y-92937548D01*
X194579371Y-92880095D01*
X194694276Y-92765190D01*
X194751728Y-92650286D01*
X194809180Y-92420476D01*
X194809180Y-92248119D01*
X194751728Y-92018310D01*
X194694276Y-91903405D01*
X194579371Y-91788500D01*
X194407014Y-91731048D01*
X194292109Y-91731048D01*
X194119752Y-91788500D01*
X194062300Y-91845952D01*
X193660133Y-91731048D02*
X192913252Y-91731048D01*
X193315419Y-92190667D01*
X193143061Y-92190667D01*
X193028157Y-92248119D01*
X192970704Y-92305571D01*
X192913252Y-92420476D01*
X192913252Y-92707738D01*
X192970704Y-92822643D01*
X193028157Y-92880095D01*
X193143061Y-92937548D01*
X193487776Y-92937548D01*
X193602680Y-92880095D01*
X193660133Y-92822643D01*
X192683442Y-93052452D02*
X191764204Y-93052452D01*
X190787514Y-92822643D02*
X190844966Y-92880095D01*
X191017323Y-92937548D01*
X191132228Y-92937548D01*
X191304585Y-92880095D01*
X191419490Y-92765190D01*
X191476942Y-92650286D01*
X191534394Y-92420476D01*
X191534394Y-92248119D01*
X191476942Y-92018310D01*
X191419490Y-91903405D01*
X191304585Y-91788500D01*
X191132228Y-91731048D01*
X191017323Y-91731048D01*
X190844966Y-91788500D01*
X190787514Y-91845952D01*
X189638466Y-92937548D02*
X190327894Y-92937548D01*
X189983180Y-92937548D02*
X189983180Y-91731048D01*
X190098085Y-91903405D01*
X190212990Y-92018310D01*
X190327894Y-92075762D01*
D12*
X202543955Y-91885951D02*
X202543955Y-91861821D01*
X202534762Y-91861821D01*
X202532464Y-91862970D01*
X202531315Y-91864119D01*
X202530166Y-91866417D01*
X202530166Y-91869864D01*
X202531315Y-91872162D01*
X202532464Y-91873311D01*
X202534762Y-91874460D01*
X202543955Y-91874460D01*
X202523272Y-91861821D02*
X202509483Y-91861821D01*
X202516378Y-91885951D02*
X202516378Y-91861821D01*
X202487651Y-91885951D02*
X202495695Y-91874460D01*
X202501440Y-91885951D02*
X202501440Y-91861821D01*
X202492247Y-91861821D01*
X202489949Y-91862970D01*
X202488800Y-91864119D01*
X202487651Y-91866417D01*
X202487651Y-91869864D01*
X202488800Y-91872162D01*
X202489949Y-91873311D01*
X202492247Y-91874460D01*
X202501440Y-91874460D01*
X202464670Y-91885951D02*
X202478459Y-91885951D01*
X202471565Y-91885951D02*
X202471565Y-91861821D01*
X202473863Y-91865268D01*
X202476161Y-91867566D01*
X202478459Y-91868715D01*
X202457776Y-91861821D02*
X202443987Y-91861821D01*
X202450882Y-91885951D02*
X202450882Y-91861821D01*
X202435944Y-91885951D02*
X202435944Y-91861821D01*
X202426751Y-91861821D01*
X202424453Y-91862970D01*
X202423304Y-91864119D01*
X202422155Y-91866417D01*
X202422155Y-91869864D01*
X202423304Y-91872162D01*
X202424453Y-91873311D01*
X202426751Y-91874460D01*
X202435944Y-91874460D01*
X202399174Y-91885951D02*
X202412963Y-91885951D01*
X202406069Y-91885951D02*
X202406069Y-91861821D01*
X202408367Y-91865268D01*
X202410665Y-91867566D01*
X202412963Y-91868715D01*
X202376193Y-91885951D02*
X202389982Y-91885951D01*
X202383088Y-91885951D02*
X202383088Y-91861821D01*
X202385386Y-91865268D01*
X202387684Y-91867566D01*
X202389982Y-91868715D01*
X202352063Y-91885951D02*
X202360107Y-91874460D01*
X202365852Y-91885951D02*
X202365852Y-91861821D01*
X202356659Y-91861821D01*
X202354361Y-91862970D01*
X202353212Y-91864119D01*
X202352063Y-91866417D01*
X202352063Y-91869864D01*
X202353212Y-91872162D01*
X202354361Y-91873311D01*
X202356659Y-91874460D01*
X202365852Y-91874460D01*
D11*
X155237190Y-92981695D02*
X155064833Y-93039148D01*
X154777571Y-93039148D01*
X154662667Y-92981695D01*
X154605214Y-92924243D01*
X154547762Y-92809338D01*
X154547762Y-92694433D01*
X154605214Y-92579529D01*
X154662667Y-92522076D01*
X154777571Y-92464624D01*
X155007381Y-92407171D01*
X155122286Y-92349719D01*
X155179738Y-92292267D01*
X155237190Y-92177362D01*
X155237190Y-92062457D01*
X155179738Y-91947552D01*
X155122286Y-91890100D01*
X155007381Y-91832648D01*
X154720119Y-91832648D01*
X154547762Y-91890100D01*
X153341262Y-92924243D02*
X153398714Y-92981695D01*
X153571071Y-93039148D01*
X153685976Y-93039148D01*
X153858333Y-92981695D01*
X153973238Y-92866790D01*
X154030690Y-92751886D01*
X154088142Y-92522076D01*
X154088142Y-92349719D01*
X154030690Y-92119910D01*
X153973238Y-92005005D01*
X153858333Y-91890100D01*
X153685976Y-91832648D01*
X153571071Y-91832648D01*
X153398714Y-91890100D01*
X153341262Y-91947552D01*
X152249666Y-93039148D02*
X152824190Y-93039148D01*
X152824190Y-91832648D01*
X152134762Y-93154052D02*
X151215524Y-93154052D01*
X150985714Y-92981695D02*
X150813357Y-93039148D01*
X150526095Y-93039148D01*
X150411191Y-92981695D01*
X150353738Y-92924243D01*
X150296286Y-92809338D01*
X150296286Y-92694433D01*
X150353738Y-92579529D01*
X150411191Y-92522076D01*
X150526095Y-92464624D01*
X150755905Y-92407171D01*
X150870810Y-92349719D01*
X150928262Y-92292267D01*
X150985714Y-92177362D01*
X150985714Y-92062457D01*
X150928262Y-91947552D01*
X150870810Y-91890100D01*
X150755905Y-91832648D01*
X150468643Y-91832648D01*
X150296286Y-91890100D01*
X149894119Y-91832648D02*
X149147238Y-91832648D01*
X149549405Y-92292267D01*
X149377047Y-92292267D01*
X149262143Y-92349719D01*
X149204690Y-92407171D01*
X149147238Y-92522076D01*
X149147238Y-92809338D01*
X149204690Y-92924243D01*
X149262143Y-92981695D01*
X149377047Y-93039148D01*
X149721762Y-93039148D01*
X149836666Y-92981695D01*
X149894119Y-92924243D01*
X148917428Y-93154052D02*
X147998190Y-93154052D01*
X147021500Y-92924243D02*
X147078952Y-92981695D01*
X147251309Y-93039148D01*
X147366214Y-93039148D01*
X147538571Y-92981695D01*
X147653476Y-92866790D01*
X147710928Y-92751886D01*
X147768380Y-92522076D01*
X147768380Y-92349719D01*
X147710928Y-92119910D01*
X147653476Y-92005005D01*
X147538571Y-91890100D01*
X147366214Y-91832648D01*
X147251309Y-91832648D01*
X147078952Y-91890100D01*
X147021500Y-91947552D01*
X145872452Y-93039148D02*
X146561880Y-93039148D01*
X146217166Y-93039148D02*
X146217166Y-91832648D01*
X146332071Y-92005005D01*
X146446976Y-92119910D01*
X146561880Y-92177362D01*
X145642642Y-93154052D02*
X144723404Y-93154052D01*
X143746714Y-92924243D02*
X143804166Y-92981695D01*
X143976523Y-93039148D01*
X144091428Y-93039148D01*
X144263785Y-92981695D01*
X144378690Y-92866790D01*
X144436142Y-92751886D01*
X144493594Y-92522076D01*
X144493594Y-92349719D01*
X144436142Y-92119910D01*
X144378690Y-92005005D01*
X144263785Y-91890100D01*
X144091428Y-91832648D01*
X143976523Y-91832648D01*
X143804166Y-91890100D01*
X143746714Y-91947552D01*
X143344547Y-91832648D02*
X142597666Y-91832648D01*
X142999833Y-92292267D01*
X142827475Y-92292267D01*
X142712571Y-92349719D01*
X142655118Y-92407171D01*
X142597666Y-92522076D01*
X142597666Y-92809338D01*
X142655118Y-92924243D01*
X142712571Y-92981695D01*
X142827475Y-93039148D01*
X143172190Y-93039148D01*
X143287094Y-92981695D01*
X143344547Y-92924243D01*
D12*
X155503155Y-91987551D02*
X155503155Y-91963421D01*
X155493962Y-91963421D01*
X155491664Y-91964570D01*
X155490515Y-91965719D01*
X155489366Y-91968017D01*
X155489366Y-91971464D01*
X155490515Y-91973762D01*
X155491664Y-91974911D01*
X155493962Y-91976060D01*
X155503155Y-91976060D01*
X155482472Y-91963421D02*
X155468683Y-91963421D01*
X155475578Y-91987551D02*
X155475578Y-91963421D01*
X155446851Y-91987551D02*
X155454895Y-91976060D01*
X155460640Y-91987551D02*
X155460640Y-91963421D01*
X155451447Y-91963421D01*
X155449149Y-91964570D01*
X155448000Y-91965719D01*
X155446851Y-91968017D01*
X155446851Y-91971464D01*
X155448000Y-91973762D01*
X155449149Y-91974911D01*
X155451447Y-91976060D01*
X155460640Y-91976060D01*
X155423870Y-91987551D02*
X155437659Y-91987551D01*
X155430765Y-91987551D02*
X155430765Y-91963421D01*
X155433063Y-91966868D01*
X155435361Y-91969166D01*
X155437659Y-91970315D01*
X155416976Y-91963421D02*
X155403187Y-91963421D01*
X155410082Y-91987551D02*
X155410082Y-91963421D01*
X155395144Y-91987551D02*
X155395144Y-91963421D01*
X155385951Y-91963421D01*
X155383653Y-91964570D01*
X155382504Y-91965719D01*
X155381355Y-91968017D01*
X155381355Y-91971464D01*
X155382504Y-91973762D01*
X155383653Y-91974911D01*
X155385951Y-91976060D01*
X155395144Y-91976060D01*
X155358374Y-91987551D02*
X155372163Y-91987551D01*
X155365269Y-91987551D02*
X155365269Y-91963421D01*
X155367567Y-91966868D01*
X155369865Y-91969166D01*
X155372163Y-91970315D01*
X155335393Y-91987551D02*
X155349182Y-91987551D01*
X155342288Y-91987551D02*
X155342288Y-91963421D01*
X155344586Y-91966868D01*
X155346884Y-91969166D01*
X155349182Y-91970315D01*
X155311263Y-91987551D02*
X155319307Y-91976060D01*
X155325052Y-91987551D02*
X155325052Y-91963421D01*
X155315859Y-91963421D01*
X155313561Y-91964570D01*
X155312412Y-91965719D01*
X155311263Y-91968017D01*
X155311263Y-91971464D01*
X155312412Y-91973762D01*
X155313561Y-91974911D01*
X155315859Y-91976060D01*
X155325052Y-91976060D01*
D11*
X202201790Y-109085295D02*
X202029433Y-109142748D01*
X201742171Y-109142748D01*
X201627267Y-109085295D01*
X201569814Y-109027843D01*
X201512362Y-108912938D01*
X201512362Y-108798033D01*
X201569814Y-108683129D01*
X201627267Y-108625676D01*
X201742171Y-108568224D01*
X201971981Y-108510771D01*
X202086886Y-108453319D01*
X202144338Y-108395867D01*
X202201790Y-108280962D01*
X202201790Y-108166057D01*
X202144338Y-108051152D01*
X202086886Y-107993700D01*
X201971981Y-107936248D01*
X201684719Y-107936248D01*
X201512362Y-107993700D01*
X200305862Y-109027843D02*
X200363314Y-109085295D01*
X200535671Y-109142748D01*
X200650576Y-109142748D01*
X200822933Y-109085295D01*
X200937838Y-108970390D01*
X200995290Y-108855486D01*
X201052742Y-108625676D01*
X201052742Y-108453319D01*
X200995290Y-108223510D01*
X200937838Y-108108605D01*
X200822933Y-107993700D01*
X200650576Y-107936248D01*
X200535671Y-107936248D01*
X200363314Y-107993700D01*
X200305862Y-108051152D01*
X199214266Y-109142748D02*
X199788790Y-109142748D01*
X199788790Y-107936248D01*
X199099362Y-109257652D02*
X198180124Y-109257652D01*
X197950314Y-109085295D02*
X197777957Y-109142748D01*
X197490695Y-109142748D01*
X197375791Y-109085295D01*
X197318338Y-109027843D01*
X197260886Y-108912938D01*
X197260886Y-108798033D01*
X197318338Y-108683129D01*
X197375791Y-108625676D01*
X197490695Y-108568224D01*
X197720505Y-108510771D01*
X197835410Y-108453319D01*
X197892862Y-108395867D01*
X197950314Y-108280962D01*
X197950314Y-108166057D01*
X197892862Y-108051152D01*
X197835410Y-107993700D01*
X197720505Y-107936248D01*
X197433243Y-107936248D01*
X197260886Y-107993700D01*
X196226743Y-108338414D02*
X196226743Y-109142748D01*
X196514005Y-107878795D02*
X196801266Y-108740581D01*
X196054386Y-108740581D01*
X195882028Y-109257652D02*
X194962790Y-109257652D01*
X193986100Y-109027843D02*
X194043552Y-109085295D01*
X194215909Y-109142748D01*
X194330814Y-109142748D01*
X194503171Y-109085295D01*
X194618076Y-108970390D01*
X194675528Y-108855486D01*
X194732980Y-108625676D01*
X194732980Y-108453319D01*
X194675528Y-108223510D01*
X194618076Y-108108605D01*
X194503171Y-107993700D01*
X194330814Y-107936248D01*
X194215909Y-107936248D01*
X194043552Y-107993700D01*
X193986100Y-108051152D01*
X192951957Y-108338414D02*
X192951957Y-109142748D01*
X193239219Y-107878795D02*
X193526480Y-108740581D01*
X192779600Y-108740581D01*
X192607242Y-109257652D02*
X191688004Y-109257652D01*
X190711314Y-109027843D02*
X190768766Y-109085295D01*
X190941123Y-109142748D01*
X191056028Y-109142748D01*
X191228385Y-109085295D01*
X191343290Y-108970390D01*
X191400742Y-108855486D01*
X191458194Y-108625676D01*
X191458194Y-108453319D01*
X191400742Y-108223510D01*
X191343290Y-108108605D01*
X191228385Y-107993700D01*
X191056028Y-107936248D01*
X190941123Y-107936248D01*
X190768766Y-107993700D01*
X190711314Y-108051152D01*
X189562266Y-109142748D02*
X190251694Y-109142748D01*
X189906980Y-109142748D02*
X189906980Y-107936248D01*
X190021885Y-108108605D01*
X190136790Y-108223510D01*
X190251694Y-108280962D01*
D12*
X202467755Y-108091151D02*
X202467755Y-108067021D01*
X202458562Y-108067021D01*
X202456264Y-108068170D01*
X202455115Y-108069319D01*
X202453966Y-108071617D01*
X202453966Y-108075064D01*
X202455115Y-108077362D01*
X202456264Y-108078511D01*
X202458562Y-108079660D01*
X202467755Y-108079660D01*
X202447072Y-108067021D02*
X202433283Y-108067021D01*
X202440178Y-108091151D02*
X202440178Y-108067021D01*
X202411451Y-108091151D02*
X202419495Y-108079660D01*
X202425240Y-108091151D02*
X202425240Y-108067021D01*
X202416047Y-108067021D01*
X202413749Y-108068170D01*
X202412600Y-108069319D01*
X202411451Y-108071617D01*
X202411451Y-108075064D01*
X202412600Y-108077362D01*
X202413749Y-108078511D01*
X202416047Y-108079660D01*
X202425240Y-108079660D01*
X202388470Y-108091151D02*
X202402259Y-108091151D01*
X202395365Y-108091151D02*
X202395365Y-108067021D01*
X202397663Y-108070468D01*
X202399961Y-108072766D01*
X202402259Y-108073915D01*
X202381576Y-108067021D02*
X202367787Y-108067021D01*
X202374682Y-108091151D02*
X202374682Y-108067021D01*
X202359744Y-108091151D02*
X202359744Y-108067021D01*
X202350551Y-108067021D01*
X202348253Y-108068170D01*
X202347104Y-108069319D01*
X202345955Y-108071617D01*
X202345955Y-108075064D01*
X202347104Y-108077362D01*
X202348253Y-108078511D01*
X202350551Y-108079660D01*
X202359744Y-108079660D01*
X202322974Y-108091151D02*
X202336763Y-108091151D01*
X202329869Y-108091151D02*
X202329869Y-108067021D01*
X202332167Y-108070468D01*
X202334465Y-108072766D01*
X202336763Y-108073915D01*
X202299993Y-108091151D02*
X202313782Y-108091151D01*
X202306888Y-108091151D02*
X202306888Y-108067021D01*
X202309186Y-108070468D01*
X202311484Y-108072766D01*
X202313782Y-108073915D01*
X202275863Y-108091151D02*
X202283907Y-108079660D01*
X202289652Y-108091151D02*
X202289652Y-108067021D01*
X202280459Y-108067021D01*
X202278161Y-108068170D01*
X202277012Y-108069319D01*
X202275863Y-108071617D01*
X202275863Y-108075064D01*
X202277012Y-108077362D01*
X202278161Y-108078511D01*
X202280459Y-108079660D01*
X202289652Y-108079660D01*
D11*
X155186390Y-109085295D02*
X155014033Y-109142748D01*
X154726771Y-109142748D01*
X154611867Y-109085295D01*
X154554414Y-109027843D01*
X154496962Y-108912938D01*
X154496962Y-108798033D01*
X154554414Y-108683129D01*
X154611867Y-108625676D01*
X154726771Y-108568224D01*
X154956581Y-108510771D01*
X155071486Y-108453319D01*
X155128938Y-108395867D01*
X155186390Y-108280962D01*
X155186390Y-108166057D01*
X155128938Y-108051152D01*
X155071486Y-107993700D01*
X154956581Y-107936248D01*
X154669319Y-107936248D01*
X154496962Y-107993700D01*
X153290462Y-109027843D02*
X153347914Y-109085295D01*
X153520271Y-109142748D01*
X153635176Y-109142748D01*
X153807533Y-109085295D01*
X153922438Y-108970390D01*
X153979890Y-108855486D01*
X154037342Y-108625676D01*
X154037342Y-108453319D01*
X153979890Y-108223510D01*
X153922438Y-108108605D01*
X153807533Y-107993700D01*
X153635176Y-107936248D01*
X153520271Y-107936248D01*
X153347914Y-107993700D01*
X153290462Y-108051152D01*
X152198866Y-109142748D02*
X152773390Y-109142748D01*
X152773390Y-107936248D01*
X152083962Y-109257652D02*
X151164724Y-109257652D01*
X150934914Y-109085295D02*
X150762557Y-109142748D01*
X150475295Y-109142748D01*
X150360391Y-109085295D01*
X150302938Y-109027843D01*
X150245486Y-108912938D01*
X150245486Y-108798033D01*
X150302938Y-108683129D01*
X150360391Y-108625676D01*
X150475295Y-108568224D01*
X150705105Y-108510771D01*
X150820010Y-108453319D01*
X150877462Y-108395867D01*
X150934914Y-108280962D01*
X150934914Y-108166057D01*
X150877462Y-108051152D01*
X150820010Y-107993700D01*
X150705105Y-107936248D01*
X150417843Y-107936248D01*
X150245486Y-107993700D01*
X149211343Y-108338414D02*
X149211343Y-109142748D01*
X149498605Y-107878795D02*
X149785866Y-108740581D01*
X149038986Y-108740581D01*
X148866628Y-109257652D02*
X147947390Y-109257652D01*
X146970700Y-109027843D02*
X147028152Y-109085295D01*
X147200509Y-109142748D01*
X147315414Y-109142748D01*
X147487771Y-109085295D01*
X147602676Y-108970390D01*
X147660128Y-108855486D01*
X147717580Y-108625676D01*
X147717580Y-108453319D01*
X147660128Y-108223510D01*
X147602676Y-108108605D01*
X147487771Y-107993700D01*
X147315414Y-107936248D01*
X147200509Y-107936248D01*
X147028152Y-107993700D01*
X146970700Y-108051152D01*
X145821652Y-109142748D02*
X146511080Y-109142748D01*
X146166366Y-109142748D02*
X146166366Y-107936248D01*
X146281271Y-108108605D01*
X146396176Y-108223510D01*
X146511080Y-108280962D01*
X145591842Y-109257652D02*
X144672604Y-109257652D01*
X143695914Y-109027843D02*
X143753366Y-109085295D01*
X143925723Y-109142748D01*
X144040628Y-109142748D01*
X144212985Y-109085295D01*
X144327890Y-108970390D01*
X144385342Y-108855486D01*
X144442794Y-108625676D01*
X144442794Y-108453319D01*
X144385342Y-108223510D01*
X144327890Y-108108605D01*
X144212985Y-107993700D01*
X144040628Y-107936248D01*
X143925723Y-107936248D01*
X143753366Y-107993700D01*
X143695914Y-108051152D01*
X142661771Y-108338414D02*
X142661771Y-109142748D01*
X142949033Y-107878795D02*
X143236294Y-108740581D01*
X142489414Y-108740581D01*
D12*
X155452355Y-108091151D02*
X155452355Y-108067021D01*
X155443162Y-108067021D01*
X155440864Y-108068170D01*
X155439715Y-108069319D01*
X155438566Y-108071617D01*
X155438566Y-108075064D01*
X155439715Y-108077362D01*
X155440864Y-108078511D01*
X155443162Y-108079660D01*
X155452355Y-108079660D01*
X155431672Y-108067021D02*
X155417883Y-108067021D01*
X155424778Y-108091151D02*
X155424778Y-108067021D01*
X155396051Y-108091151D02*
X155404095Y-108079660D01*
X155409840Y-108091151D02*
X155409840Y-108067021D01*
X155400647Y-108067021D01*
X155398349Y-108068170D01*
X155397200Y-108069319D01*
X155396051Y-108071617D01*
X155396051Y-108075064D01*
X155397200Y-108077362D01*
X155398349Y-108078511D01*
X155400647Y-108079660D01*
X155409840Y-108079660D01*
X155373070Y-108091151D02*
X155386859Y-108091151D01*
X155379965Y-108091151D02*
X155379965Y-108067021D01*
X155382263Y-108070468D01*
X155384561Y-108072766D01*
X155386859Y-108073915D01*
X155366176Y-108067021D02*
X155352387Y-108067021D01*
X155359282Y-108091151D02*
X155359282Y-108067021D01*
X155344344Y-108091151D02*
X155344344Y-108067021D01*
X155335151Y-108067021D01*
X155332853Y-108068170D01*
X155331704Y-108069319D01*
X155330555Y-108071617D01*
X155330555Y-108075064D01*
X155331704Y-108077362D01*
X155332853Y-108078511D01*
X155335151Y-108079660D01*
X155344344Y-108079660D01*
X155307574Y-108091151D02*
X155321363Y-108091151D01*
X155314469Y-108091151D02*
X155314469Y-108067021D01*
X155316767Y-108070468D01*
X155319065Y-108072766D01*
X155321363Y-108073915D01*
X155284593Y-108091151D02*
X155298382Y-108091151D01*
X155291488Y-108091151D02*
X155291488Y-108067021D01*
X155293786Y-108070468D01*
X155296084Y-108072766D01*
X155298382Y-108073915D01*
X155260463Y-108091151D02*
X155268507Y-108079660D01*
X155274252Y-108091151D02*
X155274252Y-108067021D01*
X155265059Y-108067021D01*
X155262761Y-108068170D01*
X155261612Y-108069319D01*
X155260463Y-108071617D01*
X155260463Y-108075064D01*
X155261612Y-108077362D01*
X155262761Y-108078511D01*
X155265059Y-108079660D01*
X155274252Y-108079660D01*
X190112802Y-112431821D02*
X190099013Y-112431821D01*
X190105908Y-112455951D02*
X190105908Y-112431821D01*
X190090970Y-112455951D02*
X190090970Y-112431821D01*
X190081777Y-112431821D01*
X190079479Y-112432970D01*
X190078330Y-112434119D01*
X190077181Y-112436417D01*
X190077181Y-112439864D01*
X190078330Y-112442162D01*
X190079479Y-112443311D01*
X190081777Y-112444460D01*
X190090970Y-112444460D01*
X190058796Y-112443311D02*
X190055349Y-112444460D01*
X190054200Y-112445610D01*
X190053051Y-112447908D01*
X190053051Y-112451355D01*
X190054200Y-112453653D01*
X190055349Y-112454802D01*
X190057647Y-112455951D01*
X190066840Y-112455951D01*
X190066840Y-112431821D01*
X190058796Y-112431821D01*
X190056498Y-112432970D01*
X190055349Y-112434119D01*
X190054200Y-112436417D01*
X190054200Y-112438715D01*
X190055349Y-112441013D01*
X190056498Y-112442162D01*
X190058796Y-112443311D01*
X190066840Y-112443311D01*
X190043859Y-112434119D02*
X190042710Y-112432970D01*
X190040412Y-112431821D01*
X190034666Y-112431821D01*
X190032368Y-112432970D01*
X190031219Y-112434119D01*
X190030070Y-112436417D01*
X190030070Y-112438715D01*
X190031219Y-112442162D01*
X190045008Y-112455951D01*
X190030070Y-112455951D01*
X190018580Y-112454802D02*
X190018580Y-112455951D01*
X190019729Y-112458249D01*
X190020878Y-112459398D01*
X189996748Y-112431821D02*
X190008239Y-112431821D01*
X190009388Y-112443311D01*
X190008239Y-112442162D01*
X190005941Y-112441013D01*
X190000195Y-112441013D01*
X189997897Y-112442162D01*
X189996748Y-112443311D01*
X189995599Y-112445610D01*
X189995599Y-112451355D01*
X189996748Y-112453653D01*
X189997897Y-112454802D01*
X190000195Y-112455951D01*
X190005941Y-112455951D01*
X190008239Y-112454802D01*
X190009388Y-112453653D01*
X189974916Y-112439864D02*
X189974916Y-112455951D01*
X189980662Y-112430672D02*
X189986407Y-112447908D01*
X189971469Y-112447908D01*
X166103802Y-88396821D02*
X166090013Y-88396821D01*
X166096908Y-88420951D02*
X166096908Y-88396821D01*
X166081970Y-88420951D02*
X166081970Y-88396821D01*
X166072777Y-88396821D01*
X166070479Y-88397970D01*
X166069330Y-88399119D01*
X166068181Y-88401417D01*
X166068181Y-88404864D01*
X166069330Y-88407162D01*
X166070479Y-88408311D01*
X166072777Y-88409460D01*
X166081970Y-88409460D01*
X166049796Y-88408311D02*
X166046349Y-88409460D01*
X166045200Y-88410610D01*
X166044051Y-88412908D01*
X166044051Y-88416355D01*
X166045200Y-88418653D01*
X166046349Y-88419802D01*
X166048647Y-88420951D01*
X166057840Y-88420951D01*
X166057840Y-88396821D01*
X166049796Y-88396821D01*
X166047498Y-88397970D01*
X166046349Y-88399119D01*
X166045200Y-88401417D01*
X166045200Y-88403715D01*
X166046349Y-88406013D01*
X166047498Y-88407162D01*
X166049796Y-88408311D01*
X166057840Y-88408311D01*
X166034859Y-88399119D02*
X166033710Y-88397970D01*
X166031412Y-88396821D01*
X166025666Y-88396821D01*
X166023368Y-88397970D01*
X166022219Y-88399119D01*
X166021070Y-88401417D01*
X166021070Y-88403715D01*
X166022219Y-88407162D01*
X166036008Y-88420951D01*
X166021070Y-88420951D01*
X166009580Y-88419802D02*
X166009580Y-88420951D01*
X166010729Y-88423249D01*
X166011878Y-88424398D01*
X165987748Y-88396821D02*
X165999239Y-88396821D01*
X166000388Y-88408311D01*
X165999239Y-88407162D01*
X165996941Y-88406013D01*
X165991195Y-88406013D01*
X165988897Y-88407162D01*
X165987748Y-88408311D01*
X165986599Y-88410610D01*
X165986599Y-88416355D01*
X165987748Y-88418653D01*
X165988897Y-88419802D01*
X165991195Y-88420951D01*
X165996941Y-88420951D01*
X165999239Y-88419802D01*
X166000388Y-88418653D01*
X165965916Y-88404864D02*
X165965916Y-88420951D01*
X165971662Y-88395672D02*
X165977407Y-88412908D01*
X165962469Y-88412908D01*
D11*
X204374095Y-120991848D02*
X203971929Y-122198348D01*
X203569762Y-120991848D01*
X202478167Y-122083443D02*
X202535619Y-122140895D01*
X202707976Y-122198348D01*
X202822881Y-122198348D01*
X202995238Y-122140895D01*
X203110143Y-122025990D01*
X203167595Y-121911086D01*
X203225047Y-121681276D01*
X203225047Y-121508919D01*
X203167595Y-121279110D01*
X203110143Y-121164205D01*
X202995238Y-121049300D01*
X202822881Y-120991848D01*
X202707976Y-120991848D01*
X202535619Y-121049300D01*
X202478167Y-121106752D01*
X201271667Y-122083443D02*
X201329119Y-122140895D01*
X201501476Y-122198348D01*
X201616381Y-122198348D01*
X201788738Y-122140895D01*
X201903643Y-122025990D01*
X201961095Y-121911086D01*
X202018547Y-121681276D01*
X202018547Y-121508919D01*
X201961095Y-121279110D01*
X201903643Y-121164205D01*
X201788738Y-121049300D01*
X201616381Y-120991848D01*
X201501476Y-120991848D01*
X201329119Y-121049300D01*
X201271667Y-121106752D01*
X201041857Y-122313252D02*
X200122619Y-122313252D01*
X199145929Y-122083443D02*
X199203381Y-122140895D01*
X199375738Y-122198348D01*
X199490643Y-122198348D01*
X199663000Y-122140895D01*
X199777905Y-122025990D01*
X199835357Y-121911086D01*
X199892809Y-121681276D01*
X199892809Y-121508919D01*
X199835357Y-121279110D01*
X199777905Y-121164205D01*
X199663000Y-121049300D01*
X199490643Y-120991848D01*
X199375738Y-120991848D01*
X199203381Y-121049300D01*
X199145929Y-121106752D01*
X198686309Y-121106752D02*
X198628857Y-121049300D01*
X198513952Y-120991848D01*
X198226690Y-120991848D01*
X198111786Y-121049300D01*
X198054333Y-121106752D01*
X197996881Y-121221657D01*
X197996881Y-121336562D01*
X198054333Y-121508919D01*
X198743762Y-122198348D01*
X197996881Y-122198348D01*
D12*
X204525155Y-121146751D02*
X204525155Y-121122621D01*
X204515962Y-121122621D01*
X204513664Y-121123770D01*
X204512515Y-121124919D01*
X204511366Y-121127217D01*
X204511366Y-121130664D01*
X204512515Y-121132962D01*
X204513664Y-121134111D01*
X204515962Y-121135260D01*
X204525155Y-121135260D01*
X204504472Y-121122621D02*
X204490683Y-121122621D01*
X204497578Y-121146751D02*
X204497578Y-121122621D01*
X204468851Y-121146751D02*
X204476895Y-121135260D01*
X204482640Y-121146751D02*
X204482640Y-121122621D01*
X204473447Y-121122621D01*
X204471149Y-121123770D01*
X204470000Y-121124919D01*
X204468851Y-121127217D01*
X204468851Y-121130664D01*
X204470000Y-121132962D01*
X204471149Y-121134111D01*
X204473447Y-121135260D01*
X204482640Y-121135260D01*
X204445870Y-121146751D02*
X204459659Y-121146751D01*
X204452765Y-121146751D02*
X204452765Y-121122621D01*
X204455063Y-121126068D01*
X204457361Y-121128366D01*
X204459659Y-121129515D01*
X204438976Y-121122621D02*
X204425187Y-121122621D01*
X204432082Y-121146751D02*
X204432082Y-121122621D01*
X204417144Y-121146751D02*
X204417144Y-121122621D01*
X204407951Y-121122621D01*
X204405653Y-121123770D01*
X204404504Y-121124919D01*
X204403355Y-121127217D01*
X204403355Y-121130664D01*
X204404504Y-121132962D01*
X204405653Y-121134111D01*
X204407951Y-121135260D01*
X204417144Y-121135260D01*
X204380374Y-121146751D02*
X204394163Y-121146751D01*
X204387269Y-121146751D02*
X204387269Y-121122621D01*
X204389567Y-121126068D01*
X204391865Y-121128366D01*
X204394163Y-121129515D01*
X204357393Y-121146751D02*
X204371182Y-121146751D01*
X204364288Y-121146751D02*
X204364288Y-121122621D01*
X204366586Y-121126068D01*
X204368884Y-121128366D01*
X204371182Y-121129515D01*
X204333263Y-121146751D02*
X204341307Y-121135260D01*
X204347052Y-121146751D02*
X204347052Y-121122621D01*
X204337859Y-121122621D01*
X204335561Y-121123770D01*
X204334412Y-121124919D01*
X204333263Y-121127217D01*
X204333263Y-121130664D01*
X204334412Y-121132962D01*
X204335561Y-121134111D01*
X204337859Y-121135260D01*
X204347052Y-121135260D01*
X170198802Y-92274821D02*
X170185013Y-92274821D01*
X170191908Y-92298951D02*
X170191908Y-92274821D01*
X170176970Y-92298951D02*
X170176970Y-92274821D01*
X170167777Y-92274821D01*
X170165479Y-92275970D01*
X170164330Y-92277119D01*
X170163181Y-92279417D01*
X170163181Y-92282864D01*
X170164330Y-92285162D01*
X170165479Y-92286311D01*
X170167777Y-92287460D01*
X170176970Y-92287460D01*
X170144796Y-92286311D02*
X170141349Y-92287460D01*
X170140200Y-92288610D01*
X170139051Y-92290908D01*
X170139051Y-92294355D01*
X170140200Y-92296653D01*
X170141349Y-92297802D01*
X170143647Y-92298951D01*
X170152840Y-92298951D01*
X170152840Y-92274821D01*
X170144796Y-92274821D01*
X170142498Y-92275970D01*
X170141349Y-92277119D01*
X170140200Y-92279417D01*
X170140200Y-92281715D01*
X170141349Y-92284013D01*
X170142498Y-92285162D01*
X170144796Y-92286311D01*
X170152840Y-92286311D01*
X170129859Y-92277119D02*
X170128710Y-92275970D01*
X170126412Y-92274821D01*
X170120666Y-92274821D01*
X170118368Y-92275970D01*
X170117219Y-92277119D01*
X170116070Y-92279417D01*
X170116070Y-92281715D01*
X170117219Y-92285162D01*
X170131008Y-92298951D01*
X170116070Y-92298951D01*
X170104580Y-92297802D02*
X170104580Y-92298951D01*
X170105729Y-92301249D01*
X170106878Y-92302398D01*
X170082748Y-92274821D02*
X170094239Y-92274821D01*
X170095388Y-92286311D01*
X170094239Y-92285162D01*
X170091941Y-92284013D01*
X170086195Y-92284013D01*
X170083897Y-92285162D01*
X170082748Y-92286311D01*
X170081599Y-92288610D01*
X170081599Y-92294355D01*
X170082748Y-92296653D01*
X170083897Y-92297802D01*
X170086195Y-92298951D01*
X170091941Y-92298951D01*
X170094239Y-92297802D01*
X170095388Y-92296653D01*
X170060916Y-92282864D02*
X170060916Y-92298951D01*
X170066662Y-92273672D02*
X170072407Y-92290908D01*
X170057469Y-92290908D01*
X186229802Y-108242821D02*
X186216013Y-108242821D01*
X186222908Y-108266951D02*
X186222908Y-108242821D01*
X186207970Y-108266951D02*
X186207970Y-108242821D01*
X186198777Y-108242821D01*
X186196479Y-108243970D01*
X186195330Y-108245119D01*
X186194181Y-108247417D01*
X186194181Y-108250864D01*
X186195330Y-108253162D01*
X186196479Y-108254311D01*
X186198777Y-108255460D01*
X186207970Y-108255460D01*
X186175796Y-108254311D02*
X186172349Y-108255460D01*
X186171200Y-108256610D01*
X186170051Y-108258908D01*
X186170051Y-108262355D01*
X186171200Y-108264653D01*
X186172349Y-108265802D01*
X186174647Y-108266951D01*
X186183840Y-108266951D01*
X186183840Y-108242821D01*
X186175796Y-108242821D01*
X186173498Y-108243970D01*
X186172349Y-108245119D01*
X186171200Y-108247417D01*
X186171200Y-108249715D01*
X186172349Y-108252013D01*
X186173498Y-108253162D01*
X186175796Y-108254311D01*
X186183840Y-108254311D01*
X186160859Y-108245119D02*
X186159710Y-108243970D01*
X186157412Y-108242821D01*
X186151666Y-108242821D01*
X186149368Y-108243970D01*
X186148219Y-108245119D01*
X186147070Y-108247417D01*
X186147070Y-108249715D01*
X186148219Y-108253162D01*
X186162008Y-108266951D01*
X186147070Y-108266951D01*
X186135580Y-108265802D02*
X186135580Y-108266951D01*
X186136729Y-108269249D01*
X186137878Y-108270398D01*
X186113748Y-108242821D02*
X186125239Y-108242821D01*
X186126388Y-108254311D01*
X186125239Y-108253162D01*
X186122941Y-108252013D01*
X186117195Y-108252013D01*
X186114897Y-108253162D01*
X186113748Y-108254311D01*
X186112599Y-108256610D01*
X186112599Y-108262355D01*
X186113748Y-108264653D01*
X186114897Y-108265802D01*
X186117195Y-108266951D01*
X186122941Y-108266951D01*
X186125239Y-108265802D01*
X186126388Y-108264653D01*
X186091916Y-108250864D02*
X186091916Y-108266951D01*
X186097662Y-108241672D02*
X186103407Y-108258908D01*
X186088469Y-108258908D01*
X194107802Y-116188821D02*
X194094013Y-116188821D01*
X194100908Y-116212951D02*
X194100908Y-116188821D01*
X194085970Y-116212951D02*
X194085970Y-116188821D01*
X194076777Y-116188821D01*
X194074479Y-116189970D01*
X194073330Y-116191119D01*
X194072181Y-116193417D01*
X194072181Y-116196864D01*
X194073330Y-116199162D01*
X194074479Y-116200311D01*
X194076777Y-116201460D01*
X194085970Y-116201460D01*
X194053796Y-116200311D02*
X194050349Y-116201460D01*
X194049200Y-116202610D01*
X194048051Y-116204908D01*
X194048051Y-116208355D01*
X194049200Y-116210653D01*
X194050349Y-116211802D01*
X194052647Y-116212951D01*
X194061840Y-116212951D01*
X194061840Y-116188821D01*
X194053796Y-116188821D01*
X194051498Y-116189970D01*
X194050349Y-116191119D01*
X194049200Y-116193417D01*
X194049200Y-116195715D01*
X194050349Y-116198013D01*
X194051498Y-116199162D01*
X194053796Y-116200311D01*
X194061840Y-116200311D01*
X194038859Y-116191119D02*
X194037710Y-116189970D01*
X194035412Y-116188821D01*
X194029666Y-116188821D01*
X194027368Y-116189970D01*
X194026219Y-116191119D01*
X194025070Y-116193417D01*
X194025070Y-116195715D01*
X194026219Y-116199162D01*
X194040008Y-116212951D01*
X194025070Y-116212951D01*
X194013580Y-116211802D02*
X194013580Y-116212951D01*
X194014729Y-116215249D01*
X194015878Y-116216398D01*
X193991748Y-116188821D02*
X194003239Y-116188821D01*
X194004388Y-116200311D01*
X194003239Y-116199162D01*
X194000941Y-116198013D01*
X193995195Y-116198013D01*
X193992897Y-116199162D01*
X193991748Y-116200311D01*
X193990599Y-116202610D01*
X193990599Y-116208355D01*
X193991748Y-116210653D01*
X193992897Y-116211802D01*
X193995195Y-116212951D01*
X194000941Y-116212951D01*
X194003239Y-116211802D01*
X194004388Y-116210653D01*
X193969916Y-116196864D02*
X193969916Y-116212951D01*
X193975662Y-116187672D02*
X193981407Y-116204908D01*
X193966469Y-116204908D01*
X162216802Y-84238821D02*
X162203013Y-84238821D01*
X162209908Y-84262951D02*
X162209908Y-84238821D01*
X162194970Y-84262951D02*
X162194970Y-84238821D01*
X162185777Y-84238821D01*
X162183479Y-84239970D01*
X162182330Y-84241119D01*
X162181181Y-84243417D01*
X162181181Y-84246864D01*
X162182330Y-84249162D01*
X162183479Y-84250311D01*
X162185777Y-84251460D01*
X162194970Y-84251460D01*
X162162796Y-84250311D02*
X162159349Y-84251460D01*
X162158200Y-84252610D01*
X162157051Y-84254908D01*
X162157051Y-84258355D01*
X162158200Y-84260653D01*
X162159349Y-84261802D01*
X162161647Y-84262951D01*
X162170840Y-84262951D01*
X162170840Y-84238821D01*
X162162796Y-84238821D01*
X162160498Y-84239970D01*
X162159349Y-84241119D01*
X162158200Y-84243417D01*
X162158200Y-84245715D01*
X162159349Y-84248013D01*
X162160498Y-84249162D01*
X162162796Y-84250311D01*
X162170840Y-84250311D01*
X162147859Y-84241119D02*
X162146710Y-84239970D01*
X162144412Y-84238821D01*
X162138666Y-84238821D01*
X162136368Y-84239970D01*
X162135219Y-84241119D01*
X162134070Y-84243417D01*
X162134070Y-84245715D01*
X162135219Y-84249162D01*
X162149008Y-84262951D01*
X162134070Y-84262951D01*
X162122580Y-84261802D02*
X162122580Y-84262951D01*
X162123729Y-84265249D01*
X162124878Y-84266398D01*
X162100748Y-84238821D02*
X162112239Y-84238821D01*
X162113388Y-84250311D01*
X162112239Y-84249162D01*
X162109941Y-84248013D01*
X162104195Y-84248013D01*
X162101897Y-84249162D01*
X162100748Y-84250311D01*
X162099599Y-84252610D01*
X162099599Y-84258355D01*
X162100748Y-84260653D01*
X162101897Y-84261802D01*
X162104195Y-84262951D01*
X162109941Y-84262951D01*
X162112239Y-84261802D01*
X162113388Y-84260653D01*
X162078916Y-84246864D02*
X162078916Y-84262951D01*
X162084662Y-84237672D02*
X162090407Y-84254908D01*
X162075469Y-84254908D01*
D11*
X203639310Y-82561043D02*
X203696762Y-82618495D01*
X203869119Y-82675948D01*
X203984024Y-82675948D01*
X204156381Y-82618495D01*
X204271286Y-82503590D01*
X204328738Y-82388686D01*
X204386190Y-82158876D01*
X204386190Y-81986519D01*
X204328738Y-81756710D01*
X204271286Y-81641805D01*
X204156381Y-81526900D01*
X203984024Y-81469448D01*
X203869119Y-81469448D01*
X203696762Y-81526900D01*
X203639310Y-81584352D01*
X203179690Y-82331233D02*
X202605167Y-82331233D01*
X203294595Y-82675948D02*
X202892429Y-81469448D01*
X202490262Y-82675948D01*
X202088095Y-82675948D02*
X202088095Y-81469448D01*
X201398667Y-82675948D01*
X201398667Y-81469448D01*
X200824143Y-82675948D02*
X200824143Y-81469448D01*
X200824143Y-82043971D02*
X200134715Y-82043971D01*
X200134715Y-82675948D02*
X200134715Y-81469448D01*
X199847453Y-82790852D02*
X198928215Y-82790852D01*
X197951525Y-82561043D02*
X198008977Y-82618495D01*
X198181334Y-82675948D01*
X198296239Y-82675948D01*
X198468596Y-82618495D01*
X198583501Y-82503590D01*
X198640953Y-82388686D01*
X198698405Y-82158876D01*
X198698405Y-81986519D01*
X198640953Y-81756710D01*
X198583501Y-81641805D01*
X198468596Y-81526900D01*
X198296239Y-81469448D01*
X198181334Y-81469448D01*
X198008977Y-81526900D01*
X197951525Y-81584352D01*
X197491905Y-81584352D02*
X197434453Y-81526900D01*
X197319548Y-81469448D01*
X197032286Y-81469448D01*
X196917382Y-81526900D01*
X196859929Y-81584352D01*
X196802477Y-81699257D01*
X196802477Y-81814162D01*
X196859929Y-81986519D01*
X197549358Y-82675948D01*
X196802477Y-82675948D01*
D12*
X204652155Y-81624351D02*
X204652155Y-81600221D01*
X204642962Y-81600221D01*
X204640664Y-81601370D01*
X204639515Y-81602519D01*
X204638366Y-81604817D01*
X204638366Y-81608264D01*
X204639515Y-81610562D01*
X204640664Y-81611711D01*
X204642962Y-81612860D01*
X204652155Y-81612860D01*
X204631472Y-81600221D02*
X204617683Y-81600221D01*
X204624578Y-81624351D02*
X204624578Y-81600221D01*
X204595851Y-81624351D02*
X204603895Y-81612860D01*
X204609640Y-81624351D02*
X204609640Y-81600221D01*
X204600447Y-81600221D01*
X204598149Y-81601370D01*
X204597000Y-81602519D01*
X204595851Y-81604817D01*
X204595851Y-81608264D01*
X204597000Y-81610562D01*
X204598149Y-81611711D01*
X204600447Y-81612860D01*
X204609640Y-81612860D01*
X204572870Y-81624351D02*
X204586659Y-81624351D01*
X204579765Y-81624351D02*
X204579765Y-81600221D01*
X204582063Y-81603668D01*
X204584361Y-81605966D01*
X204586659Y-81607115D01*
X204565976Y-81600221D02*
X204552187Y-81600221D01*
X204559082Y-81624351D02*
X204559082Y-81600221D01*
X204544144Y-81624351D02*
X204544144Y-81600221D01*
X204534951Y-81600221D01*
X204532653Y-81601370D01*
X204531504Y-81602519D01*
X204530355Y-81604817D01*
X204530355Y-81608264D01*
X204531504Y-81610562D01*
X204532653Y-81611711D01*
X204534951Y-81612860D01*
X204544144Y-81612860D01*
X204507374Y-81624351D02*
X204521163Y-81624351D01*
X204514269Y-81624351D02*
X204514269Y-81600221D01*
X204516567Y-81603668D01*
X204518865Y-81605966D01*
X204521163Y-81607115D01*
X204484393Y-81624351D02*
X204498182Y-81624351D01*
X204491288Y-81624351D02*
X204491288Y-81600221D01*
X204493586Y-81603668D01*
X204495884Y-81605966D01*
X204498182Y-81607115D01*
X204460263Y-81624351D02*
X204468307Y-81612860D01*
X204474052Y-81624351D02*
X204474052Y-81600221D01*
X204464859Y-81600221D01*
X204462561Y-81601370D01*
X204461412Y-81602519D01*
X204460263Y-81604817D01*
X204460263Y-81608264D01*
X204461412Y-81610562D01*
X204462561Y-81611711D01*
X204464859Y-81612860D01*
X204474052Y-81612860D01*
D11*
X152710495Y-123100048D02*
X152308329Y-124306548D01*
X151906162Y-123100048D01*
X150814567Y-124191643D02*
X150872019Y-124249095D01*
X151044376Y-124306548D01*
X151159281Y-124306548D01*
X151331638Y-124249095D01*
X151446543Y-124134190D01*
X151503995Y-124019286D01*
X151561447Y-123789476D01*
X151561447Y-123617119D01*
X151503995Y-123387310D01*
X151446543Y-123272405D01*
X151331638Y-123157500D01*
X151159281Y-123100048D01*
X151044376Y-123100048D01*
X150872019Y-123157500D01*
X150814567Y-123214952D01*
X149608067Y-124191643D02*
X149665519Y-124249095D01*
X149837876Y-124306548D01*
X149952781Y-124306548D01*
X150125138Y-124249095D01*
X150240043Y-124134190D01*
X150297495Y-124019286D01*
X150354947Y-123789476D01*
X150354947Y-123617119D01*
X150297495Y-123387310D01*
X150240043Y-123272405D01*
X150125138Y-123157500D01*
X149952781Y-123100048D01*
X149837876Y-123100048D01*
X149665519Y-123157500D01*
X149608067Y-123214952D01*
X149378257Y-124421452D02*
X148459019Y-124421452D01*
X147482329Y-124191643D02*
X147539781Y-124249095D01*
X147712138Y-124306548D01*
X147827043Y-124306548D01*
X147999400Y-124249095D01*
X148114305Y-124134190D01*
X148171757Y-124019286D01*
X148229209Y-123789476D01*
X148229209Y-123617119D01*
X148171757Y-123387310D01*
X148114305Y-123272405D01*
X147999400Y-123157500D01*
X147827043Y-123100048D01*
X147712138Y-123100048D01*
X147539781Y-123157500D01*
X147482329Y-123214952D01*
X147022709Y-123214952D02*
X146965257Y-123157500D01*
X146850352Y-123100048D01*
X146563090Y-123100048D01*
X146448186Y-123157500D01*
X146390733Y-123214952D01*
X146333281Y-123329857D01*
X146333281Y-123444762D01*
X146390733Y-123617119D01*
X147080162Y-124306548D01*
X146333281Y-124306548D01*
X146103471Y-124421452D02*
X145184233Y-124421452D01*
X144207543Y-124191643D02*
X144264995Y-124249095D01*
X144437352Y-124306548D01*
X144552257Y-124306548D01*
X144724614Y-124249095D01*
X144839519Y-124134190D01*
X144896971Y-124019286D01*
X144954423Y-123789476D01*
X144954423Y-123617119D01*
X144896971Y-123387310D01*
X144839519Y-123272405D01*
X144724614Y-123157500D01*
X144552257Y-123100048D01*
X144437352Y-123100048D01*
X144264995Y-123157500D01*
X144207543Y-123214952D01*
X143805376Y-123100048D02*
X143058495Y-123100048D01*
X143460662Y-123559667D01*
X143288304Y-123559667D01*
X143173400Y-123617119D01*
X143115947Y-123674571D01*
X143058495Y-123789476D01*
X143058495Y-124076738D01*
X143115947Y-124191643D01*
X143173400Y-124249095D01*
X143288304Y-124306548D01*
X143633019Y-124306548D01*
X143747923Y-124249095D01*
X143805376Y-124191643D01*
D12*
X152861555Y-123254951D02*
X152861555Y-123230821D01*
X152852362Y-123230821D01*
X152850064Y-123231970D01*
X152848915Y-123233119D01*
X152847766Y-123235417D01*
X152847766Y-123238864D01*
X152848915Y-123241162D01*
X152850064Y-123242311D01*
X152852362Y-123243460D01*
X152861555Y-123243460D01*
X152840872Y-123230821D02*
X152827083Y-123230821D01*
X152833978Y-123254951D02*
X152833978Y-123230821D01*
X152805251Y-123254951D02*
X152813295Y-123243460D01*
X152819040Y-123254951D02*
X152819040Y-123230821D01*
X152809847Y-123230821D01*
X152807549Y-123231970D01*
X152806400Y-123233119D01*
X152805251Y-123235417D01*
X152805251Y-123238864D01*
X152806400Y-123241162D01*
X152807549Y-123242311D01*
X152809847Y-123243460D01*
X152819040Y-123243460D01*
X152782270Y-123254951D02*
X152796059Y-123254951D01*
X152789165Y-123254951D02*
X152789165Y-123230821D01*
X152791463Y-123234268D01*
X152793761Y-123236566D01*
X152796059Y-123237715D01*
X152775376Y-123230821D02*
X152761587Y-123230821D01*
X152768482Y-123254951D02*
X152768482Y-123230821D01*
X152753544Y-123254951D02*
X152753544Y-123230821D01*
X152744351Y-123230821D01*
X152742053Y-123231970D01*
X152740904Y-123233119D01*
X152739755Y-123235417D01*
X152739755Y-123238864D01*
X152740904Y-123241162D01*
X152742053Y-123242311D01*
X152744351Y-123243460D01*
X152753544Y-123243460D01*
X152716774Y-123254951D02*
X152730563Y-123254951D01*
X152723669Y-123254951D02*
X152723669Y-123230821D01*
X152725967Y-123234268D01*
X152728265Y-123236566D01*
X152730563Y-123237715D01*
X152693793Y-123254951D02*
X152707582Y-123254951D01*
X152700688Y-123254951D02*
X152700688Y-123230821D01*
X152702986Y-123234268D01*
X152705284Y-123236566D01*
X152707582Y-123237715D01*
X152669663Y-123254951D02*
X152677707Y-123243460D01*
X152683452Y-123254951D02*
X152683452Y-123230821D01*
X152674259Y-123230821D01*
X152671961Y-123231970D01*
X152670812Y-123233119D01*
X152669663Y-123235417D01*
X152669663Y-123238864D01*
X152670812Y-123241162D01*
X152671961Y-123242311D01*
X152674259Y-123243460D01*
X152683452Y-123243460D01*
D11*
X151874110Y-81646643D02*
X151931562Y-81704095D01*
X152103919Y-81761548D01*
X152218824Y-81761548D01*
X152391181Y-81704095D01*
X152506086Y-81589190D01*
X152563538Y-81474286D01*
X152620990Y-81244476D01*
X152620990Y-81072119D01*
X152563538Y-80842310D01*
X152506086Y-80727405D01*
X152391181Y-80612500D01*
X152218824Y-80555048D01*
X152103919Y-80555048D01*
X151931562Y-80612500D01*
X151874110Y-80669952D01*
X151414490Y-81416833D02*
X150839967Y-81416833D01*
X151529395Y-81761548D02*
X151127229Y-80555048D01*
X150725062Y-81761548D01*
X150322895Y-81761548D02*
X150322895Y-80555048D01*
X149633467Y-81761548D01*
X149633467Y-80555048D01*
X149058943Y-81761548D02*
X149058943Y-80555048D01*
X149058943Y-81129571D02*
X148369515Y-81129571D01*
X148369515Y-81761548D02*
X148369515Y-80555048D01*
X148082253Y-81876452D02*
X147163015Y-81876452D01*
X146186325Y-81646643D02*
X146243777Y-81704095D01*
X146416134Y-81761548D01*
X146531039Y-81761548D01*
X146703396Y-81704095D01*
X146818301Y-81589190D01*
X146875753Y-81474286D01*
X146933205Y-81244476D01*
X146933205Y-81072119D01*
X146875753Y-80842310D01*
X146818301Y-80727405D01*
X146703396Y-80612500D01*
X146531039Y-80555048D01*
X146416134Y-80555048D01*
X146243777Y-80612500D01*
X146186325Y-80669952D01*
X145726705Y-80669952D02*
X145669253Y-80612500D01*
X145554348Y-80555048D01*
X145267086Y-80555048D01*
X145152182Y-80612500D01*
X145094729Y-80669952D01*
X145037277Y-80784857D01*
X145037277Y-80899762D01*
X145094729Y-81072119D01*
X145784158Y-81761548D01*
X145037277Y-81761548D01*
X144807467Y-81876452D02*
X143888229Y-81876452D01*
X142911539Y-81646643D02*
X142968991Y-81704095D01*
X143141348Y-81761548D01*
X143256253Y-81761548D01*
X143428610Y-81704095D01*
X143543515Y-81589190D01*
X143600967Y-81474286D01*
X143658419Y-81244476D01*
X143658419Y-81072119D01*
X143600967Y-80842310D01*
X143543515Y-80727405D01*
X143428610Y-80612500D01*
X143256253Y-80555048D01*
X143141348Y-80555048D01*
X142968991Y-80612500D01*
X142911539Y-80669952D01*
X142509372Y-80555048D02*
X141762491Y-80555048D01*
X142164658Y-81014667D01*
X141992300Y-81014667D01*
X141877396Y-81072119D01*
X141819943Y-81129571D01*
X141762491Y-81244476D01*
X141762491Y-81531738D01*
X141819943Y-81646643D01*
X141877396Y-81704095D01*
X141992300Y-81761548D01*
X142337015Y-81761548D01*
X142451919Y-81704095D01*
X142509372Y-81646643D01*
D12*
X152886955Y-80709951D02*
X152886955Y-80685821D01*
X152877762Y-80685821D01*
X152875464Y-80686970D01*
X152874315Y-80688119D01*
X152873166Y-80690417D01*
X152873166Y-80693864D01*
X152874315Y-80696162D01*
X152875464Y-80697311D01*
X152877762Y-80698460D01*
X152886955Y-80698460D01*
X152866272Y-80685821D02*
X152852483Y-80685821D01*
X152859378Y-80709951D02*
X152859378Y-80685821D01*
X152830651Y-80709951D02*
X152838695Y-80698460D01*
X152844440Y-80709951D02*
X152844440Y-80685821D01*
X152835247Y-80685821D01*
X152832949Y-80686970D01*
X152831800Y-80688119D01*
X152830651Y-80690417D01*
X152830651Y-80693864D01*
X152831800Y-80696162D01*
X152832949Y-80697311D01*
X152835247Y-80698460D01*
X152844440Y-80698460D01*
X152807670Y-80709951D02*
X152821459Y-80709951D01*
X152814565Y-80709951D02*
X152814565Y-80685821D01*
X152816863Y-80689268D01*
X152819161Y-80691566D01*
X152821459Y-80692715D01*
X152800776Y-80685821D02*
X152786987Y-80685821D01*
X152793882Y-80709951D02*
X152793882Y-80685821D01*
X152778944Y-80709951D02*
X152778944Y-80685821D01*
X152769751Y-80685821D01*
X152767453Y-80686970D01*
X152766304Y-80688119D01*
X152765155Y-80690417D01*
X152765155Y-80693864D01*
X152766304Y-80696162D01*
X152767453Y-80697311D01*
X152769751Y-80698460D01*
X152778944Y-80698460D01*
X152742174Y-80709951D02*
X152755963Y-80709951D01*
X152749069Y-80709951D02*
X152749069Y-80685821D01*
X152751367Y-80689268D01*
X152753665Y-80691566D01*
X152755963Y-80692715D01*
X152719193Y-80709951D02*
X152732982Y-80709951D01*
X152726088Y-80709951D02*
X152726088Y-80685821D01*
X152728386Y-80689268D01*
X152730684Y-80691566D01*
X152732982Y-80692715D01*
X152695063Y-80709951D02*
X152703107Y-80698460D01*
X152708852Y-80709951D02*
X152708852Y-80685821D01*
X152699659Y-80685821D01*
X152697361Y-80686970D01*
X152696212Y-80688119D01*
X152695063Y-80690417D01*
X152695063Y-80693864D01*
X152696212Y-80696162D01*
X152697361Y-80697311D01*
X152699659Y-80698460D01*
X152708852Y-80698460D01*
D11*
X155128938Y-114425948D02*
X155128938Y-113219448D01*
X154726771Y-114081233D01*
X154324605Y-113219448D01*
X154324605Y-114425948D01*
X153750081Y-113793971D02*
X153347914Y-113793971D01*
X153175557Y-114425948D02*
X153750081Y-114425948D01*
X153750081Y-113219448D01*
X153175557Y-113219448D01*
X151969058Y-114311043D02*
X152026510Y-114368495D01*
X152198867Y-114425948D01*
X152313772Y-114425948D01*
X152486129Y-114368495D01*
X152601034Y-114253590D01*
X152658486Y-114138686D01*
X152715938Y-113908876D01*
X152715938Y-113736519D01*
X152658486Y-113506710D01*
X152601034Y-113391805D01*
X152486129Y-113276900D01*
X152313772Y-113219448D01*
X152198867Y-113219448D01*
X152026510Y-113276900D01*
X151969058Y-113334352D01*
X151451986Y-114425948D02*
X151451986Y-113219448D01*
X151451986Y-113793971D02*
X150762558Y-113793971D01*
X150762558Y-114425948D02*
X150762558Y-113219448D01*
X150475296Y-114540852D02*
X149556058Y-114540852D01*
X148694272Y-114425948D02*
X149268796Y-114425948D01*
X149268796Y-113219448D01*
X148292106Y-114425948D02*
X148292106Y-113219448D01*
X147717582Y-114425948D02*
X147717582Y-113219448D01*
X147028154Y-114425948D01*
X147028154Y-113219448D01*
X146453630Y-114425948D02*
X146453630Y-113219448D01*
X145764202Y-114425948D02*
X146281273Y-113736519D01*
X145764202Y-113219448D02*
X146453630Y-113908876D01*
X145534392Y-114540852D02*
X144615154Y-114540852D01*
X143695916Y-114425948D02*
X144385344Y-114425948D01*
X144040630Y-114425948D02*
X144040630Y-113219448D01*
X144155535Y-113391805D01*
X144270440Y-113506710D01*
X144385344Y-113564162D01*
D12*
X155452355Y-113374351D02*
X155452355Y-113350221D01*
X155443162Y-113350221D01*
X155440864Y-113351370D01*
X155439715Y-113352519D01*
X155438566Y-113354817D01*
X155438566Y-113358264D01*
X155439715Y-113360562D01*
X155440864Y-113361711D01*
X155443162Y-113362860D01*
X155452355Y-113362860D01*
X155431672Y-113350221D02*
X155417883Y-113350221D01*
X155424778Y-113374351D02*
X155424778Y-113350221D01*
X155396051Y-113374351D02*
X155404095Y-113362860D01*
X155409840Y-113374351D02*
X155409840Y-113350221D01*
X155400647Y-113350221D01*
X155398349Y-113351370D01*
X155397200Y-113352519D01*
X155396051Y-113354817D01*
X155396051Y-113358264D01*
X155397200Y-113360562D01*
X155398349Y-113361711D01*
X155400647Y-113362860D01*
X155409840Y-113362860D01*
X155373070Y-113374351D02*
X155386859Y-113374351D01*
X155379965Y-113374351D02*
X155379965Y-113350221D01*
X155382263Y-113353668D01*
X155384561Y-113355966D01*
X155386859Y-113357115D01*
X155366176Y-113350221D02*
X155352387Y-113350221D01*
X155359282Y-113374351D02*
X155359282Y-113350221D01*
X155344344Y-113374351D02*
X155344344Y-113350221D01*
X155335151Y-113350221D01*
X155332853Y-113351370D01*
X155331704Y-113352519D01*
X155330555Y-113354817D01*
X155330555Y-113358264D01*
X155331704Y-113360562D01*
X155332853Y-113361711D01*
X155335151Y-113362860D01*
X155344344Y-113362860D01*
X155307574Y-113374351D02*
X155321363Y-113374351D01*
X155314469Y-113374351D02*
X155314469Y-113350221D01*
X155316767Y-113353668D01*
X155319065Y-113355966D01*
X155321363Y-113357115D01*
X155284593Y-113374351D02*
X155298382Y-113374351D01*
X155291488Y-113374351D02*
X155291488Y-113350221D01*
X155293786Y-113353668D01*
X155296084Y-113355966D01*
X155298382Y-113357115D01*
X155260463Y-113374351D02*
X155268507Y-113362860D01*
X155274252Y-113374351D02*
X155274252Y-113350221D01*
X155265059Y-113350221D01*
X155262761Y-113351370D01*
X155261612Y-113352519D01*
X155260463Y-113354817D01*
X155260463Y-113358264D01*
X155261612Y-113360562D01*
X155262761Y-113361711D01*
X155265059Y-113362860D01*
X155274252Y-113362860D01*
D11*
X155205138Y-111809748D02*
X155205138Y-110603248D01*
X154802971Y-111465033D01*
X154400805Y-110603248D01*
X154400805Y-111809748D01*
X153826281Y-111177771D02*
X153424114Y-111177771D01*
X153251757Y-111809748D02*
X153826281Y-111809748D01*
X153826281Y-110603248D01*
X153251757Y-110603248D01*
X152045258Y-111694843D02*
X152102710Y-111752295D01*
X152275067Y-111809748D01*
X152389972Y-111809748D01*
X152562329Y-111752295D01*
X152677234Y-111637390D01*
X152734686Y-111522486D01*
X152792138Y-111292676D01*
X152792138Y-111120319D01*
X152734686Y-110890510D01*
X152677234Y-110775605D01*
X152562329Y-110660700D01*
X152389972Y-110603248D01*
X152275067Y-110603248D01*
X152102710Y-110660700D01*
X152045258Y-110718152D01*
X151528186Y-111809748D02*
X151528186Y-110603248D01*
X151528186Y-111177771D02*
X150838758Y-111177771D01*
X150838758Y-111809748D02*
X150838758Y-110603248D01*
X150551496Y-111924652D02*
X149632258Y-111924652D01*
X148770472Y-111809748D02*
X149344996Y-111809748D01*
X149344996Y-110603248D01*
X148368306Y-111809748D02*
X148368306Y-110603248D01*
X147793782Y-111809748D02*
X147793782Y-110603248D01*
X147104354Y-111809748D01*
X147104354Y-110603248D01*
X146529830Y-111809748D02*
X146529830Y-110603248D01*
X145840402Y-111809748D02*
X146357473Y-111120319D01*
X145840402Y-110603248D02*
X146529830Y-111292676D01*
X145610592Y-111924652D02*
X144691354Y-111924652D01*
X144461544Y-110718152D02*
X144404092Y-110660700D01*
X144289187Y-110603248D01*
X144001925Y-110603248D01*
X143887021Y-110660700D01*
X143829568Y-110718152D01*
X143772116Y-110833057D01*
X143772116Y-110947962D01*
X143829568Y-111120319D01*
X144518997Y-111809748D01*
X143772116Y-111809748D01*
D12*
X155528555Y-110758151D02*
X155528555Y-110734021D01*
X155519362Y-110734021D01*
X155517064Y-110735170D01*
X155515915Y-110736319D01*
X155514766Y-110738617D01*
X155514766Y-110742064D01*
X155515915Y-110744362D01*
X155517064Y-110745511D01*
X155519362Y-110746660D01*
X155528555Y-110746660D01*
X155507872Y-110734021D02*
X155494083Y-110734021D01*
X155500978Y-110758151D02*
X155500978Y-110734021D01*
X155472251Y-110758151D02*
X155480295Y-110746660D01*
X155486040Y-110758151D02*
X155486040Y-110734021D01*
X155476847Y-110734021D01*
X155474549Y-110735170D01*
X155473400Y-110736319D01*
X155472251Y-110738617D01*
X155472251Y-110742064D01*
X155473400Y-110744362D01*
X155474549Y-110745511D01*
X155476847Y-110746660D01*
X155486040Y-110746660D01*
X155449270Y-110758151D02*
X155463059Y-110758151D01*
X155456165Y-110758151D02*
X155456165Y-110734021D01*
X155458463Y-110737468D01*
X155460761Y-110739766D01*
X155463059Y-110740915D01*
X155442376Y-110734021D02*
X155428587Y-110734021D01*
X155435482Y-110758151D02*
X155435482Y-110734021D01*
X155420544Y-110758151D02*
X155420544Y-110734021D01*
X155411351Y-110734021D01*
X155409053Y-110735170D01*
X155407904Y-110736319D01*
X155406755Y-110738617D01*
X155406755Y-110742064D01*
X155407904Y-110744362D01*
X155409053Y-110745511D01*
X155411351Y-110746660D01*
X155420544Y-110746660D01*
X155383774Y-110758151D02*
X155397563Y-110758151D01*
X155390669Y-110758151D02*
X155390669Y-110734021D01*
X155392967Y-110737468D01*
X155395265Y-110739766D01*
X155397563Y-110740915D01*
X155360793Y-110758151D02*
X155374582Y-110758151D01*
X155367688Y-110758151D02*
X155367688Y-110734021D01*
X155369986Y-110737468D01*
X155372284Y-110739766D01*
X155374582Y-110740915D01*
X155336663Y-110758151D02*
X155344707Y-110746660D01*
X155350452Y-110758151D02*
X155350452Y-110734021D01*
X155341259Y-110734021D01*
X155338961Y-110735170D01*
X155337812Y-110736319D01*
X155336663Y-110738617D01*
X155336663Y-110742064D01*
X155337812Y-110744362D01*
X155338961Y-110745511D01*
X155341259Y-110746660D01*
X155350452Y-110746660D01*
D11*
X155179738Y-103910348D02*
X155179738Y-102703848D01*
X154777571Y-103565633D01*
X154375405Y-102703848D01*
X154375405Y-103910348D01*
X153800881Y-103278371D02*
X153398714Y-103278371D01*
X153226357Y-103910348D02*
X153800881Y-103910348D01*
X153800881Y-102703848D01*
X153226357Y-102703848D01*
X152019858Y-103795443D02*
X152077310Y-103852895D01*
X152249667Y-103910348D01*
X152364572Y-103910348D01*
X152536929Y-103852895D01*
X152651834Y-103737990D01*
X152709286Y-103623086D01*
X152766738Y-103393276D01*
X152766738Y-103220919D01*
X152709286Y-102991110D01*
X152651834Y-102876205D01*
X152536929Y-102761300D01*
X152364572Y-102703848D01*
X152249667Y-102703848D01*
X152077310Y-102761300D01*
X152019858Y-102818752D01*
X151502786Y-103910348D02*
X151502786Y-102703848D01*
X151502786Y-103278371D02*
X150813358Y-103278371D01*
X150813358Y-103910348D02*
X150813358Y-102703848D01*
X150526096Y-104025252D02*
X149606858Y-104025252D01*
X148745072Y-103910348D02*
X149319596Y-103910348D01*
X149319596Y-102703848D01*
X148342906Y-103910348D02*
X148342906Y-102703848D01*
X147768382Y-103910348D02*
X147768382Y-102703848D01*
X147078954Y-103910348D01*
X147078954Y-102703848D01*
X146504430Y-103910348D02*
X146504430Y-102703848D01*
X145815002Y-103910348D02*
X146332073Y-103220919D01*
X145815002Y-102703848D02*
X146504430Y-103393276D01*
X145585192Y-104025252D02*
X144665954Y-104025252D01*
X144493597Y-102703848D02*
X143746716Y-102703848D01*
X144148883Y-103163467D01*
X143976525Y-103163467D01*
X143861621Y-103220919D01*
X143804168Y-103278371D01*
X143746716Y-103393276D01*
X143746716Y-103680538D01*
X143804168Y-103795443D01*
X143861621Y-103852895D01*
X143976525Y-103910348D01*
X144321240Y-103910348D01*
X144436144Y-103852895D01*
X144493597Y-103795443D01*
D12*
X155503155Y-102858751D02*
X155503155Y-102834621D01*
X155493962Y-102834621D01*
X155491664Y-102835770D01*
X155490515Y-102836919D01*
X155489366Y-102839217D01*
X155489366Y-102842664D01*
X155490515Y-102844962D01*
X155491664Y-102846111D01*
X155493962Y-102847260D01*
X155503155Y-102847260D01*
X155482472Y-102834621D02*
X155468683Y-102834621D01*
X155475578Y-102858751D02*
X155475578Y-102834621D01*
X155446851Y-102858751D02*
X155454895Y-102847260D01*
X155460640Y-102858751D02*
X155460640Y-102834621D01*
X155451447Y-102834621D01*
X155449149Y-102835770D01*
X155448000Y-102836919D01*
X155446851Y-102839217D01*
X155446851Y-102842664D01*
X155448000Y-102844962D01*
X155449149Y-102846111D01*
X155451447Y-102847260D01*
X155460640Y-102847260D01*
X155423870Y-102858751D02*
X155437659Y-102858751D01*
X155430765Y-102858751D02*
X155430765Y-102834621D01*
X155433063Y-102838068D01*
X155435361Y-102840366D01*
X155437659Y-102841515D01*
X155416976Y-102834621D02*
X155403187Y-102834621D01*
X155410082Y-102858751D02*
X155410082Y-102834621D01*
X155395144Y-102858751D02*
X155395144Y-102834621D01*
X155385951Y-102834621D01*
X155383653Y-102835770D01*
X155382504Y-102836919D01*
X155381355Y-102839217D01*
X155381355Y-102842664D01*
X155382504Y-102844962D01*
X155383653Y-102846111D01*
X155385951Y-102847260D01*
X155395144Y-102847260D01*
X155358374Y-102858751D02*
X155372163Y-102858751D01*
X155365269Y-102858751D02*
X155365269Y-102834621D01*
X155367567Y-102838068D01*
X155369865Y-102840366D01*
X155372163Y-102841515D01*
X155335393Y-102858751D02*
X155349182Y-102858751D01*
X155342288Y-102858751D02*
X155342288Y-102834621D01*
X155344586Y-102838068D01*
X155346884Y-102840366D01*
X155349182Y-102841515D01*
X155311263Y-102858751D02*
X155319307Y-102847260D01*
X155325052Y-102858751D02*
X155325052Y-102834621D01*
X155315859Y-102834621D01*
X155313561Y-102835770D01*
X155312412Y-102836919D01*
X155311263Y-102839217D01*
X155311263Y-102842664D01*
X155312412Y-102844962D01*
X155313561Y-102846111D01*
X155315859Y-102847260D01*
X155325052Y-102847260D01*
D11*
X155027338Y-95782348D02*
X155027338Y-94575848D01*
X154625171Y-95437633D01*
X154223005Y-94575848D01*
X154223005Y-95782348D01*
X153648481Y-95150371D02*
X153246314Y-95150371D01*
X153073957Y-95782348D02*
X153648481Y-95782348D01*
X153648481Y-94575848D01*
X153073957Y-94575848D01*
X151867458Y-95667443D02*
X151924910Y-95724895D01*
X152097267Y-95782348D01*
X152212172Y-95782348D01*
X152384529Y-95724895D01*
X152499434Y-95609990D01*
X152556886Y-95495086D01*
X152614338Y-95265276D01*
X152614338Y-95092919D01*
X152556886Y-94863110D01*
X152499434Y-94748205D01*
X152384529Y-94633300D01*
X152212172Y-94575848D01*
X152097267Y-94575848D01*
X151924910Y-94633300D01*
X151867458Y-94690752D01*
X151350386Y-95782348D02*
X151350386Y-94575848D01*
X151350386Y-95150371D02*
X150660958Y-95150371D01*
X150660958Y-95782348D02*
X150660958Y-94575848D01*
X150373696Y-95897252D02*
X149454458Y-95897252D01*
X148592672Y-95782348D02*
X149167196Y-95782348D01*
X149167196Y-94575848D01*
X148190506Y-95782348D02*
X148190506Y-94575848D01*
X147615982Y-95782348D02*
X147615982Y-94575848D01*
X146926554Y-95782348D01*
X146926554Y-94575848D01*
X146352030Y-95782348D02*
X146352030Y-94575848D01*
X145662602Y-95782348D02*
X146179673Y-95092919D01*
X145662602Y-94575848D02*
X146352030Y-95265276D01*
X145432792Y-95897252D02*
X144513554Y-95897252D01*
X143709221Y-94978014D02*
X143709221Y-95782348D01*
X143996483Y-94518395D02*
X144283744Y-95380181D01*
X143536864Y-95380181D01*
D12*
X155350755Y-94730751D02*
X155350755Y-94706621D01*
X155341562Y-94706621D01*
X155339264Y-94707770D01*
X155338115Y-94708919D01*
X155336966Y-94711217D01*
X155336966Y-94714664D01*
X155338115Y-94716962D01*
X155339264Y-94718111D01*
X155341562Y-94719260D01*
X155350755Y-94719260D01*
X155330072Y-94706621D02*
X155316283Y-94706621D01*
X155323178Y-94730751D02*
X155323178Y-94706621D01*
X155294451Y-94730751D02*
X155302495Y-94719260D01*
X155308240Y-94730751D02*
X155308240Y-94706621D01*
X155299047Y-94706621D01*
X155296749Y-94707770D01*
X155295600Y-94708919D01*
X155294451Y-94711217D01*
X155294451Y-94714664D01*
X155295600Y-94716962D01*
X155296749Y-94718111D01*
X155299047Y-94719260D01*
X155308240Y-94719260D01*
X155271470Y-94730751D02*
X155285259Y-94730751D01*
X155278365Y-94730751D02*
X155278365Y-94706621D01*
X155280663Y-94710068D01*
X155282961Y-94712366D01*
X155285259Y-94713515D01*
X155264576Y-94706621D02*
X155250787Y-94706621D01*
X155257682Y-94730751D02*
X155257682Y-94706621D01*
X155242744Y-94730751D02*
X155242744Y-94706621D01*
X155233551Y-94706621D01*
X155231253Y-94707770D01*
X155230104Y-94708919D01*
X155228955Y-94711217D01*
X155228955Y-94714664D01*
X155230104Y-94716962D01*
X155231253Y-94718111D01*
X155233551Y-94719260D01*
X155242744Y-94719260D01*
X155205974Y-94730751D02*
X155219763Y-94730751D01*
X155212869Y-94730751D02*
X155212869Y-94706621D01*
X155215167Y-94710068D01*
X155217465Y-94712366D01*
X155219763Y-94713515D01*
X155182993Y-94730751D02*
X155196782Y-94730751D01*
X155189888Y-94730751D02*
X155189888Y-94706621D01*
X155192186Y-94710068D01*
X155194484Y-94712366D01*
X155196782Y-94713515D01*
X155158863Y-94730751D02*
X155166907Y-94719260D01*
X155172652Y-94730751D02*
X155172652Y-94706621D01*
X155163459Y-94706621D01*
X155161161Y-94707770D01*
X155160012Y-94708919D01*
X155158863Y-94711217D01*
X155158863Y-94714664D01*
X155160012Y-94716962D01*
X155161161Y-94718111D01*
X155163459Y-94719260D01*
X155172652Y-94719260D01*
D11*
X155230538Y-87120948D02*
X155230538Y-85914448D01*
X154828371Y-86776233D01*
X154426205Y-85914448D01*
X154426205Y-87120948D01*
X153851681Y-86488971D02*
X153449514Y-86488971D01*
X153277157Y-87120948D02*
X153851681Y-87120948D01*
X153851681Y-85914448D01*
X153277157Y-85914448D01*
X152070658Y-87006043D02*
X152128110Y-87063495D01*
X152300467Y-87120948D01*
X152415372Y-87120948D01*
X152587729Y-87063495D01*
X152702634Y-86948590D01*
X152760086Y-86833686D01*
X152817538Y-86603876D01*
X152817538Y-86431519D01*
X152760086Y-86201710D01*
X152702634Y-86086805D01*
X152587729Y-85971900D01*
X152415372Y-85914448D01*
X152300467Y-85914448D01*
X152128110Y-85971900D01*
X152070658Y-86029352D01*
X151553586Y-87120948D02*
X151553586Y-85914448D01*
X151553586Y-86488971D02*
X150864158Y-86488971D01*
X150864158Y-87120948D02*
X150864158Y-85914448D01*
X150576896Y-87235852D02*
X149657658Y-87235852D01*
X148795872Y-87120948D02*
X149370396Y-87120948D01*
X149370396Y-85914448D01*
X148393706Y-87120948D02*
X148393706Y-85914448D01*
X147819182Y-87120948D02*
X147819182Y-85914448D01*
X147129754Y-87120948D01*
X147129754Y-85914448D01*
X146555230Y-87120948D02*
X146555230Y-85914448D01*
X145865802Y-87120948D02*
X146382873Y-86431519D01*
X145865802Y-85914448D02*
X146555230Y-86603876D01*
X145635992Y-87235852D02*
X144716754Y-87235852D01*
X143854968Y-85914448D02*
X144429492Y-85914448D01*
X144486944Y-86488971D01*
X144429492Y-86431519D01*
X144314587Y-86374067D01*
X144027325Y-86374067D01*
X143912421Y-86431519D01*
X143854968Y-86488971D01*
X143797516Y-86603876D01*
X143797516Y-86891138D01*
X143854968Y-87006043D01*
X143912421Y-87063495D01*
X144027325Y-87120948D01*
X144314587Y-87120948D01*
X144429492Y-87063495D01*
X144486944Y-87006043D01*
D12*
X155553955Y-86069351D02*
X155553955Y-86045221D01*
X155544762Y-86045221D01*
X155542464Y-86046370D01*
X155541315Y-86047519D01*
X155540166Y-86049817D01*
X155540166Y-86053264D01*
X155541315Y-86055562D01*
X155542464Y-86056711D01*
X155544762Y-86057860D01*
X155553955Y-86057860D01*
X155533272Y-86045221D02*
X155519483Y-86045221D01*
X155526378Y-86069351D02*
X155526378Y-86045221D01*
X155497651Y-86069351D02*
X155505695Y-86057860D01*
X155511440Y-86069351D02*
X155511440Y-86045221D01*
X155502247Y-86045221D01*
X155499949Y-86046370D01*
X155498800Y-86047519D01*
X155497651Y-86049817D01*
X155497651Y-86053264D01*
X155498800Y-86055562D01*
X155499949Y-86056711D01*
X155502247Y-86057860D01*
X155511440Y-86057860D01*
X155474670Y-86069351D02*
X155488459Y-86069351D01*
X155481565Y-86069351D02*
X155481565Y-86045221D01*
X155483863Y-86048668D01*
X155486161Y-86050966D01*
X155488459Y-86052115D01*
X155467776Y-86045221D02*
X155453987Y-86045221D01*
X155460882Y-86069351D02*
X155460882Y-86045221D01*
X155445944Y-86069351D02*
X155445944Y-86045221D01*
X155436751Y-86045221D01*
X155434453Y-86046370D01*
X155433304Y-86047519D01*
X155432155Y-86049817D01*
X155432155Y-86053264D01*
X155433304Y-86055562D01*
X155434453Y-86056711D01*
X155436751Y-86057860D01*
X155445944Y-86057860D01*
X155409174Y-86069351D02*
X155422963Y-86069351D01*
X155416069Y-86069351D02*
X155416069Y-86045221D01*
X155418367Y-86048668D01*
X155420665Y-86050966D01*
X155422963Y-86052115D01*
X155386193Y-86069351D02*
X155399982Y-86069351D01*
X155393088Y-86069351D02*
X155393088Y-86045221D01*
X155395386Y-86048668D01*
X155397684Y-86050966D01*
X155399982Y-86052115D01*
X155362063Y-86069351D02*
X155370107Y-86057860D01*
X155375852Y-86069351D02*
X155375852Y-86045221D01*
X155366659Y-86045221D01*
X155364361Y-86046370D01*
X155363212Y-86047519D01*
X155362063Y-86049817D01*
X155362063Y-86053264D01*
X155363212Y-86055562D01*
X155364361Y-86056711D01*
X155366659Y-86057860D01*
X155375852Y-86057860D01*
D11*
X204374095Y-126706848D02*
X203971929Y-127913348D01*
X203569762Y-126706848D01*
X203167595Y-127913348D02*
X203167595Y-126706848D01*
X202880333Y-126706848D01*
X202707976Y-126764300D01*
X202593071Y-126879205D01*
X202535619Y-126994110D01*
X202478167Y-127223919D01*
X202478167Y-127396276D01*
X202535619Y-127626086D01*
X202593071Y-127740990D01*
X202707976Y-127855895D01*
X202880333Y-127913348D01*
X203167595Y-127913348D01*
X201961095Y-127913348D02*
X201961095Y-126706848D01*
X201673833Y-126706848D01*
X201501476Y-126764300D01*
X201386571Y-126879205D01*
X201329119Y-126994110D01*
X201271667Y-127223919D01*
X201271667Y-127396276D01*
X201329119Y-127626086D01*
X201386571Y-127740990D01*
X201501476Y-127855895D01*
X201673833Y-127913348D01*
X201961095Y-127913348D01*
X200754595Y-127913348D02*
X200754595Y-126706848D01*
X200467333Y-126706848D01*
X200294976Y-126764300D01*
X200180071Y-126879205D01*
X200122619Y-126994110D01*
X200065167Y-127223919D01*
X200065167Y-127396276D01*
X200122619Y-127626086D01*
X200180071Y-127740990D01*
X200294976Y-127855895D01*
X200467333Y-127913348D01*
X200754595Y-127913348D01*
X199835357Y-128028252D02*
X198916119Y-128028252D01*
X197939429Y-127798443D02*
X197996881Y-127855895D01*
X198169238Y-127913348D01*
X198284143Y-127913348D01*
X198456500Y-127855895D01*
X198571405Y-127740990D01*
X198628857Y-127626086D01*
X198686309Y-127396276D01*
X198686309Y-127223919D01*
X198628857Y-126994110D01*
X198571405Y-126879205D01*
X198456500Y-126764300D01*
X198284143Y-126706848D01*
X198169238Y-126706848D01*
X197996881Y-126764300D01*
X197939429Y-126821752D01*
X197479809Y-126821752D02*
X197422357Y-126764300D01*
X197307452Y-126706848D01*
X197020190Y-126706848D01*
X196905286Y-126764300D01*
X196847833Y-126821752D01*
X196790381Y-126936657D01*
X196790381Y-127051562D01*
X196847833Y-127223919D01*
X197537262Y-127913348D01*
X196790381Y-127913348D01*
D12*
X204525155Y-126861751D02*
X204525155Y-126837621D01*
X204515962Y-126837621D01*
X204513664Y-126838770D01*
X204512515Y-126839919D01*
X204511366Y-126842217D01*
X204511366Y-126845664D01*
X204512515Y-126847962D01*
X204513664Y-126849111D01*
X204515962Y-126850260D01*
X204525155Y-126850260D01*
X204504472Y-126837621D02*
X204490683Y-126837621D01*
X204497578Y-126861751D02*
X204497578Y-126837621D01*
X204468851Y-126861751D02*
X204476895Y-126850260D01*
X204482640Y-126861751D02*
X204482640Y-126837621D01*
X204473447Y-126837621D01*
X204471149Y-126838770D01*
X204470000Y-126839919D01*
X204468851Y-126842217D01*
X204468851Y-126845664D01*
X204470000Y-126847962D01*
X204471149Y-126849111D01*
X204473447Y-126850260D01*
X204482640Y-126850260D01*
X204445870Y-126861751D02*
X204459659Y-126861751D01*
X204452765Y-126861751D02*
X204452765Y-126837621D01*
X204455063Y-126841068D01*
X204457361Y-126843366D01*
X204459659Y-126844515D01*
X204438976Y-126837621D02*
X204425187Y-126837621D01*
X204432082Y-126861751D02*
X204432082Y-126837621D01*
X204417144Y-126861751D02*
X204417144Y-126837621D01*
X204407951Y-126837621D01*
X204405653Y-126838770D01*
X204404504Y-126839919D01*
X204403355Y-126842217D01*
X204403355Y-126845664D01*
X204404504Y-126847962D01*
X204405653Y-126849111D01*
X204407951Y-126850260D01*
X204417144Y-126850260D01*
X204380374Y-126861751D02*
X204394163Y-126861751D01*
X204387269Y-126861751D02*
X204387269Y-126837621D01*
X204389567Y-126841068D01*
X204391865Y-126843366D01*
X204394163Y-126844515D01*
X204357393Y-126861751D02*
X204371182Y-126861751D01*
X204364288Y-126861751D02*
X204364288Y-126837621D01*
X204366586Y-126841068D01*
X204368884Y-126843366D01*
X204371182Y-126844515D01*
X204333263Y-126861751D02*
X204341307Y-126850260D01*
X204347052Y-126861751D02*
X204347052Y-126837621D01*
X204337859Y-126837621D01*
X204335561Y-126838770D01*
X204334412Y-126839919D01*
X204333263Y-126842217D01*
X204333263Y-126845664D01*
X204334412Y-126847962D01*
X204335561Y-126849111D01*
X204337859Y-126850260D01*
X204347052Y-126850260D01*
D11*
X202316695Y-86447848D02*
X201914529Y-87654348D01*
X201512362Y-86447848D01*
X201110195Y-87654348D02*
X201110195Y-86447848D01*
X200822933Y-86447848D01*
X200650576Y-86505300D01*
X200535671Y-86620205D01*
X200478219Y-86735110D01*
X200420767Y-86964919D01*
X200420767Y-87137276D01*
X200478219Y-87367086D01*
X200535671Y-87481990D01*
X200650576Y-87596895D01*
X200822933Y-87654348D01*
X201110195Y-87654348D01*
X199903695Y-87654348D02*
X199903695Y-86447848D01*
X199616433Y-86447848D01*
X199444076Y-86505300D01*
X199329171Y-86620205D01*
X199271719Y-86735110D01*
X199214267Y-86964919D01*
X199214267Y-87137276D01*
X199271719Y-87367086D01*
X199329171Y-87481990D01*
X199444076Y-87596895D01*
X199616433Y-87654348D01*
X199903695Y-87654348D01*
X198697195Y-87654348D02*
X198697195Y-86447848D01*
X197892862Y-86447848D02*
X197663052Y-86447848D01*
X197548147Y-86505300D01*
X197433243Y-86620205D01*
X197375790Y-86850014D01*
X197375790Y-87252181D01*
X197433243Y-87481990D01*
X197548147Y-87596895D01*
X197663052Y-87654348D01*
X197892862Y-87654348D01*
X198007766Y-87596895D01*
X198122671Y-87481990D01*
X198180123Y-87252181D01*
X198180123Y-86850014D01*
X198122671Y-86620205D01*
X198007766Y-86505300D01*
X197892862Y-86447848D01*
X197145981Y-87769252D02*
X196226743Y-87769252D01*
X195250053Y-87539443D02*
X195307505Y-87596895D01*
X195479862Y-87654348D01*
X195594767Y-87654348D01*
X195767124Y-87596895D01*
X195882029Y-87481990D01*
X195939481Y-87367086D01*
X195996933Y-87137276D01*
X195996933Y-86964919D01*
X195939481Y-86735110D01*
X195882029Y-86620205D01*
X195767124Y-86505300D01*
X195594767Y-86447848D01*
X195479862Y-86447848D01*
X195307505Y-86505300D01*
X195250053Y-86562752D01*
X194790433Y-86562752D02*
X194732981Y-86505300D01*
X194618076Y-86447848D01*
X194330814Y-86447848D01*
X194215910Y-86505300D01*
X194158457Y-86562752D01*
X194101005Y-86677657D01*
X194101005Y-86792562D01*
X194158457Y-86964919D01*
X194847886Y-87654348D01*
X194101005Y-87654348D01*
D12*
X202467755Y-86602751D02*
X202467755Y-86578621D01*
X202458562Y-86578621D01*
X202456264Y-86579770D01*
X202455115Y-86580919D01*
X202453966Y-86583217D01*
X202453966Y-86586664D01*
X202455115Y-86588962D01*
X202456264Y-86590111D01*
X202458562Y-86591260D01*
X202467755Y-86591260D01*
X202447072Y-86578621D02*
X202433283Y-86578621D01*
X202440178Y-86602751D02*
X202440178Y-86578621D01*
X202411451Y-86602751D02*
X202419495Y-86591260D01*
X202425240Y-86602751D02*
X202425240Y-86578621D01*
X202416047Y-86578621D01*
X202413749Y-86579770D01*
X202412600Y-86580919D01*
X202411451Y-86583217D01*
X202411451Y-86586664D01*
X202412600Y-86588962D01*
X202413749Y-86590111D01*
X202416047Y-86591260D01*
X202425240Y-86591260D01*
X202388470Y-86602751D02*
X202402259Y-86602751D01*
X202395365Y-86602751D02*
X202395365Y-86578621D01*
X202397663Y-86582068D01*
X202399961Y-86584366D01*
X202402259Y-86585515D01*
X202381576Y-86578621D02*
X202367787Y-86578621D01*
X202374682Y-86602751D02*
X202374682Y-86578621D01*
X202359744Y-86602751D02*
X202359744Y-86578621D01*
X202350551Y-86578621D01*
X202348253Y-86579770D01*
X202347104Y-86580919D01*
X202345955Y-86583217D01*
X202345955Y-86586664D01*
X202347104Y-86588962D01*
X202348253Y-86590111D01*
X202350551Y-86591260D01*
X202359744Y-86591260D01*
X202322974Y-86602751D02*
X202336763Y-86602751D01*
X202329869Y-86602751D02*
X202329869Y-86578621D01*
X202332167Y-86582068D01*
X202334465Y-86584366D01*
X202336763Y-86585515D01*
X202299993Y-86602751D02*
X202313782Y-86602751D01*
X202306888Y-86602751D02*
X202306888Y-86578621D01*
X202309186Y-86582068D01*
X202311484Y-86584366D01*
X202313782Y-86585515D01*
X202275863Y-86602751D02*
X202283907Y-86591260D01*
X202289652Y-86602751D02*
X202289652Y-86578621D01*
X202280459Y-86578621D01*
X202278161Y-86579770D01*
X202277012Y-86580919D01*
X202275863Y-86583217D01*
X202275863Y-86586664D01*
X202277012Y-86588962D01*
X202278161Y-86590111D01*
X202280459Y-86591260D01*
X202289652Y-86591260D01*
D11*
X202392895Y-94499648D02*
X201990729Y-95706148D01*
X201588562Y-94499648D01*
X201186395Y-95706148D02*
X201186395Y-94499648D01*
X200899133Y-94499648D01*
X200726776Y-94557100D01*
X200611871Y-94672005D01*
X200554419Y-94786910D01*
X200496967Y-95016719D01*
X200496967Y-95189076D01*
X200554419Y-95418886D01*
X200611871Y-95533790D01*
X200726776Y-95648695D01*
X200899133Y-95706148D01*
X201186395Y-95706148D01*
X199979895Y-95706148D02*
X199979895Y-94499648D01*
X199692633Y-94499648D01*
X199520276Y-94557100D01*
X199405371Y-94672005D01*
X199347919Y-94786910D01*
X199290467Y-95016719D01*
X199290467Y-95189076D01*
X199347919Y-95418886D01*
X199405371Y-95533790D01*
X199520276Y-95648695D01*
X199692633Y-95706148D01*
X199979895Y-95706148D01*
X198830847Y-95361433D02*
X198256324Y-95361433D01*
X198945752Y-95706148D02*
X198543586Y-94499648D01*
X198141419Y-95706148D01*
X198026514Y-95821052D02*
X197107276Y-95821052D01*
X196130586Y-95591243D02*
X196188038Y-95648695D01*
X196360395Y-95706148D01*
X196475300Y-95706148D01*
X196647657Y-95648695D01*
X196762562Y-95533790D01*
X196820014Y-95418886D01*
X196877466Y-95189076D01*
X196877466Y-95016719D01*
X196820014Y-94786910D01*
X196762562Y-94672005D01*
X196647657Y-94557100D01*
X196475300Y-94499648D01*
X196360395Y-94499648D01*
X196188038Y-94557100D01*
X196130586Y-94614552D01*
X195670966Y-94614552D02*
X195613514Y-94557100D01*
X195498609Y-94499648D01*
X195211347Y-94499648D01*
X195096443Y-94557100D01*
X195038990Y-94614552D01*
X194981538Y-94729457D01*
X194981538Y-94844362D01*
X195038990Y-95016719D01*
X195728419Y-95706148D01*
X194981538Y-95706148D01*
D12*
X202543955Y-94654551D02*
X202543955Y-94630421D01*
X202534762Y-94630421D01*
X202532464Y-94631570D01*
X202531315Y-94632719D01*
X202530166Y-94635017D01*
X202530166Y-94638464D01*
X202531315Y-94640762D01*
X202532464Y-94641911D01*
X202534762Y-94643060D01*
X202543955Y-94643060D01*
X202523272Y-94630421D02*
X202509483Y-94630421D01*
X202516378Y-94654551D02*
X202516378Y-94630421D01*
X202487651Y-94654551D02*
X202495695Y-94643060D01*
X202501440Y-94654551D02*
X202501440Y-94630421D01*
X202492247Y-94630421D01*
X202489949Y-94631570D01*
X202488800Y-94632719D01*
X202487651Y-94635017D01*
X202487651Y-94638464D01*
X202488800Y-94640762D01*
X202489949Y-94641911D01*
X202492247Y-94643060D01*
X202501440Y-94643060D01*
X202464670Y-94654551D02*
X202478459Y-94654551D01*
X202471565Y-94654551D02*
X202471565Y-94630421D01*
X202473863Y-94633868D01*
X202476161Y-94636166D01*
X202478459Y-94637315D01*
X202457776Y-94630421D02*
X202443987Y-94630421D01*
X202450882Y-94654551D02*
X202450882Y-94630421D01*
X202435944Y-94654551D02*
X202435944Y-94630421D01*
X202426751Y-94630421D01*
X202424453Y-94631570D01*
X202423304Y-94632719D01*
X202422155Y-94635017D01*
X202422155Y-94638464D01*
X202423304Y-94640762D01*
X202424453Y-94641911D01*
X202426751Y-94643060D01*
X202435944Y-94643060D01*
X202399174Y-94654551D02*
X202412963Y-94654551D01*
X202406069Y-94654551D02*
X202406069Y-94630421D01*
X202408367Y-94633868D01*
X202410665Y-94636166D01*
X202412963Y-94637315D01*
X202376193Y-94654551D02*
X202389982Y-94654551D01*
X202383088Y-94654551D02*
X202383088Y-94630421D01*
X202385386Y-94633868D01*
X202387684Y-94636166D01*
X202389982Y-94637315D01*
X202352063Y-94654551D02*
X202360107Y-94643060D01*
X202365852Y-94654551D02*
X202365852Y-94630421D01*
X202356659Y-94630421D01*
X202354361Y-94631570D01*
X202353212Y-94632719D01*
X202352063Y-94635017D01*
X202352063Y-94638464D01*
X202353212Y-94640762D01*
X202354361Y-94641911D01*
X202356659Y-94643060D01*
X202365852Y-94643060D01*
D11*
X202277990Y-111828495D02*
X202105633Y-111885948D01*
X201818371Y-111885948D01*
X201703467Y-111828495D01*
X201646014Y-111771043D01*
X201588562Y-111656138D01*
X201588562Y-111541233D01*
X201646014Y-111426329D01*
X201703467Y-111368876D01*
X201818371Y-111311424D01*
X202048181Y-111253971D01*
X202163086Y-111196519D01*
X202220538Y-111139067D01*
X202277990Y-111024162D01*
X202277990Y-110909257D01*
X202220538Y-110794352D01*
X202163086Y-110736900D01*
X202048181Y-110679448D01*
X201760919Y-110679448D01*
X201588562Y-110736900D01*
X201071490Y-111885948D02*
X201071490Y-110679448D01*
X200784228Y-110679448D01*
X200611871Y-110736900D01*
X200496966Y-110851805D01*
X200439514Y-110966710D01*
X200382062Y-111196519D01*
X200382062Y-111368876D01*
X200439514Y-111598686D01*
X200496966Y-111713590D01*
X200611871Y-111828495D01*
X200784228Y-111885948D01*
X201071490Y-111885948D01*
X199922442Y-111541233D02*
X199347919Y-111541233D01*
X200037347Y-111885948D02*
X199635181Y-110679448D01*
X199233014Y-111885948D01*
X199118109Y-112000852D02*
X198198871Y-112000852D01*
X197969061Y-111828495D02*
X197796704Y-111885948D01*
X197509442Y-111885948D01*
X197394538Y-111828495D01*
X197337085Y-111771043D01*
X197279633Y-111656138D01*
X197279633Y-111541233D01*
X197337085Y-111426329D01*
X197394538Y-111368876D01*
X197509442Y-111311424D01*
X197739252Y-111253971D01*
X197854157Y-111196519D01*
X197911609Y-111139067D01*
X197969061Y-111024162D01*
X197969061Y-110909257D01*
X197911609Y-110794352D01*
X197854157Y-110736900D01*
X197739252Y-110679448D01*
X197451990Y-110679448D01*
X197279633Y-110736900D01*
X196820013Y-110794352D02*
X196762561Y-110736900D01*
X196647656Y-110679448D01*
X196360394Y-110679448D01*
X196245490Y-110736900D01*
X196188037Y-110794352D01*
X196130585Y-110909257D01*
X196130585Y-111024162D01*
X196188037Y-111196519D01*
X196877466Y-111885948D01*
X196130585Y-111885948D01*
X195900775Y-112000852D02*
X194981537Y-112000852D01*
X194004847Y-111771043D02*
X194062299Y-111828495D01*
X194234656Y-111885948D01*
X194349561Y-111885948D01*
X194521918Y-111828495D01*
X194636823Y-111713590D01*
X194694275Y-111598686D01*
X194751727Y-111368876D01*
X194751727Y-111196519D01*
X194694275Y-110966710D01*
X194636823Y-110851805D01*
X194521918Y-110736900D01*
X194349561Y-110679448D01*
X194234656Y-110679448D01*
X194062299Y-110736900D01*
X194004847Y-110794352D01*
X193545227Y-110794352D02*
X193487775Y-110736900D01*
X193372870Y-110679448D01*
X193085608Y-110679448D01*
X192970704Y-110736900D01*
X192913251Y-110794352D01*
X192855799Y-110909257D01*
X192855799Y-111024162D01*
X192913251Y-111196519D01*
X193602680Y-111885948D01*
X192855799Y-111885948D01*
X192625989Y-112000852D02*
X191706751Y-112000852D01*
X190730061Y-111771043D02*
X190787513Y-111828495D01*
X190959870Y-111885948D01*
X191074775Y-111885948D01*
X191247132Y-111828495D01*
X191362037Y-111713590D01*
X191419489Y-111598686D01*
X191476941Y-111368876D01*
X191476941Y-111196519D01*
X191419489Y-110966710D01*
X191362037Y-110851805D01*
X191247132Y-110736900D01*
X191074775Y-110679448D01*
X190959870Y-110679448D01*
X190787513Y-110736900D01*
X190730061Y-110794352D01*
X190270441Y-110794352D02*
X190212989Y-110736900D01*
X190098084Y-110679448D01*
X189810822Y-110679448D01*
X189695918Y-110736900D01*
X189638465Y-110794352D01*
X189581013Y-110909257D01*
X189581013Y-111024162D01*
X189638465Y-111196519D01*
X190327894Y-111885948D01*
X189581013Y-111885948D01*
D12*
X202543955Y-110834351D02*
X202543955Y-110810221D01*
X202534762Y-110810221D01*
X202532464Y-110811370D01*
X202531315Y-110812519D01*
X202530166Y-110814817D01*
X202530166Y-110818264D01*
X202531315Y-110820562D01*
X202532464Y-110821711D01*
X202534762Y-110822860D01*
X202543955Y-110822860D01*
X202523272Y-110810221D02*
X202509483Y-110810221D01*
X202516378Y-110834351D02*
X202516378Y-110810221D01*
X202487651Y-110834351D02*
X202495695Y-110822860D01*
X202501440Y-110834351D02*
X202501440Y-110810221D01*
X202492247Y-110810221D01*
X202489949Y-110811370D01*
X202488800Y-110812519D01*
X202487651Y-110814817D01*
X202487651Y-110818264D01*
X202488800Y-110820562D01*
X202489949Y-110821711D01*
X202492247Y-110822860D01*
X202501440Y-110822860D01*
X202464670Y-110834351D02*
X202478459Y-110834351D01*
X202471565Y-110834351D02*
X202471565Y-110810221D01*
X202473863Y-110813668D01*
X202476161Y-110815966D01*
X202478459Y-110817115D01*
X202457776Y-110810221D02*
X202443987Y-110810221D01*
X202450882Y-110834351D02*
X202450882Y-110810221D01*
X202435944Y-110834351D02*
X202435944Y-110810221D01*
X202426751Y-110810221D01*
X202424453Y-110811370D01*
X202423304Y-110812519D01*
X202422155Y-110814817D01*
X202422155Y-110818264D01*
X202423304Y-110820562D01*
X202424453Y-110821711D01*
X202426751Y-110822860D01*
X202435944Y-110822860D01*
X202399174Y-110834351D02*
X202412963Y-110834351D01*
X202406069Y-110834351D02*
X202406069Y-110810221D01*
X202408367Y-110813668D01*
X202410665Y-110815966D01*
X202412963Y-110817115D01*
X202376193Y-110834351D02*
X202389982Y-110834351D01*
X202383088Y-110834351D02*
X202383088Y-110810221D01*
X202385386Y-110813668D01*
X202387684Y-110815966D01*
X202389982Y-110817115D01*
X202352063Y-110834351D02*
X202360107Y-110822860D01*
X202365852Y-110834351D02*
X202365852Y-110810221D01*
X202356659Y-110810221D01*
X202354361Y-110811370D01*
X202353212Y-110812519D01*
X202352063Y-110814817D01*
X202352063Y-110818264D01*
X202353212Y-110820562D01*
X202354361Y-110821711D01*
X202356659Y-110822860D01*
X202365852Y-110822860D01*
D11*
X202328790Y-90213095D02*
X202156433Y-90270548D01*
X201869171Y-90270548D01*
X201754267Y-90213095D01*
X201696814Y-90155643D01*
X201639362Y-90040738D01*
X201639362Y-89925833D01*
X201696814Y-89810929D01*
X201754267Y-89753476D01*
X201869171Y-89696024D01*
X202098981Y-89638571D01*
X202213886Y-89581119D01*
X202271338Y-89523667D01*
X202328790Y-89408762D01*
X202328790Y-89293857D01*
X202271338Y-89178952D01*
X202213886Y-89121500D01*
X202098981Y-89064048D01*
X201811719Y-89064048D01*
X201639362Y-89121500D01*
X201122290Y-90270548D02*
X201122290Y-89064048D01*
X200835028Y-89064048D01*
X200662671Y-89121500D01*
X200547766Y-89236405D01*
X200490314Y-89351310D01*
X200432862Y-89581119D01*
X200432862Y-89753476D01*
X200490314Y-89983286D01*
X200547766Y-90098190D01*
X200662671Y-90213095D01*
X200835028Y-90270548D01*
X201122290Y-90270548D01*
X199973242Y-89925833D02*
X199398719Y-89925833D01*
X200088147Y-90270548D02*
X199685981Y-89064048D01*
X199283814Y-90270548D01*
X199168909Y-90385452D02*
X198249671Y-90385452D01*
X198019861Y-90213095D02*
X197847504Y-90270548D01*
X197560242Y-90270548D01*
X197445338Y-90213095D01*
X197387885Y-90155643D01*
X197330433Y-90040738D01*
X197330433Y-89925833D01*
X197387885Y-89810929D01*
X197445338Y-89753476D01*
X197560242Y-89696024D01*
X197790052Y-89638571D01*
X197904957Y-89581119D01*
X197962409Y-89523667D01*
X198019861Y-89408762D01*
X198019861Y-89293857D01*
X197962409Y-89178952D01*
X197904957Y-89121500D01*
X197790052Y-89064048D01*
X197502790Y-89064048D01*
X197330433Y-89121500D01*
X196928266Y-89064048D02*
X196181385Y-89064048D01*
X196583552Y-89523667D01*
X196411194Y-89523667D01*
X196296290Y-89581119D01*
X196238837Y-89638571D01*
X196181385Y-89753476D01*
X196181385Y-90040738D01*
X196238837Y-90155643D01*
X196296290Y-90213095D01*
X196411194Y-90270548D01*
X196755909Y-90270548D01*
X196870813Y-90213095D01*
X196928266Y-90155643D01*
X195951575Y-90385452D02*
X195032337Y-90385452D01*
X194055647Y-90155643D02*
X194113099Y-90213095D01*
X194285456Y-90270548D01*
X194400361Y-90270548D01*
X194572718Y-90213095D01*
X194687623Y-90098190D01*
X194745075Y-89983286D01*
X194802527Y-89753476D01*
X194802527Y-89581119D01*
X194745075Y-89351310D01*
X194687623Y-89236405D01*
X194572718Y-89121500D01*
X194400361Y-89064048D01*
X194285456Y-89064048D01*
X194113099Y-89121500D01*
X194055647Y-89178952D01*
X193653480Y-89064048D02*
X192906599Y-89064048D01*
X193308766Y-89523667D01*
X193136408Y-89523667D01*
X193021504Y-89581119D01*
X192964051Y-89638571D01*
X192906599Y-89753476D01*
X192906599Y-90040738D01*
X192964051Y-90155643D01*
X193021504Y-90213095D01*
X193136408Y-90270548D01*
X193481123Y-90270548D01*
X193596027Y-90213095D01*
X193653480Y-90155643D01*
X192676789Y-90385452D02*
X191757551Y-90385452D01*
X190780861Y-90155643D02*
X190838313Y-90213095D01*
X191010670Y-90270548D01*
X191125575Y-90270548D01*
X191297932Y-90213095D01*
X191412837Y-90098190D01*
X191470289Y-89983286D01*
X191527741Y-89753476D01*
X191527741Y-89581119D01*
X191470289Y-89351310D01*
X191412837Y-89236405D01*
X191297932Y-89121500D01*
X191125575Y-89064048D01*
X191010670Y-89064048D01*
X190838313Y-89121500D01*
X190780861Y-89178952D01*
X190378694Y-89064048D02*
X189631813Y-89064048D01*
X190033980Y-89523667D01*
X189861622Y-89523667D01*
X189746718Y-89581119D01*
X189689265Y-89638571D01*
X189631813Y-89753476D01*
X189631813Y-90040738D01*
X189689265Y-90155643D01*
X189746718Y-90213095D01*
X189861622Y-90270548D01*
X190206337Y-90270548D01*
X190321241Y-90213095D01*
X190378694Y-90155643D01*
D12*
X202594755Y-89218951D02*
X202594755Y-89194821D01*
X202585562Y-89194821D01*
X202583264Y-89195970D01*
X202582115Y-89197119D01*
X202580966Y-89199417D01*
X202580966Y-89202864D01*
X202582115Y-89205162D01*
X202583264Y-89206311D01*
X202585562Y-89207460D01*
X202594755Y-89207460D01*
X202574072Y-89194821D02*
X202560283Y-89194821D01*
X202567178Y-89218951D02*
X202567178Y-89194821D01*
X202538451Y-89218951D02*
X202546495Y-89207460D01*
X202552240Y-89218951D02*
X202552240Y-89194821D01*
X202543047Y-89194821D01*
X202540749Y-89195970D01*
X202539600Y-89197119D01*
X202538451Y-89199417D01*
X202538451Y-89202864D01*
X202539600Y-89205162D01*
X202540749Y-89206311D01*
X202543047Y-89207460D01*
X202552240Y-89207460D01*
X202515470Y-89218951D02*
X202529259Y-89218951D01*
X202522365Y-89218951D02*
X202522365Y-89194821D01*
X202524663Y-89198268D01*
X202526961Y-89200566D01*
X202529259Y-89201715D01*
X202508576Y-89194821D02*
X202494787Y-89194821D01*
X202501682Y-89218951D02*
X202501682Y-89194821D01*
X202486744Y-89218951D02*
X202486744Y-89194821D01*
X202477551Y-89194821D01*
X202475253Y-89195970D01*
X202474104Y-89197119D01*
X202472955Y-89199417D01*
X202472955Y-89202864D01*
X202474104Y-89205162D01*
X202475253Y-89206311D01*
X202477551Y-89207460D01*
X202486744Y-89207460D01*
X202449974Y-89218951D02*
X202463763Y-89218951D01*
X202456869Y-89218951D02*
X202456869Y-89194821D01*
X202459167Y-89198268D01*
X202461465Y-89200566D01*
X202463763Y-89201715D01*
X202426993Y-89218951D02*
X202440782Y-89218951D01*
X202433888Y-89218951D02*
X202433888Y-89194821D01*
X202436186Y-89198268D01*
X202438484Y-89200566D01*
X202440782Y-89201715D01*
X202402863Y-89218951D02*
X202410907Y-89207460D01*
X202416652Y-89218951D02*
X202416652Y-89194821D01*
X202407459Y-89194821D01*
X202405161Y-89195970D01*
X202404012Y-89197119D01*
X202402863Y-89199417D01*
X202402863Y-89202864D01*
X202404012Y-89205162D01*
X202405161Y-89206311D01*
X202407459Y-89207460D01*
X202416652Y-89207460D01*
D11*
X155262590Y-90187695D02*
X155090233Y-90245148D01*
X154802971Y-90245148D01*
X154688067Y-90187695D01*
X154630614Y-90130243D01*
X154573162Y-90015338D01*
X154573162Y-89900433D01*
X154630614Y-89785529D01*
X154688067Y-89728076D01*
X154802971Y-89670624D01*
X155032781Y-89613171D01*
X155147686Y-89555719D01*
X155205138Y-89498267D01*
X155262590Y-89383362D01*
X155262590Y-89268457D01*
X155205138Y-89153552D01*
X155147686Y-89096100D01*
X155032781Y-89038648D01*
X154745519Y-89038648D01*
X154573162Y-89096100D01*
X154056090Y-90245148D02*
X154056090Y-89038648D01*
X153768828Y-89038648D01*
X153596471Y-89096100D01*
X153481566Y-89211005D01*
X153424114Y-89325910D01*
X153366662Y-89555719D01*
X153366662Y-89728076D01*
X153424114Y-89957886D01*
X153481566Y-90072790D01*
X153596471Y-90187695D01*
X153768828Y-90245148D01*
X154056090Y-90245148D01*
X152907042Y-89900433D02*
X152332519Y-89900433D01*
X153021947Y-90245148D02*
X152619781Y-89038648D01*
X152217614Y-90245148D01*
X152102709Y-90360052D02*
X151183471Y-90360052D01*
X150953661Y-90187695D02*
X150781304Y-90245148D01*
X150494042Y-90245148D01*
X150379138Y-90187695D01*
X150321685Y-90130243D01*
X150264233Y-90015338D01*
X150264233Y-89900433D01*
X150321685Y-89785529D01*
X150379138Y-89728076D01*
X150494042Y-89670624D01*
X150723852Y-89613171D01*
X150838757Y-89555719D01*
X150896209Y-89498267D01*
X150953661Y-89383362D01*
X150953661Y-89268457D01*
X150896209Y-89153552D01*
X150838757Y-89096100D01*
X150723852Y-89038648D01*
X150436590Y-89038648D01*
X150264233Y-89096100D01*
X149862066Y-89038648D02*
X149115185Y-89038648D01*
X149517352Y-89498267D01*
X149344994Y-89498267D01*
X149230090Y-89555719D01*
X149172637Y-89613171D01*
X149115185Y-89728076D01*
X149115185Y-90015338D01*
X149172637Y-90130243D01*
X149230090Y-90187695D01*
X149344994Y-90245148D01*
X149689709Y-90245148D01*
X149804613Y-90187695D01*
X149862066Y-90130243D01*
X148885375Y-90360052D02*
X147966137Y-90360052D01*
X146989447Y-90130243D02*
X147046899Y-90187695D01*
X147219256Y-90245148D01*
X147334161Y-90245148D01*
X147506518Y-90187695D01*
X147621423Y-90072790D01*
X147678875Y-89957886D01*
X147736327Y-89728076D01*
X147736327Y-89555719D01*
X147678875Y-89325910D01*
X147621423Y-89211005D01*
X147506518Y-89096100D01*
X147334161Y-89038648D01*
X147219256Y-89038648D01*
X147046899Y-89096100D01*
X146989447Y-89153552D01*
X145840399Y-90245148D02*
X146529827Y-90245148D01*
X146185113Y-90245148D02*
X146185113Y-89038648D01*
X146300018Y-89211005D01*
X146414923Y-89325910D01*
X146529827Y-89383362D01*
X145610589Y-90360052D02*
X144691351Y-90360052D01*
X143714661Y-90130243D02*
X143772113Y-90187695D01*
X143944470Y-90245148D01*
X144059375Y-90245148D01*
X144231732Y-90187695D01*
X144346637Y-90072790D01*
X144404089Y-89957886D01*
X144461541Y-89728076D01*
X144461541Y-89555719D01*
X144404089Y-89325910D01*
X144346637Y-89211005D01*
X144231732Y-89096100D01*
X144059375Y-89038648D01*
X143944470Y-89038648D01*
X143772113Y-89096100D01*
X143714661Y-89153552D01*
X142565613Y-90245148D02*
X143255041Y-90245148D01*
X142910327Y-90245148D02*
X142910327Y-89038648D01*
X143025232Y-89211005D01*
X143140137Y-89325910D01*
X143255041Y-89383362D01*
D12*
X155528555Y-89193551D02*
X155528555Y-89169421D01*
X155519362Y-89169421D01*
X155517064Y-89170570D01*
X155515915Y-89171719D01*
X155514766Y-89174017D01*
X155514766Y-89177464D01*
X155515915Y-89179762D01*
X155517064Y-89180911D01*
X155519362Y-89182060D01*
X155528555Y-89182060D01*
X155507872Y-89169421D02*
X155494083Y-89169421D01*
X155500978Y-89193551D02*
X155500978Y-89169421D01*
X155472251Y-89193551D02*
X155480295Y-89182060D01*
X155486040Y-89193551D02*
X155486040Y-89169421D01*
X155476847Y-89169421D01*
X155474549Y-89170570D01*
X155473400Y-89171719D01*
X155472251Y-89174017D01*
X155472251Y-89177464D01*
X155473400Y-89179762D01*
X155474549Y-89180911D01*
X155476847Y-89182060D01*
X155486040Y-89182060D01*
X155449270Y-89193551D02*
X155463059Y-89193551D01*
X155456165Y-89193551D02*
X155456165Y-89169421D01*
X155458463Y-89172868D01*
X155460761Y-89175166D01*
X155463059Y-89176315D01*
X155442376Y-89169421D02*
X155428587Y-89169421D01*
X155435482Y-89193551D02*
X155435482Y-89169421D01*
X155420544Y-89193551D02*
X155420544Y-89169421D01*
X155411351Y-89169421D01*
X155409053Y-89170570D01*
X155407904Y-89171719D01*
X155406755Y-89174017D01*
X155406755Y-89177464D01*
X155407904Y-89179762D01*
X155409053Y-89180911D01*
X155411351Y-89182060D01*
X155420544Y-89182060D01*
X155383774Y-89193551D02*
X155397563Y-89193551D01*
X155390669Y-89193551D02*
X155390669Y-89169421D01*
X155392967Y-89172868D01*
X155395265Y-89175166D01*
X155397563Y-89176315D01*
X155360793Y-89193551D02*
X155374582Y-89193551D01*
X155367688Y-89193551D02*
X155367688Y-89169421D01*
X155369986Y-89172868D01*
X155372284Y-89175166D01*
X155374582Y-89176315D01*
X155336663Y-89193551D02*
X155344707Y-89182060D01*
X155350452Y-89193551D02*
X155350452Y-89169421D01*
X155341259Y-89169421D01*
X155338961Y-89170570D01*
X155337812Y-89171719D01*
X155336663Y-89174017D01*
X155336663Y-89177464D01*
X155337812Y-89179762D01*
X155338961Y-89180911D01*
X155341259Y-89182060D01*
X155350452Y-89182060D01*
D11*
X202227190Y-106519895D02*
X202054833Y-106577348D01*
X201767571Y-106577348D01*
X201652667Y-106519895D01*
X201595214Y-106462443D01*
X201537762Y-106347538D01*
X201537762Y-106232633D01*
X201595214Y-106117729D01*
X201652667Y-106060276D01*
X201767571Y-106002824D01*
X201997381Y-105945371D01*
X202112286Y-105887919D01*
X202169738Y-105830467D01*
X202227190Y-105715562D01*
X202227190Y-105600657D01*
X202169738Y-105485752D01*
X202112286Y-105428300D01*
X201997381Y-105370848D01*
X201710119Y-105370848D01*
X201537762Y-105428300D01*
X201020690Y-106577348D02*
X201020690Y-105370848D01*
X200733428Y-105370848D01*
X200561071Y-105428300D01*
X200446166Y-105543205D01*
X200388714Y-105658110D01*
X200331262Y-105887919D01*
X200331262Y-106060276D01*
X200388714Y-106290086D01*
X200446166Y-106404990D01*
X200561071Y-106519895D01*
X200733428Y-106577348D01*
X201020690Y-106577348D01*
X199871642Y-106232633D02*
X199297119Y-106232633D01*
X199986547Y-106577348D02*
X199584381Y-105370848D01*
X199182214Y-106577348D01*
X199067309Y-106692252D02*
X198148071Y-106692252D01*
X197918261Y-106519895D02*
X197745904Y-106577348D01*
X197458642Y-106577348D01*
X197343738Y-106519895D01*
X197286285Y-106462443D01*
X197228833Y-106347538D01*
X197228833Y-106232633D01*
X197286285Y-106117729D01*
X197343738Y-106060276D01*
X197458642Y-106002824D01*
X197688452Y-105945371D01*
X197803357Y-105887919D01*
X197860809Y-105830467D01*
X197918261Y-105715562D01*
X197918261Y-105600657D01*
X197860809Y-105485752D01*
X197803357Y-105428300D01*
X197688452Y-105370848D01*
X197401190Y-105370848D01*
X197228833Y-105428300D01*
X196194690Y-105773014D02*
X196194690Y-106577348D01*
X196481952Y-105313395D02*
X196769213Y-106175181D01*
X196022333Y-106175181D01*
X195849975Y-106692252D02*
X194930737Y-106692252D01*
X193954047Y-106462443D02*
X194011499Y-106519895D01*
X194183856Y-106577348D01*
X194298761Y-106577348D01*
X194471118Y-106519895D01*
X194586023Y-106404990D01*
X194643475Y-106290086D01*
X194700927Y-106060276D01*
X194700927Y-105887919D01*
X194643475Y-105658110D01*
X194586023Y-105543205D01*
X194471118Y-105428300D01*
X194298761Y-105370848D01*
X194183856Y-105370848D01*
X194011499Y-105428300D01*
X193954047Y-105485752D01*
X192919904Y-105773014D02*
X192919904Y-106577348D01*
X193207166Y-105313395D02*
X193494427Y-106175181D01*
X192747547Y-106175181D01*
X192575189Y-106692252D02*
X191655951Y-106692252D01*
X190679261Y-106462443D02*
X190736713Y-106519895D01*
X190909070Y-106577348D01*
X191023975Y-106577348D01*
X191196332Y-106519895D01*
X191311237Y-106404990D01*
X191368689Y-106290086D01*
X191426141Y-106060276D01*
X191426141Y-105887919D01*
X191368689Y-105658110D01*
X191311237Y-105543205D01*
X191196332Y-105428300D01*
X191023975Y-105370848D01*
X190909070Y-105370848D01*
X190736713Y-105428300D01*
X190679261Y-105485752D01*
X190277094Y-105370848D02*
X189530213Y-105370848D01*
X189932380Y-105830467D01*
X189760022Y-105830467D01*
X189645118Y-105887919D01*
X189587665Y-105945371D01*
X189530213Y-106060276D01*
X189530213Y-106347538D01*
X189587665Y-106462443D01*
X189645118Y-106519895D01*
X189760022Y-106577348D01*
X190104737Y-106577348D01*
X190219641Y-106519895D01*
X190277094Y-106462443D01*
D12*
X202493155Y-105525751D02*
X202493155Y-105501621D01*
X202483962Y-105501621D01*
X202481664Y-105502770D01*
X202480515Y-105503919D01*
X202479366Y-105506217D01*
X202479366Y-105509664D01*
X202480515Y-105511962D01*
X202481664Y-105513111D01*
X202483962Y-105514260D01*
X202493155Y-105514260D01*
X202472472Y-105501621D02*
X202458683Y-105501621D01*
X202465578Y-105525751D02*
X202465578Y-105501621D01*
X202436851Y-105525751D02*
X202444895Y-105514260D01*
X202450640Y-105525751D02*
X202450640Y-105501621D01*
X202441447Y-105501621D01*
X202439149Y-105502770D01*
X202438000Y-105503919D01*
X202436851Y-105506217D01*
X202436851Y-105509664D01*
X202438000Y-105511962D01*
X202439149Y-105513111D01*
X202441447Y-105514260D01*
X202450640Y-105514260D01*
X202413870Y-105525751D02*
X202427659Y-105525751D01*
X202420765Y-105525751D02*
X202420765Y-105501621D01*
X202423063Y-105505068D01*
X202425361Y-105507366D01*
X202427659Y-105508515D01*
X202406976Y-105501621D02*
X202393187Y-105501621D01*
X202400082Y-105525751D02*
X202400082Y-105501621D01*
X202385144Y-105525751D02*
X202385144Y-105501621D01*
X202375951Y-105501621D01*
X202373653Y-105502770D01*
X202372504Y-105503919D01*
X202371355Y-105506217D01*
X202371355Y-105509664D01*
X202372504Y-105511962D01*
X202373653Y-105513111D01*
X202375951Y-105514260D01*
X202385144Y-105514260D01*
X202348374Y-105525751D02*
X202362163Y-105525751D01*
X202355269Y-105525751D02*
X202355269Y-105501621D01*
X202357567Y-105505068D01*
X202359865Y-105507366D01*
X202362163Y-105508515D01*
X202325393Y-105525751D02*
X202339182Y-105525751D01*
X202332288Y-105525751D02*
X202332288Y-105501621D01*
X202334586Y-105505068D01*
X202336884Y-105507366D01*
X202339182Y-105508515D01*
X202301263Y-105525751D02*
X202309307Y-105514260D01*
X202315052Y-105525751D02*
X202315052Y-105501621D01*
X202305859Y-105501621D01*
X202303561Y-105502770D01*
X202302412Y-105503919D01*
X202301263Y-105506217D01*
X202301263Y-105509664D01*
X202302412Y-105511962D01*
X202303561Y-105513111D01*
X202305859Y-105514260D01*
X202315052Y-105514260D01*
D11*
X155287990Y-106545295D02*
X155115633Y-106602748D01*
X154828371Y-106602748D01*
X154713467Y-106545295D01*
X154656014Y-106487843D01*
X154598562Y-106372938D01*
X154598562Y-106258033D01*
X154656014Y-106143129D01*
X154713467Y-106085676D01*
X154828371Y-106028224D01*
X155058181Y-105970771D01*
X155173086Y-105913319D01*
X155230538Y-105855867D01*
X155287990Y-105740962D01*
X155287990Y-105626057D01*
X155230538Y-105511152D01*
X155173086Y-105453700D01*
X155058181Y-105396248D01*
X154770919Y-105396248D01*
X154598562Y-105453700D01*
X154081490Y-106602748D02*
X154081490Y-105396248D01*
X153794228Y-105396248D01*
X153621871Y-105453700D01*
X153506966Y-105568605D01*
X153449514Y-105683510D01*
X153392062Y-105913319D01*
X153392062Y-106085676D01*
X153449514Y-106315486D01*
X153506966Y-106430390D01*
X153621871Y-106545295D01*
X153794228Y-106602748D01*
X154081490Y-106602748D01*
X152932442Y-106258033D02*
X152357919Y-106258033D01*
X153047347Y-106602748D02*
X152645181Y-105396248D01*
X152243014Y-106602748D01*
X152128109Y-106717652D02*
X151208871Y-106717652D01*
X150979061Y-106545295D02*
X150806704Y-106602748D01*
X150519442Y-106602748D01*
X150404538Y-106545295D01*
X150347085Y-106487843D01*
X150289633Y-106372938D01*
X150289633Y-106258033D01*
X150347085Y-106143129D01*
X150404538Y-106085676D01*
X150519442Y-106028224D01*
X150749252Y-105970771D01*
X150864157Y-105913319D01*
X150921609Y-105855867D01*
X150979061Y-105740962D01*
X150979061Y-105626057D01*
X150921609Y-105511152D01*
X150864157Y-105453700D01*
X150749252Y-105396248D01*
X150461990Y-105396248D01*
X150289633Y-105453700D01*
X149255490Y-105798414D02*
X149255490Y-106602748D01*
X149542752Y-105338795D02*
X149830013Y-106200581D01*
X149083133Y-106200581D01*
X148910775Y-106717652D02*
X147991537Y-106717652D01*
X147014847Y-106487843D02*
X147072299Y-106545295D01*
X147244656Y-106602748D01*
X147359561Y-106602748D01*
X147531918Y-106545295D01*
X147646823Y-106430390D01*
X147704275Y-106315486D01*
X147761727Y-106085676D01*
X147761727Y-105913319D01*
X147704275Y-105683510D01*
X147646823Y-105568605D01*
X147531918Y-105453700D01*
X147359561Y-105396248D01*
X147244656Y-105396248D01*
X147072299Y-105453700D01*
X147014847Y-105511152D01*
X145865799Y-106602748D02*
X146555227Y-106602748D01*
X146210513Y-106602748D02*
X146210513Y-105396248D01*
X146325418Y-105568605D01*
X146440323Y-105683510D01*
X146555227Y-105740962D01*
X145635989Y-106717652D02*
X144716751Y-106717652D01*
X143740061Y-106487843D02*
X143797513Y-106545295D01*
X143969870Y-106602748D01*
X144084775Y-106602748D01*
X144257132Y-106545295D01*
X144372037Y-106430390D01*
X144429489Y-106315486D01*
X144486941Y-106085676D01*
X144486941Y-105913319D01*
X144429489Y-105683510D01*
X144372037Y-105568605D01*
X144257132Y-105453700D01*
X144084775Y-105396248D01*
X143969870Y-105396248D01*
X143797513Y-105453700D01*
X143740061Y-105511152D01*
X142591013Y-106602748D02*
X143280441Y-106602748D01*
X142935727Y-106602748D02*
X142935727Y-105396248D01*
X143050632Y-105568605D01*
X143165537Y-105683510D01*
X143280441Y-105740962D01*
D12*
X155553955Y-105551151D02*
X155553955Y-105527021D01*
X155544762Y-105527021D01*
X155542464Y-105528170D01*
X155541315Y-105529319D01*
X155540166Y-105531617D01*
X155540166Y-105535064D01*
X155541315Y-105537362D01*
X155542464Y-105538511D01*
X155544762Y-105539660D01*
X155553955Y-105539660D01*
X155533272Y-105527021D02*
X155519483Y-105527021D01*
X155526378Y-105551151D02*
X155526378Y-105527021D01*
X155497651Y-105551151D02*
X155505695Y-105539660D01*
X155511440Y-105551151D02*
X155511440Y-105527021D01*
X155502247Y-105527021D01*
X155499949Y-105528170D01*
X155498800Y-105529319D01*
X155497651Y-105531617D01*
X155497651Y-105535064D01*
X155498800Y-105537362D01*
X155499949Y-105538511D01*
X155502247Y-105539660D01*
X155511440Y-105539660D01*
X155474670Y-105551151D02*
X155488459Y-105551151D01*
X155481565Y-105551151D02*
X155481565Y-105527021D01*
X155483863Y-105530468D01*
X155486161Y-105532766D01*
X155488459Y-105533915D01*
X155467776Y-105527021D02*
X155453987Y-105527021D01*
X155460882Y-105551151D02*
X155460882Y-105527021D01*
X155445944Y-105551151D02*
X155445944Y-105527021D01*
X155436751Y-105527021D01*
X155434453Y-105528170D01*
X155433304Y-105529319D01*
X155432155Y-105531617D01*
X155432155Y-105535064D01*
X155433304Y-105537362D01*
X155434453Y-105538511D01*
X155436751Y-105539660D01*
X155445944Y-105539660D01*
X155409174Y-105551151D02*
X155422963Y-105551151D01*
X155416069Y-105551151D02*
X155416069Y-105527021D01*
X155418367Y-105530468D01*
X155420665Y-105532766D01*
X155422963Y-105533915D01*
X155386193Y-105551151D02*
X155399982Y-105551151D01*
X155393088Y-105551151D02*
X155393088Y-105527021D01*
X155395386Y-105530468D01*
X155397684Y-105532766D01*
X155399982Y-105533915D01*
X155362063Y-105551151D02*
X155370107Y-105539660D01*
X155375852Y-105551151D02*
X155375852Y-105527021D01*
X155366659Y-105527021D01*
X155364361Y-105528170D01*
X155363212Y-105529319D01*
X155362063Y-105531617D01*
X155362063Y-105535064D01*
X155363212Y-105537362D01*
X155364361Y-105538511D01*
X155366659Y-105539660D01*
X155375852Y-105539660D01*
X186052802Y-92251821D02*
X186039013Y-92251821D01*
X186045908Y-92275951D02*
X186045908Y-92251821D01*
X186030970Y-92275951D02*
X186030970Y-92251821D01*
X186021777Y-92251821D01*
X186019479Y-92252970D01*
X186018330Y-92254119D01*
X186017181Y-92256417D01*
X186017181Y-92259864D01*
X186018330Y-92262162D01*
X186019479Y-92263311D01*
X186021777Y-92264460D01*
X186030970Y-92264460D01*
X185998796Y-92263311D02*
X185995349Y-92264460D01*
X185994200Y-92265610D01*
X185993051Y-92267908D01*
X185993051Y-92271355D01*
X185994200Y-92273653D01*
X185995349Y-92274802D01*
X185997647Y-92275951D01*
X186006840Y-92275951D01*
X186006840Y-92251821D01*
X185998796Y-92251821D01*
X185996498Y-92252970D01*
X185995349Y-92254119D01*
X185994200Y-92256417D01*
X185994200Y-92258715D01*
X185995349Y-92261013D01*
X185996498Y-92262162D01*
X185998796Y-92263311D01*
X186006840Y-92263311D01*
X185983859Y-92254119D02*
X185982710Y-92252970D01*
X185980412Y-92251821D01*
X185974666Y-92251821D01*
X185972368Y-92252970D01*
X185971219Y-92254119D01*
X185970070Y-92256417D01*
X185970070Y-92258715D01*
X185971219Y-92262162D01*
X185985008Y-92275951D01*
X185970070Y-92275951D01*
X185958580Y-92274802D02*
X185958580Y-92275951D01*
X185959729Y-92278249D01*
X185960878Y-92279398D01*
X185936748Y-92251821D02*
X185948239Y-92251821D01*
X185949388Y-92263311D01*
X185948239Y-92262162D01*
X185945941Y-92261013D01*
X185940195Y-92261013D01*
X185937897Y-92262162D01*
X185936748Y-92263311D01*
X185935599Y-92265610D01*
X185935599Y-92271355D01*
X185936748Y-92273653D01*
X185937897Y-92274802D01*
X185940195Y-92275951D01*
X185945941Y-92275951D01*
X185948239Y-92274802D01*
X185949388Y-92273653D01*
X185914916Y-92259864D02*
X185914916Y-92275951D01*
X185920662Y-92250672D02*
X185926407Y-92267908D01*
X185911469Y-92267908D01*
X170068202Y-108269221D02*
X170054413Y-108269221D01*
X170061308Y-108293351D02*
X170061308Y-108269221D01*
X170046370Y-108293351D02*
X170046370Y-108269221D01*
X170037177Y-108269221D01*
X170034879Y-108270370D01*
X170033730Y-108271519D01*
X170032581Y-108273817D01*
X170032581Y-108277264D01*
X170033730Y-108279562D01*
X170034879Y-108280711D01*
X170037177Y-108281860D01*
X170046370Y-108281860D01*
X170014196Y-108280711D02*
X170010749Y-108281860D01*
X170009600Y-108283010D01*
X170008451Y-108285308D01*
X170008451Y-108288755D01*
X170009600Y-108291053D01*
X170010749Y-108292202D01*
X170013047Y-108293351D01*
X170022240Y-108293351D01*
X170022240Y-108269221D01*
X170014196Y-108269221D01*
X170011898Y-108270370D01*
X170010749Y-108271519D01*
X170009600Y-108273817D01*
X170009600Y-108276115D01*
X170010749Y-108278413D01*
X170011898Y-108279562D01*
X170014196Y-108280711D01*
X170022240Y-108280711D01*
X169999259Y-108271519D02*
X169998110Y-108270370D01*
X169995812Y-108269221D01*
X169990066Y-108269221D01*
X169987768Y-108270370D01*
X169986619Y-108271519D01*
X169985470Y-108273817D01*
X169985470Y-108276115D01*
X169986619Y-108279562D01*
X170000408Y-108293351D01*
X169985470Y-108293351D01*
X169973980Y-108292202D02*
X169973980Y-108293351D01*
X169975129Y-108295649D01*
X169976278Y-108296798D01*
X169952148Y-108269221D02*
X169963639Y-108269221D01*
X169964788Y-108280711D01*
X169963639Y-108279562D01*
X169961341Y-108278413D01*
X169955595Y-108278413D01*
X169953297Y-108279562D01*
X169952148Y-108280711D01*
X169950999Y-108283010D01*
X169950999Y-108288755D01*
X169952148Y-108291053D01*
X169953297Y-108292202D01*
X169955595Y-108293351D01*
X169961341Y-108293351D01*
X169963639Y-108292202D01*
X169964788Y-108291053D01*
X169930316Y-108277264D02*
X169930316Y-108293351D01*
X169936062Y-108268072D02*
X169941807Y-108285308D01*
X169926869Y-108285308D01*
X166181202Y-112344021D02*
X166167413Y-112344021D01*
X166174308Y-112368151D02*
X166174308Y-112344021D01*
X166159370Y-112368151D02*
X166159370Y-112344021D01*
X166150177Y-112344021D01*
X166147879Y-112345170D01*
X166146730Y-112346319D01*
X166145581Y-112348617D01*
X166145581Y-112352064D01*
X166146730Y-112354362D01*
X166147879Y-112355511D01*
X166150177Y-112356660D01*
X166159370Y-112356660D01*
X166127196Y-112355511D02*
X166123749Y-112356660D01*
X166122600Y-112357810D01*
X166121451Y-112360108D01*
X166121451Y-112363555D01*
X166122600Y-112365853D01*
X166123749Y-112367002D01*
X166126047Y-112368151D01*
X166135240Y-112368151D01*
X166135240Y-112344021D01*
X166127196Y-112344021D01*
X166124898Y-112345170D01*
X166123749Y-112346319D01*
X166122600Y-112348617D01*
X166122600Y-112350915D01*
X166123749Y-112353213D01*
X166124898Y-112354362D01*
X166127196Y-112355511D01*
X166135240Y-112355511D01*
X166112259Y-112346319D02*
X166111110Y-112345170D01*
X166108812Y-112344021D01*
X166103066Y-112344021D01*
X166100768Y-112345170D01*
X166099619Y-112346319D01*
X166098470Y-112348617D01*
X166098470Y-112350915D01*
X166099619Y-112354362D01*
X166113408Y-112368151D01*
X166098470Y-112368151D01*
X166086980Y-112367002D02*
X166086980Y-112368151D01*
X166088129Y-112370449D01*
X166089278Y-112371598D01*
X166065148Y-112344021D02*
X166076639Y-112344021D01*
X166077788Y-112355511D01*
X166076639Y-112354362D01*
X166074341Y-112353213D01*
X166068595Y-112353213D01*
X166066297Y-112354362D01*
X166065148Y-112355511D01*
X166063999Y-112357810D01*
X166063999Y-112363555D01*
X166065148Y-112365853D01*
X166066297Y-112367002D01*
X166068595Y-112368151D01*
X166074341Y-112368151D01*
X166076639Y-112367002D01*
X166077788Y-112365853D01*
X166043316Y-112352064D02*
X166043316Y-112368151D01*
X166049062Y-112342872D02*
X166054807Y-112360108D01*
X166039869Y-112360108D01*
X190137002Y-88381021D02*
X190123213Y-88381021D01*
X190130108Y-88405151D02*
X190130108Y-88381021D01*
X190115170Y-88405151D02*
X190115170Y-88381021D01*
X190105977Y-88381021D01*
X190103679Y-88382170D01*
X190102530Y-88383319D01*
X190101381Y-88385617D01*
X190101381Y-88389064D01*
X190102530Y-88391362D01*
X190103679Y-88392511D01*
X190105977Y-88393660D01*
X190115170Y-88393660D01*
X190082996Y-88392511D02*
X190079549Y-88393660D01*
X190078400Y-88394810D01*
X190077251Y-88397108D01*
X190077251Y-88400555D01*
X190078400Y-88402853D01*
X190079549Y-88404002D01*
X190081847Y-88405151D01*
X190091040Y-88405151D01*
X190091040Y-88381021D01*
X190082996Y-88381021D01*
X190080698Y-88382170D01*
X190079549Y-88383319D01*
X190078400Y-88385617D01*
X190078400Y-88387915D01*
X190079549Y-88390213D01*
X190080698Y-88391362D01*
X190082996Y-88392511D01*
X190091040Y-88392511D01*
X190068059Y-88383319D02*
X190066910Y-88382170D01*
X190064612Y-88381021D01*
X190058866Y-88381021D01*
X190056568Y-88382170D01*
X190055419Y-88383319D01*
X190054270Y-88385617D01*
X190054270Y-88387915D01*
X190055419Y-88391362D01*
X190069208Y-88405151D01*
X190054270Y-88405151D01*
X190042780Y-88404002D02*
X190042780Y-88405151D01*
X190043929Y-88407449D01*
X190045078Y-88408598D01*
X190020948Y-88381021D02*
X190032439Y-88381021D01*
X190033588Y-88392511D01*
X190032439Y-88391362D01*
X190030141Y-88390213D01*
X190024395Y-88390213D01*
X190022097Y-88391362D01*
X190020948Y-88392511D01*
X190019799Y-88394810D01*
X190019799Y-88400555D01*
X190020948Y-88402853D01*
X190022097Y-88404002D01*
X190024395Y-88405151D01*
X190030141Y-88405151D01*
X190032439Y-88404002D01*
X190033588Y-88402853D01*
X189999116Y-88389064D02*
X189999116Y-88405151D01*
X190004862Y-88379872D02*
X190010607Y-88397108D01*
X189995669Y-88397108D01*
X162095002Y-116223621D02*
X162081213Y-116223621D01*
X162088108Y-116247751D02*
X162088108Y-116223621D01*
X162073170Y-116247751D02*
X162073170Y-116223621D01*
X162063977Y-116223621D01*
X162061679Y-116224770D01*
X162060530Y-116225919D01*
X162059381Y-116228217D01*
X162059381Y-116231664D01*
X162060530Y-116233962D01*
X162061679Y-116235111D01*
X162063977Y-116236260D01*
X162073170Y-116236260D01*
X162040996Y-116235111D02*
X162037549Y-116236260D01*
X162036400Y-116237410D01*
X162035251Y-116239708D01*
X162035251Y-116243155D01*
X162036400Y-116245453D01*
X162037549Y-116246602D01*
X162039847Y-116247751D01*
X162049040Y-116247751D01*
X162049040Y-116223621D01*
X162040996Y-116223621D01*
X162038698Y-116224770D01*
X162037549Y-116225919D01*
X162036400Y-116228217D01*
X162036400Y-116230515D01*
X162037549Y-116232813D01*
X162038698Y-116233962D01*
X162040996Y-116235111D01*
X162049040Y-116235111D01*
X162026059Y-116225919D02*
X162024910Y-116224770D01*
X162022612Y-116223621D01*
X162016866Y-116223621D01*
X162014568Y-116224770D01*
X162013419Y-116225919D01*
X162012270Y-116228217D01*
X162012270Y-116230515D01*
X162013419Y-116233962D01*
X162027208Y-116247751D01*
X162012270Y-116247751D01*
X162000780Y-116246602D02*
X162000780Y-116247751D01*
X162001929Y-116250049D01*
X162003078Y-116251198D01*
X161978948Y-116223621D02*
X161990439Y-116223621D01*
X161991588Y-116235111D01*
X161990439Y-116233962D01*
X161988141Y-116232813D01*
X161982395Y-116232813D01*
X161980097Y-116233962D01*
X161978948Y-116235111D01*
X161977799Y-116237410D01*
X161977799Y-116243155D01*
X161978948Y-116245453D01*
X161980097Y-116246602D01*
X161982395Y-116247751D01*
X161988141Y-116247751D01*
X161990439Y-116246602D01*
X161991588Y-116245453D01*
X161957116Y-116231664D02*
X161957116Y-116247751D01*
X161962862Y-116222472D02*
X161968607Y-116239708D01*
X161953669Y-116239708D01*
X194107002Y-84255821D02*
X194093213Y-84255821D01*
X194100108Y-84279951D02*
X194100108Y-84255821D01*
X194085170Y-84279951D02*
X194085170Y-84255821D01*
X194075977Y-84255821D01*
X194073679Y-84256970D01*
X194072530Y-84258119D01*
X194071381Y-84260417D01*
X194071381Y-84263864D01*
X194072530Y-84266162D01*
X194073679Y-84267311D01*
X194075977Y-84268460D01*
X194085170Y-84268460D01*
X194052996Y-84267311D02*
X194049549Y-84268460D01*
X194048400Y-84269610D01*
X194047251Y-84271908D01*
X194047251Y-84275355D01*
X194048400Y-84277653D01*
X194049549Y-84278802D01*
X194051847Y-84279951D01*
X194061040Y-84279951D01*
X194061040Y-84255821D01*
X194052996Y-84255821D01*
X194050698Y-84256970D01*
X194049549Y-84258119D01*
X194048400Y-84260417D01*
X194048400Y-84262715D01*
X194049549Y-84265013D01*
X194050698Y-84266162D01*
X194052996Y-84267311D01*
X194061040Y-84267311D01*
X194038059Y-84258119D02*
X194036910Y-84256970D01*
X194034612Y-84255821D01*
X194028866Y-84255821D01*
X194026568Y-84256970D01*
X194025419Y-84258119D01*
X194024270Y-84260417D01*
X194024270Y-84262715D01*
X194025419Y-84266162D01*
X194039208Y-84279951D01*
X194024270Y-84279951D01*
X194012780Y-84278802D02*
X194012780Y-84279951D01*
X194013929Y-84282249D01*
X194015078Y-84283398D01*
X193990948Y-84255821D02*
X194002439Y-84255821D01*
X194003588Y-84267311D01*
X194002439Y-84266162D01*
X194000141Y-84265013D01*
X193994395Y-84265013D01*
X193992097Y-84266162D01*
X193990948Y-84267311D01*
X193989799Y-84269610D01*
X193989799Y-84275355D01*
X193990948Y-84277653D01*
X193992097Y-84278802D01*
X193994395Y-84279951D01*
X194000141Y-84279951D01*
X194002439Y-84278802D01*
X194003588Y-84277653D01*
X193969116Y-84263864D02*
X193969116Y-84279951D01*
X193974862Y-84254672D02*
X193980607Y-84271908D01*
X193965669Y-84271908D01*
M02*
