G04 #@! TF.FileFunction,Copper,L1,Top,Signal*
%FSLAX46Y46*%
G04 Gerber Fmt 4.6, Leading zero omitted, Abs format (unit mm)*
G04 Created by KiCad (PCBNEW 4.0.6) date 07/21/17 09:20:33*
%MOMM*%
%LPD*%
G01*
G04 APERTURE LIST*
%ADD10C,0.100000*%
%ADD11R,1.500000X1.300000*%
%ADD12R,2.400000X2.000000*%
%ADD13R,2.308000X0.500000*%
%ADD14R,1.300000X1.500000*%
%ADD15R,2.032000X0.660400*%
%ADD16R,1.100000X1.000000*%
%ADD17R,2.000000X1.500000*%
%ADD18R,2.000000X3.800000*%
%ADD19R,1.200000X1.200000*%
%ADD20R,1.270000X5.080000*%
%ADD21O,3.581400X1.790700*%
%ADD22R,5.080000X1.270000*%
%ADD23R,1.500000X2.000000*%
%ADD24C,2.400000*%
%ADD25C,1.500000*%
%ADD26C,1.206400*%
%ADD27C,1.006400*%
%ADD28C,1.350000*%
%ADD29C,0.304800*%
%ADD30C,1.016000*%
%ADD31C,0.812800*%
%ADD32C,0.406400*%
%ADD33C,1.270000*%
%ADD34C,3.810000*%
%ADD35C,2.184400*%
%ADD36C,1.422400*%
G04 APERTURE END LIST*
D10*
D11*
X169252900Y-129313900D03*
X169252900Y-131213900D03*
X172707300Y-129263100D03*
X172707300Y-131163100D03*
X155206700Y-117624900D03*
X155206700Y-115724900D03*
D12*
X129242700Y-104908900D03*
D13*
X129806700Y-107708900D03*
X129806700Y-108508900D03*
X129806700Y-109308900D03*
X129806700Y-110108900D03*
X129806700Y-110908900D03*
D12*
X123742700Y-104908900D03*
X129242700Y-113708900D03*
X123742700Y-113708900D03*
D14*
X137899100Y-111569500D03*
X139799100Y-111569500D03*
X141907300Y-127292100D03*
X140007300Y-127292100D03*
X160428900Y-131102100D03*
X162328900Y-131102100D03*
D11*
X165900100Y-131137700D03*
X165900100Y-129237700D03*
D14*
X137899100Y-113550700D03*
X139799100Y-113550700D03*
X137899100Y-115531900D03*
X139799100Y-115531900D03*
D15*
X154724100Y-131330700D03*
X148577300Y-131330700D03*
X154724100Y-130060700D03*
X154724100Y-128790700D03*
X148577300Y-130060700D03*
X148577300Y-128790700D03*
X154724100Y-127520700D03*
X148577300Y-127520700D03*
D10*
G36*
X157147143Y-117999888D02*
X156935011Y-117787756D01*
X157783539Y-116939228D01*
X157995671Y-117151360D01*
X157147143Y-117999888D01*
X157147143Y-117999888D01*
G37*
G36*
X157500696Y-118353442D02*
X157288564Y-118141310D01*
X158137092Y-117292782D01*
X158349224Y-117504914D01*
X157500696Y-118353442D01*
X157500696Y-118353442D01*
G37*
G36*
X157854250Y-118706995D02*
X157642118Y-118494863D01*
X158490646Y-117646335D01*
X158702778Y-117858467D01*
X157854250Y-118706995D01*
X157854250Y-118706995D01*
G37*
G36*
X158207803Y-119060548D02*
X157995671Y-118848416D01*
X158844199Y-117999888D01*
X159056331Y-118212020D01*
X158207803Y-119060548D01*
X158207803Y-119060548D01*
G37*
G36*
X158561356Y-119414102D02*
X158349224Y-119201970D01*
X159197752Y-118353442D01*
X159409884Y-118565574D01*
X158561356Y-119414102D01*
X158561356Y-119414102D01*
G37*
G36*
X158914910Y-119767655D02*
X158702778Y-119555523D01*
X159551306Y-118706995D01*
X159763438Y-118919127D01*
X158914910Y-119767655D01*
X158914910Y-119767655D01*
G37*
G36*
X159268463Y-120121209D02*
X159056331Y-119909077D01*
X159904859Y-119060549D01*
X160116991Y-119272681D01*
X159268463Y-120121209D01*
X159268463Y-120121209D01*
G37*
G36*
X159622017Y-120474762D02*
X159409885Y-120262630D01*
X160258413Y-119414102D01*
X160470545Y-119626234D01*
X159622017Y-120474762D01*
X159622017Y-120474762D01*
G37*
G36*
X159975570Y-120828315D02*
X159763438Y-120616183D01*
X160611966Y-119767655D01*
X160824098Y-119979787D01*
X159975570Y-120828315D01*
X159975570Y-120828315D01*
G37*
G36*
X160329123Y-121181869D02*
X160116991Y-120969737D01*
X160965519Y-120121209D01*
X161177651Y-120333341D01*
X160329123Y-121181869D01*
X160329123Y-121181869D01*
G37*
G36*
X160682677Y-121535422D02*
X160470545Y-121323290D01*
X161319073Y-120474762D01*
X161531205Y-120686894D01*
X160682677Y-121535422D01*
X160682677Y-121535422D01*
G37*
G36*
X161036230Y-121888976D02*
X160824098Y-121676844D01*
X161672626Y-120828316D01*
X161884758Y-121040448D01*
X161036230Y-121888976D01*
X161036230Y-121888976D01*
G37*
G36*
X161389784Y-122242529D02*
X161177652Y-122030397D01*
X162026180Y-121181869D01*
X162238312Y-121394001D01*
X161389784Y-122242529D01*
X161389784Y-122242529D01*
G37*
G36*
X161743337Y-122596082D02*
X161531205Y-122383950D01*
X162379733Y-121535422D01*
X162591865Y-121747554D01*
X161743337Y-122596082D01*
X161743337Y-122596082D01*
G37*
G36*
X162096890Y-122949636D02*
X161884758Y-122737504D01*
X162733286Y-121888976D01*
X162945418Y-122101108D01*
X162096890Y-122949636D01*
X162096890Y-122949636D01*
G37*
G36*
X162450444Y-123303189D02*
X162238312Y-123091057D01*
X163086840Y-122242529D01*
X163298972Y-122454661D01*
X162450444Y-123303189D01*
X162450444Y-123303189D01*
G37*
G36*
X165844556Y-123303189D02*
X164996028Y-122454661D01*
X165208160Y-122242529D01*
X166056688Y-123091057D01*
X165844556Y-123303189D01*
X165844556Y-123303189D01*
G37*
G36*
X166198110Y-122949636D02*
X165349582Y-122101108D01*
X165561714Y-121888976D01*
X166410242Y-122737504D01*
X166198110Y-122949636D01*
X166198110Y-122949636D01*
G37*
G36*
X166551663Y-122596082D02*
X165703135Y-121747554D01*
X165915267Y-121535422D01*
X166763795Y-122383950D01*
X166551663Y-122596082D01*
X166551663Y-122596082D01*
G37*
G36*
X166905216Y-122242529D02*
X166056688Y-121394001D01*
X166268820Y-121181869D01*
X167117348Y-122030397D01*
X166905216Y-122242529D01*
X166905216Y-122242529D01*
G37*
G36*
X167258770Y-121888976D02*
X166410242Y-121040448D01*
X166622374Y-120828316D01*
X167470902Y-121676844D01*
X167258770Y-121888976D01*
X167258770Y-121888976D01*
G37*
G36*
X167612323Y-121535422D02*
X166763795Y-120686894D01*
X166975927Y-120474762D01*
X167824455Y-121323290D01*
X167612323Y-121535422D01*
X167612323Y-121535422D01*
G37*
G36*
X167965877Y-121181869D02*
X167117349Y-120333341D01*
X167329481Y-120121209D01*
X168178009Y-120969737D01*
X167965877Y-121181869D01*
X167965877Y-121181869D01*
G37*
G36*
X168319430Y-120828315D02*
X167470902Y-119979787D01*
X167683034Y-119767655D01*
X168531562Y-120616183D01*
X168319430Y-120828315D01*
X168319430Y-120828315D01*
G37*
G36*
X168672983Y-120474762D02*
X167824455Y-119626234D01*
X168036587Y-119414102D01*
X168885115Y-120262630D01*
X168672983Y-120474762D01*
X168672983Y-120474762D01*
G37*
G36*
X169026537Y-120121209D02*
X168178009Y-119272681D01*
X168390141Y-119060549D01*
X169238669Y-119909077D01*
X169026537Y-120121209D01*
X169026537Y-120121209D01*
G37*
G36*
X169380090Y-119767655D02*
X168531562Y-118919127D01*
X168743694Y-118706995D01*
X169592222Y-119555523D01*
X169380090Y-119767655D01*
X169380090Y-119767655D01*
G37*
G36*
X169733644Y-119414102D02*
X168885116Y-118565574D01*
X169097248Y-118353442D01*
X169945776Y-119201970D01*
X169733644Y-119414102D01*
X169733644Y-119414102D01*
G37*
G36*
X170087197Y-119060548D02*
X169238669Y-118212020D01*
X169450801Y-117999888D01*
X170299329Y-118848416D01*
X170087197Y-119060548D01*
X170087197Y-119060548D01*
G37*
G36*
X170440750Y-118706995D02*
X169592222Y-117858467D01*
X169804354Y-117646335D01*
X170652882Y-118494863D01*
X170440750Y-118706995D01*
X170440750Y-118706995D01*
G37*
G36*
X170794304Y-118353442D02*
X169945776Y-117504914D01*
X170157908Y-117292782D01*
X171006436Y-118141310D01*
X170794304Y-118353442D01*
X170794304Y-118353442D01*
G37*
G36*
X171147857Y-117999888D02*
X170299329Y-117151360D01*
X170511461Y-116939228D01*
X171359989Y-117787756D01*
X171147857Y-117999888D01*
X171147857Y-117999888D01*
G37*
G36*
X170511461Y-115242172D02*
X170299329Y-115030040D01*
X171147857Y-114181512D01*
X171359989Y-114393644D01*
X170511461Y-115242172D01*
X170511461Y-115242172D01*
G37*
G36*
X170157908Y-114888618D02*
X169945776Y-114676486D01*
X170794304Y-113827958D01*
X171006436Y-114040090D01*
X170157908Y-114888618D01*
X170157908Y-114888618D01*
G37*
G36*
X169804354Y-114535065D02*
X169592222Y-114322933D01*
X170440750Y-113474405D01*
X170652882Y-113686537D01*
X169804354Y-114535065D01*
X169804354Y-114535065D01*
G37*
G36*
X169450801Y-114181512D02*
X169238669Y-113969380D01*
X170087197Y-113120852D01*
X170299329Y-113332984D01*
X169450801Y-114181512D01*
X169450801Y-114181512D01*
G37*
G36*
X169097248Y-113827958D02*
X168885116Y-113615826D01*
X169733644Y-112767298D01*
X169945776Y-112979430D01*
X169097248Y-113827958D01*
X169097248Y-113827958D01*
G37*
G36*
X168743694Y-113474405D02*
X168531562Y-113262273D01*
X169380090Y-112413745D01*
X169592222Y-112625877D01*
X168743694Y-113474405D01*
X168743694Y-113474405D01*
G37*
G36*
X168390141Y-113120851D02*
X168178009Y-112908719D01*
X169026537Y-112060191D01*
X169238669Y-112272323D01*
X168390141Y-113120851D01*
X168390141Y-113120851D01*
G37*
G36*
X168036587Y-112767298D02*
X167824455Y-112555166D01*
X168672983Y-111706638D01*
X168885115Y-111918770D01*
X168036587Y-112767298D01*
X168036587Y-112767298D01*
G37*
G36*
X167683034Y-112413745D02*
X167470902Y-112201613D01*
X168319430Y-111353085D01*
X168531562Y-111565217D01*
X167683034Y-112413745D01*
X167683034Y-112413745D01*
G37*
G36*
X167329481Y-112060191D02*
X167117349Y-111848059D01*
X167965877Y-110999531D01*
X168178009Y-111211663D01*
X167329481Y-112060191D01*
X167329481Y-112060191D01*
G37*
G36*
X166975927Y-111706638D02*
X166763795Y-111494506D01*
X167612323Y-110645978D01*
X167824455Y-110858110D01*
X166975927Y-111706638D01*
X166975927Y-111706638D01*
G37*
G36*
X166622374Y-111353084D02*
X166410242Y-111140952D01*
X167258770Y-110292424D01*
X167470902Y-110504556D01*
X166622374Y-111353084D01*
X166622374Y-111353084D01*
G37*
G36*
X166268820Y-110999531D02*
X166056688Y-110787399D01*
X166905216Y-109938871D01*
X167117348Y-110151003D01*
X166268820Y-110999531D01*
X166268820Y-110999531D01*
G37*
G36*
X165915267Y-110645978D02*
X165703135Y-110433846D01*
X166551663Y-109585318D01*
X166763795Y-109797450D01*
X165915267Y-110645978D01*
X165915267Y-110645978D01*
G37*
G36*
X165561714Y-110292424D02*
X165349582Y-110080292D01*
X166198110Y-109231764D01*
X166410242Y-109443896D01*
X165561714Y-110292424D01*
X165561714Y-110292424D01*
G37*
G36*
X165208160Y-109938871D02*
X164996028Y-109726739D01*
X165844556Y-108878211D01*
X166056688Y-109090343D01*
X165208160Y-109938871D01*
X165208160Y-109938871D01*
G37*
G36*
X163086840Y-109938871D02*
X162238312Y-109090343D01*
X162450444Y-108878211D01*
X163298972Y-109726739D01*
X163086840Y-109938871D01*
X163086840Y-109938871D01*
G37*
G36*
X162733286Y-110292424D02*
X161884758Y-109443896D01*
X162096890Y-109231764D01*
X162945418Y-110080292D01*
X162733286Y-110292424D01*
X162733286Y-110292424D01*
G37*
G36*
X162379733Y-110645978D02*
X161531205Y-109797450D01*
X161743337Y-109585318D01*
X162591865Y-110433846D01*
X162379733Y-110645978D01*
X162379733Y-110645978D01*
G37*
G36*
X162026180Y-110999531D02*
X161177652Y-110151003D01*
X161389784Y-109938871D01*
X162238312Y-110787399D01*
X162026180Y-110999531D01*
X162026180Y-110999531D01*
G37*
G36*
X161672626Y-111353084D02*
X160824098Y-110504556D01*
X161036230Y-110292424D01*
X161884758Y-111140952D01*
X161672626Y-111353084D01*
X161672626Y-111353084D01*
G37*
G36*
X161319073Y-111706638D02*
X160470545Y-110858110D01*
X160682677Y-110645978D01*
X161531205Y-111494506D01*
X161319073Y-111706638D01*
X161319073Y-111706638D01*
G37*
G36*
X160965519Y-112060191D02*
X160116991Y-111211663D01*
X160329123Y-110999531D01*
X161177651Y-111848059D01*
X160965519Y-112060191D01*
X160965519Y-112060191D01*
G37*
G36*
X160611966Y-112413745D02*
X159763438Y-111565217D01*
X159975570Y-111353085D01*
X160824098Y-112201613D01*
X160611966Y-112413745D01*
X160611966Y-112413745D01*
G37*
G36*
X160258413Y-112767298D02*
X159409885Y-111918770D01*
X159622017Y-111706638D01*
X160470545Y-112555166D01*
X160258413Y-112767298D01*
X160258413Y-112767298D01*
G37*
G36*
X159904859Y-113120851D02*
X159056331Y-112272323D01*
X159268463Y-112060191D01*
X160116991Y-112908719D01*
X159904859Y-113120851D01*
X159904859Y-113120851D01*
G37*
G36*
X159551306Y-113474405D02*
X158702778Y-112625877D01*
X158914910Y-112413745D01*
X159763438Y-113262273D01*
X159551306Y-113474405D01*
X159551306Y-113474405D01*
G37*
G36*
X159197752Y-113827958D02*
X158349224Y-112979430D01*
X158561356Y-112767298D01*
X159409884Y-113615826D01*
X159197752Y-113827958D01*
X159197752Y-113827958D01*
G37*
G36*
X158844199Y-114181512D02*
X157995671Y-113332984D01*
X158207803Y-113120852D01*
X159056331Y-113969380D01*
X158844199Y-114181512D01*
X158844199Y-114181512D01*
G37*
G36*
X158490646Y-114535065D02*
X157642118Y-113686537D01*
X157854250Y-113474405D01*
X158702778Y-114322933D01*
X158490646Y-114535065D01*
X158490646Y-114535065D01*
G37*
G36*
X158137092Y-114888618D02*
X157288564Y-114040090D01*
X157500696Y-113827958D01*
X158349224Y-114676486D01*
X158137092Y-114888618D01*
X158137092Y-114888618D01*
G37*
G36*
X157783539Y-115242172D02*
X156935011Y-114393644D01*
X157147143Y-114181512D01*
X157995671Y-115030040D01*
X157783539Y-115242172D01*
X157783539Y-115242172D01*
G37*
D11*
X174205900Y-111000500D03*
X174205900Y-112900500D03*
X174231300Y-117243900D03*
X174231300Y-115343900D03*
D16*
X171425500Y-104152700D03*
X173125500Y-104152700D03*
D11*
X173443900Y-101140300D03*
X173443900Y-99240300D03*
X169862500Y-101140300D03*
X169862500Y-99240300D03*
D14*
X164995900Y-105219500D03*
X163095900Y-105219500D03*
D11*
X167373300Y-99214900D03*
X167373300Y-101114900D03*
D14*
X139799100Y-109588300D03*
X137899100Y-109588300D03*
X122608300Y-131737100D03*
X124508300Y-131737100D03*
X122659100Y-125514100D03*
X124559100Y-125514100D03*
X122633700Y-128511300D03*
X124533700Y-128511300D03*
D17*
X129019700Y-122048300D03*
X129019700Y-119748300D03*
X129019700Y-117448300D03*
D18*
X122719700Y-119748300D03*
D19*
X159905700Y-127148300D03*
X159905700Y-125048300D03*
D11*
X162369500Y-127073700D03*
X162369500Y-125173700D03*
D19*
X172199300Y-88421500D03*
X172199300Y-90521500D03*
D11*
X174282100Y-88419900D03*
X174282100Y-90319900D03*
D20*
X139687300Y-101536500D03*
X141744700Y-101612700D03*
X143725900Y-102120700D03*
X145757900Y-102095300D03*
X147764500Y-102095300D03*
X149771100Y-102095300D03*
X151752300Y-102095300D03*
X153758900Y-102120700D03*
X155765500Y-101384100D03*
X157695900Y-101409500D03*
X157721300Y-80124300D03*
X155765500Y-80149700D03*
X153758900Y-80124300D03*
X151752300Y-80149700D03*
X149771100Y-80124300D03*
X147764500Y-80149700D03*
X145732500Y-80124300D03*
X143725900Y-80124300D03*
X141744700Y-80124300D03*
X139712700Y-80098900D03*
D21*
X126352300Y-94736300D03*
X126352300Y-89736300D03*
X126352300Y-84736300D03*
X126352300Y-79736300D03*
D22*
X139357100Y-89192100D03*
X139585700Y-94272100D03*
D23*
X136588500Y-122013500D03*
X136588500Y-119413500D03*
D24*
X156476700Y-105803700D03*
X148475700Y-97802700D03*
X140474700Y-105803700D03*
X148450300Y-113804700D03*
D25*
X126758700Y-107099100D03*
X126784100Y-111493300D03*
D26*
X142532100Y-109562900D03*
X167652700Y-106133900D03*
X167881300Y-125971300D03*
X143878300Y-113601500D03*
X166179500Y-125996700D03*
X145656300Y-115582700D03*
X157213300Y-131356100D03*
X172986700Y-125920500D03*
X157111700Y-127546100D03*
X171259500Y-125971300D03*
X142049500Y-125285500D03*
X132524500Y-124371100D03*
X174231300Y-119849900D03*
X159753300Y-101536500D03*
D27*
X138341100Y-94272100D03*
X174205900Y-96278700D03*
X136842500Y-108496100D03*
X140169900Y-122008900D03*
D26*
X151625300Y-125691900D03*
X132880100Y-130035300D03*
X167424100Y-92671900D03*
X167474900Y-97218500D03*
D28*
X131991100Y-117487700D03*
D27*
X134226300Y-89065100D03*
D26*
X130416300Y-127927100D03*
X144233900Y-126606300D03*
X147205700Y-121196100D03*
X160921700Y-108242100D03*
D27*
X136791700Y-129527300D03*
X148043900Y-126072900D03*
X158661100Y-110248700D03*
X159532284Y-122473681D03*
D26*
X127241300Y-128536700D03*
X169608500Y-125971300D03*
D27*
X150507700Y-119367300D03*
X155257500Y-119418100D03*
X157238700Y-120002300D03*
X152158700Y-117817900D03*
X153301700Y-115938300D03*
X153073100Y-111061500D03*
D26*
X170065700Y-92468700D03*
D27*
X160337500Y-103619300D03*
D29*
X129806700Y-110108900D02*
X134797700Y-110108900D01*
X134797700Y-110108900D02*
X135369300Y-110680500D01*
X135369300Y-110680500D02*
X135369300Y-112814100D01*
X135369300Y-112814100D02*
X136131300Y-113576100D01*
X136131300Y-113576100D02*
X137873700Y-113576100D01*
X137873700Y-113576100D02*
X137899100Y-113550700D01*
X129806700Y-110908900D02*
X133972100Y-110908900D01*
X133972100Y-110908900D02*
X134632700Y-111569500D01*
X134632700Y-111569500D02*
X134632700Y-114185700D01*
X134632700Y-114185700D02*
X135902700Y-115455700D01*
X135902700Y-115455700D02*
X137822900Y-115455700D01*
X137822900Y-115455700D02*
X137899100Y-115531900D01*
X139799100Y-109588300D02*
X139799100Y-111569500D01*
X167652700Y-108038900D02*
X167652700Y-106133900D01*
X167652700Y-106133900D02*
X167652700Y-101394300D01*
X167652700Y-101394300D02*
X167373300Y-101114900D01*
X165879909Y-109762097D02*
X165929503Y-109762097D01*
X165929503Y-109762097D02*
X167652700Y-108038900D01*
X139799100Y-109588300D02*
X142582900Y-109588300D01*
X142582900Y-109588300D02*
X142532100Y-109562900D01*
X166940569Y-121358647D02*
X166940569Y-121423769D01*
X166940569Y-121423769D02*
X168363900Y-122847100D01*
X168363900Y-122847100D02*
X168363900Y-124802900D01*
X168363900Y-124802900D02*
X167957500Y-125209300D01*
X167957500Y-125209300D02*
X167957500Y-125793500D01*
X167957500Y-125793500D02*
X167881300Y-125971300D01*
X143878300Y-113601500D02*
X139849900Y-113601500D01*
X139849900Y-113601500D02*
X139799100Y-113550700D01*
X166587016Y-121712200D02*
X166587016Y-121730616D01*
X166587016Y-121730616D02*
X167601900Y-122745500D01*
X167601900Y-122745500D02*
X167601900Y-123659900D01*
X167601900Y-123659900D02*
X166560500Y-124726700D01*
X166560500Y-124726700D02*
X166484300Y-124828300D01*
X166484300Y-124828300D02*
X166179500Y-125107700D01*
X166179500Y-125107700D02*
X166179500Y-125996700D01*
X145656300Y-115582700D02*
X139875300Y-115608100D01*
X139875300Y-115608100D02*
X139799100Y-115531900D01*
X154724100Y-131330700D02*
X157187900Y-131330700D01*
X157187900Y-131330700D02*
X157213300Y-131356100D01*
X172986700Y-125920500D02*
X173012100Y-122531228D01*
X173012100Y-122531228D02*
X169415444Y-118883772D01*
X154724100Y-127520700D02*
X157086300Y-127520700D01*
X157086300Y-127520700D02*
X157111700Y-127546100D01*
X171259500Y-125971300D02*
X171259500Y-121434937D01*
X171259500Y-121434937D02*
X169061891Y-119237328D01*
D30*
X148577300Y-128790700D02*
X143405900Y-128790700D01*
X143405900Y-128790700D02*
X142049500Y-127434300D01*
X142049500Y-127434300D02*
X141907300Y-127292100D01*
X142049500Y-125285500D02*
X142049500Y-127434300D01*
D29*
X160428900Y-131102100D02*
X160428900Y-131620300D01*
X160428900Y-131620300D02*
X159194500Y-132854700D01*
X159194500Y-132854700D02*
X150101300Y-132854700D01*
X150101300Y-132854700D02*
X148577300Y-131330700D01*
D30*
X148577300Y-130060700D02*
X141008100Y-130060700D01*
X141008100Y-130060700D02*
X140017500Y-129070100D01*
X140017500Y-129070100D02*
X140017500Y-127302300D01*
X140017500Y-127302300D02*
X140007300Y-127292100D01*
X140007300Y-127292100D02*
X133743700Y-127292100D01*
X133743700Y-127292100D02*
X132499100Y-126047500D01*
X132499100Y-126047500D02*
X132499100Y-124142500D01*
X132499100Y-124142500D02*
X132524500Y-124371100D01*
D29*
X169252900Y-129313900D02*
X165976300Y-129313900D01*
X165976300Y-129313900D02*
X165900100Y-129237700D01*
X169768997Y-118530219D02*
X169812819Y-118530219D01*
X169252900Y-129313900D02*
X169252900Y-128866900D01*
X169252900Y-128866900D02*
X170319700Y-127800100D01*
X170319700Y-127800100D02*
X173393100Y-127800100D01*
X173393100Y-127800100D02*
X174129700Y-127063500D01*
X174129700Y-127063500D02*
X174129700Y-122890922D01*
X174129700Y-122890922D02*
X169768997Y-118530219D01*
X172707300Y-129263100D02*
X174190700Y-129263100D01*
X174190700Y-129263100D02*
X174917100Y-128536700D01*
X174917100Y-128536700D02*
X174917100Y-122971216D01*
X174917100Y-122971216D02*
X170122550Y-118176666D01*
X155206700Y-117624900D02*
X157310000Y-117624900D01*
X157310000Y-117624900D02*
X157465341Y-117469559D01*
X165747700Y-130350300D02*
X165900100Y-131137700D01*
D31*
X162328900Y-131102100D02*
X162328900Y-130263900D01*
X162328900Y-131102100D02*
X165864500Y-131102100D01*
X165864500Y-131102100D02*
X165900100Y-131137700D01*
X165900100Y-131137700D02*
X169176700Y-131137700D01*
X169176700Y-131137700D02*
X169252900Y-131213900D01*
X169252900Y-131213900D02*
X172605700Y-131213900D01*
X172605700Y-131213900D02*
X172707300Y-131163100D01*
D29*
X154724100Y-130060700D02*
X157594300Y-130060700D01*
X157594300Y-130060700D02*
X158381700Y-129273300D01*
X158381700Y-129273300D02*
X161338300Y-129273300D01*
X161338300Y-129273300D02*
X162328900Y-130263900D01*
X129806700Y-108508900D02*
X136819700Y-108508900D01*
X136819700Y-108508900D02*
X137899100Y-109588300D01*
X173443900Y-99240300D02*
X169862500Y-99240300D01*
X174231300Y-117243900D02*
X174231300Y-119849900D01*
X174256700Y-98427500D02*
X173443900Y-99240300D01*
X159778700Y-101841300D02*
X159753300Y-101536500D01*
X165526356Y-122772859D02*
X165470259Y-122772859D01*
X165470259Y-122772859D02*
X162471100Y-119773700D01*
X162471100Y-119773700D02*
X161525159Y-119773700D01*
X161525159Y-119773700D02*
X160647319Y-120651541D01*
D32*
X163095900Y-105219500D02*
X163095900Y-102948700D01*
X163095900Y-102948700D02*
X162090100Y-101942900D01*
X162090100Y-101942900D02*
X159829500Y-101942900D01*
X159829500Y-101942900D02*
X159753300Y-101536500D01*
D29*
X162768641Y-109408544D02*
X162768641Y-105546759D01*
D32*
X162768641Y-105546759D02*
X163095900Y-105219500D01*
D29*
X162768641Y-109408544D02*
X162824744Y-109408544D01*
X162824744Y-109408544D02*
X163842700Y-110426500D01*
X163842700Y-110426500D02*
X163842700Y-111696500D01*
X163842700Y-111696500D02*
X162521900Y-113017300D01*
X162521900Y-113017300D02*
X162521900Y-113042700D01*
X162521900Y-113042700D02*
X161963100Y-113601500D01*
X161963100Y-113601500D02*
X161304744Y-113601500D01*
X161304744Y-113601500D02*
X159940213Y-112236969D01*
X161525159Y-119773700D02*
X161525159Y-116471700D01*
X161525159Y-116471700D02*
X161525159Y-114039441D01*
X161525159Y-114039441D02*
X161963100Y-113601500D01*
D33*
X157695900Y-101409500D02*
X159753300Y-101358700D01*
X159753300Y-101358700D02*
X159753300Y-101536500D01*
D34*
X139585700Y-94272100D02*
X138341100Y-94272100D01*
D32*
X162090100Y-101942900D02*
X163258500Y-100774500D01*
X163258500Y-100774500D02*
X163258500Y-97015300D01*
X163258500Y-97015300D02*
X165087300Y-95186500D01*
X165087300Y-95186500D02*
X172859700Y-95186500D01*
X172859700Y-95186500D02*
X173012813Y-95186500D01*
X173012813Y-95186500D02*
X174206009Y-96379697D01*
X174206009Y-96379697D02*
X174206009Y-98478191D01*
X174206009Y-98478191D02*
X173443900Y-99240300D01*
X174205900Y-96278700D02*
X174205900Y-98478300D01*
X174205900Y-98478300D02*
X173443900Y-99240300D01*
X174282100Y-90319900D02*
X174282100Y-93764100D01*
X174282100Y-93764100D02*
X172859700Y-95186500D01*
D29*
X137899100Y-109588300D02*
X137899100Y-109552700D01*
X137899100Y-109552700D02*
X136842500Y-108496100D01*
X155206700Y-115724900D02*
X160778359Y-115724900D01*
X160778359Y-115724900D02*
X161525159Y-116471700D01*
X165526356Y-122772859D02*
X165526356Y-124059044D01*
X165526356Y-124059044D02*
X164376100Y-125209300D01*
X164376100Y-125209300D02*
X164147500Y-125209300D01*
X162405100Y-125209300D02*
X162369500Y-125173700D01*
X162405100Y-125209300D02*
X164147500Y-125209300D01*
X164147500Y-125209300D02*
X164477700Y-125539500D01*
X164477700Y-125539500D02*
X164477700Y-126758700D01*
X164477700Y-126758700D02*
X163969700Y-127266700D01*
X163969700Y-127266700D02*
X163969700Y-129400300D01*
X163969700Y-129400300D02*
X163334700Y-130035300D01*
X163334700Y-130035300D02*
X162557500Y-130035300D01*
X162557500Y-130035300D02*
X162328900Y-130263900D01*
D35*
X129019700Y-122048300D02*
X140130500Y-122048300D01*
X140130500Y-122048300D02*
X140169900Y-122008900D01*
D29*
X136588500Y-122013500D02*
X128896900Y-122013500D01*
X128896900Y-122013500D02*
X128866900Y-121983500D01*
X128866900Y-121983500D02*
X128968500Y-121983500D01*
X128968500Y-121983500D02*
X129070100Y-122085100D01*
D34*
X126352300Y-89736300D02*
X127810900Y-89736300D01*
X127810900Y-89736300D02*
X132473700Y-94399100D01*
X132473700Y-94399100D02*
X138214100Y-94399100D01*
X138214100Y-94399100D02*
X138341100Y-94272100D01*
D31*
X122608300Y-131737100D02*
X122608300Y-129222500D01*
X122608300Y-129222500D02*
X122608300Y-128536700D01*
X122608300Y-128536700D02*
X122633700Y-128511300D01*
X122633700Y-128511300D02*
X122633700Y-125539500D01*
X122633700Y-125539500D02*
X122659100Y-125514100D01*
X122659100Y-125514100D02*
X122659100Y-119808900D01*
X122659100Y-119808900D02*
X122719700Y-119748300D01*
D32*
X154724100Y-128790700D02*
X151828500Y-128790700D01*
X151828500Y-128790700D02*
X151574500Y-128536700D01*
X151574500Y-128536700D02*
X151574500Y-125564900D01*
X151574500Y-125564900D02*
X151625300Y-125691900D01*
X132880100Y-130035300D02*
X123421100Y-130035300D01*
X123421100Y-130035300D02*
X122608300Y-129222500D01*
D29*
X122719700Y-119748300D02*
X122719700Y-118478300D01*
X122719700Y-118478300D02*
X122719700Y-117106300D01*
X122719700Y-117106300D02*
X121805700Y-116192300D01*
X121805700Y-116192300D02*
X121805700Y-111239300D01*
X121805700Y-111239300D02*
X123482100Y-109562900D01*
X123482100Y-109562900D02*
X126555500Y-109562900D01*
X126555500Y-109562900D02*
X128384300Y-107734100D01*
X128384300Y-107734100D02*
X129781500Y-107734100D01*
X129781500Y-107734100D02*
X129806700Y-107708900D01*
X129806700Y-107708900D02*
X135064300Y-107734300D01*
X135064300Y-107734300D02*
X136994900Y-105829100D01*
D33*
X166814500Y-92062300D02*
X167424100Y-92671900D01*
X167474900Y-97218500D02*
X167474900Y-99113300D01*
X167474900Y-99113300D02*
X167373300Y-99214900D01*
D32*
X136994900Y-105829100D02*
X136994900Y-102806500D01*
X136994900Y-102806500D02*
X138239500Y-101561900D01*
X138239500Y-101561900D02*
X139687300Y-101536500D01*
D36*
X139687300Y-101536500D02*
X139763500Y-99047300D01*
X139763500Y-99047300D02*
X141236700Y-97574100D01*
X141236700Y-97574100D02*
X143649700Y-97574100D01*
X143649700Y-97574100D02*
X144818100Y-96405700D01*
X144818100Y-96405700D02*
X144818100Y-93306900D01*
X144818100Y-93306900D02*
X146291300Y-91833700D01*
X146291300Y-91833700D02*
X166585900Y-91833700D01*
X166585900Y-91833700D02*
X166814500Y-92062300D01*
D32*
X136994900Y-105829100D02*
X136994900Y-105854500D01*
X136994900Y-105854500D02*
X135140700Y-107708700D01*
X172199300Y-90521500D02*
X172199300Y-93408500D01*
X172199300Y-93408500D02*
X171335700Y-94272100D01*
X171335700Y-94272100D02*
X168236900Y-94272100D01*
X168236900Y-94272100D02*
X167424100Y-93459300D01*
X167424100Y-93459300D02*
X167424100Y-92671900D01*
D31*
X136588500Y-119413500D02*
X136588500Y-118630700D01*
X136588500Y-118630700D02*
X133743700Y-115785900D01*
X133743700Y-115785900D02*
X125386700Y-115785900D01*
X125386700Y-115785900D02*
X122719700Y-118478300D01*
D36*
X129019700Y-117448300D02*
X131951700Y-117448300D01*
X131951700Y-117448300D02*
X131991100Y-117487700D01*
D34*
X134226300Y-89065100D02*
X139230100Y-89065100D01*
X139230100Y-89065100D02*
X139357100Y-89192100D01*
D29*
X129806700Y-109308900D02*
X135470900Y-109308900D01*
X135470900Y-109308900D02*
X136258300Y-110096300D01*
X136258300Y-110096300D02*
X136258300Y-111010700D01*
X136258300Y-111010700D02*
X136766300Y-111518700D01*
X136766300Y-111518700D02*
X137848300Y-111518700D01*
X137848300Y-111518700D02*
X137899100Y-111569500D01*
X174205900Y-112900500D02*
X174205900Y-113159500D01*
X174205900Y-113159500D02*
X174231300Y-115343900D01*
X168354784Y-112236969D02*
X168382231Y-112236969D01*
X168382231Y-112236969D02*
X169456100Y-111163100D01*
X169456100Y-111163100D02*
X174043300Y-111163100D01*
X174043300Y-111163100D02*
X174205900Y-111000500D01*
X171425500Y-104152700D02*
X170675300Y-104152700D01*
X170675300Y-104152700D02*
X169760900Y-103238300D01*
X169760900Y-103238300D02*
X169760900Y-101241900D01*
X169760900Y-101241900D02*
X169862500Y-101140300D01*
X166940569Y-110822756D02*
X166951644Y-110822756D01*
X166951644Y-110822756D02*
X170294300Y-107480100D01*
X170294300Y-107480100D02*
X170319700Y-107480100D01*
X170319700Y-107480100D02*
X171437300Y-106362500D01*
X171437300Y-106362500D02*
X171437300Y-104164500D01*
X171437300Y-104164500D02*
X171425500Y-104152700D01*
X173125500Y-104152700D02*
X173125500Y-101458700D01*
X173125500Y-101458700D02*
X173443900Y-101140300D01*
X167294125Y-111176309D02*
X167360091Y-111176309D01*
X167360091Y-111176309D02*
X170827700Y-107708700D01*
X170827700Y-107708700D02*
X170853100Y-107708700D01*
X170853100Y-107708700D02*
X173037500Y-105524300D01*
X173037500Y-105524300D02*
X173037500Y-104240700D01*
X173037500Y-104240700D02*
X173125500Y-104152700D01*
D32*
X124559100Y-125514100D02*
X128003300Y-125514100D01*
X128003300Y-125514100D02*
X130416300Y-127927100D01*
X144233900Y-126606300D02*
X144233900Y-122110500D01*
X144233900Y-122110500D02*
X145148300Y-121246900D01*
X145148300Y-121246900D02*
X147154900Y-121246900D01*
X147154900Y-121246900D02*
X147205700Y-121196100D01*
X160921700Y-108242100D02*
X160921700Y-108268709D01*
D29*
X160921700Y-108268709D02*
X162415088Y-109762097D01*
D33*
X124508300Y-131737100D02*
X135953500Y-131737100D01*
X135953500Y-131737100D02*
X136791700Y-130898900D01*
X136791700Y-130898900D02*
X136791700Y-129527300D01*
D29*
X148043900Y-126072900D02*
X148043900Y-124853700D01*
X148043900Y-124853700D02*
X148704300Y-124193300D01*
X148704300Y-124193300D02*
X157812666Y-124193300D01*
X157812666Y-124193300D02*
X159532284Y-122473681D01*
X160293766Y-111883416D02*
X160293766Y-111881366D01*
X160293766Y-111881366D02*
X158661100Y-110248700D01*
X159532284Y-122473681D02*
X161000872Y-121005094D01*
X124533700Y-128511300D02*
X126377700Y-128511300D01*
X126377700Y-128511300D02*
X127241300Y-128536700D01*
X169608500Y-125971300D02*
X169583100Y-125056900D01*
X169583100Y-125056900D02*
X170522900Y-124117100D01*
X170522900Y-124117100D02*
X170522900Y-121405444D01*
X170522900Y-121405444D02*
X168708338Y-119590881D01*
X165526356Y-109408544D02*
X165526356Y-105749956D01*
D32*
X165526356Y-105749956D02*
X164995900Y-105219500D01*
D29*
X141744700Y-101612700D02*
X141744700Y-104279700D01*
X141744700Y-104279700D02*
X144233900Y-106819700D01*
X144233900Y-106819700D02*
X144233900Y-110451900D01*
X144233900Y-110451900D02*
X144970500Y-111188500D01*
X144970500Y-111188500D02*
X148450300Y-111188500D01*
X148450300Y-111188500D02*
X150507700Y-113245900D01*
X150507700Y-113245900D02*
X150507700Y-119367300D01*
X155257500Y-119418100D02*
X156223906Y-119418100D01*
X156223906Y-119418100D02*
X157818894Y-117823112D01*
X158172447Y-118176666D02*
X158172447Y-118179553D01*
X158172447Y-118179553D02*
X157238700Y-119113300D01*
X157238700Y-119113300D02*
X157238700Y-120002300D01*
X152158700Y-117817900D02*
X152158700Y-113880900D01*
X152158700Y-113880900D02*
X148424900Y-110147100D01*
X148424900Y-110147100D02*
X145580100Y-110147100D01*
X145580100Y-110147100D02*
X144970500Y-109537500D01*
X144970500Y-109537500D02*
X144970500Y-106514900D01*
X144970500Y-106514900D02*
X143751300Y-105295700D01*
X143751300Y-105295700D02*
X143751300Y-102146100D01*
X143751300Y-102146100D02*
X143725900Y-102120700D01*
X157465341Y-114711844D02*
X157282244Y-114584844D01*
X157282244Y-114584844D02*
X153904044Y-114584844D01*
X153904044Y-114584844D02*
X147942300Y-108597700D01*
X147891500Y-106972100D02*
X147891500Y-102222300D01*
X147891500Y-102222300D02*
X147764500Y-102095300D01*
X147942300Y-108597700D02*
X147916900Y-106997500D01*
X147916900Y-106997500D02*
X147891500Y-106972100D01*
X159940213Y-119944434D02*
X159940213Y-119993187D01*
X159940213Y-119993187D02*
X157670500Y-122262900D01*
X157670500Y-122262900D02*
X154647900Y-122262900D01*
X154647900Y-122262900D02*
X153327100Y-120916700D01*
X153327100Y-120916700D02*
X153301700Y-115938300D01*
X153073100Y-111061500D02*
X152311100Y-111061500D01*
X152311100Y-111061500D02*
X149720300Y-108470700D01*
X149720300Y-108470700D02*
X149720300Y-102146100D01*
X149720300Y-102146100D02*
X149771100Y-102095300D01*
D33*
X159905700Y-127148300D02*
X162294900Y-127148300D01*
X162294900Y-127148300D02*
X162369500Y-127073700D01*
D36*
X170065700Y-92468700D02*
X170065700Y-86626700D01*
X170065700Y-86626700D02*
X168998900Y-85559900D01*
X168998900Y-85559900D02*
X155054300Y-85559900D01*
X155054300Y-85559900D02*
X153885900Y-84391500D01*
X153835100Y-80200500D02*
X153758900Y-80124300D01*
X153835100Y-81699100D02*
X153835100Y-80200500D01*
X153885900Y-84391500D02*
X153885900Y-81749900D01*
X153885900Y-81749900D02*
X153835100Y-81699100D01*
D29*
X159233106Y-112944075D02*
X159222875Y-112944075D01*
X159222875Y-112944075D02*
X157035500Y-110756700D01*
X157035500Y-110756700D02*
X157035500Y-109258100D01*
X157035500Y-109258100D02*
X158356300Y-107937300D01*
X158356300Y-107937300D02*
X159169100Y-107937300D01*
X159169100Y-107937300D02*
X159600900Y-107505500D01*
X159600900Y-107505500D02*
X159600900Y-104355900D01*
X159600900Y-104355900D02*
X160337500Y-103619300D01*
D33*
X172199300Y-88421500D02*
X174282100Y-88421500D01*
X174282100Y-88421500D02*
X174282100Y-88419900D01*
D29*
X159905700Y-125048300D02*
X159905700Y-124574300D01*
X159905700Y-124574300D02*
X160540700Y-123939300D01*
X160540700Y-123939300D02*
X161602200Y-123939300D01*
X161602200Y-123939300D02*
X162768641Y-122772859D01*
X158172447Y-114004737D02*
X158172447Y-114001847D01*
X158172447Y-114001847D02*
X155943300Y-111772700D01*
X155943300Y-111772700D02*
X154851100Y-111772700D01*
X154851100Y-111772700D02*
X154368500Y-111290100D01*
X154368500Y-111290100D02*
X154368500Y-105397300D01*
X154368500Y-105397300D02*
X155740100Y-104025700D01*
X155740100Y-104025700D02*
X155740100Y-101892100D01*
X155740100Y-101892100D02*
X155765500Y-101384100D01*
M02*
