G04 #@! TF.FileFunction,Legend,Top*
%FSLAX46Y46*%
G04 Gerber Fmt 4.6, Leading zero omitted, Abs format (unit mm)*
G04 Created by KiCad (PCBNEW 4.0.6) date 07/21/17 09:20:33*
%MOMM*%
%LPD*%
G01*
G04 APERTURE LIST*
%ADD10C,0.100000*%
%ADD11C,0.127000*%
%ADD12C,0.152400*%
%ADD13C,0.050800*%
%ADD14C,0.203200*%
%ADD15C,0.254000*%
%ADD16C,0.101600*%
%ADD17C,0.142240*%
%ADD18C,0.002032*%
%ADD19C,0.081280*%
G04 APERTURE END LIST*
D10*
D11*
X130342700Y-105408900D02*
X130342700Y-113208900D01*
X121142700Y-105408900D02*
X121142700Y-113208900D01*
X125142700Y-105408900D02*
X127842700Y-105408900D01*
X127842700Y-113208900D02*
X125142700Y-113208900D01*
X130342700Y-106108900D02*
X130342700Y-107208900D01*
X130342700Y-111408900D02*
X130342700Y-112508900D01*
D12*
X149694900Y-127266700D02*
X149694900Y-131584700D01*
X153225500Y-126885700D02*
G75*
G02X153606500Y-127266700I0J-381000D01*
G01*
X149694900Y-131584700D02*
G75*
G03X150075900Y-131965700I381000J0D01*
G01*
X150075900Y-126885700D02*
G75*
G03X149694900Y-127266700I0J-381000D01*
G01*
X153606500Y-131584700D02*
G75*
G02X153225500Y-131965700I-381000J0D01*
G01*
X153606500Y-131584700D02*
X153606500Y-127266700D01*
X153225500Y-126885700D02*
X150075900Y-126885700D01*
X150075900Y-131965700D02*
X153225500Y-131965700D01*
X152158700Y-131965700D02*
G75*
G03X151142700Y-131965700I-508000J0D01*
G01*
D13*
X153250900Y-131965700D02*
X153250900Y-126885700D01*
D14*
X157642118Y-116373543D02*
X157642118Y-115807857D01*
X157642118Y-115807857D02*
X163864657Y-109585318D01*
X163864657Y-109585318D02*
X164430343Y-109585318D01*
X164430343Y-109585318D02*
X170652882Y-115807857D01*
X170652882Y-115807857D02*
X170652882Y-116373543D01*
X170652882Y-116373543D02*
X164430343Y-122596082D01*
X164430343Y-122596082D02*
X163864657Y-122596082D01*
X163864657Y-122596082D02*
X157642118Y-116373543D01*
D15*
X158773346Y-116090700D02*
G75*
G03X158773346Y-116090700I-282700J0D01*
G01*
D10*
G36*
X157323920Y-117752401D02*
X158172448Y-116903873D01*
X158031026Y-116762451D01*
X157182498Y-117610980D01*
X157323920Y-117752401D01*
G37*
G36*
X157677473Y-118105954D02*
X158526001Y-117257426D01*
X158384580Y-117116005D01*
X157536052Y-117964533D01*
X157677473Y-118105954D01*
G37*
G36*
X158031026Y-118459508D02*
X158879554Y-117610980D01*
X158738133Y-117469558D01*
X157889605Y-118318086D01*
X158031026Y-118459508D01*
G37*
G36*
X158384580Y-118813061D02*
X159233108Y-117964533D01*
X159091687Y-117823112D01*
X158243158Y-118671640D01*
X158384580Y-118813061D01*
G37*
G36*
X158738133Y-119166614D02*
X159586661Y-118318086D01*
X159445240Y-118176665D01*
X158596712Y-119025193D01*
X158738133Y-119166614D01*
G37*
G36*
X159091687Y-119520168D02*
X159940215Y-118671640D01*
X159798793Y-118530218D01*
X158950265Y-119378747D01*
X159091687Y-119520168D01*
G37*
G36*
X159445240Y-119873721D02*
X160293768Y-119025193D01*
X160152347Y-118883772D01*
X159303819Y-119732300D01*
X159445240Y-119873721D01*
G37*
G36*
X159798793Y-120227275D02*
X160647321Y-119378747D01*
X160505900Y-119237325D01*
X159657372Y-120085853D01*
X159798793Y-120227275D01*
G37*
G36*
X160152347Y-120580828D02*
X161000875Y-119732300D01*
X160859453Y-119590879D01*
X160010925Y-120439407D01*
X160152347Y-120580828D01*
G37*
G36*
X160505900Y-120934381D02*
X161354428Y-120085853D01*
X161213007Y-119944432D01*
X160364479Y-120792960D01*
X160505900Y-120934381D01*
G37*
G36*
X160859453Y-121287935D02*
X161707982Y-120439407D01*
X161566560Y-120297985D01*
X160718032Y-121146513D01*
X160859453Y-121287935D01*
G37*
G36*
X161213007Y-121641488D02*
X162061535Y-120792960D01*
X161920114Y-120651539D01*
X161071586Y-121500067D01*
X161213007Y-121641488D01*
G37*
G36*
X161566560Y-121995042D02*
X162415088Y-121146513D01*
X162273667Y-121005092D01*
X161425139Y-121853620D01*
X161566560Y-121995042D01*
G37*
G36*
X161920114Y-122348595D02*
X162768642Y-121500067D01*
X162627220Y-121358646D01*
X161778692Y-122207174D01*
X161920114Y-122348595D01*
G37*
G36*
X162273667Y-122702148D02*
X163122195Y-121853620D01*
X162980774Y-121712199D01*
X162132246Y-122560727D01*
X162273667Y-122702148D01*
G37*
G36*
X162627220Y-123055702D02*
X163475749Y-122207174D01*
X163334327Y-122065752D01*
X162485799Y-122914280D01*
X162627220Y-123055702D01*
G37*
G36*
X165667780Y-123055702D02*
X165809201Y-122914280D01*
X164960673Y-122065752D01*
X164819251Y-122207174D01*
X165667780Y-123055702D01*
G37*
G36*
X166021333Y-122702148D02*
X166162754Y-122560727D01*
X165314226Y-121712199D01*
X165172805Y-121853620D01*
X166021333Y-122702148D01*
G37*
G36*
X166374886Y-122348595D02*
X166516308Y-122207174D01*
X165667780Y-121358646D01*
X165526358Y-121500067D01*
X166374886Y-122348595D01*
G37*
G36*
X166728440Y-121995042D02*
X166869861Y-121853620D01*
X166021333Y-121005092D01*
X165879912Y-121146513D01*
X166728440Y-121995042D01*
G37*
G36*
X167081993Y-121641488D02*
X167223414Y-121500067D01*
X166374886Y-120651539D01*
X166233465Y-120792960D01*
X167081993Y-121641488D01*
G37*
G36*
X167435547Y-121287935D02*
X167576968Y-121146513D01*
X166728440Y-120297985D01*
X166587018Y-120439407D01*
X167435547Y-121287935D01*
G37*
G36*
X167789100Y-120934381D02*
X167930521Y-120792960D01*
X167081993Y-119944432D01*
X166940572Y-120085853D01*
X167789100Y-120934381D01*
G37*
G36*
X168142653Y-120580828D02*
X168284075Y-120439407D01*
X167435547Y-119590879D01*
X167294125Y-119732300D01*
X168142653Y-120580828D01*
G37*
G36*
X168496207Y-120227275D02*
X168637628Y-120085853D01*
X167789100Y-119237325D01*
X167647679Y-119378747D01*
X168496207Y-120227275D01*
G37*
G36*
X168849760Y-119873721D02*
X168991181Y-119732300D01*
X168142653Y-118883772D01*
X168001232Y-119025193D01*
X168849760Y-119873721D01*
G37*
G36*
X169203313Y-119520168D02*
X169344735Y-119378747D01*
X168496207Y-118530218D01*
X168354785Y-118671640D01*
X169203313Y-119520168D01*
G37*
G36*
X169556867Y-119166614D02*
X169698288Y-119025193D01*
X168849760Y-118176665D01*
X168708339Y-118318086D01*
X169556867Y-119166614D01*
G37*
G36*
X169910420Y-118813061D02*
X170051842Y-118671640D01*
X169203313Y-117823112D01*
X169061892Y-117964533D01*
X169910420Y-118813061D01*
G37*
G36*
X170263974Y-118459508D02*
X170405395Y-118318086D01*
X169556867Y-117469558D01*
X169415446Y-117610980D01*
X170263974Y-118459508D01*
G37*
G36*
X170617527Y-118105954D02*
X170758948Y-117964533D01*
X169910420Y-117116005D01*
X169768999Y-117257426D01*
X170617527Y-118105954D01*
G37*
G36*
X170971080Y-117752401D02*
X171112502Y-117610980D01*
X170263974Y-116762451D01*
X170122552Y-116903873D01*
X170971080Y-117752401D01*
G37*
G36*
X170263974Y-115418949D02*
X171112502Y-114570420D01*
X170971080Y-114428999D01*
X170122552Y-115277527D01*
X170263974Y-115418949D01*
G37*
G36*
X169910420Y-115065395D02*
X170758948Y-114216867D01*
X170617527Y-114075446D01*
X169768999Y-114923974D01*
X169910420Y-115065395D01*
G37*
G36*
X169556867Y-114711842D02*
X170405395Y-113863314D01*
X170263974Y-113721892D01*
X169415446Y-114570420D01*
X169556867Y-114711842D01*
G37*
G36*
X169203313Y-114358288D02*
X170051842Y-113509760D01*
X169910420Y-113368339D01*
X169061892Y-114216867D01*
X169203313Y-114358288D01*
G37*
G36*
X168849760Y-114004735D02*
X169698288Y-113156207D01*
X169556867Y-113014786D01*
X168708339Y-113863314D01*
X168849760Y-114004735D01*
G37*
G36*
X168496207Y-113651182D02*
X169344735Y-112802653D01*
X169203313Y-112661232D01*
X168354785Y-113509760D01*
X168496207Y-113651182D01*
G37*
G36*
X168142653Y-113297628D02*
X168991181Y-112449100D01*
X168849760Y-112307679D01*
X168001232Y-113156207D01*
X168142653Y-113297628D01*
G37*
G36*
X167789100Y-112944075D02*
X168637628Y-112095547D01*
X168496207Y-111954125D01*
X167647679Y-112802653D01*
X167789100Y-112944075D01*
G37*
G36*
X167435547Y-112590521D02*
X168284075Y-111741993D01*
X168142653Y-111600572D01*
X167294125Y-112449100D01*
X167435547Y-112590521D01*
G37*
G36*
X167081993Y-112236968D02*
X167930521Y-111388440D01*
X167789100Y-111247019D01*
X166940572Y-112095547D01*
X167081993Y-112236968D01*
G37*
G36*
X166728440Y-111883415D02*
X167576968Y-111034887D01*
X167435547Y-110893465D01*
X166587018Y-111741993D01*
X166728440Y-111883415D01*
G37*
G36*
X166374886Y-111529861D02*
X167223414Y-110681333D01*
X167081993Y-110539912D01*
X166233465Y-111388440D01*
X166374886Y-111529861D01*
G37*
G36*
X166021333Y-111176308D02*
X166869861Y-110327780D01*
X166728440Y-110186358D01*
X165879912Y-111034887D01*
X166021333Y-111176308D01*
G37*
G36*
X165667780Y-110822754D02*
X166516308Y-109974226D01*
X166374886Y-109832805D01*
X165526358Y-110681333D01*
X165667780Y-110822754D01*
G37*
G36*
X165314226Y-110469201D02*
X166162754Y-109620673D01*
X166021333Y-109479252D01*
X165172805Y-110327780D01*
X165314226Y-110469201D01*
G37*
G36*
X164960673Y-110115648D02*
X165809201Y-109267120D01*
X165667780Y-109125698D01*
X164819251Y-109974226D01*
X164960673Y-110115648D01*
G37*
G36*
X163334327Y-110115648D02*
X163475749Y-109974226D01*
X162627220Y-109125698D01*
X162485799Y-109267120D01*
X163334327Y-110115648D01*
G37*
G36*
X162980774Y-110469201D02*
X163122195Y-110327780D01*
X162273667Y-109479252D01*
X162132246Y-109620673D01*
X162980774Y-110469201D01*
G37*
G36*
X162627220Y-110822754D02*
X162768642Y-110681333D01*
X161920114Y-109832805D01*
X161778692Y-109974226D01*
X162627220Y-110822754D01*
G37*
G36*
X162273667Y-111176308D02*
X162415088Y-111034887D01*
X161566560Y-110186358D01*
X161425139Y-110327780D01*
X162273667Y-111176308D01*
G37*
G36*
X161920114Y-111529861D02*
X162061535Y-111388440D01*
X161213007Y-110539912D01*
X161071586Y-110681333D01*
X161920114Y-111529861D01*
G37*
G36*
X161566560Y-111883415D02*
X161707982Y-111741993D01*
X160859453Y-110893465D01*
X160718032Y-111034887D01*
X161566560Y-111883415D01*
G37*
G36*
X161213007Y-112236968D02*
X161354428Y-112095547D01*
X160505900Y-111247019D01*
X160364479Y-111388440D01*
X161213007Y-112236968D01*
G37*
G36*
X160859453Y-112590521D02*
X161000875Y-112449100D01*
X160152347Y-111600572D01*
X160010925Y-111741993D01*
X160859453Y-112590521D01*
G37*
G36*
X160505900Y-112944075D02*
X160647321Y-112802653D01*
X159798793Y-111954125D01*
X159657372Y-112095547D01*
X160505900Y-112944075D01*
G37*
G36*
X160152347Y-113297628D02*
X160293768Y-113156207D01*
X159445240Y-112307679D01*
X159303819Y-112449100D01*
X160152347Y-113297628D01*
G37*
G36*
X159798793Y-113651182D02*
X159940215Y-113509760D01*
X159091687Y-112661232D01*
X158950265Y-112802653D01*
X159798793Y-113651182D01*
G37*
G36*
X159445240Y-114004735D02*
X159586661Y-113863314D01*
X158738133Y-113014786D01*
X158596712Y-113156207D01*
X159445240Y-114004735D01*
G37*
G36*
X159091687Y-114358288D02*
X159233108Y-114216867D01*
X158384580Y-113368339D01*
X158243158Y-113509760D01*
X159091687Y-114358288D01*
G37*
G36*
X158738133Y-114711842D02*
X158879554Y-114570420D01*
X158031026Y-113721892D01*
X157889605Y-113863314D01*
X158738133Y-114711842D01*
G37*
G36*
X158384580Y-115065395D02*
X158526001Y-114923974D01*
X157677473Y-114075446D01*
X157536052Y-114216867D01*
X158384580Y-115065395D01*
G37*
G36*
X158031026Y-115418949D02*
X158172448Y-115277527D01*
X157323920Y-114428999D01*
X157182498Y-114570420D01*
X158031026Y-115418949D01*
G37*
D14*
X124091700Y-116471300D02*
X127647700Y-116471300D01*
X127647700Y-116471300D02*
X127647700Y-123025300D01*
X127647700Y-123025300D02*
X124091700Y-123025300D01*
X124091700Y-123025300D02*
X124091700Y-116471300D01*
D10*
G36*
X160580700Y-126098300D02*
X160430700Y-126098300D01*
X160430700Y-126398300D01*
X160580700Y-126398300D01*
X160580700Y-126098300D01*
G37*
G36*
X159380700Y-126098300D02*
X159230700Y-126098300D01*
X159230700Y-126398300D01*
X159380700Y-126398300D01*
X159380700Y-126098300D01*
G37*
G36*
X160055700Y-126098300D02*
X159755700Y-126098300D01*
X159755700Y-126398300D01*
X160055700Y-126398300D01*
X160055700Y-126098300D01*
G37*
G36*
X171524300Y-89471500D02*
X171674300Y-89471500D01*
X171674300Y-89171500D01*
X171524300Y-89171500D01*
X171524300Y-89471500D01*
G37*
G36*
X172724300Y-89471500D02*
X172874300Y-89471500D01*
X172874300Y-89171500D01*
X172724300Y-89171500D01*
X172724300Y-89471500D01*
G37*
G36*
X172049300Y-89471500D02*
X172349300Y-89471500D01*
X172349300Y-89171500D01*
X172049300Y-89171500D01*
X172049300Y-89471500D01*
G37*
D12*
X130543300Y-97225300D02*
X130543300Y-77235300D01*
X121348300Y-77235300D02*
X121551300Y-77235300D01*
X121348300Y-77235300D02*
X121348300Y-97225300D01*
X130543300Y-97225300D02*
X128155300Y-97225300D01*
X128155300Y-97225300D02*
X128155300Y-95625300D01*
X128155300Y-93847300D02*
X128155300Y-90621300D01*
X128155300Y-88843300D02*
X128155300Y-85617300D01*
X128155300Y-83839300D02*
X128155300Y-80614300D01*
X128155300Y-78836300D02*
X128155300Y-77235300D01*
X128155300Y-97225300D02*
X121551300Y-97225300D01*
X128155300Y-77235300D02*
X130543300Y-77235300D01*
X121551300Y-97225300D02*
X121551300Y-77235300D01*
X121551300Y-97225300D02*
X121348300Y-97225300D01*
X121551300Y-77235300D02*
X128155300Y-77235300D01*
X123380500Y-94736300D02*
G75*
G03X123380500Y-94736300I-508000J0D01*
G01*
X123380500Y-89732500D02*
G75*
G03X123380500Y-89732500I-508000J0D01*
G01*
X123380500Y-84728700D02*
G75*
G03X123380500Y-84728700I-508000J0D01*
G01*
X123380500Y-79724900D02*
G75*
G03X123380500Y-79724900I-508000J0D01*
G01*
D16*
X135638500Y-119613500D02*
G75*
G03X135638500Y-121813500I950000J-1100000D01*
G01*
X137488499Y-119563501D02*
G75*
G02X137538500Y-121813500I-899999J-1145555D01*
G01*
X135638500Y-122313500D02*
X134988500Y-122313500D01*
X134988500Y-122313500D02*
X134988500Y-119913500D01*
X134988500Y-119913500D02*
X135688500Y-119213500D01*
X137488500Y-119213500D02*
X138188500Y-119913500D01*
X138188500Y-119913500D02*
X138188500Y-122313500D01*
X138188500Y-122313500D02*
X137538500Y-122313500D01*
X171557043Y-130372758D02*
X171614495Y-130430210D01*
X171671948Y-130602567D01*
X171671948Y-130717472D01*
X171614495Y-130889829D01*
X171499590Y-131004734D01*
X171384686Y-131062186D01*
X171154876Y-131119638D01*
X170982519Y-131119638D01*
X170752710Y-131062186D01*
X170637805Y-131004734D01*
X170522900Y-130889829D01*
X170465448Y-130717472D01*
X170465448Y-130602567D01*
X170522900Y-130430210D01*
X170580352Y-130372758D01*
X170867614Y-129338615D02*
X171671948Y-129338615D01*
X170407995Y-129625877D02*
X171269781Y-129913138D01*
X171269781Y-129166258D01*
X166770352Y-135486020D02*
X166712900Y-135428568D01*
X166655448Y-135313663D01*
X166655448Y-135026401D01*
X166712900Y-134911497D01*
X166770352Y-134854044D01*
X166885257Y-134796592D01*
X167000162Y-134796592D01*
X167172519Y-134854044D01*
X167861948Y-135543473D01*
X167861948Y-134796592D01*
X166770352Y-134336972D02*
X166712900Y-134279520D01*
X166655448Y-134164615D01*
X166655448Y-133877353D01*
X166712900Y-133762449D01*
X166770352Y-133704996D01*
X166885257Y-133647544D01*
X167000162Y-133647544D01*
X167172519Y-133704996D01*
X167861948Y-134394425D01*
X167861948Y-133647544D01*
X166655448Y-132900663D02*
X166655448Y-132785758D01*
X166712900Y-132670853D01*
X166770352Y-132613401D01*
X166885257Y-132555948D01*
X167115067Y-132498496D01*
X167402329Y-132498496D01*
X167632138Y-132555948D01*
X167747043Y-132613401D01*
X167804495Y-132670853D01*
X167861948Y-132785758D01*
X167861948Y-132900663D01*
X167804495Y-133015567D01*
X167747043Y-133073020D01*
X167632138Y-133130472D01*
X167402329Y-133187924D01*
X167115067Y-133187924D01*
X166885257Y-133130472D01*
X166770352Y-133073020D01*
X166712900Y-133015567D01*
X166655448Y-132900663D01*
X166655448Y-131751615D02*
X166655448Y-131636710D01*
X166712900Y-131521805D01*
X166770352Y-131464353D01*
X166885257Y-131406900D01*
X167115067Y-131349448D01*
X167402329Y-131349448D01*
X167632138Y-131406900D01*
X167747043Y-131464353D01*
X167804495Y-131521805D01*
X167861948Y-131636710D01*
X167861948Y-131751615D01*
X167804495Y-131866519D01*
X167747043Y-131923972D01*
X167632138Y-131981424D01*
X167402329Y-132038876D01*
X167115067Y-132038876D01*
X166885257Y-131981424D01*
X166770352Y-131923972D01*
X166712900Y-131866519D01*
X166655448Y-131751615D01*
X167057614Y-130832376D02*
X168264114Y-130832376D01*
X167115067Y-130832376D02*
X167057614Y-130717471D01*
X167057614Y-130487662D01*
X167115067Y-130372757D01*
X167172519Y-130315305D01*
X167287424Y-130257852D01*
X167632138Y-130257852D01*
X167747043Y-130315305D01*
X167804495Y-130372757D01*
X167861948Y-130487662D01*
X167861948Y-130717471D01*
X167804495Y-130832376D01*
X167229971Y-129338614D02*
X167229971Y-129740781D01*
X167861948Y-129740781D02*
X166655448Y-129740781D01*
X166655448Y-129166257D01*
X175011443Y-130321958D02*
X175068895Y-130379410D01*
X175126348Y-130551767D01*
X175126348Y-130666672D01*
X175068895Y-130839029D01*
X174953990Y-130953934D01*
X174839086Y-131011386D01*
X174609276Y-131068838D01*
X174436919Y-131068838D01*
X174207110Y-131011386D01*
X174092205Y-130953934D01*
X173977300Y-130839029D01*
X173919848Y-130666672D01*
X173919848Y-130551767D01*
X173977300Y-130379410D01*
X174034752Y-130321958D01*
X173919848Y-129230362D02*
X173919848Y-129804886D01*
X174494371Y-129862338D01*
X174436919Y-129804886D01*
X174379467Y-129689981D01*
X174379467Y-129402719D01*
X174436919Y-129287815D01*
X174494371Y-129230362D01*
X174609276Y-129172910D01*
X174896538Y-129172910D01*
X175011443Y-129230362D01*
X175068895Y-129287815D01*
X175126348Y-129402719D01*
X175126348Y-129689981D01*
X175068895Y-129804886D01*
X175011443Y-129862338D01*
X171316348Y-132447696D02*
X171316348Y-133137124D01*
X171316348Y-132792410D02*
X170109848Y-132792410D01*
X170282205Y-132907315D01*
X170397110Y-133022220D01*
X170454562Y-133137124D01*
X170109848Y-131700815D02*
X170109848Y-131585910D01*
X170167300Y-131471005D01*
X170224752Y-131413553D01*
X170339657Y-131356100D01*
X170569467Y-131298648D01*
X170856729Y-131298648D01*
X171086538Y-131356100D01*
X171201443Y-131413553D01*
X171258895Y-131471005D01*
X171316348Y-131585910D01*
X171316348Y-131700815D01*
X171258895Y-131815719D01*
X171201443Y-131873172D01*
X171086538Y-131930624D01*
X170856729Y-131988076D01*
X170569467Y-131988076D01*
X170339657Y-131930624D01*
X170224752Y-131873172D01*
X170167300Y-131815719D01*
X170109848Y-131700815D01*
X170512014Y-130781576D02*
X171316348Y-130781576D01*
X170626919Y-130781576D02*
X170569467Y-130724124D01*
X170512014Y-130609219D01*
X170512014Y-130436862D01*
X170569467Y-130321957D01*
X170684371Y-130264505D01*
X171316348Y-130264505D01*
X170684371Y-129287814D02*
X170684371Y-129689981D01*
X171316348Y-129689981D02*
X170109848Y-129689981D01*
X170109848Y-129115457D01*
X153764343Y-116968210D02*
X153821795Y-117025662D01*
X153879248Y-117198019D01*
X153879248Y-117312924D01*
X153821795Y-117485281D01*
X153706890Y-117600186D01*
X153591986Y-117657638D01*
X153362176Y-117715090D01*
X153189819Y-117715090D01*
X152960010Y-117657638D01*
X152845105Y-117600186D01*
X152730200Y-117485281D01*
X152672748Y-117312924D01*
X152672748Y-117198019D01*
X152730200Y-117025662D01*
X152787652Y-116968210D01*
X152672748Y-115934067D02*
X152672748Y-116163876D01*
X152730200Y-116278781D01*
X152787652Y-116336233D01*
X152960010Y-116451138D01*
X153189819Y-116508590D01*
X153649438Y-116508590D01*
X153764343Y-116451138D01*
X153821795Y-116393686D01*
X153879248Y-116278781D01*
X153879248Y-116048971D01*
X153821795Y-115934067D01*
X153764343Y-115876614D01*
X153649438Y-115819162D01*
X153362176Y-115819162D01*
X153247271Y-115876614D01*
X153189819Y-115934067D01*
X153132367Y-116048971D01*
X153132367Y-116278781D01*
X153189819Y-116393686D01*
X153247271Y-116451138D01*
X153362176Y-116508590D01*
X157689248Y-117025662D02*
X157689248Y-117715090D01*
X157689248Y-117370376D02*
X156482748Y-117370376D01*
X156655105Y-117485281D01*
X156770010Y-117600186D01*
X156827462Y-117715090D01*
X156884914Y-115991519D02*
X157689248Y-115991519D01*
X156884914Y-116508590D02*
X157516890Y-116508590D01*
X157631795Y-116451138D01*
X157689248Y-116336233D01*
X157689248Y-116163876D01*
X157631795Y-116048971D01*
X157574343Y-115991519D01*
X132126843Y-108641710D02*
X132184295Y-108699162D01*
X132241748Y-108871519D01*
X132241748Y-108986424D01*
X132184295Y-109158781D01*
X132069390Y-109273686D01*
X131954486Y-109331138D01*
X131724676Y-109388590D01*
X131552319Y-109388590D01*
X131322510Y-109331138D01*
X131207605Y-109273686D01*
X131092700Y-109158781D01*
X131035248Y-108986424D01*
X131035248Y-108871519D01*
X131092700Y-108699162D01*
X131150152Y-108641710D01*
X132241748Y-108124638D02*
X131035248Y-108124638D01*
X132241748Y-107435210D01*
X131035248Y-107435210D01*
X132241748Y-106228710D02*
X132241748Y-106918138D01*
X132241748Y-106573424D02*
X131035248Y-106573424D01*
X131207605Y-106688329D01*
X131322510Y-106803234D01*
X131379962Y-106918138D01*
X139190790Y-110242048D02*
X138788624Y-109667524D01*
X138501362Y-110242048D02*
X138501362Y-109035548D01*
X138960981Y-109035548D01*
X139075886Y-109093000D01*
X139133338Y-109150452D01*
X139190790Y-109265357D01*
X139190790Y-109437714D01*
X139133338Y-109552619D01*
X139075886Y-109610071D01*
X138960981Y-109667524D01*
X138501362Y-109667524D01*
X140339838Y-110242048D02*
X139650410Y-110242048D01*
X139995124Y-110242048D02*
X139995124Y-109035548D01*
X139880219Y-109207905D01*
X139765314Y-109322810D01*
X139650410Y-109380262D01*
X138731171Y-112845548D02*
X138846076Y-112845548D01*
X138960981Y-112903000D01*
X139018433Y-112960452D01*
X139075886Y-113075357D01*
X139133338Y-113305167D01*
X139133338Y-113592429D01*
X139075886Y-113822238D01*
X139018433Y-113937143D01*
X138960981Y-113994595D01*
X138846076Y-114052048D01*
X138731171Y-114052048D01*
X138616267Y-113994595D01*
X138558814Y-113937143D01*
X138501362Y-113822238D01*
X138443910Y-113592429D01*
X138443910Y-113305167D01*
X138501362Y-113075357D01*
X138558814Y-112960452D01*
X138616267Y-112903000D01*
X138731171Y-112845548D01*
X139064394Y-129711148D02*
X138662228Y-129136624D01*
X138374966Y-129711148D02*
X138374966Y-128504648D01*
X138834585Y-128504648D01*
X138949490Y-128562100D01*
X139006942Y-128619552D01*
X139064394Y-128734457D01*
X139064394Y-128906814D01*
X139006942Y-129021719D01*
X138949490Y-129079171D01*
X138834585Y-129136624D01*
X138374966Y-129136624D01*
X140213442Y-129711148D02*
X139524014Y-129711148D01*
X139868728Y-129711148D02*
X139868728Y-128504648D01*
X139753823Y-128677005D01*
X139638918Y-128791910D01*
X139524014Y-128849362D01*
X141247585Y-128504648D02*
X141017776Y-128504648D01*
X140902871Y-128562100D01*
X140845419Y-128619552D01*
X140730514Y-128791910D01*
X140673062Y-129021719D01*
X140673062Y-129481338D01*
X140730514Y-129596243D01*
X140787966Y-129653695D01*
X140902871Y-129711148D01*
X141132681Y-129711148D01*
X141247585Y-129653695D01*
X141305038Y-129596243D01*
X141362490Y-129481338D01*
X141362490Y-129194076D01*
X141305038Y-129079171D01*
X141247585Y-129021719D01*
X141132681Y-128964267D01*
X140902871Y-128964267D01*
X140787966Y-129021719D01*
X140730514Y-129079171D01*
X140673062Y-129194076D01*
X139064394Y-125901148D02*
X138374966Y-125901148D01*
X138719680Y-125901148D02*
X138719680Y-124694648D01*
X138604775Y-124867005D01*
X138489870Y-124981910D01*
X138374966Y-125039362D01*
X139524014Y-124809552D02*
X139581466Y-124752100D01*
X139696371Y-124694648D01*
X139983633Y-124694648D01*
X140098537Y-124752100D01*
X140155990Y-124809552D01*
X140213442Y-124924457D01*
X140213442Y-125039362D01*
X140155990Y-125211719D01*
X139466561Y-125901148D01*
X140213442Y-125901148D01*
X140960323Y-124694648D02*
X141075228Y-124694648D01*
X141190133Y-124752100D01*
X141247585Y-124809552D01*
X141305038Y-124924457D01*
X141362490Y-125154267D01*
X141362490Y-125441529D01*
X141305038Y-125671338D01*
X141247585Y-125786243D01*
X141190133Y-125843695D01*
X141075228Y-125901148D01*
X140960323Y-125901148D01*
X140845419Y-125843695D01*
X140787966Y-125786243D01*
X140730514Y-125671338D01*
X140673062Y-125441529D01*
X140673062Y-125154267D01*
X140730514Y-124924457D01*
X140787966Y-124809552D01*
X140845419Y-124752100D01*
X140960323Y-124694648D01*
X161720590Y-129774648D02*
X161318424Y-129200124D01*
X161031162Y-129774648D02*
X161031162Y-128568148D01*
X161490781Y-128568148D01*
X161605686Y-128625600D01*
X161663138Y-128683052D01*
X161720590Y-128797957D01*
X161720590Y-128970314D01*
X161663138Y-129085219D01*
X161605686Y-129142671D01*
X161490781Y-129200124D01*
X161031162Y-129200124D01*
X162869638Y-129774648D02*
X162180210Y-129774648D01*
X162524924Y-129774648D02*
X162524924Y-128568148D01*
X162410019Y-128740505D01*
X162295114Y-128855410D01*
X162180210Y-128912862D01*
X163271805Y-128568148D02*
X164076138Y-128568148D01*
X163559067Y-129774648D01*
X161663138Y-133584648D02*
X160973710Y-133584648D01*
X161318424Y-133584648D02*
X161318424Y-132378148D01*
X161203519Y-132550505D01*
X161088614Y-132665410D01*
X160973710Y-132722862D01*
X162410019Y-132378148D02*
X162524924Y-132378148D01*
X162639829Y-132435600D01*
X162697281Y-132493052D01*
X162754734Y-132607957D01*
X162812186Y-132837767D01*
X162812186Y-133125029D01*
X162754734Y-133354838D01*
X162697281Y-133469743D01*
X162639829Y-133527195D01*
X162524924Y-133584648D01*
X162410019Y-133584648D01*
X162295115Y-133527195D01*
X162237662Y-133469743D01*
X162180210Y-133354838D01*
X162122758Y-133125029D01*
X162122758Y-132837767D01*
X162180210Y-132607957D01*
X162237662Y-132493052D01*
X162295115Y-132435600D01*
X162410019Y-132378148D01*
X163329258Y-133584648D02*
X163329258Y-132378148D01*
X163444163Y-133125029D02*
X163788877Y-133584648D01*
X163788877Y-132780314D02*
X163329258Y-133239933D01*
X164572648Y-129846010D02*
X163998124Y-130248176D01*
X164572648Y-130535438D02*
X163366148Y-130535438D01*
X163366148Y-130075819D01*
X163423600Y-129960914D01*
X163481052Y-129903462D01*
X163595957Y-129846010D01*
X163768314Y-129846010D01*
X163883219Y-129903462D01*
X163940671Y-129960914D01*
X163998124Y-130075819D01*
X163998124Y-130535438D01*
X164572648Y-128696962D02*
X164572648Y-129386390D01*
X164572648Y-129041676D02*
X163366148Y-129041676D01*
X163538505Y-129156581D01*
X163653410Y-129271486D01*
X163710862Y-129386390D01*
X163883219Y-128007533D02*
X163825767Y-128122438D01*
X163768314Y-128179890D01*
X163653410Y-128237342D01*
X163595957Y-128237342D01*
X163481052Y-128179890D01*
X163423600Y-128122438D01*
X163366148Y-128007533D01*
X163366148Y-127777723D01*
X163423600Y-127662819D01*
X163481052Y-127605366D01*
X163595957Y-127547914D01*
X163653410Y-127547914D01*
X163768314Y-127605366D01*
X163825767Y-127662819D01*
X163883219Y-127777723D01*
X163883219Y-128007533D01*
X163940671Y-128122438D01*
X163998124Y-128179890D01*
X164113029Y-128237342D01*
X164342838Y-128237342D01*
X164457743Y-128179890D01*
X164515195Y-128122438D01*
X164572648Y-128007533D01*
X164572648Y-127777723D01*
X164515195Y-127662819D01*
X164457743Y-127605366D01*
X164342838Y-127547914D01*
X164113029Y-127547914D01*
X163998124Y-127605366D01*
X163940671Y-127662819D01*
X163883219Y-127777723D01*
X167176148Y-130305629D02*
X167176148Y-130190724D01*
X167233600Y-130075819D01*
X167291052Y-130018367D01*
X167405957Y-129960914D01*
X167635767Y-129903462D01*
X167923029Y-129903462D01*
X168152838Y-129960914D01*
X168267743Y-130018367D01*
X168325195Y-130075819D01*
X168382648Y-130190724D01*
X168382648Y-130305629D01*
X168325195Y-130420533D01*
X168267743Y-130477986D01*
X168152838Y-130535438D01*
X167923029Y-130592890D01*
X167635767Y-130592890D01*
X167405957Y-130535438D01*
X167291052Y-130477986D01*
X167233600Y-130420533D01*
X167176148Y-130305629D01*
X139190790Y-112223248D02*
X138788624Y-111648724D01*
X138501362Y-112223248D02*
X138501362Y-111016748D01*
X138960981Y-111016748D01*
X139075886Y-111074200D01*
X139133338Y-111131652D01*
X139190790Y-111246557D01*
X139190790Y-111418914D01*
X139133338Y-111533819D01*
X139075886Y-111591271D01*
X138960981Y-111648724D01*
X138501362Y-111648724D01*
X139650410Y-111131652D02*
X139707862Y-111074200D01*
X139822767Y-111016748D01*
X140110029Y-111016748D01*
X140224933Y-111074200D01*
X140282386Y-111131652D01*
X140339838Y-111246557D01*
X140339838Y-111361462D01*
X140282386Y-111533819D01*
X139592957Y-112223248D01*
X140339838Y-112223248D01*
X138731171Y-114826748D02*
X138846076Y-114826748D01*
X138960981Y-114884200D01*
X139018433Y-114941652D01*
X139075886Y-115056557D01*
X139133338Y-115286367D01*
X139133338Y-115573629D01*
X139075886Y-115803438D01*
X139018433Y-115918343D01*
X138960981Y-115975795D01*
X138846076Y-116033248D01*
X138731171Y-116033248D01*
X138616267Y-115975795D01*
X138558814Y-115918343D01*
X138501362Y-115803438D01*
X138443910Y-115573629D01*
X138443910Y-115286367D01*
X138501362Y-115056557D01*
X138558814Y-114941652D01*
X138616267Y-114884200D01*
X138731171Y-114826748D01*
X139190790Y-114204448D02*
X138788624Y-113629924D01*
X138501362Y-114204448D02*
X138501362Y-112997948D01*
X138960981Y-112997948D01*
X139075886Y-113055400D01*
X139133338Y-113112852D01*
X139190790Y-113227757D01*
X139190790Y-113400114D01*
X139133338Y-113515019D01*
X139075886Y-113572471D01*
X138960981Y-113629924D01*
X138501362Y-113629924D01*
X139592957Y-112997948D02*
X140339838Y-112997948D01*
X139937671Y-113457567D01*
X140110029Y-113457567D01*
X140224933Y-113515019D01*
X140282386Y-113572471D01*
X140339838Y-113687376D01*
X140339838Y-113974638D01*
X140282386Y-114089543D01*
X140224933Y-114146995D01*
X140110029Y-114204448D01*
X139765314Y-114204448D01*
X139650410Y-114146995D01*
X139592957Y-114089543D01*
X138731171Y-116807948D02*
X138846076Y-116807948D01*
X138960981Y-116865400D01*
X139018433Y-116922852D01*
X139075886Y-117037757D01*
X139133338Y-117267567D01*
X139133338Y-117554829D01*
X139075886Y-117784638D01*
X139018433Y-117899543D01*
X138960981Y-117956995D01*
X138846076Y-118014448D01*
X138731171Y-118014448D01*
X138616267Y-117956995D01*
X138558814Y-117899543D01*
X138501362Y-117784638D01*
X138443910Y-117554829D01*
X138443910Y-117267567D01*
X138501362Y-117037757D01*
X138558814Y-116922852D01*
X138616267Y-116865400D01*
X138731171Y-116807948D01*
D11*
X150280914Y-132924248D02*
X150280914Y-133900938D01*
X150338366Y-134015843D01*
X150395819Y-134073295D01*
X150510723Y-134130748D01*
X150740533Y-134130748D01*
X150855438Y-134073295D01*
X150912890Y-134015843D01*
X150970342Y-133900938D01*
X150970342Y-132924248D01*
X151487414Y-134073295D02*
X151659771Y-134130748D01*
X151947033Y-134130748D01*
X152061937Y-134073295D01*
X152119390Y-134015843D01*
X152176842Y-133900938D01*
X152176842Y-133786033D01*
X152119390Y-133671129D01*
X152061937Y-133613676D01*
X151947033Y-133556224D01*
X151717223Y-133498771D01*
X151602318Y-133441319D01*
X151544866Y-133383867D01*
X151487414Y-133268962D01*
X151487414Y-133154057D01*
X151544866Y-133039152D01*
X151602318Y-132981700D01*
X151717223Y-132924248D01*
X152004485Y-132924248D01*
X152176842Y-132981700D01*
X151832128Y-132751890D02*
X151832128Y-134303105D01*
X153325890Y-134130748D02*
X152636462Y-134130748D01*
X152981176Y-134130748D02*
X152981176Y-132924248D01*
X152866271Y-133096605D01*
X152751366Y-133211510D01*
X152636462Y-133268962D01*
X141106675Y-126580295D02*
X141279032Y-126637748D01*
X141566294Y-126637748D01*
X141681198Y-126580295D01*
X141738651Y-126522843D01*
X141796103Y-126407938D01*
X141796103Y-126293033D01*
X141738651Y-126178129D01*
X141681198Y-126120676D01*
X141566294Y-126063224D01*
X141336484Y-126005771D01*
X141221579Y-125948319D01*
X141164127Y-125890867D01*
X141106675Y-125775962D01*
X141106675Y-125661057D01*
X141164127Y-125546152D01*
X141221579Y-125488700D01*
X141336484Y-125431248D01*
X141623746Y-125431248D01*
X141796103Y-125488700D01*
X142313175Y-126637748D02*
X142313175Y-125431248D01*
X143002603Y-126637748D01*
X143002603Y-125431248D01*
X144094198Y-125431248D02*
X143864389Y-125431248D01*
X143749484Y-125488700D01*
X143692032Y-125546152D01*
X143577127Y-125718510D01*
X143519675Y-125948319D01*
X143519675Y-126407938D01*
X143577127Y-126522843D01*
X143634579Y-126580295D01*
X143749484Y-126637748D01*
X143979294Y-126637748D01*
X144094198Y-126580295D01*
X144151651Y-126522843D01*
X144209103Y-126407938D01*
X144209103Y-126120676D01*
X144151651Y-126005771D01*
X144094198Y-125948319D01*
X143979294Y-125890867D01*
X143749484Y-125890867D01*
X143634579Y-125948319D01*
X143577127Y-126005771D01*
X143519675Y-126120676D01*
X145300699Y-125431248D02*
X144726175Y-125431248D01*
X144668723Y-126005771D01*
X144726175Y-125948319D01*
X144841080Y-125890867D01*
X145128342Y-125890867D01*
X145243246Y-125948319D01*
X145300699Y-126005771D01*
X145358151Y-126120676D01*
X145358151Y-126407938D01*
X145300699Y-126522843D01*
X145243246Y-126580295D01*
X145128342Y-126637748D01*
X144841080Y-126637748D01*
X144726175Y-126580295D01*
X144668723Y-126522843D01*
X145875223Y-126637748D02*
X145875223Y-125431248D01*
X145875223Y-126005771D02*
X146564651Y-126005771D01*
X146564651Y-126637748D02*
X146564651Y-125431248D01*
X146966818Y-125431248D02*
X147368984Y-126637748D01*
X147771151Y-125431248D01*
X148173318Y-126637748D02*
X148173318Y-125431248D01*
X148460580Y-125431248D01*
X148632937Y-125488700D01*
X148747842Y-125603605D01*
X148805294Y-125718510D01*
X148862746Y-125948319D01*
X148862746Y-126120676D01*
X148805294Y-126350486D01*
X148747842Y-126465390D01*
X148632937Y-126580295D01*
X148460580Y-126637748D01*
X148173318Y-126637748D01*
X149322366Y-125546152D02*
X149379818Y-125488700D01*
X149494723Y-125431248D01*
X149781985Y-125431248D01*
X149896889Y-125488700D01*
X149954342Y-125546152D01*
X150011794Y-125661057D01*
X150011794Y-125775962D01*
X149954342Y-125948319D01*
X149264913Y-126637748D01*
X150011794Y-126637748D01*
X150413961Y-125431248D02*
X151160842Y-125431248D01*
X150758675Y-125890867D01*
X150931033Y-125890867D01*
X151045937Y-125948319D01*
X151103390Y-126005771D01*
X151160842Y-126120676D01*
X151160842Y-126407938D01*
X151103390Y-126522843D01*
X151045937Y-126580295D01*
X150931033Y-126637748D01*
X150586318Y-126637748D01*
X150471414Y-126580295D01*
X150413961Y-126522843D01*
X151907723Y-125431248D02*
X152022628Y-125431248D01*
X152137533Y-125488700D01*
X152194985Y-125546152D01*
X152252438Y-125661057D01*
X152309890Y-125890867D01*
X152309890Y-126178129D01*
X152252438Y-126407938D01*
X152194985Y-126522843D01*
X152137533Y-126580295D01*
X152022628Y-126637748D01*
X151907723Y-126637748D01*
X151792819Y-126580295D01*
X151735366Y-126522843D01*
X151677914Y-126407938D01*
X151620462Y-126178129D01*
X151620462Y-125890867D01*
X151677914Y-125661057D01*
X151735366Y-125546152D01*
X151792819Y-125488700D01*
X151907723Y-125431248D01*
X153688748Y-125373795D02*
X152654605Y-126925010D01*
X154722890Y-126637748D02*
X154033462Y-126637748D01*
X154378176Y-126637748D02*
X154378176Y-125431248D01*
X154263271Y-125603605D01*
X154148366Y-125718510D01*
X154033462Y-125775962D01*
D17*
X155816816Y-112579420D02*
X156783690Y-113546294D01*
X156954315Y-113603169D01*
X157068064Y-113603169D01*
X157238690Y-113546295D01*
X157466189Y-113318795D01*
X157523064Y-113148170D01*
X157523064Y-113034420D01*
X157466189Y-112863795D01*
X156499316Y-111896921D01*
X158888063Y-111896921D02*
X158205564Y-112579421D01*
X158546813Y-112238171D02*
X157352439Y-111043797D01*
X157409315Y-111328171D01*
X157409314Y-111555671D01*
X157352439Y-111726297D01*
X167811846Y-125364712D02*
X167811845Y-125478462D01*
X167698095Y-125705962D01*
X167584346Y-125819712D01*
X167356846Y-125933461D01*
X167129346Y-125933462D01*
X166958721Y-125876586D01*
X166674346Y-125705962D01*
X166503721Y-125535337D01*
X166333097Y-125250962D01*
X166276222Y-125080337D01*
X166276222Y-124852837D01*
X166389972Y-124625337D01*
X166503721Y-124511588D01*
X166731221Y-124397838D01*
X166844971Y-124397837D01*
X168096220Y-124170338D02*
X168664970Y-124739088D01*
X167072471Y-123942838D02*
X168096220Y-124170338D01*
X167868720Y-123146589D01*
X168949345Y-123089714D02*
X168778719Y-123146588D01*
X168664970Y-123146588D01*
X168494344Y-123089714D01*
X168437470Y-123032839D01*
X168380595Y-122862213D01*
X168380595Y-122748464D01*
X168437470Y-122577839D01*
X168664970Y-122350339D01*
X168835595Y-122293464D01*
X168949344Y-122293464D01*
X169119969Y-122350339D01*
X169176844Y-122407214D01*
X169233719Y-122577839D01*
X169233719Y-122691589D01*
X169176845Y-122862214D01*
X168949345Y-123089714D01*
X168892470Y-123260339D01*
X168892470Y-123374088D01*
X168949344Y-123544714D01*
X169176844Y-123772213D01*
X169347469Y-123829088D01*
X169461219Y-123829088D01*
X169631844Y-123772213D01*
X169859344Y-123544714D01*
X169916219Y-123374088D01*
X169916219Y-123260339D01*
X169859343Y-123089714D01*
X169631844Y-122862214D01*
X169461219Y-122805339D01*
X169347469Y-122805339D01*
X169176845Y-122862214D01*
X171167468Y-122009089D02*
X171167468Y-122122839D01*
X171053718Y-122350339D01*
X170939969Y-122464089D01*
X170712468Y-122577838D01*
X170484969Y-122577839D01*
X170314344Y-122520964D01*
X170029969Y-122350339D01*
X169859344Y-122179715D01*
X169688719Y-121895339D01*
X169631844Y-121724715D01*
X169631844Y-121497214D01*
X169745595Y-121269715D01*
X169859344Y-121155965D01*
X170086844Y-121042215D01*
X170200594Y-121042215D01*
X171508718Y-120302840D02*
X172304968Y-121099090D01*
X170769343Y-120132216D02*
X171338092Y-121269715D01*
X172077467Y-120530340D01*
X171793092Y-119449716D02*
X171793093Y-119335966D01*
X171849968Y-119165342D01*
X172134343Y-118880967D01*
X172304968Y-118824091D01*
X172418717Y-118824091D01*
X172589342Y-118880967D01*
X172703092Y-118994717D01*
X172816842Y-119222216D01*
X172816842Y-120587215D01*
X173556216Y-119847841D01*
X173783717Y-118027842D02*
X174579966Y-118824091D01*
X173044342Y-117857217D02*
X173613091Y-118994716D01*
X174352466Y-118255341D01*
X173897467Y-117117843D02*
X174693716Y-116321593D01*
X175376216Y-118027842D01*
X175944965Y-116776593D02*
X176513715Y-116207843D01*
X176172465Y-117231592D02*
X175376216Y-115639094D01*
X176968714Y-116435343D01*
X176058715Y-114956594D02*
X176854965Y-114160344D01*
X177253089Y-116150968D01*
X178049339Y-115354719D01*
X178504339Y-114899719D02*
X177309965Y-113705345D01*
X178618088Y-113875969D02*
X179528087Y-112965970D01*
X180551837Y-112852220D02*
X179357463Y-111657846D01*
X180608712Y-112112846D01*
X180153712Y-110861597D01*
X181348086Y-112055971D01*
X181632461Y-110179097D02*
X182428711Y-110975347D01*
X180893086Y-110008472D02*
X181461836Y-111145972D01*
X182201211Y-110406597D01*
X182542461Y-109496598D02*
X182371835Y-109553472D01*
X182258086Y-109553472D01*
X182087460Y-109496598D01*
X182030586Y-109439723D01*
X181973711Y-109269097D01*
X181973711Y-109155348D01*
X182030586Y-108984723D01*
X182258086Y-108757223D01*
X182428711Y-108700348D01*
X182542460Y-108700348D01*
X182713085Y-108757223D01*
X182769960Y-108814098D01*
X182826835Y-108984723D01*
X182826835Y-109098473D01*
X182769961Y-109269098D01*
X182542461Y-109496598D01*
X182485586Y-109667223D01*
X182485586Y-109780972D01*
X182542460Y-109951598D01*
X182769960Y-110179097D01*
X182940585Y-110235972D01*
X183054335Y-110235972D01*
X183224960Y-110179097D01*
X183452460Y-109951598D01*
X183509335Y-109780972D01*
X183509335Y-109667223D01*
X183452459Y-109496598D01*
X183224960Y-109269098D01*
X183054335Y-109212223D01*
X182940585Y-109212223D01*
X182769961Y-109269098D01*
X183566210Y-107449099D02*
X182997461Y-108017849D01*
X183509335Y-108643473D01*
X183509335Y-108529723D01*
X183566209Y-108359098D01*
X183850584Y-108074723D01*
X184021210Y-108017849D01*
X184134959Y-108017849D01*
X184305584Y-108074724D01*
X184589959Y-108359098D01*
X184646834Y-108529723D01*
X184646834Y-108643473D01*
X184589959Y-108814098D01*
X184305584Y-109098473D01*
X184134959Y-109155347D01*
X184021209Y-109155348D01*
D18*
X135219198Y-119164221D02*
X135232987Y-119164221D01*
X135226092Y-119188351D02*
X135226092Y-119164221D01*
X135241030Y-119188351D02*
X135241030Y-119164221D01*
X135250223Y-119164221D01*
X135252521Y-119165370D01*
X135253670Y-119166519D01*
X135254819Y-119168817D01*
X135254819Y-119172264D01*
X135253670Y-119174562D01*
X135252521Y-119175711D01*
X135250223Y-119176860D01*
X135241030Y-119176860D01*
X135273204Y-119175711D02*
X135276651Y-119176860D01*
X135277800Y-119178010D01*
X135278949Y-119180308D01*
X135278949Y-119183755D01*
X135277800Y-119186053D01*
X135276651Y-119187202D01*
X135274353Y-119188351D01*
X135265160Y-119188351D01*
X135265160Y-119164221D01*
X135273204Y-119164221D01*
X135275502Y-119165370D01*
X135276651Y-119166519D01*
X135277800Y-119168817D01*
X135277800Y-119171115D01*
X135276651Y-119173413D01*
X135275502Y-119174562D01*
X135273204Y-119175711D01*
X135265160Y-119175711D01*
X135288141Y-119166519D02*
X135289290Y-119165370D01*
X135291588Y-119164221D01*
X135297334Y-119164221D01*
X135299632Y-119165370D01*
X135300781Y-119166519D01*
X135301930Y-119168817D01*
X135301930Y-119171115D01*
X135300781Y-119174562D01*
X135286992Y-119188351D01*
X135301930Y-119188351D01*
X135313420Y-119187202D02*
X135313420Y-119188351D01*
X135312271Y-119190649D01*
X135311122Y-119191798D01*
X135335252Y-119164221D02*
X135323761Y-119164221D01*
X135322612Y-119175711D01*
X135323761Y-119174562D01*
X135326059Y-119173413D01*
X135331805Y-119173413D01*
X135334103Y-119174562D01*
X135335252Y-119175711D01*
X135336401Y-119178010D01*
X135336401Y-119183755D01*
X135335252Y-119186053D01*
X135334103Y-119187202D01*
X135331805Y-119188351D01*
X135326059Y-119188351D01*
X135323761Y-119187202D01*
X135322612Y-119186053D01*
X135357084Y-119172264D02*
X135357084Y-119188351D01*
X135351338Y-119163072D02*
X135345593Y-119180308D01*
X135360531Y-119180308D01*
X139206998Y-115176421D02*
X139220787Y-115176421D01*
X139213892Y-115200551D02*
X139213892Y-115176421D01*
X139228830Y-115200551D02*
X139228830Y-115176421D01*
X139238023Y-115176421D01*
X139240321Y-115177570D01*
X139241470Y-115178719D01*
X139242619Y-115181017D01*
X139242619Y-115184464D01*
X139241470Y-115186762D01*
X139240321Y-115187911D01*
X139238023Y-115189060D01*
X139228830Y-115189060D01*
X139261004Y-115187911D02*
X139264451Y-115189060D01*
X139265600Y-115190210D01*
X139266749Y-115192508D01*
X139266749Y-115195955D01*
X139265600Y-115198253D01*
X139264451Y-115199402D01*
X139262153Y-115200551D01*
X139252960Y-115200551D01*
X139252960Y-115176421D01*
X139261004Y-115176421D01*
X139263302Y-115177570D01*
X139264451Y-115178719D01*
X139265600Y-115181017D01*
X139265600Y-115183315D01*
X139264451Y-115185613D01*
X139263302Y-115186762D01*
X139261004Y-115187911D01*
X139252960Y-115187911D01*
X139275941Y-115178719D02*
X139277090Y-115177570D01*
X139279388Y-115176421D01*
X139285134Y-115176421D01*
X139287432Y-115177570D01*
X139288581Y-115178719D01*
X139289730Y-115181017D01*
X139289730Y-115183315D01*
X139288581Y-115186762D01*
X139274792Y-115200551D01*
X139289730Y-115200551D01*
X139301220Y-115199402D02*
X139301220Y-115200551D01*
X139300071Y-115202849D01*
X139298922Y-115203998D01*
X139323052Y-115176421D02*
X139311561Y-115176421D01*
X139310412Y-115187911D01*
X139311561Y-115186762D01*
X139313859Y-115185613D01*
X139319605Y-115185613D01*
X139321903Y-115186762D01*
X139323052Y-115187911D01*
X139324201Y-115190210D01*
X139324201Y-115195955D01*
X139323052Y-115198253D01*
X139321903Y-115199402D01*
X139319605Y-115200551D01*
X139313859Y-115200551D01*
X139311561Y-115199402D01*
X139310412Y-115198253D01*
X139344884Y-115184464D02*
X139344884Y-115200551D01*
X139339138Y-115175272D02*
X139333393Y-115192508D01*
X139348331Y-115192508D01*
X127218198Y-127165221D02*
X127231987Y-127165221D01*
X127225092Y-127189351D02*
X127225092Y-127165221D01*
X127240030Y-127189351D02*
X127240030Y-127165221D01*
X127249223Y-127165221D01*
X127251521Y-127166370D01*
X127252670Y-127167519D01*
X127253819Y-127169817D01*
X127253819Y-127173264D01*
X127252670Y-127175562D01*
X127251521Y-127176711D01*
X127249223Y-127177860D01*
X127240030Y-127177860D01*
X127272204Y-127176711D02*
X127275651Y-127177860D01*
X127276800Y-127179010D01*
X127277949Y-127181308D01*
X127277949Y-127184755D01*
X127276800Y-127187053D01*
X127275651Y-127188202D01*
X127273353Y-127189351D01*
X127264160Y-127189351D01*
X127264160Y-127165221D01*
X127272204Y-127165221D01*
X127274502Y-127166370D01*
X127275651Y-127167519D01*
X127276800Y-127169817D01*
X127276800Y-127172115D01*
X127275651Y-127174413D01*
X127274502Y-127175562D01*
X127272204Y-127176711D01*
X127264160Y-127176711D01*
X127287141Y-127167519D02*
X127288290Y-127166370D01*
X127290588Y-127165221D01*
X127296334Y-127165221D01*
X127298632Y-127166370D01*
X127299781Y-127167519D01*
X127300930Y-127169817D01*
X127300930Y-127172115D01*
X127299781Y-127175562D01*
X127285992Y-127189351D01*
X127300930Y-127189351D01*
X127312420Y-127188202D02*
X127312420Y-127189351D01*
X127311271Y-127191649D01*
X127310122Y-127192798D01*
X127334252Y-127165221D02*
X127322761Y-127165221D01*
X127321612Y-127176711D01*
X127322761Y-127175562D01*
X127325059Y-127174413D01*
X127330805Y-127174413D01*
X127333103Y-127175562D01*
X127334252Y-127176711D01*
X127335401Y-127179010D01*
X127335401Y-127184755D01*
X127334252Y-127187053D01*
X127333103Y-127188202D01*
X127330805Y-127189351D01*
X127325059Y-127189351D01*
X127322761Y-127188202D01*
X127321612Y-127187053D01*
X127356084Y-127173264D02*
X127356084Y-127189351D01*
X127350338Y-127164072D02*
X127344593Y-127181308D01*
X127359531Y-127181308D01*
X131282198Y-123177421D02*
X131295987Y-123177421D01*
X131289092Y-123201551D02*
X131289092Y-123177421D01*
X131304030Y-123201551D02*
X131304030Y-123177421D01*
X131313223Y-123177421D01*
X131315521Y-123178570D01*
X131316670Y-123179719D01*
X131317819Y-123182017D01*
X131317819Y-123185464D01*
X131316670Y-123187762D01*
X131315521Y-123188911D01*
X131313223Y-123190060D01*
X131304030Y-123190060D01*
X131336204Y-123188911D02*
X131339651Y-123190060D01*
X131340800Y-123191210D01*
X131341949Y-123193508D01*
X131341949Y-123196955D01*
X131340800Y-123199253D01*
X131339651Y-123200402D01*
X131337353Y-123201551D01*
X131328160Y-123201551D01*
X131328160Y-123177421D01*
X131336204Y-123177421D01*
X131338502Y-123178570D01*
X131339651Y-123179719D01*
X131340800Y-123182017D01*
X131340800Y-123184315D01*
X131339651Y-123186613D01*
X131338502Y-123187762D01*
X131336204Y-123188911D01*
X131328160Y-123188911D01*
X131351141Y-123179719D02*
X131352290Y-123178570D01*
X131354588Y-123177421D01*
X131360334Y-123177421D01*
X131362632Y-123178570D01*
X131363781Y-123179719D01*
X131364930Y-123182017D01*
X131364930Y-123184315D01*
X131363781Y-123187762D01*
X131349992Y-123201551D01*
X131364930Y-123201551D01*
X131376420Y-123200402D02*
X131376420Y-123201551D01*
X131375271Y-123203849D01*
X131374122Y-123204998D01*
X131398252Y-123177421D02*
X131386761Y-123177421D01*
X131385612Y-123188911D01*
X131386761Y-123187762D01*
X131389059Y-123186613D01*
X131394805Y-123186613D01*
X131397103Y-123187762D01*
X131398252Y-123188911D01*
X131399401Y-123191210D01*
X131399401Y-123196955D01*
X131398252Y-123199253D01*
X131397103Y-123200402D01*
X131394805Y-123201551D01*
X131389059Y-123201551D01*
X131386761Y-123200402D01*
X131385612Y-123199253D01*
X131420084Y-123185464D02*
X131420084Y-123201551D01*
X131414338Y-123176272D02*
X131408593Y-123193508D01*
X131423531Y-123193508D01*
D16*
X176624948Y-113843406D02*
X176050424Y-114245572D01*
X176624948Y-114532834D02*
X175418448Y-114532834D01*
X175418448Y-114073215D01*
X175475900Y-113958310D01*
X175533352Y-113900858D01*
X175648257Y-113843406D01*
X175820614Y-113843406D01*
X175935519Y-113900858D01*
X175992971Y-113958310D01*
X176050424Y-114073215D01*
X176050424Y-114532834D01*
X176624948Y-112694358D02*
X176624948Y-113383786D01*
X176624948Y-113039072D02*
X175418448Y-113039072D01*
X175590805Y-113153977D01*
X175705710Y-113268882D01*
X175763162Y-113383786D01*
X176624948Y-111545310D02*
X176624948Y-112234738D01*
X176624948Y-111890024D02*
X175418448Y-111890024D01*
X175590805Y-112004929D01*
X175705710Y-112119834D01*
X175763162Y-112234738D01*
X171608448Y-111947477D02*
X171608448Y-111832572D01*
X171665900Y-111717667D01*
X171723352Y-111660215D01*
X171838257Y-111602762D01*
X172068067Y-111545310D01*
X172355329Y-111545310D01*
X172585138Y-111602762D01*
X172700043Y-111660215D01*
X172757495Y-111717667D01*
X172814948Y-111832572D01*
X172814948Y-111947477D01*
X172757495Y-112062381D01*
X172700043Y-112119834D01*
X172585138Y-112177286D01*
X172355329Y-112234738D01*
X172068067Y-112234738D01*
X171838257Y-112177286D01*
X171723352Y-112119834D01*
X171665900Y-112062381D01*
X171608448Y-111947477D01*
X172903848Y-115952210D02*
X172329324Y-116354376D01*
X172903848Y-116641638D02*
X171697348Y-116641638D01*
X171697348Y-116182019D01*
X171754800Y-116067114D01*
X171812252Y-116009662D01*
X171927157Y-115952210D01*
X172099514Y-115952210D01*
X172214419Y-116009662D01*
X172271871Y-116067114D01*
X172329324Y-116182019D01*
X172329324Y-116641638D01*
X172903848Y-114803162D02*
X172903848Y-115492590D01*
X172903848Y-115147876D02*
X171697348Y-115147876D01*
X171869705Y-115262781D01*
X171984610Y-115377686D01*
X172042062Y-115492590D01*
X171697348Y-114400995D02*
X171697348Y-113654114D01*
X172156967Y-114056281D01*
X172156967Y-113883923D01*
X172214419Y-113769019D01*
X172271871Y-113711566D01*
X172386776Y-113654114D01*
X172674038Y-113654114D01*
X172788943Y-113711566D01*
X172846395Y-113769019D01*
X172903848Y-113883923D01*
X172903848Y-114228638D01*
X172846395Y-114343542D01*
X172788943Y-114400995D01*
X175507348Y-116411829D02*
X175507348Y-116296924D01*
X175564800Y-116182019D01*
X175622252Y-116124567D01*
X175737157Y-116067114D01*
X175966967Y-116009662D01*
X176254229Y-116009662D01*
X176484038Y-116067114D01*
X176598943Y-116124567D01*
X176656395Y-116182019D01*
X176713848Y-116296924D01*
X176713848Y-116411829D01*
X176656395Y-116526733D01*
X176598943Y-116584186D01*
X176484038Y-116641638D01*
X176254229Y-116699090D01*
X175966967Y-116699090D01*
X175737157Y-116641638D01*
X175622252Y-116584186D01*
X175564800Y-116526733D01*
X175507348Y-116411829D01*
X172617190Y-103345343D02*
X172559738Y-103402795D01*
X172387381Y-103460248D01*
X172272476Y-103460248D01*
X172100119Y-103402795D01*
X171985214Y-103287890D01*
X171927762Y-103172986D01*
X171870310Y-102943176D01*
X171870310Y-102770819D01*
X171927762Y-102541010D01*
X171985214Y-102426105D01*
X172100119Y-102311200D01*
X172272476Y-102253748D01*
X172387381Y-102253748D01*
X172559738Y-102311200D01*
X172617190Y-102368652D01*
X173823690Y-103460248D02*
X173421524Y-102885724D01*
X173134262Y-103460248D02*
X173134262Y-102253748D01*
X173593881Y-102253748D01*
X173708786Y-102311200D01*
X173766238Y-102368652D01*
X173823690Y-102483557D01*
X173823690Y-102655914D01*
X173766238Y-102770819D01*
X173708786Y-102828271D01*
X173593881Y-102885724D01*
X173134262Y-102885724D01*
X174570571Y-102885724D02*
X174570571Y-103460248D01*
X174168405Y-102253748D02*
X174570571Y-102885724D01*
X174972738Y-102253748D01*
X175317453Y-103402795D02*
X175489810Y-103460248D01*
X175777072Y-103460248D01*
X175891976Y-103402795D01*
X175949429Y-103345343D01*
X176006881Y-103230438D01*
X176006881Y-103115533D01*
X175949429Y-103000629D01*
X175891976Y-102943176D01*
X175777072Y-102885724D01*
X175547262Y-102828271D01*
X175432357Y-102770819D01*
X175374905Y-102713367D01*
X175317453Y-102598462D01*
X175317453Y-102483557D01*
X175374905Y-102368652D01*
X175432357Y-102311200D01*
X175547262Y-102253748D01*
X175834524Y-102253748D01*
X176006881Y-102311200D01*
X176351596Y-102253748D02*
X177041024Y-102253748D01*
X176696310Y-103460248D02*
X176696310Y-102253748D01*
X177385739Y-103115533D02*
X177960262Y-103115533D01*
X177270834Y-103460248D02*
X177673000Y-102253748D01*
X178075167Y-103460248D01*
X179051858Y-103460248D02*
X178477334Y-103460248D01*
X178477334Y-102253748D01*
X171812857Y-104793748D02*
X172559738Y-104793748D01*
X172157571Y-105253367D01*
X172329929Y-105253367D01*
X172444833Y-105310819D01*
X172502286Y-105368271D01*
X172559738Y-105483176D01*
X172559738Y-105770438D01*
X172502286Y-105885343D01*
X172444833Y-105942795D01*
X172329929Y-106000248D01*
X171985214Y-106000248D01*
X171870310Y-105942795D01*
X171812857Y-105885343D01*
X173019358Y-104908652D02*
X173076810Y-104851200D01*
X173191715Y-104793748D01*
X173478977Y-104793748D01*
X173593881Y-104851200D01*
X173651334Y-104908652D01*
X173708786Y-105023557D01*
X173708786Y-105138462D01*
X173651334Y-105310819D01*
X172961905Y-106000248D01*
X173708786Y-106000248D01*
X174225858Y-105885343D02*
X174283310Y-105942795D01*
X174225858Y-106000248D01*
X174168406Y-105942795D01*
X174225858Y-105885343D01*
X174225858Y-106000248D01*
X174685477Y-104793748D02*
X175489810Y-104793748D01*
X174972739Y-106000248D01*
X176466501Y-104793748D02*
X176236692Y-104793748D01*
X176121787Y-104851200D01*
X176064335Y-104908652D01*
X175949430Y-105081010D01*
X175891978Y-105310819D01*
X175891978Y-105770438D01*
X175949430Y-105885343D01*
X176006882Y-105942795D01*
X176121787Y-106000248D01*
X176351597Y-106000248D01*
X176466501Y-105942795D01*
X176523954Y-105885343D01*
X176581406Y-105770438D01*
X176581406Y-105483176D01*
X176523954Y-105368271D01*
X176466501Y-105310819D01*
X176351597Y-105253367D01*
X176121787Y-105253367D01*
X176006882Y-105310819D01*
X175949430Y-105368271D01*
X175891978Y-105483176D01*
X177270835Y-105310819D02*
X177155930Y-105253367D01*
X177098478Y-105195914D01*
X177041026Y-105081010D01*
X177041026Y-105023557D01*
X177098478Y-104908652D01*
X177155930Y-104851200D01*
X177270835Y-104793748D01*
X177500645Y-104793748D01*
X177615549Y-104851200D01*
X177673002Y-104908652D01*
X177730454Y-105023557D01*
X177730454Y-105081010D01*
X177673002Y-105195914D01*
X177615549Y-105253367D01*
X177500645Y-105310819D01*
X177270835Y-105310819D01*
X177155930Y-105368271D01*
X177098478Y-105425724D01*
X177041026Y-105540629D01*
X177041026Y-105770438D01*
X177098478Y-105885343D01*
X177155930Y-105942795D01*
X177270835Y-106000248D01*
X177500645Y-106000248D01*
X177615549Y-105942795D01*
X177673002Y-105885343D01*
X177730454Y-105770438D01*
X177730454Y-105540629D01*
X177673002Y-105425724D01*
X177615549Y-105368271D01*
X177500645Y-105310819D01*
X178247526Y-106000248D02*
X178247526Y-104793748D01*
X178362431Y-105540629D02*
X178707145Y-106000248D01*
X178707145Y-105195914D02*
X178247526Y-105655533D01*
X179224216Y-106000248D02*
X179224216Y-104793748D01*
X179224216Y-105368271D02*
X179913644Y-105368271D01*
X179913644Y-106000248D02*
X179913644Y-104793748D01*
X180373263Y-105195914D02*
X181005239Y-105195914D01*
X180373263Y-106000248D01*
X181005239Y-106000248D01*
X172001543Y-100483610D02*
X172058995Y-100541062D01*
X172116448Y-100713419D01*
X172116448Y-100828324D01*
X172058995Y-101000681D01*
X171944090Y-101115586D01*
X171829186Y-101173038D01*
X171599376Y-101230490D01*
X171427019Y-101230490D01*
X171197210Y-101173038D01*
X171082305Y-101115586D01*
X170967400Y-101000681D01*
X170909948Y-100828324D01*
X170909948Y-100713419D01*
X170967400Y-100541062D01*
X171024852Y-100483610D01*
X171427019Y-99794181D02*
X171369567Y-99909086D01*
X171312114Y-99966538D01*
X171197210Y-100023990D01*
X171139757Y-100023990D01*
X171024852Y-99966538D01*
X170967400Y-99909086D01*
X170909948Y-99794181D01*
X170909948Y-99564371D01*
X170967400Y-99449467D01*
X171024852Y-99392014D01*
X171139757Y-99334562D01*
X171197210Y-99334562D01*
X171312114Y-99392014D01*
X171369567Y-99449467D01*
X171427019Y-99564371D01*
X171427019Y-99794181D01*
X171484471Y-99909086D01*
X171541924Y-99966538D01*
X171656829Y-100023990D01*
X171886638Y-100023990D01*
X172001543Y-99966538D01*
X172058995Y-99909086D01*
X172116448Y-99794181D01*
X172116448Y-99564371D01*
X172058995Y-99449467D01*
X172001543Y-99392014D01*
X171886638Y-99334562D01*
X171656829Y-99334562D01*
X171541924Y-99392014D01*
X171484471Y-99449467D01*
X171427019Y-99564371D01*
X174719948Y-101287943D02*
X174719948Y-100541062D01*
X175179567Y-100943229D01*
X175179567Y-100770871D01*
X175237019Y-100655967D01*
X175294471Y-100598514D01*
X175409376Y-100541062D01*
X175696638Y-100541062D01*
X175811543Y-100598514D01*
X175868995Y-100655967D01*
X175926448Y-100770871D01*
X175926448Y-101115586D01*
X175868995Y-101230490D01*
X175811543Y-101287943D01*
X174719948Y-99506919D02*
X174719948Y-99736728D01*
X174777400Y-99851633D01*
X174834852Y-99909085D01*
X175007210Y-100023990D01*
X175237019Y-100081442D01*
X175696638Y-100081442D01*
X175811543Y-100023990D01*
X175868995Y-99966538D01*
X175926448Y-99851633D01*
X175926448Y-99621823D01*
X175868995Y-99506919D01*
X175811543Y-99449466D01*
X175696638Y-99392014D01*
X175409376Y-99392014D01*
X175294471Y-99449466D01*
X175237019Y-99506919D01*
X175179567Y-99621823D01*
X175179567Y-99851633D01*
X175237019Y-99966538D01*
X175294471Y-100023990D01*
X175409376Y-100081442D01*
X175122114Y-98874942D02*
X176328614Y-98874942D01*
X175179567Y-98874942D02*
X175122114Y-98760037D01*
X175122114Y-98530228D01*
X175179567Y-98415323D01*
X175237019Y-98357871D01*
X175351924Y-98300418D01*
X175696638Y-98300418D01*
X175811543Y-98357871D01*
X175868995Y-98415323D01*
X175926448Y-98530228D01*
X175926448Y-98760037D01*
X175868995Y-98874942D01*
X175294471Y-97381180D02*
X175294471Y-97783347D01*
X175926448Y-97783347D02*
X174719948Y-97783347D01*
X174719948Y-97208823D01*
X168420143Y-100483610D02*
X168477595Y-100541062D01*
X168535048Y-100713419D01*
X168535048Y-100828324D01*
X168477595Y-101000681D01*
X168362690Y-101115586D01*
X168247786Y-101173038D01*
X168017976Y-101230490D01*
X167845619Y-101230490D01*
X167615810Y-101173038D01*
X167500905Y-101115586D01*
X167386000Y-101000681D01*
X167328548Y-100828324D01*
X167328548Y-100713419D01*
X167386000Y-100541062D01*
X167443452Y-100483610D01*
X168535048Y-99909086D02*
X168535048Y-99679276D01*
X168477595Y-99564371D01*
X168420143Y-99506919D01*
X168247786Y-99392014D01*
X168017976Y-99334562D01*
X167558357Y-99334562D01*
X167443452Y-99392014D01*
X167386000Y-99449467D01*
X167328548Y-99564371D01*
X167328548Y-99794181D01*
X167386000Y-99909086D01*
X167443452Y-99966538D01*
X167558357Y-100023990D01*
X167845619Y-100023990D01*
X167960524Y-99966538D01*
X168017976Y-99909086D01*
X168075429Y-99794181D01*
X168075429Y-99564371D01*
X168017976Y-99449467D01*
X167960524Y-99392014D01*
X167845619Y-99334562D01*
X172345048Y-100541062D02*
X172345048Y-101230490D01*
X172345048Y-100885776D02*
X171138548Y-100885776D01*
X171310905Y-101000681D01*
X171425810Y-101115586D01*
X171483262Y-101230490D01*
X171655619Y-99851633D02*
X171598167Y-99966538D01*
X171540714Y-100023990D01*
X171425810Y-100081442D01*
X171368357Y-100081442D01*
X171253452Y-100023990D01*
X171196000Y-99966538D01*
X171138548Y-99851633D01*
X171138548Y-99621823D01*
X171196000Y-99506919D01*
X171253452Y-99449466D01*
X171368357Y-99392014D01*
X171425810Y-99392014D01*
X171540714Y-99449466D01*
X171598167Y-99506919D01*
X171655619Y-99621823D01*
X171655619Y-99851633D01*
X171713071Y-99966538D01*
X171770524Y-100023990D01*
X171885429Y-100081442D01*
X172115238Y-100081442D01*
X172230143Y-100023990D01*
X172287595Y-99966538D01*
X172345048Y-99851633D01*
X172345048Y-99621823D01*
X172287595Y-99506919D01*
X172230143Y-99449466D01*
X172115238Y-99392014D01*
X171885429Y-99392014D01*
X171770524Y-99449466D01*
X171713071Y-99506919D01*
X171655619Y-99621823D01*
X171540714Y-98874942D02*
X172747214Y-98874942D01*
X171598167Y-98874942D02*
X171540714Y-98760037D01*
X171540714Y-98530228D01*
X171598167Y-98415323D01*
X171655619Y-98357871D01*
X171770524Y-98300418D01*
X172115238Y-98300418D01*
X172230143Y-98357871D01*
X172287595Y-98415323D01*
X172345048Y-98530228D01*
X172345048Y-98760037D01*
X172287595Y-98874942D01*
X171713071Y-97381180D02*
X171713071Y-97783347D01*
X172345048Y-97783347D02*
X171138548Y-97783347D01*
X171138548Y-97208823D01*
X163937042Y-107523643D02*
X163879590Y-107581095D01*
X163707233Y-107638548D01*
X163592328Y-107638548D01*
X163419971Y-107581095D01*
X163305066Y-107466190D01*
X163247614Y-107351286D01*
X163190162Y-107121476D01*
X163190162Y-106949119D01*
X163247614Y-106719310D01*
X163305066Y-106604405D01*
X163419971Y-106489500D01*
X163592328Y-106432048D01*
X163707233Y-106432048D01*
X163879590Y-106489500D01*
X163937042Y-106546952D01*
X164339209Y-106432048D02*
X165143542Y-106432048D01*
X164626471Y-107638548D01*
X163994495Y-103828548D02*
X163305067Y-103828548D01*
X163649781Y-103828548D02*
X163649781Y-102622048D01*
X163534876Y-102794405D01*
X163419971Y-102909310D01*
X163305067Y-102966762D01*
X165028638Y-103024214D02*
X165028638Y-103828548D01*
X164511567Y-103024214D02*
X164511567Y-103656190D01*
X164569019Y-103771095D01*
X164683924Y-103828548D01*
X164856281Y-103828548D01*
X164971186Y-103771095D01*
X165028638Y-103713643D01*
X169792348Y-102057806D02*
X169217824Y-102459972D01*
X169792348Y-102747234D02*
X168585848Y-102747234D01*
X168585848Y-102287615D01*
X168643300Y-102172710D01*
X168700752Y-102115258D01*
X168815657Y-102057806D01*
X168988014Y-102057806D01*
X169102919Y-102115258D01*
X169160371Y-102172710D01*
X169217824Y-102287615D01*
X169217824Y-102747234D01*
X169792348Y-100908758D02*
X169792348Y-101598186D01*
X169792348Y-101253472D02*
X168585848Y-101253472D01*
X168758205Y-101368377D01*
X168873110Y-101483282D01*
X168930562Y-101598186D01*
X168988014Y-99874615D02*
X169792348Y-99874615D01*
X168528395Y-100161877D02*
X169390181Y-100449138D01*
X169390181Y-99702258D01*
X165178014Y-102574877D02*
X165982348Y-102574877D01*
X164718395Y-102862139D02*
X165580181Y-103149400D01*
X165580181Y-102402520D01*
X165867443Y-101942900D02*
X165924895Y-101885448D01*
X165982348Y-101942900D01*
X165924895Y-102000352D01*
X165867443Y-101942900D01*
X165982348Y-101942900D01*
X164775848Y-101483281D02*
X164775848Y-100678948D01*
X165982348Y-101196019D01*
X165982348Y-100219328D02*
X164775848Y-100219328D01*
X165522729Y-100104423D02*
X165982348Y-99759709D01*
X165178014Y-99759709D02*
X165637633Y-100219328D01*
X137591194Y-111892443D02*
X137533742Y-111949895D01*
X137361385Y-112007348D01*
X137246480Y-112007348D01*
X137074123Y-111949895D01*
X136959218Y-111834990D01*
X136901766Y-111720086D01*
X136844314Y-111490276D01*
X136844314Y-111317919D01*
X136901766Y-111088110D01*
X136959218Y-110973205D01*
X137074123Y-110858300D01*
X137246480Y-110800848D01*
X137361385Y-110800848D01*
X137533742Y-110858300D01*
X137591194Y-110915752D01*
X138740242Y-112007348D02*
X138050814Y-112007348D01*
X138395528Y-112007348D02*
X138395528Y-110800848D01*
X138280623Y-110973205D01*
X138165718Y-111088110D01*
X138050814Y-111145562D01*
X139487123Y-110800848D02*
X139602028Y-110800848D01*
X139716933Y-110858300D01*
X139774385Y-110915752D01*
X139831838Y-111030657D01*
X139889290Y-111260467D01*
X139889290Y-111547729D01*
X139831838Y-111777538D01*
X139774385Y-111892443D01*
X139716933Y-111949895D01*
X139602028Y-112007348D01*
X139487123Y-112007348D01*
X139372219Y-111949895D01*
X139314766Y-111892443D01*
X139257314Y-111777538D01*
X139199862Y-111547729D01*
X139199862Y-111260467D01*
X139257314Y-111030657D01*
X139314766Y-110915752D01*
X139372219Y-110858300D01*
X139487123Y-110800848D01*
X136671956Y-106990848D02*
X136786861Y-106990848D01*
X136901766Y-107048300D01*
X136959218Y-107105752D01*
X137016671Y-107220657D01*
X137074123Y-107450467D01*
X137074123Y-107737729D01*
X137016671Y-107967538D01*
X136959218Y-108082443D01*
X136901766Y-108139895D01*
X136786861Y-108197348D01*
X136671956Y-108197348D01*
X136557052Y-108139895D01*
X136499599Y-108082443D01*
X136442147Y-107967538D01*
X136384695Y-107737729D01*
X136384695Y-107450467D01*
X136442147Y-107220657D01*
X136499599Y-107105752D01*
X136557052Y-107048300D01*
X136671956Y-106990848D01*
X137591195Y-108082443D02*
X137648647Y-108139895D01*
X137591195Y-108197348D01*
X137533743Y-108139895D01*
X137591195Y-108082443D01*
X137591195Y-108197348D01*
X138797695Y-108197348D02*
X138108267Y-108197348D01*
X138452981Y-108197348D02*
X138452981Y-106990848D01*
X138338076Y-107163205D01*
X138223171Y-107278110D01*
X138108267Y-107335562D01*
X139831838Y-107393014D02*
X139831838Y-108197348D01*
X139314767Y-107393014D02*
X139314767Y-108024990D01*
X139372219Y-108139895D01*
X139487124Y-108197348D01*
X139659481Y-108197348D01*
X139774386Y-108139895D01*
X139831838Y-108082443D01*
X123785086Y-130409648D02*
X123210562Y-130409648D01*
X123210562Y-129203148D01*
X124819228Y-130409648D02*
X124129800Y-130409648D01*
X124474514Y-130409648D02*
X124474514Y-129203148D01*
X124359609Y-129375505D01*
X124244704Y-129490410D01*
X124129800Y-129547862D01*
X123095657Y-133013148D02*
X123842538Y-133013148D01*
X123440371Y-133472767D01*
X123612729Y-133472767D01*
X123727633Y-133530219D01*
X123785086Y-133587671D01*
X123842538Y-133702576D01*
X123842538Y-133989838D01*
X123785086Y-134104743D01*
X123727633Y-134162195D01*
X123612729Y-134219648D01*
X123268014Y-134219648D01*
X123153110Y-134162195D01*
X123095657Y-134104743D01*
X124244705Y-133013148D02*
X124991586Y-133013148D01*
X124589419Y-133472767D01*
X124761777Y-133472767D01*
X124876681Y-133530219D01*
X124934134Y-133587671D01*
X124991586Y-133702576D01*
X124991586Y-133989838D01*
X124934134Y-134104743D01*
X124876681Y-134162195D01*
X124761777Y-134219648D01*
X124417062Y-134219648D01*
X124302158Y-134162195D01*
X124244705Y-134104743D01*
X125738467Y-133013148D02*
X125853372Y-133013148D01*
X125968277Y-133070600D01*
X126025729Y-133128052D01*
X126083182Y-133242957D01*
X126140634Y-133472767D01*
X126140634Y-133760029D01*
X126083182Y-133989838D01*
X126025729Y-134104743D01*
X125968277Y-134162195D01*
X125853372Y-134219648D01*
X125738467Y-134219648D01*
X125623563Y-134162195D01*
X125566110Y-134104743D01*
X125508658Y-133989838D01*
X125451206Y-133760029D01*
X125451206Y-133472767D01*
X125508658Y-133242957D01*
X125566110Y-133128052D01*
X125623563Y-133070600D01*
X125738467Y-133013148D01*
X126657706Y-133760029D02*
X127576944Y-133760029D01*
X128668539Y-133013148D02*
X128438730Y-133013148D01*
X128323825Y-133070600D01*
X128266373Y-133128052D01*
X128151468Y-133300410D01*
X128094016Y-133530219D01*
X128094016Y-133989838D01*
X128151468Y-134104743D01*
X128208920Y-134162195D01*
X128323825Y-134219648D01*
X128553635Y-134219648D01*
X128668539Y-134162195D01*
X128725992Y-134104743D01*
X128783444Y-133989838D01*
X128783444Y-133702576D01*
X128725992Y-133587671D01*
X128668539Y-133530219D01*
X128553635Y-133472767D01*
X128323825Y-133472767D01*
X128208920Y-133530219D01*
X128151468Y-133587671D01*
X128094016Y-133702576D01*
X129530325Y-133013148D02*
X129645230Y-133013148D01*
X129760135Y-133070600D01*
X129817587Y-133128052D01*
X129875040Y-133242957D01*
X129932492Y-133472767D01*
X129932492Y-133760029D01*
X129875040Y-133989838D01*
X129817587Y-134104743D01*
X129760135Y-134162195D01*
X129645230Y-134219648D01*
X129530325Y-134219648D01*
X129415421Y-134162195D01*
X129357968Y-134104743D01*
X129300516Y-133989838D01*
X129243064Y-133760029D01*
X129243064Y-133472767D01*
X129300516Y-133242957D01*
X129357968Y-133128052D01*
X129415421Y-133070600D01*
X129530325Y-133013148D01*
X130679373Y-133013148D02*
X130794278Y-133013148D01*
X130909183Y-133070600D01*
X130966635Y-133128052D01*
X131024088Y-133242957D01*
X131081540Y-133472767D01*
X131081540Y-133760029D01*
X131024088Y-133989838D01*
X130966635Y-134104743D01*
X130909183Y-134162195D01*
X130794278Y-134219648D01*
X130679373Y-134219648D01*
X130564469Y-134162195D01*
X130507016Y-134104743D01*
X130449564Y-133989838D01*
X130392112Y-133760029D01*
X130392112Y-133472767D01*
X130449564Y-133242957D01*
X130507016Y-133128052D01*
X130564469Y-133070600D01*
X130679373Y-133013148D01*
X131828421Y-133013148D02*
X132058231Y-133013148D01*
X132173136Y-133070600D01*
X132288040Y-133185505D01*
X132345493Y-133415314D01*
X132345493Y-133817481D01*
X132288040Y-134047290D01*
X132173136Y-134162195D01*
X132058231Y-134219648D01*
X131828421Y-134219648D01*
X131713517Y-134162195D01*
X131598612Y-134047290D01*
X131541160Y-133817481D01*
X131541160Y-133415314D01*
X131598612Y-133185505D01*
X131713517Y-133070600D01*
X131828421Y-133013148D01*
X132862564Y-134219648D02*
X132862564Y-133013148D01*
X133379635Y-134219648D02*
X133379635Y-133587671D01*
X133322183Y-133472767D01*
X133207278Y-133415314D01*
X133034921Y-133415314D01*
X132920016Y-133472767D01*
X132862564Y-133530219D01*
X133954159Y-134219648D02*
X133954159Y-133415314D01*
X133954159Y-133530219D02*
X134011611Y-133472767D01*
X134126516Y-133415314D01*
X134298873Y-133415314D01*
X134413778Y-133472767D01*
X134471230Y-133587671D01*
X134471230Y-134219648D01*
X134471230Y-133587671D02*
X134528683Y-133472767D01*
X134643587Y-133415314D01*
X134815945Y-133415314D01*
X134930849Y-133472767D01*
X134988302Y-133587671D01*
X134988302Y-134219648D01*
X136309707Y-133645124D02*
X136252254Y-133587671D01*
X136137350Y-133530219D01*
X136022445Y-133530219D01*
X135907540Y-133587671D01*
X135850088Y-133645124D01*
X135792635Y-133760029D01*
X135792635Y-133874933D01*
X135850088Y-133989838D01*
X135907540Y-134047290D01*
X136022445Y-134104743D01*
X136137350Y-134104743D01*
X136252254Y-134047290D01*
X136309707Y-133989838D01*
X136309707Y-133530219D02*
X136309707Y-133989838D01*
X136367159Y-134047290D01*
X136424612Y-134047290D01*
X136539516Y-133989838D01*
X136596969Y-133874933D01*
X136596969Y-133587671D01*
X136482064Y-133415314D01*
X136309707Y-133300410D01*
X136079897Y-133242957D01*
X135850088Y-133300410D01*
X135677731Y-133415314D01*
X135562826Y-133587671D01*
X135505374Y-133817481D01*
X135562826Y-134047290D01*
X135677731Y-134219648D01*
X135850088Y-134334552D01*
X136079897Y-134392005D01*
X136309707Y-134334552D01*
X136482064Y-134219648D01*
X137746016Y-134219648D02*
X137056588Y-134219648D01*
X137401302Y-134219648D02*
X137401302Y-133013148D01*
X137286397Y-133185505D01*
X137171492Y-133300410D01*
X137056588Y-133357862D01*
X138263088Y-134219648D02*
X138263088Y-133013148D01*
X138665255Y-133874933D01*
X139067421Y-133013148D01*
X139067421Y-134219648D01*
X139641945Y-134219648D02*
X139641945Y-133013148D01*
X140159016Y-134219648D02*
X140159016Y-133587671D01*
X140101564Y-133472767D01*
X139986659Y-133415314D01*
X139814302Y-133415314D01*
X139699397Y-133472767D01*
X139641945Y-133530219D01*
X140618635Y-133415314D02*
X141250611Y-133415314D01*
X140618635Y-134219648D01*
X141250611Y-134219648D01*
X123835886Y-124186648D02*
X123261362Y-124186648D01*
X123261362Y-122980148D01*
X124180600Y-123095052D02*
X124238052Y-123037600D01*
X124352957Y-122980148D01*
X124640219Y-122980148D01*
X124755123Y-123037600D01*
X124812576Y-123095052D01*
X124870028Y-123209957D01*
X124870028Y-123324862D01*
X124812576Y-123497219D01*
X124123147Y-124186648D01*
X124870028Y-124186648D01*
X123146457Y-126790148D02*
X123893338Y-126790148D01*
X123491171Y-127249767D01*
X123663529Y-127249767D01*
X123778433Y-127307219D01*
X123835886Y-127364671D01*
X123893338Y-127479576D01*
X123893338Y-127766838D01*
X123835886Y-127881743D01*
X123778433Y-127939195D01*
X123663529Y-127996648D01*
X123318814Y-127996648D01*
X123203910Y-127939195D01*
X123146457Y-127881743D01*
X124295505Y-126790148D02*
X125042386Y-126790148D01*
X124640219Y-127249767D01*
X124812577Y-127249767D01*
X124927481Y-127307219D01*
X124984934Y-127364671D01*
X125042386Y-127479576D01*
X125042386Y-127766838D01*
X124984934Y-127881743D01*
X124927481Y-127939195D01*
X124812577Y-127996648D01*
X124467862Y-127996648D01*
X124352958Y-127939195D01*
X124295505Y-127881743D01*
X125789267Y-126790148D02*
X125904172Y-126790148D01*
X126019077Y-126847600D01*
X126076529Y-126905052D01*
X126133982Y-127019957D01*
X126191434Y-127249767D01*
X126191434Y-127537029D01*
X126133982Y-127766838D01*
X126076529Y-127881743D01*
X126019077Y-127939195D01*
X125904172Y-127996648D01*
X125789267Y-127996648D01*
X125674363Y-127939195D01*
X125616910Y-127881743D01*
X125559458Y-127766838D01*
X125502006Y-127537029D01*
X125502006Y-127249767D01*
X125559458Y-127019957D01*
X125616910Y-126905052D01*
X125674363Y-126847600D01*
X125789267Y-126790148D01*
X126708506Y-127537029D02*
X127627744Y-127537029D01*
X128719339Y-126790148D02*
X128489530Y-126790148D01*
X128374625Y-126847600D01*
X128317173Y-126905052D01*
X128202268Y-127077410D01*
X128144816Y-127307219D01*
X128144816Y-127766838D01*
X128202268Y-127881743D01*
X128259720Y-127939195D01*
X128374625Y-127996648D01*
X128604435Y-127996648D01*
X128719339Y-127939195D01*
X128776792Y-127881743D01*
X128834244Y-127766838D01*
X128834244Y-127479576D01*
X128776792Y-127364671D01*
X128719339Y-127307219D01*
X128604435Y-127249767D01*
X128374625Y-127249767D01*
X128259720Y-127307219D01*
X128202268Y-127364671D01*
X128144816Y-127479576D01*
X129581125Y-126790148D02*
X129696030Y-126790148D01*
X129810935Y-126847600D01*
X129868387Y-126905052D01*
X129925840Y-127019957D01*
X129983292Y-127249767D01*
X129983292Y-127537029D01*
X129925840Y-127766838D01*
X129868387Y-127881743D01*
X129810935Y-127939195D01*
X129696030Y-127996648D01*
X129581125Y-127996648D01*
X129466221Y-127939195D01*
X129408768Y-127881743D01*
X129351316Y-127766838D01*
X129293864Y-127537029D01*
X129293864Y-127249767D01*
X129351316Y-127019957D01*
X129408768Y-126905052D01*
X129466221Y-126847600D01*
X129581125Y-126790148D01*
X130730173Y-126790148D02*
X130845078Y-126790148D01*
X130959983Y-126847600D01*
X131017435Y-126905052D01*
X131074888Y-127019957D01*
X131132340Y-127249767D01*
X131132340Y-127537029D01*
X131074888Y-127766838D01*
X131017435Y-127881743D01*
X130959983Y-127939195D01*
X130845078Y-127996648D01*
X130730173Y-127996648D01*
X130615269Y-127939195D01*
X130557816Y-127881743D01*
X130500364Y-127766838D01*
X130442912Y-127537029D01*
X130442912Y-127249767D01*
X130500364Y-127019957D01*
X130557816Y-126905052D01*
X130615269Y-126847600D01*
X130730173Y-126790148D01*
X131879221Y-126790148D02*
X132109031Y-126790148D01*
X132223936Y-126847600D01*
X132338840Y-126962505D01*
X132396293Y-127192314D01*
X132396293Y-127594481D01*
X132338840Y-127824290D01*
X132223936Y-127939195D01*
X132109031Y-127996648D01*
X131879221Y-127996648D01*
X131764317Y-127939195D01*
X131649412Y-127824290D01*
X131591960Y-127594481D01*
X131591960Y-127192314D01*
X131649412Y-126962505D01*
X131764317Y-126847600D01*
X131879221Y-126790148D01*
X132913364Y-127996648D02*
X132913364Y-126790148D01*
X133430435Y-127996648D02*
X133430435Y-127364671D01*
X133372983Y-127249767D01*
X133258078Y-127192314D01*
X133085721Y-127192314D01*
X132970816Y-127249767D01*
X132913364Y-127307219D01*
X134004959Y-127996648D02*
X134004959Y-127192314D01*
X134004959Y-127307219D02*
X134062411Y-127249767D01*
X134177316Y-127192314D01*
X134349673Y-127192314D01*
X134464578Y-127249767D01*
X134522030Y-127364671D01*
X134522030Y-127996648D01*
X134522030Y-127364671D02*
X134579483Y-127249767D01*
X134694387Y-127192314D01*
X134866745Y-127192314D01*
X134981649Y-127249767D01*
X135039102Y-127364671D01*
X135039102Y-127996648D01*
X136360507Y-127422124D02*
X136303054Y-127364671D01*
X136188150Y-127307219D01*
X136073245Y-127307219D01*
X135958340Y-127364671D01*
X135900888Y-127422124D01*
X135843435Y-127537029D01*
X135843435Y-127651933D01*
X135900888Y-127766838D01*
X135958340Y-127824290D01*
X136073245Y-127881743D01*
X136188150Y-127881743D01*
X136303054Y-127824290D01*
X136360507Y-127766838D01*
X136360507Y-127307219D02*
X136360507Y-127766838D01*
X136417959Y-127824290D01*
X136475412Y-127824290D01*
X136590316Y-127766838D01*
X136647769Y-127651933D01*
X136647769Y-127364671D01*
X136532864Y-127192314D01*
X136360507Y-127077410D01*
X136130697Y-127019957D01*
X135900888Y-127077410D01*
X135728531Y-127192314D01*
X135613626Y-127364671D01*
X135556174Y-127594481D01*
X135613626Y-127824290D01*
X135728531Y-127996648D01*
X135900888Y-128111552D01*
X136130697Y-128169005D01*
X136360507Y-128111552D01*
X136532864Y-127996648D01*
X137796816Y-127996648D02*
X137107388Y-127996648D01*
X137452102Y-127996648D02*
X137452102Y-126790148D01*
X137337197Y-126962505D01*
X137222292Y-127077410D01*
X137107388Y-127134862D01*
X138313888Y-127996648D02*
X138313888Y-126790148D01*
X138716055Y-127651933D01*
X139118221Y-126790148D01*
X139118221Y-127996648D01*
X139692745Y-127996648D02*
X139692745Y-126790148D01*
X140209816Y-127996648D02*
X140209816Y-127364671D01*
X140152364Y-127249767D01*
X140037459Y-127192314D01*
X139865102Y-127192314D01*
X139750197Y-127249767D01*
X139692745Y-127307219D01*
X140669435Y-127192314D02*
X141301411Y-127192314D01*
X140669435Y-127996648D01*
X141301411Y-127996648D01*
X123925390Y-127183848D02*
X123523224Y-126609324D01*
X123235962Y-127183848D02*
X123235962Y-125977348D01*
X123695581Y-125977348D01*
X123810486Y-126034800D01*
X123867938Y-126092252D01*
X123925390Y-126207157D01*
X123925390Y-126379514D01*
X123867938Y-126494419D01*
X123810486Y-126551871D01*
X123695581Y-126609324D01*
X123235962Y-126609324D01*
X125074438Y-127183848D02*
X124385010Y-127183848D01*
X124729724Y-127183848D02*
X124729724Y-125977348D01*
X124614819Y-126149705D01*
X124499914Y-126264610D01*
X124385010Y-126322062D01*
X126166034Y-125977348D02*
X125591510Y-125977348D01*
X125534058Y-126551871D01*
X125591510Y-126494419D01*
X125706415Y-126436967D01*
X125993677Y-126436967D01*
X126108581Y-126494419D01*
X126166034Y-126551871D01*
X126223486Y-126666776D01*
X126223486Y-126954038D01*
X126166034Y-127068943D01*
X126108581Y-127126395D01*
X125993677Y-127183848D01*
X125706415Y-127183848D01*
X125591510Y-127126395D01*
X125534058Y-127068943D01*
X123465771Y-129787348D02*
X123580676Y-129787348D01*
X123695581Y-129844800D01*
X123753033Y-129902252D01*
X123810486Y-130017157D01*
X123867938Y-130246967D01*
X123867938Y-130534229D01*
X123810486Y-130764038D01*
X123753033Y-130878943D01*
X123695581Y-130936395D01*
X123580676Y-130993848D01*
X123465771Y-130993848D01*
X123350867Y-130936395D01*
X123293414Y-130878943D01*
X123235962Y-130764038D01*
X123178510Y-130534229D01*
X123178510Y-130246967D01*
X123235962Y-130017157D01*
X123293414Y-129902252D01*
X123350867Y-129844800D01*
X123465771Y-129787348D01*
X124554948Y-122115943D02*
X124554948Y-121369062D01*
X125014567Y-121771229D01*
X125014567Y-121598871D01*
X125072019Y-121483967D01*
X125129471Y-121426514D01*
X125244376Y-121369062D01*
X125531638Y-121369062D01*
X125646543Y-121426514D01*
X125703995Y-121483967D01*
X125761448Y-121598871D01*
X125761448Y-121943586D01*
X125703995Y-122058490D01*
X125646543Y-122115943D01*
X124554948Y-121024347D02*
X125761448Y-120622181D01*
X124554948Y-120220014D01*
X124554948Y-119932752D02*
X124554948Y-119185871D01*
X125014567Y-119588038D01*
X125014567Y-119415680D01*
X125072019Y-119300776D01*
X125129471Y-119243323D01*
X125244376Y-119185871D01*
X125531638Y-119185871D01*
X125646543Y-119243323D01*
X125703995Y-119300776D01*
X125761448Y-119415680D01*
X125761448Y-119760395D01*
X125703995Y-119875299D01*
X125646543Y-119932752D01*
X127133048Y-121426514D02*
X127133048Y-122001038D01*
X125926548Y-122001038D01*
X127133048Y-121024348D02*
X125926548Y-121024348D01*
X125926548Y-120737086D01*
X125984000Y-120564729D01*
X126098905Y-120449824D01*
X126213810Y-120392372D01*
X126443619Y-120334920D01*
X126615976Y-120334920D01*
X126845786Y-120392372D01*
X126960690Y-120449824D01*
X127075595Y-120564729D01*
X127133048Y-120737086D01*
X127133048Y-121024348D01*
X127133048Y-119185872D02*
X127133048Y-119875300D01*
X127133048Y-119530586D02*
X125926548Y-119530586D01*
X126098905Y-119645491D01*
X126213810Y-119760396D01*
X126271262Y-119875300D01*
X127133048Y-118036824D02*
X127133048Y-118726252D01*
X127133048Y-118381538D02*
X125926548Y-118381538D01*
X126098905Y-118496443D01*
X126213810Y-118611348D01*
X126271262Y-118726252D01*
X125926548Y-117634657D02*
X125926548Y-116830324D01*
X127133048Y-117347395D01*
X126788333Y-116428156D02*
X126788333Y-115853633D01*
X127133048Y-116543061D02*
X125926548Y-116140895D01*
X127133048Y-115738728D01*
X127075595Y-115394013D02*
X127133048Y-115221656D01*
X127133048Y-114934394D01*
X127075595Y-114819490D01*
X127018143Y-114762037D01*
X126903238Y-114704585D01*
X126788333Y-114704585D01*
X126673429Y-114762037D01*
X126615976Y-114819490D01*
X126558524Y-114934394D01*
X126501071Y-115164204D01*
X126443619Y-115279109D01*
X126386167Y-115336561D01*
X126271262Y-115394013D01*
X126156357Y-115394013D01*
X126041452Y-115336561D01*
X125984000Y-115279109D01*
X125926548Y-115164204D01*
X125926548Y-114876942D01*
X125984000Y-114704585D01*
X125926548Y-114302418D02*
X125926548Y-113555537D01*
X126386167Y-113957704D01*
X126386167Y-113785346D01*
X126443619Y-113670442D01*
X126501071Y-113612989D01*
X126615976Y-113555537D01*
X126903238Y-113555537D01*
X127018143Y-113612989D01*
X127075595Y-113670442D01*
X127133048Y-113785346D01*
X127133048Y-114130061D01*
X127075595Y-114244965D01*
X127018143Y-114302418D01*
X125926548Y-113153370D02*
X125926548Y-112406489D01*
X126386167Y-112808656D01*
X126386167Y-112636298D01*
X126443619Y-112521394D01*
X126501071Y-112463941D01*
X126615976Y-112406489D01*
X126903238Y-112406489D01*
X127018143Y-112463941D01*
X127075595Y-112521394D01*
X127133048Y-112636298D01*
X127133048Y-112981013D01*
X127075595Y-113095917D01*
X127018143Y-113153370D01*
X125926548Y-112061774D02*
X125926548Y-111372346D01*
X127133048Y-111717060D02*
X125926548Y-111717060D01*
X127133048Y-110280751D02*
X126558524Y-110682917D01*
X127133048Y-110970179D02*
X125926548Y-110970179D01*
X125926548Y-110510560D01*
X125984000Y-110395655D01*
X126041452Y-110338203D01*
X126156357Y-110280751D01*
X126328714Y-110280751D01*
X126443619Y-110338203D01*
X126501071Y-110395655D01*
X126558524Y-110510560D01*
X126558524Y-110970179D01*
D18*
X159247598Y-95135821D02*
X159261387Y-95135821D01*
X159254492Y-95159951D02*
X159254492Y-95135821D01*
X159269430Y-95159951D02*
X159269430Y-95135821D01*
X159278623Y-95135821D01*
X159280921Y-95136970D01*
X159282070Y-95138119D01*
X159283219Y-95140417D01*
X159283219Y-95143864D01*
X159282070Y-95146162D01*
X159280921Y-95147311D01*
X159278623Y-95148460D01*
X159269430Y-95148460D01*
X159301604Y-95147311D02*
X159305051Y-95148460D01*
X159306200Y-95149610D01*
X159307349Y-95151908D01*
X159307349Y-95155355D01*
X159306200Y-95157653D01*
X159305051Y-95158802D01*
X159302753Y-95159951D01*
X159293560Y-95159951D01*
X159293560Y-95135821D01*
X159301604Y-95135821D01*
X159303902Y-95136970D01*
X159305051Y-95138119D01*
X159306200Y-95140417D01*
X159306200Y-95142715D01*
X159305051Y-95145013D01*
X159303902Y-95146162D01*
X159301604Y-95147311D01*
X159293560Y-95147311D01*
X159316541Y-95138119D02*
X159317690Y-95136970D01*
X159319988Y-95135821D01*
X159325734Y-95135821D01*
X159328032Y-95136970D01*
X159329181Y-95138119D01*
X159330330Y-95140417D01*
X159330330Y-95142715D01*
X159329181Y-95146162D01*
X159315392Y-95159951D01*
X159330330Y-95159951D01*
X159341820Y-95158802D02*
X159341820Y-95159951D01*
X159340671Y-95162249D01*
X159339522Y-95163398D01*
X159363652Y-95135821D02*
X159352161Y-95135821D01*
X159351012Y-95147311D01*
X159352161Y-95146162D01*
X159354459Y-95145013D01*
X159360205Y-95145013D01*
X159362503Y-95146162D01*
X159363652Y-95147311D01*
X159364801Y-95149610D01*
X159364801Y-95155355D01*
X159363652Y-95157653D01*
X159362503Y-95158802D01*
X159360205Y-95159951D01*
X159354459Y-95159951D01*
X159352161Y-95158802D01*
X159351012Y-95157653D01*
X159385484Y-95143864D02*
X159385484Y-95159951D01*
X159379738Y-95134672D02*
X159373993Y-95151908D01*
X159388931Y-95151908D01*
X155208998Y-99149021D02*
X155222787Y-99149021D01*
X155215892Y-99173151D02*
X155215892Y-99149021D01*
X155230830Y-99173151D02*
X155230830Y-99149021D01*
X155240023Y-99149021D01*
X155242321Y-99150170D01*
X155243470Y-99151319D01*
X155244619Y-99153617D01*
X155244619Y-99157064D01*
X155243470Y-99159362D01*
X155242321Y-99160511D01*
X155240023Y-99161660D01*
X155230830Y-99161660D01*
X155263004Y-99160511D02*
X155266451Y-99161660D01*
X155267600Y-99162810D01*
X155268749Y-99165108D01*
X155268749Y-99168555D01*
X155267600Y-99170853D01*
X155266451Y-99172002D01*
X155264153Y-99173151D01*
X155254960Y-99173151D01*
X155254960Y-99149021D01*
X155263004Y-99149021D01*
X155265302Y-99150170D01*
X155266451Y-99151319D01*
X155267600Y-99153617D01*
X155267600Y-99155915D01*
X155266451Y-99158213D01*
X155265302Y-99159362D01*
X155263004Y-99160511D01*
X155254960Y-99160511D01*
X155277941Y-99151319D02*
X155279090Y-99150170D01*
X155281388Y-99149021D01*
X155287134Y-99149021D01*
X155289432Y-99150170D01*
X155290581Y-99151319D01*
X155291730Y-99153617D01*
X155291730Y-99155915D01*
X155290581Y-99159362D01*
X155276792Y-99173151D01*
X155291730Y-99173151D01*
X155303220Y-99172002D02*
X155303220Y-99173151D01*
X155302071Y-99175449D01*
X155300922Y-99176598D01*
X155325052Y-99149021D02*
X155313561Y-99149021D01*
X155312412Y-99160511D01*
X155313561Y-99159362D01*
X155315859Y-99158213D01*
X155321605Y-99158213D01*
X155323903Y-99159362D01*
X155325052Y-99160511D01*
X155326201Y-99162810D01*
X155326201Y-99168555D01*
X155325052Y-99170853D01*
X155323903Y-99172002D01*
X155321605Y-99173151D01*
X155315859Y-99173151D01*
X155313561Y-99172002D01*
X155312412Y-99170853D01*
X155346884Y-99157064D02*
X155346884Y-99173151D01*
X155341138Y-99147872D02*
X155335393Y-99165108D01*
X155350331Y-99165108D01*
X163235398Y-91148021D02*
X163249187Y-91148021D01*
X163242292Y-91172151D02*
X163242292Y-91148021D01*
X163257230Y-91172151D02*
X163257230Y-91148021D01*
X163266423Y-91148021D01*
X163268721Y-91149170D01*
X163269870Y-91150319D01*
X163271019Y-91152617D01*
X163271019Y-91156064D01*
X163269870Y-91158362D01*
X163268721Y-91159511D01*
X163266423Y-91160660D01*
X163257230Y-91160660D01*
X163289404Y-91159511D02*
X163292851Y-91160660D01*
X163294000Y-91161810D01*
X163295149Y-91164108D01*
X163295149Y-91167555D01*
X163294000Y-91169853D01*
X163292851Y-91171002D01*
X163290553Y-91172151D01*
X163281360Y-91172151D01*
X163281360Y-91148021D01*
X163289404Y-91148021D01*
X163291702Y-91149170D01*
X163292851Y-91150319D01*
X163294000Y-91152617D01*
X163294000Y-91154915D01*
X163292851Y-91157213D01*
X163291702Y-91158362D01*
X163289404Y-91159511D01*
X163281360Y-91159511D01*
X163304341Y-91150319D02*
X163305490Y-91149170D01*
X163307788Y-91148021D01*
X163313534Y-91148021D01*
X163315832Y-91149170D01*
X163316981Y-91150319D01*
X163318130Y-91152617D01*
X163318130Y-91154915D01*
X163316981Y-91158362D01*
X163303192Y-91172151D01*
X163318130Y-91172151D01*
X163329620Y-91171002D02*
X163329620Y-91172151D01*
X163328471Y-91174449D01*
X163327322Y-91175598D01*
X163351452Y-91148021D02*
X163339961Y-91148021D01*
X163338812Y-91159511D01*
X163339961Y-91158362D01*
X163342259Y-91157213D01*
X163348005Y-91157213D01*
X163350303Y-91158362D01*
X163351452Y-91159511D01*
X163352601Y-91161810D01*
X163352601Y-91167555D01*
X163351452Y-91169853D01*
X163350303Y-91171002D01*
X163348005Y-91172151D01*
X163342259Y-91172151D01*
X163339961Y-91171002D01*
X163338812Y-91169853D01*
X163373284Y-91156064D02*
X163373284Y-91172151D01*
X163367538Y-91146872D02*
X163361793Y-91164108D01*
X163376731Y-91164108D01*
X167223198Y-87160221D02*
X167236987Y-87160221D01*
X167230092Y-87184351D02*
X167230092Y-87160221D01*
X167245030Y-87184351D02*
X167245030Y-87160221D01*
X167254223Y-87160221D01*
X167256521Y-87161370D01*
X167257670Y-87162519D01*
X167258819Y-87164817D01*
X167258819Y-87168264D01*
X167257670Y-87170562D01*
X167256521Y-87171711D01*
X167254223Y-87172860D01*
X167245030Y-87172860D01*
X167277204Y-87171711D02*
X167280651Y-87172860D01*
X167281800Y-87174010D01*
X167282949Y-87176308D01*
X167282949Y-87179755D01*
X167281800Y-87182053D01*
X167280651Y-87183202D01*
X167278353Y-87184351D01*
X167269160Y-87184351D01*
X167269160Y-87160221D01*
X167277204Y-87160221D01*
X167279502Y-87161370D01*
X167280651Y-87162519D01*
X167281800Y-87164817D01*
X167281800Y-87167115D01*
X167280651Y-87169413D01*
X167279502Y-87170562D01*
X167277204Y-87171711D01*
X167269160Y-87171711D01*
X167292141Y-87162519D02*
X167293290Y-87161370D01*
X167295588Y-87160221D01*
X167301334Y-87160221D01*
X167303632Y-87161370D01*
X167304781Y-87162519D01*
X167305930Y-87164817D01*
X167305930Y-87167115D01*
X167304781Y-87170562D01*
X167290992Y-87184351D01*
X167305930Y-87184351D01*
X167317420Y-87183202D02*
X167317420Y-87184351D01*
X167316271Y-87186649D01*
X167315122Y-87187798D01*
X167339252Y-87160221D02*
X167327761Y-87160221D01*
X167326612Y-87171711D01*
X167327761Y-87170562D01*
X167330059Y-87169413D01*
X167335805Y-87169413D01*
X167338103Y-87170562D01*
X167339252Y-87171711D01*
X167340401Y-87174010D01*
X167340401Y-87179755D01*
X167339252Y-87182053D01*
X167338103Y-87183202D01*
X167335805Y-87184351D01*
X167330059Y-87184351D01*
X167327761Y-87183202D01*
X167326612Y-87182053D01*
X167361084Y-87168264D02*
X167361084Y-87184351D01*
X167355338Y-87159072D02*
X167349593Y-87176308D01*
X167364531Y-87176308D01*
D16*
X162324748Y-128390347D02*
X162324748Y-128964871D01*
X161118248Y-128964871D01*
X161692771Y-127988181D02*
X161692771Y-127586014D01*
X162324748Y-127413657D02*
X162324748Y-127988181D01*
X161118248Y-127988181D01*
X161118248Y-127413657D01*
X162324748Y-126896586D02*
X161118248Y-126896586D01*
X161118248Y-126609324D01*
X161175700Y-126436967D01*
X161290605Y-126322062D01*
X161405510Y-126264610D01*
X161635319Y-126207158D01*
X161807676Y-126207158D01*
X162037486Y-126264610D01*
X162152390Y-126322062D01*
X162267295Y-126436967D01*
X162324748Y-126609324D01*
X162324748Y-126896586D01*
X162324748Y-125058110D02*
X162324748Y-125747538D01*
X162324748Y-125402824D02*
X161118248Y-125402824D01*
X161290605Y-125517729D01*
X161405510Y-125632634D01*
X161462962Y-125747538D01*
D19*
X161405510Y-123144643D02*
X162140900Y-123144643D01*
X161773205Y-123512338D02*
X161773205Y-122776948D01*
D16*
X161042048Y-125782010D02*
X160467524Y-126184176D01*
X161042048Y-126471438D02*
X159835548Y-126471438D01*
X159835548Y-126011819D01*
X159893000Y-125896914D01*
X159950452Y-125839462D01*
X160065357Y-125782010D01*
X160237714Y-125782010D01*
X160352619Y-125839462D01*
X160410071Y-125896914D01*
X160467524Y-126011819D01*
X160467524Y-126471438D01*
X160237714Y-124747867D02*
X161042048Y-124747867D01*
X159778095Y-125035129D02*
X160639881Y-125322390D01*
X160639881Y-124575510D01*
X169665348Y-90224429D02*
X169665348Y-89994619D01*
X169722800Y-89879714D01*
X169837705Y-89764810D01*
X170067514Y-89707357D01*
X170469681Y-89707357D01*
X170699490Y-89764810D01*
X170814395Y-89879714D01*
X170871848Y-89994619D01*
X170871848Y-90224429D01*
X170814395Y-90339333D01*
X170699490Y-90454238D01*
X170469681Y-90511690D01*
X170067514Y-90511690D01*
X169837705Y-90454238D01*
X169722800Y-90339333D01*
X169665348Y-90224429D01*
X170871848Y-89190286D02*
X169665348Y-89190286D01*
X170871848Y-88500858D01*
X169665348Y-88500858D01*
D19*
X171159110Y-91597843D02*
X171894500Y-91597843D01*
X171526805Y-91965538D02*
X171526805Y-91230148D01*
D16*
X176701148Y-90113758D02*
X176126624Y-90515924D01*
X176701148Y-90803186D02*
X175494648Y-90803186D01*
X175494648Y-90343567D01*
X175552100Y-90228662D01*
X175609552Y-90171210D01*
X175724457Y-90113758D01*
X175896814Y-90113758D01*
X176011719Y-90171210D01*
X176069171Y-90228662D01*
X176126624Y-90343567D01*
X176126624Y-90803186D01*
X175494648Y-89022162D02*
X175494648Y-89596686D01*
X176069171Y-89654138D01*
X176011719Y-89596686D01*
X175954267Y-89481781D01*
X175954267Y-89194519D01*
X176011719Y-89079615D01*
X176069171Y-89022162D01*
X176184076Y-88964710D01*
X176471338Y-88964710D01*
X176586243Y-89022162D01*
X176643695Y-89079615D01*
X176701148Y-89194519D01*
X176701148Y-89481781D01*
X176643695Y-89596686D01*
X176586243Y-89654138D01*
X172891148Y-90171210D02*
X172891148Y-90860638D01*
X172891148Y-90515924D02*
X171684648Y-90515924D01*
X171857005Y-90630829D01*
X171971910Y-90745734D01*
X172029362Y-90860638D01*
X172891148Y-89654138D02*
X171684648Y-89654138D01*
X172891148Y-88964710D02*
X172201719Y-89481781D01*
X171684648Y-88964710D02*
X172374076Y-89654138D01*
X138129848Y-103749238D02*
X136923348Y-103749238D01*
X136923348Y-103289619D01*
X136980800Y-103174714D01*
X137038252Y-103117262D01*
X137153157Y-103059810D01*
X137325514Y-103059810D01*
X137440419Y-103117262D01*
X137497871Y-103174714D01*
X137555324Y-103289619D01*
X137555324Y-103749238D01*
X137785133Y-102600190D02*
X137785133Y-102025667D01*
X138129848Y-102715095D02*
X136923348Y-102312929D01*
X138129848Y-101910762D01*
X138129848Y-101508595D02*
X136923348Y-101508595D01*
X136923348Y-101221333D01*
X136980800Y-101048976D01*
X137095705Y-100934071D01*
X137210610Y-100876619D01*
X137440419Y-100819167D01*
X137612776Y-100819167D01*
X137842586Y-100876619D01*
X137957490Y-100934071D01*
X138072395Y-101048976D01*
X138129848Y-101221333D01*
X138129848Y-101508595D01*
X138129848Y-99670119D02*
X138129848Y-100359547D01*
X138129848Y-100014833D02*
X136923348Y-100014833D01*
X137095705Y-100129738D01*
X137210610Y-100244643D01*
X137268062Y-100359547D01*
D18*
D16*
X140187248Y-103825438D02*
X138980748Y-103825438D01*
X138980748Y-103365819D01*
X139038200Y-103250914D01*
X139095652Y-103193462D01*
X139210557Y-103136010D01*
X139382914Y-103136010D01*
X139497819Y-103193462D01*
X139555271Y-103250914D01*
X139612724Y-103365819D01*
X139612724Y-103825438D01*
X139842533Y-102676390D02*
X139842533Y-102101867D01*
X140187248Y-102791295D02*
X138980748Y-102389129D01*
X140187248Y-101986962D01*
X140187248Y-101584795D02*
X138980748Y-101584795D01*
X138980748Y-101297533D01*
X139038200Y-101125176D01*
X139153105Y-101010271D01*
X139268010Y-100952819D01*
X139497819Y-100895367D01*
X139670176Y-100895367D01*
X139899986Y-100952819D01*
X140014890Y-101010271D01*
X140129795Y-101125176D01*
X140187248Y-101297533D01*
X140187248Y-101584795D01*
X139095652Y-100435747D02*
X139038200Y-100378295D01*
X138980748Y-100263390D01*
X138980748Y-99976128D01*
X139038200Y-99861224D01*
X139095652Y-99803771D01*
X139210557Y-99746319D01*
X139325462Y-99746319D01*
X139497819Y-99803771D01*
X140187248Y-100493200D01*
X140187248Y-99746319D01*
D18*
D16*
X142168448Y-104333438D02*
X140961948Y-104333438D01*
X140961948Y-103873819D01*
X141019400Y-103758914D01*
X141076852Y-103701462D01*
X141191757Y-103644010D01*
X141364114Y-103644010D01*
X141479019Y-103701462D01*
X141536471Y-103758914D01*
X141593924Y-103873819D01*
X141593924Y-104333438D01*
X141823733Y-103184390D02*
X141823733Y-102609867D01*
X142168448Y-103299295D02*
X140961948Y-102897129D01*
X142168448Y-102494962D01*
X142168448Y-102092795D02*
X140961948Y-102092795D01*
X140961948Y-101805533D01*
X141019400Y-101633176D01*
X141134305Y-101518271D01*
X141249210Y-101460819D01*
X141479019Y-101403367D01*
X141651376Y-101403367D01*
X141881186Y-101460819D01*
X141996090Y-101518271D01*
X142110995Y-101633176D01*
X142168448Y-101805533D01*
X142168448Y-102092795D01*
X140961948Y-101001200D02*
X140961948Y-100254319D01*
X141421567Y-100656486D01*
X141421567Y-100484128D01*
X141479019Y-100369224D01*
X141536471Y-100311771D01*
X141651376Y-100254319D01*
X141938638Y-100254319D01*
X142053543Y-100311771D01*
X142110995Y-100369224D01*
X142168448Y-100484128D01*
X142168448Y-100828843D01*
X142110995Y-100943747D01*
X142053543Y-101001200D01*
D18*
D16*
X144200448Y-104308038D02*
X142993948Y-104308038D01*
X142993948Y-103848419D01*
X143051400Y-103733514D01*
X143108852Y-103676062D01*
X143223757Y-103618610D01*
X143396114Y-103618610D01*
X143511019Y-103676062D01*
X143568471Y-103733514D01*
X143625924Y-103848419D01*
X143625924Y-104308038D01*
X143855733Y-103158990D02*
X143855733Y-102584467D01*
X144200448Y-103273895D02*
X142993948Y-102871729D01*
X144200448Y-102469562D01*
X144200448Y-102067395D02*
X142993948Y-102067395D01*
X142993948Y-101780133D01*
X143051400Y-101607776D01*
X143166305Y-101492871D01*
X143281210Y-101435419D01*
X143511019Y-101377967D01*
X143683376Y-101377967D01*
X143913186Y-101435419D01*
X144028090Y-101492871D01*
X144142995Y-101607776D01*
X144200448Y-101780133D01*
X144200448Y-102067395D01*
X143396114Y-100343824D02*
X144200448Y-100343824D01*
X142936495Y-100631086D02*
X143798281Y-100918347D01*
X143798281Y-100171467D01*
D18*
D16*
X146207048Y-104308038D02*
X145000548Y-104308038D01*
X145000548Y-103848419D01*
X145058000Y-103733514D01*
X145115452Y-103676062D01*
X145230357Y-103618610D01*
X145402714Y-103618610D01*
X145517619Y-103676062D01*
X145575071Y-103733514D01*
X145632524Y-103848419D01*
X145632524Y-104308038D01*
X145862333Y-103158990D02*
X145862333Y-102584467D01*
X146207048Y-103273895D02*
X145000548Y-102871729D01*
X146207048Y-102469562D01*
X146207048Y-102067395D02*
X145000548Y-102067395D01*
X145000548Y-101780133D01*
X145058000Y-101607776D01*
X145172905Y-101492871D01*
X145287810Y-101435419D01*
X145517619Y-101377967D01*
X145689976Y-101377967D01*
X145919786Y-101435419D01*
X146034690Y-101492871D01*
X146149595Y-101607776D01*
X146207048Y-101780133D01*
X146207048Y-102067395D01*
X145000548Y-100286371D02*
X145000548Y-100860895D01*
X145575071Y-100918347D01*
X145517619Y-100860895D01*
X145460167Y-100745990D01*
X145460167Y-100458728D01*
X145517619Y-100343824D01*
X145575071Y-100286371D01*
X145689976Y-100228919D01*
X145977238Y-100228919D01*
X146092143Y-100286371D01*
X146149595Y-100343824D01*
X146207048Y-100458728D01*
X146207048Y-100745990D01*
X146149595Y-100860895D01*
X146092143Y-100918347D01*
D18*
D16*
X148213648Y-104308038D02*
X147007148Y-104308038D01*
X147007148Y-103848419D01*
X147064600Y-103733514D01*
X147122052Y-103676062D01*
X147236957Y-103618610D01*
X147409314Y-103618610D01*
X147524219Y-103676062D01*
X147581671Y-103733514D01*
X147639124Y-103848419D01*
X147639124Y-104308038D01*
X147868933Y-103158990D02*
X147868933Y-102584467D01*
X148213648Y-103273895D02*
X147007148Y-102871729D01*
X148213648Y-102469562D01*
X148213648Y-102067395D02*
X147007148Y-102067395D01*
X147007148Y-101780133D01*
X147064600Y-101607776D01*
X147179505Y-101492871D01*
X147294410Y-101435419D01*
X147524219Y-101377967D01*
X147696576Y-101377967D01*
X147926386Y-101435419D01*
X148041290Y-101492871D01*
X148156195Y-101607776D01*
X148213648Y-101780133D01*
X148213648Y-102067395D01*
X147007148Y-100343824D02*
X147007148Y-100573633D01*
X147064600Y-100688538D01*
X147122052Y-100745990D01*
X147294410Y-100860895D01*
X147524219Y-100918347D01*
X147983838Y-100918347D01*
X148098743Y-100860895D01*
X148156195Y-100803443D01*
X148213648Y-100688538D01*
X148213648Y-100458728D01*
X148156195Y-100343824D01*
X148098743Y-100286371D01*
X147983838Y-100228919D01*
X147696576Y-100228919D01*
X147581671Y-100286371D01*
X147524219Y-100343824D01*
X147466767Y-100458728D01*
X147466767Y-100688538D01*
X147524219Y-100803443D01*
X147581671Y-100860895D01*
X147696576Y-100918347D01*
D18*
D16*
X150194848Y-104308038D02*
X148988348Y-104308038D01*
X148988348Y-103848419D01*
X149045800Y-103733514D01*
X149103252Y-103676062D01*
X149218157Y-103618610D01*
X149390514Y-103618610D01*
X149505419Y-103676062D01*
X149562871Y-103733514D01*
X149620324Y-103848419D01*
X149620324Y-104308038D01*
X149850133Y-103158990D02*
X149850133Y-102584467D01*
X150194848Y-103273895D02*
X148988348Y-102871729D01*
X150194848Y-102469562D01*
X150194848Y-102067395D02*
X148988348Y-102067395D01*
X148988348Y-101780133D01*
X149045800Y-101607776D01*
X149160705Y-101492871D01*
X149275610Y-101435419D01*
X149505419Y-101377967D01*
X149677776Y-101377967D01*
X149907586Y-101435419D01*
X150022490Y-101492871D01*
X150137395Y-101607776D01*
X150194848Y-101780133D01*
X150194848Y-102067395D01*
X148988348Y-100975800D02*
X148988348Y-100171467D01*
X150194848Y-100688538D01*
D18*
D16*
X152201448Y-104333438D02*
X150994948Y-104333438D01*
X150994948Y-103873819D01*
X151052400Y-103758914D01*
X151109852Y-103701462D01*
X151224757Y-103644010D01*
X151397114Y-103644010D01*
X151512019Y-103701462D01*
X151569471Y-103758914D01*
X151626924Y-103873819D01*
X151626924Y-104333438D01*
X151856733Y-103184390D02*
X151856733Y-102609867D01*
X152201448Y-103299295D02*
X150994948Y-102897129D01*
X152201448Y-102494962D01*
X152201448Y-102092795D02*
X150994948Y-102092795D01*
X150994948Y-101805533D01*
X151052400Y-101633176D01*
X151167305Y-101518271D01*
X151282210Y-101460819D01*
X151512019Y-101403367D01*
X151684376Y-101403367D01*
X151914186Y-101460819D01*
X152029090Y-101518271D01*
X152143995Y-101633176D01*
X152201448Y-101805533D01*
X152201448Y-102092795D01*
X151512019Y-100713938D02*
X151454567Y-100828843D01*
X151397114Y-100886295D01*
X151282210Y-100943747D01*
X151224757Y-100943747D01*
X151109852Y-100886295D01*
X151052400Y-100828843D01*
X150994948Y-100713938D01*
X150994948Y-100484128D01*
X151052400Y-100369224D01*
X151109852Y-100311771D01*
X151224757Y-100254319D01*
X151282210Y-100254319D01*
X151397114Y-100311771D01*
X151454567Y-100369224D01*
X151512019Y-100484128D01*
X151512019Y-100713938D01*
X151569471Y-100828843D01*
X151626924Y-100886295D01*
X151741829Y-100943747D01*
X151971638Y-100943747D01*
X152086543Y-100886295D01*
X152143995Y-100828843D01*
X152201448Y-100713938D01*
X152201448Y-100484128D01*
X152143995Y-100369224D01*
X152086543Y-100311771D01*
X151971638Y-100254319D01*
X151741829Y-100254319D01*
X151626924Y-100311771D01*
X151569471Y-100369224D01*
X151512019Y-100484128D01*
D18*
D16*
X154208048Y-103596838D02*
X153001548Y-103596838D01*
X153001548Y-103137219D01*
X153059000Y-103022314D01*
X153116452Y-102964862D01*
X153231357Y-102907410D01*
X153403714Y-102907410D01*
X153518619Y-102964862D01*
X153576071Y-103022314D01*
X153633524Y-103137219D01*
X153633524Y-103596838D01*
X153863333Y-102447790D02*
X153863333Y-101873267D01*
X154208048Y-102562695D02*
X153001548Y-102160529D01*
X154208048Y-101758362D01*
X154208048Y-101356195D02*
X153001548Y-101356195D01*
X153001548Y-101068933D01*
X153059000Y-100896576D01*
X153173905Y-100781671D01*
X153288810Y-100724219D01*
X153518619Y-100666767D01*
X153690976Y-100666767D01*
X153920786Y-100724219D01*
X154035690Y-100781671D01*
X154150595Y-100896576D01*
X154208048Y-101068933D01*
X154208048Y-101356195D01*
X154208048Y-100092243D02*
X154208048Y-99862433D01*
X154150595Y-99747528D01*
X154093143Y-99690076D01*
X153920786Y-99575171D01*
X153690976Y-99517719D01*
X153231357Y-99517719D01*
X153116452Y-99575171D01*
X153059000Y-99632624D01*
X153001548Y-99747528D01*
X153001548Y-99977338D01*
X153059000Y-100092243D01*
X153116452Y-100149695D01*
X153231357Y-100207147D01*
X153518619Y-100207147D01*
X153633524Y-100149695D01*
X153690976Y-100092243D01*
X153748429Y-99977338D01*
X153748429Y-99747528D01*
X153690976Y-99632624D01*
X153633524Y-99575171D01*
X153518619Y-99517719D01*
D18*
D16*
X156138448Y-103622238D02*
X154931948Y-103622238D01*
X154931948Y-103162619D01*
X154989400Y-103047714D01*
X155046852Y-102990262D01*
X155161757Y-102932810D01*
X155334114Y-102932810D01*
X155449019Y-102990262D01*
X155506471Y-103047714D01*
X155563924Y-103162619D01*
X155563924Y-103622238D01*
X155793733Y-102473190D02*
X155793733Y-101898667D01*
X156138448Y-102588095D02*
X154931948Y-102185929D01*
X156138448Y-101783762D01*
X156138448Y-101381595D02*
X154931948Y-101381595D01*
X154931948Y-101094333D01*
X154989400Y-100921976D01*
X155104305Y-100807071D01*
X155219210Y-100749619D01*
X155449019Y-100692167D01*
X155621376Y-100692167D01*
X155851186Y-100749619D01*
X155966090Y-100807071D01*
X156080995Y-100921976D01*
X156138448Y-101094333D01*
X156138448Y-101381595D01*
X156138448Y-99543119D02*
X156138448Y-100232547D01*
X156138448Y-99887833D02*
X154931948Y-99887833D01*
X155104305Y-100002738D01*
X155219210Y-100117643D01*
X155276662Y-100232547D01*
X154931948Y-98796238D02*
X154931948Y-98681333D01*
X154989400Y-98566428D01*
X155046852Y-98508976D01*
X155161757Y-98451523D01*
X155391567Y-98394071D01*
X155678829Y-98394071D01*
X155908638Y-98451523D01*
X156023543Y-98508976D01*
X156080995Y-98566428D01*
X156138448Y-98681333D01*
X156138448Y-98796238D01*
X156080995Y-98911142D01*
X156023543Y-98968595D01*
X155908638Y-99026047D01*
X155678829Y-99083499D01*
X155391567Y-99083499D01*
X155161757Y-99026047D01*
X155046852Y-98968595D01*
X154989400Y-98911142D01*
X154931948Y-98796238D01*
D18*
D16*
X156163848Y-82337038D02*
X154957348Y-82337038D01*
X154957348Y-81877419D01*
X155014800Y-81762514D01*
X155072252Y-81705062D01*
X155187157Y-81647610D01*
X155359514Y-81647610D01*
X155474419Y-81705062D01*
X155531871Y-81762514D01*
X155589324Y-81877419D01*
X155589324Y-82337038D01*
X155819133Y-81187990D02*
X155819133Y-80613467D01*
X156163848Y-81302895D02*
X154957348Y-80900729D01*
X156163848Y-80498562D01*
X156163848Y-80096395D02*
X154957348Y-80096395D01*
X154957348Y-79809133D01*
X155014800Y-79636776D01*
X155129705Y-79521871D01*
X155244610Y-79464419D01*
X155474419Y-79406967D01*
X155646776Y-79406967D01*
X155876586Y-79464419D01*
X155991490Y-79521871D01*
X156106395Y-79636776D01*
X156163848Y-79809133D01*
X156163848Y-80096395D01*
X156163848Y-78257919D02*
X156163848Y-78947347D01*
X156163848Y-78602633D02*
X154957348Y-78602633D01*
X155129705Y-78717538D01*
X155244610Y-78832443D01*
X155302062Y-78947347D01*
X156163848Y-77108871D02*
X156163848Y-77798299D01*
X156163848Y-77453585D02*
X154957348Y-77453585D01*
X155129705Y-77568490D01*
X155244610Y-77683395D01*
X155302062Y-77798299D01*
D18*
D16*
X154208048Y-82362438D02*
X153001548Y-82362438D01*
X153001548Y-81902819D01*
X153059000Y-81787914D01*
X153116452Y-81730462D01*
X153231357Y-81673010D01*
X153403714Y-81673010D01*
X153518619Y-81730462D01*
X153576071Y-81787914D01*
X153633524Y-81902819D01*
X153633524Y-82362438D01*
X153863333Y-81213390D02*
X153863333Y-80638867D01*
X154208048Y-81328295D02*
X153001548Y-80926129D01*
X154208048Y-80523962D01*
X154208048Y-80121795D02*
X153001548Y-80121795D01*
X153001548Y-79834533D01*
X153059000Y-79662176D01*
X153173905Y-79547271D01*
X153288810Y-79489819D01*
X153518619Y-79432367D01*
X153690976Y-79432367D01*
X153920786Y-79489819D01*
X154035690Y-79547271D01*
X154150595Y-79662176D01*
X154208048Y-79834533D01*
X154208048Y-80121795D01*
X154208048Y-78283319D02*
X154208048Y-78972747D01*
X154208048Y-78628033D02*
X153001548Y-78628033D01*
X153173905Y-78742938D01*
X153288810Y-78857843D01*
X153346262Y-78972747D01*
X153116452Y-77823699D02*
X153059000Y-77766247D01*
X153001548Y-77651342D01*
X153001548Y-77364080D01*
X153059000Y-77249176D01*
X153116452Y-77191723D01*
X153231357Y-77134271D01*
X153346262Y-77134271D01*
X153518619Y-77191723D01*
X154208048Y-77881152D01*
X154208048Y-77134271D01*
D18*
D16*
X152201448Y-82337038D02*
X150994948Y-82337038D01*
X150994948Y-81877419D01*
X151052400Y-81762514D01*
X151109852Y-81705062D01*
X151224757Y-81647610D01*
X151397114Y-81647610D01*
X151512019Y-81705062D01*
X151569471Y-81762514D01*
X151626924Y-81877419D01*
X151626924Y-82337038D01*
X151856733Y-81187990D02*
X151856733Y-80613467D01*
X152201448Y-81302895D02*
X150994948Y-80900729D01*
X152201448Y-80498562D01*
X152201448Y-80096395D02*
X150994948Y-80096395D01*
X150994948Y-79809133D01*
X151052400Y-79636776D01*
X151167305Y-79521871D01*
X151282210Y-79464419D01*
X151512019Y-79406967D01*
X151684376Y-79406967D01*
X151914186Y-79464419D01*
X152029090Y-79521871D01*
X152143995Y-79636776D01*
X152201448Y-79809133D01*
X152201448Y-80096395D01*
X152201448Y-78257919D02*
X152201448Y-78947347D01*
X152201448Y-78602633D02*
X150994948Y-78602633D01*
X151167305Y-78717538D01*
X151282210Y-78832443D01*
X151339662Y-78947347D01*
X150994948Y-77855752D02*
X150994948Y-77108871D01*
X151454567Y-77511038D01*
X151454567Y-77338680D01*
X151512019Y-77223776D01*
X151569471Y-77166323D01*
X151684376Y-77108871D01*
X151971638Y-77108871D01*
X152086543Y-77166323D01*
X152143995Y-77223776D01*
X152201448Y-77338680D01*
X152201448Y-77683395D01*
X152143995Y-77798299D01*
X152086543Y-77855752D01*
D18*
D16*
X150194848Y-82362438D02*
X148988348Y-82362438D01*
X148988348Y-81902819D01*
X149045800Y-81787914D01*
X149103252Y-81730462D01*
X149218157Y-81673010D01*
X149390514Y-81673010D01*
X149505419Y-81730462D01*
X149562871Y-81787914D01*
X149620324Y-81902819D01*
X149620324Y-82362438D01*
X149850133Y-81213390D02*
X149850133Y-80638867D01*
X150194848Y-81328295D02*
X148988348Y-80926129D01*
X150194848Y-80523962D01*
X150194848Y-80121795D02*
X148988348Y-80121795D01*
X148988348Y-79834533D01*
X149045800Y-79662176D01*
X149160705Y-79547271D01*
X149275610Y-79489819D01*
X149505419Y-79432367D01*
X149677776Y-79432367D01*
X149907586Y-79489819D01*
X150022490Y-79547271D01*
X150137395Y-79662176D01*
X150194848Y-79834533D01*
X150194848Y-80121795D01*
X150194848Y-78283319D02*
X150194848Y-78972747D01*
X150194848Y-78628033D02*
X148988348Y-78628033D01*
X149160705Y-78742938D01*
X149275610Y-78857843D01*
X149333062Y-78972747D01*
X149390514Y-77249176D02*
X150194848Y-77249176D01*
X148930895Y-77536438D02*
X149792681Y-77823699D01*
X149792681Y-77076819D01*
D18*
D16*
X148213648Y-82337038D02*
X147007148Y-82337038D01*
X147007148Y-81877419D01*
X147064600Y-81762514D01*
X147122052Y-81705062D01*
X147236957Y-81647610D01*
X147409314Y-81647610D01*
X147524219Y-81705062D01*
X147581671Y-81762514D01*
X147639124Y-81877419D01*
X147639124Y-82337038D01*
X147868933Y-81187990D02*
X147868933Y-80613467D01*
X148213648Y-81302895D02*
X147007148Y-80900729D01*
X148213648Y-80498562D01*
X148213648Y-80096395D02*
X147007148Y-80096395D01*
X147007148Y-79809133D01*
X147064600Y-79636776D01*
X147179505Y-79521871D01*
X147294410Y-79464419D01*
X147524219Y-79406967D01*
X147696576Y-79406967D01*
X147926386Y-79464419D01*
X148041290Y-79521871D01*
X148156195Y-79636776D01*
X148213648Y-79809133D01*
X148213648Y-80096395D01*
X148213648Y-78257919D02*
X148213648Y-78947347D01*
X148213648Y-78602633D02*
X147007148Y-78602633D01*
X147179505Y-78717538D01*
X147294410Y-78832443D01*
X147351862Y-78947347D01*
X147007148Y-77166323D02*
X147007148Y-77740847D01*
X147581671Y-77798299D01*
X147524219Y-77740847D01*
X147466767Y-77625942D01*
X147466767Y-77338680D01*
X147524219Y-77223776D01*
X147581671Y-77166323D01*
X147696576Y-77108871D01*
X147983838Y-77108871D01*
X148098743Y-77166323D01*
X148156195Y-77223776D01*
X148213648Y-77338680D01*
X148213648Y-77625942D01*
X148156195Y-77740847D01*
X148098743Y-77798299D01*
D18*
D16*
X146207048Y-82362438D02*
X145000548Y-82362438D01*
X145000548Y-81902819D01*
X145058000Y-81787914D01*
X145115452Y-81730462D01*
X145230357Y-81673010D01*
X145402714Y-81673010D01*
X145517619Y-81730462D01*
X145575071Y-81787914D01*
X145632524Y-81902819D01*
X145632524Y-82362438D01*
X145862333Y-81213390D02*
X145862333Y-80638867D01*
X146207048Y-81328295D02*
X145000548Y-80926129D01*
X146207048Y-80523962D01*
X146207048Y-80121795D02*
X145000548Y-80121795D01*
X145000548Y-79834533D01*
X145058000Y-79662176D01*
X145172905Y-79547271D01*
X145287810Y-79489819D01*
X145517619Y-79432367D01*
X145689976Y-79432367D01*
X145919786Y-79489819D01*
X146034690Y-79547271D01*
X146149595Y-79662176D01*
X146207048Y-79834533D01*
X146207048Y-80121795D01*
X146207048Y-78283319D02*
X146207048Y-78972747D01*
X146207048Y-78628033D02*
X145000548Y-78628033D01*
X145172905Y-78742938D01*
X145287810Y-78857843D01*
X145345262Y-78972747D01*
X145000548Y-77249176D02*
X145000548Y-77478985D01*
X145058000Y-77593890D01*
X145115452Y-77651342D01*
X145287810Y-77766247D01*
X145517619Y-77823699D01*
X145977238Y-77823699D01*
X146092143Y-77766247D01*
X146149595Y-77708795D01*
X146207048Y-77593890D01*
X146207048Y-77364080D01*
X146149595Y-77249176D01*
X146092143Y-77191723D01*
X145977238Y-77134271D01*
X145689976Y-77134271D01*
X145575071Y-77191723D01*
X145517619Y-77249176D01*
X145460167Y-77364080D01*
X145460167Y-77593890D01*
X145517619Y-77708795D01*
X145575071Y-77766247D01*
X145689976Y-77823699D01*
D18*
D16*
X144175048Y-82337038D02*
X142968548Y-82337038D01*
X142968548Y-81877419D01*
X143026000Y-81762514D01*
X143083452Y-81705062D01*
X143198357Y-81647610D01*
X143370714Y-81647610D01*
X143485619Y-81705062D01*
X143543071Y-81762514D01*
X143600524Y-81877419D01*
X143600524Y-82337038D01*
X143830333Y-81187990D02*
X143830333Y-80613467D01*
X144175048Y-81302895D02*
X142968548Y-80900729D01*
X144175048Y-80498562D01*
X144175048Y-80096395D02*
X142968548Y-80096395D01*
X142968548Y-79809133D01*
X143026000Y-79636776D01*
X143140905Y-79521871D01*
X143255810Y-79464419D01*
X143485619Y-79406967D01*
X143657976Y-79406967D01*
X143887786Y-79464419D01*
X144002690Y-79521871D01*
X144117595Y-79636776D01*
X144175048Y-79809133D01*
X144175048Y-80096395D01*
X144175048Y-78257919D02*
X144175048Y-78947347D01*
X144175048Y-78602633D02*
X142968548Y-78602633D01*
X143140905Y-78717538D01*
X143255810Y-78832443D01*
X143313262Y-78947347D01*
X142968548Y-77855752D02*
X142968548Y-77051419D01*
X144175048Y-77568490D01*
D18*
D16*
X142168448Y-82337038D02*
X140961948Y-82337038D01*
X140961948Y-81877419D01*
X141019400Y-81762514D01*
X141076852Y-81705062D01*
X141191757Y-81647610D01*
X141364114Y-81647610D01*
X141479019Y-81705062D01*
X141536471Y-81762514D01*
X141593924Y-81877419D01*
X141593924Y-82337038D01*
X141823733Y-81187990D02*
X141823733Y-80613467D01*
X142168448Y-81302895D02*
X140961948Y-80900729D01*
X142168448Y-80498562D01*
X142168448Y-80096395D02*
X140961948Y-80096395D01*
X140961948Y-79809133D01*
X141019400Y-79636776D01*
X141134305Y-79521871D01*
X141249210Y-79464419D01*
X141479019Y-79406967D01*
X141651376Y-79406967D01*
X141881186Y-79464419D01*
X141996090Y-79521871D01*
X142110995Y-79636776D01*
X142168448Y-79809133D01*
X142168448Y-80096395D01*
X142168448Y-78257919D02*
X142168448Y-78947347D01*
X142168448Y-78602633D02*
X140961948Y-78602633D01*
X141134305Y-78717538D01*
X141249210Y-78832443D01*
X141306662Y-78947347D01*
X141479019Y-77568490D02*
X141421567Y-77683395D01*
X141364114Y-77740847D01*
X141249210Y-77798299D01*
X141191757Y-77798299D01*
X141076852Y-77740847D01*
X141019400Y-77683395D01*
X140961948Y-77568490D01*
X140961948Y-77338680D01*
X141019400Y-77223776D01*
X141076852Y-77166323D01*
X141191757Y-77108871D01*
X141249210Y-77108871D01*
X141364114Y-77166323D01*
X141421567Y-77223776D01*
X141479019Y-77338680D01*
X141479019Y-77568490D01*
X141536471Y-77683395D01*
X141593924Y-77740847D01*
X141708829Y-77798299D01*
X141938638Y-77798299D01*
X142053543Y-77740847D01*
X142110995Y-77683395D01*
X142168448Y-77568490D01*
X142168448Y-77338680D01*
X142110995Y-77223776D01*
X142053543Y-77166323D01*
X141938638Y-77108871D01*
X141708829Y-77108871D01*
X141593924Y-77166323D01*
X141536471Y-77223776D01*
X141479019Y-77338680D01*
D18*
D16*
X140187248Y-82337038D02*
X138980748Y-82337038D01*
X138980748Y-81877419D01*
X139038200Y-81762514D01*
X139095652Y-81705062D01*
X139210557Y-81647610D01*
X139382914Y-81647610D01*
X139497819Y-81705062D01*
X139555271Y-81762514D01*
X139612724Y-81877419D01*
X139612724Y-82337038D01*
X139842533Y-81187990D02*
X139842533Y-80613467D01*
X140187248Y-81302895D02*
X138980748Y-80900729D01*
X140187248Y-80498562D01*
X140187248Y-80096395D02*
X138980748Y-80096395D01*
X138980748Y-79809133D01*
X139038200Y-79636776D01*
X139153105Y-79521871D01*
X139268010Y-79464419D01*
X139497819Y-79406967D01*
X139670176Y-79406967D01*
X139899986Y-79464419D01*
X140014890Y-79521871D01*
X140129795Y-79636776D01*
X140187248Y-79809133D01*
X140187248Y-80096395D01*
X140187248Y-78257919D02*
X140187248Y-78947347D01*
X140187248Y-78602633D02*
X138980748Y-78602633D01*
X139153105Y-78717538D01*
X139268010Y-78832443D01*
X139325462Y-78947347D01*
X140187248Y-77683395D02*
X140187248Y-77453585D01*
X140129795Y-77338680D01*
X140072343Y-77281228D01*
X139899986Y-77166323D01*
X139670176Y-77108871D01*
X139210557Y-77108871D01*
X139095652Y-77166323D01*
X139038200Y-77223776D01*
X138980748Y-77338680D01*
X138980748Y-77568490D01*
X139038200Y-77683395D01*
X139095652Y-77740847D01*
X139210557Y-77798299D01*
X139497819Y-77798299D01*
X139612724Y-77740847D01*
X139670176Y-77683395D01*
X139727629Y-77568490D01*
X139727629Y-77338680D01*
X139670176Y-77223776D01*
X139612724Y-77166323D01*
X139497819Y-77108871D01*
D18*
D16*
X138155248Y-82311638D02*
X136948748Y-82311638D01*
X136948748Y-81852019D01*
X137006200Y-81737114D01*
X137063652Y-81679662D01*
X137178557Y-81622210D01*
X137350914Y-81622210D01*
X137465819Y-81679662D01*
X137523271Y-81737114D01*
X137580724Y-81852019D01*
X137580724Y-82311638D01*
X137810533Y-81162590D02*
X137810533Y-80588067D01*
X138155248Y-81277495D02*
X136948748Y-80875329D01*
X138155248Y-80473162D01*
X138155248Y-80070995D02*
X136948748Y-80070995D01*
X136948748Y-79783733D01*
X137006200Y-79611376D01*
X137121105Y-79496471D01*
X137236010Y-79439019D01*
X137465819Y-79381567D01*
X137638176Y-79381567D01*
X137867986Y-79439019D01*
X137982890Y-79496471D01*
X138097795Y-79611376D01*
X138155248Y-79783733D01*
X138155248Y-80070995D01*
X137063652Y-78921947D02*
X137006200Y-78864495D01*
X136948748Y-78749590D01*
X136948748Y-78462328D01*
X137006200Y-78347424D01*
X137063652Y-78289971D01*
X137178557Y-78232519D01*
X137293462Y-78232519D01*
X137465819Y-78289971D01*
X138155248Y-78979400D01*
X138155248Y-78232519D01*
X136948748Y-77485638D02*
X136948748Y-77370733D01*
X137006200Y-77255828D01*
X137063652Y-77198376D01*
X137178557Y-77140923D01*
X137408367Y-77083471D01*
X137695629Y-77083471D01*
X137925438Y-77140923D01*
X138040343Y-77198376D01*
X138097795Y-77255828D01*
X138155248Y-77370733D01*
X138155248Y-77485638D01*
X138097795Y-77600542D01*
X138040343Y-77657995D01*
X137925438Y-77715447D01*
X137695629Y-77772899D01*
X137408367Y-77772899D01*
X137178557Y-77715447D01*
X137063652Y-77657995D01*
X137006200Y-77600542D01*
X136948748Y-77485638D01*
D18*
D11*
X131835071Y-95693638D02*
X131835071Y-95291471D01*
X132467048Y-95119114D02*
X132467048Y-95693638D01*
X131260548Y-95693638D01*
X131260548Y-95119114D01*
X132467048Y-94602043D02*
X131260548Y-94602043D01*
X132467048Y-93912615D01*
X131260548Y-93912615D01*
X131260548Y-93510448D02*
X131260548Y-92821020D01*
X132467048Y-93165734D02*
X131260548Y-93165734D01*
X132467048Y-91729425D02*
X131892524Y-92131591D01*
X132467048Y-92418853D02*
X131260548Y-92418853D01*
X131260548Y-91959234D01*
X131318000Y-91844329D01*
X131375452Y-91786877D01*
X131490357Y-91729425D01*
X131662714Y-91729425D01*
X131777619Y-91786877D01*
X131835071Y-91844329D01*
X131892524Y-91959234D01*
X131892524Y-92418853D01*
X132122333Y-91269805D02*
X132122333Y-90695282D01*
X132467048Y-91384710D02*
X131260548Y-90982544D01*
X132467048Y-90580377D01*
X132467048Y-90178210D02*
X131260548Y-90178210D01*
X131260548Y-89890948D01*
X131318000Y-89718591D01*
X131432905Y-89603686D01*
X131547810Y-89546234D01*
X131777619Y-89488782D01*
X131949976Y-89488782D01*
X132179786Y-89546234D01*
X132294690Y-89603686D01*
X132409595Y-89718591D01*
X132467048Y-89890948D01*
X132467048Y-90178210D01*
X132122333Y-89029162D02*
X132122333Y-88454639D01*
X132467048Y-89144067D02*
X131260548Y-88741901D01*
X132467048Y-88339734D01*
D16*
X136972005Y-86428148D02*
X137374171Y-87634648D01*
X137776338Y-86428148D01*
X138867933Y-87519743D02*
X138810481Y-87577195D01*
X138638124Y-87634648D01*
X138523219Y-87634648D01*
X138350862Y-87577195D01*
X138235957Y-87462290D01*
X138178505Y-87347386D01*
X138121053Y-87117576D01*
X138121053Y-86945219D01*
X138178505Y-86715410D01*
X138235957Y-86600505D01*
X138350862Y-86485600D01*
X138523219Y-86428148D01*
X138638124Y-86428148D01*
X138810481Y-86485600D01*
X138867933Y-86543052D01*
X140074433Y-87519743D02*
X140016981Y-87577195D01*
X139844624Y-87634648D01*
X139729719Y-87634648D01*
X139557362Y-87577195D01*
X139442457Y-87462290D01*
X139385005Y-87347386D01*
X139327553Y-87117576D01*
X139327553Y-86945219D01*
X139385005Y-86715410D01*
X139442457Y-86600505D01*
X139557362Y-86485600D01*
X139729719Y-86428148D01*
X139844624Y-86428148D01*
X140016981Y-86485600D01*
X140074433Y-86543052D01*
X140304243Y-87749552D02*
X141223481Y-87749552D01*
X141510743Y-87634648D02*
X141510743Y-86428148D01*
X142200171Y-87634648D01*
X142200171Y-86428148D01*
X143004504Y-86428148D02*
X143234314Y-86428148D01*
X143349219Y-86485600D01*
X143464123Y-86600505D01*
X143521576Y-86830314D01*
X143521576Y-87232481D01*
X143464123Y-87462290D01*
X143349219Y-87577195D01*
X143234314Y-87634648D01*
X143004504Y-87634648D01*
X142889600Y-87577195D01*
X142774695Y-87462290D01*
X142717243Y-87232481D01*
X142717243Y-86830314D01*
X142774695Y-86600505D01*
X142889600Y-86485600D01*
X143004504Y-86428148D01*
X144038647Y-87634648D02*
X144038647Y-86428148D01*
X144325909Y-86428148D01*
X144498266Y-86485600D01*
X144613171Y-86600505D01*
X144670623Y-86715410D01*
X144728075Y-86945219D01*
X144728075Y-87117576D01*
X144670623Y-87347386D01*
X144613171Y-87462290D01*
X144498266Y-87577195D01*
X144325909Y-87634648D01*
X144038647Y-87634648D01*
X145474956Y-86428148D02*
X145704766Y-86428148D01*
X145819671Y-86485600D01*
X145934575Y-86600505D01*
X145992028Y-86830314D01*
X145992028Y-87232481D01*
X145934575Y-87462290D01*
X145819671Y-87577195D01*
X145704766Y-87634648D01*
X145474956Y-87634648D01*
X145360052Y-87577195D01*
X145245147Y-87462290D01*
X145187695Y-87232481D01*
X145187695Y-86830314D01*
X145245147Y-86600505D01*
X145360052Y-86485600D01*
X145474956Y-86428148D01*
D18*
D16*
X133410392Y-95772100D02*
X133295487Y-95714648D01*
X133123130Y-95714648D01*
X132950773Y-95772100D01*
X132835868Y-95887005D01*
X132778416Y-96001910D01*
X132720964Y-96231719D01*
X132720964Y-96404076D01*
X132778416Y-96633886D01*
X132835868Y-96748790D01*
X132950773Y-96863695D01*
X133123130Y-96921148D01*
X133238035Y-96921148D01*
X133410392Y-96863695D01*
X133467844Y-96806243D01*
X133467844Y-96404076D01*
X133238035Y-96404076D01*
X133984916Y-96921148D02*
X133984916Y-95714648D01*
X134674344Y-96921148D01*
X134674344Y-95714648D01*
X135248868Y-96921148D02*
X135248868Y-95714648D01*
X135536130Y-95714648D01*
X135708487Y-95772100D01*
X135823392Y-95887005D01*
X135880844Y-96001910D01*
X135938296Y-96231719D01*
X135938296Y-96404076D01*
X135880844Y-96633886D01*
X135823392Y-96748790D01*
X135708487Y-96863695D01*
X135536130Y-96921148D01*
X135248868Y-96921148D01*
X136168106Y-97036052D02*
X137087344Y-97036052D01*
X137374606Y-96921148D02*
X137374606Y-95714648D01*
X138064034Y-96921148D01*
X138064034Y-95714648D01*
X138868367Y-95714648D02*
X139098177Y-95714648D01*
X139213082Y-95772100D01*
X139327986Y-95887005D01*
X139385439Y-96116814D01*
X139385439Y-96518981D01*
X139327986Y-96748790D01*
X139213082Y-96863695D01*
X139098177Y-96921148D01*
X138868367Y-96921148D01*
X138753463Y-96863695D01*
X138638558Y-96748790D01*
X138581106Y-96518981D01*
X138581106Y-96116814D01*
X138638558Y-95887005D01*
X138753463Y-95772100D01*
X138868367Y-95714648D01*
X139902510Y-96921148D02*
X139902510Y-95714648D01*
X140189772Y-95714648D01*
X140362129Y-95772100D01*
X140477034Y-95887005D01*
X140534486Y-96001910D01*
X140591938Y-96231719D01*
X140591938Y-96404076D01*
X140534486Y-96633886D01*
X140477034Y-96748790D01*
X140362129Y-96863695D01*
X140189772Y-96921148D01*
X139902510Y-96921148D01*
X141338819Y-95714648D02*
X141568629Y-95714648D01*
X141683534Y-95772100D01*
X141798438Y-95887005D01*
X141855891Y-96116814D01*
X141855891Y-96518981D01*
X141798438Y-96748790D01*
X141683534Y-96863695D01*
X141568629Y-96921148D01*
X141338819Y-96921148D01*
X141223915Y-96863695D01*
X141109010Y-96748790D01*
X141051558Y-96518981D01*
X141051558Y-96116814D01*
X141109010Y-95887005D01*
X141223915Y-95772100D01*
X141338819Y-95714648D01*
D18*
D19*
X134700614Y-121582148D02*
X134746576Y-121628110D01*
X134792538Y-121765995D01*
X134792538Y-121857919D01*
X134746576Y-121995805D01*
X134654652Y-122087729D01*
X134562729Y-122133690D01*
X134378881Y-122179652D01*
X134240995Y-122179652D01*
X134057148Y-122133690D01*
X133965224Y-122087729D01*
X133873300Y-121995805D01*
X133827338Y-121857919D01*
X133827338Y-121765995D01*
X133873300Y-121628110D01*
X133919262Y-121582148D01*
X133919262Y-121214452D02*
X133873300Y-121168490D01*
X133827338Y-121076567D01*
X133827338Y-120846757D01*
X133873300Y-120754833D01*
X133919262Y-120708871D01*
X134011186Y-120662910D01*
X134103110Y-120662910D01*
X134240995Y-120708871D01*
X134792538Y-121260414D01*
X134792538Y-120662910D01*
M02*
