G04 #@! TF.FileFunction,Soldermask,Top*
%FSLAX46Y46*%
G04 Gerber Fmt 4.6, Leading zero omitted, Abs format (unit mm)*
G04 Created by KiCad (PCBNEW 4.0.6) date 07/21/17 09:20:33*
%MOMM*%
%LPD*%
G01*
G04 APERTURE LIST*
%ADD10C,0.100000*%
%ADD11R,1.900000X1.700000*%
%ADD12R,2.800000X2.400000*%
%ADD13R,2.708000X0.900000*%
%ADD14R,1.700000X1.900000*%
%ADD15R,2.432000X1.060400*%
%ADD16R,1.500000X1.400000*%
%ADD17R,2.400000X1.900000*%
%ADD18R,2.400000X4.200000*%
%ADD19R,1.600000X1.600000*%
%ADD20R,1.670000X5.480000*%
%ADD21O,3.981400X2.190700*%
%ADD22R,5.480000X1.670000*%
%ADD23R,1.900000X2.400000*%
G04 APERTURE END LIST*
D10*
D11*
X169252900Y-129313900D03*
X169252900Y-131213900D03*
X172707300Y-129263100D03*
X172707300Y-131163100D03*
X155206700Y-117624900D03*
X155206700Y-115724900D03*
D12*
X129242700Y-104908900D03*
D13*
X129806700Y-107708900D03*
X129806700Y-108508900D03*
X129806700Y-109308900D03*
X129806700Y-110108900D03*
X129806700Y-110908900D03*
D12*
X123742700Y-104908900D03*
X129242700Y-113708900D03*
X123742700Y-113708900D03*
D14*
X137899100Y-111569500D03*
X139799100Y-111569500D03*
X141907300Y-127292100D03*
X140007300Y-127292100D03*
X160428900Y-131102100D03*
X162328900Y-131102100D03*
D11*
X165900100Y-131137700D03*
X165900100Y-129237700D03*
D14*
X137899100Y-113550700D03*
X139799100Y-113550700D03*
X137899100Y-115531900D03*
X139799100Y-115531900D03*
D15*
X154724100Y-131330700D03*
X148577300Y-131330700D03*
X154724100Y-130060700D03*
X154724100Y-128790700D03*
X148577300Y-130060700D03*
X148577300Y-128790700D03*
X154724100Y-127520700D03*
X148577300Y-127520700D03*
D10*
G36*
X157147143Y-118282731D02*
X156652168Y-117787756D01*
X157783539Y-116656385D01*
X158278514Y-117151360D01*
X157147143Y-118282731D01*
X157147143Y-118282731D01*
G37*
G36*
X157500696Y-118636285D02*
X157005721Y-118141310D01*
X158137092Y-117009939D01*
X158632067Y-117504914D01*
X157500696Y-118636285D01*
X157500696Y-118636285D01*
G37*
G36*
X157854250Y-118989838D02*
X157359275Y-118494863D01*
X158490646Y-117363492D01*
X158985621Y-117858467D01*
X157854250Y-118989838D01*
X157854250Y-118989838D01*
G37*
G36*
X158207803Y-119343391D02*
X157712828Y-118848416D01*
X158844199Y-117717045D01*
X159339174Y-118212020D01*
X158207803Y-119343391D01*
X158207803Y-119343391D01*
G37*
G36*
X158561356Y-119696945D02*
X158066381Y-119201970D01*
X159197752Y-118070599D01*
X159692727Y-118565574D01*
X158561356Y-119696945D01*
X158561356Y-119696945D01*
G37*
G36*
X158914910Y-120050498D02*
X158419935Y-119555523D01*
X159551306Y-118424152D01*
X160046281Y-118919127D01*
X158914910Y-120050498D01*
X158914910Y-120050498D01*
G37*
G36*
X159268463Y-120404052D02*
X158773488Y-119909077D01*
X159904859Y-118777706D01*
X160399834Y-119272681D01*
X159268463Y-120404052D01*
X159268463Y-120404052D01*
G37*
G36*
X159622017Y-120757605D02*
X159127042Y-120262630D01*
X160258413Y-119131259D01*
X160753388Y-119626234D01*
X159622017Y-120757605D01*
X159622017Y-120757605D01*
G37*
G36*
X159975570Y-121111158D02*
X159480595Y-120616183D01*
X160611966Y-119484812D01*
X161106941Y-119979787D01*
X159975570Y-121111158D01*
X159975570Y-121111158D01*
G37*
G36*
X160329123Y-121464712D02*
X159834148Y-120969737D01*
X160965519Y-119838366D01*
X161460494Y-120333341D01*
X160329123Y-121464712D01*
X160329123Y-121464712D01*
G37*
G36*
X160682677Y-121818265D02*
X160187702Y-121323290D01*
X161319073Y-120191919D01*
X161814048Y-120686894D01*
X160682677Y-121818265D01*
X160682677Y-121818265D01*
G37*
G36*
X161036230Y-122171819D02*
X160541255Y-121676844D01*
X161672626Y-120545473D01*
X162167601Y-121040448D01*
X161036230Y-122171819D01*
X161036230Y-122171819D01*
G37*
G36*
X161389784Y-122525372D02*
X160894809Y-122030397D01*
X162026180Y-120899026D01*
X162521155Y-121394001D01*
X161389784Y-122525372D01*
X161389784Y-122525372D01*
G37*
G36*
X161743337Y-122878925D02*
X161248362Y-122383950D01*
X162379733Y-121252579D01*
X162874708Y-121747554D01*
X161743337Y-122878925D01*
X161743337Y-122878925D01*
G37*
G36*
X162096890Y-123232479D02*
X161601915Y-122737504D01*
X162733286Y-121606133D01*
X163228261Y-122101108D01*
X162096890Y-123232479D01*
X162096890Y-123232479D01*
G37*
G36*
X162450444Y-123586032D02*
X161955469Y-123091057D01*
X163086840Y-121959686D01*
X163581815Y-122454661D01*
X162450444Y-123586032D01*
X162450444Y-123586032D01*
G37*
G36*
X165844556Y-123586032D02*
X164713185Y-122454661D01*
X165208160Y-121959686D01*
X166339531Y-123091057D01*
X165844556Y-123586032D01*
X165844556Y-123586032D01*
G37*
G36*
X166198110Y-123232479D02*
X165066739Y-122101108D01*
X165561714Y-121606133D01*
X166693085Y-122737504D01*
X166198110Y-123232479D01*
X166198110Y-123232479D01*
G37*
G36*
X166551663Y-122878925D02*
X165420292Y-121747554D01*
X165915267Y-121252579D01*
X167046638Y-122383950D01*
X166551663Y-122878925D01*
X166551663Y-122878925D01*
G37*
G36*
X166905216Y-122525372D02*
X165773845Y-121394001D01*
X166268820Y-120899026D01*
X167400191Y-122030397D01*
X166905216Y-122525372D01*
X166905216Y-122525372D01*
G37*
G36*
X167258770Y-122171819D02*
X166127399Y-121040448D01*
X166622374Y-120545473D01*
X167753745Y-121676844D01*
X167258770Y-122171819D01*
X167258770Y-122171819D01*
G37*
G36*
X167612323Y-121818265D02*
X166480952Y-120686894D01*
X166975927Y-120191919D01*
X168107298Y-121323290D01*
X167612323Y-121818265D01*
X167612323Y-121818265D01*
G37*
G36*
X167965877Y-121464712D02*
X166834506Y-120333341D01*
X167329481Y-119838366D01*
X168460852Y-120969737D01*
X167965877Y-121464712D01*
X167965877Y-121464712D01*
G37*
G36*
X168319430Y-121111158D02*
X167188059Y-119979787D01*
X167683034Y-119484812D01*
X168814405Y-120616183D01*
X168319430Y-121111158D01*
X168319430Y-121111158D01*
G37*
G36*
X168672983Y-120757605D02*
X167541612Y-119626234D01*
X168036587Y-119131259D01*
X169167958Y-120262630D01*
X168672983Y-120757605D01*
X168672983Y-120757605D01*
G37*
G36*
X169026537Y-120404052D02*
X167895166Y-119272681D01*
X168390141Y-118777706D01*
X169521512Y-119909077D01*
X169026537Y-120404052D01*
X169026537Y-120404052D01*
G37*
G36*
X169380090Y-120050498D02*
X168248719Y-118919127D01*
X168743694Y-118424152D01*
X169875065Y-119555523D01*
X169380090Y-120050498D01*
X169380090Y-120050498D01*
G37*
G36*
X169733644Y-119696945D02*
X168602273Y-118565574D01*
X169097248Y-118070599D01*
X170228619Y-119201970D01*
X169733644Y-119696945D01*
X169733644Y-119696945D01*
G37*
G36*
X170087197Y-119343391D02*
X168955826Y-118212020D01*
X169450801Y-117717045D01*
X170582172Y-118848416D01*
X170087197Y-119343391D01*
X170087197Y-119343391D01*
G37*
G36*
X170440750Y-118989838D02*
X169309379Y-117858467D01*
X169804354Y-117363492D01*
X170935725Y-118494863D01*
X170440750Y-118989838D01*
X170440750Y-118989838D01*
G37*
G36*
X170794304Y-118636285D02*
X169662933Y-117504914D01*
X170157908Y-117009939D01*
X171289279Y-118141310D01*
X170794304Y-118636285D01*
X170794304Y-118636285D01*
G37*
G36*
X171147857Y-118282731D02*
X170016486Y-117151360D01*
X170511461Y-116656385D01*
X171642832Y-117787756D01*
X171147857Y-118282731D01*
X171147857Y-118282731D01*
G37*
G36*
X170511461Y-115525015D02*
X170016486Y-115030040D01*
X171147857Y-113898669D01*
X171642832Y-114393644D01*
X170511461Y-115525015D01*
X170511461Y-115525015D01*
G37*
G36*
X170157908Y-115171461D02*
X169662933Y-114676486D01*
X170794304Y-113545115D01*
X171289279Y-114040090D01*
X170157908Y-115171461D01*
X170157908Y-115171461D01*
G37*
G36*
X169804354Y-114817908D02*
X169309379Y-114322933D01*
X170440750Y-113191562D01*
X170935725Y-113686537D01*
X169804354Y-114817908D01*
X169804354Y-114817908D01*
G37*
G36*
X169450801Y-114464355D02*
X168955826Y-113969380D01*
X170087197Y-112838009D01*
X170582172Y-113332984D01*
X169450801Y-114464355D01*
X169450801Y-114464355D01*
G37*
G36*
X169097248Y-114110801D02*
X168602273Y-113615826D01*
X169733644Y-112484455D01*
X170228619Y-112979430D01*
X169097248Y-114110801D01*
X169097248Y-114110801D01*
G37*
G36*
X168743694Y-113757248D02*
X168248719Y-113262273D01*
X169380090Y-112130902D01*
X169875065Y-112625877D01*
X168743694Y-113757248D01*
X168743694Y-113757248D01*
G37*
G36*
X168390141Y-113403694D02*
X167895166Y-112908719D01*
X169026537Y-111777348D01*
X169521512Y-112272323D01*
X168390141Y-113403694D01*
X168390141Y-113403694D01*
G37*
G36*
X168036587Y-113050141D02*
X167541612Y-112555166D01*
X168672983Y-111423795D01*
X169167958Y-111918770D01*
X168036587Y-113050141D01*
X168036587Y-113050141D01*
G37*
G36*
X167683034Y-112696588D02*
X167188059Y-112201613D01*
X168319430Y-111070242D01*
X168814405Y-111565217D01*
X167683034Y-112696588D01*
X167683034Y-112696588D01*
G37*
G36*
X167329481Y-112343034D02*
X166834506Y-111848059D01*
X167965877Y-110716688D01*
X168460852Y-111211663D01*
X167329481Y-112343034D01*
X167329481Y-112343034D01*
G37*
G36*
X166975927Y-111989481D02*
X166480952Y-111494506D01*
X167612323Y-110363135D01*
X168107298Y-110858110D01*
X166975927Y-111989481D01*
X166975927Y-111989481D01*
G37*
G36*
X166622374Y-111635927D02*
X166127399Y-111140952D01*
X167258770Y-110009581D01*
X167753745Y-110504556D01*
X166622374Y-111635927D01*
X166622374Y-111635927D01*
G37*
G36*
X166268820Y-111282374D02*
X165773845Y-110787399D01*
X166905216Y-109656028D01*
X167400191Y-110151003D01*
X166268820Y-111282374D01*
X166268820Y-111282374D01*
G37*
G36*
X165915267Y-110928821D02*
X165420292Y-110433846D01*
X166551663Y-109302475D01*
X167046638Y-109797450D01*
X165915267Y-110928821D01*
X165915267Y-110928821D01*
G37*
G36*
X165561714Y-110575267D02*
X165066739Y-110080292D01*
X166198110Y-108948921D01*
X166693085Y-109443896D01*
X165561714Y-110575267D01*
X165561714Y-110575267D01*
G37*
G36*
X165208160Y-110221714D02*
X164713185Y-109726739D01*
X165844556Y-108595368D01*
X166339531Y-109090343D01*
X165208160Y-110221714D01*
X165208160Y-110221714D01*
G37*
G36*
X163086840Y-110221714D02*
X161955469Y-109090343D01*
X162450444Y-108595368D01*
X163581815Y-109726739D01*
X163086840Y-110221714D01*
X163086840Y-110221714D01*
G37*
G36*
X162733286Y-110575267D02*
X161601915Y-109443896D01*
X162096890Y-108948921D01*
X163228261Y-110080292D01*
X162733286Y-110575267D01*
X162733286Y-110575267D01*
G37*
G36*
X162379733Y-110928821D02*
X161248362Y-109797450D01*
X161743337Y-109302475D01*
X162874708Y-110433846D01*
X162379733Y-110928821D01*
X162379733Y-110928821D01*
G37*
G36*
X162026180Y-111282374D02*
X160894809Y-110151003D01*
X161389784Y-109656028D01*
X162521155Y-110787399D01*
X162026180Y-111282374D01*
X162026180Y-111282374D01*
G37*
G36*
X161672626Y-111635927D02*
X160541255Y-110504556D01*
X161036230Y-110009581D01*
X162167601Y-111140952D01*
X161672626Y-111635927D01*
X161672626Y-111635927D01*
G37*
G36*
X161319073Y-111989481D02*
X160187702Y-110858110D01*
X160682677Y-110363135D01*
X161814048Y-111494506D01*
X161319073Y-111989481D01*
X161319073Y-111989481D01*
G37*
G36*
X160965519Y-112343034D02*
X159834148Y-111211663D01*
X160329123Y-110716688D01*
X161460494Y-111848059D01*
X160965519Y-112343034D01*
X160965519Y-112343034D01*
G37*
G36*
X160611966Y-112696588D02*
X159480595Y-111565217D01*
X159975570Y-111070242D01*
X161106941Y-112201613D01*
X160611966Y-112696588D01*
X160611966Y-112696588D01*
G37*
G36*
X160258413Y-113050141D02*
X159127042Y-111918770D01*
X159622017Y-111423795D01*
X160753388Y-112555166D01*
X160258413Y-113050141D01*
X160258413Y-113050141D01*
G37*
G36*
X159904859Y-113403694D02*
X158773488Y-112272323D01*
X159268463Y-111777348D01*
X160399834Y-112908719D01*
X159904859Y-113403694D01*
X159904859Y-113403694D01*
G37*
G36*
X159551306Y-113757248D02*
X158419935Y-112625877D01*
X158914910Y-112130902D01*
X160046281Y-113262273D01*
X159551306Y-113757248D01*
X159551306Y-113757248D01*
G37*
G36*
X159197752Y-114110801D02*
X158066381Y-112979430D01*
X158561356Y-112484455D01*
X159692727Y-113615826D01*
X159197752Y-114110801D01*
X159197752Y-114110801D01*
G37*
G36*
X158844199Y-114464355D02*
X157712828Y-113332984D01*
X158207803Y-112838009D01*
X159339174Y-113969380D01*
X158844199Y-114464355D01*
X158844199Y-114464355D01*
G37*
G36*
X158490646Y-114817908D02*
X157359275Y-113686537D01*
X157854250Y-113191562D01*
X158985621Y-114322933D01*
X158490646Y-114817908D01*
X158490646Y-114817908D01*
G37*
G36*
X158137092Y-115171461D02*
X157005721Y-114040090D01*
X157500696Y-113545115D01*
X158632067Y-114676486D01*
X158137092Y-115171461D01*
X158137092Y-115171461D01*
G37*
G36*
X157783539Y-115525015D02*
X156652168Y-114393644D01*
X157147143Y-113898669D01*
X158278514Y-115030040D01*
X157783539Y-115525015D01*
X157783539Y-115525015D01*
G37*
D11*
X174205900Y-111000500D03*
X174205900Y-112900500D03*
X174231300Y-117243900D03*
X174231300Y-115343900D03*
D16*
X171425500Y-104152700D03*
X173125500Y-104152700D03*
D11*
X173443900Y-101140300D03*
X173443900Y-99240300D03*
X169862500Y-101140300D03*
X169862500Y-99240300D03*
D14*
X164995900Y-105219500D03*
X163095900Y-105219500D03*
D11*
X167373300Y-99214900D03*
X167373300Y-101114900D03*
D14*
X139799100Y-109588300D03*
X137899100Y-109588300D03*
X122608300Y-131737100D03*
X124508300Y-131737100D03*
X122659100Y-125514100D03*
X124559100Y-125514100D03*
X122633700Y-128511300D03*
X124533700Y-128511300D03*
D17*
X129019700Y-122048300D03*
X129019700Y-119748300D03*
X129019700Y-117448300D03*
D18*
X122719700Y-119748300D03*
D19*
X159905700Y-127148300D03*
X159905700Y-125048300D03*
D11*
X162369500Y-127073700D03*
X162369500Y-125173700D03*
D19*
X172199300Y-88421500D03*
X172199300Y-90521500D03*
D11*
X174282100Y-88419900D03*
X174282100Y-90319900D03*
D20*
X139687300Y-101536500D03*
X141744700Y-101612700D03*
X143725900Y-102120700D03*
X145757900Y-102095300D03*
X147764500Y-102095300D03*
X149771100Y-102095300D03*
X151752300Y-102095300D03*
X153758900Y-102120700D03*
X155765500Y-101384100D03*
X157695900Y-101409500D03*
X157721300Y-80124300D03*
X155765500Y-80149700D03*
X153758900Y-80124300D03*
X151752300Y-80149700D03*
X149771100Y-80124300D03*
X147764500Y-80149700D03*
X145732500Y-80124300D03*
X143725900Y-80124300D03*
X141744700Y-80124300D03*
X139712700Y-80098900D03*
D21*
X126352300Y-94736300D03*
X126352300Y-89736300D03*
X126352300Y-84736300D03*
X126352300Y-79736300D03*
D22*
X139357100Y-89192100D03*
X139585700Y-94272100D03*
D23*
X136588500Y-122013500D03*
X136588500Y-119413500D03*
M02*
