G04 #@! TF.FileFunction,Profile,NP*
%FSLAX46Y46*%
G04 Gerber Fmt 4.6, Leading zero omitted, Abs format (unit mm)*
G04 Created by KiCad (PCBNEW 4.0.6) date 05/08/17 07:22:45*
%MOMM*%
%LPD*%
G01*
G04 APERTURE LIST*
%ADD10C,0.100000*%
%ADD11C,0.150000*%
G04 APERTURE END LIST*
D10*
D11*
X151261900Y-77199500D02*
X206764100Y-77352500D01*
X146019500Y-87638700D02*
X146058500Y-77597100D01*
X145919700Y-122600100D02*
X148093500Y-122574700D01*
X148093500Y-122574700D02*
X147988900Y-87640900D01*
X147988900Y-87640900D02*
X146019500Y-87638700D01*
X145902700Y-132696100D02*
X145919700Y-122600100D01*
X152931100Y-86782900D02*
X151452900Y-86838100D01*
X151188700Y-123039300D02*
X152931100Y-123119900D01*
X206797700Y-132716300D02*
X206692700Y-122724300D01*
X206692700Y-122724300D02*
X205189100Y-122698900D01*
X205189100Y-122698900D02*
X205294100Y-87205900D01*
X205294100Y-87205900D02*
X206696100Y-87310900D01*
X206696100Y-87310900D02*
X206696100Y-77445900D01*
X151347900Y-77395100D02*
X151452900Y-86838100D01*
X152931100Y-86782900D02*
X152931100Y-123119900D01*
X151188700Y-123039300D02*
X151293700Y-132505300D01*
X209941700Y-87973500D02*
X208344500Y-87875100D01*
X208344500Y-87875100D02*
X208395300Y-122324700D01*
X208395300Y-122324700D02*
X209843300Y-122279300D01*
X209843300Y-122279300D02*
X209843300Y-132947300D01*
X265135300Y-132902900D02*
X265186100Y-77657900D01*
X265186100Y-77657900D02*
X209868700Y-77594500D01*
X209868700Y-77594500D02*
X209941700Y-87973500D01*
X31778100Y-132328900D02*
X31778100Y-77328900D01*
X146058500Y-132637100D02*
X90480900Y-132589300D01*
X265098100Y-132643900D02*
X265098100Y-77643900D01*
X90730100Y-77797900D02*
X145730100Y-77797900D01*
X90730100Y-132797900D02*
X90730100Y-77797900D01*
X31762100Y-132182900D02*
X31762100Y-77182900D01*
X31764100Y-132096900D02*
X31764100Y-77096900D01*
X146105100Y-77945900D02*
X90765100Y-77831900D01*
X90765100Y-132831900D02*
X90765100Y-77831900D01*
X265132100Y-77618900D02*
X210132100Y-77618900D01*
X265132100Y-132618900D02*
X265132100Y-77618900D01*
X210196100Y-132782900D02*
X265196100Y-132782900D01*
X265196100Y-132782900D02*
X265196100Y-77782900D01*
X265240100Y-77710900D02*
X210240100Y-77710900D01*
X265240100Y-132710900D02*
X265240100Y-77710900D01*
X151952100Y-132825900D02*
X206952100Y-132825900D01*
X206843100Y-132825900D02*
X151843100Y-132825900D01*
X90884100Y-77895900D02*
X145884100Y-77895900D01*
X90884100Y-132895900D02*
X90884100Y-77895900D01*
X145775100Y-77895900D02*
X90775100Y-77895900D01*
X90775100Y-132895900D02*
X90775100Y-77895900D01*
X31880100Y-132059900D02*
X86880100Y-132059900D01*
X31880100Y-77059900D02*
X86880100Y-77059900D01*
X31880100Y-132059900D02*
X31880100Y-77059900D01*
X86880100Y-132059900D02*
X86880100Y-77059900D01*
X86771100Y-132059900D02*
X31771100Y-132059900D01*
X86771100Y-77059900D02*
X31771100Y-77059900D01*
X31771100Y-132059900D02*
X31771100Y-77059900D01*
M02*
