G04 #@! TF.FileFunction,Paste,Top*
%FSLAX46Y46*%
G04 Gerber Fmt 4.6, Leading zero omitted, Abs format (unit mm)*
G04 Created by KiCad (PCBNEW 4.0.6) date 05/08/17 07:22:45*
%MOMM*%
%LPD*%
G01*
G04 APERTURE LIST*
%ADD10C,0.100000*%
%ADD11R,1.500000X1.300000*%
%ADD12R,1.300000X1.500000*%
%ADD13R,2.000000X2.400000*%
%ADD14R,0.500000X2.308000*%
%ADD15R,1.200000X1.200000*%
%ADD16R,0.660400X2.032000*%
%ADD17C,1.100000*%
%ADD18R,0.635000X1.270000*%
%ADD19R,1.100000X1.000000*%
%ADD20R,2.006600X1.092200*%
%ADD21R,2.540000X1.143000*%
%ADD22R,3.300000X1.300000*%
%ADD23R,2.540000X2.540000*%
%ADD24R,1.200000X0.700000*%
G04 APERTURE END LIST*
D10*
D11*
X260004500Y-125907700D03*
X260004500Y-127807700D03*
X262392100Y-125958500D03*
X262392100Y-127858500D03*
D12*
X253212500Y-126451300D03*
X255112500Y-126451300D03*
D13*
X246040300Y-85628300D03*
D14*
X243240300Y-86192300D03*
X242440300Y-86192300D03*
X241640300Y-86192300D03*
X240840300Y-86192300D03*
X240040300Y-86192300D03*
D13*
X246040300Y-80128300D03*
X237240300Y-85628300D03*
X237240300Y-80128300D03*
D15*
X191161900Y-80426500D03*
X193261900Y-80426500D03*
D12*
X253034700Y-80045500D03*
X254934700Y-80045500D03*
D11*
X241827100Y-124644700D03*
X241827100Y-126544700D03*
D12*
X253187100Y-128254700D03*
X255087100Y-128254700D03*
D11*
X257489900Y-127782300D03*
X257489900Y-125882300D03*
X234807700Y-104089100D03*
X234807700Y-105989100D03*
X231759700Y-85745300D03*
X231759700Y-83845300D03*
X176540100Y-104393900D03*
X176540100Y-106293900D03*
X115471300Y-104449900D03*
X115471300Y-106349900D03*
X56642300Y-103820300D03*
X56642300Y-105720300D03*
X191071100Y-82356700D03*
X191071100Y-84256700D03*
X234426700Y-85719900D03*
X234426700Y-83819900D03*
D16*
X249006300Y-121269700D03*
X249006300Y-127416500D03*
X247736300Y-121269700D03*
X246466300Y-121269700D03*
X247736300Y-127416500D03*
X246466300Y-127416500D03*
X245196300Y-121269700D03*
X245196300Y-127416500D03*
D10*
G36*
X249575143Y-104941688D02*
X249363011Y-104729556D01*
X250211539Y-103881028D01*
X250423671Y-104093160D01*
X249575143Y-104941688D01*
X249575143Y-104941688D01*
G37*
G36*
X249928696Y-105295242D02*
X249716564Y-105083110D01*
X250565092Y-104234582D01*
X250777224Y-104446714D01*
X249928696Y-105295242D01*
X249928696Y-105295242D01*
G37*
G36*
X250282250Y-105648795D02*
X250070118Y-105436663D01*
X250918646Y-104588135D01*
X251130778Y-104800267D01*
X250282250Y-105648795D01*
X250282250Y-105648795D01*
G37*
G36*
X250635803Y-106002348D02*
X250423671Y-105790216D01*
X251272199Y-104941688D01*
X251484331Y-105153820D01*
X250635803Y-106002348D01*
X250635803Y-106002348D01*
G37*
G36*
X250989356Y-106355902D02*
X250777224Y-106143770D01*
X251625752Y-105295242D01*
X251837884Y-105507374D01*
X250989356Y-106355902D01*
X250989356Y-106355902D01*
G37*
G36*
X251342910Y-106709455D02*
X251130778Y-106497323D01*
X251979306Y-105648795D01*
X252191438Y-105860927D01*
X251342910Y-106709455D01*
X251342910Y-106709455D01*
G37*
G36*
X251696463Y-107063009D02*
X251484331Y-106850877D01*
X252332859Y-106002349D01*
X252544991Y-106214481D01*
X251696463Y-107063009D01*
X251696463Y-107063009D01*
G37*
G36*
X252050017Y-107416562D02*
X251837885Y-107204430D01*
X252686413Y-106355902D01*
X252898545Y-106568034D01*
X252050017Y-107416562D01*
X252050017Y-107416562D01*
G37*
G36*
X252403570Y-107770115D02*
X252191438Y-107557983D01*
X253039966Y-106709455D01*
X253252098Y-106921587D01*
X252403570Y-107770115D01*
X252403570Y-107770115D01*
G37*
G36*
X252757123Y-108123669D02*
X252544991Y-107911537D01*
X253393519Y-107063009D01*
X253605651Y-107275141D01*
X252757123Y-108123669D01*
X252757123Y-108123669D01*
G37*
G36*
X253110677Y-108477222D02*
X252898545Y-108265090D01*
X253747073Y-107416562D01*
X253959205Y-107628694D01*
X253110677Y-108477222D01*
X253110677Y-108477222D01*
G37*
G36*
X253464230Y-108830776D02*
X253252098Y-108618644D01*
X254100626Y-107770116D01*
X254312758Y-107982248D01*
X253464230Y-108830776D01*
X253464230Y-108830776D01*
G37*
G36*
X253817784Y-109184329D02*
X253605652Y-108972197D01*
X254454180Y-108123669D01*
X254666312Y-108335801D01*
X253817784Y-109184329D01*
X253817784Y-109184329D01*
G37*
G36*
X254171337Y-109537882D02*
X253959205Y-109325750D01*
X254807733Y-108477222D01*
X255019865Y-108689354D01*
X254171337Y-109537882D01*
X254171337Y-109537882D01*
G37*
G36*
X254524890Y-109891436D02*
X254312758Y-109679304D01*
X255161286Y-108830776D01*
X255373418Y-109042908D01*
X254524890Y-109891436D01*
X254524890Y-109891436D01*
G37*
G36*
X254878444Y-110244989D02*
X254666312Y-110032857D01*
X255514840Y-109184329D01*
X255726972Y-109396461D01*
X254878444Y-110244989D01*
X254878444Y-110244989D01*
G37*
G36*
X258272556Y-110244989D02*
X257424028Y-109396461D01*
X257636160Y-109184329D01*
X258484688Y-110032857D01*
X258272556Y-110244989D01*
X258272556Y-110244989D01*
G37*
G36*
X258626110Y-109891436D02*
X257777582Y-109042908D01*
X257989714Y-108830776D01*
X258838242Y-109679304D01*
X258626110Y-109891436D01*
X258626110Y-109891436D01*
G37*
G36*
X258979663Y-109537882D02*
X258131135Y-108689354D01*
X258343267Y-108477222D01*
X259191795Y-109325750D01*
X258979663Y-109537882D01*
X258979663Y-109537882D01*
G37*
G36*
X259333216Y-109184329D02*
X258484688Y-108335801D01*
X258696820Y-108123669D01*
X259545348Y-108972197D01*
X259333216Y-109184329D01*
X259333216Y-109184329D01*
G37*
G36*
X259686770Y-108830776D02*
X258838242Y-107982248D01*
X259050374Y-107770116D01*
X259898902Y-108618644D01*
X259686770Y-108830776D01*
X259686770Y-108830776D01*
G37*
G36*
X260040323Y-108477222D02*
X259191795Y-107628694D01*
X259403927Y-107416562D01*
X260252455Y-108265090D01*
X260040323Y-108477222D01*
X260040323Y-108477222D01*
G37*
G36*
X260393877Y-108123669D02*
X259545349Y-107275141D01*
X259757481Y-107063009D01*
X260606009Y-107911537D01*
X260393877Y-108123669D01*
X260393877Y-108123669D01*
G37*
G36*
X260747430Y-107770115D02*
X259898902Y-106921587D01*
X260111034Y-106709455D01*
X260959562Y-107557983D01*
X260747430Y-107770115D01*
X260747430Y-107770115D01*
G37*
G36*
X261100983Y-107416562D02*
X260252455Y-106568034D01*
X260464587Y-106355902D01*
X261313115Y-107204430D01*
X261100983Y-107416562D01*
X261100983Y-107416562D01*
G37*
G36*
X261454537Y-107063009D02*
X260606009Y-106214481D01*
X260818141Y-106002349D01*
X261666669Y-106850877D01*
X261454537Y-107063009D01*
X261454537Y-107063009D01*
G37*
G36*
X261808090Y-106709455D02*
X260959562Y-105860927D01*
X261171694Y-105648795D01*
X262020222Y-106497323D01*
X261808090Y-106709455D01*
X261808090Y-106709455D01*
G37*
G36*
X262161644Y-106355902D02*
X261313116Y-105507374D01*
X261525248Y-105295242D01*
X262373776Y-106143770D01*
X262161644Y-106355902D01*
X262161644Y-106355902D01*
G37*
G36*
X262515197Y-106002348D02*
X261666669Y-105153820D01*
X261878801Y-104941688D01*
X262727329Y-105790216D01*
X262515197Y-106002348D01*
X262515197Y-106002348D01*
G37*
G36*
X262868750Y-105648795D02*
X262020222Y-104800267D01*
X262232354Y-104588135D01*
X263080882Y-105436663D01*
X262868750Y-105648795D01*
X262868750Y-105648795D01*
G37*
G36*
X263222304Y-105295242D02*
X262373776Y-104446714D01*
X262585908Y-104234582D01*
X263434436Y-105083110D01*
X263222304Y-105295242D01*
X263222304Y-105295242D01*
G37*
G36*
X263575857Y-104941688D02*
X262727329Y-104093160D01*
X262939461Y-103881028D01*
X263787989Y-104729556D01*
X263575857Y-104941688D01*
X263575857Y-104941688D01*
G37*
G36*
X262939461Y-102183972D02*
X262727329Y-101971840D01*
X263575857Y-101123312D01*
X263787989Y-101335444D01*
X262939461Y-102183972D01*
X262939461Y-102183972D01*
G37*
G36*
X262585908Y-101830418D02*
X262373776Y-101618286D01*
X263222304Y-100769758D01*
X263434436Y-100981890D01*
X262585908Y-101830418D01*
X262585908Y-101830418D01*
G37*
G36*
X262232354Y-101476865D02*
X262020222Y-101264733D01*
X262868750Y-100416205D01*
X263080882Y-100628337D01*
X262232354Y-101476865D01*
X262232354Y-101476865D01*
G37*
G36*
X261878801Y-101123312D02*
X261666669Y-100911180D01*
X262515197Y-100062652D01*
X262727329Y-100274784D01*
X261878801Y-101123312D01*
X261878801Y-101123312D01*
G37*
G36*
X261525248Y-100769758D02*
X261313116Y-100557626D01*
X262161644Y-99709098D01*
X262373776Y-99921230D01*
X261525248Y-100769758D01*
X261525248Y-100769758D01*
G37*
G36*
X261171694Y-100416205D02*
X260959562Y-100204073D01*
X261808090Y-99355545D01*
X262020222Y-99567677D01*
X261171694Y-100416205D01*
X261171694Y-100416205D01*
G37*
G36*
X260818141Y-100062651D02*
X260606009Y-99850519D01*
X261454537Y-99001991D01*
X261666669Y-99214123D01*
X260818141Y-100062651D01*
X260818141Y-100062651D01*
G37*
G36*
X260464587Y-99709098D02*
X260252455Y-99496966D01*
X261100983Y-98648438D01*
X261313115Y-98860570D01*
X260464587Y-99709098D01*
X260464587Y-99709098D01*
G37*
G36*
X260111034Y-99355545D02*
X259898902Y-99143413D01*
X260747430Y-98294885D01*
X260959562Y-98507017D01*
X260111034Y-99355545D01*
X260111034Y-99355545D01*
G37*
G36*
X259757481Y-99001991D02*
X259545349Y-98789859D01*
X260393877Y-97941331D01*
X260606009Y-98153463D01*
X259757481Y-99001991D01*
X259757481Y-99001991D01*
G37*
G36*
X259403927Y-98648438D02*
X259191795Y-98436306D01*
X260040323Y-97587778D01*
X260252455Y-97799910D01*
X259403927Y-98648438D01*
X259403927Y-98648438D01*
G37*
G36*
X259050374Y-98294884D02*
X258838242Y-98082752D01*
X259686770Y-97234224D01*
X259898902Y-97446356D01*
X259050374Y-98294884D01*
X259050374Y-98294884D01*
G37*
G36*
X258696820Y-97941331D02*
X258484688Y-97729199D01*
X259333216Y-96880671D01*
X259545348Y-97092803D01*
X258696820Y-97941331D01*
X258696820Y-97941331D01*
G37*
G36*
X258343267Y-97587778D02*
X258131135Y-97375646D01*
X258979663Y-96527118D01*
X259191795Y-96739250D01*
X258343267Y-97587778D01*
X258343267Y-97587778D01*
G37*
G36*
X257989714Y-97234224D02*
X257777582Y-97022092D01*
X258626110Y-96173564D01*
X258838242Y-96385696D01*
X257989714Y-97234224D01*
X257989714Y-97234224D01*
G37*
G36*
X257636160Y-96880671D02*
X257424028Y-96668539D01*
X258272556Y-95820011D01*
X258484688Y-96032143D01*
X257636160Y-96880671D01*
X257636160Y-96880671D01*
G37*
G36*
X255514840Y-96880671D02*
X254666312Y-96032143D01*
X254878444Y-95820011D01*
X255726972Y-96668539D01*
X255514840Y-96880671D01*
X255514840Y-96880671D01*
G37*
G36*
X255161286Y-97234224D02*
X254312758Y-96385696D01*
X254524890Y-96173564D01*
X255373418Y-97022092D01*
X255161286Y-97234224D01*
X255161286Y-97234224D01*
G37*
G36*
X254807733Y-97587778D02*
X253959205Y-96739250D01*
X254171337Y-96527118D01*
X255019865Y-97375646D01*
X254807733Y-97587778D01*
X254807733Y-97587778D01*
G37*
G36*
X254454180Y-97941331D02*
X253605652Y-97092803D01*
X253817784Y-96880671D01*
X254666312Y-97729199D01*
X254454180Y-97941331D01*
X254454180Y-97941331D01*
G37*
G36*
X254100626Y-98294884D02*
X253252098Y-97446356D01*
X253464230Y-97234224D01*
X254312758Y-98082752D01*
X254100626Y-98294884D01*
X254100626Y-98294884D01*
G37*
G36*
X253747073Y-98648438D02*
X252898545Y-97799910D01*
X253110677Y-97587778D01*
X253959205Y-98436306D01*
X253747073Y-98648438D01*
X253747073Y-98648438D01*
G37*
G36*
X253393519Y-99001991D02*
X252544991Y-98153463D01*
X252757123Y-97941331D01*
X253605651Y-98789859D01*
X253393519Y-99001991D01*
X253393519Y-99001991D01*
G37*
G36*
X253039966Y-99355545D02*
X252191438Y-98507017D01*
X252403570Y-98294885D01*
X253252098Y-99143413D01*
X253039966Y-99355545D01*
X253039966Y-99355545D01*
G37*
G36*
X252686413Y-99709098D02*
X251837885Y-98860570D01*
X252050017Y-98648438D01*
X252898545Y-99496966D01*
X252686413Y-99709098D01*
X252686413Y-99709098D01*
G37*
G36*
X252332859Y-100062651D02*
X251484331Y-99214123D01*
X251696463Y-99001991D01*
X252544991Y-99850519D01*
X252332859Y-100062651D01*
X252332859Y-100062651D01*
G37*
G36*
X251979306Y-100416205D02*
X251130778Y-99567677D01*
X251342910Y-99355545D01*
X252191438Y-100204073D01*
X251979306Y-100416205D01*
X251979306Y-100416205D01*
G37*
G36*
X251625752Y-100769758D02*
X250777224Y-99921230D01*
X250989356Y-99709098D01*
X251837884Y-100557626D01*
X251625752Y-100769758D01*
X251625752Y-100769758D01*
G37*
G36*
X251272199Y-101123312D02*
X250423671Y-100274784D01*
X250635803Y-100062652D01*
X251484331Y-100911180D01*
X251272199Y-101123312D01*
X251272199Y-101123312D01*
G37*
G36*
X250918646Y-101476865D02*
X250070118Y-100628337D01*
X250282250Y-100416205D01*
X251130778Y-101264733D01*
X250918646Y-101476865D01*
X250918646Y-101476865D01*
G37*
G36*
X250565092Y-101830418D02*
X249716564Y-100981890D01*
X249928696Y-100769758D01*
X250777224Y-101618286D01*
X250565092Y-101830418D01*
X250565092Y-101830418D01*
G37*
G36*
X250211539Y-102183972D02*
X249363011Y-101335444D01*
X249575143Y-101123312D01*
X250423671Y-101971840D01*
X250211539Y-102183972D01*
X250211539Y-102183972D01*
G37*
D17*
X211412500Y-90281700D03*
D18*
X211793500Y-90281700D03*
X212428500Y-90281700D03*
X211158500Y-90281700D03*
X210523500Y-90281700D03*
X209888500Y-90281700D03*
X213025400Y-90281700D03*
X213622300Y-90281700D03*
X209266200Y-90281700D03*
X208643900Y-90281700D03*
D17*
X213014500Y-82458500D03*
D18*
X213395500Y-82458500D03*
X214030500Y-82458500D03*
X212760500Y-82458500D03*
X212125500Y-82458500D03*
X211490500Y-82458500D03*
X214627400Y-82458500D03*
X215224300Y-82458500D03*
X210868200Y-82458500D03*
X210245900Y-82458500D03*
D17*
X203057700Y-90281700D03*
D18*
X203438700Y-90281700D03*
X204073700Y-90281700D03*
X202803700Y-90281700D03*
X202168700Y-90281700D03*
X201533700Y-90281700D03*
X204670600Y-90281700D03*
X205267500Y-90281700D03*
X200911400Y-90281700D03*
X200289100Y-90281700D03*
D17*
X205013500Y-82407700D03*
D18*
X205394500Y-82407700D03*
X206029500Y-82407700D03*
X204759500Y-82407700D03*
X204124500Y-82407700D03*
X203489500Y-82407700D03*
X206626400Y-82407700D03*
X207223300Y-82407700D03*
X202867200Y-82407700D03*
X202244900Y-82407700D03*
D17*
X156042300Y-90332500D03*
D18*
X156423300Y-90332500D03*
X157058300Y-90332500D03*
X155788300Y-90332500D03*
X155153300Y-90332500D03*
X154518300Y-90332500D03*
X157655200Y-90332500D03*
X158252100Y-90332500D03*
X153896000Y-90332500D03*
X153273700Y-90332500D03*
D17*
X153375300Y-80324900D03*
D18*
X153756300Y-80324900D03*
X154391300Y-80324900D03*
X153121300Y-80324900D03*
X152486300Y-80324900D03*
X151851300Y-80324900D03*
X154988200Y-80324900D03*
X155585100Y-80324900D03*
X151229000Y-80324900D03*
X150606700Y-80324900D03*
D17*
X145062300Y-90490100D03*
D18*
X145443300Y-90490100D03*
X146078300Y-90490100D03*
X144808300Y-90490100D03*
X144173300Y-90490100D03*
X143538300Y-90490100D03*
X146675200Y-90490100D03*
X147272100Y-90490100D03*
X142916000Y-90490100D03*
X142293700Y-90490100D03*
D17*
X143452700Y-80411500D03*
D18*
X143833700Y-80411500D03*
X144468700Y-80411500D03*
X143198700Y-80411500D03*
X142563700Y-80411500D03*
X141928700Y-80411500D03*
X145065600Y-80411500D03*
X145662500Y-80411500D03*
X141306400Y-80411500D03*
X140684100Y-80411500D03*
D17*
X211386100Y-103718300D03*
D18*
X211767100Y-103718300D03*
X212402100Y-103718300D03*
X211132100Y-103718300D03*
X210497100Y-103718300D03*
X209862100Y-103718300D03*
X212999000Y-103718300D03*
X213595900Y-103718300D03*
X209239800Y-103718300D03*
X208617500Y-103718300D03*
D17*
X202981500Y-103769100D03*
D18*
X203362500Y-103769100D03*
X203997500Y-103769100D03*
X202727500Y-103769100D03*
X202092500Y-103769100D03*
X201457500Y-103769100D03*
X204594400Y-103769100D03*
X205191300Y-103769100D03*
X200835200Y-103769100D03*
X200212900Y-103769100D03*
D17*
X211411500Y-106385300D03*
D18*
X211792500Y-106385300D03*
X212427500Y-106385300D03*
X211157500Y-106385300D03*
X210522500Y-106385300D03*
X209887500Y-106385300D03*
X213024400Y-106385300D03*
X213621300Y-106385300D03*
X209265200Y-106385300D03*
X208642900Y-106385300D03*
D17*
X202879900Y-106385300D03*
D18*
X203260900Y-106385300D03*
X203895900Y-106385300D03*
X202625900Y-106385300D03*
X201990900Y-106385300D03*
X201355900Y-106385300D03*
X204492800Y-106385300D03*
X205089700Y-106385300D03*
X200733600Y-106385300D03*
X200111300Y-106385300D03*
D17*
X156067700Y-106309100D03*
D18*
X156448700Y-106309100D03*
X157083700Y-106309100D03*
X155813700Y-106309100D03*
X155178700Y-106309100D03*
X154543700Y-106309100D03*
X157680600Y-106309100D03*
X158277500Y-106309100D03*
X153921400Y-106309100D03*
X153299100Y-106309100D03*
D17*
X145138500Y-106466700D03*
D18*
X145519500Y-106466700D03*
X146154500Y-106466700D03*
X144884500Y-106466700D03*
X144249500Y-106466700D03*
X143614500Y-106466700D03*
X146751400Y-106466700D03*
X147348300Y-106466700D03*
X142992200Y-106466700D03*
X142369900Y-106466700D03*
D17*
X211587500Y-109077700D03*
D18*
X211968500Y-109077700D03*
X212603500Y-109077700D03*
X211333500Y-109077700D03*
X210698500Y-109077700D03*
X210063500Y-109077700D03*
X213200400Y-109077700D03*
X213797300Y-109077700D03*
X209441200Y-109077700D03*
X208818900Y-109077700D03*
D17*
X202981500Y-109026900D03*
D18*
X203362500Y-109026900D03*
X203997500Y-109026900D03*
X202727500Y-109026900D03*
X202092500Y-109026900D03*
X201457500Y-109026900D03*
X204594400Y-109026900D03*
X205191300Y-109026900D03*
X200835200Y-109026900D03*
X200212900Y-109026900D03*
D17*
X156093100Y-109077700D03*
D18*
X156474100Y-109077700D03*
X157109100Y-109077700D03*
X155839100Y-109077700D03*
X155204100Y-109077700D03*
X154569100Y-109077700D03*
X157706000Y-109077700D03*
X158302900Y-109077700D03*
X153946800Y-109077700D03*
X153324500Y-109077700D03*
D17*
X145011500Y-109235300D03*
D18*
X145392500Y-109235300D03*
X146027500Y-109235300D03*
X144757500Y-109235300D03*
X144122500Y-109235300D03*
X143487500Y-109235300D03*
X146624400Y-109235300D03*
X147221300Y-109235300D03*
X142865200Y-109235300D03*
X142242900Y-109235300D03*
D17*
X145062300Y-95900300D03*
D18*
X145443300Y-95900300D03*
X146078300Y-95900300D03*
X144808300Y-95900300D03*
X144173300Y-95900300D03*
X143538300Y-95900300D03*
X146675200Y-95900300D03*
X147272100Y-95900300D03*
X142916000Y-95900300D03*
X142293700Y-95900300D03*
D17*
X145036900Y-120512900D03*
D18*
X145417900Y-120512900D03*
X146052900Y-120512900D03*
X144782900Y-120512900D03*
X144147900Y-120512900D03*
X143512900Y-120512900D03*
X146649800Y-120512900D03*
X147246700Y-120512900D03*
X142890600Y-120512900D03*
X142268300Y-120512900D03*
D17*
X145011500Y-103799700D03*
D18*
X145392500Y-103799700D03*
X146027500Y-103799700D03*
X144757500Y-103799700D03*
X144122500Y-103799700D03*
X143487500Y-103799700D03*
X146624400Y-103799700D03*
X147221300Y-103799700D03*
X142865200Y-103799700D03*
X142242900Y-103799700D03*
D17*
X145036900Y-111902300D03*
D18*
X145417900Y-111902300D03*
X146052900Y-111902300D03*
X144782900Y-111902300D03*
X144147900Y-111902300D03*
X143512900Y-111902300D03*
X146649800Y-111902300D03*
X147246700Y-111902300D03*
X142890600Y-111902300D03*
X142268300Y-111902300D03*
D17*
X211338100Y-92948700D03*
D18*
X211719100Y-92948700D03*
X212354100Y-92948700D03*
X211084100Y-92948700D03*
X210449100Y-92948700D03*
X209814100Y-92948700D03*
X212951000Y-92948700D03*
X213547900Y-92948700D03*
X209191800Y-92948700D03*
X208569500Y-92948700D03*
D17*
X203006900Y-92897900D03*
D18*
X203387900Y-92897900D03*
X204022900Y-92897900D03*
X202752900Y-92897900D03*
X202117900Y-92897900D03*
X201482900Y-92897900D03*
X204619800Y-92897900D03*
X205216700Y-92897900D03*
X200860600Y-92897900D03*
X200238300Y-92897900D03*
D17*
X211361700Y-114614900D03*
D18*
X211742700Y-114614900D03*
X212377700Y-114614900D03*
X211107700Y-114614900D03*
X210472700Y-114614900D03*
X209837700Y-114614900D03*
X212974600Y-114614900D03*
X213571500Y-114614900D03*
X209215400Y-114614900D03*
X208593100Y-114614900D03*
D17*
X203057700Y-114614900D03*
D18*
X203438700Y-114614900D03*
X204073700Y-114614900D03*
X202803700Y-114614900D03*
X202168700Y-114614900D03*
X201533700Y-114614900D03*
X204670600Y-114614900D03*
X205267500Y-114614900D03*
X200911400Y-114614900D03*
X200289100Y-114614900D03*
D17*
X156016900Y-114513300D03*
D18*
X156397900Y-114513300D03*
X157032900Y-114513300D03*
X155762900Y-114513300D03*
X155127900Y-114513300D03*
X154492900Y-114513300D03*
X157629800Y-114513300D03*
X158226700Y-114513300D03*
X153870600Y-114513300D03*
X153248300Y-114513300D03*
D17*
X145036900Y-114696300D03*
D18*
X145417900Y-114696300D03*
X146052900Y-114696300D03*
X144782900Y-114696300D03*
X144147900Y-114696300D03*
X143512900Y-114696300D03*
X146649800Y-114696300D03*
X147246700Y-114696300D03*
X142890600Y-114696300D03*
X142268300Y-114696300D03*
D17*
X211388900Y-98384300D03*
D18*
X211769900Y-98384300D03*
X212404900Y-98384300D03*
X211134900Y-98384300D03*
X210499900Y-98384300D03*
X209864900Y-98384300D03*
X213001800Y-98384300D03*
X213598700Y-98384300D03*
X209242600Y-98384300D03*
X208620300Y-98384300D03*
D17*
X202981500Y-98409700D03*
D18*
X203362500Y-98409700D03*
X203997500Y-98409700D03*
X202727500Y-98409700D03*
X202092500Y-98409700D03*
X201457500Y-98409700D03*
X204594400Y-98409700D03*
X205191300Y-98409700D03*
X200835200Y-98409700D03*
X200212900Y-98409700D03*
D17*
X155966100Y-98409700D03*
D18*
X156347100Y-98409700D03*
X156982100Y-98409700D03*
X155712100Y-98409700D03*
X155077100Y-98409700D03*
X154442100Y-98409700D03*
X157579000Y-98409700D03*
X158175900Y-98409700D03*
X153819800Y-98409700D03*
X153197500Y-98409700D03*
D17*
X145062300Y-98592700D03*
D18*
X145443300Y-98592700D03*
X146078300Y-98592700D03*
X144808300Y-98592700D03*
X144173300Y-98592700D03*
X143538300Y-98592700D03*
X146675200Y-98592700D03*
X147272100Y-98592700D03*
X142916000Y-98592700D03*
X142293700Y-98592700D03*
D17*
X213014500Y-85354100D03*
D18*
X213395500Y-85354100D03*
X214030500Y-85354100D03*
X212760500Y-85354100D03*
X212125500Y-85354100D03*
X211490500Y-85354100D03*
X214627400Y-85354100D03*
X215224300Y-85354100D03*
X210868200Y-85354100D03*
X210245900Y-85354100D03*
D17*
X212963700Y-127949900D03*
D18*
X213344700Y-127949900D03*
X213979700Y-127949900D03*
X212709700Y-127949900D03*
X212074700Y-127949900D03*
X211439700Y-127949900D03*
X214576600Y-127949900D03*
X215173500Y-127949900D03*
X210817400Y-127949900D03*
X210195100Y-127949900D03*
D17*
X212963700Y-124825700D03*
D18*
X213344700Y-124825700D03*
X213979700Y-124825700D03*
X212709700Y-124825700D03*
X212074700Y-124825700D03*
X211439700Y-124825700D03*
X214576600Y-124825700D03*
X215173500Y-124825700D03*
X210817400Y-124825700D03*
X210195100Y-124825700D03*
D17*
X205038900Y-85354100D03*
D18*
X205419900Y-85354100D03*
X206054900Y-85354100D03*
X204784900Y-85354100D03*
X204149900Y-85354100D03*
X203514900Y-85354100D03*
X206651800Y-85354100D03*
X207248700Y-85354100D03*
X202892600Y-85354100D03*
X202270300Y-85354100D03*
D17*
X205115100Y-127975300D03*
D18*
X205496100Y-127975300D03*
X206131100Y-127975300D03*
X204861100Y-127975300D03*
X204226100Y-127975300D03*
X203591100Y-127975300D03*
X206728000Y-127975300D03*
X207324900Y-127975300D03*
X202968800Y-127975300D03*
X202346500Y-127975300D03*
D17*
X205165900Y-124876500D03*
D18*
X205546900Y-124876500D03*
X206181900Y-124876500D03*
X204911900Y-124876500D03*
X204276900Y-124876500D03*
X203641900Y-124876500D03*
X206778800Y-124876500D03*
X207375700Y-124876500D03*
X203019600Y-124876500D03*
X202397300Y-124876500D03*
D17*
X143308700Y-129776100D03*
D18*
X143689700Y-129776100D03*
X144324700Y-129776100D03*
X143054700Y-129776100D03*
X142419700Y-129776100D03*
X141784700Y-129776100D03*
X144921600Y-129776100D03*
X145518500Y-129776100D03*
X141162400Y-129776100D03*
X140540100Y-129776100D03*
D17*
X143351700Y-125931900D03*
D18*
X143732700Y-125931900D03*
X144367700Y-125931900D03*
X143097700Y-125931900D03*
X142462700Y-125931900D03*
X141827700Y-125931900D03*
X144964600Y-125931900D03*
X145561500Y-125931900D03*
X141205400Y-125931900D03*
X140583100Y-125931900D03*
D17*
X153375300Y-83245900D03*
D18*
X153756300Y-83245900D03*
X154391300Y-83245900D03*
X153121300Y-83245900D03*
X152486300Y-83245900D03*
X151851300Y-83245900D03*
X154988200Y-83245900D03*
X155585100Y-83245900D03*
X151229000Y-83245900D03*
X150606700Y-83245900D03*
D17*
X153349900Y-129702500D03*
D18*
X153730900Y-129702500D03*
X154365900Y-129702500D03*
X153095900Y-129702500D03*
X152460900Y-129702500D03*
X151825900Y-129702500D03*
X154962800Y-129702500D03*
X155559700Y-129702500D03*
X151203600Y-129702500D03*
X150581300Y-129702500D03*
D17*
X153400700Y-125790900D03*
D18*
X153781700Y-125790900D03*
X154416700Y-125790900D03*
X153146700Y-125790900D03*
X152511700Y-125790900D03*
X151876700Y-125790900D03*
X155013600Y-125790900D03*
X155610500Y-125790900D03*
X151254400Y-125790900D03*
X150632100Y-125790900D03*
D17*
X155966100Y-93126500D03*
D18*
X156347100Y-93126500D03*
X156982100Y-93126500D03*
X155712100Y-93126500D03*
X155077100Y-93126500D03*
X154442100Y-93126500D03*
X157579000Y-93126500D03*
X158175900Y-93126500D03*
X153819800Y-93126500D03*
X153197500Y-93126500D03*
D17*
X156042300Y-95742700D03*
D18*
X156423300Y-95742700D03*
X157058300Y-95742700D03*
X155788300Y-95742700D03*
X155153300Y-95742700D03*
X154518300Y-95742700D03*
X157655200Y-95742700D03*
X158252100Y-95742700D03*
X153896000Y-95742700D03*
X153273700Y-95742700D03*
D17*
X156016900Y-103642100D03*
D18*
X156397900Y-103642100D03*
X157032900Y-103642100D03*
X155762900Y-103642100D03*
X155127900Y-103642100D03*
X154492900Y-103642100D03*
X157629800Y-103642100D03*
X158226700Y-103642100D03*
X153870600Y-103642100D03*
X153248300Y-103642100D03*
D17*
X155864500Y-111770100D03*
D18*
X156245500Y-111770100D03*
X156880500Y-111770100D03*
X155610500Y-111770100D03*
X154975500Y-111770100D03*
X154340500Y-111770100D03*
X157477400Y-111770100D03*
X158074300Y-111770100D03*
X153718200Y-111770100D03*
X153095900Y-111770100D03*
D17*
X156067700Y-120431500D03*
D18*
X156448700Y-120431500D03*
X157083700Y-120431500D03*
X155813700Y-120431500D03*
X155178700Y-120431500D03*
X154543700Y-120431500D03*
X157680600Y-120431500D03*
X158277500Y-120431500D03*
X153921400Y-120431500D03*
X153299100Y-120431500D03*
D17*
X145087700Y-93309500D03*
D18*
X145468700Y-93309500D03*
X146103700Y-93309500D03*
X144833700Y-93309500D03*
X144198700Y-93309500D03*
X143563700Y-93309500D03*
X146700600Y-93309500D03*
X147297500Y-93309500D03*
X142941400Y-93309500D03*
X142319100Y-93309500D03*
D11*
X180451700Y-106065300D03*
X180451700Y-104165300D03*
X119281300Y-106324500D03*
X119281300Y-104424500D03*
X60274500Y-105644100D03*
X60274500Y-103744100D03*
D12*
X261899300Y-95412500D03*
X263799300Y-95412500D03*
X263773900Y-91729500D03*
X261873900Y-91729500D03*
D19*
X258798900Y-86420900D03*
X260498900Y-86420900D03*
D11*
X262011100Y-83992700D03*
X262011100Y-82092700D03*
X258937700Y-83992700D03*
X258937700Y-82092700D03*
D17*
X212963700Y-79664500D03*
D18*
X213344700Y-79664500D03*
X213979700Y-79664500D03*
X212709700Y-79664500D03*
X212074700Y-79664500D03*
X211439700Y-79664500D03*
X214576600Y-79664500D03*
X215173500Y-79664500D03*
X210817400Y-79664500D03*
X210195100Y-79664500D03*
D17*
X211510300Y-119948900D03*
D18*
X211891300Y-119948900D03*
X212526300Y-119948900D03*
X211256300Y-119948900D03*
X210621300Y-119948900D03*
X209986300Y-119948900D03*
X213123200Y-119948900D03*
X213720100Y-119948900D03*
X209364000Y-119948900D03*
X208741700Y-119948900D03*
D17*
X211397900Y-111846300D03*
D18*
X211778900Y-111846300D03*
X212413900Y-111846300D03*
X211143900Y-111846300D03*
X210508900Y-111846300D03*
X209873900Y-111846300D03*
X213010800Y-111846300D03*
X213607700Y-111846300D03*
X209251600Y-111846300D03*
X208629300Y-111846300D03*
D17*
X205038900Y-79639100D03*
D18*
X205419900Y-79639100D03*
X206054900Y-79639100D03*
X204784900Y-79639100D03*
X204149900Y-79639100D03*
X203514900Y-79639100D03*
X206651800Y-79639100D03*
X207248700Y-79639100D03*
X202892600Y-79639100D03*
X202270300Y-79639100D03*
D17*
X202981500Y-119898100D03*
D18*
X203362500Y-119898100D03*
X203997500Y-119898100D03*
X202727500Y-119898100D03*
X202092500Y-119898100D03*
X201457500Y-119898100D03*
X204594400Y-119898100D03*
X205191300Y-119898100D03*
X200835200Y-119898100D03*
X200212900Y-119898100D03*
D17*
X203057700Y-111846300D03*
D18*
X203438700Y-111846300D03*
X204073700Y-111846300D03*
X202803700Y-111846300D03*
X202168700Y-111846300D03*
X201533700Y-111846300D03*
X204670600Y-111846300D03*
X205267500Y-111846300D03*
X200911400Y-111846300D03*
X200289100Y-111846300D03*
D11*
X257083500Y-93060500D03*
X257083500Y-91160500D03*
D12*
X253060100Y-85303300D03*
X254960100Y-85303300D03*
X254934700Y-82763300D03*
X253034700Y-82763300D03*
X190931700Y-124571700D03*
X192831700Y-124571700D03*
D11*
X197393500Y-81528900D03*
X197393500Y-79628900D03*
D12*
X190880900Y-127452900D03*
X192780900Y-127452900D03*
D17*
X143426900Y-83259900D03*
D18*
X143807900Y-83259900D03*
X144442900Y-83259900D03*
X143172900Y-83259900D03*
X142537900Y-83259900D03*
X141902900Y-83259900D03*
X145039800Y-83259900D03*
X145636700Y-83259900D03*
X141280600Y-83259900D03*
X140658300Y-83259900D03*
D20*
X233041700Y-128965900D03*
X224050100Y-128965900D03*
X224050100Y-126425900D03*
X233041700Y-126425900D03*
D21*
X230958900Y-126425900D03*
X230958900Y-128965900D03*
X226132900Y-126425900D03*
X226132900Y-128965900D03*
D11*
X236738100Y-104089100D03*
X236738100Y-105989100D03*
D17*
X211338100Y-95641100D03*
D18*
X211719100Y-95641100D03*
X212354100Y-95641100D03*
X211084100Y-95641100D03*
X210449100Y-95641100D03*
X209814100Y-95641100D03*
X212951000Y-95641100D03*
X213547900Y-95641100D03*
X209191800Y-95641100D03*
X208569500Y-95641100D03*
D17*
X203057700Y-95666500D03*
D18*
X203438700Y-95666500D03*
X204073700Y-95666500D03*
X202803700Y-95666500D03*
X202168700Y-95666500D03*
X201533700Y-95666500D03*
X204670600Y-95666500D03*
X205267500Y-95666500D03*
X200911400Y-95666500D03*
X200289100Y-95666500D03*
D17*
X211484900Y-117307300D03*
D18*
X211865900Y-117307300D03*
X212500900Y-117307300D03*
X211230900Y-117307300D03*
X210595900Y-117307300D03*
X209960900Y-117307300D03*
X213097800Y-117307300D03*
X213694700Y-117307300D03*
X209338600Y-117307300D03*
X208716300Y-117307300D03*
D17*
X203108500Y-117281900D03*
D18*
X203489500Y-117281900D03*
X204124500Y-117281900D03*
X202854500Y-117281900D03*
X202219500Y-117281900D03*
X201584500Y-117281900D03*
X204721400Y-117281900D03*
X205318300Y-117281900D03*
X200962200Y-117281900D03*
X200339900Y-117281900D03*
D17*
X156042300Y-117307300D03*
D18*
X156423300Y-117307300D03*
X157058300Y-117307300D03*
X155788300Y-117307300D03*
X155153300Y-117307300D03*
X154518300Y-117307300D03*
X157655200Y-117307300D03*
X158252100Y-117307300D03*
X153896000Y-117307300D03*
X153273700Y-117307300D03*
D17*
X145011500Y-117490300D03*
D18*
X145392500Y-117490300D03*
X146027500Y-117490300D03*
X144757500Y-117490300D03*
X144122500Y-117490300D03*
X143487500Y-117490300D03*
X146624400Y-117490300D03*
X147221300Y-117490300D03*
X142865200Y-117490300D03*
X142242900Y-117490300D03*
D17*
X211374300Y-101051300D03*
D18*
X211755300Y-101051300D03*
X212390300Y-101051300D03*
X211120300Y-101051300D03*
X210485300Y-101051300D03*
X209850300Y-101051300D03*
X212987200Y-101051300D03*
X213584100Y-101051300D03*
X209228000Y-101051300D03*
X208605700Y-101051300D03*
D17*
X203006900Y-100975100D03*
D18*
X203387900Y-100975100D03*
X204022900Y-100975100D03*
X202752900Y-100975100D03*
X202117900Y-100975100D03*
X201482900Y-100975100D03*
X204619800Y-100975100D03*
X205216700Y-100975100D03*
X200860600Y-100975100D03*
X200238300Y-100975100D03*
D17*
X156067700Y-100949700D03*
D18*
X156448700Y-100949700D03*
X157083700Y-100949700D03*
X155813700Y-100949700D03*
X155178700Y-100949700D03*
X154543700Y-100949700D03*
X157680600Y-100949700D03*
X158277500Y-100949700D03*
X153921400Y-100949700D03*
X153299100Y-100949700D03*
D17*
X145087700Y-101158100D03*
D18*
X145468700Y-101158100D03*
X146103700Y-101158100D03*
X144833700Y-101158100D03*
X144198700Y-101158100D03*
X143563700Y-101158100D03*
X146700600Y-101158100D03*
X147297500Y-101158100D03*
X142941400Y-101158100D03*
X142319100Y-101158100D03*
D11*
X238719300Y-105989100D03*
X238719300Y-104089100D03*
X240700500Y-105989100D03*
X240700500Y-104089100D03*
X193984300Y-86615500D03*
X193984300Y-88515500D03*
X191351300Y-86648900D03*
X191351300Y-88548900D03*
D12*
X36595300Y-106399900D03*
X34695300Y-106399900D03*
X36537900Y-103472300D03*
X34637900Y-103472300D03*
D11*
X119741100Y-124714900D03*
X119741100Y-126614900D03*
X116019500Y-124722300D03*
X116019500Y-126622300D03*
D17*
X78462700Y-125832900D03*
D18*
X78843700Y-125832900D03*
X79478700Y-125832900D03*
X78208700Y-125832900D03*
X77573700Y-125832900D03*
X76938700Y-125832900D03*
X80075600Y-125832900D03*
X80672500Y-125832900D03*
X76316400Y-125832900D03*
X75694100Y-125832900D03*
D17*
X78444500Y-129966900D03*
D18*
X78825500Y-129966900D03*
X79460500Y-129966900D03*
X78190500Y-129966900D03*
X77555500Y-129966900D03*
X76920500Y-129966900D03*
X80057400Y-129966900D03*
X80654300Y-129966900D03*
X76298200Y-129966900D03*
X75675900Y-129966900D03*
D10*
G36*
X262978908Y-122780601D02*
X262271801Y-123487708D01*
X260645456Y-121861363D01*
X261352563Y-121154256D01*
X262978908Y-122780601D01*
X262978908Y-122780601D01*
G37*
G36*
X260557067Y-120358760D02*
X259849960Y-121065867D01*
X258223615Y-119439522D01*
X258930722Y-118732415D01*
X260557067Y-120358760D01*
X260557067Y-120358760D01*
G37*
D17*
X105812100Y-83378900D03*
D18*
X106193100Y-83378900D03*
X106828100Y-83378900D03*
X105558100Y-83378900D03*
X104923100Y-83378900D03*
X104288100Y-83378900D03*
X107425000Y-83378900D03*
X108021900Y-83378900D03*
X103665800Y-83378900D03*
X103043500Y-83378900D03*
D17*
X105967100Y-80342900D03*
D18*
X106348100Y-80342900D03*
X106983100Y-80342900D03*
X105713100Y-80342900D03*
X105078100Y-80342900D03*
X104443100Y-80342900D03*
X107580000Y-80342900D03*
X108176900Y-80342900D03*
X103820800Y-80342900D03*
X103198500Y-80342900D03*
D17*
X94338100Y-86737900D03*
D18*
X94719100Y-86737900D03*
X95354100Y-86737900D03*
X94084100Y-86737900D03*
X93449100Y-86737900D03*
X92814100Y-86737900D03*
X95951000Y-86737900D03*
X96547900Y-86737900D03*
X92191800Y-86737900D03*
X91569500Y-86737900D03*
D17*
X94371100Y-90044900D03*
D18*
X94752100Y-90044900D03*
X95387100Y-90044900D03*
X94117100Y-90044900D03*
X93482100Y-90044900D03*
X92847100Y-90044900D03*
X95984000Y-90044900D03*
X96580900Y-90044900D03*
X92224800Y-90044900D03*
X91602500Y-90044900D03*
D17*
X105967100Y-86521900D03*
D18*
X106348100Y-86521900D03*
X106983100Y-86521900D03*
X105713100Y-86521900D03*
X105078100Y-86521900D03*
X104443100Y-86521900D03*
X107580000Y-86521900D03*
X108176900Y-86521900D03*
X103820800Y-86521900D03*
X103198500Y-86521900D03*
D17*
X94313100Y-80550900D03*
D18*
X94694100Y-80550900D03*
X95329100Y-80550900D03*
X94059100Y-80550900D03*
X93424100Y-80550900D03*
X92789100Y-80550900D03*
X95926000Y-80550900D03*
X96522900Y-80550900D03*
X92166800Y-80550900D03*
X91544500Y-80550900D03*
D17*
X94363100Y-83584900D03*
D18*
X94744100Y-83584900D03*
X95379100Y-83584900D03*
X94109100Y-83584900D03*
X93474100Y-83584900D03*
X92839100Y-83584900D03*
X95976000Y-83584900D03*
X96572900Y-83584900D03*
X92216800Y-83584900D03*
X91594500Y-83584900D03*
D17*
X105966100Y-89744900D03*
D18*
X106347100Y-89744900D03*
X106982100Y-89744900D03*
X105712100Y-89744900D03*
X105077100Y-89744900D03*
X104442100Y-89744900D03*
X107579000Y-89744900D03*
X108175900Y-89744900D03*
X103819800Y-89744900D03*
X103197500Y-89744900D03*
D17*
X36267100Y-79918900D03*
D18*
X36648100Y-79918900D03*
X37283100Y-79918900D03*
X36013100Y-79918900D03*
X35378100Y-79918900D03*
X34743100Y-79918900D03*
X37880000Y-79918900D03*
X38476900Y-79918900D03*
X34120800Y-79918900D03*
X33498500Y-79918900D03*
D17*
X36453100Y-82863900D03*
D18*
X36834100Y-82863900D03*
X37469100Y-82863900D03*
X36199100Y-82863900D03*
X35564100Y-82863900D03*
X34929100Y-82863900D03*
X38066000Y-82863900D03*
X38662900Y-82863900D03*
X34306800Y-82863900D03*
X33684500Y-82863900D03*
D17*
X36565100Y-91288900D03*
D18*
X36946100Y-91288900D03*
X37581100Y-91288900D03*
X36311100Y-91288900D03*
X35676100Y-91288900D03*
X35041100Y-91288900D03*
X38178000Y-91288900D03*
X38774900Y-91288900D03*
X34418800Y-91288900D03*
X33796500Y-91288900D03*
D17*
X36554100Y-94266900D03*
D18*
X36935100Y-94266900D03*
X37570100Y-94266900D03*
X36300100Y-94266900D03*
X35665100Y-94266900D03*
X35030100Y-94266900D03*
X38167000Y-94266900D03*
X38763900Y-94266900D03*
X34407800Y-94266900D03*
X33785500Y-94266900D03*
D17*
X36532100Y-85706900D03*
D18*
X36913100Y-85706900D03*
X37548100Y-85706900D03*
X36278100Y-85706900D03*
X35643100Y-85706900D03*
X35008100Y-85706900D03*
X38145000Y-85706900D03*
X38741900Y-85706900D03*
X34385800Y-85706900D03*
X33763500Y-85706900D03*
D17*
X36704100Y-99946900D03*
D18*
X37085100Y-99946900D03*
X37720100Y-99946900D03*
X36450100Y-99946900D03*
X35815100Y-99946900D03*
X35180100Y-99946900D03*
X38317000Y-99946900D03*
X38913900Y-99946900D03*
X34557800Y-99946900D03*
X33935500Y-99946900D03*
D17*
X36555100Y-97130900D03*
D18*
X36936100Y-97130900D03*
X37571100Y-97130900D03*
X36301100Y-97130900D03*
X35666100Y-97130900D03*
X35031100Y-97130900D03*
X38168000Y-97130900D03*
X38764900Y-97130900D03*
X34408800Y-97130900D03*
X33786500Y-97130900D03*
D17*
X36569100Y-88491900D03*
D18*
X36950100Y-88491900D03*
X37585100Y-88491900D03*
X36315100Y-88491900D03*
X35680100Y-88491900D03*
X35045100Y-88491900D03*
X38182000Y-88491900D03*
X38778900Y-88491900D03*
X34422800Y-88491900D03*
X33800500Y-88491900D03*
D22*
X40803100Y-125882900D03*
X34553100Y-125882900D03*
D23*
X34582600Y-119081900D03*
X39281600Y-119081900D03*
D24*
X165110100Y-81154900D03*
X168810100Y-81154900D03*
X165142100Y-78879900D03*
X168842100Y-78879900D03*
M02*
