G04 #@! TF.FileFunction,Drawing*
%FSLAX46Y46*%
G04 Gerber Fmt 4.6, Leading zero omitted, Abs format (unit mm)*
G04 Created by KiCad (PCBNEW 4.0.6) date 05/08/17 07:22:45*
%MOMM*%
%LPD*%
G01*
G04 APERTURE LIST*
%ADD10C,0.100000*%
%ADD11C,0.101600*%
%ADD12C,0.127000*%
%ADD13C,0.152400*%
%ADD14C,0.203200*%
G04 APERTURE END LIST*
D10*
D11*
X260664500Y-126476700D02*
X260664500Y-127238700D01*
X259344500Y-126501700D02*
X259344500Y-127238700D01*
D10*
G36*
X259280600Y-125765500D02*
X259280600Y-126515600D01*
X260730700Y-126515600D01*
X260730700Y-125765500D01*
X259280600Y-125765500D01*
G37*
G36*
X259280600Y-127213300D02*
X259280600Y-127963400D01*
X260730700Y-127963400D01*
X260730700Y-127213300D01*
X259280600Y-127213300D01*
G37*
D11*
X263052100Y-126527500D02*
X263052100Y-127289500D01*
X261732100Y-126552500D02*
X261732100Y-127289500D01*
D10*
G36*
X261668200Y-125816300D02*
X261668200Y-126566400D01*
X263118300Y-126566400D01*
X263118300Y-125816300D01*
X261668200Y-125816300D01*
G37*
G36*
X261668200Y-127264100D02*
X261668200Y-128014200D01*
X263118300Y-128014200D01*
X263118300Y-127264100D01*
X261668200Y-127264100D01*
G37*
D11*
X253781500Y-125791300D02*
X254543500Y-125791300D01*
X253806500Y-127111300D02*
X254543500Y-127111300D01*
D10*
G36*
X253070300Y-127175200D02*
X253820400Y-127175200D01*
X253820400Y-125725100D01*
X253070300Y-125725100D01*
X253070300Y-127175200D01*
G37*
G36*
X254518100Y-127175200D02*
X255268200Y-127175200D01*
X255268200Y-125725100D01*
X254518100Y-125725100D01*
X254518100Y-127175200D01*
G37*
D12*
X237740300Y-80888300D02*
X237740300Y-84988300D01*
D11*
X244599400Y-81581200D02*
X244391700Y-78829800D01*
X244184100Y-78570300D02*
G75*
G02X244391700Y-78829800I-86300J-281830D01*
G01*
X243613000Y-78570300D02*
G75*
G02X244184100Y-78570300I285550J-931100D01*
G01*
X243405399Y-78829799D02*
G75*
G02X243613000Y-78570300I293900J-22331D01*
G01*
X243405400Y-78829800D02*
X243145800Y-81581200D01*
X243145800Y-81581200D02*
X243353500Y-81581200D01*
X243353500Y-81581200D02*
X243613000Y-79193200D01*
X243613000Y-79193200D02*
X244132200Y-79193200D01*
X244132200Y-79193200D02*
X244391700Y-81581200D01*
X244391700Y-81581200D02*
X244599400Y-81581200D01*
X242886200Y-78829900D02*
X242678600Y-82879100D01*
X242470899Y-83086701D02*
G75*
G03X242678600Y-82879100I-11894J219601D01*
G01*
X242678600Y-78622200D02*
G75*
G02X242886200Y-78829800I0J-207600D01*
G01*
X242470900Y-78829800D02*
G75*
G02X242678500Y-78622200I207600J0D01*
G01*
X242470900Y-78829800D02*
X242263300Y-82256100D01*
X238681400Y-81581200D02*
X238889100Y-78829800D01*
X239096700Y-78570300D02*
G75*
G03X238889100Y-78829800I86300J-281830D01*
G01*
X239667800Y-78570300D02*
G75*
G03X239096700Y-78570300I-285550J-931100D01*
G01*
X239875401Y-78829799D02*
G75*
G03X239667800Y-78570300I-293900J-22331D01*
G01*
X239875400Y-78829800D02*
X240135000Y-81581200D01*
X240135000Y-81581200D02*
X239927300Y-81581200D01*
X239927300Y-81581200D02*
X239667800Y-79193200D01*
X239667800Y-79193200D02*
X239148600Y-79193200D01*
X239148600Y-79193200D02*
X238889100Y-81581200D01*
X238889100Y-81581200D02*
X238681400Y-81581200D01*
X240394600Y-78829900D02*
X240602200Y-82879100D01*
X240809902Y-83086700D02*
G75*
G02X240602200Y-82879100I11993J219701D01*
G01*
X240809900Y-83086700D02*
X242471000Y-83086700D01*
X240602200Y-78622200D02*
G75*
G03X240394600Y-78829800I0J-207600D01*
G01*
X240809900Y-78829800D02*
G75*
G03X240602300Y-78622200I-207600J0D01*
G01*
X240809900Y-78829800D02*
X241017500Y-82256100D01*
X241017500Y-82256100D02*
X242263500Y-82256100D01*
X237760300Y-86387700D02*
X236610300Y-86387700D01*
X236610300Y-85009100D02*
X237760300Y-85009100D01*
X236590300Y-86028300D02*
G75*
G03X236590300Y-85428300I0J300000D01*
G01*
X236590300Y-86378300D02*
X236590300Y-86028300D01*
X236590300Y-85028300D02*
X236590300Y-85428300D01*
X237760300Y-80847700D02*
X236610300Y-80847700D01*
X236610300Y-79469100D02*
X237760300Y-79469100D01*
X236590300Y-80488300D02*
G75*
G03X236590300Y-79888300I0J300000D01*
G01*
X236590300Y-80838300D02*
X236590300Y-80488300D01*
X236590300Y-79488300D02*
X236590300Y-79888300D01*
X245550300Y-84988900D02*
X246700300Y-84988900D01*
X246700300Y-86367500D02*
X245550300Y-86367500D01*
X246720300Y-85348300D02*
G75*
G03X246720300Y-85948300I0J-300000D01*
G01*
X246720300Y-84998300D02*
X246720300Y-85348300D01*
X246720300Y-86348300D02*
X246720300Y-85948300D01*
X245550300Y-79448900D02*
X246700300Y-79448900D01*
X246700300Y-80827500D02*
X245550300Y-80827500D01*
X246720300Y-79808300D02*
G75*
G03X246720300Y-80408300I0J-300000D01*
G01*
X246720300Y-79458300D02*
X246720300Y-79808300D01*
X246720300Y-80808300D02*
X246720300Y-80408300D01*
D12*
X245540300Y-80838300D02*
X245540300Y-84938300D01*
D11*
X244390300Y-86628300D02*
X244390300Y-85878300D01*
X244390300Y-85878300D02*
X238890300Y-85878300D01*
X238890300Y-85878300D02*
X238890300Y-86628300D01*
X243890300Y-85628300D02*
X243890300Y-84878300D01*
X243890300Y-84878300D02*
X244640300Y-84878300D01*
X244640300Y-84878300D02*
X244640300Y-85628300D01*
X244640300Y-85628300D02*
X243890300Y-85628300D01*
X238640300Y-85628300D02*
X239390300Y-85628300D01*
X239390300Y-85628300D02*
X239390300Y-84878300D01*
X239390300Y-84878300D02*
X238640300Y-84878300D01*
X238640300Y-84878300D02*
X238640300Y-85628300D01*
D12*
X245540300Y-77528300D02*
X245540300Y-79428300D01*
X237740300Y-77528300D02*
X237740300Y-79428300D01*
X245540300Y-86728300D02*
X245540300Y-86378300D01*
X237740300Y-86728300D02*
X237740300Y-86428300D01*
D10*
G36*
X258328100Y-131353500D02*
X258836100Y-131353500D01*
X258836100Y-130845500D01*
X258328100Y-130845500D01*
X258328100Y-131353500D01*
G37*
G36*
X255788100Y-131353500D02*
X256296100Y-131353500D01*
X256296100Y-130845500D01*
X255788100Y-130845500D01*
X255788100Y-131353500D01*
G37*
G36*
X260868100Y-131353500D02*
X261376100Y-131353500D01*
X261376100Y-130845500D01*
X260868100Y-130845500D01*
X260868100Y-131353500D01*
G37*
D11*
X234635500Y-104089900D02*
G75*
G03X235335500Y-104089900I350000J0D01*
G01*
X234635500Y-106089900D02*
G75*
G02X235335500Y-106089900I350000J0D01*
G01*
X234410500Y-104564900D02*
X234410500Y-105614900D01*
X235560500Y-105589900D02*
X235560500Y-104164900D01*
X235538500Y-104239900D02*
G75*
G03X235538500Y-104239900I-103000J0D01*
G01*
D10*
G36*
X234685500Y-104589900D02*
X234360500Y-104589900D01*
X234360500Y-104089900D01*
X234685500Y-104089900D01*
X234685500Y-104589900D01*
G37*
G36*
X235310500Y-104589900D02*
X235160500Y-104589900D01*
X235160500Y-104339900D01*
X235310500Y-104339900D01*
X235310500Y-104589900D01*
G37*
G36*
X234810500Y-104589900D02*
X234660500Y-104589900D01*
X234660500Y-104339900D01*
X234810500Y-104339900D01*
X234810500Y-104589900D01*
G37*
G36*
X235185500Y-104589900D02*
X234785500Y-104589900D01*
X234785500Y-104414900D01*
X235185500Y-104414900D01*
X235185500Y-104589900D01*
G37*
G36*
X234685500Y-106089900D02*
X234360500Y-106089900D01*
X234360500Y-105589900D01*
X234685500Y-105589900D01*
X234685500Y-106089900D01*
G37*
G36*
X235610500Y-106089900D02*
X235285500Y-106089900D01*
X235285500Y-105589900D01*
X235610500Y-105589900D01*
X235610500Y-106089900D01*
G37*
G36*
X234810500Y-105839900D02*
X234660500Y-105839900D01*
X234660500Y-105589900D01*
X234810500Y-105589900D01*
X234810500Y-105839900D01*
G37*
G36*
X235310500Y-105839900D02*
X235160500Y-105839900D01*
X235160500Y-105589900D01*
X235310500Y-105589900D01*
X235310500Y-105839900D01*
G37*
G36*
X235185500Y-105764900D02*
X234785500Y-105764900D01*
X234785500Y-105589900D01*
X235185500Y-105589900D01*
X235185500Y-105764900D01*
G37*
G36*
X235585500Y-104589900D02*
X235285500Y-104589900D01*
X235285500Y-104289900D01*
X235585500Y-104289900D01*
X235585500Y-104589900D01*
G37*
G36*
X235610500Y-104164900D02*
X235385500Y-104164900D01*
X235385500Y-104089900D01*
X235610500Y-104089900D01*
X235610500Y-104164900D01*
G37*
D11*
X176190100Y-104343900D02*
G75*
G03X176890100Y-104343900I350000J0D01*
G01*
X176190100Y-106343900D02*
G75*
G02X176890100Y-106343900I350000J0D01*
G01*
X175965100Y-104818900D02*
X175965100Y-105868900D01*
X177115100Y-105843900D02*
X177115100Y-104418900D01*
X177093100Y-104493900D02*
G75*
G03X177093100Y-104493900I-103000J0D01*
G01*
D10*
G36*
X176240100Y-104843900D02*
X175915100Y-104843900D01*
X175915100Y-104343900D01*
X176240100Y-104343900D01*
X176240100Y-104843900D01*
G37*
G36*
X176865100Y-104843900D02*
X176715100Y-104843900D01*
X176715100Y-104593900D01*
X176865100Y-104593900D01*
X176865100Y-104843900D01*
G37*
G36*
X176365100Y-104843900D02*
X176215100Y-104843900D01*
X176215100Y-104593900D01*
X176365100Y-104593900D01*
X176365100Y-104843900D01*
G37*
G36*
X176740100Y-104843900D02*
X176340100Y-104843900D01*
X176340100Y-104668900D01*
X176740100Y-104668900D01*
X176740100Y-104843900D01*
G37*
G36*
X176240100Y-106343900D02*
X175915100Y-106343900D01*
X175915100Y-105843900D01*
X176240100Y-105843900D01*
X176240100Y-106343900D01*
G37*
G36*
X177165100Y-106343900D02*
X176840100Y-106343900D01*
X176840100Y-105843900D01*
X177165100Y-105843900D01*
X177165100Y-106343900D01*
G37*
G36*
X176365100Y-106093900D02*
X176215100Y-106093900D01*
X176215100Y-105843900D01*
X176365100Y-105843900D01*
X176365100Y-106093900D01*
G37*
G36*
X176865100Y-106093900D02*
X176715100Y-106093900D01*
X176715100Y-105843900D01*
X176865100Y-105843900D01*
X176865100Y-106093900D01*
G37*
G36*
X176740100Y-106018900D02*
X176340100Y-106018900D01*
X176340100Y-105843900D01*
X176740100Y-105843900D01*
X176740100Y-106018900D01*
G37*
G36*
X177140100Y-104843900D02*
X176840100Y-104843900D01*
X176840100Y-104543900D01*
X177140100Y-104543900D01*
X177140100Y-104843900D01*
G37*
G36*
X177165100Y-104418900D02*
X176940100Y-104418900D01*
X176940100Y-104343900D01*
X177165100Y-104343900D01*
X177165100Y-104418900D01*
G37*
D11*
X115045100Y-104272900D02*
G75*
G03X115745100Y-104272900I350000J0D01*
G01*
X115045100Y-106272900D02*
G75*
G02X115745100Y-106272900I350000J0D01*
G01*
X114820100Y-104747900D02*
X114820100Y-105797900D01*
X115970100Y-105772900D02*
X115970100Y-104347900D01*
X115948100Y-104422900D02*
G75*
G03X115948100Y-104422900I-103000J0D01*
G01*
D10*
G36*
X115095100Y-104772900D02*
X114770100Y-104772900D01*
X114770100Y-104272900D01*
X115095100Y-104272900D01*
X115095100Y-104772900D01*
G37*
G36*
X115720100Y-104772900D02*
X115570100Y-104772900D01*
X115570100Y-104522900D01*
X115720100Y-104522900D01*
X115720100Y-104772900D01*
G37*
G36*
X115220100Y-104772900D02*
X115070100Y-104772900D01*
X115070100Y-104522900D01*
X115220100Y-104522900D01*
X115220100Y-104772900D01*
G37*
G36*
X115595100Y-104772900D02*
X115195100Y-104772900D01*
X115195100Y-104597900D01*
X115595100Y-104597900D01*
X115595100Y-104772900D01*
G37*
G36*
X115095100Y-106272900D02*
X114770100Y-106272900D01*
X114770100Y-105772900D01*
X115095100Y-105772900D01*
X115095100Y-106272900D01*
G37*
G36*
X116020100Y-106272900D02*
X115695100Y-106272900D01*
X115695100Y-105772900D01*
X116020100Y-105772900D01*
X116020100Y-106272900D01*
G37*
G36*
X115220100Y-106022900D02*
X115070100Y-106022900D01*
X115070100Y-105772900D01*
X115220100Y-105772900D01*
X115220100Y-106022900D01*
G37*
G36*
X115720100Y-106022900D02*
X115570100Y-106022900D01*
X115570100Y-105772900D01*
X115720100Y-105772900D01*
X115720100Y-106022900D01*
G37*
G36*
X115595100Y-105947900D02*
X115195100Y-105947900D01*
X115195100Y-105772900D01*
X115595100Y-105772900D01*
X115595100Y-105947900D01*
G37*
G36*
X115995100Y-104772900D02*
X115695100Y-104772900D01*
X115695100Y-104472900D01*
X115995100Y-104472900D01*
X115995100Y-104772900D01*
G37*
G36*
X116020100Y-104347900D02*
X115795100Y-104347900D01*
X115795100Y-104272900D01*
X116020100Y-104272900D01*
X116020100Y-104347900D01*
G37*
D11*
X56419300Y-103770300D02*
G75*
G03X57119300Y-103770300I350000J0D01*
G01*
X56419300Y-105770300D02*
G75*
G02X57119300Y-105770300I350000J0D01*
G01*
X56194300Y-104245300D02*
X56194300Y-105295300D01*
X57344300Y-105270300D02*
X57344300Y-103845300D01*
X57322300Y-103920300D02*
G75*
G03X57322300Y-103920300I-103000J0D01*
G01*
D10*
G36*
X56469300Y-104270300D02*
X56144300Y-104270300D01*
X56144300Y-103770300D01*
X56469300Y-103770300D01*
X56469300Y-104270300D01*
G37*
G36*
X57094300Y-104270300D02*
X56944300Y-104270300D01*
X56944300Y-104020300D01*
X57094300Y-104020300D01*
X57094300Y-104270300D01*
G37*
G36*
X56594300Y-104270300D02*
X56444300Y-104270300D01*
X56444300Y-104020300D01*
X56594300Y-104020300D01*
X56594300Y-104270300D01*
G37*
G36*
X56969300Y-104270300D02*
X56569300Y-104270300D01*
X56569300Y-104095300D01*
X56969300Y-104095300D01*
X56969300Y-104270300D01*
G37*
G36*
X56469300Y-105770300D02*
X56144300Y-105770300D01*
X56144300Y-105270300D01*
X56469300Y-105270300D01*
X56469300Y-105770300D01*
G37*
G36*
X57394300Y-105770300D02*
X57069300Y-105770300D01*
X57069300Y-105270300D01*
X57394300Y-105270300D01*
X57394300Y-105770300D01*
G37*
G36*
X56594300Y-105520300D02*
X56444300Y-105520300D01*
X56444300Y-105270300D01*
X56594300Y-105270300D01*
X56594300Y-105520300D01*
G37*
G36*
X57094300Y-105520300D02*
X56944300Y-105520300D01*
X56944300Y-105270300D01*
X57094300Y-105270300D01*
X57094300Y-105520300D01*
G37*
G36*
X56969300Y-105445300D02*
X56569300Y-105445300D01*
X56569300Y-105270300D01*
X56969300Y-105270300D01*
X56969300Y-105445300D01*
G37*
G36*
X57369300Y-104270300D02*
X57069300Y-104270300D01*
X57069300Y-103970300D01*
X57369300Y-103970300D01*
X57369300Y-104270300D01*
G37*
G36*
X57394300Y-103845300D02*
X57169300Y-103845300D01*
X57169300Y-103770300D01*
X57394300Y-103770300D01*
X57394300Y-103845300D01*
G37*
D11*
X191211900Y-80076500D02*
G75*
G02X191211900Y-80776500I0J-350000D01*
G01*
X193211900Y-80076500D02*
G75*
G03X193211900Y-80776500I0J-350000D01*
G01*
X191686900Y-79851500D02*
X192736900Y-79851500D01*
X192711900Y-81001500D02*
X191286900Y-81001500D01*
X191464900Y-80876500D02*
G75*
G03X191464900Y-80876500I-103000J0D01*
G01*
D10*
G36*
X191711900Y-80126500D02*
X191711900Y-79801500D01*
X191211900Y-79801500D01*
X191211900Y-80126500D01*
X191711900Y-80126500D01*
G37*
G36*
X191711900Y-80751500D02*
X191711900Y-80601500D01*
X191461900Y-80601500D01*
X191461900Y-80751500D01*
X191711900Y-80751500D01*
G37*
G36*
X191711900Y-80251500D02*
X191711900Y-80101500D01*
X191461900Y-80101500D01*
X191461900Y-80251500D01*
X191711900Y-80251500D01*
G37*
G36*
X191711900Y-80626500D02*
X191711900Y-80226500D01*
X191536900Y-80226500D01*
X191536900Y-80626500D01*
X191711900Y-80626500D01*
G37*
G36*
X193211900Y-80126500D02*
X193211900Y-79801500D01*
X192711900Y-79801500D01*
X192711900Y-80126500D01*
X193211900Y-80126500D01*
G37*
G36*
X193211900Y-81051500D02*
X193211900Y-80726500D01*
X192711900Y-80726500D01*
X192711900Y-81051500D01*
X193211900Y-81051500D01*
G37*
G36*
X192961900Y-80251500D02*
X192961900Y-80101500D01*
X192711900Y-80101500D01*
X192711900Y-80251500D01*
X192961900Y-80251500D01*
G37*
G36*
X192961900Y-80751500D02*
X192961900Y-80601500D01*
X192711900Y-80601500D01*
X192711900Y-80751500D01*
X192961900Y-80751500D01*
G37*
G36*
X192886900Y-80626500D02*
X192886900Y-80226500D01*
X192711900Y-80226500D01*
X192711900Y-80626500D01*
X192886900Y-80626500D01*
G37*
G36*
X191711900Y-81026500D02*
X191711900Y-80726500D01*
X191411900Y-80726500D01*
X191411900Y-81026500D01*
X191711900Y-81026500D01*
G37*
G36*
X191286900Y-81051500D02*
X191286900Y-80826500D01*
X191211900Y-80826500D01*
X191211900Y-81051500D01*
X191286900Y-81051500D01*
G37*
D13*
X253574700Y-79410500D02*
X254394700Y-79410500D01*
X253574700Y-80680500D02*
X254394700Y-80680500D01*
D10*
G36*
X254391100Y-80744000D02*
X255041100Y-80744000D01*
X255041100Y-79344000D01*
X254391100Y-79344000D01*
X254391100Y-80744000D01*
G37*
G36*
X252917900Y-80744000D02*
X253567900Y-80744000D01*
X253567900Y-79344000D01*
X252917900Y-79344000D01*
X252917900Y-80744000D01*
G37*
D13*
X242462100Y-125184700D02*
X242462100Y-126004700D01*
X241192100Y-125184700D02*
X241192100Y-126004700D01*
D10*
G36*
X241128600Y-126001100D02*
X241128600Y-126651100D01*
X242528600Y-126651100D01*
X242528600Y-126001100D01*
X241128600Y-126001100D01*
G37*
G36*
X241128600Y-124527900D02*
X241128600Y-125177900D01*
X242528600Y-125177900D01*
X242528600Y-124527900D01*
X241128600Y-124527900D01*
G37*
D13*
X253727100Y-127619700D02*
X254547100Y-127619700D01*
X253727100Y-128889700D02*
X254547100Y-128889700D01*
D10*
G36*
X254543500Y-128953200D02*
X255193500Y-128953200D01*
X255193500Y-127553200D01*
X254543500Y-127553200D01*
X254543500Y-128953200D01*
G37*
G36*
X253070300Y-128953200D02*
X253720300Y-128953200D01*
X253720300Y-127553200D01*
X253070300Y-127553200D01*
X253070300Y-128953200D01*
G37*
D13*
X256854900Y-127242300D02*
X256854900Y-126422300D01*
X258124900Y-127242300D02*
X258124900Y-126422300D01*
D10*
G36*
X258188400Y-126425900D02*
X258188400Y-125775900D01*
X256788400Y-125775900D01*
X256788400Y-126425900D01*
X258188400Y-126425900D01*
G37*
G36*
X258188400Y-127899100D02*
X258188400Y-127249100D01*
X256788400Y-127249100D01*
X256788400Y-127899100D01*
X258188400Y-127899100D01*
G37*
D13*
X235442700Y-104629100D02*
X235442700Y-105449100D01*
X234172700Y-104629100D02*
X234172700Y-105449100D01*
D10*
G36*
X234109200Y-105445500D02*
X234109200Y-106095500D01*
X235509200Y-106095500D01*
X235509200Y-105445500D01*
X234109200Y-105445500D01*
G37*
G36*
X234109200Y-103972300D02*
X234109200Y-104622300D01*
X235509200Y-104622300D01*
X235509200Y-103972300D01*
X234109200Y-103972300D01*
G37*
D13*
X231124700Y-85205300D02*
X231124700Y-84385300D01*
X232394700Y-85205300D02*
X232394700Y-84385300D01*
D10*
G36*
X232458200Y-84388900D02*
X232458200Y-83738900D01*
X231058200Y-83738900D01*
X231058200Y-84388900D01*
X232458200Y-84388900D01*
G37*
G36*
X232458200Y-85862100D02*
X232458200Y-85212100D01*
X231058200Y-85212100D01*
X231058200Y-85862100D01*
X232458200Y-85862100D01*
G37*
D13*
X177175100Y-104933900D02*
X177175100Y-105753900D01*
X175905100Y-104933900D02*
X175905100Y-105753900D01*
D10*
G36*
X175841600Y-105750300D02*
X175841600Y-106400300D01*
X177241600Y-106400300D01*
X177241600Y-105750300D01*
X175841600Y-105750300D01*
G37*
G36*
X175841600Y-104277100D02*
X175841600Y-104927100D01*
X177241600Y-104927100D01*
X177241600Y-104277100D01*
X175841600Y-104277100D01*
G37*
D13*
X116106300Y-104989900D02*
X116106300Y-105809900D01*
X114836300Y-104989900D02*
X114836300Y-105809900D01*
D10*
G36*
X114772800Y-105806300D02*
X114772800Y-106456300D01*
X116172800Y-106456300D01*
X116172800Y-105806300D01*
X114772800Y-105806300D01*
G37*
G36*
X114772800Y-104333100D02*
X114772800Y-104983100D01*
X116172800Y-104983100D01*
X116172800Y-104333100D01*
X114772800Y-104333100D01*
G37*
D13*
X57277300Y-104360300D02*
X57277300Y-105180300D01*
X56007300Y-104360300D02*
X56007300Y-105180300D01*
D10*
G36*
X55943800Y-105176700D02*
X55943800Y-105826700D01*
X57343800Y-105826700D01*
X57343800Y-105176700D01*
X55943800Y-105176700D01*
G37*
G36*
X55943800Y-103703500D02*
X55943800Y-104353500D01*
X57343800Y-104353500D01*
X57343800Y-103703500D01*
X55943800Y-103703500D01*
G37*
D13*
X191706100Y-82896700D02*
X191706100Y-83716700D01*
X190436100Y-82896700D02*
X190436100Y-83716700D01*
D10*
G36*
X190372600Y-83713100D02*
X190372600Y-84363100D01*
X191772600Y-84363100D01*
X191772600Y-83713100D01*
X190372600Y-83713100D01*
G37*
G36*
X190372600Y-82239900D02*
X190372600Y-82889900D01*
X191772600Y-82889900D01*
X191772600Y-82239900D01*
X190372600Y-82239900D01*
G37*
D13*
X233791700Y-85179900D02*
X233791700Y-84359900D01*
X235061700Y-85179900D02*
X235061700Y-84359900D01*
D10*
G36*
X235125200Y-84363500D02*
X235125200Y-83713500D01*
X233725200Y-83713500D01*
X233725200Y-84363500D01*
X235125200Y-84363500D01*
G37*
G36*
X235125200Y-85836700D02*
X235125200Y-85186700D01*
X233725200Y-85186700D01*
X233725200Y-85836700D01*
X235125200Y-85836700D01*
G37*
G36*
X245450300Y-126298900D02*
X244942300Y-126298900D01*
X244942300Y-127441900D01*
X245450300Y-127441900D01*
X245450300Y-126298900D01*
G37*
G36*
X249260300Y-121244300D02*
X248752300Y-121244300D01*
X248752300Y-122387300D01*
X249260300Y-122387300D01*
X249260300Y-121244300D01*
G37*
G36*
X247990300Y-121244300D02*
X247482300Y-121244300D01*
X247482300Y-122387300D01*
X247990300Y-122387300D01*
X247990300Y-121244300D01*
G37*
G36*
X246720300Y-121269700D02*
X246212300Y-121269700D01*
X246212300Y-122412700D01*
X246720300Y-122412700D01*
X246720300Y-121269700D01*
G37*
G36*
X245450300Y-121244300D02*
X244942300Y-121244300D01*
X244942300Y-122387300D01*
X245450300Y-122387300D01*
X245450300Y-121244300D01*
G37*
G36*
X246720300Y-126298900D02*
X246212300Y-126298900D01*
X246212300Y-127441900D01*
X246720300Y-127441900D01*
X246720300Y-126298900D01*
G37*
G36*
X247990300Y-126298900D02*
X247482300Y-126298900D01*
X247482300Y-127441900D01*
X247990300Y-127441900D01*
X247990300Y-126298900D01*
G37*
G36*
X249260300Y-126298900D02*
X248752300Y-126298900D01*
X248752300Y-127441900D01*
X249260300Y-127441900D01*
X249260300Y-126298900D01*
G37*
D13*
X179816700Y-105525300D02*
X179816700Y-104705300D01*
X181086700Y-105525300D02*
X181086700Y-104705300D01*
D10*
G36*
X181150200Y-104708900D02*
X181150200Y-104058900D01*
X179750200Y-104058900D01*
X179750200Y-104708900D01*
X181150200Y-104708900D01*
G37*
G36*
X181150200Y-106182100D02*
X181150200Y-105532100D01*
X179750200Y-105532100D01*
X179750200Y-106182100D01*
X181150200Y-106182100D01*
G37*
D13*
X118646300Y-105784500D02*
X118646300Y-104964500D01*
X119916300Y-105784500D02*
X119916300Y-104964500D01*
D10*
G36*
X119979800Y-104968100D02*
X119979800Y-104318100D01*
X118579800Y-104318100D01*
X118579800Y-104968100D01*
X119979800Y-104968100D01*
G37*
G36*
X119979800Y-106441300D02*
X119979800Y-105791300D01*
X118579800Y-105791300D01*
X118579800Y-106441300D01*
X119979800Y-106441300D01*
G37*
D13*
X59639500Y-105104100D02*
X59639500Y-104284100D01*
X60909500Y-105104100D02*
X60909500Y-104284100D01*
D10*
G36*
X60973000Y-104287700D02*
X60973000Y-103637700D01*
X59573000Y-103637700D01*
X59573000Y-104287700D01*
X60973000Y-104287700D01*
G37*
G36*
X60973000Y-105760900D02*
X60973000Y-105110900D01*
X59573000Y-105110900D01*
X59573000Y-105760900D01*
X60973000Y-105760900D01*
G37*
D13*
X262439300Y-94777500D02*
X263259300Y-94777500D01*
X262439300Y-96047500D02*
X263259300Y-96047500D01*
D10*
G36*
X263255700Y-96111000D02*
X263905700Y-96111000D01*
X263905700Y-94711000D01*
X263255700Y-94711000D01*
X263255700Y-96111000D01*
G37*
G36*
X261782500Y-96111000D02*
X262432500Y-96111000D01*
X262432500Y-94711000D01*
X261782500Y-94711000D01*
X261782500Y-96111000D01*
G37*
D13*
X263233900Y-92364500D02*
X262413900Y-92364500D01*
X263233900Y-91094500D02*
X262413900Y-91094500D01*
D10*
G36*
X262417500Y-91031000D02*
X261767500Y-91031000D01*
X261767500Y-92431000D01*
X262417500Y-92431000D01*
X262417500Y-91031000D01*
G37*
G36*
X263890700Y-91031000D02*
X263240700Y-91031000D01*
X263240700Y-92431000D01*
X263890700Y-92431000D01*
X263890700Y-91031000D01*
G37*
D11*
X259292900Y-85988900D02*
X260004900Y-85988900D01*
X259292900Y-86839900D02*
X260004900Y-86839900D01*
D10*
G36*
X258810700Y-86890800D02*
X259310800Y-86890800D01*
X259310800Y-85940800D01*
X258810700Y-85940800D01*
X258810700Y-86890800D01*
G37*
G36*
X259979100Y-86890800D02*
X260479200Y-86890800D01*
X260479200Y-85940800D01*
X259979100Y-85940800D01*
X259979100Y-86890800D01*
G37*
D11*
X261351100Y-83423700D02*
X261351100Y-82661700D01*
X262671100Y-83398700D02*
X262671100Y-82661700D01*
D10*
G36*
X262735000Y-84134900D02*
X262735000Y-83384800D01*
X261284900Y-83384800D01*
X261284900Y-84134900D01*
X262735000Y-84134900D01*
G37*
G36*
X262735000Y-82687100D02*
X262735000Y-81937000D01*
X261284900Y-81937000D01*
X261284900Y-82687100D01*
X262735000Y-82687100D01*
G37*
D11*
X258277700Y-83423700D02*
X258277700Y-82661700D01*
X259597700Y-83398700D02*
X259597700Y-82661700D01*
D10*
G36*
X259661600Y-84134900D02*
X259661600Y-83384800D01*
X258211500Y-83384800D01*
X258211500Y-84134900D01*
X259661600Y-84134900D01*
G37*
G36*
X259661600Y-82687100D02*
X259661600Y-81937000D01*
X258211500Y-81937000D01*
X258211500Y-82687100D01*
X259661600Y-82687100D01*
G37*
D11*
X256423500Y-92491500D02*
X256423500Y-91729500D01*
X257743500Y-92466500D02*
X257743500Y-91729500D01*
D10*
G36*
X257807400Y-93202700D02*
X257807400Y-92452600D01*
X256357300Y-92452600D01*
X256357300Y-93202700D01*
X257807400Y-93202700D01*
G37*
G36*
X257807400Y-91754900D02*
X257807400Y-91004800D01*
X256357300Y-91004800D01*
X256357300Y-91754900D01*
X257807400Y-91754900D01*
G37*
D13*
X253600100Y-84668300D02*
X254420100Y-84668300D01*
X253600100Y-85938300D02*
X254420100Y-85938300D01*
D10*
G36*
X254416500Y-86001800D02*
X255066500Y-86001800D01*
X255066500Y-84601800D01*
X254416500Y-84601800D01*
X254416500Y-86001800D01*
G37*
G36*
X252943300Y-86001800D02*
X253593300Y-86001800D01*
X253593300Y-84601800D01*
X252943300Y-84601800D01*
X252943300Y-86001800D01*
G37*
D11*
X254365700Y-83423300D02*
X253603700Y-83423300D01*
X254340700Y-82103300D02*
X253603700Y-82103300D01*
D10*
G36*
X255076900Y-82039400D02*
X254326800Y-82039400D01*
X254326800Y-83489500D01*
X255076900Y-83489500D01*
X255076900Y-82039400D01*
G37*
G36*
X253629100Y-82039400D02*
X252879000Y-82039400D01*
X252879000Y-83489500D01*
X253629100Y-83489500D01*
X253629100Y-82039400D01*
G37*
D13*
X191471700Y-123936700D02*
X192291700Y-123936700D01*
X191471700Y-125206700D02*
X192291700Y-125206700D01*
D10*
G36*
X192288100Y-125270200D02*
X192938100Y-125270200D01*
X192938100Y-123870200D01*
X192288100Y-123870200D01*
X192288100Y-125270200D01*
G37*
G36*
X190814900Y-125270200D02*
X191464900Y-125270200D01*
X191464900Y-123870200D01*
X190814900Y-123870200D01*
X190814900Y-125270200D01*
G37*
D13*
X196758500Y-80988900D02*
X196758500Y-80168900D01*
X198028500Y-80988900D02*
X198028500Y-80168900D01*
D10*
G36*
X198092000Y-80172500D02*
X198092000Y-79522500D01*
X196692000Y-79522500D01*
X196692000Y-80172500D01*
X198092000Y-80172500D01*
G37*
G36*
X198092000Y-81645700D02*
X198092000Y-80995700D01*
X196692000Y-80995700D01*
X196692000Y-81645700D01*
X198092000Y-81645700D01*
G37*
D13*
X191420900Y-126817900D02*
X192240900Y-126817900D01*
X191420900Y-128087900D02*
X192240900Y-128087900D01*
D10*
G36*
X192237300Y-128151400D02*
X192887300Y-128151400D01*
X192887300Y-126751400D01*
X192237300Y-126751400D01*
X192237300Y-128151400D01*
G37*
G36*
X190764100Y-128151400D02*
X191414100Y-128151400D01*
X191414100Y-126751400D01*
X190764100Y-126751400D01*
X190764100Y-128151400D01*
G37*
G36*
X224431100Y-125689300D02*
X224431100Y-127187900D01*
X225345500Y-127187900D01*
X225345500Y-125689300D01*
X224431100Y-125689300D01*
G37*
G36*
X223364300Y-126121100D02*
X223364300Y-126730700D01*
X224431100Y-126730700D01*
X224431100Y-126121100D01*
X223364300Y-126121100D01*
G37*
G36*
X224431100Y-128229300D02*
X224431100Y-129727900D01*
X225345500Y-129727900D01*
X225345500Y-128229300D01*
X224431100Y-128229300D01*
G37*
G36*
X223364300Y-128661100D02*
X223364300Y-129270700D01*
X224431100Y-129270700D01*
X224431100Y-128661100D01*
X223364300Y-128661100D01*
G37*
G36*
X231746300Y-125663900D02*
X231746300Y-127162500D01*
X232660700Y-127162500D01*
X232660700Y-125663900D01*
X231746300Y-125663900D01*
G37*
G36*
X232660700Y-126121100D02*
X232660700Y-126730700D01*
X233727500Y-126730700D01*
X233727500Y-126121100D01*
X232660700Y-126121100D01*
G37*
G36*
X231746300Y-128203900D02*
X231746300Y-129702500D01*
X232660700Y-129702500D01*
X232660700Y-128203900D01*
X231746300Y-128203900D01*
G37*
G36*
X232660700Y-128661100D02*
X232660700Y-129270700D01*
X233727500Y-129270700D01*
X233727500Y-128661100D01*
X232660700Y-128661100D01*
G37*
D12*
X237023700Y-103140300D02*
X240973700Y-103140300D01*
X240973700Y-103140300D02*
X240973700Y-107090300D01*
X240973700Y-107090300D02*
X237023700Y-107090300D01*
X237023700Y-107090300D02*
X237023700Y-103140300D01*
X178451300Y-103089500D02*
X182401300Y-103089500D01*
X182401300Y-103089500D02*
X182401300Y-107039500D01*
X182401300Y-107039500D02*
X178451300Y-107039500D01*
X178451300Y-107039500D02*
X178451300Y-103089500D01*
X117280900Y-103399500D02*
X121230900Y-103399500D01*
X121230900Y-103399500D02*
X121230900Y-107349500D01*
X121230900Y-107349500D02*
X117280900Y-107349500D01*
X117280900Y-107349500D02*
X117280900Y-103399500D01*
X58324900Y-102820700D02*
X62274900Y-102820700D01*
X62274900Y-102820700D02*
X62274900Y-106770700D01*
X62274900Y-106770700D02*
X58324900Y-106770700D01*
X58324900Y-106770700D02*
X58324900Y-102820700D01*
D13*
X237373100Y-104629100D02*
X237373100Y-105449100D01*
X236103100Y-104629100D02*
X236103100Y-105449100D01*
D10*
G36*
X236039600Y-105445500D02*
X236039600Y-106095500D01*
X237439600Y-106095500D01*
X237439600Y-105445500D01*
X236039600Y-105445500D01*
G37*
G36*
X236039600Y-103972300D02*
X236039600Y-104622300D01*
X237439600Y-104622300D01*
X237439600Y-103972300D01*
X236039600Y-103972300D01*
G37*
D13*
X238084300Y-105449100D02*
X238084300Y-104629100D01*
X239354300Y-105449100D02*
X239354300Y-104629100D01*
D10*
G36*
X239417800Y-104632700D02*
X239417800Y-103982700D01*
X238017800Y-103982700D01*
X238017800Y-104632700D01*
X239417800Y-104632700D01*
G37*
G36*
X239417800Y-106105900D02*
X239417800Y-105455900D01*
X238017800Y-105455900D01*
X238017800Y-106105900D01*
X239417800Y-106105900D01*
G37*
D13*
X240065500Y-105449100D02*
X240065500Y-104629100D01*
X241335500Y-105449100D02*
X241335500Y-104629100D01*
D10*
G36*
X241399000Y-104632700D02*
X241399000Y-103982700D01*
X239999000Y-103982700D01*
X239999000Y-104632700D01*
X241399000Y-104632700D01*
G37*
G36*
X241399000Y-106105900D02*
X241399000Y-105455900D01*
X239999000Y-105455900D01*
X239999000Y-106105900D01*
X241399000Y-106105900D01*
G37*
D13*
X194619300Y-87155500D02*
X194619300Y-87975500D01*
X193349300Y-87155500D02*
X193349300Y-87975500D01*
D10*
G36*
X193285800Y-87971900D02*
X193285800Y-88621900D01*
X194685800Y-88621900D01*
X194685800Y-87971900D01*
X193285800Y-87971900D01*
G37*
G36*
X193285800Y-86498700D02*
X193285800Y-87148700D01*
X194685800Y-87148700D01*
X194685800Y-86498700D01*
X193285800Y-86498700D01*
G37*
D13*
X191986300Y-87188900D02*
X191986300Y-88008900D01*
X190716300Y-87188900D02*
X190716300Y-88008900D01*
D10*
G36*
X190652800Y-88005300D02*
X190652800Y-88655300D01*
X192052800Y-88655300D01*
X192052800Y-88005300D01*
X190652800Y-88005300D01*
G37*
G36*
X190652800Y-86532100D02*
X190652800Y-87182100D01*
X192052800Y-87182100D01*
X192052800Y-86532100D01*
X190652800Y-86532100D01*
G37*
D13*
X36055300Y-107034900D02*
X35235300Y-107034900D01*
X36055300Y-105764900D02*
X35235300Y-105764900D01*
D10*
G36*
X35238900Y-105701400D02*
X34588900Y-105701400D01*
X34588900Y-107101400D01*
X35238900Y-107101400D01*
X35238900Y-105701400D01*
G37*
G36*
X36712100Y-105701400D02*
X36062100Y-105701400D01*
X36062100Y-107101400D01*
X36712100Y-107101400D01*
X36712100Y-105701400D01*
G37*
D13*
X35997900Y-104107300D02*
X35177900Y-104107300D01*
X35997900Y-102837300D02*
X35177900Y-102837300D01*
D10*
G36*
X35181500Y-102773800D02*
X34531500Y-102773800D01*
X34531500Y-104173800D01*
X35181500Y-104173800D01*
X35181500Y-102773800D01*
G37*
G36*
X36654700Y-102773800D02*
X36004700Y-102773800D01*
X36004700Y-104173800D01*
X36654700Y-104173800D01*
X36654700Y-102773800D01*
G37*
D13*
X120376100Y-125254900D02*
X120376100Y-126074900D01*
X119106100Y-125254900D02*
X119106100Y-126074900D01*
D10*
G36*
X119042600Y-126071300D02*
X119042600Y-126721300D01*
X120442600Y-126721300D01*
X120442600Y-126071300D01*
X119042600Y-126071300D01*
G37*
G36*
X119042600Y-124598100D02*
X119042600Y-125248100D01*
X120442600Y-125248100D01*
X120442600Y-124598100D01*
X119042600Y-124598100D01*
G37*
D13*
X116654500Y-125262300D02*
X116654500Y-126082300D01*
X115384500Y-125262300D02*
X115384500Y-126082300D01*
D10*
G36*
X115321000Y-126078700D02*
X115321000Y-126728700D01*
X116721000Y-126728700D01*
X116721000Y-126078700D01*
X115321000Y-126078700D01*
G37*
G36*
X115321000Y-124605500D02*
X115321000Y-125255500D01*
X116721000Y-125255500D01*
X116721000Y-124605500D01*
X115321000Y-124605500D01*
G37*
D11*
X260610100Y-124795855D02*
X257498830Y-121684585D01*
X257498830Y-121684585D02*
X257498830Y-120553215D01*
X257498830Y-120553215D02*
X260044415Y-118007630D01*
X260044415Y-118007630D02*
X261175785Y-118007630D01*
X261175785Y-118007630D02*
X264287055Y-121118900D01*
X264287055Y-121118900D02*
X260610100Y-124795855D01*
X263060200Y-121118900D02*
G75*
G03X263060200Y-121118900I-2450100J0D01*
G01*
D10*
G36*
X260380290Y-123540741D02*
X263031941Y-120889090D01*
X260380290Y-123540741D01*
G37*
D11*
X41778100Y-129982900D02*
X34378100Y-129982900D01*
X34378100Y-129982900D02*
X33578100Y-129182900D01*
X33578100Y-129182900D02*
X33578100Y-122582900D01*
X33578100Y-122582900D02*
X34378100Y-121782900D01*
X34378100Y-121782900D02*
X41778100Y-121782900D01*
X41778100Y-121782900D02*
X41778100Y-129982900D01*
X41628100Y-125882900D02*
G75*
G03X41628100Y-125882900I-3950000J0D01*
G01*
D10*
G36*
X40728100Y-128357900D02*
X40728100Y-123407900D01*
X40728100Y-128357900D01*
G37*
D14*
X34782100Y-117781900D02*
X39082100Y-117781900D01*
X39082100Y-117781900D02*
X39082100Y-120381900D01*
X39082100Y-120381900D02*
X34782100Y-120381900D01*
X34782100Y-120381900D02*
X34782100Y-117781900D01*
D10*
G36*
X34107100Y-120181900D02*
X34757100Y-120181900D01*
X34757100Y-117981900D01*
X34107100Y-117981900D01*
X34107100Y-120181900D01*
G37*
G36*
X39107100Y-120181900D02*
X39757100Y-120181900D01*
X39757100Y-117981900D01*
X39107100Y-117981900D01*
X39107100Y-120181900D01*
G37*
G36*
X35182100Y-120306900D02*
X35857100Y-120306900D01*
X35857100Y-117856900D01*
X35182100Y-117856900D01*
X35182100Y-120306900D01*
G37*
D13*
X165960100Y-80454900D02*
X167960100Y-80454900D01*
X167960100Y-80454900D02*
X167960100Y-81854900D01*
X167960100Y-81854900D02*
X165960100Y-81854900D01*
X165960100Y-81854900D02*
X165960100Y-80454900D01*
X166460100Y-81154900D02*
X167060100Y-80754900D01*
X167060100Y-80754900D02*
X167060100Y-81554900D01*
X167060100Y-81554900D02*
X166460100Y-81154900D01*
D10*
G36*
X166260100Y-81854900D02*
X166460100Y-81854900D01*
X166460100Y-80454900D01*
X166260100Y-80454900D01*
X166260100Y-81854900D01*
G37*
D13*
X165992100Y-78179900D02*
X167992100Y-78179900D01*
X167992100Y-78179900D02*
X167992100Y-79579900D01*
X167992100Y-79579900D02*
X165992100Y-79579900D01*
X165992100Y-79579900D02*
X165992100Y-78179900D01*
X166492100Y-78879900D02*
X167092100Y-78479900D01*
X167092100Y-78479900D02*
X167092100Y-79279900D01*
X167092100Y-79279900D02*
X166492100Y-78879900D01*
D10*
G36*
X166292100Y-79579900D02*
X166492100Y-79579900D01*
X166492100Y-78179900D01*
X166292100Y-78179900D01*
X166292100Y-79579900D01*
G37*
M02*
