M48
;DRILL file {KiCad 4.0.6} date 05/08/17 07:22:50
;FORMAT={-:-/ absolute / inch / decimal}
FMAT,2
INCH,TZ
T1C0.020
T2C0.024
T3C0.039
T4C0.040
T5C0.059
T6C0.079
%
G90
G05
M72
T1
X1.3634Y-4.2563
X1.4385Y-4.0095
X1.6089Y-3.9499
X4.8749Y-3.9986
X5.072Y-4.1298
X5.1393Y-4.0446
X5.1957Y-4.2911
X5.3178Y-4.4973
X5.3219Y-4.0417
X5.3219Y-4.1281
X5.465Y-4.6375
X9.1206Y-4.2394
X9.1379Y-4.0272
X9.1624Y-4.173
X9.1983Y-4.2394
X9.548Y-4.1885
X9.895Y-4.2867
X10.0521Y-4.387
T2
X1.5961Y-3.5926
X1.6098Y-3.708
X1.9548Y-4.6907
X2.15Y-4.0868
X2.2342Y-4.2622
X2.345Y-3.9858
X2.3698Y-4.6135
X2.5334Y-4.1598
X2.5421Y-4.7664
X2.7938Y-3.987
X2.9352Y-3.7781
X3.7141Y-3.4149
X4.2038Y-4.9415
X4.4087Y-4.5269
X4.4661Y-4.1126
X4.6651Y-3.9816
X4.7521Y-4.2873
X4.8143Y-4.1845
X4.8258Y-4.3999
X5.1929Y-4.9578
X5.2198Y-3.4237
X5.24Y-3.2824
X5.34Y-3.8369
X5.4484Y-5.0562
X5.4553Y-4.1959
X5.5247Y-3.801
X5.5265Y-3.4687
X5.6487Y-3.425
X6.1434Y-3.5564
X6.2085Y-4.8142
X6.215Y-5.1484
X6.3591Y-3.1841
X6.5993Y-4.877
X6.6234Y-3.5463
X6.8714Y-4.0114
X6.8744Y-4.1074
X7.074Y-3.9724
X7.1644Y-4.2774
X7.2405Y-4.1755
X7.3031Y-3.7536
X7.3558Y-3.6031
X7.5661Y-3.9365
X7.6371Y-3.7882
X7.6868Y-3.2098
X7.7504Y-4.0874
X7.7621Y-3.407
X7.8282Y-4.6656
X7.8384Y-4.4034
X7.8909Y-4.8159
X7.9244Y-5.1246
X8.0019Y-3.3604
X8.4239Y-4.8551
X8.462Y-4.0429
X8.4653Y-4.7816
X8.4669Y-4.2428
X8.4679Y-4.3765
X8.4978Y-3.5516
X8.5221Y-4.7661
X8.5224Y-4.0098
X8.5592Y-5.0353
X8.6456Y-4.2978
X8.7955Y-3.7638
X8.8336Y-3.2935
X8.9224Y-3.2352
X8.9763Y-3.7651
X8.978Y-3.2962
X9.0184Y-4.0343
X9.045Y-3.4565
X9.1234Y-3.2094
X9.1724Y-4.0984
X9.2334Y-3.1504
X9.2514Y-4.2424
X9.3254Y-3.9514
X9.4212Y-3.9524
X9.4264Y-3.2734
X9.4269Y-4.9267
X9.5474Y-4.0694
X9.5929Y-3.9581
X9.5994Y-3.2734
X9.7584Y-4.1974
X9.7823Y-3.1153
X9.7833Y-3.8103
X9.8059Y-3.4565
X9.9041Y-4.9802
X10.0065Y-3.697
X10.1315Y-4.7189
X10.1578Y-4.5104
X10.2114Y-4.4484
X10.3145Y-3.1168
X10.3187Y-4.6706
T3
X6.7524Y-3.1032
X6.7524Y-3.4632
X7.3524Y-3.1032
X7.3524Y-3.4632
T4
X10.0804Y-5.1614
X10.1804Y-5.1614
X10.2804Y-5.1614
T5
X3.637Y-4.0393
X3.637Y-4.3438
T6
X1.3589Y-4.4212
X1.6819Y-4.4186
X2.021Y-4.1238
X2.336Y-3.8088
X2.336Y-4.4398
X2.651Y-4.1238
X4.3381Y-4.1446
X4.6531Y-3.8286
X4.6531Y-4.4596
X4.9681Y-4.1446
X6.7444Y-4.1374
X7.0574Y-3.8234
X7.0594Y-4.4524
X7.3744Y-4.1374
X9.0454Y-4.1374
X9.3594Y-4.4524
X9.3607Y-3.8232
X9.6754Y-4.1374
T0
M30
