M48
;DRILL file {KiCad 4.0.6} date 05/07/17 20:50:40
;FORMAT={-:-/ absolute / inch / decimal}
FMAT,2
INCH,TZ
T1C0.020
T2C0.024
T3C0.079
%
G90
G05
M72
T1
X4.0134Y-4.1563
X4.0885Y-3.9095
X4.2589Y-3.8499
T2
X4.2461Y-3.4926
X4.2598Y-3.608
X4.6048Y-4.5907
X4.8Y-3.9868
X4.8842Y-4.1622
X4.995Y-3.8858
X5.0198Y-4.5135
X5.1834Y-4.0598
X5.1921Y-4.6664
X5.4438Y-3.887
X5.5852Y-3.6781
T3
X4.0089Y-4.3212
X4.3319Y-4.3186
X4.671Y-4.0238
X4.986Y-3.7088
X4.986Y-4.3398
X5.301Y-4.0238
T0
M30
