G04 #@! TF.FileFunction,Drawing*
%FSLAX46Y46*%
G04 Gerber Fmt 4.6, Leading zero omitted, Abs format (unit mm)*
G04 Created by KiCad (PCBNEW 4.0.6) date 05/08/17 07:18:31*
%MOMM*%
%LPD*%
G01*
G04 APERTURE LIST*
%ADD10C,0.100000*%
%ADD11C,0.101600*%
%ADD12C,0.152400*%
%ADD13C,0.127000*%
%ADD14C,0.203200*%
G04 APERTURE END LIST*
D10*
D11*
X123729300Y-101230300D02*
G75*
G03X124429300Y-101230300I350000J0D01*
G01*
X123729300Y-103230300D02*
G75*
G02X124429300Y-103230300I350000J0D01*
G01*
X123504300Y-101705300D02*
X123504300Y-102755300D01*
X124654300Y-102730300D02*
X124654300Y-101305300D01*
X124632300Y-101380300D02*
G75*
G03X124632300Y-101380300I-103000J0D01*
G01*
D10*
G36*
X123779300Y-101730300D02*
X123454300Y-101730300D01*
X123454300Y-101230300D01*
X123779300Y-101230300D01*
X123779300Y-101730300D01*
G37*
G36*
X124404300Y-101730300D02*
X124254300Y-101730300D01*
X124254300Y-101480300D01*
X124404300Y-101480300D01*
X124404300Y-101730300D01*
G37*
G36*
X123904300Y-101730300D02*
X123754300Y-101730300D01*
X123754300Y-101480300D01*
X123904300Y-101480300D01*
X123904300Y-101730300D01*
G37*
G36*
X124279300Y-101730300D02*
X123879300Y-101730300D01*
X123879300Y-101555300D01*
X124279300Y-101555300D01*
X124279300Y-101730300D01*
G37*
G36*
X123779300Y-103230300D02*
X123454300Y-103230300D01*
X123454300Y-102730300D01*
X123779300Y-102730300D01*
X123779300Y-103230300D01*
G37*
G36*
X124704300Y-103230300D02*
X124379300Y-103230300D01*
X124379300Y-102730300D01*
X124704300Y-102730300D01*
X124704300Y-103230300D01*
G37*
G36*
X123904300Y-102980300D02*
X123754300Y-102980300D01*
X123754300Y-102730300D01*
X123904300Y-102730300D01*
X123904300Y-102980300D01*
G37*
G36*
X124404300Y-102980300D02*
X124254300Y-102980300D01*
X124254300Y-102730300D01*
X124404300Y-102730300D01*
X124404300Y-102980300D01*
G37*
G36*
X124279300Y-102905300D02*
X123879300Y-102905300D01*
X123879300Y-102730300D01*
X124279300Y-102730300D01*
X124279300Y-102905300D01*
G37*
G36*
X124679300Y-101730300D02*
X124379300Y-101730300D01*
X124379300Y-101430300D01*
X124679300Y-101430300D01*
X124679300Y-101730300D01*
G37*
G36*
X124704300Y-101305300D02*
X124479300Y-101305300D01*
X124479300Y-101230300D01*
X124704300Y-101230300D01*
X124704300Y-101305300D01*
G37*
D12*
X124587300Y-101820300D02*
X124587300Y-102640300D01*
X123317300Y-101820300D02*
X123317300Y-102640300D01*
D10*
G36*
X123253800Y-102636700D02*
X123253800Y-103286700D01*
X124653800Y-103286700D01*
X124653800Y-102636700D01*
X123253800Y-102636700D01*
G37*
G36*
X123253800Y-101163500D02*
X123253800Y-101813500D01*
X124653800Y-101813500D01*
X124653800Y-101163500D01*
X123253800Y-101163500D01*
G37*
D12*
X126949500Y-102564100D02*
X126949500Y-101744100D01*
X128219500Y-102564100D02*
X128219500Y-101744100D01*
D10*
G36*
X128283000Y-101747700D02*
X128283000Y-101097700D01*
X126883000Y-101097700D01*
X126883000Y-101747700D01*
X128283000Y-101747700D01*
G37*
G36*
X128283000Y-103220900D02*
X128283000Y-102570900D01*
X126883000Y-102570900D01*
X126883000Y-103220900D01*
X128283000Y-103220900D01*
G37*
D13*
X125634900Y-100280700D02*
X129584900Y-100280700D01*
X129584900Y-100280700D02*
X129584900Y-104230700D01*
X129584900Y-104230700D02*
X125634900Y-104230700D01*
X125634900Y-104230700D02*
X125634900Y-100280700D01*
D12*
X103365300Y-104494900D02*
X102545300Y-104494900D01*
X103365300Y-103224900D02*
X102545300Y-103224900D01*
D10*
G36*
X102548900Y-103161400D02*
X101898900Y-103161400D01*
X101898900Y-104561400D01*
X102548900Y-104561400D01*
X102548900Y-103161400D01*
G37*
G36*
X104022100Y-103161400D02*
X103372100Y-103161400D01*
X103372100Y-104561400D01*
X104022100Y-104561400D01*
X104022100Y-103161400D01*
G37*
D12*
X103307900Y-101567300D02*
X102487900Y-101567300D01*
X103307900Y-100297300D02*
X102487900Y-100297300D01*
D10*
G36*
X102491500Y-100233800D02*
X101841500Y-100233800D01*
X101841500Y-101633800D01*
X102491500Y-101633800D01*
X102491500Y-100233800D01*
G37*
G36*
X103964700Y-100233800D02*
X103314700Y-100233800D01*
X103314700Y-101633800D01*
X103964700Y-101633800D01*
X103964700Y-100233800D01*
G37*
D11*
X109088100Y-127442900D02*
X101688100Y-127442900D01*
X101688100Y-127442900D02*
X100888100Y-126642900D01*
X100888100Y-126642900D02*
X100888100Y-120042900D01*
X100888100Y-120042900D02*
X101688100Y-119242900D01*
X101688100Y-119242900D02*
X109088100Y-119242900D01*
X109088100Y-119242900D02*
X109088100Y-127442900D01*
X108938100Y-123342900D02*
G75*
G03X108938100Y-123342900I-3950000J0D01*
G01*
D10*
G36*
X108038100Y-125817900D02*
X108038100Y-120867900D01*
X108038100Y-125817900D01*
G37*
D14*
X102092100Y-115241900D02*
X106392100Y-115241900D01*
X106392100Y-115241900D02*
X106392100Y-117841900D01*
X106392100Y-117841900D02*
X102092100Y-117841900D01*
X102092100Y-117841900D02*
X102092100Y-115241900D01*
D10*
G36*
X101417100Y-117641900D02*
X102067100Y-117641900D01*
X102067100Y-115441900D01*
X101417100Y-115441900D01*
X101417100Y-117641900D01*
G37*
G36*
X106417100Y-117641900D02*
X107067100Y-117641900D01*
X107067100Y-115441900D01*
X106417100Y-115441900D01*
X106417100Y-117641900D01*
G37*
G36*
X102492100Y-117766900D02*
X103167100Y-117766900D01*
X103167100Y-115316900D01*
X102492100Y-115316900D01*
X102492100Y-117766900D01*
G37*
M02*
