G04 #@! TF.FileFunction,Legend,Bot*
%FSLAX46Y46*%
G04 Gerber Fmt 4.6, Leading zero omitted, Abs format (unit mm)*
G04 Created by KiCad (PCBNEW 4.0.6) date 05/07/17 20:50:35*
%MOMM*%
%LPD*%
G01*
G04 APERTURE LIST*
%ADD10C,0.100000*%
%ADD11C,0.113792*%
%ADD12C,0.127000*%
%ADD13C,0.304800*%
%ADD14C,0.101600*%
G04 APERTURE END LIST*
D10*
D11*
X121581633Y-120127140D02*
X122032060Y-120127140D01*
X122225100Y-120834953D02*
X121581633Y-120834953D01*
X121581633Y-119483673D01*
X122225100Y-119483673D01*
X122804220Y-120834953D02*
X122804220Y-119483673D01*
X123254647Y-120448873D01*
X123705074Y-119483673D01*
X123705074Y-120834953D01*
X124348540Y-120127140D02*
X124798967Y-120127140D01*
X124992007Y-120834953D02*
X124348540Y-120834953D01*
X124348540Y-119483673D01*
X124992007Y-119483673D01*
X126343287Y-120834953D02*
X125892861Y-120191487D01*
X125571127Y-120834953D02*
X125571127Y-119483673D01*
X126085901Y-119483673D01*
X126214594Y-119548020D01*
X126278941Y-119612367D01*
X126343287Y-119741060D01*
X126343287Y-119934100D01*
X126278941Y-120062793D01*
X126214594Y-120127140D01*
X126085901Y-120191487D01*
X125571127Y-120191487D01*
X127630221Y-119548020D02*
X127501527Y-119483673D01*
X127308487Y-119483673D01*
X127115447Y-119548020D01*
X126986754Y-119676713D01*
X126922407Y-119805407D01*
X126858061Y-120062793D01*
X126858061Y-120255833D01*
X126922407Y-120513220D01*
X126986754Y-120641913D01*
X127115447Y-120770607D01*
X127308487Y-120834953D01*
X127437181Y-120834953D01*
X127630221Y-120770607D01*
X127694567Y-120706260D01*
X127694567Y-120255833D01*
X127437181Y-120255833D01*
X128273687Y-120127140D02*
X128724114Y-120127140D01*
X128917154Y-120834953D02*
X128273687Y-120834953D01*
X128273687Y-119483673D01*
X128917154Y-119483673D01*
X130976248Y-120127140D02*
X130525821Y-120127140D01*
X130525821Y-120834953D02*
X130525821Y-119483673D01*
X131169288Y-119483673D01*
X131619715Y-120448873D02*
X132263181Y-120448873D01*
X131491021Y-120834953D02*
X131941448Y-119483673D01*
X132391875Y-120834953D01*
X133614461Y-120706260D02*
X133550115Y-120770607D01*
X133357075Y-120834953D01*
X133228381Y-120834953D01*
X133035341Y-120770607D01*
X132906648Y-120641913D01*
X132842301Y-120513220D01*
X132777955Y-120255833D01*
X132777955Y-120062793D01*
X132842301Y-119805407D01*
X132906648Y-119676713D01*
X133035341Y-119548020D01*
X133228381Y-119483673D01*
X133357075Y-119483673D01*
X133550115Y-119548020D01*
X133614461Y-119612367D01*
X134193581Y-120127140D02*
X134644008Y-120127140D01*
X134837048Y-120834953D02*
X134193581Y-120834953D01*
X134193581Y-119483673D01*
X134837048Y-119483673D01*
X137024835Y-119934100D02*
X137024835Y-120834953D01*
X136703102Y-119419327D02*
X136381369Y-120384527D01*
X137217875Y-120384527D01*
D10*
G36*
X124179300Y-102230300D02*
X123979300Y-102230300D01*
X123979300Y-102030300D01*
X124179300Y-102030300D01*
X124179300Y-102230300D01*
G37*
D12*
X125829900Y-100275700D02*
X125629900Y-100275700D01*
X125629900Y-100275700D02*
X125629900Y-101715700D01*
X125639900Y-102425700D02*
X125639900Y-104235700D01*
X125639900Y-104235700D02*
X125819900Y-104235700D01*
X129379900Y-100285700D02*
X129579900Y-100285700D01*
X129579900Y-100285700D02*
X129579900Y-101115700D01*
X129369900Y-104225700D02*
X129589900Y-104225700D01*
X129589900Y-104225700D02*
X129589900Y-102615700D01*
D13*
X126253909Y-99665700D02*
G75*
G03X126253909Y-99665700I-164009J0D01*
G01*
D12*
X126131522Y-99665700D02*
G75*
G03X126131522Y-99665700I-31622J0D01*
G01*
D14*
X125291848Y-104362086D02*
X125291848Y-103787562D01*
X124085348Y-103787562D01*
X124659871Y-104764252D02*
X124659871Y-105166419D01*
X125291848Y-105338776D02*
X125291848Y-104764252D01*
X124085348Y-104764252D01*
X124085348Y-105338776D01*
X125291848Y-105855847D02*
X124085348Y-105855847D01*
X124085348Y-106143109D01*
X124142800Y-106315466D01*
X124257705Y-106430371D01*
X124372610Y-106487823D01*
X124602419Y-106545275D01*
X124774776Y-106545275D01*
X125004586Y-106487823D01*
X125119490Y-106430371D01*
X125234395Y-106315466D01*
X125291848Y-106143109D01*
X125291848Y-105855847D01*
X124487514Y-107579418D02*
X125291848Y-107579418D01*
X124027895Y-107292156D02*
X124889681Y-107004895D01*
X124889681Y-107751775D01*
D12*
X137556205Y-111116348D02*
X137958371Y-112322848D01*
X138360538Y-111116348D01*
X139452133Y-112207943D02*
X139394681Y-112265395D01*
X139222324Y-112322848D01*
X139107419Y-112322848D01*
X138935062Y-112265395D01*
X138820157Y-112150490D01*
X138762705Y-112035586D01*
X138705253Y-111805776D01*
X138705253Y-111633419D01*
X138762705Y-111403610D01*
X138820157Y-111288705D01*
X138935062Y-111173800D01*
X139107419Y-111116348D01*
X139222324Y-111116348D01*
X139394681Y-111173800D01*
X139452133Y-111231252D01*
X140658633Y-112207943D02*
X140601181Y-112265395D01*
X140428824Y-112322848D01*
X140313919Y-112322848D01*
X140141562Y-112265395D01*
X140026657Y-112150490D01*
X139969205Y-112035586D01*
X139911753Y-111805776D01*
X139911753Y-111633419D01*
X139969205Y-111403610D01*
X140026657Y-111288705D01*
X140141562Y-111173800D01*
X140313919Y-111116348D01*
X140428824Y-111116348D01*
X140601181Y-111173800D01*
X140658633Y-111231252D01*
X140888443Y-112437752D02*
X141807681Y-112437752D01*
X142037491Y-111231252D02*
X142094943Y-111173800D01*
X142209848Y-111116348D01*
X142497110Y-111116348D01*
X142612014Y-111173800D01*
X142669467Y-111231252D01*
X142726919Y-111346157D01*
X142726919Y-111461062D01*
X142669467Y-111633419D01*
X141980038Y-112322848D01*
X142726919Y-112322848D01*
X142956729Y-112437752D02*
X143875967Y-112437752D01*
X144852657Y-112207943D02*
X144795205Y-112265395D01*
X144622848Y-112322848D01*
X144507943Y-112322848D01*
X144335586Y-112265395D01*
X144220681Y-112150490D01*
X144163229Y-112035586D01*
X144105777Y-111805776D01*
X144105777Y-111633419D01*
X144163229Y-111403610D01*
X144220681Y-111288705D01*
X144335586Y-111173800D01*
X144507943Y-111116348D01*
X144622848Y-111116348D01*
X144795205Y-111173800D01*
X144852657Y-111231252D01*
X145886800Y-111518514D02*
X145886800Y-112322848D01*
X145599538Y-111058895D02*
X145312277Y-111920681D01*
X146059157Y-111920681D01*
X113416205Y-111297348D02*
X113818371Y-112503848D01*
X114220538Y-111297348D01*
X115312133Y-112388943D02*
X115254681Y-112446395D01*
X115082324Y-112503848D01*
X114967419Y-112503848D01*
X114795062Y-112446395D01*
X114680157Y-112331490D01*
X114622705Y-112216586D01*
X114565253Y-111986776D01*
X114565253Y-111814419D01*
X114622705Y-111584610D01*
X114680157Y-111469705D01*
X114795062Y-111354800D01*
X114967419Y-111297348D01*
X115082324Y-111297348D01*
X115254681Y-111354800D01*
X115312133Y-111412252D01*
X116518633Y-112388943D02*
X116461181Y-112446395D01*
X116288824Y-112503848D01*
X116173919Y-112503848D01*
X116001562Y-112446395D01*
X115886657Y-112331490D01*
X115829205Y-112216586D01*
X115771753Y-111986776D01*
X115771753Y-111814419D01*
X115829205Y-111584610D01*
X115886657Y-111469705D01*
X116001562Y-111354800D01*
X116173919Y-111297348D01*
X116288824Y-111297348D01*
X116461181Y-111354800D01*
X116518633Y-111412252D01*
X116748443Y-112618752D02*
X117667681Y-112618752D01*
X118586919Y-112503848D02*
X117897491Y-112503848D01*
X118242205Y-112503848D02*
X118242205Y-111297348D01*
X118127300Y-111469705D01*
X118012395Y-111584610D01*
X117897491Y-111642062D01*
X118816729Y-112618752D02*
X119735967Y-112618752D01*
X120712657Y-112388943D02*
X120655205Y-112446395D01*
X120482848Y-112503848D01*
X120367943Y-112503848D01*
X120195586Y-112446395D01*
X120080681Y-112331490D01*
X120023229Y-112216586D01*
X119965777Y-111986776D01*
X119965777Y-111814419D01*
X120023229Y-111584610D01*
X120080681Y-111469705D01*
X120195586Y-111354800D01*
X120367943Y-111297348D01*
X120482848Y-111297348D01*
X120655205Y-111354800D01*
X120712657Y-111412252D01*
X121746800Y-111699514D02*
X121746800Y-112503848D01*
X121459538Y-111239895D02*
X121172277Y-112101681D01*
X121919157Y-112101681D01*
X137445205Y-87247348D02*
X137847371Y-88453848D01*
X138249538Y-87247348D01*
X139341133Y-88338943D02*
X139283681Y-88396395D01*
X139111324Y-88453848D01*
X138996419Y-88453848D01*
X138824062Y-88396395D01*
X138709157Y-88281490D01*
X138651705Y-88166586D01*
X138594253Y-87936776D01*
X138594253Y-87764419D01*
X138651705Y-87534610D01*
X138709157Y-87419705D01*
X138824062Y-87304800D01*
X138996419Y-87247348D01*
X139111324Y-87247348D01*
X139283681Y-87304800D01*
X139341133Y-87362252D01*
X140547633Y-88338943D02*
X140490181Y-88396395D01*
X140317824Y-88453848D01*
X140202919Y-88453848D01*
X140030562Y-88396395D01*
X139915657Y-88281490D01*
X139858205Y-88166586D01*
X139800753Y-87936776D01*
X139800753Y-87764419D01*
X139858205Y-87534610D01*
X139915657Y-87419705D01*
X140030562Y-87304800D01*
X140202919Y-87247348D01*
X140317824Y-87247348D01*
X140490181Y-87304800D01*
X140547633Y-87362252D01*
X140777443Y-88568752D02*
X141696681Y-88568752D01*
X141869038Y-87247348D02*
X142615919Y-87247348D01*
X142213752Y-87706967D01*
X142386110Y-87706967D01*
X142501014Y-87764419D01*
X142558467Y-87821871D01*
X142615919Y-87936776D01*
X142615919Y-88224038D01*
X142558467Y-88338943D01*
X142501014Y-88396395D01*
X142386110Y-88453848D01*
X142041395Y-88453848D01*
X141926491Y-88396395D01*
X141869038Y-88338943D01*
X142845729Y-88568752D02*
X143764967Y-88568752D01*
X144741657Y-88338943D02*
X144684205Y-88396395D01*
X144511848Y-88453848D01*
X144396943Y-88453848D01*
X144224586Y-88396395D01*
X144109681Y-88281490D01*
X144052229Y-88166586D01*
X143994777Y-87936776D01*
X143994777Y-87764419D01*
X144052229Y-87534610D01*
X144109681Y-87419705D01*
X144224586Y-87304800D01*
X144396943Y-87247348D01*
X144511848Y-87247348D01*
X144684205Y-87304800D01*
X144741657Y-87362252D01*
X145775800Y-87649514D02*
X145775800Y-88453848D01*
X145488538Y-87189895D02*
X145201277Y-88051681D01*
X145948157Y-88051681D01*
X113495205Y-87187348D02*
X113897371Y-88393848D01*
X114299538Y-87187348D01*
X115391133Y-88278943D02*
X115333681Y-88336395D01*
X115161324Y-88393848D01*
X115046419Y-88393848D01*
X114874062Y-88336395D01*
X114759157Y-88221490D01*
X114701705Y-88106586D01*
X114644253Y-87876776D01*
X114644253Y-87704419D01*
X114701705Y-87474610D01*
X114759157Y-87359705D01*
X114874062Y-87244800D01*
X115046419Y-87187348D01*
X115161324Y-87187348D01*
X115333681Y-87244800D01*
X115391133Y-87302252D01*
X116597633Y-88278943D02*
X116540181Y-88336395D01*
X116367824Y-88393848D01*
X116252919Y-88393848D01*
X116080562Y-88336395D01*
X115965657Y-88221490D01*
X115908205Y-88106586D01*
X115850753Y-87876776D01*
X115850753Y-87704419D01*
X115908205Y-87474610D01*
X115965657Y-87359705D01*
X116080562Y-87244800D01*
X116252919Y-87187348D01*
X116367824Y-87187348D01*
X116540181Y-87244800D01*
X116597633Y-87302252D01*
X116827443Y-88508752D02*
X117746681Y-88508752D01*
X118551014Y-87589514D02*
X118551014Y-88393848D01*
X118263752Y-87129895D02*
X117976491Y-87991681D01*
X118723371Y-87991681D01*
X118895729Y-88508752D02*
X119814967Y-88508752D01*
X120791657Y-88278943D02*
X120734205Y-88336395D01*
X120561848Y-88393848D01*
X120446943Y-88393848D01*
X120274586Y-88336395D01*
X120159681Y-88221490D01*
X120102229Y-88106586D01*
X120044777Y-87876776D01*
X120044777Y-87704419D01*
X120102229Y-87474610D01*
X120159681Y-87359705D01*
X120274586Y-87244800D01*
X120446943Y-87187348D01*
X120561848Y-87187348D01*
X120734205Y-87244800D01*
X120791657Y-87302252D01*
X121825800Y-87589514D02*
X121825800Y-88393848D01*
X121538538Y-87129895D02*
X121251277Y-87991681D01*
X121998157Y-87991681D01*
X134315538Y-107200800D02*
X134200633Y-107143348D01*
X134028276Y-107143348D01*
X133855919Y-107200800D01*
X133741014Y-107315705D01*
X133683562Y-107430610D01*
X133626110Y-107660419D01*
X133626110Y-107832776D01*
X133683562Y-108062586D01*
X133741014Y-108177490D01*
X133855919Y-108292395D01*
X134028276Y-108349848D01*
X134143181Y-108349848D01*
X134315538Y-108292395D01*
X134372990Y-108234943D01*
X134372990Y-107832776D01*
X134143181Y-107832776D01*
X134890062Y-108349848D02*
X134890062Y-107143348D01*
X135579490Y-108349848D01*
X135579490Y-107143348D01*
X136154014Y-108349848D02*
X136154014Y-107143348D01*
X136441276Y-107143348D01*
X136613633Y-107200800D01*
X136728538Y-107315705D01*
X136785990Y-107430610D01*
X136843442Y-107660419D01*
X136843442Y-107832776D01*
X136785990Y-108062586D01*
X136728538Y-108177490D01*
X136613633Y-108292395D01*
X136441276Y-108349848D01*
X136154014Y-108349848D01*
X137073252Y-108464752D02*
X137992490Y-108464752D01*
X138222300Y-107258252D02*
X138279752Y-107200800D01*
X138394657Y-107143348D01*
X138681919Y-107143348D01*
X138796823Y-107200800D01*
X138854276Y-107258252D01*
X138911728Y-107373157D01*
X138911728Y-107488062D01*
X138854276Y-107660419D01*
X138164847Y-108349848D01*
X138911728Y-108349848D01*
X139141538Y-108464752D02*
X140060776Y-108464752D01*
X141037466Y-108234943D02*
X140980014Y-108292395D01*
X140807657Y-108349848D01*
X140692752Y-108349848D01*
X140520395Y-108292395D01*
X140405490Y-108177490D01*
X140348038Y-108062586D01*
X140290586Y-107832776D01*
X140290586Y-107660419D01*
X140348038Y-107430610D01*
X140405490Y-107315705D01*
X140520395Y-107200800D01*
X140692752Y-107143348D01*
X140807657Y-107143348D01*
X140980014Y-107200800D01*
X141037466Y-107258252D01*
X142071609Y-107545514D02*
X142071609Y-108349848D01*
X141784347Y-107085895D02*
X141497086Y-107947681D01*
X142243966Y-107947681D01*
X118323538Y-107188800D02*
X118208633Y-107131348D01*
X118036276Y-107131348D01*
X117863919Y-107188800D01*
X117749014Y-107303705D01*
X117691562Y-107418610D01*
X117634110Y-107648419D01*
X117634110Y-107820776D01*
X117691562Y-108050586D01*
X117749014Y-108165490D01*
X117863919Y-108280395D01*
X118036276Y-108337848D01*
X118151181Y-108337848D01*
X118323538Y-108280395D01*
X118380990Y-108222943D01*
X118380990Y-107820776D01*
X118151181Y-107820776D01*
X118898062Y-108337848D02*
X118898062Y-107131348D01*
X119587490Y-108337848D01*
X119587490Y-107131348D01*
X120162014Y-108337848D02*
X120162014Y-107131348D01*
X120449276Y-107131348D01*
X120621633Y-107188800D01*
X120736538Y-107303705D01*
X120793990Y-107418610D01*
X120851442Y-107648419D01*
X120851442Y-107820776D01*
X120793990Y-108050586D01*
X120736538Y-108165490D01*
X120621633Y-108280395D01*
X120449276Y-108337848D01*
X120162014Y-108337848D01*
X121081252Y-108452752D02*
X122000490Y-108452752D01*
X122919728Y-108337848D02*
X122230300Y-108337848D01*
X122575014Y-108337848D02*
X122575014Y-107131348D01*
X122460109Y-107303705D01*
X122345204Y-107418610D01*
X122230300Y-107476062D01*
X123149538Y-108452752D02*
X124068776Y-108452752D01*
X125045466Y-108222943D02*
X124988014Y-108280395D01*
X124815657Y-108337848D01*
X124700752Y-108337848D01*
X124528395Y-108280395D01*
X124413490Y-108165490D01*
X124356038Y-108050586D01*
X124298586Y-107820776D01*
X124298586Y-107648419D01*
X124356038Y-107418610D01*
X124413490Y-107303705D01*
X124528395Y-107188800D01*
X124700752Y-107131348D01*
X124815657Y-107131348D01*
X124988014Y-107188800D01*
X125045466Y-107246252D01*
X126079609Y-107533514D02*
X126079609Y-108337848D01*
X125792347Y-107073895D02*
X125505086Y-107935681D01*
X126251966Y-107935681D01*
X134364538Y-91183800D02*
X134249633Y-91126348D01*
X134077276Y-91126348D01*
X133904919Y-91183800D01*
X133790014Y-91298705D01*
X133732562Y-91413610D01*
X133675110Y-91643419D01*
X133675110Y-91815776D01*
X133732562Y-92045586D01*
X133790014Y-92160490D01*
X133904919Y-92275395D01*
X134077276Y-92332848D01*
X134192181Y-92332848D01*
X134364538Y-92275395D01*
X134421990Y-92217943D01*
X134421990Y-91815776D01*
X134192181Y-91815776D01*
X134939062Y-92332848D02*
X134939062Y-91126348D01*
X135628490Y-92332848D01*
X135628490Y-91126348D01*
X136203014Y-92332848D02*
X136203014Y-91126348D01*
X136490276Y-91126348D01*
X136662633Y-91183800D01*
X136777538Y-91298705D01*
X136834990Y-91413610D01*
X136892442Y-91643419D01*
X136892442Y-91815776D01*
X136834990Y-92045586D01*
X136777538Y-92160490D01*
X136662633Y-92275395D01*
X136490276Y-92332848D01*
X136203014Y-92332848D01*
X137122252Y-92447752D02*
X138041490Y-92447752D01*
X138213847Y-91126348D02*
X138960728Y-91126348D01*
X138558561Y-91585967D01*
X138730919Y-91585967D01*
X138845823Y-91643419D01*
X138903276Y-91700871D01*
X138960728Y-91815776D01*
X138960728Y-92103038D01*
X138903276Y-92217943D01*
X138845823Y-92275395D01*
X138730919Y-92332848D01*
X138386204Y-92332848D01*
X138271300Y-92275395D01*
X138213847Y-92217943D01*
X139190538Y-92447752D02*
X140109776Y-92447752D01*
X141086466Y-92217943D02*
X141029014Y-92275395D01*
X140856657Y-92332848D01*
X140741752Y-92332848D01*
X140569395Y-92275395D01*
X140454490Y-92160490D01*
X140397038Y-92045586D01*
X140339586Y-91815776D01*
X140339586Y-91643419D01*
X140397038Y-91413610D01*
X140454490Y-91298705D01*
X140569395Y-91183800D01*
X140741752Y-91126348D01*
X140856657Y-91126348D01*
X141029014Y-91183800D01*
X141086466Y-91241252D01*
X142120609Y-91528514D02*
X142120609Y-92332848D01*
X141833347Y-91068895D02*
X141546086Y-91930681D01*
X142292966Y-91930681D01*
X118217538Y-91209800D02*
X118102633Y-91152348D01*
X117930276Y-91152348D01*
X117757919Y-91209800D01*
X117643014Y-91324705D01*
X117585562Y-91439610D01*
X117528110Y-91669419D01*
X117528110Y-91841776D01*
X117585562Y-92071586D01*
X117643014Y-92186490D01*
X117757919Y-92301395D01*
X117930276Y-92358848D01*
X118045181Y-92358848D01*
X118217538Y-92301395D01*
X118274990Y-92243943D01*
X118274990Y-91841776D01*
X118045181Y-91841776D01*
X118792062Y-92358848D02*
X118792062Y-91152348D01*
X119481490Y-92358848D01*
X119481490Y-91152348D01*
X120056014Y-92358848D02*
X120056014Y-91152348D01*
X120343276Y-91152348D01*
X120515633Y-91209800D01*
X120630538Y-91324705D01*
X120687990Y-91439610D01*
X120745442Y-91669419D01*
X120745442Y-91841776D01*
X120687990Y-92071586D01*
X120630538Y-92186490D01*
X120515633Y-92301395D01*
X120343276Y-92358848D01*
X120056014Y-92358848D01*
X120975252Y-92473752D02*
X121894490Y-92473752D01*
X122698823Y-91554514D02*
X122698823Y-92358848D01*
X122411561Y-91094895D02*
X122124300Y-91956681D01*
X122871180Y-91956681D01*
X123043538Y-92473752D02*
X123962776Y-92473752D01*
X124939466Y-92243943D02*
X124882014Y-92301395D01*
X124709657Y-92358848D01*
X124594752Y-92358848D01*
X124422395Y-92301395D01*
X124307490Y-92186490D01*
X124250038Y-92071586D01*
X124192586Y-91841776D01*
X124192586Y-91669419D01*
X124250038Y-91439610D01*
X124307490Y-91324705D01*
X124422395Y-91209800D01*
X124594752Y-91152348D01*
X124709657Y-91152348D01*
X124882014Y-91209800D01*
X124939466Y-91267252D01*
X125973609Y-91554514D02*
X125973609Y-92358848D01*
X125686347Y-91094895D02*
X125399086Y-91956681D01*
X126145966Y-91956681D01*
X106380990Y-80330943D02*
X106323538Y-80388395D01*
X106151181Y-80445848D01*
X106036276Y-80445848D01*
X105863919Y-80388395D01*
X105749014Y-80273490D01*
X105691562Y-80158586D01*
X105634110Y-79928776D01*
X105634110Y-79756419D01*
X105691562Y-79526610D01*
X105749014Y-79411705D01*
X105863919Y-79296800D01*
X106036276Y-79239348D01*
X106151181Y-79239348D01*
X106323538Y-79296800D01*
X106380990Y-79354252D01*
X106840610Y-80101133D02*
X107415133Y-80101133D01*
X106725705Y-80445848D02*
X107127871Y-79239348D01*
X107530038Y-80445848D01*
X107932205Y-80445848D02*
X107932205Y-79239348D01*
X108621633Y-80445848D01*
X108621633Y-79239348D01*
X109770681Y-80445848D02*
X109196157Y-80445848D01*
X109196157Y-79239348D01*
X109885585Y-80560752D02*
X110804823Y-80560752D01*
X111034633Y-79354252D02*
X111092085Y-79296800D01*
X111206990Y-79239348D01*
X111494252Y-79239348D01*
X111609156Y-79296800D01*
X111666609Y-79354252D01*
X111724061Y-79469157D01*
X111724061Y-79584062D01*
X111666609Y-79756419D01*
X110977180Y-80445848D01*
X111724061Y-80445848D01*
X111953871Y-80560752D02*
X112873109Y-80560752D01*
X113849799Y-80330943D02*
X113792347Y-80388395D01*
X113619990Y-80445848D01*
X113505085Y-80445848D01*
X113332728Y-80388395D01*
X113217823Y-80273490D01*
X113160371Y-80158586D01*
X113102919Y-79928776D01*
X113102919Y-79756419D01*
X113160371Y-79526610D01*
X113217823Y-79411705D01*
X113332728Y-79296800D01*
X113505085Y-79239348D01*
X113619990Y-79239348D01*
X113792347Y-79296800D01*
X113849799Y-79354252D01*
X114883942Y-79641514D02*
X114883942Y-80445848D01*
X114596680Y-79181895D02*
X114309419Y-80043681D01*
X115056299Y-80043681D01*
X106261990Y-120243943D02*
X106204538Y-120301395D01*
X106032181Y-120358848D01*
X105917276Y-120358848D01*
X105744919Y-120301395D01*
X105630014Y-120186490D01*
X105572562Y-120071586D01*
X105515110Y-119841776D01*
X105515110Y-119669419D01*
X105572562Y-119439610D01*
X105630014Y-119324705D01*
X105744919Y-119209800D01*
X105917276Y-119152348D01*
X106032181Y-119152348D01*
X106204538Y-119209800D01*
X106261990Y-119267252D01*
X106721610Y-120014133D02*
X107296133Y-120014133D01*
X106606705Y-120358848D02*
X107008871Y-119152348D01*
X107411038Y-120358848D01*
X107813205Y-120358848D02*
X107813205Y-119152348D01*
X108502633Y-120358848D01*
X108502633Y-119152348D01*
X109651681Y-120358848D02*
X109077157Y-120358848D01*
X109077157Y-119152348D01*
X109766585Y-120473752D02*
X110685823Y-120473752D01*
X111605061Y-120358848D02*
X110915633Y-120358848D01*
X111260347Y-120358848D02*
X111260347Y-119152348D01*
X111145442Y-119324705D01*
X111030537Y-119439610D01*
X110915633Y-119497062D01*
X111834871Y-120473752D02*
X112754109Y-120473752D01*
X113730799Y-120243943D02*
X113673347Y-120301395D01*
X113500990Y-120358848D01*
X113386085Y-120358848D01*
X113213728Y-120301395D01*
X113098823Y-120186490D01*
X113041371Y-120071586D01*
X112983919Y-119841776D01*
X112983919Y-119669419D01*
X113041371Y-119439610D01*
X113098823Y-119324705D01*
X113213728Y-119209800D01*
X113386085Y-119152348D01*
X113500990Y-119152348D01*
X113673347Y-119209800D01*
X113730799Y-119267252D01*
X114764942Y-119554514D02*
X114764942Y-120358848D01*
X114477680Y-119094895D02*
X114190419Y-119956681D01*
X114937299Y-119956681D01*
X146258990Y-120304943D02*
X146201538Y-120362395D01*
X146029181Y-120419848D01*
X145914276Y-120419848D01*
X145741919Y-120362395D01*
X145627014Y-120247490D01*
X145569562Y-120132586D01*
X145512110Y-119902776D01*
X145512110Y-119730419D01*
X145569562Y-119500610D01*
X145627014Y-119385705D01*
X145741919Y-119270800D01*
X145914276Y-119213348D01*
X146029181Y-119213348D01*
X146201538Y-119270800D01*
X146258990Y-119328252D01*
X146718610Y-120075133D02*
X147293133Y-120075133D01*
X146603705Y-120419848D02*
X147005871Y-119213348D01*
X147408038Y-120419848D01*
X147810205Y-120419848D02*
X147810205Y-119213348D01*
X148499633Y-120419848D01*
X148499633Y-119213348D01*
X149648681Y-120419848D02*
X149074157Y-120419848D01*
X149074157Y-119213348D01*
X149763585Y-120534752D02*
X150682823Y-120534752D01*
X150855180Y-119213348D02*
X151602061Y-119213348D01*
X151199894Y-119672967D01*
X151372252Y-119672967D01*
X151487156Y-119730419D01*
X151544609Y-119787871D01*
X151602061Y-119902776D01*
X151602061Y-120190038D01*
X151544609Y-120304943D01*
X151487156Y-120362395D01*
X151372252Y-120419848D01*
X151027537Y-120419848D01*
X150912633Y-120362395D01*
X150855180Y-120304943D01*
X151831871Y-120534752D02*
X152751109Y-120534752D01*
X153727799Y-120304943D02*
X153670347Y-120362395D01*
X153497990Y-120419848D01*
X153383085Y-120419848D01*
X153210728Y-120362395D01*
X153095823Y-120247490D01*
X153038371Y-120132586D01*
X152980919Y-119902776D01*
X152980919Y-119730419D01*
X153038371Y-119500610D01*
X153095823Y-119385705D01*
X153210728Y-119270800D01*
X153383085Y-119213348D01*
X153497990Y-119213348D01*
X153670347Y-119270800D01*
X153727799Y-119328252D01*
X154761942Y-119615514D02*
X154761942Y-120419848D01*
X154474680Y-119155895D02*
X154187419Y-120017681D01*
X154934299Y-120017681D01*
X146375990Y-80454943D02*
X146318538Y-80512395D01*
X146146181Y-80569848D01*
X146031276Y-80569848D01*
X145858919Y-80512395D01*
X145744014Y-80397490D01*
X145686562Y-80282586D01*
X145629110Y-80052776D01*
X145629110Y-79880419D01*
X145686562Y-79650610D01*
X145744014Y-79535705D01*
X145858919Y-79420800D01*
X146031276Y-79363348D01*
X146146181Y-79363348D01*
X146318538Y-79420800D01*
X146375990Y-79478252D01*
X146835610Y-80225133D02*
X147410133Y-80225133D01*
X146720705Y-80569848D02*
X147122871Y-79363348D01*
X147525038Y-80569848D01*
X147927205Y-80569848D02*
X147927205Y-79363348D01*
X148616633Y-80569848D01*
X148616633Y-79363348D01*
X149765681Y-80569848D02*
X149191157Y-80569848D01*
X149191157Y-79363348D01*
X149880585Y-80684752D02*
X150799823Y-80684752D01*
X151604156Y-79765514D02*
X151604156Y-80569848D01*
X151316894Y-79305895D02*
X151029633Y-80167681D01*
X151776513Y-80167681D01*
X151948871Y-80684752D02*
X152868109Y-80684752D01*
X153844799Y-80454943D02*
X153787347Y-80512395D01*
X153614990Y-80569848D01*
X153500085Y-80569848D01*
X153327728Y-80512395D01*
X153212823Y-80397490D01*
X153155371Y-80282586D01*
X153097919Y-80052776D01*
X153097919Y-79880419D01*
X153155371Y-79650610D01*
X153212823Y-79535705D01*
X153327728Y-79420800D01*
X153500085Y-79363348D01*
X153614990Y-79363348D01*
X153787347Y-79420800D01*
X153844799Y-79478252D01*
X154878942Y-79765514D02*
X154878942Y-80569848D01*
X154591680Y-79305895D02*
X154304419Y-80167681D01*
X155051299Y-80167681D01*
X110257990Y-84266943D02*
X110200538Y-84324395D01*
X110028181Y-84381848D01*
X109913276Y-84381848D01*
X109740919Y-84324395D01*
X109626014Y-84209490D01*
X109568562Y-84094586D01*
X109511110Y-83864776D01*
X109511110Y-83692419D01*
X109568562Y-83462610D01*
X109626014Y-83347705D01*
X109740919Y-83232800D01*
X109913276Y-83175348D01*
X110028181Y-83175348D01*
X110200538Y-83232800D01*
X110257990Y-83290252D01*
X110717610Y-84037133D02*
X111292133Y-84037133D01*
X110602705Y-84381848D02*
X111004871Y-83175348D01*
X111407038Y-84381848D01*
X111809205Y-84381848D02*
X111809205Y-83175348D01*
X112498633Y-84381848D01*
X112498633Y-83175348D01*
X113073157Y-84381848D02*
X113073157Y-83175348D01*
X113073157Y-83749871D02*
X113762585Y-83749871D01*
X113762585Y-84381848D02*
X113762585Y-83175348D01*
X114049847Y-84496752D02*
X114969085Y-84496752D01*
X115198895Y-83290252D02*
X115256347Y-83232800D01*
X115371252Y-83175348D01*
X115658514Y-83175348D01*
X115773418Y-83232800D01*
X115830871Y-83290252D01*
X115888323Y-83405157D01*
X115888323Y-83520062D01*
X115830871Y-83692419D01*
X115141442Y-84381848D01*
X115888323Y-84381848D01*
X116118133Y-84496752D02*
X117037371Y-84496752D01*
X118014061Y-84266943D02*
X117956609Y-84324395D01*
X117784252Y-84381848D01*
X117669347Y-84381848D01*
X117496990Y-84324395D01*
X117382085Y-84209490D01*
X117324633Y-84094586D01*
X117267181Y-83864776D01*
X117267181Y-83692419D01*
X117324633Y-83462610D01*
X117382085Y-83347705D01*
X117496990Y-83232800D01*
X117669347Y-83175348D01*
X117784252Y-83175348D01*
X117956609Y-83232800D01*
X118014061Y-83290252D01*
X119048204Y-83577514D02*
X119048204Y-84381848D01*
X118760942Y-83117895D02*
X118473681Y-83979681D01*
X119220561Y-83979681D01*
X110402990Y-116189943D02*
X110345538Y-116247395D01*
X110173181Y-116304848D01*
X110058276Y-116304848D01*
X109885919Y-116247395D01*
X109771014Y-116132490D01*
X109713562Y-116017586D01*
X109656110Y-115787776D01*
X109656110Y-115615419D01*
X109713562Y-115385610D01*
X109771014Y-115270705D01*
X109885919Y-115155800D01*
X110058276Y-115098348D01*
X110173181Y-115098348D01*
X110345538Y-115155800D01*
X110402990Y-115213252D01*
X110862610Y-115960133D02*
X111437133Y-115960133D01*
X110747705Y-116304848D02*
X111149871Y-115098348D01*
X111552038Y-116304848D01*
X111954205Y-116304848D02*
X111954205Y-115098348D01*
X112643633Y-116304848D01*
X112643633Y-115098348D01*
X113218157Y-116304848D02*
X113218157Y-115098348D01*
X113218157Y-115672871D02*
X113907585Y-115672871D01*
X113907585Y-116304848D02*
X113907585Y-115098348D01*
X114194847Y-116419752D02*
X115114085Y-116419752D01*
X116033323Y-116304848D02*
X115343895Y-116304848D01*
X115688609Y-116304848D02*
X115688609Y-115098348D01*
X115573704Y-115270705D01*
X115458799Y-115385610D01*
X115343895Y-115443062D01*
X116263133Y-116419752D02*
X117182371Y-116419752D01*
X118159061Y-116189943D02*
X118101609Y-116247395D01*
X117929252Y-116304848D01*
X117814347Y-116304848D01*
X117641990Y-116247395D01*
X117527085Y-116132490D01*
X117469633Y-116017586D01*
X117412181Y-115787776D01*
X117412181Y-115615419D01*
X117469633Y-115385610D01*
X117527085Y-115270705D01*
X117641990Y-115155800D01*
X117814347Y-115098348D01*
X117929252Y-115098348D01*
X118101609Y-115155800D01*
X118159061Y-115213252D01*
X119193204Y-115500514D02*
X119193204Y-116304848D01*
X118905942Y-115040895D02*
X118618681Y-115902681D01*
X119365561Y-115902681D01*
X142221990Y-116216943D02*
X142164538Y-116274395D01*
X141992181Y-116331848D01*
X141877276Y-116331848D01*
X141704919Y-116274395D01*
X141590014Y-116159490D01*
X141532562Y-116044586D01*
X141475110Y-115814776D01*
X141475110Y-115642419D01*
X141532562Y-115412610D01*
X141590014Y-115297705D01*
X141704919Y-115182800D01*
X141877276Y-115125348D01*
X141992181Y-115125348D01*
X142164538Y-115182800D01*
X142221990Y-115240252D01*
X142681610Y-115987133D02*
X143256133Y-115987133D01*
X142566705Y-116331848D02*
X142968871Y-115125348D01*
X143371038Y-116331848D01*
X143773205Y-116331848D02*
X143773205Y-115125348D01*
X144462633Y-116331848D01*
X144462633Y-115125348D01*
X145037157Y-116331848D02*
X145037157Y-115125348D01*
X145037157Y-115699871D02*
X145726585Y-115699871D01*
X145726585Y-116331848D02*
X145726585Y-115125348D01*
X146013847Y-116446752D02*
X146933085Y-116446752D01*
X147105442Y-115125348D02*
X147852323Y-115125348D01*
X147450156Y-115584967D01*
X147622514Y-115584967D01*
X147737418Y-115642419D01*
X147794871Y-115699871D01*
X147852323Y-115814776D01*
X147852323Y-116102038D01*
X147794871Y-116216943D01*
X147737418Y-116274395D01*
X147622514Y-116331848D01*
X147277799Y-116331848D01*
X147162895Y-116274395D01*
X147105442Y-116216943D01*
X148082133Y-116446752D02*
X149001371Y-116446752D01*
X149978061Y-116216943D02*
X149920609Y-116274395D01*
X149748252Y-116331848D01*
X149633347Y-116331848D01*
X149460990Y-116274395D01*
X149346085Y-116159490D01*
X149288633Y-116044586D01*
X149231181Y-115814776D01*
X149231181Y-115642419D01*
X149288633Y-115412610D01*
X149346085Y-115297705D01*
X149460990Y-115182800D01*
X149633347Y-115125348D01*
X149748252Y-115125348D01*
X149920609Y-115182800D01*
X149978061Y-115240252D01*
X151012204Y-115527514D02*
X151012204Y-116331848D01*
X150724942Y-115067895D02*
X150437681Y-115929681D01*
X151184561Y-115929681D01*
X142386990Y-84184943D02*
X142329538Y-84242395D01*
X142157181Y-84299848D01*
X142042276Y-84299848D01*
X141869919Y-84242395D01*
X141755014Y-84127490D01*
X141697562Y-84012586D01*
X141640110Y-83782776D01*
X141640110Y-83610419D01*
X141697562Y-83380610D01*
X141755014Y-83265705D01*
X141869919Y-83150800D01*
X142042276Y-83093348D01*
X142157181Y-83093348D01*
X142329538Y-83150800D01*
X142386990Y-83208252D01*
X142846610Y-83955133D02*
X143421133Y-83955133D01*
X142731705Y-84299848D02*
X143133871Y-83093348D01*
X143536038Y-84299848D01*
X143938205Y-84299848D02*
X143938205Y-83093348D01*
X144627633Y-84299848D01*
X144627633Y-83093348D01*
X145202157Y-84299848D02*
X145202157Y-83093348D01*
X145202157Y-83667871D02*
X145891585Y-83667871D01*
X145891585Y-84299848D02*
X145891585Y-83093348D01*
X146178847Y-84414752D02*
X147098085Y-84414752D01*
X147902418Y-83495514D02*
X147902418Y-84299848D01*
X147615156Y-83035895D02*
X147327895Y-83897681D01*
X148074775Y-83897681D01*
X148247133Y-84414752D02*
X149166371Y-84414752D01*
X150143061Y-84184943D02*
X150085609Y-84242395D01*
X149913252Y-84299848D01*
X149798347Y-84299848D01*
X149625990Y-84242395D01*
X149511085Y-84127490D01*
X149453633Y-84012586D01*
X149396181Y-83782776D01*
X149396181Y-83610419D01*
X149453633Y-83380610D01*
X149511085Y-83265705D01*
X149625990Y-83150800D01*
X149798347Y-83093348D01*
X149913252Y-83093348D01*
X150085609Y-83150800D01*
X150143061Y-83208252D01*
X151177204Y-83495514D02*
X151177204Y-84299848D01*
X150889942Y-83035895D02*
X150602681Y-83897681D01*
X151349561Y-83897681D01*
D14*
X124145948Y-99482962D02*
X125122638Y-99482962D01*
X125237543Y-99540414D01*
X125294995Y-99597867D01*
X125352448Y-99712771D01*
X125352448Y-99942581D01*
X125294995Y-100057486D01*
X125237543Y-100114938D01*
X125122638Y-100172390D01*
X124145948Y-100172390D01*
X124145948Y-101321438D02*
X124145948Y-100746914D01*
X124720471Y-100689462D01*
X124663019Y-100746914D01*
X124605567Y-100861819D01*
X124605567Y-101149081D01*
X124663019Y-101263985D01*
X124720471Y-101321438D01*
X124835376Y-101378890D01*
X125122638Y-101378890D01*
X125237543Y-101321438D01*
X125294995Y-101263985D01*
X125352448Y-101149081D01*
X125352448Y-100861819D01*
X125294995Y-100746914D01*
X125237543Y-100689462D01*
X129925948Y-99120605D02*
X131132448Y-99522771D01*
X129925948Y-99924938D01*
X131017543Y-101016533D02*
X131074995Y-100959081D01*
X131132448Y-100786724D01*
X131132448Y-100671819D01*
X131074995Y-100499462D01*
X130960090Y-100384557D01*
X130845186Y-100327105D01*
X130615376Y-100269653D01*
X130443019Y-100269653D01*
X130213210Y-100327105D01*
X130098305Y-100384557D01*
X129983400Y-100499462D01*
X129925948Y-100671819D01*
X129925948Y-100786724D01*
X129983400Y-100959081D01*
X130040852Y-101016533D01*
X131132448Y-101533605D02*
X129925948Y-101533605D01*
X131132448Y-102223033D01*
X129925948Y-102223033D01*
X131132448Y-103372081D02*
X131132448Y-102797557D01*
X129925948Y-102797557D01*
X130328114Y-104291318D02*
X131132448Y-104291318D01*
X129868495Y-104004056D02*
X130730281Y-103716795D01*
X130730281Y-104463675D01*
X129925948Y-105153104D02*
X129925948Y-105268009D01*
X129983400Y-105382914D01*
X130040852Y-105440366D01*
X130155757Y-105497819D01*
X130385567Y-105555271D01*
X130672829Y-105555271D01*
X130902638Y-105497819D01*
X131017543Y-105440366D01*
X131074995Y-105382914D01*
X131132448Y-105268009D01*
X131132448Y-105153104D01*
X131074995Y-105038200D01*
X131017543Y-104980747D01*
X130902638Y-104923295D01*
X130672829Y-104865843D01*
X130385567Y-104865843D01*
X130155757Y-104923295D01*
X130040852Y-104980747D01*
X129983400Y-105038200D01*
X129925948Y-105153104D01*
X131132448Y-106704319D02*
X131132448Y-106014891D01*
X131132448Y-106359605D02*
X129925948Y-106359605D01*
X130098305Y-106244700D01*
X130213210Y-106129795D01*
X130270662Y-106014891D01*
X129925948Y-107451200D02*
X129925948Y-107566105D01*
X129983400Y-107681010D01*
X130040852Y-107738462D01*
X130155757Y-107795915D01*
X130385567Y-107853367D01*
X130672829Y-107853367D01*
X130902638Y-107795915D01*
X131017543Y-107738462D01*
X131074995Y-107681010D01*
X131132448Y-107566105D01*
X131132448Y-107451200D01*
X131074995Y-107336296D01*
X131017543Y-107278843D01*
X130902638Y-107221391D01*
X130672829Y-107163939D01*
X130385567Y-107163939D01*
X130155757Y-107221391D01*
X130040852Y-107278843D01*
X129983400Y-107336296D01*
X129925948Y-107451200D01*
X130672829Y-108370439D02*
X130672829Y-109289677D01*
X129983400Y-110496177D02*
X129925948Y-110381272D01*
X129925948Y-110208915D01*
X129983400Y-110036558D01*
X130098305Y-109921653D01*
X130213210Y-109864201D01*
X130443019Y-109806749D01*
X130615376Y-109806749D01*
X130845186Y-109864201D01*
X130960090Y-109921653D01*
X131074995Y-110036558D01*
X131132448Y-110208915D01*
X131132448Y-110323820D01*
X131074995Y-110496177D01*
X131017543Y-110553629D01*
X130615376Y-110553629D01*
X130615376Y-110323820D01*
X131074995Y-111013249D02*
X131132448Y-111185606D01*
X131132448Y-111472868D01*
X131074995Y-111587772D01*
X131017543Y-111645225D01*
X130902638Y-111702677D01*
X130787733Y-111702677D01*
X130672829Y-111645225D01*
X130615376Y-111587772D01*
X130557924Y-111472868D01*
X130500471Y-111243058D01*
X130443019Y-111128153D01*
X130385567Y-111070701D01*
X130270662Y-111013249D01*
X130155757Y-111013249D01*
X130040852Y-111070701D01*
X129983400Y-111128153D01*
X129925948Y-111243058D01*
X129925948Y-111530320D01*
X129983400Y-111702677D01*
X129925948Y-112449558D02*
X129925948Y-112564463D01*
X129983400Y-112679368D01*
X130040852Y-112736820D01*
X130155757Y-112794273D01*
X130385567Y-112851725D01*
X130672829Y-112851725D01*
X130902638Y-112794273D01*
X131017543Y-112736820D01*
X131074995Y-112679368D01*
X131132448Y-112564463D01*
X131132448Y-112449558D01*
X131074995Y-112334654D01*
X131017543Y-112277201D01*
X130902638Y-112219749D01*
X130672829Y-112162297D01*
X130385567Y-112162297D01*
X130155757Y-112219749D01*
X130040852Y-112277201D01*
X129983400Y-112334654D01*
X129925948Y-112449558D01*
X130443019Y-113541154D02*
X130385567Y-113426249D01*
X130328114Y-113368797D01*
X130213210Y-113311345D01*
X130155757Y-113311345D01*
X130040852Y-113368797D01*
X129983400Y-113426249D01*
X129925948Y-113541154D01*
X129925948Y-113770964D01*
X129983400Y-113885868D01*
X130040852Y-113943321D01*
X130155757Y-114000773D01*
X130213210Y-114000773D01*
X130328114Y-113943321D01*
X130385567Y-113885868D01*
X130443019Y-113770964D01*
X130443019Y-113541154D01*
X130500471Y-113426249D01*
X130557924Y-113368797D01*
X130672829Y-113311345D01*
X130902638Y-113311345D01*
X131017543Y-113368797D01*
X131074995Y-113426249D01*
X131132448Y-113541154D01*
X131132448Y-113770964D01*
X131074995Y-113885868D01*
X131017543Y-113943321D01*
X130902638Y-114000773D01*
X130672829Y-114000773D01*
X130557924Y-113943321D01*
X130500471Y-113885868D01*
X130443019Y-113770964D01*
M02*
