G04 #@! TF.FileFunction,Copper,L2,Bot,Signal*
%FSLAX46Y46*%
G04 Gerber Fmt 4.6, Leading zero omitted, Abs format (unit mm)*
G04 Created by KiCad (PCBNEW 4.0.6) date 05/08/17 07:18:31*
%MOMM*%
%LPD*%
G01*
G04 APERTURE LIST*
%ADD10C,0.100000*%
%ADD11R,1.200000X1.200000*%
%ADD12C,2.540000*%
%ADD13C,3.175000*%
%ADD14R,0.350000X0.805000*%
%ADD15R,0.805000X0.400000*%
%ADD16C,3.000000*%
%ADD17C,1.006400*%
%ADD18C,0.906400*%
%ADD19C,0.304800*%
%ADD20C,0.406400*%
%ADD21C,3.200000*%
%ADD22C,0.609600*%
%ADD23C,1.270000*%
G04 APERTURE END LIST*
D10*
D11*
X124079300Y-101180300D03*
X124079300Y-103280300D03*
D12*
X138711300Y-114031300D03*
D13*
X138711300Y-114031300D03*
D12*
X114571300Y-114212300D03*
D13*
X114571300Y-114212300D03*
D12*
X138600300Y-90162300D03*
D13*
X138600300Y-90162300D03*
D12*
X114650300Y-90102300D03*
D13*
X114650300Y-90102300D03*
D12*
X134666300Y-110058300D03*
D13*
X134666300Y-110058300D03*
D12*
X118674300Y-110046300D03*
D13*
X118674300Y-110046300D03*
D12*
X134715300Y-94041300D03*
D13*
X134715300Y-94041300D03*
D12*
X118568300Y-94067300D03*
D13*
X118568300Y-94067300D03*
D12*
X106674300Y-82154300D03*
D13*
X106674300Y-82154300D03*
D12*
X106555300Y-122067300D03*
D13*
X106555300Y-122067300D03*
D12*
X146552300Y-122128300D03*
D13*
X146552300Y-122128300D03*
D12*
X146669300Y-82278300D03*
D13*
X146669300Y-82278300D03*
D12*
X110551300Y-86090300D03*
D13*
X110551300Y-86090300D03*
D12*
X110696300Y-118013300D03*
D13*
X110696300Y-118013300D03*
D12*
X142515300Y-118040300D03*
D13*
X142515300Y-118040300D03*
D12*
X142680300Y-86008300D03*
D13*
X142680300Y-86008300D03*
D14*
X126109900Y-100483200D03*
X126859900Y-100483200D03*
X127609900Y-100483200D03*
X128359900Y-100483200D03*
X129109900Y-100483200D03*
D15*
X129382400Y-101455700D03*
D14*
X129109900Y-104028200D03*
X128359900Y-104028200D03*
X127609900Y-104028200D03*
X126859900Y-104028200D03*
X126109900Y-104028200D03*
D15*
X125837400Y-102080700D03*
X129382400Y-102255700D03*
D16*
X118643700Y-102204900D03*
X126644700Y-94203900D03*
X134645700Y-102204900D03*
X126644700Y-110231300D03*
X101825100Y-109758900D03*
X110029100Y-109692900D03*
D17*
X121920300Y-101265100D03*
X138272100Y-98728900D03*
X127503100Y-114642900D03*
X131657100Y-103118900D03*
D18*
X101940100Y-105569900D03*
D17*
X124058100Y-105718900D03*
X141864100Y-93423900D03*
X131878100Y-118526900D03*
X116963000Y-116604000D03*
X107850100Y-88711900D03*
X108200100Y-91643900D03*
X126873300Y-98699700D03*
D18*
X103847900Y-99300900D03*
X108175100Y-97787900D03*
D19*
X121920300Y-101265100D02*
X123994500Y-101265100D01*
X123994500Y-101265100D02*
X124079300Y-101180300D01*
D20*
X125837400Y-102080700D02*
X127578900Y-102080700D01*
X127578900Y-102080700D02*
X127944100Y-102445900D01*
X127944100Y-102445900D02*
X129192200Y-102445900D01*
X129192200Y-102445900D02*
X129382400Y-102255700D01*
D21*
X118674300Y-110046300D02*
X118674300Y-110073100D01*
X118674300Y-110073100D02*
X122108100Y-113506900D01*
X122108100Y-113506900D02*
X122108100Y-113508900D01*
X122108100Y-113508900D02*
X123242100Y-114642900D01*
X123242100Y-114642900D02*
X127503100Y-114642900D01*
X127503100Y-114642900D02*
X130081700Y-114642900D01*
X130081700Y-114642900D02*
X134666300Y-110058300D01*
X134715300Y-94041300D02*
X134720500Y-94041300D01*
X134720500Y-94041300D02*
X138272100Y-97592900D01*
X138272100Y-97592900D02*
X138272100Y-98728900D01*
X138272100Y-98728900D02*
X138272100Y-106452500D01*
X138272100Y-106452500D02*
X134666300Y-110058300D01*
X118568300Y-94067300D02*
X118624700Y-94067300D01*
X118624700Y-94067300D02*
X121825100Y-90866900D01*
X121825100Y-90866900D02*
X121825100Y-90864900D01*
X121825100Y-90864900D02*
X122581100Y-90108900D01*
X122581100Y-90108900D02*
X130788100Y-90108900D01*
X130788100Y-90108900D02*
X134720500Y-94041300D01*
D19*
X131657100Y-103118900D02*
X130245600Y-103118900D01*
X130245600Y-103118900D02*
X129382400Y-102255700D01*
X131657100Y-103118900D02*
X131657100Y-107049100D01*
X131657100Y-107049100D02*
X134666300Y-110058300D01*
X126109900Y-100483200D02*
X125737400Y-100483200D01*
X125737400Y-100483200D02*
X124986100Y-99731900D01*
X124986100Y-99731900D02*
X124986100Y-98649900D01*
X124986100Y-98649900D02*
X124509100Y-98172900D01*
X124509100Y-98172900D02*
X110131100Y-98172900D01*
X110131100Y-98172900D02*
X109116100Y-99187900D01*
X109116100Y-99187900D02*
X109116100Y-103927900D01*
X109116100Y-103927900D02*
X107436100Y-105607900D01*
X107436100Y-105607900D02*
X101978100Y-105607900D01*
X101978100Y-105607900D02*
X101940100Y-105569900D01*
X129109900Y-104028200D02*
X129109900Y-106263100D01*
X129109900Y-106263100D02*
X127730100Y-107642900D01*
X127730100Y-107642900D02*
X112831100Y-107642900D01*
X112831100Y-107642900D02*
X109116100Y-103927900D01*
D22*
X124058100Y-105718900D02*
X124058100Y-103301500D01*
X124058100Y-103301500D02*
X124079300Y-103280300D01*
D21*
X138711300Y-114031300D02*
X138711300Y-114211700D01*
X138711300Y-114211700D02*
X134396100Y-118526900D01*
X134396100Y-118526900D02*
X131878100Y-118526900D01*
X131878100Y-118526900D02*
X118885900Y-118526900D01*
X118885900Y-118526900D02*
X116963000Y-116604000D01*
X116963000Y-116604000D02*
X114571300Y-114212300D01*
X138600300Y-90162300D02*
X138602500Y-90162300D01*
X138602500Y-90162300D02*
X141864100Y-93423900D01*
X141864100Y-93423900D02*
X141864100Y-110878500D01*
X141864100Y-110878500D02*
X138711300Y-114031300D01*
X114650300Y-90102300D02*
X114828700Y-90102300D01*
X114828700Y-90102300D02*
X118516100Y-86414900D01*
X118516100Y-86414900D02*
X134855100Y-86414900D01*
X134855100Y-86414900D02*
X138602500Y-90162300D01*
D22*
X106555300Y-122067300D02*
X111100500Y-122067300D01*
X111100500Y-122067300D02*
X113047100Y-124013900D01*
X113047100Y-124013900D02*
X144666700Y-124013900D01*
X144666700Y-124013900D02*
X146552300Y-122128300D01*
X146552300Y-122128300D02*
X146552300Y-122033700D01*
X146552300Y-122033700D02*
X148215100Y-120370900D01*
X148215100Y-120370900D02*
X148215100Y-83824100D01*
X148215100Y-83824100D02*
X146669300Y-82278300D01*
X106674300Y-82154300D02*
X106674300Y-81787700D01*
X106674300Y-81787700D02*
X108509100Y-79952900D01*
X108509100Y-79952900D02*
X144343900Y-79952900D01*
X144343900Y-79952900D02*
X146669300Y-82278300D01*
X107850100Y-88711900D02*
X107395100Y-88711900D01*
X107395100Y-88711900D02*
X106711100Y-88027900D01*
X106711100Y-88027900D02*
X106711100Y-82191100D01*
X106711100Y-82191100D02*
X106674300Y-82154300D01*
X110551300Y-86090300D02*
X110609700Y-86090300D01*
X110609700Y-86090300D02*
X113885100Y-82814900D01*
X113885100Y-82814900D02*
X139486900Y-82814900D01*
X139486900Y-82814900D02*
X142680300Y-86008300D01*
X142680300Y-86008300D02*
X142680300Y-86102100D01*
X142680300Y-86102100D02*
X145361100Y-88782900D01*
X145361100Y-88782900D02*
X145361100Y-115194500D01*
X145361100Y-115194500D02*
X142515300Y-118040300D01*
X142515300Y-118040300D02*
X142515300Y-118260700D01*
X142515300Y-118260700D02*
X139028100Y-121747900D01*
X139028100Y-121747900D02*
X114430900Y-121747900D01*
X114430900Y-121747900D02*
X110696300Y-118013300D01*
D23*
X108200100Y-91643900D02*
X109621100Y-91643900D01*
X109621100Y-91643900D02*
X110606100Y-90658900D01*
X110606100Y-90658900D02*
X110606100Y-86145100D01*
X110606100Y-86145100D02*
X110551300Y-86090300D01*
D19*
X127609900Y-100483200D02*
X126859900Y-100483200D01*
X126873300Y-98699700D02*
X126873300Y-100469800D01*
X126873300Y-100469800D02*
X126859900Y-100483200D01*
X129109900Y-100483200D02*
X129109900Y-96818700D01*
X129109900Y-96818700D02*
X128749100Y-96457900D01*
X128749100Y-96457900D02*
X104963100Y-96457900D01*
X104963100Y-96457900D02*
X104014100Y-97406900D01*
X104014100Y-97406900D02*
X104014100Y-99134700D01*
X104014100Y-99134700D02*
X103847900Y-99300900D01*
X128359900Y-100483200D02*
X128359900Y-97764700D01*
X128359900Y-97764700D02*
X127878100Y-97282900D01*
X127878100Y-97282900D02*
X108680100Y-97282900D01*
X108680100Y-97282900D02*
X108175100Y-97787900D01*
D20*
G36*
X153149900Y-128479700D02*
X100230300Y-128479700D01*
X100230300Y-122281938D01*
X103999245Y-122281938D01*
X104089615Y-122774324D01*
X104273902Y-123239779D01*
X104545086Y-123660576D01*
X104892839Y-124020685D01*
X105303915Y-124306390D01*
X105762656Y-124506808D01*
X106251588Y-124614307D01*
X106752088Y-124624791D01*
X107245093Y-124537861D01*
X107711824Y-124356828D01*
X108134503Y-124088588D01*
X108497031Y-123743357D01*
X108783473Y-123337300D01*
X110574448Y-123337300D01*
X112149074Y-124911926D01*
X112239755Y-124986412D01*
X112329592Y-125061794D01*
X112335446Y-125065012D01*
X112340605Y-125069250D01*
X112443944Y-125124660D01*
X112546794Y-125181202D01*
X112553164Y-125183223D01*
X112559045Y-125186376D01*
X112671188Y-125220662D01*
X112783052Y-125256147D01*
X112789688Y-125256891D01*
X112796075Y-125258844D01*
X112912790Y-125270700D01*
X113029368Y-125283776D01*
X113042423Y-125283867D01*
X113042666Y-125283892D01*
X113042893Y-125283871D01*
X113047100Y-125283900D01*
X144666700Y-125283900D01*
X144783463Y-125272451D01*
X144900318Y-125262228D01*
X144906732Y-125260365D01*
X144913378Y-125259713D01*
X145025662Y-125225812D01*
X145138337Y-125193077D01*
X145144268Y-125190002D01*
X145150659Y-125188073D01*
X145254249Y-125132994D01*
X145358391Y-125079011D01*
X145363607Y-125074847D01*
X145369507Y-125071710D01*
X145460443Y-124997545D01*
X145552100Y-124924376D01*
X145561399Y-124915207D01*
X145561585Y-124915055D01*
X145561728Y-124914883D01*
X145564726Y-124911926D01*
X145881955Y-124594697D01*
X146248588Y-124675307D01*
X146749088Y-124685791D01*
X147242093Y-124598861D01*
X147708824Y-124417828D01*
X148131503Y-124149588D01*
X148494031Y-123804357D01*
X148782599Y-123395286D01*
X148986215Y-122937956D01*
X149097125Y-122449786D01*
X149105109Y-121877995D01*
X149007873Y-121386919D01*
X149004154Y-121377897D01*
X149113125Y-121268926D01*
X149187587Y-121178275D01*
X149262994Y-121088408D01*
X149266212Y-121082554D01*
X149270450Y-121077395D01*
X149325860Y-120974056D01*
X149382402Y-120871206D01*
X149384423Y-120864836D01*
X149387576Y-120858955D01*
X149421862Y-120746812D01*
X149457347Y-120634948D01*
X149458091Y-120628312D01*
X149460044Y-120621925D01*
X149471900Y-120505210D01*
X149484976Y-120388632D01*
X149485067Y-120375577D01*
X149485092Y-120375334D01*
X149485071Y-120375107D01*
X149485100Y-120370900D01*
X149485100Y-83824100D01*
X149473646Y-83707287D01*
X149463427Y-83590482D01*
X149461565Y-83584073D01*
X149460913Y-83577422D01*
X149427004Y-83465110D01*
X149394277Y-83352462D01*
X149391202Y-83346529D01*
X149389273Y-83340141D01*
X149334203Y-83236570D01*
X149280211Y-83132409D01*
X149276047Y-83127193D01*
X149272910Y-83121293D01*
X149198745Y-83030357D01*
X149134567Y-82949962D01*
X149214125Y-82599786D01*
X149222109Y-82027995D01*
X149124873Y-81536919D01*
X148934106Y-81074081D01*
X148657072Y-80657113D01*
X148304325Y-80301894D01*
X147889300Y-80021957D01*
X147427806Y-79827962D01*
X146937421Y-79727301D01*
X146436823Y-79723806D01*
X145995118Y-79808066D01*
X145241926Y-79054874D01*
X145151218Y-78980366D01*
X145061408Y-78905006D01*
X145055558Y-78901790D01*
X145050395Y-78897549D01*
X144947017Y-78842119D01*
X144844206Y-78785598D01*
X144837836Y-78783577D01*
X144831955Y-78780424D01*
X144719812Y-78746138D01*
X144607948Y-78710653D01*
X144601312Y-78709909D01*
X144594925Y-78707956D01*
X144478210Y-78696100D01*
X144361632Y-78683024D01*
X144348577Y-78682933D01*
X144348334Y-78682908D01*
X144348107Y-78682929D01*
X144343900Y-78682900D01*
X108509100Y-78682900D01*
X108392337Y-78694349D01*
X108275482Y-78704572D01*
X108269068Y-78706435D01*
X108262422Y-78707087D01*
X108150138Y-78740988D01*
X108037463Y-78773723D01*
X108031532Y-78776798D01*
X108025141Y-78778727D01*
X107921551Y-78833806D01*
X107817409Y-78887789D01*
X107812193Y-78891953D01*
X107806293Y-78895090D01*
X107715357Y-78969255D01*
X107623700Y-79042424D01*
X107614401Y-79051593D01*
X107614215Y-79051745D01*
X107614072Y-79051917D01*
X107611074Y-79054874D01*
X107042171Y-79623777D01*
X106942421Y-79603301D01*
X106441823Y-79599806D01*
X105950080Y-79693611D01*
X105485922Y-79881143D01*
X105067029Y-80155258D01*
X104709357Y-80505517D01*
X104426529Y-80918577D01*
X104229317Y-81378706D01*
X104125235Y-81868377D01*
X104118245Y-82368938D01*
X104208615Y-82861324D01*
X104392902Y-83326779D01*
X104664086Y-83747576D01*
X105011839Y-84107685D01*
X105422915Y-84393390D01*
X105441100Y-84401335D01*
X105441100Y-88027900D01*
X105452549Y-88144663D01*
X105462772Y-88261518D01*
X105464635Y-88267932D01*
X105465287Y-88274578D01*
X105499188Y-88386862D01*
X105531923Y-88499537D01*
X105534998Y-88505468D01*
X105536927Y-88511859D01*
X105592006Y-88615449D01*
X105645989Y-88719591D01*
X105650153Y-88724807D01*
X105653290Y-88730707D01*
X105727455Y-88821643D01*
X105800624Y-88913300D01*
X105809793Y-88922599D01*
X105809945Y-88922785D01*
X105810117Y-88922928D01*
X105813074Y-88925926D01*
X106497074Y-89609926D01*
X106587755Y-89684412D01*
X106677592Y-89759794D01*
X106683446Y-89763012D01*
X106688605Y-89767250D01*
X106791944Y-89822660D01*
X106894794Y-89879202D01*
X106901164Y-89881223D01*
X106907045Y-89884376D01*
X107008806Y-89915488D01*
X107130261Y-89999901D01*
X107394144Y-90115189D01*
X107602043Y-90160899D01*
X107590311Y-90164441D01*
X107314563Y-90311059D01*
X107072544Y-90508445D01*
X106873474Y-90749080D01*
X106724935Y-91023798D01*
X106632584Y-91322135D01*
X106599939Y-91632729D01*
X106628244Y-91943748D01*
X106716420Y-92243345D01*
X106861110Y-92520111D01*
X107056801Y-92763501D01*
X107296040Y-92964247D01*
X107569714Y-93114700D01*
X107867400Y-93209132D01*
X108177758Y-93243944D01*
X108200100Y-93244100D01*
X109621100Y-93244100D01*
X109768208Y-93229676D01*
X109915459Y-93216793D01*
X109923541Y-93214445D01*
X109931914Y-93213624D01*
X110073439Y-93170896D01*
X110215362Y-93129663D01*
X110222829Y-93125792D01*
X110230889Y-93123359D01*
X110361423Y-93053953D01*
X110492632Y-92985941D01*
X110499209Y-92980690D01*
X110506637Y-92976741D01*
X110621176Y-92883325D01*
X110736704Y-92791100D01*
X110748411Y-92779554D01*
X110748656Y-92779355D01*
X110748843Y-92779129D01*
X110752612Y-92775412D01*
X111737612Y-91790413D01*
X111831434Y-91676192D01*
X111926447Y-91562960D01*
X111930502Y-91555584D01*
X111935841Y-91549084D01*
X112005688Y-91418821D01*
X112076900Y-91289286D01*
X112079443Y-91281268D01*
X112083421Y-91273850D01*
X112126647Y-91132466D01*
X112171332Y-90991600D01*
X112172270Y-90983239D01*
X112174730Y-90975192D01*
X112189667Y-90828143D01*
X112190196Y-90823421D01*
X112233481Y-90932746D01*
X112271888Y-91063241D01*
X112326533Y-91167767D01*
X112368902Y-91274779D01*
X112440810Y-91386358D01*
X112503832Y-91506909D01*
X112577734Y-91598825D01*
X112640086Y-91695576D01*
X112732306Y-91791072D01*
X112817535Y-91897076D01*
X112907878Y-91972882D01*
X112987839Y-92055685D01*
X113096852Y-92131451D01*
X113201047Y-92218881D01*
X113304396Y-92275698D01*
X113398915Y-92341390D01*
X113520560Y-92394535D01*
X113639760Y-92460066D01*
X113752186Y-92495730D01*
X113857656Y-92541808D01*
X113987302Y-92570313D01*
X114116965Y-92611444D01*
X114234175Y-92624591D01*
X114346588Y-92649307D01*
X114479304Y-92652087D01*
X114614484Y-92667250D01*
X114650300Y-92667500D01*
X114828700Y-92667500D01*
X115064567Y-92644373D01*
X115300572Y-92623725D01*
X115313522Y-92619963D01*
X115326950Y-92618646D01*
X115553786Y-92550160D01*
X115781333Y-92484052D01*
X115793312Y-92477843D01*
X115806222Y-92473945D01*
X116015421Y-92362712D01*
X116225808Y-92253658D01*
X116236349Y-92245243D01*
X116248260Y-92238910D01*
X116431904Y-92089133D01*
X116617068Y-91941319D01*
X116635836Y-91922810D01*
X116636228Y-91922491D01*
X116636528Y-91922128D01*
X116642570Y-91916170D01*
X119578640Y-88980100D01*
X133792560Y-88980100D01*
X136759326Y-91946866D01*
X136767535Y-91957076D01*
X136779971Y-91967511D01*
X139298900Y-94486440D01*
X139298900Y-109815959D01*
X136897430Y-112217430D01*
X136825436Y-112305077D01*
X136746357Y-112382517D01*
X136676338Y-112484778D01*
X136594719Y-112582047D01*
X136588220Y-112593869D01*
X136579659Y-112604291D01*
X136526059Y-112704254D01*
X136463529Y-112795577D01*
X136436411Y-112858848D01*
X133333560Y-115961700D01*
X119948440Y-115961700D01*
X118776942Y-114790202D01*
X118776871Y-114790130D01*
X116385170Y-112398430D01*
X116290545Y-112320704D01*
X116206325Y-112235894D01*
X116099920Y-112164123D01*
X115998309Y-112080659D01*
X115890385Y-112022791D01*
X115791300Y-111955957D01*
X115672988Y-111906223D01*
X115557094Y-111844081D01*
X115439984Y-111808277D01*
X115329806Y-111761962D01*
X115204089Y-111736156D01*
X115078331Y-111697708D01*
X114956491Y-111685332D01*
X114839421Y-111661301D01*
X114711092Y-111660405D01*
X114580254Y-111647115D01*
X114458330Y-111658640D01*
X114338823Y-111657806D01*
X114212759Y-111681854D01*
X114081837Y-111694230D01*
X113964479Y-111729216D01*
X113847080Y-111751611D01*
X113728084Y-111799688D01*
X113602063Y-111837257D01*
X113493738Y-111894370D01*
X113382922Y-111939143D01*
X113275525Y-112009421D01*
X113159207Y-112070749D01*
X113064045Y-112147810D01*
X112964029Y-112213258D01*
X112872327Y-112303059D01*
X112770137Y-112385811D01*
X112691751Y-112479893D01*
X112606357Y-112563517D01*
X112533847Y-112669415D01*
X112449673Y-112770444D01*
X112391053Y-112877960D01*
X112323529Y-112976577D01*
X112272969Y-113094543D01*
X112210021Y-113209997D01*
X112173401Y-113326851D01*
X112126317Y-113436706D01*
X112099634Y-113562240D01*
X112060309Y-113687726D01*
X112047083Y-113809476D01*
X112022235Y-113926377D01*
X112020443Y-114054704D01*
X112006241Y-114185438D01*
X112016914Y-114307428D01*
X112015245Y-114426938D01*
X112038414Y-114553178D01*
X112049875Y-114684172D01*
X112084039Y-114801766D01*
X112105615Y-114919324D01*
X112152860Y-115038651D01*
X112189548Y-115164933D01*
X112245907Y-115273661D01*
X112289902Y-115384779D01*
X112359423Y-115492655D01*
X112419942Y-115609408D01*
X112496342Y-115705113D01*
X112561086Y-115805576D01*
X112650243Y-115897901D01*
X112732281Y-116000668D01*
X112757430Y-116026170D01*
X115149130Y-118417871D01*
X115149136Y-118417876D01*
X117072030Y-120340770D01*
X117238974Y-120477900D01*
X114956952Y-120477900D01*
X113162020Y-118682968D01*
X113241125Y-118334786D01*
X113249109Y-117762995D01*
X113151873Y-117271919D01*
X112961106Y-116809081D01*
X112684072Y-116392113D01*
X112331325Y-116036894D01*
X111916300Y-115756957D01*
X111454806Y-115562962D01*
X110964421Y-115462301D01*
X110463823Y-115458806D01*
X109972080Y-115552611D01*
X109507922Y-115740143D01*
X109089029Y-116014258D01*
X108731357Y-116364517D01*
X108448529Y-116777577D01*
X108251317Y-117237706D01*
X108147235Y-117727377D01*
X108140245Y-118227938D01*
X108230615Y-118720324D01*
X108414902Y-119185779D01*
X108686086Y-119606576D01*
X109033839Y-119966685D01*
X109444915Y-120252390D01*
X109903656Y-120452808D01*
X110392588Y-120560307D01*
X110893088Y-120570791D01*
X111373100Y-120486152D01*
X113532874Y-122645926D01*
X113623582Y-122720434D01*
X113651547Y-122743900D01*
X113573152Y-122743900D01*
X111998526Y-121169274D01*
X111907818Y-121094766D01*
X111818008Y-121019406D01*
X111812158Y-121016190D01*
X111806995Y-121011949D01*
X111703617Y-120956519D01*
X111600806Y-120899998D01*
X111594436Y-120897977D01*
X111588555Y-120894824D01*
X111476412Y-120860538D01*
X111364548Y-120825053D01*
X111357912Y-120824309D01*
X111351525Y-120822356D01*
X111234810Y-120810500D01*
X111118232Y-120797424D01*
X111105177Y-120797333D01*
X111104934Y-120797308D01*
X111104707Y-120797329D01*
X111100500Y-120797300D01*
X108776401Y-120797300D01*
X108543072Y-120446113D01*
X108190325Y-120090894D01*
X107775300Y-119810957D01*
X107313806Y-119616962D01*
X106823421Y-119516301D01*
X106322823Y-119512806D01*
X105831080Y-119606611D01*
X105366922Y-119794143D01*
X104948029Y-120068258D01*
X104590357Y-120418517D01*
X104307529Y-120831577D01*
X104110317Y-121291706D01*
X104006235Y-121781377D01*
X103999245Y-122281938D01*
X100230300Y-122281938D01*
X100230300Y-111652748D01*
X100616609Y-111921240D01*
X101059625Y-112114789D01*
X101531798Y-112218603D01*
X102015143Y-112228727D01*
X102491249Y-112144777D01*
X102941981Y-111969949D01*
X103350172Y-111710904D01*
X103700274Y-111377506D01*
X103978950Y-110982457D01*
X104175587Y-110540803D01*
X104282695Y-110069366D01*
X104290406Y-109517175D01*
X104196503Y-109042931D01*
X104012274Y-108595959D01*
X103744737Y-108193283D01*
X103404081Y-107850240D01*
X103003282Y-107579898D01*
X102557607Y-107392553D01*
X102084030Y-107295342D01*
X101600591Y-107291967D01*
X101125704Y-107382556D01*
X100677456Y-107563660D01*
X100272922Y-107828380D01*
X100230300Y-107870119D01*
X100230300Y-105689163D01*
X100519836Y-105689163D01*
X100570049Y-105962756D01*
X100672448Y-106221385D01*
X100823131Y-106455199D01*
X101016359Y-106655292D01*
X101244772Y-106814044D01*
X101499670Y-106925406D01*
X101771343Y-106985137D01*
X102049445Y-106990962D01*
X102323381Y-106942660D01*
X102582719Y-106842070D01*
X102766404Y-106725500D01*
X107436100Y-106725500D01*
X107538783Y-106715432D01*
X107641684Y-106706429D01*
X107647332Y-106704788D01*
X107653176Y-106704215D01*
X107751956Y-106674392D01*
X107851141Y-106645576D01*
X107856359Y-106642871D01*
X107861984Y-106641173D01*
X107953130Y-106592709D01*
X108044789Y-106545198D01*
X108049382Y-106541532D01*
X108054570Y-106538773D01*
X108134557Y-106473537D01*
X108215252Y-106409119D01*
X108223437Y-106401048D01*
X108223599Y-106400916D01*
X108223723Y-106400766D01*
X108226363Y-106398163D01*
X109116100Y-105508426D01*
X111059415Y-107451740D01*
X110761607Y-107326553D01*
X110288030Y-107229342D01*
X109804591Y-107225967D01*
X109329704Y-107316556D01*
X108881456Y-107497660D01*
X108476922Y-107762380D01*
X108131510Y-108100633D01*
X107858376Y-108499534D01*
X107667925Y-108943891D01*
X107567410Y-109416777D01*
X107560660Y-109900181D01*
X107647932Y-110375689D01*
X107825902Y-110825190D01*
X108087791Y-111231563D01*
X108423624Y-111579328D01*
X108820609Y-111855240D01*
X109263625Y-112048789D01*
X109735798Y-112152603D01*
X110219143Y-112162727D01*
X110695249Y-112078777D01*
X111145981Y-111903949D01*
X111554172Y-111644904D01*
X111904274Y-111311506D01*
X112182950Y-110916457D01*
X112379587Y-110474803D01*
X112486695Y-110003366D01*
X112494406Y-109451175D01*
X112400503Y-108976931D01*
X112240265Y-108588166D01*
X112300330Y-108620373D01*
X112390831Y-108670126D01*
X112396431Y-108671902D01*
X112401611Y-108674680D01*
X112500350Y-108704867D01*
X112598738Y-108736078D01*
X112604578Y-108736733D01*
X112610197Y-108738451D01*
X112712891Y-108748882D01*
X112815496Y-108760391D01*
X112826985Y-108760471D01*
X112827199Y-108760493D01*
X112827398Y-108760474D01*
X112831100Y-108760500D01*
X116460817Y-108760500D01*
X116426529Y-108810577D01*
X116229317Y-109270706D01*
X116125235Y-109760377D01*
X116118245Y-110260938D01*
X116208615Y-110753324D01*
X116392902Y-111218779D01*
X116664086Y-111639576D01*
X117011839Y-111999685D01*
X117422915Y-112285390D01*
X117881656Y-112485808D01*
X118370588Y-112593307D01*
X118871088Y-112603791D01*
X119364093Y-112516861D01*
X119830824Y-112335828D01*
X120253503Y-112067588D01*
X120616031Y-111722357D01*
X120904599Y-111313286D01*
X121108215Y-110855956D01*
X121219125Y-110367786D01*
X121227109Y-109795995D01*
X121129873Y-109304919D01*
X120939106Y-108842081D01*
X120884903Y-108760500D01*
X124663940Y-108760500D01*
X124473976Y-109037934D01*
X124283525Y-109482291D01*
X124183010Y-109955177D01*
X124176260Y-110438581D01*
X124263532Y-110914089D01*
X124441502Y-111363590D01*
X124703391Y-111769963D01*
X125039224Y-112117728D01*
X125436209Y-112393640D01*
X125879225Y-112587189D01*
X126351398Y-112691003D01*
X126834743Y-112701127D01*
X127310849Y-112617177D01*
X127761581Y-112442349D01*
X128169772Y-112183304D01*
X128519874Y-111849906D01*
X128798550Y-111454857D01*
X128995187Y-111013203D01*
X129102295Y-110541766D01*
X129106049Y-110272938D01*
X132110245Y-110272938D01*
X132200615Y-110765324D01*
X132384902Y-111230779D01*
X132656086Y-111651576D01*
X133003839Y-112011685D01*
X133414915Y-112297390D01*
X133873656Y-112497808D01*
X134362588Y-112605307D01*
X134863088Y-112615791D01*
X135356093Y-112528861D01*
X135822824Y-112347828D01*
X136245503Y-112079588D01*
X136608031Y-111734357D01*
X136896599Y-111325286D01*
X137100215Y-110867956D01*
X137211125Y-110379786D01*
X137219109Y-109807995D01*
X137121873Y-109316919D01*
X136931106Y-108854081D01*
X136654072Y-108437113D01*
X136301325Y-108081894D01*
X135886300Y-107801957D01*
X135424806Y-107607962D01*
X134934421Y-107507301D01*
X134433823Y-107503806D01*
X133942080Y-107597611D01*
X133477922Y-107785143D01*
X133059029Y-108059258D01*
X132701357Y-108409517D01*
X132418529Y-108822577D01*
X132221317Y-109282706D01*
X132117235Y-109772377D01*
X132110245Y-110272938D01*
X129106049Y-110272938D01*
X129110006Y-109989575D01*
X129016103Y-109515331D01*
X128831874Y-109068359D01*
X128564337Y-108665683D01*
X128417356Y-108517672D01*
X128428557Y-108508537D01*
X128509252Y-108444119D01*
X128517437Y-108436048D01*
X128517599Y-108435916D01*
X128517723Y-108435766D01*
X128520363Y-108433163D01*
X129900163Y-107053362D01*
X129965671Y-106973611D01*
X130032047Y-106894507D01*
X130034879Y-106889356D01*
X130038608Y-106884816D01*
X130087394Y-106793831D01*
X130137126Y-106703369D01*
X130138902Y-106697769D01*
X130141680Y-106692589D01*
X130171863Y-106593863D01*
X130203078Y-106495462D01*
X130203733Y-106489621D01*
X130205451Y-106484002D01*
X130215882Y-106381314D01*
X130227391Y-106278704D01*
X130227471Y-106267215D01*
X130227493Y-106267001D01*
X130227474Y-106266802D01*
X130227500Y-106263100D01*
X130227500Y-104622594D01*
X130254770Y-104430700D01*
X130254770Y-103625700D01*
X130242513Y-103471995D01*
X130161779Y-103211296D01*
X130059408Y-103055941D01*
X130097338Y-103040230D01*
X130205371Y-102968045D01*
X130297245Y-102876170D01*
X130369430Y-102768138D01*
X130419152Y-102648098D01*
X130444500Y-102520665D01*
X130444500Y-102445600D01*
X130411081Y-102412181D01*
X132177260Y-102412181D01*
X132264532Y-102887689D01*
X132442502Y-103337190D01*
X132704391Y-103743563D01*
X133040224Y-104091328D01*
X133437209Y-104367240D01*
X133880225Y-104560789D01*
X134352398Y-104664603D01*
X134835743Y-104674727D01*
X135311849Y-104590777D01*
X135762581Y-104415949D01*
X136170772Y-104156904D01*
X136520874Y-103823506D01*
X136799550Y-103428457D01*
X136996187Y-102986803D01*
X137103295Y-102515366D01*
X137111006Y-101963175D01*
X137017103Y-101488931D01*
X136832874Y-101041959D01*
X136565337Y-100639283D01*
X136224681Y-100296240D01*
X135823882Y-100025898D01*
X135378207Y-99838553D01*
X134904630Y-99741342D01*
X134421191Y-99737967D01*
X133946304Y-99828556D01*
X133498056Y-100009660D01*
X133093522Y-100274380D01*
X132748110Y-100612633D01*
X132474976Y-101011534D01*
X132284525Y-101455891D01*
X132184010Y-101928777D01*
X132177260Y-102412181D01*
X130411081Y-102412181D01*
X130399536Y-102400636D01*
X130427190Y-102382413D01*
X130604219Y-102174704D01*
X130716372Y-101925899D01*
X130754770Y-101655700D01*
X130754770Y-101255700D01*
X130742513Y-101101995D01*
X130661779Y-100841296D01*
X130511613Y-100613410D01*
X130303904Y-100436381D01*
X130254770Y-100414233D01*
X130254770Y-100080700D01*
X130242513Y-99926995D01*
X130227500Y-99878516D01*
X130227500Y-96818700D01*
X130217427Y-96715967D01*
X130208428Y-96613116D01*
X130206788Y-96607473D01*
X130206215Y-96601624D01*
X130176365Y-96502756D01*
X130147575Y-96403659D01*
X130144873Y-96398446D01*
X130143173Y-96392816D01*
X130094691Y-96301634D01*
X130047198Y-96210011D01*
X130043532Y-96205418D01*
X130040773Y-96200230D01*
X129975537Y-96120243D01*
X129911119Y-96039548D01*
X129903051Y-96031367D01*
X129902916Y-96031201D01*
X129902762Y-96031074D01*
X129900162Y-96028437D01*
X129539363Y-95667637D01*
X129459586Y-95602108D01*
X129380507Y-95535753D01*
X129375356Y-95532921D01*
X129370816Y-95529192D01*
X129279831Y-95480406D01*
X129189369Y-95430674D01*
X129183769Y-95428898D01*
X129178589Y-95426120D01*
X129079863Y-95395937D01*
X128981462Y-95364722D01*
X128975621Y-95364067D01*
X128970002Y-95362349D01*
X128867314Y-95351918D01*
X128833853Y-95348165D01*
X128995187Y-94985803D01*
X129102295Y-94514366D01*
X129105903Y-94255938D01*
X132159245Y-94255938D01*
X132249615Y-94748324D01*
X132433902Y-95213779D01*
X132705086Y-95634576D01*
X133052839Y-95994685D01*
X133463915Y-96280390D01*
X133922656Y-96480808D01*
X134411588Y-96588307D01*
X134912088Y-96598791D01*
X135405093Y-96511861D01*
X135871824Y-96330828D01*
X136294503Y-96062588D01*
X136657031Y-95717357D01*
X136945599Y-95308286D01*
X137149215Y-94850956D01*
X137260125Y-94362786D01*
X137268109Y-93790995D01*
X137170873Y-93299919D01*
X136980106Y-92837081D01*
X136703072Y-92420113D01*
X136350325Y-92064894D01*
X135935300Y-91784957D01*
X135473806Y-91590962D01*
X134983421Y-91490301D01*
X134482823Y-91486806D01*
X133991080Y-91580611D01*
X133526922Y-91768143D01*
X133108029Y-92042258D01*
X132750357Y-92392517D01*
X132467529Y-92805577D01*
X132270317Y-93265706D01*
X132166235Y-93755377D01*
X132159245Y-94255938D01*
X129105903Y-94255938D01*
X129110006Y-93962175D01*
X129016103Y-93487931D01*
X128831874Y-93040959D01*
X128564337Y-92638283D01*
X128223681Y-92295240D01*
X127822882Y-92024898D01*
X127377207Y-91837553D01*
X126903630Y-91740342D01*
X126420191Y-91736967D01*
X125945304Y-91827556D01*
X125497056Y-92008660D01*
X125092522Y-92273380D01*
X124747110Y-92611633D01*
X124473976Y-93010534D01*
X124283525Y-93454891D01*
X124183010Y-93927777D01*
X124176260Y-94411181D01*
X124263532Y-94886689D01*
X124441502Y-95336190D01*
X124444151Y-95340300D01*
X120794357Y-95340300D01*
X120798599Y-95334286D01*
X121002215Y-94876956D01*
X121113125Y-94388786D01*
X121121109Y-93816995D01*
X121023873Y-93325919D01*
X120833106Y-92863081D01*
X120556072Y-92446113D01*
X120203325Y-92090894D01*
X119788300Y-91810957D01*
X119326806Y-91616962D01*
X118836421Y-91516301D01*
X118335823Y-91512806D01*
X117844080Y-91606611D01*
X117379922Y-91794143D01*
X116961029Y-92068258D01*
X116603357Y-92418517D01*
X116320529Y-92831577D01*
X116123317Y-93291706D01*
X116019235Y-93781377D01*
X116012245Y-94281938D01*
X116102615Y-94774324D01*
X116286902Y-95239779D01*
X116351683Y-95340300D01*
X104963100Y-95340300D01*
X104860413Y-95350369D01*
X104757516Y-95359371D01*
X104751868Y-95361012D01*
X104746024Y-95361585D01*
X104647244Y-95391408D01*
X104548059Y-95420224D01*
X104542841Y-95422929D01*
X104537216Y-95424627D01*
X104446109Y-95473070D01*
X104354411Y-95520601D01*
X104349815Y-95524270D01*
X104344630Y-95527027D01*
X104264671Y-95592240D01*
X104183948Y-95656681D01*
X104175767Y-95664749D01*
X104175601Y-95664884D01*
X104175474Y-95665038D01*
X104172838Y-95667637D01*
X103223837Y-96616637D01*
X103158308Y-96696414D01*
X103091953Y-96775493D01*
X103089121Y-96780644D01*
X103085392Y-96785184D01*
X103036606Y-96876169D01*
X102986874Y-96966631D01*
X102985098Y-96972231D01*
X102982320Y-96977411D01*
X102952137Y-97076137D01*
X102920922Y-97174538D01*
X102920267Y-97180379D01*
X102918549Y-97185998D01*
X102908118Y-97288686D01*
X102896609Y-97391296D01*
X102896529Y-97402785D01*
X102896507Y-97402999D01*
X102896526Y-97403198D01*
X102896500Y-97406900D01*
X102896500Y-98247254D01*
X102756085Y-98384759D01*
X102598933Y-98614274D01*
X102489353Y-98869943D01*
X102431519Y-99142027D01*
X102427636Y-99420163D01*
X102477849Y-99693756D01*
X102580248Y-99952385D01*
X102730931Y-100186199D01*
X102924159Y-100386292D01*
X103152572Y-100545044D01*
X103407470Y-100656406D01*
X103679143Y-100716137D01*
X103957245Y-100721962D01*
X104231181Y-100673660D01*
X104490519Y-100573070D01*
X104725380Y-100424023D01*
X104926817Y-100232196D01*
X105087159Y-100004897D01*
X105200298Y-99750783D01*
X105261924Y-99479533D01*
X105266361Y-99161819D01*
X105212332Y-98888954D01*
X105131700Y-98693325D01*
X105131700Y-97869826D01*
X105426025Y-97575500D01*
X106770097Y-97575500D01*
X106758719Y-97629027D01*
X106754836Y-97907163D01*
X106805049Y-98180756D01*
X106907448Y-98439385D01*
X107058131Y-98673199D01*
X107251359Y-98873292D01*
X107479772Y-99032044D01*
X107734670Y-99143406D01*
X107998500Y-99201413D01*
X107998500Y-103464975D01*
X106973174Y-104490300D01*
X102867052Y-104490300D01*
X102848597Y-104471716D01*
X102617990Y-104316169D01*
X102361562Y-104208377D01*
X102089081Y-104152445D01*
X101810925Y-104150503D01*
X101537689Y-104202625D01*
X101279781Y-104306827D01*
X101047025Y-104459138D01*
X100848285Y-104653759D01*
X100691133Y-104883274D01*
X100581553Y-105138943D01*
X100523719Y-105411027D01*
X100519836Y-105689163D01*
X100230300Y-105689163D01*
X100230300Y-75560100D01*
X153149900Y-75560100D01*
X153149900Y-128479700D01*
X153149900Y-128479700D01*
G37*
X153149900Y-128479700D02*
X100230300Y-128479700D01*
X100230300Y-122281938D01*
X103999245Y-122281938D01*
X104089615Y-122774324D01*
X104273902Y-123239779D01*
X104545086Y-123660576D01*
X104892839Y-124020685D01*
X105303915Y-124306390D01*
X105762656Y-124506808D01*
X106251588Y-124614307D01*
X106752088Y-124624791D01*
X107245093Y-124537861D01*
X107711824Y-124356828D01*
X108134503Y-124088588D01*
X108497031Y-123743357D01*
X108783473Y-123337300D01*
X110574448Y-123337300D01*
X112149074Y-124911926D01*
X112239755Y-124986412D01*
X112329592Y-125061794D01*
X112335446Y-125065012D01*
X112340605Y-125069250D01*
X112443944Y-125124660D01*
X112546794Y-125181202D01*
X112553164Y-125183223D01*
X112559045Y-125186376D01*
X112671188Y-125220662D01*
X112783052Y-125256147D01*
X112789688Y-125256891D01*
X112796075Y-125258844D01*
X112912790Y-125270700D01*
X113029368Y-125283776D01*
X113042423Y-125283867D01*
X113042666Y-125283892D01*
X113042893Y-125283871D01*
X113047100Y-125283900D01*
X144666700Y-125283900D01*
X144783463Y-125272451D01*
X144900318Y-125262228D01*
X144906732Y-125260365D01*
X144913378Y-125259713D01*
X145025662Y-125225812D01*
X145138337Y-125193077D01*
X145144268Y-125190002D01*
X145150659Y-125188073D01*
X145254249Y-125132994D01*
X145358391Y-125079011D01*
X145363607Y-125074847D01*
X145369507Y-125071710D01*
X145460443Y-124997545D01*
X145552100Y-124924376D01*
X145561399Y-124915207D01*
X145561585Y-124915055D01*
X145561728Y-124914883D01*
X145564726Y-124911926D01*
X145881955Y-124594697D01*
X146248588Y-124675307D01*
X146749088Y-124685791D01*
X147242093Y-124598861D01*
X147708824Y-124417828D01*
X148131503Y-124149588D01*
X148494031Y-123804357D01*
X148782599Y-123395286D01*
X148986215Y-122937956D01*
X149097125Y-122449786D01*
X149105109Y-121877995D01*
X149007873Y-121386919D01*
X149004154Y-121377897D01*
X149113125Y-121268926D01*
X149187587Y-121178275D01*
X149262994Y-121088408D01*
X149266212Y-121082554D01*
X149270450Y-121077395D01*
X149325860Y-120974056D01*
X149382402Y-120871206D01*
X149384423Y-120864836D01*
X149387576Y-120858955D01*
X149421862Y-120746812D01*
X149457347Y-120634948D01*
X149458091Y-120628312D01*
X149460044Y-120621925D01*
X149471900Y-120505210D01*
X149484976Y-120388632D01*
X149485067Y-120375577D01*
X149485092Y-120375334D01*
X149485071Y-120375107D01*
X149485100Y-120370900D01*
X149485100Y-83824100D01*
X149473646Y-83707287D01*
X149463427Y-83590482D01*
X149461565Y-83584073D01*
X149460913Y-83577422D01*
X149427004Y-83465110D01*
X149394277Y-83352462D01*
X149391202Y-83346529D01*
X149389273Y-83340141D01*
X149334203Y-83236570D01*
X149280211Y-83132409D01*
X149276047Y-83127193D01*
X149272910Y-83121293D01*
X149198745Y-83030357D01*
X149134567Y-82949962D01*
X149214125Y-82599786D01*
X149222109Y-82027995D01*
X149124873Y-81536919D01*
X148934106Y-81074081D01*
X148657072Y-80657113D01*
X148304325Y-80301894D01*
X147889300Y-80021957D01*
X147427806Y-79827962D01*
X146937421Y-79727301D01*
X146436823Y-79723806D01*
X145995118Y-79808066D01*
X145241926Y-79054874D01*
X145151218Y-78980366D01*
X145061408Y-78905006D01*
X145055558Y-78901790D01*
X145050395Y-78897549D01*
X144947017Y-78842119D01*
X144844206Y-78785598D01*
X144837836Y-78783577D01*
X144831955Y-78780424D01*
X144719812Y-78746138D01*
X144607948Y-78710653D01*
X144601312Y-78709909D01*
X144594925Y-78707956D01*
X144478210Y-78696100D01*
X144361632Y-78683024D01*
X144348577Y-78682933D01*
X144348334Y-78682908D01*
X144348107Y-78682929D01*
X144343900Y-78682900D01*
X108509100Y-78682900D01*
X108392337Y-78694349D01*
X108275482Y-78704572D01*
X108269068Y-78706435D01*
X108262422Y-78707087D01*
X108150138Y-78740988D01*
X108037463Y-78773723D01*
X108031532Y-78776798D01*
X108025141Y-78778727D01*
X107921551Y-78833806D01*
X107817409Y-78887789D01*
X107812193Y-78891953D01*
X107806293Y-78895090D01*
X107715357Y-78969255D01*
X107623700Y-79042424D01*
X107614401Y-79051593D01*
X107614215Y-79051745D01*
X107614072Y-79051917D01*
X107611074Y-79054874D01*
X107042171Y-79623777D01*
X106942421Y-79603301D01*
X106441823Y-79599806D01*
X105950080Y-79693611D01*
X105485922Y-79881143D01*
X105067029Y-80155258D01*
X104709357Y-80505517D01*
X104426529Y-80918577D01*
X104229317Y-81378706D01*
X104125235Y-81868377D01*
X104118245Y-82368938D01*
X104208615Y-82861324D01*
X104392902Y-83326779D01*
X104664086Y-83747576D01*
X105011839Y-84107685D01*
X105422915Y-84393390D01*
X105441100Y-84401335D01*
X105441100Y-88027900D01*
X105452549Y-88144663D01*
X105462772Y-88261518D01*
X105464635Y-88267932D01*
X105465287Y-88274578D01*
X105499188Y-88386862D01*
X105531923Y-88499537D01*
X105534998Y-88505468D01*
X105536927Y-88511859D01*
X105592006Y-88615449D01*
X105645989Y-88719591D01*
X105650153Y-88724807D01*
X105653290Y-88730707D01*
X105727455Y-88821643D01*
X105800624Y-88913300D01*
X105809793Y-88922599D01*
X105809945Y-88922785D01*
X105810117Y-88922928D01*
X105813074Y-88925926D01*
X106497074Y-89609926D01*
X106587755Y-89684412D01*
X106677592Y-89759794D01*
X106683446Y-89763012D01*
X106688605Y-89767250D01*
X106791944Y-89822660D01*
X106894794Y-89879202D01*
X106901164Y-89881223D01*
X106907045Y-89884376D01*
X107008806Y-89915488D01*
X107130261Y-89999901D01*
X107394144Y-90115189D01*
X107602043Y-90160899D01*
X107590311Y-90164441D01*
X107314563Y-90311059D01*
X107072544Y-90508445D01*
X106873474Y-90749080D01*
X106724935Y-91023798D01*
X106632584Y-91322135D01*
X106599939Y-91632729D01*
X106628244Y-91943748D01*
X106716420Y-92243345D01*
X106861110Y-92520111D01*
X107056801Y-92763501D01*
X107296040Y-92964247D01*
X107569714Y-93114700D01*
X107867400Y-93209132D01*
X108177758Y-93243944D01*
X108200100Y-93244100D01*
X109621100Y-93244100D01*
X109768208Y-93229676D01*
X109915459Y-93216793D01*
X109923541Y-93214445D01*
X109931914Y-93213624D01*
X110073439Y-93170896D01*
X110215362Y-93129663D01*
X110222829Y-93125792D01*
X110230889Y-93123359D01*
X110361423Y-93053953D01*
X110492632Y-92985941D01*
X110499209Y-92980690D01*
X110506637Y-92976741D01*
X110621176Y-92883325D01*
X110736704Y-92791100D01*
X110748411Y-92779554D01*
X110748656Y-92779355D01*
X110748843Y-92779129D01*
X110752612Y-92775412D01*
X111737612Y-91790413D01*
X111831434Y-91676192D01*
X111926447Y-91562960D01*
X111930502Y-91555584D01*
X111935841Y-91549084D01*
X112005688Y-91418821D01*
X112076900Y-91289286D01*
X112079443Y-91281268D01*
X112083421Y-91273850D01*
X112126647Y-91132466D01*
X112171332Y-90991600D01*
X112172270Y-90983239D01*
X112174730Y-90975192D01*
X112189667Y-90828143D01*
X112190196Y-90823421D01*
X112233481Y-90932746D01*
X112271888Y-91063241D01*
X112326533Y-91167767D01*
X112368902Y-91274779D01*
X112440810Y-91386358D01*
X112503832Y-91506909D01*
X112577734Y-91598825D01*
X112640086Y-91695576D01*
X112732306Y-91791072D01*
X112817535Y-91897076D01*
X112907878Y-91972882D01*
X112987839Y-92055685D01*
X113096852Y-92131451D01*
X113201047Y-92218881D01*
X113304396Y-92275698D01*
X113398915Y-92341390D01*
X113520560Y-92394535D01*
X113639760Y-92460066D01*
X113752186Y-92495730D01*
X113857656Y-92541808D01*
X113987302Y-92570313D01*
X114116965Y-92611444D01*
X114234175Y-92624591D01*
X114346588Y-92649307D01*
X114479304Y-92652087D01*
X114614484Y-92667250D01*
X114650300Y-92667500D01*
X114828700Y-92667500D01*
X115064567Y-92644373D01*
X115300572Y-92623725D01*
X115313522Y-92619963D01*
X115326950Y-92618646D01*
X115553786Y-92550160D01*
X115781333Y-92484052D01*
X115793312Y-92477843D01*
X115806222Y-92473945D01*
X116015421Y-92362712D01*
X116225808Y-92253658D01*
X116236349Y-92245243D01*
X116248260Y-92238910D01*
X116431904Y-92089133D01*
X116617068Y-91941319D01*
X116635836Y-91922810D01*
X116636228Y-91922491D01*
X116636528Y-91922128D01*
X116642570Y-91916170D01*
X119578640Y-88980100D01*
X133792560Y-88980100D01*
X136759326Y-91946866D01*
X136767535Y-91957076D01*
X136779971Y-91967511D01*
X139298900Y-94486440D01*
X139298900Y-109815959D01*
X136897430Y-112217430D01*
X136825436Y-112305077D01*
X136746357Y-112382517D01*
X136676338Y-112484778D01*
X136594719Y-112582047D01*
X136588220Y-112593869D01*
X136579659Y-112604291D01*
X136526059Y-112704254D01*
X136463529Y-112795577D01*
X136436411Y-112858848D01*
X133333560Y-115961700D01*
X119948440Y-115961700D01*
X118776942Y-114790202D01*
X118776871Y-114790130D01*
X116385170Y-112398430D01*
X116290545Y-112320704D01*
X116206325Y-112235894D01*
X116099920Y-112164123D01*
X115998309Y-112080659D01*
X115890385Y-112022791D01*
X115791300Y-111955957D01*
X115672988Y-111906223D01*
X115557094Y-111844081D01*
X115439984Y-111808277D01*
X115329806Y-111761962D01*
X115204089Y-111736156D01*
X115078331Y-111697708D01*
X114956491Y-111685332D01*
X114839421Y-111661301D01*
X114711092Y-111660405D01*
X114580254Y-111647115D01*
X114458330Y-111658640D01*
X114338823Y-111657806D01*
X114212759Y-111681854D01*
X114081837Y-111694230D01*
X113964479Y-111729216D01*
X113847080Y-111751611D01*
X113728084Y-111799688D01*
X113602063Y-111837257D01*
X113493738Y-111894370D01*
X113382922Y-111939143D01*
X113275525Y-112009421D01*
X113159207Y-112070749D01*
X113064045Y-112147810D01*
X112964029Y-112213258D01*
X112872327Y-112303059D01*
X112770137Y-112385811D01*
X112691751Y-112479893D01*
X112606357Y-112563517D01*
X112533847Y-112669415D01*
X112449673Y-112770444D01*
X112391053Y-112877960D01*
X112323529Y-112976577D01*
X112272969Y-113094543D01*
X112210021Y-113209997D01*
X112173401Y-113326851D01*
X112126317Y-113436706D01*
X112099634Y-113562240D01*
X112060309Y-113687726D01*
X112047083Y-113809476D01*
X112022235Y-113926377D01*
X112020443Y-114054704D01*
X112006241Y-114185438D01*
X112016914Y-114307428D01*
X112015245Y-114426938D01*
X112038414Y-114553178D01*
X112049875Y-114684172D01*
X112084039Y-114801766D01*
X112105615Y-114919324D01*
X112152860Y-115038651D01*
X112189548Y-115164933D01*
X112245907Y-115273661D01*
X112289902Y-115384779D01*
X112359423Y-115492655D01*
X112419942Y-115609408D01*
X112496342Y-115705113D01*
X112561086Y-115805576D01*
X112650243Y-115897901D01*
X112732281Y-116000668D01*
X112757430Y-116026170D01*
X115149130Y-118417871D01*
X115149136Y-118417876D01*
X117072030Y-120340770D01*
X117238974Y-120477900D01*
X114956952Y-120477900D01*
X113162020Y-118682968D01*
X113241125Y-118334786D01*
X113249109Y-117762995D01*
X113151873Y-117271919D01*
X112961106Y-116809081D01*
X112684072Y-116392113D01*
X112331325Y-116036894D01*
X111916300Y-115756957D01*
X111454806Y-115562962D01*
X110964421Y-115462301D01*
X110463823Y-115458806D01*
X109972080Y-115552611D01*
X109507922Y-115740143D01*
X109089029Y-116014258D01*
X108731357Y-116364517D01*
X108448529Y-116777577D01*
X108251317Y-117237706D01*
X108147235Y-117727377D01*
X108140245Y-118227938D01*
X108230615Y-118720324D01*
X108414902Y-119185779D01*
X108686086Y-119606576D01*
X109033839Y-119966685D01*
X109444915Y-120252390D01*
X109903656Y-120452808D01*
X110392588Y-120560307D01*
X110893088Y-120570791D01*
X111373100Y-120486152D01*
X113532874Y-122645926D01*
X113623582Y-122720434D01*
X113651547Y-122743900D01*
X113573152Y-122743900D01*
X111998526Y-121169274D01*
X111907818Y-121094766D01*
X111818008Y-121019406D01*
X111812158Y-121016190D01*
X111806995Y-121011949D01*
X111703617Y-120956519D01*
X111600806Y-120899998D01*
X111594436Y-120897977D01*
X111588555Y-120894824D01*
X111476412Y-120860538D01*
X111364548Y-120825053D01*
X111357912Y-120824309D01*
X111351525Y-120822356D01*
X111234810Y-120810500D01*
X111118232Y-120797424D01*
X111105177Y-120797333D01*
X111104934Y-120797308D01*
X111104707Y-120797329D01*
X111100500Y-120797300D01*
X108776401Y-120797300D01*
X108543072Y-120446113D01*
X108190325Y-120090894D01*
X107775300Y-119810957D01*
X107313806Y-119616962D01*
X106823421Y-119516301D01*
X106322823Y-119512806D01*
X105831080Y-119606611D01*
X105366922Y-119794143D01*
X104948029Y-120068258D01*
X104590357Y-120418517D01*
X104307529Y-120831577D01*
X104110317Y-121291706D01*
X104006235Y-121781377D01*
X103999245Y-122281938D01*
X100230300Y-122281938D01*
X100230300Y-111652748D01*
X100616609Y-111921240D01*
X101059625Y-112114789D01*
X101531798Y-112218603D01*
X102015143Y-112228727D01*
X102491249Y-112144777D01*
X102941981Y-111969949D01*
X103350172Y-111710904D01*
X103700274Y-111377506D01*
X103978950Y-110982457D01*
X104175587Y-110540803D01*
X104282695Y-110069366D01*
X104290406Y-109517175D01*
X104196503Y-109042931D01*
X104012274Y-108595959D01*
X103744737Y-108193283D01*
X103404081Y-107850240D01*
X103003282Y-107579898D01*
X102557607Y-107392553D01*
X102084030Y-107295342D01*
X101600591Y-107291967D01*
X101125704Y-107382556D01*
X100677456Y-107563660D01*
X100272922Y-107828380D01*
X100230300Y-107870119D01*
X100230300Y-105689163D01*
X100519836Y-105689163D01*
X100570049Y-105962756D01*
X100672448Y-106221385D01*
X100823131Y-106455199D01*
X101016359Y-106655292D01*
X101244772Y-106814044D01*
X101499670Y-106925406D01*
X101771343Y-106985137D01*
X102049445Y-106990962D01*
X102323381Y-106942660D01*
X102582719Y-106842070D01*
X102766404Y-106725500D01*
X107436100Y-106725500D01*
X107538783Y-106715432D01*
X107641684Y-106706429D01*
X107647332Y-106704788D01*
X107653176Y-106704215D01*
X107751956Y-106674392D01*
X107851141Y-106645576D01*
X107856359Y-106642871D01*
X107861984Y-106641173D01*
X107953130Y-106592709D01*
X108044789Y-106545198D01*
X108049382Y-106541532D01*
X108054570Y-106538773D01*
X108134557Y-106473537D01*
X108215252Y-106409119D01*
X108223437Y-106401048D01*
X108223599Y-106400916D01*
X108223723Y-106400766D01*
X108226363Y-106398163D01*
X109116100Y-105508426D01*
X111059415Y-107451740D01*
X110761607Y-107326553D01*
X110288030Y-107229342D01*
X109804591Y-107225967D01*
X109329704Y-107316556D01*
X108881456Y-107497660D01*
X108476922Y-107762380D01*
X108131510Y-108100633D01*
X107858376Y-108499534D01*
X107667925Y-108943891D01*
X107567410Y-109416777D01*
X107560660Y-109900181D01*
X107647932Y-110375689D01*
X107825902Y-110825190D01*
X108087791Y-111231563D01*
X108423624Y-111579328D01*
X108820609Y-111855240D01*
X109263625Y-112048789D01*
X109735798Y-112152603D01*
X110219143Y-112162727D01*
X110695249Y-112078777D01*
X111145981Y-111903949D01*
X111554172Y-111644904D01*
X111904274Y-111311506D01*
X112182950Y-110916457D01*
X112379587Y-110474803D01*
X112486695Y-110003366D01*
X112494406Y-109451175D01*
X112400503Y-108976931D01*
X112240265Y-108588166D01*
X112300330Y-108620373D01*
X112390831Y-108670126D01*
X112396431Y-108671902D01*
X112401611Y-108674680D01*
X112500350Y-108704867D01*
X112598738Y-108736078D01*
X112604578Y-108736733D01*
X112610197Y-108738451D01*
X112712891Y-108748882D01*
X112815496Y-108760391D01*
X112826985Y-108760471D01*
X112827199Y-108760493D01*
X112827398Y-108760474D01*
X112831100Y-108760500D01*
X116460817Y-108760500D01*
X116426529Y-108810577D01*
X116229317Y-109270706D01*
X116125235Y-109760377D01*
X116118245Y-110260938D01*
X116208615Y-110753324D01*
X116392902Y-111218779D01*
X116664086Y-111639576D01*
X117011839Y-111999685D01*
X117422915Y-112285390D01*
X117881656Y-112485808D01*
X118370588Y-112593307D01*
X118871088Y-112603791D01*
X119364093Y-112516861D01*
X119830824Y-112335828D01*
X120253503Y-112067588D01*
X120616031Y-111722357D01*
X120904599Y-111313286D01*
X121108215Y-110855956D01*
X121219125Y-110367786D01*
X121227109Y-109795995D01*
X121129873Y-109304919D01*
X120939106Y-108842081D01*
X120884903Y-108760500D01*
X124663940Y-108760500D01*
X124473976Y-109037934D01*
X124283525Y-109482291D01*
X124183010Y-109955177D01*
X124176260Y-110438581D01*
X124263532Y-110914089D01*
X124441502Y-111363590D01*
X124703391Y-111769963D01*
X125039224Y-112117728D01*
X125436209Y-112393640D01*
X125879225Y-112587189D01*
X126351398Y-112691003D01*
X126834743Y-112701127D01*
X127310849Y-112617177D01*
X127761581Y-112442349D01*
X128169772Y-112183304D01*
X128519874Y-111849906D01*
X128798550Y-111454857D01*
X128995187Y-111013203D01*
X129102295Y-110541766D01*
X129106049Y-110272938D01*
X132110245Y-110272938D01*
X132200615Y-110765324D01*
X132384902Y-111230779D01*
X132656086Y-111651576D01*
X133003839Y-112011685D01*
X133414915Y-112297390D01*
X133873656Y-112497808D01*
X134362588Y-112605307D01*
X134863088Y-112615791D01*
X135356093Y-112528861D01*
X135822824Y-112347828D01*
X136245503Y-112079588D01*
X136608031Y-111734357D01*
X136896599Y-111325286D01*
X137100215Y-110867956D01*
X137211125Y-110379786D01*
X137219109Y-109807995D01*
X137121873Y-109316919D01*
X136931106Y-108854081D01*
X136654072Y-108437113D01*
X136301325Y-108081894D01*
X135886300Y-107801957D01*
X135424806Y-107607962D01*
X134934421Y-107507301D01*
X134433823Y-107503806D01*
X133942080Y-107597611D01*
X133477922Y-107785143D01*
X133059029Y-108059258D01*
X132701357Y-108409517D01*
X132418529Y-108822577D01*
X132221317Y-109282706D01*
X132117235Y-109772377D01*
X132110245Y-110272938D01*
X129106049Y-110272938D01*
X129110006Y-109989575D01*
X129016103Y-109515331D01*
X128831874Y-109068359D01*
X128564337Y-108665683D01*
X128417356Y-108517672D01*
X128428557Y-108508537D01*
X128509252Y-108444119D01*
X128517437Y-108436048D01*
X128517599Y-108435916D01*
X128517723Y-108435766D01*
X128520363Y-108433163D01*
X129900163Y-107053362D01*
X129965671Y-106973611D01*
X130032047Y-106894507D01*
X130034879Y-106889356D01*
X130038608Y-106884816D01*
X130087394Y-106793831D01*
X130137126Y-106703369D01*
X130138902Y-106697769D01*
X130141680Y-106692589D01*
X130171863Y-106593863D01*
X130203078Y-106495462D01*
X130203733Y-106489621D01*
X130205451Y-106484002D01*
X130215882Y-106381314D01*
X130227391Y-106278704D01*
X130227471Y-106267215D01*
X130227493Y-106267001D01*
X130227474Y-106266802D01*
X130227500Y-106263100D01*
X130227500Y-104622594D01*
X130254770Y-104430700D01*
X130254770Y-103625700D01*
X130242513Y-103471995D01*
X130161779Y-103211296D01*
X130059408Y-103055941D01*
X130097338Y-103040230D01*
X130205371Y-102968045D01*
X130297245Y-102876170D01*
X130369430Y-102768138D01*
X130419152Y-102648098D01*
X130444500Y-102520665D01*
X130444500Y-102445600D01*
X130411081Y-102412181D01*
X132177260Y-102412181D01*
X132264532Y-102887689D01*
X132442502Y-103337190D01*
X132704391Y-103743563D01*
X133040224Y-104091328D01*
X133437209Y-104367240D01*
X133880225Y-104560789D01*
X134352398Y-104664603D01*
X134835743Y-104674727D01*
X135311849Y-104590777D01*
X135762581Y-104415949D01*
X136170772Y-104156904D01*
X136520874Y-103823506D01*
X136799550Y-103428457D01*
X136996187Y-102986803D01*
X137103295Y-102515366D01*
X137111006Y-101963175D01*
X137017103Y-101488931D01*
X136832874Y-101041959D01*
X136565337Y-100639283D01*
X136224681Y-100296240D01*
X135823882Y-100025898D01*
X135378207Y-99838553D01*
X134904630Y-99741342D01*
X134421191Y-99737967D01*
X133946304Y-99828556D01*
X133498056Y-100009660D01*
X133093522Y-100274380D01*
X132748110Y-100612633D01*
X132474976Y-101011534D01*
X132284525Y-101455891D01*
X132184010Y-101928777D01*
X132177260Y-102412181D01*
X130411081Y-102412181D01*
X130399536Y-102400636D01*
X130427190Y-102382413D01*
X130604219Y-102174704D01*
X130716372Y-101925899D01*
X130754770Y-101655700D01*
X130754770Y-101255700D01*
X130742513Y-101101995D01*
X130661779Y-100841296D01*
X130511613Y-100613410D01*
X130303904Y-100436381D01*
X130254770Y-100414233D01*
X130254770Y-100080700D01*
X130242513Y-99926995D01*
X130227500Y-99878516D01*
X130227500Y-96818700D01*
X130217427Y-96715967D01*
X130208428Y-96613116D01*
X130206788Y-96607473D01*
X130206215Y-96601624D01*
X130176365Y-96502756D01*
X130147575Y-96403659D01*
X130144873Y-96398446D01*
X130143173Y-96392816D01*
X130094691Y-96301634D01*
X130047198Y-96210011D01*
X130043532Y-96205418D01*
X130040773Y-96200230D01*
X129975537Y-96120243D01*
X129911119Y-96039548D01*
X129903051Y-96031367D01*
X129902916Y-96031201D01*
X129902762Y-96031074D01*
X129900162Y-96028437D01*
X129539363Y-95667637D01*
X129459586Y-95602108D01*
X129380507Y-95535753D01*
X129375356Y-95532921D01*
X129370816Y-95529192D01*
X129279831Y-95480406D01*
X129189369Y-95430674D01*
X129183769Y-95428898D01*
X129178589Y-95426120D01*
X129079863Y-95395937D01*
X128981462Y-95364722D01*
X128975621Y-95364067D01*
X128970002Y-95362349D01*
X128867314Y-95351918D01*
X128833853Y-95348165D01*
X128995187Y-94985803D01*
X129102295Y-94514366D01*
X129105903Y-94255938D01*
X132159245Y-94255938D01*
X132249615Y-94748324D01*
X132433902Y-95213779D01*
X132705086Y-95634576D01*
X133052839Y-95994685D01*
X133463915Y-96280390D01*
X133922656Y-96480808D01*
X134411588Y-96588307D01*
X134912088Y-96598791D01*
X135405093Y-96511861D01*
X135871824Y-96330828D01*
X136294503Y-96062588D01*
X136657031Y-95717357D01*
X136945599Y-95308286D01*
X137149215Y-94850956D01*
X137260125Y-94362786D01*
X137268109Y-93790995D01*
X137170873Y-93299919D01*
X136980106Y-92837081D01*
X136703072Y-92420113D01*
X136350325Y-92064894D01*
X135935300Y-91784957D01*
X135473806Y-91590962D01*
X134983421Y-91490301D01*
X134482823Y-91486806D01*
X133991080Y-91580611D01*
X133526922Y-91768143D01*
X133108029Y-92042258D01*
X132750357Y-92392517D01*
X132467529Y-92805577D01*
X132270317Y-93265706D01*
X132166235Y-93755377D01*
X132159245Y-94255938D01*
X129105903Y-94255938D01*
X129110006Y-93962175D01*
X129016103Y-93487931D01*
X128831874Y-93040959D01*
X128564337Y-92638283D01*
X128223681Y-92295240D01*
X127822882Y-92024898D01*
X127377207Y-91837553D01*
X126903630Y-91740342D01*
X126420191Y-91736967D01*
X125945304Y-91827556D01*
X125497056Y-92008660D01*
X125092522Y-92273380D01*
X124747110Y-92611633D01*
X124473976Y-93010534D01*
X124283525Y-93454891D01*
X124183010Y-93927777D01*
X124176260Y-94411181D01*
X124263532Y-94886689D01*
X124441502Y-95336190D01*
X124444151Y-95340300D01*
X120794357Y-95340300D01*
X120798599Y-95334286D01*
X121002215Y-94876956D01*
X121113125Y-94388786D01*
X121121109Y-93816995D01*
X121023873Y-93325919D01*
X120833106Y-92863081D01*
X120556072Y-92446113D01*
X120203325Y-92090894D01*
X119788300Y-91810957D01*
X119326806Y-91616962D01*
X118836421Y-91516301D01*
X118335823Y-91512806D01*
X117844080Y-91606611D01*
X117379922Y-91794143D01*
X116961029Y-92068258D01*
X116603357Y-92418517D01*
X116320529Y-92831577D01*
X116123317Y-93291706D01*
X116019235Y-93781377D01*
X116012245Y-94281938D01*
X116102615Y-94774324D01*
X116286902Y-95239779D01*
X116351683Y-95340300D01*
X104963100Y-95340300D01*
X104860413Y-95350369D01*
X104757516Y-95359371D01*
X104751868Y-95361012D01*
X104746024Y-95361585D01*
X104647244Y-95391408D01*
X104548059Y-95420224D01*
X104542841Y-95422929D01*
X104537216Y-95424627D01*
X104446109Y-95473070D01*
X104354411Y-95520601D01*
X104349815Y-95524270D01*
X104344630Y-95527027D01*
X104264671Y-95592240D01*
X104183948Y-95656681D01*
X104175767Y-95664749D01*
X104175601Y-95664884D01*
X104175474Y-95665038D01*
X104172838Y-95667637D01*
X103223837Y-96616637D01*
X103158308Y-96696414D01*
X103091953Y-96775493D01*
X103089121Y-96780644D01*
X103085392Y-96785184D01*
X103036606Y-96876169D01*
X102986874Y-96966631D01*
X102985098Y-96972231D01*
X102982320Y-96977411D01*
X102952137Y-97076137D01*
X102920922Y-97174538D01*
X102920267Y-97180379D01*
X102918549Y-97185998D01*
X102908118Y-97288686D01*
X102896609Y-97391296D01*
X102896529Y-97402785D01*
X102896507Y-97402999D01*
X102896526Y-97403198D01*
X102896500Y-97406900D01*
X102896500Y-98247254D01*
X102756085Y-98384759D01*
X102598933Y-98614274D01*
X102489353Y-98869943D01*
X102431519Y-99142027D01*
X102427636Y-99420163D01*
X102477849Y-99693756D01*
X102580248Y-99952385D01*
X102730931Y-100186199D01*
X102924159Y-100386292D01*
X103152572Y-100545044D01*
X103407470Y-100656406D01*
X103679143Y-100716137D01*
X103957245Y-100721962D01*
X104231181Y-100673660D01*
X104490519Y-100573070D01*
X104725380Y-100424023D01*
X104926817Y-100232196D01*
X105087159Y-100004897D01*
X105200298Y-99750783D01*
X105261924Y-99479533D01*
X105266361Y-99161819D01*
X105212332Y-98888954D01*
X105131700Y-98693325D01*
X105131700Y-97869826D01*
X105426025Y-97575500D01*
X106770097Y-97575500D01*
X106758719Y-97629027D01*
X106754836Y-97907163D01*
X106805049Y-98180756D01*
X106907448Y-98439385D01*
X107058131Y-98673199D01*
X107251359Y-98873292D01*
X107479772Y-99032044D01*
X107734670Y-99143406D01*
X107998500Y-99201413D01*
X107998500Y-103464975D01*
X106973174Y-104490300D01*
X102867052Y-104490300D01*
X102848597Y-104471716D01*
X102617990Y-104316169D01*
X102361562Y-104208377D01*
X102089081Y-104152445D01*
X101810925Y-104150503D01*
X101537689Y-104202625D01*
X101279781Y-104306827D01*
X101047025Y-104459138D01*
X100848285Y-104653759D01*
X100691133Y-104883274D01*
X100581553Y-105138943D01*
X100523719Y-105411027D01*
X100519836Y-105689163D01*
X100230300Y-105689163D01*
X100230300Y-75560100D01*
X153149900Y-75560100D01*
X153149900Y-128479700D01*
G36*
X128029756Y-101833522D02*
X128103021Y-102070104D01*
X128253187Y-102297990D01*
X128369110Y-102396790D01*
X128320300Y-102445600D01*
X128320300Y-102520665D01*
X128345648Y-102648098D01*
X128348851Y-102655830D01*
X128184900Y-102655830D01*
X128031195Y-102668087D01*
X127980853Y-102683677D01*
X127784900Y-102655830D01*
X127434900Y-102655830D01*
X127281195Y-102668087D01*
X127230853Y-102683677D01*
X127034900Y-102655830D01*
X126782540Y-102655830D01*
X126824430Y-102593138D01*
X126874152Y-102473098D01*
X126899500Y-102345665D01*
X126899500Y-102270600D01*
X126734600Y-102105700D01*
X125862400Y-102105700D01*
X125862400Y-102125700D01*
X125812400Y-102125700D01*
X125812400Y-102105700D01*
X125792400Y-102105700D01*
X125792400Y-102055700D01*
X125812400Y-102055700D01*
X125812400Y-102035700D01*
X125862400Y-102035700D01*
X125862400Y-102055700D01*
X126734600Y-102055700D01*
X126899500Y-101890800D01*
X126899500Y-101855570D01*
X127034900Y-101855570D01*
X127188605Y-101843313D01*
X127238947Y-101827723D01*
X127434900Y-101855570D01*
X127784900Y-101855570D01*
X127938605Y-101843313D01*
X127988947Y-101827723D01*
X128029756Y-101833522D01*
X128029756Y-101833522D01*
G37*
X128029756Y-101833522D02*
X128103021Y-102070104D01*
X128253187Y-102297990D01*
X128369110Y-102396790D01*
X128320300Y-102445600D01*
X128320300Y-102520665D01*
X128345648Y-102648098D01*
X128348851Y-102655830D01*
X128184900Y-102655830D01*
X128031195Y-102668087D01*
X127980853Y-102683677D01*
X127784900Y-102655830D01*
X127434900Y-102655830D01*
X127281195Y-102668087D01*
X127230853Y-102683677D01*
X127034900Y-102655830D01*
X126782540Y-102655830D01*
X126824430Y-102593138D01*
X126874152Y-102473098D01*
X126899500Y-102345665D01*
X126899500Y-102270600D01*
X126734600Y-102105700D01*
X125862400Y-102105700D01*
X125862400Y-102125700D01*
X125812400Y-102125700D01*
X125812400Y-102105700D01*
X125792400Y-102105700D01*
X125792400Y-102055700D01*
X125812400Y-102055700D01*
X125812400Y-102035700D01*
X125862400Y-102035700D01*
X125862400Y-102055700D01*
X126734600Y-102055700D01*
X126899500Y-101890800D01*
X126899500Y-101855570D01*
X127034900Y-101855570D01*
X127188605Y-101843313D01*
X127238947Y-101827723D01*
X127434900Y-101855570D01*
X127784900Y-101855570D01*
X127938605Y-101843313D01*
X127988947Y-101827723D01*
X128029756Y-101833522D01*
M02*
