G04 #@! TF.FileFunction,Legend,Top*
%FSLAX46Y46*%
G04 Gerber Fmt 4.6, Leading zero omitted, Abs format (unit mm)*
G04 Created by KiCad (PCBNEW 4.0.6) date 05/08/17 07:18:31*
%MOMM*%
%LPD*%
G01*
G04 APERTURE LIST*
%ADD10C,0.100000*%
%ADD11C,0.101600*%
%ADD12C,0.127000*%
%ADD13C,0.002032*%
%ADD14C,0.081280*%
%ADD15C,0.032512*%
G04 APERTURE END LIST*
D10*
D11*
X101138100Y-124217898D02*
G75*
G03X108838100Y-124217900I3850000J872599D01*
G01*
X109088100Y-124167900D02*
X109088100Y-127442900D01*
X109088100Y-127442900D02*
X101688100Y-127442900D01*
X101688100Y-127442900D02*
X100888100Y-126642900D01*
X100888100Y-120042900D02*
X101688100Y-119242900D01*
X101688100Y-119242900D02*
X109088100Y-119242900D01*
X109088100Y-119242900D02*
X109088100Y-122492900D01*
X108838100Y-122467902D02*
G75*
G03X101138100Y-122467900I-3850000J-872599D01*
G01*
D12*
X100453100Y-117935900D02*
X100453100Y-117687900D01*
X100453100Y-117687900D02*
X100453100Y-114941900D01*
X100453100Y-114941900D02*
X108058100Y-114941900D01*
X108058100Y-114941900D02*
X108058100Y-115147900D01*
X108058100Y-115147900D02*
X108058100Y-115205400D01*
X108058100Y-115147900D02*
X108058100Y-118141900D01*
X108058100Y-118141900D02*
X100453100Y-118141900D01*
X100453100Y-118141900D02*
X100453100Y-117687900D01*
X103924600Y-116986400D02*
X103924600Y-116097400D01*
X103924600Y-116097400D02*
X103543600Y-116541900D01*
X103543600Y-116541900D02*
X103924600Y-116986400D01*
X103543600Y-116986400D02*
X103543600Y-116097400D01*
D11*
X126371348Y-104123206D02*
X125796824Y-104525372D01*
X126371348Y-104812634D02*
X125164848Y-104812634D01*
X125164848Y-104353015D01*
X125222300Y-104238110D01*
X125279752Y-104180658D01*
X125394657Y-104123206D01*
X125567014Y-104123206D01*
X125681919Y-104180658D01*
X125739371Y-104238110D01*
X125796824Y-104353015D01*
X125796824Y-104812634D01*
X125279752Y-103663586D02*
X125222300Y-103606134D01*
X125164848Y-103491229D01*
X125164848Y-103203967D01*
X125222300Y-103089063D01*
X125279752Y-103031610D01*
X125394657Y-102974158D01*
X125509562Y-102974158D01*
X125681919Y-103031610D01*
X126371348Y-103721039D01*
X126371348Y-102974158D01*
X125279752Y-102514538D02*
X125222300Y-102457086D01*
X125164848Y-102342181D01*
X125164848Y-102054919D01*
X125222300Y-101940015D01*
X125279752Y-101882562D01*
X125394657Y-101825110D01*
X125509562Y-101825110D01*
X125681919Y-101882562D01*
X126371348Y-102571991D01*
X126371348Y-101825110D01*
X121469752Y-104812634D02*
X121412300Y-104755182D01*
X121354848Y-104640277D01*
X121354848Y-104353015D01*
X121412300Y-104238111D01*
X121469752Y-104180658D01*
X121584657Y-104123206D01*
X121699562Y-104123206D01*
X121871919Y-104180658D01*
X122561348Y-104870087D01*
X122561348Y-104123206D01*
X121469752Y-103663586D02*
X121412300Y-103606134D01*
X121354848Y-103491229D01*
X121354848Y-103203967D01*
X121412300Y-103089063D01*
X121469752Y-103031610D01*
X121584657Y-102974158D01*
X121699562Y-102974158D01*
X121871919Y-103031610D01*
X122561348Y-103721039D01*
X122561348Y-102974158D01*
X121354848Y-102227277D02*
X121354848Y-102112372D01*
X121412300Y-101997467D01*
X121469752Y-101940015D01*
X121584657Y-101882562D01*
X121814467Y-101825110D01*
X122101729Y-101825110D01*
X122331538Y-101882562D01*
X122446443Y-101940015D01*
X122503895Y-101997467D01*
X122561348Y-102112372D01*
X122561348Y-102227277D01*
X122503895Y-102342181D01*
X122446443Y-102399634D01*
X122331538Y-102457086D01*
X122101729Y-102514538D01*
X121814467Y-102514538D01*
X121584657Y-102457086D01*
X121469752Y-102399634D01*
X121412300Y-102342181D01*
X121354848Y-102227277D01*
D13*
X137443598Y-115403021D02*
X137457387Y-115403021D01*
X137450492Y-115427151D02*
X137450492Y-115403021D01*
X137465430Y-115427151D02*
X137465430Y-115403021D01*
X137474623Y-115403021D01*
X137476921Y-115404170D01*
X137478070Y-115405319D01*
X137479219Y-115407617D01*
X137479219Y-115411064D01*
X137478070Y-115413362D01*
X137476921Y-115414511D01*
X137474623Y-115415660D01*
X137465430Y-115415660D01*
X137497604Y-115414511D02*
X137501051Y-115415660D01*
X137502200Y-115416810D01*
X137503349Y-115419108D01*
X137503349Y-115422555D01*
X137502200Y-115424853D01*
X137501051Y-115426002D01*
X137498753Y-115427151D01*
X137489560Y-115427151D01*
X137489560Y-115403021D01*
X137497604Y-115403021D01*
X137499902Y-115404170D01*
X137501051Y-115405319D01*
X137502200Y-115407617D01*
X137502200Y-115409915D01*
X137501051Y-115412213D01*
X137499902Y-115413362D01*
X137497604Y-115414511D01*
X137489560Y-115414511D01*
X137512541Y-115405319D02*
X137513690Y-115404170D01*
X137515988Y-115403021D01*
X137521734Y-115403021D01*
X137524032Y-115404170D01*
X137525181Y-115405319D01*
X137526330Y-115407617D01*
X137526330Y-115409915D01*
X137525181Y-115413362D01*
X137511392Y-115427151D01*
X137526330Y-115427151D01*
X137537820Y-115426002D02*
X137537820Y-115427151D01*
X137536671Y-115429449D01*
X137535522Y-115430598D01*
X137559652Y-115403021D02*
X137548161Y-115403021D01*
X137547012Y-115414511D01*
X137548161Y-115413362D01*
X137550459Y-115412213D01*
X137556205Y-115412213D01*
X137558503Y-115413362D01*
X137559652Y-115414511D01*
X137560801Y-115416810D01*
X137560801Y-115422555D01*
X137559652Y-115424853D01*
X137558503Y-115426002D01*
X137556205Y-115427151D01*
X137550459Y-115427151D01*
X137548161Y-115426002D01*
X137547012Y-115424853D01*
X137581484Y-115411064D02*
X137581484Y-115427151D01*
X137575738Y-115401872D02*
X137569993Y-115419108D01*
X137584931Y-115419108D01*
X113303598Y-115584021D02*
X113317387Y-115584021D01*
X113310492Y-115608151D02*
X113310492Y-115584021D01*
X113325430Y-115608151D02*
X113325430Y-115584021D01*
X113334623Y-115584021D01*
X113336921Y-115585170D01*
X113338070Y-115586319D01*
X113339219Y-115588617D01*
X113339219Y-115592064D01*
X113338070Y-115594362D01*
X113336921Y-115595511D01*
X113334623Y-115596660D01*
X113325430Y-115596660D01*
X113357604Y-115595511D02*
X113361051Y-115596660D01*
X113362200Y-115597810D01*
X113363349Y-115600108D01*
X113363349Y-115603555D01*
X113362200Y-115605853D01*
X113361051Y-115607002D01*
X113358753Y-115608151D01*
X113349560Y-115608151D01*
X113349560Y-115584021D01*
X113357604Y-115584021D01*
X113359902Y-115585170D01*
X113361051Y-115586319D01*
X113362200Y-115588617D01*
X113362200Y-115590915D01*
X113361051Y-115593213D01*
X113359902Y-115594362D01*
X113357604Y-115595511D01*
X113349560Y-115595511D01*
X113372541Y-115586319D02*
X113373690Y-115585170D01*
X113375988Y-115584021D01*
X113381734Y-115584021D01*
X113384032Y-115585170D01*
X113385181Y-115586319D01*
X113386330Y-115588617D01*
X113386330Y-115590915D01*
X113385181Y-115594362D01*
X113371392Y-115608151D01*
X113386330Y-115608151D01*
X113397820Y-115607002D02*
X113397820Y-115608151D01*
X113396671Y-115610449D01*
X113395522Y-115611598D01*
X113419652Y-115584021D02*
X113408161Y-115584021D01*
X113407012Y-115595511D01*
X113408161Y-115594362D01*
X113410459Y-115593213D01*
X113416205Y-115593213D01*
X113418503Y-115594362D01*
X113419652Y-115595511D01*
X113420801Y-115597810D01*
X113420801Y-115603555D01*
X113419652Y-115605853D01*
X113418503Y-115607002D01*
X113416205Y-115608151D01*
X113410459Y-115608151D01*
X113408161Y-115607002D01*
X113407012Y-115605853D01*
X113441484Y-115592064D02*
X113441484Y-115608151D01*
X113435738Y-115582872D02*
X113429993Y-115600108D01*
X113444931Y-115600108D01*
X137332598Y-91534021D02*
X137346387Y-91534021D01*
X137339492Y-91558151D02*
X137339492Y-91534021D01*
X137354430Y-91558151D02*
X137354430Y-91534021D01*
X137363623Y-91534021D01*
X137365921Y-91535170D01*
X137367070Y-91536319D01*
X137368219Y-91538617D01*
X137368219Y-91542064D01*
X137367070Y-91544362D01*
X137365921Y-91545511D01*
X137363623Y-91546660D01*
X137354430Y-91546660D01*
X137386604Y-91545511D02*
X137390051Y-91546660D01*
X137391200Y-91547810D01*
X137392349Y-91550108D01*
X137392349Y-91553555D01*
X137391200Y-91555853D01*
X137390051Y-91557002D01*
X137387753Y-91558151D01*
X137378560Y-91558151D01*
X137378560Y-91534021D01*
X137386604Y-91534021D01*
X137388902Y-91535170D01*
X137390051Y-91536319D01*
X137391200Y-91538617D01*
X137391200Y-91540915D01*
X137390051Y-91543213D01*
X137388902Y-91544362D01*
X137386604Y-91545511D01*
X137378560Y-91545511D01*
X137401541Y-91536319D02*
X137402690Y-91535170D01*
X137404988Y-91534021D01*
X137410734Y-91534021D01*
X137413032Y-91535170D01*
X137414181Y-91536319D01*
X137415330Y-91538617D01*
X137415330Y-91540915D01*
X137414181Y-91544362D01*
X137400392Y-91558151D01*
X137415330Y-91558151D01*
X137426820Y-91557002D02*
X137426820Y-91558151D01*
X137425671Y-91560449D01*
X137424522Y-91561598D01*
X137448652Y-91534021D02*
X137437161Y-91534021D01*
X137436012Y-91545511D01*
X137437161Y-91544362D01*
X137439459Y-91543213D01*
X137445205Y-91543213D01*
X137447503Y-91544362D01*
X137448652Y-91545511D01*
X137449801Y-91547810D01*
X137449801Y-91553555D01*
X137448652Y-91555853D01*
X137447503Y-91557002D01*
X137445205Y-91558151D01*
X137439459Y-91558151D01*
X137437161Y-91557002D01*
X137436012Y-91555853D01*
X137470484Y-91542064D02*
X137470484Y-91558151D01*
X137464738Y-91532872D02*
X137458993Y-91550108D01*
X137473931Y-91550108D01*
X113382598Y-91474021D02*
X113396387Y-91474021D01*
X113389492Y-91498151D02*
X113389492Y-91474021D01*
X113404430Y-91498151D02*
X113404430Y-91474021D01*
X113413623Y-91474021D01*
X113415921Y-91475170D01*
X113417070Y-91476319D01*
X113418219Y-91478617D01*
X113418219Y-91482064D01*
X113417070Y-91484362D01*
X113415921Y-91485511D01*
X113413623Y-91486660D01*
X113404430Y-91486660D01*
X113436604Y-91485511D02*
X113440051Y-91486660D01*
X113441200Y-91487810D01*
X113442349Y-91490108D01*
X113442349Y-91493555D01*
X113441200Y-91495853D01*
X113440051Y-91497002D01*
X113437753Y-91498151D01*
X113428560Y-91498151D01*
X113428560Y-91474021D01*
X113436604Y-91474021D01*
X113438902Y-91475170D01*
X113440051Y-91476319D01*
X113441200Y-91478617D01*
X113441200Y-91480915D01*
X113440051Y-91483213D01*
X113438902Y-91484362D01*
X113436604Y-91485511D01*
X113428560Y-91485511D01*
X113451541Y-91476319D02*
X113452690Y-91475170D01*
X113454988Y-91474021D01*
X113460734Y-91474021D01*
X113463032Y-91475170D01*
X113464181Y-91476319D01*
X113465330Y-91478617D01*
X113465330Y-91480915D01*
X113464181Y-91484362D01*
X113450392Y-91498151D01*
X113465330Y-91498151D01*
X113476820Y-91497002D02*
X113476820Y-91498151D01*
X113475671Y-91500449D01*
X113474522Y-91501598D01*
X113498652Y-91474021D02*
X113487161Y-91474021D01*
X113486012Y-91485511D01*
X113487161Y-91484362D01*
X113489459Y-91483213D01*
X113495205Y-91483213D01*
X113497503Y-91484362D01*
X113498652Y-91485511D01*
X113499801Y-91487810D01*
X113499801Y-91493555D01*
X113498652Y-91495853D01*
X113497503Y-91497002D01*
X113495205Y-91498151D01*
X113489459Y-91498151D01*
X113487161Y-91497002D01*
X113486012Y-91495853D01*
X113520484Y-91482064D02*
X113520484Y-91498151D01*
X113514738Y-91472872D02*
X113508993Y-91490108D01*
X113523931Y-91490108D01*
X133398598Y-111430021D02*
X133412387Y-111430021D01*
X133405492Y-111454151D02*
X133405492Y-111430021D01*
X133420430Y-111454151D02*
X133420430Y-111430021D01*
X133429623Y-111430021D01*
X133431921Y-111431170D01*
X133433070Y-111432319D01*
X133434219Y-111434617D01*
X133434219Y-111438064D01*
X133433070Y-111440362D01*
X133431921Y-111441511D01*
X133429623Y-111442660D01*
X133420430Y-111442660D01*
X133452604Y-111441511D02*
X133456051Y-111442660D01*
X133457200Y-111443810D01*
X133458349Y-111446108D01*
X133458349Y-111449555D01*
X133457200Y-111451853D01*
X133456051Y-111453002D01*
X133453753Y-111454151D01*
X133444560Y-111454151D01*
X133444560Y-111430021D01*
X133452604Y-111430021D01*
X133454902Y-111431170D01*
X133456051Y-111432319D01*
X133457200Y-111434617D01*
X133457200Y-111436915D01*
X133456051Y-111439213D01*
X133454902Y-111440362D01*
X133452604Y-111441511D01*
X133444560Y-111441511D01*
X133467541Y-111432319D02*
X133468690Y-111431170D01*
X133470988Y-111430021D01*
X133476734Y-111430021D01*
X133479032Y-111431170D01*
X133480181Y-111432319D01*
X133481330Y-111434617D01*
X133481330Y-111436915D01*
X133480181Y-111440362D01*
X133466392Y-111454151D01*
X133481330Y-111454151D01*
X133492820Y-111453002D02*
X133492820Y-111454151D01*
X133491671Y-111456449D01*
X133490522Y-111457598D01*
X133514652Y-111430021D02*
X133503161Y-111430021D01*
X133502012Y-111441511D01*
X133503161Y-111440362D01*
X133505459Y-111439213D01*
X133511205Y-111439213D01*
X133513503Y-111440362D01*
X133514652Y-111441511D01*
X133515801Y-111443810D01*
X133515801Y-111449555D01*
X133514652Y-111451853D01*
X133513503Y-111453002D01*
X133511205Y-111454151D01*
X133505459Y-111454151D01*
X133503161Y-111453002D01*
X133502012Y-111451853D01*
X133536484Y-111438064D02*
X133536484Y-111454151D01*
X133530738Y-111428872D02*
X133524993Y-111446108D01*
X133539931Y-111446108D01*
X117406598Y-111418021D02*
X117420387Y-111418021D01*
X117413492Y-111442151D02*
X117413492Y-111418021D01*
X117428430Y-111442151D02*
X117428430Y-111418021D01*
X117437623Y-111418021D01*
X117439921Y-111419170D01*
X117441070Y-111420319D01*
X117442219Y-111422617D01*
X117442219Y-111426064D01*
X117441070Y-111428362D01*
X117439921Y-111429511D01*
X117437623Y-111430660D01*
X117428430Y-111430660D01*
X117460604Y-111429511D02*
X117464051Y-111430660D01*
X117465200Y-111431810D01*
X117466349Y-111434108D01*
X117466349Y-111437555D01*
X117465200Y-111439853D01*
X117464051Y-111441002D01*
X117461753Y-111442151D01*
X117452560Y-111442151D01*
X117452560Y-111418021D01*
X117460604Y-111418021D01*
X117462902Y-111419170D01*
X117464051Y-111420319D01*
X117465200Y-111422617D01*
X117465200Y-111424915D01*
X117464051Y-111427213D01*
X117462902Y-111428362D01*
X117460604Y-111429511D01*
X117452560Y-111429511D01*
X117475541Y-111420319D02*
X117476690Y-111419170D01*
X117478988Y-111418021D01*
X117484734Y-111418021D01*
X117487032Y-111419170D01*
X117488181Y-111420319D01*
X117489330Y-111422617D01*
X117489330Y-111424915D01*
X117488181Y-111428362D01*
X117474392Y-111442151D01*
X117489330Y-111442151D01*
X117500820Y-111441002D02*
X117500820Y-111442151D01*
X117499671Y-111444449D01*
X117498522Y-111445598D01*
X117522652Y-111418021D02*
X117511161Y-111418021D01*
X117510012Y-111429511D01*
X117511161Y-111428362D01*
X117513459Y-111427213D01*
X117519205Y-111427213D01*
X117521503Y-111428362D01*
X117522652Y-111429511D01*
X117523801Y-111431810D01*
X117523801Y-111437555D01*
X117522652Y-111439853D01*
X117521503Y-111441002D01*
X117519205Y-111442151D01*
X117513459Y-111442151D01*
X117511161Y-111441002D01*
X117510012Y-111439853D01*
X117544484Y-111426064D02*
X117544484Y-111442151D01*
X117538738Y-111416872D02*
X117532993Y-111434108D01*
X117547931Y-111434108D01*
X133447598Y-95413021D02*
X133461387Y-95413021D01*
X133454492Y-95437151D02*
X133454492Y-95413021D01*
X133469430Y-95437151D02*
X133469430Y-95413021D01*
X133478623Y-95413021D01*
X133480921Y-95414170D01*
X133482070Y-95415319D01*
X133483219Y-95417617D01*
X133483219Y-95421064D01*
X133482070Y-95423362D01*
X133480921Y-95424511D01*
X133478623Y-95425660D01*
X133469430Y-95425660D01*
X133501604Y-95424511D02*
X133505051Y-95425660D01*
X133506200Y-95426810D01*
X133507349Y-95429108D01*
X133507349Y-95432555D01*
X133506200Y-95434853D01*
X133505051Y-95436002D01*
X133502753Y-95437151D01*
X133493560Y-95437151D01*
X133493560Y-95413021D01*
X133501604Y-95413021D01*
X133503902Y-95414170D01*
X133505051Y-95415319D01*
X133506200Y-95417617D01*
X133506200Y-95419915D01*
X133505051Y-95422213D01*
X133503902Y-95423362D01*
X133501604Y-95424511D01*
X133493560Y-95424511D01*
X133516541Y-95415319D02*
X133517690Y-95414170D01*
X133519988Y-95413021D01*
X133525734Y-95413021D01*
X133528032Y-95414170D01*
X133529181Y-95415319D01*
X133530330Y-95417617D01*
X133530330Y-95419915D01*
X133529181Y-95423362D01*
X133515392Y-95437151D01*
X133530330Y-95437151D01*
X133541820Y-95436002D02*
X133541820Y-95437151D01*
X133540671Y-95439449D01*
X133539522Y-95440598D01*
X133563652Y-95413021D02*
X133552161Y-95413021D01*
X133551012Y-95424511D01*
X133552161Y-95423362D01*
X133554459Y-95422213D01*
X133560205Y-95422213D01*
X133562503Y-95423362D01*
X133563652Y-95424511D01*
X133564801Y-95426810D01*
X133564801Y-95432555D01*
X133563652Y-95434853D01*
X133562503Y-95436002D01*
X133560205Y-95437151D01*
X133554459Y-95437151D01*
X133552161Y-95436002D01*
X133551012Y-95434853D01*
X133585484Y-95421064D02*
X133585484Y-95437151D01*
X133579738Y-95411872D02*
X133573993Y-95429108D01*
X133588931Y-95429108D01*
X117300598Y-95439021D02*
X117314387Y-95439021D01*
X117307492Y-95463151D02*
X117307492Y-95439021D01*
X117322430Y-95463151D02*
X117322430Y-95439021D01*
X117331623Y-95439021D01*
X117333921Y-95440170D01*
X117335070Y-95441319D01*
X117336219Y-95443617D01*
X117336219Y-95447064D01*
X117335070Y-95449362D01*
X117333921Y-95450511D01*
X117331623Y-95451660D01*
X117322430Y-95451660D01*
X117354604Y-95450511D02*
X117358051Y-95451660D01*
X117359200Y-95452810D01*
X117360349Y-95455108D01*
X117360349Y-95458555D01*
X117359200Y-95460853D01*
X117358051Y-95462002D01*
X117355753Y-95463151D01*
X117346560Y-95463151D01*
X117346560Y-95439021D01*
X117354604Y-95439021D01*
X117356902Y-95440170D01*
X117358051Y-95441319D01*
X117359200Y-95443617D01*
X117359200Y-95445915D01*
X117358051Y-95448213D01*
X117356902Y-95449362D01*
X117354604Y-95450511D01*
X117346560Y-95450511D01*
X117369541Y-95441319D02*
X117370690Y-95440170D01*
X117372988Y-95439021D01*
X117378734Y-95439021D01*
X117381032Y-95440170D01*
X117382181Y-95441319D01*
X117383330Y-95443617D01*
X117383330Y-95445915D01*
X117382181Y-95449362D01*
X117368392Y-95463151D01*
X117383330Y-95463151D01*
X117394820Y-95462002D02*
X117394820Y-95463151D01*
X117393671Y-95465449D01*
X117392522Y-95466598D01*
X117416652Y-95439021D02*
X117405161Y-95439021D01*
X117404012Y-95450511D01*
X117405161Y-95449362D01*
X117407459Y-95448213D01*
X117413205Y-95448213D01*
X117415503Y-95449362D01*
X117416652Y-95450511D01*
X117417801Y-95452810D01*
X117417801Y-95458555D01*
X117416652Y-95460853D01*
X117415503Y-95462002D01*
X117413205Y-95463151D01*
X117407459Y-95463151D01*
X117405161Y-95462002D01*
X117404012Y-95460853D01*
X117438484Y-95447064D02*
X117438484Y-95463151D01*
X117432738Y-95437872D02*
X117426993Y-95455108D01*
X117441931Y-95455108D01*
X105406598Y-83526021D02*
X105420387Y-83526021D01*
X105413492Y-83550151D02*
X105413492Y-83526021D01*
X105428430Y-83550151D02*
X105428430Y-83526021D01*
X105437623Y-83526021D01*
X105439921Y-83527170D01*
X105441070Y-83528319D01*
X105442219Y-83530617D01*
X105442219Y-83534064D01*
X105441070Y-83536362D01*
X105439921Y-83537511D01*
X105437623Y-83538660D01*
X105428430Y-83538660D01*
X105460604Y-83537511D02*
X105464051Y-83538660D01*
X105465200Y-83539810D01*
X105466349Y-83542108D01*
X105466349Y-83545555D01*
X105465200Y-83547853D01*
X105464051Y-83549002D01*
X105461753Y-83550151D01*
X105452560Y-83550151D01*
X105452560Y-83526021D01*
X105460604Y-83526021D01*
X105462902Y-83527170D01*
X105464051Y-83528319D01*
X105465200Y-83530617D01*
X105465200Y-83532915D01*
X105464051Y-83535213D01*
X105462902Y-83536362D01*
X105460604Y-83537511D01*
X105452560Y-83537511D01*
X105475541Y-83528319D02*
X105476690Y-83527170D01*
X105478988Y-83526021D01*
X105484734Y-83526021D01*
X105487032Y-83527170D01*
X105488181Y-83528319D01*
X105489330Y-83530617D01*
X105489330Y-83532915D01*
X105488181Y-83536362D01*
X105474392Y-83550151D01*
X105489330Y-83550151D01*
X105500820Y-83549002D02*
X105500820Y-83550151D01*
X105499671Y-83552449D01*
X105498522Y-83553598D01*
X105522652Y-83526021D02*
X105511161Y-83526021D01*
X105510012Y-83537511D01*
X105511161Y-83536362D01*
X105513459Y-83535213D01*
X105519205Y-83535213D01*
X105521503Y-83536362D01*
X105522652Y-83537511D01*
X105523801Y-83539810D01*
X105523801Y-83545555D01*
X105522652Y-83547853D01*
X105521503Y-83549002D01*
X105519205Y-83550151D01*
X105513459Y-83550151D01*
X105511161Y-83549002D01*
X105510012Y-83547853D01*
X105544484Y-83534064D02*
X105544484Y-83550151D01*
X105538738Y-83524872D02*
X105532993Y-83542108D01*
X105547931Y-83542108D01*
X105287598Y-123439021D02*
X105301387Y-123439021D01*
X105294492Y-123463151D02*
X105294492Y-123439021D01*
X105309430Y-123463151D02*
X105309430Y-123439021D01*
X105318623Y-123439021D01*
X105320921Y-123440170D01*
X105322070Y-123441319D01*
X105323219Y-123443617D01*
X105323219Y-123447064D01*
X105322070Y-123449362D01*
X105320921Y-123450511D01*
X105318623Y-123451660D01*
X105309430Y-123451660D01*
X105341604Y-123450511D02*
X105345051Y-123451660D01*
X105346200Y-123452810D01*
X105347349Y-123455108D01*
X105347349Y-123458555D01*
X105346200Y-123460853D01*
X105345051Y-123462002D01*
X105342753Y-123463151D01*
X105333560Y-123463151D01*
X105333560Y-123439021D01*
X105341604Y-123439021D01*
X105343902Y-123440170D01*
X105345051Y-123441319D01*
X105346200Y-123443617D01*
X105346200Y-123445915D01*
X105345051Y-123448213D01*
X105343902Y-123449362D01*
X105341604Y-123450511D01*
X105333560Y-123450511D01*
X105356541Y-123441319D02*
X105357690Y-123440170D01*
X105359988Y-123439021D01*
X105365734Y-123439021D01*
X105368032Y-123440170D01*
X105369181Y-123441319D01*
X105370330Y-123443617D01*
X105370330Y-123445915D01*
X105369181Y-123449362D01*
X105355392Y-123463151D01*
X105370330Y-123463151D01*
X105381820Y-123462002D02*
X105381820Y-123463151D01*
X105380671Y-123465449D01*
X105379522Y-123466598D01*
X105403652Y-123439021D02*
X105392161Y-123439021D01*
X105391012Y-123450511D01*
X105392161Y-123449362D01*
X105394459Y-123448213D01*
X105400205Y-123448213D01*
X105402503Y-123449362D01*
X105403652Y-123450511D01*
X105404801Y-123452810D01*
X105404801Y-123458555D01*
X105403652Y-123460853D01*
X105402503Y-123462002D01*
X105400205Y-123463151D01*
X105394459Y-123463151D01*
X105392161Y-123462002D01*
X105391012Y-123460853D01*
X105425484Y-123447064D02*
X105425484Y-123463151D01*
X105419738Y-123437872D02*
X105413993Y-123455108D01*
X105428931Y-123455108D01*
X145284598Y-123500021D02*
X145298387Y-123500021D01*
X145291492Y-123524151D02*
X145291492Y-123500021D01*
X145306430Y-123524151D02*
X145306430Y-123500021D01*
X145315623Y-123500021D01*
X145317921Y-123501170D01*
X145319070Y-123502319D01*
X145320219Y-123504617D01*
X145320219Y-123508064D01*
X145319070Y-123510362D01*
X145317921Y-123511511D01*
X145315623Y-123512660D01*
X145306430Y-123512660D01*
X145338604Y-123511511D02*
X145342051Y-123512660D01*
X145343200Y-123513810D01*
X145344349Y-123516108D01*
X145344349Y-123519555D01*
X145343200Y-123521853D01*
X145342051Y-123523002D01*
X145339753Y-123524151D01*
X145330560Y-123524151D01*
X145330560Y-123500021D01*
X145338604Y-123500021D01*
X145340902Y-123501170D01*
X145342051Y-123502319D01*
X145343200Y-123504617D01*
X145343200Y-123506915D01*
X145342051Y-123509213D01*
X145340902Y-123510362D01*
X145338604Y-123511511D01*
X145330560Y-123511511D01*
X145353541Y-123502319D02*
X145354690Y-123501170D01*
X145356988Y-123500021D01*
X145362734Y-123500021D01*
X145365032Y-123501170D01*
X145366181Y-123502319D01*
X145367330Y-123504617D01*
X145367330Y-123506915D01*
X145366181Y-123510362D01*
X145352392Y-123524151D01*
X145367330Y-123524151D01*
X145378820Y-123523002D02*
X145378820Y-123524151D01*
X145377671Y-123526449D01*
X145376522Y-123527598D01*
X145400652Y-123500021D02*
X145389161Y-123500021D01*
X145388012Y-123511511D01*
X145389161Y-123510362D01*
X145391459Y-123509213D01*
X145397205Y-123509213D01*
X145399503Y-123510362D01*
X145400652Y-123511511D01*
X145401801Y-123513810D01*
X145401801Y-123519555D01*
X145400652Y-123521853D01*
X145399503Y-123523002D01*
X145397205Y-123524151D01*
X145391459Y-123524151D01*
X145389161Y-123523002D01*
X145388012Y-123521853D01*
X145422484Y-123508064D02*
X145422484Y-123524151D01*
X145416738Y-123498872D02*
X145410993Y-123516108D01*
X145425931Y-123516108D01*
X145401598Y-83650021D02*
X145415387Y-83650021D01*
X145408492Y-83674151D02*
X145408492Y-83650021D01*
X145423430Y-83674151D02*
X145423430Y-83650021D01*
X145432623Y-83650021D01*
X145434921Y-83651170D01*
X145436070Y-83652319D01*
X145437219Y-83654617D01*
X145437219Y-83658064D01*
X145436070Y-83660362D01*
X145434921Y-83661511D01*
X145432623Y-83662660D01*
X145423430Y-83662660D01*
X145455604Y-83661511D02*
X145459051Y-83662660D01*
X145460200Y-83663810D01*
X145461349Y-83666108D01*
X145461349Y-83669555D01*
X145460200Y-83671853D01*
X145459051Y-83673002D01*
X145456753Y-83674151D01*
X145447560Y-83674151D01*
X145447560Y-83650021D01*
X145455604Y-83650021D01*
X145457902Y-83651170D01*
X145459051Y-83652319D01*
X145460200Y-83654617D01*
X145460200Y-83656915D01*
X145459051Y-83659213D01*
X145457902Y-83660362D01*
X145455604Y-83661511D01*
X145447560Y-83661511D01*
X145470541Y-83652319D02*
X145471690Y-83651170D01*
X145473988Y-83650021D01*
X145479734Y-83650021D01*
X145482032Y-83651170D01*
X145483181Y-83652319D01*
X145484330Y-83654617D01*
X145484330Y-83656915D01*
X145483181Y-83660362D01*
X145469392Y-83674151D01*
X145484330Y-83674151D01*
X145495820Y-83673002D02*
X145495820Y-83674151D01*
X145494671Y-83676449D01*
X145493522Y-83677598D01*
X145517652Y-83650021D02*
X145506161Y-83650021D01*
X145505012Y-83661511D01*
X145506161Y-83660362D01*
X145508459Y-83659213D01*
X145514205Y-83659213D01*
X145516503Y-83660362D01*
X145517652Y-83661511D01*
X145518801Y-83663810D01*
X145518801Y-83669555D01*
X145517652Y-83671853D01*
X145516503Y-83673002D01*
X145514205Y-83674151D01*
X145508459Y-83674151D01*
X145506161Y-83673002D01*
X145505012Y-83671853D01*
X145539484Y-83658064D02*
X145539484Y-83674151D01*
X145533738Y-83648872D02*
X145527993Y-83666108D01*
X145542931Y-83666108D01*
X109283598Y-87462021D02*
X109297387Y-87462021D01*
X109290492Y-87486151D02*
X109290492Y-87462021D01*
X109305430Y-87486151D02*
X109305430Y-87462021D01*
X109314623Y-87462021D01*
X109316921Y-87463170D01*
X109318070Y-87464319D01*
X109319219Y-87466617D01*
X109319219Y-87470064D01*
X109318070Y-87472362D01*
X109316921Y-87473511D01*
X109314623Y-87474660D01*
X109305430Y-87474660D01*
X109337604Y-87473511D02*
X109341051Y-87474660D01*
X109342200Y-87475810D01*
X109343349Y-87478108D01*
X109343349Y-87481555D01*
X109342200Y-87483853D01*
X109341051Y-87485002D01*
X109338753Y-87486151D01*
X109329560Y-87486151D01*
X109329560Y-87462021D01*
X109337604Y-87462021D01*
X109339902Y-87463170D01*
X109341051Y-87464319D01*
X109342200Y-87466617D01*
X109342200Y-87468915D01*
X109341051Y-87471213D01*
X109339902Y-87472362D01*
X109337604Y-87473511D01*
X109329560Y-87473511D01*
X109352541Y-87464319D02*
X109353690Y-87463170D01*
X109355988Y-87462021D01*
X109361734Y-87462021D01*
X109364032Y-87463170D01*
X109365181Y-87464319D01*
X109366330Y-87466617D01*
X109366330Y-87468915D01*
X109365181Y-87472362D01*
X109351392Y-87486151D01*
X109366330Y-87486151D01*
X109377820Y-87485002D02*
X109377820Y-87486151D01*
X109376671Y-87488449D01*
X109375522Y-87489598D01*
X109399652Y-87462021D02*
X109388161Y-87462021D01*
X109387012Y-87473511D01*
X109388161Y-87472362D01*
X109390459Y-87471213D01*
X109396205Y-87471213D01*
X109398503Y-87472362D01*
X109399652Y-87473511D01*
X109400801Y-87475810D01*
X109400801Y-87481555D01*
X109399652Y-87483853D01*
X109398503Y-87485002D01*
X109396205Y-87486151D01*
X109390459Y-87486151D01*
X109388161Y-87485002D01*
X109387012Y-87483853D01*
X109421484Y-87470064D02*
X109421484Y-87486151D01*
X109415738Y-87460872D02*
X109409993Y-87478108D01*
X109424931Y-87478108D01*
X109428598Y-119385021D02*
X109442387Y-119385021D01*
X109435492Y-119409151D02*
X109435492Y-119385021D01*
X109450430Y-119409151D02*
X109450430Y-119385021D01*
X109459623Y-119385021D01*
X109461921Y-119386170D01*
X109463070Y-119387319D01*
X109464219Y-119389617D01*
X109464219Y-119393064D01*
X109463070Y-119395362D01*
X109461921Y-119396511D01*
X109459623Y-119397660D01*
X109450430Y-119397660D01*
X109482604Y-119396511D02*
X109486051Y-119397660D01*
X109487200Y-119398810D01*
X109488349Y-119401108D01*
X109488349Y-119404555D01*
X109487200Y-119406853D01*
X109486051Y-119408002D01*
X109483753Y-119409151D01*
X109474560Y-119409151D01*
X109474560Y-119385021D01*
X109482604Y-119385021D01*
X109484902Y-119386170D01*
X109486051Y-119387319D01*
X109487200Y-119389617D01*
X109487200Y-119391915D01*
X109486051Y-119394213D01*
X109484902Y-119395362D01*
X109482604Y-119396511D01*
X109474560Y-119396511D01*
X109497541Y-119387319D02*
X109498690Y-119386170D01*
X109500988Y-119385021D01*
X109506734Y-119385021D01*
X109509032Y-119386170D01*
X109510181Y-119387319D01*
X109511330Y-119389617D01*
X109511330Y-119391915D01*
X109510181Y-119395362D01*
X109496392Y-119409151D01*
X109511330Y-119409151D01*
X109522820Y-119408002D02*
X109522820Y-119409151D01*
X109521671Y-119411449D01*
X109520522Y-119412598D01*
X109544652Y-119385021D02*
X109533161Y-119385021D01*
X109532012Y-119396511D01*
X109533161Y-119395362D01*
X109535459Y-119394213D01*
X109541205Y-119394213D01*
X109543503Y-119395362D01*
X109544652Y-119396511D01*
X109545801Y-119398810D01*
X109545801Y-119404555D01*
X109544652Y-119406853D01*
X109543503Y-119408002D01*
X109541205Y-119409151D01*
X109535459Y-119409151D01*
X109533161Y-119408002D01*
X109532012Y-119406853D01*
X109566484Y-119393064D02*
X109566484Y-119409151D01*
X109560738Y-119383872D02*
X109554993Y-119401108D01*
X109569931Y-119401108D01*
X141247598Y-119412021D02*
X141261387Y-119412021D01*
X141254492Y-119436151D02*
X141254492Y-119412021D01*
X141269430Y-119436151D02*
X141269430Y-119412021D01*
X141278623Y-119412021D01*
X141280921Y-119413170D01*
X141282070Y-119414319D01*
X141283219Y-119416617D01*
X141283219Y-119420064D01*
X141282070Y-119422362D01*
X141280921Y-119423511D01*
X141278623Y-119424660D01*
X141269430Y-119424660D01*
X141301604Y-119423511D02*
X141305051Y-119424660D01*
X141306200Y-119425810D01*
X141307349Y-119428108D01*
X141307349Y-119431555D01*
X141306200Y-119433853D01*
X141305051Y-119435002D01*
X141302753Y-119436151D01*
X141293560Y-119436151D01*
X141293560Y-119412021D01*
X141301604Y-119412021D01*
X141303902Y-119413170D01*
X141305051Y-119414319D01*
X141306200Y-119416617D01*
X141306200Y-119418915D01*
X141305051Y-119421213D01*
X141303902Y-119422362D01*
X141301604Y-119423511D01*
X141293560Y-119423511D01*
X141316541Y-119414319D02*
X141317690Y-119413170D01*
X141319988Y-119412021D01*
X141325734Y-119412021D01*
X141328032Y-119413170D01*
X141329181Y-119414319D01*
X141330330Y-119416617D01*
X141330330Y-119418915D01*
X141329181Y-119422362D01*
X141315392Y-119436151D01*
X141330330Y-119436151D01*
X141341820Y-119435002D02*
X141341820Y-119436151D01*
X141340671Y-119438449D01*
X141339522Y-119439598D01*
X141363652Y-119412021D02*
X141352161Y-119412021D01*
X141351012Y-119423511D01*
X141352161Y-119422362D01*
X141354459Y-119421213D01*
X141360205Y-119421213D01*
X141362503Y-119422362D01*
X141363652Y-119423511D01*
X141364801Y-119425810D01*
X141364801Y-119431555D01*
X141363652Y-119433853D01*
X141362503Y-119435002D01*
X141360205Y-119436151D01*
X141354459Y-119436151D01*
X141352161Y-119435002D01*
X141351012Y-119433853D01*
X141385484Y-119420064D02*
X141385484Y-119436151D01*
X141379738Y-119410872D02*
X141373993Y-119428108D01*
X141388931Y-119428108D01*
X141412598Y-87380021D02*
X141426387Y-87380021D01*
X141419492Y-87404151D02*
X141419492Y-87380021D01*
X141434430Y-87404151D02*
X141434430Y-87380021D01*
X141443623Y-87380021D01*
X141445921Y-87381170D01*
X141447070Y-87382319D01*
X141448219Y-87384617D01*
X141448219Y-87388064D01*
X141447070Y-87390362D01*
X141445921Y-87391511D01*
X141443623Y-87392660D01*
X141434430Y-87392660D01*
X141466604Y-87391511D02*
X141470051Y-87392660D01*
X141471200Y-87393810D01*
X141472349Y-87396108D01*
X141472349Y-87399555D01*
X141471200Y-87401853D01*
X141470051Y-87403002D01*
X141467753Y-87404151D01*
X141458560Y-87404151D01*
X141458560Y-87380021D01*
X141466604Y-87380021D01*
X141468902Y-87381170D01*
X141470051Y-87382319D01*
X141471200Y-87384617D01*
X141471200Y-87386915D01*
X141470051Y-87389213D01*
X141468902Y-87390362D01*
X141466604Y-87391511D01*
X141458560Y-87391511D01*
X141481541Y-87382319D02*
X141482690Y-87381170D01*
X141484988Y-87380021D01*
X141490734Y-87380021D01*
X141493032Y-87381170D01*
X141494181Y-87382319D01*
X141495330Y-87384617D01*
X141495330Y-87386915D01*
X141494181Y-87390362D01*
X141480392Y-87404151D01*
X141495330Y-87404151D01*
X141506820Y-87403002D02*
X141506820Y-87404151D01*
X141505671Y-87406449D01*
X141504522Y-87407598D01*
X141528652Y-87380021D02*
X141517161Y-87380021D01*
X141516012Y-87391511D01*
X141517161Y-87390362D01*
X141519459Y-87389213D01*
X141525205Y-87389213D01*
X141527503Y-87390362D01*
X141528652Y-87391511D01*
X141529801Y-87393810D01*
X141529801Y-87399555D01*
X141528652Y-87401853D01*
X141527503Y-87403002D01*
X141525205Y-87404151D01*
X141519459Y-87404151D01*
X141517161Y-87403002D01*
X141516012Y-87401853D01*
X141550484Y-87388064D02*
X141550484Y-87404151D01*
X141544738Y-87378872D02*
X141538993Y-87396108D01*
X141553931Y-87396108D01*
D11*
X126257048Y-101812410D02*
X125682524Y-102214576D01*
X126257048Y-102501838D02*
X125050548Y-102501838D01*
X125050548Y-102042219D01*
X125108000Y-101927314D01*
X125165452Y-101869862D01*
X125280357Y-101812410D01*
X125452714Y-101812410D01*
X125567619Y-101869862D01*
X125625071Y-101927314D01*
X125682524Y-102042219D01*
X125682524Y-102501838D01*
X126257048Y-101237886D02*
X126257048Y-101008076D01*
X126199595Y-100893171D01*
X126142143Y-100835719D01*
X125969786Y-100720814D01*
X125739976Y-100663362D01*
X125280357Y-100663362D01*
X125165452Y-100720814D01*
X125108000Y-100778267D01*
X125050548Y-100893171D01*
X125050548Y-101122981D01*
X125108000Y-101237886D01*
X125165452Y-101295338D01*
X125280357Y-101352790D01*
X125567619Y-101352790D01*
X125682524Y-101295338D01*
X125739976Y-101237886D01*
X125797429Y-101122981D01*
X125797429Y-100893171D01*
X125739976Y-100778267D01*
X125682524Y-100720814D01*
X125567619Y-100663362D01*
X128975452Y-102559290D02*
X128918000Y-102501838D01*
X128860548Y-102386933D01*
X128860548Y-102099671D01*
X128918000Y-101984767D01*
X128975452Y-101927314D01*
X129090357Y-101869862D01*
X129205262Y-101869862D01*
X129377619Y-101927314D01*
X130067048Y-102616743D01*
X130067048Y-101869862D01*
X128975452Y-101410242D02*
X128918000Y-101352790D01*
X128860548Y-101237885D01*
X128860548Y-100950623D01*
X128918000Y-100835719D01*
X128975452Y-100778266D01*
X129090357Y-100720814D01*
X129205262Y-100720814D01*
X129377619Y-100778266D01*
X130067048Y-101467695D01*
X130067048Y-100720814D01*
X128860548Y-99973933D02*
X128860548Y-99859028D01*
X128918000Y-99744123D01*
X128975452Y-99686671D01*
X129090357Y-99629218D01*
X129320167Y-99571766D01*
X129607429Y-99571766D01*
X129837238Y-99629218D01*
X129952143Y-99686671D01*
X130009595Y-99744123D01*
X130067048Y-99859028D01*
X130067048Y-99973933D01*
X130009595Y-100088837D01*
X129952143Y-100146290D01*
X129837238Y-100203742D01*
X129607429Y-100261194D01*
X129320167Y-100261194D01*
X129090357Y-100203742D01*
X128975452Y-100146290D01*
X128918000Y-100088837D01*
X128860548Y-99973933D01*
X101062394Y-106278948D02*
X100660228Y-105704424D01*
X100372966Y-106278948D02*
X100372966Y-105072448D01*
X100832585Y-105072448D01*
X100947490Y-105129900D01*
X101004942Y-105187352D01*
X101062394Y-105302257D01*
X101062394Y-105474614D01*
X101004942Y-105589519D01*
X100947490Y-105646971D01*
X100832585Y-105704424D01*
X100372966Y-105704424D01*
X101522014Y-105187352D02*
X101579466Y-105129900D01*
X101694371Y-105072448D01*
X101981633Y-105072448D01*
X102096537Y-105129900D01*
X102153990Y-105187352D01*
X102211442Y-105302257D01*
X102211442Y-105417162D01*
X102153990Y-105589519D01*
X101464561Y-106278948D01*
X102211442Y-106278948D01*
X103245585Y-105474614D02*
X103245585Y-106278948D01*
X102958323Y-105014995D02*
X102671062Y-105876781D01*
X103417942Y-105876781D01*
X100545323Y-101664614D02*
X100545323Y-102468948D01*
X100258061Y-101204995D02*
X99970800Y-102066781D01*
X100717680Y-102066781D01*
X101177300Y-102354043D02*
X101234752Y-102411495D01*
X101177300Y-102468948D01*
X101119848Y-102411495D01*
X101177300Y-102354043D01*
X101177300Y-102468948D01*
X101636919Y-101262448D02*
X102441252Y-101262448D01*
X101924181Y-102468948D01*
X102900872Y-102468948D02*
X102900872Y-101262448D01*
X103015777Y-102009329D02*
X103360491Y-102468948D01*
X103360491Y-101664614D02*
X102900872Y-102124233D01*
X101004994Y-103351348D02*
X100602828Y-102776824D01*
X100315566Y-103351348D02*
X100315566Y-102144848D01*
X100775185Y-102144848D01*
X100890090Y-102202300D01*
X100947542Y-102259752D01*
X101004994Y-102374657D01*
X101004994Y-102547014D01*
X100947542Y-102661919D01*
X100890090Y-102719371D01*
X100775185Y-102776824D01*
X100315566Y-102776824D01*
X101464614Y-102259752D02*
X101522066Y-102202300D01*
X101636971Y-102144848D01*
X101924233Y-102144848D01*
X102039137Y-102202300D01*
X102096590Y-102259752D01*
X102154042Y-102374657D01*
X102154042Y-102489562D01*
X102096590Y-102661919D01*
X101407161Y-103351348D01*
X102154042Y-103351348D01*
X103245638Y-102144848D02*
X102671114Y-102144848D01*
X102613662Y-102719371D01*
X102671114Y-102661919D01*
X102786019Y-102604467D01*
X103073281Y-102604467D01*
X103188185Y-102661919D01*
X103245638Y-102719371D01*
X103303090Y-102834276D01*
X103303090Y-103121538D01*
X103245638Y-103236443D01*
X103188185Y-103293895D01*
X103073281Y-103351348D01*
X102786019Y-103351348D01*
X102671114Y-103293895D01*
X102613662Y-103236443D01*
X100487923Y-98737014D02*
X100487923Y-99541348D01*
X100200661Y-98277395D02*
X99913400Y-99139181D01*
X100660280Y-99139181D01*
X101119900Y-99426443D02*
X101177352Y-99483895D01*
X101119900Y-99541348D01*
X101062448Y-99483895D01*
X101119900Y-99426443D01*
X101119900Y-99541348D01*
X101579519Y-98334848D02*
X102383852Y-98334848D01*
X101866781Y-99541348D01*
X102843472Y-99541348D02*
X102843472Y-98334848D01*
X102958377Y-99081729D02*
X103303091Y-99541348D01*
X103303091Y-98737014D02*
X102843472Y-99196633D01*
X145912229Y-122003571D02*
X146084586Y-122061024D01*
X146142038Y-122118476D01*
X146199490Y-122233381D01*
X146199490Y-122405738D01*
X146142038Y-122520643D01*
X146084586Y-122578095D01*
X145969681Y-122635548D01*
X145510062Y-122635548D01*
X145510062Y-121429048D01*
X145912229Y-121429048D01*
X146027133Y-121486500D01*
X146084586Y-121543952D01*
X146142038Y-121658857D01*
X146142038Y-121773762D01*
X146084586Y-121888667D01*
X146027133Y-121946119D01*
X145912229Y-122003571D01*
X145510062Y-122003571D01*
X146659110Y-122290833D02*
X147233633Y-122290833D01*
X146544205Y-122635548D02*
X146946371Y-121429048D01*
X147348538Y-122635548D01*
X147578348Y-121429048D02*
X148267776Y-121429048D01*
X147923062Y-122635548D02*
X147923062Y-121429048D01*
X148497586Y-121429048D02*
X149187014Y-121429048D01*
X148842300Y-122635548D02*
X148842300Y-121429048D01*
X149589181Y-122003571D02*
X149991348Y-122003571D01*
X150163705Y-122635548D02*
X149589181Y-122635548D01*
X149589181Y-121429048D01*
X150163705Y-121429048D01*
X151370204Y-122635548D02*
X150968038Y-122061024D01*
X150680776Y-122635548D02*
X150680776Y-121429048D01*
X151140395Y-121429048D01*
X151255300Y-121486500D01*
X151312752Y-121543952D01*
X151370204Y-121658857D01*
X151370204Y-121831214D01*
X151312752Y-121946119D01*
X151255300Y-122003571D01*
X151140395Y-122061024D01*
X150680776Y-122061024D01*
X152117085Y-122061024D02*
X152117085Y-122635548D01*
X151714919Y-121429048D02*
X152117085Y-122061024D01*
X152519252Y-121429048D01*
X152921419Y-122175929D02*
X153840657Y-122175929D01*
X153381038Y-122635548D02*
X153381038Y-121716310D01*
D13*
X145270445Y-123799751D02*
X145270445Y-123775621D01*
X145279638Y-123775621D01*
X145281936Y-123776770D01*
X145283085Y-123777919D01*
X145284234Y-123780217D01*
X145284234Y-123783664D01*
X145283085Y-123785962D01*
X145281936Y-123787111D01*
X145279638Y-123788260D01*
X145270445Y-123788260D01*
X145291128Y-123775621D02*
X145304917Y-123775621D01*
X145298022Y-123799751D02*
X145298022Y-123775621D01*
X145326749Y-123799751D02*
X145318705Y-123788260D01*
X145312960Y-123799751D02*
X145312960Y-123775621D01*
X145322153Y-123775621D01*
X145324451Y-123776770D01*
X145325600Y-123777919D01*
X145326749Y-123780217D01*
X145326749Y-123783664D01*
X145325600Y-123785962D01*
X145324451Y-123787111D01*
X145322153Y-123788260D01*
X145312960Y-123788260D01*
X145349730Y-123799751D02*
X145335941Y-123799751D01*
X145342835Y-123799751D02*
X145342835Y-123775621D01*
X145340537Y-123779068D01*
X145338239Y-123781366D01*
X145335941Y-123782515D01*
X145356624Y-123775621D02*
X145370413Y-123775621D01*
X145363518Y-123799751D02*
X145363518Y-123775621D01*
X145378456Y-123799751D02*
X145378456Y-123775621D01*
X145387649Y-123775621D01*
X145389947Y-123776770D01*
X145391096Y-123777919D01*
X145392245Y-123780217D01*
X145392245Y-123783664D01*
X145391096Y-123785962D01*
X145389947Y-123787111D01*
X145387649Y-123788260D01*
X145378456Y-123788260D01*
X145415226Y-123799751D02*
X145401437Y-123799751D01*
X145408331Y-123799751D02*
X145408331Y-123775621D01*
X145406033Y-123779068D01*
X145403735Y-123781366D01*
X145401437Y-123782515D01*
X145438207Y-123799751D02*
X145424418Y-123799751D01*
X145431312Y-123799751D02*
X145431312Y-123775621D01*
X145429014Y-123779068D01*
X145426716Y-123781366D01*
X145424418Y-123782515D01*
X145462337Y-123799751D02*
X145454293Y-123788260D01*
X145448548Y-123799751D02*
X145448548Y-123775621D01*
X145457741Y-123775621D01*
X145460039Y-123776770D01*
X145461188Y-123777919D01*
X145462337Y-123780217D01*
X145462337Y-123783664D01*
X145461188Y-123785962D01*
X145460039Y-123787111D01*
X145457741Y-123788260D01*
X145448548Y-123788260D01*
D11*
X145894029Y-126137571D02*
X146066386Y-126195024D01*
X146123838Y-126252476D01*
X146181290Y-126367381D01*
X146181290Y-126539738D01*
X146123838Y-126654643D01*
X146066386Y-126712095D01*
X145951481Y-126769548D01*
X145491862Y-126769548D01*
X145491862Y-125563048D01*
X145894029Y-125563048D01*
X146008933Y-125620500D01*
X146066386Y-125677952D01*
X146123838Y-125792857D01*
X146123838Y-125907762D01*
X146066386Y-126022667D01*
X146008933Y-126080119D01*
X145894029Y-126137571D01*
X145491862Y-126137571D01*
X146640910Y-126424833D02*
X147215433Y-126424833D01*
X146526005Y-126769548D02*
X146928171Y-125563048D01*
X147330338Y-126769548D01*
X147560148Y-125563048D02*
X148249576Y-125563048D01*
X147904862Y-126769548D02*
X147904862Y-125563048D01*
X148479386Y-125563048D02*
X149168814Y-125563048D01*
X148824100Y-126769548D02*
X148824100Y-125563048D01*
X149570981Y-126137571D02*
X149973148Y-126137571D01*
X150145505Y-126769548D02*
X149570981Y-126769548D01*
X149570981Y-125563048D01*
X150145505Y-125563048D01*
X151352004Y-126769548D02*
X150949838Y-126195024D01*
X150662576Y-126769548D02*
X150662576Y-125563048D01*
X151122195Y-125563048D01*
X151237100Y-125620500D01*
X151294552Y-125677952D01*
X151352004Y-125792857D01*
X151352004Y-125965214D01*
X151294552Y-126080119D01*
X151237100Y-126137571D01*
X151122195Y-126195024D01*
X150662576Y-126195024D01*
X152098885Y-126195024D02*
X152098885Y-126769548D01*
X151696719Y-125563048D02*
X152098885Y-126195024D01*
X152501052Y-125563048D01*
X152903219Y-126309929D02*
X153822457Y-126309929D01*
D13*
X145252245Y-127933751D02*
X145252245Y-127909621D01*
X145261438Y-127909621D01*
X145263736Y-127910770D01*
X145264885Y-127911919D01*
X145266034Y-127914217D01*
X145266034Y-127917664D01*
X145264885Y-127919962D01*
X145263736Y-127921111D01*
X145261438Y-127922260D01*
X145252245Y-127922260D01*
X145272928Y-127909621D02*
X145286717Y-127909621D01*
X145279822Y-127933751D02*
X145279822Y-127909621D01*
X145308549Y-127933751D02*
X145300505Y-127922260D01*
X145294760Y-127933751D02*
X145294760Y-127909621D01*
X145303953Y-127909621D01*
X145306251Y-127910770D01*
X145307400Y-127911919D01*
X145308549Y-127914217D01*
X145308549Y-127917664D01*
X145307400Y-127919962D01*
X145306251Y-127921111D01*
X145303953Y-127922260D01*
X145294760Y-127922260D01*
X145331530Y-127933751D02*
X145317741Y-127933751D01*
X145324635Y-127933751D02*
X145324635Y-127909621D01*
X145322337Y-127913068D01*
X145320039Y-127915366D01*
X145317741Y-127916515D01*
X145338424Y-127909621D02*
X145352213Y-127909621D01*
X145345318Y-127933751D02*
X145345318Y-127909621D01*
X145360256Y-127933751D02*
X145360256Y-127909621D01*
X145369449Y-127909621D01*
X145371747Y-127910770D01*
X145372896Y-127911919D01*
X145374045Y-127914217D01*
X145374045Y-127917664D01*
X145372896Y-127919962D01*
X145371747Y-127921111D01*
X145369449Y-127922260D01*
X145360256Y-127922260D01*
X145397026Y-127933751D02*
X145383237Y-127933751D01*
X145390131Y-127933751D02*
X145390131Y-127909621D01*
X145387833Y-127913068D01*
X145385535Y-127915366D01*
X145383237Y-127916515D01*
X145420007Y-127933751D02*
X145406218Y-127933751D01*
X145413112Y-127933751D02*
X145413112Y-127909621D01*
X145410814Y-127913068D01*
X145408516Y-127915366D01*
X145406218Y-127916515D01*
X145444137Y-127933751D02*
X145436093Y-127922260D01*
X145430348Y-127933751D02*
X145430348Y-127909621D01*
X145439541Y-127909621D01*
X145441839Y-127910770D01*
X145442988Y-127911919D01*
X145444137Y-127914217D01*
X145444137Y-127917664D01*
X145442988Y-127919962D01*
X145441839Y-127921111D01*
X145439541Y-127922260D01*
X145430348Y-127922260D01*
D11*
X103142105Y-75515048D02*
X103544271Y-76721548D01*
X103946438Y-75515048D01*
X105038033Y-76606643D02*
X104980581Y-76664095D01*
X104808224Y-76721548D01*
X104693319Y-76721548D01*
X104520962Y-76664095D01*
X104406057Y-76549190D01*
X104348605Y-76434286D01*
X104291153Y-76204476D01*
X104291153Y-76032119D01*
X104348605Y-75802310D01*
X104406057Y-75687405D01*
X104520962Y-75572500D01*
X104693319Y-75515048D01*
X104808224Y-75515048D01*
X104980581Y-75572500D01*
X105038033Y-75629952D01*
X106244533Y-76606643D02*
X106187081Y-76664095D01*
X106014724Y-76721548D01*
X105899819Y-76721548D01*
X105727462Y-76664095D01*
X105612557Y-76549190D01*
X105555105Y-76434286D01*
X105497653Y-76204476D01*
X105497653Y-76032119D01*
X105555105Y-75802310D01*
X105612557Y-75687405D01*
X105727462Y-75572500D01*
X105899819Y-75515048D01*
X106014724Y-75515048D01*
X106187081Y-75572500D01*
X106244533Y-75629952D01*
X106704153Y-75629952D02*
X106761605Y-75572500D01*
X106876510Y-75515048D01*
X107163772Y-75515048D01*
X107278676Y-75572500D01*
X107336129Y-75629952D01*
X107393581Y-75744857D01*
X107393581Y-75859762D01*
X107336129Y-76032119D01*
X106646700Y-76721548D01*
X107393581Y-76721548D01*
D13*
X103074845Y-77885751D02*
X103074845Y-77861621D01*
X103084038Y-77861621D01*
X103086336Y-77862770D01*
X103087485Y-77863919D01*
X103088634Y-77866217D01*
X103088634Y-77869664D01*
X103087485Y-77871962D01*
X103086336Y-77873111D01*
X103084038Y-77874260D01*
X103074845Y-77874260D01*
X103095528Y-77861621D02*
X103109317Y-77861621D01*
X103102422Y-77885751D02*
X103102422Y-77861621D01*
X103131149Y-77885751D02*
X103123105Y-77874260D01*
X103117360Y-77885751D02*
X103117360Y-77861621D01*
X103126553Y-77861621D01*
X103128851Y-77862770D01*
X103130000Y-77863919D01*
X103131149Y-77866217D01*
X103131149Y-77869664D01*
X103130000Y-77871962D01*
X103128851Y-77873111D01*
X103126553Y-77874260D01*
X103117360Y-77874260D01*
X103154130Y-77885751D02*
X103140341Y-77885751D01*
X103147235Y-77885751D02*
X103147235Y-77861621D01*
X103144937Y-77865068D01*
X103142639Y-77867366D01*
X103140341Y-77868515D01*
X103161024Y-77861621D02*
X103174813Y-77861621D01*
X103167918Y-77885751D02*
X103167918Y-77861621D01*
X103182856Y-77885751D02*
X103182856Y-77861621D01*
X103192049Y-77861621D01*
X103194347Y-77862770D01*
X103195496Y-77863919D01*
X103196645Y-77866217D01*
X103196645Y-77869664D01*
X103195496Y-77871962D01*
X103194347Y-77873111D01*
X103192049Y-77874260D01*
X103182856Y-77874260D01*
X103219626Y-77885751D02*
X103205837Y-77885751D01*
X103212731Y-77885751D02*
X103212731Y-77861621D01*
X103210433Y-77865068D01*
X103208135Y-77867366D01*
X103205837Y-77868515D01*
X103242607Y-77885751D02*
X103228818Y-77885751D01*
X103235712Y-77885751D02*
X103235712Y-77861621D01*
X103233414Y-77865068D01*
X103231116Y-77867366D01*
X103228818Y-77868515D01*
X103266737Y-77885751D02*
X103258693Y-77874260D01*
X103252948Y-77885751D02*
X103252948Y-77861621D01*
X103262141Y-77861621D01*
X103264439Y-77862770D01*
X103265588Y-77863919D01*
X103266737Y-77866217D01*
X103266737Y-77869664D01*
X103265588Y-77871962D01*
X103264439Y-77873111D01*
X103262141Y-77874260D01*
X103252948Y-77874260D01*
D11*
X104132438Y-78517500D02*
X104017533Y-78460048D01*
X103845176Y-78460048D01*
X103672819Y-78517500D01*
X103557914Y-78632405D01*
X103500462Y-78747310D01*
X103443010Y-78977119D01*
X103443010Y-79149476D01*
X103500462Y-79379286D01*
X103557914Y-79494190D01*
X103672819Y-79609095D01*
X103845176Y-79666548D01*
X103960081Y-79666548D01*
X104132438Y-79609095D01*
X104189890Y-79551643D01*
X104189890Y-79149476D01*
X103960081Y-79149476D01*
X104706962Y-79666548D02*
X104706962Y-78460048D01*
X105396390Y-79666548D01*
X105396390Y-78460048D01*
X105970914Y-79666548D02*
X105970914Y-78460048D01*
X106258176Y-78460048D01*
X106430533Y-78517500D01*
X106545438Y-78632405D01*
X106602890Y-78747310D01*
X106660342Y-78977119D01*
X106660342Y-79149476D01*
X106602890Y-79379286D01*
X106545438Y-79494190D01*
X106430533Y-79609095D01*
X106258176Y-79666548D01*
X105970914Y-79666548D01*
X107119962Y-78574952D02*
X107177414Y-78517500D01*
X107292319Y-78460048D01*
X107579581Y-78460048D01*
X107694485Y-78517500D01*
X107751938Y-78574952D01*
X107809390Y-78689857D01*
X107809390Y-78804762D01*
X107751938Y-78977119D01*
X107062509Y-79666548D01*
X107809390Y-79666548D01*
D13*
X103260845Y-80830751D02*
X103260845Y-80806621D01*
X103270038Y-80806621D01*
X103272336Y-80807770D01*
X103273485Y-80808919D01*
X103274634Y-80811217D01*
X103274634Y-80814664D01*
X103273485Y-80816962D01*
X103272336Y-80818111D01*
X103270038Y-80819260D01*
X103260845Y-80819260D01*
X103281528Y-80806621D02*
X103295317Y-80806621D01*
X103288422Y-80830751D02*
X103288422Y-80806621D01*
X103317149Y-80830751D02*
X103309105Y-80819260D01*
X103303360Y-80830751D02*
X103303360Y-80806621D01*
X103312553Y-80806621D01*
X103314851Y-80807770D01*
X103316000Y-80808919D01*
X103317149Y-80811217D01*
X103317149Y-80814664D01*
X103316000Y-80816962D01*
X103314851Y-80818111D01*
X103312553Y-80819260D01*
X103303360Y-80819260D01*
X103340130Y-80830751D02*
X103326341Y-80830751D01*
X103333235Y-80830751D02*
X103333235Y-80806621D01*
X103330937Y-80810068D01*
X103328639Y-80812366D01*
X103326341Y-80813515D01*
X103347024Y-80806621D02*
X103360813Y-80806621D01*
X103353918Y-80830751D02*
X103353918Y-80806621D01*
X103368856Y-80830751D02*
X103368856Y-80806621D01*
X103378049Y-80806621D01*
X103380347Y-80807770D01*
X103381496Y-80808919D01*
X103382645Y-80811217D01*
X103382645Y-80814664D01*
X103381496Y-80816962D01*
X103380347Y-80818111D01*
X103378049Y-80819260D01*
X103368856Y-80819260D01*
X103405626Y-80830751D02*
X103391837Y-80830751D01*
X103398731Y-80830751D02*
X103398731Y-80806621D01*
X103396433Y-80810068D01*
X103394135Y-80812366D01*
X103391837Y-80813515D01*
X103428607Y-80830751D02*
X103414818Y-80830751D01*
X103421712Y-80830751D02*
X103421712Y-80806621D01*
X103419414Y-80810068D01*
X103417116Y-80812366D01*
X103414818Y-80813515D01*
X103452737Y-80830751D02*
X103444693Y-80819260D01*
X103438948Y-80830751D02*
X103438948Y-80806621D01*
X103448141Y-80806621D01*
X103450439Y-80807770D01*
X103451588Y-80808919D01*
X103452737Y-80811217D01*
X103452737Y-80814664D01*
X103451588Y-80816962D01*
X103450439Y-80818111D01*
X103448141Y-80819260D01*
X103438948Y-80819260D01*
D11*
X104301890Y-87976643D02*
X104244438Y-88034095D01*
X104072081Y-88091548D01*
X103957176Y-88091548D01*
X103784819Y-88034095D01*
X103669914Y-87919190D01*
X103612462Y-87804286D01*
X103555010Y-87574476D01*
X103555010Y-87402119D01*
X103612462Y-87172310D01*
X103669914Y-87057405D01*
X103784819Y-86942500D01*
X103957176Y-86885048D01*
X104072081Y-86885048D01*
X104244438Y-86942500D01*
X104301890Y-86999952D01*
X104761510Y-87746833D02*
X105336033Y-87746833D01*
X104646605Y-88091548D02*
X105048771Y-86885048D01*
X105450938Y-88091548D01*
X105853105Y-88091548D02*
X105853105Y-86885048D01*
X106542533Y-88091548D01*
X106542533Y-86885048D01*
X107691581Y-88091548D02*
X107117057Y-88091548D01*
X107117057Y-86885048D01*
X108036295Y-86999952D02*
X108093747Y-86942500D01*
X108208652Y-86885048D01*
X108495914Y-86885048D01*
X108610818Y-86942500D01*
X108668271Y-86999952D01*
X108725723Y-87114857D01*
X108725723Y-87229762D01*
X108668271Y-87402119D01*
X107978842Y-88091548D01*
X108725723Y-88091548D01*
D13*
X103372845Y-89255751D02*
X103372845Y-89231621D01*
X103382038Y-89231621D01*
X103384336Y-89232770D01*
X103385485Y-89233919D01*
X103386634Y-89236217D01*
X103386634Y-89239664D01*
X103385485Y-89241962D01*
X103384336Y-89243111D01*
X103382038Y-89244260D01*
X103372845Y-89244260D01*
X103393528Y-89231621D02*
X103407317Y-89231621D01*
X103400422Y-89255751D02*
X103400422Y-89231621D01*
X103429149Y-89255751D02*
X103421105Y-89244260D01*
X103415360Y-89255751D02*
X103415360Y-89231621D01*
X103424553Y-89231621D01*
X103426851Y-89232770D01*
X103428000Y-89233919D01*
X103429149Y-89236217D01*
X103429149Y-89239664D01*
X103428000Y-89241962D01*
X103426851Y-89243111D01*
X103424553Y-89244260D01*
X103415360Y-89244260D01*
X103452130Y-89255751D02*
X103438341Y-89255751D01*
X103445235Y-89255751D02*
X103445235Y-89231621D01*
X103442937Y-89235068D01*
X103440639Y-89237366D01*
X103438341Y-89238515D01*
X103459024Y-89231621D02*
X103472813Y-89231621D01*
X103465918Y-89255751D02*
X103465918Y-89231621D01*
X103480856Y-89255751D02*
X103480856Y-89231621D01*
X103490049Y-89231621D01*
X103492347Y-89232770D01*
X103493496Y-89233919D01*
X103494645Y-89236217D01*
X103494645Y-89239664D01*
X103493496Y-89241962D01*
X103492347Y-89243111D01*
X103490049Y-89244260D01*
X103480856Y-89244260D01*
X103517626Y-89255751D02*
X103503837Y-89255751D01*
X103510731Y-89255751D02*
X103510731Y-89231621D01*
X103508433Y-89235068D01*
X103506135Y-89237366D01*
X103503837Y-89238515D01*
X103540607Y-89255751D02*
X103526818Y-89255751D01*
X103533712Y-89255751D02*
X103533712Y-89231621D01*
X103531414Y-89235068D01*
X103529116Y-89237366D01*
X103526818Y-89238515D01*
X103564737Y-89255751D02*
X103556693Y-89244260D01*
X103550948Y-89255751D02*
X103550948Y-89231621D01*
X103560141Y-89231621D01*
X103562439Y-89232770D01*
X103563588Y-89233919D01*
X103564737Y-89236217D01*
X103564737Y-89239664D01*
X103563588Y-89241962D01*
X103562439Y-89243111D01*
X103560141Y-89244260D01*
X103550948Y-89244260D01*
D11*
X104290890Y-90954643D02*
X104233438Y-91012095D01*
X104061081Y-91069548D01*
X103946176Y-91069548D01*
X103773819Y-91012095D01*
X103658914Y-90897190D01*
X103601462Y-90782286D01*
X103544010Y-90552476D01*
X103544010Y-90380119D01*
X103601462Y-90150310D01*
X103658914Y-90035405D01*
X103773819Y-89920500D01*
X103946176Y-89863048D01*
X104061081Y-89863048D01*
X104233438Y-89920500D01*
X104290890Y-89977952D01*
X104750510Y-90724833D02*
X105325033Y-90724833D01*
X104635605Y-91069548D02*
X105037771Y-89863048D01*
X105439938Y-91069548D01*
X105842105Y-91069548D02*
X105842105Y-89863048D01*
X106531533Y-91069548D01*
X106531533Y-89863048D01*
X107106057Y-91069548D02*
X107106057Y-89863048D01*
X107106057Y-90437571D02*
X107795485Y-90437571D01*
X107795485Y-91069548D02*
X107795485Y-89863048D01*
X108312557Y-89977952D02*
X108370009Y-89920500D01*
X108484914Y-89863048D01*
X108772176Y-89863048D01*
X108887080Y-89920500D01*
X108944533Y-89977952D01*
X109001985Y-90092857D01*
X109001985Y-90207762D01*
X108944533Y-90380119D01*
X108255104Y-91069548D01*
X109001985Y-91069548D01*
D13*
X103361845Y-92233751D02*
X103361845Y-92209621D01*
X103371038Y-92209621D01*
X103373336Y-92210770D01*
X103374485Y-92211919D01*
X103375634Y-92214217D01*
X103375634Y-92217664D01*
X103374485Y-92219962D01*
X103373336Y-92221111D01*
X103371038Y-92222260D01*
X103361845Y-92222260D01*
X103382528Y-92209621D02*
X103396317Y-92209621D01*
X103389422Y-92233751D02*
X103389422Y-92209621D01*
X103418149Y-92233751D02*
X103410105Y-92222260D01*
X103404360Y-92233751D02*
X103404360Y-92209621D01*
X103413553Y-92209621D01*
X103415851Y-92210770D01*
X103417000Y-92211919D01*
X103418149Y-92214217D01*
X103418149Y-92217664D01*
X103417000Y-92219962D01*
X103415851Y-92221111D01*
X103413553Y-92222260D01*
X103404360Y-92222260D01*
X103441130Y-92233751D02*
X103427341Y-92233751D01*
X103434235Y-92233751D02*
X103434235Y-92209621D01*
X103431937Y-92213068D01*
X103429639Y-92215366D01*
X103427341Y-92216515D01*
X103448024Y-92209621D02*
X103461813Y-92209621D01*
X103454918Y-92233751D02*
X103454918Y-92209621D01*
X103469856Y-92233751D02*
X103469856Y-92209621D01*
X103479049Y-92209621D01*
X103481347Y-92210770D01*
X103482496Y-92211919D01*
X103483645Y-92214217D01*
X103483645Y-92217664D01*
X103482496Y-92219962D01*
X103481347Y-92221111D01*
X103479049Y-92222260D01*
X103469856Y-92222260D01*
X103506626Y-92233751D02*
X103492837Y-92233751D01*
X103499731Y-92233751D02*
X103499731Y-92209621D01*
X103497433Y-92213068D01*
X103495135Y-92215366D01*
X103492837Y-92216515D01*
X103529607Y-92233751D02*
X103515818Y-92233751D01*
X103522712Y-92233751D02*
X103522712Y-92209621D01*
X103520414Y-92213068D01*
X103518116Y-92215366D01*
X103515818Y-92216515D01*
X103553737Y-92233751D02*
X103545693Y-92222260D01*
X103539948Y-92233751D02*
X103539948Y-92209621D01*
X103549141Y-92209621D01*
X103551439Y-92210770D01*
X103552588Y-92211919D01*
X103553737Y-92214217D01*
X103553737Y-92217664D01*
X103552588Y-92219962D01*
X103551439Y-92221111D01*
X103549141Y-92222260D01*
X103539948Y-92222260D01*
D11*
X103464557Y-81303048D02*
X104211438Y-81303048D01*
X103809271Y-81762667D01*
X103981629Y-81762667D01*
X104096533Y-81820119D01*
X104153986Y-81877571D01*
X104211438Y-81992476D01*
X104211438Y-82279738D01*
X104153986Y-82394643D01*
X104096533Y-82452095D01*
X103981629Y-82509548D01*
X103636914Y-82509548D01*
X103522010Y-82452095D01*
X103464557Y-82394643D01*
X104556153Y-81303048D02*
X104958319Y-82509548D01*
X105360486Y-81303048D01*
X105647748Y-81303048D02*
X106394629Y-81303048D01*
X105992462Y-81762667D01*
X106164820Y-81762667D01*
X106279724Y-81820119D01*
X106337177Y-81877571D01*
X106394629Y-81992476D01*
X106394629Y-82279738D01*
X106337177Y-82394643D01*
X106279724Y-82452095D01*
X106164820Y-82509548D01*
X105820105Y-82509548D01*
X105705201Y-82452095D01*
X105647748Y-82394643D01*
X106854249Y-81417952D02*
X106911701Y-81360500D01*
X107026606Y-81303048D01*
X107313868Y-81303048D01*
X107428772Y-81360500D01*
X107486225Y-81417952D01*
X107543677Y-81532857D01*
X107543677Y-81647762D01*
X107486225Y-81820119D01*
X106796796Y-82509548D01*
X107543677Y-82509548D01*
D13*
X103339845Y-83673751D02*
X103339845Y-83649621D01*
X103349038Y-83649621D01*
X103351336Y-83650770D01*
X103352485Y-83651919D01*
X103353634Y-83654217D01*
X103353634Y-83657664D01*
X103352485Y-83659962D01*
X103351336Y-83661111D01*
X103349038Y-83662260D01*
X103339845Y-83662260D01*
X103360528Y-83649621D02*
X103374317Y-83649621D01*
X103367422Y-83673751D02*
X103367422Y-83649621D01*
X103396149Y-83673751D02*
X103388105Y-83662260D01*
X103382360Y-83673751D02*
X103382360Y-83649621D01*
X103391553Y-83649621D01*
X103393851Y-83650770D01*
X103395000Y-83651919D01*
X103396149Y-83654217D01*
X103396149Y-83657664D01*
X103395000Y-83659962D01*
X103393851Y-83661111D01*
X103391553Y-83662260D01*
X103382360Y-83662260D01*
X103419130Y-83673751D02*
X103405341Y-83673751D01*
X103412235Y-83673751D02*
X103412235Y-83649621D01*
X103409937Y-83653068D01*
X103407639Y-83655366D01*
X103405341Y-83656515D01*
X103426024Y-83649621D02*
X103439813Y-83649621D01*
X103432918Y-83673751D02*
X103432918Y-83649621D01*
X103447856Y-83673751D02*
X103447856Y-83649621D01*
X103457049Y-83649621D01*
X103459347Y-83650770D01*
X103460496Y-83651919D01*
X103461645Y-83654217D01*
X103461645Y-83657664D01*
X103460496Y-83659962D01*
X103459347Y-83661111D01*
X103457049Y-83662260D01*
X103447856Y-83662260D01*
X103484626Y-83673751D02*
X103470837Y-83673751D01*
X103477731Y-83673751D02*
X103477731Y-83649621D01*
X103475433Y-83653068D01*
X103473135Y-83655366D01*
X103470837Y-83656515D01*
X103507607Y-83673751D02*
X103493818Y-83673751D01*
X103500712Y-83673751D02*
X103500712Y-83649621D01*
X103498414Y-83653068D01*
X103496116Y-83655366D01*
X103493818Y-83656515D01*
X103531737Y-83673751D02*
X103523693Y-83662260D01*
X103517948Y-83673751D02*
X103517948Y-83649621D01*
X103527141Y-83649621D01*
X103529439Y-83650770D01*
X103530588Y-83651919D01*
X103531737Y-83654217D01*
X103531737Y-83657664D01*
X103530588Y-83659962D01*
X103529439Y-83661111D01*
X103527141Y-83662260D01*
X103517948Y-83662260D01*
D11*
X103694010Y-96692095D02*
X103866367Y-96749548D01*
X104153629Y-96749548D01*
X104268533Y-96692095D01*
X104325986Y-96634643D01*
X104383438Y-96519738D01*
X104383438Y-96404833D01*
X104325986Y-96289929D01*
X104268533Y-96232476D01*
X104153629Y-96175024D01*
X103923819Y-96117571D01*
X103808914Y-96060119D01*
X103751462Y-96002667D01*
X103694010Y-95887762D01*
X103694010Y-95772857D01*
X103751462Y-95657952D01*
X103808914Y-95600500D01*
X103923819Y-95543048D01*
X104211081Y-95543048D01*
X104383438Y-95600500D01*
X105589938Y-96634643D02*
X105532486Y-96692095D01*
X105360129Y-96749548D01*
X105245224Y-96749548D01*
X105072867Y-96692095D01*
X104957962Y-96577190D01*
X104900510Y-96462286D01*
X104843058Y-96232476D01*
X104843058Y-96060119D01*
X104900510Y-95830310D01*
X104957962Y-95715405D01*
X105072867Y-95600500D01*
X105245224Y-95543048D01*
X105360129Y-95543048D01*
X105532486Y-95600500D01*
X105589938Y-95657952D01*
X106681534Y-96749548D02*
X106107010Y-96749548D01*
X106107010Y-95543048D01*
X107026248Y-95657952D02*
X107083700Y-95600500D01*
X107198605Y-95543048D01*
X107485867Y-95543048D01*
X107600771Y-95600500D01*
X107658224Y-95657952D01*
X107715676Y-95772857D01*
X107715676Y-95887762D01*
X107658224Y-96060119D01*
X106968795Y-96749548D01*
X107715676Y-96749548D01*
D13*
X103511845Y-97913751D02*
X103511845Y-97889621D01*
X103521038Y-97889621D01*
X103523336Y-97890770D01*
X103524485Y-97891919D01*
X103525634Y-97894217D01*
X103525634Y-97897664D01*
X103524485Y-97899962D01*
X103523336Y-97901111D01*
X103521038Y-97902260D01*
X103511845Y-97902260D01*
X103532528Y-97889621D02*
X103546317Y-97889621D01*
X103539422Y-97913751D02*
X103539422Y-97889621D01*
X103568149Y-97913751D02*
X103560105Y-97902260D01*
X103554360Y-97913751D02*
X103554360Y-97889621D01*
X103563553Y-97889621D01*
X103565851Y-97890770D01*
X103567000Y-97891919D01*
X103568149Y-97894217D01*
X103568149Y-97897664D01*
X103567000Y-97899962D01*
X103565851Y-97901111D01*
X103563553Y-97902260D01*
X103554360Y-97902260D01*
X103591130Y-97913751D02*
X103577341Y-97913751D01*
X103584235Y-97913751D02*
X103584235Y-97889621D01*
X103581937Y-97893068D01*
X103579639Y-97895366D01*
X103577341Y-97896515D01*
X103598024Y-97889621D02*
X103611813Y-97889621D01*
X103604918Y-97913751D02*
X103604918Y-97889621D01*
X103619856Y-97913751D02*
X103619856Y-97889621D01*
X103629049Y-97889621D01*
X103631347Y-97890770D01*
X103632496Y-97891919D01*
X103633645Y-97894217D01*
X103633645Y-97897664D01*
X103632496Y-97899962D01*
X103631347Y-97901111D01*
X103629049Y-97902260D01*
X103619856Y-97902260D01*
X103656626Y-97913751D02*
X103642837Y-97913751D01*
X103649731Y-97913751D02*
X103649731Y-97889621D01*
X103647433Y-97893068D01*
X103645135Y-97895366D01*
X103642837Y-97896515D01*
X103679607Y-97913751D02*
X103665818Y-97913751D01*
X103672712Y-97913751D02*
X103672712Y-97889621D01*
X103670414Y-97893068D01*
X103668116Y-97895366D01*
X103665818Y-97896515D01*
X103703737Y-97913751D02*
X103695693Y-97902260D01*
X103689948Y-97913751D02*
X103689948Y-97889621D01*
X103699141Y-97889621D01*
X103701439Y-97890770D01*
X103702588Y-97891919D01*
X103703737Y-97894217D01*
X103703737Y-97897664D01*
X103702588Y-97899962D01*
X103701439Y-97901111D01*
X103699141Y-97902260D01*
X103689948Y-97902260D01*
D11*
X103545010Y-93876095D02*
X103717367Y-93933548D01*
X104004629Y-93933548D01*
X104119533Y-93876095D01*
X104176986Y-93818643D01*
X104234438Y-93703738D01*
X104234438Y-93588833D01*
X104176986Y-93473929D01*
X104119533Y-93416476D01*
X104004629Y-93359024D01*
X103774819Y-93301571D01*
X103659914Y-93244119D01*
X103602462Y-93186667D01*
X103545010Y-93071762D01*
X103545010Y-92956857D01*
X103602462Y-92841952D01*
X103659914Y-92784500D01*
X103774819Y-92727048D01*
X104062081Y-92727048D01*
X104234438Y-92784500D01*
X104751510Y-93933548D02*
X104751510Y-92727048D01*
X105038772Y-92727048D01*
X105211129Y-92784500D01*
X105326034Y-92899405D01*
X105383486Y-93014310D01*
X105440938Y-93244119D01*
X105440938Y-93416476D01*
X105383486Y-93646286D01*
X105326034Y-93761190D01*
X105211129Y-93876095D01*
X105038772Y-93933548D01*
X104751510Y-93933548D01*
X105900558Y-93588833D02*
X106475081Y-93588833D01*
X105785653Y-93933548D02*
X106187819Y-92727048D01*
X106589986Y-93933548D01*
X106934701Y-92841952D02*
X106992153Y-92784500D01*
X107107058Y-92727048D01*
X107394320Y-92727048D01*
X107509224Y-92784500D01*
X107566677Y-92841952D01*
X107624129Y-92956857D01*
X107624129Y-93071762D01*
X107566677Y-93244119D01*
X106877248Y-93933548D01*
X107624129Y-93933548D01*
D13*
X103362845Y-95097751D02*
X103362845Y-95073621D01*
X103372038Y-95073621D01*
X103374336Y-95074770D01*
X103375485Y-95075919D01*
X103376634Y-95078217D01*
X103376634Y-95081664D01*
X103375485Y-95083962D01*
X103374336Y-95085111D01*
X103372038Y-95086260D01*
X103362845Y-95086260D01*
X103383528Y-95073621D02*
X103397317Y-95073621D01*
X103390422Y-95097751D02*
X103390422Y-95073621D01*
X103419149Y-95097751D02*
X103411105Y-95086260D01*
X103405360Y-95097751D02*
X103405360Y-95073621D01*
X103414553Y-95073621D01*
X103416851Y-95074770D01*
X103418000Y-95075919D01*
X103419149Y-95078217D01*
X103419149Y-95081664D01*
X103418000Y-95083962D01*
X103416851Y-95085111D01*
X103414553Y-95086260D01*
X103405360Y-95086260D01*
X103442130Y-95097751D02*
X103428341Y-95097751D01*
X103435235Y-95097751D02*
X103435235Y-95073621D01*
X103432937Y-95077068D01*
X103430639Y-95079366D01*
X103428341Y-95080515D01*
X103449024Y-95073621D02*
X103462813Y-95073621D01*
X103455918Y-95097751D02*
X103455918Y-95073621D01*
X103470856Y-95097751D02*
X103470856Y-95073621D01*
X103480049Y-95073621D01*
X103482347Y-95074770D01*
X103483496Y-95075919D01*
X103484645Y-95078217D01*
X103484645Y-95081664D01*
X103483496Y-95083962D01*
X103482347Y-95085111D01*
X103480049Y-95086260D01*
X103470856Y-95086260D01*
X103507626Y-95097751D02*
X103493837Y-95097751D01*
X103500731Y-95097751D02*
X103500731Y-95073621D01*
X103498433Y-95077068D01*
X103496135Y-95079366D01*
X103493837Y-95080515D01*
X103530607Y-95097751D02*
X103516818Y-95097751D01*
X103523712Y-95097751D02*
X103523712Y-95073621D01*
X103521414Y-95077068D01*
X103519116Y-95079366D01*
X103516818Y-95080515D01*
X103554737Y-95097751D02*
X103546693Y-95086260D01*
X103540948Y-95097751D02*
X103540948Y-95073621D01*
X103550141Y-95073621D01*
X103552439Y-95074770D01*
X103553588Y-95075919D01*
X103554737Y-95078217D01*
X103554737Y-95081664D01*
X103553588Y-95083962D01*
X103552439Y-95085111D01*
X103550141Y-95086260D01*
X103540948Y-95086260D01*
D11*
X104190986Y-85294548D02*
X103616462Y-85294548D01*
X103616462Y-84088048D01*
X104593152Y-84662571D02*
X104995319Y-84662571D01*
X105167676Y-85294548D02*
X104593152Y-85294548D01*
X104593152Y-84088048D01*
X105167676Y-84088048D01*
X105684747Y-85294548D02*
X105684747Y-84088048D01*
X105972009Y-84088048D01*
X106144366Y-84145500D01*
X106259271Y-84260405D01*
X106316723Y-84375310D01*
X106374175Y-84605119D01*
X106374175Y-84777476D01*
X106316723Y-85007286D01*
X106259271Y-85122190D01*
X106144366Y-85237095D01*
X105972009Y-85294548D01*
X105684747Y-85294548D01*
X107580675Y-85179643D02*
X107523223Y-85237095D01*
X107350866Y-85294548D01*
X107235961Y-85294548D01*
X107063604Y-85237095D01*
X106948699Y-85122190D01*
X106891247Y-85007286D01*
X106833795Y-84777476D01*
X106833795Y-84605119D01*
X106891247Y-84375310D01*
X106948699Y-84260405D01*
X107063604Y-84145500D01*
X107235961Y-84088048D01*
X107350866Y-84088048D01*
X107523223Y-84145500D01*
X107580675Y-84202952D01*
D13*
X103376845Y-86458751D02*
X103376845Y-86434621D01*
X103386038Y-86434621D01*
X103388336Y-86435770D01*
X103389485Y-86436919D01*
X103390634Y-86439217D01*
X103390634Y-86442664D01*
X103389485Y-86444962D01*
X103388336Y-86446111D01*
X103386038Y-86447260D01*
X103376845Y-86447260D01*
X103397528Y-86434621D02*
X103411317Y-86434621D01*
X103404422Y-86458751D02*
X103404422Y-86434621D01*
X103433149Y-86458751D02*
X103425105Y-86447260D01*
X103419360Y-86458751D02*
X103419360Y-86434621D01*
X103428553Y-86434621D01*
X103430851Y-86435770D01*
X103432000Y-86436919D01*
X103433149Y-86439217D01*
X103433149Y-86442664D01*
X103432000Y-86444962D01*
X103430851Y-86446111D01*
X103428553Y-86447260D01*
X103419360Y-86447260D01*
X103456130Y-86458751D02*
X103442341Y-86458751D01*
X103449235Y-86458751D02*
X103449235Y-86434621D01*
X103446937Y-86438068D01*
X103444639Y-86440366D01*
X103442341Y-86441515D01*
X103463024Y-86434621D02*
X103476813Y-86434621D01*
X103469918Y-86458751D02*
X103469918Y-86434621D01*
X103484856Y-86458751D02*
X103484856Y-86434621D01*
X103494049Y-86434621D01*
X103496347Y-86435770D01*
X103497496Y-86436919D01*
X103498645Y-86439217D01*
X103498645Y-86442664D01*
X103497496Y-86444962D01*
X103496347Y-86446111D01*
X103494049Y-86447260D01*
X103484856Y-86447260D01*
X103521626Y-86458751D02*
X103507837Y-86458751D01*
X103514731Y-86458751D02*
X103514731Y-86434621D01*
X103512433Y-86438068D01*
X103510135Y-86440366D01*
X103507837Y-86441515D01*
X103544607Y-86458751D02*
X103530818Y-86458751D01*
X103537712Y-86458751D02*
X103537712Y-86434621D01*
X103535414Y-86438068D01*
X103533116Y-86440366D01*
X103530818Y-86441515D01*
X103568737Y-86458751D02*
X103560693Y-86447260D01*
X103554948Y-86458751D02*
X103554948Y-86434621D01*
X103564141Y-86434621D01*
X103566439Y-86435770D01*
X103567588Y-86436919D01*
X103568737Y-86439217D01*
X103568737Y-86442664D01*
X103567588Y-86444962D01*
X103566439Y-86446111D01*
X103564141Y-86447260D01*
X103554948Y-86447260D01*
D14*
X107695014Y-128615214D02*
X107649052Y-128661176D01*
X107511167Y-128707138D01*
X107419243Y-128707138D01*
X107281357Y-128661176D01*
X107189433Y-128569252D01*
X107143472Y-128477329D01*
X107097510Y-128293481D01*
X107097510Y-128155595D01*
X107143472Y-127971748D01*
X107189433Y-127879824D01*
X107281357Y-127787900D01*
X107419243Y-127741938D01*
X107511167Y-127741938D01*
X107649052Y-127787900D01*
X107695014Y-127833862D01*
X108062710Y-127833862D02*
X108108672Y-127787900D01*
X108200595Y-127741938D01*
X108430405Y-127741938D01*
X108522329Y-127787900D01*
X108568291Y-127833862D01*
X108614252Y-127925786D01*
X108614252Y-128017710D01*
X108568291Y-128155595D01*
X108016748Y-128707138D01*
X108614252Y-128707138D01*
D15*
X101794024Y-114618515D02*
X101794024Y-114232435D01*
X101885948Y-114232435D01*
X101941102Y-114250820D01*
X101977871Y-114287590D01*
X101996256Y-114324359D01*
X102014641Y-114397898D01*
X102014641Y-114453052D01*
X101996256Y-114526591D01*
X101977871Y-114563361D01*
X101941102Y-114600130D01*
X101885948Y-114618515D01*
X101794024Y-114618515D01*
X102382336Y-114618515D02*
X102161719Y-114618515D01*
X102272028Y-114618515D02*
X102272028Y-114232435D01*
X102235258Y-114287590D01*
X102198489Y-114324359D01*
X102161719Y-114342744D01*
M02*
