G04 #@! TF.FileFunction,Soldermask,Bot*
%FSLAX46Y46*%
G04 Gerber Fmt 4.6, Leading zero omitted, Abs format (unit mm)*
G04 Created by KiCad (PCBNEW 4.0.6) date 05/08/17 07:18:31*
%MOMM*%
%LPD*%
G01*
G04 APERTURE LIST*
%ADD10C,0.100000*%
%ADD11R,1.600000X1.600000*%
%ADD12C,2.940000*%
%ADD13C,3.575000*%
%ADD14R,0.750000X1.205000*%
%ADD15R,1.205000X0.800000*%
G04 APERTURE END LIST*
D10*
D11*
X124079300Y-101180300D03*
X124079300Y-103280300D03*
D12*
X138711300Y-114031300D03*
D13*
X138711300Y-114031300D03*
D12*
X114571300Y-114212300D03*
D13*
X114571300Y-114212300D03*
D12*
X138600300Y-90162300D03*
D13*
X138600300Y-90162300D03*
D12*
X114650300Y-90102300D03*
D13*
X114650300Y-90102300D03*
D12*
X134666300Y-110058300D03*
D13*
X134666300Y-110058300D03*
D12*
X118674300Y-110046300D03*
D13*
X118674300Y-110046300D03*
D12*
X134715300Y-94041300D03*
D13*
X134715300Y-94041300D03*
D12*
X118568300Y-94067300D03*
D13*
X118568300Y-94067300D03*
D12*
X106674300Y-82154300D03*
D13*
X106674300Y-82154300D03*
D12*
X106555300Y-122067300D03*
D13*
X106555300Y-122067300D03*
D12*
X146552300Y-122128300D03*
D13*
X146552300Y-122128300D03*
D12*
X146669300Y-82278300D03*
D13*
X146669300Y-82278300D03*
D12*
X110551300Y-86090300D03*
D13*
X110551300Y-86090300D03*
D12*
X110696300Y-118013300D03*
D13*
X110696300Y-118013300D03*
D12*
X142515300Y-118040300D03*
D13*
X142515300Y-118040300D03*
D12*
X142680300Y-86008300D03*
D13*
X142680300Y-86008300D03*
D14*
X126109900Y-100483200D03*
X126859900Y-100483200D03*
X127609900Y-100483200D03*
X128359900Y-100483200D03*
X129109900Y-100483200D03*
D15*
X129382400Y-101455700D03*
D14*
X129109900Y-104028200D03*
X128359900Y-104028200D03*
X127609900Y-104028200D03*
X126859900Y-104028200D03*
X126109900Y-104028200D03*
D15*
X125837400Y-102080700D03*
X129382400Y-102255700D03*
M02*
