G04 #@! TF.FileFunction,Other,Comment*
%FSLAX46Y46*%
G04 Gerber Fmt 4.6, Leading zero omitted, Abs format (unit mm)*
G04 Created by KiCad (PCBNEW 4.0.6) date 05/08/17 07:18:31*
%MOMM*%
%LPD*%
G01*
G04 APERTURE LIST*
%ADD10C,0.100000*%
%ADD11C,0.254000*%
%ADD12C,0.080000*%
G04 APERTURE END LIST*
D10*
D11*
X139346300Y-114031300D02*
G75*
G03X139346300Y-114031300I-635000J0D01*
G01*
X115206300Y-114212300D02*
G75*
G03X115206300Y-114212300I-635000J0D01*
G01*
X139235300Y-90162300D02*
G75*
G03X139235300Y-90162300I-635000J0D01*
G01*
X115285300Y-90102300D02*
G75*
G03X115285300Y-90102300I-635000J0D01*
G01*
X135301300Y-110058300D02*
G75*
G03X135301300Y-110058300I-635000J0D01*
G01*
X119309300Y-110046300D02*
G75*
G03X119309300Y-110046300I-635000J0D01*
G01*
X135350300Y-94041300D02*
G75*
G03X135350300Y-94041300I-635000J0D01*
G01*
X119203300Y-94067300D02*
G75*
G03X119203300Y-94067300I-635000J0D01*
G01*
X107309300Y-82154300D02*
G75*
G03X107309300Y-82154300I-635000J0D01*
G01*
X107190300Y-122067300D02*
G75*
G03X107190300Y-122067300I-635000J0D01*
G01*
X147187300Y-122128300D02*
G75*
G03X147187300Y-122128300I-635000J0D01*
G01*
X147304300Y-82278300D02*
G75*
G03X147304300Y-82278300I-635000J0D01*
G01*
X111186300Y-86090300D02*
G75*
G03X111186300Y-86090300I-635000J0D01*
G01*
X111331300Y-118013300D02*
G75*
G03X111331300Y-118013300I-635000J0D01*
G01*
X143150300Y-118040300D02*
G75*
G03X143150300Y-118040300I-635000J0D01*
G01*
X143315300Y-86008300D02*
G75*
G03X143315300Y-86008300I-635000J0D01*
G01*
D12*
X137667490Y-116527729D02*
X138391300Y-116799157D01*
X137667490Y-117070586D01*
X138707966Y-116211062D02*
X139250823Y-116211062D01*
X138979395Y-117161062D02*
X138979395Y-116211062D01*
X139567490Y-117161062D02*
X139567490Y-116211062D01*
X139929395Y-116211062D01*
X140019871Y-116256300D01*
X140065110Y-116301538D01*
X140110348Y-116392014D01*
X140110348Y-116527729D01*
X140065110Y-116618205D01*
X140019871Y-116663443D01*
X139929395Y-116708681D01*
X139567490Y-116708681D01*
X140291300Y-117251538D02*
X141015110Y-117251538D01*
X141196062Y-117115824D02*
X141331777Y-117161062D01*
X141557967Y-117161062D01*
X141648443Y-117115824D01*
X141693681Y-117070586D01*
X141738920Y-116980110D01*
X141738920Y-116889633D01*
X141693681Y-116799157D01*
X141648443Y-116753919D01*
X141557967Y-116708681D01*
X141377015Y-116663443D01*
X141286539Y-116618205D01*
X141241300Y-116572967D01*
X141196062Y-116482490D01*
X141196062Y-116392014D01*
X141241300Y-116301538D01*
X141286539Y-116256300D01*
X141377015Y-116211062D01*
X141603205Y-116211062D01*
X141738920Y-116256300D01*
X142146062Y-117161062D02*
X142146062Y-116211062D01*
X143096063Y-116256300D02*
X143005586Y-116211062D01*
X142869872Y-116211062D01*
X142734158Y-116256300D01*
X142643682Y-116346776D01*
X142598443Y-116437252D01*
X142553205Y-116618205D01*
X142553205Y-116753919D01*
X142598443Y-116934871D01*
X142643682Y-117025348D01*
X142734158Y-117115824D01*
X142869872Y-117161062D01*
X142960348Y-117161062D01*
X143096063Y-117115824D01*
X143141301Y-117070586D01*
X143141301Y-116753919D01*
X142960348Y-116753919D01*
X143548443Y-117161062D02*
X143548443Y-116211062D01*
X144091301Y-117161062D01*
X144091301Y-116211062D01*
X144498443Y-116889633D02*
X144950824Y-116889633D01*
X144407967Y-117161062D02*
X144724634Y-116211062D01*
X145041301Y-117161062D01*
X145810348Y-117161062D02*
X145357967Y-117161062D01*
X145357967Y-116211062D01*
X145900825Y-117251538D02*
X146624635Y-117251538D01*
X146850825Y-117161062D02*
X146850825Y-116211062D01*
X147393683Y-117161062D01*
X147393683Y-116211062D01*
X147800825Y-116889633D02*
X148253206Y-116889633D01*
X147710349Y-117161062D02*
X148027016Y-116211062D01*
X148343683Y-117161062D01*
X148660349Y-117161062D02*
X148660349Y-116211062D01*
X148977016Y-116889633D01*
X149293683Y-116211062D01*
X149293683Y-117161062D01*
X149746063Y-116663443D02*
X150062730Y-116663443D01*
X150198444Y-117161062D02*
X149746063Y-117161062D01*
X149746063Y-116211062D01*
X150198444Y-116211062D01*
X113527490Y-116708729D02*
X114251300Y-116980157D01*
X113527490Y-117251586D01*
X114567966Y-116392062D02*
X115110823Y-116392062D01*
X114839395Y-117342062D02*
X114839395Y-116392062D01*
X115427490Y-117342062D02*
X115427490Y-116392062D01*
X115789395Y-116392062D01*
X115879871Y-116437300D01*
X115925110Y-116482538D01*
X115970348Y-116573014D01*
X115970348Y-116708729D01*
X115925110Y-116799205D01*
X115879871Y-116844443D01*
X115789395Y-116889681D01*
X115427490Y-116889681D01*
X116151300Y-117432538D02*
X116875110Y-117432538D01*
X117056062Y-117296824D02*
X117191777Y-117342062D01*
X117417967Y-117342062D01*
X117508443Y-117296824D01*
X117553681Y-117251586D01*
X117598920Y-117161110D01*
X117598920Y-117070633D01*
X117553681Y-116980157D01*
X117508443Y-116934919D01*
X117417967Y-116889681D01*
X117237015Y-116844443D01*
X117146539Y-116799205D01*
X117101300Y-116753967D01*
X117056062Y-116663490D01*
X117056062Y-116573014D01*
X117101300Y-116482538D01*
X117146539Y-116437300D01*
X117237015Y-116392062D01*
X117463205Y-116392062D01*
X117598920Y-116437300D01*
X118006062Y-117342062D02*
X118006062Y-116392062D01*
X118956063Y-116437300D02*
X118865586Y-116392062D01*
X118729872Y-116392062D01*
X118594158Y-116437300D01*
X118503682Y-116527776D01*
X118458443Y-116618252D01*
X118413205Y-116799205D01*
X118413205Y-116934919D01*
X118458443Y-117115871D01*
X118503682Y-117206348D01*
X118594158Y-117296824D01*
X118729872Y-117342062D01*
X118820348Y-117342062D01*
X118956063Y-117296824D01*
X119001301Y-117251586D01*
X119001301Y-116934919D01*
X118820348Y-116934919D01*
X119408443Y-117342062D02*
X119408443Y-116392062D01*
X119951301Y-117342062D01*
X119951301Y-116392062D01*
X120358443Y-117070633D02*
X120810824Y-117070633D01*
X120267967Y-117342062D02*
X120584634Y-116392062D01*
X120901301Y-117342062D01*
X121670348Y-117342062D02*
X121217967Y-117342062D01*
X121217967Y-116392062D01*
X121760825Y-117432538D02*
X122484635Y-117432538D01*
X122710825Y-117342062D02*
X122710825Y-116392062D01*
X123253683Y-117342062D01*
X123253683Y-116392062D01*
X123660825Y-117070633D02*
X124113206Y-117070633D01*
X123570349Y-117342062D02*
X123887016Y-116392062D01*
X124203683Y-117342062D01*
X124520349Y-117342062D02*
X124520349Y-116392062D01*
X124837016Y-117070633D01*
X125153683Y-116392062D01*
X125153683Y-117342062D01*
X125606063Y-116844443D02*
X125922730Y-116844443D01*
X126058444Y-117342062D02*
X125606063Y-117342062D01*
X125606063Y-116392062D01*
X126058444Y-116392062D01*
X137556490Y-92658729D02*
X138280300Y-92930157D01*
X137556490Y-93201586D01*
X138596966Y-92342062D02*
X139139823Y-92342062D01*
X138868395Y-93292062D02*
X138868395Y-92342062D01*
X139456490Y-93292062D02*
X139456490Y-92342062D01*
X139818395Y-92342062D01*
X139908871Y-92387300D01*
X139954110Y-92432538D01*
X139999348Y-92523014D01*
X139999348Y-92658729D01*
X139954110Y-92749205D01*
X139908871Y-92794443D01*
X139818395Y-92839681D01*
X139456490Y-92839681D01*
X140180300Y-93382538D02*
X140904110Y-93382538D01*
X141085062Y-93246824D02*
X141220777Y-93292062D01*
X141446967Y-93292062D01*
X141537443Y-93246824D01*
X141582681Y-93201586D01*
X141627920Y-93111110D01*
X141627920Y-93020633D01*
X141582681Y-92930157D01*
X141537443Y-92884919D01*
X141446967Y-92839681D01*
X141266015Y-92794443D01*
X141175539Y-92749205D01*
X141130300Y-92703967D01*
X141085062Y-92613490D01*
X141085062Y-92523014D01*
X141130300Y-92432538D01*
X141175539Y-92387300D01*
X141266015Y-92342062D01*
X141492205Y-92342062D01*
X141627920Y-92387300D01*
X142035062Y-93292062D02*
X142035062Y-92342062D01*
X142985063Y-92387300D02*
X142894586Y-92342062D01*
X142758872Y-92342062D01*
X142623158Y-92387300D01*
X142532682Y-92477776D01*
X142487443Y-92568252D01*
X142442205Y-92749205D01*
X142442205Y-92884919D01*
X142487443Y-93065871D01*
X142532682Y-93156348D01*
X142623158Y-93246824D01*
X142758872Y-93292062D01*
X142849348Y-93292062D01*
X142985063Y-93246824D01*
X143030301Y-93201586D01*
X143030301Y-92884919D01*
X142849348Y-92884919D01*
X143437443Y-93292062D02*
X143437443Y-92342062D01*
X143980301Y-93292062D01*
X143980301Y-92342062D01*
X144387443Y-93020633D02*
X144839824Y-93020633D01*
X144296967Y-93292062D02*
X144613634Y-92342062D01*
X144930301Y-93292062D01*
X145699348Y-93292062D02*
X145246967Y-93292062D01*
X145246967Y-92342062D01*
X145789825Y-93382538D02*
X146513635Y-93382538D01*
X146739825Y-93292062D02*
X146739825Y-92342062D01*
X147282683Y-93292062D01*
X147282683Y-92342062D01*
X147689825Y-93020633D02*
X148142206Y-93020633D01*
X147599349Y-93292062D02*
X147916016Y-92342062D01*
X148232683Y-93292062D01*
X148549349Y-93292062D02*
X148549349Y-92342062D01*
X148866016Y-93020633D01*
X149182683Y-92342062D01*
X149182683Y-93292062D01*
X149635063Y-92794443D02*
X149951730Y-92794443D01*
X150087444Y-93292062D02*
X149635063Y-93292062D01*
X149635063Y-92342062D01*
X150087444Y-92342062D01*
X113606490Y-92598729D02*
X114330300Y-92870157D01*
X113606490Y-93141586D01*
X114646966Y-92282062D02*
X115189823Y-92282062D01*
X114918395Y-93232062D02*
X114918395Y-92282062D01*
X115506490Y-93232062D02*
X115506490Y-92282062D01*
X115868395Y-92282062D01*
X115958871Y-92327300D01*
X116004110Y-92372538D01*
X116049348Y-92463014D01*
X116049348Y-92598729D01*
X116004110Y-92689205D01*
X115958871Y-92734443D01*
X115868395Y-92779681D01*
X115506490Y-92779681D01*
X116230300Y-93322538D02*
X116954110Y-93322538D01*
X117135062Y-93186824D02*
X117270777Y-93232062D01*
X117496967Y-93232062D01*
X117587443Y-93186824D01*
X117632681Y-93141586D01*
X117677920Y-93051110D01*
X117677920Y-92960633D01*
X117632681Y-92870157D01*
X117587443Y-92824919D01*
X117496967Y-92779681D01*
X117316015Y-92734443D01*
X117225539Y-92689205D01*
X117180300Y-92643967D01*
X117135062Y-92553490D01*
X117135062Y-92463014D01*
X117180300Y-92372538D01*
X117225539Y-92327300D01*
X117316015Y-92282062D01*
X117542205Y-92282062D01*
X117677920Y-92327300D01*
X118085062Y-93232062D02*
X118085062Y-92282062D01*
X119035063Y-92327300D02*
X118944586Y-92282062D01*
X118808872Y-92282062D01*
X118673158Y-92327300D01*
X118582682Y-92417776D01*
X118537443Y-92508252D01*
X118492205Y-92689205D01*
X118492205Y-92824919D01*
X118537443Y-93005871D01*
X118582682Y-93096348D01*
X118673158Y-93186824D01*
X118808872Y-93232062D01*
X118899348Y-93232062D01*
X119035063Y-93186824D01*
X119080301Y-93141586D01*
X119080301Y-92824919D01*
X118899348Y-92824919D01*
X119487443Y-93232062D02*
X119487443Y-92282062D01*
X120030301Y-93232062D01*
X120030301Y-92282062D01*
X120437443Y-92960633D02*
X120889824Y-92960633D01*
X120346967Y-93232062D02*
X120663634Y-92282062D01*
X120980301Y-93232062D01*
X121749348Y-93232062D02*
X121296967Y-93232062D01*
X121296967Y-92282062D01*
X121839825Y-93322538D02*
X122563635Y-93322538D01*
X122789825Y-93232062D02*
X122789825Y-92282062D01*
X123332683Y-93232062D01*
X123332683Y-92282062D01*
X123739825Y-92960633D02*
X124192206Y-92960633D01*
X123649349Y-93232062D02*
X123966016Y-92282062D01*
X124282683Y-93232062D01*
X124599349Y-93232062D02*
X124599349Y-92282062D01*
X124916016Y-92960633D01*
X125232683Y-92282062D01*
X125232683Y-93232062D01*
X125685063Y-92734443D02*
X126001730Y-92734443D01*
X126137444Y-93232062D02*
X125685063Y-93232062D01*
X125685063Y-92282062D01*
X126137444Y-92282062D01*
X133622490Y-112554729D02*
X134346300Y-112826157D01*
X133622490Y-113097586D01*
X134662966Y-112238062D02*
X135205823Y-112238062D01*
X134934395Y-113188062D02*
X134934395Y-112238062D01*
X135522490Y-113188062D02*
X135522490Y-112238062D01*
X135884395Y-112238062D01*
X135974871Y-112283300D01*
X136020110Y-112328538D01*
X136065348Y-112419014D01*
X136065348Y-112554729D01*
X136020110Y-112645205D01*
X135974871Y-112690443D01*
X135884395Y-112735681D01*
X135522490Y-112735681D01*
X136246300Y-113278538D02*
X136970110Y-113278538D01*
X137151062Y-113142824D02*
X137286777Y-113188062D01*
X137512967Y-113188062D01*
X137603443Y-113142824D01*
X137648681Y-113097586D01*
X137693920Y-113007110D01*
X137693920Y-112916633D01*
X137648681Y-112826157D01*
X137603443Y-112780919D01*
X137512967Y-112735681D01*
X137332015Y-112690443D01*
X137241539Y-112645205D01*
X137196300Y-112599967D01*
X137151062Y-112509490D01*
X137151062Y-112419014D01*
X137196300Y-112328538D01*
X137241539Y-112283300D01*
X137332015Y-112238062D01*
X137558205Y-112238062D01*
X137693920Y-112283300D01*
X138101062Y-113188062D02*
X138101062Y-112238062D01*
X139051063Y-112283300D02*
X138960586Y-112238062D01*
X138824872Y-112238062D01*
X138689158Y-112283300D01*
X138598682Y-112373776D01*
X138553443Y-112464252D01*
X138508205Y-112645205D01*
X138508205Y-112780919D01*
X138553443Y-112961871D01*
X138598682Y-113052348D01*
X138689158Y-113142824D01*
X138824872Y-113188062D01*
X138915348Y-113188062D01*
X139051063Y-113142824D01*
X139096301Y-113097586D01*
X139096301Y-112780919D01*
X138915348Y-112780919D01*
X139503443Y-113188062D02*
X139503443Y-112238062D01*
X140046301Y-113188062D01*
X140046301Y-112238062D01*
X140453443Y-112916633D02*
X140905824Y-112916633D01*
X140362967Y-113188062D02*
X140679634Y-112238062D01*
X140996301Y-113188062D01*
X141765348Y-113188062D02*
X141312967Y-113188062D01*
X141312967Y-112238062D01*
X141855825Y-113278538D02*
X142579635Y-113278538D01*
X142805825Y-113188062D02*
X142805825Y-112238062D01*
X143348683Y-113188062D01*
X143348683Y-112238062D01*
X143755825Y-112916633D02*
X144208206Y-112916633D01*
X143665349Y-113188062D02*
X143982016Y-112238062D01*
X144298683Y-113188062D01*
X144615349Y-113188062D02*
X144615349Y-112238062D01*
X144932016Y-112916633D01*
X145248683Y-112238062D01*
X145248683Y-113188062D01*
X145701063Y-112690443D02*
X146017730Y-112690443D01*
X146153444Y-113188062D02*
X145701063Y-113188062D01*
X145701063Y-112238062D01*
X146153444Y-112238062D01*
X117630490Y-112542729D02*
X118354300Y-112814157D01*
X117630490Y-113085586D01*
X118670966Y-112226062D02*
X119213823Y-112226062D01*
X118942395Y-113176062D02*
X118942395Y-112226062D01*
X119530490Y-113176062D02*
X119530490Y-112226062D01*
X119892395Y-112226062D01*
X119982871Y-112271300D01*
X120028110Y-112316538D01*
X120073348Y-112407014D01*
X120073348Y-112542729D01*
X120028110Y-112633205D01*
X119982871Y-112678443D01*
X119892395Y-112723681D01*
X119530490Y-112723681D01*
X120254300Y-113266538D02*
X120978110Y-113266538D01*
X121159062Y-113130824D02*
X121294777Y-113176062D01*
X121520967Y-113176062D01*
X121611443Y-113130824D01*
X121656681Y-113085586D01*
X121701920Y-112995110D01*
X121701920Y-112904633D01*
X121656681Y-112814157D01*
X121611443Y-112768919D01*
X121520967Y-112723681D01*
X121340015Y-112678443D01*
X121249539Y-112633205D01*
X121204300Y-112587967D01*
X121159062Y-112497490D01*
X121159062Y-112407014D01*
X121204300Y-112316538D01*
X121249539Y-112271300D01*
X121340015Y-112226062D01*
X121566205Y-112226062D01*
X121701920Y-112271300D01*
X122109062Y-113176062D02*
X122109062Y-112226062D01*
X123059063Y-112271300D02*
X122968586Y-112226062D01*
X122832872Y-112226062D01*
X122697158Y-112271300D01*
X122606682Y-112361776D01*
X122561443Y-112452252D01*
X122516205Y-112633205D01*
X122516205Y-112768919D01*
X122561443Y-112949871D01*
X122606682Y-113040348D01*
X122697158Y-113130824D01*
X122832872Y-113176062D01*
X122923348Y-113176062D01*
X123059063Y-113130824D01*
X123104301Y-113085586D01*
X123104301Y-112768919D01*
X122923348Y-112768919D01*
X123511443Y-113176062D02*
X123511443Y-112226062D01*
X124054301Y-113176062D01*
X124054301Y-112226062D01*
X124461443Y-112904633D02*
X124913824Y-112904633D01*
X124370967Y-113176062D02*
X124687634Y-112226062D01*
X125004301Y-113176062D01*
X125773348Y-113176062D02*
X125320967Y-113176062D01*
X125320967Y-112226062D01*
X125863825Y-113266538D02*
X126587635Y-113266538D01*
X126813825Y-113176062D02*
X126813825Y-112226062D01*
X127356683Y-113176062D01*
X127356683Y-112226062D01*
X127763825Y-112904633D02*
X128216206Y-112904633D01*
X127673349Y-113176062D02*
X127990016Y-112226062D01*
X128306683Y-113176062D01*
X128623349Y-113176062D02*
X128623349Y-112226062D01*
X128940016Y-112904633D01*
X129256683Y-112226062D01*
X129256683Y-113176062D01*
X129709063Y-112678443D02*
X130025730Y-112678443D01*
X130161444Y-113176062D02*
X129709063Y-113176062D01*
X129709063Y-112226062D01*
X130161444Y-112226062D01*
X133671490Y-96537729D02*
X134395300Y-96809157D01*
X133671490Y-97080586D01*
X134711966Y-96221062D02*
X135254823Y-96221062D01*
X134983395Y-97171062D02*
X134983395Y-96221062D01*
X135571490Y-97171062D02*
X135571490Y-96221062D01*
X135933395Y-96221062D01*
X136023871Y-96266300D01*
X136069110Y-96311538D01*
X136114348Y-96402014D01*
X136114348Y-96537729D01*
X136069110Y-96628205D01*
X136023871Y-96673443D01*
X135933395Y-96718681D01*
X135571490Y-96718681D01*
X136295300Y-97261538D02*
X137019110Y-97261538D01*
X137200062Y-97125824D02*
X137335777Y-97171062D01*
X137561967Y-97171062D01*
X137652443Y-97125824D01*
X137697681Y-97080586D01*
X137742920Y-96990110D01*
X137742920Y-96899633D01*
X137697681Y-96809157D01*
X137652443Y-96763919D01*
X137561967Y-96718681D01*
X137381015Y-96673443D01*
X137290539Y-96628205D01*
X137245300Y-96582967D01*
X137200062Y-96492490D01*
X137200062Y-96402014D01*
X137245300Y-96311538D01*
X137290539Y-96266300D01*
X137381015Y-96221062D01*
X137607205Y-96221062D01*
X137742920Y-96266300D01*
X138150062Y-97171062D02*
X138150062Y-96221062D01*
X139100063Y-96266300D02*
X139009586Y-96221062D01*
X138873872Y-96221062D01*
X138738158Y-96266300D01*
X138647682Y-96356776D01*
X138602443Y-96447252D01*
X138557205Y-96628205D01*
X138557205Y-96763919D01*
X138602443Y-96944871D01*
X138647682Y-97035348D01*
X138738158Y-97125824D01*
X138873872Y-97171062D01*
X138964348Y-97171062D01*
X139100063Y-97125824D01*
X139145301Y-97080586D01*
X139145301Y-96763919D01*
X138964348Y-96763919D01*
X139552443Y-97171062D02*
X139552443Y-96221062D01*
X140095301Y-97171062D01*
X140095301Y-96221062D01*
X140502443Y-96899633D02*
X140954824Y-96899633D01*
X140411967Y-97171062D02*
X140728634Y-96221062D01*
X141045301Y-97171062D01*
X141814348Y-97171062D02*
X141361967Y-97171062D01*
X141361967Y-96221062D01*
X141904825Y-97261538D02*
X142628635Y-97261538D01*
X142854825Y-97171062D02*
X142854825Y-96221062D01*
X143397683Y-97171062D01*
X143397683Y-96221062D01*
X143804825Y-96899633D02*
X144257206Y-96899633D01*
X143714349Y-97171062D02*
X144031016Y-96221062D01*
X144347683Y-97171062D01*
X144664349Y-97171062D02*
X144664349Y-96221062D01*
X144981016Y-96899633D01*
X145297683Y-96221062D01*
X145297683Y-97171062D01*
X145750063Y-96673443D02*
X146066730Y-96673443D01*
X146202444Y-97171062D02*
X145750063Y-97171062D01*
X145750063Y-96221062D01*
X146202444Y-96221062D01*
X117524490Y-96563729D02*
X118248300Y-96835157D01*
X117524490Y-97106586D01*
X118564966Y-96247062D02*
X119107823Y-96247062D01*
X118836395Y-97197062D02*
X118836395Y-96247062D01*
X119424490Y-97197062D02*
X119424490Y-96247062D01*
X119786395Y-96247062D01*
X119876871Y-96292300D01*
X119922110Y-96337538D01*
X119967348Y-96428014D01*
X119967348Y-96563729D01*
X119922110Y-96654205D01*
X119876871Y-96699443D01*
X119786395Y-96744681D01*
X119424490Y-96744681D01*
X120148300Y-97287538D02*
X120872110Y-97287538D01*
X121053062Y-97151824D02*
X121188777Y-97197062D01*
X121414967Y-97197062D01*
X121505443Y-97151824D01*
X121550681Y-97106586D01*
X121595920Y-97016110D01*
X121595920Y-96925633D01*
X121550681Y-96835157D01*
X121505443Y-96789919D01*
X121414967Y-96744681D01*
X121234015Y-96699443D01*
X121143539Y-96654205D01*
X121098300Y-96608967D01*
X121053062Y-96518490D01*
X121053062Y-96428014D01*
X121098300Y-96337538D01*
X121143539Y-96292300D01*
X121234015Y-96247062D01*
X121460205Y-96247062D01*
X121595920Y-96292300D01*
X122003062Y-97197062D02*
X122003062Y-96247062D01*
X122953063Y-96292300D02*
X122862586Y-96247062D01*
X122726872Y-96247062D01*
X122591158Y-96292300D01*
X122500682Y-96382776D01*
X122455443Y-96473252D01*
X122410205Y-96654205D01*
X122410205Y-96789919D01*
X122455443Y-96970871D01*
X122500682Y-97061348D01*
X122591158Y-97151824D01*
X122726872Y-97197062D01*
X122817348Y-97197062D01*
X122953063Y-97151824D01*
X122998301Y-97106586D01*
X122998301Y-96789919D01*
X122817348Y-96789919D01*
X123405443Y-97197062D02*
X123405443Y-96247062D01*
X123948301Y-97197062D01*
X123948301Y-96247062D01*
X124355443Y-96925633D02*
X124807824Y-96925633D01*
X124264967Y-97197062D02*
X124581634Y-96247062D01*
X124898301Y-97197062D01*
X125667348Y-97197062D02*
X125214967Y-97197062D01*
X125214967Y-96247062D01*
X125757825Y-97287538D02*
X126481635Y-97287538D01*
X126707825Y-97197062D02*
X126707825Y-96247062D01*
X127250683Y-97197062D01*
X127250683Y-96247062D01*
X127657825Y-96925633D02*
X128110206Y-96925633D01*
X127567349Y-97197062D02*
X127884016Y-96247062D01*
X128200683Y-97197062D01*
X128517349Y-97197062D02*
X128517349Y-96247062D01*
X128834016Y-96925633D01*
X129150683Y-96247062D01*
X129150683Y-97197062D01*
X129603063Y-96699443D02*
X129919730Y-96699443D01*
X130055444Y-97197062D02*
X129603063Y-97197062D01*
X129603063Y-96247062D01*
X130055444Y-96247062D01*
X105630490Y-84650729D02*
X106354300Y-84922157D01*
X105630490Y-85193586D01*
X106670966Y-84334062D02*
X107213823Y-84334062D01*
X106942395Y-85284062D02*
X106942395Y-84334062D01*
X107530490Y-85284062D02*
X107530490Y-84334062D01*
X107892395Y-84334062D01*
X107982871Y-84379300D01*
X108028110Y-84424538D01*
X108073348Y-84515014D01*
X108073348Y-84650729D01*
X108028110Y-84741205D01*
X107982871Y-84786443D01*
X107892395Y-84831681D01*
X107530490Y-84831681D01*
X108254300Y-85374538D02*
X108978110Y-85374538D01*
X109159062Y-85238824D02*
X109294777Y-85284062D01*
X109520967Y-85284062D01*
X109611443Y-85238824D01*
X109656681Y-85193586D01*
X109701920Y-85103110D01*
X109701920Y-85012633D01*
X109656681Y-84922157D01*
X109611443Y-84876919D01*
X109520967Y-84831681D01*
X109340015Y-84786443D01*
X109249539Y-84741205D01*
X109204300Y-84695967D01*
X109159062Y-84605490D01*
X109159062Y-84515014D01*
X109204300Y-84424538D01*
X109249539Y-84379300D01*
X109340015Y-84334062D01*
X109566205Y-84334062D01*
X109701920Y-84379300D01*
X110109062Y-85284062D02*
X110109062Y-84334062D01*
X111059063Y-84379300D02*
X110968586Y-84334062D01*
X110832872Y-84334062D01*
X110697158Y-84379300D01*
X110606682Y-84469776D01*
X110561443Y-84560252D01*
X110516205Y-84741205D01*
X110516205Y-84876919D01*
X110561443Y-85057871D01*
X110606682Y-85148348D01*
X110697158Y-85238824D01*
X110832872Y-85284062D01*
X110923348Y-85284062D01*
X111059063Y-85238824D01*
X111104301Y-85193586D01*
X111104301Y-84876919D01*
X110923348Y-84876919D01*
X111511443Y-85284062D02*
X111511443Y-84334062D01*
X112054301Y-85284062D01*
X112054301Y-84334062D01*
X112461443Y-85012633D02*
X112913824Y-85012633D01*
X112370967Y-85284062D02*
X112687634Y-84334062D01*
X113004301Y-85284062D01*
X113773348Y-85284062D02*
X113320967Y-85284062D01*
X113320967Y-84334062D01*
X113863825Y-85374538D02*
X114587635Y-85374538D01*
X114813825Y-85284062D02*
X114813825Y-84334062D01*
X115356683Y-85284062D01*
X115356683Y-84334062D01*
X115763825Y-85012633D02*
X116216206Y-85012633D01*
X115673349Y-85284062D02*
X115990016Y-84334062D01*
X116306683Y-85284062D01*
X116623349Y-85284062D02*
X116623349Y-84334062D01*
X116940016Y-85012633D01*
X117256683Y-84334062D01*
X117256683Y-85284062D01*
X117709063Y-84786443D02*
X118025730Y-84786443D01*
X118161444Y-85284062D02*
X117709063Y-85284062D01*
X117709063Y-84334062D01*
X118161444Y-84334062D01*
X105511490Y-124563729D02*
X106235300Y-124835157D01*
X105511490Y-125106586D01*
X106551966Y-124247062D02*
X107094823Y-124247062D01*
X106823395Y-125197062D02*
X106823395Y-124247062D01*
X107411490Y-125197062D02*
X107411490Y-124247062D01*
X107773395Y-124247062D01*
X107863871Y-124292300D01*
X107909110Y-124337538D01*
X107954348Y-124428014D01*
X107954348Y-124563729D01*
X107909110Y-124654205D01*
X107863871Y-124699443D01*
X107773395Y-124744681D01*
X107411490Y-124744681D01*
X108135300Y-125287538D02*
X108859110Y-125287538D01*
X109040062Y-125151824D02*
X109175777Y-125197062D01*
X109401967Y-125197062D01*
X109492443Y-125151824D01*
X109537681Y-125106586D01*
X109582920Y-125016110D01*
X109582920Y-124925633D01*
X109537681Y-124835157D01*
X109492443Y-124789919D01*
X109401967Y-124744681D01*
X109221015Y-124699443D01*
X109130539Y-124654205D01*
X109085300Y-124608967D01*
X109040062Y-124518490D01*
X109040062Y-124428014D01*
X109085300Y-124337538D01*
X109130539Y-124292300D01*
X109221015Y-124247062D01*
X109447205Y-124247062D01*
X109582920Y-124292300D01*
X109990062Y-125197062D02*
X109990062Y-124247062D01*
X110940063Y-124292300D02*
X110849586Y-124247062D01*
X110713872Y-124247062D01*
X110578158Y-124292300D01*
X110487682Y-124382776D01*
X110442443Y-124473252D01*
X110397205Y-124654205D01*
X110397205Y-124789919D01*
X110442443Y-124970871D01*
X110487682Y-125061348D01*
X110578158Y-125151824D01*
X110713872Y-125197062D01*
X110804348Y-125197062D01*
X110940063Y-125151824D01*
X110985301Y-125106586D01*
X110985301Y-124789919D01*
X110804348Y-124789919D01*
X111392443Y-125197062D02*
X111392443Y-124247062D01*
X111935301Y-125197062D01*
X111935301Y-124247062D01*
X112342443Y-124925633D02*
X112794824Y-124925633D01*
X112251967Y-125197062D02*
X112568634Y-124247062D01*
X112885301Y-125197062D01*
X113654348Y-125197062D02*
X113201967Y-125197062D01*
X113201967Y-124247062D01*
X113744825Y-125287538D02*
X114468635Y-125287538D01*
X114694825Y-125197062D02*
X114694825Y-124247062D01*
X115237683Y-125197062D01*
X115237683Y-124247062D01*
X115644825Y-124925633D02*
X116097206Y-124925633D01*
X115554349Y-125197062D02*
X115871016Y-124247062D01*
X116187683Y-125197062D01*
X116504349Y-125197062D02*
X116504349Y-124247062D01*
X116821016Y-124925633D01*
X117137683Y-124247062D01*
X117137683Y-125197062D01*
X117590063Y-124699443D02*
X117906730Y-124699443D01*
X118042444Y-125197062D02*
X117590063Y-125197062D01*
X117590063Y-124247062D01*
X118042444Y-124247062D01*
X145508490Y-124624729D02*
X146232300Y-124896157D01*
X145508490Y-125167586D01*
X146548966Y-124308062D02*
X147091823Y-124308062D01*
X146820395Y-125258062D02*
X146820395Y-124308062D01*
X147408490Y-125258062D02*
X147408490Y-124308062D01*
X147770395Y-124308062D01*
X147860871Y-124353300D01*
X147906110Y-124398538D01*
X147951348Y-124489014D01*
X147951348Y-124624729D01*
X147906110Y-124715205D01*
X147860871Y-124760443D01*
X147770395Y-124805681D01*
X147408490Y-124805681D01*
X148132300Y-125348538D02*
X148856110Y-125348538D01*
X149037062Y-125212824D02*
X149172777Y-125258062D01*
X149398967Y-125258062D01*
X149489443Y-125212824D01*
X149534681Y-125167586D01*
X149579920Y-125077110D01*
X149579920Y-124986633D01*
X149534681Y-124896157D01*
X149489443Y-124850919D01*
X149398967Y-124805681D01*
X149218015Y-124760443D01*
X149127539Y-124715205D01*
X149082300Y-124669967D01*
X149037062Y-124579490D01*
X149037062Y-124489014D01*
X149082300Y-124398538D01*
X149127539Y-124353300D01*
X149218015Y-124308062D01*
X149444205Y-124308062D01*
X149579920Y-124353300D01*
X149987062Y-125258062D02*
X149987062Y-124308062D01*
X150937063Y-124353300D02*
X150846586Y-124308062D01*
X150710872Y-124308062D01*
X150575158Y-124353300D01*
X150484682Y-124443776D01*
X150439443Y-124534252D01*
X150394205Y-124715205D01*
X150394205Y-124850919D01*
X150439443Y-125031871D01*
X150484682Y-125122348D01*
X150575158Y-125212824D01*
X150710872Y-125258062D01*
X150801348Y-125258062D01*
X150937063Y-125212824D01*
X150982301Y-125167586D01*
X150982301Y-124850919D01*
X150801348Y-124850919D01*
X151389443Y-125258062D02*
X151389443Y-124308062D01*
X151932301Y-125258062D01*
X151932301Y-124308062D01*
X152339443Y-124986633D02*
X152791824Y-124986633D01*
X152248967Y-125258062D02*
X152565634Y-124308062D01*
X152882301Y-125258062D01*
X153651348Y-125258062D02*
X153198967Y-125258062D01*
X153198967Y-124308062D01*
X153741825Y-125348538D02*
X154465635Y-125348538D01*
X154691825Y-125258062D02*
X154691825Y-124308062D01*
X155234683Y-125258062D01*
X155234683Y-124308062D01*
X155641825Y-124986633D02*
X156094206Y-124986633D01*
X155551349Y-125258062D02*
X155868016Y-124308062D01*
X156184683Y-125258062D01*
X156501349Y-125258062D02*
X156501349Y-124308062D01*
X156818016Y-124986633D01*
X157134683Y-124308062D01*
X157134683Y-125258062D01*
X157587063Y-124760443D02*
X157903730Y-124760443D01*
X158039444Y-125258062D02*
X157587063Y-125258062D01*
X157587063Y-124308062D01*
X158039444Y-124308062D01*
X145625490Y-84774729D02*
X146349300Y-85046157D01*
X145625490Y-85317586D01*
X146665966Y-84458062D02*
X147208823Y-84458062D01*
X146937395Y-85408062D02*
X146937395Y-84458062D01*
X147525490Y-85408062D02*
X147525490Y-84458062D01*
X147887395Y-84458062D01*
X147977871Y-84503300D01*
X148023110Y-84548538D01*
X148068348Y-84639014D01*
X148068348Y-84774729D01*
X148023110Y-84865205D01*
X147977871Y-84910443D01*
X147887395Y-84955681D01*
X147525490Y-84955681D01*
X148249300Y-85498538D02*
X148973110Y-85498538D01*
X149154062Y-85362824D02*
X149289777Y-85408062D01*
X149515967Y-85408062D01*
X149606443Y-85362824D01*
X149651681Y-85317586D01*
X149696920Y-85227110D01*
X149696920Y-85136633D01*
X149651681Y-85046157D01*
X149606443Y-85000919D01*
X149515967Y-84955681D01*
X149335015Y-84910443D01*
X149244539Y-84865205D01*
X149199300Y-84819967D01*
X149154062Y-84729490D01*
X149154062Y-84639014D01*
X149199300Y-84548538D01*
X149244539Y-84503300D01*
X149335015Y-84458062D01*
X149561205Y-84458062D01*
X149696920Y-84503300D01*
X150104062Y-85408062D02*
X150104062Y-84458062D01*
X151054063Y-84503300D02*
X150963586Y-84458062D01*
X150827872Y-84458062D01*
X150692158Y-84503300D01*
X150601682Y-84593776D01*
X150556443Y-84684252D01*
X150511205Y-84865205D01*
X150511205Y-85000919D01*
X150556443Y-85181871D01*
X150601682Y-85272348D01*
X150692158Y-85362824D01*
X150827872Y-85408062D01*
X150918348Y-85408062D01*
X151054063Y-85362824D01*
X151099301Y-85317586D01*
X151099301Y-85000919D01*
X150918348Y-85000919D01*
X151506443Y-85408062D02*
X151506443Y-84458062D01*
X152049301Y-85408062D01*
X152049301Y-84458062D01*
X152456443Y-85136633D02*
X152908824Y-85136633D01*
X152365967Y-85408062D02*
X152682634Y-84458062D01*
X152999301Y-85408062D01*
X153768348Y-85408062D02*
X153315967Y-85408062D01*
X153315967Y-84458062D01*
X153858825Y-85498538D02*
X154582635Y-85498538D01*
X154808825Y-85408062D02*
X154808825Y-84458062D01*
X155351683Y-85408062D01*
X155351683Y-84458062D01*
X155758825Y-85136633D02*
X156211206Y-85136633D01*
X155668349Y-85408062D02*
X155985016Y-84458062D01*
X156301683Y-85408062D01*
X156618349Y-85408062D02*
X156618349Y-84458062D01*
X156935016Y-85136633D01*
X157251683Y-84458062D01*
X157251683Y-85408062D01*
X157704063Y-84910443D02*
X158020730Y-84910443D01*
X158156444Y-85408062D02*
X157704063Y-85408062D01*
X157704063Y-84458062D01*
X158156444Y-84458062D01*
X109507490Y-88586729D02*
X110231300Y-88858157D01*
X109507490Y-89129586D01*
X110547966Y-88270062D02*
X111090823Y-88270062D01*
X110819395Y-89220062D02*
X110819395Y-88270062D01*
X111407490Y-89220062D02*
X111407490Y-88270062D01*
X111769395Y-88270062D01*
X111859871Y-88315300D01*
X111905110Y-88360538D01*
X111950348Y-88451014D01*
X111950348Y-88586729D01*
X111905110Y-88677205D01*
X111859871Y-88722443D01*
X111769395Y-88767681D01*
X111407490Y-88767681D01*
X112131300Y-89310538D02*
X112855110Y-89310538D01*
X113036062Y-89174824D02*
X113171777Y-89220062D01*
X113397967Y-89220062D01*
X113488443Y-89174824D01*
X113533681Y-89129586D01*
X113578920Y-89039110D01*
X113578920Y-88948633D01*
X113533681Y-88858157D01*
X113488443Y-88812919D01*
X113397967Y-88767681D01*
X113217015Y-88722443D01*
X113126539Y-88677205D01*
X113081300Y-88631967D01*
X113036062Y-88541490D01*
X113036062Y-88451014D01*
X113081300Y-88360538D01*
X113126539Y-88315300D01*
X113217015Y-88270062D01*
X113443205Y-88270062D01*
X113578920Y-88315300D01*
X113986062Y-89220062D02*
X113986062Y-88270062D01*
X114936063Y-88315300D02*
X114845586Y-88270062D01*
X114709872Y-88270062D01*
X114574158Y-88315300D01*
X114483682Y-88405776D01*
X114438443Y-88496252D01*
X114393205Y-88677205D01*
X114393205Y-88812919D01*
X114438443Y-88993871D01*
X114483682Y-89084348D01*
X114574158Y-89174824D01*
X114709872Y-89220062D01*
X114800348Y-89220062D01*
X114936063Y-89174824D01*
X114981301Y-89129586D01*
X114981301Y-88812919D01*
X114800348Y-88812919D01*
X115388443Y-89220062D02*
X115388443Y-88270062D01*
X115931301Y-89220062D01*
X115931301Y-88270062D01*
X116338443Y-88948633D02*
X116790824Y-88948633D01*
X116247967Y-89220062D02*
X116564634Y-88270062D01*
X116881301Y-89220062D01*
X117650348Y-89220062D02*
X117197967Y-89220062D01*
X117197967Y-88270062D01*
X117740825Y-89310538D02*
X118464635Y-89310538D01*
X118690825Y-89220062D02*
X118690825Y-88270062D01*
X119233683Y-89220062D01*
X119233683Y-88270062D01*
X119640825Y-88948633D02*
X120093206Y-88948633D01*
X119550349Y-89220062D02*
X119867016Y-88270062D01*
X120183683Y-89220062D01*
X120500349Y-89220062D02*
X120500349Y-88270062D01*
X120817016Y-88948633D01*
X121133683Y-88270062D01*
X121133683Y-89220062D01*
X121586063Y-88722443D02*
X121902730Y-88722443D01*
X122038444Y-89220062D02*
X121586063Y-89220062D01*
X121586063Y-88270062D01*
X122038444Y-88270062D01*
X109652490Y-120509729D02*
X110376300Y-120781157D01*
X109652490Y-121052586D01*
X110692966Y-120193062D02*
X111235823Y-120193062D01*
X110964395Y-121143062D02*
X110964395Y-120193062D01*
X111552490Y-121143062D02*
X111552490Y-120193062D01*
X111914395Y-120193062D01*
X112004871Y-120238300D01*
X112050110Y-120283538D01*
X112095348Y-120374014D01*
X112095348Y-120509729D01*
X112050110Y-120600205D01*
X112004871Y-120645443D01*
X111914395Y-120690681D01*
X111552490Y-120690681D01*
X112276300Y-121233538D02*
X113000110Y-121233538D01*
X113181062Y-121097824D02*
X113316777Y-121143062D01*
X113542967Y-121143062D01*
X113633443Y-121097824D01*
X113678681Y-121052586D01*
X113723920Y-120962110D01*
X113723920Y-120871633D01*
X113678681Y-120781157D01*
X113633443Y-120735919D01*
X113542967Y-120690681D01*
X113362015Y-120645443D01*
X113271539Y-120600205D01*
X113226300Y-120554967D01*
X113181062Y-120464490D01*
X113181062Y-120374014D01*
X113226300Y-120283538D01*
X113271539Y-120238300D01*
X113362015Y-120193062D01*
X113588205Y-120193062D01*
X113723920Y-120238300D01*
X114131062Y-121143062D02*
X114131062Y-120193062D01*
X115081063Y-120238300D02*
X114990586Y-120193062D01*
X114854872Y-120193062D01*
X114719158Y-120238300D01*
X114628682Y-120328776D01*
X114583443Y-120419252D01*
X114538205Y-120600205D01*
X114538205Y-120735919D01*
X114583443Y-120916871D01*
X114628682Y-121007348D01*
X114719158Y-121097824D01*
X114854872Y-121143062D01*
X114945348Y-121143062D01*
X115081063Y-121097824D01*
X115126301Y-121052586D01*
X115126301Y-120735919D01*
X114945348Y-120735919D01*
X115533443Y-121143062D02*
X115533443Y-120193062D01*
X116076301Y-121143062D01*
X116076301Y-120193062D01*
X116483443Y-120871633D02*
X116935824Y-120871633D01*
X116392967Y-121143062D02*
X116709634Y-120193062D01*
X117026301Y-121143062D01*
X117795348Y-121143062D02*
X117342967Y-121143062D01*
X117342967Y-120193062D01*
X117885825Y-121233538D02*
X118609635Y-121233538D01*
X118835825Y-121143062D02*
X118835825Y-120193062D01*
X119378683Y-121143062D01*
X119378683Y-120193062D01*
X119785825Y-120871633D02*
X120238206Y-120871633D01*
X119695349Y-121143062D02*
X120012016Y-120193062D01*
X120328683Y-121143062D01*
X120645349Y-121143062D02*
X120645349Y-120193062D01*
X120962016Y-120871633D01*
X121278683Y-120193062D01*
X121278683Y-121143062D01*
X121731063Y-120645443D02*
X122047730Y-120645443D01*
X122183444Y-121143062D02*
X121731063Y-121143062D01*
X121731063Y-120193062D01*
X122183444Y-120193062D01*
X141471490Y-120536729D02*
X142195300Y-120808157D01*
X141471490Y-121079586D01*
X142511966Y-120220062D02*
X143054823Y-120220062D01*
X142783395Y-121170062D02*
X142783395Y-120220062D01*
X143371490Y-121170062D02*
X143371490Y-120220062D01*
X143733395Y-120220062D01*
X143823871Y-120265300D01*
X143869110Y-120310538D01*
X143914348Y-120401014D01*
X143914348Y-120536729D01*
X143869110Y-120627205D01*
X143823871Y-120672443D01*
X143733395Y-120717681D01*
X143371490Y-120717681D01*
X144095300Y-121260538D02*
X144819110Y-121260538D01*
X145000062Y-121124824D02*
X145135777Y-121170062D01*
X145361967Y-121170062D01*
X145452443Y-121124824D01*
X145497681Y-121079586D01*
X145542920Y-120989110D01*
X145542920Y-120898633D01*
X145497681Y-120808157D01*
X145452443Y-120762919D01*
X145361967Y-120717681D01*
X145181015Y-120672443D01*
X145090539Y-120627205D01*
X145045300Y-120581967D01*
X145000062Y-120491490D01*
X145000062Y-120401014D01*
X145045300Y-120310538D01*
X145090539Y-120265300D01*
X145181015Y-120220062D01*
X145407205Y-120220062D01*
X145542920Y-120265300D01*
X145950062Y-121170062D02*
X145950062Y-120220062D01*
X146900063Y-120265300D02*
X146809586Y-120220062D01*
X146673872Y-120220062D01*
X146538158Y-120265300D01*
X146447682Y-120355776D01*
X146402443Y-120446252D01*
X146357205Y-120627205D01*
X146357205Y-120762919D01*
X146402443Y-120943871D01*
X146447682Y-121034348D01*
X146538158Y-121124824D01*
X146673872Y-121170062D01*
X146764348Y-121170062D01*
X146900063Y-121124824D01*
X146945301Y-121079586D01*
X146945301Y-120762919D01*
X146764348Y-120762919D01*
X147352443Y-121170062D02*
X147352443Y-120220062D01*
X147895301Y-121170062D01*
X147895301Y-120220062D01*
X148302443Y-120898633D02*
X148754824Y-120898633D01*
X148211967Y-121170062D02*
X148528634Y-120220062D01*
X148845301Y-121170062D01*
X149614348Y-121170062D02*
X149161967Y-121170062D01*
X149161967Y-120220062D01*
X149704825Y-121260538D02*
X150428635Y-121260538D01*
X150654825Y-121170062D02*
X150654825Y-120220062D01*
X151197683Y-121170062D01*
X151197683Y-120220062D01*
X151604825Y-120898633D02*
X152057206Y-120898633D01*
X151514349Y-121170062D02*
X151831016Y-120220062D01*
X152147683Y-121170062D01*
X152464349Y-121170062D02*
X152464349Y-120220062D01*
X152781016Y-120898633D01*
X153097683Y-120220062D01*
X153097683Y-121170062D01*
X153550063Y-120672443D02*
X153866730Y-120672443D01*
X154002444Y-121170062D02*
X153550063Y-121170062D01*
X153550063Y-120220062D01*
X154002444Y-120220062D01*
X141636490Y-88504729D02*
X142360300Y-88776157D01*
X141636490Y-89047586D01*
X142676966Y-88188062D02*
X143219823Y-88188062D01*
X142948395Y-89138062D02*
X142948395Y-88188062D01*
X143536490Y-89138062D02*
X143536490Y-88188062D01*
X143898395Y-88188062D01*
X143988871Y-88233300D01*
X144034110Y-88278538D01*
X144079348Y-88369014D01*
X144079348Y-88504729D01*
X144034110Y-88595205D01*
X143988871Y-88640443D01*
X143898395Y-88685681D01*
X143536490Y-88685681D01*
X144260300Y-89228538D02*
X144984110Y-89228538D01*
X145165062Y-89092824D02*
X145300777Y-89138062D01*
X145526967Y-89138062D01*
X145617443Y-89092824D01*
X145662681Y-89047586D01*
X145707920Y-88957110D01*
X145707920Y-88866633D01*
X145662681Y-88776157D01*
X145617443Y-88730919D01*
X145526967Y-88685681D01*
X145346015Y-88640443D01*
X145255539Y-88595205D01*
X145210300Y-88549967D01*
X145165062Y-88459490D01*
X145165062Y-88369014D01*
X145210300Y-88278538D01*
X145255539Y-88233300D01*
X145346015Y-88188062D01*
X145572205Y-88188062D01*
X145707920Y-88233300D01*
X146115062Y-89138062D02*
X146115062Y-88188062D01*
X147065063Y-88233300D02*
X146974586Y-88188062D01*
X146838872Y-88188062D01*
X146703158Y-88233300D01*
X146612682Y-88323776D01*
X146567443Y-88414252D01*
X146522205Y-88595205D01*
X146522205Y-88730919D01*
X146567443Y-88911871D01*
X146612682Y-89002348D01*
X146703158Y-89092824D01*
X146838872Y-89138062D01*
X146929348Y-89138062D01*
X147065063Y-89092824D01*
X147110301Y-89047586D01*
X147110301Y-88730919D01*
X146929348Y-88730919D01*
X147517443Y-89138062D02*
X147517443Y-88188062D01*
X148060301Y-89138062D01*
X148060301Y-88188062D01*
X148467443Y-88866633D02*
X148919824Y-88866633D01*
X148376967Y-89138062D02*
X148693634Y-88188062D01*
X149010301Y-89138062D01*
X149779348Y-89138062D02*
X149326967Y-89138062D01*
X149326967Y-88188062D01*
X149869825Y-89228538D02*
X150593635Y-89228538D01*
X150819825Y-89138062D02*
X150819825Y-88188062D01*
X151362683Y-89138062D01*
X151362683Y-88188062D01*
X151769825Y-88866633D02*
X152222206Y-88866633D01*
X151679349Y-89138062D02*
X151996016Y-88188062D01*
X152312683Y-89138062D01*
X152629349Y-89138062D02*
X152629349Y-88188062D01*
X152946016Y-88866633D01*
X153262683Y-88188062D01*
X153262683Y-89138062D01*
X153715063Y-88640443D02*
X154031730Y-88640443D01*
X154167444Y-89138062D02*
X153715063Y-89138062D01*
X153715063Y-88188062D01*
X154167444Y-88188062D01*
X145998890Y-124519329D02*
X146722700Y-124790757D01*
X145998890Y-125062186D01*
X147039366Y-124202662D02*
X147582223Y-124202662D01*
X147310795Y-125152662D02*
X147310795Y-124202662D01*
X147898890Y-125152662D02*
X147898890Y-124202662D01*
X148260795Y-124202662D01*
X148351271Y-124247900D01*
X148396510Y-124293138D01*
X148441748Y-124383614D01*
X148441748Y-124519329D01*
X148396510Y-124609805D01*
X148351271Y-124655043D01*
X148260795Y-124700281D01*
X147898890Y-124700281D01*
X148622700Y-125243138D02*
X149346510Y-125243138D01*
X149527462Y-125107424D02*
X149663177Y-125152662D01*
X149889367Y-125152662D01*
X149979843Y-125107424D01*
X150025081Y-125062186D01*
X150070320Y-124971710D01*
X150070320Y-124881233D01*
X150025081Y-124790757D01*
X149979843Y-124745519D01*
X149889367Y-124700281D01*
X149708415Y-124655043D01*
X149617939Y-124609805D01*
X149572700Y-124564567D01*
X149527462Y-124474090D01*
X149527462Y-124383614D01*
X149572700Y-124293138D01*
X149617939Y-124247900D01*
X149708415Y-124202662D01*
X149934605Y-124202662D01*
X150070320Y-124247900D01*
X150477462Y-125152662D02*
X150477462Y-124202662D01*
X151427463Y-124247900D02*
X151336986Y-124202662D01*
X151201272Y-124202662D01*
X151065558Y-124247900D01*
X150975082Y-124338376D01*
X150929843Y-124428852D01*
X150884605Y-124609805D01*
X150884605Y-124745519D01*
X150929843Y-124926471D01*
X150975082Y-125016948D01*
X151065558Y-125107424D01*
X151201272Y-125152662D01*
X151291748Y-125152662D01*
X151427463Y-125107424D01*
X151472701Y-125062186D01*
X151472701Y-124745519D01*
X151291748Y-124745519D01*
X151879843Y-125152662D02*
X151879843Y-124202662D01*
X152422701Y-125152662D01*
X152422701Y-124202662D01*
X152829843Y-124881233D02*
X153282224Y-124881233D01*
X152739367Y-125152662D02*
X153056034Y-124202662D01*
X153372701Y-125152662D01*
X154141748Y-125152662D02*
X153689367Y-125152662D01*
X153689367Y-124202662D01*
X154232225Y-125243138D02*
X154956035Y-125243138D01*
X155182225Y-125152662D02*
X155182225Y-124202662D01*
X155725083Y-125152662D01*
X155725083Y-124202662D01*
X156132225Y-124881233D02*
X156584606Y-124881233D01*
X156041749Y-125152662D02*
X156358416Y-124202662D01*
X156675083Y-125152662D01*
X156991749Y-125152662D02*
X156991749Y-124202662D01*
X157308416Y-124881233D01*
X157625083Y-124202662D01*
X157625083Y-125152662D01*
X158077463Y-124655043D02*
X158394130Y-124655043D01*
X158529844Y-125152662D02*
X158077463Y-125152662D01*
X158077463Y-124202662D01*
X158529844Y-124202662D01*
X145980690Y-128653329D02*
X146704500Y-128924757D01*
X145980690Y-129196186D01*
X147021166Y-128336662D02*
X147564023Y-128336662D01*
X147292595Y-129286662D02*
X147292595Y-128336662D01*
X147880690Y-129286662D02*
X147880690Y-128336662D01*
X148242595Y-128336662D01*
X148333071Y-128381900D01*
X148378310Y-128427138D01*
X148423548Y-128517614D01*
X148423548Y-128653329D01*
X148378310Y-128743805D01*
X148333071Y-128789043D01*
X148242595Y-128834281D01*
X147880690Y-128834281D01*
X148604500Y-129377138D02*
X149328310Y-129377138D01*
X149509262Y-129241424D02*
X149644977Y-129286662D01*
X149871167Y-129286662D01*
X149961643Y-129241424D01*
X150006881Y-129196186D01*
X150052120Y-129105710D01*
X150052120Y-129015233D01*
X150006881Y-128924757D01*
X149961643Y-128879519D01*
X149871167Y-128834281D01*
X149690215Y-128789043D01*
X149599739Y-128743805D01*
X149554500Y-128698567D01*
X149509262Y-128608090D01*
X149509262Y-128517614D01*
X149554500Y-128427138D01*
X149599739Y-128381900D01*
X149690215Y-128336662D01*
X149916405Y-128336662D01*
X150052120Y-128381900D01*
X150459262Y-129286662D02*
X150459262Y-128336662D01*
X151409263Y-128381900D02*
X151318786Y-128336662D01*
X151183072Y-128336662D01*
X151047358Y-128381900D01*
X150956882Y-128472376D01*
X150911643Y-128562852D01*
X150866405Y-128743805D01*
X150866405Y-128879519D01*
X150911643Y-129060471D01*
X150956882Y-129150948D01*
X151047358Y-129241424D01*
X151183072Y-129286662D01*
X151273548Y-129286662D01*
X151409263Y-129241424D01*
X151454501Y-129196186D01*
X151454501Y-128879519D01*
X151273548Y-128879519D01*
X151861643Y-129286662D02*
X151861643Y-128336662D01*
X152404501Y-129286662D01*
X152404501Y-128336662D01*
X152811643Y-129015233D02*
X153264024Y-129015233D01*
X152721167Y-129286662D02*
X153037834Y-128336662D01*
X153354501Y-129286662D01*
X154123548Y-129286662D02*
X153671167Y-129286662D01*
X153671167Y-128336662D01*
X154214025Y-129377138D02*
X154937835Y-129377138D01*
X155164025Y-129286662D02*
X155164025Y-128336662D01*
X155706883Y-129286662D01*
X155706883Y-128336662D01*
X156114025Y-129015233D02*
X156566406Y-129015233D01*
X156023549Y-129286662D02*
X156340216Y-128336662D01*
X156656883Y-129286662D01*
X156973549Y-129286662D02*
X156973549Y-128336662D01*
X157290216Y-129015233D01*
X157606883Y-128336662D01*
X157606883Y-129286662D01*
X158059263Y-128789043D02*
X158375930Y-128789043D01*
X158511644Y-129286662D02*
X158059263Y-129286662D01*
X158059263Y-128336662D01*
X158511644Y-128336662D01*
X103803290Y-78605329D02*
X104527100Y-78876757D01*
X103803290Y-79148186D01*
X104843766Y-78288662D02*
X105386623Y-78288662D01*
X105115195Y-79238662D02*
X105115195Y-78288662D01*
X105703290Y-79238662D02*
X105703290Y-78288662D01*
X106065195Y-78288662D01*
X106155671Y-78333900D01*
X106200910Y-78379138D01*
X106246148Y-78469614D01*
X106246148Y-78605329D01*
X106200910Y-78695805D01*
X106155671Y-78741043D01*
X106065195Y-78786281D01*
X105703290Y-78786281D01*
X106427100Y-79329138D02*
X107150910Y-79329138D01*
X107331862Y-79193424D02*
X107467577Y-79238662D01*
X107693767Y-79238662D01*
X107784243Y-79193424D01*
X107829481Y-79148186D01*
X107874720Y-79057710D01*
X107874720Y-78967233D01*
X107829481Y-78876757D01*
X107784243Y-78831519D01*
X107693767Y-78786281D01*
X107512815Y-78741043D01*
X107422339Y-78695805D01*
X107377100Y-78650567D01*
X107331862Y-78560090D01*
X107331862Y-78469614D01*
X107377100Y-78379138D01*
X107422339Y-78333900D01*
X107512815Y-78288662D01*
X107739005Y-78288662D01*
X107874720Y-78333900D01*
X108281862Y-79238662D02*
X108281862Y-78288662D01*
X109231863Y-78333900D02*
X109141386Y-78288662D01*
X109005672Y-78288662D01*
X108869958Y-78333900D01*
X108779482Y-78424376D01*
X108734243Y-78514852D01*
X108689005Y-78695805D01*
X108689005Y-78831519D01*
X108734243Y-79012471D01*
X108779482Y-79102948D01*
X108869958Y-79193424D01*
X109005672Y-79238662D01*
X109096148Y-79238662D01*
X109231863Y-79193424D01*
X109277101Y-79148186D01*
X109277101Y-78831519D01*
X109096148Y-78831519D01*
X109684243Y-79238662D02*
X109684243Y-78288662D01*
X110227101Y-79238662D01*
X110227101Y-78288662D01*
X110634243Y-78967233D02*
X111086624Y-78967233D01*
X110543767Y-79238662D02*
X110860434Y-78288662D01*
X111177101Y-79238662D01*
X111946148Y-79238662D02*
X111493767Y-79238662D01*
X111493767Y-78288662D01*
X112036625Y-79329138D02*
X112760435Y-79329138D01*
X112986625Y-79238662D02*
X112986625Y-78288662D01*
X113529483Y-79238662D01*
X113529483Y-78288662D01*
X113936625Y-78967233D02*
X114389006Y-78967233D01*
X113846149Y-79238662D02*
X114162816Y-78288662D01*
X114479483Y-79238662D01*
X114796149Y-79238662D02*
X114796149Y-78288662D01*
X115112816Y-78967233D01*
X115429483Y-78288662D01*
X115429483Y-79238662D01*
X115881863Y-78741043D02*
X116198530Y-78741043D01*
X116334244Y-79238662D02*
X115881863Y-79238662D01*
X115881863Y-78288662D01*
X116334244Y-78288662D01*
X103989290Y-81550329D02*
X104713100Y-81821757D01*
X103989290Y-82093186D01*
X105029766Y-81233662D02*
X105572623Y-81233662D01*
X105301195Y-82183662D02*
X105301195Y-81233662D01*
X105889290Y-82183662D02*
X105889290Y-81233662D01*
X106251195Y-81233662D01*
X106341671Y-81278900D01*
X106386910Y-81324138D01*
X106432148Y-81414614D01*
X106432148Y-81550329D01*
X106386910Y-81640805D01*
X106341671Y-81686043D01*
X106251195Y-81731281D01*
X105889290Y-81731281D01*
X106613100Y-82274138D02*
X107336910Y-82274138D01*
X107517862Y-82138424D02*
X107653577Y-82183662D01*
X107879767Y-82183662D01*
X107970243Y-82138424D01*
X108015481Y-82093186D01*
X108060720Y-82002710D01*
X108060720Y-81912233D01*
X108015481Y-81821757D01*
X107970243Y-81776519D01*
X107879767Y-81731281D01*
X107698815Y-81686043D01*
X107608339Y-81640805D01*
X107563100Y-81595567D01*
X107517862Y-81505090D01*
X107517862Y-81414614D01*
X107563100Y-81324138D01*
X107608339Y-81278900D01*
X107698815Y-81233662D01*
X107925005Y-81233662D01*
X108060720Y-81278900D01*
X108467862Y-82183662D02*
X108467862Y-81233662D01*
X109417863Y-81278900D02*
X109327386Y-81233662D01*
X109191672Y-81233662D01*
X109055958Y-81278900D01*
X108965482Y-81369376D01*
X108920243Y-81459852D01*
X108875005Y-81640805D01*
X108875005Y-81776519D01*
X108920243Y-81957471D01*
X108965482Y-82047948D01*
X109055958Y-82138424D01*
X109191672Y-82183662D01*
X109282148Y-82183662D01*
X109417863Y-82138424D01*
X109463101Y-82093186D01*
X109463101Y-81776519D01*
X109282148Y-81776519D01*
X109870243Y-82183662D02*
X109870243Y-81233662D01*
X110413101Y-82183662D01*
X110413101Y-81233662D01*
X110820243Y-81912233D02*
X111272624Y-81912233D01*
X110729767Y-82183662D02*
X111046434Y-81233662D01*
X111363101Y-82183662D01*
X112132148Y-82183662D02*
X111679767Y-82183662D01*
X111679767Y-81233662D01*
X112222625Y-82274138D02*
X112946435Y-82274138D01*
X113172625Y-82183662D02*
X113172625Y-81233662D01*
X113715483Y-82183662D01*
X113715483Y-81233662D01*
X114122625Y-81912233D02*
X114575006Y-81912233D01*
X114032149Y-82183662D02*
X114348816Y-81233662D01*
X114665483Y-82183662D01*
X114982149Y-82183662D02*
X114982149Y-81233662D01*
X115298816Y-81912233D01*
X115615483Y-81233662D01*
X115615483Y-82183662D01*
X116067863Y-81686043D02*
X116384530Y-81686043D01*
X116520244Y-82183662D02*
X116067863Y-82183662D01*
X116067863Y-81233662D01*
X116520244Y-81233662D01*
X104101290Y-89975329D02*
X104825100Y-90246757D01*
X104101290Y-90518186D01*
X105141766Y-89658662D02*
X105684623Y-89658662D01*
X105413195Y-90608662D02*
X105413195Y-89658662D01*
X106001290Y-90608662D02*
X106001290Y-89658662D01*
X106363195Y-89658662D01*
X106453671Y-89703900D01*
X106498910Y-89749138D01*
X106544148Y-89839614D01*
X106544148Y-89975329D01*
X106498910Y-90065805D01*
X106453671Y-90111043D01*
X106363195Y-90156281D01*
X106001290Y-90156281D01*
X106725100Y-90699138D02*
X107448910Y-90699138D01*
X107629862Y-90563424D02*
X107765577Y-90608662D01*
X107991767Y-90608662D01*
X108082243Y-90563424D01*
X108127481Y-90518186D01*
X108172720Y-90427710D01*
X108172720Y-90337233D01*
X108127481Y-90246757D01*
X108082243Y-90201519D01*
X107991767Y-90156281D01*
X107810815Y-90111043D01*
X107720339Y-90065805D01*
X107675100Y-90020567D01*
X107629862Y-89930090D01*
X107629862Y-89839614D01*
X107675100Y-89749138D01*
X107720339Y-89703900D01*
X107810815Y-89658662D01*
X108037005Y-89658662D01*
X108172720Y-89703900D01*
X108579862Y-90608662D02*
X108579862Y-89658662D01*
X109529863Y-89703900D02*
X109439386Y-89658662D01*
X109303672Y-89658662D01*
X109167958Y-89703900D01*
X109077482Y-89794376D01*
X109032243Y-89884852D01*
X108987005Y-90065805D01*
X108987005Y-90201519D01*
X109032243Y-90382471D01*
X109077482Y-90472948D01*
X109167958Y-90563424D01*
X109303672Y-90608662D01*
X109394148Y-90608662D01*
X109529863Y-90563424D01*
X109575101Y-90518186D01*
X109575101Y-90201519D01*
X109394148Y-90201519D01*
X109982243Y-90608662D02*
X109982243Y-89658662D01*
X110525101Y-90608662D01*
X110525101Y-89658662D01*
X110932243Y-90337233D02*
X111384624Y-90337233D01*
X110841767Y-90608662D02*
X111158434Y-89658662D01*
X111475101Y-90608662D01*
X112244148Y-90608662D02*
X111791767Y-90608662D01*
X111791767Y-89658662D01*
X112334625Y-90699138D02*
X113058435Y-90699138D01*
X113284625Y-90608662D02*
X113284625Y-89658662D01*
X113827483Y-90608662D01*
X113827483Y-89658662D01*
X114234625Y-90337233D02*
X114687006Y-90337233D01*
X114144149Y-90608662D02*
X114460816Y-89658662D01*
X114777483Y-90608662D01*
X115094149Y-90608662D02*
X115094149Y-89658662D01*
X115410816Y-90337233D01*
X115727483Y-89658662D01*
X115727483Y-90608662D01*
X116179863Y-90111043D02*
X116496530Y-90111043D01*
X116632244Y-90608662D02*
X116179863Y-90608662D01*
X116179863Y-89658662D01*
X116632244Y-89658662D01*
X104090290Y-92953329D02*
X104814100Y-93224757D01*
X104090290Y-93496186D01*
X105130766Y-92636662D02*
X105673623Y-92636662D01*
X105402195Y-93586662D02*
X105402195Y-92636662D01*
X105990290Y-93586662D02*
X105990290Y-92636662D01*
X106352195Y-92636662D01*
X106442671Y-92681900D01*
X106487910Y-92727138D01*
X106533148Y-92817614D01*
X106533148Y-92953329D01*
X106487910Y-93043805D01*
X106442671Y-93089043D01*
X106352195Y-93134281D01*
X105990290Y-93134281D01*
X106714100Y-93677138D02*
X107437910Y-93677138D01*
X107618862Y-93541424D02*
X107754577Y-93586662D01*
X107980767Y-93586662D01*
X108071243Y-93541424D01*
X108116481Y-93496186D01*
X108161720Y-93405710D01*
X108161720Y-93315233D01*
X108116481Y-93224757D01*
X108071243Y-93179519D01*
X107980767Y-93134281D01*
X107799815Y-93089043D01*
X107709339Y-93043805D01*
X107664100Y-92998567D01*
X107618862Y-92908090D01*
X107618862Y-92817614D01*
X107664100Y-92727138D01*
X107709339Y-92681900D01*
X107799815Y-92636662D01*
X108026005Y-92636662D01*
X108161720Y-92681900D01*
X108568862Y-93586662D02*
X108568862Y-92636662D01*
X109518863Y-92681900D02*
X109428386Y-92636662D01*
X109292672Y-92636662D01*
X109156958Y-92681900D01*
X109066482Y-92772376D01*
X109021243Y-92862852D01*
X108976005Y-93043805D01*
X108976005Y-93179519D01*
X109021243Y-93360471D01*
X109066482Y-93450948D01*
X109156958Y-93541424D01*
X109292672Y-93586662D01*
X109383148Y-93586662D01*
X109518863Y-93541424D01*
X109564101Y-93496186D01*
X109564101Y-93179519D01*
X109383148Y-93179519D01*
X109971243Y-93586662D02*
X109971243Y-92636662D01*
X110514101Y-93586662D01*
X110514101Y-92636662D01*
X110921243Y-93315233D02*
X111373624Y-93315233D01*
X110830767Y-93586662D02*
X111147434Y-92636662D01*
X111464101Y-93586662D01*
X112233148Y-93586662D02*
X111780767Y-93586662D01*
X111780767Y-92636662D01*
X112323625Y-93677138D02*
X113047435Y-93677138D01*
X113273625Y-93586662D02*
X113273625Y-92636662D01*
X113816483Y-93586662D01*
X113816483Y-92636662D01*
X114223625Y-93315233D02*
X114676006Y-93315233D01*
X114133149Y-93586662D02*
X114449816Y-92636662D01*
X114766483Y-93586662D01*
X115083149Y-93586662D02*
X115083149Y-92636662D01*
X115399816Y-93315233D01*
X115716483Y-92636662D01*
X115716483Y-93586662D01*
X116168863Y-93089043D02*
X116485530Y-93089043D01*
X116621244Y-93586662D02*
X116168863Y-93586662D01*
X116168863Y-92636662D01*
X116621244Y-92636662D01*
X104068290Y-84393329D02*
X104792100Y-84664757D01*
X104068290Y-84936186D01*
X105108766Y-84076662D02*
X105651623Y-84076662D01*
X105380195Y-85026662D02*
X105380195Y-84076662D01*
X105968290Y-85026662D02*
X105968290Y-84076662D01*
X106330195Y-84076662D01*
X106420671Y-84121900D01*
X106465910Y-84167138D01*
X106511148Y-84257614D01*
X106511148Y-84393329D01*
X106465910Y-84483805D01*
X106420671Y-84529043D01*
X106330195Y-84574281D01*
X105968290Y-84574281D01*
X106692100Y-85117138D02*
X107415910Y-85117138D01*
X107596862Y-84981424D02*
X107732577Y-85026662D01*
X107958767Y-85026662D01*
X108049243Y-84981424D01*
X108094481Y-84936186D01*
X108139720Y-84845710D01*
X108139720Y-84755233D01*
X108094481Y-84664757D01*
X108049243Y-84619519D01*
X107958767Y-84574281D01*
X107777815Y-84529043D01*
X107687339Y-84483805D01*
X107642100Y-84438567D01*
X107596862Y-84348090D01*
X107596862Y-84257614D01*
X107642100Y-84167138D01*
X107687339Y-84121900D01*
X107777815Y-84076662D01*
X108004005Y-84076662D01*
X108139720Y-84121900D01*
X108546862Y-85026662D02*
X108546862Y-84076662D01*
X109496863Y-84121900D02*
X109406386Y-84076662D01*
X109270672Y-84076662D01*
X109134958Y-84121900D01*
X109044482Y-84212376D01*
X108999243Y-84302852D01*
X108954005Y-84483805D01*
X108954005Y-84619519D01*
X108999243Y-84800471D01*
X109044482Y-84890948D01*
X109134958Y-84981424D01*
X109270672Y-85026662D01*
X109361148Y-85026662D01*
X109496863Y-84981424D01*
X109542101Y-84936186D01*
X109542101Y-84619519D01*
X109361148Y-84619519D01*
X109949243Y-85026662D02*
X109949243Y-84076662D01*
X110492101Y-85026662D01*
X110492101Y-84076662D01*
X110899243Y-84755233D02*
X111351624Y-84755233D01*
X110808767Y-85026662D02*
X111125434Y-84076662D01*
X111442101Y-85026662D01*
X112211148Y-85026662D02*
X111758767Y-85026662D01*
X111758767Y-84076662D01*
X112301625Y-85117138D02*
X113025435Y-85117138D01*
X113251625Y-85026662D02*
X113251625Y-84076662D01*
X113794483Y-85026662D01*
X113794483Y-84076662D01*
X114201625Y-84755233D02*
X114654006Y-84755233D01*
X114111149Y-85026662D02*
X114427816Y-84076662D01*
X114744483Y-85026662D01*
X115061149Y-85026662D02*
X115061149Y-84076662D01*
X115377816Y-84755233D01*
X115694483Y-84076662D01*
X115694483Y-85026662D01*
X116146863Y-84529043D02*
X116463530Y-84529043D01*
X116599244Y-85026662D02*
X116146863Y-85026662D01*
X116146863Y-84076662D01*
X116599244Y-84076662D01*
X104240290Y-98633329D02*
X104964100Y-98904757D01*
X104240290Y-99176186D01*
X105280766Y-98316662D02*
X105823623Y-98316662D01*
X105552195Y-99266662D02*
X105552195Y-98316662D01*
X106140290Y-99266662D02*
X106140290Y-98316662D01*
X106502195Y-98316662D01*
X106592671Y-98361900D01*
X106637910Y-98407138D01*
X106683148Y-98497614D01*
X106683148Y-98633329D01*
X106637910Y-98723805D01*
X106592671Y-98769043D01*
X106502195Y-98814281D01*
X106140290Y-98814281D01*
X106864100Y-99357138D02*
X107587910Y-99357138D01*
X107768862Y-99221424D02*
X107904577Y-99266662D01*
X108130767Y-99266662D01*
X108221243Y-99221424D01*
X108266481Y-99176186D01*
X108311720Y-99085710D01*
X108311720Y-98995233D01*
X108266481Y-98904757D01*
X108221243Y-98859519D01*
X108130767Y-98814281D01*
X107949815Y-98769043D01*
X107859339Y-98723805D01*
X107814100Y-98678567D01*
X107768862Y-98588090D01*
X107768862Y-98497614D01*
X107814100Y-98407138D01*
X107859339Y-98361900D01*
X107949815Y-98316662D01*
X108176005Y-98316662D01*
X108311720Y-98361900D01*
X108718862Y-99266662D02*
X108718862Y-98316662D01*
X109668863Y-98361900D02*
X109578386Y-98316662D01*
X109442672Y-98316662D01*
X109306958Y-98361900D01*
X109216482Y-98452376D01*
X109171243Y-98542852D01*
X109126005Y-98723805D01*
X109126005Y-98859519D01*
X109171243Y-99040471D01*
X109216482Y-99130948D01*
X109306958Y-99221424D01*
X109442672Y-99266662D01*
X109533148Y-99266662D01*
X109668863Y-99221424D01*
X109714101Y-99176186D01*
X109714101Y-98859519D01*
X109533148Y-98859519D01*
X110121243Y-99266662D02*
X110121243Y-98316662D01*
X110664101Y-99266662D01*
X110664101Y-98316662D01*
X111071243Y-98995233D02*
X111523624Y-98995233D01*
X110980767Y-99266662D02*
X111297434Y-98316662D01*
X111614101Y-99266662D01*
X112383148Y-99266662D02*
X111930767Y-99266662D01*
X111930767Y-98316662D01*
X112473625Y-99357138D02*
X113197435Y-99357138D01*
X113423625Y-99266662D02*
X113423625Y-98316662D01*
X113966483Y-99266662D01*
X113966483Y-98316662D01*
X114373625Y-98995233D02*
X114826006Y-98995233D01*
X114283149Y-99266662D02*
X114599816Y-98316662D01*
X114916483Y-99266662D01*
X115233149Y-99266662D02*
X115233149Y-98316662D01*
X115549816Y-98995233D01*
X115866483Y-98316662D01*
X115866483Y-99266662D01*
X116318863Y-98769043D02*
X116635530Y-98769043D01*
X116771244Y-99266662D02*
X116318863Y-99266662D01*
X116318863Y-98316662D01*
X116771244Y-98316662D01*
X104091290Y-95817329D02*
X104815100Y-96088757D01*
X104091290Y-96360186D01*
X105131766Y-95500662D02*
X105674623Y-95500662D01*
X105403195Y-96450662D02*
X105403195Y-95500662D01*
X105991290Y-96450662D02*
X105991290Y-95500662D01*
X106353195Y-95500662D01*
X106443671Y-95545900D01*
X106488910Y-95591138D01*
X106534148Y-95681614D01*
X106534148Y-95817329D01*
X106488910Y-95907805D01*
X106443671Y-95953043D01*
X106353195Y-95998281D01*
X105991290Y-95998281D01*
X106715100Y-96541138D02*
X107438910Y-96541138D01*
X107619862Y-96405424D02*
X107755577Y-96450662D01*
X107981767Y-96450662D01*
X108072243Y-96405424D01*
X108117481Y-96360186D01*
X108162720Y-96269710D01*
X108162720Y-96179233D01*
X108117481Y-96088757D01*
X108072243Y-96043519D01*
X107981767Y-95998281D01*
X107800815Y-95953043D01*
X107710339Y-95907805D01*
X107665100Y-95862567D01*
X107619862Y-95772090D01*
X107619862Y-95681614D01*
X107665100Y-95591138D01*
X107710339Y-95545900D01*
X107800815Y-95500662D01*
X108027005Y-95500662D01*
X108162720Y-95545900D01*
X108569862Y-96450662D02*
X108569862Y-95500662D01*
X109519863Y-95545900D02*
X109429386Y-95500662D01*
X109293672Y-95500662D01*
X109157958Y-95545900D01*
X109067482Y-95636376D01*
X109022243Y-95726852D01*
X108977005Y-95907805D01*
X108977005Y-96043519D01*
X109022243Y-96224471D01*
X109067482Y-96314948D01*
X109157958Y-96405424D01*
X109293672Y-96450662D01*
X109384148Y-96450662D01*
X109519863Y-96405424D01*
X109565101Y-96360186D01*
X109565101Y-96043519D01*
X109384148Y-96043519D01*
X109972243Y-96450662D02*
X109972243Y-95500662D01*
X110515101Y-96450662D01*
X110515101Y-95500662D01*
X110922243Y-96179233D02*
X111374624Y-96179233D01*
X110831767Y-96450662D02*
X111148434Y-95500662D01*
X111465101Y-96450662D01*
X112234148Y-96450662D02*
X111781767Y-96450662D01*
X111781767Y-95500662D01*
X112324625Y-96541138D02*
X113048435Y-96541138D01*
X113274625Y-96450662D02*
X113274625Y-95500662D01*
X113817483Y-96450662D01*
X113817483Y-95500662D01*
X114224625Y-96179233D02*
X114677006Y-96179233D01*
X114134149Y-96450662D02*
X114450816Y-95500662D01*
X114767483Y-96450662D01*
X115084149Y-96450662D02*
X115084149Y-95500662D01*
X115400816Y-96179233D01*
X115717483Y-95500662D01*
X115717483Y-96450662D01*
X116169863Y-95953043D02*
X116486530Y-95953043D01*
X116622244Y-96450662D02*
X116169863Y-96450662D01*
X116169863Y-95500662D01*
X116622244Y-95500662D01*
X104105290Y-87178329D02*
X104829100Y-87449757D01*
X104105290Y-87721186D01*
X105145766Y-86861662D02*
X105688623Y-86861662D01*
X105417195Y-87811662D02*
X105417195Y-86861662D01*
X106005290Y-87811662D02*
X106005290Y-86861662D01*
X106367195Y-86861662D01*
X106457671Y-86906900D01*
X106502910Y-86952138D01*
X106548148Y-87042614D01*
X106548148Y-87178329D01*
X106502910Y-87268805D01*
X106457671Y-87314043D01*
X106367195Y-87359281D01*
X106005290Y-87359281D01*
X106729100Y-87902138D02*
X107452910Y-87902138D01*
X107633862Y-87766424D02*
X107769577Y-87811662D01*
X107995767Y-87811662D01*
X108086243Y-87766424D01*
X108131481Y-87721186D01*
X108176720Y-87630710D01*
X108176720Y-87540233D01*
X108131481Y-87449757D01*
X108086243Y-87404519D01*
X107995767Y-87359281D01*
X107814815Y-87314043D01*
X107724339Y-87268805D01*
X107679100Y-87223567D01*
X107633862Y-87133090D01*
X107633862Y-87042614D01*
X107679100Y-86952138D01*
X107724339Y-86906900D01*
X107814815Y-86861662D01*
X108041005Y-86861662D01*
X108176720Y-86906900D01*
X108583862Y-87811662D02*
X108583862Y-86861662D01*
X109533863Y-86906900D02*
X109443386Y-86861662D01*
X109307672Y-86861662D01*
X109171958Y-86906900D01*
X109081482Y-86997376D01*
X109036243Y-87087852D01*
X108991005Y-87268805D01*
X108991005Y-87404519D01*
X109036243Y-87585471D01*
X109081482Y-87675948D01*
X109171958Y-87766424D01*
X109307672Y-87811662D01*
X109398148Y-87811662D01*
X109533863Y-87766424D01*
X109579101Y-87721186D01*
X109579101Y-87404519D01*
X109398148Y-87404519D01*
X109986243Y-87811662D02*
X109986243Y-86861662D01*
X110529101Y-87811662D01*
X110529101Y-86861662D01*
X110936243Y-87540233D02*
X111388624Y-87540233D01*
X110845767Y-87811662D02*
X111162434Y-86861662D01*
X111479101Y-87811662D01*
X112248148Y-87811662D02*
X111795767Y-87811662D01*
X111795767Y-86861662D01*
X112338625Y-87902138D02*
X113062435Y-87902138D01*
X113288625Y-87811662D02*
X113288625Y-86861662D01*
X113831483Y-87811662D01*
X113831483Y-86861662D01*
X114238625Y-87540233D02*
X114691006Y-87540233D01*
X114148149Y-87811662D02*
X114464816Y-86861662D01*
X114781483Y-87811662D01*
X115098149Y-87811662D02*
X115098149Y-86861662D01*
X115414816Y-87540233D01*
X115731483Y-86861662D01*
X115731483Y-87811662D01*
X116183863Y-87314043D02*
X116500530Y-87314043D01*
X116636244Y-87811662D02*
X116183863Y-87811662D01*
X116183863Y-86861662D01*
X116636244Y-86861662D01*
M02*
