%FSLAX45Y45*%
G04 Gerber Fmt 4.5, Leading zero omitted, Abs format (unit mm)*
G04 Created by KiCad (PCBNEW 4.0.6) date 05/08/17 07:18:40*
%MOMM*%
%LPD*%
G01*
G04 APERTURE LIST*
%ADD10C,0.127000*%
%ADD11C,0.150000*%
%ADD12C,0.200000*%
%ADD13C,0.300000*%
G04 APERTURE END LIST*
D10*
D11*
X9908810Y-12978890D02*
X9908810Y-7478890D01*
X9907210Y-12964290D02*
X9907210Y-7464290D01*
X9907410Y-12955690D02*
X9907410Y-7455690D01*
X9919010Y-12951990D02*
X15419010Y-12951990D01*
X9919010Y-7451990D02*
X15419010Y-7451990D01*
X9919010Y-12951990D02*
X9919010Y-7451990D01*
X15419010Y-12951990D02*
X15419010Y-7451990D01*
X15408110Y-12951990D02*
X9908110Y-12951990D01*
X15408110Y-7451990D02*
X9908110Y-7451990D01*
X9908110Y-12951990D02*
X9908110Y-7451990D01*
D12*
X10169010Y-10531990D02*
X10219010Y-10581990D01*
X10219010Y-10531990D02*
X10169010Y-10581990D01*
X10359790Y-9905090D02*
X10409790Y-9955090D01*
X10409790Y-9905090D02*
X10359790Y-9955090D01*
X10792510Y-9753790D02*
X10842510Y-9803790D01*
X10842510Y-9753790D02*
X10792510Y-9803790D01*
X10815010Y-8871190D02*
G75*
G03X10815010Y-8871190I-30000J0D01*
G01*
X10850010Y-9164390D02*
G75*
G03X10850010Y-9164390I-30000J0D01*
G01*
X11726300Y-11660400D02*
G75*
G03X11726300Y-11660400I-30000J0D01*
G01*
X12222030Y-10126510D02*
G75*
G03X12222030Y-10126510I-30000J0D01*
G01*
X12435810Y-10571890D02*
G75*
G03X12435810Y-10571890I-30000J0D01*
G01*
X12717330Y-9869970D02*
G75*
G03X12717330Y-9869970I-30000J0D01*
G01*
X12780310Y-11464290D02*
G75*
G03X12780310Y-11464290I-30000J0D01*
G01*
X13195710Y-10311890D02*
G75*
G03X13195710Y-10311890I-30000J0D01*
G01*
X13217810Y-11852690D02*
G75*
G03X13217810Y-11852690I-30000J0D01*
G01*
X13857210Y-9872890D02*
G75*
G03X13857210Y-9872890I-30000J0D01*
G01*
X14216410Y-9342390D02*
G75*
G03X14216410Y-9342390I-30000J0D01*
G01*
X10182510Y-10875890D02*
X10182510Y-11075890D01*
X10082510Y-10975890D02*
X10282510Y-10975890D01*
X11002910Y-10869290D02*
X11002910Y-11069290D01*
X10902910Y-10969290D02*
X11102910Y-10969290D01*
X11864370Y-10120490D02*
X11864370Y-10320490D01*
X11764370Y-10220490D02*
X11964370Y-10220490D01*
X12664470Y-9320390D02*
X12664470Y-9520390D01*
X12564470Y-9420390D02*
X12764470Y-9420390D01*
X12664470Y-10923130D02*
X12664470Y-11123130D01*
X12564470Y-11023130D02*
X12764470Y-11023130D01*
X13464570Y-10120490D02*
X13464570Y-10320490D01*
X13364570Y-10220490D02*
X13564570Y-10220490D01*
D13*
X10171139Y-13452104D02*
X10171139Y-13152104D01*
X10242567Y-13152104D01*
X10285424Y-13166390D01*
X10313996Y-13194961D01*
X10328281Y-13223533D01*
X10342567Y-13280676D01*
X10342567Y-13323533D01*
X10328281Y-13380676D01*
X10313996Y-13409247D01*
X10285424Y-13437819D01*
X10242567Y-13452104D01*
X10171139Y-13452104D01*
X10471139Y-13452104D02*
X10471139Y-13252104D01*
X10471139Y-13309247D02*
X10485424Y-13280676D01*
X10499710Y-13266390D01*
X10528281Y-13252104D01*
X10556853Y-13252104D01*
X10656853Y-13452104D02*
X10656853Y-13252104D01*
X10656853Y-13152104D02*
X10642567Y-13166390D01*
X10656853Y-13180676D01*
X10671139Y-13166390D01*
X10656853Y-13152104D01*
X10656853Y-13180676D01*
X10842567Y-13452104D02*
X10813996Y-13437819D01*
X10799710Y-13409247D01*
X10799710Y-13152104D01*
X10999710Y-13452104D02*
X10971139Y-13437819D01*
X10956853Y-13409247D01*
X10956853Y-13152104D01*
X11342567Y-13452104D02*
X11342567Y-13152104D01*
X11442567Y-13366390D01*
X11542567Y-13152104D01*
X11542567Y-13452104D01*
X11813996Y-13452104D02*
X11813996Y-13294961D01*
X11799710Y-13266390D01*
X11771138Y-13252104D01*
X11713996Y-13252104D01*
X11685424Y-13266390D01*
X11813996Y-13437819D02*
X11785424Y-13452104D01*
X11713996Y-13452104D01*
X11685424Y-13437819D01*
X11671138Y-13409247D01*
X11671138Y-13380676D01*
X11685424Y-13352104D01*
X11713996Y-13337819D01*
X11785424Y-13337819D01*
X11813996Y-13323533D01*
X11956853Y-13252104D02*
X11956853Y-13552104D01*
X11956853Y-13266390D02*
X11985424Y-13252104D01*
X12042567Y-13252104D01*
X12071138Y-13266390D01*
X12085424Y-13280676D01*
X12099710Y-13309247D01*
X12099710Y-13394961D01*
X12085424Y-13423533D01*
X12071138Y-13437819D01*
X12042567Y-13452104D01*
X11985424Y-13452104D01*
X11956853Y-13437819D01*
X12228281Y-13423533D02*
X12242567Y-13437819D01*
X12228281Y-13452104D01*
X12213996Y-13437819D01*
X12228281Y-13423533D01*
X12228281Y-13452104D01*
X12228281Y-13266390D02*
X12242567Y-13280676D01*
X12228281Y-13294961D01*
X12213996Y-13280676D01*
X12228281Y-13266390D01*
X12228281Y-13294961D01*
X9849710Y-13921390D02*
X9899710Y-13971390D01*
X9899710Y-13921390D02*
X9849710Y-13971390D01*
X10228281Y-13782104D02*
X10256853Y-13782104D01*
X10285424Y-13796390D01*
X10299710Y-13810676D01*
X10313996Y-13839247D01*
X10328281Y-13896390D01*
X10328281Y-13967819D01*
X10313996Y-14024961D01*
X10299710Y-14053533D01*
X10285424Y-14067819D01*
X10256853Y-14082104D01*
X10228281Y-14082104D01*
X10199710Y-14067819D01*
X10185424Y-14053533D01*
X10171139Y-14024961D01*
X10156853Y-13967819D01*
X10156853Y-13896390D01*
X10171139Y-13839247D01*
X10185424Y-13810676D01*
X10199710Y-13796390D01*
X10228281Y-13782104D01*
X10456853Y-14053533D02*
X10471139Y-14067819D01*
X10456853Y-14082104D01*
X10442567Y-14067819D01*
X10456853Y-14053533D01*
X10456853Y-14082104D01*
X10742567Y-13782104D02*
X10599710Y-13782104D01*
X10585424Y-13924961D01*
X10599710Y-13910676D01*
X10628281Y-13896390D01*
X10699710Y-13896390D01*
X10728281Y-13910676D01*
X10742567Y-13924961D01*
X10756853Y-13953533D01*
X10756853Y-14024961D01*
X10742567Y-14053533D01*
X10728281Y-14067819D01*
X10699710Y-14082104D01*
X10628281Y-14082104D01*
X10599710Y-14067819D01*
X10585424Y-14053533D01*
X10942567Y-13782104D02*
X10971139Y-13782104D01*
X10999710Y-13796390D01*
X11013996Y-13810676D01*
X11028281Y-13839247D01*
X11042567Y-13896390D01*
X11042567Y-13967819D01*
X11028281Y-14024961D01*
X11013996Y-14053533D01*
X10999710Y-14067819D01*
X10971139Y-14082104D01*
X10942567Y-14082104D01*
X10913996Y-14067819D01*
X10899710Y-14053533D01*
X10885424Y-14024961D01*
X10871139Y-13967819D01*
X10871139Y-13896390D01*
X10885424Y-13839247D01*
X10899710Y-13810676D01*
X10913996Y-13796390D01*
X10942567Y-13782104D01*
X11171139Y-14082104D02*
X11171139Y-13882104D01*
X11171139Y-13910676D02*
X11185424Y-13896390D01*
X11213996Y-13882104D01*
X11256853Y-13882104D01*
X11285424Y-13896390D01*
X11299710Y-13924961D01*
X11299710Y-14082104D01*
X11299710Y-13924961D02*
X11313996Y-13896390D01*
X11342567Y-13882104D01*
X11385424Y-13882104D01*
X11413996Y-13896390D01*
X11428281Y-13924961D01*
X11428281Y-14082104D01*
X11571138Y-14082104D02*
X11571138Y-13882104D01*
X11571138Y-13910676D02*
X11585424Y-13896390D01*
X11613996Y-13882104D01*
X11656853Y-13882104D01*
X11685424Y-13896390D01*
X11699710Y-13924961D01*
X11699710Y-14082104D01*
X11699710Y-13924961D02*
X11713996Y-13896390D01*
X11742567Y-13882104D01*
X11785424Y-13882104D01*
X11813996Y-13896390D01*
X11828281Y-13924961D01*
X11828281Y-14082104D01*
X12413996Y-13767819D02*
X12156853Y-14153533D01*
X12799710Y-13782104D02*
X12828281Y-13782104D01*
X12856853Y-13796390D01*
X12871138Y-13810676D01*
X12885424Y-13839247D01*
X12899710Y-13896390D01*
X12899710Y-13967819D01*
X12885424Y-14024961D01*
X12871138Y-14053533D01*
X12856853Y-14067819D01*
X12828281Y-14082104D01*
X12799710Y-14082104D01*
X12771138Y-14067819D01*
X12756853Y-14053533D01*
X12742567Y-14024961D01*
X12728281Y-13967819D01*
X12728281Y-13896390D01*
X12742567Y-13839247D01*
X12756853Y-13810676D01*
X12771138Y-13796390D01*
X12799710Y-13782104D01*
X13028281Y-14053533D02*
X13042567Y-14067819D01*
X13028281Y-14082104D01*
X13013996Y-14067819D01*
X13028281Y-14053533D01*
X13028281Y-14082104D01*
X13228281Y-13782104D02*
X13256853Y-13782104D01*
X13285424Y-13796390D01*
X13299710Y-13810676D01*
X13313995Y-13839247D01*
X13328281Y-13896390D01*
X13328281Y-13967819D01*
X13313995Y-14024961D01*
X13299710Y-14053533D01*
X13285424Y-14067819D01*
X13256853Y-14082104D01*
X13228281Y-14082104D01*
X13199710Y-14067819D01*
X13185424Y-14053533D01*
X13171138Y-14024961D01*
X13156853Y-13967819D01*
X13156853Y-13896390D01*
X13171138Y-13839247D01*
X13185424Y-13810676D01*
X13199710Y-13796390D01*
X13228281Y-13782104D01*
X13442567Y-13810676D02*
X13456853Y-13796390D01*
X13485424Y-13782104D01*
X13556853Y-13782104D01*
X13585424Y-13796390D01*
X13599710Y-13810676D01*
X13613995Y-13839247D01*
X13613995Y-13867819D01*
X13599710Y-13910676D01*
X13428281Y-14082104D01*
X13613995Y-14082104D01*
X13799710Y-13782104D02*
X13828281Y-13782104D01*
X13856853Y-13796390D01*
X13871138Y-13810676D01*
X13885424Y-13839247D01*
X13899710Y-13896390D01*
X13899710Y-13967819D01*
X13885424Y-14024961D01*
X13871138Y-14053533D01*
X13856853Y-14067819D01*
X13828281Y-14082104D01*
X13799710Y-14082104D01*
X13771138Y-14067819D01*
X13756853Y-14053533D01*
X13742567Y-14024961D01*
X13728281Y-13967819D01*
X13728281Y-13896390D01*
X13742567Y-13839247D01*
X13756853Y-13810676D01*
X13771138Y-13796390D01*
X13799710Y-13782104D01*
X14013996Y-13782104D02*
X14013996Y-13839247D01*
X14128281Y-13782104D02*
X14128281Y-13839247D01*
X14571138Y-14196390D02*
X14556853Y-14182104D01*
X14528281Y-14139247D01*
X14513995Y-14110676D01*
X14499710Y-14067819D01*
X14485424Y-13996390D01*
X14485424Y-13939247D01*
X14499710Y-13867819D01*
X14513995Y-13824961D01*
X14528281Y-13796390D01*
X14556853Y-13753533D01*
X14571138Y-13739247D01*
X14656853Y-13782104D02*
X14842567Y-13782104D01*
X14742567Y-13896390D01*
X14785424Y-13896390D01*
X14813995Y-13910676D01*
X14828281Y-13924961D01*
X14842567Y-13953533D01*
X14842567Y-14024961D01*
X14828281Y-14053533D01*
X14813995Y-14067819D01*
X14785424Y-14082104D01*
X14699710Y-14082104D01*
X14671138Y-14067819D01*
X14656853Y-14053533D01*
X15199710Y-14082104D02*
X15199710Y-13782104D01*
X15328281Y-14082104D02*
X15328281Y-13924961D01*
X15313995Y-13896390D01*
X15285424Y-13882104D01*
X15242567Y-13882104D01*
X15213995Y-13896390D01*
X15199710Y-13910676D01*
X15513995Y-14082104D02*
X15485424Y-14067819D01*
X15471138Y-14053533D01*
X15456853Y-14024961D01*
X15456853Y-13939247D01*
X15471138Y-13910676D01*
X15485424Y-13896390D01*
X15513995Y-13882104D01*
X15556853Y-13882104D01*
X15585424Y-13896390D01*
X15599710Y-13910676D01*
X15613995Y-13939247D01*
X15613995Y-14024961D01*
X15599710Y-14053533D01*
X15585424Y-14067819D01*
X15556853Y-14082104D01*
X15513995Y-14082104D01*
X15785424Y-14082104D02*
X15756853Y-14067819D01*
X15742567Y-14039247D01*
X15742567Y-13782104D01*
X16013996Y-14067819D02*
X15985424Y-14082104D01*
X15928281Y-14082104D01*
X15899710Y-14067819D01*
X15885424Y-14039247D01*
X15885424Y-13924961D01*
X15899710Y-13896390D01*
X15928281Y-13882104D01*
X15985424Y-13882104D01*
X16013996Y-13896390D01*
X16028281Y-13924961D01*
X16028281Y-13953533D01*
X15885424Y-13982104D01*
X16142567Y-14067819D02*
X16171138Y-14082104D01*
X16228281Y-14082104D01*
X16256853Y-14067819D01*
X16271138Y-14039247D01*
X16271138Y-14024961D01*
X16256853Y-13996390D01*
X16228281Y-13982104D01*
X16185424Y-13982104D01*
X16156853Y-13967819D01*
X16142567Y-13939247D01*
X16142567Y-13924961D01*
X16156853Y-13896390D01*
X16185424Y-13882104D01*
X16228281Y-13882104D01*
X16256853Y-13896390D01*
X16371138Y-14196390D02*
X16385424Y-14182104D01*
X16413996Y-14139247D01*
X16428281Y-14110676D01*
X16442567Y-14067819D01*
X16456853Y-13996390D01*
X16456853Y-13939247D01*
X16442567Y-13867819D01*
X16428281Y-13824961D01*
X16413996Y-13796390D01*
X16385424Y-13753533D01*
X16371138Y-13739247D01*
X9899710Y-14342390D02*
G75*
G03X9899710Y-14342390I-30000J0D01*
G01*
X10228281Y-14178104D02*
X10256853Y-14178104D01*
X10285424Y-14192390D01*
X10299710Y-14206676D01*
X10313996Y-14235247D01*
X10328281Y-14292390D01*
X10328281Y-14363819D01*
X10313996Y-14420961D01*
X10299710Y-14449533D01*
X10285424Y-14463819D01*
X10256853Y-14478104D01*
X10228281Y-14478104D01*
X10199710Y-14463819D01*
X10185424Y-14449533D01*
X10171139Y-14420961D01*
X10156853Y-14363819D01*
X10156853Y-14292390D01*
X10171139Y-14235247D01*
X10185424Y-14206676D01*
X10199710Y-14192390D01*
X10228281Y-14178104D01*
X10456853Y-14449533D02*
X10471139Y-14463819D01*
X10456853Y-14478104D01*
X10442567Y-14463819D01*
X10456853Y-14449533D01*
X10456853Y-14478104D01*
X10728281Y-14178104D02*
X10671138Y-14178104D01*
X10642567Y-14192390D01*
X10628281Y-14206676D01*
X10599710Y-14249533D01*
X10585424Y-14306676D01*
X10585424Y-14420961D01*
X10599710Y-14449533D01*
X10613996Y-14463819D01*
X10642567Y-14478104D01*
X10699710Y-14478104D01*
X10728281Y-14463819D01*
X10742567Y-14449533D01*
X10756853Y-14420961D01*
X10756853Y-14349533D01*
X10742567Y-14320961D01*
X10728281Y-14306676D01*
X10699710Y-14292390D01*
X10642567Y-14292390D01*
X10613996Y-14306676D01*
X10599710Y-14320961D01*
X10585424Y-14349533D01*
X10942567Y-14178104D02*
X10971139Y-14178104D01*
X10999710Y-14192390D01*
X11013996Y-14206676D01*
X11028281Y-14235247D01*
X11042567Y-14292390D01*
X11042567Y-14363819D01*
X11028281Y-14420961D01*
X11013996Y-14449533D01*
X10999710Y-14463819D01*
X10971139Y-14478104D01*
X10942567Y-14478104D01*
X10913996Y-14463819D01*
X10899710Y-14449533D01*
X10885424Y-14420961D01*
X10871139Y-14363819D01*
X10871139Y-14292390D01*
X10885424Y-14235247D01*
X10899710Y-14206676D01*
X10913996Y-14192390D01*
X10942567Y-14178104D01*
X11171139Y-14478104D02*
X11171139Y-14278104D01*
X11171139Y-14306676D02*
X11185424Y-14292390D01*
X11213996Y-14278104D01*
X11256853Y-14278104D01*
X11285424Y-14292390D01*
X11299710Y-14320961D01*
X11299710Y-14478104D01*
X11299710Y-14320961D02*
X11313996Y-14292390D01*
X11342567Y-14278104D01*
X11385424Y-14278104D01*
X11413996Y-14292390D01*
X11428281Y-14320961D01*
X11428281Y-14478104D01*
X11571138Y-14478104D02*
X11571138Y-14278104D01*
X11571138Y-14306676D02*
X11585424Y-14292390D01*
X11613996Y-14278104D01*
X11656853Y-14278104D01*
X11685424Y-14292390D01*
X11699710Y-14320961D01*
X11699710Y-14478104D01*
X11699710Y-14320961D02*
X11713996Y-14292390D01*
X11742567Y-14278104D01*
X11785424Y-14278104D01*
X11813996Y-14292390D01*
X11828281Y-14320961D01*
X11828281Y-14478104D01*
X12413996Y-14163819D02*
X12156853Y-14549533D01*
X12799710Y-14178104D02*
X12828281Y-14178104D01*
X12856853Y-14192390D01*
X12871138Y-14206676D01*
X12885424Y-14235247D01*
X12899710Y-14292390D01*
X12899710Y-14363819D01*
X12885424Y-14420961D01*
X12871138Y-14449533D01*
X12856853Y-14463819D01*
X12828281Y-14478104D01*
X12799710Y-14478104D01*
X12771138Y-14463819D01*
X12756853Y-14449533D01*
X12742567Y-14420961D01*
X12728281Y-14363819D01*
X12728281Y-14292390D01*
X12742567Y-14235247D01*
X12756853Y-14206676D01*
X12771138Y-14192390D01*
X12799710Y-14178104D01*
X13028281Y-14449533D02*
X13042567Y-14463819D01*
X13028281Y-14478104D01*
X13013996Y-14463819D01*
X13028281Y-14449533D01*
X13028281Y-14478104D01*
X13228281Y-14178104D02*
X13256853Y-14178104D01*
X13285424Y-14192390D01*
X13299710Y-14206676D01*
X13313995Y-14235247D01*
X13328281Y-14292390D01*
X13328281Y-14363819D01*
X13313995Y-14420961D01*
X13299710Y-14449533D01*
X13285424Y-14463819D01*
X13256853Y-14478104D01*
X13228281Y-14478104D01*
X13199710Y-14463819D01*
X13185424Y-14449533D01*
X13171138Y-14420961D01*
X13156853Y-14363819D01*
X13156853Y-14292390D01*
X13171138Y-14235247D01*
X13185424Y-14206676D01*
X13199710Y-14192390D01*
X13228281Y-14178104D01*
X13442567Y-14206676D02*
X13456853Y-14192390D01*
X13485424Y-14178104D01*
X13556853Y-14178104D01*
X13585424Y-14192390D01*
X13599710Y-14206676D01*
X13613995Y-14235247D01*
X13613995Y-14263819D01*
X13599710Y-14306676D01*
X13428281Y-14478104D01*
X13613995Y-14478104D01*
X13871138Y-14278104D02*
X13871138Y-14478104D01*
X13799710Y-14163819D02*
X13728281Y-14378104D01*
X13913995Y-14378104D01*
X14013996Y-14178104D02*
X14013996Y-14235247D01*
X14128281Y-14178104D02*
X14128281Y-14235247D01*
X14571138Y-14592390D02*
X14556853Y-14578104D01*
X14528281Y-14535247D01*
X14513995Y-14506676D01*
X14499710Y-14463819D01*
X14485424Y-14392390D01*
X14485424Y-14335247D01*
X14499710Y-14263819D01*
X14513995Y-14220961D01*
X14528281Y-14192390D01*
X14556853Y-14149533D01*
X14571138Y-14135247D01*
X14842567Y-14478104D02*
X14671138Y-14478104D01*
X14756853Y-14478104D02*
X14756853Y-14178104D01*
X14728281Y-14220961D01*
X14699710Y-14249533D01*
X14671138Y-14263819D01*
X15128281Y-14478104D02*
X14956853Y-14478104D01*
X15042567Y-14478104D02*
X15042567Y-14178104D01*
X15013995Y-14220961D01*
X14985424Y-14249533D01*
X14956853Y-14263819D01*
X15485424Y-14478104D02*
X15485424Y-14178104D01*
X15613995Y-14478104D02*
X15613995Y-14320961D01*
X15599710Y-14292390D01*
X15571138Y-14278104D01*
X15528281Y-14278104D01*
X15499710Y-14292390D01*
X15485424Y-14306676D01*
X15799710Y-14478104D02*
X15771138Y-14463819D01*
X15756853Y-14449533D01*
X15742567Y-14420961D01*
X15742567Y-14335247D01*
X15756853Y-14306676D01*
X15771138Y-14292390D01*
X15799710Y-14278104D01*
X15842567Y-14278104D01*
X15871138Y-14292390D01*
X15885424Y-14306676D01*
X15899710Y-14335247D01*
X15899710Y-14420961D01*
X15885424Y-14449533D01*
X15871138Y-14463819D01*
X15842567Y-14478104D01*
X15799710Y-14478104D01*
X16071138Y-14478104D02*
X16042567Y-14463819D01*
X16028281Y-14435247D01*
X16028281Y-14178104D01*
X16299710Y-14463819D02*
X16271138Y-14478104D01*
X16213996Y-14478104D01*
X16185424Y-14463819D01*
X16171138Y-14435247D01*
X16171138Y-14320961D01*
X16185424Y-14292390D01*
X16213996Y-14278104D01*
X16271138Y-14278104D01*
X16299710Y-14292390D01*
X16313996Y-14320961D01*
X16313996Y-14349533D01*
X16171138Y-14378104D01*
X16428281Y-14463819D02*
X16456853Y-14478104D01*
X16513996Y-14478104D01*
X16542567Y-14463819D01*
X16556853Y-14435247D01*
X16556853Y-14420961D01*
X16542567Y-14392390D01*
X16513996Y-14378104D01*
X16471138Y-14378104D01*
X16442567Y-14363819D01*
X16428281Y-14335247D01*
X16428281Y-14320961D01*
X16442567Y-14292390D01*
X16471138Y-14278104D01*
X16513996Y-14278104D01*
X16542567Y-14292390D01*
X16656853Y-14592390D02*
X16671138Y-14578104D01*
X16699710Y-14535247D01*
X16713996Y-14506676D01*
X16728281Y-14463819D01*
X16742567Y-14392390D01*
X16742567Y-14335247D01*
X16728281Y-14263819D01*
X16713996Y-14220961D01*
X16699710Y-14192390D01*
X16671138Y-14149533D01*
X16656853Y-14135247D01*
X9799710Y-14638390D02*
X9799710Y-14838390D01*
X9699710Y-14738390D02*
X9899710Y-14738390D01*
X10156853Y-14602676D02*
X10171139Y-14588390D01*
X10199710Y-14574104D01*
X10271139Y-14574104D01*
X10299710Y-14588390D01*
X10313996Y-14602676D01*
X10328281Y-14631247D01*
X10328281Y-14659819D01*
X10313996Y-14702676D01*
X10142567Y-14874104D01*
X10328281Y-14874104D01*
X10456853Y-14845533D02*
X10471139Y-14859819D01*
X10456853Y-14874104D01*
X10442567Y-14859819D01*
X10456853Y-14845533D01*
X10456853Y-14874104D01*
X10656853Y-14574104D02*
X10685424Y-14574104D01*
X10713996Y-14588390D01*
X10728281Y-14602676D01*
X10742567Y-14631247D01*
X10756853Y-14688390D01*
X10756853Y-14759819D01*
X10742567Y-14816961D01*
X10728281Y-14845533D01*
X10713996Y-14859819D01*
X10685424Y-14874104D01*
X10656853Y-14874104D01*
X10628281Y-14859819D01*
X10613996Y-14845533D01*
X10599710Y-14816961D01*
X10585424Y-14759819D01*
X10585424Y-14688390D01*
X10599710Y-14631247D01*
X10613996Y-14602676D01*
X10628281Y-14588390D01*
X10656853Y-14574104D01*
X10942567Y-14574104D02*
X10971139Y-14574104D01*
X10999710Y-14588390D01*
X11013996Y-14602676D01*
X11028281Y-14631247D01*
X11042567Y-14688390D01*
X11042567Y-14759819D01*
X11028281Y-14816961D01*
X11013996Y-14845533D01*
X10999710Y-14859819D01*
X10971139Y-14874104D01*
X10942567Y-14874104D01*
X10913996Y-14859819D01*
X10899710Y-14845533D01*
X10885424Y-14816961D01*
X10871139Y-14759819D01*
X10871139Y-14688390D01*
X10885424Y-14631247D01*
X10899710Y-14602676D01*
X10913996Y-14588390D01*
X10942567Y-14574104D01*
X11171139Y-14874104D02*
X11171139Y-14674104D01*
X11171139Y-14702676D02*
X11185424Y-14688390D01*
X11213996Y-14674104D01*
X11256853Y-14674104D01*
X11285424Y-14688390D01*
X11299710Y-14716961D01*
X11299710Y-14874104D01*
X11299710Y-14716961D02*
X11313996Y-14688390D01*
X11342567Y-14674104D01*
X11385424Y-14674104D01*
X11413996Y-14688390D01*
X11428281Y-14716961D01*
X11428281Y-14874104D01*
X11571138Y-14874104D02*
X11571138Y-14674104D01*
X11571138Y-14702676D02*
X11585424Y-14688390D01*
X11613996Y-14674104D01*
X11656853Y-14674104D01*
X11685424Y-14688390D01*
X11699710Y-14716961D01*
X11699710Y-14874104D01*
X11699710Y-14716961D02*
X11713996Y-14688390D01*
X11742567Y-14674104D01*
X11785424Y-14674104D01*
X11813996Y-14688390D01*
X11828281Y-14716961D01*
X11828281Y-14874104D01*
X12413996Y-14559819D02*
X12156853Y-14945533D01*
X12799710Y-14574104D02*
X12828281Y-14574104D01*
X12856853Y-14588390D01*
X12871138Y-14602676D01*
X12885424Y-14631247D01*
X12899710Y-14688390D01*
X12899710Y-14759819D01*
X12885424Y-14816961D01*
X12871138Y-14845533D01*
X12856853Y-14859819D01*
X12828281Y-14874104D01*
X12799710Y-14874104D01*
X12771138Y-14859819D01*
X12756853Y-14845533D01*
X12742567Y-14816961D01*
X12728281Y-14759819D01*
X12728281Y-14688390D01*
X12742567Y-14631247D01*
X12756853Y-14602676D01*
X12771138Y-14588390D01*
X12799710Y-14574104D01*
X13028281Y-14845533D02*
X13042567Y-14859819D01*
X13028281Y-14874104D01*
X13013996Y-14859819D01*
X13028281Y-14845533D01*
X13028281Y-14874104D01*
X13228281Y-14574104D02*
X13256853Y-14574104D01*
X13285424Y-14588390D01*
X13299710Y-14602676D01*
X13313995Y-14631247D01*
X13328281Y-14688390D01*
X13328281Y-14759819D01*
X13313995Y-14816961D01*
X13299710Y-14845533D01*
X13285424Y-14859819D01*
X13256853Y-14874104D01*
X13228281Y-14874104D01*
X13199710Y-14859819D01*
X13185424Y-14845533D01*
X13171138Y-14816961D01*
X13156853Y-14759819D01*
X13156853Y-14688390D01*
X13171138Y-14631247D01*
X13185424Y-14602676D01*
X13199710Y-14588390D01*
X13228281Y-14574104D01*
X13428281Y-14574104D02*
X13628281Y-14574104D01*
X13499710Y-14874104D01*
X13756853Y-14874104D02*
X13813995Y-14874104D01*
X13842567Y-14859819D01*
X13856853Y-14845533D01*
X13885424Y-14802676D01*
X13899710Y-14745533D01*
X13899710Y-14631247D01*
X13885424Y-14602676D01*
X13871138Y-14588390D01*
X13842567Y-14574104D01*
X13785424Y-14574104D01*
X13756853Y-14588390D01*
X13742567Y-14602676D01*
X13728281Y-14631247D01*
X13728281Y-14702676D01*
X13742567Y-14731247D01*
X13756853Y-14745533D01*
X13785424Y-14759819D01*
X13842567Y-14759819D01*
X13871138Y-14745533D01*
X13885424Y-14731247D01*
X13899710Y-14702676D01*
X14013996Y-14574104D02*
X14013996Y-14631247D01*
X14128281Y-14574104D02*
X14128281Y-14631247D01*
X14571138Y-14988390D02*
X14556853Y-14974104D01*
X14528281Y-14931247D01*
X14513995Y-14902676D01*
X14499710Y-14859819D01*
X14485424Y-14788390D01*
X14485424Y-14731247D01*
X14499710Y-14659819D01*
X14513995Y-14616961D01*
X14528281Y-14588390D01*
X14556853Y-14545533D01*
X14571138Y-14531247D01*
X14813995Y-14574104D02*
X14756853Y-14574104D01*
X14728281Y-14588390D01*
X14713995Y-14602676D01*
X14685424Y-14645533D01*
X14671138Y-14702676D01*
X14671138Y-14816961D01*
X14685424Y-14845533D01*
X14699710Y-14859819D01*
X14728281Y-14874104D01*
X14785424Y-14874104D01*
X14813995Y-14859819D01*
X14828281Y-14845533D01*
X14842567Y-14816961D01*
X14842567Y-14745533D01*
X14828281Y-14716961D01*
X14813995Y-14702676D01*
X14785424Y-14688390D01*
X14728281Y-14688390D01*
X14699710Y-14702676D01*
X14685424Y-14716961D01*
X14671138Y-14745533D01*
X15199710Y-14874104D02*
X15199710Y-14574104D01*
X15328281Y-14874104D02*
X15328281Y-14716961D01*
X15313995Y-14688390D01*
X15285424Y-14674104D01*
X15242567Y-14674104D01*
X15213995Y-14688390D01*
X15199710Y-14702676D01*
X15513995Y-14874104D02*
X15485424Y-14859819D01*
X15471138Y-14845533D01*
X15456853Y-14816961D01*
X15456853Y-14731247D01*
X15471138Y-14702676D01*
X15485424Y-14688390D01*
X15513995Y-14674104D01*
X15556853Y-14674104D01*
X15585424Y-14688390D01*
X15599710Y-14702676D01*
X15613995Y-14731247D01*
X15613995Y-14816961D01*
X15599710Y-14845533D01*
X15585424Y-14859819D01*
X15556853Y-14874104D01*
X15513995Y-14874104D01*
X15785424Y-14874104D02*
X15756853Y-14859819D01*
X15742567Y-14831247D01*
X15742567Y-14574104D01*
X16013996Y-14859819D02*
X15985424Y-14874104D01*
X15928281Y-14874104D01*
X15899710Y-14859819D01*
X15885424Y-14831247D01*
X15885424Y-14716961D01*
X15899710Y-14688390D01*
X15928281Y-14674104D01*
X15985424Y-14674104D01*
X16013996Y-14688390D01*
X16028281Y-14716961D01*
X16028281Y-14745533D01*
X15885424Y-14774104D01*
X16142567Y-14859819D02*
X16171138Y-14874104D01*
X16228281Y-14874104D01*
X16256853Y-14859819D01*
X16271138Y-14831247D01*
X16271138Y-14816961D01*
X16256853Y-14788390D01*
X16228281Y-14774104D01*
X16185424Y-14774104D01*
X16156853Y-14759819D01*
X16142567Y-14731247D01*
X16142567Y-14716961D01*
X16156853Y-14688390D01*
X16185424Y-14674104D01*
X16228281Y-14674104D01*
X16256853Y-14688390D01*
X16371138Y-14988390D02*
X16385424Y-14974104D01*
X16413996Y-14931247D01*
X16428281Y-14902676D01*
X16442567Y-14859819D01*
X16456853Y-14788390D01*
X16456853Y-14731247D01*
X16442567Y-14659819D01*
X16428281Y-14616961D01*
X16413996Y-14588390D01*
X16385424Y-14545533D01*
X16371138Y-14531247D01*
M02*
