G04 #@! TF.FileFunction,Drawing*
%FSLAX46Y46*%
G04 Gerber Fmt 4.6, Leading zero omitted, Abs format (unit mm)*
G04 Created by KiCad (PCBNEW 4.0.6) date 05/08/17 10:58:46*
%MOMM*%
%LPD*%
G01*
G04 APERTURE LIST*
%ADD10C,0.100000*%
%ADD11C,0.101600*%
%ADD12C,0.203200*%
G04 APERTURE END LIST*
D10*
D11*
X41778100Y-129982900D02*
X34378100Y-129982900D01*
X34378100Y-129982900D02*
X33578100Y-129182900D01*
X33578100Y-129182900D02*
X33578100Y-122582900D01*
X33578100Y-122582900D02*
X34378100Y-121782900D01*
X34378100Y-121782900D02*
X41778100Y-121782900D01*
X41778100Y-121782900D02*
X41778100Y-129982900D01*
X41628100Y-125882900D02*
G75*
G03X41628100Y-125882900I-3950000J0D01*
G01*
D10*
G36*
X40728100Y-128357900D02*
X40728100Y-123407900D01*
X40728100Y-128357900D01*
G37*
D12*
X34782100Y-117781900D02*
X39082100Y-117781900D01*
X39082100Y-117781900D02*
X39082100Y-120381900D01*
X39082100Y-120381900D02*
X34782100Y-120381900D01*
X34782100Y-120381900D02*
X34782100Y-117781900D01*
D10*
G36*
X34107100Y-120181900D02*
X34757100Y-120181900D01*
X34757100Y-117981900D01*
X34107100Y-117981900D01*
X34107100Y-120181900D01*
G37*
G36*
X39107100Y-120181900D02*
X39757100Y-120181900D01*
X39757100Y-117981900D01*
X39107100Y-117981900D01*
X39107100Y-120181900D01*
G37*
G36*
X35182100Y-120306900D02*
X35857100Y-120306900D01*
X35857100Y-117856900D01*
X35182100Y-117856900D01*
X35182100Y-120306900D01*
G37*
G36*
X259879100Y-129934900D02*
X259371100Y-129934900D01*
X259371100Y-130442900D01*
X259879100Y-130442900D01*
X259879100Y-129934900D01*
G37*
G36*
X262419100Y-129934900D02*
X261911100Y-129934900D01*
X261911100Y-130442900D01*
X262419100Y-130442900D01*
X262419100Y-129934900D01*
G37*
G36*
X257339100Y-129934900D02*
X256831100Y-129934900D01*
X256831100Y-130442900D01*
X257339100Y-130442900D01*
X257339100Y-129934900D01*
G37*
M02*
