G04 #@! TF.FileFunction,Copper,L1,Top,Signal*
%FSLAX46Y46*%
G04 Gerber Fmt 4.6, Leading zero omitted, Abs format (unit mm)*
G04 Created by KiCad (PCBNEW 4.0.6) date 05/08/17 10:58:46*
%MOMM*%
%LPD*%
G01*
G04 APERTURE LIST*
%ADD10C,0.100000*%
%ADD11C,1.100000*%
%ADD12R,0.635000X1.270000*%
%ADD13R,3.300000X1.300000*%
%ADD14R,2.540000X2.540000*%
%ADD15C,1.524000*%
%ADD16C,2.184400*%
%ADD17C,3.000000*%
%ADD18C,2.250000*%
%ADD19C,1.006400*%
%ADD20C,0.609600*%
%ADD21C,2.540000*%
%ADD22C,1.270000*%
%ADD23C,2.184400*%
%ADD24C,3.200000*%
%ADD25C,0.406400*%
G04 APERTURE END LIST*
D10*
D11*
X211412500Y-90281700D03*
D12*
X211793500Y-90281700D03*
X212428500Y-90281700D03*
X211158500Y-90281700D03*
X210523500Y-90281700D03*
X209888500Y-90281700D03*
X213025400Y-90281700D03*
X213622300Y-90281700D03*
X209266200Y-90281700D03*
X208643900Y-90281700D03*
D11*
X213014500Y-82458500D03*
D12*
X213395500Y-82458500D03*
X214030500Y-82458500D03*
X212760500Y-82458500D03*
X212125500Y-82458500D03*
X211490500Y-82458500D03*
X214627400Y-82458500D03*
X215224300Y-82458500D03*
X210868200Y-82458500D03*
X210245900Y-82458500D03*
D11*
X203057700Y-90281700D03*
D12*
X203438700Y-90281700D03*
X204073700Y-90281700D03*
X202803700Y-90281700D03*
X202168700Y-90281700D03*
X201533700Y-90281700D03*
X204670600Y-90281700D03*
X205267500Y-90281700D03*
X200911400Y-90281700D03*
X200289100Y-90281700D03*
D11*
X205013500Y-82407700D03*
D12*
X205394500Y-82407700D03*
X206029500Y-82407700D03*
X204759500Y-82407700D03*
X204124500Y-82407700D03*
X203489500Y-82407700D03*
X206626400Y-82407700D03*
X207223300Y-82407700D03*
X202867200Y-82407700D03*
X202244900Y-82407700D03*
D11*
X156042300Y-90332500D03*
D12*
X156423300Y-90332500D03*
X157058300Y-90332500D03*
X155788300Y-90332500D03*
X155153300Y-90332500D03*
X154518300Y-90332500D03*
X157655200Y-90332500D03*
X158252100Y-90332500D03*
X153896000Y-90332500D03*
X153273700Y-90332500D03*
D11*
X153375300Y-80324900D03*
D12*
X153756300Y-80324900D03*
X154391300Y-80324900D03*
X153121300Y-80324900D03*
X152486300Y-80324900D03*
X151851300Y-80324900D03*
X154988200Y-80324900D03*
X155585100Y-80324900D03*
X151229000Y-80324900D03*
X150606700Y-80324900D03*
D11*
X145062300Y-90490100D03*
D12*
X145443300Y-90490100D03*
X146078300Y-90490100D03*
X144808300Y-90490100D03*
X144173300Y-90490100D03*
X143538300Y-90490100D03*
X146675200Y-90490100D03*
X147272100Y-90490100D03*
X142916000Y-90490100D03*
X142293700Y-90490100D03*
D11*
X143452700Y-80411500D03*
D12*
X143833700Y-80411500D03*
X144468700Y-80411500D03*
X143198700Y-80411500D03*
X142563700Y-80411500D03*
X141928700Y-80411500D03*
X145065600Y-80411500D03*
X145662500Y-80411500D03*
X141306400Y-80411500D03*
X140684100Y-80411500D03*
D11*
X211386100Y-103718300D03*
D12*
X211767100Y-103718300D03*
X212402100Y-103718300D03*
X211132100Y-103718300D03*
X210497100Y-103718300D03*
X209862100Y-103718300D03*
X212999000Y-103718300D03*
X213595900Y-103718300D03*
X209239800Y-103718300D03*
X208617500Y-103718300D03*
D11*
X202981500Y-103769100D03*
D12*
X203362500Y-103769100D03*
X203997500Y-103769100D03*
X202727500Y-103769100D03*
X202092500Y-103769100D03*
X201457500Y-103769100D03*
X204594400Y-103769100D03*
X205191300Y-103769100D03*
X200835200Y-103769100D03*
X200212900Y-103769100D03*
D11*
X211411500Y-106385300D03*
D12*
X211792500Y-106385300D03*
X212427500Y-106385300D03*
X211157500Y-106385300D03*
X210522500Y-106385300D03*
X209887500Y-106385300D03*
X213024400Y-106385300D03*
X213621300Y-106385300D03*
X209265200Y-106385300D03*
X208642900Y-106385300D03*
D11*
X202879900Y-106385300D03*
D12*
X203260900Y-106385300D03*
X203895900Y-106385300D03*
X202625900Y-106385300D03*
X201990900Y-106385300D03*
X201355900Y-106385300D03*
X204492800Y-106385300D03*
X205089700Y-106385300D03*
X200733600Y-106385300D03*
X200111300Y-106385300D03*
D11*
X156067700Y-106309100D03*
D12*
X156448700Y-106309100D03*
X157083700Y-106309100D03*
X155813700Y-106309100D03*
X155178700Y-106309100D03*
X154543700Y-106309100D03*
X157680600Y-106309100D03*
X158277500Y-106309100D03*
X153921400Y-106309100D03*
X153299100Y-106309100D03*
D11*
X145138500Y-106466700D03*
D12*
X145519500Y-106466700D03*
X146154500Y-106466700D03*
X144884500Y-106466700D03*
X144249500Y-106466700D03*
X143614500Y-106466700D03*
X146751400Y-106466700D03*
X147348300Y-106466700D03*
X142992200Y-106466700D03*
X142369900Y-106466700D03*
D11*
X211587500Y-109077700D03*
D12*
X211968500Y-109077700D03*
X212603500Y-109077700D03*
X211333500Y-109077700D03*
X210698500Y-109077700D03*
X210063500Y-109077700D03*
X213200400Y-109077700D03*
X213797300Y-109077700D03*
X209441200Y-109077700D03*
X208818900Y-109077700D03*
D11*
X202981500Y-109026900D03*
D12*
X203362500Y-109026900D03*
X203997500Y-109026900D03*
X202727500Y-109026900D03*
X202092500Y-109026900D03*
X201457500Y-109026900D03*
X204594400Y-109026900D03*
X205191300Y-109026900D03*
X200835200Y-109026900D03*
X200212900Y-109026900D03*
D11*
X156093100Y-109077700D03*
D12*
X156474100Y-109077700D03*
X157109100Y-109077700D03*
X155839100Y-109077700D03*
X155204100Y-109077700D03*
X154569100Y-109077700D03*
X157706000Y-109077700D03*
X158302900Y-109077700D03*
X153946800Y-109077700D03*
X153324500Y-109077700D03*
D11*
X145011500Y-109235300D03*
D12*
X145392500Y-109235300D03*
X146027500Y-109235300D03*
X144757500Y-109235300D03*
X144122500Y-109235300D03*
X143487500Y-109235300D03*
X146624400Y-109235300D03*
X147221300Y-109235300D03*
X142865200Y-109235300D03*
X142242900Y-109235300D03*
D11*
X145062300Y-95900300D03*
D12*
X145443300Y-95900300D03*
X146078300Y-95900300D03*
X144808300Y-95900300D03*
X144173300Y-95900300D03*
X143538300Y-95900300D03*
X146675200Y-95900300D03*
X147272100Y-95900300D03*
X142916000Y-95900300D03*
X142293700Y-95900300D03*
D11*
X145036900Y-120512900D03*
D12*
X145417900Y-120512900D03*
X146052900Y-120512900D03*
X144782900Y-120512900D03*
X144147900Y-120512900D03*
X143512900Y-120512900D03*
X146649800Y-120512900D03*
X147246700Y-120512900D03*
X142890600Y-120512900D03*
X142268300Y-120512900D03*
D11*
X145011500Y-103799700D03*
D12*
X145392500Y-103799700D03*
X146027500Y-103799700D03*
X144757500Y-103799700D03*
X144122500Y-103799700D03*
X143487500Y-103799700D03*
X146624400Y-103799700D03*
X147221300Y-103799700D03*
X142865200Y-103799700D03*
X142242900Y-103799700D03*
D11*
X145036900Y-111902300D03*
D12*
X145417900Y-111902300D03*
X146052900Y-111902300D03*
X144782900Y-111902300D03*
X144147900Y-111902300D03*
X143512900Y-111902300D03*
X146649800Y-111902300D03*
X147246700Y-111902300D03*
X142890600Y-111902300D03*
X142268300Y-111902300D03*
D11*
X211338100Y-92948700D03*
D12*
X211719100Y-92948700D03*
X212354100Y-92948700D03*
X211084100Y-92948700D03*
X210449100Y-92948700D03*
X209814100Y-92948700D03*
X212951000Y-92948700D03*
X213547900Y-92948700D03*
X209191800Y-92948700D03*
X208569500Y-92948700D03*
D11*
X203006900Y-92897900D03*
D12*
X203387900Y-92897900D03*
X204022900Y-92897900D03*
X202752900Y-92897900D03*
X202117900Y-92897900D03*
X201482900Y-92897900D03*
X204619800Y-92897900D03*
X205216700Y-92897900D03*
X200860600Y-92897900D03*
X200238300Y-92897900D03*
D11*
X211361700Y-114614900D03*
D12*
X211742700Y-114614900D03*
X212377700Y-114614900D03*
X211107700Y-114614900D03*
X210472700Y-114614900D03*
X209837700Y-114614900D03*
X212974600Y-114614900D03*
X213571500Y-114614900D03*
X209215400Y-114614900D03*
X208593100Y-114614900D03*
D11*
X203057700Y-114614900D03*
D12*
X203438700Y-114614900D03*
X204073700Y-114614900D03*
X202803700Y-114614900D03*
X202168700Y-114614900D03*
X201533700Y-114614900D03*
X204670600Y-114614900D03*
X205267500Y-114614900D03*
X200911400Y-114614900D03*
X200289100Y-114614900D03*
D11*
X156016900Y-114513300D03*
D12*
X156397900Y-114513300D03*
X157032900Y-114513300D03*
X155762900Y-114513300D03*
X155127900Y-114513300D03*
X154492900Y-114513300D03*
X157629800Y-114513300D03*
X158226700Y-114513300D03*
X153870600Y-114513300D03*
X153248300Y-114513300D03*
D11*
X145036900Y-114696300D03*
D12*
X145417900Y-114696300D03*
X146052900Y-114696300D03*
X144782900Y-114696300D03*
X144147900Y-114696300D03*
X143512900Y-114696300D03*
X146649800Y-114696300D03*
X147246700Y-114696300D03*
X142890600Y-114696300D03*
X142268300Y-114696300D03*
D11*
X211388900Y-98384300D03*
D12*
X211769900Y-98384300D03*
X212404900Y-98384300D03*
X211134900Y-98384300D03*
X210499900Y-98384300D03*
X209864900Y-98384300D03*
X213001800Y-98384300D03*
X213598700Y-98384300D03*
X209242600Y-98384300D03*
X208620300Y-98384300D03*
D11*
X202981500Y-98409700D03*
D12*
X203362500Y-98409700D03*
X203997500Y-98409700D03*
X202727500Y-98409700D03*
X202092500Y-98409700D03*
X201457500Y-98409700D03*
X204594400Y-98409700D03*
X205191300Y-98409700D03*
X200835200Y-98409700D03*
X200212900Y-98409700D03*
D11*
X155966100Y-98409700D03*
D12*
X156347100Y-98409700D03*
X156982100Y-98409700D03*
X155712100Y-98409700D03*
X155077100Y-98409700D03*
X154442100Y-98409700D03*
X157579000Y-98409700D03*
X158175900Y-98409700D03*
X153819800Y-98409700D03*
X153197500Y-98409700D03*
D11*
X145062300Y-98592700D03*
D12*
X145443300Y-98592700D03*
X146078300Y-98592700D03*
X144808300Y-98592700D03*
X144173300Y-98592700D03*
X143538300Y-98592700D03*
X146675200Y-98592700D03*
X147272100Y-98592700D03*
X142916000Y-98592700D03*
X142293700Y-98592700D03*
D11*
X213014500Y-85354100D03*
D12*
X213395500Y-85354100D03*
X214030500Y-85354100D03*
X212760500Y-85354100D03*
X212125500Y-85354100D03*
X211490500Y-85354100D03*
X214627400Y-85354100D03*
X215224300Y-85354100D03*
X210868200Y-85354100D03*
X210245900Y-85354100D03*
D11*
X212963700Y-124825700D03*
D12*
X213344700Y-124825700D03*
X213979700Y-124825700D03*
X212709700Y-124825700D03*
X212074700Y-124825700D03*
X211439700Y-124825700D03*
X214576600Y-124825700D03*
X215173500Y-124825700D03*
X210817400Y-124825700D03*
X210195100Y-124825700D03*
D11*
X205038900Y-85354100D03*
D12*
X205419900Y-85354100D03*
X206054900Y-85354100D03*
X204784900Y-85354100D03*
X204149900Y-85354100D03*
X203514900Y-85354100D03*
X206651800Y-85354100D03*
X207248700Y-85354100D03*
X202892600Y-85354100D03*
X202270300Y-85354100D03*
D11*
X205165900Y-124876500D03*
D12*
X205546900Y-124876500D03*
X206181900Y-124876500D03*
X204911900Y-124876500D03*
X204276900Y-124876500D03*
X203641900Y-124876500D03*
X206778800Y-124876500D03*
X207375700Y-124876500D03*
X203019600Y-124876500D03*
X202397300Y-124876500D03*
D11*
X143351700Y-125931900D03*
D12*
X143732700Y-125931900D03*
X144367700Y-125931900D03*
X143097700Y-125931900D03*
X142462700Y-125931900D03*
X141827700Y-125931900D03*
X144964600Y-125931900D03*
X145561500Y-125931900D03*
X141205400Y-125931900D03*
X140583100Y-125931900D03*
D11*
X153375300Y-83245900D03*
D12*
X153756300Y-83245900D03*
X154391300Y-83245900D03*
X153121300Y-83245900D03*
X152486300Y-83245900D03*
X151851300Y-83245900D03*
X154988200Y-83245900D03*
X155585100Y-83245900D03*
X151229000Y-83245900D03*
X150606700Y-83245900D03*
D11*
X153400700Y-125790900D03*
D12*
X153781700Y-125790900D03*
X154416700Y-125790900D03*
X153146700Y-125790900D03*
X152511700Y-125790900D03*
X151876700Y-125790900D03*
X155013600Y-125790900D03*
X155610500Y-125790900D03*
X151254400Y-125790900D03*
X150632100Y-125790900D03*
D11*
X155966100Y-93126500D03*
D12*
X156347100Y-93126500D03*
X156982100Y-93126500D03*
X155712100Y-93126500D03*
X155077100Y-93126500D03*
X154442100Y-93126500D03*
X157579000Y-93126500D03*
X158175900Y-93126500D03*
X153819800Y-93126500D03*
X153197500Y-93126500D03*
D11*
X156042300Y-95742700D03*
D12*
X156423300Y-95742700D03*
X157058300Y-95742700D03*
X155788300Y-95742700D03*
X155153300Y-95742700D03*
X154518300Y-95742700D03*
X157655200Y-95742700D03*
X158252100Y-95742700D03*
X153896000Y-95742700D03*
X153273700Y-95742700D03*
D11*
X156016900Y-103642100D03*
D12*
X156397900Y-103642100D03*
X157032900Y-103642100D03*
X155762900Y-103642100D03*
X155127900Y-103642100D03*
X154492900Y-103642100D03*
X157629800Y-103642100D03*
X158226700Y-103642100D03*
X153870600Y-103642100D03*
X153248300Y-103642100D03*
D11*
X155864500Y-111770100D03*
D12*
X156245500Y-111770100D03*
X156880500Y-111770100D03*
X155610500Y-111770100D03*
X154975500Y-111770100D03*
X154340500Y-111770100D03*
X157477400Y-111770100D03*
X158074300Y-111770100D03*
X153718200Y-111770100D03*
X153095900Y-111770100D03*
D11*
X156067700Y-120431500D03*
D12*
X156448700Y-120431500D03*
X157083700Y-120431500D03*
X155813700Y-120431500D03*
X155178700Y-120431500D03*
X154543700Y-120431500D03*
X157680600Y-120431500D03*
X158277500Y-120431500D03*
X153921400Y-120431500D03*
X153299100Y-120431500D03*
D11*
X145087700Y-93309500D03*
D12*
X145468700Y-93309500D03*
X146103700Y-93309500D03*
X144833700Y-93309500D03*
X144198700Y-93309500D03*
X143563700Y-93309500D03*
X146700600Y-93309500D03*
X147297500Y-93309500D03*
X142941400Y-93309500D03*
X142319100Y-93309500D03*
D11*
X212963700Y-79664500D03*
D12*
X213344700Y-79664500D03*
X213979700Y-79664500D03*
X212709700Y-79664500D03*
X212074700Y-79664500D03*
X211439700Y-79664500D03*
X214576600Y-79664500D03*
X215173500Y-79664500D03*
X210817400Y-79664500D03*
X210195100Y-79664500D03*
D11*
X211510300Y-119948900D03*
D12*
X211891300Y-119948900D03*
X212526300Y-119948900D03*
X211256300Y-119948900D03*
X210621300Y-119948900D03*
X209986300Y-119948900D03*
X213123200Y-119948900D03*
X213720100Y-119948900D03*
X209364000Y-119948900D03*
X208741700Y-119948900D03*
D11*
X211397900Y-111846300D03*
D12*
X211778900Y-111846300D03*
X212413900Y-111846300D03*
X211143900Y-111846300D03*
X210508900Y-111846300D03*
X209873900Y-111846300D03*
X213010800Y-111846300D03*
X213607700Y-111846300D03*
X209251600Y-111846300D03*
X208629300Y-111846300D03*
D11*
X205038900Y-79639100D03*
D12*
X205419900Y-79639100D03*
X206054900Y-79639100D03*
X204784900Y-79639100D03*
X204149900Y-79639100D03*
X203514900Y-79639100D03*
X206651800Y-79639100D03*
X207248700Y-79639100D03*
X202892600Y-79639100D03*
X202270300Y-79639100D03*
D11*
X202981500Y-119898100D03*
D12*
X203362500Y-119898100D03*
X203997500Y-119898100D03*
X202727500Y-119898100D03*
X202092500Y-119898100D03*
X201457500Y-119898100D03*
X204594400Y-119898100D03*
X205191300Y-119898100D03*
X200835200Y-119898100D03*
X200212900Y-119898100D03*
D11*
X203057700Y-111846300D03*
D12*
X203438700Y-111846300D03*
X204073700Y-111846300D03*
X202803700Y-111846300D03*
X202168700Y-111846300D03*
X201533700Y-111846300D03*
X204670600Y-111846300D03*
X205267500Y-111846300D03*
X200911400Y-111846300D03*
X200289100Y-111846300D03*
D11*
X143426900Y-83259900D03*
D12*
X143807900Y-83259900D03*
X144442900Y-83259900D03*
X143172900Y-83259900D03*
X142537900Y-83259900D03*
X141902900Y-83259900D03*
X145039800Y-83259900D03*
X145636700Y-83259900D03*
X141280600Y-83259900D03*
X140658300Y-83259900D03*
D11*
X211338100Y-95641100D03*
D12*
X211719100Y-95641100D03*
X212354100Y-95641100D03*
X211084100Y-95641100D03*
X210449100Y-95641100D03*
X209814100Y-95641100D03*
X212951000Y-95641100D03*
X213547900Y-95641100D03*
X209191800Y-95641100D03*
X208569500Y-95641100D03*
D11*
X203057700Y-95666500D03*
D12*
X203438700Y-95666500D03*
X204073700Y-95666500D03*
X202803700Y-95666500D03*
X202168700Y-95666500D03*
X201533700Y-95666500D03*
X204670600Y-95666500D03*
X205267500Y-95666500D03*
X200911400Y-95666500D03*
X200289100Y-95666500D03*
D11*
X211484900Y-117307300D03*
D12*
X211865900Y-117307300D03*
X212500900Y-117307300D03*
X211230900Y-117307300D03*
X210595900Y-117307300D03*
X209960900Y-117307300D03*
X213097800Y-117307300D03*
X213694700Y-117307300D03*
X209338600Y-117307300D03*
X208716300Y-117307300D03*
D11*
X203108500Y-117281900D03*
D12*
X203489500Y-117281900D03*
X204124500Y-117281900D03*
X202854500Y-117281900D03*
X202219500Y-117281900D03*
X201584500Y-117281900D03*
X204721400Y-117281900D03*
X205318300Y-117281900D03*
X200962200Y-117281900D03*
X200339900Y-117281900D03*
D11*
X156042300Y-117307300D03*
D12*
X156423300Y-117307300D03*
X157058300Y-117307300D03*
X155788300Y-117307300D03*
X155153300Y-117307300D03*
X154518300Y-117307300D03*
X157655200Y-117307300D03*
X158252100Y-117307300D03*
X153896000Y-117307300D03*
X153273700Y-117307300D03*
D11*
X145011500Y-117490300D03*
D12*
X145392500Y-117490300D03*
X146027500Y-117490300D03*
X144757500Y-117490300D03*
X144122500Y-117490300D03*
X143487500Y-117490300D03*
X146624400Y-117490300D03*
X147221300Y-117490300D03*
X142865200Y-117490300D03*
X142242900Y-117490300D03*
D11*
X211374300Y-101051300D03*
D12*
X211755300Y-101051300D03*
X212390300Y-101051300D03*
X211120300Y-101051300D03*
X210485300Y-101051300D03*
X209850300Y-101051300D03*
X212987200Y-101051300D03*
X213584100Y-101051300D03*
X209228000Y-101051300D03*
X208605700Y-101051300D03*
D11*
X203006900Y-100975100D03*
D12*
X203387900Y-100975100D03*
X204022900Y-100975100D03*
X202752900Y-100975100D03*
X202117900Y-100975100D03*
X201482900Y-100975100D03*
X204619800Y-100975100D03*
X205216700Y-100975100D03*
X200860600Y-100975100D03*
X200238300Y-100975100D03*
D11*
X156067700Y-100949700D03*
D12*
X156448700Y-100949700D03*
X157083700Y-100949700D03*
X155813700Y-100949700D03*
X155178700Y-100949700D03*
X154543700Y-100949700D03*
X157680600Y-100949700D03*
X158277500Y-100949700D03*
X153921400Y-100949700D03*
X153299100Y-100949700D03*
D11*
X145087700Y-101158100D03*
D12*
X145468700Y-101158100D03*
X146103700Y-101158100D03*
X144833700Y-101158100D03*
X144198700Y-101158100D03*
X143563700Y-101158100D03*
X146700600Y-101158100D03*
X147297500Y-101158100D03*
X142941400Y-101158100D03*
X142319100Y-101158100D03*
D11*
X78462700Y-125832900D03*
D12*
X78843700Y-125832900D03*
X79478700Y-125832900D03*
X78208700Y-125832900D03*
X77573700Y-125832900D03*
X76938700Y-125832900D03*
X80075600Y-125832900D03*
X80672500Y-125832900D03*
X76316400Y-125832900D03*
X75694100Y-125832900D03*
D11*
X78444500Y-129966900D03*
D12*
X78825500Y-129966900D03*
X79460500Y-129966900D03*
X78190500Y-129966900D03*
X77555500Y-129966900D03*
X76920500Y-129966900D03*
X80057400Y-129966900D03*
X80654300Y-129966900D03*
X76298200Y-129966900D03*
X75675900Y-129966900D03*
D11*
X105812100Y-83378900D03*
D12*
X106193100Y-83378900D03*
X106828100Y-83378900D03*
X105558100Y-83378900D03*
X104923100Y-83378900D03*
X104288100Y-83378900D03*
X107425000Y-83378900D03*
X108021900Y-83378900D03*
X103665800Y-83378900D03*
X103043500Y-83378900D03*
D11*
X105967100Y-80342900D03*
D12*
X106348100Y-80342900D03*
X106983100Y-80342900D03*
X105713100Y-80342900D03*
X105078100Y-80342900D03*
X104443100Y-80342900D03*
X107580000Y-80342900D03*
X108176900Y-80342900D03*
X103820800Y-80342900D03*
X103198500Y-80342900D03*
D11*
X94338100Y-86737900D03*
D12*
X94719100Y-86737900D03*
X95354100Y-86737900D03*
X94084100Y-86737900D03*
X93449100Y-86737900D03*
X92814100Y-86737900D03*
X95951000Y-86737900D03*
X96547900Y-86737900D03*
X92191800Y-86737900D03*
X91569500Y-86737900D03*
D11*
X94371100Y-90044900D03*
D12*
X94752100Y-90044900D03*
X95387100Y-90044900D03*
X94117100Y-90044900D03*
X93482100Y-90044900D03*
X92847100Y-90044900D03*
X95984000Y-90044900D03*
X96580900Y-90044900D03*
X92224800Y-90044900D03*
X91602500Y-90044900D03*
D11*
X105967100Y-86521900D03*
D12*
X106348100Y-86521900D03*
X106983100Y-86521900D03*
X105713100Y-86521900D03*
X105078100Y-86521900D03*
X104443100Y-86521900D03*
X107580000Y-86521900D03*
X108176900Y-86521900D03*
X103820800Y-86521900D03*
X103198500Y-86521900D03*
D11*
X94313100Y-80550900D03*
D12*
X94694100Y-80550900D03*
X95329100Y-80550900D03*
X94059100Y-80550900D03*
X93424100Y-80550900D03*
X92789100Y-80550900D03*
X95926000Y-80550900D03*
X96522900Y-80550900D03*
X92166800Y-80550900D03*
X91544500Y-80550900D03*
D11*
X94363100Y-83584900D03*
D12*
X94744100Y-83584900D03*
X95379100Y-83584900D03*
X94109100Y-83584900D03*
X93474100Y-83584900D03*
X92839100Y-83584900D03*
X95976000Y-83584900D03*
X96572900Y-83584900D03*
X92216800Y-83584900D03*
X91594500Y-83584900D03*
D11*
X105966100Y-89744900D03*
D12*
X106347100Y-89744900D03*
X106982100Y-89744900D03*
X105712100Y-89744900D03*
X105077100Y-89744900D03*
X104442100Y-89744900D03*
X107579000Y-89744900D03*
X108175900Y-89744900D03*
X103819800Y-89744900D03*
X103197500Y-89744900D03*
D11*
X36267100Y-79918900D03*
D12*
X36648100Y-79918900D03*
X37283100Y-79918900D03*
X36013100Y-79918900D03*
X35378100Y-79918900D03*
X34743100Y-79918900D03*
X37880000Y-79918900D03*
X38476900Y-79918900D03*
X34120800Y-79918900D03*
X33498500Y-79918900D03*
D11*
X36453100Y-82863900D03*
D12*
X36834100Y-82863900D03*
X37469100Y-82863900D03*
X36199100Y-82863900D03*
X35564100Y-82863900D03*
X34929100Y-82863900D03*
X38066000Y-82863900D03*
X38662900Y-82863900D03*
X34306800Y-82863900D03*
X33684500Y-82863900D03*
D11*
X36565100Y-91288900D03*
D12*
X36946100Y-91288900D03*
X37581100Y-91288900D03*
X36311100Y-91288900D03*
X35676100Y-91288900D03*
X35041100Y-91288900D03*
X38178000Y-91288900D03*
X38774900Y-91288900D03*
X34418800Y-91288900D03*
X33796500Y-91288900D03*
D11*
X36554100Y-94266900D03*
D12*
X36935100Y-94266900D03*
X37570100Y-94266900D03*
X36300100Y-94266900D03*
X35665100Y-94266900D03*
X35030100Y-94266900D03*
X38167000Y-94266900D03*
X38763900Y-94266900D03*
X34407800Y-94266900D03*
X33785500Y-94266900D03*
D11*
X36532100Y-85706900D03*
D12*
X36913100Y-85706900D03*
X37548100Y-85706900D03*
X36278100Y-85706900D03*
X35643100Y-85706900D03*
X35008100Y-85706900D03*
X38145000Y-85706900D03*
X38741900Y-85706900D03*
X34385800Y-85706900D03*
X33763500Y-85706900D03*
D11*
X36704100Y-99946900D03*
D12*
X37085100Y-99946900D03*
X37720100Y-99946900D03*
X36450100Y-99946900D03*
X35815100Y-99946900D03*
X35180100Y-99946900D03*
X38317000Y-99946900D03*
X38913900Y-99946900D03*
X34557800Y-99946900D03*
X33935500Y-99946900D03*
D11*
X36555100Y-97130900D03*
D12*
X36936100Y-97130900D03*
X37571100Y-97130900D03*
X36301100Y-97130900D03*
X35666100Y-97130900D03*
X35031100Y-97130900D03*
X38168000Y-97130900D03*
X38764900Y-97130900D03*
X34408800Y-97130900D03*
X33786500Y-97130900D03*
D11*
X36569100Y-88491900D03*
D12*
X36950100Y-88491900D03*
X37585100Y-88491900D03*
X36315100Y-88491900D03*
X35680100Y-88491900D03*
X35045100Y-88491900D03*
X38182000Y-88491900D03*
X38778900Y-88491900D03*
X34422800Y-88491900D03*
X33800500Y-88491900D03*
D13*
X40803100Y-125882900D03*
X34553100Y-125882900D03*
D14*
X34582600Y-119081900D03*
X39281600Y-119081900D03*
D15*
X262165100Y-130188900D03*
X259625100Y-130188900D03*
X257085100Y-130188900D03*
D16*
X245755100Y-105089900D03*
X229753100Y-105089900D03*
X237728700Y-113090900D03*
X171307700Y-105089900D03*
X179257700Y-97113500D03*
X187309700Y-105089900D03*
X179308700Y-113090900D03*
D17*
X110188100Y-105272900D03*
X118189100Y-97246500D03*
X126190100Y-105272900D03*
X118189100Y-113273900D03*
X51333700Y-104744900D03*
X59334700Y-96743900D03*
X67335700Y-104744900D03*
X59334700Y-112771300D03*
X237761100Y-97108900D03*
D18*
X92380100Y-102598900D03*
X92380100Y-110332900D03*
D17*
X34515100Y-112298900D03*
X42719100Y-112232900D03*
D19*
X218230100Y-124855900D03*
X240254100Y-93581900D03*
X178435100Y-93406900D03*
X135635100Y-97457900D03*
X70962100Y-101268900D03*
X60193100Y-117182900D03*
X236378100Y-90185900D03*
X201688100Y-85543900D03*
X171363300Y-89333900D03*
X200429100Y-122324900D03*
X165296100Y-125708900D03*
X143477100Y-86995900D03*
X133095100Y-83372900D03*
X98090100Y-90185900D03*
X137696100Y-125708900D03*
X74554100Y-95963900D03*
X64568100Y-121066900D03*
X49653000Y-119144000D03*
X40890100Y-94183900D03*
D20*
X212963700Y-124825700D02*
X218199900Y-124825700D01*
X218199900Y-124825700D02*
X218230100Y-124855900D01*
D21*
X213014500Y-82458500D02*
X236030700Y-82458500D01*
X236030700Y-82458500D02*
X240348100Y-86775900D01*
X240348100Y-86775900D02*
X240348100Y-93487900D01*
X240348100Y-93487900D02*
X240254100Y-93581900D01*
X153375300Y-80324900D02*
X176531100Y-80324900D01*
X176531100Y-80324900D02*
X178624100Y-82417900D01*
D22*
X178624100Y-82417900D02*
X179475100Y-82417900D01*
D21*
X179475100Y-82417900D02*
X205003300Y-82417900D01*
D22*
X205003300Y-82417900D02*
X205013500Y-82407700D01*
D21*
X178435100Y-93406900D02*
X178435100Y-83457900D01*
D22*
X178435100Y-83457900D02*
X179475100Y-82417900D01*
D21*
X105967100Y-80342900D02*
X135271100Y-80342900D01*
X135271100Y-80342900D02*
X143384100Y-80342900D01*
X143384100Y-80342900D02*
X143452700Y-80411500D01*
X135635100Y-97457900D02*
X135635100Y-97363900D01*
X135635100Y-97363900D02*
X137412100Y-95586900D01*
X137412100Y-95586900D02*
X137412100Y-82483900D01*
X137412100Y-82483900D02*
X135271100Y-80342900D01*
X40803100Y-125882900D02*
X40803100Y-123907900D01*
X40803100Y-123907900D02*
X39194100Y-122298900D01*
X39194100Y-122298900D02*
X39194100Y-119169400D01*
X39194100Y-119169400D02*
X39281600Y-119081900D01*
X36453100Y-82863900D02*
X66388100Y-82863900D01*
X66388100Y-82863900D02*
X70300100Y-86775900D01*
X70300100Y-86775900D02*
X70300100Y-100606900D01*
X70300100Y-100606900D02*
X70962100Y-101268900D01*
X78444500Y-129966900D02*
X62294100Y-129966900D01*
X62294100Y-129966900D02*
X60412100Y-128084900D01*
X60412100Y-128084900D02*
X60412100Y-127810900D01*
X60412100Y-127810900D02*
X60412100Y-117401900D01*
X60412100Y-117401900D02*
X60193100Y-117182900D01*
X39281600Y-119081900D02*
X39281600Y-122424400D01*
X39281600Y-122424400D02*
X40780100Y-123922900D01*
X40780100Y-123922900D02*
X40780100Y-128196900D01*
X40780100Y-128196900D02*
X42804100Y-130220900D01*
X42804100Y-130220900D02*
X58002100Y-130220900D01*
X58002100Y-130220900D02*
X60412100Y-127810900D01*
X213014500Y-85354100D02*
X233346300Y-85354100D01*
X233346300Y-85354100D02*
X236378100Y-88385900D01*
X236378100Y-88385900D02*
X236378100Y-90185900D01*
X201688100Y-85543900D02*
X204849100Y-85543900D01*
D22*
X204849100Y-85543900D02*
X205038900Y-85354100D01*
D21*
X153375300Y-83245900D02*
X167911100Y-83245900D01*
X167911100Y-83245900D02*
X171251100Y-86585900D01*
X171251100Y-86585900D02*
X171251100Y-89221700D01*
X171251100Y-89221700D02*
X171363300Y-89333900D01*
X205165900Y-124876500D02*
X200836700Y-124876500D01*
X200836700Y-124876500D02*
X200429100Y-124468900D01*
X200429100Y-124468900D02*
X200429100Y-122324900D01*
D20*
X153400700Y-125790900D02*
X165214100Y-125790900D01*
X165214100Y-125790900D02*
X165296100Y-125708900D01*
D23*
X143477100Y-86995900D02*
X143477100Y-83310100D01*
D21*
X143477100Y-83310100D02*
X143426900Y-83259900D01*
D23*
X105812100Y-83378900D02*
X133089100Y-83378900D01*
X133089100Y-83378900D02*
X133095100Y-83372900D01*
D24*
X94371100Y-90044900D02*
X97949100Y-90044900D01*
X97949100Y-90044900D02*
X98090100Y-90185900D01*
X143351700Y-125931900D02*
X137919100Y-125931900D01*
X137919100Y-125931900D02*
X137696100Y-125708900D01*
D21*
X34553100Y-125882900D02*
X34474100Y-119149400D01*
X34474100Y-119149400D02*
X34582600Y-119081900D01*
X36267100Y-79918900D02*
X69024100Y-79918900D01*
X69024100Y-79918900D02*
X74081100Y-84975900D01*
X74081100Y-84975900D02*
X74081100Y-95490900D01*
X74081100Y-95490900D02*
X74554100Y-95963900D01*
X78462700Y-125832900D02*
X65712100Y-125832900D01*
X65712100Y-125832900D02*
X64678100Y-124798900D01*
X64678100Y-124798900D02*
X64678100Y-121176900D01*
X64678100Y-121176900D02*
X64568100Y-121066900D01*
X34582600Y-119081900D02*
X34582600Y-116547400D01*
X34582600Y-116547400D02*
X35203100Y-115926900D01*
X35203100Y-115926900D02*
X46435900Y-115926900D01*
X46435900Y-115926900D02*
X49653000Y-119144000D01*
D22*
X36554100Y-94266900D02*
X40807100Y-94266900D01*
X40807100Y-94266900D02*
X40890100Y-94183900D01*
D25*
G36*
X264155900Y-131742700D02*
X262935594Y-131742700D01*
X262947624Y-131738034D01*
X263233616Y-131556538D01*
X263478908Y-131322949D01*
X263674158Y-131046164D01*
X263811928Y-130736727D01*
X263886972Y-130406423D01*
X263892374Y-130019539D01*
X263826583Y-129687269D01*
X263697506Y-129374105D01*
X263510060Y-129091977D01*
X263271386Y-128851630D01*
X262990573Y-128662220D01*
X262678318Y-128530960D01*
X262346515Y-128462851D01*
X262007802Y-128460486D01*
X261675080Y-128523956D01*
X261361023Y-128650843D01*
X261077593Y-128836315D01*
X260835586Y-129073305D01*
X260653764Y-129338850D01*
X260536088Y-129313267D01*
X259660455Y-130188900D01*
X260536088Y-131064533D01*
X260657503Y-131038138D01*
X260804955Y-131266937D01*
X261040251Y-131510593D01*
X261318392Y-131703906D01*
X261407188Y-131742700D01*
X257855594Y-131742700D01*
X257867624Y-131738034D01*
X258153616Y-131556538D01*
X258398908Y-131322949D01*
X258556259Y-131099888D01*
X258749467Y-131099888D01*
X258805815Y-131359081D01*
X259049849Y-131496431D01*
X259315989Y-131583533D01*
X259594008Y-131617040D01*
X259873222Y-131595664D01*
X260142900Y-131520228D01*
X260392680Y-131393629D01*
X260444385Y-131359081D01*
X260500733Y-131099888D01*
X259625100Y-130224255D01*
X258749467Y-131099888D01*
X258556259Y-131099888D01*
X258594158Y-131046164D01*
X258597287Y-131039136D01*
X258714112Y-131064533D01*
X259589745Y-130188900D01*
X258714112Y-129313267D01*
X258594379Y-129339297D01*
X258553595Y-129277912D01*
X258749467Y-129277912D01*
X259625100Y-130153545D01*
X260500733Y-129277912D01*
X260444385Y-129018719D01*
X260200351Y-128881369D01*
X259934211Y-128794267D01*
X259656192Y-128760760D01*
X259376978Y-128782136D01*
X259107300Y-128857572D01*
X258857520Y-128984171D01*
X258805815Y-129018719D01*
X258749467Y-129277912D01*
X258553595Y-129277912D01*
X258430060Y-129091977D01*
X258191386Y-128851630D01*
X257910573Y-128662220D01*
X257598318Y-128530960D01*
X257266515Y-128462851D01*
X256927802Y-128460486D01*
X256595080Y-128523956D01*
X256281023Y-128650843D01*
X255997593Y-128836315D01*
X255755586Y-129073305D01*
X255564220Y-129352789D01*
X255430783Y-129664120D01*
X255360359Y-129995439D01*
X255355630Y-130334128D01*
X255416776Y-130667284D01*
X255541467Y-130982220D01*
X255724955Y-131266937D01*
X255960251Y-131510593D01*
X256238392Y-131703906D01*
X256327188Y-131742700D01*
X210883500Y-131742700D01*
X210883500Y-126430570D01*
X215491000Y-126430570D01*
X215644705Y-126418313D01*
X215905404Y-126337579D01*
X216133290Y-126187413D01*
X216211456Y-126095700D01*
X217440909Y-126095700D01*
X217510261Y-126143901D01*
X217774144Y-126259189D01*
X218055394Y-126321026D01*
X218343299Y-126327056D01*
X218626893Y-126277051D01*
X218895372Y-126172915D01*
X219138512Y-126018614D01*
X219347050Y-125820025D01*
X219513044Y-125584714D01*
X219630171Y-125321642D01*
X219693970Y-125040830D01*
X219698563Y-124711916D01*
X219642630Y-124429432D01*
X219532894Y-124163192D01*
X219373534Y-123923338D01*
X219170622Y-123719004D01*
X218931886Y-123557974D01*
X218666419Y-123446382D01*
X218384332Y-123388478D01*
X218096371Y-123386468D01*
X217813504Y-123440427D01*
X217546504Y-123548302D01*
X217535199Y-123555700D01*
X216222517Y-123555700D01*
X216217713Y-123548410D01*
X216010004Y-123371381D01*
X215761199Y-123259228D01*
X215491000Y-123220830D01*
X210883500Y-123220830D01*
X210883500Y-122279300D01*
X210882259Y-122266647D01*
X210883192Y-122253961D01*
X210872364Y-122165725D01*
X210863690Y-122077257D01*
X210860014Y-122065080D01*
X210858465Y-122052461D01*
X210830707Y-121968015D01*
X210805013Y-121882911D01*
X210799044Y-121871685D01*
X210795072Y-121859601D01*
X210751440Y-121782154D01*
X210709705Y-121703662D01*
X210701665Y-121693804D01*
X210695425Y-121682728D01*
X210637585Y-121615235D01*
X210587456Y-121553770D01*
X214037600Y-121553770D01*
X214191305Y-121541513D01*
X214452004Y-121460779D01*
X214679890Y-121310613D01*
X214856919Y-121102904D01*
X214969072Y-120854099D01*
X215007470Y-120583900D01*
X215007470Y-119313900D01*
X214995213Y-119160195D01*
X214914479Y-118899496D01*
X214764313Y-118671610D01*
X214699417Y-118616300D01*
X214831519Y-118461304D01*
X214943672Y-118212499D01*
X214982070Y-117942300D01*
X214982070Y-116672300D01*
X214969813Y-116518595D01*
X214889079Y-116257896D01*
X214738913Y-116030010D01*
X214592289Y-115905043D01*
X214708319Y-115768904D01*
X214820472Y-115520099D01*
X214858870Y-115249900D01*
X214858870Y-113979900D01*
X214846613Y-113826195D01*
X214765879Y-113565496D01*
X214615713Y-113337610D01*
X214529219Y-113263892D01*
X235668596Y-113263892D01*
X235741431Y-113660740D01*
X235889961Y-114035884D01*
X236108527Y-114375033D01*
X236388806Y-114665270D01*
X236720121Y-114895540D01*
X237089852Y-115057071D01*
X237483917Y-115143712D01*
X237887305Y-115152162D01*
X238284653Y-115082099D01*
X238660824Y-114936192D01*
X239001491Y-114719998D01*
X239293678Y-114441752D01*
X239526255Y-114112053D01*
X239690364Y-113743459D01*
X239779753Y-113350008D01*
X239786188Y-112889162D01*
X239707819Y-112493369D01*
X239554066Y-112120336D01*
X239330785Y-111784271D01*
X239046482Y-111497976D01*
X238711984Y-111272354D01*
X238340034Y-111116001D01*
X237944797Y-111034870D01*
X237541330Y-111032053D01*
X237145000Y-111107657D01*
X236770903Y-111258803D01*
X236433287Y-111479732D01*
X236145014Y-111762030D01*
X235917063Y-112094944D01*
X235758117Y-112465794D01*
X235674229Y-112860454D01*
X235668596Y-113263892D01*
X214529219Y-113263892D01*
X214508931Y-113246601D01*
X214567490Y-113208013D01*
X214744519Y-113000304D01*
X214856672Y-112751499D01*
X214895070Y-112481300D01*
X214895070Y-111211300D01*
X214882813Y-111057595D01*
X214802079Y-110796896D01*
X214651913Y-110569010D01*
X214612019Y-110535008D01*
X214757090Y-110439413D01*
X214934119Y-110231704D01*
X215046272Y-109982899D01*
X215084670Y-109712700D01*
X215084670Y-108442700D01*
X215072413Y-108288995D01*
X214991679Y-108028296D01*
X214841513Y-107800410D01*
X214664305Y-107649377D01*
X214758119Y-107539304D01*
X214870272Y-107290499D01*
X214908670Y-107020300D01*
X214908670Y-105750300D01*
X214896413Y-105596595D01*
X214815679Y-105335896D01*
X214767573Y-105262892D01*
X227692996Y-105262892D01*
X227765831Y-105659740D01*
X227914361Y-106034884D01*
X228132927Y-106374033D01*
X228413206Y-106664270D01*
X228744521Y-106894540D01*
X229114252Y-107056071D01*
X229508317Y-107142712D01*
X229911705Y-107151162D01*
X230309053Y-107081099D01*
X230685224Y-106935192D01*
X231025891Y-106718998D01*
X231318078Y-106440752D01*
X231550655Y-106111053D01*
X231714764Y-105742459D01*
X231804153Y-105349008D01*
X231805355Y-105262892D01*
X243694996Y-105262892D01*
X243767831Y-105659740D01*
X243916361Y-106034884D01*
X244134927Y-106374033D01*
X244415206Y-106664270D01*
X244746521Y-106894540D01*
X245116252Y-107056071D01*
X245510317Y-107142712D01*
X245913705Y-107151162D01*
X246311053Y-107081099D01*
X246687224Y-106935192D01*
X247027891Y-106718998D01*
X247320078Y-106440752D01*
X247552655Y-106111053D01*
X247716764Y-105742459D01*
X247806153Y-105349008D01*
X247812588Y-104888162D01*
X247734219Y-104492369D01*
X247580466Y-104119336D01*
X247357185Y-103783271D01*
X247072882Y-103496976D01*
X246738384Y-103271354D01*
X246366434Y-103115001D01*
X245971197Y-103033870D01*
X245567730Y-103031053D01*
X245171400Y-103106657D01*
X244797303Y-103257803D01*
X244459687Y-103478732D01*
X244171414Y-103761030D01*
X243943463Y-104093944D01*
X243784517Y-104464794D01*
X243700629Y-104859454D01*
X243694996Y-105262892D01*
X231805355Y-105262892D01*
X231810588Y-104888162D01*
X231732219Y-104492369D01*
X231578466Y-104119336D01*
X231355185Y-103783271D01*
X231070882Y-103496976D01*
X230736384Y-103271354D01*
X230364434Y-103115001D01*
X229969197Y-103033870D01*
X229565730Y-103031053D01*
X229169400Y-103106657D01*
X228795303Y-103257803D01*
X228457687Y-103478732D01*
X228169414Y-103761030D01*
X227941463Y-104093944D01*
X227782517Y-104464794D01*
X227698629Y-104859454D01*
X227692996Y-105262892D01*
X214767573Y-105262892D01*
X214665513Y-105108010D01*
X214588078Y-105042012D01*
X214732719Y-104872304D01*
X214844872Y-104623499D01*
X214883270Y-104353300D01*
X214883270Y-103083300D01*
X214871013Y-102929595D01*
X214790279Y-102668896D01*
X214640113Y-102441010D01*
X214570555Y-102381726D01*
X214720919Y-102205304D01*
X214833072Y-101956499D01*
X214871470Y-101686300D01*
X214871470Y-100416300D01*
X214859213Y-100262595D01*
X214778479Y-100001896D01*
X214628313Y-99774010D01*
X214574047Y-99727760D01*
X214735519Y-99538304D01*
X214847672Y-99289499D01*
X214886070Y-99019300D01*
X214886070Y-97749300D01*
X214873813Y-97595595D01*
X214793079Y-97334896D01*
X214780747Y-97316181D01*
X235292660Y-97316181D01*
X235379932Y-97791689D01*
X235557902Y-98241190D01*
X235819791Y-98647563D01*
X236155624Y-98995328D01*
X236552609Y-99271240D01*
X236995625Y-99464789D01*
X237467798Y-99568603D01*
X237951143Y-99578727D01*
X238427249Y-99494777D01*
X238877981Y-99319949D01*
X239286172Y-99060904D01*
X239636274Y-98727506D01*
X239914950Y-98332457D01*
X240111587Y-97890803D01*
X240218695Y-97419366D01*
X240226406Y-96867175D01*
X240132503Y-96392931D01*
X239948274Y-95945959D01*
X239680737Y-95543283D01*
X239340081Y-95200240D01*
X238939282Y-94929898D01*
X238493607Y-94742553D01*
X238020030Y-94645342D01*
X237536591Y-94641967D01*
X237061704Y-94732556D01*
X236613456Y-94913660D01*
X236208922Y-95178380D01*
X235863510Y-95516633D01*
X235590376Y-95915534D01*
X235399925Y-96359891D01*
X235299410Y-96832777D01*
X235292660Y-97316181D01*
X214780747Y-97316181D01*
X214642913Y-97107010D01*
X214513146Y-96996411D01*
X214684719Y-96795104D01*
X214796872Y-96546299D01*
X214835270Y-96276100D01*
X214835270Y-95006100D01*
X214823013Y-94852395D01*
X214742279Y-94591696D01*
X214592113Y-94363810D01*
X214516851Y-94299665D01*
X214684719Y-94102704D01*
X214796872Y-93853899D01*
X214835270Y-93583700D01*
X214835270Y-92313700D01*
X214823013Y-92159995D01*
X214742279Y-91899296D01*
X214592113Y-91671410D01*
X214569217Y-91651896D01*
X214582090Y-91643413D01*
X214759119Y-91435704D01*
X214871272Y-91186899D01*
X214909670Y-90916700D01*
X214909670Y-89646700D01*
X214897413Y-89492995D01*
X214816679Y-89232296D01*
X214666513Y-89004410D01*
X214458804Y-88827381D01*
X214209999Y-88715228D01*
X213939800Y-88676830D01*
X210703425Y-88676830D01*
X210719078Y-88657907D01*
X210766665Y-88607099D01*
X210783635Y-88579862D01*
X210804095Y-88555128D01*
X210837210Y-88493875D01*
X210874020Y-88434796D01*
X210885376Y-88404782D01*
X210900643Y-88376544D01*
X210921230Y-88310028D01*
X210945864Y-88244922D01*
X210951175Y-88213272D01*
X210960665Y-88182609D01*
X210967939Y-88113371D01*
X210979460Y-88044710D01*
X210978522Y-88012626D01*
X210981875Y-87980708D01*
X210981874Y-87966184D01*
X210974790Y-86958970D01*
X211466352Y-86958970D01*
X211751686Y-87198394D01*
X212133961Y-87408551D01*
X212549776Y-87540456D01*
X212983292Y-87589082D01*
X213014500Y-87589300D01*
X232420450Y-87589300D01*
X234142900Y-89311750D01*
X234142900Y-90185900D01*
X234185469Y-90620053D01*
X234311555Y-91037669D01*
X234516354Y-91422841D01*
X234792067Y-91760898D01*
X235128192Y-92038965D01*
X235511925Y-92246449D01*
X235928651Y-92375447D01*
X236362495Y-92421046D01*
X236796935Y-92381508D01*
X237215421Y-92258341D01*
X237602013Y-92056236D01*
X237941987Y-91782889D01*
X238222394Y-91448714D01*
X238432551Y-91066439D01*
X238564456Y-90650624D01*
X238613082Y-90217108D01*
X238613300Y-90185900D01*
X238613300Y-88385900D01*
X238593149Y-88180386D01*
X238575157Y-87974732D01*
X238571878Y-87963446D01*
X238570731Y-87951747D01*
X238511058Y-87754102D01*
X238453452Y-87555819D01*
X238448042Y-87545382D01*
X238444645Y-87534131D01*
X238347719Y-87351839D01*
X238252697Y-87168523D01*
X238245364Y-87159338D01*
X238239846Y-87148959D01*
X238109343Y-86988946D01*
X237980539Y-86827597D01*
X237964408Y-86811240D01*
X237964133Y-86810902D01*
X237963820Y-86810643D01*
X237958625Y-86805375D01*
X234926825Y-83773575D01*
X234767251Y-83642499D01*
X234609114Y-83509806D01*
X234598816Y-83504145D01*
X234589732Y-83496683D01*
X234407742Y-83399101D01*
X234226839Y-83299649D01*
X234215637Y-83296095D01*
X234205276Y-83290540D01*
X234007785Y-83230161D01*
X233811024Y-83167744D01*
X233799346Y-83166434D01*
X233788104Y-83162997D01*
X233582673Y-83142131D01*
X233377508Y-83119118D01*
X233354531Y-83118957D01*
X233354103Y-83118914D01*
X233353704Y-83118952D01*
X233346300Y-83118900D01*
X216508060Y-83118900D01*
X216511670Y-83093500D01*
X216511670Y-81823500D01*
X216499413Y-81669795D01*
X216418679Y-81409096D01*
X216268513Y-81181210D01*
X216106989Y-81043544D01*
X216133290Y-81026213D01*
X216310319Y-80818504D01*
X216422472Y-80569699D01*
X216460870Y-80299500D01*
X216460870Y-79029500D01*
X216448613Y-78875795D01*
X216409997Y-78751100D01*
X264155900Y-78751100D01*
X264155900Y-131742700D01*
X264155900Y-131742700D01*
G37*
X264155900Y-131742700D02*
X262935594Y-131742700D01*
X262947624Y-131738034D01*
X263233616Y-131556538D01*
X263478908Y-131322949D01*
X263674158Y-131046164D01*
X263811928Y-130736727D01*
X263886972Y-130406423D01*
X263892374Y-130019539D01*
X263826583Y-129687269D01*
X263697506Y-129374105D01*
X263510060Y-129091977D01*
X263271386Y-128851630D01*
X262990573Y-128662220D01*
X262678318Y-128530960D01*
X262346515Y-128462851D01*
X262007802Y-128460486D01*
X261675080Y-128523956D01*
X261361023Y-128650843D01*
X261077593Y-128836315D01*
X260835586Y-129073305D01*
X260653764Y-129338850D01*
X260536088Y-129313267D01*
X259660455Y-130188900D01*
X260536088Y-131064533D01*
X260657503Y-131038138D01*
X260804955Y-131266937D01*
X261040251Y-131510593D01*
X261318392Y-131703906D01*
X261407188Y-131742700D01*
X257855594Y-131742700D01*
X257867624Y-131738034D01*
X258153616Y-131556538D01*
X258398908Y-131322949D01*
X258556259Y-131099888D01*
X258749467Y-131099888D01*
X258805815Y-131359081D01*
X259049849Y-131496431D01*
X259315989Y-131583533D01*
X259594008Y-131617040D01*
X259873222Y-131595664D01*
X260142900Y-131520228D01*
X260392680Y-131393629D01*
X260444385Y-131359081D01*
X260500733Y-131099888D01*
X259625100Y-130224255D01*
X258749467Y-131099888D01*
X258556259Y-131099888D01*
X258594158Y-131046164D01*
X258597287Y-131039136D01*
X258714112Y-131064533D01*
X259589745Y-130188900D01*
X258714112Y-129313267D01*
X258594379Y-129339297D01*
X258553595Y-129277912D01*
X258749467Y-129277912D01*
X259625100Y-130153545D01*
X260500733Y-129277912D01*
X260444385Y-129018719D01*
X260200351Y-128881369D01*
X259934211Y-128794267D01*
X259656192Y-128760760D01*
X259376978Y-128782136D01*
X259107300Y-128857572D01*
X258857520Y-128984171D01*
X258805815Y-129018719D01*
X258749467Y-129277912D01*
X258553595Y-129277912D01*
X258430060Y-129091977D01*
X258191386Y-128851630D01*
X257910573Y-128662220D01*
X257598318Y-128530960D01*
X257266515Y-128462851D01*
X256927802Y-128460486D01*
X256595080Y-128523956D01*
X256281023Y-128650843D01*
X255997593Y-128836315D01*
X255755586Y-129073305D01*
X255564220Y-129352789D01*
X255430783Y-129664120D01*
X255360359Y-129995439D01*
X255355630Y-130334128D01*
X255416776Y-130667284D01*
X255541467Y-130982220D01*
X255724955Y-131266937D01*
X255960251Y-131510593D01*
X256238392Y-131703906D01*
X256327188Y-131742700D01*
X210883500Y-131742700D01*
X210883500Y-126430570D01*
X215491000Y-126430570D01*
X215644705Y-126418313D01*
X215905404Y-126337579D01*
X216133290Y-126187413D01*
X216211456Y-126095700D01*
X217440909Y-126095700D01*
X217510261Y-126143901D01*
X217774144Y-126259189D01*
X218055394Y-126321026D01*
X218343299Y-126327056D01*
X218626893Y-126277051D01*
X218895372Y-126172915D01*
X219138512Y-126018614D01*
X219347050Y-125820025D01*
X219513044Y-125584714D01*
X219630171Y-125321642D01*
X219693970Y-125040830D01*
X219698563Y-124711916D01*
X219642630Y-124429432D01*
X219532894Y-124163192D01*
X219373534Y-123923338D01*
X219170622Y-123719004D01*
X218931886Y-123557974D01*
X218666419Y-123446382D01*
X218384332Y-123388478D01*
X218096371Y-123386468D01*
X217813504Y-123440427D01*
X217546504Y-123548302D01*
X217535199Y-123555700D01*
X216222517Y-123555700D01*
X216217713Y-123548410D01*
X216010004Y-123371381D01*
X215761199Y-123259228D01*
X215491000Y-123220830D01*
X210883500Y-123220830D01*
X210883500Y-122279300D01*
X210882259Y-122266647D01*
X210883192Y-122253961D01*
X210872364Y-122165725D01*
X210863690Y-122077257D01*
X210860014Y-122065080D01*
X210858465Y-122052461D01*
X210830707Y-121968015D01*
X210805013Y-121882911D01*
X210799044Y-121871685D01*
X210795072Y-121859601D01*
X210751440Y-121782154D01*
X210709705Y-121703662D01*
X210701665Y-121693804D01*
X210695425Y-121682728D01*
X210637585Y-121615235D01*
X210587456Y-121553770D01*
X214037600Y-121553770D01*
X214191305Y-121541513D01*
X214452004Y-121460779D01*
X214679890Y-121310613D01*
X214856919Y-121102904D01*
X214969072Y-120854099D01*
X215007470Y-120583900D01*
X215007470Y-119313900D01*
X214995213Y-119160195D01*
X214914479Y-118899496D01*
X214764313Y-118671610D01*
X214699417Y-118616300D01*
X214831519Y-118461304D01*
X214943672Y-118212499D01*
X214982070Y-117942300D01*
X214982070Y-116672300D01*
X214969813Y-116518595D01*
X214889079Y-116257896D01*
X214738913Y-116030010D01*
X214592289Y-115905043D01*
X214708319Y-115768904D01*
X214820472Y-115520099D01*
X214858870Y-115249900D01*
X214858870Y-113979900D01*
X214846613Y-113826195D01*
X214765879Y-113565496D01*
X214615713Y-113337610D01*
X214529219Y-113263892D01*
X235668596Y-113263892D01*
X235741431Y-113660740D01*
X235889961Y-114035884D01*
X236108527Y-114375033D01*
X236388806Y-114665270D01*
X236720121Y-114895540D01*
X237089852Y-115057071D01*
X237483917Y-115143712D01*
X237887305Y-115152162D01*
X238284653Y-115082099D01*
X238660824Y-114936192D01*
X239001491Y-114719998D01*
X239293678Y-114441752D01*
X239526255Y-114112053D01*
X239690364Y-113743459D01*
X239779753Y-113350008D01*
X239786188Y-112889162D01*
X239707819Y-112493369D01*
X239554066Y-112120336D01*
X239330785Y-111784271D01*
X239046482Y-111497976D01*
X238711984Y-111272354D01*
X238340034Y-111116001D01*
X237944797Y-111034870D01*
X237541330Y-111032053D01*
X237145000Y-111107657D01*
X236770903Y-111258803D01*
X236433287Y-111479732D01*
X236145014Y-111762030D01*
X235917063Y-112094944D01*
X235758117Y-112465794D01*
X235674229Y-112860454D01*
X235668596Y-113263892D01*
X214529219Y-113263892D01*
X214508931Y-113246601D01*
X214567490Y-113208013D01*
X214744519Y-113000304D01*
X214856672Y-112751499D01*
X214895070Y-112481300D01*
X214895070Y-111211300D01*
X214882813Y-111057595D01*
X214802079Y-110796896D01*
X214651913Y-110569010D01*
X214612019Y-110535008D01*
X214757090Y-110439413D01*
X214934119Y-110231704D01*
X215046272Y-109982899D01*
X215084670Y-109712700D01*
X215084670Y-108442700D01*
X215072413Y-108288995D01*
X214991679Y-108028296D01*
X214841513Y-107800410D01*
X214664305Y-107649377D01*
X214758119Y-107539304D01*
X214870272Y-107290499D01*
X214908670Y-107020300D01*
X214908670Y-105750300D01*
X214896413Y-105596595D01*
X214815679Y-105335896D01*
X214767573Y-105262892D01*
X227692996Y-105262892D01*
X227765831Y-105659740D01*
X227914361Y-106034884D01*
X228132927Y-106374033D01*
X228413206Y-106664270D01*
X228744521Y-106894540D01*
X229114252Y-107056071D01*
X229508317Y-107142712D01*
X229911705Y-107151162D01*
X230309053Y-107081099D01*
X230685224Y-106935192D01*
X231025891Y-106718998D01*
X231318078Y-106440752D01*
X231550655Y-106111053D01*
X231714764Y-105742459D01*
X231804153Y-105349008D01*
X231805355Y-105262892D01*
X243694996Y-105262892D01*
X243767831Y-105659740D01*
X243916361Y-106034884D01*
X244134927Y-106374033D01*
X244415206Y-106664270D01*
X244746521Y-106894540D01*
X245116252Y-107056071D01*
X245510317Y-107142712D01*
X245913705Y-107151162D01*
X246311053Y-107081099D01*
X246687224Y-106935192D01*
X247027891Y-106718998D01*
X247320078Y-106440752D01*
X247552655Y-106111053D01*
X247716764Y-105742459D01*
X247806153Y-105349008D01*
X247812588Y-104888162D01*
X247734219Y-104492369D01*
X247580466Y-104119336D01*
X247357185Y-103783271D01*
X247072882Y-103496976D01*
X246738384Y-103271354D01*
X246366434Y-103115001D01*
X245971197Y-103033870D01*
X245567730Y-103031053D01*
X245171400Y-103106657D01*
X244797303Y-103257803D01*
X244459687Y-103478732D01*
X244171414Y-103761030D01*
X243943463Y-104093944D01*
X243784517Y-104464794D01*
X243700629Y-104859454D01*
X243694996Y-105262892D01*
X231805355Y-105262892D01*
X231810588Y-104888162D01*
X231732219Y-104492369D01*
X231578466Y-104119336D01*
X231355185Y-103783271D01*
X231070882Y-103496976D01*
X230736384Y-103271354D01*
X230364434Y-103115001D01*
X229969197Y-103033870D01*
X229565730Y-103031053D01*
X229169400Y-103106657D01*
X228795303Y-103257803D01*
X228457687Y-103478732D01*
X228169414Y-103761030D01*
X227941463Y-104093944D01*
X227782517Y-104464794D01*
X227698629Y-104859454D01*
X227692996Y-105262892D01*
X214767573Y-105262892D01*
X214665513Y-105108010D01*
X214588078Y-105042012D01*
X214732719Y-104872304D01*
X214844872Y-104623499D01*
X214883270Y-104353300D01*
X214883270Y-103083300D01*
X214871013Y-102929595D01*
X214790279Y-102668896D01*
X214640113Y-102441010D01*
X214570555Y-102381726D01*
X214720919Y-102205304D01*
X214833072Y-101956499D01*
X214871470Y-101686300D01*
X214871470Y-100416300D01*
X214859213Y-100262595D01*
X214778479Y-100001896D01*
X214628313Y-99774010D01*
X214574047Y-99727760D01*
X214735519Y-99538304D01*
X214847672Y-99289499D01*
X214886070Y-99019300D01*
X214886070Y-97749300D01*
X214873813Y-97595595D01*
X214793079Y-97334896D01*
X214780747Y-97316181D01*
X235292660Y-97316181D01*
X235379932Y-97791689D01*
X235557902Y-98241190D01*
X235819791Y-98647563D01*
X236155624Y-98995328D01*
X236552609Y-99271240D01*
X236995625Y-99464789D01*
X237467798Y-99568603D01*
X237951143Y-99578727D01*
X238427249Y-99494777D01*
X238877981Y-99319949D01*
X239286172Y-99060904D01*
X239636274Y-98727506D01*
X239914950Y-98332457D01*
X240111587Y-97890803D01*
X240218695Y-97419366D01*
X240226406Y-96867175D01*
X240132503Y-96392931D01*
X239948274Y-95945959D01*
X239680737Y-95543283D01*
X239340081Y-95200240D01*
X238939282Y-94929898D01*
X238493607Y-94742553D01*
X238020030Y-94645342D01*
X237536591Y-94641967D01*
X237061704Y-94732556D01*
X236613456Y-94913660D01*
X236208922Y-95178380D01*
X235863510Y-95516633D01*
X235590376Y-95915534D01*
X235399925Y-96359891D01*
X235299410Y-96832777D01*
X235292660Y-97316181D01*
X214780747Y-97316181D01*
X214642913Y-97107010D01*
X214513146Y-96996411D01*
X214684719Y-96795104D01*
X214796872Y-96546299D01*
X214835270Y-96276100D01*
X214835270Y-95006100D01*
X214823013Y-94852395D01*
X214742279Y-94591696D01*
X214592113Y-94363810D01*
X214516851Y-94299665D01*
X214684719Y-94102704D01*
X214796872Y-93853899D01*
X214835270Y-93583700D01*
X214835270Y-92313700D01*
X214823013Y-92159995D01*
X214742279Y-91899296D01*
X214592113Y-91671410D01*
X214569217Y-91651896D01*
X214582090Y-91643413D01*
X214759119Y-91435704D01*
X214871272Y-91186899D01*
X214909670Y-90916700D01*
X214909670Y-89646700D01*
X214897413Y-89492995D01*
X214816679Y-89232296D01*
X214666513Y-89004410D01*
X214458804Y-88827381D01*
X214209999Y-88715228D01*
X213939800Y-88676830D01*
X210703425Y-88676830D01*
X210719078Y-88657907D01*
X210766665Y-88607099D01*
X210783635Y-88579862D01*
X210804095Y-88555128D01*
X210837210Y-88493875D01*
X210874020Y-88434796D01*
X210885376Y-88404782D01*
X210900643Y-88376544D01*
X210921230Y-88310028D01*
X210945864Y-88244922D01*
X210951175Y-88213272D01*
X210960665Y-88182609D01*
X210967939Y-88113371D01*
X210979460Y-88044710D01*
X210978522Y-88012626D01*
X210981875Y-87980708D01*
X210981874Y-87966184D01*
X210974790Y-86958970D01*
X211466352Y-86958970D01*
X211751686Y-87198394D01*
X212133961Y-87408551D01*
X212549776Y-87540456D01*
X212983292Y-87589082D01*
X213014500Y-87589300D01*
X232420450Y-87589300D01*
X234142900Y-89311750D01*
X234142900Y-90185900D01*
X234185469Y-90620053D01*
X234311555Y-91037669D01*
X234516354Y-91422841D01*
X234792067Y-91760898D01*
X235128192Y-92038965D01*
X235511925Y-92246449D01*
X235928651Y-92375447D01*
X236362495Y-92421046D01*
X236796935Y-92381508D01*
X237215421Y-92258341D01*
X237602013Y-92056236D01*
X237941987Y-91782889D01*
X238222394Y-91448714D01*
X238432551Y-91066439D01*
X238564456Y-90650624D01*
X238613082Y-90217108D01*
X238613300Y-90185900D01*
X238613300Y-88385900D01*
X238593149Y-88180386D01*
X238575157Y-87974732D01*
X238571878Y-87963446D01*
X238570731Y-87951747D01*
X238511058Y-87754102D01*
X238453452Y-87555819D01*
X238448042Y-87545382D01*
X238444645Y-87534131D01*
X238347719Y-87351839D01*
X238252697Y-87168523D01*
X238245364Y-87159338D01*
X238239846Y-87148959D01*
X238109343Y-86988946D01*
X237980539Y-86827597D01*
X237964408Y-86811240D01*
X237964133Y-86810902D01*
X237963820Y-86810643D01*
X237958625Y-86805375D01*
X234926825Y-83773575D01*
X234767251Y-83642499D01*
X234609114Y-83509806D01*
X234598816Y-83504145D01*
X234589732Y-83496683D01*
X234407742Y-83399101D01*
X234226839Y-83299649D01*
X234215637Y-83296095D01*
X234205276Y-83290540D01*
X234007785Y-83230161D01*
X233811024Y-83167744D01*
X233799346Y-83166434D01*
X233788104Y-83162997D01*
X233582673Y-83142131D01*
X233377508Y-83119118D01*
X233354531Y-83118957D01*
X233354103Y-83118914D01*
X233353704Y-83118952D01*
X233346300Y-83118900D01*
X216508060Y-83118900D01*
X216511670Y-83093500D01*
X216511670Y-81823500D01*
X216499413Y-81669795D01*
X216418679Y-81409096D01*
X216268513Y-81181210D01*
X216106989Y-81043544D01*
X216133290Y-81026213D01*
X216310319Y-80818504D01*
X216422472Y-80569699D01*
X216460870Y-80299500D01*
X216460870Y-79029500D01*
X216448613Y-78875795D01*
X216409997Y-78751100D01*
X264155900Y-78751100D01*
X264155900Y-131742700D01*
G36*
X264155900Y-131742700D02*
X260395594Y-131742700D01*
X260407624Y-131738034D01*
X260693616Y-131556538D01*
X260938908Y-131322949D01*
X261096259Y-131099888D01*
X261289467Y-131099888D01*
X261345815Y-131359081D01*
X261589849Y-131496431D01*
X261855989Y-131583533D01*
X262134008Y-131617040D01*
X262413222Y-131595664D01*
X262682900Y-131520228D01*
X262932680Y-131393629D01*
X262984385Y-131359081D01*
X263040733Y-131099888D01*
X262165100Y-130224255D01*
X261289467Y-131099888D01*
X261096259Y-131099888D01*
X261134158Y-131046164D01*
X261137287Y-131039136D01*
X261254112Y-131064533D01*
X262129745Y-130188900D01*
X262200455Y-130188900D01*
X263076088Y-131064533D01*
X263335281Y-131008185D01*
X263472631Y-130764151D01*
X263559733Y-130498011D01*
X263593240Y-130219992D01*
X263571864Y-129940778D01*
X263496428Y-129671100D01*
X263369829Y-129421320D01*
X263335281Y-129369615D01*
X263076088Y-129313267D01*
X262200455Y-130188900D01*
X262129745Y-130188900D01*
X261254112Y-129313267D01*
X261134379Y-129339297D01*
X261093595Y-129277912D01*
X261289467Y-129277912D01*
X262165100Y-130153545D01*
X263040733Y-129277912D01*
X262984385Y-129018719D01*
X262740351Y-128881369D01*
X262474211Y-128794267D01*
X262196192Y-128760760D01*
X261916978Y-128782136D01*
X261647300Y-128857572D01*
X261397520Y-128984171D01*
X261345815Y-129018719D01*
X261289467Y-129277912D01*
X261093595Y-129277912D01*
X260970060Y-129091977D01*
X260731386Y-128851630D01*
X260450573Y-128662220D01*
X260138318Y-128530960D01*
X259806515Y-128462851D01*
X259467802Y-128460486D01*
X259135080Y-128523956D01*
X258821023Y-128650843D01*
X258537593Y-128836315D01*
X258354362Y-129015748D01*
X258191386Y-128851630D01*
X257910573Y-128662220D01*
X257598318Y-128530960D01*
X257266515Y-128462851D01*
X256927802Y-128460486D01*
X256595080Y-128523956D01*
X256281023Y-128650843D01*
X255997593Y-128836315D01*
X255755586Y-129073305D01*
X255564220Y-129352789D01*
X255430783Y-129664120D01*
X255360359Y-129995439D01*
X255355630Y-130334128D01*
X255416776Y-130667284D01*
X255541467Y-130982220D01*
X255724955Y-131266937D01*
X255960251Y-131510593D01*
X256238392Y-131703906D01*
X256327188Y-131742700D01*
X210883500Y-131742700D01*
X210883500Y-126430570D01*
X215491000Y-126430570D01*
X215644705Y-126418313D01*
X215905404Y-126337579D01*
X216133290Y-126187413D01*
X216211456Y-126095700D01*
X217440909Y-126095700D01*
X217510261Y-126143901D01*
X217774144Y-126259189D01*
X218055394Y-126321026D01*
X218343299Y-126327056D01*
X218626893Y-126277051D01*
X218895372Y-126172915D01*
X219138512Y-126018614D01*
X219347050Y-125820025D01*
X219513044Y-125584714D01*
X219630171Y-125321642D01*
X219693970Y-125040830D01*
X219698563Y-124711916D01*
X219642630Y-124429432D01*
X219532894Y-124163192D01*
X219373534Y-123923338D01*
X219170622Y-123719004D01*
X218931886Y-123557974D01*
X218666419Y-123446382D01*
X218384332Y-123388478D01*
X218096371Y-123386468D01*
X217813504Y-123440427D01*
X217546504Y-123548302D01*
X217535199Y-123555700D01*
X216222517Y-123555700D01*
X216217713Y-123548410D01*
X216010004Y-123371381D01*
X215761199Y-123259228D01*
X215491000Y-123220830D01*
X210883500Y-123220830D01*
X210883500Y-122279300D01*
X210882259Y-122266647D01*
X210883192Y-122253961D01*
X210872364Y-122165725D01*
X210863690Y-122077257D01*
X210860014Y-122065080D01*
X210858465Y-122052461D01*
X210830707Y-121968015D01*
X210805013Y-121882911D01*
X210799044Y-121871685D01*
X210795072Y-121859601D01*
X210751440Y-121782154D01*
X210709705Y-121703662D01*
X210701665Y-121693804D01*
X210695425Y-121682728D01*
X210637585Y-121615235D01*
X210587456Y-121553770D01*
X214037600Y-121553770D01*
X214191305Y-121541513D01*
X214452004Y-121460779D01*
X214679890Y-121310613D01*
X214856919Y-121102904D01*
X214969072Y-120854099D01*
X215007470Y-120583900D01*
X215007470Y-119313900D01*
X214995213Y-119160195D01*
X214914479Y-118899496D01*
X214764313Y-118671610D01*
X214699417Y-118616300D01*
X214831519Y-118461304D01*
X214943672Y-118212499D01*
X214982070Y-117942300D01*
X214982070Y-116672300D01*
X214969813Y-116518595D01*
X214889079Y-116257896D01*
X214738913Y-116030010D01*
X214592289Y-115905043D01*
X214708319Y-115768904D01*
X214820472Y-115520099D01*
X214858870Y-115249900D01*
X214858870Y-113979900D01*
X214846613Y-113826195D01*
X214765879Y-113565496D01*
X214615713Y-113337610D01*
X214529219Y-113263892D01*
X235668596Y-113263892D01*
X235741431Y-113660740D01*
X235889961Y-114035884D01*
X236108527Y-114375033D01*
X236388806Y-114665270D01*
X236720121Y-114895540D01*
X237089852Y-115057071D01*
X237483917Y-115143712D01*
X237887305Y-115152162D01*
X238284653Y-115082099D01*
X238660824Y-114936192D01*
X239001491Y-114719998D01*
X239293678Y-114441752D01*
X239526255Y-114112053D01*
X239690364Y-113743459D01*
X239779753Y-113350008D01*
X239786188Y-112889162D01*
X239707819Y-112493369D01*
X239554066Y-112120336D01*
X239330785Y-111784271D01*
X239046482Y-111497976D01*
X238711984Y-111272354D01*
X238340034Y-111116001D01*
X237944797Y-111034870D01*
X237541330Y-111032053D01*
X237145000Y-111107657D01*
X236770903Y-111258803D01*
X236433287Y-111479732D01*
X236145014Y-111762030D01*
X235917063Y-112094944D01*
X235758117Y-112465794D01*
X235674229Y-112860454D01*
X235668596Y-113263892D01*
X214529219Y-113263892D01*
X214508931Y-113246601D01*
X214567490Y-113208013D01*
X214744519Y-113000304D01*
X214856672Y-112751499D01*
X214895070Y-112481300D01*
X214895070Y-111211300D01*
X214882813Y-111057595D01*
X214802079Y-110796896D01*
X214651913Y-110569010D01*
X214612019Y-110535008D01*
X214757090Y-110439413D01*
X214934119Y-110231704D01*
X215046272Y-109982899D01*
X215084670Y-109712700D01*
X215084670Y-108442700D01*
X215072413Y-108288995D01*
X214991679Y-108028296D01*
X214841513Y-107800410D01*
X214664305Y-107649377D01*
X214758119Y-107539304D01*
X214870272Y-107290499D01*
X214908670Y-107020300D01*
X214908670Y-105750300D01*
X214896413Y-105596595D01*
X214815679Y-105335896D01*
X214767573Y-105262892D01*
X227692996Y-105262892D01*
X227765831Y-105659740D01*
X227914361Y-106034884D01*
X228132927Y-106374033D01*
X228413206Y-106664270D01*
X228744521Y-106894540D01*
X229114252Y-107056071D01*
X229508317Y-107142712D01*
X229911705Y-107151162D01*
X230309053Y-107081099D01*
X230685224Y-106935192D01*
X231025891Y-106718998D01*
X231318078Y-106440752D01*
X231550655Y-106111053D01*
X231714764Y-105742459D01*
X231804153Y-105349008D01*
X231805355Y-105262892D01*
X243694996Y-105262892D01*
X243767831Y-105659740D01*
X243916361Y-106034884D01*
X244134927Y-106374033D01*
X244415206Y-106664270D01*
X244746521Y-106894540D01*
X245116252Y-107056071D01*
X245510317Y-107142712D01*
X245913705Y-107151162D01*
X246311053Y-107081099D01*
X246687224Y-106935192D01*
X247027891Y-106718998D01*
X247320078Y-106440752D01*
X247552655Y-106111053D01*
X247716764Y-105742459D01*
X247806153Y-105349008D01*
X247812588Y-104888162D01*
X247734219Y-104492369D01*
X247580466Y-104119336D01*
X247357185Y-103783271D01*
X247072882Y-103496976D01*
X246738384Y-103271354D01*
X246366434Y-103115001D01*
X245971197Y-103033870D01*
X245567730Y-103031053D01*
X245171400Y-103106657D01*
X244797303Y-103257803D01*
X244459687Y-103478732D01*
X244171414Y-103761030D01*
X243943463Y-104093944D01*
X243784517Y-104464794D01*
X243700629Y-104859454D01*
X243694996Y-105262892D01*
X231805355Y-105262892D01*
X231810588Y-104888162D01*
X231732219Y-104492369D01*
X231578466Y-104119336D01*
X231355185Y-103783271D01*
X231070882Y-103496976D01*
X230736384Y-103271354D01*
X230364434Y-103115001D01*
X229969197Y-103033870D01*
X229565730Y-103031053D01*
X229169400Y-103106657D01*
X228795303Y-103257803D01*
X228457687Y-103478732D01*
X228169414Y-103761030D01*
X227941463Y-104093944D01*
X227782517Y-104464794D01*
X227698629Y-104859454D01*
X227692996Y-105262892D01*
X214767573Y-105262892D01*
X214665513Y-105108010D01*
X214588078Y-105042012D01*
X214732719Y-104872304D01*
X214844872Y-104623499D01*
X214883270Y-104353300D01*
X214883270Y-103083300D01*
X214871013Y-102929595D01*
X214790279Y-102668896D01*
X214640113Y-102441010D01*
X214570555Y-102381726D01*
X214720919Y-102205304D01*
X214833072Y-101956499D01*
X214871470Y-101686300D01*
X214871470Y-100416300D01*
X214859213Y-100262595D01*
X214778479Y-100001896D01*
X214628313Y-99774010D01*
X214574047Y-99727760D01*
X214735519Y-99538304D01*
X214847672Y-99289499D01*
X214886070Y-99019300D01*
X214886070Y-97749300D01*
X214873813Y-97595595D01*
X214793079Y-97334896D01*
X214642913Y-97107010D01*
X214513146Y-96996411D01*
X214684719Y-96795104D01*
X214796872Y-96546299D01*
X214835270Y-96276100D01*
X214835270Y-95006100D01*
X214823013Y-94852395D01*
X214742279Y-94591696D01*
X214592113Y-94363810D01*
X214516851Y-94299665D01*
X214684719Y-94102704D01*
X214796872Y-93853899D01*
X214835270Y-93583700D01*
X214835270Y-92313700D01*
X214823013Y-92159995D01*
X214742279Y-91899296D01*
X214592113Y-91671410D01*
X214569217Y-91651896D01*
X214582090Y-91643413D01*
X214759119Y-91435704D01*
X214871272Y-91186899D01*
X214909670Y-90916700D01*
X214909670Y-89646700D01*
X214897413Y-89492995D01*
X214816679Y-89232296D01*
X214666513Y-89004410D01*
X214458804Y-88827381D01*
X214209999Y-88715228D01*
X213939800Y-88676830D01*
X210703425Y-88676830D01*
X210719078Y-88657907D01*
X210766665Y-88607099D01*
X210783635Y-88579862D01*
X210804095Y-88555128D01*
X210837210Y-88493875D01*
X210874020Y-88434796D01*
X210885376Y-88404782D01*
X210900643Y-88376544D01*
X210921230Y-88310028D01*
X210945864Y-88244922D01*
X210951175Y-88213272D01*
X210960665Y-88182609D01*
X210967939Y-88113371D01*
X210979460Y-88044710D01*
X210978522Y-88012626D01*
X210981875Y-87980708D01*
X210981874Y-87966184D01*
X210974790Y-86958970D01*
X215541800Y-86958970D01*
X215695505Y-86946713D01*
X215956204Y-86865979D01*
X216184090Y-86715813D01*
X216361119Y-86508104D01*
X216473272Y-86259299D01*
X216511670Y-85989100D01*
X216511670Y-84719100D01*
X216509645Y-84693700D01*
X235104850Y-84693700D01*
X238112900Y-87701750D01*
X238112900Y-92976872D01*
X238062997Y-93140096D01*
X238018914Y-93574097D01*
X238059967Y-94008396D01*
X238184594Y-94426450D01*
X238333980Y-94709786D01*
X238020030Y-94645342D01*
X237536591Y-94641967D01*
X237061704Y-94732556D01*
X236613456Y-94913660D01*
X236208922Y-95178380D01*
X235863510Y-95516633D01*
X235590376Y-95915534D01*
X235399925Y-96359891D01*
X235299410Y-96832777D01*
X235292660Y-97316181D01*
X235379932Y-97791689D01*
X235557902Y-98241190D01*
X235819791Y-98647563D01*
X236155624Y-98995328D01*
X236552609Y-99271240D01*
X236995625Y-99464789D01*
X237467798Y-99568603D01*
X237951143Y-99578727D01*
X238427249Y-99494777D01*
X238877981Y-99319949D01*
X239286172Y-99060904D01*
X239636274Y-98727506D01*
X239914950Y-98332457D01*
X240111587Y-97890803D01*
X240218695Y-97419366D01*
X240226406Y-96867175D01*
X240132503Y-96392931D01*
X239948274Y-95945959D01*
X239833943Y-95773876D01*
X240230693Y-95816977D01*
X240665268Y-95778957D01*
X241084181Y-95657251D01*
X241471478Y-95456497D01*
X241812404Y-95184338D01*
X241834625Y-95162425D01*
X241928625Y-95068425D01*
X242059701Y-94908851D01*
X242192394Y-94750714D01*
X242198055Y-94740416D01*
X242205517Y-94731332D01*
X242303099Y-94549342D01*
X242402551Y-94368439D01*
X242406105Y-94357237D01*
X242411660Y-94346876D01*
X242472039Y-94149385D01*
X242534456Y-93952624D01*
X242535766Y-93940946D01*
X242539203Y-93929704D01*
X242560069Y-93724273D01*
X242583082Y-93519108D01*
X242583243Y-93496131D01*
X242583286Y-93495703D01*
X242583248Y-93495304D01*
X242583300Y-93487900D01*
X242583300Y-86775900D01*
X242563149Y-86570386D01*
X242545157Y-86364732D01*
X242541878Y-86353446D01*
X242540731Y-86341747D01*
X242481058Y-86144102D01*
X242423452Y-85945819D01*
X242418042Y-85935382D01*
X242414645Y-85924131D01*
X242317719Y-85741839D01*
X242222697Y-85558523D01*
X242215364Y-85549338D01*
X242209846Y-85538959D01*
X242079343Y-85378946D01*
X241950539Y-85217597D01*
X241934408Y-85201240D01*
X241934133Y-85200902D01*
X241933820Y-85200643D01*
X241928625Y-85195375D01*
X237611225Y-80877975D01*
X237451651Y-80746899D01*
X237293514Y-80614206D01*
X237283216Y-80608545D01*
X237274132Y-80601083D01*
X237092142Y-80503501D01*
X236911239Y-80404049D01*
X236900037Y-80400495D01*
X236889676Y-80394940D01*
X236692185Y-80334561D01*
X236495424Y-80272144D01*
X236483746Y-80270834D01*
X236472504Y-80267397D01*
X236267073Y-80246531D01*
X236061908Y-80223518D01*
X236038931Y-80223357D01*
X236038503Y-80223314D01*
X236038104Y-80223352D01*
X236030700Y-80223300D01*
X216460870Y-80223300D01*
X216460870Y-79029500D01*
X216448613Y-78875795D01*
X216409997Y-78751100D01*
X264155900Y-78751100D01*
X264155900Y-131742700D01*
X264155900Y-131742700D01*
G37*
X264155900Y-131742700D02*
X260395594Y-131742700D01*
X260407624Y-131738034D01*
X260693616Y-131556538D01*
X260938908Y-131322949D01*
X261096259Y-131099888D01*
X261289467Y-131099888D01*
X261345815Y-131359081D01*
X261589849Y-131496431D01*
X261855989Y-131583533D01*
X262134008Y-131617040D01*
X262413222Y-131595664D01*
X262682900Y-131520228D01*
X262932680Y-131393629D01*
X262984385Y-131359081D01*
X263040733Y-131099888D01*
X262165100Y-130224255D01*
X261289467Y-131099888D01*
X261096259Y-131099888D01*
X261134158Y-131046164D01*
X261137287Y-131039136D01*
X261254112Y-131064533D01*
X262129745Y-130188900D01*
X262200455Y-130188900D01*
X263076088Y-131064533D01*
X263335281Y-131008185D01*
X263472631Y-130764151D01*
X263559733Y-130498011D01*
X263593240Y-130219992D01*
X263571864Y-129940778D01*
X263496428Y-129671100D01*
X263369829Y-129421320D01*
X263335281Y-129369615D01*
X263076088Y-129313267D01*
X262200455Y-130188900D01*
X262129745Y-130188900D01*
X261254112Y-129313267D01*
X261134379Y-129339297D01*
X261093595Y-129277912D01*
X261289467Y-129277912D01*
X262165100Y-130153545D01*
X263040733Y-129277912D01*
X262984385Y-129018719D01*
X262740351Y-128881369D01*
X262474211Y-128794267D01*
X262196192Y-128760760D01*
X261916978Y-128782136D01*
X261647300Y-128857572D01*
X261397520Y-128984171D01*
X261345815Y-129018719D01*
X261289467Y-129277912D01*
X261093595Y-129277912D01*
X260970060Y-129091977D01*
X260731386Y-128851630D01*
X260450573Y-128662220D01*
X260138318Y-128530960D01*
X259806515Y-128462851D01*
X259467802Y-128460486D01*
X259135080Y-128523956D01*
X258821023Y-128650843D01*
X258537593Y-128836315D01*
X258354362Y-129015748D01*
X258191386Y-128851630D01*
X257910573Y-128662220D01*
X257598318Y-128530960D01*
X257266515Y-128462851D01*
X256927802Y-128460486D01*
X256595080Y-128523956D01*
X256281023Y-128650843D01*
X255997593Y-128836315D01*
X255755586Y-129073305D01*
X255564220Y-129352789D01*
X255430783Y-129664120D01*
X255360359Y-129995439D01*
X255355630Y-130334128D01*
X255416776Y-130667284D01*
X255541467Y-130982220D01*
X255724955Y-131266937D01*
X255960251Y-131510593D01*
X256238392Y-131703906D01*
X256327188Y-131742700D01*
X210883500Y-131742700D01*
X210883500Y-126430570D01*
X215491000Y-126430570D01*
X215644705Y-126418313D01*
X215905404Y-126337579D01*
X216133290Y-126187413D01*
X216211456Y-126095700D01*
X217440909Y-126095700D01*
X217510261Y-126143901D01*
X217774144Y-126259189D01*
X218055394Y-126321026D01*
X218343299Y-126327056D01*
X218626893Y-126277051D01*
X218895372Y-126172915D01*
X219138512Y-126018614D01*
X219347050Y-125820025D01*
X219513044Y-125584714D01*
X219630171Y-125321642D01*
X219693970Y-125040830D01*
X219698563Y-124711916D01*
X219642630Y-124429432D01*
X219532894Y-124163192D01*
X219373534Y-123923338D01*
X219170622Y-123719004D01*
X218931886Y-123557974D01*
X218666419Y-123446382D01*
X218384332Y-123388478D01*
X218096371Y-123386468D01*
X217813504Y-123440427D01*
X217546504Y-123548302D01*
X217535199Y-123555700D01*
X216222517Y-123555700D01*
X216217713Y-123548410D01*
X216010004Y-123371381D01*
X215761199Y-123259228D01*
X215491000Y-123220830D01*
X210883500Y-123220830D01*
X210883500Y-122279300D01*
X210882259Y-122266647D01*
X210883192Y-122253961D01*
X210872364Y-122165725D01*
X210863690Y-122077257D01*
X210860014Y-122065080D01*
X210858465Y-122052461D01*
X210830707Y-121968015D01*
X210805013Y-121882911D01*
X210799044Y-121871685D01*
X210795072Y-121859601D01*
X210751440Y-121782154D01*
X210709705Y-121703662D01*
X210701665Y-121693804D01*
X210695425Y-121682728D01*
X210637585Y-121615235D01*
X210587456Y-121553770D01*
X214037600Y-121553770D01*
X214191305Y-121541513D01*
X214452004Y-121460779D01*
X214679890Y-121310613D01*
X214856919Y-121102904D01*
X214969072Y-120854099D01*
X215007470Y-120583900D01*
X215007470Y-119313900D01*
X214995213Y-119160195D01*
X214914479Y-118899496D01*
X214764313Y-118671610D01*
X214699417Y-118616300D01*
X214831519Y-118461304D01*
X214943672Y-118212499D01*
X214982070Y-117942300D01*
X214982070Y-116672300D01*
X214969813Y-116518595D01*
X214889079Y-116257896D01*
X214738913Y-116030010D01*
X214592289Y-115905043D01*
X214708319Y-115768904D01*
X214820472Y-115520099D01*
X214858870Y-115249900D01*
X214858870Y-113979900D01*
X214846613Y-113826195D01*
X214765879Y-113565496D01*
X214615713Y-113337610D01*
X214529219Y-113263892D01*
X235668596Y-113263892D01*
X235741431Y-113660740D01*
X235889961Y-114035884D01*
X236108527Y-114375033D01*
X236388806Y-114665270D01*
X236720121Y-114895540D01*
X237089852Y-115057071D01*
X237483917Y-115143712D01*
X237887305Y-115152162D01*
X238284653Y-115082099D01*
X238660824Y-114936192D01*
X239001491Y-114719998D01*
X239293678Y-114441752D01*
X239526255Y-114112053D01*
X239690364Y-113743459D01*
X239779753Y-113350008D01*
X239786188Y-112889162D01*
X239707819Y-112493369D01*
X239554066Y-112120336D01*
X239330785Y-111784271D01*
X239046482Y-111497976D01*
X238711984Y-111272354D01*
X238340034Y-111116001D01*
X237944797Y-111034870D01*
X237541330Y-111032053D01*
X237145000Y-111107657D01*
X236770903Y-111258803D01*
X236433287Y-111479732D01*
X236145014Y-111762030D01*
X235917063Y-112094944D01*
X235758117Y-112465794D01*
X235674229Y-112860454D01*
X235668596Y-113263892D01*
X214529219Y-113263892D01*
X214508931Y-113246601D01*
X214567490Y-113208013D01*
X214744519Y-113000304D01*
X214856672Y-112751499D01*
X214895070Y-112481300D01*
X214895070Y-111211300D01*
X214882813Y-111057595D01*
X214802079Y-110796896D01*
X214651913Y-110569010D01*
X214612019Y-110535008D01*
X214757090Y-110439413D01*
X214934119Y-110231704D01*
X215046272Y-109982899D01*
X215084670Y-109712700D01*
X215084670Y-108442700D01*
X215072413Y-108288995D01*
X214991679Y-108028296D01*
X214841513Y-107800410D01*
X214664305Y-107649377D01*
X214758119Y-107539304D01*
X214870272Y-107290499D01*
X214908670Y-107020300D01*
X214908670Y-105750300D01*
X214896413Y-105596595D01*
X214815679Y-105335896D01*
X214767573Y-105262892D01*
X227692996Y-105262892D01*
X227765831Y-105659740D01*
X227914361Y-106034884D01*
X228132927Y-106374033D01*
X228413206Y-106664270D01*
X228744521Y-106894540D01*
X229114252Y-107056071D01*
X229508317Y-107142712D01*
X229911705Y-107151162D01*
X230309053Y-107081099D01*
X230685224Y-106935192D01*
X231025891Y-106718998D01*
X231318078Y-106440752D01*
X231550655Y-106111053D01*
X231714764Y-105742459D01*
X231804153Y-105349008D01*
X231805355Y-105262892D01*
X243694996Y-105262892D01*
X243767831Y-105659740D01*
X243916361Y-106034884D01*
X244134927Y-106374033D01*
X244415206Y-106664270D01*
X244746521Y-106894540D01*
X245116252Y-107056071D01*
X245510317Y-107142712D01*
X245913705Y-107151162D01*
X246311053Y-107081099D01*
X246687224Y-106935192D01*
X247027891Y-106718998D01*
X247320078Y-106440752D01*
X247552655Y-106111053D01*
X247716764Y-105742459D01*
X247806153Y-105349008D01*
X247812588Y-104888162D01*
X247734219Y-104492369D01*
X247580466Y-104119336D01*
X247357185Y-103783271D01*
X247072882Y-103496976D01*
X246738384Y-103271354D01*
X246366434Y-103115001D01*
X245971197Y-103033870D01*
X245567730Y-103031053D01*
X245171400Y-103106657D01*
X244797303Y-103257803D01*
X244459687Y-103478732D01*
X244171414Y-103761030D01*
X243943463Y-104093944D01*
X243784517Y-104464794D01*
X243700629Y-104859454D01*
X243694996Y-105262892D01*
X231805355Y-105262892D01*
X231810588Y-104888162D01*
X231732219Y-104492369D01*
X231578466Y-104119336D01*
X231355185Y-103783271D01*
X231070882Y-103496976D01*
X230736384Y-103271354D01*
X230364434Y-103115001D01*
X229969197Y-103033870D01*
X229565730Y-103031053D01*
X229169400Y-103106657D01*
X228795303Y-103257803D01*
X228457687Y-103478732D01*
X228169414Y-103761030D01*
X227941463Y-104093944D01*
X227782517Y-104464794D01*
X227698629Y-104859454D01*
X227692996Y-105262892D01*
X214767573Y-105262892D01*
X214665513Y-105108010D01*
X214588078Y-105042012D01*
X214732719Y-104872304D01*
X214844872Y-104623499D01*
X214883270Y-104353300D01*
X214883270Y-103083300D01*
X214871013Y-102929595D01*
X214790279Y-102668896D01*
X214640113Y-102441010D01*
X214570555Y-102381726D01*
X214720919Y-102205304D01*
X214833072Y-101956499D01*
X214871470Y-101686300D01*
X214871470Y-100416300D01*
X214859213Y-100262595D01*
X214778479Y-100001896D01*
X214628313Y-99774010D01*
X214574047Y-99727760D01*
X214735519Y-99538304D01*
X214847672Y-99289499D01*
X214886070Y-99019300D01*
X214886070Y-97749300D01*
X214873813Y-97595595D01*
X214793079Y-97334896D01*
X214642913Y-97107010D01*
X214513146Y-96996411D01*
X214684719Y-96795104D01*
X214796872Y-96546299D01*
X214835270Y-96276100D01*
X214835270Y-95006100D01*
X214823013Y-94852395D01*
X214742279Y-94591696D01*
X214592113Y-94363810D01*
X214516851Y-94299665D01*
X214684719Y-94102704D01*
X214796872Y-93853899D01*
X214835270Y-93583700D01*
X214835270Y-92313700D01*
X214823013Y-92159995D01*
X214742279Y-91899296D01*
X214592113Y-91671410D01*
X214569217Y-91651896D01*
X214582090Y-91643413D01*
X214759119Y-91435704D01*
X214871272Y-91186899D01*
X214909670Y-90916700D01*
X214909670Y-89646700D01*
X214897413Y-89492995D01*
X214816679Y-89232296D01*
X214666513Y-89004410D01*
X214458804Y-88827381D01*
X214209999Y-88715228D01*
X213939800Y-88676830D01*
X210703425Y-88676830D01*
X210719078Y-88657907D01*
X210766665Y-88607099D01*
X210783635Y-88579862D01*
X210804095Y-88555128D01*
X210837210Y-88493875D01*
X210874020Y-88434796D01*
X210885376Y-88404782D01*
X210900643Y-88376544D01*
X210921230Y-88310028D01*
X210945864Y-88244922D01*
X210951175Y-88213272D01*
X210960665Y-88182609D01*
X210967939Y-88113371D01*
X210979460Y-88044710D01*
X210978522Y-88012626D01*
X210981875Y-87980708D01*
X210981874Y-87966184D01*
X210974790Y-86958970D01*
X215541800Y-86958970D01*
X215695505Y-86946713D01*
X215956204Y-86865979D01*
X216184090Y-86715813D01*
X216361119Y-86508104D01*
X216473272Y-86259299D01*
X216511670Y-85989100D01*
X216511670Y-84719100D01*
X216509645Y-84693700D01*
X235104850Y-84693700D01*
X238112900Y-87701750D01*
X238112900Y-92976872D01*
X238062997Y-93140096D01*
X238018914Y-93574097D01*
X238059967Y-94008396D01*
X238184594Y-94426450D01*
X238333980Y-94709786D01*
X238020030Y-94645342D01*
X237536591Y-94641967D01*
X237061704Y-94732556D01*
X236613456Y-94913660D01*
X236208922Y-95178380D01*
X235863510Y-95516633D01*
X235590376Y-95915534D01*
X235399925Y-96359891D01*
X235299410Y-96832777D01*
X235292660Y-97316181D01*
X235379932Y-97791689D01*
X235557902Y-98241190D01*
X235819791Y-98647563D01*
X236155624Y-98995328D01*
X236552609Y-99271240D01*
X236995625Y-99464789D01*
X237467798Y-99568603D01*
X237951143Y-99578727D01*
X238427249Y-99494777D01*
X238877981Y-99319949D01*
X239286172Y-99060904D01*
X239636274Y-98727506D01*
X239914950Y-98332457D01*
X240111587Y-97890803D01*
X240218695Y-97419366D01*
X240226406Y-96867175D01*
X240132503Y-96392931D01*
X239948274Y-95945959D01*
X239833943Y-95773876D01*
X240230693Y-95816977D01*
X240665268Y-95778957D01*
X241084181Y-95657251D01*
X241471478Y-95456497D01*
X241812404Y-95184338D01*
X241834625Y-95162425D01*
X241928625Y-95068425D01*
X242059701Y-94908851D01*
X242192394Y-94750714D01*
X242198055Y-94740416D01*
X242205517Y-94731332D01*
X242303099Y-94549342D01*
X242402551Y-94368439D01*
X242406105Y-94357237D01*
X242411660Y-94346876D01*
X242472039Y-94149385D01*
X242534456Y-93952624D01*
X242535766Y-93940946D01*
X242539203Y-93929704D01*
X242560069Y-93724273D01*
X242583082Y-93519108D01*
X242583243Y-93496131D01*
X242583286Y-93495703D01*
X242583248Y-93495304D01*
X242583300Y-93487900D01*
X242583300Y-86775900D01*
X242563149Y-86570386D01*
X242545157Y-86364732D01*
X242541878Y-86353446D01*
X242540731Y-86341747D01*
X242481058Y-86144102D01*
X242423452Y-85945819D01*
X242418042Y-85935382D01*
X242414645Y-85924131D01*
X242317719Y-85741839D01*
X242222697Y-85558523D01*
X242215364Y-85549338D01*
X242209846Y-85538959D01*
X242079343Y-85378946D01*
X241950539Y-85217597D01*
X241934408Y-85201240D01*
X241934133Y-85200902D01*
X241933820Y-85200643D01*
X241928625Y-85195375D01*
X237611225Y-80877975D01*
X237451651Y-80746899D01*
X237293514Y-80614206D01*
X237283216Y-80608545D01*
X237274132Y-80601083D01*
X237092142Y-80503501D01*
X236911239Y-80404049D01*
X236900037Y-80400495D01*
X236889676Y-80394940D01*
X236692185Y-80334561D01*
X236495424Y-80272144D01*
X236483746Y-80270834D01*
X236472504Y-80267397D01*
X236267073Y-80246531D01*
X236061908Y-80223518D01*
X236038931Y-80223357D01*
X236038503Y-80223314D01*
X236038104Y-80223352D01*
X236030700Y-80223300D01*
X216460870Y-80223300D01*
X216460870Y-79029500D01*
X216448613Y-78875795D01*
X216409997Y-78751100D01*
X264155900Y-78751100D01*
X264155900Y-131742700D01*
G36*
X176174534Y-83201226D02*
X176149323Y-83425982D01*
X176149100Y-83457900D01*
X176149100Y-93406900D01*
X176192637Y-93850920D01*
X176321588Y-94278027D01*
X176531042Y-94671953D01*
X176813021Y-95017694D01*
X177156785Y-95302080D01*
X177549239Y-95514279D01*
X177798641Y-95591482D01*
X177634911Y-95751818D01*
X177401331Y-96092953D01*
X177238460Y-96472959D01*
X177152501Y-96877364D01*
X177146729Y-97290763D01*
X177221362Y-97697410D01*
X177373559Y-98081817D01*
X177597523Y-98429340D01*
X177884722Y-98726744D01*
X178224218Y-98962699D01*
X178603078Y-99128219D01*
X179006873Y-99216999D01*
X179420222Y-99225658D01*
X179827380Y-99153865D01*
X180212839Y-99004355D01*
X180561918Y-98782823D01*
X180861319Y-98497707D01*
X181099639Y-98159867D01*
X181267800Y-97782171D01*
X181359397Y-97379006D01*
X181365991Y-96906780D01*
X181285687Y-96501215D01*
X181128137Y-96118971D01*
X180899343Y-95774608D01*
X180608020Y-95481244D01*
X180265263Y-95250052D01*
X179942340Y-95114307D01*
X180034530Y-95040185D01*
X180321309Y-94698415D01*
X180536243Y-94307451D01*
X180671145Y-93882186D01*
X180720877Y-93438818D01*
X180721100Y-93406900D01*
X180721100Y-84703900D01*
X200934045Y-84703900D01*
X200931885Y-84719100D01*
X200931885Y-85989100D01*
X200944787Y-86150894D01*
X201029770Y-86425314D01*
X201187840Y-86665194D01*
X201406481Y-86851540D01*
X201668380Y-86969596D01*
X201952800Y-87010015D01*
X204223689Y-87010015D01*
X204219464Y-87046708D01*
X204206743Y-87116826D01*
X204207310Y-87152241D01*
X204203256Y-87187440D01*
X204203105Y-87202673D01*
X204198895Y-88625785D01*
X199971600Y-88625785D01*
X199809806Y-88638687D01*
X199535386Y-88723670D01*
X199295506Y-88881740D01*
X199109160Y-89100381D01*
X198991104Y-89362280D01*
X198950685Y-89646700D01*
X198950685Y-90916700D01*
X198963587Y-91078494D01*
X199048570Y-91352914D01*
X199187988Y-91564488D01*
X199058360Y-91716581D01*
X198940304Y-91978480D01*
X198899885Y-92262900D01*
X198899885Y-93532900D01*
X198912787Y-93694694D01*
X198997770Y-93969114D01*
X199155840Y-94208994D01*
X199265149Y-94302158D01*
X199109160Y-94485181D01*
X198991104Y-94747080D01*
X198950685Y-95031500D01*
X198950685Y-96301500D01*
X198963587Y-96463294D01*
X199048570Y-96737714D01*
X199206640Y-96977594D01*
X199233434Y-97000430D01*
X199219306Y-97009740D01*
X199032960Y-97228381D01*
X198914904Y-97490280D01*
X198874485Y-97774700D01*
X198874485Y-99044700D01*
X198887387Y-99206494D01*
X198972370Y-99480914D01*
X199126135Y-99714260D01*
X199058360Y-99793781D01*
X198940304Y-100055680D01*
X198899885Y-100340100D01*
X198899885Y-101610100D01*
X198912787Y-101771894D01*
X198997770Y-102046314D01*
X199155840Y-102286194D01*
X199238399Y-102356558D01*
X199219306Y-102369140D01*
X199032960Y-102587781D01*
X198914904Y-102849680D01*
X198874485Y-103134100D01*
X198874485Y-104404100D01*
X198887387Y-104565894D01*
X198972370Y-104840314D01*
X199089637Y-105018273D01*
X198931360Y-105203981D01*
X198813304Y-105465880D01*
X198772885Y-105750300D01*
X198772885Y-107020300D01*
X198785787Y-107182094D01*
X198870770Y-107456514D01*
X199028840Y-107696394D01*
X199104877Y-107761200D01*
X199032960Y-107845581D01*
X198914904Y-108107480D01*
X198874485Y-108391900D01*
X198874485Y-109661900D01*
X198887387Y-109823694D01*
X198972370Y-110098114D01*
X199130440Y-110337994D01*
X199279541Y-110465072D01*
X199109160Y-110664981D01*
X198991104Y-110926880D01*
X198950685Y-111211300D01*
X198950685Y-112481300D01*
X198963587Y-112643094D01*
X199048570Y-112917514D01*
X199206640Y-113157394D01*
X199286524Y-113225479D01*
X199109160Y-113433581D01*
X198991104Y-113695480D01*
X198950685Y-113979900D01*
X198950685Y-115249900D01*
X198963587Y-115411694D01*
X199048570Y-115686114D01*
X199206640Y-115925994D01*
X199265791Y-115976408D01*
X199159960Y-116100581D01*
X199041904Y-116362480D01*
X199001485Y-116646900D01*
X199001485Y-117916900D01*
X199014387Y-118078694D01*
X199099370Y-118353114D01*
X199205562Y-118514266D01*
X199032960Y-118716781D01*
X198914904Y-118978680D01*
X198874485Y-119263100D01*
X198874485Y-120533100D01*
X198883664Y-120648203D01*
X198829670Y-120691615D01*
X198542891Y-121033385D01*
X198327957Y-121424349D01*
X198193055Y-121849614D01*
X198143323Y-122292982D01*
X198143100Y-122324900D01*
X198143100Y-124468900D01*
X198163704Y-124679034D01*
X198182110Y-124889412D01*
X198185464Y-124900956D01*
X198186637Y-124912920D01*
X198247675Y-125115087D01*
X198306582Y-125317847D01*
X198312113Y-125328518D01*
X198315588Y-125340027D01*
X198414725Y-125526478D01*
X198511899Y-125713945D01*
X198519399Y-125723340D01*
X198525042Y-125733953D01*
X198658507Y-125897598D01*
X198790242Y-126062619D01*
X198806737Y-126079346D01*
X198807021Y-126079694D01*
X198807343Y-126079961D01*
X198812654Y-126085346D01*
X199220254Y-126492946D01*
X199383415Y-126626968D01*
X199545185Y-126762709D01*
X199555720Y-126768500D01*
X199565008Y-126776130D01*
X199751097Y-126875910D01*
X199936149Y-126977643D01*
X199947608Y-126981278D01*
X199958201Y-126986958D01*
X200160157Y-127048702D01*
X200361414Y-127112545D01*
X200373357Y-127113885D01*
X200384855Y-127117400D01*
X200594966Y-127138742D01*
X200804782Y-127162277D01*
X200828279Y-127162441D01*
X200828720Y-127162486D01*
X200829131Y-127162447D01*
X200836700Y-127162500D01*
X205165900Y-127162500D01*
X205609920Y-127118963D01*
X205647701Y-127107556D01*
X205696327Y-131734900D01*
X152376222Y-131734900D01*
X152328657Y-127446815D01*
X155928000Y-127446815D01*
X156089794Y-127433913D01*
X156364214Y-127348930D01*
X156604094Y-127190860D01*
X156671561Y-127111700D01*
X164712131Y-127111700D01*
X164824370Y-127160736D01*
X165115350Y-127224712D01*
X165413216Y-127230952D01*
X165706620Y-127179217D01*
X165984388Y-127071478D01*
X166235939Y-126911839D01*
X166451692Y-126706380D01*
X166623428Y-126462927D01*
X166744608Y-126190754D01*
X166810614Y-125900228D01*
X166815365Y-125559935D01*
X166757497Y-125267678D01*
X166643965Y-124992228D01*
X166479092Y-124744075D01*
X166269160Y-124532672D01*
X166022165Y-124366072D01*
X165747513Y-124250619D01*
X165455668Y-124190712D01*
X165157745Y-124188632D01*
X164865091Y-124244458D01*
X164588855Y-124356065D01*
X164414591Y-124470100D01*
X156681572Y-124470100D01*
X156474319Y-124293460D01*
X156212420Y-124175404D01*
X155928000Y-124134985D01*
X153327812Y-124134985D01*
X153339796Y-124131458D01*
X153415263Y-124092004D01*
X153492214Y-124055545D01*
X153509462Y-124042758D01*
X153528491Y-124032810D01*
X153594856Y-123979451D01*
X153663263Y-123928738D01*
X153677699Y-123912845D01*
X153694433Y-123899390D01*
X153749176Y-123834150D01*
X153806423Y-123771122D01*
X153817496Y-123752729D01*
X153831299Y-123736279D01*
X153872327Y-123661650D01*
X153916242Y-123588703D01*
X153923532Y-123568509D01*
X153933877Y-123549691D01*
X153959627Y-123468517D01*
X153988538Y-123388426D01*
X153991767Y-123367199D01*
X153998259Y-123346732D01*
X154007753Y-123262089D01*
X154020555Y-123177921D01*
X154019600Y-123156479D01*
X154021994Y-123135133D01*
X154022100Y-123119900D01*
X154022100Y-122087415D01*
X158595000Y-122087415D01*
X158756794Y-122074513D01*
X159031214Y-121989530D01*
X159271094Y-121831460D01*
X159457440Y-121612819D01*
X159575496Y-121350920D01*
X159615915Y-121066500D01*
X159615915Y-119796500D01*
X159603013Y-119634706D01*
X159518030Y-119360286D01*
X159359960Y-119120406D01*
X159141319Y-118934060D01*
X158995756Y-118868445D01*
X159005814Y-118865330D01*
X159245694Y-118707260D01*
X159432040Y-118488619D01*
X159550096Y-118226720D01*
X159590515Y-117942300D01*
X159590515Y-116672300D01*
X159577613Y-116510506D01*
X159492630Y-116236086D01*
X159334560Y-115996206D01*
X159227424Y-115904895D01*
X159406640Y-115694619D01*
X159524696Y-115432720D01*
X159565115Y-115148300D01*
X159565115Y-113878300D01*
X159552213Y-113716506D01*
X159467230Y-113442086D01*
X159352623Y-113268163D01*
X177197729Y-113268163D01*
X177272362Y-113674810D01*
X177424559Y-114059217D01*
X177648523Y-114406740D01*
X177935722Y-114704144D01*
X178275218Y-114940099D01*
X178654078Y-115105619D01*
X179057873Y-115194399D01*
X179471222Y-115203058D01*
X179878380Y-115131265D01*
X180263839Y-114981755D01*
X180612918Y-114760223D01*
X180912319Y-114475107D01*
X181150639Y-114137267D01*
X181318800Y-113759571D01*
X181410397Y-113356406D01*
X181416991Y-112884180D01*
X181336687Y-112478615D01*
X181179137Y-112096371D01*
X180950343Y-111752008D01*
X180659020Y-111458644D01*
X180316263Y-111227452D01*
X179935128Y-111067237D01*
X179530133Y-110984104D01*
X179116704Y-110981217D01*
X178710588Y-111058688D01*
X178327253Y-111213565D01*
X177981302Y-111439950D01*
X177685911Y-111729218D01*
X177452331Y-112070353D01*
X177289460Y-112450359D01*
X177203501Y-112854764D01*
X177197729Y-113268163D01*
X159352623Y-113268163D01*
X159309160Y-113202206D01*
X159153539Y-113069572D01*
X159254240Y-112951419D01*
X159372296Y-112689520D01*
X159412715Y-112405100D01*
X159412715Y-111135100D01*
X159399813Y-110973306D01*
X159314830Y-110698886D01*
X159207636Y-110536213D01*
X159296494Y-110477660D01*
X159482840Y-110259019D01*
X159600896Y-109997120D01*
X159641315Y-109712700D01*
X159641315Y-108442700D01*
X159628413Y-108280906D01*
X159543430Y-108006486D01*
X159385360Y-107766606D01*
X159290763Y-107685982D01*
X159457440Y-107490419D01*
X159575496Y-107228520D01*
X159615915Y-106944100D01*
X159615915Y-105674100D01*
X159603013Y-105512306D01*
X159527097Y-105267163D01*
X169196729Y-105267163D01*
X169271362Y-105673810D01*
X169423559Y-106058217D01*
X169647523Y-106405740D01*
X169934722Y-106703144D01*
X170274218Y-106939099D01*
X170653078Y-107104619D01*
X171056873Y-107193399D01*
X171470222Y-107202058D01*
X171877380Y-107130265D01*
X172262839Y-106980755D01*
X172611918Y-106759223D01*
X172911319Y-106474107D01*
X173149639Y-106136267D01*
X173317800Y-105758571D01*
X173409397Y-105355406D01*
X173410629Y-105267163D01*
X185198729Y-105267163D01*
X185273362Y-105673810D01*
X185425559Y-106058217D01*
X185649523Y-106405740D01*
X185936722Y-106703144D01*
X186276218Y-106939099D01*
X186655078Y-107104619D01*
X187058873Y-107193399D01*
X187472222Y-107202058D01*
X187879380Y-107130265D01*
X188264839Y-106980755D01*
X188613918Y-106759223D01*
X188913319Y-106474107D01*
X189151639Y-106136267D01*
X189319800Y-105758571D01*
X189411397Y-105355406D01*
X189417991Y-104883180D01*
X189337687Y-104477615D01*
X189180137Y-104095371D01*
X188951343Y-103751008D01*
X188660020Y-103457644D01*
X188317263Y-103226452D01*
X187936128Y-103066237D01*
X187531133Y-102983104D01*
X187117704Y-102980217D01*
X186711588Y-103057688D01*
X186328253Y-103212565D01*
X185982302Y-103438950D01*
X185686911Y-103728218D01*
X185453331Y-104069353D01*
X185290460Y-104449359D01*
X185204501Y-104853764D01*
X185198729Y-105267163D01*
X173410629Y-105267163D01*
X173415991Y-104883180D01*
X173335687Y-104477615D01*
X173178137Y-104095371D01*
X172949343Y-103751008D01*
X172658020Y-103457644D01*
X172315263Y-103226452D01*
X171934128Y-103066237D01*
X171529133Y-102983104D01*
X171115704Y-102980217D01*
X170709588Y-103057688D01*
X170326253Y-103212565D01*
X169980302Y-103438950D01*
X169684911Y-103728218D01*
X169451331Y-104069353D01*
X169288460Y-104449359D01*
X169202501Y-104853764D01*
X169196729Y-105267163D01*
X159527097Y-105267163D01*
X159518030Y-105237886D01*
X159359960Y-104998006D01*
X159300809Y-104947592D01*
X159406640Y-104823419D01*
X159524696Y-104561520D01*
X159565115Y-104277100D01*
X159565115Y-103007100D01*
X159552213Y-102845306D01*
X159467230Y-102570886D01*
X159309160Y-102331006D01*
X159296320Y-102320062D01*
X159457440Y-102131019D01*
X159575496Y-101869120D01*
X159615915Y-101584700D01*
X159615915Y-100314700D01*
X159603013Y-100152906D01*
X159518030Y-99878486D01*
X159359960Y-99638606D01*
X159334081Y-99616549D01*
X159355840Y-99591019D01*
X159473896Y-99329120D01*
X159514315Y-99044700D01*
X159514315Y-97774700D01*
X159501413Y-97612906D01*
X159416430Y-97338486D01*
X159269209Y-97115070D01*
X159432040Y-96924019D01*
X159550096Y-96662120D01*
X159590515Y-96377700D01*
X159590515Y-95107700D01*
X159577613Y-94945906D01*
X159492630Y-94671486D01*
X159334560Y-94431606D01*
X159285775Y-94390027D01*
X159355840Y-94307819D01*
X159473896Y-94045920D01*
X159514315Y-93761500D01*
X159514315Y-92491500D01*
X159501413Y-92329706D01*
X159416430Y-92055286D01*
X159258360Y-91815406D01*
X159197951Y-91763920D01*
X159245694Y-91732460D01*
X159432040Y-91513819D01*
X159550096Y-91251920D01*
X159590515Y-90967500D01*
X159590515Y-89697500D01*
X159577613Y-89535706D01*
X159492630Y-89261286D01*
X159334560Y-89021406D01*
X159115919Y-88835060D01*
X158854020Y-88717004D01*
X158569600Y-88676585D01*
X154022100Y-88676585D01*
X154022100Y-86782900D01*
X154020479Y-86766367D01*
X154021597Y-86749800D01*
X154010105Y-86660566D01*
X154001322Y-86570990D01*
X153996521Y-86555089D01*
X153994400Y-86538618D01*
X153965792Y-86453308D01*
X153939780Y-86367152D01*
X153931982Y-86352486D01*
X153926702Y-86336741D01*
X153882067Y-86258610D01*
X153839817Y-86179150D01*
X153829319Y-86166278D01*
X153821081Y-86151858D01*
X153762122Y-86083886D01*
X153705242Y-86014144D01*
X153692444Y-86003557D01*
X153681562Y-85991011D01*
X153610515Y-85935779D01*
X153541179Y-85878420D01*
X153526570Y-85870521D01*
X153513457Y-85860327D01*
X153433041Y-85819950D01*
X153353880Y-85777147D01*
X153338013Y-85772235D01*
X153323171Y-85764783D01*
X153236449Y-85740796D01*
X153150476Y-85714183D01*
X153133955Y-85712447D01*
X153117951Y-85708020D01*
X153028206Y-85701332D01*
X152938717Y-85691927D01*
X152922183Y-85693432D01*
X152905614Y-85692197D01*
X152890387Y-85692660D01*
X152531380Y-85706066D01*
X152522438Y-84901815D01*
X155902600Y-84901815D01*
X156064394Y-84888913D01*
X156338814Y-84803930D01*
X156578694Y-84645860D01*
X156765040Y-84427219D01*
X156883096Y-84165320D01*
X156923515Y-83880900D01*
X156923515Y-82610900D01*
X175584208Y-82610900D01*
X176174534Y-83201226D01*
X176174534Y-83201226D01*
G37*
X176174534Y-83201226D02*
X176149323Y-83425982D01*
X176149100Y-83457900D01*
X176149100Y-93406900D01*
X176192637Y-93850920D01*
X176321588Y-94278027D01*
X176531042Y-94671953D01*
X176813021Y-95017694D01*
X177156785Y-95302080D01*
X177549239Y-95514279D01*
X177798641Y-95591482D01*
X177634911Y-95751818D01*
X177401331Y-96092953D01*
X177238460Y-96472959D01*
X177152501Y-96877364D01*
X177146729Y-97290763D01*
X177221362Y-97697410D01*
X177373559Y-98081817D01*
X177597523Y-98429340D01*
X177884722Y-98726744D01*
X178224218Y-98962699D01*
X178603078Y-99128219D01*
X179006873Y-99216999D01*
X179420222Y-99225658D01*
X179827380Y-99153865D01*
X180212839Y-99004355D01*
X180561918Y-98782823D01*
X180861319Y-98497707D01*
X181099639Y-98159867D01*
X181267800Y-97782171D01*
X181359397Y-97379006D01*
X181365991Y-96906780D01*
X181285687Y-96501215D01*
X181128137Y-96118971D01*
X180899343Y-95774608D01*
X180608020Y-95481244D01*
X180265263Y-95250052D01*
X179942340Y-95114307D01*
X180034530Y-95040185D01*
X180321309Y-94698415D01*
X180536243Y-94307451D01*
X180671145Y-93882186D01*
X180720877Y-93438818D01*
X180721100Y-93406900D01*
X180721100Y-84703900D01*
X200934045Y-84703900D01*
X200931885Y-84719100D01*
X200931885Y-85989100D01*
X200944787Y-86150894D01*
X201029770Y-86425314D01*
X201187840Y-86665194D01*
X201406481Y-86851540D01*
X201668380Y-86969596D01*
X201952800Y-87010015D01*
X204223689Y-87010015D01*
X204219464Y-87046708D01*
X204206743Y-87116826D01*
X204207310Y-87152241D01*
X204203256Y-87187440D01*
X204203105Y-87202673D01*
X204198895Y-88625785D01*
X199971600Y-88625785D01*
X199809806Y-88638687D01*
X199535386Y-88723670D01*
X199295506Y-88881740D01*
X199109160Y-89100381D01*
X198991104Y-89362280D01*
X198950685Y-89646700D01*
X198950685Y-90916700D01*
X198963587Y-91078494D01*
X199048570Y-91352914D01*
X199187988Y-91564488D01*
X199058360Y-91716581D01*
X198940304Y-91978480D01*
X198899885Y-92262900D01*
X198899885Y-93532900D01*
X198912787Y-93694694D01*
X198997770Y-93969114D01*
X199155840Y-94208994D01*
X199265149Y-94302158D01*
X199109160Y-94485181D01*
X198991104Y-94747080D01*
X198950685Y-95031500D01*
X198950685Y-96301500D01*
X198963587Y-96463294D01*
X199048570Y-96737714D01*
X199206640Y-96977594D01*
X199233434Y-97000430D01*
X199219306Y-97009740D01*
X199032960Y-97228381D01*
X198914904Y-97490280D01*
X198874485Y-97774700D01*
X198874485Y-99044700D01*
X198887387Y-99206494D01*
X198972370Y-99480914D01*
X199126135Y-99714260D01*
X199058360Y-99793781D01*
X198940304Y-100055680D01*
X198899885Y-100340100D01*
X198899885Y-101610100D01*
X198912787Y-101771894D01*
X198997770Y-102046314D01*
X199155840Y-102286194D01*
X199238399Y-102356558D01*
X199219306Y-102369140D01*
X199032960Y-102587781D01*
X198914904Y-102849680D01*
X198874485Y-103134100D01*
X198874485Y-104404100D01*
X198887387Y-104565894D01*
X198972370Y-104840314D01*
X199089637Y-105018273D01*
X198931360Y-105203981D01*
X198813304Y-105465880D01*
X198772885Y-105750300D01*
X198772885Y-107020300D01*
X198785787Y-107182094D01*
X198870770Y-107456514D01*
X199028840Y-107696394D01*
X199104877Y-107761200D01*
X199032960Y-107845581D01*
X198914904Y-108107480D01*
X198874485Y-108391900D01*
X198874485Y-109661900D01*
X198887387Y-109823694D01*
X198972370Y-110098114D01*
X199130440Y-110337994D01*
X199279541Y-110465072D01*
X199109160Y-110664981D01*
X198991104Y-110926880D01*
X198950685Y-111211300D01*
X198950685Y-112481300D01*
X198963587Y-112643094D01*
X199048570Y-112917514D01*
X199206640Y-113157394D01*
X199286524Y-113225479D01*
X199109160Y-113433581D01*
X198991104Y-113695480D01*
X198950685Y-113979900D01*
X198950685Y-115249900D01*
X198963587Y-115411694D01*
X199048570Y-115686114D01*
X199206640Y-115925994D01*
X199265791Y-115976408D01*
X199159960Y-116100581D01*
X199041904Y-116362480D01*
X199001485Y-116646900D01*
X199001485Y-117916900D01*
X199014387Y-118078694D01*
X199099370Y-118353114D01*
X199205562Y-118514266D01*
X199032960Y-118716781D01*
X198914904Y-118978680D01*
X198874485Y-119263100D01*
X198874485Y-120533100D01*
X198883664Y-120648203D01*
X198829670Y-120691615D01*
X198542891Y-121033385D01*
X198327957Y-121424349D01*
X198193055Y-121849614D01*
X198143323Y-122292982D01*
X198143100Y-122324900D01*
X198143100Y-124468900D01*
X198163704Y-124679034D01*
X198182110Y-124889412D01*
X198185464Y-124900956D01*
X198186637Y-124912920D01*
X198247675Y-125115087D01*
X198306582Y-125317847D01*
X198312113Y-125328518D01*
X198315588Y-125340027D01*
X198414725Y-125526478D01*
X198511899Y-125713945D01*
X198519399Y-125723340D01*
X198525042Y-125733953D01*
X198658507Y-125897598D01*
X198790242Y-126062619D01*
X198806737Y-126079346D01*
X198807021Y-126079694D01*
X198807343Y-126079961D01*
X198812654Y-126085346D01*
X199220254Y-126492946D01*
X199383415Y-126626968D01*
X199545185Y-126762709D01*
X199555720Y-126768500D01*
X199565008Y-126776130D01*
X199751097Y-126875910D01*
X199936149Y-126977643D01*
X199947608Y-126981278D01*
X199958201Y-126986958D01*
X200160157Y-127048702D01*
X200361414Y-127112545D01*
X200373357Y-127113885D01*
X200384855Y-127117400D01*
X200594966Y-127138742D01*
X200804782Y-127162277D01*
X200828279Y-127162441D01*
X200828720Y-127162486D01*
X200829131Y-127162447D01*
X200836700Y-127162500D01*
X205165900Y-127162500D01*
X205609920Y-127118963D01*
X205647701Y-127107556D01*
X205696327Y-131734900D01*
X152376222Y-131734900D01*
X152328657Y-127446815D01*
X155928000Y-127446815D01*
X156089794Y-127433913D01*
X156364214Y-127348930D01*
X156604094Y-127190860D01*
X156671561Y-127111700D01*
X164712131Y-127111700D01*
X164824370Y-127160736D01*
X165115350Y-127224712D01*
X165413216Y-127230952D01*
X165706620Y-127179217D01*
X165984388Y-127071478D01*
X166235939Y-126911839D01*
X166451692Y-126706380D01*
X166623428Y-126462927D01*
X166744608Y-126190754D01*
X166810614Y-125900228D01*
X166815365Y-125559935D01*
X166757497Y-125267678D01*
X166643965Y-124992228D01*
X166479092Y-124744075D01*
X166269160Y-124532672D01*
X166022165Y-124366072D01*
X165747513Y-124250619D01*
X165455668Y-124190712D01*
X165157745Y-124188632D01*
X164865091Y-124244458D01*
X164588855Y-124356065D01*
X164414591Y-124470100D01*
X156681572Y-124470100D01*
X156474319Y-124293460D01*
X156212420Y-124175404D01*
X155928000Y-124134985D01*
X153327812Y-124134985D01*
X153339796Y-124131458D01*
X153415263Y-124092004D01*
X153492214Y-124055545D01*
X153509462Y-124042758D01*
X153528491Y-124032810D01*
X153594856Y-123979451D01*
X153663263Y-123928738D01*
X153677699Y-123912845D01*
X153694433Y-123899390D01*
X153749176Y-123834150D01*
X153806423Y-123771122D01*
X153817496Y-123752729D01*
X153831299Y-123736279D01*
X153872327Y-123661650D01*
X153916242Y-123588703D01*
X153923532Y-123568509D01*
X153933877Y-123549691D01*
X153959627Y-123468517D01*
X153988538Y-123388426D01*
X153991767Y-123367199D01*
X153998259Y-123346732D01*
X154007753Y-123262089D01*
X154020555Y-123177921D01*
X154019600Y-123156479D01*
X154021994Y-123135133D01*
X154022100Y-123119900D01*
X154022100Y-122087415D01*
X158595000Y-122087415D01*
X158756794Y-122074513D01*
X159031214Y-121989530D01*
X159271094Y-121831460D01*
X159457440Y-121612819D01*
X159575496Y-121350920D01*
X159615915Y-121066500D01*
X159615915Y-119796500D01*
X159603013Y-119634706D01*
X159518030Y-119360286D01*
X159359960Y-119120406D01*
X159141319Y-118934060D01*
X158995756Y-118868445D01*
X159005814Y-118865330D01*
X159245694Y-118707260D01*
X159432040Y-118488619D01*
X159550096Y-118226720D01*
X159590515Y-117942300D01*
X159590515Y-116672300D01*
X159577613Y-116510506D01*
X159492630Y-116236086D01*
X159334560Y-115996206D01*
X159227424Y-115904895D01*
X159406640Y-115694619D01*
X159524696Y-115432720D01*
X159565115Y-115148300D01*
X159565115Y-113878300D01*
X159552213Y-113716506D01*
X159467230Y-113442086D01*
X159352623Y-113268163D01*
X177197729Y-113268163D01*
X177272362Y-113674810D01*
X177424559Y-114059217D01*
X177648523Y-114406740D01*
X177935722Y-114704144D01*
X178275218Y-114940099D01*
X178654078Y-115105619D01*
X179057873Y-115194399D01*
X179471222Y-115203058D01*
X179878380Y-115131265D01*
X180263839Y-114981755D01*
X180612918Y-114760223D01*
X180912319Y-114475107D01*
X181150639Y-114137267D01*
X181318800Y-113759571D01*
X181410397Y-113356406D01*
X181416991Y-112884180D01*
X181336687Y-112478615D01*
X181179137Y-112096371D01*
X180950343Y-111752008D01*
X180659020Y-111458644D01*
X180316263Y-111227452D01*
X179935128Y-111067237D01*
X179530133Y-110984104D01*
X179116704Y-110981217D01*
X178710588Y-111058688D01*
X178327253Y-111213565D01*
X177981302Y-111439950D01*
X177685911Y-111729218D01*
X177452331Y-112070353D01*
X177289460Y-112450359D01*
X177203501Y-112854764D01*
X177197729Y-113268163D01*
X159352623Y-113268163D01*
X159309160Y-113202206D01*
X159153539Y-113069572D01*
X159254240Y-112951419D01*
X159372296Y-112689520D01*
X159412715Y-112405100D01*
X159412715Y-111135100D01*
X159399813Y-110973306D01*
X159314830Y-110698886D01*
X159207636Y-110536213D01*
X159296494Y-110477660D01*
X159482840Y-110259019D01*
X159600896Y-109997120D01*
X159641315Y-109712700D01*
X159641315Y-108442700D01*
X159628413Y-108280906D01*
X159543430Y-108006486D01*
X159385360Y-107766606D01*
X159290763Y-107685982D01*
X159457440Y-107490419D01*
X159575496Y-107228520D01*
X159615915Y-106944100D01*
X159615915Y-105674100D01*
X159603013Y-105512306D01*
X159527097Y-105267163D01*
X169196729Y-105267163D01*
X169271362Y-105673810D01*
X169423559Y-106058217D01*
X169647523Y-106405740D01*
X169934722Y-106703144D01*
X170274218Y-106939099D01*
X170653078Y-107104619D01*
X171056873Y-107193399D01*
X171470222Y-107202058D01*
X171877380Y-107130265D01*
X172262839Y-106980755D01*
X172611918Y-106759223D01*
X172911319Y-106474107D01*
X173149639Y-106136267D01*
X173317800Y-105758571D01*
X173409397Y-105355406D01*
X173410629Y-105267163D01*
X185198729Y-105267163D01*
X185273362Y-105673810D01*
X185425559Y-106058217D01*
X185649523Y-106405740D01*
X185936722Y-106703144D01*
X186276218Y-106939099D01*
X186655078Y-107104619D01*
X187058873Y-107193399D01*
X187472222Y-107202058D01*
X187879380Y-107130265D01*
X188264839Y-106980755D01*
X188613918Y-106759223D01*
X188913319Y-106474107D01*
X189151639Y-106136267D01*
X189319800Y-105758571D01*
X189411397Y-105355406D01*
X189417991Y-104883180D01*
X189337687Y-104477615D01*
X189180137Y-104095371D01*
X188951343Y-103751008D01*
X188660020Y-103457644D01*
X188317263Y-103226452D01*
X187936128Y-103066237D01*
X187531133Y-102983104D01*
X187117704Y-102980217D01*
X186711588Y-103057688D01*
X186328253Y-103212565D01*
X185982302Y-103438950D01*
X185686911Y-103728218D01*
X185453331Y-104069353D01*
X185290460Y-104449359D01*
X185204501Y-104853764D01*
X185198729Y-105267163D01*
X173410629Y-105267163D01*
X173415991Y-104883180D01*
X173335687Y-104477615D01*
X173178137Y-104095371D01*
X172949343Y-103751008D01*
X172658020Y-103457644D01*
X172315263Y-103226452D01*
X171934128Y-103066237D01*
X171529133Y-102983104D01*
X171115704Y-102980217D01*
X170709588Y-103057688D01*
X170326253Y-103212565D01*
X169980302Y-103438950D01*
X169684911Y-103728218D01*
X169451331Y-104069353D01*
X169288460Y-104449359D01*
X169202501Y-104853764D01*
X169196729Y-105267163D01*
X159527097Y-105267163D01*
X159518030Y-105237886D01*
X159359960Y-104998006D01*
X159300809Y-104947592D01*
X159406640Y-104823419D01*
X159524696Y-104561520D01*
X159565115Y-104277100D01*
X159565115Y-103007100D01*
X159552213Y-102845306D01*
X159467230Y-102570886D01*
X159309160Y-102331006D01*
X159296320Y-102320062D01*
X159457440Y-102131019D01*
X159575496Y-101869120D01*
X159615915Y-101584700D01*
X159615915Y-100314700D01*
X159603013Y-100152906D01*
X159518030Y-99878486D01*
X159359960Y-99638606D01*
X159334081Y-99616549D01*
X159355840Y-99591019D01*
X159473896Y-99329120D01*
X159514315Y-99044700D01*
X159514315Y-97774700D01*
X159501413Y-97612906D01*
X159416430Y-97338486D01*
X159269209Y-97115070D01*
X159432040Y-96924019D01*
X159550096Y-96662120D01*
X159590515Y-96377700D01*
X159590515Y-95107700D01*
X159577613Y-94945906D01*
X159492630Y-94671486D01*
X159334560Y-94431606D01*
X159285775Y-94390027D01*
X159355840Y-94307819D01*
X159473896Y-94045920D01*
X159514315Y-93761500D01*
X159514315Y-92491500D01*
X159501413Y-92329706D01*
X159416430Y-92055286D01*
X159258360Y-91815406D01*
X159197951Y-91763920D01*
X159245694Y-91732460D01*
X159432040Y-91513819D01*
X159550096Y-91251920D01*
X159590515Y-90967500D01*
X159590515Y-89697500D01*
X159577613Y-89535706D01*
X159492630Y-89261286D01*
X159334560Y-89021406D01*
X159115919Y-88835060D01*
X158854020Y-88717004D01*
X158569600Y-88676585D01*
X154022100Y-88676585D01*
X154022100Y-86782900D01*
X154020479Y-86766367D01*
X154021597Y-86749800D01*
X154010105Y-86660566D01*
X154001322Y-86570990D01*
X153996521Y-86555089D01*
X153994400Y-86538618D01*
X153965792Y-86453308D01*
X153939780Y-86367152D01*
X153931982Y-86352486D01*
X153926702Y-86336741D01*
X153882067Y-86258610D01*
X153839817Y-86179150D01*
X153829319Y-86166278D01*
X153821081Y-86151858D01*
X153762122Y-86083886D01*
X153705242Y-86014144D01*
X153692444Y-86003557D01*
X153681562Y-85991011D01*
X153610515Y-85935779D01*
X153541179Y-85878420D01*
X153526570Y-85870521D01*
X153513457Y-85860327D01*
X153433041Y-85819950D01*
X153353880Y-85777147D01*
X153338013Y-85772235D01*
X153323171Y-85764783D01*
X153236449Y-85740796D01*
X153150476Y-85714183D01*
X153133955Y-85712447D01*
X153117951Y-85708020D01*
X153028206Y-85701332D01*
X152938717Y-85691927D01*
X152922183Y-85693432D01*
X152905614Y-85692197D01*
X152890387Y-85692660D01*
X152531380Y-85706066D01*
X152522438Y-84901815D01*
X155902600Y-84901815D01*
X156064394Y-84888913D01*
X156338814Y-84803930D01*
X156578694Y-84645860D01*
X156765040Y-84427219D01*
X156883096Y-84165320D01*
X156923515Y-83880900D01*
X156923515Y-82610900D01*
X175584208Y-82610900D01*
X176174534Y-83201226D01*
G36*
X102018560Y-79161581D02*
X101900504Y-79423480D01*
X101860085Y-79707900D01*
X101860085Y-80977900D01*
X101872987Y-81139694D01*
X101957970Y-81414114D01*
X102116040Y-81653994D01*
X102305960Y-81815861D01*
X102289786Y-81820870D01*
X102049906Y-81978940D01*
X101863560Y-82197581D01*
X101745504Y-82459480D01*
X101705085Y-82743900D01*
X101705085Y-84013900D01*
X101717987Y-84175694D01*
X101802970Y-84450114D01*
X101961040Y-84689994D01*
X102179681Y-84876340D01*
X102415976Y-84982854D01*
X102204906Y-85121940D01*
X102018560Y-85340581D01*
X101900504Y-85602480D01*
X101860085Y-85886900D01*
X101860085Y-87156900D01*
X101872987Y-87318694D01*
X101957970Y-87593114D01*
X102116040Y-87832994D01*
X102334681Y-88019340D01*
X102596580Y-88137396D01*
X102601353Y-88138074D01*
X102443786Y-88186870D01*
X102203906Y-88344940D01*
X102017560Y-88563581D01*
X101899504Y-88825480D01*
X101859085Y-89109900D01*
X101859085Y-90379900D01*
X101871987Y-90541694D01*
X101956970Y-90816114D01*
X102115040Y-91055994D01*
X102333681Y-91242340D01*
X102595580Y-91360396D01*
X102880000Y-91400815D01*
X108493400Y-91400815D01*
X108655194Y-91387913D01*
X108929614Y-91302930D01*
X109169494Y-91144860D01*
X109355840Y-90926219D01*
X109473896Y-90664320D01*
X109514315Y-90379900D01*
X109514315Y-89109900D01*
X109501413Y-88948106D01*
X109416430Y-88673686D01*
X109258360Y-88433806D01*
X109039719Y-88247460D01*
X108777820Y-88129404D01*
X108773047Y-88128726D01*
X108930614Y-88079930D01*
X109170494Y-87921860D01*
X109356840Y-87703219D01*
X109474896Y-87441320D01*
X109515315Y-87156900D01*
X109515315Y-85886900D01*
X109502413Y-85725106D01*
X109417430Y-85450686D01*
X109259360Y-85210806D01*
X109040719Y-85024460D01*
X108804424Y-84917946D01*
X109015494Y-84778860D01*
X109201840Y-84560219D01*
X109319896Y-84298320D01*
X109360315Y-84013900D01*
X109360315Y-82743900D01*
X109351145Y-82628900D01*
X134324208Y-82628900D01*
X135126100Y-83430792D01*
X135126100Y-94640008D01*
X134018654Y-95747454D01*
X133884650Y-95910593D01*
X133748891Y-96072385D01*
X133743098Y-96082923D01*
X133735470Y-96092209D01*
X133635701Y-96278276D01*
X133533957Y-96463349D01*
X133530322Y-96474808D01*
X133524642Y-96485401D01*
X133462898Y-96687357D01*
X133399055Y-96888614D01*
X133397715Y-96900557D01*
X133394200Y-96912055D01*
X133372858Y-97122166D01*
X133349323Y-97331982D01*
X133349159Y-97355479D01*
X133349114Y-97355920D01*
X133349153Y-97356331D01*
X133349100Y-97363900D01*
X133349100Y-97457900D01*
X133392637Y-97901920D01*
X133521588Y-98329027D01*
X133731042Y-98722953D01*
X134013021Y-99068694D01*
X134356785Y-99353080D01*
X134749239Y-99565279D01*
X135175436Y-99697209D01*
X135619141Y-99743844D01*
X136063454Y-99703409D01*
X136491451Y-99577442D01*
X136886830Y-99370743D01*
X137234530Y-99091185D01*
X137521309Y-98749415D01*
X137568723Y-98663169D01*
X139028546Y-97203346D01*
X139162572Y-97040180D01*
X139298309Y-96878415D01*
X139304100Y-96867881D01*
X139311731Y-96858591D01*
X139411539Y-96672450D01*
X139513243Y-96487451D01*
X139516876Y-96475997D01*
X139522559Y-96465399D01*
X139584313Y-96263410D01*
X139648145Y-96062186D01*
X139649485Y-96050242D01*
X139653000Y-96038744D01*
X139674346Y-95828599D01*
X139697877Y-95618818D01*
X139698041Y-95595331D01*
X139698087Y-95594879D01*
X139698047Y-95594458D01*
X139698100Y-95586900D01*
X139698100Y-84675195D01*
X139794481Y-84757340D01*
X140056380Y-84875396D01*
X140340800Y-84915815D01*
X144939067Y-84915815D01*
X144928508Y-87634463D01*
X144938278Y-87738253D01*
X144947597Y-87841936D01*
X144948246Y-87844152D01*
X144948463Y-87846452D01*
X144978174Y-87946258D01*
X145007486Y-88046266D01*
X145008555Y-88048316D01*
X145009213Y-88050527D01*
X145057712Y-88142600D01*
X145105923Y-88235071D01*
X145107370Y-88236874D01*
X145108445Y-88238916D01*
X145173964Y-88319890D01*
X145239158Y-88401162D01*
X145240925Y-88402648D01*
X145242378Y-88404444D01*
X145322382Y-88471153D01*
X145402116Y-88538210D01*
X145404140Y-88539326D01*
X145405913Y-88540804D01*
X145497316Y-88590685D01*
X145588589Y-88640996D01*
X145590790Y-88641697D01*
X145592817Y-88642803D01*
X145692227Y-88673999D01*
X145791476Y-88705605D01*
X145793769Y-88705865D01*
X145795975Y-88706557D01*
X145899506Y-88717845D01*
X146003048Y-88729576D01*
X146007429Y-88729611D01*
X146007646Y-88729635D01*
X146007876Y-88729615D01*
X146018281Y-88729699D01*
X146901158Y-88730685D01*
X146901468Y-88834185D01*
X141976200Y-88834185D01*
X141814406Y-88847087D01*
X141539986Y-88932070D01*
X141300106Y-89090140D01*
X141113760Y-89308781D01*
X140995704Y-89570680D01*
X140955285Y-89855100D01*
X140955285Y-91125100D01*
X140968187Y-91286894D01*
X141053170Y-91561314D01*
X141211240Y-91801194D01*
X141332757Y-91904762D01*
X141325506Y-91909540D01*
X141139160Y-92128181D01*
X141021104Y-92390080D01*
X140980685Y-92674500D01*
X140980685Y-93944500D01*
X140993587Y-94106294D01*
X141078570Y-94380714D01*
X141219624Y-94594771D01*
X141113760Y-94718981D01*
X140995704Y-94980880D01*
X140955285Y-95265300D01*
X140955285Y-96535300D01*
X140968187Y-96697094D01*
X141053170Y-96971514D01*
X141211240Y-97211394D01*
X141253506Y-97247417D01*
X141113760Y-97411381D01*
X140995704Y-97673280D01*
X140955285Y-97957700D01*
X140955285Y-99227700D01*
X140968187Y-99389494D01*
X141053170Y-99663914D01*
X141206935Y-99897260D01*
X141139160Y-99976781D01*
X141021104Y-100238680D01*
X140980685Y-100523100D01*
X140980685Y-101793100D01*
X140993587Y-101954894D01*
X141078570Y-102229314D01*
X141216352Y-102438405D01*
X141062960Y-102618381D01*
X140944904Y-102880280D01*
X140904485Y-103164700D01*
X140904485Y-104434700D01*
X140917387Y-104596494D01*
X141002370Y-104870914D01*
X141160440Y-105110794D01*
X141263729Y-105198827D01*
X141189960Y-105285381D01*
X141071904Y-105547280D01*
X141031485Y-105831700D01*
X141031485Y-107101700D01*
X141044387Y-107263494D01*
X141129370Y-107537914D01*
X141287440Y-107777794D01*
X141308891Y-107796076D01*
X141249306Y-107835340D01*
X141062960Y-108053981D01*
X140944904Y-108315880D01*
X140904485Y-108600300D01*
X140904485Y-109870300D01*
X140917387Y-110032094D01*
X141002370Y-110306514D01*
X141160440Y-110546394D01*
X141204879Y-110584269D01*
X141088360Y-110720981D01*
X140970304Y-110982880D01*
X140929885Y-111267300D01*
X140929885Y-112537300D01*
X140942787Y-112699094D01*
X141027770Y-112973514D01*
X141185840Y-113213394D01*
X141279474Y-113293198D01*
X141274706Y-113296340D01*
X141088360Y-113514981D01*
X140970304Y-113776880D01*
X140929885Y-114061300D01*
X140929885Y-115331300D01*
X140942787Y-115493094D01*
X141027770Y-115767514D01*
X141185840Y-116007394D01*
X141268399Y-116077758D01*
X141249306Y-116090340D01*
X141062960Y-116308981D01*
X140944904Y-116570880D01*
X140904485Y-116855300D01*
X140904485Y-118125300D01*
X140917387Y-118287094D01*
X141002370Y-118561514D01*
X141160440Y-118801394D01*
X141379081Y-118987740D01*
X141429924Y-119010658D01*
X141274706Y-119112940D01*
X141088360Y-119331581D01*
X140970304Y-119593480D01*
X140929885Y-119877900D01*
X140929885Y-121147900D01*
X140942787Y-121309694D01*
X141027770Y-121584114D01*
X141185840Y-121823994D01*
X141404481Y-122010340D01*
X141666380Y-122128396D01*
X141950800Y-122168815D01*
X144917586Y-122168815D01*
X144914260Y-122179238D01*
X144909076Y-122189100D01*
X144881931Y-122280562D01*
X144852924Y-122371472D01*
X144851663Y-122382545D01*
X144848493Y-122393226D01*
X144839630Y-122488211D01*
X144828833Y-122583030D01*
X144828702Y-122598263D01*
X144826726Y-123771793D01*
X144382252Y-123527442D01*
X143895597Y-123373066D01*
X143388225Y-123316155D01*
X143351700Y-123315900D01*
X138742666Y-123315900D01*
X138701416Y-123293782D01*
X138213172Y-123144511D01*
X137705232Y-123092916D01*
X137196944Y-123140963D01*
X136707669Y-123286822D01*
X136256042Y-123524938D01*
X135859268Y-123846240D01*
X135532457Y-124238491D01*
X135288059Y-124686747D01*
X135135384Y-125173938D01*
X135080243Y-125681505D01*
X135124741Y-126190117D01*
X135267181Y-126680398D01*
X135502138Y-127133676D01*
X135820662Y-127532684D01*
X135846309Y-127558691D01*
X136069309Y-127781692D01*
X136256043Y-127935077D01*
X136441146Y-128090397D01*
X136453200Y-128097024D01*
X136463831Y-128105756D01*
X136676796Y-128219946D01*
X136888548Y-128336358D01*
X136901661Y-128340518D01*
X136913784Y-128347018D01*
X137144862Y-128417665D01*
X137375203Y-128490734D01*
X137388874Y-128492267D01*
X137402028Y-128496289D01*
X137642419Y-128520707D01*
X137882575Y-128547645D01*
X137909464Y-128547833D01*
X137909969Y-128547884D01*
X137910439Y-128547840D01*
X137919100Y-128547900D01*
X143351700Y-128547900D01*
X143859817Y-128498079D01*
X144348580Y-128350512D01*
X144799372Y-128110822D01*
X144819447Y-128094449D01*
X144813200Y-131804900D01*
X91975100Y-131804900D01*
X91975100Y-113485452D01*
X115669793Y-113485452D01*
X115758863Y-113970759D01*
X115940501Y-114429523D01*
X116207787Y-114844270D01*
X116550540Y-115199201D01*
X116955706Y-115480799D01*
X117407851Y-115678336D01*
X117889754Y-115784290D01*
X118383059Y-115794623D01*
X118868976Y-115708943D01*
X119328997Y-115530512D01*
X119745599Y-115266128D01*
X120102915Y-114925861D01*
X120387334Y-114522671D01*
X120588024Y-114071916D01*
X120697339Y-113590764D01*
X120705208Y-113027193D01*
X120609370Y-112543177D01*
X120421345Y-112086994D01*
X120148295Y-111676020D01*
X119800619Y-111325908D01*
X119391561Y-111049995D01*
X118936701Y-110858790D01*
X118453366Y-110759576D01*
X117959965Y-110756131D01*
X117475292Y-110848587D01*
X117017807Y-111033423D01*
X116604937Y-111303598D01*
X116252406Y-111648821D01*
X115973644Y-112055943D01*
X115779268Y-112509456D01*
X115676682Y-112992087D01*
X115669793Y-113485452D01*
X91975100Y-113485452D01*
X91975100Y-112436086D01*
X92125371Y-112469125D01*
X92545150Y-112477918D01*
X92958643Y-112405008D01*
X93350099Y-112253173D01*
X93704609Y-112028194D01*
X94008668Y-111738642D01*
X94250696Y-111395546D01*
X94421473Y-111011974D01*
X94514495Y-110602537D01*
X94521191Y-110122964D01*
X94439638Y-109711089D01*
X94279637Y-109322898D01*
X94047284Y-108973178D01*
X93751428Y-108675249D01*
X93403338Y-108440460D01*
X93016274Y-108277753D01*
X92604978Y-108193326D01*
X92185117Y-108190395D01*
X91975100Y-108230458D01*
X91975100Y-105484452D01*
X107668793Y-105484452D01*
X107757863Y-105969759D01*
X107939501Y-106428523D01*
X108206787Y-106843270D01*
X108549540Y-107198201D01*
X108954706Y-107479799D01*
X109406851Y-107677336D01*
X109888754Y-107783290D01*
X110382059Y-107793623D01*
X110867976Y-107707943D01*
X111327997Y-107529512D01*
X111744599Y-107265128D01*
X112101915Y-106924861D01*
X112386334Y-106521671D01*
X112587024Y-106070916D01*
X112696339Y-105589764D01*
X112697809Y-105484452D01*
X123670793Y-105484452D01*
X123759863Y-105969759D01*
X123941501Y-106428523D01*
X124208787Y-106843270D01*
X124551540Y-107198201D01*
X124956706Y-107479799D01*
X125408851Y-107677336D01*
X125890754Y-107783290D01*
X126384059Y-107793623D01*
X126869976Y-107707943D01*
X127329997Y-107529512D01*
X127746599Y-107265128D01*
X128103915Y-106924861D01*
X128388334Y-106521671D01*
X128589024Y-106070916D01*
X128698339Y-105589764D01*
X128706208Y-105026193D01*
X128610370Y-104542177D01*
X128422345Y-104085994D01*
X128149295Y-103675020D01*
X127801619Y-103324908D01*
X127392561Y-103048995D01*
X126937701Y-102857790D01*
X126454366Y-102758576D01*
X125960965Y-102755131D01*
X125476292Y-102847587D01*
X125018807Y-103032423D01*
X124605937Y-103302598D01*
X124253406Y-103647821D01*
X123974644Y-104054943D01*
X123780268Y-104508456D01*
X123677682Y-104991087D01*
X123670793Y-105484452D01*
X112697809Y-105484452D01*
X112704208Y-105026193D01*
X112608370Y-104542177D01*
X112420345Y-104085994D01*
X112147295Y-103675020D01*
X111799619Y-103324908D01*
X111390561Y-103048995D01*
X110935701Y-102857790D01*
X110452366Y-102758576D01*
X109958965Y-102755131D01*
X109474292Y-102847587D01*
X109016807Y-103032423D01*
X108603937Y-103302598D01*
X108251406Y-103647821D01*
X107972644Y-104054943D01*
X107778268Y-104508456D01*
X107675682Y-104991087D01*
X107668793Y-105484452D01*
X91975100Y-105484452D01*
X91975100Y-104702086D01*
X92125371Y-104735125D01*
X92545150Y-104743918D01*
X92958643Y-104671008D01*
X93350099Y-104519173D01*
X93704609Y-104294194D01*
X94008668Y-104004642D01*
X94250696Y-103661546D01*
X94421473Y-103277974D01*
X94514495Y-102868537D01*
X94521191Y-102388964D01*
X94439638Y-101977089D01*
X94279637Y-101588898D01*
X94047284Y-101239178D01*
X93751428Y-100941249D01*
X93403338Y-100706460D01*
X93016274Y-100543753D01*
X92604978Y-100459326D01*
X92185117Y-100456395D01*
X91975100Y-100496458D01*
X91975100Y-97458052D01*
X115669793Y-97458052D01*
X115758863Y-97943359D01*
X115940501Y-98402123D01*
X116207787Y-98816870D01*
X116550540Y-99171801D01*
X116955706Y-99453399D01*
X117407851Y-99650936D01*
X117889754Y-99756890D01*
X118383059Y-99767223D01*
X118868976Y-99681543D01*
X119328997Y-99503112D01*
X119745599Y-99238728D01*
X120102915Y-98898461D01*
X120387334Y-98495271D01*
X120588024Y-98044516D01*
X120697339Y-97563364D01*
X120705208Y-96999793D01*
X120609370Y-96515777D01*
X120421345Y-96059594D01*
X120148295Y-95648620D01*
X119800619Y-95298508D01*
X119391561Y-95022595D01*
X118936701Y-94831390D01*
X118453366Y-94732176D01*
X117959965Y-94728731D01*
X117475292Y-94821187D01*
X117017807Y-95006023D01*
X116604937Y-95276198D01*
X116252406Y-95621421D01*
X115973644Y-96028543D01*
X115779268Y-96482056D01*
X115676682Y-96964687D01*
X115669793Y-97458052D01*
X91975100Y-97458052D01*
X91975100Y-91700815D01*
X92361815Y-91700815D01*
X92502039Y-91875219D01*
X92893146Y-92203397D01*
X93340548Y-92449358D01*
X93827203Y-92603734D01*
X94334575Y-92660645D01*
X94371100Y-92660900D01*
X97280651Y-92660900D01*
X97573028Y-92750289D01*
X98080968Y-92801884D01*
X98589256Y-92753837D01*
X99078531Y-92607978D01*
X99530158Y-92369862D01*
X99926932Y-92048560D01*
X100253743Y-91656309D01*
X100498141Y-91208052D01*
X100650816Y-90720862D01*
X100705957Y-90213295D01*
X100661459Y-89704683D01*
X100519019Y-89214402D01*
X100284062Y-88761124D01*
X99965538Y-88362116D01*
X99939891Y-88336109D01*
X99798891Y-88195109D01*
X99612164Y-88041729D01*
X99427054Y-87886403D01*
X99415002Y-87879778D01*
X99404370Y-87871044D01*
X99191383Y-87756842D01*
X98979652Y-87640442D01*
X98966539Y-87636282D01*
X98954416Y-87629782D01*
X98723338Y-87559135D01*
X98492997Y-87486066D01*
X98479326Y-87484533D01*
X98466172Y-87480511D01*
X98225776Y-87456092D01*
X97985625Y-87429155D01*
X97958737Y-87428967D01*
X97958232Y-87428916D01*
X97957762Y-87428960D01*
X97949100Y-87428900D01*
X97878357Y-87428900D01*
X97886315Y-87372900D01*
X97886315Y-86102900D01*
X97873413Y-85941106D01*
X97788430Y-85666686D01*
X97630360Y-85426806D01*
X97411719Y-85240460D01*
X97248809Y-85167025D01*
X97326614Y-85142930D01*
X97566494Y-84984860D01*
X97752840Y-84766219D01*
X97870896Y-84504320D01*
X97911315Y-84219900D01*
X97911315Y-82949900D01*
X97898413Y-82788106D01*
X97813430Y-82513686D01*
X97655360Y-82273806D01*
X97436719Y-82087460D01*
X97360996Y-82053326D01*
X97516494Y-81950860D01*
X97702840Y-81732219D01*
X97820896Y-81470320D01*
X97861315Y-81185900D01*
X97861315Y-79915900D01*
X97848413Y-79754106D01*
X97763430Y-79479686D01*
X97605360Y-79239806D01*
X97386719Y-79053460D01*
X97239060Y-78986900D01*
X102167439Y-78986900D01*
X102018560Y-79161581D01*
X102018560Y-79161581D01*
G37*
X102018560Y-79161581D02*
X101900504Y-79423480D01*
X101860085Y-79707900D01*
X101860085Y-80977900D01*
X101872987Y-81139694D01*
X101957970Y-81414114D01*
X102116040Y-81653994D01*
X102305960Y-81815861D01*
X102289786Y-81820870D01*
X102049906Y-81978940D01*
X101863560Y-82197581D01*
X101745504Y-82459480D01*
X101705085Y-82743900D01*
X101705085Y-84013900D01*
X101717987Y-84175694D01*
X101802970Y-84450114D01*
X101961040Y-84689994D01*
X102179681Y-84876340D01*
X102415976Y-84982854D01*
X102204906Y-85121940D01*
X102018560Y-85340581D01*
X101900504Y-85602480D01*
X101860085Y-85886900D01*
X101860085Y-87156900D01*
X101872987Y-87318694D01*
X101957970Y-87593114D01*
X102116040Y-87832994D01*
X102334681Y-88019340D01*
X102596580Y-88137396D01*
X102601353Y-88138074D01*
X102443786Y-88186870D01*
X102203906Y-88344940D01*
X102017560Y-88563581D01*
X101899504Y-88825480D01*
X101859085Y-89109900D01*
X101859085Y-90379900D01*
X101871987Y-90541694D01*
X101956970Y-90816114D01*
X102115040Y-91055994D01*
X102333681Y-91242340D01*
X102595580Y-91360396D01*
X102880000Y-91400815D01*
X108493400Y-91400815D01*
X108655194Y-91387913D01*
X108929614Y-91302930D01*
X109169494Y-91144860D01*
X109355840Y-90926219D01*
X109473896Y-90664320D01*
X109514315Y-90379900D01*
X109514315Y-89109900D01*
X109501413Y-88948106D01*
X109416430Y-88673686D01*
X109258360Y-88433806D01*
X109039719Y-88247460D01*
X108777820Y-88129404D01*
X108773047Y-88128726D01*
X108930614Y-88079930D01*
X109170494Y-87921860D01*
X109356840Y-87703219D01*
X109474896Y-87441320D01*
X109515315Y-87156900D01*
X109515315Y-85886900D01*
X109502413Y-85725106D01*
X109417430Y-85450686D01*
X109259360Y-85210806D01*
X109040719Y-85024460D01*
X108804424Y-84917946D01*
X109015494Y-84778860D01*
X109201840Y-84560219D01*
X109319896Y-84298320D01*
X109360315Y-84013900D01*
X109360315Y-82743900D01*
X109351145Y-82628900D01*
X134324208Y-82628900D01*
X135126100Y-83430792D01*
X135126100Y-94640008D01*
X134018654Y-95747454D01*
X133884650Y-95910593D01*
X133748891Y-96072385D01*
X133743098Y-96082923D01*
X133735470Y-96092209D01*
X133635701Y-96278276D01*
X133533957Y-96463349D01*
X133530322Y-96474808D01*
X133524642Y-96485401D01*
X133462898Y-96687357D01*
X133399055Y-96888614D01*
X133397715Y-96900557D01*
X133394200Y-96912055D01*
X133372858Y-97122166D01*
X133349323Y-97331982D01*
X133349159Y-97355479D01*
X133349114Y-97355920D01*
X133349153Y-97356331D01*
X133349100Y-97363900D01*
X133349100Y-97457900D01*
X133392637Y-97901920D01*
X133521588Y-98329027D01*
X133731042Y-98722953D01*
X134013021Y-99068694D01*
X134356785Y-99353080D01*
X134749239Y-99565279D01*
X135175436Y-99697209D01*
X135619141Y-99743844D01*
X136063454Y-99703409D01*
X136491451Y-99577442D01*
X136886830Y-99370743D01*
X137234530Y-99091185D01*
X137521309Y-98749415D01*
X137568723Y-98663169D01*
X139028546Y-97203346D01*
X139162572Y-97040180D01*
X139298309Y-96878415D01*
X139304100Y-96867881D01*
X139311731Y-96858591D01*
X139411539Y-96672450D01*
X139513243Y-96487451D01*
X139516876Y-96475997D01*
X139522559Y-96465399D01*
X139584313Y-96263410D01*
X139648145Y-96062186D01*
X139649485Y-96050242D01*
X139653000Y-96038744D01*
X139674346Y-95828599D01*
X139697877Y-95618818D01*
X139698041Y-95595331D01*
X139698087Y-95594879D01*
X139698047Y-95594458D01*
X139698100Y-95586900D01*
X139698100Y-84675195D01*
X139794481Y-84757340D01*
X140056380Y-84875396D01*
X140340800Y-84915815D01*
X144939067Y-84915815D01*
X144928508Y-87634463D01*
X144938278Y-87738253D01*
X144947597Y-87841936D01*
X144948246Y-87844152D01*
X144948463Y-87846452D01*
X144978174Y-87946258D01*
X145007486Y-88046266D01*
X145008555Y-88048316D01*
X145009213Y-88050527D01*
X145057712Y-88142600D01*
X145105923Y-88235071D01*
X145107370Y-88236874D01*
X145108445Y-88238916D01*
X145173964Y-88319890D01*
X145239158Y-88401162D01*
X145240925Y-88402648D01*
X145242378Y-88404444D01*
X145322382Y-88471153D01*
X145402116Y-88538210D01*
X145404140Y-88539326D01*
X145405913Y-88540804D01*
X145497316Y-88590685D01*
X145588589Y-88640996D01*
X145590790Y-88641697D01*
X145592817Y-88642803D01*
X145692227Y-88673999D01*
X145791476Y-88705605D01*
X145793769Y-88705865D01*
X145795975Y-88706557D01*
X145899506Y-88717845D01*
X146003048Y-88729576D01*
X146007429Y-88729611D01*
X146007646Y-88729635D01*
X146007876Y-88729615D01*
X146018281Y-88729699D01*
X146901158Y-88730685D01*
X146901468Y-88834185D01*
X141976200Y-88834185D01*
X141814406Y-88847087D01*
X141539986Y-88932070D01*
X141300106Y-89090140D01*
X141113760Y-89308781D01*
X140995704Y-89570680D01*
X140955285Y-89855100D01*
X140955285Y-91125100D01*
X140968187Y-91286894D01*
X141053170Y-91561314D01*
X141211240Y-91801194D01*
X141332757Y-91904762D01*
X141325506Y-91909540D01*
X141139160Y-92128181D01*
X141021104Y-92390080D01*
X140980685Y-92674500D01*
X140980685Y-93944500D01*
X140993587Y-94106294D01*
X141078570Y-94380714D01*
X141219624Y-94594771D01*
X141113760Y-94718981D01*
X140995704Y-94980880D01*
X140955285Y-95265300D01*
X140955285Y-96535300D01*
X140968187Y-96697094D01*
X141053170Y-96971514D01*
X141211240Y-97211394D01*
X141253506Y-97247417D01*
X141113760Y-97411381D01*
X140995704Y-97673280D01*
X140955285Y-97957700D01*
X140955285Y-99227700D01*
X140968187Y-99389494D01*
X141053170Y-99663914D01*
X141206935Y-99897260D01*
X141139160Y-99976781D01*
X141021104Y-100238680D01*
X140980685Y-100523100D01*
X140980685Y-101793100D01*
X140993587Y-101954894D01*
X141078570Y-102229314D01*
X141216352Y-102438405D01*
X141062960Y-102618381D01*
X140944904Y-102880280D01*
X140904485Y-103164700D01*
X140904485Y-104434700D01*
X140917387Y-104596494D01*
X141002370Y-104870914D01*
X141160440Y-105110794D01*
X141263729Y-105198827D01*
X141189960Y-105285381D01*
X141071904Y-105547280D01*
X141031485Y-105831700D01*
X141031485Y-107101700D01*
X141044387Y-107263494D01*
X141129370Y-107537914D01*
X141287440Y-107777794D01*
X141308891Y-107796076D01*
X141249306Y-107835340D01*
X141062960Y-108053981D01*
X140944904Y-108315880D01*
X140904485Y-108600300D01*
X140904485Y-109870300D01*
X140917387Y-110032094D01*
X141002370Y-110306514D01*
X141160440Y-110546394D01*
X141204879Y-110584269D01*
X141088360Y-110720981D01*
X140970304Y-110982880D01*
X140929885Y-111267300D01*
X140929885Y-112537300D01*
X140942787Y-112699094D01*
X141027770Y-112973514D01*
X141185840Y-113213394D01*
X141279474Y-113293198D01*
X141274706Y-113296340D01*
X141088360Y-113514981D01*
X140970304Y-113776880D01*
X140929885Y-114061300D01*
X140929885Y-115331300D01*
X140942787Y-115493094D01*
X141027770Y-115767514D01*
X141185840Y-116007394D01*
X141268399Y-116077758D01*
X141249306Y-116090340D01*
X141062960Y-116308981D01*
X140944904Y-116570880D01*
X140904485Y-116855300D01*
X140904485Y-118125300D01*
X140917387Y-118287094D01*
X141002370Y-118561514D01*
X141160440Y-118801394D01*
X141379081Y-118987740D01*
X141429924Y-119010658D01*
X141274706Y-119112940D01*
X141088360Y-119331581D01*
X140970304Y-119593480D01*
X140929885Y-119877900D01*
X140929885Y-121147900D01*
X140942787Y-121309694D01*
X141027770Y-121584114D01*
X141185840Y-121823994D01*
X141404481Y-122010340D01*
X141666380Y-122128396D01*
X141950800Y-122168815D01*
X144917586Y-122168815D01*
X144914260Y-122179238D01*
X144909076Y-122189100D01*
X144881931Y-122280562D01*
X144852924Y-122371472D01*
X144851663Y-122382545D01*
X144848493Y-122393226D01*
X144839630Y-122488211D01*
X144828833Y-122583030D01*
X144828702Y-122598263D01*
X144826726Y-123771793D01*
X144382252Y-123527442D01*
X143895597Y-123373066D01*
X143388225Y-123316155D01*
X143351700Y-123315900D01*
X138742666Y-123315900D01*
X138701416Y-123293782D01*
X138213172Y-123144511D01*
X137705232Y-123092916D01*
X137196944Y-123140963D01*
X136707669Y-123286822D01*
X136256042Y-123524938D01*
X135859268Y-123846240D01*
X135532457Y-124238491D01*
X135288059Y-124686747D01*
X135135384Y-125173938D01*
X135080243Y-125681505D01*
X135124741Y-126190117D01*
X135267181Y-126680398D01*
X135502138Y-127133676D01*
X135820662Y-127532684D01*
X135846309Y-127558691D01*
X136069309Y-127781692D01*
X136256043Y-127935077D01*
X136441146Y-128090397D01*
X136453200Y-128097024D01*
X136463831Y-128105756D01*
X136676796Y-128219946D01*
X136888548Y-128336358D01*
X136901661Y-128340518D01*
X136913784Y-128347018D01*
X137144862Y-128417665D01*
X137375203Y-128490734D01*
X137388874Y-128492267D01*
X137402028Y-128496289D01*
X137642419Y-128520707D01*
X137882575Y-128547645D01*
X137909464Y-128547833D01*
X137909969Y-128547884D01*
X137910439Y-128547840D01*
X137919100Y-128547900D01*
X143351700Y-128547900D01*
X143859817Y-128498079D01*
X144348580Y-128350512D01*
X144799372Y-128110822D01*
X144819447Y-128094449D01*
X144813200Y-131804900D01*
X91975100Y-131804900D01*
X91975100Y-113485452D01*
X115669793Y-113485452D01*
X115758863Y-113970759D01*
X115940501Y-114429523D01*
X116207787Y-114844270D01*
X116550540Y-115199201D01*
X116955706Y-115480799D01*
X117407851Y-115678336D01*
X117889754Y-115784290D01*
X118383059Y-115794623D01*
X118868976Y-115708943D01*
X119328997Y-115530512D01*
X119745599Y-115266128D01*
X120102915Y-114925861D01*
X120387334Y-114522671D01*
X120588024Y-114071916D01*
X120697339Y-113590764D01*
X120705208Y-113027193D01*
X120609370Y-112543177D01*
X120421345Y-112086994D01*
X120148295Y-111676020D01*
X119800619Y-111325908D01*
X119391561Y-111049995D01*
X118936701Y-110858790D01*
X118453366Y-110759576D01*
X117959965Y-110756131D01*
X117475292Y-110848587D01*
X117017807Y-111033423D01*
X116604937Y-111303598D01*
X116252406Y-111648821D01*
X115973644Y-112055943D01*
X115779268Y-112509456D01*
X115676682Y-112992087D01*
X115669793Y-113485452D01*
X91975100Y-113485452D01*
X91975100Y-112436086D01*
X92125371Y-112469125D01*
X92545150Y-112477918D01*
X92958643Y-112405008D01*
X93350099Y-112253173D01*
X93704609Y-112028194D01*
X94008668Y-111738642D01*
X94250696Y-111395546D01*
X94421473Y-111011974D01*
X94514495Y-110602537D01*
X94521191Y-110122964D01*
X94439638Y-109711089D01*
X94279637Y-109322898D01*
X94047284Y-108973178D01*
X93751428Y-108675249D01*
X93403338Y-108440460D01*
X93016274Y-108277753D01*
X92604978Y-108193326D01*
X92185117Y-108190395D01*
X91975100Y-108230458D01*
X91975100Y-105484452D01*
X107668793Y-105484452D01*
X107757863Y-105969759D01*
X107939501Y-106428523D01*
X108206787Y-106843270D01*
X108549540Y-107198201D01*
X108954706Y-107479799D01*
X109406851Y-107677336D01*
X109888754Y-107783290D01*
X110382059Y-107793623D01*
X110867976Y-107707943D01*
X111327997Y-107529512D01*
X111744599Y-107265128D01*
X112101915Y-106924861D01*
X112386334Y-106521671D01*
X112587024Y-106070916D01*
X112696339Y-105589764D01*
X112697809Y-105484452D01*
X123670793Y-105484452D01*
X123759863Y-105969759D01*
X123941501Y-106428523D01*
X124208787Y-106843270D01*
X124551540Y-107198201D01*
X124956706Y-107479799D01*
X125408851Y-107677336D01*
X125890754Y-107783290D01*
X126384059Y-107793623D01*
X126869976Y-107707943D01*
X127329997Y-107529512D01*
X127746599Y-107265128D01*
X128103915Y-106924861D01*
X128388334Y-106521671D01*
X128589024Y-106070916D01*
X128698339Y-105589764D01*
X128706208Y-105026193D01*
X128610370Y-104542177D01*
X128422345Y-104085994D01*
X128149295Y-103675020D01*
X127801619Y-103324908D01*
X127392561Y-103048995D01*
X126937701Y-102857790D01*
X126454366Y-102758576D01*
X125960965Y-102755131D01*
X125476292Y-102847587D01*
X125018807Y-103032423D01*
X124605937Y-103302598D01*
X124253406Y-103647821D01*
X123974644Y-104054943D01*
X123780268Y-104508456D01*
X123677682Y-104991087D01*
X123670793Y-105484452D01*
X112697809Y-105484452D01*
X112704208Y-105026193D01*
X112608370Y-104542177D01*
X112420345Y-104085994D01*
X112147295Y-103675020D01*
X111799619Y-103324908D01*
X111390561Y-103048995D01*
X110935701Y-102857790D01*
X110452366Y-102758576D01*
X109958965Y-102755131D01*
X109474292Y-102847587D01*
X109016807Y-103032423D01*
X108603937Y-103302598D01*
X108251406Y-103647821D01*
X107972644Y-104054943D01*
X107778268Y-104508456D01*
X107675682Y-104991087D01*
X107668793Y-105484452D01*
X91975100Y-105484452D01*
X91975100Y-104702086D01*
X92125371Y-104735125D01*
X92545150Y-104743918D01*
X92958643Y-104671008D01*
X93350099Y-104519173D01*
X93704609Y-104294194D01*
X94008668Y-104004642D01*
X94250696Y-103661546D01*
X94421473Y-103277974D01*
X94514495Y-102868537D01*
X94521191Y-102388964D01*
X94439638Y-101977089D01*
X94279637Y-101588898D01*
X94047284Y-101239178D01*
X93751428Y-100941249D01*
X93403338Y-100706460D01*
X93016274Y-100543753D01*
X92604978Y-100459326D01*
X92185117Y-100456395D01*
X91975100Y-100496458D01*
X91975100Y-97458052D01*
X115669793Y-97458052D01*
X115758863Y-97943359D01*
X115940501Y-98402123D01*
X116207787Y-98816870D01*
X116550540Y-99171801D01*
X116955706Y-99453399D01*
X117407851Y-99650936D01*
X117889754Y-99756890D01*
X118383059Y-99767223D01*
X118868976Y-99681543D01*
X119328997Y-99503112D01*
X119745599Y-99238728D01*
X120102915Y-98898461D01*
X120387334Y-98495271D01*
X120588024Y-98044516D01*
X120697339Y-97563364D01*
X120705208Y-96999793D01*
X120609370Y-96515777D01*
X120421345Y-96059594D01*
X120148295Y-95648620D01*
X119800619Y-95298508D01*
X119391561Y-95022595D01*
X118936701Y-94831390D01*
X118453366Y-94732176D01*
X117959965Y-94728731D01*
X117475292Y-94821187D01*
X117017807Y-95006023D01*
X116604937Y-95276198D01*
X116252406Y-95621421D01*
X115973644Y-96028543D01*
X115779268Y-96482056D01*
X115676682Y-96964687D01*
X115669793Y-97458052D01*
X91975100Y-97458052D01*
X91975100Y-91700815D01*
X92361815Y-91700815D01*
X92502039Y-91875219D01*
X92893146Y-92203397D01*
X93340548Y-92449358D01*
X93827203Y-92603734D01*
X94334575Y-92660645D01*
X94371100Y-92660900D01*
X97280651Y-92660900D01*
X97573028Y-92750289D01*
X98080968Y-92801884D01*
X98589256Y-92753837D01*
X99078531Y-92607978D01*
X99530158Y-92369862D01*
X99926932Y-92048560D01*
X100253743Y-91656309D01*
X100498141Y-91208052D01*
X100650816Y-90720862D01*
X100705957Y-90213295D01*
X100661459Y-89704683D01*
X100519019Y-89214402D01*
X100284062Y-88761124D01*
X99965538Y-88362116D01*
X99939891Y-88336109D01*
X99798891Y-88195109D01*
X99612164Y-88041729D01*
X99427054Y-87886403D01*
X99415002Y-87879778D01*
X99404370Y-87871044D01*
X99191383Y-87756842D01*
X98979652Y-87640442D01*
X98966539Y-87636282D01*
X98954416Y-87629782D01*
X98723338Y-87559135D01*
X98492997Y-87486066D01*
X98479326Y-87484533D01*
X98466172Y-87480511D01*
X98225776Y-87456092D01*
X97985625Y-87429155D01*
X97958737Y-87428967D01*
X97958232Y-87428916D01*
X97957762Y-87428960D01*
X97949100Y-87428900D01*
X97878357Y-87428900D01*
X97886315Y-87372900D01*
X97886315Y-86102900D01*
X97873413Y-85941106D01*
X97788430Y-85666686D01*
X97630360Y-85426806D01*
X97411719Y-85240460D01*
X97248809Y-85167025D01*
X97326614Y-85142930D01*
X97566494Y-84984860D01*
X97752840Y-84766219D01*
X97870896Y-84504320D01*
X97911315Y-84219900D01*
X97911315Y-82949900D01*
X97898413Y-82788106D01*
X97813430Y-82513686D01*
X97655360Y-82273806D01*
X97436719Y-82087460D01*
X97360996Y-82053326D01*
X97516494Y-81950860D01*
X97702840Y-81732219D01*
X97820896Y-81470320D01*
X97861315Y-81185900D01*
X97861315Y-79915900D01*
X97848413Y-79754106D01*
X97763430Y-79479686D01*
X97605360Y-79239806D01*
X97386719Y-79053460D01*
X97239060Y-78986900D01*
X102167439Y-78986900D01*
X102018560Y-79161581D01*
G36*
X85723900Y-131288700D02*
X81648108Y-131288700D01*
X81791119Y-131120904D01*
X81903272Y-130872099D01*
X81941670Y-130601900D01*
X81941670Y-129331900D01*
X81929413Y-129178195D01*
X81848679Y-128917496D01*
X81698513Y-128689610D01*
X81490804Y-128512581D01*
X81241999Y-128400428D01*
X80971800Y-128362030D01*
X79992648Y-128362030D01*
X79707314Y-128122606D01*
X79325039Y-127912449D01*
X78909224Y-127780544D01*
X78475708Y-127731918D01*
X78444500Y-127731700D01*
X63219950Y-127731700D01*
X62647300Y-127159050D01*
X62647300Y-125197900D01*
X74406730Y-125197900D01*
X74406730Y-126467900D01*
X74418987Y-126621605D01*
X74499721Y-126882304D01*
X74649887Y-127110190D01*
X74857596Y-127287219D01*
X75106401Y-127399372D01*
X75376600Y-127437770D01*
X80990000Y-127437770D01*
X81143705Y-127425513D01*
X81404404Y-127344779D01*
X81632290Y-127194613D01*
X81809319Y-126986904D01*
X81921472Y-126738099D01*
X81959870Y-126467900D01*
X81959870Y-125197900D01*
X81947613Y-125044195D01*
X81866879Y-124783496D01*
X81716713Y-124555610D01*
X81509004Y-124378581D01*
X81260199Y-124266428D01*
X80990000Y-124228030D01*
X75376600Y-124228030D01*
X75222895Y-124240287D01*
X74962196Y-124321021D01*
X74734310Y-124471187D01*
X74557281Y-124678896D01*
X74445128Y-124927701D01*
X74406730Y-125197900D01*
X62647300Y-125197900D01*
X62647300Y-117401900D01*
X62627149Y-117196386D01*
X62609157Y-116990732D01*
X62605878Y-116979446D01*
X62604731Y-116967747D01*
X62545044Y-116770055D01*
X62487451Y-116571819D01*
X62482043Y-116561386D01*
X62478645Y-116550131D01*
X62381700Y-116367804D01*
X62286697Y-116184523D01*
X62279364Y-116175338D01*
X62273846Y-116164959D01*
X62143318Y-116004916D01*
X62014538Y-115843597D01*
X61998410Y-115827241D01*
X61998133Y-115826902D01*
X61997819Y-115826642D01*
X61992625Y-115821375D01*
X61773625Y-115602375D01*
X61436532Y-115325483D01*
X61052076Y-115119340D01*
X60634904Y-114991797D01*
X60464041Y-114974442D01*
X60859772Y-114723304D01*
X61209874Y-114389906D01*
X61488550Y-113994857D01*
X61685187Y-113553203D01*
X61792295Y-113081766D01*
X61800006Y-112529575D01*
X61706103Y-112055331D01*
X61521874Y-111608359D01*
X61254337Y-111205683D01*
X60913681Y-110862640D01*
X60512882Y-110592298D01*
X60067207Y-110404953D01*
X59593630Y-110307742D01*
X59110191Y-110304367D01*
X58635304Y-110394956D01*
X58187056Y-110576060D01*
X57782522Y-110840780D01*
X57437110Y-111179033D01*
X57163976Y-111577934D01*
X56973525Y-112022291D01*
X56873010Y-112495177D01*
X56866260Y-112978581D01*
X56953532Y-113454089D01*
X57131502Y-113903590D01*
X57393391Y-114309963D01*
X57729224Y-114657728D01*
X58126209Y-114933640D01*
X58569225Y-115127189D01*
X59041398Y-115231003D01*
X59122272Y-115232697D01*
X58962665Y-115316848D01*
X58623648Y-115591379D01*
X58344410Y-115926532D01*
X58135588Y-116309538D01*
X58005136Y-116725810D01*
X57958023Y-117159493D01*
X57996043Y-117594068D01*
X58117749Y-118012981D01*
X58176900Y-118127096D01*
X58176900Y-126885050D01*
X57076250Y-127985700D01*
X43729950Y-127985700D01*
X43040218Y-127295968D01*
X43095390Y-127259613D01*
X43272419Y-127051904D01*
X43384572Y-126803099D01*
X43422970Y-126532900D01*
X43422970Y-125232900D01*
X43410713Y-125079195D01*
X43329979Y-124818496D01*
X43179813Y-124590610D01*
X43038300Y-124469999D01*
X43038300Y-123907900D01*
X43018149Y-123702386D01*
X43000157Y-123496732D01*
X42996878Y-123485446D01*
X42995731Y-123473747D01*
X42936058Y-123276102D01*
X42878452Y-123077819D01*
X42873042Y-123067382D01*
X42869645Y-123056131D01*
X42772719Y-122873839D01*
X42677697Y-122690523D01*
X42670364Y-122681338D01*
X42664846Y-122670959D01*
X42534343Y-122510946D01*
X42405539Y-122349597D01*
X42389408Y-122333240D01*
X42389133Y-122332902D01*
X42388820Y-122332643D01*
X42383625Y-122327375D01*
X41516800Y-121460550D01*
X41516800Y-120384762D01*
X41521470Y-120351900D01*
X41521470Y-117811900D01*
X41509213Y-117658195D01*
X41428479Y-117397496D01*
X41278313Y-117169610D01*
X41070604Y-116992581D01*
X40821799Y-116880428D01*
X40551600Y-116842030D01*
X38011600Y-116842030D01*
X37857895Y-116854287D01*
X37597196Y-116935021D01*
X37369310Y-117085187D01*
X37192281Y-117292896D01*
X37080128Y-117541701D01*
X37041730Y-117811900D01*
X37041730Y-118597539D01*
X37007744Y-118704676D01*
X37006434Y-118716354D01*
X37002997Y-118727596D01*
X36982131Y-118933027D01*
X36959118Y-119138192D01*
X36958957Y-119161169D01*
X36958914Y-119161597D01*
X36958952Y-119161996D01*
X36958900Y-119169400D01*
X36958900Y-122298900D01*
X36979051Y-122504414D01*
X36997043Y-122710068D01*
X37000322Y-122721354D01*
X37001469Y-122733053D01*
X37061156Y-122930745D01*
X37118749Y-123128981D01*
X37124157Y-123139414D01*
X37127555Y-123150669D01*
X37224489Y-123332976D01*
X37319503Y-123516278D01*
X37326837Y-123525465D01*
X37332354Y-123535841D01*
X37386510Y-123602243D01*
X37407003Y-123641778D01*
X37414337Y-123650965D01*
X37419854Y-123661341D01*
X37550345Y-123821338D01*
X37679162Y-123982704D01*
X37695292Y-123999060D01*
X37695567Y-123999398D01*
X37695880Y-123999657D01*
X37701075Y-124004925D01*
X38368873Y-124672723D01*
X38333781Y-124713896D01*
X38221628Y-124962701D01*
X38183230Y-125232900D01*
X38183230Y-126532900D01*
X38195487Y-126686605D01*
X38276221Y-126947304D01*
X38426387Y-127175190D01*
X38544900Y-127276198D01*
X38544900Y-128196900D01*
X38565051Y-128402414D01*
X38583043Y-128608068D01*
X38586322Y-128619354D01*
X38587469Y-128631053D01*
X38647156Y-128828745D01*
X38704749Y-129026981D01*
X38710157Y-129037414D01*
X38713555Y-129048669D01*
X38810489Y-129230976D01*
X38905503Y-129414278D01*
X38912837Y-129423465D01*
X38918354Y-129433841D01*
X39048845Y-129593838D01*
X39177662Y-129755204D01*
X39193792Y-129771560D01*
X39194067Y-129771898D01*
X39194380Y-129772157D01*
X39199575Y-129777425D01*
X40710850Y-131288700D01*
X32818300Y-131288700D01*
X32818300Y-127188555D01*
X32838135Y-127192500D01*
X34363200Y-127192500D01*
X34528100Y-127027600D01*
X34528100Y-125907900D01*
X34578100Y-125907900D01*
X34578100Y-127027600D01*
X34743000Y-127192500D01*
X36268065Y-127192500D01*
X36395498Y-127167152D01*
X36515538Y-127117430D01*
X36623571Y-127045245D01*
X36715445Y-126953370D01*
X36787630Y-126845338D01*
X36837352Y-126725298D01*
X36862700Y-126597865D01*
X36862700Y-126072800D01*
X36697800Y-125907900D01*
X34578100Y-125907900D01*
X34528100Y-125907900D01*
X34508100Y-125907900D01*
X34508100Y-125857900D01*
X34528100Y-125857900D01*
X34528100Y-124738200D01*
X34578100Y-124738200D01*
X34578100Y-125857900D01*
X36697800Y-125857900D01*
X36862700Y-125693000D01*
X36862700Y-125167935D01*
X36837352Y-125040502D01*
X36787630Y-124920462D01*
X36715445Y-124812430D01*
X36623571Y-124720555D01*
X36515538Y-124648370D01*
X36395498Y-124598648D01*
X36268065Y-124573300D01*
X34743000Y-124573300D01*
X34578100Y-124738200D01*
X34528100Y-124738200D01*
X34363200Y-124573300D01*
X32838135Y-124573300D01*
X32818300Y-124577245D01*
X32818300Y-120790415D01*
X32892129Y-120864245D01*
X33000162Y-120936430D01*
X33120202Y-120986152D01*
X33247635Y-121011500D01*
X34392700Y-121011500D01*
X34557600Y-120846600D01*
X34557600Y-119106900D01*
X34607600Y-119106900D01*
X34607600Y-120846600D01*
X34772500Y-121011500D01*
X35917565Y-121011500D01*
X36044998Y-120986152D01*
X36165038Y-120936430D01*
X36273071Y-120864245D01*
X36364945Y-120772370D01*
X36437130Y-120664338D01*
X36486852Y-120544298D01*
X36512200Y-120416865D01*
X36512200Y-119271800D01*
X36347300Y-119106900D01*
X34607600Y-119106900D01*
X34557600Y-119106900D01*
X34537600Y-119106900D01*
X34537600Y-119056900D01*
X34557600Y-119056900D01*
X34557600Y-117317200D01*
X34607600Y-117317200D01*
X34607600Y-119056900D01*
X36347300Y-119056900D01*
X36512200Y-118892000D01*
X36512200Y-117746935D01*
X36486852Y-117619502D01*
X36437130Y-117499462D01*
X36364945Y-117391430D01*
X36273071Y-117299555D01*
X36165038Y-117227370D01*
X36044998Y-117177648D01*
X35917565Y-117152300D01*
X34772500Y-117152300D01*
X34607600Y-117317200D01*
X34557600Y-117317200D01*
X34392700Y-117152300D01*
X33247635Y-117152300D01*
X33120202Y-117177648D01*
X33000162Y-117227370D01*
X32892129Y-117299555D01*
X32818300Y-117373385D01*
X32818300Y-114090759D01*
X32909624Y-114185328D01*
X33306609Y-114461240D01*
X33749625Y-114654789D01*
X34221798Y-114758603D01*
X34705143Y-114768727D01*
X35181249Y-114684777D01*
X35631981Y-114509949D01*
X36040172Y-114250904D01*
X36390274Y-113917506D01*
X36668950Y-113522457D01*
X36865587Y-113080803D01*
X36972695Y-112609366D01*
X36975057Y-112440181D01*
X40250660Y-112440181D01*
X40337932Y-112915689D01*
X40515902Y-113365190D01*
X40777791Y-113771563D01*
X41113624Y-114119328D01*
X41510609Y-114395240D01*
X41953625Y-114588789D01*
X42425798Y-114692603D01*
X42909143Y-114702727D01*
X43385249Y-114618777D01*
X43835981Y-114443949D01*
X44244172Y-114184904D01*
X44594274Y-113851506D01*
X44872950Y-113456457D01*
X45069587Y-113014803D01*
X45176695Y-112543366D01*
X45184406Y-111991175D01*
X45090503Y-111516931D01*
X44906274Y-111069959D01*
X44638737Y-110667283D01*
X44298081Y-110324240D01*
X43897282Y-110053898D01*
X43451607Y-109866553D01*
X42978030Y-109769342D01*
X42494591Y-109765967D01*
X42019704Y-109856556D01*
X41571456Y-110037660D01*
X41166922Y-110302380D01*
X40821510Y-110640633D01*
X40548376Y-111039534D01*
X40357925Y-111483891D01*
X40257410Y-111956777D01*
X40250660Y-112440181D01*
X36975057Y-112440181D01*
X36980406Y-112057175D01*
X36886503Y-111582931D01*
X36702274Y-111135959D01*
X36434737Y-110733283D01*
X36094081Y-110390240D01*
X35693282Y-110119898D01*
X35247607Y-109932553D01*
X34774030Y-109835342D01*
X34290591Y-109831967D01*
X33815704Y-109922556D01*
X33367456Y-110103660D01*
X32962922Y-110368380D01*
X32818300Y-110510005D01*
X32818300Y-104952181D01*
X48865260Y-104952181D01*
X48952532Y-105427689D01*
X49130502Y-105877190D01*
X49392391Y-106283563D01*
X49728224Y-106631328D01*
X50125209Y-106907240D01*
X50568225Y-107100789D01*
X51040398Y-107204603D01*
X51523743Y-107214727D01*
X51999849Y-107130777D01*
X52450581Y-106955949D01*
X52858772Y-106696904D01*
X53208874Y-106363506D01*
X53487550Y-105968457D01*
X53684187Y-105526803D01*
X53791295Y-105055366D01*
X53792735Y-104952181D01*
X64867260Y-104952181D01*
X64954532Y-105427689D01*
X65132502Y-105877190D01*
X65394391Y-106283563D01*
X65730224Y-106631328D01*
X66127209Y-106907240D01*
X66570225Y-107100789D01*
X67042398Y-107204603D01*
X67525743Y-107214727D01*
X68001849Y-107130777D01*
X68452581Y-106955949D01*
X68860772Y-106696904D01*
X69210874Y-106363506D01*
X69489550Y-105968457D01*
X69686187Y-105526803D01*
X69793295Y-105055366D01*
X69801006Y-104503175D01*
X69707103Y-104028931D01*
X69522874Y-103581959D01*
X69255337Y-103179283D01*
X68914681Y-102836240D01*
X68513882Y-102565898D01*
X68068207Y-102378553D01*
X67594630Y-102281342D01*
X67111191Y-102277967D01*
X66636304Y-102368556D01*
X66188056Y-102549660D01*
X65783522Y-102814380D01*
X65438110Y-103152633D01*
X65164976Y-103551534D01*
X64974525Y-103995891D01*
X64874010Y-104468777D01*
X64867260Y-104952181D01*
X53792735Y-104952181D01*
X53799006Y-104503175D01*
X53705103Y-104028931D01*
X53520874Y-103581959D01*
X53253337Y-103179283D01*
X52912681Y-102836240D01*
X52511882Y-102565898D01*
X52066207Y-102378553D01*
X51592630Y-102281342D01*
X51109191Y-102277967D01*
X50634304Y-102368556D01*
X50186056Y-102549660D01*
X49781522Y-102814380D01*
X49436110Y-103152633D01*
X49162976Y-103551534D01*
X48972525Y-103995891D01*
X48872010Y-104468777D01*
X48865260Y-104952181D01*
X32818300Y-104952181D01*
X32818300Y-101113428D01*
X32891287Y-101224190D01*
X33098996Y-101401219D01*
X33347801Y-101513372D01*
X33618000Y-101551770D01*
X39231400Y-101551770D01*
X39385105Y-101539513D01*
X39645804Y-101458779D01*
X39873690Y-101308613D01*
X40050719Y-101100904D01*
X40162872Y-100852099D01*
X40201270Y-100581900D01*
X40201270Y-99311900D01*
X40189013Y-99158195D01*
X40108279Y-98897496D01*
X39958113Y-98669610D01*
X39750404Y-98492581D01*
X39731847Y-98484216D01*
X39901719Y-98284904D01*
X40013872Y-98036099D01*
X40052270Y-97765900D01*
X40052270Y-96951181D01*
X56866260Y-96951181D01*
X56953532Y-97426689D01*
X57131502Y-97876190D01*
X57393391Y-98282563D01*
X57729224Y-98630328D01*
X58126209Y-98906240D01*
X58569225Y-99099789D01*
X59041398Y-99203603D01*
X59524743Y-99213727D01*
X60000849Y-99129777D01*
X60451581Y-98954949D01*
X60859772Y-98695904D01*
X61209874Y-98362506D01*
X61488550Y-97967457D01*
X61685187Y-97525803D01*
X61792295Y-97054366D01*
X61800006Y-96502175D01*
X61706103Y-96027931D01*
X61521874Y-95580959D01*
X61254337Y-95178283D01*
X60913681Y-94835240D01*
X60512882Y-94564898D01*
X60067207Y-94377553D01*
X59593630Y-94280342D01*
X59110191Y-94276967D01*
X58635304Y-94367556D01*
X58187056Y-94548660D01*
X57782522Y-94813380D01*
X57437110Y-95151633D01*
X57163976Y-95550534D01*
X56973525Y-95994891D01*
X56873010Y-96467777D01*
X56866260Y-96951181D01*
X40052270Y-96951181D01*
X40052270Y-96495900D01*
X40040013Y-96342195D01*
X39959279Y-96081496D01*
X39818002Y-95867100D01*
X40807100Y-95867100D01*
X40954208Y-95852676D01*
X41101459Y-95839793D01*
X41109541Y-95837445D01*
X41117914Y-95836624D01*
X41259439Y-95793896D01*
X41401362Y-95752663D01*
X41408829Y-95748792D01*
X41416889Y-95746359D01*
X41547423Y-95676953D01*
X41678632Y-95608941D01*
X41685209Y-95603690D01*
X41692637Y-95599741D01*
X41807176Y-95506325D01*
X41922704Y-95414100D01*
X41934411Y-95402554D01*
X41934656Y-95402355D01*
X41934843Y-95402129D01*
X41938612Y-95398412D01*
X42021612Y-95315412D01*
X42219841Y-95074084D01*
X42367422Y-94798849D01*
X42458730Y-94500191D01*
X42490291Y-94189485D01*
X42460900Y-93878567D01*
X42371678Y-93579279D01*
X42226024Y-93303021D01*
X42029484Y-93060314D01*
X41789546Y-92860405D01*
X41515349Y-92710908D01*
X41217334Y-92617516D01*
X40906857Y-92583788D01*
X40595741Y-92611007D01*
X40404045Y-92666700D01*
X39710277Y-92666700D01*
X39734690Y-92650613D01*
X39911719Y-92442904D01*
X40023872Y-92194099D01*
X40062270Y-91923900D01*
X40062270Y-90653900D01*
X40050013Y-90500195D01*
X39969279Y-90239496D01*
X39819113Y-90011610D01*
X39679498Y-89892617D01*
X39738690Y-89853613D01*
X39915719Y-89645904D01*
X40027872Y-89397099D01*
X40066270Y-89126900D01*
X40066270Y-87856900D01*
X40054013Y-87703195D01*
X39973279Y-87442496D01*
X39823113Y-87214610D01*
X39673562Y-87087148D01*
X39701690Y-87068613D01*
X39878719Y-86860904D01*
X39990872Y-86612099D01*
X40029270Y-86341900D01*
X40029270Y-85099100D01*
X65462250Y-85099100D01*
X68064900Y-87701750D01*
X68064900Y-100606900D01*
X68085051Y-100812414D01*
X68103043Y-101018068D01*
X68106322Y-101029354D01*
X68107469Y-101041053D01*
X68167156Y-101238745D01*
X68224749Y-101436981D01*
X68230157Y-101447414D01*
X68233555Y-101458669D01*
X68330489Y-101640976D01*
X68425503Y-101824278D01*
X68432837Y-101833465D01*
X68438354Y-101843841D01*
X68568845Y-102003838D01*
X68697662Y-102165204D01*
X68713792Y-102181560D01*
X68714067Y-102181898D01*
X68714380Y-102182157D01*
X68719575Y-102187425D01*
X69381575Y-102849425D01*
X69718668Y-103126317D01*
X70103123Y-103332459D01*
X70520296Y-103460002D01*
X70954297Y-103504086D01*
X71388596Y-103463033D01*
X71806650Y-103338406D01*
X72192535Y-103134952D01*
X72531552Y-102860421D01*
X72810790Y-102525268D01*
X73019612Y-102142261D01*
X73150064Y-101725990D01*
X73197177Y-101292306D01*
X73159157Y-100857731D01*
X73037451Y-100438819D01*
X72836696Y-100051522D01*
X72564538Y-99710596D01*
X72542625Y-99688375D01*
X72535300Y-99681050D01*
X72535300Y-86775900D01*
X72515150Y-86570394D01*
X72497157Y-86364731D01*
X72493878Y-86353445D01*
X72492731Y-86341747D01*
X72433048Y-86144067D01*
X72375451Y-85945819D01*
X72370043Y-85935386D01*
X72366645Y-85924131D01*
X72269690Y-85741785D01*
X72174696Y-85558522D01*
X72167365Y-85549338D01*
X72161846Y-85538959D01*
X72031333Y-85378935D01*
X71902538Y-85217596D01*
X71886408Y-85201240D01*
X71886133Y-85200902D01*
X71885820Y-85200643D01*
X71880625Y-85195375D01*
X67968625Y-81283375D01*
X67809051Y-81152299D01*
X67650914Y-81019606D01*
X67640616Y-81013945D01*
X67631532Y-81006483D01*
X67449542Y-80908901D01*
X67268639Y-80809449D01*
X67257437Y-80805895D01*
X67247076Y-80800340D01*
X67049585Y-80739961D01*
X66852824Y-80677544D01*
X66841146Y-80676234D01*
X66829904Y-80672797D01*
X66624473Y-80651931D01*
X66419308Y-80628918D01*
X66396331Y-80628757D01*
X66395903Y-80628714D01*
X66395504Y-80628752D01*
X66388100Y-80628700D01*
X39753640Y-80628700D01*
X39764270Y-80553900D01*
X39764270Y-79283900D01*
X39752013Y-79130195D01*
X39671279Y-78869496D01*
X39521113Y-78641610D01*
X39313404Y-78464581D01*
X39064599Y-78352428D01*
X38794400Y-78314030D01*
X33181000Y-78314030D01*
X33027295Y-78326287D01*
X32818300Y-78391009D01*
X32818300Y-78223100D01*
X85723900Y-78223100D01*
X85723900Y-131288700D01*
X85723900Y-131288700D01*
G37*
X85723900Y-131288700D02*
X81648108Y-131288700D01*
X81791119Y-131120904D01*
X81903272Y-130872099D01*
X81941670Y-130601900D01*
X81941670Y-129331900D01*
X81929413Y-129178195D01*
X81848679Y-128917496D01*
X81698513Y-128689610D01*
X81490804Y-128512581D01*
X81241999Y-128400428D01*
X80971800Y-128362030D01*
X79992648Y-128362030D01*
X79707314Y-128122606D01*
X79325039Y-127912449D01*
X78909224Y-127780544D01*
X78475708Y-127731918D01*
X78444500Y-127731700D01*
X63219950Y-127731700D01*
X62647300Y-127159050D01*
X62647300Y-125197900D01*
X74406730Y-125197900D01*
X74406730Y-126467900D01*
X74418987Y-126621605D01*
X74499721Y-126882304D01*
X74649887Y-127110190D01*
X74857596Y-127287219D01*
X75106401Y-127399372D01*
X75376600Y-127437770D01*
X80990000Y-127437770D01*
X81143705Y-127425513D01*
X81404404Y-127344779D01*
X81632290Y-127194613D01*
X81809319Y-126986904D01*
X81921472Y-126738099D01*
X81959870Y-126467900D01*
X81959870Y-125197900D01*
X81947613Y-125044195D01*
X81866879Y-124783496D01*
X81716713Y-124555610D01*
X81509004Y-124378581D01*
X81260199Y-124266428D01*
X80990000Y-124228030D01*
X75376600Y-124228030D01*
X75222895Y-124240287D01*
X74962196Y-124321021D01*
X74734310Y-124471187D01*
X74557281Y-124678896D01*
X74445128Y-124927701D01*
X74406730Y-125197900D01*
X62647300Y-125197900D01*
X62647300Y-117401900D01*
X62627149Y-117196386D01*
X62609157Y-116990732D01*
X62605878Y-116979446D01*
X62604731Y-116967747D01*
X62545044Y-116770055D01*
X62487451Y-116571819D01*
X62482043Y-116561386D01*
X62478645Y-116550131D01*
X62381700Y-116367804D01*
X62286697Y-116184523D01*
X62279364Y-116175338D01*
X62273846Y-116164959D01*
X62143318Y-116004916D01*
X62014538Y-115843597D01*
X61998410Y-115827241D01*
X61998133Y-115826902D01*
X61997819Y-115826642D01*
X61992625Y-115821375D01*
X61773625Y-115602375D01*
X61436532Y-115325483D01*
X61052076Y-115119340D01*
X60634904Y-114991797D01*
X60464041Y-114974442D01*
X60859772Y-114723304D01*
X61209874Y-114389906D01*
X61488550Y-113994857D01*
X61685187Y-113553203D01*
X61792295Y-113081766D01*
X61800006Y-112529575D01*
X61706103Y-112055331D01*
X61521874Y-111608359D01*
X61254337Y-111205683D01*
X60913681Y-110862640D01*
X60512882Y-110592298D01*
X60067207Y-110404953D01*
X59593630Y-110307742D01*
X59110191Y-110304367D01*
X58635304Y-110394956D01*
X58187056Y-110576060D01*
X57782522Y-110840780D01*
X57437110Y-111179033D01*
X57163976Y-111577934D01*
X56973525Y-112022291D01*
X56873010Y-112495177D01*
X56866260Y-112978581D01*
X56953532Y-113454089D01*
X57131502Y-113903590D01*
X57393391Y-114309963D01*
X57729224Y-114657728D01*
X58126209Y-114933640D01*
X58569225Y-115127189D01*
X59041398Y-115231003D01*
X59122272Y-115232697D01*
X58962665Y-115316848D01*
X58623648Y-115591379D01*
X58344410Y-115926532D01*
X58135588Y-116309538D01*
X58005136Y-116725810D01*
X57958023Y-117159493D01*
X57996043Y-117594068D01*
X58117749Y-118012981D01*
X58176900Y-118127096D01*
X58176900Y-126885050D01*
X57076250Y-127985700D01*
X43729950Y-127985700D01*
X43040218Y-127295968D01*
X43095390Y-127259613D01*
X43272419Y-127051904D01*
X43384572Y-126803099D01*
X43422970Y-126532900D01*
X43422970Y-125232900D01*
X43410713Y-125079195D01*
X43329979Y-124818496D01*
X43179813Y-124590610D01*
X43038300Y-124469999D01*
X43038300Y-123907900D01*
X43018149Y-123702386D01*
X43000157Y-123496732D01*
X42996878Y-123485446D01*
X42995731Y-123473747D01*
X42936058Y-123276102D01*
X42878452Y-123077819D01*
X42873042Y-123067382D01*
X42869645Y-123056131D01*
X42772719Y-122873839D01*
X42677697Y-122690523D01*
X42670364Y-122681338D01*
X42664846Y-122670959D01*
X42534343Y-122510946D01*
X42405539Y-122349597D01*
X42389408Y-122333240D01*
X42389133Y-122332902D01*
X42388820Y-122332643D01*
X42383625Y-122327375D01*
X41516800Y-121460550D01*
X41516800Y-120384762D01*
X41521470Y-120351900D01*
X41521470Y-117811900D01*
X41509213Y-117658195D01*
X41428479Y-117397496D01*
X41278313Y-117169610D01*
X41070604Y-116992581D01*
X40821799Y-116880428D01*
X40551600Y-116842030D01*
X38011600Y-116842030D01*
X37857895Y-116854287D01*
X37597196Y-116935021D01*
X37369310Y-117085187D01*
X37192281Y-117292896D01*
X37080128Y-117541701D01*
X37041730Y-117811900D01*
X37041730Y-118597539D01*
X37007744Y-118704676D01*
X37006434Y-118716354D01*
X37002997Y-118727596D01*
X36982131Y-118933027D01*
X36959118Y-119138192D01*
X36958957Y-119161169D01*
X36958914Y-119161597D01*
X36958952Y-119161996D01*
X36958900Y-119169400D01*
X36958900Y-122298900D01*
X36979051Y-122504414D01*
X36997043Y-122710068D01*
X37000322Y-122721354D01*
X37001469Y-122733053D01*
X37061156Y-122930745D01*
X37118749Y-123128981D01*
X37124157Y-123139414D01*
X37127555Y-123150669D01*
X37224489Y-123332976D01*
X37319503Y-123516278D01*
X37326837Y-123525465D01*
X37332354Y-123535841D01*
X37386510Y-123602243D01*
X37407003Y-123641778D01*
X37414337Y-123650965D01*
X37419854Y-123661341D01*
X37550345Y-123821338D01*
X37679162Y-123982704D01*
X37695292Y-123999060D01*
X37695567Y-123999398D01*
X37695880Y-123999657D01*
X37701075Y-124004925D01*
X38368873Y-124672723D01*
X38333781Y-124713896D01*
X38221628Y-124962701D01*
X38183230Y-125232900D01*
X38183230Y-126532900D01*
X38195487Y-126686605D01*
X38276221Y-126947304D01*
X38426387Y-127175190D01*
X38544900Y-127276198D01*
X38544900Y-128196900D01*
X38565051Y-128402414D01*
X38583043Y-128608068D01*
X38586322Y-128619354D01*
X38587469Y-128631053D01*
X38647156Y-128828745D01*
X38704749Y-129026981D01*
X38710157Y-129037414D01*
X38713555Y-129048669D01*
X38810489Y-129230976D01*
X38905503Y-129414278D01*
X38912837Y-129423465D01*
X38918354Y-129433841D01*
X39048845Y-129593838D01*
X39177662Y-129755204D01*
X39193792Y-129771560D01*
X39194067Y-129771898D01*
X39194380Y-129772157D01*
X39199575Y-129777425D01*
X40710850Y-131288700D01*
X32818300Y-131288700D01*
X32818300Y-127188555D01*
X32838135Y-127192500D01*
X34363200Y-127192500D01*
X34528100Y-127027600D01*
X34528100Y-125907900D01*
X34578100Y-125907900D01*
X34578100Y-127027600D01*
X34743000Y-127192500D01*
X36268065Y-127192500D01*
X36395498Y-127167152D01*
X36515538Y-127117430D01*
X36623571Y-127045245D01*
X36715445Y-126953370D01*
X36787630Y-126845338D01*
X36837352Y-126725298D01*
X36862700Y-126597865D01*
X36862700Y-126072800D01*
X36697800Y-125907900D01*
X34578100Y-125907900D01*
X34528100Y-125907900D01*
X34508100Y-125907900D01*
X34508100Y-125857900D01*
X34528100Y-125857900D01*
X34528100Y-124738200D01*
X34578100Y-124738200D01*
X34578100Y-125857900D01*
X36697800Y-125857900D01*
X36862700Y-125693000D01*
X36862700Y-125167935D01*
X36837352Y-125040502D01*
X36787630Y-124920462D01*
X36715445Y-124812430D01*
X36623571Y-124720555D01*
X36515538Y-124648370D01*
X36395498Y-124598648D01*
X36268065Y-124573300D01*
X34743000Y-124573300D01*
X34578100Y-124738200D01*
X34528100Y-124738200D01*
X34363200Y-124573300D01*
X32838135Y-124573300D01*
X32818300Y-124577245D01*
X32818300Y-120790415D01*
X32892129Y-120864245D01*
X33000162Y-120936430D01*
X33120202Y-120986152D01*
X33247635Y-121011500D01*
X34392700Y-121011500D01*
X34557600Y-120846600D01*
X34557600Y-119106900D01*
X34607600Y-119106900D01*
X34607600Y-120846600D01*
X34772500Y-121011500D01*
X35917565Y-121011500D01*
X36044998Y-120986152D01*
X36165038Y-120936430D01*
X36273071Y-120864245D01*
X36364945Y-120772370D01*
X36437130Y-120664338D01*
X36486852Y-120544298D01*
X36512200Y-120416865D01*
X36512200Y-119271800D01*
X36347300Y-119106900D01*
X34607600Y-119106900D01*
X34557600Y-119106900D01*
X34537600Y-119106900D01*
X34537600Y-119056900D01*
X34557600Y-119056900D01*
X34557600Y-117317200D01*
X34607600Y-117317200D01*
X34607600Y-119056900D01*
X36347300Y-119056900D01*
X36512200Y-118892000D01*
X36512200Y-117746935D01*
X36486852Y-117619502D01*
X36437130Y-117499462D01*
X36364945Y-117391430D01*
X36273071Y-117299555D01*
X36165038Y-117227370D01*
X36044998Y-117177648D01*
X35917565Y-117152300D01*
X34772500Y-117152300D01*
X34607600Y-117317200D01*
X34557600Y-117317200D01*
X34392700Y-117152300D01*
X33247635Y-117152300D01*
X33120202Y-117177648D01*
X33000162Y-117227370D01*
X32892129Y-117299555D01*
X32818300Y-117373385D01*
X32818300Y-114090759D01*
X32909624Y-114185328D01*
X33306609Y-114461240D01*
X33749625Y-114654789D01*
X34221798Y-114758603D01*
X34705143Y-114768727D01*
X35181249Y-114684777D01*
X35631981Y-114509949D01*
X36040172Y-114250904D01*
X36390274Y-113917506D01*
X36668950Y-113522457D01*
X36865587Y-113080803D01*
X36972695Y-112609366D01*
X36975057Y-112440181D01*
X40250660Y-112440181D01*
X40337932Y-112915689D01*
X40515902Y-113365190D01*
X40777791Y-113771563D01*
X41113624Y-114119328D01*
X41510609Y-114395240D01*
X41953625Y-114588789D01*
X42425798Y-114692603D01*
X42909143Y-114702727D01*
X43385249Y-114618777D01*
X43835981Y-114443949D01*
X44244172Y-114184904D01*
X44594274Y-113851506D01*
X44872950Y-113456457D01*
X45069587Y-113014803D01*
X45176695Y-112543366D01*
X45184406Y-111991175D01*
X45090503Y-111516931D01*
X44906274Y-111069959D01*
X44638737Y-110667283D01*
X44298081Y-110324240D01*
X43897282Y-110053898D01*
X43451607Y-109866553D01*
X42978030Y-109769342D01*
X42494591Y-109765967D01*
X42019704Y-109856556D01*
X41571456Y-110037660D01*
X41166922Y-110302380D01*
X40821510Y-110640633D01*
X40548376Y-111039534D01*
X40357925Y-111483891D01*
X40257410Y-111956777D01*
X40250660Y-112440181D01*
X36975057Y-112440181D01*
X36980406Y-112057175D01*
X36886503Y-111582931D01*
X36702274Y-111135959D01*
X36434737Y-110733283D01*
X36094081Y-110390240D01*
X35693282Y-110119898D01*
X35247607Y-109932553D01*
X34774030Y-109835342D01*
X34290591Y-109831967D01*
X33815704Y-109922556D01*
X33367456Y-110103660D01*
X32962922Y-110368380D01*
X32818300Y-110510005D01*
X32818300Y-104952181D01*
X48865260Y-104952181D01*
X48952532Y-105427689D01*
X49130502Y-105877190D01*
X49392391Y-106283563D01*
X49728224Y-106631328D01*
X50125209Y-106907240D01*
X50568225Y-107100789D01*
X51040398Y-107204603D01*
X51523743Y-107214727D01*
X51999849Y-107130777D01*
X52450581Y-106955949D01*
X52858772Y-106696904D01*
X53208874Y-106363506D01*
X53487550Y-105968457D01*
X53684187Y-105526803D01*
X53791295Y-105055366D01*
X53792735Y-104952181D01*
X64867260Y-104952181D01*
X64954532Y-105427689D01*
X65132502Y-105877190D01*
X65394391Y-106283563D01*
X65730224Y-106631328D01*
X66127209Y-106907240D01*
X66570225Y-107100789D01*
X67042398Y-107204603D01*
X67525743Y-107214727D01*
X68001849Y-107130777D01*
X68452581Y-106955949D01*
X68860772Y-106696904D01*
X69210874Y-106363506D01*
X69489550Y-105968457D01*
X69686187Y-105526803D01*
X69793295Y-105055366D01*
X69801006Y-104503175D01*
X69707103Y-104028931D01*
X69522874Y-103581959D01*
X69255337Y-103179283D01*
X68914681Y-102836240D01*
X68513882Y-102565898D01*
X68068207Y-102378553D01*
X67594630Y-102281342D01*
X67111191Y-102277967D01*
X66636304Y-102368556D01*
X66188056Y-102549660D01*
X65783522Y-102814380D01*
X65438110Y-103152633D01*
X65164976Y-103551534D01*
X64974525Y-103995891D01*
X64874010Y-104468777D01*
X64867260Y-104952181D01*
X53792735Y-104952181D01*
X53799006Y-104503175D01*
X53705103Y-104028931D01*
X53520874Y-103581959D01*
X53253337Y-103179283D01*
X52912681Y-102836240D01*
X52511882Y-102565898D01*
X52066207Y-102378553D01*
X51592630Y-102281342D01*
X51109191Y-102277967D01*
X50634304Y-102368556D01*
X50186056Y-102549660D01*
X49781522Y-102814380D01*
X49436110Y-103152633D01*
X49162976Y-103551534D01*
X48972525Y-103995891D01*
X48872010Y-104468777D01*
X48865260Y-104952181D01*
X32818300Y-104952181D01*
X32818300Y-101113428D01*
X32891287Y-101224190D01*
X33098996Y-101401219D01*
X33347801Y-101513372D01*
X33618000Y-101551770D01*
X39231400Y-101551770D01*
X39385105Y-101539513D01*
X39645804Y-101458779D01*
X39873690Y-101308613D01*
X40050719Y-101100904D01*
X40162872Y-100852099D01*
X40201270Y-100581900D01*
X40201270Y-99311900D01*
X40189013Y-99158195D01*
X40108279Y-98897496D01*
X39958113Y-98669610D01*
X39750404Y-98492581D01*
X39731847Y-98484216D01*
X39901719Y-98284904D01*
X40013872Y-98036099D01*
X40052270Y-97765900D01*
X40052270Y-96951181D01*
X56866260Y-96951181D01*
X56953532Y-97426689D01*
X57131502Y-97876190D01*
X57393391Y-98282563D01*
X57729224Y-98630328D01*
X58126209Y-98906240D01*
X58569225Y-99099789D01*
X59041398Y-99203603D01*
X59524743Y-99213727D01*
X60000849Y-99129777D01*
X60451581Y-98954949D01*
X60859772Y-98695904D01*
X61209874Y-98362506D01*
X61488550Y-97967457D01*
X61685187Y-97525803D01*
X61792295Y-97054366D01*
X61800006Y-96502175D01*
X61706103Y-96027931D01*
X61521874Y-95580959D01*
X61254337Y-95178283D01*
X60913681Y-94835240D01*
X60512882Y-94564898D01*
X60067207Y-94377553D01*
X59593630Y-94280342D01*
X59110191Y-94276967D01*
X58635304Y-94367556D01*
X58187056Y-94548660D01*
X57782522Y-94813380D01*
X57437110Y-95151633D01*
X57163976Y-95550534D01*
X56973525Y-95994891D01*
X56873010Y-96467777D01*
X56866260Y-96951181D01*
X40052270Y-96951181D01*
X40052270Y-96495900D01*
X40040013Y-96342195D01*
X39959279Y-96081496D01*
X39818002Y-95867100D01*
X40807100Y-95867100D01*
X40954208Y-95852676D01*
X41101459Y-95839793D01*
X41109541Y-95837445D01*
X41117914Y-95836624D01*
X41259439Y-95793896D01*
X41401362Y-95752663D01*
X41408829Y-95748792D01*
X41416889Y-95746359D01*
X41547423Y-95676953D01*
X41678632Y-95608941D01*
X41685209Y-95603690D01*
X41692637Y-95599741D01*
X41807176Y-95506325D01*
X41922704Y-95414100D01*
X41934411Y-95402554D01*
X41934656Y-95402355D01*
X41934843Y-95402129D01*
X41938612Y-95398412D01*
X42021612Y-95315412D01*
X42219841Y-95074084D01*
X42367422Y-94798849D01*
X42458730Y-94500191D01*
X42490291Y-94189485D01*
X42460900Y-93878567D01*
X42371678Y-93579279D01*
X42226024Y-93303021D01*
X42029484Y-93060314D01*
X41789546Y-92860405D01*
X41515349Y-92710908D01*
X41217334Y-92617516D01*
X40906857Y-92583788D01*
X40595741Y-92611007D01*
X40404045Y-92666700D01*
X39710277Y-92666700D01*
X39734690Y-92650613D01*
X39911719Y-92442904D01*
X40023872Y-92194099D01*
X40062270Y-91923900D01*
X40062270Y-90653900D01*
X40050013Y-90500195D01*
X39969279Y-90239496D01*
X39819113Y-90011610D01*
X39679498Y-89892617D01*
X39738690Y-89853613D01*
X39915719Y-89645904D01*
X40027872Y-89397099D01*
X40066270Y-89126900D01*
X40066270Y-87856900D01*
X40054013Y-87703195D01*
X39973279Y-87442496D01*
X39823113Y-87214610D01*
X39673562Y-87087148D01*
X39701690Y-87068613D01*
X39878719Y-86860904D01*
X39990872Y-86612099D01*
X40029270Y-86341900D01*
X40029270Y-85099100D01*
X65462250Y-85099100D01*
X68064900Y-87701750D01*
X68064900Y-100606900D01*
X68085051Y-100812414D01*
X68103043Y-101018068D01*
X68106322Y-101029354D01*
X68107469Y-101041053D01*
X68167156Y-101238745D01*
X68224749Y-101436981D01*
X68230157Y-101447414D01*
X68233555Y-101458669D01*
X68330489Y-101640976D01*
X68425503Y-101824278D01*
X68432837Y-101833465D01*
X68438354Y-101843841D01*
X68568845Y-102003838D01*
X68697662Y-102165204D01*
X68713792Y-102181560D01*
X68714067Y-102181898D01*
X68714380Y-102182157D01*
X68719575Y-102187425D01*
X69381575Y-102849425D01*
X69718668Y-103126317D01*
X70103123Y-103332459D01*
X70520296Y-103460002D01*
X70954297Y-103504086D01*
X71388596Y-103463033D01*
X71806650Y-103338406D01*
X72192535Y-103134952D01*
X72531552Y-102860421D01*
X72810790Y-102525268D01*
X73019612Y-102142261D01*
X73150064Y-101725990D01*
X73197177Y-101292306D01*
X73159157Y-100857731D01*
X73037451Y-100438819D01*
X72836696Y-100051522D01*
X72564538Y-99710596D01*
X72542625Y-99688375D01*
X72535300Y-99681050D01*
X72535300Y-86775900D01*
X72515150Y-86570394D01*
X72497157Y-86364731D01*
X72493878Y-86353445D01*
X72492731Y-86341747D01*
X72433048Y-86144067D01*
X72375451Y-85945819D01*
X72370043Y-85935386D01*
X72366645Y-85924131D01*
X72269690Y-85741785D01*
X72174696Y-85558522D01*
X72167365Y-85549338D01*
X72161846Y-85538959D01*
X72031333Y-85378935D01*
X71902538Y-85217596D01*
X71886408Y-85201240D01*
X71886133Y-85200902D01*
X71885820Y-85200643D01*
X71880625Y-85195375D01*
X67968625Y-81283375D01*
X67809051Y-81152299D01*
X67650914Y-81019606D01*
X67640616Y-81013945D01*
X67631532Y-81006483D01*
X67449542Y-80908901D01*
X67268639Y-80809449D01*
X67257437Y-80805895D01*
X67247076Y-80800340D01*
X67049585Y-80739961D01*
X66852824Y-80677544D01*
X66841146Y-80676234D01*
X66829904Y-80672797D01*
X66624473Y-80651931D01*
X66419308Y-80628918D01*
X66396331Y-80628757D01*
X66395903Y-80628714D01*
X66395504Y-80628752D01*
X66388100Y-80628700D01*
X39753640Y-80628700D01*
X39764270Y-80553900D01*
X39764270Y-79283900D01*
X39752013Y-79130195D01*
X39671279Y-78869496D01*
X39521113Y-78641610D01*
X39313404Y-78464581D01*
X39064599Y-78352428D01*
X38794400Y-78314030D01*
X33181000Y-78314030D01*
X33027295Y-78326287D01*
X32818300Y-78391009D01*
X32818300Y-78223100D01*
X85723900Y-78223100D01*
X85723900Y-131288700D01*
M02*
