M48
;DRILL file {KiCad 4.0.6} date 05/08/17 10:58:54
;FORMAT={-:-/ absolute / inch / decimal}
FMAT,2
INCH,TZ
T1C0.024
T2C0.040
T3C0.059
T4C0.079
%
G90
G05
M72
T1
X1.6098Y-3.708
X1.9548Y-4.6907
X2.3698Y-4.6135
X2.5421Y-4.7664
X2.7938Y-3.987
X2.9352Y-3.7781
X3.8618Y-3.5506
X5.24Y-3.2824
X5.34Y-3.8369
X5.4211Y-4.9492
X5.6487Y-3.425
X6.5077Y-4.9492
X6.7466Y-3.5171
X7.025Y-3.6774
X7.8909Y-4.8159
X7.9405Y-3.3679
X8.5917Y-4.9156
X9.3062Y-3.5506
X9.4588Y-3.6843
T2
X10.1215Y-5.1255
X10.2215Y-5.1255
X10.3215Y-5.1255
T3
X3.637Y-4.0393
X3.637Y-4.3438
T4
X1.3589Y-4.4212
X1.6819Y-4.4186
X2.021Y-4.1238
X2.336Y-3.8088
X2.336Y-4.4398
X2.651Y-4.1238
X4.3381Y-4.1446
X4.6531Y-3.8286
X4.6531Y-4.4596
X4.9681Y-4.1446
X6.7444Y-4.1374
X7.0574Y-3.8234
X7.0594Y-4.4524
X7.3744Y-4.1374
X9.0454Y-4.1374
X9.3594Y-4.4524
X9.3607Y-3.8232
X9.6754Y-4.1374
T0
M30
