G04 #@! TF.FileFunction,Paste,Bot*
%FSLAX46Y46*%
G04 Gerber Fmt 4.6, Leading zero omitted, Abs format (unit mm)*
G04 Created by KiCad (PCBNEW 4.0.6) date 05/08/17 10:58:46*
%MOMM*%
%LPD*%
G01*
G04 APERTURE LIST*
%ADD10C,0.100000*%
%ADD11C,2.540000*%
%ADD12C,3.175000*%
G04 APERTURE END LIST*
D10*
D11*
X225707100Y-117285900D03*
D12*
X225707100Y-117285900D03*
D11*
X249703100Y-117110900D03*
D12*
X249703100Y-117110900D03*
D11*
X249700100Y-93294900D03*
D12*
X249700100Y-93294900D03*
D11*
X225779100Y-93237900D03*
D12*
X225779100Y-93237900D03*
D11*
X245730100Y-113257900D03*
D12*
X245730100Y-113257900D03*
D11*
X229670100Y-113285900D03*
D12*
X229670100Y-113285900D03*
D11*
X245697100Y-97322900D03*
D12*
X245697100Y-97322900D03*
D11*
X229771100Y-97283900D03*
D12*
X229771100Y-97283900D03*
D11*
X253761100Y-121206900D03*
D12*
X253761100Y-121206900D03*
D11*
X221799100Y-121302900D03*
D12*
X221799100Y-121302900D03*
D11*
X253667100Y-89292900D03*
D12*
X253667100Y-89292900D03*
D11*
X221779100Y-89231900D03*
D12*
X221779100Y-89231900D03*
D11*
X191385100Y-93155900D03*
D12*
X191385100Y-93155900D03*
D11*
X167376100Y-117190900D03*
D12*
X167376100Y-117190900D03*
D11*
X171471100Y-113312900D03*
D12*
X171471100Y-113312900D03*
D11*
X187502100Y-97344900D03*
D12*
X187502100Y-97344900D03*
D11*
X195380100Y-89398900D03*
D12*
X195380100Y-89398900D03*
D11*
X163489100Y-121348900D03*
D12*
X163489100Y-121348900D03*
D11*
X130325100Y-117333900D03*
D12*
X130325100Y-117333900D03*
D11*
X106321100Y-117338900D03*
D12*
X106321100Y-117338900D03*
D11*
X130194100Y-93289900D03*
D12*
X130194100Y-93289900D03*
D11*
X106259100Y-93409900D03*
D12*
X106259100Y-93409900D03*
D11*
X126306100Y-113411900D03*
D12*
X126306100Y-113411900D03*
D11*
X110398100Y-113399900D03*
D12*
X110398100Y-113399900D03*
D11*
X126394100Y-97417900D03*
D12*
X126394100Y-97417900D03*
D11*
X110263100Y-97419900D03*
D12*
X110263100Y-97419900D03*
D11*
X134288100Y-121406900D03*
D12*
X134288100Y-121406900D03*
D11*
X102400100Y-121407900D03*
D12*
X102400100Y-121407900D03*
D11*
X134339100Y-89424900D03*
D12*
X134339100Y-89424900D03*
D11*
X102272100Y-89399900D03*
D12*
X102272100Y-89399900D03*
D11*
X71401300Y-116571300D03*
D12*
X71401300Y-116571300D03*
D11*
X47261300Y-116752300D03*
D12*
X47261300Y-116752300D03*
D11*
X71290300Y-92702300D03*
D12*
X71290300Y-92702300D03*
D11*
X47340300Y-92642300D03*
D12*
X47340300Y-92642300D03*
D11*
X67356300Y-112598300D03*
D12*
X67356300Y-112598300D03*
D11*
X51364300Y-112586300D03*
D12*
X51364300Y-112586300D03*
D11*
X67405300Y-96581300D03*
D12*
X67405300Y-96581300D03*
D11*
X51258300Y-96607300D03*
D12*
X51258300Y-96607300D03*
D11*
X43241300Y-88630300D03*
D12*
X43241300Y-88630300D03*
D11*
X43386300Y-120553300D03*
D12*
X43386300Y-120553300D03*
D11*
X75205300Y-120580300D03*
D12*
X75205300Y-120580300D03*
D11*
X75370300Y-88548300D03*
D12*
X75370300Y-88548300D03*
D11*
X187325100Y-113335900D03*
D12*
X187325100Y-113335900D03*
D11*
X171340500Y-97318500D03*
D12*
X171340500Y-97318500D03*
D11*
X167453500Y-93243700D03*
D12*
X167453500Y-93243700D03*
D11*
X191409300Y-117206700D03*
D12*
X191409300Y-117206700D03*
D11*
X163367300Y-89364100D03*
D12*
X163367300Y-89364100D03*
D11*
X195379300Y-121331900D03*
D12*
X195379300Y-121331900D03*
M02*
