G04 #@! TF.FileFunction,Legend,Bot*
%FSLAX46Y46*%
G04 Gerber Fmt 4.6, Leading zero omitted, Abs format (unit mm)*
G04 Created by KiCad (PCBNEW 4.0.6) date 05/08/17 10:58:46*
%MOMM*%
%LPD*%
G01*
G04 APERTURE LIST*
%ADD10C,0.100000*%
%ADD11C,0.113792*%
%ADD12C,0.127000*%
G04 APERTURE END LIST*
D10*
D11*
X211920833Y-131749140D02*
X212371260Y-131749140D01*
X212564300Y-132456953D02*
X211920833Y-132456953D01*
X211920833Y-131105673D01*
X212564300Y-131105673D01*
X213143420Y-132456953D02*
X213143420Y-131105673D01*
X213593847Y-132070873D01*
X214044274Y-131105673D01*
X214044274Y-132456953D01*
X214687740Y-131749140D02*
X215138167Y-131749140D01*
X215331207Y-132456953D02*
X214687740Y-132456953D01*
X214687740Y-131105673D01*
X215331207Y-131105673D01*
X216682487Y-132456953D02*
X216232061Y-131813487D01*
X215910327Y-132456953D02*
X215910327Y-131105673D01*
X216425101Y-131105673D01*
X216553794Y-131170020D01*
X216618141Y-131234367D01*
X216682487Y-131363060D01*
X216682487Y-131556100D01*
X216618141Y-131684793D01*
X216553794Y-131749140D01*
X216425101Y-131813487D01*
X215910327Y-131813487D01*
X217969421Y-131170020D02*
X217840727Y-131105673D01*
X217647687Y-131105673D01*
X217454647Y-131170020D01*
X217325954Y-131298713D01*
X217261607Y-131427407D01*
X217197261Y-131684793D01*
X217197261Y-131877833D01*
X217261607Y-132135220D01*
X217325954Y-132263913D01*
X217454647Y-132392607D01*
X217647687Y-132456953D01*
X217776381Y-132456953D01*
X217969421Y-132392607D01*
X218033767Y-132328260D01*
X218033767Y-131877833D01*
X217776381Y-131877833D01*
X218612887Y-131749140D02*
X219063314Y-131749140D01*
X219256354Y-132456953D02*
X218612887Y-132456953D01*
X218612887Y-131105673D01*
X219256354Y-131105673D01*
X221315448Y-131749140D02*
X220865021Y-131749140D01*
X220865021Y-132456953D02*
X220865021Y-131105673D01*
X221508488Y-131105673D01*
X221958915Y-132070873D02*
X222602381Y-132070873D01*
X221830221Y-132456953D02*
X222280648Y-131105673D01*
X222731075Y-132456953D01*
X223953661Y-132328260D02*
X223889315Y-132392607D01*
X223696275Y-132456953D01*
X223567581Y-132456953D01*
X223374541Y-132392607D01*
X223245848Y-132263913D01*
X223181501Y-132135220D01*
X223117155Y-131877833D01*
X223117155Y-131684793D01*
X223181501Y-131427407D01*
X223245848Y-131298713D01*
X223374541Y-131170020D01*
X223567581Y-131105673D01*
X223696275Y-131105673D01*
X223889315Y-131170020D01*
X223953661Y-131234367D01*
X224532781Y-131749140D02*
X224983208Y-131749140D01*
X225176248Y-132456953D02*
X224532781Y-132456953D01*
X224532781Y-131105673D01*
X225176248Y-131105673D01*
X227492729Y-132456953D02*
X226720569Y-132456953D01*
X227106649Y-132456953D02*
X227106649Y-131105673D01*
X226977955Y-131298713D01*
X226849262Y-131427407D01*
X226720569Y-131491753D01*
X189511033Y-131394140D02*
X189961460Y-131394140D01*
X190154500Y-132101953D02*
X189511033Y-132101953D01*
X189511033Y-130750673D01*
X190154500Y-130750673D01*
X190733620Y-132101953D02*
X190733620Y-130750673D01*
X191184047Y-131715873D01*
X191634474Y-130750673D01*
X191634474Y-132101953D01*
X192277940Y-131394140D02*
X192728367Y-131394140D01*
X192921407Y-132101953D02*
X192277940Y-132101953D01*
X192277940Y-130750673D01*
X192921407Y-130750673D01*
X194272687Y-132101953D02*
X193822261Y-131458487D01*
X193500527Y-132101953D02*
X193500527Y-130750673D01*
X194015301Y-130750673D01*
X194143994Y-130815020D01*
X194208341Y-130879367D01*
X194272687Y-131008060D01*
X194272687Y-131201100D01*
X194208341Y-131329793D01*
X194143994Y-131394140D01*
X194015301Y-131458487D01*
X193500527Y-131458487D01*
X195559621Y-130815020D02*
X195430927Y-130750673D01*
X195237887Y-130750673D01*
X195044847Y-130815020D01*
X194916154Y-130943713D01*
X194851807Y-131072407D01*
X194787461Y-131329793D01*
X194787461Y-131522833D01*
X194851807Y-131780220D01*
X194916154Y-131908913D01*
X195044847Y-132037607D01*
X195237887Y-132101953D01*
X195366581Y-132101953D01*
X195559621Y-132037607D01*
X195623967Y-131973260D01*
X195623967Y-131522833D01*
X195366581Y-131522833D01*
X196203087Y-131394140D02*
X196653514Y-131394140D01*
X196846554Y-132101953D02*
X196203087Y-132101953D01*
X196203087Y-130750673D01*
X196846554Y-130750673D01*
X198905648Y-131394140D02*
X198455221Y-131394140D01*
X198455221Y-132101953D02*
X198455221Y-130750673D01*
X199098688Y-130750673D01*
X199549115Y-131715873D02*
X200192581Y-131715873D01*
X199420421Y-132101953D02*
X199870848Y-130750673D01*
X200321275Y-132101953D01*
X201543861Y-131973260D02*
X201479515Y-132037607D01*
X201286475Y-132101953D01*
X201157781Y-132101953D01*
X200964741Y-132037607D01*
X200836048Y-131908913D01*
X200771701Y-131780220D01*
X200707355Y-131522833D01*
X200707355Y-131329793D01*
X200771701Y-131072407D01*
X200836048Y-130943713D01*
X200964741Y-130815020D01*
X201157781Y-130750673D01*
X201286475Y-130750673D01*
X201479515Y-130815020D01*
X201543861Y-130879367D01*
X202122981Y-131394140D02*
X202573408Y-131394140D01*
X202766448Y-132101953D02*
X202122981Y-132101953D01*
X202122981Y-130750673D01*
X202766448Y-130750673D01*
X204310769Y-130879367D02*
X204375115Y-130815020D01*
X204503809Y-130750673D01*
X204825542Y-130750673D01*
X204954235Y-130815020D01*
X205018582Y-130879367D01*
X205082929Y-131008060D01*
X205082929Y-131136753D01*
X205018582Y-131329793D01*
X204246422Y-132101953D01*
X205082929Y-132101953D01*
X124810033Y-127919540D02*
X125260460Y-127919540D01*
X125453500Y-128627353D02*
X124810033Y-128627353D01*
X124810033Y-127276073D01*
X125453500Y-127276073D01*
X126032620Y-128627353D02*
X126032620Y-127276073D01*
X126483047Y-128241273D01*
X126933474Y-127276073D01*
X126933474Y-128627353D01*
X127576940Y-127919540D02*
X128027367Y-127919540D01*
X128220407Y-128627353D02*
X127576940Y-128627353D01*
X127576940Y-127276073D01*
X128220407Y-127276073D01*
X129571687Y-128627353D02*
X129121261Y-127983887D01*
X128799527Y-128627353D02*
X128799527Y-127276073D01*
X129314301Y-127276073D01*
X129442994Y-127340420D01*
X129507341Y-127404767D01*
X129571687Y-127533460D01*
X129571687Y-127726500D01*
X129507341Y-127855193D01*
X129442994Y-127919540D01*
X129314301Y-127983887D01*
X128799527Y-127983887D01*
X130858621Y-127340420D02*
X130729927Y-127276073D01*
X130536887Y-127276073D01*
X130343847Y-127340420D01*
X130215154Y-127469113D01*
X130150807Y-127597807D01*
X130086461Y-127855193D01*
X130086461Y-128048233D01*
X130150807Y-128305620D01*
X130215154Y-128434313D01*
X130343847Y-128563007D01*
X130536887Y-128627353D01*
X130665581Y-128627353D01*
X130858621Y-128563007D01*
X130922967Y-128498660D01*
X130922967Y-128048233D01*
X130665581Y-128048233D01*
X131502087Y-127919540D02*
X131952514Y-127919540D01*
X132145554Y-128627353D02*
X131502087Y-128627353D01*
X131502087Y-127276073D01*
X132145554Y-127276073D01*
X134204648Y-127919540D02*
X133754221Y-127919540D01*
X133754221Y-128627353D02*
X133754221Y-127276073D01*
X134397688Y-127276073D01*
X134848115Y-128241273D02*
X135491581Y-128241273D01*
X134719421Y-128627353D02*
X135169848Y-127276073D01*
X135620275Y-128627353D01*
X136842861Y-128498660D02*
X136778515Y-128563007D01*
X136585475Y-128627353D01*
X136456781Y-128627353D01*
X136263741Y-128563007D01*
X136135048Y-128434313D01*
X136070701Y-128305620D01*
X136006355Y-128048233D01*
X136006355Y-127855193D01*
X136070701Y-127597807D01*
X136135048Y-127469113D01*
X136263741Y-127340420D01*
X136456781Y-127276073D01*
X136585475Y-127276073D01*
X136778515Y-127340420D01*
X136842861Y-127404767D01*
X137421981Y-127919540D02*
X137872408Y-127919540D01*
X138065448Y-128627353D02*
X137421981Y-128627353D01*
X137421981Y-127276073D01*
X138065448Y-127276073D01*
X139545422Y-127276073D02*
X140381929Y-127276073D01*
X139931502Y-127790847D01*
X140124542Y-127790847D01*
X140253235Y-127855193D01*
X140317582Y-127919540D01*
X140381929Y-128048233D01*
X140381929Y-128369967D01*
X140317582Y-128498660D01*
X140253235Y-128563007D01*
X140124542Y-128627353D01*
X139738462Y-128627353D01*
X139609769Y-128563007D01*
X139545422Y-128498660D01*
X54271633Y-122667140D02*
X54722060Y-122667140D01*
X54915100Y-123374953D02*
X54271633Y-123374953D01*
X54271633Y-122023673D01*
X54915100Y-122023673D01*
X55494220Y-123374953D02*
X55494220Y-122023673D01*
X55944647Y-122988873D01*
X56395074Y-122023673D01*
X56395074Y-123374953D01*
X57038540Y-122667140D02*
X57488967Y-122667140D01*
X57682007Y-123374953D02*
X57038540Y-123374953D01*
X57038540Y-122023673D01*
X57682007Y-122023673D01*
X59033287Y-123374953D02*
X58582861Y-122731487D01*
X58261127Y-123374953D02*
X58261127Y-122023673D01*
X58775901Y-122023673D01*
X58904594Y-122088020D01*
X58968941Y-122152367D01*
X59033287Y-122281060D01*
X59033287Y-122474100D01*
X58968941Y-122602793D01*
X58904594Y-122667140D01*
X58775901Y-122731487D01*
X58261127Y-122731487D01*
X60320221Y-122088020D02*
X60191527Y-122023673D01*
X59998487Y-122023673D01*
X59805447Y-122088020D01*
X59676754Y-122216713D01*
X59612407Y-122345407D01*
X59548061Y-122602793D01*
X59548061Y-122795833D01*
X59612407Y-123053220D01*
X59676754Y-123181913D01*
X59805447Y-123310607D01*
X59998487Y-123374953D01*
X60127181Y-123374953D01*
X60320221Y-123310607D01*
X60384567Y-123246260D01*
X60384567Y-122795833D01*
X60127181Y-122795833D01*
X60963687Y-122667140D02*
X61414114Y-122667140D01*
X61607154Y-123374953D02*
X60963687Y-123374953D01*
X60963687Y-122023673D01*
X61607154Y-122023673D01*
X63666248Y-122667140D02*
X63215821Y-122667140D01*
X63215821Y-123374953D02*
X63215821Y-122023673D01*
X63859288Y-122023673D01*
X64309715Y-122988873D02*
X64953181Y-122988873D01*
X64181021Y-123374953D02*
X64631448Y-122023673D01*
X65081875Y-123374953D01*
X66304461Y-123246260D02*
X66240115Y-123310607D01*
X66047075Y-123374953D01*
X65918381Y-123374953D01*
X65725341Y-123310607D01*
X65596648Y-123181913D01*
X65532301Y-123053220D01*
X65467955Y-122795833D01*
X65467955Y-122602793D01*
X65532301Y-122345407D01*
X65596648Y-122216713D01*
X65725341Y-122088020D01*
X65918381Y-122023673D01*
X66047075Y-122023673D01*
X66240115Y-122088020D01*
X66304461Y-122152367D01*
X66883581Y-122667140D02*
X67334008Y-122667140D01*
X67527048Y-123374953D02*
X66883581Y-123374953D01*
X66883581Y-122023673D01*
X67527048Y-122023673D01*
X69714835Y-122474100D02*
X69714835Y-123374953D01*
X69393102Y-121959327D02*
X69071369Y-122924527D01*
X69907875Y-122924527D01*
D12*
X224552005Y-114370948D02*
X224954171Y-115577448D01*
X225356338Y-114370948D01*
X226447933Y-115462543D02*
X226390481Y-115519995D01*
X226218124Y-115577448D01*
X226103219Y-115577448D01*
X225930862Y-115519995D01*
X225815957Y-115405090D01*
X225758505Y-115290186D01*
X225701053Y-115060376D01*
X225701053Y-114888019D01*
X225758505Y-114658210D01*
X225815957Y-114543305D01*
X225930862Y-114428400D01*
X226103219Y-114370948D01*
X226218124Y-114370948D01*
X226390481Y-114428400D01*
X226447933Y-114485852D01*
X227654433Y-115462543D02*
X227596981Y-115519995D01*
X227424624Y-115577448D01*
X227309719Y-115577448D01*
X227137362Y-115519995D01*
X227022457Y-115405090D01*
X226965005Y-115290186D01*
X226907553Y-115060376D01*
X226907553Y-114888019D01*
X226965005Y-114658210D01*
X227022457Y-114543305D01*
X227137362Y-114428400D01*
X227309719Y-114370948D01*
X227424624Y-114370948D01*
X227596981Y-114428400D01*
X227654433Y-114485852D01*
X227884243Y-115692352D02*
X228803481Y-115692352D01*
X229033291Y-114485852D02*
X229090743Y-114428400D01*
X229205648Y-114370948D01*
X229492910Y-114370948D01*
X229607814Y-114428400D01*
X229665267Y-114485852D01*
X229722719Y-114600757D01*
X229722719Y-114715662D01*
X229665267Y-114888019D01*
X228975838Y-115577448D01*
X229722719Y-115577448D01*
X229952529Y-115692352D02*
X230871767Y-115692352D01*
X231848457Y-115462543D02*
X231791005Y-115519995D01*
X231618648Y-115577448D01*
X231503743Y-115577448D01*
X231331386Y-115519995D01*
X231216481Y-115405090D01*
X231159029Y-115290186D01*
X231101577Y-115060376D01*
X231101577Y-114888019D01*
X231159029Y-114658210D01*
X231216481Y-114543305D01*
X231331386Y-114428400D01*
X231503743Y-114370948D01*
X231618648Y-114370948D01*
X231791005Y-114428400D01*
X231848457Y-114485852D01*
X232997505Y-115577448D02*
X232308077Y-115577448D01*
X232652791Y-115577448D02*
X232652791Y-114370948D01*
X232537886Y-114543305D01*
X232422981Y-114658210D01*
X232308077Y-114715662D01*
X248548005Y-114195948D02*
X248950171Y-115402448D01*
X249352338Y-114195948D01*
X250443933Y-115287543D02*
X250386481Y-115344995D01*
X250214124Y-115402448D01*
X250099219Y-115402448D01*
X249926862Y-115344995D01*
X249811957Y-115230090D01*
X249754505Y-115115186D01*
X249697053Y-114885376D01*
X249697053Y-114713019D01*
X249754505Y-114483210D01*
X249811957Y-114368305D01*
X249926862Y-114253400D01*
X250099219Y-114195948D01*
X250214124Y-114195948D01*
X250386481Y-114253400D01*
X250443933Y-114310852D01*
X251650433Y-115287543D02*
X251592981Y-115344995D01*
X251420624Y-115402448D01*
X251305719Y-115402448D01*
X251133362Y-115344995D01*
X251018457Y-115230090D01*
X250961005Y-115115186D01*
X250903553Y-114885376D01*
X250903553Y-114713019D01*
X250961005Y-114483210D01*
X251018457Y-114368305D01*
X251133362Y-114253400D01*
X251305719Y-114195948D01*
X251420624Y-114195948D01*
X251592981Y-114253400D01*
X251650433Y-114310852D01*
X251880243Y-115517352D02*
X252799481Y-115517352D01*
X253718719Y-115402448D02*
X253029291Y-115402448D01*
X253374005Y-115402448D02*
X253374005Y-114195948D01*
X253259100Y-114368305D01*
X253144195Y-114483210D01*
X253029291Y-114540662D01*
X253948529Y-115517352D02*
X254867767Y-115517352D01*
X255844457Y-115287543D02*
X255787005Y-115344995D01*
X255614648Y-115402448D01*
X255499743Y-115402448D01*
X255327386Y-115344995D01*
X255212481Y-115230090D01*
X255155029Y-115115186D01*
X255097577Y-114885376D01*
X255097577Y-114713019D01*
X255155029Y-114483210D01*
X255212481Y-114368305D01*
X255327386Y-114253400D01*
X255499743Y-114195948D01*
X255614648Y-114195948D01*
X255787005Y-114253400D01*
X255844457Y-114310852D01*
X256993505Y-115402448D02*
X256304077Y-115402448D01*
X256648791Y-115402448D02*
X256648791Y-114195948D01*
X256533886Y-114368305D01*
X256418981Y-114483210D01*
X256304077Y-114540662D01*
X248545005Y-90379948D02*
X248947171Y-91586448D01*
X249349338Y-90379948D01*
X250440933Y-91471543D02*
X250383481Y-91528995D01*
X250211124Y-91586448D01*
X250096219Y-91586448D01*
X249923862Y-91528995D01*
X249808957Y-91414090D01*
X249751505Y-91299186D01*
X249694053Y-91069376D01*
X249694053Y-90897019D01*
X249751505Y-90667210D01*
X249808957Y-90552305D01*
X249923862Y-90437400D01*
X250096219Y-90379948D01*
X250211124Y-90379948D01*
X250383481Y-90437400D01*
X250440933Y-90494852D01*
X251647433Y-91471543D02*
X251589981Y-91528995D01*
X251417624Y-91586448D01*
X251302719Y-91586448D01*
X251130362Y-91528995D01*
X251015457Y-91414090D01*
X250958005Y-91299186D01*
X250900553Y-91069376D01*
X250900553Y-90897019D01*
X250958005Y-90667210D01*
X251015457Y-90552305D01*
X251130362Y-90437400D01*
X251302719Y-90379948D01*
X251417624Y-90379948D01*
X251589981Y-90437400D01*
X251647433Y-90494852D01*
X251877243Y-91701352D02*
X252796481Y-91701352D01*
X252968838Y-90379948D02*
X253715719Y-90379948D01*
X253313552Y-90839567D01*
X253485910Y-90839567D01*
X253600814Y-90897019D01*
X253658267Y-90954471D01*
X253715719Y-91069376D01*
X253715719Y-91356638D01*
X253658267Y-91471543D01*
X253600814Y-91528995D01*
X253485910Y-91586448D01*
X253141195Y-91586448D01*
X253026291Y-91528995D01*
X252968838Y-91471543D01*
X253945529Y-91701352D02*
X254864767Y-91701352D01*
X255841457Y-91471543D02*
X255784005Y-91528995D01*
X255611648Y-91586448D01*
X255496743Y-91586448D01*
X255324386Y-91528995D01*
X255209481Y-91414090D01*
X255152029Y-91299186D01*
X255094577Y-91069376D01*
X255094577Y-90897019D01*
X255152029Y-90667210D01*
X255209481Y-90552305D01*
X255324386Y-90437400D01*
X255496743Y-90379948D01*
X255611648Y-90379948D01*
X255784005Y-90437400D01*
X255841457Y-90494852D01*
X256990505Y-91586448D02*
X256301077Y-91586448D01*
X256645791Y-91586448D02*
X256645791Y-90379948D01*
X256530886Y-90552305D01*
X256415981Y-90667210D01*
X256301077Y-90724662D01*
X224624005Y-90322948D02*
X225026171Y-91529448D01*
X225428338Y-90322948D01*
X226519933Y-91414543D02*
X226462481Y-91471995D01*
X226290124Y-91529448D01*
X226175219Y-91529448D01*
X226002862Y-91471995D01*
X225887957Y-91357090D01*
X225830505Y-91242186D01*
X225773053Y-91012376D01*
X225773053Y-90840019D01*
X225830505Y-90610210D01*
X225887957Y-90495305D01*
X226002862Y-90380400D01*
X226175219Y-90322948D01*
X226290124Y-90322948D01*
X226462481Y-90380400D01*
X226519933Y-90437852D01*
X227726433Y-91414543D02*
X227668981Y-91471995D01*
X227496624Y-91529448D01*
X227381719Y-91529448D01*
X227209362Y-91471995D01*
X227094457Y-91357090D01*
X227037005Y-91242186D01*
X226979553Y-91012376D01*
X226979553Y-90840019D01*
X227037005Y-90610210D01*
X227094457Y-90495305D01*
X227209362Y-90380400D01*
X227381719Y-90322948D01*
X227496624Y-90322948D01*
X227668981Y-90380400D01*
X227726433Y-90437852D01*
X227956243Y-91644352D02*
X228875481Y-91644352D01*
X229679814Y-90725114D02*
X229679814Y-91529448D01*
X229392552Y-90265495D02*
X229105291Y-91127281D01*
X229852171Y-91127281D01*
X230024529Y-91644352D02*
X230943767Y-91644352D01*
X231920457Y-91414543D02*
X231863005Y-91471995D01*
X231690648Y-91529448D01*
X231575743Y-91529448D01*
X231403386Y-91471995D01*
X231288481Y-91357090D01*
X231231029Y-91242186D01*
X231173577Y-91012376D01*
X231173577Y-90840019D01*
X231231029Y-90610210D01*
X231288481Y-90495305D01*
X231403386Y-90380400D01*
X231575743Y-90322948D01*
X231690648Y-90322948D01*
X231863005Y-90380400D01*
X231920457Y-90437852D01*
X233069505Y-91529448D02*
X232380077Y-91529448D01*
X232724791Y-91529448D02*
X232724791Y-90322948D01*
X232609886Y-90495305D01*
X232494981Y-90610210D01*
X232380077Y-90667662D01*
X245379338Y-110400400D02*
X245264433Y-110342948D01*
X245092076Y-110342948D01*
X244919719Y-110400400D01*
X244804814Y-110515305D01*
X244747362Y-110630210D01*
X244689910Y-110860019D01*
X244689910Y-111032376D01*
X244747362Y-111262186D01*
X244804814Y-111377090D01*
X244919719Y-111491995D01*
X245092076Y-111549448D01*
X245206981Y-111549448D01*
X245379338Y-111491995D01*
X245436790Y-111434543D01*
X245436790Y-111032376D01*
X245206981Y-111032376D01*
X245953862Y-111549448D02*
X245953862Y-110342948D01*
X246643290Y-111549448D01*
X246643290Y-110342948D01*
X247217814Y-111549448D02*
X247217814Y-110342948D01*
X247505076Y-110342948D01*
X247677433Y-110400400D01*
X247792338Y-110515305D01*
X247849790Y-110630210D01*
X247907242Y-110860019D01*
X247907242Y-111032376D01*
X247849790Y-111262186D01*
X247792338Y-111377090D01*
X247677433Y-111491995D01*
X247505076Y-111549448D01*
X247217814Y-111549448D01*
X248137052Y-111664352D02*
X249056290Y-111664352D01*
X249286100Y-110457852D02*
X249343552Y-110400400D01*
X249458457Y-110342948D01*
X249745719Y-110342948D01*
X249860623Y-110400400D01*
X249918076Y-110457852D01*
X249975528Y-110572757D01*
X249975528Y-110687662D01*
X249918076Y-110860019D01*
X249228647Y-111549448D01*
X249975528Y-111549448D01*
X250205338Y-111664352D02*
X251124576Y-111664352D01*
X252101266Y-111434543D02*
X252043814Y-111491995D01*
X251871457Y-111549448D01*
X251756552Y-111549448D01*
X251584195Y-111491995D01*
X251469290Y-111377090D01*
X251411838Y-111262186D01*
X251354386Y-111032376D01*
X251354386Y-110860019D01*
X251411838Y-110630210D01*
X251469290Y-110515305D01*
X251584195Y-110400400D01*
X251756552Y-110342948D01*
X251871457Y-110342948D01*
X252043814Y-110400400D01*
X252101266Y-110457852D01*
X253250314Y-111549448D02*
X252560886Y-111549448D01*
X252905600Y-111549448D02*
X252905600Y-110342948D01*
X252790695Y-110515305D01*
X252675790Y-110630210D01*
X252560886Y-110687662D01*
X229319338Y-110428400D02*
X229204433Y-110370948D01*
X229032076Y-110370948D01*
X228859719Y-110428400D01*
X228744814Y-110543305D01*
X228687362Y-110658210D01*
X228629910Y-110888019D01*
X228629910Y-111060376D01*
X228687362Y-111290186D01*
X228744814Y-111405090D01*
X228859719Y-111519995D01*
X229032076Y-111577448D01*
X229146981Y-111577448D01*
X229319338Y-111519995D01*
X229376790Y-111462543D01*
X229376790Y-111060376D01*
X229146981Y-111060376D01*
X229893862Y-111577448D02*
X229893862Y-110370948D01*
X230583290Y-111577448D01*
X230583290Y-110370948D01*
X231157814Y-111577448D02*
X231157814Y-110370948D01*
X231445076Y-110370948D01*
X231617433Y-110428400D01*
X231732338Y-110543305D01*
X231789790Y-110658210D01*
X231847242Y-110888019D01*
X231847242Y-111060376D01*
X231789790Y-111290186D01*
X231732338Y-111405090D01*
X231617433Y-111519995D01*
X231445076Y-111577448D01*
X231157814Y-111577448D01*
X232077052Y-111692352D02*
X232996290Y-111692352D01*
X233915528Y-111577448D02*
X233226100Y-111577448D01*
X233570814Y-111577448D02*
X233570814Y-110370948D01*
X233455909Y-110543305D01*
X233341004Y-110658210D01*
X233226100Y-110715662D01*
X234145338Y-111692352D02*
X235064576Y-111692352D01*
X236041266Y-111462543D02*
X235983814Y-111519995D01*
X235811457Y-111577448D01*
X235696552Y-111577448D01*
X235524195Y-111519995D01*
X235409290Y-111405090D01*
X235351838Y-111290186D01*
X235294386Y-111060376D01*
X235294386Y-110888019D01*
X235351838Y-110658210D01*
X235409290Y-110543305D01*
X235524195Y-110428400D01*
X235696552Y-110370948D01*
X235811457Y-110370948D01*
X235983814Y-110428400D01*
X236041266Y-110485852D01*
X237190314Y-111577448D02*
X236500886Y-111577448D01*
X236845600Y-111577448D02*
X236845600Y-110370948D01*
X236730695Y-110543305D01*
X236615790Y-110658210D01*
X236500886Y-110715662D01*
X245346338Y-94465400D02*
X245231433Y-94407948D01*
X245059076Y-94407948D01*
X244886719Y-94465400D01*
X244771814Y-94580305D01*
X244714362Y-94695210D01*
X244656910Y-94925019D01*
X244656910Y-95097376D01*
X244714362Y-95327186D01*
X244771814Y-95442090D01*
X244886719Y-95556995D01*
X245059076Y-95614448D01*
X245173981Y-95614448D01*
X245346338Y-95556995D01*
X245403790Y-95499543D01*
X245403790Y-95097376D01*
X245173981Y-95097376D01*
X245920862Y-95614448D02*
X245920862Y-94407948D01*
X246610290Y-95614448D01*
X246610290Y-94407948D01*
X247184814Y-95614448D02*
X247184814Y-94407948D01*
X247472076Y-94407948D01*
X247644433Y-94465400D01*
X247759338Y-94580305D01*
X247816790Y-94695210D01*
X247874242Y-94925019D01*
X247874242Y-95097376D01*
X247816790Y-95327186D01*
X247759338Y-95442090D01*
X247644433Y-95556995D01*
X247472076Y-95614448D01*
X247184814Y-95614448D01*
X248104052Y-95729352D02*
X249023290Y-95729352D01*
X249195647Y-94407948D02*
X249942528Y-94407948D01*
X249540361Y-94867567D01*
X249712719Y-94867567D01*
X249827623Y-94925019D01*
X249885076Y-94982471D01*
X249942528Y-95097376D01*
X249942528Y-95384638D01*
X249885076Y-95499543D01*
X249827623Y-95556995D01*
X249712719Y-95614448D01*
X249368004Y-95614448D01*
X249253100Y-95556995D01*
X249195647Y-95499543D01*
X250172338Y-95729352D02*
X251091576Y-95729352D01*
X252068266Y-95499543D02*
X252010814Y-95556995D01*
X251838457Y-95614448D01*
X251723552Y-95614448D01*
X251551195Y-95556995D01*
X251436290Y-95442090D01*
X251378838Y-95327186D01*
X251321386Y-95097376D01*
X251321386Y-94925019D01*
X251378838Y-94695210D01*
X251436290Y-94580305D01*
X251551195Y-94465400D01*
X251723552Y-94407948D01*
X251838457Y-94407948D01*
X252010814Y-94465400D01*
X252068266Y-94522852D01*
X253217314Y-95614448D02*
X252527886Y-95614448D01*
X252872600Y-95614448D02*
X252872600Y-94407948D01*
X252757695Y-94580305D01*
X252642790Y-94695210D01*
X252527886Y-94752662D01*
X229420338Y-94426400D02*
X229305433Y-94368948D01*
X229133076Y-94368948D01*
X228960719Y-94426400D01*
X228845814Y-94541305D01*
X228788362Y-94656210D01*
X228730910Y-94886019D01*
X228730910Y-95058376D01*
X228788362Y-95288186D01*
X228845814Y-95403090D01*
X228960719Y-95517995D01*
X229133076Y-95575448D01*
X229247981Y-95575448D01*
X229420338Y-95517995D01*
X229477790Y-95460543D01*
X229477790Y-95058376D01*
X229247981Y-95058376D01*
X229994862Y-95575448D02*
X229994862Y-94368948D01*
X230684290Y-95575448D01*
X230684290Y-94368948D01*
X231258814Y-95575448D02*
X231258814Y-94368948D01*
X231546076Y-94368948D01*
X231718433Y-94426400D01*
X231833338Y-94541305D01*
X231890790Y-94656210D01*
X231948242Y-94886019D01*
X231948242Y-95058376D01*
X231890790Y-95288186D01*
X231833338Y-95403090D01*
X231718433Y-95517995D01*
X231546076Y-95575448D01*
X231258814Y-95575448D01*
X232178052Y-95690352D02*
X233097290Y-95690352D01*
X233901623Y-94771114D02*
X233901623Y-95575448D01*
X233614361Y-94311495D02*
X233327100Y-95173281D01*
X234073980Y-95173281D01*
X234246338Y-95690352D02*
X235165576Y-95690352D01*
X236142266Y-95460543D02*
X236084814Y-95517995D01*
X235912457Y-95575448D01*
X235797552Y-95575448D01*
X235625195Y-95517995D01*
X235510290Y-95403090D01*
X235452838Y-95288186D01*
X235395386Y-95058376D01*
X235395386Y-94886019D01*
X235452838Y-94656210D01*
X235510290Y-94541305D01*
X235625195Y-94426400D01*
X235797552Y-94368948D01*
X235912457Y-94368948D01*
X236084814Y-94426400D01*
X236142266Y-94483852D01*
X237291314Y-95575448D02*
X236601886Y-95575448D01*
X236946600Y-95575448D02*
X236946600Y-94368948D01*
X236831695Y-94541305D01*
X236716790Y-94656210D01*
X236601886Y-94713662D01*
X253467790Y-119383543D02*
X253410338Y-119440995D01*
X253237981Y-119498448D01*
X253123076Y-119498448D01*
X252950719Y-119440995D01*
X252835814Y-119326090D01*
X252778362Y-119211186D01*
X252720910Y-118981376D01*
X252720910Y-118809019D01*
X252778362Y-118579210D01*
X252835814Y-118464305D01*
X252950719Y-118349400D01*
X253123076Y-118291948D01*
X253237981Y-118291948D01*
X253410338Y-118349400D01*
X253467790Y-118406852D01*
X253927410Y-119153733D02*
X254501933Y-119153733D01*
X253812505Y-119498448D02*
X254214671Y-118291948D01*
X254616838Y-119498448D01*
X255019005Y-119498448D02*
X255019005Y-118291948D01*
X255708433Y-119498448D01*
X255708433Y-118291948D01*
X256282957Y-119498448D02*
X256282957Y-118291948D01*
X256282957Y-118866471D02*
X256972385Y-118866471D01*
X256972385Y-119498448D02*
X256972385Y-118291948D01*
X257259647Y-119613352D02*
X258178885Y-119613352D01*
X258408695Y-118406852D02*
X258466147Y-118349400D01*
X258581052Y-118291948D01*
X258868314Y-118291948D01*
X258983218Y-118349400D01*
X259040671Y-118406852D01*
X259098123Y-118521757D01*
X259098123Y-118636662D01*
X259040671Y-118809019D01*
X258351242Y-119498448D01*
X259098123Y-119498448D01*
X259327933Y-119613352D02*
X260247171Y-119613352D01*
X261223861Y-119383543D02*
X261166409Y-119440995D01*
X260994052Y-119498448D01*
X260879147Y-119498448D01*
X260706790Y-119440995D01*
X260591885Y-119326090D01*
X260534433Y-119211186D01*
X260476981Y-118981376D01*
X260476981Y-118809019D01*
X260534433Y-118579210D01*
X260591885Y-118464305D01*
X260706790Y-118349400D01*
X260879147Y-118291948D01*
X260994052Y-118291948D01*
X261166409Y-118349400D01*
X261223861Y-118406852D01*
X262372909Y-119498448D02*
X261683481Y-119498448D01*
X262028195Y-119498448D02*
X262028195Y-118291948D01*
X261913290Y-118464305D01*
X261798385Y-118579210D01*
X261683481Y-118636662D01*
X221505790Y-119479543D02*
X221448338Y-119536995D01*
X221275981Y-119594448D01*
X221161076Y-119594448D01*
X220988719Y-119536995D01*
X220873814Y-119422090D01*
X220816362Y-119307186D01*
X220758910Y-119077376D01*
X220758910Y-118905019D01*
X220816362Y-118675210D01*
X220873814Y-118560305D01*
X220988719Y-118445400D01*
X221161076Y-118387948D01*
X221275981Y-118387948D01*
X221448338Y-118445400D01*
X221505790Y-118502852D01*
X221965410Y-119249733D02*
X222539933Y-119249733D01*
X221850505Y-119594448D02*
X222252671Y-118387948D01*
X222654838Y-119594448D01*
X223057005Y-119594448D02*
X223057005Y-118387948D01*
X223746433Y-119594448D01*
X223746433Y-118387948D01*
X224320957Y-119594448D02*
X224320957Y-118387948D01*
X224320957Y-118962471D02*
X225010385Y-118962471D01*
X225010385Y-119594448D02*
X225010385Y-118387948D01*
X225297647Y-119709352D02*
X226216885Y-119709352D01*
X227136123Y-119594448D02*
X226446695Y-119594448D01*
X226791409Y-119594448D02*
X226791409Y-118387948D01*
X226676504Y-118560305D01*
X226561599Y-118675210D01*
X226446695Y-118732662D01*
X227365933Y-119709352D02*
X228285171Y-119709352D01*
X229261861Y-119479543D02*
X229204409Y-119536995D01*
X229032052Y-119594448D01*
X228917147Y-119594448D01*
X228744790Y-119536995D01*
X228629885Y-119422090D01*
X228572433Y-119307186D01*
X228514981Y-119077376D01*
X228514981Y-118905019D01*
X228572433Y-118675210D01*
X228629885Y-118560305D01*
X228744790Y-118445400D01*
X228917147Y-118387948D01*
X229032052Y-118387948D01*
X229204409Y-118445400D01*
X229261861Y-118502852D01*
X230410909Y-119594448D02*
X229721481Y-119594448D01*
X230066195Y-119594448D02*
X230066195Y-118387948D01*
X229951290Y-118560305D01*
X229836385Y-118675210D01*
X229721481Y-118732662D01*
X253373790Y-87469543D02*
X253316338Y-87526995D01*
X253143981Y-87584448D01*
X253029076Y-87584448D01*
X252856719Y-87526995D01*
X252741814Y-87412090D01*
X252684362Y-87297186D01*
X252626910Y-87067376D01*
X252626910Y-86895019D01*
X252684362Y-86665210D01*
X252741814Y-86550305D01*
X252856719Y-86435400D01*
X253029076Y-86377948D01*
X253143981Y-86377948D01*
X253316338Y-86435400D01*
X253373790Y-86492852D01*
X253833410Y-87239733D02*
X254407933Y-87239733D01*
X253718505Y-87584448D02*
X254120671Y-86377948D01*
X254522838Y-87584448D01*
X254925005Y-87584448D02*
X254925005Y-86377948D01*
X255614433Y-87584448D01*
X255614433Y-86377948D01*
X256188957Y-87584448D02*
X256188957Y-86377948D01*
X256188957Y-86952471D02*
X256878385Y-86952471D01*
X256878385Y-87584448D02*
X256878385Y-86377948D01*
X257165647Y-87699352D02*
X258084885Y-87699352D01*
X258257242Y-86377948D02*
X259004123Y-86377948D01*
X258601956Y-86837567D01*
X258774314Y-86837567D01*
X258889218Y-86895019D01*
X258946671Y-86952471D01*
X259004123Y-87067376D01*
X259004123Y-87354638D01*
X258946671Y-87469543D01*
X258889218Y-87526995D01*
X258774314Y-87584448D01*
X258429599Y-87584448D01*
X258314695Y-87526995D01*
X258257242Y-87469543D01*
X259233933Y-87699352D02*
X260153171Y-87699352D01*
X261129861Y-87469543D02*
X261072409Y-87526995D01*
X260900052Y-87584448D01*
X260785147Y-87584448D01*
X260612790Y-87526995D01*
X260497885Y-87412090D01*
X260440433Y-87297186D01*
X260382981Y-87067376D01*
X260382981Y-86895019D01*
X260440433Y-86665210D01*
X260497885Y-86550305D01*
X260612790Y-86435400D01*
X260785147Y-86377948D01*
X260900052Y-86377948D01*
X261072409Y-86435400D01*
X261129861Y-86492852D01*
X262278909Y-87584448D02*
X261589481Y-87584448D01*
X261934195Y-87584448D02*
X261934195Y-86377948D01*
X261819290Y-86550305D01*
X261704385Y-86665210D01*
X261589481Y-86722662D01*
X221485790Y-87408543D02*
X221428338Y-87465995D01*
X221255981Y-87523448D01*
X221141076Y-87523448D01*
X220968719Y-87465995D01*
X220853814Y-87351090D01*
X220796362Y-87236186D01*
X220738910Y-87006376D01*
X220738910Y-86834019D01*
X220796362Y-86604210D01*
X220853814Y-86489305D01*
X220968719Y-86374400D01*
X221141076Y-86316948D01*
X221255981Y-86316948D01*
X221428338Y-86374400D01*
X221485790Y-86431852D01*
X221945410Y-87178733D02*
X222519933Y-87178733D01*
X221830505Y-87523448D02*
X222232671Y-86316948D01*
X222634838Y-87523448D01*
X223037005Y-87523448D02*
X223037005Y-86316948D01*
X223726433Y-87523448D01*
X223726433Y-86316948D01*
X224300957Y-87523448D02*
X224300957Y-86316948D01*
X224300957Y-86891471D02*
X224990385Y-86891471D01*
X224990385Y-87523448D02*
X224990385Y-86316948D01*
X225277647Y-87638352D02*
X226196885Y-87638352D01*
X227001218Y-86719114D02*
X227001218Y-87523448D01*
X226713956Y-86259495D02*
X226426695Y-87121281D01*
X227173575Y-87121281D01*
X227345933Y-87638352D02*
X228265171Y-87638352D01*
X229241861Y-87408543D02*
X229184409Y-87465995D01*
X229012052Y-87523448D01*
X228897147Y-87523448D01*
X228724790Y-87465995D01*
X228609885Y-87351090D01*
X228552433Y-87236186D01*
X228494981Y-87006376D01*
X228494981Y-86834019D01*
X228552433Y-86604210D01*
X228609885Y-86489305D01*
X228724790Y-86374400D01*
X228897147Y-86316948D01*
X229012052Y-86316948D01*
X229184409Y-86374400D01*
X229241861Y-86431852D01*
X230390909Y-87523448D02*
X229701481Y-87523448D01*
X230046195Y-87523448D02*
X230046195Y-86316948D01*
X229931290Y-86489305D01*
X229816385Y-86604210D01*
X229701481Y-86661662D01*
X190230005Y-90240948D02*
X190632171Y-91447448D01*
X191034338Y-90240948D01*
X192125933Y-91332543D02*
X192068481Y-91389995D01*
X191896124Y-91447448D01*
X191781219Y-91447448D01*
X191608862Y-91389995D01*
X191493957Y-91275090D01*
X191436505Y-91160186D01*
X191379053Y-90930376D01*
X191379053Y-90758019D01*
X191436505Y-90528210D01*
X191493957Y-90413305D01*
X191608862Y-90298400D01*
X191781219Y-90240948D01*
X191896124Y-90240948D01*
X192068481Y-90298400D01*
X192125933Y-90355852D01*
X193332433Y-91332543D02*
X193274981Y-91389995D01*
X193102624Y-91447448D01*
X192987719Y-91447448D01*
X192815362Y-91389995D01*
X192700457Y-91275090D01*
X192643005Y-91160186D01*
X192585553Y-90930376D01*
X192585553Y-90758019D01*
X192643005Y-90528210D01*
X192700457Y-90413305D01*
X192815362Y-90298400D01*
X192987719Y-90240948D01*
X193102624Y-90240948D01*
X193274981Y-90298400D01*
X193332433Y-90355852D01*
X193562243Y-91562352D02*
X194481481Y-91562352D01*
X194711291Y-90355852D02*
X194768743Y-90298400D01*
X194883648Y-90240948D01*
X195170910Y-90240948D01*
X195285814Y-90298400D01*
X195343267Y-90355852D01*
X195400719Y-90470757D01*
X195400719Y-90585662D01*
X195343267Y-90758019D01*
X194653838Y-91447448D01*
X195400719Y-91447448D01*
X195630529Y-91562352D02*
X196549767Y-91562352D01*
X197526457Y-91332543D02*
X197469005Y-91389995D01*
X197296648Y-91447448D01*
X197181743Y-91447448D01*
X197009386Y-91389995D01*
X196894481Y-91275090D01*
X196837029Y-91160186D01*
X196779577Y-90930376D01*
X196779577Y-90758019D01*
X196837029Y-90528210D01*
X196894481Y-90413305D01*
X197009386Y-90298400D01*
X197181743Y-90240948D01*
X197296648Y-90240948D01*
X197469005Y-90298400D01*
X197526457Y-90355852D01*
X197986077Y-90355852D02*
X198043529Y-90298400D01*
X198158434Y-90240948D01*
X198445696Y-90240948D01*
X198560600Y-90298400D01*
X198618053Y-90355852D01*
X198675505Y-90470757D01*
X198675505Y-90585662D01*
X198618053Y-90758019D01*
X197928624Y-91447448D01*
X198675505Y-91447448D01*
X166221005Y-114275948D02*
X166623171Y-115482448D01*
X167025338Y-114275948D01*
X168116933Y-115367543D02*
X168059481Y-115424995D01*
X167887124Y-115482448D01*
X167772219Y-115482448D01*
X167599862Y-115424995D01*
X167484957Y-115310090D01*
X167427505Y-115195186D01*
X167370053Y-114965376D01*
X167370053Y-114793019D01*
X167427505Y-114563210D01*
X167484957Y-114448305D01*
X167599862Y-114333400D01*
X167772219Y-114275948D01*
X167887124Y-114275948D01*
X168059481Y-114333400D01*
X168116933Y-114390852D01*
X169323433Y-115367543D02*
X169265981Y-115424995D01*
X169093624Y-115482448D01*
X168978719Y-115482448D01*
X168806362Y-115424995D01*
X168691457Y-115310090D01*
X168634005Y-115195186D01*
X168576553Y-114965376D01*
X168576553Y-114793019D01*
X168634005Y-114563210D01*
X168691457Y-114448305D01*
X168806362Y-114333400D01*
X168978719Y-114275948D01*
X169093624Y-114275948D01*
X169265981Y-114333400D01*
X169323433Y-114390852D01*
X169553243Y-115597352D02*
X170472481Y-115597352D01*
X171391719Y-115482448D02*
X170702291Y-115482448D01*
X171047005Y-115482448D02*
X171047005Y-114275948D01*
X170932100Y-114448305D01*
X170817195Y-114563210D01*
X170702291Y-114620662D01*
X171621529Y-115597352D02*
X172540767Y-115597352D01*
X173517457Y-115367543D02*
X173460005Y-115424995D01*
X173287648Y-115482448D01*
X173172743Y-115482448D01*
X173000386Y-115424995D01*
X172885481Y-115310090D01*
X172828029Y-115195186D01*
X172770577Y-114965376D01*
X172770577Y-114793019D01*
X172828029Y-114563210D01*
X172885481Y-114448305D01*
X173000386Y-114333400D01*
X173172743Y-114275948D01*
X173287648Y-114275948D01*
X173460005Y-114333400D01*
X173517457Y-114390852D01*
X173977077Y-114390852D02*
X174034529Y-114333400D01*
X174149434Y-114275948D01*
X174436696Y-114275948D01*
X174551600Y-114333400D01*
X174609053Y-114390852D01*
X174666505Y-114505757D01*
X174666505Y-114620662D01*
X174609053Y-114793019D01*
X173919624Y-115482448D01*
X174666505Y-115482448D01*
X171120338Y-110455400D02*
X171005433Y-110397948D01*
X170833076Y-110397948D01*
X170660719Y-110455400D01*
X170545814Y-110570305D01*
X170488362Y-110685210D01*
X170430910Y-110915019D01*
X170430910Y-111087376D01*
X170488362Y-111317186D01*
X170545814Y-111432090D01*
X170660719Y-111546995D01*
X170833076Y-111604448D01*
X170947981Y-111604448D01*
X171120338Y-111546995D01*
X171177790Y-111489543D01*
X171177790Y-111087376D01*
X170947981Y-111087376D01*
X171694862Y-111604448D02*
X171694862Y-110397948D01*
X172384290Y-111604448D01*
X172384290Y-110397948D01*
X172958814Y-111604448D02*
X172958814Y-110397948D01*
X173246076Y-110397948D01*
X173418433Y-110455400D01*
X173533338Y-110570305D01*
X173590790Y-110685210D01*
X173648242Y-110915019D01*
X173648242Y-111087376D01*
X173590790Y-111317186D01*
X173533338Y-111432090D01*
X173418433Y-111546995D01*
X173246076Y-111604448D01*
X172958814Y-111604448D01*
X173878052Y-111719352D02*
X174797290Y-111719352D01*
X175027100Y-110512852D02*
X175084552Y-110455400D01*
X175199457Y-110397948D01*
X175486719Y-110397948D01*
X175601623Y-110455400D01*
X175659076Y-110512852D01*
X175716528Y-110627757D01*
X175716528Y-110742662D01*
X175659076Y-110915019D01*
X174969647Y-111604448D01*
X175716528Y-111604448D01*
X175946338Y-111719352D02*
X176865576Y-111719352D01*
X177842266Y-111489543D02*
X177784814Y-111546995D01*
X177612457Y-111604448D01*
X177497552Y-111604448D01*
X177325195Y-111546995D01*
X177210290Y-111432090D01*
X177152838Y-111317186D01*
X177095386Y-111087376D01*
X177095386Y-110915019D01*
X177152838Y-110685210D01*
X177210290Y-110570305D01*
X177325195Y-110455400D01*
X177497552Y-110397948D01*
X177612457Y-110397948D01*
X177784814Y-110455400D01*
X177842266Y-110512852D01*
X178301886Y-110512852D02*
X178359338Y-110455400D01*
X178474243Y-110397948D01*
X178761505Y-110397948D01*
X178876409Y-110455400D01*
X178933862Y-110512852D01*
X178991314Y-110627757D01*
X178991314Y-110742662D01*
X178933862Y-110915019D01*
X178244433Y-111604448D01*
X178991314Y-111604448D01*
X187151338Y-94487400D02*
X187036433Y-94429948D01*
X186864076Y-94429948D01*
X186691719Y-94487400D01*
X186576814Y-94602305D01*
X186519362Y-94717210D01*
X186461910Y-94947019D01*
X186461910Y-95119376D01*
X186519362Y-95349186D01*
X186576814Y-95464090D01*
X186691719Y-95578995D01*
X186864076Y-95636448D01*
X186978981Y-95636448D01*
X187151338Y-95578995D01*
X187208790Y-95521543D01*
X187208790Y-95119376D01*
X186978981Y-95119376D01*
X187725862Y-95636448D02*
X187725862Y-94429948D01*
X188415290Y-95636448D01*
X188415290Y-94429948D01*
X188989814Y-95636448D02*
X188989814Y-94429948D01*
X189277076Y-94429948D01*
X189449433Y-94487400D01*
X189564338Y-94602305D01*
X189621790Y-94717210D01*
X189679242Y-94947019D01*
X189679242Y-95119376D01*
X189621790Y-95349186D01*
X189564338Y-95464090D01*
X189449433Y-95578995D01*
X189277076Y-95636448D01*
X188989814Y-95636448D01*
X189909052Y-95751352D02*
X190828290Y-95751352D01*
X191747528Y-95636448D02*
X191058100Y-95636448D01*
X191402814Y-95636448D02*
X191402814Y-94429948D01*
X191287909Y-94602305D01*
X191173004Y-94717210D01*
X191058100Y-94774662D01*
X191977338Y-95751352D02*
X192896576Y-95751352D01*
X193873266Y-95521543D02*
X193815814Y-95578995D01*
X193643457Y-95636448D01*
X193528552Y-95636448D01*
X193356195Y-95578995D01*
X193241290Y-95464090D01*
X193183838Y-95349186D01*
X193126386Y-95119376D01*
X193126386Y-94947019D01*
X193183838Y-94717210D01*
X193241290Y-94602305D01*
X193356195Y-94487400D01*
X193528552Y-94429948D01*
X193643457Y-94429948D01*
X193815814Y-94487400D01*
X193873266Y-94544852D01*
X194332886Y-94544852D02*
X194390338Y-94487400D01*
X194505243Y-94429948D01*
X194792505Y-94429948D01*
X194907409Y-94487400D01*
X194964862Y-94544852D01*
X195022314Y-94659757D01*
X195022314Y-94774662D01*
X194964862Y-94947019D01*
X194275433Y-95636448D01*
X195022314Y-95636448D01*
X195086790Y-87575543D02*
X195029338Y-87632995D01*
X194856981Y-87690448D01*
X194742076Y-87690448D01*
X194569719Y-87632995D01*
X194454814Y-87518090D01*
X194397362Y-87403186D01*
X194339910Y-87173376D01*
X194339910Y-87001019D01*
X194397362Y-86771210D01*
X194454814Y-86656305D01*
X194569719Y-86541400D01*
X194742076Y-86483948D01*
X194856981Y-86483948D01*
X195029338Y-86541400D01*
X195086790Y-86598852D01*
X195546410Y-87345733D02*
X196120933Y-87345733D01*
X195431505Y-87690448D02*
X195833671Y-86483948D01*
X196235838Y-87690448D01*
X196638005Y-87690448D02*
X196638005Y-86483948D01*
X197327433Y-87690448D01*
X197327433Y-86483948D01*
X197901957Y-87690448D02*
X197901957Y-86483948D01*
X197901957Y-87058471D02*
X198591385Y-87058471D01*
X198591385Y-87690448D02*
X198591385Y-86483948D01*
X198878647Y-87805352D02*
X199797885Y-87805352D01*
X200027695Y-86598852D02*
X200085147Y-86541400D01*
X200200052Y-86483948D01*
X200487314Y-86483948D01*
X200602218Y-86541400D01*
X200659671Y-86598852D01*
X200717123Y-86713757D01*
X200717123Y-86828662D01*
X200659671Y-87001019D01*
X199970242Y-87690448D01*
X200717123Y-87690448D01*
X200946933Y-87805352D02*
X201866171Y-87805352D01*
X202842861Y-87575543D02*
X202785409Y-87632995D01*
X202613052Y-87690448D01*
X202498147Y-87690448D01*
X202325790Y-87632995D01*
X202210885Y-87518090D01*
X202153433Y-87403186D01*
X202095981Y-87173376D01*
X202095981Y-87001019D01*
X202153433Y-86771210D01*
X202210885Y-86656305D01*
X202325790Y-86541400D01*
X202498147Y-86483948D01*
X202613052Y-86483948D01*
X202785409Y-86541400D01*
X202842861Y-86598852D01*
X203302481Y-86598852D02*
X203359933Y-86541400D01*
X203474838Y-86483948D01*
X203762100Y-86483948D01*
X203877004Y-86541400D01*
X203934457Y-86598852D01*
X203991909Y-86713757D01*
X203991909Y-86828662D01*
X203934457Y-87001019D01*
X203245028Y-87690448D01*
X203991909Y-87690448D01*
X163195790Y-119525543D02*
X163138338Y-119582995D01*
X162965981Y-119640448D01*
X162851076Y-119640448D01*
X162678719Y-119582995D01*
X162563814Y-119468090D01*
X162506362Y-119353186D01*
X162448910Y-119123376D01*
X162448910Y-118951019D01*
X162506362Y-118721210D01*
X162563814Y-118606305D01*
X162678719Y-118491400D01*
X162851076Y-118433948D01*
X162965981Y-118433948D01*
X163138338Y-118491400D01*
X163195790Y-118548852D01*
X163655410Y-119295733D02*
X164229933Y-119295733D01*
X163540505Y-119640448D02*
X163942671Y-118433948D01*
X164344838Y-119640448D01*
X164747005Y-119640448D02*
X164747005Y-118433948D01*
X165436433Y-119640448D01*
X165436433Y-118433948D01*
X166010957Y-119640448D02*
X166010957Y-118433948D01*
X166010957Y-119008471D02*
X166700385Y-119008471D01*
X166700385Y-119640448D02*
X166700385Y-118433948D01*
X166987647Y-119755352D02*
X167906885Y-119755352D01*
X168826123Y-119640448D02*
X168136695Y-119640448D01*
X168481409Y-119640448D02*
X168481409Y-118433948D01*
X168366504Y-118606305D01*
X168251599Y-118721210D01*
X168136695Y-118778662D01*
X169055933Y-119755352D02*
X169975171Y-119755352D01*
X170951861Y-119525543D02*
X170894409Y-119582995D01*
X170722052Y-119640448D01*
X170607147Y-119640448D01*
X170434790Y-119582995D01*
X170319885Y-119468090D01*
X170262433Y-119353186D01*
X170204981Y-119123376D01*
X170204981Y-118951019D01*
X170262433Y-118721210D01*
X170319885Y-118606305D01*
X170434790Y-118491400D01*
X170607147Y-118433948D01*
X170722052Y-118433948D01*
X170894409Y-118491400D01*
X170951861Y-118548852D01*
X171411481Y-118548852D02*
X171468933Y-118491400D01*
X171583838Y-118433948D01*
X171871100Y-118433948D01*
X171986004Y-118491400D01*
X172043457Y-118548852D01*
X172100909Y-118663757D01*
X172100909Y-118778662D01*
X172043457Y-118951019D01*
X171354028Y-119640448D01*
X172100909Y-119640448D01*
X129170005Y-114418948D02*
X129572171Y-115625448D01*
X129974338Y-114418948D01*
X131065933Y-115510543D02*
X131008481Y-115567995D01*
X130836124Y-115625448D01*
X130721219Y-115625448D01*
X130548862Y-115567995D01*
X130433957Y-115453090D01*
X130376505Y-115338186D01*
X130319053Y-115108376D01*
X130319053Y-114936019D01*
X130376505Y-114706210D01*
X130433957Y-114591305D01*
X130548862Y-114476400D01*
X130721219Y-114418948D01*
X130836124Y-114418948D01*
X131008481Y-114476400D01*
X131065933Y-114533852D01*
X132272433Y-115510543D02*
X132214981Y-115567995D01*
X132042624Y-115625448D01*
X131927719Y-115625448D01*
X131755362Y-115567995D01*
X131640457Y-115453090D01*
X131583005Y-115338186D01*
X131525553Y-115108376D01*
X131525553Y-114936019D01*
X131583005Y-114706210D01*
X131640457Y-114591305D01*
X131755362Y-114476400D01*
X131927719Y-114418948D01*
X132042624Y-114418948D01*
X132214981Y-114476400D01*
X132272433Y-114533852D01*
X132502243Y-115740352D02*
X133421481Y-115740352D01*
X133651291Y-114533852D02*
X133708743Y-114476400D01*
X133823648Y-114418948D01*
X134110910Y-114418948D01*
X134225814Y-114476400D01*
X134283267Y-114533852D01*
X134340719Y-114648757D01*
X134340719Y-114763662D01*
X134283267Y-114936019D01*
X133593838Y-115625448D01*
X134340719Y-115625448D01*
X134570529Y-115740352D02*
X135489767Y-115740352D01*
X136466457Y-115510543D02*
X136409005Y-115567995D01*
X136236648Y-115625448D01*
X136121743Y-115625448D01*
X135949386Y-115567995D01*
X135834481Y-115453090D01*
X135777029Y-115338186D01*
X135719577Y-115108376D01*
X135719577Y-114936019D01*
X135777029Y-114706210D01*
X135834481Y-114591305D01*
X135949386Y-114476400D01*
X136121743Y-114418948D01*
X136236648Y-114418948D01*
X136409005Y-114476400D01*
X136466457Y-114533852D01*
X136868624Y-114418948D02*
X137615505Y-114418948D01*
X137213338Y-114878567D01*
X137385696Y-114878567D01*
X137500600Y-114936019D01*
X137558053Y-114993471D01*
X137615505Y-115108376D01*
X137615505Y-115395638D01*
X137558053Y-115510543D01*
X137500600Y-115567995D01*
X137385696Y-115625448D01*
X137040981Y-115625448D01*
X136926077Y-115567995D01*
X136868624Y-115510543D01*
X105166005Y-114423948D02*
X105568171Y-115630448D01*
X105970338Y-114423948D01*
X107061933Y-115515543D02*
X107004481Y-115572995D01*
X106832124Y-115630448D01*
X106717219Y-115630448D01*
X106544862Y-115572995D01*
X106429957Y-115458090D01*
X106372505Y-115343186D01*
X106315053Y-115113376D01*
X106315053Y-114941019D01*
X106372505Y-114711210D01*
X106429957Y-114596305D01*
X106544862Y-114481400D01*
X106717219Y-114423948D01*
X106832124Y-114423948D01*
X107004481Y-114481400D01*
X107061933Y-114538852D01*
X108268433Y-115515543D02*
X108210981Y-115572995D01*
X108038624Y-115630448D01*
X107923719Y-115630448D01*
X107751362Y-115572995D01*
X107636457Y-115458090D01*
X107579005Y-115343186D01*
X107521553Y-115113376D01*
X107521553Y-114941019D01*
X107579005Y-114711210D01*
X107636457Y-114596305D01*
X107751362Y-114481400D01*
X107923719Y-114423948D01*
X108038624Y-114423948D01*
X108210981Y-114481400D01*
X108268433Y-114538852D01*
X108498243Y-115745352D02*
X109417481Y-115745352D01*
X110336719Y-115630448D02*
X109647291Y-115630448D01*
X109992005Y-115630448D02*
X109992005Y-114423948D01*
X109877100Y-114596305D01*
X109762195Y-114711210D01*
X109647291Y-114768662D01*
X110566529Y-115745352D02*
X111485767Y-115745352D01*
X112462457Y-115515543D02*
X112405005Y-115572995D01*
X112232648Y-115630448D01*
X112117743Y-115630448D01*
X111945386Y-115572995D01*
X111830481Y-115458090D01*
X111773029Y-115343186D01*
X111715577Y-115113376D01*
X111715577Y-114941019D01*
X111773029Y-114711210D01*
X111830481Y-114596305D01*
X111945386Y-114481400D01*
X112117743Y-114423948D01*
X112232648Y-114423948D01*
X112405005Y-114481400D01*
X112462457Y-114538852D01*
X112864624Y-114423948D02*
X113611505Y-114423948D01*
X113209338Y-114883567D01*
X113381696Y-114883567D01*
X113496600Y-114941019D01*
X113554053Y-114998471D01*
X113611505Y-115113376D01*
X113611505Y-115400638D01*
X113554053Y-115515543D01*
X113496600Y-115572995D01*
X113381696Y-115630448D01*
X113036981Y-115630448D01*
X112922077Y-115572995D01*
X112864624Y-115515543D01*
X129039005Y-90374948D02*
X129441171Y-91581448D01*
X129843338Y-90374948D01*
X130934933Y-91466543D02*
X130877481Y-91523995D01*
X130705124Y-91581448D01*
X130590219Y-91581448D01*
X130417862Y-91523995D01*
X130302957Y-91409090D01*
X130245505Y-91294186D01*
X130188053Y-91064376D01*
X130188053Y-90892019D01*
X130245505Y-90662210D01*
X130302957Y-90547305D01*
X130417862Y-90432400D01*
X130590219Y-90374948D01*
X130705124Y-90374948D01*
X130877481Y-90432400D01*
X130934933Y-90489852D01*
X132141433Y-91466543D02*
X132083981Y-91523995D01*
X131911624Y-91581448D01*
X131796719Y-91581448D01*
X131624362Y-91523995D01*
X131509457Y-91409090D01*
X131452005Y-91294186D01*
X131394553Y-91064376D01*
X131394553Y-90892019D01*
X131452005Y-90662210D01*
X131509457Y-90547305D01*
X131624362Y-90432400D01*
X131796719Y-90374948D01*
X131911624Y-90374948D01*
X132083981Y-90432400D01*
X132141433Y-90489852D01*
X132371243Y-91696352D02*
X133290481Y-91696352D01*
X133462838Y-90374948D02*
X134209719Y-90374948D01*
X133807552Y-90834567D01*
X133979910Y-90834567D01*
X134094814Y-90892019D01*
X134152267Y-90949471D01*
X134209719Y-91064376D01*
X134209719Y-91351638D01*
X134152267Y-91466543D01*
X134094814Y-91523995D01*
X133979910Y-91581448D01*
X133635195Y-91581448D01*
X133520291Y-91523995D01*
X133462838Y-91466543D01*
X134439529Y-91696352D02*
X135358767Y-91696352D01*
X136335457Y-91466543D02*
X136278005Y-91523995D01*
X136105648Y-91581448D01*
X135990743Y-91581448D01*
X135818386Y-91523995D01*
X135703481Y-91409090D01*
X135646029Y-91294186D01*
X135588577Y-91064376D01*
X135588577Y-90892019D01*
X135646029Y-90662210D01*
X135703481Y-90547305D01*
X135818386Y-90432400D01*
X135990743Y-90374948D01*
X136105648Y-90374948D01*
X136278005Y-90432400D01*
X136335457Y-90489852D01*
X136737624Y-90374948D02*
X137484505Y-90374948D01*
X137082338Y-90834567D01*
X137254696Y-90834567D01*
X137369600Y-90892019D01*
X137427053Y-90949471D01*
X137484505Y-91064376D01*
X137484505Y-91351638D01*
X137427053Y-91466543D01*
X137369600Y-91523995D01*
X137254696Y-91581448D01*
X136909981Y-91581448D01*
X136795077Y-91523995D01*
X136737624Y-91466543D01*
X105104005Y-90494948D02*
X105506171Y-91701448D01*
X105908338Y-90494948D01*
X106999933Y-91586543D02*
X106942481Y-91643995D01*
X106770124Y-91701448D01*
X106655219Y-91701448D01*
X106482862Y-91643995D01*
X106367957Y-91529090D01*
X106310505Y-91414186D01*
X106253053Y-91184376D01*
X106253053Y-91012019D01*
X106310505Y-90782210D01*
X106367957Y-90667305D01*
X106482862Y-90552400D01*
X106655219Y-90494948D01*
X106770124Y-90494948D01*
X106942481Y-90552400D01*
X106999933Y-90609852D01*
X108206433Y-91586543D02*
X108148981Y-91643995D01*
X107976624Y-91701448D01*
X107861719Y-91701448D01*
X107689362Y-91643995D01*
X107574457Y-91529090D01*
X107517005Y-91414186D01*
X107459553Y-91184376D01*
X107459553Y-91012019D01*
X107517005Y-90782210D01*
X107574457Y-90667305D01*
X107689362Y-90552400D01*
X107861719Y-90494948D01*
X107976624Y-90494948D01*
X108148981Y-90552400D01*
X108206433Y-90609852D01*
X108436243Y-91816352D02*
X109355481Y-91816352D01*
X110159814Y-90897114D02*
X110159814Y-91701448D01*
X109872552Y-90437495D02*
X109585291Y-91299281D01*
X110332171Y-91299281D01*
X110504529Y-91816352D02*
X111423767Y-91816352D01*
X112400457Y-91586543D02*
X112343005Y-91643995D01*
X112170648Y-91701448D01*
X112055743Y-91701448D01*
X111883386Y-91643995D01*
X111768481Y-91529090D01*
X111711029Y-91414186D01*
X111653577Y-91184376D01*
X111653577Y-91012019D01*
X111711029Y-90782210D01*
X111768481Y-90667305D01*
X111883386Y-90552400D01*
X112055743Y-90494948D01*
X112170648Y-90494948D01*
X112343005Y-90552400D01*
X112400457Y-90609852D01*
X112802624Y-90494948D02*
X113549505Y-90494948D01*
X113147338Y-90954567D01*
X113319696Y-90954567D01*
X113434600Y-91012019D01*
X113492053Y-91069471D01*
X113549505Y-91184376D01*
X113549505Y-91471638D01*
X113492053Y-91586543D01*
X113434600Y-91643995D01*
X113319696Y-91701448D01*
X112974981Y-91701448D01*
X112860077Y-91643995D01*
X112802624Y-91586543D01*
X125955338Y-110554400D02*
X125840433Y-110496948D01*
X125668076Y-110496948D01*
X125495719Y-110554400D01*
X125380814Y-110669305D01*
X125323362Y-110784210D01*
X125265910Y-111014019D01*
X125265910Y-111186376D01*
X125323362Y-111416186D01*
X125380814Y-111531090D01*
X125495719Y-111645995D01*
X125668076Y-111703448D01*
X125782981Y-111703448D01*
X125955338Y-111645995D01*
X126012790Y-111588543D01*
X126012790Y-111186376D01*
X125782981Y-111186376D01*
X126529862Y-111703448D02*
X126529862Y-110496948D01*
X127219290Y-111703448D01*
X127219290Y-110496948D01*
X127793814Y-111703448D02*
X127793814Y-110496948D01*
X128081076Y-110496948D01*
X128253433Y-110554400D01*
X128368338Y-110669305D01*
X128425790Y-110784210D01*
X128483242Y-111014019D01*
X128483242Y-111186376D01*
X128425790Y-111416186D01*
X128368338Y-111531090D01*
X128253433Y-111645995D01*
X128081076Y-111703448D01*
X127793814Y-111703448D01*
X128713052Y-111818352D02*
X129632290Y-111818352D01*
X129862100Y-110611852D02*
X129919552Y-110554400D01*
X130034457Y-110496948D01*
X130321719Y-110496948D01*
X130436623Y-110554400D01*
X130494076Y-110611852D01*
X130551528Y-110726757D01*
X130551528Y-110841662D01*
X130494076Y-111014019D01*
X129804647Y-111703448D01*
X130551528Y-111703448D01*
X130781338Y-111818352D02*
X131700576Y-111818352D01*
X132677266Y-111588543D02*
X132619814Y-111645995D01*
X132447457Y-111703448D01*
X132332552Y-111703448D01*
X132160195Y-111645995D01*
X132045290Y-111531090D01*
X131987838Y-111416186D01*
X131930386Y-111186376D01*
X131930386Y-111014019D01*
X131987838Y-110784210D01*
X132045290Y-110669305D01*
X132160195Y-110554400D01*
X132332552Y-110496948D01*
X132447457Y-110496948D01*
X132619814Y-110554400D01*
X132677266Y-110611852D01*
X133079433Y-110496948D02*
X133826314Y-110496948D01*
X133424147Y-110956567D01*
X133596505Y-110956567D01*
X133711409Y-111014019D01*
X133768862Y-111071471D01*
X133826314Y-111186376D01*
X133826314Y-111473638D01*
X133768862Y-111588543D01*
X133711409Y-111645995D01*
X133596505Y-111703448D01*
X133251790Y-111703448D01*
X133136886Y-111645995D01*
X133079433Y-111588543D01*
X110047338Y-110542400D02*
X109932433Y-110484948D01*
X109760076Y-110484948D01*
X109587719Y-110542400D01*
X109472814Y-110657305D01*
X109415362Y-110772210D01*
X109357910Y-111002019D01*
X109357910Y-111174376D01*
X109415362Y-111404186D01*
X109472814Y-111519090D01*
X109587719Y-111633995D01*
X109760076Y-111691448D01*
X109874981Y-111691448D01*
X110047338Y-111633995D01*
X110104790Y-111576543D01*
X110104790Y-111174376D01*
X109874981Y-111174376D01*
X110621862Y-111691448D02*
X110621862Y-110484948D01*
X111311290Y-111691448D01*
X111311290Y-110484948D01*
X111885814Y-111691448D02*
X111885814Y-110484948D01*
X112173076Y-110484948D01*
X112345433Y-110542400D01*
X112460338Y-110657305D01*
X112517790Y-110772210D01*
X112575242Y-111002019D01*
X112575242Y-111174376D01*
X112517790Y-111404186D01*
X112460338Y-111519090D01*
X112345433Y-111633995D01*
X112173076Y-111691448D01*
X111885814Y-111691448D01*
X112805052Y-111806352D02*
X113724290Y-111806352D01*
X114643528Y-111691448D02*
X113954100Y-111691448D01*
X114298814Y-111691448D02*
X114298814Y-110484948D01*
X114183909Y-110657305D01*
X114069004Y-110772210D01*
X113954100Y-110829662D01*
X114873338Y-111806352D02*
X115792576Y-111806352D01*
X116769266Y-111576543D02*
X116711814Y-111633995D01*
X116539457Y-111691448D01*
X116424552Y-111691448D01*
X116252195Y-111633995D01*
X116137290Y-111519090D01*
X116079838Y-111404186D01*
X116022386Y-111174376D01*
X116022386Y-111002019D01*
X116079838Y-110772210D01*
X116137290Y-110657305D01*
X116252195Y-110542400D01*
X116424552Y-110484948D01*
X116539457Y-110484948D01*
X116711814Y-110542400D01*
X116769266Y-110599852D01*
X117171433Y-110484948D02*
X117918314Y-110484948D01*
X117516147Y-110944567D01*
X117688505Y-110944567D01*
X117803409Y-111002019D01*
X117860862Y-111059471D01*
X117918314Y-111174376D01*
X117918314Y-111461638D01*
X117860862Y-111576543D01*
X117803409Y-111633995D01*
X117688505Y-111691448D01*
X117343790Y-111691448D01*
X117228886Y-111633995D01*
X117171433Y-111576543D01*
X126043338Y-94560400D02*
X125928433Y-94502948D01*
X125756076Y-94502948D01*
X125583719Y-94560400D01*
X125468814Y-94675305D01*
X125411362Y-94790210D01*
X125353910Y-95020019D01*
X125353910Y-95192376D01*
X125411362Y-95422186D01*
X125468814Y-95537090D01*
X125583719Y-95651995D01*
X125756076Y-95709448D01*
X125870981Y-95709448D01*
X126043338Y-95651995D01*
X126100790Y-95594543D01*
X126100790Y-95192376D01*
X125870981Y-95192376D01*
X126617862Y-95709448D02*
X126617862Y-94502948D01*
X127307290Y-95709448D01*
X127307290Y-94502948D01*
X127881814Y-95709448D02*
X127881814Y-94502948D01*
X128169076Y-94502948D01*
X128341433Y-94560400D01*
X128456338Y-94675305D01*
X128513790Y-94790210D01*
X128571242Y-95020019D01*
X128571242Y-95192376D01*
X128513790Y-95422186D01*
X128456338Y-95537090D01*
X128341433Y-95651995D01*
X128169076Y-95709448D01*
X127881814Y-95709448D01*
X128801052Y-95824352D02*
X129720290Y-95824352D01*
X129892647Y-94502948D02*
X130639528Y-94502948D01*
X130237361Y-94962567D01*
X130409719Y-94962567D01*
X130524623Y-95020019D01*
X130582076Y-95077471D01*
X130639528Y-95192376D01*
X130639528Y-95479638D01*
X130582076Y-95594543D01*
X130524623Y-95651995D01*
X130409719Y-95709448D01*
X130065004Y-95709448D01*
X129950100Y-95651995D01*
X129892647Y-95594543D01*
X130869338Y-95824352D02*
X131788576Y-95824352D01*
X132765266Y-95594543D02*
X132707814Y-95651995D01*
X132535457Y-95709448D01*
X132420552Y-95709448D01*
X132248195Y-95651995D01*
X132133290Y-95537090D01*
X132075838Y-95422186D01*
X132018386Y-95192376D01*
X132018386Y-95020019D01*
X132075838Y-94790210D01*
X132133290Y-94675305D01*
X132248195Y-94560400D01*
X132420552Y-94502948D01*
X132535457Y-94502948D01*
X132707814Y-94560400D01*
X132765266Y-94617852D01*
X133167433Y-94502948D02*
X133914314Y-94502948D01*
X133512147Y-94962567D01*
X133684505Y-94962567D01*
X133799409Y-95020019D01*
X133856862Y-95077471D01*
X133914314Y-95192376D01*
X133914314Y-95479638D01*
X133856862Y-95594543D01*
X133799409Y-95651995D01*
X133684505Y-95709448D01*
X133339790Y-95709448D01*
X133224886Y-95651995D01*
X133167433Y-95594543D01*
X109912338Y-94562400D02*
X109797433Y-94504948D01*
X109625076Y-94504948D01*
X109452719Y-94562400D01*
X109337814Y-94677305D01*
X109280362Y-94792210D01*
X109222910Y-95022019D01*
X109222910Y-95194376D01*
X109280362Y-95424186D01*
X109337814Y-95539090D01*
X109452719Y-95653995D01*
X109625076Y-95711448D01*
X109739981Y-95711448D01*
X109912338Y-95653995D01*
X109969790Y-95596543D01*
X109969790Y-95194376D01*
X109739981Y-95194376D01*
X110486862Y-95711448D02*
X110486862Y-94504948D01*
X111176290Y-95711448D01*
X111176290Y-94504948D01*
X111750814Y-95711448D02*
X111750814Y-94504948D01*
X112038076Y-94504948D01*
X112210433Y-94562400D01*
X112325338Y-94677305D01*
X112382790Y-94792210D01*
X112440242Y-95022019D01*
X112440242Y-95194376D01*
X112382790Y-95424186D01*
X112325338Y-95539090D01*
X112210433Y-95653995D01*
X112038076Y-95711448D01*
X111750814Y-95711448D01*
X112670052Y-95826352D02*
X113589290Y-95826352D01*
X114393623Y-94907114D02*
X114393623Y-95711448D01*
X114106361Y-94447495D02*
X113819100Y-95309281D01*
X114565980Y-95309281D01*
X114738338Y-95826352D02*
X115657576Y-95826352D01*
X116634266Y-95596543D02*
X116576814Y-95653995D01*
X116404457Y-95711448D01*
X116289552Y-95711448D01*
X116117195Y-95653995D01*
X116002290Y-95539090D01*
X115944838Y-95424186D01*
X115887386Y-95194376D01*
X115887386Y-95022019D01*
X115944838Y-94792210D01*
X116002290Y-94677305D01*
X116117195Y-94562400D01*
X116289552Y-94504948D01*
X116404457Y-94504948D01*
X116576814Y-94562400D01*
X116634266Y-94619852D01*
X117036433Y-94504948D02*
X117783314Y-94504948D01*
X117381147Y-94964567D01*
X117553505Y-94964567D01*
X117668409Y-95022019D01*
X117725862Y-95079471D01*
X117783314Y-95194376D01*
X117783314Y-95481638D01*
X117725862Y-95596543D01*
X117668409Y-95653995D01*
X117553505Y-95711448D01*
X117208790Y-95711448D01*
X117093886Y-95653995D01*
X117036433Y-95596543D01*
X133994790Y-119583543D02*
X133937338Y-119640995D01*
X133764981Y-119698448D01*
X133650076Y-119698448D01*
X133477719Y-119640995D01*
X133362814Y-119526090D01*
X133305362Y-119411186D01*
X133247910Y-119181376D01*
X133247910Y-119009019D01*
X133305362Y-118779210D01*
X133362814Y-118664305D01*
X133477719Y-118549400D01*
X133650076Y-118491948D01*
X133764981Y-118491948D01*
X133937338Y-118549400D01*
X133994790Y-118606852D01*
X134454410Y-119353733D02*
X135028933Y-119353733D01*
X134339505Y-119698448D02*
X134741671Y-118491948D01*
X135143838Y-119698448D01*
X135546005Y-119698448D02*
X135546005Y-118491948D01*
X136235433Y-119698448D01*
X136235433Y-118491948D01*
X136809957Y-119698448D02*
X136809957Y-118491948D01*
X136809957Y-119066471D02*
X137499385Y-119066471D01*
X137499385Y-119698448D02*
X137499385Y-118491948D01*
X137786647Y-119813352D02*
X138705885Y-119813352D01*
X138935695Y-118606852D02*
X138993147Y-118549400D01*
X139108052Y-118491948D01*
X139395314Y-118491948D01*
X139510218Y-118549400D01*
X139567671Y-118606852D01*
X139625123Y-118721757D01*
X139625123Y-118836662D01*
X139567671Y-119009019D01*
X138878242Y-119698448D01*
X139625123Y-119698448D01*
X139854933Y-119813352D02*
X140774171Y-119813352D01*
X141750861Y-119583543D02*
X141693409Y-119640995D01*
X141521052Y-119698448D01*
X141406147Y-119698448D01*
X141233790Y-119640995D01*
X141118885Y-119526090D01*
X141061433Y-119411186D01*
X141003981Y-119181376D01*
X141003981Y-119009019D01*
X141061433Y-118779210D01*
X141118885Y-118664305D01*
X141233790Y-118549400D01*
X141406147Y-118491948D01*
X141521052Y-118491948D01*
X141693409Y-118549400D01*
X141750861Y-118606852D01*
X142153028Y-118491948D02*
X142899909Y-118491948D01*
X142497742Y-118951567D01*
X142670100Y-118951567D01*
X142785004Y-119009019D01*
X142842457Y-119066471D01*
X142899909Y-119181376D01*
X142899909Y-119468638D01*
X142842457Y-119583543D01*
X142785004Y-119640995D01*
X142670100Y-119698448D01*
X142325385Y-119698448D01*
X142210481Y-119640995D01*
X142153028Y-119583543D01*
X102106790Y-119584543D02*
X102049338Y-119641995D01*
X101876981Y-119699448D01*
X101762076Y-119699448D01*
X101589719Y-119641995D01*
X101474814Y-119527090D01*
X101417362Y-119412186D01*
X101359910Y-119182376D01*
X101359910Y-119010019D01*
X101417362Y-118780210D01*
X101474814Y-118665305D01*
X101589719Y-118550400D01*
X101762076Y-118492948D01*
X101876981Y-118492948D01*
X102049338Y-118550400D01*
X102106790Y-118607852D01*
X102566410Y-119354733D02*
X103140933Y-119354733D01*
X102451505Y-119699448D02*
X102853671Y-118492948D01*
X103255838Y-119699448D01*
X103658005Y-119699448D02*
X103658005Y-118492948D01*
X104347433Y-119699448D01*
X104347433Y-118492948D01*
X104921957Y-119699448D02*
X104921957Y-118492948D01*
X104921957Y-119067471D02*
X105611385Y-119067471D01*
X105611385Y-119699448D02*
X105611385Y-118492948D01*
X105898647Y-119814352D02*
X106817885Y-119814352D01*
X107737123Y-119699448D02*
X107047695Y-119699448D01*
X107392409Y-119699448D02*
X107392409Y-118492948D01*
X107277504Y-118665305D01*
X107162599Y-118780210D01*
X107047695Y-118837662D01*
X107966933Y-119814352D02*
X108886171Y-119814352D01*
X109862861Y-119584543D02*
X109805409Y-119641995D01*
X109633052Y-119699448D01*
X109518147Y-119699448D01*
X109345790Y-119641995D01*
X109230885Y-119527090D01*
X109173433Y-119412186D01*
X109115981Y-119182376D01*
X109115981Y-119010019D01*
X109173433Y-118780210D01*
X109230885Y-118665305D01*
X109345790Y-118550400D01*
X109518147Y-118492948D01*
X109633052Y-118492948D01*
X109805409Y-118550400D01*
X109862861Y-118607852D01*
X110265028Y-118492948D02*
X111011909Y-118492948D01*
X110609742Y-118952567D01*
X110782100Y-118952567D01*
X110897004Y-119010019D01*
X110954457Y-119067471D01*
X111011909Y-119182376D01*
X111011909Y-119469638D01*
X110954457Y-119584543D01*
X110897004Y-119641995D01*
X110782100Y-119699448D01*
X110437385Y-119699448D01*
X110322481Y-119641995D01*
X110265028Y-119584543D01*
X134045790Y-87601543D02*
X133988338Y-87658995D01*
X133815981Y-87716448D01*
X133701076Y-87716448D01*
X133528719Y-87658995D01*
X133413814Y-87544090D01*
X133356362Y-87429186D01*
X133298910Y-87199376D01*
X133298910Y-87027019D01*
X133356362Y-86797210D01*
X133413814Y-86682305D01*
X133528719Y-86567400D01*
X133701076Y-86509948D01*
X133815981Y-86509948D01*
X133988338Y-86567400D01*
X134045790Y-86624852D01*
X134505410Y-87371733D02*
X135079933Y-87371733D01*
X134390505Y-87716448D02*
X134792671Y-86509948D01*
X135194838Y-87716448D01*
X135597005Y-87716448D02*
X135597005Y-86509948D01*
X136286433Y-87716448D01*
X136286433Y-86509948D01*
X136860957Y-87716448D02*
X136860957Y-86509948D01*
X136860957Y-87084471D02*
X137550385Y-87084471D01*
X137550385Y-87716448D02*
X137550385Y-86509948D01*
X137837647Y-87831352D02*
X138756885Y-87831352D01*
X138929242Y-86509948D02*
X139676123Y-86509948D01*
X139273956Y-86969567D01*
X139446314Y-86969567D01*
X139561218Y-87027019D01*
X139618671Y-87084471D01*
X139676123Y-87199376D01*
X139676123Y-87486638D01*
X139618671Y-87601543D01*
X139561218Y-87658995D01*
X139446314Y-87716448D01*
X139101599Y-87716448D01*
X138986695Y-87658995D01*
X138929242Y-87601543D01*
X139905933Y-87831352D02*
X140825171Y-87831352D01*
X141801861Y-87601543D02*
X141744409Y-87658995D01*
X141572052Y-87716448D01*
X141457147Y-87716448D01*
X141284790Y-87658995D01*
X141169885Y-87544090D01*
X141112433Y-87429186D01*
X141054981Y-87199376D01*
X141054981Y-87027019D01*
X141112433Y-86797210D01*
X141169885Y-86682305D01*
X141284790Y-86567400D01*
X141457147Y-86509948D01*
X141572052Y-86509948D01*
X141744409Y-86567400D01*
X141801861Y-86624852D01*
X142204028Y-86509948D02*
X142950909Y-86509948D01*
X142548742Y-86969567D01*
X142721100Y-86969567D01*
X142836004Y-87027019D01*
X142893457Y-87084471D01*
X142950909Y-87199376D01*
X142950909Y-87486638D01*
X142893457Y-87601543D01*
X142836004Y-87658995D01*
X142721100Y-87716448D01*
X142376385Y-87716448D01*
X142261481Y-87658995D01*
X142204028Y-87601543D01*
X101978790Y-87576543D02*
X101921338Y-87633995D01*
X101748981Y-87691448D01*
X101634076Y-87691448D01*
X101461719Y-87633995D01*
X101346814Y-87519090D01*
X101289362Y-87404186D01*
X101231910Y-87174376D01*
X101231910Y-87002019D01*
X101289362Y-86772210D01*
X101346814Y-86657305D01*
X101461719Y-86542400D01*
X101634076Y-86484948D01*
X101748981Y-86484948D01*
X101921338Y-86542400D01*
X101978790Y-86599852D01*
X102438410Y-87346733D02*
X103012933Y-87346733D01*
X102323505Y-87691448D02*
X102725671Y-86484948D01*
X103127838Y-87691448D01*
X103530005Y-87691448D02*
X103530005Y-86484948D01*
X104219433Y-87691448D01*
X104219433Y-86484948D01*
X104793957Y-87691448D02*
X104793957Y-86484948D01*
X104793957Y-87059471D02*
X105483385Y-87059471D01*
X105483385Y-87691448D02*
X105483385Y-86484948D01*
X105770647Y-87806352D02*
X106689885Y-87806352D01*
X107494218Y-86887114D02*
X107494218Y-87691448D01*
X107206956Y-86427495D02*
X106919695Y-87289281D01*
X107666575Y-87289281D01*
X107838933Y-87806352D02*
X108758171Y-87806352D01*
X109734861Y-87576543D02*
X109677409Y-87633995D01*
X109505052Y-87691448D01*
X109390147Y-87691448D01*
X109217790Y-87633995D01*
X109102885Y-87519090D01*
X109045433Y-87404186D01*
X108987981Y-87174376D01*
X108987981Y-87002019D01*
X109045433Y-86772210D01*
X109102885Y-86657305D01*
X109217790Y-86542400D01*
X109390147Y-86484948D01*
X109505052Y-86484948D01*
X109677409Y-86542400D01*
X109734861Y-86599852D01*
X110137028Y-86484948D02*
X110883909Y-86484948D01*
X110481742Y-86944567D01*
X110654100Y-86944567D01*
X110769004Y-87002019D01*
X110826457Y-87059471D01*
X110883909Y-87174376D01*
X110883909Y-87461638D01*
X110826457Y-87576543D01*
X110769004Y-87633995D01*
X110654100Y-87691448D01*
X110309385Y-87691448D01*
X110194481Y-87633995D01*
X110137028Y-87576543D01*
X70246205Y-113656348D02*
X70648371Y-114862848D01*
X71050538Y-113656348D01*
X72142133Y-114747943D02*
X72084681Y-114805395D01*
X71912324Y-114862848D01*
X71797419Y-114862848D01*
X71625062Y-114805395D01*
X71510157Y-114690490D01*
X71452705Y-114575586D01*
X71395253Y-114345776D01*
X71395253Y-114173419D01*
X71452705Y-113943610D01*
X71510157Y-113828705D01*
X71625062Y-113713800D01*
X71797419Y-113656348D01*
X71912324Y-113656348D01*
X72084681Y-113713800D01*
X72142133Y-113771252D01*
X73348633Y-114747943D02*
X73291181Y-114805395D01*
X73118824Y-114862848D01*
X73003919Y-114862848D01*
X72831562Y-114805395D01*
X72716657Y-114690490D01*
X72659205Y-114575586D01*
X72601753Y-114345776D01*
X72601753Y-114173419D01*
X72659205Y-113943610D01*
X72716657Y-113828705D01*
X72831562Y-113713800D01*
X73003919Y-113656348D01*
X73118824Y-113656348D01*
X73291181Y-113713800D01*
X73348633Y-113771252D01*
X73578443Y-114977752D02*
X74497681Y-114977752D01*
X74727491Y-113771252D02*
X74784943Y-113713800D01*
X74899848Y-113656348D01*
X75187110Y-113656348D01*
X75302014Y-113713800D01*
X75359467Y-113771252D01*
X75416919Y-113886157D01*
X75416919Y-114001062D01*
X75359467Y-114173419D01*
X74670038Y-114862848D01*
X75416919Y-114862848D01*
X75646729Y-114977752D02*
X76565967Y-114977752D01*
X77542657Y-114747943D02*
X77485205Y-114805395D01*
X77312848Y-114862848D01*
X77197943Y-114862848D01*
X77025586Y-114805395D01*
X76910681Y-114690490D01*
X76853229Y-114575586D01*
X76795777Y-114345776D01*
X76795777Y-114173419D01*
X76853229Y-113943610D01*
X76910681Y-113828705D01*
X77025586Y-113713800D01*
X77197943Y-113656348D01*
X77312848Y-113656348D01*
X77485205Y-113713800D01*
X77542657Y-113771252D01*
X78576800Y-114058514D02*
X78576800Y-114862848D01*
X78289538Y-113598895D02*
X78002277Y-114460681D01*
X78749157Y-114460681D01*
X46106205Y-113837348D02*
X46508371Y-115043848D01*
X46910538Y-113837348D01*
X48002133Y-114928943D02*
X47944681Y-114986395D01*
X47772324Y-115043848D01*
X47657419Y-115043848D01*
X47485062Y-114986395D01*
X47370157Y-114871490D01*
X47312705Y-114756586D01*
X47255253Y-114526776D01*
X47255253Y-114354419D01*
X47312705Y-114124610D01*
X47370157Y-114009705D01*
X47485062Y-113894800D01*
X47657419Y-113837348D01*
X47772324Y-113837348D01*
X47944681Y-113894800D01*
X48002133Y-113952252D01*
X49208633Y-114928943D02*
X49151181Y-114986395D01*
X48978824Y-115043848D01*
X48863919Y-115043848D01*
X48691562Y-114986395D01*
X48576657Y-114871490D01*
X48519205Y-114756586D01*
X48461753Y-114526776D01*
X48461753Y-114354419D01*
X48519205Y-114124610D01*
X48576657Y-114009705D01*
X48691562Y-113894800D01*
X48863919Y-113837348D01*
X48978824Y-113837348D01*
X49151181Y-113894800D01*
X49208633Y-113952252D01*
X49438443Y-115158752D02*
X50357681Y-115158752D01*
X51276919Y-115043848D02*
X50587491Y-115043848D01*
X50932205Y-115043848D02*
X50932205Y-113837348D01*
X50817300Y-114009705D01*
X50702395Y-114124610D01*
X50587491Y-114182062D01*
X51506729Y-115158752D02*
X52425967Y-115158752D01*
X53402657Y-114928943D02*
X53345205Y-114986395D01*
X53172848Y-115043848D01*
X53057943Y-115043848D01*
X52885586Y-114986395D01*
X52770681Y-114871490D01*
X52713229Y-114756586D01*
X52655777Y-114526776D01*
X52655777Y-114354419D01*
X52713229Y-114124610D01*
X52770681Y-114009705D01*
X52885586Y-113894800D01*
X53057943Y-113837348D01*
X53172848Y-113837348D01*
X53345205Y-113894800D01*
X53402657Y-113952252D01*
X54436800Y-114239514D02*
X54436800Y-115043848D01*
X54149538Y-113779895D02*
X53862277Y-114641681D01*
X54609157Y-114641681D01*
X70135205Y-89787348D02*
X70537371Y-90993848D01*
X70939538Y-89787348D01*
X72031133Y-90878943D02*
X71973681Y-90936395D01*
X71801324Y-90993848D01*
X71686419Y-90993848D01*
X71514062Y-90936395D01*
X71399157Y-90821490D01*
X71341705Y-90706586D01*
X71284253Y-90476776D01*
X71284253Y-90304419D01*
X71341705Y-90074610D01*
X71399157Y-89959705D01*
X71514062Y-89844800D01*
X71686419Y-89787348D01*
X71801324Y-89787348D01*
X71973681Y-89844800D01*
X72031133Y-89902252D01*
X73237633Y-90878943D02*
X73180181Y-90936395D01*
X73007824Y-90993848D01*
X72892919Y-90993848D01*
X72720562Y-90936395D01*
X72605657Y-90821490D01*
X72548205Y-90706586D01*
X72490753Y-90476776D01*
X72490753Y-90304419D01*
X72548205Y-90074610D01*
X72605657Y-89959705D01*
X72720562Y-89844800D01*
X72892919Y-89787348D01*
X73007824Y-89787348D01*
X73180181Y-89844800D01*
X73237633Y-89902252D01*
X73467443Y-91108752D02*
X74386681Y-91108752D01*
X74559038Y-89787348D02*
X75305919Y-89787348D01*
X74903752Y-90246967D01*
X75076110Y-90246967D01*
X75191014Y-90304419D01*
X75248467Y-90361871D01*
X75305919Y-90476776D01*
X75305919Y-90764038D01*
X75248467Y-90878943D01*
X75191014Y-90936395D01*
X75076110Y-90993848D01*
X74731395Y-90993848D01*
X74616491Y-90936395D01*
X74559038Y-90878943D01*
X75535729Y-91108752D02*
X76454967Y-91108752D01*
X77431657Y-90878943D02*
X77374205Y-90936395D01*
X77201848Y-90993848D01*
X77086943Y-90993848D01*
X76914586Y-90936395D01*
X76799681Y-90821490D01*
X76742229Y-90706586D01*
X76684777Y-90476776D01*
X76684777Y-90304419D01*
X76742229Y-90074610D01*
X76799681Y-89959705D01*
X76914586Y-89844800D01*
X77086943Y-89787348D01*
X77201848Y-89787348D01*
X77374205Y-89844800D01*
X77431657Y-89902252D01*
X78465800Y-90189514D02*
X78465800Y-90993848D01*
X78178538Y-89729895D02*
X77891277Y-90591681D01*
X78638157Y-90591681D01*
X46185205Y-89727348D02*
X46587371Y-90933848D01*
X46989538Y-89727348D01*
X48081133Y-90818943D02*
X48023681Y-90876395D01*
X47851324Y-90933848D01*
X47736419Y-90933848D01*
X47564062Y-90876395D01*
X47449157Y-90761490D01*
X47391705Y-90646586D01*
X47334253Y-90416776D01*
X47334253Y-90244419D01*
X47391705Y-90014610D01*
X47449157Y-89899705D01*
X47564062Y-89784800D01*
X47736419Y-89727348D01*
X47851324Y-89727348D01*
X48023681Y-89784800D01*
X48081133Y-89842252D01*
X49287633Y-90818943D02*
X49230181Y-90876395D01*
X49057824Y-90933848D01*
X48942919Y-90933848D01*
X48770562Y-90876395D01*
X48655657Y-90761490D01*
X48598205Y-90646586D01*
X48540753Y-90416776D01*
X48540753Y-90244419D01*
X48598205Y-90014610D01*
X48655657Y-89899705D01*
X48770562Y-89784800D01*
X48942919Y-89727348D01*
X49057824Y-89727348D01*
X49230181Y-89784800D01*
X49287633Y-89842252D01*
X49517443Y-91048752D02*
X50436681Y-91048752D01*
X51241014Y-90129514D02*
X51241014Y-90933848D01*
X50953752Y-89669895D02*
X50666491Y-90531681D01*
X51413371Y-90531681D01*
X51585729Y-91048752D02*
X52504967Y-91048752D01*
X53481657Y-90818943D02*
X53424205Y-90876395D01*
X53251848Y-90933848D01*
X53136943Y-90933848D01*
X52964586Y-90876395D01*
X52849681Y-90761490D01*
X52792229Y-90646586D01*
X52734777Y-90416776D01*
X52734777Y-90244419D01*
X52792229Y-90014610D01*
X52849681Y-89899705D01*
X52964586Y-89784800D01*
X53136943Y-89727348D01*
X53251848Y-89727348D01*
X53424205Y-89784800D01*
X53481657Y-89842252D01*
X54515800Y-90129514D02*
X54515800Y-90933848D01*
X54228538Y-89669895D02*
X53941277Y-90531681D01*
X54688157Y-90531681D01*
X67005538Y-109740800D02*
X66890633Y-109683348D01*
X66718276Y-109683348D01*
X66545919Y-109740800D01*
X66431014Y-109855705D01*
X66373562Y-109970610D01*
X66316110Y-110200419D01*
X66316110Y-110372776D01*
X66373562Y-110602586D01*
X66431014Y-110717490D01*
X66545919Y-110832395D01*
X66718276Y-110889848D01*
X66833181Y-110889848D01*
X67005538Y-110832395D01*
X67062990Y-110774943D01*
X67062990Y-110372776D01*
X66833181Y-110372776D01*
X67580062Y-110889848D02*
X67580062Y-109683348D01*
X68269490Y-110889848D01*
X68269490Y-109683348D01*
X68844014Y-110889848D02*
X68844014Y-109683348D01*
X69131276Y-109683348D01*
X69303633Y-109740800D01*
X69418538Y-109855705D01*
X69475990Y-109970610D01*
X69533442Y-110200419D01*
X69533442Y-110372776D01*
X69475990Y-110602586D01*
X69418538Y-110717490D01*
X69303633Y-110832395D01*
X69131276Y-110889848D01*
X68844014Y-110889848D01*
X69763252Y-111004752D02*
X70682490Y-111004752D01*
X70912300Y-109798252D02*
X70969752Y-109740800D01*
X71084657Y-109683348D01*
X71371919Y-109683348D01*
X71486823Y-109740800D01*
X71544276Y-109798252D01*
X71601728Y-109913157D01*
X71601728Y-110028062D01*
X71544276Y-110200419D01*
X70854847Y-110889848D01*
X71601728Y-110889848D01*
X71831538Y-111004752D02*
X72750776Y-111004752D01*
X73727466Y-110774943D02*
X73670014Y-110832395D01*
X73497657Y-110889848D01*
X73382752Y-110889848D01*
X73210395Y-110832395D01*
X73095490Y-110717490D01*
X73038038Y-110602586D01*
X72980586Y-110372776D01*
X72980586Y-110200419D01*
X73038038Y-109970610D01*
X73095490Y-109855705D01*
X73210395Y-109740800D01*
X73382752Y-109683348D01*
X73497657Y-109683348D01*
X73670014Y-109740800D01*
X73727466Y-109798252D01*
X74761609Y-110085514D02*
X74761609Y-110889848D01*
X74474347Y-109625895D02*
X74187086Y-110487681D01*
X74933966Y-110487681D01*
X51013538Y-109728800D02*
X50898633Y-109671348D01*
X50726276Y-109671348D01*
X50553919Y-109728800D01*
X50439014Y-109843705D01*
X50381562Y-109958610D01*
X50324110Y-110188419D01*
X50324110Y-110360776D01*
X50381562Y-110590586D01*
X50439014Y-110705490D01*
X50553919Y-110820395D01*
X50726276Y-110877848D01*
X50841181Y-110877848D01*
X51013538Y-110820395D01*
X51070990Y-110762943D01*
X51070990Y-110360776D01*
X50841181Y-110360776D01*
X51588062Y-110877848D02*
X51588062Y-109671348D01*
X52277490Y-110877848D01*
X52277490Y-109671348D01*
X52852014Y-110877848D02*
X52852014Y-109671348D01*
X53139276Y-109671348D01*
X53311633Y-109728800D01*
X53426538Y-109843705D01*
X53483990Y-109958610D01*
X53541442Y-110188419D01*
X53541442Y-110360776D01*
X53483990Y-110590586D01*
X53426538Y-110705490D01*
X53311633Y-110820395D01*
X53139276Y-110877848D01*
X52852014Y-110877848D01*
X53771252Y-110992752D02*
X54690490Y-110992752D01*
X55609728Y-110877848D02*
X54920300Y-110877848D01*
X55265014Y-110877848D02*
X55265014Y-109671348D01*
X55150109Y-109843705D01*
X55035204Y-109958610D01*
X54920300Y-110016062D01*
X55839538Y-110992752D02*
X56758776Y-110992752D01*
X57735466Y-110762943D02*
X57678014Y-110820395D01*
X57505657Y-110877848D01*
X57390752Y-110877848D01*
X57218395Y-110820395D01*
X57103490Y-110705490D01*
X57046038Y-110590586D01*
X56988586Y-110360776D01*
X56988586Y-110188419D01*
X57046038Y-109958610D01*
X57103490Y-109843705D01*
X57218395Y-109728800D01*
X57390752Y-109671348D01*
X57505657Y-109671348D01*
X57678014Y-109728800D01*
X57735466Y-109786252D01*
X58769609Y-110073514D02*
X58769609Y-110877848D01*
X58482347Y-109613895D02*
X58195086Y-110475681D01*
X58941966Y-110475681D01*
X67054538Y-93723800D02*
X66939633Y-93666348D01*
X66767276Y-93666348D01*
X66594919Y-93723800D01*
X66480014Y-93838705D01*
X66422562Y-93953610D01*
X66365110Y-94183419D01*
X66365110Y-94355776D01*
X66422562Y-94585586D01*
X66480014Y-94700490D01*
X66594919Y-94815395D01*
X66767276Y-94872848D01*
X66882181Y-94872848D01*
X67054538Y-94815395D01*
X67111990Y-94757943D01*
X67111990Y-94355776D01*
X66882181Y-94355776D01*
X67629062Y-94872848D02*
X67629062Y-93666348D01*
X68318490Y-94872848D01*
X68318490Y-93666348D01*
X68893014Y-94872848D02*
X68893014Y-93666348D01*
X69180276Y-93666348D01*
X69352633Y-93723800D01*
X69467538Y-93838705D01*
X69524990Y-93953610D01*
X69582442Y-94183419D01*
X69582442Y-94355776D01*
X69524990Y-94585586D01*
X69467538Y-94700490D01*
X69352633Y-94815395D01*
X69180276Y-94872848D01*
X68893014Y-94872848D01*
X69812252Y-94987752D02*
X70731490Y-94987752D01*
X70903847Y-93666348D02*
X71650728Y-93666348D01*
X71248561Y-94125967D01*
X71420919Y-94125967D01*
X71535823Y-94183419D01*
X71593276Y-94240871D01*
X71650728Y-94355776D01*
X71650728Y-94643038D01*
X71593276Y-94757943D01*
X71535823Y-94815395D01*
X71420919Y-94872848D01*
X71076204Y-94872848D01*
X70961300Y-94815395D01*
X70903847Y-94757943D01*
X71880538Y-94987752D02*
X72799776Y-94987752D01*
X73776466Y-94757943D02*
X73719014Y-94815395D01*
X73546657Y-94872848D01*
X73431752Y-94872848D01*
X73259395Y-94815395D01*
X73144490Y-94700490D01*
X73087038Y-94585586D01*
X73029586Y-94355776D01*
X73029586Y-94183419D01*
X73087038Y-93953610D01*
X73144490Y-93838705D01*
X73259395Y-93723800D01*
X73431752Y-93666348D01*
X73546657Y-93666348D01*
X73719014Y-93723800D01*
X73776466Y-93781252D01*
X74810609Y-94068514D02*
X74810609Y-94872848D01*
X74523347Y-93608895D02*
X74236086Y-94470681D01*
X74982966Y-94470681D01*
X50907538Y-93749800D02*
X50792633Y-93692348D01*
X50620276Y-93692348D01*
X50447919Y-93749800D01*
X50333014Y-93864705D01*
X50275562Y-93979610D01*
X50218110Y-94209419D01*
X50218110Y-94381776D01*
X50275562Y-94611586D01*
X50333014Y-94726490D01*
X50447919Y-94841395D01*
X50620276Y-94898848D01*
X50735181Y-94898848D01*
X50907538Y-94841395D01*
X50964990Y-94783943D01*
X50964990Y-94381776D01*
X50735181Y-94381776D01*
X51482062Y-94898848D02*
X51482062Y-93692348D01*
X52171490Y-94898848D01*
X52171490Y-93692348D01*
X52746014Y-94898848D02*
X52746014Y-93692348D01*
X53033276Y-93692348D01*
X53205633Y-93749800D01*
X53320538Y-93864705D01*
X53377990Y-93979610D01*
X53435442Y-94209419D01*
X53435442Y-94381776D01*
X53377990Y-94611586D01*
X53320538Y-94726490D01*
X53205633Y-94841395D01*
X53033276Y-94898848D01*
X52746014Y-94898848D01*
X53665252Y-95013752D02*
X54584490Y-95013752D01*
X55388823Y-94094514D02*
X55388823Y-94898848D01*
X55101561Y-93634895D02*
X54814300Y-94496681D01*
X55561180Y-94496681D01*
X55733538Y-95013752D02*
X56652776Y-95013752D01*
X57629466Y-94783943D02*
X57572014Y-94841395D01*
X57399657Y-94898848D01*
X57284752Y-94898848D01*
X57112395Y-94841395D01*
X56997490Y-94726490D01*
X56940038Y-94611586D01*
X56882586Y-94381776D01*
X56882586Y-94209419D01*
X56940038Y-93979610D01*
X56997490Y-93864705D01*
X57112395Y-93749800D01*
X57284752Y-93692348D01*
X57399657Y-93692348D01*
X57572014Y-93749800D01*
X57629466Y-93807252D01*
X58663609Y-94094514D02*
X58663609Y-94898848D01*
X58376347Y-93634895D02*
X58089086Y-94496681D01*
X58835966Y-94496681D01*
X42947990Y-86806943D02*
X42890538Y-86864395D01*
X42718181Y-86921848D01*
X42603276Y-86921848D01*
X42430919Y-86864395D01*
X42316014Y-86749490D01*
X42258562Y-86634586D01*
X42201110Y-86404776D01*
X42201110Y-86232419D01*
X42258562Y-86002610D01*
X42316014Y-85887705D01*
X42430919Y-85772800D01*
X42603276Y-85715348D01*
X42718181Y-85715348D01*
X42890538Y-85772800D01*
X42947990Y-85830252D01*
X43407610Y-86577133D02*
X43982133Y-86577133D01*
X43292705Y-86921848D02*
X43694871Y-85715348D01*
X44097038Y-86921848D01*
X44499205Y-86921848D02*
X44499205Y-85715348D01*
X45188633Y-86921848D01*
X45188633Y-85715348D01*
X45763157Y-86921848D02*
X45763157Y-85715348D01*
X45763157Y-86289871D02*
X46452585Y-86289871D01*
X46452585Y-86921848D02*
X46452585Y-85715348D01*
X46739847Y-87036752D02*
X47659085Y-87036752D01*
X47888895Y-85830252D02*
X47946347Y-85772800D01*
X48061252Y-85715348D01*
X48348514Y-85715348D01*
X48463418Y-85772800D01*
X48520871Y-85830252D01*
X48578323Y-85945157D01*
X48578323Y-86060062D01*
X48520871Y-86232419D01*
X47831442Y-86921848D01*
X48578323Y-86921848D01*
X48808133Y-87036752D02*
X49727371Y-87036752D01*
X50704061Y-86806943D02*
X50646609Y-86864395D01*
X50474252Y-86921848D01*
X50359347Y-86921848D01*
X50186990Y-86864395D01*
X50072085Y-86749490D01*
X50014633Y-86634586D01*
X49957181Y-86404776D01*
X49957181Y-86232419D01*
X50014633Y-86002610D01*
X50072085Y-85887705D01*
X50186990Y-85772800D01*
X50359347Y-85715348D01*
X50474252Y-85715348D01*
X50646609Y-85772800D01*
X50704061Y-85830252D01*
X51738204Y-86117514D02*
X51738204Y-86921848D01*
X51450942Y-85657895D02*
X51163681Y-86519681D01*
X51910561Y-86519681D01*
X43092990Y-118729943D02*
X43035538Y-118787395D01*
X42863181Y-118844848D01*
X42748276Y-118844848D01*
X42575919Y-118787395D01*
X42461014Y-118672490D01*
X42403562Y-118557586D01*
X42346110Y-118327776D01*
X42346110Y-118155419D01*
X42403562Y-117925610D01*
X42461014Y-117810705D01*
X42575919Y-117695800D01*
X42748276Y-117638348D01*
X42863181Y-117638348D01*
X43035538Y-117695800D01*
X43092990Y-117753252D01*
X43552610Y-118500133D02*
X44127133Y-118500133D01*
X43437705Y-118844848D02*
X43839871Y-117638348D01*
X44242038Y-118844848D01*
X44644205Y-118844848D02*
X44644205Y-117638348D01*
X45333633Y-118844848D01*
X45333633Y-117638348D01*
X45908157Y-118844848D02*
X45908157Y-117638348D01*
X45908157Y-118212871D02*
X46597585Y-118212871D01*
X46597585Y-118844848D02*
X46597585Y-117638348D01*
X46884847Y-118959752D02*
X47804085Y-118959752D01*
X48723323Y-118844848D02*
X48033895Y-118844848D01*
X48378609Y-118844848D02*
X48378609Y-117638348D01*
X48263704Y-117810705D01*
X48148799Y-117925610D01*
X48033895Y-117983062D01*
X48953133Y-118959752D02*
X49872371Y-118959752D01*
X50849061Y-118729943D02*
X50791609Y-118787395D01*
X50619252Y-118844848D01*
X50504347Y-118844848D01*
X50331990Y-118787395D01*
X50217085Y-118672490D01*
X50159633Y-118557586D01*
X50102181Y-118327776D01*
X50102181Y-118155419D01*
X50159633Y-117925610D01*
X50217085Y-117810705D01*
X50331990Y-117695800D01*
X50504347Y-117638348D01*
X50619252Y-117638348D01*
X50791609Y-117695800D01*
X50849061Y-117753252D01*
X51883204Y-118040514D02*
X51883204Y-118844848D01*
X51595942Y-117580895D02*
X51308681Y-118442681D01*
X52055561Y-118442681D01*
X74911990Y-118756943D02*
X74854538Y-118814395D01*
X74682181Y-118871848D01*
X74567276Y-118871848D01*
X74394919Y-118814395D01*
X74280014Y-118699490D01*
X74222562Y-118584586D01*
X74165110Y-118354776D01*
X74165110Y-118182419D01*
X74222562Y-117952610D01*
X74280014Y-117837705D01*
X74394919Y-117722800D01*
X74567276Y-117665348D01*
X74682181Y-117665348D01*
X74854538Y-117722800D01*
X74911990Y-117780252D01*
X75371610Y-118527133D02*
X75946133Y-118527133D01*
X75256705Y-118871848D02*
X75658871Y-117665348D01*
X76061038Y-118871848D01*
X76463205Y-118871848D02*
X76463205Y-117665348D01*
X77152633Y-118871848D01*
X77152633Y-117665348D01*
X77727157Y-118871848D02*
X77727157Y-117665348D01*
X77727157Y-118239871D02*
X78416585Y-118239871D01*
X78416585Y-118871848D02*
X78416585Y-117665348D01*
X78703847Y-118986752D02*
X79623085Y-118986752D01*
X79795442Y-117665348D02*
X80542323Y-117665348D01*
X80140156Y-118124967D01*
X80312514Y-118124967D01*
X80427418Y-118182419D01*
X80484871Y-118239871D01*
X80542323Y-118354776D01*
X80542323Y-118642038D01*
X80484871Y-118756943D01*
X80427418Y-118814395D01*
X80312514Y-118871848D01*
X79967799Y-118871848D01*
X79852895Y-118814395D01*
X79795442Y-118756943D01*
X80772133Y-118986752D02*
X81691371Y-118986752D01*
X82668061Y-118756943D02*
X82610609Y-118814395D01*
X82438252Y-118871848D01*
X82323347Y-118871848D01*
X82150990Y-118814395D01*
X82036085Y-118699490D01*
X81978633Y-118584586D01*
X81921181Y-118354776D01*
X81921181Y-118182419D01*
X81978633Y-117952610D01*
X82036085Y-117837705D01*
X82150990Y-117722800D01*
X82323347Y-117665348D01*
X82438252Y-117665348D01*
X82610609Y-117722800D01*
X82668061Y-117780252D01*
X83702204Y-118067514D02*
X83702204Y-118871848D01*
X83414942Y-117607895D02*
X83127681Y-118469681D01*
X83874561Y-118469681D01*
X75076990Y-86724943D02*
X75019538Y-86782395D01*
X74847181Y-86839848D01*
X74732276Y-86839848D01*
X74559919Y-86782395D01*
X74445014Y-86667490D01*
X74387562Y-86552586D01*
X74330110Y-86322776D01*
X74330110Y-86150419D01*
X74387562Y-85920610D01*
X74445014Y-85805705D01*
X74559919Y-85690800D01*
X74732276Y-85633348D01*
X74847181Y-85633348D01*
X75019538Y-85690800D01*
X75076990Y-85748252D01*
X75536610Y-86495133D02*
X76111133Y-86495133D01*
X75421705Y-86839848D02*
X75823871Y-85633348D01*
X76226038Y-86839848D01*
X76628205Y-86839848D02*
X76628205Y-85633348D01*
X77317633Y-86839848D01*
X77317633Y-85633348D01*
X77892157Y-86839848D02*
X77892157Y-85633348D01*
X77892157Y-86207871D02*
X78581585Y-86207871D01*
X78581585Y-86839848D02*
X78581585Y-85633348D01*
X78868847Y-86954752D02*
X79788085Y-86954752D01*
X80592418Y-86035514D02*
X80592418Y-86839848D01*
X80305156Y-85575895D02*
X80017895Y-86437681D01*
X80764775Y-86437681D01*
X80937133Y-86954752D02*
X81856371Y-86954752D01*
X82833061Y-86724943D02*
X82775609Y-86782395D01*
X82603252Y-86839848D01*
X82488347Y-86839848D01*
X82315990Y-86782395D01*
X82201085Y-86667490D01*
X82143633Y-86552586D01*
X82086181Y-86322776D01*
X82086181Y-86150419D01*
X82143633Y-85920610D01*
X82201085Y-85805705D01*
X82315990Y-85690800D01*
X82488347Y-85633348D01*
X82603252Y-85633348D01*
X82775609Y-85690800D01*
X82833061Y-85748252D01*
X83867204Y-86035514D02*
X83867204Y-86839848D01*
X83579942Y-85575895D02*
X83292681Y-86437681D01*
X84039561Y-86437681D01*
X186974338Y-110478400D02*
X186859433Y-110420948D01*
X186687076Y-110420948D01*
X186514719Y-110478400D01*
X186399814Y-110593305D01*
X186342362Y-110708210D01*
X186284910Y-110938019D01*
X186284910Y-111110376D01*
X186342362Y-111340186D01*
X186399814Y-111455090D01*
X186514719Y-111569995D01*
X186687076Y-111627448D01*
X186801981Y-111627448D01*
X186974338Y-111569995D01*
X187031790Y-111512543D01*
X187031790Y-111110376D01*
X186801981Y-111110376D01*
X187548862Y-111627448D02*
X187548862Y-110420948D01*
X188238290Y-111627448D01*
X188238290Y-110420948D01*
X188812814Y-111627448D02*
X188812814Y-110420948D01*
X189100076Y-110420948D01*
X189272433Y-110478400D01*
X189387338Y-110593305D01*
X189444790Y-110708210D01*
X189502242Y-110938019D01*
X189502242Y-111110376D01*
X189444790Y-111340186D01*
X189387338Y-111455090D01*
X189272433Y-111569995D01*
X189100076Y-111627448D01*
X188812814Y-111627448D01*
X189732052Y-111742352D02*
X190651290Y-111742352D01*
X191455623Y-110823114D02*
X191455623Y-111627448D01*
X191168361Y-110363495D02*
X190881100Y-111225281D01*
X191627980Y-111225281D01*
X191800338Y-111742352D02*
X192719576Y-111742352D01*
X193696266Y-111512543D02*
X193638814Y-111569995D01*
X193466457Y-111627448D01*
X193351552Y-111627448D01*
X193179195Y-111569995D01*
X193064290Y-111455090D01*
X193006838Y-111340186D01*
X192949386Y-111110376D01*
X192949386Y-110938019D01*
X193006838Y-110708210D01*
X193064290Y-110593305D01*
X193179195Y-110478400D01*
X193351552Y-110420948D01*
X193466457Y-110420948D01*
X193638814Y-110478400D01*
X193696266Y-110535852D01*
X194155886Y-110535852D02*
X194213338Y-110478400D01*
X194328243Y-110420948D01*
X194615505Y-110420948D01*
X194730409Y-110478400D01*
X194787862Y-110535852D01*
X194845314Y-110650757D01*
X194845314Y-110765662D01*
X194787862Y-110938019D01*
X194098433Y-111627448D01*
X194845314Y-111627448D01*
X170989738Y-94461000D02*
X170874833Y-94403548D01*
X170702476Y-94403548D01*
X170530119Y-94461000D01*
X170415214Y-94575905D01*
X170357762Y-94690810D01*
X170300310Y-94920619D01*
X170300310Y-95092976D01*
X170357762Y-95322786D01*
X170415214Y-95437690D01*
X170530119Y-95552595D01*
X170702476Y-95610048D01*
X170817381Y-95610048D01*
X170989738Y-95552595D01*
X171047190Y-95495143D01*
X171047190Y-95092976D01*
X170817381Y-95092976D01*
X171564262Y-95610048D02*
X171564262Y-94403548D01*
X172253690Y-95610048D01*
X172253690Y-94403548D01*
X172828214Y-95610048D02*
X172828214Y-94403548D01*
X173115476Y-94403548D01*
X173287833Y-94461000D01*
X173402738Y-94575905D01*
X173460190Y-94690810D01*
X173517642Y-94920619D01*
X173517642Y-95092976D01*
X173460190Y-95322786D01*
X173402738Y-95437690D01*
X173287833Y-95552595D01*
X173115476Y-95610048D01*
X172828214Y-95610048D01*
X173747452Y-95724952D02*
X174666690Y-95724952D01*
X174839047Y-94403548D02*
X175585928Y-94403548D01*
X175183761Y-94863167D01*
X175356119Y-94863167D01*
X175471023Y-94920619D01*
X175528476Y-94978071D01*
X175585928Y-95092976D01*
X175585928Y-95380238D01*
X175528476Y-95495143D01*
X175471023Y-95552595D01*
X175356119Y-95610048D01*
X175011404Y-95610048D01*
X174896500Y-95552595D01*
X174839047Y-95495143D01*
X175815738Y-95724952D02*
X176734976Y-95724952D01*
X177711666Y-95495143D02*
X177654214Y-95552595D01*
X177481857Y-95610048D01*
X177366952Y-95610048D01*
X177194595Y-95552595D01*
X177079690Y-95437690D01*
X177022238Y-95322786D01*
X176964786Y-95092976D01*
X176964786Y-94920619D01*
X177022238Y-94690810D01*
X177079690Y-94575905D01*
X177194595Y-94461000D01*
X177366952Y-94403548D01*
X177481857Y-94403548D01*
X177654214Y-94461000D01*
X177711666Y-94518452D01*
X178171286Y-94518452D02*
X178228738Y-94461000D01*
X178343643Y-94403548D01*
X178630905Y-94403548D01*
X178745809Y-94461000D01*
X178803262Y-94518452D01*
X178860714Y-94633357D01*
X178860714Y-94748262D01*
X178803262Y-94920619D01*
X178113833Y-95610048D01*
X178860714Y-95610048D01*
X166298405Y-90328748D02*
X166700571Y-91535248D01*
X167102738Y-90328748D01*
X168194333Y-91420343D02*
X168136881Y-91477795D01*
X167964524Y-91535248D01*
X167849619Y-91535248D01*
X167677262Y-91477795D01*
X167562357Y-91362890D01*
X167504905Y-91247986D01*
X167447453Y-91018176D01*
X167447453Y-90845819D01*
X167504905Y-90616010D01*
X167562357Y-90501105D01*
X167677262Y-90386200D01*
X167849619Y-90328748D01*
X167964524Y-90328748D01*
X168136881Y-90386200D01*
X168194333Y-90443652D01*
X169400833Y-91420343D02*
X169343381Y-91477795D01*
X169171024Y-91535248D01*
X169056119Y-91535248D01*
X168883762Y-91477795D01*
X168768857Y-91362890D01*
X168711405Y-91247986D01*
X168653953Y-91018176D01*
X168653953Y-90845819D01*
X168711405Y-90616010D01*
X168768857Y-90501105D01*
X168883762Y-90386200D01*
X169056119Y-90328748D01*
X169171024Y-90328748D01*
X169343381Y-90386200D01*
X169400833Y-90443652D01*
X169630643Y-91650152D02*
X170549881Y-91650152D01*
X170722238Y-90328748D02*
X171469119Y-90328748D01*
X171066952Y-90788367D01*
X171239310Y-90788367D01*
X171354214Y-90845819D01*
X171411667Y-90903271D01*
X171469119Y-91018176D01*
X171469119Y-91305438D01*
X171411667Y-91420343D01*
X171354214Y-91477795D01*
X171239310Y-91535248D01*
X170894595Y-91535248D01*
X170779691Y-91477795D01*
X170722238Y-91420343D01*
X171698929Y-91650152D02*
X172618167Y-91650152D01*
X173594857Y-91420343D02*
X173537405Y-91477795D01*
X173365048Y-91535248D01*
X173250143Y-91535248D01*
X173077786Y-91477795D01*
X172962881Y-91362890D01*
X172905429Y-91247986D01*
X172847977Y-91018176D01*
X172847977Y-90845819D01*
X172905429Y-90616010D01*
X172962881Y-90501105D01*
X173077786Y-90386200D01*
X173250143Y-90328748D01*
X173365048Y-90328748D01*
X173537405Y-90386200D01*
X173594857Y-90443652D01*
X174054477Y-90443652D02*
X174111929Y-90386200D01*
X174226834Y-90328748D01*
X174514096Y-90328748D01*
X174629000Y-90386200D01*
X174686453Y-90443652D01*
X174743905Y-90558557D01*
X174743905Y-90673462D01*
X174686453Y-90845819D01*
X173997024Y-91535248D01*
X174743905Y-91535248D01*
X190254205Y-114291748D02*
X190656371Y-115498248D01*
X191058538Y-114291748D01*
X192150133Y-115383343D02*
X192092681Y-115440795D01*
X191920324Y-115498248D01*
X191805419Y-115498248D01*
X191633062Y-115440795D01*
X191518157Y-115325890D01*
X191460705Y-115210986D01*
X191403253Y-114981176D01*
X191403253Y-114808819D01*
X191460705Y-114579010D01*
X191518157Y-114464105D01*
X191633062Y-114349200D01*
X191805419Y-114291748D01*
X191920324Y-114291748D01*
X192092681Y-114349200D01*
X192150133Y-114406652D01*
X193356633Y-115383343D02*
X193299181Y-115440795D01*
X193126824Y-115498248D01*
X193011919Y-115498248D01*
X192839562Y-115440795D01*
X192724657Y-115325890D01*
X192667205Y-115210986D01*
X192609753Y-114981176D01*
X192609753Y-114808819D01*
X192667205Y-114579010D01*
X192724657Y-114464105D01*
X192839562Y-114349200D01*
X193011919Y-114291748D01*
X193126824Y-114291748D01*
X193299181Y-114349200D01*
X193356633Y-114406652D01*
X193586443Y-115613152D02*
X194505681Y-115613152D01*
X195310014Y-114693914D02*
X195310014Y-115498248D01*
X195022752Y-114234295D02*
X194735491Y-115096081D01*
X195482371Y-115096081D01*
X195654729Y-115613152D02*
X196573967Y-115613152D01*
X197550657Y-115383343D02*
X197493205Y-115440795D01*
X197320848Y-115498248D01*
X197205943Y-115498248D01*
X197033586Y-115440795D01*
X196918681Y-115325890D01*
X196861229Y-115210986D01*
X196803777Y-114981176D01*
X196803777Y-114808819D01*
X196861229Y-114579010D01*
X196918681Y-114464105D01*
X197033586Y-114349200D01*
X197205943Y-114291748D01*
X197320848Y-114291748D01*
X197493205Y-114349200D01*
X197550657Y-114406652D01*
X198010277Y-114406652D02*
X198067729Y-114349200D01*
X198182634Y-114291748D01*
X198469896Y-114291748D01*
X198584800Y-114349200D01*
X198642253Y-114406652D01*
X198699705Y-114521557D01*
X198699705Y-114636462D01*
X198642253Y-114808819D01*
X197952824Y-115498248D01*
X198699705Y-115498248D01*
X163073990Y-87540743D02*
X163016538Y-87598195D01*
X162844181Y-87655648D01*
X162729276Y-87655648D01*
X162556919Y-87598195D01*
X162442014Y-87483290D01*
X162384562Y-87368386D01*
X162327110Y-87138576D01*
X162327110Y-86966219D01*
X162384562Y-86736410D01*
X162442014Y-86621505D01*
X162556919Y-86506600D01*
X162729276Y-86449148D01*
X162844181Y-86449148D01*
X163016538Y-86506600D01*
X163073990Y-86564052D01*
X163533610Y-87310933D02*
X164108133Y-87310933D01*
X163418705Y-87655648D02*
X163820871Y-86449148D01*
X164223038Y-87655648D01*
X164625205Y-87655648D02*
X164625205Y-86449148D01*
X165314633Y-87655648D01*
X165314633Y-86449148D01*
X165889157Y-87655648D02*
X165889157Y-86449148D01*
X165889157Y-87023671D02*
X166578585Y-87023671D01*
X166578585Y-87655648D02*
X166578585Y-86449148D01*
X166865847Y-87770552D02*
X167785085Y-87770552D01*
X168589418Y-86851314D02*
X168589418Y-87655648D01*
X168302156Y-86391695D02*
X168014895Y-87253481D01*
X168761775Y-87253481D01*
X168934133Y-87770552D02*
X169853371Y-87770552D01*
X170830061Y-87540743D02*
X170772609Y-87598195D01*
X170600252Y-87655648D01*
X170485347Y-87655648D01*
X170312990Y-87598195D01*
X170198085Y-87483290D01*
X170140633Y-87368386D01*
X170083181Y-87138576D01*
X170083181Y-86966219D01*
X170140633Y-86736410D01*
X170198085Y-86621505D01*
X170312990Y-86506600D01*
X170485347Y-86449148D01*
X170600252Y-86449148D01*
X170772609Y-86506600D01*
X170830061Y-86564052D01*
X171289681Y-86564052D02*
X171347133Y-86506600D01*
X171462038Y-86449148D01*
X171749300Y-86449148D01*
X171864204Y-86506600D01*
X171921657Y-86564052D01*
X171979109Y-86678957D01*
X171979109Y-86793862D01*
X171921657Y-86966219D01*
X171232228Y-87655648D01*
X171979109Y-87655648D01*
X195085990Y-119508543D02*
X195028538Y-119565995D01*
X194856181Y-119623448D01*
X194741276Y-119623448D01*
X194568919Y-119565995D01*
X194454014Y-119451090D01*
X194396562Y-119336186D01*
X194339110Y-119106376D01*
X194339110Y-118934019D01*
X194396562Y-118704210D01*
X194454014Y-118589305D01*
X194568919Y-118474400D01*
X194741276Y-118416948D01*
X194856181Y-118416948D01*
X195028538Y-118474400D01*
X195085990Y-118531852D01*
X195545610Y-119278733D02*
X196120133Y-119278733D01*
X195430705Y-119623448D02*
X195832871Y-118416948D01*
X196235038Y-119623448D01*
X196637205Y-119623448D02*
X196637205Y-118416948D01*
X197326633Y-119623448D01*
X197326633Y-118416948D01*
X197901157Y-119623448D02*
X197901157Y-118416948D01*
X197901157Y-118991471D02*
X198590585Y-118991471D01*
X198590585Y-119623448D02*
X198590585Y-118416948D01*
X198877847Y-119738352D02*
X199797085Y-119738352D01*
X199969442Y-118416948D02*
X200716323Y-118416948D01*
X200314156Y-118876567D01*
X200486514Y-118876567D01*
X200601418Y-118934019D01*
X200658871Y-118991471D01*
X200716323Y-119106376D01*
X200716323Y-119393638D01*
X200658871Y-119508543D01*
X200601418Y-119565995D01*
X200486514Y-119623448D01*
X200141799Y-119623448D01*
X200026895Y-119565995D01*
X199969442Y-119508543D01*
X200946133Y-119738352D02*
X201865371Y-119738352D01*
X202842061Y-119508543D02*
X202784609Y-119565995D01*
X202612252Y-119623448D01*
X202497347Y-119623448D01*
X202324990Y-119565995D01*
X202210085Y-119451090D01*
X202152633Y-119336186D01*
X202095181Y-119106376D01*
X202095181Y-118934019D01*
X202152633Y-118704210D01*
X202210085Y-118589305D01*
X202324990Y-118474400D01*
X202497347Y-118416948D01*
X202612252Y-118416948D01*
X202784609Y-118474400D01*
X202842061Y-118531852D01*
X203301681Y-118531852D02*
X203359133Y-118474400D01*
X203474038Y-118416948D01*
X203761300Y-118416948D01*
X203876204Y-118474400D01*
X203933657Y-118531852D01*
X203991109Y-118646757D01*
X203991109Y-118761662D01*
X203933657Y-118934019D01*
X203244228Y-119623448D01*
X203991109Y-119623448D01*
M02*
