G04 #@! TF.FileFunction,Copper,L2,Bot,Signal*
%FSLAX46Y46*%
G04 Gerber Fmt 4.6, Leading zero omitted, Abs format (unit mm)*
G04 Created by KiCad (PCBNEW 4.0.6) date 05/08/17 07:17:45*
%MOMM*%
%LPD*%
G01*
G04 APERTURE LIST*
%ADD10C,0.100000*%
%ADD11R,1.200000X1.200000*%
%ADD12C,2.540000*%
%ADD13C,3.175000*%
%ADD14R,0.350000X0.805000*%
%ADD15R,0.805000X0.400000*%
%ADD16C,3.000000*%
%ADD17C,0.906400*%
%ADD18C,2.250000*%
%ADD19C,1.006400*%
%ADD20C,1.016000*%
%ADD21C,0.406400*%
%ADD22C,3.200000*%
%ADD23C,2.540000*%
%ADD24C,0.304800*%
%ADD25C,0.812800*%
%ADD26C,2.184400*%
%ADD27C,0.609600*%
%ADD28C,1.676400*%
%ADD29C,1.270000*%
%ADD30C,0.350000*%
G04 APERTURE END LIST*
D10*
D11*
X115395100Y-104222900D03*
X115395100Y-106322900D03*
D12*
X130325100Y-117333900D03*
D13*
X130325100Y-117333900D03*
D12*
X106321100Y-117338900D03*
D13*
X106321100Y-117338900D03*
D12*
X130194100Y-93289900D03*
D13*
X130194100Y-93289900D03*
D12*
X106259100Y-93409900D03*
D13*
X106259100Y-93409900D03*
D12*
X126306100Y-113411900D03*
D13*
X126306100Y-113411900D03*
D12*
X110398100Y-113399900D03*
D13*
X110398100Y-113399900D03*
D12*
X126394100Y-97417900D03*
D13*
X126394100Y-97417900D03*
D12*
X110263100Y-97419900D03*
D13*
X110263100Y-97419900D03*
D12*
X138327100Y-125426900D03*
D13*
X138327100Y-125426900D03*
D12*
X98266100Y-125325900D03*
D13*
X98266100Y-125325900D03*
D12*
X138258100Y-85326900D03*
D13*
X138258100Y-85326900D03*
D12*
X98363100Y-85358900D03*
D13*
X98363100Y-85358900D03*
D12*
X134288100Y-121406900D03*
D13*
X134288100Y-121406900D03*
D12*
X102400100Y-121407900D03*
D13*
X102400100Y-121407900D03*
D12*
X134339100Y-89424900D03*
D13*
X134339100Y-89424900D03*
D12*
X102272100Y-89399900D03*
D13*
X102272100Y-89399900D03*
D14*
X117755900Y-103602000D03*
X118505900Y-103602000D03*
X119255900Y-103602000D03*
X120005900Y-103602000D03*
X120755900Y-103602000D03*
D15*
X121028400Y-104574500D03*
D14*
X120755900Y-107147000D03*
X120005900Y-107147000D03*
X119255900Y-107147000D03*
X118505900Y-107147000D03*
X117755900Y-107147000D03*
D15*
X117483400Y-105199500D03*
X121028400Y-105374500D03*
D16*
X110188100Y-105272900D03*
X118189100Y-97246500D03*
X126190100Y-105272900D03*
X118189100Y-113273900D03*
D17*
X130537100Y-102733900D03*
X135177100Y-102659900D03*
D18*
X92380100Y-102598900D03*
X92380100Y-110332900D03*
D19*
X113439300Y-104460100D03*
X135635100Y-97457900D03*
X122283100Y-106286900D03*
X111981600Y-114983400D03*
X122574700Y-111757100D03*
X120703700Y-108898100D03*
X140374100Y-88103900D03*
X132582100Y-86962900D03*
X140328100Y-96544900D03*
X138565700Y-106575300D03*
X143477100Y-86995900D03*
X133095100Y-83372900D03*
X94338100Y-86737900D03*
X138389100Y-128427900D03*
X106777100Y-125512900D03*
X131899100Y-125928900D03*
X118493900Y-101132700D03*
D17*
X131971100Y-108993900D03*
X123822100Y-101563900D03*
X135072100Y-114230900D03*
X138812100Y-117792900D03*
X128828100Y-104896900D03*
X135177100Y-104854900D03*
D20*
X130537100Y-102733900D02*
X135103100Y-102733900D01*
X135103100Y-102733900D02*
X135177100Y-102659900D01*
D21*
X113439300Y-104460100D02*
X115157900Y-104460100D01*
X115157900Y-104460100D02*
X115395100Y-104222900D01*
D22*
X126306100Y-113411900D02*
X126306100Y-113516900D01*
X126306100Y-113516900D02*
X123119100Y-116703900D01*
X123119100Y-116703900D02*
X113702100Y-116703900D01*
X113702100Y-116703900D02*
X111981600Y-114983400D01*
X111981600Y-114983400D02*
X110398100Y-113399900D01*
X110263100Y-97419900D02*
X110263100Y-97570900D01*
X110263100Y-97570900D02*
X107302100Y-100531900D01*
X107302100Y-100531900D02*
X107302100Y-100598900D01*
X107302100Y-100598900D02*
X106186100Y-101714900D01*
X106186100Y-101714900D02*
X106186100Y-109187900D01*
X106186100Y-109187900D02*
X109041100Y-112042900D01*
X109041100Y-112042900D02*
X110398100Y-113399900D01*
X110263100Y-97419900D02*
X110337100Y-97419900D01*
X110337100Y-97419900D02*
X113931100Y-93825900D01*
X113931100Y-93825900D02*
X122802100Y-93825900D01*
X122802100Y-93825900D02*
X126394100Y-97417900D01*
D23*
X113931100Y-93825900D02*
X122798100Y-93825900D01*
X122798100Y-93825900D02*
X127433100Y-98460900D01*
X127433100Y-98460900D02*
X134632100Y-98460900D01*
X134632100Y-98460900D02*
X135635100Y-97457900D01*
D24*
X117483400Y-105199500D02*
X119033700Y-105199500D01*
X119033700Y-105199500D02*
X119330100Y-105495900D01*
X119330100Y-105495900D02*
X120907000Y-105495900D01*
X120907000Y-105495900D02*
X121028400Y-105374500D01*
X122283100Y-106286900D02*
X121940800Y-106286900D01*
X121940800Y-106286900D02*
X121028400Y-105374500D01*
X111981600Y-114983400D02*
X109041100Y-112042900D01*
X117755900Y-103602000D02*
X117755900Y-102604500D01*
X117755900Y-102604500D02*
X117071500Y-101920100D01*
X117071500Y-101920100D02*
X113312300Y-101920100D01*
X113312300Y-101920100D02*
X112438100Y-102828300D01*
X112438100Y-102828300D02*
X112474100Y-109861500D01*
X120703700Y-108898100D02*
X120703700Y-107199200D01*
X120703700Y-107199200D02*
X120755900Y-107147000D01*
D21*
X113312300Y-101920100D02*
X113312300Y-100452700D01*
X113312300Y-100452700D02*
X114062100Y-99702900D01*
X122574700Y-111757100D02*
X121237300Y-111757100D01*
D24*
X112474100Y-109861500D02*
X112474100Y-110296900D01*
X112474100Y-110296900D02*
X113319100Y-111141900D01*
X113319100Y-111141900D02*
X120622100Y-111141900D01*
X120622100Y-111141900D02*
X121237300Y-111757100D01*
D25*
X140374100Y-88103900D02*
X137095100Y-88103900D01*
X137095100Y-88103900D02*
X136000100Y-87008900D01*
X136000100Y-87008900D02*
X132628100Y-87008900D01*
X132628100Y-87008900D02*
X132582100Y-86962900D01*
D21*
X114062100Y-99702900D02*
X125528100Y-99702900D01*
X125528100Y-99702900D02*
X126613100Y-100787900D01*
X126613100Y-100787900D02*
X138460100Y-100787900D01*
X138460100Y-100787900D02*
X139463100Y-99784900D01*
X139463100Y-99784900D02*
X139463100Y-97409900D01*
X139463100Y-97409900D02*
X140328100Y-96544900D01*
X115395100Y-106322900D02*
X115395100Y-109426300D01*
X115395100Y-109426300D02*
X116404900Y-110436100D01*
X116404900Y-110436100D02*
X137660900Y-110472100D01*
X137660900Y-110472100D02*
X137646500Y-110520500D01*
X137646500Y-110520500D02*
X138580500Y-109619100D01*
X138580500Y-109619100D02*
X138565700Y-106575300D01*
D22*
X130194100Y-93289900D02*
X142467100Y-93289900D01*
X142467100Y-93289900D02*
X143439100Y-92317900D01*
X143439100Y-92317900D02*
X143439100Y-87033900D01*
X143439100Y-87033900D02*
X143477100Y-86995900D01*
D26*
X133095100Y-83372900D02*
X133095100Y-83369900D01*
X133095100Y-83369900D02*
X135721100Y-80743900D01*
X135721100Y-80743900D02*
X141625100Y-80743900D01*
X141625100Y-80743900D02*
X143400100Y-82518900D01*
X143400100Y-82518900D02*
X143400100Y-86918900D01*
X143400100Y-86918900D02*
X143477100Y-86995900D01*
D22*
X130325100Y-117333900D02*
X130325100Y-117380900D01*
X130325100Y-117380900D02*
X126466100Y-121239900D01*
X126466100Y-121239900D02*
X110222100Y-121239900D01*
X110222100Y-121239900D02*
X106321100Y-117338900D01*
X106321100Y-117338900D02*
X106236100Y-117338900D01*
X106236100Y-117338900D02*
X101985100Y-113087900D01*
X101985100Y-113087900D02*
X101985100Y-97683900D01*
X101985100Y-97683900D02*
X106259100Y-93409900D01*
X106259100Y-93409900D02*
X106464100Y-93409900D01*
X106464100Y-93409900D02*
X109927100Y-89946900D01*
X109927100Y-89946900D02*
X126851100Y-89946900D01*
X126851100Y-89946900D02*
X130194100Y-93289900D01*
D27*
X138258100Y-85326900D02*
X98395100Y-85326900D01*
X98395100Y-85326900D02*
X98363100Y-85358900D01*
X98363100Y-85358900D02*
X98363100Y-125228900D01*
X98363100Y-125228900D02*
X98266100Y-125325900D01*
X138226100Y-125325900D02*
X138327100Y-125426900D01*
X98363100Y-85358900D02*
X98363100Y-85938900D01*
X98363100Y-85938900D02*
X97534100Y-86767900D01*
X97534100Y-86767900D02*
X94368100Y-86767900D01*
X94368100Y-86767900D02*
X94338100Y-86737900D01*
D28*
X138389100Y-128427900D02*
X138389100Y-125488900D01*
X138389100Y-125488900D02*
X138327100Y-125426900D01*
D20*
X98266100Y-125325900D02*
X98774100Y-125325900D01*
X98774100Y-125325900D02*
X101198100Y-127749900D01*
X101198100Y-127749900D02*
X136004100Y-127749900D01*
X136004100Y-127749900D02*
X138327100Y-125426900D01*
D27*
X134339100Y-89424900D02*
X132184100Y-89424900D01*
X132184100Y-89424900D02*
X129814100Y-87054900D01*
X129814100Y-87054900D02*
X104617100Y-87054900D01*
X104617100Y-87054900D02*
X102272100Y-89399900D01*
X102272100Y-89399900D02*
X102272100Y-89663900D01*
X102272100Y-89663900D02*
X99885100Y-92050900D01*
X99885100Y-92050900D02*
X99754100Y-92050900D01*
X99754100Y-92050900D02*
X99491100Y-92313900D01*
X99491100Y-92313900D02*
X99491100Y-118498900D01*
X99491100Y-118498900D02*
X102400100Y-121407900D01*
X102400100Y-121407900D02*
X102400100Y-121529900D01*
X102400100Y-121529900D02*
X106383100Y-125512900D01*
X106383100Y-125512900D02*
X106777100Y-125512900D01*
X106777100Y-125512900D02*
X130182100Y-125512900D01*
X130182100Y-125512900D02*
X130377600Y-125317400D01*
X130377600Y-125317400D02*
X134288100Y-121406900D01*
D29*
X131899100Y-125928900D02*
X130989100Y-125928900D01*
X130989100Y-125928900D02*
X130377600Y-125317400D01*
D21*
X119255900Y-103602000D02*
X118505900Y-103602000D01*
X118493900Y-101132700D02*
X118493900Y-103590000D01*
X118493900Y-103590000D02*
X118505900Y-103602000D01*
D25*
X120755900Y-103602000D02*
X123059200Y-103602000D01*
X123059200Y-103602000D02*
X123822100Y-104364900D01*
X123822100Y-104364900D02*
X123822100Y-108081900D01*
X123822100Y-108081900D02*
X124795100Y-109054900D01*
X124795100Y-109054900D02*
X131910100Y-109054900D01*
X131910100Y-109054900D02*
X131971100Y-108993900D01*
D30*
X120005900Y-103602000D02*
X120005900Y-102338100D01*
X120005900Y-102338100D02*
X120902100Y-101441900D01*
X120902100Y-101441900D02*
X123700100Y-101441900D01*
X123700100Y-101441900D02*
X123822100Y-101563900D01*
X135072100Y-114230900D02*
X135250100Y-114230900D01*
X135250100Y-114230900D02*
X138812100Y-117792900D01*
D20*
X128828100Y-104896900D02*
X135177100Y-104854900D01*
D21*
G36*
X134708198Y-78962625D02*
X134600560Y-79018419D01*
X134592105Y-79025169D01*
X134582552Y-79030248D01*
X134435270Y-79150368D01*
X134286753Y-79268928D01*
X134271695Y-79283777D01*
X134271386Y-79284029D01*
X134271150Y-79284315D01*
X134266299Y-79289098D01*
X131640299Y-81915099D01*
X131519692Y-82061928D01*
X131397511Y-82207537D01*
X131392298Y-82217019D01*
X131385432Y-82225378D01*
X131295624Y-82392870D01*
X131204071Y-82559404D01*
X131200800Y-82569715D01*
X131195687Y-82579251D01*
X131140123Y-82760995D01*
X131082659Y-82942142D01*
X131081453Y-82952895D01*
X131078290Y-82963240D01*
X131059085Y-83152310D01*
X131037901Y-83341174D01*
X131037753Y-83362324D01*
X131037713Y-83362718D01*
X131037748Y-83363085D01*
X131037700Y-83369900D01*
X131037700Y-83372900D01*
X131064851Y-83649810D01*
X131075501Y-83762471D01*
X131076092Y-83764455D01*
X131076883Y-83772518D01*
X131162743Y-84056900D01*
X100562940Y-84056900D01*
X100350872Y-83737713D01*
X99998125Y-83382494D01*
X99583100Y-83102557D01*
X99121606Y-82908562D01*
X98631221Y-82807901D01*
X98130623Y-82804406D01*
X97638880Y-82898211D01*
X97174722Y-83085743D01*
X96755829Y-83359858D01*
X96398157Y-83710117D01*
X96115329Y-84123177D01*
X95918117Y-84583306D01*
X95814035Y-85072977D01*
X95808101Y-85497900D01*
X95125765Y-85497900D01*
X95039886Y-85439974D01*
X94774419Y-85328382D01*
X94492332Y-85270478D01*
X94204371Y-85268468D01*
X93921504Y-85322427D01*
X93654504Y-85430302D01*
X93413543Y-85587983D01*
X93207798Y-85789464D01*
X93045105Y-86027070D01*
X92931662Y-86291752D01*
X92871790Y-86573427D01*
X92867770Y-86861367D01*
X92919754Y-87144604D01*
X93025762Y-87412350D01*
X93181756Y-87654407D01*
X93381796Y-87861554D01*
X93618261Y-88025901D01*
X93882144Y-88141189D01*
X94163394Y-88203026D01*
X94451299Y-88209056D01*
X94734893Y-88159051D01*
X95003372Y-88054915D01*
X95030183Y-88037900D01*
X97093100Y-88037900D01*
X97093100Y-123046530D01*
X97077722Y-123052743D01*
X96658829Y-123326858D01*
X96301157Y-123677117D01*
X96018329Y-124090177D01*
X95821117Y-124550306D01*
X95717035Y-125039977D01*
X95710045Y-125540538D01*
X95800415Y-126032924D01*
X95984702Y-126498379D01*
X96255886Y-126919176D01*
X96603639Y-127279285D01*
X97014715Y-127564990D01*
X97473456Y-127765408D01*
X97962388Y-127872907D01*
X98462888Y-127883391D01*
X98955893Y-127796461D01*
X99103852Y-127739071D01*
X100156391Y-128791610D01*
X100261533Y-128877974D01*
X100365791Y-128965457D01*
X100372581Y-128969190D01*
X100378566Y-128974106D01*
X100498468Y-129038397D01*
X100617745Y-129103970D01*
X100625131Y-129106313D01*
X100631957Y-129109973D01*
X100762095Y-129149761D01*
X100891804Y-129190907D01*
X100899500Y-129191770D01*
X100906911Y-129194036D01*
X101042344Y-129207793D01*
X101177531Y-129222956D01*
X101192671Y-129223062D01*
X101192957Y-129223091D01*
X101193223Y-129223066D01*
X101198100Y-129223100D01*
X136004100Y-129223100D01*
X136139555Y-129209818D01*
X136275097Y-129197960D01*
X136282535Y-129195799D01*
X136290246Y-129195043D01*
X136420538Y-129155705D01*
X136551199Y-129117745D01*
X136558076Y-129114180D01*
X136565493Y-129111941D01*
X136685645Y-129048055D01*
X136699376Y-129040938D01*
X136721774Y-129115122D01*
X136887010Y-129425886D01*
X137109460Y-129698637D01*
X137380652Y-129922986D01*
X137690254Y-130090388D01*
X138026476Y-130194466D01*
X138376510Y-130231256D01*
X138727023Y-130199357D01*
X139064666Y-130099983D01*
X139376576Y-129936921D01*
X139650873Y-129716380D01*
X139877110Y-129446761D01*
X140046669Y-129138335D01*
X140153091Y-128802848D01*
X140192324Y-128453079D01*
X140192500Y-128427900D01*
X140192500Y-127175646D01*
X140268831Y-127102957D01*
X140557399Y-126693886D01*
X140761015Y-126236556D01*
X140871925Y-125748386D01*
X140879909Y-125176595D01*
X140782673Y-124685519D01*
X140591906Y-124222681D01*
X140314872Y-123805713D01*
X139962125Y-123450494D01*
X139547100Y-123170557D01*
X139085606Y-122976562D01*
X138595221Y-122875901D01*
X138094623Y-122872406D01*
X137602880Y-122966211D01*
X137138722Y-123153743D01*
X136719829Y-123427858D01*
X136362157Y-123778117D01*
X136079329Y-124191177D01*
X135882117Y-124651306D01*
X135778035Y-125140977D01*
X135771045Y-125641538D01*
X135811053Y-125859527D01*
X135393880Y-126276700D01*
X133458557Y-126276700D01*
X133466616Y-126250665D01*
X133499261Y-125940071D01*
X133470956Y-125629052D01*
X133382780Y-125329455D01*
X133238090Y-125052689D01*
X133042399Y-124809299D01*
X132846300Y-124644752D01*
X133617755Y-123873297D01*
X133984388Y-123953907D01*
X134484888Y-123964391D01*
X134977893Y-123877461D01*
X135444624Y-123696428D01*
X135867303Y-123428188D01*
X136229831Y-123082957D01*
X136518399Y-122673886D01*
X136722015Y-122216556D01*
X136832925Y-121728386D01*
X136840909Y-121156595D01*
X136743673Y-120665519D01*
X136552906Y-120202681D01*
X136275872Y-119785713D01*
X135923125Y-119430494D01*
X135508100Y-119150557D01*
X135046606Y-118956562D01*
X134556221Y-118855901D01*
X134055623Y-118852406D01*
X133563880Y-118946211D01*
X133099722Y-119133743D01*
X132680829Y-119407858D01*
X132323157Y-119758117D01*
X132040329Y-120171177D01*
X131843117Y-120631306D01*
X131739035Y-121120977D01*
X131732045Y-121621538D01*
X131816617Y-122082331D01*
X130160708Y-123738240D01*
X130072267Y-123746600D01*
X129772979Y-123835822D01*
X129496721Y-123981477D01*
X129254014Y-124178016D01*
X129199955Y-124242900D01*
X107520288Y-124242900D01*
X107478886Y-124214974D01*
X107213419Y-124103382D01*
X106931332Y-124045478D01*
X106710186Y-124043934D01*
X104843233Y-122176982D01*
X104944925Y-121729386D01*
X104952909Y-121157595D01*
X104855673Y-120666519D01*
X104664906Y-120203681D01*
X104387872Y-119786713D01*
X104035125Y-119431494D01*
X103620100Y-119151557D01*
X103158606Y-118957562D01*
X102668221Y-118856901D01*
X102167623Y-118853406D01*
X101725917Y-118937666D01*
X100761100Y-117972848D01*
X100761100Y-115491640D01*
X104422230Y-119152770D01*
X104605324Y-119303165D01*
X104786847Y-119455481D01*
X104798669Y-119461980D01*
X104809091Y-119470541D01*
X104843394Y-119488934D01*
X108408230Y-123053770D01*
X108591324Y-123204165D01*
X108772847Y-123356481D01*
X108784669Y-123362980D01*
X108795091Y-123371541D01*
X109003897Y-123483502D01*
X109211560Y-123597666D01*
X109224418Y-123601745D01*
X109236306Y-123608119D01*
X109462934Y-123677406D01*
X109688765Y-123749044D01*
X109702166Y-123750547D01*
X109715069Y-123754492D01*
X109950864Y-123778443D01*
X110186284Y-123804850D01*
X110212644Y-123805034D01*
X110213146Y-123805085D01*
X110213614Y-123805041D01*
X110222100Y-123805100D01*
X126466100Y-123805100D01*
X126701967Y-123781973D01*
X126937972Y-123761325D01*
X126950922Y-123757563D01*
X126964350Y-123756246D01*
X127191186Y-123687760D01*
X127418733Y-123621652D01*
X127430712Y-123615443D01*
X127443622Y-123611545D01*
X127652821Y-123500312D01*
X127863208Y-123391258D01*
X127873749Y-123382843D01*
X127885660Y-123376510D01*
X128069304Y-123226733D01*
X128254468Y-123078919D01*
X128273236Y-123060410D01*
X128273628Y-123060091D01*
X128273928Y-123059728D01*
X128279970Y-123053770D01*
X132138970Y-119194770D01*
X132289365Y-119011676D01*
X132441681Y-118830153D01*
X132448180Y-118818331D01*
X132456741Y-118807909D01*
X132568702Y-118599103D01*
X132682866Y-118391440D01*
X132686945Y-118378582D01*
X132693319Y-118366694D01*
X132762606Y-118140066D01*
X132834244Y-117914235D01*
X132835747Y-117900834D01*
X132839692Y-117887931D01*
X132857967Y-117708020D01*
X132869925Y-117655386D01*
X132870870Y-117587709D01*
X132890050Y-117416716D01*
X132890234Y-117390356D01*
X132890285Y-117389854D01*
X132890241Y-117389386D01*
X132890300Y-117380900D01*
X132890300Y-117333900D01*
X132876394Y-117192078D01*
X132877909Y-117083595D01*
X132853837Y-116962023D01*
X132841446Y-116835650D01*
X132804745Y-116714090D01*
X132780673Y-116592519D01*
X132733446Y-116477936D01*
X132696745Y-116356378D01*
X132637135Y-116244267D01*
X132589906Y-116129681D01*
X132521322Y-116026454D01*
X132461710Y-115914340D01*
X132381453Y-115815935D01*
X132312872Y-115712713D01*
X132225549Y-115624778D01*
X132145291Y-115526372D01*
X132047450Y-115445431D01*
X131960125Y-115357494D01*
X131857382Y-115288193D01*
X131759542Y-115207253D01*
X131647842Y-115146857D01*
X131545100Y-115077557D01*
X131430853Y-115029532D01*
X131319155Y-114969137D01*
X131197858Y-114931589D01*
X131083606Y-114883562D01*
X130962200Y-114858641D01*
X130840905Y-114821094D01*
X130714624Y-114807821D01*
X130593221Y-114782901D01*
X130469290Y-114782036D01*
X130343008Y-114768763D01*
X130216553Y-114780271D01*
X130092623Y-114779406D01*
X129970886Y-114802629D01*
X129844429Y-114814137D01*
X129722615Y-114849989D01*
X129600880Y-114873211D01*
X129485975Y-114919636D01*
X129364159Y-114955488D01*
X129251626Y-115014319D01*
X129136722Y-115060743D01*
X129033022Y-115128602D01*
X128920491Y-115187432D01*
X128821534Y-115266995D01*
X128717829Y-115334858D01*
X128629278Y-115421574D01*
X128530324Y-115501135D01*
X128448707Y-115598402D01*
X128360157Y-115685117D01*
X128290138Y-115787378D01*
X128286255Y-115792005D01*
X125403560Y-118674700D01*
X111284640Y-118674700D01*
X108134970Y-115525030D01*
X108040345Y-115447304D01*
X107956125Y-115362494D01*
X107860700Y-115298129D01*
X107770353Y-115222319D01*
X107758531Y-115215820D01*
X107748109Y-115207259D01*
X107713806Y-115188866D01*
X104550300Y-112025360D01*
X104550300Y-98746440D01*
X105662202Y-97634538D01*
X107707045Y-97634538D01*
X107797415Y-98126924D01*
X107981702Y-98592379D01*
X108252886Y-99013176D01*
X108600639Y-99373285D01*
X109011715Y-99658990D01*
X109470456Y-99859408D01*
X109959388Y-99966907D01*
X110459888Y-99977391D01*
X110952893Y-99890461D01*
X111419624Y-99709428D01*
X111842303Y-99441188D01*
X112204831Y-99095957D01*
X112493399Y-98686886D01*
X112697015Y-98229556D01*
X112807925Y-97741386D01*
X112815909Y-97169595D01*
X112718673Y-96678519D01*
X112527906Y-96215681D01*
X112250872Y-95798713D01*
X111898125Y-95443494D01*
X111483100Y-95163557D01*
X111021606Y-94969562D01*
X110531221Y-94868901D01*
X110030623Y-94865406D01*
X109538880Y-94959211D01*
X109074722Y-95146743D01*
X108655829Y-95420858D01*
X108298157Y-95771117D01*
X108015329Y-96184177D01*
X107818117Y-96644306D01*
X107714035Y-97133977D01*
X107707045Y-97634538D01*
X105662202Y-97634538D01*
X107598731Y-95698009D01*
X107650821Y-95670312D01*
X107861208Y-95561258D01*
X107871749Y-95552843D01*
X107883660Y-95546510D01*
X108067304Y-95396733D01*
X108252468Y-95248919D01*
X108271236Y-95230410D01*
X108271628Y-95230091D01*
X108271928Y-95229728D01*
X108277970Y-95223770D01*
X110989641Y-92512100D01*
X125788560Y-92512100D01*
X128380230Y-95103770D01*
X128460902Y-95170035D01*
X128531639Y-95243285D01*
X128640652Y-95319051D01*
X128744847Y-95406481D01*
X128756669Y-95412980D01*
X128767091Y-95421541D01*
X128859099Y-95470875D01*
X128942715Y-95528990D01*
X129064360Y-95582135D01*
X129183560Y-95647666D01*
X129196418Y-95651745D01*
X129208306Y-95658119D01*
X129308155Y-95688646D01*
X129401456Y-95729408D01*
X129531102Y-95757913D01*
X129660765Y-95799044D01*
X129674166Y-95800547D01*
X129687069Y-95804492D01*
X129790948Y-95815044D01*
X129890388Y-95836907D01*
X130023104Y-95839687D01*
X130158284Y-95854850D01*
X130184644Y-95855034D01*
X130185146Y-95855085D01*
X130185614Y-95855041D01*
X130194100Y-95855100D01*
X139026092Y-95855100D01*
X138921662Y-96098752D01*
X138867616Y-96353016D01*
X138636916Y-96583716D01*
X138568404Y-96667124D01*
X138499037Y-96749793D01*
X138496077Y-96755177D01*
X138492178Y-96759924D01*
X138441184Y-96855027D01*
X138389182Y-96949618D01*
X138387324Y-96955475D01*
X138384421Y-96960889D01*
X138352873Y-97064080D01*
X138320232Y-97166976D01*
X138319547Y-97173084D01*
X138317751Y-97178958D01*
X138306844Y-97286331D01*
X138294814Y-97393587D01*
X138294730Y-97405595D01*
X138294707Y-97405822D01*
X138294727Y-97406034D01*
X138294700Y-97409900D01*
X138294700Y-99300933D01*
X137976132Y-99619500D01*
X127689176Y-99619500D01*
X127973303Y-99439188D01*
X128335831Y-99093957D01*
X128624399Y-98684886D01*
X128828015Y-98227556D01*
X128938925Y-97739386D01*
X128946909Y-97167595D01*
X128849673Y-96676519D01*
X128658906Y-96213681D01*
X128381872Y-95796713D01*
X128029125Y-95441494D01*
X127614100Y-95161557D01*
X127152606Y-94967562D01*
X126662221Y-94866901D01*
X126161623Y-94863406D01*
X125669880Y-94957211D01*
X125205722Y-95144743D01*
X124786829Y-95418858D01*
X124429157Y-95769117D01*
X124146329Y-96182177D01*
X123949117Y-96642306D01*
X123845035Y-97131977D01*
X123838045Y-97632538D01*
X123928415Y-98124924D01*
X124090578Y-98534500D01*
X120297491Y-98534500D01*
X120342950Y-98470057D01*
X120539587Y-98028403D01*
X120646695Y-97556966D01*
X120654406Y-97004775D01*
X120560503Y-96530531D01*
X120376274Y-96083559D01*
X120108737Y-95680883D01*
X119768081Y-95337840D01*
X119367282Y-95067498D01*
X118921607Y-94880153D01*
X118448030Y-94782942D01*
X117964591Y-94779567D01*
X117489704Y-94870156D01*
X117041456Y-95051260D01*
X116636922Y-95315980D01*
X116291510Y-95654233D01*
X116018376Y-96053134D01*
X115827925Y-96497491D01*
X115727410Y-96970377D01*
X115720660Y-97453781D01*
X115807932Y-97929289D01*
X115985902Y-98378790D01*
X116086250Y-98534500D01*
X114062100Y-98534500D01*
X113954666Y-98545034D01*
X113847170Y-98554439D01*
X113841273Y-98556152D01*
X113835157Y-98556752D01*
X113731812Y-98587953D01*
X113628194Y-98618057D01*
X113622741Y-98620884D01*
X113616857Y-98622660D01*
X113521569Y-98673326D01*
X113425743Y-98722997D01*
X113420939Y-98726832D01*
X113415517Y-98729715D01*
X113331902Y-98797910D01*
X113247532Y-98865262D01*
X113238981Y-98873694D01*
X113238805Y-98873838D01*
X113238670Y-98874001D01*
X113235916Y-98876717D01*
X112486116Y-99626516D01*
X112417604Y-99709924D01*
X112348237Y-99792593D01*
X112345277Y-99797977D01*
X112341378Y-99802724D01*
X112290384Y-99897827D01*
X112238382Y-99992418D01*
X112236524Y-99998275D01*
X112233621Y-100003689D01*
X112202073Y-100106880D01*
X112169432Y-100209776D01*
X112168747Y-100215884D01*
X112166951Y-100221758D01*
X112156044Y-100329131D01*
X112144014Y-100436387D01*
X112143930Y-100448395D01*
X112143907Y-100448622D01*
X112143927Y-100448834D01*
X112143900Y-100452700D01*
X112143900Y-101522388D01*
X111632909Y-102053253D01*
X111573736Y-102128160D01*
X111512733Y-102201621D01*
X111506193Y-102213663D01*
X111497704Y-102224409D01*
X111454206Y-102309386D01*
X111408634Y-102393295D01*
X111404559Y-102406373D01*
X111398317Y-102418567D01*
X111372150Y-102510383D01*
X111343747Y-102601536D01*
X111342290Y-102615157D01*
X111338535Y-102628332D01*
X111330700Y-102723486D01*
X111320544Y-102818416D01*
X111320515Y-102834020D01*
X111321749Y-103075178D01*
X110920607Y-102906553D01*
X110447030Y-102809342D01*
X109963591Y-102805967D01*
X109488704Y-102896556D01*
X109040456Y-103077660D01*
X108635922Y-103342380D01*
X108290510Y-103680633D01*
X108017376Y-104079534D01*
X107826925Y-104523891D01*
X107726410Y-104996777D01*
X107719660Y-105480181D01*
X107806932Y-105955689D01*
X107984902Y-106405190D01*
X108246791Y-106811563D01*
X108582624Y-107159328D01*
X108979609Y-107435240D01*
X109422625Y-107628789D01*
X109894798Y-107732603D01*
X110378143Y-107742727D01*
X110854249Y-107658777D01*
X111304981Y-107483949D01*
X111344189Y-107459067D01*
X111356500Y-109864290D01*
X111356500Y-110296900D01*
X111366568Y-110399583D01*
X111375571Y-110502484D01*
X111377212Y-110508132D01*
X111377785Y-110513976D01*
X111407608Y-110612756D01*
X111436424Y-110711941D01*
X111439129Y-110717159D01*
X111440827Y-110722784D01*
X111489291Y-110813930D01*
X111536802Y-110905589D01*
X111540468Y-110910182D01*
X111543227Y-110915370D01*
X111608463Y-110995357D01*
X111672881Y-111076052D01*
X111680952Y-111084237D01*
X111681084Y-111084399D01*
X111681234Y-111084523D01*
X111683837Y-111087163D01*
X111993319Y-111396645D01*
X111618100Y-111143557D01*
X111156606Y-110949562D01*
X110666221Y-110848901D01*
X110165623Y-110845406D01*
X109673880Y-110939211D01*
X109209722Y-111126743D01*
X108790829Y-111400858D01*
X108433157Y-111751117D01*
X108150329Y-112164177D01*
X107953117Y-112624306D01*
X107849035Y-113113977D01*
X107842045Y-113614538D01*
X107932415Y-114106924D01*
X108116702Y-114572379D01*
X108387886Y-114993176D01*
X108735639Y-115353285D01*
X109146715Y-115638990D01*
X109605456Y-115839408D01*
X110094388Y-115946907D01*
X110594888Y-115957391D01*
X111087893Y-115870461D01*
X111554624Y-115689428D01*
X111977303Y-115421188D01*
X112339831Y-115075957D01*
X112628399Y-114666886D01*
X112832015Y-114209556D01*
X112942925Y-113721386D01*
X112950909Y-113149595D01*
X112853673Y-112658519D01*
X112662906Y-112195681D01*
X112406628Y-111809953D01*
X112528837Y-111932162D01*
X112608557Y-111997644D01*
X112687693Y-112064047D01*
X112692848Y-112066881D01*
X112697384Y-112070607D01*
X112788296Y-112119354D01*
X112878831Y-112169126D01*
X112884435Y-112170904D01*
X112889611Y-112173679D01*
X112988304Y-112203853D01*
X113086738Y-112235078D01*
X113092578Y-112235733D01*
X113098197Y-112237451D01*
X113200891Y-112247882D01*
X113303496Y-112259391D01*
X113314985Y-112259471D01*
X113315199Y-112259493D01*
X113315398Y-112259474D01*
X113319100Y-112259500D01*
X115941671Y-112259500D01*
X115827925Y-112524891D01*
X115727410Y-112997777D01*
X115720660Y-113481181D01*
X115807932Y-113956689D01*
X115985902Y-114406190D01*
X116247791Y-114812563D01*
X116583624Y-115160328D01*
X116980609Y-115436240D01*
X117423625Y-115629789D01*
X117895798Y-115733603D01*
X118379143Y-115743727D01*
X118855249Y-115659777D01*
X119305981Y-115484949D01*
X119714172Y-115225904D01*
X120064274Y-114892506D01*
X120342950Y-114497457D01*
X120539587Y-114055803D01*
X120646695Y-113584366D01*
X120654406Y-113032175D01*
X120594733Y-112730806D01*
X120777018Y-112831018D01*
X120994376Y-112899968D01*
X121220987Y-112925386D01*
X121237300Y-112925500D01*
X121682777Y-112925500D01*
X121854861Y-113045101D01*
X122118744Y-113160389D01*
X122399994Y-113222226D01*
X122687899Y-113228256D01*
X122971493Y-113178251D01*
X123239972Y-113074115D01*
X123483112Y-112919814D01*
X123691650Y-112721225D01*
X123857644Y-112485914D01*
X123974771Y-112222842D01*
X124038570Y-111942030D01*
X124043103Y-111617438D01*
X124489148Y-111618193D01*
X124341157Y-111763117D01*
X124058329Y-112176177D01*
X123861117Y-112636306D01*
X123757035Y-113125977D01*
X123750045Y-113626538D01*
X123840415Y-114118924D01*
X124024702Y-114584379D01*
X124295886Y-115005176D01*
X124643639Y-115365285D01*
X125054715Y-115650990D01*
X125513456Y-115851408D01*
X126002388Y-115958907D01*
X126502888Y-115969391D01*
X126995893Y-115882461D01*
X127462624Y-115701428D01*
X127885303Y-115433188D01*
X128247831Y-115087957D01*
X128536399Y-114678886D01*
X128682755Y-114350163D01*
X133651836Y-114350163D01*
X133702049Y-114623756D01*
X133804448Y-114882385D01*
X133955131Y-115116199D01*
X134148359Y-115316292D01*
X134376772Y-115475044D01*
X134631670Y-115586406D01*
X134903343Y-115646137D01*
X135056050Y-115649336D01*
X137408236Y-118001522D01*
X137442049Y-118185756D01*
X137544448Y-118444385D01*
X137695131Y-118678199D01*
X137888359Y-118878292D01*
X138116772Y-119037044D01*
X138371670Y-119148406D01*
X138643343Y-119208137D01*
X138921445Y-119213962D01*
X139195381Y-119165660D01*
X139454719Y-119065070D01*
X139689580Y-118916023D01*
X139891017Y-118724196D01*
X140051359Y-118496897D01*
X140164498Y-118242783D01*
X140226124Y-117971533D01*
X140230561Y-117653819D01*
X140176532Y-117380954D01*
X140070533Y-117123780D01*
X139916600Y-116892092D01*
X139720597Y-116694716D01*
X139489990Y-116539169D01*
X139233562Y-116431377D01*
X139019025Y-116387339D01*
X136426640Y-113794954D01*
X136330533Y-113561780D01*
X136176600Y-113330092D01*
X135980597Y-113132716D01*
X135749990Y-112977169D01*
X135493562Y-112869377D01*
X135221081Y-112813445D01*
X134942925Y-112811503D01*
X134669689Y-112863625D01*
X134411781Y-112967827D01*
X134179025Y-113120138D01*
X133980285Y-113314759D01*
X133823133Y-113544274D01*
X133713553Y-113799943D01*
X133655719Y-114072027D01*
X133651836Y-114350163D01*
X128682755Y-114350163D01*
X128740015Y-114221556D01*
X128850925Y-113733386D01*
X128858909Y-113161595D01*
X128761673Y-112670519D01*
X128570906Y-112207681D01*
X128293872Y-111790713D01*
X128128674Y-111624357D01*
X137314863Y-111639915D01*
X137347072Y-111646391D01*
X137387294Y-111659785D01*
X137458600Y-111668815D01*
X137529058Y-111682982D01*
X137571448Y-111683107D01*
X137613518Y-111688435D01*
X137685220Y-111683443D01*
X137757089Y-111683655D01*
X137798708Y-111675542D01*
X137841000Y-111672597D01*
X137910363Y-111653775D01*
X137980908Y-111640022D01*
X138020151Y-111623982D01*
X138061072Y-111612878D01*
X138125459Y-111580941D01*
X138191989Y-111553748D01*
X138227375Y-111530388D01*
X138265354Y-111511549D01*
X138322310Y-111467715D01*
X138382292Y-111428117D01*
X138412464Y-111398331D01*
X138446064Y-111372472D01*
X138457881Y-111361225D01*
X139391881Y-110459826D01*
X139396504Y-110454397D01*
X139402036Y-110449905D01*
X139470361Y-110367670D01*
X139539726Y-110286217D01*
X139543207Y-110279994D01*
X139547761Y-110274512D01*
X139598823Y-110180551D01*
X139651035Y-110087196D01*
X139653240Y-110080417D01*
X139656643Y-110074155D01*
X139688489Y-109972045D01*
X139721567Y-109870347D01*
X139722413Y-109863272D01*
X139724536Y-109856464D01*
X139735945Y-109750077D01*
X139748636Y-109643927D01*
X139748092Y-109636823D01*
X139748852Y-109629732D01*
X139748886Y-109613419D01*
X139738417Y-107460370D01*
X139848644Y-107304114D01*
X139965771Y-107041042D01*
X140029570Y-106760230D01*
X140034163Y-106431316D01*
X139978230Y-106148832D01*
X139868494Y-105882592D01*
X139709134Y-105642738D01*
X139506222Y-105438404D01*
X139267486Y-105277374D01*
X139002019Y-105165782D01*
X138719932Y-105107878D01*
X138431971Y-105105868D01*
X138149104Y-105159827D01*
X137882104Y-105267702D01*
X137641143Y-105425383D01*
X137435398Y-105626864D01*
X137272705Y-105864470D01*
X137159262Y-106129152D01*
X137099390Y-106410827D01*
X137095370Y-106698767D01*
X137147354Y-106982004D01*
X137253362Y-107249750D01*
X137401685Y-107479904D01*
X137409685Y-109125263D01*
X137225560Y-109302961D01*
X133356980Y-109296409D01*
X133385124Y-109172533D01*
X133389561Y-108854819D01*
X133335532Y-108581954D01*
X133229533Y-108324780D01*
X133075600Y-108093092D01*
X132879597Y-107895716D01*
X132648990Y-107740169D01*
X132392562Y-107632377D01*
X132120081Y-107576445D01*
X131841925Y-107574503D01*
X131568689Y-107626625D01*
X131428414Y-107683300D01*
X126717172Y-107683300D01*
X126856249Y-107658777D01*
X127306981Y-107483949D01*
X127715172Y-107224904D01*
X128065274Y-106891506D01*
X128343950Y-106496457D01*
X128427925Y-106307847D01*
X128531343Y-106339902D01*
X128817276Y-106370060D01*
X128837845Y-106370068D01*
X135186845Y-106328068D01*
X135472800Y-106298119D01*
X135747491Y-106213198D01*
X136000455Y-106076540D01*
X136222059Y-105893350D01*
X136403861Y-105670606D01*
X136538936Y-105416792D01*
X136622138Y-105141575D01*
X136650300Y-104855440D01*
X136622348Y-104569283D01*
X136539347Y-104294006D01*
X136404458Y-104040093D01*
X136222820Y-103817216D01*
X136157380Y-103763040D01*
X136218810Y-103701610D01*
X136401306Y-103479434D01*
X136537173Y-103226043D01*
X136621236Y-102951089D01*
X136650291Y-102665043D01*
X136623233Y-102378800D01*
X136541093Y-102103265D01*
X136463607Y-101956300D01*
X138460100Y-101956300D01*
X138567489Y-101945770D01*
X138675029Y-101936362D01*
X138680931Y-101934647D01*
X138687043Y-101934048D01*
X138790358Y-101902856D01*
X138894006Y-101872743D01*
X138899459Y-101869916D01*
X138905343Y-101868140D01*
X139000631Y-101817474D01*
X139096457Y-101767803D01*
X139101261Y-101763968D01*
X139106683Y-101761085D01*
X139190298Y-101692890D01*
X139274668Y-101625538D01*
X139283223Y-101617102D01*
X139283395Y-101616962D01*
X139283527Y-101616803D01*
X139286284Y-101614084D01*
X140289283Y-100611084D01*
X140357771Y-100527706D01*
X140427163Y-100445007D01*
X140430123Y-100439623D01*
X140434022Y-100434876D01*
X140485016Y-100339773D01*
X140537018Y-100245182D01*
X140538876Y-100239325D01*
X140541779Y-100233911D01*
X140573331Y-100130708D01*
X140605968Y-100027824D01*
X140606653Y-100021718D01*
X140608449Y-100015843D01*
X140619356Y-99908464D01*
X140631386Y-99801213D01*
X140631470Y-99789205D01*
X140631493Y-99788978D01*
X140631473Y-99788766D01*
X140631500Y-99784900D01*
X140631500Y-97982519D01*
X140724893Y-97966051D01*
X140993372Y-97861915D01*
X141236512Y-97707614D01*
X141445050Y-97509025D01*
X141611044Y-97273714D01*
X141728171Y-97010642D01*
X141791970Y-96729830D01*
X141796563Y-96400916D01*
X141740630Y-96118432D01*
X141632093Y-95855100D01*
X142467100Y-95855100D01*
X142702967Y-95831973D01*
X142938972Y-95811325D01*
X142951922Y-95807563D01*
X142965350Y-95806246D01*
X143192186Y-95737760D01*
X143419733Y-95671652D01*
X143431712Y-95665443D01*
X143444622Y-95661545D01*
X143653821Y-95550312D01*
X143864208Y-95441258D01*
X143874749Y-95432843D01*
X143886660Y-95426510D01*
X144070304Y-95276733D01*
X144255468Y-95128919D01*
X144274236Y-95110410D01*
X144274628Y-95110091D01*
X144274928Y-95109728D01*
X144280970Y-95103770D01*
X145252971Y-94131770D01*
X145403412Y-93948620D01*
X145555681Y-93767153D01*
X145562178Y-93755335D01*
X145570742Y-93744909D01*
X145682724Y-93536064D01*
X145796866Y-93328440D01*
X145800945Y-93315582D01*
X145807319Y-93303694D01*
X145876606Y-93077066D01*
X145948244Y-92851235D01*
X145949747Y-92837834D01*
X145953692Y-92824931D01*
X145977643Y-92589136D01*
X146004050Y-92353716D01*
X146004234Y-92327356D01*
X146004285Y-92326854D01*
X146004241Y-92326386D01*
X146004300Y-92317900D01*
X146004300Y-88678786D01*
X146007983Y-88678816D01*
X146008198Y-88678839D01*
X146008426Y-88678819D01*
X146018338Y-88678899D01*
X146951807Y-88679942D01*
X147050217Y-121546619D01*
X145907547Y-121559971D01*
X145817079Y-121569910D01*
X145726507Y-121577999D01*
X145716319Y-121580979D01*
X145705749Y-121582140D01*
X145618922Y-121609466D01*
X145531659Y-121634989D01*
X145522238Y-121639894D01*
X145512102Y-121643084D01*
X145432272Y-121686734D01*
X145351591Y-121728740D01*
X145343301Y-121735382D01*
X145333978Y-121740480D01*
X145264138Y-121798812D01*
X145193162Y-121855682D01*
X145186321Y-121863807D01*
X145178165Y-121870619D01*
X145120991Y-121941399D01*
X145062408Y-122010977D01*
X145057274Y-122020278D01*
X145050598Y-122028543D01*
X145008270Y-122109061D01*
X144964306Y-122188713D01*
X144961076Y-122198836D01*
X144956134Y-122208237D01*
X144930255Y-122295435D01*
X144902597Y-122382117D01*
X144901395Y-122392674D01*
X144898372Y-122402859D01*
X144889920Y-122493439D01*
X144879627Y-122583826D01*
X144879501Y-122598349D01*
X144864351Y-131595872D01*
X91924300Y-131550341D01*
X91924300Y-112372902D01*
X92131414Y-112418439D01*
X92541234Y-112427024D01*
X92944916Y-112355844D01*
X93327084Y-112207610D01*
X93673182Y-111987970D01*
X93970027Y-111705288D01*
X94206312Y-111370333D01*
X94373038Y-110995862D01*
X94463852Y-110596139D01*
X94470390Y-110127945D01*
X94390772Y-109725842D01*
X94234567Y-109346862D01*
X94007727Y-109005440D01*
X93718891Y-108714580D01*
X93379060Y-108485362D01*
X93001180Y-108326515D01*
X92599643Y-108244092D01*
X92189743Y-108241230D01*
X91924300Y-108291866D01*
X91924300Y-104638902D01*
X92131414Y-104684439D01*
X92541234Y-104693024D01*
X92944916Y-104621844D01*
X93327084Y-104473610D01*
X93673182Y-104253970D01*
X93970027Y-103971288D01*
X94206312Y-103636333D01*
X94373038Y-103261862D01*
X94463852Y-102862139D01*
X94470390Y-102393945D01*
X94390772Y-101991842D01*
X94234567Y-101612862D01*
X94007727Y-101271440D01*
X93718891Y-100980580D01*
X93379060Y-100751362D01*
X93001180Y-100592515D01*
X92599643Y-100510092D01*
X92189743Y-100507230D01*
X91924300Y-100557866D01*
X91924300Y-78936100D01*
X121831998Y-78936100D01*
X134708198Y-78962625D01*
X134708198Y-78962625D01*
G37*
X134708198Y-78962625D02*
X134600560Y-79018419D01*
X134592105Y-79025169D01*
X134582552Y-79030248D01*
X134435270Y-79150368D01*
X134286753Y-79268928D01*
X134271695Y-79283777D01*
X134271386Y-79284029D01*
X134271150Y-79284315D01*
X134266299Y-79289098D01*
X131640299Y-81915099D01*
X131519692Y-82061928D01*
X131397511Y-82207537D01*
X131392298Y-82217019D01*
X131385432Y-82225378D01*
X131295624Y-82392870D01*
X131204071Y-82559404D01*
X131200800Y-82569715D01*
X131195687Y-82579251D01*
X131140123Y-82760995D01*
X131082659Y-82942142D01*
X131081453Y-82952895D01*
X131078290Y-82963240D01*
X131059085Y-83152310D01*
X131037901Y-83341174D01*
X131037753Y-83362324D01*
X131037713Y-83362718D01*
X131037748Y-83363085D01*
X131037700Y-83369900D01*
X131037700Y-83372900D01*
X131064851Y-83649810D01*
X131075501Y-83762471D01*
X131076092Y-83764455D01*
X131076883Y-83772518D01*
X131162743Y-84056900D01*
X100562940Y-84056900D01*
X100350872Y-83737713D01*
X99998125Y-83382494D01*
X99583100Y-83102557D01*
X99121606Y-82908562D01*
X98631221Y-82807901D01*
X98130623Y-82804406D01*
X97638880Y-82898211D01*
X97174722Y-83085743D01*
X96755829Y-83359858D01*
X96398157Y-83710117D01*
X96115329Y-84123177D01*
X95918117Y-84583306D01*
X95814035Y-85072977D01*
X95808101Y-85497900D01*
X95125765Y-85497900D01*
X95039886Y-85439974D01*
X94774419Y-85328382D01*
X94492332Y-85270478D01*
X94204371Y-85268468D01*
X93921504Y-85322427D01*
X93654504Y-85430302D01*
X93413543Y-85587983D01*
X93207798Y-85789464D01*
X93045105Y-86027070D01*
X92931662Y-86291752D01*
X92871790Y-86573427D01*
X92867770Y-86861367D01*
X92919754Y-87144604D01*
X93025762Y-87412350D01*
X93181756Y-87654407D01*
X93381796Y-87861554D01*
X93618261Y-88025901D01*
X93882144Y-88141189D01*
X94163394Y-88203026D01*
X94451299Y-88209056D01*
X94734893Y-88159051D01*
X95003372Y-88054915D01*
X95030183Y-88037900D01*
X97093100Y-88037900D01*
X97093100Y-123046530D01*
X97077722Y-123052743D01*
X96658829Y-123326858D01*
X96301157Y-123677117D01*
X96018329Y-124090177D01*
X95821117Y-124550306D01*
X95717035Y-125039977D01*
X95710045Y-125540538D01*
X95800415Y-126032924D01*
X95984702Y-126498379D01*
X96255886Y-126919176D01*
X96603639Y-127279285D01*
X97014715Y-127564990D01*
X97473456Y-127765408D01*
X97962388Y-127872907D01*
X98462888Y-127883391D01*
X98955893Y-127796461D01*
X99103852Y-127739071D01*
X100156391Y-128791610D01*
X100261533Y-128877974D01*
X100365791Y-128965457D01*
X100372581Y-128969190D01*
X100378566Y-128974106D01*
X100498468Y-129038397D01*
X100617745Y-129103970D01*
X100625131Y-129106313D01*
X100631957Y-129109973D01*
X100762095Y-129149761D01*
X100891804Y-129190907D01*
X100899500Y-129191770D01*
X100906911Y-129194036D01*
X101042344Y-129207793D01*
X101177531Y-129222956D01*
X101192671Y-129223062D01*
X101192957Y-129223091D01*
X101193223Y-129223066D01*
X101198100Y-129223100D01*
X136004100Y-129223100D01*
X136139555Y-129209818D01*
X136275097Y-129197960D01*
X136282535Y-129195799D01*
X136290246Y-129195043D01*
X136420538Y-129155705D01*
X136551199Y-129117745D01*
X136558076Y-129114180D01*
X136565493Y-129111941D01*
X136685645Y-129048055D01*
X136699376Y-129040938D01*
X136721774Y-129115122D01*
X136887010Y-129425886D01*
X137109460Y-129698637D01*
X137380652Y-129922986D01*
X137690254Y-130090388D01*
X138026476Y-130194466D01*
X138376510Y-130231256D01*
X138727023Y-130199357D01*
X139064666Y-130099983D01*
X139376576Y-129936921D01*
X139650873Y-129716380D01*
X139877110Y-129446761D01*
X140046669Y-129138335D01*
X140153091Y-128802848D01*
X140192324Y-128453079D01*
X140192500Y-128427900D01*
X140192500Y-127175646D01*
X140268831Y-127102957D01*
X140557399Y-126693886D01*
X140761015Y-126236556D01*
X140871925Y-125748386D01*
X140879909Y-125176595D01*
X140782673Y-124685519D01*
X140591906Y-124222681D01*
X140314872Y-123805713D01*
X139962125Y-123450494D01*
X139547100Y-123170557D01*
X139085606Y-122976562D01*
X138595221Y-122875901D01*
X138094623Y-122872406D01*
X137602880Y-122966211D01*
X137138722Y-123153743D01*
X136719829Y-123427858D01*
X136362157Y-123778117D01*
X136079329Y-124191177D01*
X135882117Y-124651306D01*
X135778035Y-125140977D01*
X135771045Y-125641538D01*
X135811053Y-125859527D01*
X135393880Y-126276700D01*
X133458557Y-126276700D01*
X133466616Y-126250665D01*
X133499261Y-125940071D01*
X133470956Y-125629052D01*
X133382780Y-125329455D01*
X133238090Y-125052689D01*
X133042399Y-124809299D01*
X132846300Y-124644752D01*
X133617755Y-123873297D01*
X133984388Y-123953907D01*
X134484888Y-123964391D01*
X134977893Y-123877461D01*
X135444624Y-123696428D01*
X135867303Y-123428188D01*
X136229831Y-123082957D01*
X136518399Y-122673886D01*
X136722015Y-122216556D01*
X136832925Y-121728386D01*
X136840909Y-121156595D01*
X136743673Y-120665519D01*
X136552906Y-120202681D01*
X136275872Y-119785713D01*
X135923125Y-119430494D01*
X135508100Y-119150557D01*
X135046606Y-118956562D01*
X134556221Y-118855901D01*
X134055623Y-118852406D01*
X133563880Y-118946211D01*
X133099722Y-119133743D01*
X132680829Y-119407858D01*
X132323157Y-119758117D01*
X132040329Y-120171177D01*
X131843117Y-120631306D01*
X131739035Y-121120977D01*
X131732045Y-121621538D01*
X131816617Y-122082331D01*
X130160708Y-123738240D01*
X130072267Y-123746600D01*
X129772979Y-123835822D01*
X129496721Y-123981477D01*
X129254014Y-124178016D01*
X129199955Y-124242900D01*
X107520288Y-124242900D01*
X107478886Y-124214974D01*
X107213419Y-124103382D01*
X106931332Y-124045478D01*
X106710186Y-124043934D01*
X104843233Y-122176982D01*
X104944925Y-121729386D01*
X104952909Y-121157595D01*
X104855673Y-120666519D01*
X104664906Y-120203681D01*
X104387872Y-119786713D01*
X104035125Y-119431494D01*
X103620100Y-119151557D01*
X103158606Y-118957562D01*
X102668221Y-118856901D01*
X102167623Y-118853406D01*
X101725917Y-118937666D01*
X100761100Y-117972848D01*
X100761100Y-115491640D01*
X104422230Y-119152770D01*
X104605324Y-119303165D01*
X104786847Y-119455481D01*
X104798669Y-119461980D01*
X104809091Y-119470541D01*
X104843394Y-119488934D01*
X108408230Y-123053770D01*
X108591324Y-123204165D01*
X108772847Y-123356481D01*
X108784669Y-123362980D01*
X108795091Y-123371541D01*
X109003897Y-123483502D01*
X109211560Y-123597666D01*
X109224418Y-123601745D01*
X109236306Y-123608119D01*
X109462934Y-123677406D01*
X109688765Y-123749044D01*
X109702166Y-123750547D01*
X109715069Y-123754492D01*
X109950864Y-123778443D01*
X110186284Y-123804850D01*
X110212644Y-123805034D01*
X110213146Y-123805085D01*
X110213614Y-123805041D01*
X110222100Y-123805100D01*
X126466100Y-123805100D01*
X126701967Y-123781973D01*
X126937972Y-123761325D01*
X126950922Y-123757563D01*
X126964350Y-123756246D01*
X127191186Y-123687760D01*
X127418733Y-123621652D01*
X127430712Y-123615443D01*
X127443622Y-123611545D01*
X127652821Y-123500312D01*
X127863208Y-123391258D01*
X127873749Y-123382843D01*
X127885660Y-123376510D01*
X128069304Y-123226733D01*
X128254468Y-123078919D01*
X128273236Y-123060410D01*
X128273628Y-123060091D01*
X128273928Y-123059728D01*
X128279970Y-123053770D01*
X132138970Y-119194770D01*
X132289365Y-119011676D01*
X132441681Y-118830153D01*
X132448180Y-118818331D01*
X132456741Y-118807909D01*
X132568702Y-118599103D01*
X132682866Y-118391440D01*
X132686945Y-118378582D01*
X132693319Y-118366694D01*
X132762606Y-118140066D01*
X132834244Y-117914235D01*
X132835747Y-117900834D01*
X132839692Y-117887931D01*
X132857967Y-117708020D01*
X132869925Y-117655386D01*
X132870870Y-117587709D01*
X132890050Y-117416716D01*
X132890234Y-117390356D01*
X132890285Y-117389854D01*
X132890241Y-117389386D01*
X132890300Y-117380900D01*
X132890300Y-117333900D01*
X132876394Y-117192078D01*
X132877909Y-117083595D01*
X132853837Y-116962023D01*
X132841446Y-116835650D01*
X132804745Y-116714090D01*
X132780673Y-116592519D01*
X132733446Y-116477936D01*
X132696745Y-116356378D01*
X132637135Y-116244267D01*
X132589906Y-116129681D01*
X132521322Y-116026454D01*
X132461710Y-115914340D01*
X132381453Y-115815935D01*
X132312872Y-115712713D01*
X132225549Y-115624778D01*
X132145291Y-115526372D01*
X132047450Y-115445431D01*
X131960125Y-115357494D01*
X131857382Y-115288193D01*
X131759542Y-115207253D01*
X131647842Y-115146857D01*
X131545100Y-115077557D01*
X131430853Y-115029532D01*
X131319155Y-114969137D01*
X131197858Y-114931589D01*
X131083606Y-114883562D01*
X130962200Y-114858641D01*
X130840905Y-114821094D01*
X130714624Y-114807821D01*
X130593221Y-114782901D01*
X130469290Y-114782036D01*
X130343008Y-114768763D01*
X130216553Y-114780271D01*
X130092623Y-114779406D01*
X129970886Y-114802629D01*
X129844429Y-114814137D01*
X129722615Y-114849989D01*
X129600880Y-114873211D01*
X129485975Y-114919636D01*
X129364159Y-114955488D01*
X129251626Y-115014319D01*
X129136722Y-115060743D01*
X129033022Y-115128602D01*
X128920491Y-115187432D01*
X128821534Y-115266995D01*
X128717829Y-115334858D01*
X128629278Y-115421574D01*
X128530324Y-115501135D01*
X128448707Y-115598402D01*
X128360157Y-115685117D01*
X128290138Y-115787378D01*
X128286255Y-115792005D01*
X125403560Y-118674700D01*
X111284640Y-118674700D01*
X108134970Y-115525030D01*
X108040345Y-115447304D01*
X107956125Y-115362494D01*
X107860700Y-115298129D01*
X107770353Y-115222319D01*
X107758531Y-115215820D01*
X107748109Y-115207259D01*
X107713806Y-115188866D01*
X104550300Y-112025360D01*
X104550300Y-98746440D01*
X105662202Y-97634538D01*
X107707045Y-97634538D01*
X107797415Y-98126924D01*
X107981702Y-98592379D01*
X108252886Y-99013176D01*
X108600639Y-99373285D01*
X109011715Y-99658990D01*
X109470456Y-99859408D01*
X109959388Y-99966907D01*
X110459888Y-99977391D01*
X110952893Y-99890461D01*
X111419624Y-99709428D01*
X111842303Y-99441188D01*
X112204831Y-99095957D01*
X112493399Y-98686886D01*
X112697015Y-98229556D01*
X112807925Y-97741386D01*
X112815909Y-97169595D01*
X112718673Y-96678519D01*
X112527906Y-96215681D01*
X112250872Y-95798713D01*
X111898125Y-95443494D01*
X111483100Y-95163557D01*
X111021606Y-94969562D01*
X110531221Y-94868901D01*
X110030623Y-94865406D01*
X109538880Y-94959211D01*
X109074722Y-95146743D01*
X108655829Y-95420858D01*
X108298157Y-95771117D01*
X108015329Y-96184177D01*
X107818117Y-96644306D01*
X107714035Y-97133977D01*
X107707045Y-97634538D01*
X105662202Y-97634538D01*
X107598731Y-95698009D01*
X107650821Y-95670312D01*
X107861208Y-95561258D01*
X107871749Y-95552843D01*
X107883660Y-95546510D01*
X108067304Y-95396733D01*
X108252468Y-95248919D01*
X108271236Y-95230410D01*
X108271628Y-95230091D01*
X108271928Y-95229728D01*
X108277970Y-95223770D01*
X110989641Y-92512100D01*
X125788560Y-92512100D01*
X128380230Y-95103770D01*
X128460902Y-95170035D01*
X128531639Y-95243285D01*
X128640652Y-95319051D01*
X128744847Y-95406481D01*
X128756669Y-95412980D01*
X128767091Y-95421541D01*
X128859099Y-95470875D01*
X128942715Y-95528990D01*
X129064360Y-95582135D01*
X129183560Y-95647666D01*
X129196418Y-95651745D01*
X129208306Y-95658119D01*
X129308155Y-95688646D01*
X129401456Y-95729408D01*
X129531102Y-95757913D01*
X129660765Y-95799044D01*
X129674166Y-95800547D01*
X129687069Y-95804492D01*
X129790948Y-95815044D01*
X129890388Y-95836907D01*
X130023104Y-95839687D01*
X130158284Y-95854850D01*
X130184644Y-95855034D01*
X130185146Y-95855085D01*
X130185614Y-95855041D01*
X130194100Y-95855100D01*
X139026092Y-95855100D01*
X138921662Y-96098752D01*
X138867616Y-96353016D01*
X138636916Y-96583716D01*
X138568404Y-96667124D01*
X138499037Y-96749793D01*
X138496077Y-96755177D01*
X138492178Y-96759924D01*
X138441184Y-96855027D01*
X138389182Y-96949618D01*
X138387324Y-96955475D01*
X138384421Y-96960889D01*
X138352873Y-97064080D01*
X138320232Y-97166976D01*
X138319547Y-97173084D01*
X138317751Y-97178958D01*
X138306844Y-97286331D01*
X138294814Y-97393587D01*
X138294730Y-97405595D01*
X138294707Y-97405822D01*
X138294727Y-97406034D01*
X138294700Y-97409900D01*
X138294700Y-99300933D01*
X137976132Y-99619500D01*
X127689176Y-99619500D01*
X127973303Y-99439188D01*
X128335831Y-99093957D01*
X128624399Y-98684886D01*
X128828015Y-98227556D01*
X128938925Y-97739386D01*
X128946909Y-97167595D01*
X128849673Y-96676519D01*
X128658906Y-96213681D01*
X128381872Y-95796713D01*
X128029125Y-95441494D01*
X127614100Y-95161557D01*
X127152606Y-94967562D01*
X126662221Y-94866901D01*
X126161623Y-94863406D01*
X125669880Y-94957211D01*
X125205722Y-95144743D01*
X124786829Y-95418858D01*
X124429157Y-95769117D01*
X124146329Y-96182177D01*
X123949117Y-96642306D01*
X123845035Y-97131977D01*
X123838045Y-97632538D01*
X123928415Y-98124924D01*
X124090578Y-98534500D01*
X120297491Y-98534500D01*
X120342950Y-98470057D01*
X120539587Y-98028403D01*
X120646695Y-97556966D01*
X120654406Y-97004775D01*
X120560503Y-96530531D01*
X120376274Y-96083559D01*
X120108737Y-95680883D01*
X119768081Y-95337840D01*
X119367282Y-95067498D01*
X118921607Y-94880153D01*
X118448030Y-94782942D01*
X117964591Y-94779567D01*
X117489704Y-94870156D01*
X117041456Y-95051260D01*
X116636922Y-95315980D01*
X116291510Y-95654233D01*
X116018376Y-96053134D01*
X115827925Y-96497491D01*
X115727410Y-96970377D01*
X115720660Y-97453781D01*
X115807932Y-97929289D01*
X115985902Y-98378790D01*
X116086250Y-98534500D01*
X114062100Y-98534500D01*
X113954666Y-98545034D01*
X113847170Y-98554439D01*
X113841273Y-98556152D01*
X113835157Y-98556752D01*
X113731812Y-98587953D01*
X113628194Y-98618057D01*
X113622741Y-98620884D01*
X113616857Y-98622660D01*
X113521569Y-98673326D01*
X113425743Y-98722997D01*
X113420939Y-98726832D01*
X113415517Y-98729715D01*
X113331902Y-98797910D01*
X113247532Y-98865262D01*
X113238981Y-98873694D01*
X113238805Y-98873838D01*
X113238670Y-98874001D01*
X113235916Y-98876717D01*
X112486116Y-99626516D01*
X112417604Y-99709924D01*
X112348237Y-99792593D01*
X112345277Y-99797977D01*
X112341378Y-99802724D01*
X112290384Y-99897827D01*
X112238382Y-99992418D01*
X112236524Y-99998275D01*
X112233621Y-100003689D01*
X112202073Y-100106880D01*
X112169432Y-100209776D01*
X112168747Y-100215884D01*
X112166951Y-100221758D01*
X112156044Y-100329131D01*
X112144014Y-100436387D01*
X112143930Y-100448395D01*
X112143907Y-100448622D01*
X112143927Y-100448834D01*
X112143900Y-100452700D01*
X112143900Y-101522388D01*
X111632909Y-102053253D01*
X111573736Y-102128160D01*
X111512733Y-102201621D01*
X111506193Y-102213663D01*
X111497704Y-102224409D01*
X111454206Y-102309386D01*
X111408634Y-102393295D01*
X111404559Y-102406373D01*
X111398317Y-102418567D01*
X111372150Y-102510383D01*
X111343747Y-102601536D01*
X111342290Y-102615157D01*
X111338535Y-102628332D01*
X111330700Y-102723486D01*
X111320544Y-102818416D01*
X111320515Y-102834020D01*
X111321749Y-103075178D01*
X110920607Y-102906553D01*
X110447030Y-102809342D01*
X109963591Y-102805967D01*
X109488704Y-102896556D01*
X109040456Y-103077660D01*
X108635922Y-103342380D01*
X108290510Y-103680633D01*
X108017376Y-104079534D01*
X107826925Y-104523891D01*
X107726410Y-104996777D01*
X107719660Y-105480181D01*
X107806932Y-105955689D01*
X107984902Y-106405190D01*
X108246791Y-106811563D01*
X108582624Y-107159328D01*
X108979609Y-107435240D01*
X109422625Y-107628789D01*
X109894798Y-107732603D01*
X110378143Y-107742727D01*
X110854249Y-107658777D01*
X111304981Y-107483949D01*
X111344189Y-107459067D01*
X111356500Y-109864290D01*
X111356500Y-110296900D01*
X111366568Y-110399583D01*
X111375571Y-110502484D01*
X111377212Y-110508132D01*
X111377785Y-110513976D01*
X111407608Y-110612756D01*
X111436424Y-110711941D01*
X111439129Y-110717159D01*
X111440827Y-110722784D01*
X111489291Y-110813930D01*
X111536802Y-110905589D01*
X111540468Y-110910182D01*
X111543227Y-110915370D01*
X111608463Y-110995357D01*
X111672881Y-111076052D01*
X111680952Y-111084237D01*
X111681084Y-111084399D01*
X111681234Y-111084523D01*
X111683837Y-111087163D01*
X111993319Y-111396645D01*
X111618100Y-111143557D01*
X111156606Y-110949562D01*
X110666221Y-110848901D01*
X110165623Y-110845406D01*
X109673880Y-110939211D01*
X109209722Y-111126743D01*
X108790829Y-111400858D01*
X108433157Y-111751117D01*
X108150329Y-112164177D01*
X107953117Y-112624306D01*
X107849035Y-113113977D01*
X107842045Y-113614538D01*
X107932415Y-114106924D01*
X108116702Y-114572379D01*
X108387886Y-114993176D01*
X108735639Y-115353285D01*
X109146715Y-115638990D01*
X109605456Y-115839408D01*
X110094388Y-115946907D01*
X110594888Y-115957391D01*
X111087893Y-115870461D01*
X111554624Y-115689428D01*
X111977303Y-115421188D01*
X112339831Y-115075957D01*
X112628399Y-114666886D01*
X112832015Y-114209556D01*
X112942925Y-113721386D01*
X112950909Y-113149595D01*
X112853673Y-112658519D01*
X112662906Y-112195681D01*
X112406628Y-111809953D01*
X112528837Y-111932162D01*
X112608557Y-111997644D01*
X112687693Y-112064047D01*
X112692848Y-112066881D01*
X112697384Y-112070607D01*
X112788296Y-112119354D01*
X112878831Y-112169126D01*
X112884435Y-112170904D01*
X112889611Y-112173679D01*
X112988304Y-112203853D01*
X113086738Y-112235078D01*
X113092578Y-112235733D01*
X113098197Y-112237451D01*
X113200891Y-112247882D01*
X113303496Y-112259391D01*
X113314985Y-112259471D01*
X113315199Y-112259493D01*
X113315398Y-112259474D01*
X113319100Y-112259500D01*
X115941671Y-112259500D01*
X115827925Y-112524891D01*
X115727410Y-112997777D01*
X115720660Y-113481181D01*
X115807932Y-113956689D01*
X115985902Y-114406190D01*
X116247791Y-114812563D01*
X116583624Y-115160328D01*
X116980609Y-115436240D01*
X117423625Y-115629789D01*
X117895798Y-115733603D01*
X118379143Y-115743727D01*
X118855249Y-115659777D01*
X119305981Y-115484949D01*
X119714172Y-115225904D01*
X120064274Y-114892506D01*
X120342950Y-114497457D01*
X120539587Y-114055803D01*
X120646695Y-113584366D01*
X120654406Y-113032175D01*
X120594733Y-112730806D01*
X120777018Y-112831018D01*
X120994376Y-112899968D01*
X121220987Y-112925386D01*
X121237300Y-112925500D01*
X121682777Y-112925500D01*
X121854861Y-113045101D01*
X122118744Y-113160389D01*
X122399994Y-113222226D01*
X122687899Y-113228256D01*
X122971493Y-113178251D01*
X123239972Y-113074115D01*
X123483112Y-112919814D01*
X123691650Y-112721225D01*
X123857644Y-112485914D01*
X123974771Y-112222842D01*
X124038570Y-111942030D01*
X124043103Y-111617438D01*
X124489148Y-111618193D01*
X124341157Y-111763117D01*
X124058329Y-112176177D01*
X123861117Y-112636306D01*
X123757035Y-113125977D01*
X123750045Y-113626538D01*
X123840415Y-114118924D01*
X124024702Y-114584379D01*
X124295886Y-115005176D01*
X124643639Y-115365285D01*
X125054715Y-115650990D01*
X125513456Y-115851408D01*
X126002388Y-115958907D01*
X126502888Y-115969391D01*
X126995893Y-115882461D01*
X127462624Y-115701428D01*
X127885303Y-115433188D01*
X128247831Y-115087957D01*
X128536399Y-114678886D01*
X128682755Y-114350163D01*
X133651836Y-114350163D01*
X133702049Y-114623756D01*
X133804448Y-114882385D01*
X133955131Y-115116199D01*
X134148359Y-115316292D01*
X134376772Y-115475044D01*
X134631670Y-115586406D01*
X134903343Y-115646137D01*
X135056050Y-115649336D01*
X137408236Y-118001522D01*
X137442049Y-118185756D01*
X137544448Y-118444385D01*
X137695131Y-118678199D01*
X137888359Y-118878292D01*
X138116772Y-119037044D01*
X138371670Y-119148406D01*
X138643343Y-119208137D01*
X138921445Y-119213962D01*
X139195381Y-119165660D01*
X139454719Y-119065070D01*
X139689580Y-118916023D01*
X139891017Y-118724196D01*
X140051359Y-118496897D01*
X140164498Y-118242783D01*
X140226124Y-117971533D01*
X140230561Y-117653819D01*
X140176532Y-117380954D01*
X140070533Y-117123780D01*
X139916600Y-116892092D01*
X139720597Y-116694716D01*
X139489990Y-116539169D01*
X139233562Y-116431377D01*
X139019025Y-116387339D01*
X136426640Y-113794954D01*
X136330533Y-113561780D01*
X136176600Y-113330092D01*
X135980597Y-113132716D01*
X135749990Y-112977169D01*
X135493562Y-112869377D01*
X135221081Y-112813445D01*
X134942925Y-112811503D01*
X134669689Y-112863625D01*
X134411781Y-112967827D01*
X134179025Y-113120138D01*
X133980285Y-113314759D01*
X133823133Y-113544274D01*
X133713553Y-113799943D01*
X133655719Y-114072027D01*
X133651836Y-114350163D01*
X128682755Y-114350163D01*
X128740015Y-114221556D01*
X128850925Y-113733386D01*
X128858909Y-113161595D01*
X128761673Y-112670519D01*
X128570906Y-112207681D01*
X128293872Y-111790713D01*
X128128674Y-111624357D01*
X137314863Y-111639915D01*
X137347072Y-111646391D01*
X137387294Y-111659785D01*
X137458600Y-111668815D01*
X137529058Y-111682982D01*
X137571448Y-111683107D01*
X137613518Y-111688435D01*
X137685220Y-111683443D01*
X137757089Y-111683655D01*
X137798708Y-111675542D01*
X137841000Y-111672597D01*
X137910363Y-111653775D01*
X137980908Y-111640022D01*
X138020151Y-111623982D01*
X138061072Y-111612878D01*
X138125459Y-111580941D01*
X138191989Y-111553748D01*
X138227375Y-111530388D01*
X138265354Y-111511549D01*
X138322310Y-111467715D01*
X138382292Y-111428117D01*
X138412464Y-111398331D01*
X138446064Y-111372472D01*
X138457881Y-111361225D01*
X139391881Y-110459826D01*
X139396504Y-110454397D01*
X139402036Y-110449905D01*
X139470361Y-110367670D01*
X139539726Y-110286217D01*
X139543207Y-110279994D01*
X139547761Y-110274512D01*
X139598823Y-110180551D01*
X139651035Y-110087196D01*
X139653240Y-110080417D01*
X139656643Y-110074155D01*
X139688489Y-109972045D01*
X139721567Y-109870347D01*
X139722413Y-109863272D01*
X139724536Y-109856464D01*
X139735945Y-109750077D01*
X139748636Y-109643927D01*
X139748092Y-109636823D01*
X139748852Y-109629732D01*
X139748886Y-109613419D01*
X139738417Y-107460370D01*
X139848644Y-107304114D01*
X139965771Y-107041042D01*
X140029570Y-106760230D01*
X140034163Y-106431316D01*
X139978230Y-106148832D01*
X139868494Y-105882592D01*
X139709134Y-105642738D01*
X139506222Y-105438404D01*
X139267486Y-105277374D01*
X139002019Y-105165782D01*
X138719932Y-105107878D01*
X138431971Y-105105868D01*
X138149104Y-105159827D01*
X137882104Y-105267702D01*
X137641143Y-105425383D01*
X137435398Y-105626864D01*
X137272705Y-105864470D01*
X137159262Y-106129152D01*
X137099390Y-106410827D01*
X137095370Y-106698767D01*
X137147354Y-106982004D01*
X137253362Y-107249750D01*
X137401685Y-107479904D01*
X137409685Y-109125263D01*
X137225560Y-109302961D01*
X133356980Y-109296409D01*
X133385124Y-109172533D01*
X133389561Y-108854819D01*
X133335532Y-108581954D01*
X133229533Y-108324780D01*
X133075600Y-108093092D01*
X132879597Y-107895716D01*
X132648990Y-107740169D01*
X132392562Y-107632377D01*
X132120081Y-107576445D01*
X131841925Y-107574503D01*
X131568689Y-107626625D01*
X131428414Y-107683300D01*
X126717172Y-107683300D01*
X126856249Y-107658777D01*
X127306981Y-107483949D01*
X127715172Y-107224904D01*
X128065274Y-106891506D01*
X128343950Y-106496457D01*
X128427925Y-106307847D01*
X128531343Y-106339902D01*
X128817276Y-106370060D01*
X128837845Y-106370068D01*
X135186845Y-106328068D01*
X135472800Y-106298119D01*
X135747491Y-106213198D01*
X136000455Y-106076540D01*
X136222059Y-105893350D01*
X136403861Y-105670606D01*
X136538936Y-105416792D01*
X136622138Y-105141575D01*
X136650300Y-104855440D01*
X136622348Y-104569283D01*
X136539347Y-104294006D01*
X136404458Y-104040093D01*
X136222820Y-103817216D01*
X136157380Y-103763040D01*
X136218810Y-103701610D01*
X136401306Y-103479434D01*
X136537173Y-103226043D01*
X136621236Y-102951089D01*
X136650291Y-102665043D01*
X136623233Y-102378800D01*
X136541093Y-102103265D01*
X136463607Y-101956300D01*
X138460100Y-101956300D01*
X138567489Y-101945770D01*
X138675029Y-101936362D01*
X138680931Y-101934647D01*
X138687043Y-101934048D01*
X138790358Y-101902856D01*
X138894006Y-101872743D01*
X138899459Y-101869916D01*
X138905343Y-101868140D01*
X139000631Y-101817474D01*
X139096457Y-101767803D01*
X139101261Y-101763968D01*
X139106683Y-101761085D01*
X139190298Y-101692890D01*
X139274668Y-101625538D01*
X139283223Y-101617102D01*
X139283395Y-101616962D01*
X139283527Y-101616803D01*
X139286284Y-101614084D01*
X140289283Y-100611084D01*
X140357771Y-100527706D01*
X140427163Y-100445007D01*
X140430123Y-100439623D01*
X140434022Y-100434876D01*
X140485016Y-100339773D01*
X140537018Y-100245182D01*
X140538876Y-100239325D01*
X140541779Y-100233911D01*
X140573331Y-100130708D01*
X140605968Y-100027824D01*
X140606653Y-100021718D01*
X140608449Y-100015843D01*
X140619356Y-99908464D01*
X140631386Y-99801213D01*
X140631470Y-99789205D01*
X140631493Y-99788978D01*
X140631473Y-99788766D01*
X140631500Y-99784900D01*
X140631500Y-97982519D01*
X140724893Y-97966051D01*
X140993372Y-97861915D01*
X141236512Y-97707614D01*
X141445050Y-97509025D01*
X141611044Y-97273714D01*
X141728171Y-97010642D01*
X141791970Y-96729830D01*
X141796563Y-96400916D01*
X141740630Y-96118432D01*
X141632093Y-95855100D01*
X142467100Y-95855100D01*
X142702967Y-95831973D01*
X142938972Y-95811325D01*
X142951922Y-95807563D01*
X142965350Y-95806246D01*
X143192186Y-95737760D01*
X143419733Y-95671652D01*
X143431712Y-95665443D01*
X143444622Y-95661545D01*
X143653821Y-95550312D01*
X143864208Y-95441258D01*
X143874749Y-95432843D01*
X143886660Y-95426510D01*
X144070304Y-95276733D01*
X144255468Y-95128919D01*
X144274236Y-95110410D01*
X144274628Y-95110091D01*
X144274928Y-95109728D01*
X144280970Y-95103770D01*
X145252971Y-94131770D01*
X145403412Y-93948620D01*
X145555681Y-93767153D01*
X145562178Y-93755335D01*
X145570742Y-93744909D01*
X145682724Y-93536064D01*
X145796866Y-93328440D01*
X145800945Y-93315582D01*
X145807319Y-93303694D01*
X145876606Y-93077066D01*
X145948244Y-92851235D01*
X145949747Y-92837834D01*
X145953692Y-92824931D01*
X145977643Y-92589136D01*
X146004050Y-92353716D01*
X146004234Y-92327356D01*
X146004285Y-92326854D01*
X146004241Y-92326386D01*
X146004300Y-92317900D01*
X146004300Y-88678786D01*
X146007983Y-88678816D01*
X146008198Y-88678839D01*
X146008426Y-88678819D01*
X146018338Y-88678899D01*
X146951807Y-88679942D01*
X147050217Y-121546619D01*
X145907547Y-121559971D01*
X145817079Y-121569910D01*
X145726507Y-121577999D01*
X145716319Y-121580979D01*
X145705749Y-121582140D01*
X145618922Y-121609466D01*
X145531659Y-121634989D01*
X145522238Y-121639894D01*
X145512102Y-121643084D01*
X145432272Y-121686734D01*
X145351591Y-121728740D01*
X145343301Y-121735382D01*
X145333978Y-121740480D01*
X145264138Y-121798812D01*
X145193162Y-121855682D01*
X145186321Y-121863807D01*
X145178165Y-121870619D01*
X145120991Y-121941399D01*
X145062408Y-122010977D01*
X145057274Y-122020278D01*
X145050598Y-122028543D01*
X145008270Y-122109061D01*
X144964306Y-122188713D01*
X144961076Y-122198836D01*
X144956134Y-122208237D01*
X144930255Y-122295435D01*
X144902597Y-122382117D01*
X144901395Y-122392674D01*
X144898372Y-122402859D01*
X144889920Y-122493439D01*
X144879627Y-122583826D01*
X144879501Y-122598349D01*
X144864351Y-131595872D01*
X91924300Y-131550341D01*
X91924300Y-112372902D01*
X92131414Y-112418439D01*
X92541234Y-112427024D01*
X92944916Y-112355844D01*
X93327084Y-112207610D01*
X93673182Y-111987970D01*
X93970027Y-111705288D01*
X94206312Y-111370333D01*
X94373038Y-110995862D01*
X94463852Y-110596139D01*
X94470390Y-110127945D01*
X94390772Y-109725842D01*
X94234567Y-109346862D01*
X94007727Y-109005440D01*
X93718891Y-108714580D01*
X93379060Y-108485362D01*
X93001180Y-108326515D01*
X92599643Y-108244092D01*
X92189743Y-108241230D01*
X91924300Y-108291866D01*
X91924300Y-104638902D01*
X92131414Y-104684439D01*
X92541234Y-104693024D01*
X92944916Y-104621844D01*
X93327084Y-104473610D01*
X93673182Y-104253970D01*
X93970027Y-103971288D01*
X94206312Y-103636333D01*
X94373038Y-103261862D01*
X94463852Y-102862139D01*
X94470390Y-102393945D01*
X94390772Y-101991842D01*
X94234567Y-101612862D01*
X94007727Y-101271440D01*
X93718891Y-100980580D01*
X93379060Y-100751362D01*
X93001180Y-100592515D01*
X92599643Y-100510092D01*
X92189743Y-100507230D01*
X91924300Y-100557866D01*
X91924300Y-78936100D01*
X121831998Y-78936100D01*
X134708198Y-78962625D01*
G36*
X122450500Y-108081900D02*
X122462858Y-108207935D01*
X122473905Y-108334208D01*
X122475919Y-108341139D01*
X122476622Y-108348312D01*
X122513227Y-108469553D01*
X122548589Y-108591268D01*
X122551909Y-108597672D01*
X122553993Y-108604576D01*
X122613475Y-108716447D01*
X122671779Y-108828926D01*
X122676278Y-108834562D01*
X122679665Y-108840932D01*
X122759749Y-108939124D01*
X122838785Y-109038131D01*
X122848689Y-109048175D01*
X122848853Y-109048376D01*
X122849039Y-109048530D01*
X122852232Y-109051768D01*
X123079467Y-109279003D01*
X122123414Y-109277384D01*
X122167570Y-109083030D01*
X122172163Y-108754116D01*
X122116230Y-108471632D01*
X122006494Y-108205392D01*
X121847134Y-107965538D01*
X121821300Y-107939523D01*
X121821300Y-107910815D01*
X121862372Y-107819699D01*
X121900770Y-107549500D01*
X121900770Y-106744500D01*
X121888513Y-106590795D01*
X121807779Y-106330096D01*
X121705408Y-106174741D01*
X121743338Y-106159030D01*
X121851371Y-106086845D01*
X121943245Y-105994970D01*
X122015430Y-105886938D01*
X122065152Y-105766898D01*
X122090500Y-105639465D01*
X122090500Y-105564400D01*
X122045536Y-105519436D01*
X122073190Y-105501213D01*
X122250219Y-105293504D01*
X122362372Y-105044699D01*
X122372476Y-104973600D01*
X122450500Y-104973600D01*
X122450500Y-108081900D01*
X122450500Y-108081900D01*
G37*
X122450500Y-108081900D02*
X122462858Y-108207935D01*
X122473905Y-108334208D01*
X122475919Y-108341139D01*
X122476622Y-108348312D01*
X122513227Y-108469553D01*
X122548589Y-108591268D01*
X122551909Y-108597672D01*
X122553993Y-108604576D01*
X122613475Y-108716447D01*
X122671779Y-108828926D01*
X122676278Y-108834562D01*
X122679665Y-108840932D01*
X122759749Y-108939124D01*
X122838785Y-109038131D01*
X122848689Y-109048175D01*
X122848853Y-109048376D01*
X122849039Y-109048530D01*
X122852232Y-109051768D01*
X123079467Y-109279003D01*
X122123414Y-109277384D01*
X122167570Y-109083030D01*
X122172163Y-108754116D01*
X122116230Y-108471632D01*
X122006494Y-108205392D01*
X121847134Y-107965538D01*
X121821300Y-107939523D01*
X121821300Y-107910815D01*
X121862372Y-107819699D01*
X121900770Y-107549500D01*
X121900770Y-106744500D01*
X121888513Y-106590795D01*
X121807779Y-106330096D01*
X121705408Y-106174741D01*
X121743338Y-106159030D01*
X121851371Y-106086845D01*
X121943245Y-105994970D01*
X122015430Y-105886938D01*
X122065152Y-105766898D01*
X122090500Y-105639465D01*
X122090500Y-105564400D01*
X122045536Y-105519436D01*
X122073190Y-105501213D01*
X122250219Y-105293504D01*
X122362372Y-105044699D01*
X122372476Y-104973600D01*
X122450500Y-104973600D01*
X122450500Y-108081900D01*
G36*
X119675756Y-104952322D02*
X119749021Y-105188904D01*
X119899187Y-105416790D01*
X120015110Y-105515590D01*
X119966300Y-105564400D01*
X119966300Y-105639465D01*
X119991648Y-105766898D01*
X119994851Y-105774630D01*
X119830900Y-105774630D01*
X119677195Y-105786887D01*
X119626853Y-105802477D01*
X119430900Y-105774630D01*
X119080900Y-105774630D01*
X118927195Y-105786887D01*
X118876853Y-105802477D01*
X118680900Y-105774630D01*
X118428540Y-105774630D01*
X118470430Y-105711938D01*
X118520152Y-105591898D01*
X118545500Y-105464465D01*
X118545500Y-105389400D01*
X118380600Y-105224500D01*
X117508400Y-105224500D01*
X117508400Y-105244500D01*
X117458400Y-105244500D01*
X117458400Y-105224500D01*
X117438400Y-105224500D01*
X117438400Y-105174500D01*
X117458400Y-105174500D01*
X117458400Y-105154500D01*
X117508400Y-105154500D01*
X117508400Y-105174500D01*
X118380600Y-105174500D01*
X118545500Y-105009600D01*
X118545500Y-104974370D01*
X118680900Y-104974370D01*
X118834605Y-104962113D01*
X118884947Y-104946523D01*
X119080900Y-104974370D01*
X119430900Y-104974370D01*
X119584605Y-104962113D01*
X119634947Y-104946523D01*
X119675756Y-104952322D01*
X119675756Y-104952322D01*
G37*
X119675756Y-104952322D02*
X119749021Y-105188904D01*
X119899187Y-105416790D01*
X120015110Y-105515590D01*
X119966300Y-105564400D01*
X119966300Y-105639465D01*
X119991648Y-105766898D01*
X119994851Y-105774630D01*
X119830900Y-105774630D01*
X119677195Y-105786887D01*
X119626853Y-105802477D01*
X119430900Y-105774630D01*
X119080900Y-105774630D01*
X118927195Y-105786887D01*
X118876853Y-105802477D01*
X118680900Y-105774630D01*
X118428540Y-105774630D01*
X118470430Y-105711938D01*
X118520152Y-105591898D01*
X118545500Y-105464465D01*
X118545500Y-105389400D01*
X118380600Y-105224500D01*
X117508400Y-105224500D01*
X117508400Y-105244500D01*
X117458400Y-105244500D01*
X117458400Y-105224500D01*
X117438400Y-105224500D01*
X117438400Y-105174500D01*
X117458400Y-105174500D01*
X117458400Y-105154500D01*
X117508400Y-105154500D01*
X117508400Y-105174500D01*
X118380600Y-105174500D01*
X118545500Y-105009600D01*
X118545500Y-104974370D01*
X118680900Y-104974370D01*
X118834605Y-104962113D01*
X118884947Y-104946523D01*
X119080900Y-104974370D01*
X119430900Y-104974370D01*
X119584605Y-104962113D01*
X119634947Y-104946523D01*
X119675756Y-104952322D01*
M02*
