G04 #@! TF.FileFunction,Soldermask,Bot*
%FSLAX46Y46*%
G04 Gerber Fmt 4.6, Leading zero omitted, Abs format (unit mm)*
G04 Created by KiCad (PCBNEW 4.0.6) date 05/08/17 07:17:45*
%MOMM*%
%LPD*%
G01*
G04 APERTURE LIST*
%ADD10C,0.100000*%
%ADD11R,1.600000X1.600000*%
%ADD12C,2.940000*%
%ADD13C,3.575000*%
%ADD14R,0.750000X1.205000*%
%ADD15R,1.205000X0.800000*%
G04 APERTURE END LIST*
D10*
D11*
X115395100Y-104222900D03*
X115395100Y-106322900D03*
D12*
X130325100Y-117333900D03*
D13*
X130325100Y-117333900D03*
D12*
X106321100Y-117338900D03*
D13*
X106321100Y-117338900D03*
D12*
X130194100Y-93289900D03*
D13*
X130194100Y-93289900D03*
D12*
X106259100Y-93409900D03*
D13*
X106259100Y-93409900D03*
D12*
X126306100Y-113411900D03*
D13*
X126306100Y-113411900D03*
D12*
X110398100Y-113399900D03*
D13*
X110398100Y-113399900D03*
D12*
X126394100Y-97417900D03*
D13*
X126394100Y-97417900D03*
D12*
X110263100Y-97419900D03*
D13*
X110263100Y-97419900D03*
D12*
X138327100Y-125426900D03*
D13*
X138327100Y-125426900D03*
D12*
X98266100Y-125325900D03*
D13*
X98266100Y-125325900D03*
D12*
X138258100Y-85326900D03*
D13*
X138258100Y-85326900D03*
D12*
X98363100Y-85358900D03*
D13*
X98363100Y-85358900D03*
D12*
X134288100Y-121406900D03*
D13*
X134288100Y-121406900D03*
D12*
X102400100Y-121407900D03*
D13*
X102400100Y-121407900D03*
D12*
X134339100Y-89424900D03*
D13*
X134339100Y-89424900D03*
D12*
X102272100Y-89399900D03*
D13*
X102272100Y-89399900D03*
D14*
X117755900Y-103602000D03*
X118505900Y-103602000D03*
X119255900Y-103602000D03*
X120005900Y-103602000D03*
X120755900Y-103602000D03*
D15*
X121028400Y-104574500D03*
D14*
X120755900Y-107147000D03*
X120005900Y-107147000D03*
X119255900Y-107147000D03*
X118505900Y-107147000D03*
X117755900Y-107147000D03*
D15*
X117483400Y-105199500D03*
X121028400Y-105374500D03*
M02*
