%FSLAX45Y45*%
G04 Gerber Fmt 4.5, Leading zero omitted, Abs format (unit mm)*
G04 Created by KiCad (PCBNEW 4.0.6) date 05/08/17 07:17:55*
%MOMM*%
%LPD*%
G01*
G04 APERTURE LIST*
%ADD10C,0.127000*%
%ADD11C,0.150000*%
%ADD12C,0.200000*%
%ADD13C,0.300000*%
G04 APERTURE END LIST*
D10*
D11*
X14601950Y-8763870D02*
X14605850Y-7759710D01*
X14591970Y-12260010D02*
X14809350Y-12257470D01*
X14809350Y-12257470D02*
X14798890Y-8764090D01*
X14798890Y-8764090D02*
X14601950Y-8763870D01*
X14590270Y-13269610D02*
X14591970Y-12260010D01*
X14605850Y-13263710D02*
X9048090Y-13258930D01*
X9073010Y-7779790D02*
X14573010Y-7779790D01*
X9073010Y-13279790D02*
X9073010Y-7779790D01*
X14610510Y-7794590D02*
X9076510Y-7783190D01*
X9076510Y-13283190D02*
X9076510Y-7783190D01*
X9088410Y-7789590D02*
X14588410Y-7789590D01*
X9088410Y-13289590D02*
X9088410Y-7789590D01*
X14577510Y-7789590D02*
X9077510Y-7789590D01*
X9077510Y-13289590D02*
X9077510Y-7789590D01*
D12*
X12357210Y-10131390D02*
X12407210Y-10181390D01*
X12407210Y-10131390D02*
X12357210Y-10181390D01*
X12857810Y-10464690D02*
X12907810Y-10514690D01*
X12907810Y-10464690D02*
X12857810Y-10514690D01*
X13028710Y-10248390D02*
X13078710Y-10298390D01*
X13078710Y-10248390D02*
X13028710Y-10298390D01*
X13172110Y-10874390D02*
X13222110Y-10924390D01*
X13222110Y-10874390D02*
X13172110Y-10924390D01*
X13482210Y-11398090D02*
X13532210Y-11448090D01*
X13532210Y-11398090D02*
X13482210Y-11448090D01*
X13492710Y-10240990D02*
X13542710Y-10290990D01*
X13542710Y-10240990D02*
X13492710Y-10290990D01*
X13492710Y-10460490D02*
X13542710Y-10510490D01*
X13542710Y-10460490D02*
X13492710Y-10510490D01*
X13856210Y-11754290D02*
X13906210Y-11804290D01*
X13906210Y-11754290D02*
X13856210Y-11804290D01*
X9463810Y-8673790D02*
G75*
G03X9463810Y-8673790I-30000J0D01*
G01*
X10707710Y-12551290D02*
G75*
G03X10707710Y-12551290I-30000J0D01*
G01*
X11228160Y-11498340D02*
G75*
G03X11228160Y-11498340I-30000J0D01*
G01*
X11373930Y-10446010D02*
G75*
G03X11373930Y-10446010I-30000J0D01*
G01*
X11879390Y-10113270D02*
G75*
G03X11879390Y-10113270I-30000J0D01*
G01*
X12100370Y-10889810D02*
G75*
G03X12100370Y-10889810I-30000J0D01*
G01*
X12258310Y-10628690D02*
G75*
G03X12258310Y-10628690I-30000J0D01*
G01*
X12287470Y-11175710D02*
G75*
G03X12287470Y-11175710I-30000J0D01*
G01*
X13219910Y-12592890D02*
G75*
G03X13219910Y-12592890I-30000J0D01*
G01*
X13288210Y-8696290D02*
G75*
G03X13288210Y-8696290I-30000J0D01*
G01*
X13339510Y-8337290D02*
G75*
G03X13339510Y-8337290I-30000J0D01*
G01*
X13593510Y-9745790D02*
G75*
G03X13593510Y-9745790I-30000J0D01*
G01*
X13868910Y-12842790D02*
G75*
G03X13868910Y-12842790I-30000J0D01*
G01*
X13886570Y-10657530D02*
G75*
G03X13886570Y-10657530I-30000J0D01*
G01*
X14062810Y-9654490D02*
G75*
G03X14062810Y-9654490I-30000J0D01*
G01*
X14067410Y-8810390D02*
G75*
G03X14067410Y-8810390I-30000J0D01*
G01*
X14377710Y-8699590D02*
G75*
G03X14377710Y-8699590I-30000J0D01*
G01*
X9238010Y-10184890D02*
X9238010Y-10334890D01*
X9163010Y-10259890D02*
X9313010Y-10259890D01*
X9238010Y-10958290D02*
X9238010Y-11108290D01*
X9163010Y-11033290D02*
X9313010Y-11033290D01*
X11089521Y-10598001D02*
X11089521Y-10456579D01*
X10948099Y-10456579D01*
X10948099Y-10598001D01*
X11089521Y-10598001D01*
X11889621Y-9795361D02*
X11889621Y-9653939D01*
X11748199Y-9653939D01*
X11748199Y-9795361D01*
X11889621Y-9795361D01*
X11889621Y-11398101D02*
X11889621Y-11256679D01*
X11748199Y-11256679D01*
X11748199Y-11398101D01*
X11889621Y-11398101D01*
X12689721Y-10598001D02*
X12689721Y-10456579D01*
X12548299Y-10456579D01*
X12548299Y-10598001D01*
X12689721Y-10598001D01*
D13*
X9312019Y-13762804D02*
X9312019Y-13462804D01*
X9383447Y-13462804D01*
X9426304Y-13477090D01*
X9454876Y-13505661D01*
X9469161Y-13534233D01*
X9483447Y-13591376D01*
X9483447Y-13634233D01*
X9469161Y-13691376D01*
X9454876Y-13719947D01*
X9426304Y-13748519D01*
X9383447Y-13762804D01*
X9312019Y-13762804D01*
X9612019Y-13762804D02*
X9612019Y-13562804D01*
X9612019Y-13619947D02*
X9626304Y-13591376D01*
X9640590Y-13577090D01*
X9669161Y-13562804D01*
X9697733Y-13562804D01*
X9797733Y-13762804D02*
X9797733Y-13562804D01*
X9797733Y-13462804D02*
X9783447Y-13477090D01*
X9797733Y-13491376D01*
X9812019Y-13477090D01*
X9797733Y-13462804D01*
X9797733Y-13491376D01*
X9983447Y-13762804D02*
X9954876Y-13748519D01*
X9940590Y-13719947D01*
X9940590Y-13462804D01*
X10140590Y-13762804D02*
X10112019Y-13748519D01*
X10097733Y-13719947D01*
X10097733Y-13462804D01*
X10483447Y-13762804D02*
X10483447Y-13462804D01*
X10583447Y-13677090D01*
X10683447Y-13462804D01*
X10683447Y-13762804D01*
X10954876Y-13762804D02*
X10954876Y-13605661D01*
X10940590Y-13577090D01*
X10912019Y-13562804D01*
X10854876Y-13562804D01*
X10826304Y-13577090D01*
X10954876Y-13748519D02*
X10926304Y-13762804D01*
X10854876Y-13762804D01*
X10826304Y-13748519D01*
X10812019Y-13719947D01*
X10812019Y-13691376D01*
X10826304Y-13662804D01*
X10854876Y-13648519D01*
X10926304Y-13648519D01*
X10954876Y-13634233D01*
X11097733Y-13562804D02*
X11097733Y-13862804D01*
X11097733Y-13577090D02*
X11126304Y-13562804D01*
X11183447Y-13562804D01*
X11212018Y-13577090D01*
X11226304Y-13591376D01*
X11240590Y-13619947D01*
X11240590Y-13705661D01*
X11226304Y-13734233D01*
X11212018Y-13748519D01*
X11183447Y-13762804D01*
X11126304Y-13762804D01*
X11097733Y-13748519D01*
X11369161Y-13734233D02*
X11383447Y-13748519D01*
X11369161Y-13762804D01*
X11354876Y-13748519D01*
X11369161Y-13734233D01*
X11369161Y-13762804D01*
X11369161Y-13577090D02*
X11383447Y-13591376D01*
X11369161Y-13605661D01*
X11354876Y-13591376D01*
X11369161Y-13577090D01*
X11369161Y-13605661D01*
X8990590Y-14232090D02*
X9040590Y-14282090D01*
X9040590Y-14232090D02*
X8990590Y-14282090D01*
X9369161Y-14092804D02*
X9397733Y-14092804D01*
X9426304Y-14107090D01*
X9440590Y-14121376D01*
X9454876Y-14149947D01*
X9469161Y-14207090D01*
X9469161Y-14278519D01*
X9454876Y-14335661D01*
X9440590Y-14364233D01*
X9426304Y-14378519D01*
X9397733Y-14392804D01*
X9369161Y-14392804D01*
X9340590Y-14378519D01*
X9326304Y-14364233D01*
X9312019Y-14335661D01*
X9297733Y-14278519D01*
X9297733Y-14207090D01*
X9312019Y-14149947D01*
X9326304Y-14121376D01*
X9340590Y-14107090D01*
X9369161Y-14092804D01*
X9597733Y-14364233D02*
X9612019Y-14378519D01*
X9597733Y-14392804D01*
X9583447Y-14378519D01*
X9597733Y-14364233D01*
X9597733Y-14392804D01*
X9883447Y-14092804D02*
X9740590Y-14092804D01*
X9726304Y-14235661D01*
X9740590Y-14221376D01*
X9769161Y-14207090D01*
X9840590Y-14207090D01*
X9869161Y-14221376D01*
X9883447Y-14235661D01*
X9897733Y-14264233D01*
X9897733Y-14335661D01*
X9883447Y-14364233D01*
X9869161Y-14378519D01*
X9840590Y-14392804D01*
X9769161Y-14392804D01*
X9740590Y-14378519D01*
X9726304Y-14364233D01*
X10083447Y-14092804D02*
X10112019Y-14092804D01*
X10140590Y-14107090D01*
X10154876Y-14121376D01*
X10169161Y-14149947D01*
X10183447Y-14207090D01*
X10183447Y-14278519D01*
X10169161Y-14335661D01*
X10154876Y-14364233D01*
X10140590Y-14378519D01*
X10112019Y-14392804D01*
X10083447Y-14392804D01*
X10054876Y-14378519D01*
X10040590Y-14364233D01*
X10026304Y-14335661D01*
X10012019Y-14278519D01*
X10012019Y-14207090D01*
X10026304Y-14149947D01*
X10040590Y-14121376D01*
X10054876Y-14107090D01*
X10083447Y-14092804D01*
X10312019Y-14392804D02*
X10312019Y-14192804D01*
X10312019Y-14221376D02*
X10326304Y-14207090D01*
X10354876Y-14192804D01*
X10397733Y-14192804D01*
X10426304Y-14207090D01*
X10440590Y-14235661D01*
X10440590Y-14392804D01*
X10440590Y-14235661D02*
X10454876Y-14207090D01*
X10483447Y-14192804D01*
X10526304Y-14192804D01*
X10554876Y-14207090D01*
X10569161Y-14235661D01*
X10569161Y-14392804D01*
X10712019Y-14392804D02*
X10712019Y-14192804D01*
X10712019Y-14221376D02*
X10726304Y-14207090D01*
X10754876Y-14192804D01*
X10797733Y-14192804D01*
X10826304Y-14207090D01*
X10840590Y-14235661D01*
X10840590Y-14392804D01*
X10840590Y-14235661D02*
X10854876Y-14207090D01*
X10883447Y-14192804D01*
X10926304Y-14192804D01*
X10954876Y-14207090D01*
X10969161Y-14235661D01*
X10969161Y-14392804D01*
X11554876Y-14078519D02*
X11297733Y-14464233D01*
X11940590Y-14092804D02*
X11969161Y-14092804D01*
X11997733Y-14107090D01*
X12012018Y-14121376D01*
X12026304Y-14149947D01*
X12040590Y-14207090D01*
X12040590Y-14278519D01*
X12026304Y-14335661D01*
X12012018Y-14364233D01*
X11997733Y-14378519D01*
X11969161Y-14392804D01*
X11940590Y-14392804D01*
X11912018Y-14378519D01*
X11897733Y-14364233D01*
X11883447Y-14335661D01*
X11869161Y-14278519D01*
X11869161Y-14207090D01*
X11883447Y-14149947D01*
X11897733Y-14121376D01*
X11912018Y-14107090D01*
X11940590Y-14092804D01*
X12169161Y-14364233D02*
X12183447Y-14378519D01*
X12169161Y-14392804D01*
X12154876Y-14378519D01*
X12169161Y-14364233D01*
X12169161Y-14392804D01*
X12369161Y-14092804D02*
X12397733Y-14092804D01*
X12426304Y-14107090D01*
X12440590Y-14121376D01*
X12454875Y-14149947D01*
X12469161Y-14207090D01*
X12469161Y-14278519D01*
X12454875Y-14335661D01*
X12440590Y-14364233D01*
X12426304Y-14378519D01*
X12397733Y-14392804D01*
X12369161Y-14392804D01*
X12340590Y-14378519D01*
X12326304Y-14364233D01*
X12312018Y-14335661D01*
X12297733Y-14278519D01*
X12297733Y-14207090D01*
X12312018Y-14149947D01*
X12326304Y-14121376D01*
X12340590Y-14107090D01*
X12369161Y-14092804D01*
X12583447Y-14121376D02*
X12597733Y-14107090D01*
X12626304Y-14092804D01*
X12697733Y-14092804D01*
X12726304Y-14107090D01*
X12740590Y-14121376D01*
X12754875Y-14149947D01*
X12754875Y-14178519D01*
X12740590Y-14221376D01*
X12569161Y-14392804D01*
X12754875Y-14392804D01*
X12940590Y-14092804D02*
X12969161Y-14092804D01*
X12997733Y-14107090D01*
X13012018Y-14121376D01*
X13026304Y-14149947D01*
X13040590Y-14207090D01*
X13040590Y-14278519D01*
X13026304Y-14335661D01*
X13012018Y-14364233D01*
X12997733Y-14378519D01*
X12969161Y-14392804D01*
X12940590Y-14392804D01*
X12912018Y-14378519D01*
X12897733Y-14364233D01*
X12883447Y-14335661D01*
X12869161Y-14278519D01*
X12869161Y-14207090D01*
X12883447Y-14149947D01*
X12897733Y-14121376D01*
X12912018Y-14107090D01*
X12940590Y-14092804D01*
X13154876Y-14092804D02*
X13154876Y-14149947D01*
X13269161Y-14092804D02*
X13269161Y-14149947D01*
X13712018Y-14507090D02*
X13697733Y-14492804D01*
X13669161Y-14449947D01*
X13654875Y-14421376D01*
X13640590Y-14378519D01*
X13626304Y-14307090D01*
X13626304Y-14249947D01*
X13640590Y-14178519D01*
X13654875Y-14135661D01*
X13669161Y-14107090D01*
X13697733Y-14064233D01*
X13712018Y-14049947D01*
X13869161Y-14221376D02*
X13840590Y-14207090D01*
X13826304Y-14192804D01*
X13812018Y-14164233D01*
X13812018Y-14149947D01*
X13826304Y-14121376D01*
X13840590Y-14107090D01*
X13869161Y-14092804D01*
X13926304Y-14092804D01*
X13954875Y-14107090D01*
X13969161Y-14121376D01*
X13983447Y-14149947D01*
X13983447Y-14164233D01*
X13969161Y-14192804D01*
X13954875Y-14207090D01*
X13926304Y-14221376D01*
X13869161Y-14221376D01*
X13840590Y-14235661D01*
X13826304Y-14249947D01*
X13812018Y-14278519D01*
X13812018Y-14335661D01*
X13826304Y-14364233D01*
X13840590Y-14378519D01*
X13869161Y-14392804D01*
X13926304Y-14392804D01*
X13954875Y-14378519D01*
X13969161Y-14364233D01*
X13983447Y-14335661D01*
X13983447Y-14278519D01*
X13969161Y-14249947D01*
X13954875Y-14235661D01*
X13926304Y-14221376D01*
X14340590Y-14392804D02*
X14340590Y-14092804D01*
X14469161Y-14392804D02*
X14469161Y-14235661D01*
X14454875Y-14207090D01*
X14426304Y-14192804D01*
X14383447Y-14192804D01*
X14354875Y-14207090D01*
X14340590Y-14221376D01*
X14654875Y-14392804D02*
X14626304Y-14378519D01*
X14612018Y-14364233D01*
X14597733Y-14335661D01*
X14597733Y-14249947D01*
X14612018Y-14221376D01*
X14626304Y-14207090D01*
X14654875Y-14192804D01*
X14697733Y-14192804D01*
X14726304Y-14207090D01*
X14740590Y-14221376D01*
X14754875Y-14249947D01*
X14754875Y-14335661D01*
X14740590Y-14364233D01*
X14726304Y-14378519D01*
X14697733Y-14392804D01*
X14654875Y-14392804D01*
X14926304Y-14392804D02*
X14897733Y-14378519D01*
X14883447Y-14349947D01*
X14883447Y-14092804D01*
X15154876Y-14378519D02*
X15126304Y-14392804D01*
X15069161Y-14392804D01*
X15040590Y-14378519D01*
X15026304Y-14349947D01*
X15026304Y-14235661D01*
X15040590Y-14207090D01*
X15069161Y-14192804D01*
X15126304Y-14192804D01*
X15154876Y-14207090D01*
X15169161Y-14235661D01*
X15169161Y-14264233D01*
X15026304Y-14292804D01*
X15283447Y-14378519D02*
X15312018Y-14392804D01*
X15369161Y-14392804D01*
X15397733Y-14378519D01*
X15412018Y-14349947D01*
X15412018Y-14335661D01*
X15397733Y-14307090D01*
X15369161Y-14292804D01*
X15326304Y-14292804D01*
X15297733Y-14278519D01*
X15283447Y-14249947D01*
X15283447Y-14235661D01*
X15297733Y-14207090D01*
X15326304Y-14192804D01*
X15369161Y-14192804D01*
X15397733Y-14207090D01*
X15512018Y-14507090D02*
X15526304Y-14492804D01*
X15554876Y-14449947D01*
X15569161Y-14421376D01*
X15583447Y-14378519D01*
X15597733Y-14307090D01*
X15597733Y-14249947D01*
X15583447Y-14178519D01*
X15569161Y-14135661D01*
X15554876Y-14107090D01*
X15526304Y-14064233D01*
X15512018Y-14049947D01*
X9040590Y-14653090D02*
G75*
G03X9040590Y-14653090I-30000J0D01*
G01*
X9369161Y-14488804D02*
X9397733Y-14488804D01*
X9426304Y-14503090D01*
X9440590Y-14517376D01*
X9454876Y-14545947D01*
X9469161Y-14603090D01*
X9469161Y-14674519D01*
X9454876Y-14731661D01*
X9440590Y-14760233D01*
X9426304Y-14774519D01*
X9397733Y-14788804D01*
X9369161Y-14788804D01*
X9340590Y-14774519D01*
X9326304Y-14760233D01*
X9312019Y-14731661D01*
X9297733Y-14674519D01*
X9297733Y-14603090D01*
X9312019Y-14545947D01*
X9326304Y-14517376D01*
X9340590Y-14503090D01*
X9369161Y-14488804D01*
X9597733Y-14760233D02*
X9612019Y-14774519D01*
X9597733Y-14788804D01*
X9583447Y-14774519D01*
X9597733Y-14760233D01*
X9597733Y-14788804D01*
X9869161Y-14488804D02*
X9812018Y-14488804D01*
X9783447Y-14503090D01*
X9769161Y-14517376D01*
X9740590Y-14560233D01*
X9726304Y-14617376D01*
X9726304Y-14731661D01*
X9740590Y-14760233D01*
X9754876Y-14774519D01*
X9783447Y-14788804D01*
X9840590Y-14788804D01*
X9869161Y-14774519D01*
X9883447Y-14760233D01*
X9897733Y-14731661D01*
X9897733Y-14660233D01*
X9883447Y-14631661D01*
X9869161Y-14617376D01*
X9840590Y-14603090D01*
X9783447Y-14603090D01*
X9754876Y-14617376D01*
X9740590Y-14631661D01*
X9726304Y-14660233D01*
X10083447Y-14488804D02*
X10112019Y-14488804D01*
X10140590Y-14503090D01*
X10154876Y-14517376D01*
X10169161Y-14545947D01*
X10183447Y-14603090D01*
X10183447Y-14674519D01*
X10169161Y-14731661D01*
X10154876Y-14760233D01*
X10140590Y-14774519D01*
X10112019Y-14788804D01*
X10083447Y-14788804D01*
X10054876Y-14774519D01*
X10040590Y-14760233D01*
X10026304Y-14731661D01*
X10012019Y-14674519D01*
X10012019Y-14603090D01*
X10026304Y-14545947D01*
X10040590Y-14517376D01*
X10054876Y-14503090D01*
X10083447Y-14488804D01*
X10312019Y-14788804D02*
X10312019Y-14588804D01*
X10312019Y-14617376D02*
X10326304Y-14603090D01*
X10354876Y-14588804D01*
X10397733Y-14588804D01*
X10426304Y-14603090D01*
X10440590Y-14631661D01*
X10440590Y-14788804D01*
X10440590Y-14631661D02*
X10454876Y-14603090D01*
X10483447Y-14588804D01*
X10526304Y-14588804D01*
X10554876Y-14603090D01*
X10569161Y-14631661D01*
X10569161Y-14788804D01*
X10712019Y-14788804D02*
X10712019Y-14588804D01*
X10712019Y-14617376D02*
X10726304Y-14603090D01*
X10754876Y-14588804D01*
X10797733Y-14588804D01*
X10826304Y-14603090D01*
X10840590Y-14631661D01*
X10840590Y-14788804D01*
X10840590Y-14631661D02*
X10854876Y-14603090D01*
X10883447Y-14588804D01*
X10926304Y-14588804D01*
X10954876Y-14603090D01*
X10969161Y-14631661D01*
X10969161Y-14788804D01*
X11554876Y-14474519D02*
X11297733Y-14860233D01*
X11940590Y-14488804D02*
X11969161Y-14488804D01*
X11997733Y-14503090D01*
X12012018Y-14517376D01*
X12026304Y-14545947D01*
X12040590Y-14603090D01*
X12040590Y-14674519D01*
X12026304Y-14731661D01*
X12012018Y-14760233D01*
X11997733Y-14774519D01*
X11969161Y-14788804D01*
X11940590Y-14788804D01*
X11912018Y-14774519D01*
X11897733Y-14760233D01*
X11883447Y-14731661D01*
X11869161Y-14674519D01*
X11869161Y-14603090D01*
X11883447Y-14545947D01*
X11897733Y-14517376D01*
X11912018Y-14503090D01*
X11940590Y-14488804D01*
X12169161Y-14760233D02*
X12183447Y-14774519D01*
X12169161Y-14788804D01*
X12154876Y-14774519D01*
X12169161Y-14760233D01*
X12169161Y-14788804D01*
X12369161Y-14488804D02*
X12397733Y-14488804D01*
X12426304Y-14503090D01*
X12440590Y-14517376D01*
X12454875Y-14545947D01*
X12469161Y-14603090D01*
X12469161Y-14674519D01*
X12454875Y-14731661D01*
X12440590Y-14760233D01*
X12426304Y-14774519D01*
X12397733Y-14788804D01*
X12369161Y-14788804D01*
X12340590Y-14774519D01*
X12326304Y-14760233D01*
X12312018Y-14731661D01*
X12297733Y-14674519D01*
X12297733Y-14603090D01*
X12312018Y-14545947D01*
X12326304Y-14517376D01*
X12340590Y-14503090D01*
X12369161Y-14488804D01*
X12583447Y-14517376D02*
X12597733Y-14503090D01*
X12626304Y-14488804D01*
X12697733Y-14488804D01*
X12726304Y-14503090D01*
X12740590Y-14517376D01*
X12754875Y-14545947D01*
X12754875Y-14574519D01*
X12740590Y-14617376D01*
X12569161Y-14788804D01*
X12754875Y-14788804D01*
X13012018Y-14588804D02*
X13012018Y-14788804D01*
X12940590Y-14474519D02*
X12869161Y-14688804D01*
X13054875Y-14688804D01*
X13154876Y-14488804D02*
X13154876Y-14545947D01*
X13269161Y-14488804D02*
X13269161Y-14545947D01*
X13712018Y-14903090D02*
X13697733Y-14888804D01*
X13669161Y-14845947D01*
X13654875Y-14817376D01*
X13640590Y-14774519D01*
X13626304Y-14703090D01*
X13626304Y-14645947D01*
X13640590Y-14574519D01*
X13654875Y-14531661D01*
X13669161Y-14503090D01*
X13697733Y-14460233D01*
X13712018Y-14445947D01*
X13983447Y-14788804D02*
X13812018Y-14788804D01*
X13897733Y-14788804D02*
X13897733Y-14488804D01*
X13869161Y-14531661D01*
X13840590Y-14560233D01*
X13812018Y-14574519D01*
X14083447Y-14488804D02*
X14283447Y-14488804D01*
X14154875Y-14788804D01*
X14626304Y-14788804D02*
X14626304Y-14488804D01*
X14754875Y-14788804D02*
X14754875Y-14631661D01*
X14740590Y-14603090D01*
X14712018Y-14588804D01*
X14669161Y-14588804D01*
X14640590Y-14603090D01*
X14626304Y-14617376D01*
X14940590Y-14788804D02*
X14912018Y-14774519D01*
X14897733Y-14760233D01*
X14883447Y-14731661D01*
X14883447Y-14645947D01*
X14897733Y-14617376D01*
X14912018Y-14603090D01*
X14940590Y-14588804D01*
X14983447Y-14588804D01*
X15012018Y-14603090D01*
X15026304Y-14617376D01*
X15040590Y-14645947D01*
X15040590Y-14731661D01*
X15026304Y-14760233D01*
X15012018Y-14774519D01*
X14983447Y-14788804D01*
X14940590Y-14788804D01*
X15212018Y-14788804D02*
X15183447Y-14774519D01*
X15169161Y-14745947D01*
X15169161Y-14488804D01*
X15440590Y-14774519D02*
X15412018Y-14788804D01*
X15354876Y-14788804D01*
X15326304Y-14774519D01*
X15312018Y-14745947D01*
X15312018Y-14631661D01*
X15326304Y-14603090D01*
X15354876Y-14588804D01*
X15412018Y-14588804D01*
X15440590Y-14603090D01*
X15454876Y-14631661D01*
X15454876Y-14660233D01*
X15312018Y-14688804D01*
X15569161Y-14774519D02*
X15597733Y-14788804D01*
X15654876Y-14788804D01*
X15683447Y-14774519D01*
X15697733Y-14745947D01*
X15697733Y-14731661D01*
X15683447Y-14703090D01*
X15654876Y-14688804D01*
X15612018Y-14688804D01*
X15583447Y-14674519D01*
X15569161Y-14645947D01*
X15569161Y-14631661D01*
X15583447Y-14603090D01*
X15612018Y-14588804D01*
X15654876Y-14588804D01*
X15683447Y-14603090D01*
X15797733Y-14903090D02*
X15812018Y-14888804D01*
X15840590Y-14845947D01*
X15854876Y-14817376D01*
X15869161Y-14774519D01*
X15883447Y-14703090D01*
X15883447Y-14645947D01*
X15869161Y-14574519D01*
X15854876Y-14531661D01*
X15840590Y-14503090D01*
X15812018Y-14460233D01*
X15797733Y-14445947D01*
X8965590Y-14974090D02*
X8965590Y-15124090D01*
X8890590Y-15049090D02*
X9040590Y-15049090D01*
X9469161Y-15184804D02*
X9297733Y-15184804D01*
X9383447Y-15184804D02*
X9383447Y-14884804D01*
X9354876Y-14927661D01*
X9326304Y-14956233D01*
X9297733Y-14970519D01*
X9597733Y-15156233D02*
X9612019Y-15170519D01*
X9597733Y-15184804D01*
X9583447Y-15170519D01*
X9597733Y-15156233D01*
X9597733Y-15184804D01*
X9883447Y-14884804D02*
X9740590Y-14884804D01*
X9726304Y-15027661D01*
X9740590Y-15013376D01*
X9769161Y-14999090D01*
X9840590Y-14999090D01*
X9869161Y-15013376D01*
X9883447Y-15027661D01*
X9897733Y-15056233D01*
X9897733Y-15127661D01*
X9883447Y-15156233D01*
X9869161Y-15170519D01*
X9840590Y-15184804D01*
X9769161Y-15184804D01*
X9740590Y-15170519D01*
X9726304Y-15156233D01*
X10083447Y-14884804D02*
X10112019Y-14884804D01*
X10140590Y-14899090D01*
X10154876Y-14913376D01*
X10169161Y-14941947D01*
X10183447Y-14999090D01*
X10183447Y-15070519D01*
X10169161Y-15127661D01*
X10154876Y-15156233D01*
X10140590Y-15170519D01*
X10112019Y-15184804D01*
X10083447Y-15184804D01*
X10054876Y-15170519D01*
X10040590Y-15156233D01*
X10026304Y-15127661D01*
X10012019Y-15070519D01*
X10012019Y-14999090D01*
X10026304Y-14941947D01*
X10040590Y-14913376D01*
X10054876Y-14899090D01*
X10083447Y-14884804D01*
X10312019Y-15184804D02*
X10312019Y-14984804D01*
X10312019Y-15013376D02*
X10326304Y-14999090D01*
X10354876Y-14984804D01*
X10397733Y-14984804D01*
X10426304Y-14999090D01*
X10440590Y-15027661D01*
X10440590Y-15184804D01*
X10440590Y-15027661D02*
X10454876Y-14999090D01*
X10483447Y-14984804D01*
X10526304Y-14984804D01*
X10554876Y-14999090D01*
X10569161Y-15027661D01*
X10569161Y-15184804D01*
X10712019Y-15184804D02*
X10712019Y-14984804D01*
X10712019Y-15013376D02*
X10726304Y-14999090D01*
X10754876Y-14984804D01*
X10797733Y-14984804D01*
X10826304Y-14999090D01*
X10840590Y-15027661D01*
X10840590Y-15184804D01*
X10840590Y-15027661D02*
X10854876Y-14999090D01*
X10883447Y-14984804D01*
X10926304Y-14984804D01*
X10954876Y-14999090D01*
X10969161Y-15027661D01*
X10969161Y-15184804D01*
X11554876Y-14870519D02*
X11297733Y-15256233D01*
X11940590Y-14884804D02*
X11969161Y-14884804D01*
X11997733Y-14899090D01*
X12012018Y-14913376D01*
X12026304Y-14941947D01*
X12040590Y-14999090D01*
X12040590Y-15070519D01*
X12026304Y-15127661D01*
X12012018Y-15156233D01*
X11997733Y-15170519D01*
X11969161Y-15184804D01*
X11940590Y-15184804D01*
X11912018Y-15170519D01*
X11897733Y-15156233D01*
X11883447Y-15127661D01*
X11869161Y-15070519D01*
X11869161Y-14999090D01*
X11883447Y-14941947D01*
X11897733Y-14913376D01*
X11912018Y-14899090D01*
X11940590Y-14884804D01*
X12169161Y-15156233D02*
X12183447Y-15170519D01*
X12169161Y-15184804D01*
X12154876Y-15170519D01*
X12169161Y-15156233D01*
X12169161Y-15184804D01*
X12369161Y-14884804D02*
X12397733Y-14884804D01*
X12426304Y-14899090D01*
X12440590Y-14913376D01*
X12454875Y-14941947D01*
X12469161Y-14999090D01*
X12469161Y-15070519D01*
X12454875Y-15127661D01*
X12440590Y-15156233D01*
X12426304Y-15170519D01*
X12397733Y-15184804D01*
X12369161Y-15184804D01*
X12340590Y-15170519D01*
X12326304Y-15156233D01*
X12312018Y-15127661D01*
X12297733Y-15070519D01*
X12297733Y-14999090D01*
X12312018Y-14941947D01*
X12326304Y-14913376D01*
X12340590Y-14899090D01*
X12369161Y-14884804D01*
X12740590Y-14884804D02*
X12597733Y-14884804D01*
X12583447Y-15027661D01*
X12597733Y-15013376D01*
X12626304Y-14999090D01*
X12697733Y-14999090D01*
X12726304Y-15013376D01*
X12740590Y-15027661D01*
X12754875Y-15056233D01*
X12754875Y-15127661D01*
X12740590Y-15156233D01*
X12726304Y-15170519D01*
X12697733Y-15184804D01*
X12626304Y-15184804D01*
X12597733Y-15170519D01*
X12583447Y-15156233D01*
X12897733Y-15184804D02*
X12954875Y-15184804D01*
X12983447Y-15170519D01*
X12997733Y-15156233D01*
X13026304Y-15113376D01*
X13040590Y-15056233D01*
X13040590Y-14941947D01*
X13026304Y-14913376D01*
X13012018Y-14899090D01*
X12983447Y-14884804D01*
X12926304Y-14884804D01*
X12897733Y-14899090D01*
X12883447Y-14913376D01*
X12869161Y-14941947D01*
X12869161Y-15013376D01*
X12883447Y-15041947D01*
X12897733Y-15056233D01*
X12926304Y-15070519D01*
X12983447Y-15070519D01*
X13012018Y-15056233D01*
X13026304Y-15041947D01*
X13040590Y-15013376D01*
X13154876Y-14884804D02*
X13154876Y-14941947D01*
X13269161Y-14884804D02*
X13269161Y-14941947D01*
X13712018Y-15299090D02*
X13697733Y-15284804D01*
X13669161Y-15241947D01*
X13654875Y-15213376D01*
X13640590Y-15170519D01*
X13626304Y-15099090D01*
X13626304Y-15041947D01*
X13640590Y-14970519D01*
X13654875Y-14927661D01*
X13669161Y-14899090D01*
X13697733Y-14856233D01*
X13712018Y-14841947D01*
X13812018Y-14913376D02*
X13826304Y-14899090D01*
X13854875Y-14884804D01*
X13926304Y-14884804D01*
X13954875Y-14899090D01*
X13969161Y-14913376D01*
X13983447Y-14941947D01*
X13983447Y-14970519D01*
X13969161Y-15013376D01*
X13797733Y-15184804D01*
X13983447Y-15184804D01*
X14340590Y-15184804D02*
X14340590Y-14884804D01*
X14469161Y-15184804D02*
X14469161Y-15027661D01*
X14454875Y-14999090D01*
X14426304Y-14984804D01*
X14383447Y-14984804D01*
X14354875Y-14999090D01*
X14340590Y-15013376D01*
X14654875Y-15184804D02*
X14626304Y-15170519D01*
X14612018Y-15156233D01*
X14597733Y-15127661D01*
X14597733Y-15041947D01*
X14612018Y-15013376D01*
X14626304Y-14999090D01*
X14654875Y-14984804D01*
X14697733Y-14984804D01*
X14726304Y-14999090D01*
X14740590Y-15013376D01*
X14754875Y-15041947D01*
X14754875Y-15127661D01*
X14740590Y-15156233D01*
X14726304Y-15170519D01*
X14697733Y-15184804D01*
X14654875Y-15184804D01*
X14926304Y-15184804D02*
X14897733Y-15170519D01*
X14883447Y-15141947D01*
X14883447Y-14884804D01*
X15154876Y-15170519D02*
X15126304Y-15184804D01*
X15069161Y-15184804D01*
X15040590Y-15170519D01*
X15026304Y-15141947D01*
X15026304Y-15027661D01*
X15040590Y-14999090D01*
X15069161Y-14984804D01*
X15126304Y-14984804D01*
X15154876Y-14999090D01*
X15169161Y-15027661D01*
X15169161Y-15056233D01*
X15026304Y-15084804D01*
X15283447Y-15170519D02*
X15312018Y-15184804D01*
X15369161Y-15184804D01*
X15397733Y-15170519D01*
X15412018Y-15141947D01*
X15412018Y-15127661D01*
X15397733Y-15099090D01*
X15369161Y-15084804D01*
X15326304Y-15084804D01*
X15297733Y-15070519D01*
X15283447Y-15041947D01*
X15283447Y-15027661D01*
X15297733Y-14999090D01*
X15326304Y-14984804D01*
X15369161Y-14984804D01*
X15397733Y-14999090D01*
X15512018Y-15299090D02*
X15526304Y-15284804D01*
X15554876Y-15241947D01*
X15569161Y-15213376D01*
X15583447Y-15170519D01*
X15597733Y-15099090D01*
X15597733Y-15041947D01*
X15583447Y-14970519D01*
X15569161Y-14927661D01*
X15554876Y-14899090D01*
X15526304Y-14856233D01*
X15512018Y-14841947D01*
X9011301Y-15515801D02*
X9011301Y-15374379D01*
X8869879Y-15374379D01*
X8869879Y-15515801D01*
X9011301Y-15515801D01*
X9297733Y-15309376D02*
X9312019Y-15295090D01*
X9340590Y-15280804D01*
X9412019Y-15280804D01*
X9440590Y-15295090D01*
X9454876Y-15309376D01*
X9469161Y-15337947D01*
X9469161Y-15366519D01*
X9454876Y-15409376D01*
X9283447Y-15580804D01*
X9469161Y-15580804D01*
X9597733Y-15552233D02*
X9612019Y-15566519D01*
X9597733Y-15580804D01*
X9583447Y-15566519D01*
X9597733Y-15552233D01*
X9597733Y-15580804D01*
X9797733Y-15280804D02*
X9826304Y-15280804D01*
X9854876Y-15295090D01*
X9869161Y-15309376D01*
X9883447Y-15337947D01*
X9897733Y-15395090D01*
X9897733Y-15466519D01*
X9883447Y-15523661D01*
X9869161Y-15552233D01*
X9854876Y-15566519D01*
X9826304Y-15580804D01*
X9797733Y-15580804D01*
X9769161Y-15566519D01*
X9754876Y-15552233D01*
X9740590Y-15523661D01*
X9726304Y-15466519D01*
X9726304Y-15395090D01*
X9740590Y-15337947D01*
X9754876Y-15309376D01*
X9769161Y-15295090D01*
X9797733Y-15280804D01*
X10083447Y-15280804D02*
X10112019Y-15280804D01*
X10140590Y-15295090D01*
X10154876Y-15309376D01*
X10169161Y-15337947D01*
X10183447Y-15395090D01*
X10183447Y-15466519D01*
X10169161Y-15523661D01*
X10154876Y-15552233D01*
X10140590Y-15566519D01*
X10112019Y-15580804D01*
X10083447Y-15580804D01*
X10054876Y-15566519D01*
X10040590Y-15552233D01*
X10026304Y-15523661D01*
X10012019Y-15466519D01*
X10012019Y-15395090D01*
X10026304Y-15337947D01*
X10040590Y-15309376D01*
X10054876Y-15295090D01*
X10083447Y-15280804D01*
X10312019Y-15580804D02*
X10312019Y-15380804D01*
X10312019Y-15409376D02*
X10326304Y-15395090D01*
X10354876Y-15380804D01*
X10397733Y-15380804D01*
X10426304Y-15395090D01*
X10440590Y-15423661D01*
X10440590Y-15580804D01*
X10440590Y-15423661D02*
X10454876Y-15395090D01*
X10483447Y-15380804D01*
X10526304Y-15380804D01*
X10554876Y-15395090D01*
X10569161Y-15423661D01*
X10569161Y-15580804D01*
X10712019Y-15580804D02*
X10712019Y-15380804D01*
X10712019Y-15409376D02*
X10726304Y-15395090D01*
X10754876Y-15380804D01*
X10797733Y-15380804D01*
X10826304Y-15395090D01*
X10840590Y-15423661D01*
X10840590Y-15580804D01*
X10840590Y-15423661D02*
X10854876Y-15395090D01*
X10883447Y-15380804D01*
X10926304Y-15380804D01*
X10954876Y-15395090D01*
X10969161Y-15423661D01*
X10969161Y-15580804D01*
X11554876Y-15266519D02*
X11297733Y-15652233D01*
X11940590Y-15280804D02*
X11969161Y-15280804D01*
X11997733Y-15295090D01*
X12012018Y-15309376D01*
X12026304Y-15337947D01*
X12040590Y-15395090D01*
X12040590Y-15466519D01*
X12026304Y-15523661D01*
X12012018Y-15552233D01*
X11997733Y-15566519D01*
X11969161Y-15580804D01*
X11940590Y-15580804D01*
X11912018Y-15566519D01*
X11897733Y-15552233D01*
X11883447Y-15523661D01*
X11869161Y-15466519D01*
X11869161Y-15395090D01*
X11883447Y-15337947D01*
X11897733Y-15309376D01*
X11912018Y-15295090D01*
X11940590Y-15280804D01*
X12169161Y-15552233D02*
X12183447Y-15566519D01*
X12169161Y-15580804D01*
X12154876Y-15566519D01*
X12169161Y-15552233D01*
X12169161Y-15580804D01*
X12369161Y-15280804D02*
X12397733Y-15280804D01*
X12426304Y-15295090D01*
X12440590Y-15309376D01*
X12454875Y-15337947D01*
X12469161Y-15395090D01*
X12469161Y-15466519D01*
X12454875Y-15523661D01*
X12440590Y-15552233D01*
X12426304Y-15566519D01*
X12397733Y-15580804D01*
X12369161Y-15580804D01*
X12340590Y-15566519D01*
X12326304Y-15552233D01*
X12312018Y-15523661D01*
X12297733Y-15466519D01*
X12297733Y-15395090D01*
X12312018Y-15337947D01*
X12326304Y-15309376D01*
X12340590Y-15295090D01*
X12369161Y-15280804D01*
X12569161Y-15280804D02*
X12769161Y-15280804D01*
X12640590Y-15580804D01*
X12897733Y-15580804D02*
X12954875Y-15580804D01*
X12983447Y-15566519D01*
X12997733Y-15552233D01*
X13026304Y-15509376D01*
X13040590Y-15452233D01*
X13040590Y-15337947D01*
X13026304Y-15309376D01*
X13012018Y-15295090D01*
X12983447Y-15280804D01*
X12926304Y-15280804D01*
X12897733Y-15295090D01*
X12883447Y-15309376D01*
X12869161Y-15337947D01*
X12869161Y-15409376D01*
X12883447Y-15437947D01*
X12897733Y-15452233D01*
X12926304Y-15466519D01*
X12983447Y-15466519D01*
X13012018Y-15452233D01*
X13026304Y-15437947D01*
X13040590Y-15409376D01*
X13154876Y-15280804D02*
X13154876Y-15337947D01*
X13269161Y-15280804D02*
X13269161Y-15337947D01*
X13712018Y-15695090D02*
X13697733Y-15680804D01*
X13669161Y-15637947D01*
X13654875Y-15609376D01*
X13640590Y-15566519D01*
X13626304Y-15495090D01*
X13626304Y-15437947D01*
X13640590Y-15366519D01*
X13654875Y-15323661D01*
X13669161Y-15295090D01*
X13697733Y-15252233D01*
X13712018Y-15237947D01*
X13954875Y-15380804D02*
X13954875Y-15580804D01*
X13883447Y-15266519D02*
X13812018Y-15480804D01*
X13997733Y-15480804D01*
X14340590Y-15580804D02*
X14340590Y-15280804D01*
X14469161Y-15580804D02*
X14469161Y-15423661D01*
X14454875Y-15395090D01*
X14426304Y-15380804D01*
X14383447Y-15380804D01*
X14354875Y-15395090D01*
X14340590Y-15409376D01*
X14654875Y-15580804D02*
X14626304Y-15566519D01*
X14612018Y-15552233D01*
X14597733Y-15523661D01*
X14597733Y-15437947D01*
X14612018Y-15409376D01*
X14626304Y-15395090D01*
X14654875Y-15380804D01*
X14697733Y-15380804D01*
X14726304Y-15395090D01*
X14740590Y-15409376D01*
X14754875Y-15437947D01*
X14754875Y-15523661D01*
X14740590Y-15552233D01*
X14726304Y-15566519D01*
X14697733Y-15580804D01*
X14654875Y-15580804D01*
X14926304Y-15580804D02*
X14897733Y-15566519D01*
X14883447Y-15537947D01*
X14883447Y-15280804D01*
X15154876Y-15566519D02*
X15126304Y-15580804D01*
X15069161Y-15580804D01*
X15040590Y-15566519D01*
X15026304Y-15537947D01*
X15026304Y-15423661D01*
X15040590Y-15395090D01*
X15069161Y-15380804D01*
X15126304Y-15380804D01*
X15154876Y-15395090D01*
X15169161Y-15423661D01*
X15169161Y-15452233D01*
X15026304Y-15480804D01*
X15283447Y-15566519D02*
X15312018Y-15580804D01*
X15369161Y-15580804D01*
X15397733Y-15566519D01*
X15412018Y-15537947D01*
X15412018Y-15523661D01*
X15397733Y-15495090D01*
X15369161Y-15480804D01*
X15326304Y-15480804D01*
X15297733Y-15466519D01*
X15283447Y-15437947D01*
X15283447Y-15423661D01*
X15297733Y-15395090D01*
X15326304Y-15380804D01*
X15369161Y-15380804D01*
X15397733Y-15395090D01*
X15512018Y-15695090D02*
X15526304Y-15680804D01*
X15554876Y-15637947D01*
X15569161Y-15609376D01*
X15583447Y-15566519D01*
X15597733Y-15495090D01*
X15597733Y-15437947D01*
X15583447Y-15366519D01*
X15569161Y-15323661D01*
X15554876Y-15295090D01*
X15526304Y-15252233D01*
X15512018Y-15237947D01*
M02*
