G04 #@! TF.FileFunction,Soldermask,Top*
%FSLAX46Y46*%
G04 Gerber Fmt 4.6, Leading zero omitted, Abs format (unit mm)*
G04 Created by KiCad (PCBNEW 4.0.6) date 05/08/17 07:17:45*
%MOMM*%
%LPD*%
G01*
G04 APERTURE LIST*
%ADD10C,0.100000*%
%ADD11R,1.900000X1.700000*%
%ADD12C,1.500000*%
%ADD13R,1.035000X1.670000*%
G04 APERTURE END LIST*
D10*
D11*
X115471300Y-104449900D03*
X115471300Y-106349900D03*
D12*
X145062300Y-90490100D03*
D13*
X145443300Y-90490100D03*
X146078300Y-90490100D03*
X144808300Y-90490100D03*
X144173300Y-90490100D03*
X143538300Y-90490100D03*
X146675200Y-90490100D03*
X147272100Y-90490100D03*
X142916000Y-90490100D03*
X142293700Y-90490100D03*
D12*
X143452700Y-80411500D03*
D13*
X143833700Y-80411500D03*
X144468700Y-80411500D03*
X143198700Y-80411500D03*
X142563700Y-80411500D03*
X141928700Y-80411500D03*
X145065600Y-80411500D03*
X145662500Y-80411500D03*
X141306400Y-80411500D03*
X140684100Y-80411500D03*
D12*
X145138500Y-106466700D03*
D13*
X145519500Y-106466700D03*
X146154500Y-106466700D03*
X144884500Y-106466700D03*
X144249500Y-106466700D03*
X143614500Y-106466700D03*
X146751400Y-106466700D03*
X147348300Y-106466700D03*
X142992200Y-106466700D03*
X142369900Y-106466700D03*
D12*
X145011500Y-109235300D03*
D13*
X145392500Y-109235300D03*
X146027500Y-109235300D03*
X144757500Y-109235300D03*
X144122500Y-109235300D03*
X143487500Y-109235300D03*
X146624400Y-109235300D03*
X147221300Y-109235300D03*
X142865200Y-109235300D03*
X142242900Y-109235300D03*
D12*
X145062300Y-95900300D03*
D13*
X145443300Y-95900300D03*
X146078300Y-95900300D03*
X144808300Y-95900300D03*
X144173300Y-95900300D03*
X143538300Y-95900300D03*
X146675200Y-95900300D03*
X147272100Y-95900300D03*
X142916000Y-95900300D03*
X142293700Y-95900300D03*
D12*
X145036900Y-120512900D03*
D13*
X145417900Y-120512900D03*
X146052900Y-120512900D03*
X144782900Y-120512900D03*
X144147900Y-120512900D03*
X143512900Y-120512900D03*
X146649800Y-120512900D03*
X147246700Y-120512900D03*
X142890600Y-120512900D03*
X142268300Y-120512900D03*
D12*
X145011500Y-103799700D03*
D13*
X145392500Y-103799700D03*
X146027500Y-103799700D03*
X144757500Y-103799700D03*
X144122500Y-103799700D03*
X143487500Y-103799700D03*
X146624400Y-103799700D03*
X147221300Y-103799700D03*
X142865200Y-103799700D03*
X142242900Y-103799700D03*
D12*
X145036900Y-111902300D03*
D13*
X145417900Y-111902300D03*
X146052900Y-111902300D03*
X144782900Y-111902300D03*
X144147900Y-111902300D03*
X143512900Y-111902300D03*
X146649800Y-111902300D03*
X147246700Y-111902300D03*
X142890600Y-111902300D03*
X142268300Y-111902300D03*
D12*
X145036900Y-114696300D03*
D13*
X145417900Y-114696300D03*
X146052900Y-114696300D03*
X144782900Y-114696300D03*
X144147900Y-114696300D03*
X143512900Y-114696300D03*
X146649800Y-114696300D03*
X147246700Y-114696300D03*
X142890600Y-114696300D03*
X142268300Y-114696300D03*
D12*
X145062300Y-98592700D03*
D13*
X145443300Y-98592700D03*
X146078300Y-98592700D03*
X144808300Y-98592700D03*
X144173300Y-98592700D03*
X143538300Y-98592700D03*
X146675200Y-98592700D03*
X147272100Y-98592700D03*
X142916000Y-98592700D03*
X142293700Y-98592700D03*
D12*
X143308700Y-129776100D03*
D13*
X143689700Y-129776100D03*
X144324700Y-129776100D03*
X143054700Y-129776100D03*
X142419700Y-129776100D03*
X141784700Y-129776100D03*
X144921600Y-129776100D03*
X145518500Y-129776100D03*
X141162400Y-129776100D03*
X140540100Y-129776100D03*
D12*
X143351700Y-125931900D03*
D13*
X143732700Y-125931900D03*
X144367700Y-125931900D03*
X143097700Y-125931900D03*
X142462700Y-125931900D03*
X141827700Y-125931900D03*
X144964600Y-125931900D03*
X145561500Y-125931900D03*
X141205400Y-125931900D03*
X140583100Y-125931900D03*
D12*
X145087700Y-93309500D03*
D13*
X145468700Y-93309500D03*
X146103700Y-93309500D03*
X144833700Y-93309500D03*
X144198700Y-93309500D03*
X143563700Y-93309500D03*
X146700600Y-93309500D03*
X147297500Y-93309500D03*
X142941400Y-93309500D03*
X142319100Y-93309500D03*
D11*
X119281300Y-106324500D03*
X119281300Y-104424500D03*
D12*
X143426900Y-83259900D03*
D13*
X143807900Y-83259900D03*
X144442900Y-83259900D03*
X143172900Y-83259900D03*
X142537900Y-83259900D03*
X141902900Y-83259900D03*
X145039800Y-83259900D03*
X145636700Y-83259900D03*
X141280600Y-83259900D03*
X140658300Y-83259900D03*
D12*
X145011500Y-117490300D03*
D13*
X145392500Y-117490300D03*
X146027500Y-117490300D03*
X144757500Y-117490300D03*
X144122500Y-117490300D03*
X143487500Y-117490300D03*
X146624400Y-117490300D03*
X147221300Y-117490300D03*
X142865200Y-117490300D03*
X142242900Y-117490300D03*
D12*
X145087700Y-101158100D03*
D13*
X145468700Y-101158100D03*
X146103700Y-101158100D03*
X144833700Y-101158100D03*
X144198700Y-101158100D03*
X143563700Y-101158100D03*
X146700600Y-101158100D03*
X147297500Y-101158100D03*
X142941400Y-101158100D03*
X142319100Y-101158100D03*
D11*
X119741100Y-124714900D03*
X119741100Y-126614900D03*
X116019500Y-124722300D03*
X116019500Y-126622300D03*
D12*
X105812100Y-83378900D03*
D13*
X106193100Y-83378900D03*
X106828100Y-83378900D03*
X105558100Y-83378900D03*
X104923100Y-83378900D03*
X104288100Y-83378900D03*
X107425000Y-83378900D03*
X108021900Y-83378900D03*
X103665800Y-83378900D03*
X103043500Y-83378900D03*
D12*
X105967100Y-80342900D03*
D13*
X106348100Y-80342900D03*
X106983100Y-80342900D03*
X105713100Y-80342900D03*
X105078100Y-80342900D03*
X104443100Y-80342900D03*
X107580000Y-80342900D03*
X108176900Y-80342900D03*
X103820800Y-80342900D03*
X103198500Y-80342900D03*
D12*
X94338100Y-86737900D03*
D13*
X94719100Y-86737900D03*
X95354100Y-86737900D03*
X94084100Y-86737900D03*
X93449100Y-86737900D03*
X92814100Y-86737900D03*
X95951000Y-86737900D03*
X96547900Y-86737900D03*
X92191800Y-86737900D03*
X91569500Y-86737900D03*
D12*
X94371100Y-90044900D03*
D13*
X94752100Y-90044900D03*
X95387100Y-90044900D03*
X94117100Y-90044900D03*
X93482100Y-90044900D03*
X92847100Y-90044900D03*
X95984000Y-90044900D03*
X96580900Y-90044900D03*
X92224800Y-90044900D03*
X91602500Y-90044900D03*
D12*
X105967100Y-86521900D03*
D13*
X106348100Y-86521900D03*
X106983100Y-86521900D03*
X105713100Y-86521900D03*
X105078100Y-86521900D03*
X104443100Y-86521900D03*
X107580000Y-86521900D03*
X108176900Y-86521900D03*
X103820800Y-86521900D03*
X103198500Y-86521900D03*
D12*
X94313100Y-80550900D03*
D13*
X94694100Y-80550900D03*
X95329100Y-80550900D03*
X94059100Y-80550900D03*
X93424100Y-80550900D03*
X92789100Y-80550900D03*
X95926000Y-80550900D03*
X96522900Y-80550900D03*
X92166800Y-80550900D03*
X91544500Y-80550900D03*
D12*
X94363100Y-83584900D03*
D13*
X94744100Y-83584900D03*
X95379100Y-83584900D03*
X94109100Y-83584900D03*
X93474100Y-83584900D03*
X92839100Y-83584900D03*
X95976000Y-83584900D03*
X96572900Y-83584900D03*
X92216800Y-83584900D03*
X91594500Y-83584900D03*
D12*
X105966100Y-89744900D03*
D13*
X106347100Y-89744900D03*
X106982100Y-89744900D03*
X105712100Y-89744900D03*
X105077100Y-89744900D03*
X104442100Y-89744900D03*
X107579000Y-89744900D03*
X108175900Y-89744900D03*
X103819800Y-89744900D03*
X103197500Y-89744900D03*
M02*
