G04 #@! TF.FileFunction,Legend,Top*
%FSLAX46Y46*%
G04 Gerber Fmt 4.6, Leading zero omitted, Abs format (unit mm)*
G04 Created by KiCad (PCBNEW 4.0.6) date 05/07/17 20:49:46*
%MOMM*%
%LPD*%
G01*
G04 APERTURE LIST*
%ADD10C,0.100000*%
%ADD11C,0.101600*%
%ADD12C,0.002032*%
G04 APERTURE END LIST*
D10*
D11*
X117890348Y-107292806D02*
X117315824Y-107694972D01*
X117890348Y-107982234D02*
X116683848Y-107982234D01*
X116683848Y-107522615D01*
X116741300Y-107407710D01*
X116798752Y-107350258D01*
X116913657Y-107292806D01*
X117086014Y-107292806D01*
X117200919Y-107350258D01*
X117258371Y-107407710D01*
X117315824Y-107522615D01*
X117315824Y-107982234D01*
X116798752Y-106833186D02*
X116741300Y-106775734D01*
X116683848Y-106660829D01*
X116683848Y-106373567D01*
X116741300Y-106258663D01*
X116798752Y-106201210D01*
X116913657Y-106143758D01*
X117028562Y-106143758D01*
X117200919Y-106201210D01*
X117890348Y-106890639D01*
X117890348Y-106143758D01*
X117890348Y-104994710D02*
X117890348Y-105684138D01*
X117890348Y-105339424D02*
X116683848Y-105339424D01*
X116856205Y-105454329D01*
X116971110Y-105569234D01*
X117028562Y-105684138D01*
X112988752Y-107982234D02*
X112931300Y-107924782D01*
X112873848Y-107809877D01*
X112873848Y-107522615D01*
X112931300Y-107407711D01*
X112988752Y-107350258D01*
X113103657Y-107292806D01*
X113218562Y-107292806D01*
X113390919Y-107350258D01*
X114080348Y-108039687D01*
X114080348Y-107292806D01*
X112988752Y-106833186D02*
X112931300Y-106775734D01*
X112873848Y-106660829D01*
X112873848Y-106373567D01*
X112931300Y-106258663D01*
X112988752Y-106201210D01*
X113103657Y-106143758D01*
X113218562Y-106143758D01*
X113390919Y-106201210D01*
X114080348Y-106890639D01*
X114080348Y-106143758D01*
X112873848Y-105396877D02*
X112873848Y-105281972D01*
X112931300Y-105167067D01*
X112988752Y-105109615D01*
X113103657Y-105052162D01*
X113333467Y-104994710D01*
X113620729Y-104994710D01*
X113850538Y-105052162D01*
X113965443Y-105109615D01*
X114022895Y-105167067D01*
X114080348Y-105281972D01*
X114080348Y-105396877D01*
X114022895Y-105511781D01*
X113965443Y-105569234D01*
X113850538Y-105626686D01*
X113620729Y-105684138D01*
X113333467Y-105684138D01*
X113103657Y-105626686D01*
X112988752Y-105569234D01*
X112931300Y-105511781D01*
X112873848Y-105396877D01*
X144684757Y-88626248D02*
X145431638Y-88626248D01*
X145029471Y-89085867D01*
X145201829Y-89085867D01*
X145316733Y-89143319D01*
X145374186Y-89200771D01*
X145431638Y-89315676D01*
X145431638Y-89602938D01*
X145374186Y-89717843D01*
X145316733Y-89775295D01*
X145201829Y-89832748D01*
X144857114Y-89832748D01*
X144742210Y-89775295D01*
X144684757Y-89717843D01*
X145776353Y-88626248D02*
X146178519Y-89832748D01*
X146580686Y-88626248D01*
X146867948Y-88626248D02*
X147614829Y-88626248D01*
X147212662Y-89085867D01*
X147385020Y-89085867D01*
X147499924Y-89143319D01*
X147557377Y-89200771D01*
X147614829Y-89315676D01*
X147614829Y-89602938D01*
X147557377Y-89717843D01*
X147499924Y-89775295D01*
X147385020Y-89832748D01*
X147040305Y-89832748D01*
X146925401Y-89775295D01*
X146867948Y-89717843D01*
X147844639Y-89947652D02*
X148763877Y-89947652D01*
X149740567Y-89717843D02*
X149683115Y-89775295D01*
X149510758Y-89832748D01*
X149395853Y-89832748D01*
X149223496Y-89775295D01*
X149108591Y-89660390D01*
X149051139Y-89545486D01*
X148993687Y-89315676D01*
X148993687Y-89143319D01*
X149051139Y-88913510D01*
X149108591Y-88798605D01*
X149223496Y-88683700D01*
X149395853Y-88626248D01*
X149510758Y-88626248D01*
X149683115Y-88683700D01*
X149740567Y-88741152D01*
X150142734Y-88626248D02*
X150889615Y-88626248D01*
X150487448Y-89085867D01*
X150659806Y-89085867D01*
X150774710Y-89143319D01*
X150832163Y-89200771D01*
X150889615Y-89315676D01*
X150889615Y-89602938D01*
X150832163Y-89717843D01*
X150774710Y-89775295D01*
X150659806Y-89832748D01*
X150315091Y-89832748D01*
X150200187Y-89775295D01*
X150142734Y-89717843D01*
D12*
X144560045Y-90996951D02*
X144560045Y-90972821D01*
X144569238Y-90972821D01*
X144571536Y-90973970D01*
X144572685Y-90975119D01*
X144573834Y-90977417D01*
X144573834Y-90980864D01*
X144572685Y-90983162D01*
X144571536Y-90984311D01*
X144569238Y-90985460D01*
X144560045Y-90985460D01*
X144580728Y-90972821D02*
X144594517Y-90972821D01*
X144587622Y-90996951D02*
X144587622Y-90972821D01*
X144616349Y-90996951D02*
X144608305Y-90985460D01*
X144602560Y-90996951D02*
X144602560Y-90972821D01*
X144611753Y-90972821D01*
X144614051Y-90973970D01*
X144615200Y-90975119D01*
X144616349Y-90977417D01*
X144616349Y-90980864D01*
X144615200Y-90983162D01*
X144614051Y-90984311D01*
X144611753Y-90985460D01*
X144602560Y-90985460D01*
X144639330Y-90996951D02*
X144625541Y-90996951D01*
X144632435Y-90996951D02*
X144632435Y-90972821D01*
X144630137Y-90976268D01*
X144627839Y-90978566D01*
X144625541Y-90979715D01*
X144646224Y-90972821D02*
X144660013Y-90972821D01*
X144653118Y-90996951D02*
X144653118Y-90972821D01*
X144668056Y-90996951D02*
X144668056Y-90972821D01*
X144677249Y-90972821D01*
X144679547Y-90973970D01*
X144680696Y-90975119D01*
X144681845Y-90977417D01*
X144681845Y-90980864D01*
X144680696Y-90983162D01*
X144679547Y-90984311D01*
X144677249Y-90985460D01*
X144668056Y-90985460D01*
X144704826Y-90996951D02*
X144691037Y-90996951D01*
X144697931Y-90996951D02*
X144697931Y-90972821D01*
X144695633Y-90976268D01*
X144693335Y-90978566D01*
X144691037Y-90979715D01*
X144727807Y-90996951D02*
X144714018Y-90996951D01*
X144720912Y-90996951D02*
X144720912Y-90972821D01*
X144718614Y-90976268D01*
X144716316Y-90978566D01*
X144714018Y-90979715D01*
X144751937Y-90996951D02*
X144743893Y-90985460D01*
X144738148Y-90996951D02*
X144738148Y-90972821D01*
X144747341Y-90972821D01*
X144749639Y-90973970D01*
X144750788Y-90975119D01*
X144751937Y-90977417D01*
X144751937Y-90980864D01*
X144750788Y-90983162D01*
X144749639Y-90984311D01*
X144747341Y-90985460D01*
X144738148Y-90985460D01*
D11*
X143822038Y-78605100D02*
X143707133Y-78547648D01*
X143534776Y-78547648D01*
X143362419Y-78605100D01*
X143247514Y-78720005D01*
X143190062Y-78834910D01*
X143132610Y-79064719D01*
X143132610Y-79237076D01*
X143190062Y-79466886D01*
X143247514Y-79581790D01*
X143362419Y-79696695D01*
X143534776Y-79754148D01*
X143649681Y-79754148D01*
X143822038Y-79696695D01*
X143879490Y-79639243D01*
X143879490Y-79237076D01*
X143649681Y-79237076D01*
X144396562Y-79754148D02*
X144396562Y-78547648D01*
X145085990Y-79754148D01*
X145085990Y-78547648D01*
X145660514Y-79754148D02*
X145660514Y-78547648D01*
X145947776Y-78547648D01*
X146120133Y-78605100D01*
X146235038Y-78720005D01*
X146292490Y-78834910D01*
X146349942Y-79064719D01*
X146349942Y-79237076D01*
X146292490Y-79466886D01*
X146235038Y-79581790D01*
X146120133Y-79696695D01*
X145947776Y-79754148D01*
X145660514Y-79754148D01*
X146579752Y-79869052D02*
X147498990Y-79869052D01*
X148475680Y-79639243D02*
X148418228Y-79696695D01*
X148245871Y-79754148D01*
X148130966Y-79754148D01*
X147958609Y-79696695D01*
X147843704Y-79581790D01*
X147786252Y-79466886D01*
X147728800Y-79237076D01*
X147728800Y-79064719D01*
X147786252Y-78834910D01*
X147843704Y-78720005D01*
X147958609Y-78605100D01*
X148130966Y-78547648D01*
X148245871Y-78547648D01*
X148418228Y-78605100D01*
X148475680Y-78662552D01*
X148877847Y-78547648D02*
X149624728Y-78547648D01*
X149222561Y-79007267D01*
X149394919Y-79007267D01*
X149509823Y-79064719D01*
X149567276Y-79122171D01*
X149624728Y-79237076D01*
X149624728Y-79524338D01*
X149567276Y-79639243D01*
X149509823Y-79696695D01*
X149394919Y-79754148D01*
X149050204Y-79754148D01*
X148935300Y-79696695D01*
X148877847Y-79639243D01*
D12*
X142950445Y-80918351D02*
X142950445Y-80894221D01*
X142959638Y-80894221D01*
X142961936Y-80895370D01*
X142963085Y-80896519D01*
X142964234Y-80898817D01*
X142964234Y-80902264D01*
X142963085Y-80904562D01*
X142961936Y-80905711D01*
X142959638Y-80906860D01*
X142950445Y-80906860D01*
X142971128Y-80894221D02*
X142984917Y-80894221D01*
X142978022Y-80918351D02*
X142978022Y-80894221D01*
X143006749Y-80918351D02*
X142998705Y-80906860D01*
X142992960Y-80918351D02*
X142992960Y-80894221D01*
X143002153Y-80894221D01*
X143004451Y-80895370D01*
X143005600Y-80896519D01*
X143006749Y-80898817D01*
X143006749Y-80902264D01*
X143005600Y-80904562D01*
X143004451Y-80905711D01*
X143002153Y-80906860D01*
X142992960Y-80906860D01*
X143029730Y-80918351D02*
X143015941Y-80918351D01*
X143022835Y-80918351D02*
X143022835Y-80894221D01*
X143020537Y-80897668D01*
X143018239Y-80899966D01*
X143015941Y-80901115D01*
X143036624Y-80894221D02*
X143050413Y-80894221D01*
X143043518Y-80918351D02*
X143043518Y-80894221D01*
X143058456Y-80918351D02*
X143058456Y-80894221D01*
X143067649Y-80894221D01*
X143069947Y-80895370D01*
X143071096Y-80896519D01*
X143072245Y-80898817D01*
X143072245Y-80902264D01*
X143071096Y-80904562D01*
X143069947Y-80905711D01*
X143067649Y-80906860D01*
X143058456Y-80906860D01*
X143095226Y-80918351D02*
X143081437Y-80918351D01*
X143088331Y-80918351D02*
X143088331Y-80894221D01*
X143086033Y-80897668D01*
X143083735Y-80899966D01*
X143081437Y-80901115D01*
X143118207Y-80918351D02*
X143104418Y-80918351D01*
X143111312Y-80918351D02*
X143111312Y-80894221D01*
X143109014Y-80897668D01*
X143106716Y-80899966D01*
X143104418Y-80901115D01*
X143142337Y-80918351D02*
X143134293Y-80906860D01*
X143128548Y-80918351D02*
X143128548Y-80894221D01*
X143137741Y-80894221D01*
X143140039Y-80895370D01*
X143141188Y-80896519D01*
X143142337Y-80898817D01*
X143142337Y-80902264D01*
X143141188Y-80904562D01*
X143140039Y-80905711D01*
X143137741Y-80906860D01*
X143128548Y-80906860D01*
D11*
X145450386Y-105809348D02*
X144875862Y-105809348D01*
X144875862Y-104602848D01*
X145565290Y-105924252D02*
X146484528Y-105924252D01*
X147461218Y-105694443D02*
X147403766Y-105751895D01*
X147231409Y-105809348D01*
X147116504Y-105809348D01*
X146944147Y-105751895D01*
X146829242Y-105636990D01*
X146771790Y-105522086D01*
X146714338Y-105292276D01*
X146714338Y-105119919D01*
X146771790Y-104890110D01*
X146829242Y-104775205D01*
X146944147Y-104660300D01*
X147116504Y-104602848D01*
X147231409Y-104602848D01*
X147403766Y-104660300D01*
X147461218Y-104717752D01*
X147920838Y-104717752D02*
X147978290Y-104660300D01*
X148093195Y-104602848D01*
X148380457Y-104602848D01*
X148495361Y-104660300D01*
X148552814Y-104717752D01*
X148610266Y-104832657D01*
X148610266Y-104947562D01*
X148552814Y-105119919D01*
X147863385Y-105809348D01*
X148610266Y-105809348D01*
X148840076Y-105924252D02*
X149759314Y-105924252D01*
X150736004Y-105694443D02*
X150678552Y-105751895D01*
X150506195Y-105809348D01*
X150391290Y-105809348D01*
X150218933Y-105751895D01*
X150104028Y-105636990D01*
X150046576Y-105522086D01*
X149989124Y-105292276D01*
X149989124Y-105119919D01*
X150046576Y-104890110D01*
X150104028Y-104775205D01*
X150218933Y-104660300D01*
X150391290Y-104602848D01*
X150506195Y-104602848D01*
X150678552Y-104660300D01*
X150736004Y-104717752D01*
X151138171Y-104602848D02*
X151885052Y-104602848D01*
X151482885Y-105062467D01*
X151655243Y-105062467D01*
X151770147Y-105119919D01*
X151827600Y-105177371D01*
X151885052Y-105292276D01*
X151885052Y-105579538D01*
X151827600Y-105694443D01*
X151770147Y-105751895D01*
X151655243Y-105809348D01*
X151310528Y-105809348D01*
X151195624Y-105751895D01*
X151138171Y-105694443D01*
D12*
X144636245Y-106973551D02*
X144636245Y-106949421D01*
X144645438Y-106949421D01*
X144647736Y-106950570D01*
X144648885Y-106951719D01*
X144650034Y-106954017D01*
X144650034Y-106957464D01*
X144648885Y-106959762D01*
X144647736Y-106960911D01*
X144645438Y-106962060D01*
X144636245Y-106962060D01*
X144656928Y-106949421D02*
X144670717Y-106949421D01*
X144663822Y-106973551D02*
X144663822Y-106949421D01*
X144692549Y-106973551D02*
X144684505Y-106962060D01*
X144678760Y-106973551D02*
X144678760Y-106949421D01*
X144687953Y-106949421D01*
X144690251Y-106950570D01*
X144691400Y-106951719D01*
X144692549Y-106954017D01*
X144692549Y-106957464D01*
X144691400Y-106959762D01*
X144690251Y-106960911D01*
X144687953Y-106962060D01*
X144678760Y-106962060D01*
X144715530Y-106973551D02*
X144701741Y-106973551D01*
X144708635Y-106973551D02*
X144708635Y-106949421D01*
X144706337Y-106952868D01*
X144704039Y-106955166D01*
X144701741Y-106956315D01*
X144722424Y-106949421D02*
X144736213Y-106949421D01*
X144729318Y-106973551D02*
X144729318Y-106949421D01*
X144744256Y-106973551D02*
X144744256Y-106949421D01*
X144753449Y-106949421D01*
X144755747Y-106950570D01*
X144756896Y-106951719D01*
X144758045Y-106954017D01*
X144758045Y-106957464D01*
X144756896Y-106959762D01*
X144755747Y-106960911D01*
X144753449Y-106962060D01*
X144744256Y-106962060D01*
X144781026Y-106973551D02*
X144767237Y-106973551D01*
X144774131Y-106973551D02*
X144774131Y-106949421D01*
X144771833Y-106952868D01*
X144769535Y-106955166D01*
X144767237Y-106956315D01*
X144804007Y-106973551D02*
X144790218Y-106973551D01*
X144797112Y-106973551D02*
X144797112Y-106949421D01*
X144794814Y-106952868D01*
X144792516Y-106955166D01*
X144790218Y-106956315D01*
X144828137Y-106973551D02*
X144820093Y-106962060D01*
X144814348Y-106973551D02*
X144814348Y-106949421D01*
X144823541Y-106949421D01*
X144825839Y-106950570D01*
X144826988Y-106951719D01*
X144828137Y-106954017D01*
X144828137Y-106957464D01*
X144826988Y-106959762D01*
X144825839Y-106960911D01*
X144823541Y-106962060D01*
X144814348Y-106962060D01*
D11*
X145323386Y-108577948D02*
X144748862Y-108577948D01*
X144748862Y-107371448D01*
X145438290Y-108692852D02*
X146357528Y-108692852D01*
X147334218Y-108463043D02*
X147276766Y-108520495D01*
X147104409Y-108577948D01*
X146989504Y-108577948D01*
X146817147Y-108520495D01*
X146702242Y-108405590D01*
X146644790Y-108290686D01*
X146587338Y-108060876D01*
X146587338Y-107888519D01*
X146644790Y-107658710D01*
X146702242Y-107543805D01*
X146817147Y-107428900D01*
X146989504Y-107371448D01*
X147104409Y-107371448D01*
X147276766Y-107428900D01*
X147334218Y-107486352D01*
X147793838Y-107486352D02*
X147851290Y-107428900D01*
X147966195Y-107371448D01*
X148253457Y-107371448D01*
X148368361Y-107428900D01*
X148425814Y-107486352D01*
X148483266Y-107601257D01*
X148483266Y-107716162D01*
X148425814Y-107888519D01*
X147736385Y-108577948D01*
X148483266Y-108577948D01*
X148713076Y-108692852D02*
X149632314Y-108692852D01*
X150609004Y-108463043D02*
X150551552Y-108520495D01*
X150379195Y-108577948D01*
X150264290Y-108577948D01*
X150091933Y-108520495D01*
X149977028Y-108405590D01*
X149919576Y-108290686D01*
X149862124Y-108060876D01*
X149862124Y-107888519D01*
X149919576Y-107658710D01*
X149977028Y-107543805D01*
X150091933Y-107428900D01*
X150264290Y-107371448D01*
X150379195Y-107371448D01*
X150551552Y-107428900D01*
X150609004Y-107486352D01*
X151643147Y-107773614D02*
X151643147Y-108577948D01*
X151355885Y-107313995D02*
X151068624Y-108175781D01*
X151815504Y-108175781D01*
D12*
X144509245Y-109742151D02*
X144509245Y-109718021D01*
X144518438Y-109718021D01*
X144520736Y-109719170D01*
X144521885Y-109720319D01*
X144523034Y-109722617D01*
X144523034Y-109726064D01*
X144521885Y-109728362D01*
X144520736Y-109729511D01*
X144518438Y-109730660D01*
X144509245Y-109730660D01*
X144529928Y-109718021D02*
X144543717Y-109718021D01*
X144536822Y-109742151D02*
X144536822Y-109718021D01*
X144565549Y-109742151D02*
X144557505Y-109730660D01*
X144551760Y-109742151D02*
X144551760Y-109718021D01*
X144560953Y-109718021D01*
X144563251Y-109719170D01*
X144564400Y-109720319D01*
X144565549Y-109722617D01*
X144565549Y-109726064D01*
X144564400Y-109728362D01*
X144563251Y-109729511D01*
X144560953Y-109730660D01*
X144551760Y-109730660D01*
X144588530Y-109742151D02*
X144574741Y-109742151D01*
X144581635Y-109742151D02*
X144581635Y-109718021D01*
X144579337Y-109721468D01*
X144577039Y-109723766D01*
X144574741Y-109724915D01*
X144595424Y-109718021D02*
X144609213Y-109718021D01*
X144602318Y-109742151D02*
X144602318Y-109718021D01*
X144617256Y-109742151D02*
X144617256Y-109718021D01*
X144626449Y-109718021D01*
X144628747Y-109719170D01*
X144629896Y-109720319D01*
X144631045Y-109722617D01*
X144631045Y-109726064D01*
X144629896Y-109728362D01*
X144628747Y-109729511D01*
X144626449Y-109730660D01*
X144617256Y-109730660D01*
X144654026Y-109742151D02*
X144640237Y-109742151D01*
X144647131Y-109742151D02*
X144647131Y-109718021D01*
X144644833Y-109721468D01*
X144642535Y-109723766D01*
X144640237Y-109724915D01*
X144677007Y-109742151D02*
X144663218Y-109742151D01*
X144670112Y-109742151D02*
X144670112Y-109718021D01*
X144667814Y-109721468D01*
X144665516Y-109723766D01*
X144663218Y-109724915D01*
X144701137Y-109742151D02*
X144693093Y-109730660D01*
X144687348Y-109742151D02*
X144687348Y-109718021D01*
X144696541Y-109718021D01*
X144698839Y-109719170D01*
X144699988Y-109720319D01*
X144701137Y-109722617D01*
X144701137Y-109726064D01*
X144699988Y-109728362D01*
X144698839Y-109729511D01*
X144696541Y-109730660D01*
X144687348Y-109730660D01*
D11*
X144799662Y-95242948D02*
X144799662Y-94036448D01*
X145201829Y-94898233D01*
X145603995Y-94036448D01*
X145603995Y-95242948D01*
X146178519Y-94610971D02*
X146580686Y-94610971D01*
X146753043Y-95242948D02*
X146178519Y-95242948D01*
X146178519Y-94036448D01*
X146753043Y-94036448D01*
X147959542Y-95128043D02*
X147902090Y-95185495D01*
X147729733Y-95242948D01*
X147614828Y-95242948D01*
X147442471Y-95185495D01*
X147327566Y-95070590D01*
X147270114Y-94955686D01*
X147212662Y-94725876D01*
X147212662Y-94553519D01*
X147270114Y-94323710D01*
X147327566Y-94208805D01*
X147442471Y-94093900D01*
X147614828Y-94036448D01*
X147729733Y-94036448D01*
X147902090Y-94093900D01*
X147959542Y-94151352D01*
X148476614Y-95242948D02*
X148476614Y-94036448D01*
X148476614Y-94610971D02*
X149166042Y-94610971D01*
X149166042Y-95242948D02*
X149166042Y-94036448D01*
X149453304Y-95357852D02*
X150372542Y-95357852D01*
X151234328Y-95242948D02*
X150659804Y-95242948D01*
X150659804Y-94036448D01*
X151636494Y-95242948D02*
X151636494Y-94036448D01*
X152211018Y-95242948D02*
X152211018Y-94036448D01*
X152900446Y-95242948D01*
X152900446Y-94036448D01*
X153474970Y-95242948D02*
X153474970Y-94036448D01*
X154164398Y-95242948D02*
X153647327Y-94553519D01*
X154164398Y-94036448D02*
X153474970Y-94725876D01*
X154394208Y-95357852D02*
X155313446Y-95357852D01*
X155485803Y-94036448D02*
X156290136Y-94036448D01*
X155773065Y-95242948D01*
D12*
X144560045Y-96407151D02*
X144560045Y-96383021D01*
X144569238Y-96383021D01*
X144571536Y-96384170D01*
X144572685Y-96385319D01*
X144573834Y-96387617D01*
X144573834Y-96391064D01*
X144572685Y-96393362D01*
X144571536Y-96394511D01*
X144569238Y-96395660D01*
X144560045Y-96395660D01*
X144580728Y-96383021D02*
X144594517Y-96383021D01*
X144587622Y-96407151D02*
X144587622Y-96383021D01*
X144616349Y-96407151D02*
X144608305Y-96395660D01*
X144602560Y-96407151D02*
X144602560Y-96383021D01*
X144611753Y-96383021D01*
X144614051Y-96384170D01*
X144615200Y-96385319D01*
X144616349Y-96387617D01*
X144616349Y-96391064D01*
X144615200Y-96393362D01*
X144614051Y-96394511D01*
X144611753Y-96395660D01*
X144602560Y-96395660D01*
X144639330Y-96407151D02*
X144625541Y-96407151D01*
X144632435Y-96407151D02*
X144632435Y-96383021D01*
X144630137Y-96386468D01*
X144627839Y-96388766D01*
X144625541Y-96389915D01*
X144646224Y-96383021D02*
X144660013Y-96383021D01*
X144653118Y-96407151D02*
X144653118Y-96383021D01*
X144668056Y-96407151D02*
X144668056Y-96383021D01*
X144677249Y-96383021D01*
X144679547Y-96384170D01*
X144680696Y-96385319D01*
X144681845Y-96387617D01*
X144681845Y-96391064D01*
X144680696Y-96393362D01*
X144679547Y-96394511D01*
X144677249Y-96395660D01*
X144668056Y-96395660D01*
X144704826Y-96407151D02*
X144691037Y-96407151D01*
X144697931Y-96407151D02*
X144697931Y-96383021D01*
X144695633Y-96386468D01*
X144693335Y-96388766D01*
X144691037Y-96389915D01*
X144727807Y-96407151D02*
X144714018Y-96407151D01*
X144720912Y-96407151D02*
X144720912Y-96383021D01*
X144718614Y-96386468D01*
X144716316Y-96388766D01*
X144714018Y-96389915D01*
X144751937Y-96407151D02*
X144743893Y-96395660D01*
X144738148Y-96407151D02*
X144738148Y-96383021D01*
X144747341Y-96383021D01*
X144749639Y-96384170D01*
X144750788Y-96385319D01*
X144751937Y-96387617D01*
X144751937Y-96391064D01*
X144750788Y-96393362D01*
X144749639Y-96394511D01*
X144747341Y-96395660D01*
X144738148Y-96395660D01*
D11*
X144774262Y-119855548D02*
X144774262Y-118649048D01*
X145176429Y-119510833D01*
X145578595Y-118649048D01*
X145578595Y-119855548D01*
X146153119Y-119223571D02*
X146555286Y-119223571D01*
X146727643Y-119855548D02*
X146153119Y-119855548D01*
X146153119Y-118649048D01*
X146727643Y-118649048D01*
X147934142Y-119740643D02*
X147876690Y-119798095D01*
X147704333Y-119855548D01*
X147589428Y-119855548D01*
X147417071Y-119798095D01*
X147302166Y-119683190D01*
X147244714Y-119568286D01*
X147187262Y-119338476D01*
X147187262Y-119166119D01*
X147244714Y-118936310D01*
X147302166Y-118821405D01*
X147417071Y-118706500D01*
X147589428Y-118649048D01*
X147704333Y-118649048D01*
X147876690Y-118706500D01*
X147934142Y-118763952D01*
X148451214Y-119855548D02*
X148451214Y-118649048D01*
X148451214Y-119223571D02*
X149140642Y-119223571D01*
X149140642Y-119855548D02*
X149140642Y-118649048D01*
X149427904Y-119970452D02*
X150347142Y-119970452D01*
X151208928Y-119855548D02*
X150634404Y-119855548D01*
X150634404Y-118649048D01*
X151611094Y-119855548D02*
X151611094Y-118649048D01*
X152185618Y-119855548D02*
X152185618Y-118649048D01*
X152875046Y-119855548D01*
X152875046Y-118649048D01*
X153449570Y-119855548D02*
X153449570Y-118649048D01*
X154138998Y-119855548D02*
X153621927Y-119166119D01*
X154138998Y-118649048D02*
X153449570Y-119338476D01*
X154368808Y-119970452D02*
X155288046Y-119970452D01*
X156207284Y-119855548D02*
X155517856Y-119855548D01*
X155862570Y-119855548D02*
X155862570Y-118649048D01*
X155747665Y-118821405D01*
X155632760Y-118936310D01*
X155517856Y-118993762D01*
X157356332Y-119855548D02*
X156666904Y-119855548D01*
X157011618Y-119855548D02*
X157011618Y-118649048D01*
X156896713Y-118821405D01*
X156781808Y-118936310D01*
X156666904Y-118993762D01*
D12*
X144534645Y-121019751D02*
X144534645Y-120995621D01*
X144543838Y-120995621D01*
X144546136Y-120996770D01*
X144547285Y-120997919D01*
X144548434Y-121000217D01*
X144548434Y-121003664D01*
X144547285Y-121005962D01*
X144546136Y-121007111D01*
X144543838Y-121008260D01*
X144534645Y-121008260D01*
X144555328Y-120995621D02*
X144569117Y-120995621D01*
X144562222Y-121019751D02*
X144562222Y-120995621D01*
X144590949Y-121019751D02*
X144582905Y-121008260D01*
X144577160Y-121019751D02*
X144577160Y-120995621D01*
X144586353Y-120995621D01*
X144588651Y-120996770D01*
X144589800Y-120997919D01*
X144590949Y-121000217D01*
X144590949Y-121003664D01*
X144589800Y-121005962D01*
X144588651Y-121007111D01*
X144586353Y-121008260D01*
X144577160Y-121008260D01*
X144613930Y-121019751D02*
X144600141Y-121019751D01*
X144607035Y-121019751D02*
X144607035Y-120995621D01*
X144604737Y-120999068D01*
X144602439Y-121001366D01*
X144600141Y-121002515D01*
X144620824Y-120995621D02*
X144634613Y-120995621D01*
X144627718Y-121019751D02*
X144627718Y-120995621D01*
X144642656Y-121019751D02*
X144642656Y-120995621D01*
X144651849Y-120995621D01*
X144654147Y-120996770D01*
X144655296Y-120997919D01*
X144656445Y-121000217D01*
X144656445Y-121003664D01*
X144655296Y-121005962D01*
X144654147Y-121007111D01*
X144651849Y-121008260D01*
X144642656Y-121008260D01*
X144679426Y-121019751D02*
X144665637Y-121019751D01*
X144672531Y-121019751D02*
X144672531Y-120995621D01*
X144670233Y-120999068D01*
X144667935Y-121001366D01*
X144665637Y-121002515D01*
X144702407Y-121019751D02*
X144688618Y-121019751D01*
X144695512Y-121019751D02*
X144695512Y-120995621D01*
X144693214Y-120999068D01*
X144690916Y-121001366D01*
X144688618Y-121002515D01*
X144726537Y-121019751D02*
X144718493Y-121008260D01*
X144712748Y-121019751D02*
X144712748Y-120995621D01*
X144721941Y-120995621D01*
X144724239Y-120996770D01*
X144725388Y-120997919D01*
X144726537Y-121000217D01*
X144726537Y-121003664D01*
X144725388Y-121005962D01*
X144724239Y-121007111D01*
X144721941Y-121008260D01*
X144712748Y-121008260D01*
D11*
X144748862Y-103142348D02*
X144748862Y-101935848D01*
X145151029Y-102797633D01*
X145553195Y-101935848D01*
X145553195Y-103142348D01*
X146127719Y-102510371D02*
X146529886Y-102510371D01*
X146702243Y-103142348D02*
X146127719Y-103142348D01*
X146127719Y-101935848D01*
X146702243Y-101935848D01*
X147908742Y-103027443D02*
X147851290Y-103084895D01*
X147678933Y-103142348D01*
X147564028Y-103142348D01*
X147391671Y-103084895D01*
X147276766Y-102969990D01*
X147219314Y-102855086D01*
X147161862Y-102625276D01*
X147161862Y-102452919D01*
X147219314Y-102223110D01*
X147276766Y-102108205D01*
X147391671Y-101993300D01*
X147564028Y-101935848D01*
X147678933Y-101935848D01*
X147851290Y-101993300D01*
X147908742Y-102050752D01*
X148425814Y-103142348D02*
X148425814Y-101935848D01*
X148425814Y-102510371D02*
X149115242Y-102510371D01*
X149115242Y-103142348D02*
X149115242Y-101935848D01*
X149402504Y-103257252D02*
X150321742Y-103257252D01*
X151183528Y-103142348D02*
X150609004Y-103142348D01*
X150609004Y-101935848D01*
X151585694Y-103142348D02*
X151585694Y-101935848D01*
X152160218Y-103142348D02*
X152160218Y-101935848D01*
X152849646Y-103142348D01*
X152849646Y-101935848D01*
X153424170Y-103142348D02*
X153424170Y-101935848D01*
X154113598Y-103142348D02*
X153596527Y-102452919D01*
X154113598Y-101935848D02*
X153424170Y-102625276D01*
X154343408Y-103257252D02*
X155262646Y-103257252D01*
X155722265Y-102452919D02*
X155607360Y-102395467D01*
X155549908Y-102338014D01*
X155492456Y-102223110D01*
X155492456Y-102165657D01*
X155549908Y-102050752D01*
X155607360Y-101993300D01*
X155722265Y-101935848D01*
X155952075Y-101935848D01*
X156066979Y-101993300D01*
X156124432Y-102050752D01*
X156181884Y-102165657D01*
X156181884Y-102223110D01*
X156124432Y-102338014D01*
X156066979Y-102395467D01*
X155952075Y-102452919D01*
X155722265Y-102452919D01*
X155607360Y-102510371D01*
X155549908Y-102567824D01*
X155492456Y-102682729D01*
X155492456Y-102912538D01*
X155549908Y-103027443D01*
X155607360Y-103084895D01*
X155722265Y-103142348D01*
X155952075Y-103142348D01*
X156066979Y-103084895D01*
X156124432Y-103027443D01*
X156181884Y-102912538D01*
X156181884Y-102682729D01*
X156124432Y-102567824D01*
X156066979Y-102510371D01*
X155952075Y-102452919D01*
D12*
X144509245Y-104306551D02*
X144509245Y-104282421D01*
X144518438Y-104282421D01*
X144520736Y-104283570D01*
X144521885Y-104284719D01*
X144523034Y-104287017D01*
X144523034Y-104290464D01*
X144521885Y-104292762D01*
X144520736Y-104293911D01*
X144518438Y-104295060D01*
X144509245Y-104295060D01*
X144529928Y-104282421D02*
X144543717Y-104282421D01*
X144536822Y-104306551D02*
X144536822Y-104282421D01*
X144565549Y-104306551D02*
X144557505Y-104295060D01*
X144551760Y-104306551D02*
X144551760Y-104282421D01*
X144560953Y-104282421D01*
X144563251Y-104283570D01*
X144564400Y-104284719D01*
X144565549Y-104287017D01*
X144565549Y-104290464D01*
X144564400Y-104292762D01*
X144563251Y-104293911D01*
X144560953Y-104295060D01*
X144551760Y-104295060D01*
X144588530Y-104306551D02*
X144574741Y-104306551D01*
X144581635Y-104306551D02*
X144581635Y-104282421D01*
X144579337Y-104285868D01*
X144577039Y-104288166D01*
X144574741Y-104289315D01*
X144595424Y-104282421D02*
X144609213Y-104282421D01*
X144602318Y-104306551D02*
X144602318Y-104282421D01*
X144617256Y-104306551D02*
X144617256Y-104282421D01*
X144626449Y-104282421D01*
X144628747Y-104283570D01*
X144629896Y-104284719D01*
X144631045Y-104287017D01*
X144631045Y-104290464D01*
X144629896Y-104292762D01*
X144628747Y-104293911D01*
X144626449Y-104295060D01*
X144617256Y-104295060D01*
X144654026Y-104306551D02*
X144640237Y-104306551D01*
X144647131Y-104306551D02*
X144647131Y-104282421D01*
X144644833Y-104285868D01*
X144642535Y-104288166D01*
X144640237Y-104289315D01*
X144677007Y-104306551D02*
X144663218Y-104306551D01*
X144670112Y-104306551D02*
X144670112Y-104282421D01*
X144667814Y-104285868D01*
X144665516Y-104288166D01*
X144663218Y-104289315D01*
X144701137Y-104306551D02*
X144693093Y-104295060D01*
X144687348Y-104306551D02*
X144687348Y-104282421D01*
X144696541Y-104282421D01*
X144698839Y-104283570D01*
X144699988Y-104284719D01*
X144701137Y-104287017D01*
X144701137Y-104290464D01*
X144699988Y-104292762D01*
X144698839Y-104293911D01*
X144696541Y-104295060D01*
X144687348Y-104295060D01*
D11*
X144774262Y-111244948D02*
X144774262Y-110038448D01*
X145176429Y-110900233D01*
X145578595Y-110038448D01*
X145578595Y-111244948D01*
X146153119Y-110612971D02*
X146555286Y-110612971D01*
X146727643Y-111244948D02*
X146153119Y-111244948D01*
X146153119Y-110038448D01*
X146727643Y-110038448D01*
X147934142Y-111130043D02*
X147876690Y-111187495D01*
X147704333Y-111244948D01*
X147589428Y-111244948D01*
X147417071Y-111187495D01*
X147302166Y-111072590D01*
X147244714Y-110957686D01*
X147187262Y-110727876D01*
X147187262Y-110555519D01*
X147244714Y-110325710D01*
X147302166Y-110210805D01*
X147417071Y-110095900D01*
X147589428Y-110038448D01*
X147704333Y-110038448D01*
X147876690Y-110095900D01*
X147934142Y-110153352D01*
X148451214Y-111244948D02*
X148451214Y-110038448D01*
X148451214Y-110612971D02*
X149140642Y-110612971D01*
X149140642Y-111244948D02*
X149140642Y-110038448D01*
X149427904Y-111359852D02*
X150347142Y-111359852D01*
X151208928Y-111244948D02*
X150634404Y-111244948D01*
X150634404Y-110038448D01*
X151611094Y-111244948D02*
X151611094Y-110038448D01*
X152185618Y-111244948D02*
X152185618Y-110038448D01*
X152875046Y-111244948D01*
X152875046Y-110038448D01*
X153449570Y-111244948D02*
X153449570Y-110038448D01*
X154138998Y-111244948D02*
X153621927Y-110555519D01*
X154138998Y-110038448D02*
X153449570Y-110727876D01*
X154368808Y-111359852D02*
X155288046Y-111359852D01*
X155632760Y-111244948D02*
X155862570Y-111244948D01*
X155977475Y-111187495D01*
X156034927Y-111130043D01*
X156149832Y-110957686D01*
X156207284Y-110727876D01*
X156207284Y-110268257D01*
X156149832Y-110153352D01*
X156092379Y-110095900D01*
X155977475Y-110038448D01*
X155747665Y-110038448D01*
X155632760Y-110095900D01*
X155575308Y-110153352D01*
X155517856Y-110268257D01*
X155517856Y-110555519D01*
X155575308Y-110670424D01*
X155632760Y-110727876D01*
X155747665Y-110785329D01*
X155977475Y-110785329D01*
X156092379Y-110727876D01*
X156149832Y-110670424D01*
X156207284Y-110555519D01*
D12*
X144534645Y-112409151D02*
X144534645Y-112385021D01*
X144543838Y-112385021D01*
X144546136Y-112386170D01*
X144547285Y-112387319D01*
X144548434Y-112389617D01*
X144548434Y-112393064D01*
X144547285Y-112395362D01*
X144546136Y-112396511D01*
X144543838Y-112397660D01*
X144534645Y-112397660D01*
X144555328Y-112385021D02*
X144569117Y-112385021D01*
X144562222Y-112409151D02*
X144562222Y-112385021D01*
X144590949Y-112409151D02*
X144582905Y-112397660D01*
X144577160Y-112409151D02*
X144577160Y-112385021D01*
X144586353Y-112385021D01*
X144588651Y-112386170D01*
X144589800Y-112387319D01*
X144590949Y-112389617D01*
X144590949Y-112393064D01*
X144589800Y-112395362D01*
X144588651Y-112396511D01*
X144586353Y-112397660D01*
X144577160Y-112397660D01*
X144613930Y-112409151D02*
X144600141Y-112409151D01*
X144607035Y-112409151D02*
X144607035Y-112385021D01*
X144604737Y-112388468D01*
X144602439Y-112390766D01*
X144600141Y-112391915D01*
X144620824Y-112385021D02*
X144634613Y-112385021D01*
X144627718Y-112409151D02*
X144627718Y-112385021D01*
X144642656Y-112409151D02*
X144642656Y-112385021D01*
X144651849Y-112385021D01*
X144654147Y-112386170D01*
X144655296Y-112387319D01*
X144656445Y-112389617D01*
X144656445Y-112393064D01*
X144655296Y-112395362D01*
X144654147Y-112396511D01*
X144651849Y-112397660D01*
X144642656Y-112397660D01*
X144679426Y-112409151D02*
X144665637Y-112409151D01*
X144672531Y-112409151D02*
X144672531Y-112385021D01*
X144670233Y-112388468D01*
X144667935Y-112390766D01*
X144665637Y-112391915D01*
X144702407Y-112409151D02*
X144688618Y-112409151D01*
X144695512Y-112409151D02*
X144695512Y-112385021D01*
X144693214Y-112388468D01*
X144690916Y-112390766D01*
X144688618Y-112391915D01*
X144726537Y-112409151D02*
X144718493Y-112397660D01*
X144712748Y-112409151D02*
X144712748Y-112385021D01*
X144721941Y-112385021D01*
X144724239Y-112386170D01*
X144725388Y-112387319D01*
X144726537Y-112389617D01*
X144726537Y-112393064D01*
X144725388Y-112395362D01*
X144724239Y-112396511D01*
X144721941Y-112397660D01*
X144712748Y-112397660D01*
D11*
X144716810Y-113981495D02*
X144889167Y-114038948D01*
X145176429Y-114038948D01*
X145291333Y-113981495D01*
X145348786Y-113924043D01*
X145406238Y-113809138D01*
X145406238Y-113694233D01*
X145348786Y-113579329D01*
X145291333Y-113521876D01*
X145176429Y-113464424D01*
X144946619Y-113406971D01*
X144831714Y-113349519D01*
X144774262Y-113292067D01*
X144716810Y-113177162D01*
X144716810Y-113062257D01*
X144774262Y-112947352D01*
X144831714Y-112889900D01*
X144946619Y-112832448D01*
X145233881Y-112832448D01*
X145406238Y-112889900D01*
X146612738Y-113924043D02*
X146555286Y-113981495D01*
X146382929Y-114038948D01*
X146268024Y-114038948D01*
X146095667Y-113981495D01*
X145980762Y-113866590D01*
X145923310Y-113751686D01*
X145865858Y-113521876D01*
X145865858Y-113349519D01*
X145923310Y-113119710D01*
X145980762Y-113004805D01*
X146095667Y-112889900D01*
X146268024Y-112832448D01*
X146382929Y-112832448D01*
X146555286Y-112889900D01*
X146612738Y-112947352D01*
X147704334Y-114038948D02*
X147129810Y-114038948D01*
X147129810Y-112832448D01*
X147819238Y-114153852D02*
X148738476Y-114153852D01*
X148968286Y-113981495D02*
X149140643Y-114038948D01*
X149427905Y-114038948D01*
X149542809Y-113981495D01*
X149600262Y-113924043D01*
X149657714Y-113809138D01*
X149657714Y-113694233D01*
X149600262Y-113579329D01*
X149542809Y-113521876D01*
X149427905Y-113464424D01*
X149198095Y-113406971D01*
X149083190Y-113349519D01*
X149025738Y-113292067D01*
X148968286Y-113177162D01*
X148968286Y-113062257D01*
X149025738Y-112947352D01*
X149083190Y-112889900D01*
X149198095Y-112832448D01*
X149485357Y-112832448D01*
X149657714Y-112889900D01*
X150059881Y-112832448D02*
X150806762Y-112832448D01*
X150404595Y-113292067D01*
X150576953Y-113292067D01*
X150691857Y-113349519D01*
X150749310Y-113406971D01*
X150806762Y-113521876D01*
X150806762Y-113809138D01*
X150749310Y-113924043D01*
X150691857Y-113981495D01*
X150576953Y-114038948D01*
X150232238Y-114038948D01*
X150117334Y-113981495D01*
X150059881Y-113924043D01*
X151036572Y-114153852D02*
X151955810Y-114153852D01*
X152932500Y-113924043D02*
X152875048Y-113981495D01*
X152702691Y-114038948D01*
X152587786Y-114038948D01*
X152415429Y-113981495D01*
X152300524Y-113866590D01*
X152243072Y-113751686D01*
X152185620Y-113521876D01*
X152185620Y-113349519D01*
X152243072Y-113119710D01*
X152300524Y-113004805D01*
X152415429Y-112889900D01*
X152587786Y-112832448D01*
X152702691Y-112832448D01*
X152875048Y-112889900D01*
X152932500Y-112947352D01*
X153334667Y-112832448D02*
X154081548Y-112832448D01*
X153679381Y-113292067D01*
X153851739Y-113292067D01*
X153966643Y-113349519D01*
X154024096Y-113406971D01*
X154081548Y-113521876D01*
X154081548Y-113809138D01*
X154024096Y-113924043D01*
X153966643Y-113981495D01*
X153851739Y-114038948D01*
X153507024Y-114038948D01*
X153392120Y-113981495D01*
X153334667Y-113924043D01*
X154311358Y-114153852D02*
X155230596Y-114153852D01*
X156207286Y-113924043D02*
X156149834Y-113981495D01*
X155977477Y-114038948D01*
X155862572Y-114038948D01*
X155690215Y-113981495D01*
X155575310Y-113866590D01*
X155517858Y-113751686D01*
X155460406Y-113521876D01*
X155460406Y-113349519D01*
X155517858Y-113119710D01*
X155575310Y-113004805D01*
X155690215Y-112889900D01*
X155862572Y-112832448D01*
X155977477Y-112832448D01*
X156149834Y-112889900D01*
X156207286Y-112947352D01*
X156666906Y-112947352D02*
X156724358Y-112889900D01*
X156839263Y-112832448D01*
X157126525Y-112832448D01*
X157241429Y-112889900D01*
X157298882Y-112947352D01*
X157356334Y-113062257D01*
X157356334Y-113177162D01*
X157298882Y-113349519D01*
X156609453Y-114038948D01*
X157356334Y-114038948D01*
D12*
X144534645Y-115203151D02*
X144534645Y-115179021D01*
X144543838Y-115179021D01*
X144546136Y-115180170D01*
X144547285Y-115181319D01*
X144548434Y-115183617D01*
X144548434Y-115187064D01*
X144547285Y-115189362D01*
X144546136Y-115190511D01*
X144543838Y-115191660D01*
X144534645Y-115191660D01*
X144555328Y-115179021D02*
X144569117Y-115179021D01*
X144562222Y-115203151D02*
X144562222Y-115179021D01*
X144590949Y-115203151D02*
X144582905Y-115191660D01*
X144577160Y-115203151D02*
X144577160Y-115179021D01*
X144586353Y-115179021D01*
X144588651Y-115180170D01*
X144589800Y-115181319D01*
X144590949Y-115183617D01*
X144590949Y-115187064D01*
X144589800Y-115189362D01*
X144588651Y-115190511D01*
X144586353Y-115191660D01*
X144577160Y-115191660D01*
X144613930Y-115203151D02*
X144600141Y-115203151D01*
X144607035Y-115203151D02*
X144607035Y-115179021D01*
X144604737Y-115182468D01*
X144602439Y-115184766D01*
X144600141Y-115185915D01*
X144620824Y-115179021D02*
X144634613Y-115179021D01*
X144627718Y-115203151D02*
X144627718Y-115179021D01*
X144642656Y-115203151D02*
X144642656Y-115179021D01*
X144651849Y-115179021D01*
X144654147Y-115180170D01*
X144655296Y-115181319D01*
X144656445Y-115183617D01*
X144656445Y-115187064D01*
X144655296Y-115189362D01*
X144654147Y-115190511D01*
X144651849Y-115191660D01*
X144642656Y-115191660D01*
X144679426Y-115203151D02*
X144665637Y-115203151D01*
X144672531Y-115203151D02*
X144672531Y-115179021D01*
X144670233Y-115182468D01*
X144667935Y-115184766D01*
X144665637Y-115185915D01*
X144702407Y-115203151D02*
X144688618Y-115203151D01*
X144695512Y-115203151D02*
X144695512Y-115179021D01*
X144693214Y-115182468D01*
X144690916Y-115184766D01*
X144688618Y-115185915D01*
X144726537Y-115203151D02*
X144718493Y-115191660D01*
X144712748Y-115203151D02*
X144712748Y-115179021D01*
X144721941Y-115179021D01*
X144724239Y-115180170D01*
X144725388Y-115181319D01*
X144726537Y-115183617D01*
X144726537Y-115187064D01*
X144725388Y-115189362D01*
X144724239Y-115190511D01*
X144721941Y-115191660D01*
X144712748Y-115191660D01*
D11*
X144742210Y-97877895D02*
X144914567Y-97935348D01*
X145201829Y-97935348D01*
X145316733Y-97877895D01*
X145374186Y-97820443D01*
X145431638Y-97705538D01*
X145431638Y-97590633D01*
X145374186Y-97475729D01*
X145316733Y-97418276D01*
X145201829Y-97360824D01*
X144972019Y-97303371D01*
X144857114Y-97245919D01*
X144799662Y-97188467D01*
X144742210Y-97073562D01*
X144742210Y-96958657D01*
X144799662Y-96843752D01*
X144857114Y-96786300D01*
X144972019Y-96728848D01*
X145259281Y-96728848D01*
X145431638Y-96786300D01*
X146638138Y-97820443D02*
X146580686Y-97877895D01*
X146408329Y-97935348D01*
X146293424Y-97935348D01*
X146121067Y-97877895D01*
X146006162Y-97762990D01*
X145948710Y-97648086D01*
X145891258Y-97418276D01*
X145891258Y-97245919D01*
X145948710Y-97016110D01*
X146006162Y-96901205D01*
X146121067Y-96786300D01*
X146293424Y-96728848D01*
X146408329Y-96728848D01*
X146580686Y-96786300D01*
X146638138Y-96843752D01*
X147729734Y-97935348D02*
X147155210Y-97935348D01*
X147155210Y-96728848D01*
X147844638Y-98050252D02*
X148763876Y-98050252D01*
X148993686Y-97877895D02*
X149166043Y-97935348D01*
X149453305Y-97935348D01*
X149568209Y-97877895D01*
X149625662Y-97820443D01*
X149683114Y-97705538D01*
X149683114Y-97590633D01*
X149625662Y-97475729D01*
X149568209Y-97418276D01*
X149453305Y-97360824D01*
X149223495Y-97303371D01*
X149108590Y-97245919D01*
X149051138Y-97188467D01*
X148993686Y-97073562D01*
X148993686Y-96958657D01*
X149051138Y-96843752D01*
X149108590Y-96786300D01*
X149223495Y-96728848D01*
X149510757Y-96728848D01*
X149683114Y-96786300D01*
X150717257Y-97131014D02*
X150717257Y-97935348D01*
X150429995Y-96671395D02*
X150142734Y-97533181D01*
X150889614Y-97533181D01*
X151061972Y-98050252D02*
X151981210Y-98050252D01*
X152957900Y-97820443D02*
X152900448Y-97877895D01*
X152728091Y-97935348D01*
X152613186Y-97935348D01*
X152440829Y-97877895D01*
X152325924Y-97762990D01*
X152268472Y-97648086D01*
X152211020Y-97418276D01*
X152211020Y-97245919D01*
X152268472Y-97016110D01*
X152325924Y-96901205D01*
X152440829Y-96786300D01*
X152613186Y-96728848D01*
X152728091Y-96728848D01*
X152900448Y-96786300D01*
X152957900Y-96843752D01*
X153992043Y-97131014D02*
X153992043Y-97935348D01*
X153704781Y-96671395D02*
X153417520Y-97533181D01*
X154164400Y-97533181D01*
X154336758Y-98050252D02*
X155255996Y-98050252D01*
X156232686Y-97820443D02*
X156175234Y-97877895D01*
X156002877Y-97935348D01*
X155887972Y-97935348D01*
X155715615Y-97877895D01*
X155600710Y-97762990D01*
X155543258Y-97648086D01*
X155485806Y-97418276D01*
X155485806Y-97245919D01*
X155543258Y-97016110D01*
X155600710Y-96901205D01*
X155715615Y-96786300D01*
X155887972Y-96728848D01*
X156002877Y-96728848D01*
X156175234Y-96786300D01*
X156232686Y-96843752D01*
X156692306Y-96843752D02*
X156749758Y-96786300D01*
X156864663Y-96728848D01*
X157151925Y-96728848D01*
X157266829Y-96786300D01*
X157324282Y-96843752D01*
X157381734Y-96958657D01*
X157381734Y-97073562D01*
X157324282Y-97245919D01*
X156634853Y-97935348D01*
X157381734Y-97935348D01*
D12*
X144560045Y-99099551D02*
X144560045Y-99075421D01*
X144569238Y-99075421D01*
X144571536Y-99076570D01*
X144572685Y-99077719D01*
X144573834Y-99080017D01*
X144573834Y-99083464D01*
X144572685Y-99085762D01*
X144571536Y-99086911D01*
X144569238Y-99088060D01*
X144560045Y-99088060D01*
X144580728Y-99075421D02*
X144594517Y-99075421D01*
X144587622Y-99099551D02*
X144587622Y-99075421D01*
X144616349Y-99099551D02*
X144608305Y-99088060D01*
X144602560Y-99099551D02*
X144602560Y-99075421D01*
X144611753Y-99075421D01*
X144614051Y-99076570D01*
X144615200Y-99077719D01*
X144616349Y-99080017D01*
X144616349Y-99083464D01*
X144615200Y-99085762D01*
X144614051Y-99086911D01*
X144611753Y-99088060D01*
X144602560Y-99088060D01*
X144639330Y-99099551D02*
X144625541Y-99099551D01*
X144632435Y-99099551D02*
X144632435Y-99075421D01*
X144630137Y-99078868D01*
X144627839Y-99081166D01*
X144625541Y-99082315D01*
X144646224Y-99075421D02*
X144660013Y-99075421D01*
X144653118Y-99099551D02*
X144653118Y-99075421D01*
X144668056Y-99099551D02*
X144668056Y-99075421D01*
X144677249Y-99075421D01*
X144679547Y-99076570D01*
X144680696Y-99077719D01*
X144681845Y-99080017D01*
X144681845Y-99083464D01*
X144680696Y-99085762D01*
X144679547Y-99086911D01*
X144677249Y-99088060D01*
X144668056Y-99088060D01*
X144704826Y-99099551D02*
X144691037Y-99099551D01*
X144697931Y-99099551D02*
X144697931Y-99075421D01*
X144695633Y-99078868D01*
X144693335Y-99081166D01*
X144691037Y-99082315D01*
X144727807Y-99099551D02*
X144714018Y-99099551D01*
X144720912Y-99099551D02*
X144720912Y-99075421D01*
X144718614Y-99078868D01*
X144716316Y-99081166D01*
X144714018Y-99082315D01*
X144751937Y-99099551D02*
X144743893Y-99088060D01*
X144738148Y-99099551D02*
X144738148Y-99075421D01*
X144747341Y-99075421D01*
X144749639Y-99076570D01*
X144750788Y-99077719D01*
X144751937Y-99080017D01*
X144751937Y-99083464D01*
X144750788Y-99085762D01*
X144749639Y-99086911D01*
X144747341Y-99088060D01*
X144738148Y-99088060D01*
X129057398Y-118705621D02*
X129071187Y-118705621D01*
X129064292Y-118729751D02*
X129064292Y-118705621D01*
X129079230Y-118729751D02*
X129079230Y-118705621D01*
X129088423Y-118705621D01*
X129090721Y-118706770D01*
X129091870Y-118707919D01*
X129093019Y-118710217D01*
X129093019Y-118713664D01*
X129091870Y-118715962D01*
X129090721Y-118717111D01*
X129088423Y-118718260D01*
X129079230Y-118718260D01*
X129111404Y-118717111D02*
X129114851Y-118718260D01*
X129116000Y-118719410D01*
X129117149Y-118721708D01*
X129117149Y-118725155D01*
X129116000Y-118727453D01*
X129114851Y-118728602D01*
X129112553Y-118729751D01*
X129103360Y-118729751D01*
X129103360Y-118705621D01*
X129111404Y-118705621D01*
X129113702Y-118706770D01*
X129114851Y-118707919D01*
X129116000Y-118710217D01*
X129116000Y-118712515D01*
X129114851Y-118714813D01*
X129113702Y-118715962D01*
X129111404Y-118717111D01*
X129103360Y-118717111D01*
X129126341Y-118707919D02*
X129127490Y-118706770D01*
X129129788Y-118705621D01*
X129135534Y-118705621D01*
X129137832Y-118706770D01*
X129138981Y-118707919D01*
X129140130Y-118710217D01*
X129140130Y-118712515D01*
X129138981Y-118715962D01*
X129125192Y-118729751D01*
X129140130Y-118729751D01*
X129151620Y-118728602D02*
X129151620Y-118729751D01*
X129150471Y-118732049D01*
X129149322Y-118733198D01*
X129173452Y-118705621D02*
X129161961Y-118705621D01*
X129160812Y-118717111D01*
X129161961Y-118715962D01*
X129164259Y-118714813D01*
X129170005Y-118714813D01*
X129172303Y-118715962D01*
X129173452Y-118717111D01*
X129174601Y-118719410D01*
X129174601Y-118725155D01*
X129173452Y-118727453D01*
X129172303Y-118728602D01*
X129170005Y-118729751D01*
X129164259Y-118729751D01*
X129161961Y-118728602D01*
X129160812Y-118727453D01*
X129195284Y-118713664D02*
X129195284Y-118729751D01*
X129189538Y-118704472D02*
X129183793Y-118721708D01*
X129198731Y-118721708D01*
X105053398Y-118710621D02*
X105067187Y-118710621D01*
X105060292Y-118734751D02*
X105060292Y-118710621D01*
X105075230Y-118734751D02*
X105075230Y-118710621D01*
X105084423Y-118710621D01*
X105086721Y-118711770D01*
X105087870Y-118712919D01*
X105089019Y-118715217D01*
X105089019Y-118718664D01*
X105087870Y-118720962D01*
X105086721Y-118722111D01*
X105084423Y-118723260D01*
X105075230Y-118723260D01*
X105107404Y-118722111D02*
X105110851Y-118723260D01*
X105112000Y-118724410D01*
X105113149Y-118726708D01*
X105113149Y-118730155D01*
X105112000Y-118732453D01*
X105110851Y-118733602D01*
X105108553Y-118734751D01*
X105099360Y-118734751D01*
X105099360Y-118710621D01*
X105107404Y-118710621D01*
X105109702Y-118711770D01*
X105110851Y-118712919D01*
X105112000Y-118715217D01*
X105112000Y-118717515D01*
X105110851Y-118719813D01*
X105109702Y-118720962D01*
X105107404Y-118722111D01*
X105099360Y-118722111D01*
X105122341Y-118712919D02*
X105123490Y-118711770D01*
X105125788Y-118710621D01*
X105131534Y-118710621D01*
X105133832Y-118711770D01*
X105134981Y-118712919D01*
X105136130Y-118715217D01*
X105136130Y-118717515D01*
X105134981Y-118720962D01*
X105121192Y-118734751D01*
X105136130Y-118734751D01*
X105147620Y-118733602D02*
X105147620Y-118734751D01*
X105146471Y-118737049D01*
X105145322Y-118738198D01*
X105169452Y-118710621D02*
X105157961Y-118710621D01*
X105156812Y-118722111D01*
X105157961Y-118720962D01*
X105160259Y-118719813D01*
X105166005Y-118719813D01*
X105168303Y-118720962D01*
X105169452Y-118722111D01*
X105170601Y-118724410D01*
X105170601Y-118730155D01*
X105169452Y-118732453D01*
X105168303Y-118733602D01*
X105166005Y-118734751D01*
X105160259Y-118734751D01*
X105157961Y-118733602D01*
X105156812Y-118732453D01*
X105191284Y-118718664D02*
X105191284Y-118734751D01*
X105185538Y-118709472D02*
X105179793Y-118726708D01*
X105194731Y-118726708D01*
X128926398Y-94661621D02*
X128940187Y-94661621D01*
X128933292Y-94685751D02*
X128933292Y-94661621D01*
X128948230Y-94685751D02*
X128948230Y-94661621D01*
X128957423Y-94661621D01*
X128959721Y-94662770D01*
X128960870Y-94663919D01*
X128962019Y-94666217D01*
X128962019Y-94669664D01*
X128960870Y-94671962D01*
X128959721Y-94673111D01*
X128957423Y-94674260D01*
X128948230Y-94674260D01*
X128980404Y-94673111D02*
X128983851Y-94674260D01*
X128985000Y-94675410D01*
X128986149Y-94677708D01*
X128986149Y-94681155D01*
X128985000Y-94683453D01*
X128983851Y-94684602D01*
X128981553Y-94685751D01*
X128972360Y-94685751D01*
X128972360Y-94661621D01*
X128980404Y-94661621D01*
X128982702Y-94662770D01*
X128983851Y-94663919D01*
X128985000Y-94666217D01*
X128985000Y-94668515D01*
X128983851Y-94670813D01*
X128982702Y-94671962D01*
X128980404Y-94673111D01*
X128972360Y-94673111D01*
X128995341Y-94663919D02*
X128996490Y-94662770D01*
X128998788Y-94661621D01*
X129004534Y-94661621D01*
X129006832Y-94662770D01*
X129007981Y-94663919D01*
X129009130Y-94666217D01*
X129009130Y-94668515D01*
X129007981Y-94671962D01*
X128994192Y-94685751D01*
X129009130Y-94685751D01*
X129020620Y-94684602D02*
X129020620Y-94685751D01*
X129019471Y-94688049D01*
X129018322Y-94689198D01*
X129042452Y-94661621D02*
X129030961Y-94661621D01*
X129029812Y-94673111D01*
X129030961Y-94671962D01*
X129033259Y-94670813D01*
X129039005Y-94670813D01*
X129041303Y-94671962D01*
X129042452Y-94673111D01*
X129043601Y-94675410D01*
X129043601Y-94681155D01*
X129042452Y-94683453D01*
X129041303Y-94684602D01*
X129039005Y-94685751D01*
X129033259Y-94685751D01*
X129030961Y-94684602D01*
X129029812Y-94683453D01*
X129064284Y-94669664D02*
X129064284Y-94685751D01*
X129058538Y-94660472D02*
X129052793Y-94677708D01*
X129067731Y-94677708D01*
X104991398Y-94781621D02*
X105005187Y-94781621D01*
X104998292Y-94805751D02*
X104998292Y-94781621D01*
X105013230Y-94805751D02*
X105013230Y-94781621D01*
X105022423Y-94781621D01*
X105024721Y-94782770D01*
X105025870Y-94783919D01*
X105027019Y-94786217D01*
X105027019Y-94789664D01*
X105025870Y-94791962D01*
X105024721Y-94793111D01*
X105022423Y-94794260D01*
X105013230Y-94794260D01*
X105045404Y-94793111D02*
X105048851Y-94794260D01*
X105050000Y-94795410D01*
X105051149Y-94797708D01*
X105051149Y-94801155D01*
X105050000Y-94803453D01*
X105048851Y-94804602D01*
X105046553Y-94805751D01*
X105037360Y-94805751D01*
X105037360Y-94781621D01*
X105045404Y-94781621D01*
X105047702Y-94782770D01*
X105048851Y-94783919D01*
X105050000Y-94786217D01*
X105050000Y-94788515D01*
X105048851Y-94790813D01*
X105047702Y-94791962D01*
X105045404Y-94793111D01*
X105037360Y-94793111D01*
X105060341Y-94783919D02*
X105061490Y-94782770D01*
X105063788Y-94781621D01*
X105069534Y-94781621D01*
X105071832Y-94782770D01*
X105072981Y-94783919D01*
X105074130Y-94786217D01*
X105074130Y-94788515D01*
X105072981Y-94791962D01*
X105059192Y-94805751D01*
X105074130Y-94805751D01*
X105085620Y-94804602D02*
X105085620Y-94805751D01*
X105084471Y-94808049D01*
X105083322Y-94809198D01*
X105107452Y-94781621D02*
X105095961Y-94781621D01*
X105094812Y-94793111D01*
X105095961Y-94791962D01*
X105098259Y-94790813D01*
X105104005Y-94790813D01*
X105106303Y-94791962D01*
X105107452Y-94793111D01*
X105108601Y-94795410D01*
X105108601Y-94801155D01*
X105107452Y-94803453D01*
X105106303Y-94804602D01*
X105104005Y-94805751D01*
X105098259Y-94805751D01*
X105095961Y-94804602D01*
X105094812Y-94803453D01*
X105129284Y-94789664D02*
X105129284Y-94805751D01*
X105123538Y-94780472D02*
X105117793Y-94797708D01*
X105132731Y-94797708D01*
X125038398Y-114783621D02*
X125052187Y-114783621D01*
X125045292Y-114807751D02*
X125045292Y-114783621D01*
X125060230Y-114807751D02*
X125060230Y-114783621D01*
X125069423Y-114783621D01*
X125071721Y-114784770D01*
X125072870Y-114785919D01*
X125074019Y-114788217D01*
X125074019Y-114791664D01*
X125072870Y-114793962D01*
X125071721Y-114795111D01*
X125069423Y-114796260D01*
X125060230Y-114796260D01*
X125092404Y-114795111D02*
X125095851Y-114796260D01*
X125097000Y-114797410D01*
X125098149Y-114799708D01*
X125098149Y-114803155D01*
X125097000Y-114805453D01*
X125095851Y-114806602D01*
X125093553Y-114807751D01*
X125084360Y-114807751D01*
X125084360Y-114783621D01*
X125092404Y-114783621D01*
X125094702Y-114784770D01*
X125095851Y-114785919D01*
X125097000Y-114788217D01*
X125097000Y-114790515D01*
X125095851Y-114792813D01*
X125094702Y-114793962D01*
X125092404Y-114795111D01*
X125084360Y-114795111D01*
X125107341Y-114785919D02*
X125108490Y-114784770D01*
X125110788Y-114783621D01*
X125116534Y-114783621D01*
X125118832Y-114784770D01*
X125119981Y-114785919D01*
X125121130Y-114788217D01*
X125121130Y-114790515D01*
X125119981Y-114793962D01*
X125106192Y-114807751D01*
X125121130Y-114807751D01*
X125132620Y-114806602D02*
X125132620Y-114807751D01*
X125131471Y-114810049D01*
X125130322Y-114811198D01*
X125154452Y-114783621D02*
X125142961Y-114783621D01*
X125141812Y-114795111D01*
X125142961Y-114793962D01*
X125145259Y-114792813D01*
X125151005Y-114792813D01*
X125153303Y-114793962D01*
X125154452Y-114795111D01*
X125155601Y-114797410D01*
X125155601Y-114803155D01*
X125154452Y-114805453D01*
X125153303Y-114806602D01*
X125151005Y-114807751D01*
X125145259Y-114807751D01*
X125142961Y-114806602D01*
X125141812Y-114805453D01*
X125176284Y-114791664D02*
X125176284Y-114807751D01*
X125170538Y-114782472D02*
X125164793Y-114799708D01*
X125179731Y-114799708D01*
X109130398Y-114771621D02*
X109144187Y-114771621D01*
X109137292Y-114795751D02*
X109137292Y-114771621D01*
X109152230Y-114795751D02*
X109152230Y-114771621D01*
X109161423Y-114771621D01*
X109163721Y-114772770D01*
X109164870Y-114773919D01*
X109166019Y-114776217D01*
X109166019Y-114779664D01*
X109164870Y-114781962D01*
X109163721Y-114783111D01*
X109161423Y-114784260D01*
X109152230Y-114784260D01*
X109184404Y-114783111D02*
X109187851Y-114784260D01*
X109189000Y-114785410D01*
X109190149Y-114787708D01*
X109190149Y-114791155D01*
X109189000Y-114793453D01*
X109187851Y-114794602D01*
X109185553Y-114795751D01*
X109176360Y-114795751D01*
X109176360Y-114771621D01*
X109184404Y-114771621D01*
X109186702Y-114772770D01*
X109187851Y-114773919D01*
X109189000Y-114776217D01*
X109189000Y-114778515D01*
X109187851Y-114780813D01*
X109186702Y-114781962D01*
X109184404Y-114783111D01*
X109176360Y-114783111D01*
X109199341Y-114773919D02*
X109200490Y-114772770D01*
X109202788Y-114771621D01*
X109208534Y-114771621D01*
X109210832Y-114772770D01*
X109211981Y-114773919D01*
X109213130Y-114776217D01*
X109213130Y-114778515D01*
X109211981Y-114781962D01*
X109198192Y-114795751D01*
X109213130Y-114795751D01*
X109224620Y-114794602D02*
X109224620Y-114795751D01*
X109223471Y-114798049D01*
X109222322Y-114799198D01*
X109246452Y-114771621D02*
X109234961Y-114771621D01*
X109233812Y-114783111D01*
X109234961Y-114781962D01*
X109237259Y-114780813D01*
X109243005Y-114780813D01*
X109245303Y-114781962D01*
X109246452Y-114783111D01*
X109247601Y-114785410D01*
X109247601Y-114791155D01*
X109246452Y-114793453D01*
X109245303Y-114794602D01*
X109243005Y-114795751D01*
X109237259Y-114795751D01*
X109234961Y-114794602D01*
X109233812Y-114793453D01*
X109268284Y-114779664D02*
X109268284Y-114795751D01*
X109262538Y-114770472D02*
X109256793Y-114787708D01*
X109271731Y-114787708D01*
X125126398Y-98789621D02*
X125140187Y-98789621D01*
X125133292Y-98813751D02*
X125133292Y-98789621D01*
X125148230Y-98813751D02*
X125148230Y-98789621D01*
X125157423Y-98789621D01*
X125159721Y-98790770D01*
X125160870Y-98791919D01*
X125162019Y-98794217D01*
X125162019Y-98797664D01*
X125160870Y-98799962D01*
X125159721Y-98801111D01*
X125157423Y-98802260D01*
X125148230Y-98802260D01*
X125180404Y-98801111D02*
X125183851Y-98802260D01*
X125185000Y-98803410D01*
X125186149Y-98805708D01*
X125186149Y-98809155D01*
X125185000Y-98811453D01*
X125183851Y-98812602D01*
X125181553Y-98813751D01*
X125172360Y-98813751D01*
X125172360Y-98789621D01*
X125180404Y-98789621D01*
X125182702Y-98790770D01*
X125183851Y-98791919D01*
X125185000Y-98794217D01*
X125185000Y-98796515D01*
X125183851Y-98798813D01*
X125182702Y-98799962D01*
X125180404Y-98801111D01*
X125172360Y-98801111D01*
X125195341Y-98791919D02*
X125196490Y-98790770D01*
X125198788Y-98789621D01*
X125204534Y-98789621D01*
X125206832Y-98790770D01*
X125207981Y-98791919D01*
X125209130Y-98794217D01*
X125209130Y-98796515D01*
X125207981Y-98799962D01*
X125194192Y-98813751D01*
X125209130Y-98813751D01*
X125220620Y-98812602D02*
X125220620Y-98813751D01*
X125219471Y-98816049D01*
X125218322Y-98817198D01*
X125242452Y-98789621D02*
X125230961Y-98789621D01*
X125229812Y-98801111D01*
X125230961Y-98799962D01*
X125233259Y-98798813D01*
X125239005Y-98798813D01*
X125241303Y-98799962D01*
X125242452Y-98801111D01*
X125243601Y-98803410D01*
X125243601Y-98809155D01*
X125242452Y-98811453D01*
X125241303Y-98812602D01*
X125239005Y-98813751D01*
X125233259Y-98813751D01*
X125230961Y-98812602D01*
X125229812Y-98811453D01*
X125264284Y-98797664D02*
X125264284Y-98813751D01*
X125258538Y-98788472D02*
X125252793Y-98805708D01*
X125267731Y-98805708D01*
X108995398Y-98791621D02*
X109009187Y-98791621D01*
X109002292Y-98815751D02*
X109002292Y-98791621D01*
X109017230Y-98815751D02*
X109017230Y-98791621D01*
X109026423Y-98791621D01*
X109028721Y-98792770D01*
X109029870Y-98793919D01*
X109031019Y-98796217D01*
X109031019Y-98799664D01*
X109029870Y-98801962D01*
X109028721Y-98803111D01*
X109026423Y-98804260D01*
X109017230Y-98804260D01*
X109049404Y-98803111D02*
X109052851Y-98804260D01*
X109054000Y-98805410D01*
X109055149Y-98807708D01*
X109055149Y-98811155D01*
X109054000Y-98813453D01*
X109052851Y-98814602D01*
X109050553Y-98815751D01*
X109041360Y-98815751D01*
X109041360Y-98791621D01*
X109049404Y-98791621D01*
X109051702Y-98792770D01*
X109052851Y-98793919D01*
X109054000Y-98796217D01*
X109054000Y-98798515D01*
X109052851Y-98800813D01*
X109051702Y-98801962D01*
X109049404Y-98803111D01*
X109041360Y-98803111D01*
X109064341Y-98793919D02*
X109065490Y-98792770D01*
X109067788Y-98791621D01*
X109073534Y-98791621D01*
X109075832Y-98792770D01*
X109076981Y-98793919D01*
X109078130Y-98796217D01*
X109078130Y-98798515D01*
X109076981Y-98801962D01*
X109063192Y-98815751D01*
X109078130Y-98815751D01*
X109089620Y-98814602D02*
X109089620Y-98815751D01*
X109088471Y-98818049D01*
X109087322Y-98819198D01*
X109111452Y-98791621D02*
X109099961Y-98791621D01*
X109098812Y-98803111D01*
X109099961Y-98801962D01*
X109102259Y-98800813D01*
X109108005Y-98800813D01*
X109110303Y-98801962D01*
X109111452Y-98803111D01*
X109112601Y-98805410D01*
X109112601Y-98811155D01*
X109111452Y-98813453D01*
X109110303Y-98814602D01*
X109108005Y-98815751D01*
X109102259Y-98815751D01*
X109099961Y-98814602D01*
X109098812Y-98813453D01*
X109133284Y-98799664D02*
X109133284Y-98815751D01*
X109127538Y-98790472D02*
X109121793Y-98807708D01*
X109136731Y-98807708D01*
X137059398Y-126798621D02*
X137073187Y-126798621D01*
X137066292Y-126822751D02*
X137066292Y-126798621D01*
X137081230Y-126822751D02*
X137081230Y-126798621D01*
X137090423Y-126798621D01*
X137092721Y-126799770D01*
X137093870Y-126800919D01*
X137095019Y-126803217D01*
X137095019Y-126806664D01*
X137093870Y-126808962D01*
X137092721Y-126810111D01*
X137090423Y-126811260D01*
X137081230Y-126811260D01*
X137113404Y-126810111D02*
X137116851Y-126811260D01*
X137118000Y-126812410D01*
X137119149Y-126814708D01*
X137119149Y-126818155D01*
X137118000Y-126820453D01*
X137116851Y-126821602D01*
X137114553Y-126822751D01*
X137105360Y-126822751D01*
X137105360Y-126798621D01*
X137113404Y-126798621D01*
X137115702Y-126799770D01*
X137116851Y-126800919D01*
X137118000Y-126803217D01*
X137118000Y-126805515D01*
X137116851Y-126807813D01*
X137115702Y-126808962D01*
X137113404Y-126810111D01*
X137105360Y-126810111D01*
X137128341Y-126800919D02*
X137129490Y-126799770D01*
X137131788Y-126798621D01*
X137137534Y-126798621D01*
X137139832Y-126799770D01*
X137140981Y-126800919D01*
X137142130Y-126803217D01*
X137142130Y-126805515D01*
X137140981Y-126808962D01*
X137127192Y-126822751D01*
X137142130Y-126822751D01*
X137153620Y-126821602D02*
X137153620Y-126822751D01*
X137152471Y-126825049D01*
X137151322Y-126826198D01*
X137175452Y-126798621D02*
X137163961Y-126798621D01*
X137162812Y-126810111D01*
X137163961Y-126808962D01*
X137166259Y-126807813D01*
X137172005Y-126807813D01*
X137174303Y-126808962D01*
X137175452Y-126810111D01*
X137176601Y-126812410D01*
X137176601Y-126818155D01*
X137175452Y-126820453D01*
X137174303Y-126821602D01*
X137172005Y-126822751D01*
X137166259Y-126822751D01*
X137163961Y-126821602D01*
X137162812Y-126820453D01*
X137197284Y-126806664D02*
X137197284Y-126822751D01*
X137191538Y-126797472D02*
X137185793Y-126814708D01*
X137200731Y-126814708D01*
X96998398Y-126697621D02*
X97012187Y-126697621D01*
X97005292Y-126721751D02*
X97005292Y-126697621D01*
X97020230Y-126721751D02*
X97020230Y-126697621D01*
X97029423Y-126697621D01*
X97031721Y-126698770D01*
X97032870Y-126699919D01*
X97034019Y-126702217D01*
X97034019Y-126705664D01*
X97032870Y-126707962D01*
X97031721Y-126709111D01*
X97029423Y-126710260D01*
X97020230Y-126710260D01*
X97052404Y-126709111D02*
X97055851Y-126710260D01*
X97057000Y-126711410D01*
X97058149Y-126713708D01*
X97058149Y-126717155D01*
X97057000Y-126719453D01*
X97055851Y-126720602D01*
X97053553Y-126721751D01*
X97044360Y-126721751D01*
X97044360Y-126697621D01*
X97052404Y-126697621D01*
X97054702Y-126698770D01*
X97055851Y-126699919D01*
X97057000Y-126702217D01*
X97057000Y-126704515D01*
X97055851Y-126706813D01*
X97054702Y-126707962D01*
X97052404Y-126709111D01*
X97044360Y-126709111D01*
X97067341Y-126699919D02*
X97068490Y-126698770D01*
X97070788Y-126697621D01*
X97076534Y-126697621D01*
X97078832Y-126698770D01*
X97079981Y-126699919D01*
X97081130Y-126702217D01*
X97081130Y-126704515D01*
X97079981Y-126707962D01*
X97066192Y-126721751D01*
X97081130Y-126721751D01*
X97092620Y-126720602D02*
X97092620Y-126721751D01*
X97091471Y-126724049D01*
X97090322Y-126725198D01*
X97114452Y-126697621D02*
X97102961Y-126697621D01*
X97101812Y-126709111D01*
X97102961Y-126707962D01*
X97105259Y-126706813D01*
X97111005Y-126706813D01*
X97113303Y-126707962D01*
X97114452Y-126709111D01*
X97115601Y-126711410D01*
X97115601Y-126717155D01*
X97114452Y-126719453D01*
X97113303Y-126720602D01*
X97111005Y-126721751D01*
X97105259Y-126721751D01*
X97102961Y-126720602D01*
X97101812Y-126719453D01*
X97136284Y-126705664D02*
X97136284Y-126721751D01*
X97130538Y-126696472D02*
X97124793Y-126713708D01*
X97139731Y-126713708D01*
X136990398Y-86698621D02*
X137004187Y-86698621D01*
X136997292Y-86722751D02*
X136997292Y-86698621D01*
X137012230Y-86722751D02*
X137012230Y-86698621D01*
X137021423Y-86698621D01*
X137023721Y-86699770D01*
X137024870Y-86700919D01*
X137026019Y-86703217D01*
X137026019Y-86706664D01*
X137024870Y-86708962D01*
X137023721Y-86710111D01*
X137021423Y-86711260D01*
X137012230Y-86711260D01*
X137044404Y-86710111D02*
X137047851Y-86711260D01*
X137049000Y-86712410D01*
X137050149Y-86714708D01*
X137050149Y-86718155D01*
X137049000Y-86720453D01*
X137047851Y-86721602D01*
X137045553Y-86722751D01*
X137036360Y-86722751D01*
X137036360Y-86698621D01*
X137044404Y-86698621D01*
X137046702Y-86699770D01*
X137047851Y-86700919D01*
X137049000Y-86703217D01*
X137049000Y-86705515D01*
X137047851Y-86707813D01*
X137046702Y-86708962D01*
X137044404Y-86710111D01*
X137036360Y-86710111D01*
X137059341Y-86700919D02*
X137060490Y-86699770D01*
X137062788Y-86698621D01*
X137068534Y-86698621D01*
X137070832Y-86699770D01*
X137071981Y-86700919D01*
X137073130Y-86703217D01*
X137073130Y-86705515D01*
X137071981Y-86708962D01*
X137058192Y-86722751D01*
X137073130Y-86722751D01*
X137084620Y-86721602D02*
X137084620Y-86722751D01*
X137083471Y-86725049D01*
X137082322Y-86726198D01*
X137106452Y-86698621D02*
X137094961Y-86698621D01*
X137093812Y-86710111D01*
X137094961Y-86708962D01*
X137097259Y-86707813D01*
X137103005Y-86707813D01*
X137105303Y-86708962D01*
X137106452Y-86710111D01*
X137107601Y-86712410D01*
X137107601Y-86718155D01*
X137106452Y-86720453D01*
X137105303Y-86721602D01*
X137103005Y-86722751D01*
X137097259Y-86722751D01*
X137094961Y-86721602D01*
X137093812Y-86720453D01*
X137128284Y-86706664D02*
X137128284Y-86722751D01*
X137122538Y-86697472D02*
X137116793Y-86714708D01*
X137131731Y-86714708D01*
X97095398Y-86730621D02*
X97109187Y-86730621D01*
X97102292Y-86754751D02*
X97102292Y-86730621D01*
X97117230Y-86754751D02*
X97117230Y-86730621D01*
X97126423Y-86730621D01*
X97128721Y-86731770D01*
X97129870Y-86732919D01*
X97131019Y-86735217D01*
X97131019Y-86738664D01*
X97129870Y-86740962D01*
X97128721Y-86742111D01*
X97126423Y-86743260D01*
X97117230Y-86743260D01*
X97149404Y-86742111D02*
X97152851Y-86743260D01*
X97154000Y-86744410D01*
X97155149Y-86746708D01*
X97155149Y-86750155D01*
X97154000Y-86752453D01*
X97152851Y-86753602D01*
X97150553Y-86754751D01*
X97141360Y-86754751D01*
X97141360Y-86730621D01*
X97149404Y-86730621D01*
X97151702Y-86731770D01*
X97152851Y-86732919D01*
X97154000Y-86735217D01*
X97154000Y-86737515D01*
X97152851Y-86739813D01*
X97151702Y-86740962D01*
X97149404Y-86742111D01*
X97141360Y-86742111D01*
X97164341Y-86732919D02*
X97165490Y-86731770D01*
X97167788Y-86730621D01*
X97173534Y-86730621D01*
X97175832Y-86731770D01*
X97176981Y-86732919D01*
X97178130Y-86735217D01*
X97178130Y-86737515D01*
X97176981Y-86740962D01*
X97163192Y-86754751D01*
X97178130Y-86754751D01*
X97189620Y-86753602D02*
X97189620Y-86754751D01*
X97188471Y-86757049D01*
X97187322Y-86758198D01*
X97211452Y-86730621D02*
X97199961Y-86730621D01*
X97198812Y-86742111D01*
X97199961Y-86740962D01*
X97202259Y-86739813D01*
X97208005Y-86739813D01*
X97210303Y-86740962D01*
X97211452Y-86742111D01*
X97212601Y-86744410D01*
X97212601Y-86750155D01*
X97211452Y-86752453D01*
X97210303Y-86753602D01*
X97208005Y-86754751D01*
X97202259Y-86754751D01*
X97199961Y-86753602D01*
X97198812Y-86752453D01*
X97233284Y-86738664D02*
X97233284Y-86754751D01*
X97227538Y-86729472D02*
X97221793Y-86746708D01*
X97236731Y-86746708D01*
D11*
X143735490Y-129003843D02*
X143678038Y-129061295D01*
X143505681Y-129118748D01*
X143390776Y-129118748D01*
X143218419Y-129061295D01*
X143103514Y-128946390D01*
X143046062Y-128831486D01*
X142988610Y-128601676D01*
X142988610Y-128429319D01*
X143046062Y-128199510D01*
X143103514Y-128084605D01*
X143218419Y-127969700D01*
X143390776Y-127912248D01*
X143505681Y-127912248D01*
X143678038Y-127969700D01*
X143735490Y-128027152D01*
X144195110Y-128774033D02*
X144769633Y-128774033D01*
X144080205Y-129118748D02*
X144482371Y-127912248D01*
X144884538Y-129118748D01*
X145286705Y-129118748D02*
X145286705Y-127912248D01*
X145976133Y-129118748D01*
X145976133Y-127912248D01*
X147125181Y-129118748D02*
X146550657Y-129118748D01*
X146550657Y-127912248D01*
X147240085Y-129233652D02*
X148159323Y-129233652D01*
X149136013Y-129003843D02*
X149078561Y-129061295D01*
X148906204Y-129118748D01*
X148791299Y-129118748D01*
X148618942Y-129061295D01*
X148504037Y-128946390D01*
X148446585Y-128831486D01*
X148389133Y-128601676D01*
X148389133Y-128429319D01*
X148446585Y-128199510D01*
X148504037Y-128084605D01*
X148618942Y-127969700D01*
X148791299Y-127912248D01*
X148906204Y-127912248D01*
X149078561Y-127969700D01*
X149136013Y-128027152D01*
X149538180Y-127912248D02*
X150285061Y-127912248D01*
X149882894Y-128371867D01*
X150055252Y-128371867D01*
X150170156Y-128429319D01*
X150227609Y-128486771D01*
X150285061Y-128601676D01*
X150285061Y-128888938D01*
X150227609Y-129003843D01*
X150170156Y-129061295D01*
X150055252Y-129118748D01*
X149710537Y-129118748D01*
X149595633Y-129061295D01*
X149538180Y-129003843D01*
D12*
X142806445Y-130282951D02*
X142806445Y-130258821D01*
X142815638Y-130258821D01*
X142817936Y-130259970D01*
X142819085Y-130261119D01*
X142820234Y-130263417D01*
X142820234Y-130266864D01*
X142819085Y-130269162D01*
X142817936Y-130270311D01*
X142815638Y-130271460D01*
X142806445Y-130271460D01*
X142827128Y-130258821D02*
X142840917Y-130258821D01*
X142834022Y-130282951D02*
X142834022Y-130258821D01*
X142862749Y-130282951D02*
X142854705Y-130271460D01*
X142848960Y-130282951D02*
X142848960Y-130258821D01*
X142858153Y-130258821D01*
X142860451Y-130259970D01*
X142861600Y-130261119D01*
X142862749Y-130263417D01*
X142862749Y-130266864D01*
X142861600Y-130269162D01*
X142860451Y-130270311D01*
X142858153Y-130271460D01*
X142848960Y-130271460D01*
X142885730Y-130282951D02*
X142871941Y-130282951D01*
X142878835Y-130282951D02*
X142878835Y-130258821D01*
X142876537Y-130262268D01*
X142874239Y-130264566D01*
X142871941Y-130265715D01*
X142892624Y-130258821D02*
X142906413Y-130258821D01*
X142899518Y-130282951D02*
X142899518Y-130258821D01*
X142914456Y-130282951D02*
X142914456Y-130258821D01*
X142923649Y-130258821D01*
X142925947Y-130259970D01*
X142927096Y-130261119D01*
X142928245Y-130263417D01*
X142928245Y-130266864D01*
X142927096Y-130269162D01*
X142925947Y-130270311D01*
X142923649Y-130271460D01*
X142914456Y-130271460D01*
X142951226Y-130282951D02*
X142937437Y-130282951D01*
X142944331Y-130282951D02*
X142944331Y-130258821D01*
X142942033Y-130262268D01*
X142939735Y-130264566D01*
X142937437Y-130265715D01*
X142974207Y-130282951D02*
X142960418Y-130282951D01*
X142967312Y-130282951D02*
X142967312Y-130258821D01*
X142965014Y-130262268D01*
X142962716Y-130264566D01*
X142960418Y-130265715D01*
X142998337Y-130282951D02*
X142990293Y-130271460D01*
X142984548Y-130282951D02*
X142984548Y-130258821D01*
X142993741Y-130258821D01*
X142996039Y-130259970D01*
X142997188Y-130261119D01*
X142998337Y-130263417D01*
X142998337Y-130266864D01*
X142997188Y-130269162D01*
X142996039Y-130270311D01*
X142993741Y-130271460D01*
X142984548Y-130271460D01*
X133020398Y-122778621D02*
X133034187Y-122778621D01*
X133027292Y-122802751D02*
X133027292Y-122778621D01*
X133042230Y-122802751D02*
X133042230Y-122778621D01*
X133051423Y-122778621D01*
X133053721Y-122779770D01*
X133054870Y-122780919D01*
X133056019Y-122783217D01*
X133056019Y-122786664D01*
X133054870Y-122788962D01*
X133053721Y-122790111D01*
X133051423Y-122791260D01*
X133042230Y-122791260D01*
X133074404Y-122790111D02*
X133077851Y-122791260D01*
X133079000Y-122792410D01*
X133080149Y-122794708D01*
X133080149Y-122798155D01*
X133079000Y-122800453D01*
X133077851Y-122801602D01*
X133075553Y-122802751D01*
X133066360Y-122802751D01*
X133066360Y-122778621D01*
X133074404Y-122778621D01*
X133076702Y-122779770D01*
X133077851Y-122780919D01*
X133079000Y-122783217D01*
X133079000Y-122785515D01*
X133077851Y-122787813D01*
X133076702Y-122788962D01*
X133074404Y-122790111D01*
X133066360Y-122790111D01*
X133089341Y-122780919D02*
X133090490Y-122779770D01*
X133092788Y-122778621D01*
X133098534Y-122778621D01*
X133100832Y-122779770D01*
X133101981Y-122780919D01*
X133103130Y-122783217D01*
X133103130Y-122785515D01*
X133101981Y-122788962D01*
X133088192Y-122802751D01*
X133103130Y-122802751D01*
X133114620Y-122801602D02*
X133114620Y-122802751D01*
X133113471Y-122805049D01*
X133112322Y-122806198D01*
X133136452Y-122778621D02*
X133124961Y-122778621D01*
X133123812Y-122790111D01*
X133124961Y-122788962D01*
X133127259Y-122787813D01*
X133133005Y-122787813D01*
X133135303Y-122788962D01*
X133136452Y-122790111D01*
X133137601Y-122792410D01*
X133137601Y-122798155D01*
X133136452Y-122800453D01*
X133135303Y-122801602D01*
X133133005Y-122802751D01*
X133127259Y-122802751D01*
X133124961Y-122801602D01*
X133123812Y-122800453D01*
X133158284Y-122786664D02*
X133158284Y-122802751D01*
X133152538Y-122777472D02*
X133146793Y-122794708D01*
X133161731Y-122794708D01*
X101132398Y-122779621D02*
X101146187Y-122779621D01*
X101139292Y-122803751D02*
X101139292Y-122779621D01*
X101154230Y-122803751D02*
X101154230Y-122779621D01*
X101163423Y-122779621D01*
X101165721Y-122780770D01*
X101166870Y-122781919D01*
X101168019Y-122784217D01*
X101168019Y-122787664D01*
X101166870Y-122789962D01*
X101165721Y-122791111D01*
X101163423Y-122792260D01*
X101154230Y-122792260D01*
X101186404Y-122791111D02*
X101189851Y-122792260D01*
X101191000Y-122793410D01*
X101192149Y-122795708D01*
X101192149Y-122799155D01*
X101191000Y-122801453D01*
X101189851Y-122802602D01*
X101187553Y-122803751D01*
X101178360Y-122803751D01*
X101178360Y-122779621D01*
X101186404Y-122779621D01*
X101188702Y-122780770D01*
X101189851Y-122781919D01*
X101191000Y-122784217D01*
X101191000Y-122786515D01*
X101189851Y-122788813D01*
X101188702Y-122789962D01*
X101186404Y-122791111D01*
X101178360Y-122791111D01*
X101201341Y-122781919D02*
X101202490Y-122780770D01*
X101204788Y-122779621D01*
X101210534Y-122779621D01*
X101212832Y-122780770D01*
X101213981Y-122781919D01*
X101215130Y-122784217D01*
X101215130Y-122786515D01*
X101213981Y-122789962D01*
X101200192Y-122803751D01*
X101215130Y-122803751D01*
X101226620Y-122802602D02*
X101226620Y-122803751D01*
X101225471Y-122806049D01*
X101224322Y-122807198D01*
X101248452Y-122779621D02*
X101236961Y-122779621D01*
X101235812Y-122791111D01*
X101236961Y-122789962D01*
X101239259Y-122788813D01*
X101245005Y-122788813D01*
X101247303Y-122789962D01*
X101248452Y-122791111D01*
X101249601Y-122793410D01*
X101249601Y-122799155D01*
X101248452Y-122801453D01*
X101247303Y-122802602D01*
X101245005Y-122803751D01*
X101239259Y-122803751D01*
X101236961Y-122802602D01*
X101235812Y-122801453D01*
X101270284Y-122787664D02*
X101270284Y-122803751D01*
X101264538Y-122778472D02*
X101258793Y-122795708D01*
X101273731Y-122795708D01*
X133071398Y-90796621D02*
X133085187Y-90796621D01*
X133078292Y-90820751D02*
X133078292Y-90796621D01*
X133093230Y-90820751D02*
X133093230Y-90796621D01*
X133102423Y-90796621D01*
X133104721Y-90797770D01*
X133105870Y-90798919D01*
X133107019Y-90801217D01*
X133107019Y-90804664D01*
X133105870Y-90806962D01*
X133104721Y-90808111D01*
X133102423Y-90809260D01*
X133093230Y-90809260D01*
X133125404Y-90808111D02*
X133128851Y-90809260D01*
X133130000Y-90810410D01*
X133131149Y-90812708D01*
X133131149Y-90816155D01*
X133130000Y-90818453D01*
X133128851Y-90819602D01*
X133126553Y-90820751D01*
X133117360Y-90820751D01*
X133117360Y-90796621D01*
X133125404Y-90796621D01*
X133127702Y-90797770D01*
X133128851Y-90798919D01*
X133130000Y-90801217D01*
X133130000Y-90803515D01*
X133128851Y-90805813D01*
X133127702Y-90806962D01*
X133125404Y-90808111D01*
X133117360Y-90808111D01*
X133140341Y-90798919D02*
X133141490Y-90797770D01*
X133143788Y-90796621D01*
X133149534Y-90796621D01*
X133151832Y-90797770D01*
X133152981Y-90798919D01*
X133154130Y-90801217D01*
X133154130Y-90803515D01*
X133152981Y-90806962D01*
X133139192Y-90820751D01*
X133154130Y-90820751D01*
X133165620Y-90819602D02*
X133165620Y-90820751D01*
X133164471Y-90823049D01*
X133163322Y-90824198D01*
X133187452Y-90796621D02*
X133175961Y-90796621D01*
X133174812Y-90808111D01*
X133175961Y-90806962D01*
X133178259Y-90805813D01*
X133184005Y-90805813D01*
X133186303Y-90806962D01*
X133187452Y-90808111D01*
X133188601Y-90810410D01*
X133188601Y-90816155D01*
X133187452Y-90818453D01*
X133186303Y-90819602D01*
X133184005Y-90820751D01*
X133178259Y-90820751D01*
X133175961Y-90819602D01*
X133174812Y-90818453D01*
X133209284Y-90804664D02*
X133209284Y-90820751D01*
X133203538Y-90795472D02*
X133197793Y-90812708D01*
X133212731Y-90812708D01*
X101004398Y-90771621D02*
X101018187Y-90771621D01*
X101011292Y-90795751D02*
X101011292Y-90771621D01*
X101026230Y-90795751D02*
X101026230Y-90771621D01*
X101035423Y-90771621D01*
X101037721Y-90772770D01*
X101038870Y-90773919D01*
X101040019Y-90776217D01*
X101040019Y-90779664D01*
X101038870Y-90781962D01*
X101037721Y-90783111D01*
X101035423Y-90784260D01*
X101026230Y-90784260D01*
X101058404Y-90783111D02*
X101061851Y-90784260D01*
X101063000Y-90785410D01*
X101064149Y-90787708D01*
X101064149Y-90791155D01*
X101063000Y-90793453D01*
X101061851Y-90794602D01*
X101059553Y-90795751D01*
X101050360Y-90795751D01*
X101050360Y-90771621D01*
X101058404Y-90771621D01*
X101060702Y-90772770D01*
X101061851Y-90773919D01*
X101063000Y-90776217D01*
X101063000Y-90778515D01*
X101061851Y-90780813D01*
X101060702Y-90781962D01*
X101058404Y-90783111D01*
X101050360Y-90783111D01*
X101073341Y-90773919D02*
X101074490Y-90772770D01*
X101076788Y-90771621D01*
X101082534Y-90771621D01*
X101084832Y-90772770D01*
X101085981Y-90773919D01*
X101087130Y-90776217D01*
X101087130Y-90778515D01*
X101085981Y-90781962D01*
X101072192Y-90795751D01*
X101087130Y-90795751D01*
X101098620Y-90794602D02*
X101098620Y-90795751D01*
X101097471Y-90798049D01*
X101096322Y-90799198D01*
X101120452Y-90771621D02*
X101108961Y-90771621D01*
X101107812Y-90783111D01*
X101108961Y-90781962D01*
X101111259Y-90780813D01*
X101117005Y-90780813D01*
X101119303Y-90781962D01*
X101120452Y-90783111D01*
X101121601Y-90785410D01*
X101121601Y-90791155D01*
X101120452Y-90793453D01*
X101119303Y-90794602D01*
X101117005Y-90795751D01*
X101111259Y-90795751D01*
X101108961Y-90794602D01*
X101107812Y-90793453D01*
X101142284Y-90779664D02*
X101142284Y-90795751D01*
X101136538Y-90770472D02*
X101130793Y-90787708D01*
X101145731Y-90787708D01*
D11*
X143778490Y-125159643D02*
X143721038Y-125217095D01*
X143548681Y-125274548D01*
X143433776Y-125274548D01*
X143261419Y-125217095D01*
X143146514Y-125102190D01*
X143089062Y-124987286D01*
X143031610Y-124757476D01*
X143031610Y-124585119D01*
X143089062Y-124355310D01*
X143146514Y-124240405D01*
X143261419Y-124125500D01*
X143433776Y-124068048D01*
X143548681Y-124068048D01*
X143721038Y-124125500D01*
X143778490Y-124182952D01*
X144238110Y-124929833D02*
X144812633Y-124929833D01*
X144123205Y-125274548D02*
X144525371Y-124068048D01*
X144927538Y-125274548D01*
X145329705Y-125274548D02*
X145329705Y-124068048D01*
X146019133Y-125274548D01*
X146019133Y-124068048D01*
X146593657Y-125274548D02*
X146593657Y-124068048D01*
X146593657Y-124642571D02*
X147283085Y-124642571D01*
X147283085Y-125274548D02*
X147283085Y-124068048D01*
X147570347Y-125389452D02*
X148489585Y-125389452D01*
X149466275Y-125159643D02*
X149408823Y-125217095D01*
X149236466Y-125274548D01*
X149121561Y-125274548D01*
X148949204Y-125217095D01*
X148834299Y-125102190D01*
X148776847Y-124987286D01*
X148719395Y-124757476D01*
X148719395Y-124585119D01*
X148776847Y-124355310D01*
X148834299Y-124240405D01*
X148949204Y-124125500D01*
X149121561Y-124068048D01*
X149236466Y-124068048D01*
X149408823Y-124125500D01*
X149466275Y-124182952D01*
X149868442Y-124068048D02*
X150615323Y-124068048D01*
X150213156Y-124527667D01*
X150385514Y-124527667D01*
X150500418Y-124585119D01*
X150557871Y-124642571D01*
X150615323Y-124757476D01*
X150615323Y-125044738D01*
X150557871Y-125159643D01*
X150500418Y-125217095D01*
X150385514Y-125274548D01*
X150040799Y-125274548D01*
X149925895Y-125217095D01*
X149868442Y-125159643D01*
D12*
X142849445Y-126438751D02*
X142849445Y-126414621D01*
X142858638Y-126414621D01*
X142860936Y-126415770D01*
X142862085Y-126416919D01*
X142863234Y-126419217D01*
X142863234Y-126422664D01*
X142862085Y-126424962D01*
X142860936Y-126426111D01*
X142858638Y-126427260D01*
X142849445Y-126427260D01*
X142870128Y-126414621D02*
X142883917Y-126414621D01*
X142877022Y-126438751D02*
X142877022Y-126414621D01*
X142905749Y-126438751D02*
X142897705Y-126427260D01*
X142891960Y-126438751D02*
X142891960Y-126414621D01*
X142901153Y-126414621D01*
X142903451Y-126415770D01*
X142904600Y-126416919D01*
X142905749Y-126419217D01*
X142905749Y-126422664D01*
X142904600Y-126424962D01*
X142903451Y-126426111D01*
X142901153Y-126427260D01*
X142891960Y-126427260D01*
X142928730Y-126438751D02*
X142914941Y-126438751D01*
X142921835Y-126438751D02*
X142921835Y-126414621D01*
X142919537Y-126418068D01*
X142917239Y-126420366D01*
X142914941Y-126421515D01*
X142935624Y-126414621D02*
X142949413Y-126414621D01*
X142942518Y-126438751D02*
X142942518Y-126414621D01*
X142957456Y-126438751D02*
X142957456Y-126414621D01*
X142966649Y-126414621D01*
X142968947Y-126415770D01*
X142970096Y-126416919D01*
X142971245Y-126419217D01*
X142971245Y-126422664D01*
X142970096Y-126424962D01*
X142968947Y-126426111D01*
X142966649Y-126427260D01*
X142957456Y-126427260D01*
X142994226Y-126438751D02*
X142980437Y-126438751D01*
X142987331Y-126438751D02*
X142987331Y-126414621D01*
X142985033Y-126418068D01*
X142982735Y-126420366D01*
X142980437Y-126421515D01*
X143017207Y-126438751D02*
X143003418Y-126438751D01*
X143010312Y-126438751D02*
X143010312Y-126414621D01*
X143008014Y-126418068D01*
X143005716Y-126420366D01*
X143003418Y-126421515D01*
X143041337Y-126438751D02*
X143033293Y-126427260D01*
X143027548Y-126438751D02*
X143027548Y-126414621D01*
X143036741Y-126414621D01*
X143039039Y-126415770D01*
X143040188Y-126416919D01*
X143041337Y-126419217D01*
X143041337Y-126422664D01*
X143040188Y-126424962D01*
X143039039Y-126426111D01*
X143036741Y-126427260D01*
X143027548Y-126427260D01*
D11*
X144825062Y-92652148D02*
X144825062Y-91445648D01*
X145227229Y-92307433D01*
X145629395Y-91445648D01*
X145629395Y-92652148D01*
X146203919Y-92020171D02*
X146606086Y-92020171D01*
X146778443Y-92652148D02*
X146203919Y-92652148D01*
X146203919Y-91445648D01*
X146778443Y-91445648D01*
X147984942Y-92537243D02*
X147927490Y-92594695D01*
X147755133Y-92652148D01*
X147640228Y-92652148D01*
X147467871Y-92594695D01*
X147352966Y-92479790D01*
X147295514Y-92364886D01*
X147238062Y-92135076D01*
X147238062Y-91962719D01*
X147295514Y-91732910D01*
X147352966Y-91618005D01*
X147467871Y-91503100D01*
X147640228Y-91445648D01*
X147755133Y-91445648D01*
X147927490Y-91503100D01*
X147984942Y-91560552D01*
X148502014Y-92652148D02*
X148502014Y-91445648D01*
X148502014Y-92020171D02*
X149191442Y-92020171D01*
X149191442Y-92652148D02*
X149191442Y-91445648D01*
X149478704Y-92767052D02*
X150397942Y-92767052D01*
X151259728Y-92652148D02*
X150685204Y-92652148D01*
X150685204Y-91445648D01*
X151661894Y-92652148D02*
X151661894Y-91445648D01*
X152236418Y-92652148D02*
X152236418Y-91445648D01*
X152925846Y-92652148D01*
X152925846Y-91445648D01*
X153500370Y-92652148D02*
X153500370Y-91445648D01*
X154189798Y-92652148D02*
X153672727Y-91962719D01*
X154189798Y-91445648D02*
X153500370Y-92135076D01*
X154419608Y-92767052D02*
X155338846Y-92767052D01*
X156143179Y-91445648D02*
X155913370Y-91445648D01*
X155798465Y-91503100D01*
X155741013Y-91560552D01*
X155626108Y-91732910D01*
X155568656Y-91962719D01*
X155568656Y-92422338D01*
X155626108Y-92537243D01*
X155683560Y-92594695D01*
X155798465Y-92652148D01*
X156028275Y-92652148D01*
X156143179Y-92594695D01*
X156200632Y-92537243D01*
X156258084Y-92422338D01*
X156258084Y-92135076D01*
X156200632Y-92020171D01*
X156143179Y-91962719D01*
X156028275Y-91905267D01*
X155798465Y-91905267D01*
X155683560Y-91962719D01*
X155626108Y-92020171D01*
X155568656Y-92135076D01*
D12*
X144585445Y-93816351D02*
X144585445Y-93792221D01*
X144594638Y-93792221D01*
X144596936Y-93793370D01*
X144598085Y-93794519D01*
X144599234Y-93796817D01*
X144599234Y-93800264D01*
X144598085Y-93802562D01*
X144596936Y-93803711D01*
X144594638Y-93804860D01*
X144585445Y-93804860D01*
X144606128Y-93792221D02*
X144619917Y-93792221D01*
X144613022Y-93816351D02*
X144613022Y-93792221D01*
X144641749Y-93816351D02*
X144633705Y-93804860D01*
X144627960Y-93816351D02*
X144627960Y-93792221D01*
X144637153Y-93792221D01*
X144639451Y-93793370D01*
X144640600Y-93794519D01*
X144641749Y-93796817D01*
X144641749Y-93800264D01*
X144640600Y-93802562D01*
X144639451Y-93803711D01*
X144637153Y-93804860D01*
X144627960Y-93804860D01*
X144664730Y-93816351D02*
X144650941Y-93816351D01*
X144657835Y-93816351D02*
X144657835Y-93792221D01*
X144655537Y-93795668D01*
X144653239Y-93797966D01*
X144650941Y-93799115D01*
X144671624Y-93792221D02*
X144685413Y-93792221D01*
X144678518Y-93816351D02*
X144678518Y-93792221D01*
X144693456Y-93816351D02*
X144693456Y-93792221D01*
X144702649Y-93792221D01*
X144704947Y-93793370D01*
X144706096Y-93794519D01*
X144707245Y-93796817D01*
X144707245Y-93800264D01*
X144706096Y-93802562D01*
X144704947Y-93803711D01*
X144702649Y-93804860D01*
X144693456Y-93804860D01*
X144730226Y-93816351D02*
X144716437Y-93816351D01*
X144723331Y-93816351D02*
X144723331Y-93792221D01*
X144721033Y-93795668D01*
X144718735Y-93797966D01*
X144716437Y-93799115D01*
X144753207Y-93816351D02*
X144739418Y-93816351D01*
X144746312Y-93816351D02*
X144746312Y-93792221D01*
X144744014Y-93795668D01*
X144741716Y-93797966D01*
X144739418Y-93799115D01*
X144777337Y-93816351D02*
X144769293Y-93804860D01*
X144763548Y-93816351D02*
X144763548Y-93792221D01*
X144772741Y-93792221D01*
X144775039Y-93793370D01*
X144776188Y-93794519D01*
X144777337Y-93796817D01*
X144777337Y-93800264D01*
X144776188Y-93802562D01*
X144775039Y-93803711D01*
X144772741Y-93804860D01*
X144763548Y-93804860D01*
D11*
X117953848Y-105032810D02*
X117379324Y-105434976D01*
X117953848Y-105722238D02*
X116747348Y-105722238D01*
X116747348Y-105262619D01*
X116804800Y-105147714D01*
X116862252Y-105090262D01*
X116977157Y-105032810D01*
X117149514Y-105032810D01*
X117264419Y-105090262D01*
X117321871Y-105147714D01*
X117379324Y-105262619D01*
X117379324Y-105722238D01*
X116747348Y-104630643D02*
X116747348Y-103826310D01*
X117953848Y-104343381D01*
X120672252Y-105779690D02*
X120614800Y-105722238D01*
X120557348Y-105607333D01*
X120557348Y-105320071D01*
X120614800Y-105205167D01*
X120672252Y-105147714D01*
X120787157Y-105090262D01*
X120902062Y-105090262D01*
X121074419Y-105147714D01*
X121763848Y-105837143D01*
X121763848Y-105090262D01*
X120672252Y-104630642D02*
X120614800Y-104573190D01*
X120557348Y-104458285D01*
X120557348Y-104171023D01*
X120614800Y-104056119D01*
X120672252Y-103998666D01*
X120787157Y-103941214D01*
X120902062Y-103941214D01*
X121074419Y-103998666D01*
X121763848Y-104688095D01*
X121763848Y-103941214D01*
X120557348Y-103194333D02*
X120557348Y-103079428D01*
X120614800Y-102964523D01*
X120672252Y-102907071D01*
X120787157Y-102849618D01*
X121016967Y-102792166D01*
X121304229Y-102792166D01*
X121534038Y-102849618D01*
X121648943Y-102907071D01*
X121706395Y-102964523D01*
X121763848Y-103079428D01*
X121763848Y-103194333D01*
X121706395Y-103309237D01*
X121648943Y-103366690D01*
X121534038Y-103424142D01*
X121304229Y-103481594D01*
X121016967Y-103481594D01*
X120787157Y-103424142D01*
X120672252Y-103366690D01*
X120614800Y-103309237D01*
X120557348Y-103194333D01*
X142991905Y-81396048D02*
X143394071Y-82602548D01*
X143796238Y-81396048D01*
X144887833Y-82487643D02*
X144830381Y-82545095D01*
X144658024Y-82602548D01*
X144543119Y-82602548D01*
X144370762Y-82545095D01*
X144255857Y-82430190D01*
X144198405Y-82315286D01*
X144140953Y-82085476D01*
X144140953Y-81913119D01*
X144198405Y-81683310D01*
X144255857Y-81568405D01*
X144370762Y-81453500D01*
X144543119Y-81396048D01*
X144658024Y-81396048D01*
X144830381Y-81453500D01*
X144887833Y-81510952D01*
X146094333Y-82487643D02*
X146036881Y-82545095D01*
X145864524Y-82602548D01*
X145749619Y-82602548D01*
X145577262Y-82545095D01*
X145462357Y-82430190D01*
X145404905Y-82315286D01*
X145347453Y-82085476D01*
X145347453Y-81913119D01*
X145404905Y-81683310D01*
X145462357Y-81568405D01*
X145577262Y-81453500D01*
X145749619Y-81396048D01*
X145864524Y-81396048D01*
X146036881Y-81453500D01*
X146094333Y-81510952D01*
X146324143Y-82717452D02*
X147243381Y-82717452D01*
X148220071Y-82487643D02*
X148162619Y-82545095D01*
X147990262Y-82602548D01*
X147875357Y-82602548D01*
X147703000Y-82545095D01*
X147588095Y-82430190D01*
X147530643Y-82315286D01*
X147473191Y-82085476D01*
X147473191Y-81913119D01*
X147530643Y-81683310D01*
X147588095Y-81568405D01*
X147703000Y-81453500D01*
X147875357Y-81396048D01*
X147990262Y-81396048D01*
X148162619Y-81453500D01*
X148220071Y-81510952D01*
X148622238Y-81396048D02*
X149369119Y-81396048D01*
X148966952Y-81855667D01*
X149139310Y-81855667D01*
X149254214Y-81913119D01*
X149311667Y-81970571D01*
X149369119Y-82085476D01*
X149369119Y-82372738D01*
X149311667Y-82487643D01*
X149254214Y-82545095D01*
X149139310Y-82602548D01*
X148794595Y-82602548D01*
X148679691Y-82545095D01*
X148622238Y-82487643D01*
D12*
X142924645Y-83766751D02*
X142924645Y-83742621D01*
X142933838Y-83742621D01*
X142936136Y-83743770D01*
X142937285Y-83744919D01*
X142938434Y-83747217D01*
X142938434Y-83750664D01*
X142937285Y-83752962D01*
X142936136Y-83754111D01*
X142933838Y-83755260D01*
X142924645Y-83755260D01*
X142945328Y-83742621D02*
X142959117Y-83742621D01*
X142952222Y-83766751D02*
X142952222Y-83742621D01*
X142980949Y-83766751D02*
X142972905Y-83755260D01*
X142967160Y-83766751D02*
X142967160Y-83742621D01*
X142976353Y-83742621D01*
X142978651Y-83743770D01*
X142979800Y-83744919D01*
X142980949Y-83747217D01*
X142980949Y-83750664D01*
X142979800Y-83752962D01*
X142978651Y-83754111D01*
X142976353Y-83755260D01*
X142967160Y-83755260D01*
X143003930Y-83766751D02*
X142990141Y-83766751D01*
X142997035Y-83766751D02*
X142997035Y-83742621D01*
X142994737Y-83746068D01*
X142992439Y-83748366D01*
X142990141Y-83749515D01*
X143010824Y-83742621D02*
X143024613Y-83742621D01*
X143017718Y-83766751D02*
X143017718Y-83742621D01*
X143032656Y-83766751D02*
X143032656Y-83742621D01*
X143041849Y-83742621D01*
X143044147Y-83743770D01*
X143045296Y-83744919D01*
X143046445Y-83747217D01*
X143046445Y-83750664D01*
X143045296Y-83752962D01*
X143044147Y-83754111D01*
X143041849Y-83755260D01*
X143032656Y-83755260D01*
X143069426Y-83766751D02*
X143055637Y-83766751D01*
X143062531Y-83766751D02*
X143062531Y-83742621D01*
X143060233Y-83746068D01*
X143057935Y-83748366D01*
X143055637Y-83749515D01*
X143092407Y-83766751D02*
X143078618Y-83766751D01*
X143085512Y-83766751D02*
X143085512Y-83742621D01*
X143083214Y-83746068D01*
X143080916Y-83748366D01*
X143078618Y-83749515D01*
X143116537Y-83766751D02*
X143108493Y-83755260D01*
X143102748Y-83766751D02*
X143102748Y-83742621D01*
X143111941Y-83742621D01*
X143114239Y-83743770D01*
X143115388Y-83744919D01*
X143116537Y-83747217D01*
X143116537Y-83750664D01*
X143115388Y-83752962D01*
X143114239Y-83754111D01*
X143111941Y-83755260D01*
X143102748Y-83755260D01*
D11*
X144691410Y-116775495D02*
X144863767Y-116832948D01*
X145151029Y-116832948D01*
X145265933Y-116775495D01*
X145323386Y-116718043D01*
X145380838Y-116603138D01*
X145380838Y-116488233D01*
X145323386Y-116373329D01*
X145265933Y-116315876D01*
X145151029Y-116258424D01*
X144921219Y-116200971D01*
X144806314Y-116143519D01*
X144748862Y-116086067D01*
X144691410Y-115971162D01*
X144691410Y-115856257D01*
X144748862Y-115741352D01*
X144806314Y-115683900D01*
X144921219Y-115626448D01*
X145208481Y-115626448D01*
X145380838Y-115683900D01*
X145897910Y-116832948D02*
X145897910Y-115626448D01*
X146185172Y-115626448D01*
X146357529Y-115683900D01*
X146472434Y-115798805D01*
X146529886Y-115913710D01*
X146587338Y-116143519D01*
X146587338Y-116315876D01*
X146529886Y-116545686D01*
X146472434Y-116660590D01*
X146357529Y-116775495D01*
X146185172Y-116832948D01*
X145897910Y-116832948D01*
X147046958Y-116488233D02*
X147621481Y-116488233D01*
X146932053Y-116832948D02*
X147334219Y-115626448D01*
X147736386Y-116832948D01*
X147851291Y-116947852D02*
X148770529Y-116947852D01*
X149000339Y-116775495D02*
X149172696Y-116832948D01*
X149459958Y-116832948D01*
X149574862Y-116775495D01*
X149632315Y-116718043D01*
X149689767Y-116603138D01*
X149689767Y-116488233D01*
X149632315Y-116373329D01*
X149574862Y-116315876D01*
X149459958Y-116258424D01*
X149230148Y-116200971D01*
X149115243Y-116143519D01*
X149057791Y-116086067D01*
X149000339Y-115971162D01*
X149000339Y-115856257D01*
X149057791Y-115741352D01*
X149115243Y-115683900D01*
X149230148Y-115626448D01*
X149517410Y-115626448D01*
X149689767Y-115683900D01*
X150091934Y-115626448D02*
X150838815Y-115626448D01*
X150436648Y-116086067D01*
X150609006Y-116086067D01*
X150723910Y-116143519D01*
X150781363Y-116200971D01*
X150838815Y-116315876D01*
X150838815Y-116603138D01*
X150781363Y-116718043D01*
X150723910Y-116775495D01*
X150609006Y-116832948D01*
X150264291Y-116832948D01*
X150149387Y-116775495D01*
X150091934Y-116718043D01*
X151068625Y-116947852D02*
X151987863Y-116947852D01*
X152964553Y-116718043D02*
X152907101Y-116775495D01*
X152734744Y-116832948D01*
X152619839Y-116832948D01*
X152447482Y-116775495D01*
X152332577Y-116660590D01*
X152275125Y-116545686D01*
X152217673Y-116315876D01*
X152217673Y-116143519D01*
X152275125Y-115913710D01*
X152332577Y-115798805D01*
X152447482Y-115683900D01*
X152619839Y-115626448D01*
X152734744Y-115626448D01*
X152907101Y-115683900D01*
X152964553Y-115741352D01*
X153366720Y-115626448D02*
X154113601Y-115626448D01*
X153711434Y-116086067D01*
X153883792Y-116086067D01*
X153998696Y-116143519D01*
X154056149Y-116200971D01*
X154113601Y-116315876D01*
X154113601Y-116603138D01*
X154056149Y-116718043D01*
X153998696Y-116775495D01*
X153883792Y-116832948D01*
X153539077Y-116832948D01*
X153424173Y-116775495D01*
X153366720Y-116718043D01*
X154343411Y-116947852D02*
X155262649Y-116947852D01*
X156239339Y-116718043D02*
X156181887Y-116775495D01*
X156009530Y-116832948D01*
X155894625Y-116832948D01*
X155722268Y-116775495D01*
X155607363Y-116660590D01*
X155549911Y-116545686D01*
X155492459Y-116315876D01*
X155492459Y-116143519D01*
X155549911Y-115913710D01*
X155607363Y-115798805D01*
X155722268Y-115683900D01*
X155894625Y-115626448D01*
X156009530Y-115626448D01*
X156181887Y-115683900D01*
X156239339Y-115741352D01*
X157273482Y-116028614D02*
X157273482Y-116832948D01*
X156986220Y-115568995D02*
X156698959Y-116430781D01*
X157445839Y-116430781D01*
D12*
X144509245Y-117997151D02*
X144509245Y-117973021D01*
X144518438Y-117973021D01*
X144520736Y-117974170D01*
X144521885Y-117975319D01*
X144523034Y-117977617D01*
X144523034Y-117981064D01*
X144521885Y-117983362D01*
X144520736Y-117984511D01*
X144518438Y-117985660D01*
X144509245Y-117985660D01*
X144529928Y-117973021D02*
X144543717Y-117973021D01*
X144536822Y-117997151D02*
X144536822Y-117973021D01*
X144565549Y-117997151D02*
X144557505Y-117985660D01*
X144551760Y-117997151D02*
X144551760Y-117973021D01*
X144560953Y-117973021D01*
X144563251Y-117974170D01*
X144564400Y-117975319D01*
X144565549Y-117977617D01*
X144565549Y-117981064D01*
X144564400Y-117983362D01*
X144563251Y-117984511D01*
X144560953Y-117985660D01*
X144551760Y-117985660D01*
X144588530Y-117997151D02*
X144574741Y-117997151D01*
X144581635Y-117997151D02*
X144581635Y-117973021D01*
X144579337Y-117976468D01*
X144577039Y-117978766D01*
X144574741Y-117979915D01*
X144595424Y-117973021D02*
X144609213Y-117973021D01*
X144602318Y-117997151D02*
X144602318Y-117973021D01*
X144617256Y-117997151D02*
X144617256Y-117973021D01*
X144626449Y-117973021D01*
X144628747Y-117974170D01*
X144629896Y-117975319D01*
X144631045Y-117977617D01*
X144631045Y-117981064D01*
X144629896Y-117983362D01*
X144628747Y-117984511D01*
X144626449Y-117985660D01*
X144617256Y-117985660D01*
X144654026Y-117997151D02*
X144640237Y-117997151D01*
X144647131Y-117997151D02*
X144647131Y-117973021D01*
X144644833Y-117976468D01*
X144642535Y-117978766D01*
X144640237Y-117979915D01*
X144677007Y-117997151D02*
X144663218Y-117997151D01*
X144670112Y-117997151D02*
X144670112Y-117973021D01*
X144667814Y-117976468D01*
X144665516Y-117978766D01*
X144663218Y-117979915D01*
X144701137Y-117997151D02*
X144693093Y-117985660D01*
X144687348Y-117997151D02*
X144687348Y-117973021D01*
X144696541Y-117973021D01*
X144698839Y-117974170D01*
X144699988Y-117975319D01*
X144701137Y-117977617D01*
X144701137Y-117981064D01*
X144699988Y-117983362D01*
X144698839Y-117984511D01*
X144696541Y-117985660D01*
X144687348Y-117985660D01*
D11*
X144767610Y-100443295D02*
X144939967Y-100500748D01*
X145227229Y-100500748D01*
X145342133Y-100443295D01*
X145399586Y-100385843D01*
X145457038Y-100270938D01*
X145457038Y-100156033D01*
X145399586Y-100041129D01*
X145342133Y-99983676D01*
X145227229Y-99926224D01*
X144997419Y-99868771D01*
X144882514Y-99811319D01*
X144825062Y-99753867D01*
X144767610Y-99638962D01*
X144767610Y-99524057D01*
X144825062Y-99409152D01*
X144882514Y-99351700D01*
X144997419Y-99294248D01*
X145284681Y-99294248D01*
X145457038Y-99351700D01*
X145974110Y-100500748D02*
X145974110Y-99294248D01*
X146261372Y-99294248D01*
X146433729Y-99351700D01*
X146548634Y-99466605D01*
X146606086Y-99581510D01*
X146663538Y-99811319D01*
X146663538Y-99983676D01*
X146606086Y-100213486D01*
X146548634Y-100328390D01*
X146433729Y-100443295D01*
X146261372Y-100500748D01*
X145974110Y-100500748D01*
X147123158Y-100156033D02*
X147697681Y-100156033D01*
X147008253Y-100500748D02*
X147410419Y-99294248D01*
X147812586Y-100500748D01*
X147927491Y-100615652D02*
X148846729Y-100615652D01*
X149076539Y-100443295D02*
X149248896Y-100500748D01*
X149536158Y-100500748D01*
X149651062Y-100443295D01*
X149708515Y-100385843D01*
X149765967Y-100270938D01*
X149765967Y-100156033D01*
X149708515Y-100041129D01*
X149651062Y-99983676D01*
X149536158Y-99926224D01*
X149306348Y-99868771D01*
X149191443Y-99811319D01*
X149133991Y-99753867D01*
X149076539Y-99638962D01*
X149076539Y-99524057D01*
X149133991Y-99409152D01*
X149191443Y-99351700D01*
X149306348Y-99294248D01*
X149593610Y-99294248D01*
X149765967Y-99351700D01*
X150800110Y-99696414D02*
X150800110Y-100500748D01*
X150512848Y-99236795D02*
X150225587Y-100098581D01*
X150972467Y-100098581D01*
X151144825Y-100615652D02*
X152064063Y-100615652D01*
X153040753Y-100385843D02*
X152983301Y-100443295D01*
X152810944Y-100500748D01*
X152696039Y-100500748D01*
X152523682Y-100443295D01*
X152408777Y-100328390D01*
X152351325Y-100213486D01*
X152293873Y-99983676D01*
X152293873Y-99811319D01*
X152351325Y-99581510D01*
X152408777Y-99466605D01*
X152523682Y-99351700D01*
X152696039Y-99294248D01*
X152810944Y-99294248D01*
X152983301Y-99351700D01*
X153040753Y-99409152D01*
X154074896Y-99696414D02*
X154074896Y-100500748D01*
X153787634Y-99236795D02*
X153500373Y-100098581D01*
X154247253Y-100098581D01*
X154419611Y-100615652D02*
X155338849Y-100615652D01*
X156315539Y-100385843D02*
X156258087Y-100443295D01*
X156085730Y-100500748D01*
X155970825Y-100500748D01*
X155798468Y-100443295D01*
X155683563Y-100328390D01*
X155626111Y-100213486D01*
X155568659Y-99983676D01*
X155568659Y-99811319D01*
X155626111Y-99581510D01*
X155683563Y-99466605D01*
X155798468Y-99351700D01*
X155970825Y-99294248D01*
X156085730Y-99294248D01*
X156258087Y-99351700D01*
X156315539Y-99409152D01*
X157349682Y-99696414D02*
X157349682Y-100500748D01*
X157062420Y-99236795D02*
X156775159Y-100098581D01*
X157522039Y-100098581D01*
D12*
X144585445Y-101664951D02*
X144585445Y-101640821D01*
X144594638Y-101640821D01*
X144596936Y-101641970D01*
X144598085Y-101643119D01*
X144599234Y-101645417D01*
X144599234Y-101648864D01*
X144598085Y-101651162D01*
X144596936Y-101652311D01*
X144594638Y-101653460D01*
X144585445Y-101653460D01*
X144606128Y-101640821D02*
X144619917Y-101640821D01*
X144613022Y-101664951D02*
X144613022Y-101640821D01*
X144641749Y-101664951D02*
X144633705Y-101653460D01*
X144627960Y-101664951D02*
X144627960Y-101640821D01*
X144637153Y-101640821D01*
X144639451Y-101641970D01*
X144640600Y-101643119D01*
X144641749Y-101645417D01*
X144641749Y-101648864D01*
X144640600Y-101651162D01*
X144639451Y-101652311D01*
X144637153Y-101653460D01*
X144627960Y-101653460D01*
X144664730Y-101664951D02*
X144650941Y-101664951D01*
X144657835Y-101664951D02*
X144657835Y-101640821D01*
X144655537Y-101644268D01*
X144653239Y-101646566D01*
X144650941Y-101647715D01*
X144671624Y-101640821D02*
X144685413Y-101640821D01*
X144678518Y-101664951D02*
X144678518Y-101640821D01*
X144693456Y-101664951D02*
X144693456Y-101640821D01*
X144702649Y-101640821D01*
X144704947Y-101641970D01*
X144706096Y-101643119D01*
X144707245Y-101645417D01*
X144707245Y-101648864D01*
X144706096Y-101651162D01*
X144704947Y-101652311D01*
X144702649Y-101653460D01*
X144693456Y-101653460D01*
X144730226Y-101664951D02*
X144716437Y-101664951D01*
X144723331Y-101664951D02*
X144723331Y-101640821D01*
X144721033Y-101644268D01*
X144718735Y-101646566D01*
X144716437Y-101647715D01*
X144753207Y-101664951D02*
X144739418Y-101664951D01*
X144746312Y-101664951D02*
X144746312Y-101640821D01*
X144744014Y-101644268D01*
X144741716Y-101646566D01*
X144739418Y-101647715D01*
X144777337Y-101664951D02*
X144769293Y-101653460D01*
X144763548Y-101664951D02*
X144763548Y-101640821D01*
X144772741Y-101640821D01*
X144775039Y-101641970D01*
X144776188Y-101643119D01*
X144777337Y-101645417D01*
X144777337Y-101648864D01*
X144776188Y-101651162D01*
X144775039Y-101652311D01*
X144772741Y-101653460D01*
X144763548Y-101653460D01*
D11*
X122160148Y-127557806D02*
X121585624Y-127959972D01*
X122160148Y-128247234D02*
X120953648Y-128247234D01*
X120953648Y-127787615D01*
X121011100Y-127672710D01*
X121068552Y-127615258D01*
X121183457Y-127557806D01*
X121355814Y-127557806D01*
X121470719Y-127615258D01*
X121528171Y-127672710D01*
X121585624Y-127787615D01*
X121585624Y-128247234D01*
X121068552Y-127098186D02*
X121011100Y-127040734D01*
X120953648Y-126925829D01*
X120953648Y-126638567D01*
X121011100Y-126523663D01*
X121068552Y-126466210D01*
X121183457Y-126408758D01*
X121298362Y-126408758D01*
X121470719Y-126466210D01*
X122160148Y-127155639D01*
X122160148Y-126408758D01*
X120953648Y-125374615D02*
X120953648Y-125604424D01*
X121011100Y-125719329D01*
X121068552Y-125776781D01*
X121240910Y-125891686D01*
X121470719Y-125949138D01*
X121930338Y-125949138D01*
X122045243Y-125891686D01*
X122102695Y-125834234D01*
X122160148Y-125719329D01*
X122160148Y-125489519D01*
X122102695Y-125374615D01*
X122045243Y-125317162D01*
X121930338Y-125259710D01*
X121643076Y-125259710D01*
X121528171Y-125317162D01*
X121470719Y-125374615D01*
X121413267Y-125489519D01*
X121413267Y-125719329D01*
X121470719Y-125834234D01*
X121528171Y-125891686D01*
X121643076Y-125949138D01*
X117545814Y-128074877D02*
X118350148Y-128074877D01*
X117086195Y-128362139D02*
X117947981Y-128649400D01*
X117947981Y-127902520D01*
X118235243Y-127442900D02*
X118292695Y-127385448D01*
X118350148Y-127442900D01*
X118292695Y-127500352D01*
X118235243Y-127442900D01*
X118350148Y-127442900D01*
X117143648Y-126983281D02*
X117143648Y-126178948D01*
X118350148Y-126696019D01*
X118350148Y-125719328D02*
X117143648Y-125719328D01*
X117890529Y-125604423D02*
X118350148Y-125259709D01*
X117545814Y-125259709D02*
X118005433Y-125719328D01*
X118438548Y-127565206D02*
X117864024Y-127967372D01*
X118438548Y-128254634D02*
X117232048Y-128254634D01*
X117232048Y-127795015D01*
X117289500Y-127680110D01*
X117346952Y-127622658D01*
X117461857Y-127565206D01*
X117634214Y-127565206D01*
X117749119Y-127622658D01*
X117806571Y-127680110D01*
X117864024Y-127795015D01*
X117864024Y-128254634D01*
X117346952Y-127105586D02*
X117289500Y-127048134D01*
X117232048Y-126933229D01*
X117232048Y-126645967D01*
X117289500Y-126531063D01*
X117346952Y-126473610D01*
X117461857Y-126416158D01*
X117576762Y-126416158D01*
X117749119Y-126473610D01*
X118438548Y-127163039D01*
X118438548Y-126416158D01*
X117232048Y-126013991D02*
X117232048Y-125209658D01*
X118438548Y-125726729D01*
X113824214Y-128082277D02*
X114628548Y-128082277D01*
X113364595Y-128369539D02*
X114226381Y-128656800D01*
X114226381Y-127909920D01*
X114513643Y-127450300D02*
X114571095Y-127392848D01*
X114628548Y-127450300D01*
X114571095Y-127507752D01*
X114513643Y-127450300D01*
X114628548Y-127450300D01*
X113422048Y-126990681D02*
X113422048Y-126186348D01*
X114628548Y-126703419D01*
X114628548Y-125726728D02*
X113422048Y-125726728D01*
X114168929Y-125611823D02*
X114628548Y-125267109D01*
X113824214Y-125267109D02*
X114283833Y-125726728D01*
X105377105Y-81515048D02*
X105779271Y-82721548D01*
X106181438Y-81515048D01*
X107273033Y-82606643D02*
X107215581Y-82664095D01*
X107043224Y-82721548D01*
X106928319Y-82721548D01*
X106755962Y-82664095D01*
X106641057Y-82549190D01*
X106583605Y-82434286D01*
X106526153Y-82204476D01*
X106526153Y-82032119D01*
X106583605Y-81802310D01*
X106641057Y-81687405D01*
X106755962Y-81572500D01*
X106928319Y-81515048D01*
X107043224Y-81515048D01*
X107215581Y-81572500D01*
X107273033Y-81629952D01*
X108479533Y-82606643D02*
X108422081Y-82664095D01*
X108249724Y-82721548D01*
X108134819Y-82721548D01*
X107962462Y-82664095D01*
X107847557Y-82549190D01*
X107790105Y-82434286D01*
X107732653Y-82204476D01*
X107732653Y-82032119D01*
X107790105Y-81802310D01*
X107847557Y-81687405D01*
X107962462Y-81572500D01*
X108134819Y-81515048D01*
X108249724Y-81515048D01*
X108422081Y-81572500D01*
X108479533Y-81629952D01*
D12*
X105309845Y-83885751D02*
X105309845Y-83861621D01*
X105319038Y-83861621D01*
X105321336Y-83862770D01*
X105322485Y-83863919D01*
X105323634Y-83866217D01*
X105323634Y-83869664D01*
X105322485Y-83871962D01*
X105321336Y-83873111D01*
X105319038Y-83874260D01*
X105309845Y-83874260D01*
X105330528Y-83861621D02*
X105344317Y-83861621D01*
X105337422Y-83885751D02*
X105337422Y-83861621D01*
X105366149Y-83885751D02*
X105358105Y-83874260D01*
X105352360Y-83885751D02*
X105352360Y-83861621D01*
X105361553Y-83861621D01*
X105363851Y-83862770D01*
X105365000Y-83863919D01*
X105366149Y-83866217D01*
X105366149Y-83869664D01*
X105365000Y-83871962D01*
X105363851Y-83873111D01*
X105361553Y-83874260D01*
X105352360Y-83874260D01*
X105389130Y-83885751D02*
X105375341Y-83885751D01*
X105382235Y-83885751D02*
X105382235Y-83861621D01*
X105379937Y-83865068D01*
X105377639Y-83867366D01*
X105375341Y-83868515D01*
X105396024Y-83861621D02*
X105409813Y-83861621D01*
X105402918Y-83885751D02*
X105402918Y-83861621D01*
X105417856Y-83885751D02*
X105417856Y-83861621D01*
X105427049Y-83861621D01*
X105429347Y-83862770D01*
X105430496Y-83863919D01*
X105431645Y-83866217D01*
X105431645Y-83869664D01*
X105430496Y-83871962D01*
X105429347Y-83873111D01*
X105427049Y-83874260D01*
X105417856Y-83874260D01*
X105454626Y-83885751D02*
X105440837Y-83885751D01*
X105447731Y-83885751D02*
X105447731Y-83861621D01*
X105445433Y-83865068D01*
X105443135Y-83867366D01*
X105440837Y-83868515D01*
X105477607Y-83885751D02*
X105463818Y-83885751D01*
X105470712Y-83885751D02*
X105470712Y-83861621D01*
X105468414Y-83865068D01*
X105466116Y-83867366D01*
X105463818Y-83868515D01*
X105501737Y-83885751D02*
X105493693Y-83874260D01*
X105487948Y-83885751D02*
X105487948Y-83861621D01*
X105497141Y-83861621D01*
X105499439Y-83862770D01*
X105500588Y-83863919D01*
X105501737Y-83866217D01*
X105501737Y-83869664D01*
X105500588Y-83871962D01*
X105499439Y-83873111D01*
X105497141Y-83874260D01*
X105487948Y-83874260D01*
D11*
X106336438Y-78536500D02*
X106221533Y-78479048D01*
X106049176Y-78479048D01*
X105876819Y-78536500D01*
X105761914Y-78651405D01*
X105704462Y-78766310D01*
X105647010Y-78996119D01*
X105647010Y-79168476D01*
X105704462Y-79398286D01*
X105761914Y-79513190D01*
X105876819Y-79628095D01*
X106049176Y-79685548D01*
X106164081Y-79685548D01*
X106336438Y-79628095D01*
X106393890Y-79570643D01*
X106393890Y-79168476D01*
X106164081Y-79168476D01*
X106910962Y-79685548D02*
X106910962Y-78479048D01*
X107600390Y-79685548D01*
X107600390Y-78479048D01*
X108174914Y-79685548D02*
X108174914Y-78479048D01*
X108462176Y-78479048D01*
X108634533Y-78536500D01*
X108749438Y-78651405D01*
X108806890Y-78766310D01*
X108864342Y-78996119D01*
X108864342Y-79168476D01*
X108806890Y-79398286D01*
X108749438Y-79513190D01*
X108634533Y-79628095D01*
X108462176Y-79685548D01*
X108174914Y-79685548D01*
D12*
X105464845Y-80849751D02*
X105464845Y-80825621D01*
X105474038Y-80825621D01*
X105476336Y-80826770D01*
X105477485Y-80827919D01*
X105478634Y-80830217D01*
X105478634Y-80833664D01*
X105477485Y-80835962D01*
X105476336Y-80837111D01*
X105474038Y-80838260D01*
X105464845Y-80838260D01*
X105485528Y-80825621D02*
X105499317Y-80825621D01*
X105492422Y-80849751D02*
X105492422Y-80825621D01*
X105521149Y-80849751D02*
X105513105Y-80838260D01*
X105507360Y-80849751D02*
X105507360Y-80825621D01*
X105516553Y-80825621D01*
X105518851Y-80826770D01*
X105520000Y-80827919D01*
X105521149Y-80830217D01*
X105521149Y-80833664D01*
X105520000Y-80835962D01*
X105518851Y-80837111D01*
X105516553Y-80838260D01*
X105507360Y-80838260D01*
X105544130Y-80849751D02*
X105530341Y-80849751D01*
X105537235Y-80849751D02*
X105537235Y-80825621D01*
X105534937Y-80829068D01*
X105532639Y-80831366D01*
X105530341Y-80832515D01*
X105551024Y-80825621D02*
X105564813Y-80825621D01*
X105557918Y-80849751D02*
X105557918Y-80825621D01*
X105572856Y-80849751D02*
X105572856Y-80825621D01*
X105582049Y-80825621D01*
X105584347Y-80826770D01*
X105585496Y-80827919D01*
X105586645Y-80830217D01*
X105586645Y-80833664D01*
X105585496Y-80835962D01*
X105584347Y-80837111D01*
X105582049Y-80838260D01*
X105572856Y-80838260D01*
X105609626Y-80849751D02*
X105595837Y-80849751D01*
X105602731Y-80849751D02*
X105602731Y-80825621D01*
X105600433Y-80829068D01*
X105598135Y-80831366D01*
X105595837Y-80832515D01*
X105632607Y-80849751D02*
X105618818Y-80849751D01*
X105625712Y-80849751D02*
X105625712Y-80825621D01*
X105623414Y-80829068D01*
X105621116Y-80831366D01*
X105618818Y-80832515D01*
X105656737Y-80849751D02*
X105648693Y-80838260D01*
X105642948Y-80849751D02*
X105642948Y-80825621D01*
X105652141Y-80825621D01*
X105654439Y-80826770D01*
X105655588Y-80827919D01*
X105656737Y-80830217D01*
X105656737Y-80833664D01*
X105655588Y-80835962D01*
X105654439Y-80837111D01*
X105652141Y-80838260D01*
X105642948Y-80838260D01*
D11*
X94764890Y-85965643D02*
X94707438Y-86023095D01*
X94535081Y-86080548D01*
X94420176Y-86080548D01*
X94247819Y-86023095D01*
X94132914Y-85908190D01*
X94075462Y-85793286D01*
X94018010Y-85563476D01*
X94018010Y-85391119D01*
X94075462Y-85161310D01*
X94132914Y-85046405D01*
X94247819Y-84931500D01*
X94420176Y-84874048D01*
X94535081Y-84874048D01*
X94707438Y-84931500D01*
X94764890Y-84988952D01*
X95224510Y-85735833D02*
X95799033Y-85735833D01*
X95109605Y-86080548D02*
X95511771Y-84874048D01*
X95913938Y-86080548D01*
X96316105Y-86080548D02*
X96316105Y-84874048D01*
X97005533Y-86080548D01*
X97005533Y-84874048D01*
X98154581Y-86080548D02*
X97580057Y-86080548D01*
X97580057Y-84874048D01*
D12*
X93835845Y-87244751D02*
X93835845Y-87220621D01*
X93845038Y-87220621D01*
X93847336Y-87221770D01*
X93848485Y-87222919D01*
X93849634Y-87225217D01*
X93849634Y-87228664D01*
X93848485Y-87230962D01*
X93847336Y-87232111D01*
X93845038Y-87233260D01*
X93835845Y-87233260D01*
X93856528Y-87220621D02*
X93870317Y-87220621D01*
X93863422Y-87244751D02*
X93863422Y-87220621D01*
X93892149Y-87244751D02*
X93884105Y-87233260D01*
X93878360Y-87244751D02*
X93878360Y-87220621D01*
X93887553Y-87220621D01*
X93889851Y-87221770D01*
X93891000Y-87222919D01*
X93892149Y-87225217D01*
X93892149Y-87228664D01*
X93891000Y-87230962D01*
X93889851Y-87232111D01*
X93887553Y-87233260D01*
X93878360Y-87233260D01*
X93915130Y-87244751D02*
X93901341Y-87244751D01*
X93908235Y-87244751D02*
X93908235Y-87220621D01*
X93905937Y-87224068D01*
X93903639Y-87226366D01*
X93901341Y-87227515D01*
X93922024Y-87220621D02*
X93935813Y-87220621D01*
X93928918Y-87244751D02*
X93928918Y-87220621D01*
X93943856Y-87244751D02*
X93943856Y-87220621D01*
X93953049Y-87220621D01*
X93955347Y-87221770D01*
X93956496Y-87222919D01*
X93957645Y-87225217D01*
X93957645Y-87228664D01*
X93956496Y-87230962D01*
X93955347Y-87232111D01*
X93953049Y-87233260D01*
X93943856Y-87233260D01*
X93980626Y-87244751D02*
X93966837Y-87244751D01*
X93973731Y-87244751D02*
X93973731Y-87220621D01*
X93971433Y-87224068D01*
X93969135Y-87226366D01*
X93966837Y-87227515D01*
X94003607Y-87244751D02*
X93989818Y-87244751D01*
X93996712Y-87244751D02*
X93996712Y-87220621D01*
X93994414Y-87224068D01*
X93992116Y-87226366D01*
X93989818Y-87227515D01*
X94027737Y-87244751D02*
X94019693Y-87233260D01*
X94013948Y-87244751D02*
X94013948Y-87220621D01*
X94023141Y-87220621D01*
X94025439Y-87221770D01*
X94026588Y-87222919D01*
X94027737Y-87225217D01*
X94027737Y-87228664D01*
X94026588Y-87230962D01*
X94025439Y-87232111D01*
X94023141Y-87233260D01*
X94013948Y-87233260D01*
D11*
X94797890Y-89272643D02*
X94740438Y-89330095D01*
X94568081Y-89387548D01*
X94453176Y-89387548D01*
X94280819Y-89330095D01*
X94165914Y-89215190D01*
X94108462Y-89100286D01*
X94051010Y-88870476D01*
X94051010Y-88698119D01*
X94108462Y-88468310D01*
X94165914Y-88353405D01*
X94280819Y-88238500D01*
X94453176Y-88181048D01*
X94568081Y-88181048D01*
X94740438Y-88238500D01*
X94797890Y-88295952D01*
X95257510Y-89042833D02*
X95832033Y-89042833D01*
X95142605Y-89387548D02*
X95544771Y-88181048D01*
X95946938Y-89387548D01*
X96349105Y-89387548D02*
X96349105Y-88181048D01*
X97038533Y-89387548D01*
X97038533Y-88181048D01*
X97613057Y-89387548D02*
X97613057Y-88181048D01*
X97613057Y-88755571D02*
X98302485Y-88755571D01*
X98302485Y-89387548D02*
X98302485Y-88181048D01*
D12*
X93868845Y-90551751D02*
X93868845Y-90527621D01*
X93878038Y-90527621D01*
X93880336Y-90528770D01*
X93881485Y-90529919D01*
X93882634Y-90532217D01*
X93882634Y-90535664D01*
X93881485Y-90537962D01*
X93880336Y-90539111D01*
X93878038Y-90540260D01*
X93868845Y-90540260D01*
X93889528Y-90527621D02*
X93903317Y-90527621D01*
X93896422Y-90551751D02*
X93896422Y-90527621D01*
X93925149Y-90551751D02*
X93917105Y-90540260D01*
X93911360Y-90551751D02*
X93911360Y-90527621D01*
X93920553Y-90527621D01*
X93922851Y-90528770D01*
X93924000Y-90529919D01*
X93925149Y-90532217D01*
X93925149Y-90535664D01*
X93924000Y-90537962D01*
X93922851Y-90539111D01*
X93920553Y-90540260D01*
X93911360Y-90540260D01*
X93948130Y-90551751D02*
X93934341Y-90551751D01*
X93941235Y-90551751D02*
X93941235Y-90527621D01*
X93938937Y-90531068D01*
X93936639Y-90533366D01*
X93934341Y-90534515D01*
X93955024Y-90527621D02*
X93968813Y-90527621D01*
X93961918Y-90551751D02*
X93961918Y-90527621D01*
X93976856Y-90551751D02*
X93976856Y-90527621D01*
X93986049Y-90527621D01*
X93988347Y-90528770D01*
X93989496Y-90529919D01*
X93990645Y-90532217D01*
X93990645Y-90535664D01*
X93989496Y-90537962D01*
X93988347Y-90539111D01*
X93986049Y-90540260D01*
X93976856Y-90540260D01*
X94013626Y-90551751D02*
X93999837Y-90551751D01*
X94006731Y-90551751D02*
X94006731Y-90527621D01*
X94004433Y-90531068D01*
X94002135Y-90533366D01*
X93999837Y-90534515D01*
X94036607Y-90551751D02*
X94022818Y-90551751D01*
X94029712Y-90551751D02*
X94029712Y-90527621D01*
X94027414Y-90531068D01*
X94025116Y-90533366D01*
X94022818Y-90534515D01*
X94060737Y-90551751D02*
X94052693Y-90540260D01*
X94046948Y-90551751D02*
X94046948Y-90527621D01*
X94056141Y-90527621D01*
X94058439Y-90528770D01*
X94059588Y-90529919D01*
X94060737Y-90532217D01*
X94060737Y-90535664D01*
X94059588Y-90537962D01*
X94058439Y-90539111D01*
X94056141Y-90540260D01*
X94046948Y-90540260D01*
D11*
X105589557Y-84658048D02*
X106336438Y-84658048D01*
X105934271Y-85117667D01*
X106106629Y-85117667D01*
X106221533Y-85175119D01*
X106278986Y-85232571D01*
X106336438Y-85347476D01*
X106336438Y-85634738D01*
X106278986Y-85749643D01*
X106221533Y-85807095D01*
X106106629Y-85864548D01*
X105761914Y-85864548D01*
X105647010Y-85807095D01*
X105589557Y-85749643D01*
X106681153Y-84658048D02*
X107083319Y-85864548D01*
X107485486Y-84658048D01*
X107772748Y-84658048D02*
X108519629Y-84658048D01*
X108117462Y-85117667D01*
X108289820Y-85117667D01*
X108404724Y-85175119D01*
X108462177Y-85232571D01*
X108519629Y-85347476D01*
X108519629Y-85634738D01*
X108462177Y-85749643D01*
X108404724Y-85807095D01*
X108289820Y-85864548D01*
X107945105Y-85864548D01*
X107830201Y-85807095D01*
X107772748Y-85749643D01*
D12*
X105464845Y-87028751D02*
X105464845Y-87004621D01*
X105474038Y-87004621D01*
X105476336Y-87005770D01*
X105477485Y-87006919D01*
X105478634Y-87009217D01*
X105478634Y-87012664D01*
X105477485Y-87014962D01*
X105476336Y-87016111D01*
X105474038Y-87017260D01*
X105464845Y-87017260D01*
X105485528Y-87004621D02*
X105499317Y-87004621D01*
X105492422Y-87028751D02*
X105492422Y-87004621D01*
X105521149Y-87028751D02*
X105513105Y-87017260D01*
X105507360Y-87028751D02*
X105507360Y-87004621D01*
X105516553Y-87004621D01*
X105518851Y-87005770D01*
X105520000Y-87006919D01*
X105521149Y-87009217D01*
X105521149Y-87012664D01*
X105520000Y-87014962D01*
X105518851Y-87016111D01*
X105516553Y-87017260D01*
X105507360Y-87017260D01*
X105544130Y-87028751D02*
X105530341Y-87028751D01*
X105537235Y-87028751D02*
X105537235Y-87004621D01*
X105534937Y-87008068D01*
X105532639Y-87010366D01*
X105530341Y-87011515D01*
X105551024Y-87004621D02*
X105564813Y-87004621D01*
X105557918Y-87028751D02*
X105557918Y-87004621D01*
X105572856Y-87028751D02*
X105572856Y-87004621D01*
X105582049Y-87004621D01*
X105584347Y-87005770D01*
X105585496Y-87006919D01*
X105586645Y-87009217D01*
X105586645Y-87012664D01*
X105585496Y-87014962D01*
X105584347Y-87016111D01*
X105582049Y-87017260D01*
X105572856Y-87017260D01*
X105609626Y-87028751D02*
X105595837Y-87028751D01*
X105602731Y-87028751D02*
X105602731Y-87004621D01*
X105600433Y-87008068D01*
X105598135Y-87010366D01*
X105595837Y-87011515D01*
X105632607Y-87028751D02*
X105618818Y-87028751D01*
X105625712Y-87028751D02*
X105625712Y-87004621D01*
X105623414Y-87008068D01*
X105621116Y-87010366D01*
X105618818Y-87011515D01*
X105656737Y-87028751D02*
X105648693Y-87017260D01*
X105642948Y-87028751D02*
X105642948Y-87004621D01*
X105652141Y-87004621D01*
X105654439Y-87005770D01*
X105655588Y-87006919D01*
X105656737Y-87009217D01*
X105656737Y-87012664D01*
X105655588Y-87014962D01*
X105654439Y-87016111D01*
X105652141Y-87017260D01*
X105642948Y-87017260D01*
D11*
X93993010Y-79836095D02*
X94165367Y-79893548D01*
X94452629Y-79893548D01*
X94567533Y-79836095D01*
X94624986Y-79778643D01*
X94682438Y-79663738D01*
X94682438Y-79548833D01*
X94624986Y-79433929D01*
X94567533Y-79376476D01*
X94452629Y-79319024D01*
X94222819Y-79261571D01*
X94107914Y-79204119D01*
X94050462Y-79146667D01*
X93993010Y-79031762D01*
X93993010Y-78916857D01*
X94050462Y-78801952D01*
X94107914Y-78744500D01*
X94222819Y-78687048D01*
X94510081Y-78687048D01*
X94682438Y-78744500D01*
X95888938Y-79778643D02*
X95831486Y-79836095D01*
X95659129Y-79893548D01*
X95544224Y-79893548D01*
X95371867Y-79836095D01*
X95256962Y-79721190D01*
X95199510Y-79606286D01*
X95142058Y-79376476D01*
X95142058Y-79204119D01*
X95199510Y-78974310D01*
X95256962Y-78859405D01*
X95371867Y-78744500D01*
X95544224Y-78687048D01*
X95659129Y-78687048D01*
X95831486Y-78744500D01*
X95888938Y-78801952D01*
X96980534Y-79893548D02*
X96406010Y-79893548D01*
X96406010Y-78687048D01*
D12*
X93810845Y-81057751D02*
X93810845Y-81033621D01*
X93820038Y-81033621D01*
X93822336Y-81034770D01*
X93823485Y-81035919D01*
X93824634Y-81038217D01*
X93824634Y-81041664D01*
X93823485Y-81043962D01*
X93822336Y-81045111D01*
X93820038Y-81046260D01*
X93810845Y-81046260D01*
X93831528Y-81033621D02*
X93845317Y-81033621D01*
X93838422Y-81057751D02*
X93838422Y-81033621D01*
X93867149Y-81057751D02*
X93859105Y-81046260D01*
X93853360Y-81057751D02*
X93853360Y-81033621D01*
X93862553Y-81033621D01*
X93864851Y-81034770D01*
X93866000Y-81035919D01*
X93867149Y-81038217D01*
X93867149Y-81041664D01*
X93866000Y-81043962D01*
X93864851Y-81045111D01*
X93862553Y-81046260D01*
X93853360Y-81046260D01*
X93890130Y-81057751D02*
X93876341Y-81057751D01*
X93883235Y-81057751D02*
X93883235Y-81033621D01*
X93880937Y-81037068D01*
X93878639Y-81039366D01*
X93876341Y-81040515D01*
X93897024Y-81033621D02*
X93910813Y-81033621D01*
X93903918Y-81057751D02*
X93903918Y-81033621D01*
X93918856Y-81057751D02*
X93918856Y-81033621D01*
X93928049Y-81033621D01*
X93930347Y-81034770D01*
X93931496Y-81035919D01*
X93932645Y-81038217D01*
X93932645Y-81041664D01*
X93931496Y-81043962D01*
X93930347Y-81045111D01*
X93928049Y-81046260D01*
X93918856Y-81046260D01*
X93955626Y-81057751D02*
X93941837Y-81057751D01*
X93948731Y-81057751D02*
X93948731Y-81033621D01*
X93946433Y-81037068D01*
X93944135Y-81039366D01*
X93941837Y-81040515D01*
X93978607Y-81057751D02*
X93964818Y-81057751D01*
X93971712Y-81057751D02*
X93971712Y-81033621D01*
X93969414Y-81037068D01*
X93967116Y-81039366D01*
X93964818Y-81040515D01*
X94002737Y-81057751D02*
X93994693Y-81046260D01*
X93988948Y-81057751D02*
X93988948Y-81033621D01*
X93998141Y-81033621D01*
X94000439Y-81034770D01*
X94001588Y-81035919D01*
X94002737Y-81038217D01*
X94002737Y-81041664D01*
X94001588Y-81043962D01*
X94000439Y-81045111D01*
X93998141Y-81046260D01*
X93988948Y-81046260D01*
D11*
X94043010Y-82870095D02*
X94215367Y-82927548D01*
X94502629Y-82927548D01*
X94617533Y-82870095D01*
X94674986Y-82812643D01*
X94732438Y-82697738D01*
X94732438Y-82582833D01*
X94674986Y-82467929D01*
X94617533Y-82410476D01*
X94502629Y-82353024D01*
X94272819Y-82295571D01*
X94157914Y-82238119D01*
X94100462Y-82180667D01*
X94043010Y-82065762D01*
X94043010Y-81950857D01*
X94100462Y-81835952D01*
X94157914Y-81778500D01*
X94272819Y-81721048D01*
X94560081Y-81721048D01*
X94732438Y-81778500D01*
X95249510Y-82927548D02*
X95249510Y-81721048D01*
X95536772Y-81721048D01*
X95709129Y-81778500D01*
X95824034Y-81893405D01*
X95881486Y-82008310D01*
X95938938Y-82238119D01*
X95938938Y-82410476D01*
X95881486Y-82640286D01*
X95824034Y-82755190D01*
X95709129Y-82870095D01*
X95536772Y-82927548D01*
X95249510Y-82927548D01*
X96398558Y-82582833D02*
X96973081Y-82582833D01*
X96283653Y-82927548D02*
X96685819Y-81721048D01*
X97087986Y-82927548D01*
D12*
X93860845Y-84091751D02*
X93860845Y-84067621D01*
X93870038Y-84067621D01*
X93872336Y-84068770D01*
X93873485Y-84069919D01*
X93874634Y-84072217D01*
X93874634Y-84075664D01*
X93873485Y-84077962D01*
X93872336Y-84079111D01*
X93870038Y-84080260D01*
X93860845Y-84080260D01*
X93881528Y-84067621D02*
X93895317Y-84067621D01*
X93888422Y-84091751D02*
X93888422Y-84067621D01*
X93917149Y-84091751D02*
X93909105Y-84080260D01*
X93903360Y-84091751D02*
X93903360Y-84067621D01*
X93912553Y-84067621D01*
X93914851Y-84068770D01*
X93916000Y-84069919D01*
X93917149Y-84072217D01*
X93917149Y-84075664D01*
X93916000Y-84077962D01*
X93914851Y-84079111D01*
X93912553Y-84080260D01*
X93903360Y-84080260D01*
X93940130Y-84091751D02*
X93926341Y-84091751D01*
X93933235Y-84091751D02*
X93933235Y-84067621D01*
X93930937Y-84071068D01*
X93928639Y-84073366D01*
X93926341Y-84074515D01*
X93947024Y-84067621D02*
X93960813Y-84067621D01*
X93953918Y-84091751D02*
X93953918Y-84067621D01*
X93968856Y-84091751D02*
X93968856Y-84067621D01*
X93978049Y-84067621D01*
X93980347Y-84068770D01*
X93981496Y-84069919D01*
X93982645Y-84072217D01*
X93982645Y-84075664D01*
X93981496Y-84077962D01*
X93980347Y-84079111D01*
X93978049Y-84080260D01*
X93968856Y-84080260D01*
X94005626Y-84091751D02*
X93991837Y-84091751D01*
X93998731Y-84091751D02*
X93998731Y-84067621D01*
X93996433Y-84071068D01*
X93994135Y-84073366D01*
X93991837Y-84074515D01*
X94028607Y-84091751D02*
X94014818Y-84091751D01*
X94021712Y-84091751D02*
X94021712Y-84067621D01*
X94019414Y-84071068D01*
X94017116Y-84073366D01*
X94014818Y-84074515D01*
X94052737Y-84091751D02*
X94044693Y-84080260D01*
X94038948Y-84091751D02*
X94038948Y-84067621D01*
X94048141Y-84067621D01*
X94050439Y-84068770D01*
X94051588Y-84069919D01*
X94052737Y-84072217D01*
X94052737Y-84075664D01*
X94051588Y-84077962D01*
X94050439Y-84079111D01*
X94048141Y-84080260D01*
X94038948Y-84080260D01*
D11*
X106277986Y-89087548D02*
X105703462Y-89087548D01*
X105703462Y-87881048D01*
X106680152Y-88455571D02*
X107082319Y-88455571D01*
X107254676Y-89087548D02*
X106680152Y-89087548D01*
X106680152Y-87881048D01*
X107254676Y-87881048D01*
X107771747Y-89087548D02*
X107771747Y-87881048D01*
X108059009Y-87881048D01*
X108231366Y-87938500D01*
X108346271Y-88053405D01*
X108403723Y-88168310D01*
X108461175Y-88398119D01*
X108461175Y-88570476D01*
X108403723Y-88800286D01*
X108346271Y-88915190D01*
X108231366Y-89030095D01*
X108059009Y-89087548D01*
X107771747Y-89087548D01*
D12*
X105463845Y-90251751D02*
X105463845Y-90227621D01*
X105473038Y-90227621D01*
X105475336Y-90228770D01*
X105476485Y-90229919D01*
X105477634Y-90232217D01*
X105477634Y-90235664D01*
X105476485Y-90237962D01*
X105475336Y-90239111D01*
X105473038Y-90240260D01*
X105463845Y-90240260D01*
X105484528Y-90227621D02*
X105498317Y-90227621D01*
X105491422Y-90251751D02*
X105491422Y-90227621D01*
X105520149Y-90251751D02*
X105512105Y-90240260D01*
X105506360Y-90251751D02*
X105506360Y-90227621D01*
X105515553Y-90227621D01*
X105517851Y-90228770D01*
X105519000Y-90229919D01*
X105520149Y-90232217D01*
X105520149Y-90235664D01*
X105519000Y-90237962D01*
X105517851Y-90239111D01*
X105515553Y-90240260D01*
X105506360Y-90240260D01*
X105543130Y-90251751D02*
X105529341Y-90251751D01*
X105536235Y-90251751D02*
X105536235Y-90227621D01*
X105533937Y-90231068D01*
X105531639Y-90233366D01*
X105529341Y-90234515D01*
X105550024Y-90227621D02*
X105563813Y-90227621D01*
X105556918Y-90251751D02*
X105556918Y-90227621D01*
X105571856Y-90251751D02*
X105571856Y-90227621D01*
X105581049Y-90227621D01*
X105583347Y-90228770D01*
X105584496Y-90229919D01*
X105585645Y-90232217D01*
X105585645Y-90235664D01*
X105584496Y-90237962D01*
X105583347Y-90239111D01*
X105581049Y-90240260D01*
X105571856Y-90240260D01*
X105608626Y-90251751D02*
X105594837Y-90251751D01*
X105601731Y-90251751D02*
X105601731Y-90227621D01*
X105599433Y-90231068D01*
X105597135Y-90233366D01*
X105594837Y-90234515D01*
X105631607Y-90251751D02*
X105617818Y-90251751D01*
X105624712Y-90251751D02*
X105624712Y-90227621D01*
X105622414Y-90231068D01*
X105620116Y-90233366D01*
X105617818Y-90234515D01*
X105655737Y-90251751D02*
X105647693Y-90240260D01*
X105641948Y-90251751D02*
X105641948Y-90227621D01*
X105651141Y-90227621D01*
X105653439Y-90228770D01*
X105654588Y-90229919D01*
X105655737Y-90232217D01*
X105655737Y-90235664D01*
X105654588Y-90237962D01*
X105653439Y-90239111D01*
X105651141Y-90240260D01*
X105641948Y-90240260D01*
M02*
