M48
;DRILL file {KiCad 4.0.6} date 05/08/17 07:17:54
;FORMAT={-:-/ absolute / inch / decimal}
FMAT,2
INCH,TZ
T1C0.020
T2C0.024
T3C0.059
T4C0.079
%
G90
G05
M72
T1
X4.8749Y-3.9986
X5.072Y-4.1298
X5.1393Y-4.0446
X5.1957Y-4.2911
X5.3178Y-4.4973
X5.3219Y-4.0417
X5.3219Y-4.1281
X5.465Y-4.6375
T2
X3.7141Y-3.4149
X4.2038Y-4.9415
X4.4087Y-4.5269
X4.4661Y-4.1126
X4.6651Y-3.9816
X4.7521Y-4.2873
X4.8143Y-4.1845
X4.8258Y-4.3999
X5.1929Y-4.9578
X5.2198Y-3.4237
X5.24Y-3.2824
X5.34Y-3.8369
X5.4484Y-5.0562
X5.4553Y-4.1959
X5.5247Y-3.801
X5.5265Y-3.4687
X5.6487Y-3.425
T3
X3.637Y-4.0393
X3.637Y-4.3438
T4
X4.3381Y-4.1446
X4.6531Y-3.8286
X4.6531Y-4.4596
X4.9681Y-4.1446
T0
M30
