G04 #@! TF.FileFunction,Other,Comment*
%FSLAX46Y46*%
G04 Gerber Fmt 4.6, Leading zero omitted, Abs format (unit mm)*
G04 Created by KiCad (PCBNEW 4.0.6) date 05/08/17 07:17:45*
%MOMM*%
%LPD*%
G01*
G04 APERTURE LIST*
%ADD10C,0.100000*%
%ADD11C,0.254000*%
%ADD12C,0.080000*%
G04 APERTURE END LIST*
D10*
D11*
X130960100Y-117333900D02*
G75*
G03X130960100Y-117333900I-635000J0D01*
G01*
X106956100Y-117338900D02*
G75*
G03X106956100Y-117338900I-635000J0D01*
G01*
X130829100Y-93289900D02*
G75*
G03X130829100Y-93289900I-635000J0D01*
G01*
X106894100Y-93409900D02*
G75*
G03X106894100Y-93409900I-635000J0D01*
G01*
X126941100Y-113411900D02*
G75*
G03X126941100Y-113411900I-635000J0D01*
G01*
X111033100Y-113399900D02*
G75*
G03X111033100Y-113399900I-635000J0D01*
G01*
X127029100Y-97417900D02*
G75*
G03X127029100Y-97417900I-635000J0D01*
G01*
X110898100Y-97419900D02*
G75*
G03X110898100Y-97419900I-635000J0D01*
G01*
X138962100Y-125426900D02*
G75*
G03X138962100Y-125426900I-635000J0D01*
G01*
X98901100Y-125325900D02*
G75*
G03X98901100Y-125325900I-635000J0D01*
G01*
X138893100Y-85326900D02*
G75*
G03X138893100Y-85326900I-635000J0D01*
G01*
X98998100Y-85358900D02*
G75*
G03X98998100Y-85358900I-635000J0D01*
G01*
X134923100Y-121406900D02*
G75*
G03X134923100Y-121406900I-635000J0D01*
G01*
X103035100Y-121407900D02*
G75*
G03X103035100Y-121407900I-635000J0D01*
G01*
X134974100Y-89424900D02*
G75*
G03X134974100Y-89424900I-635000J0D01*
G01*
X102907100Y-89399900D02*
G75*
G03X102907100Y-89399900I-635000J0D01*
G01*
D12*
X145288490Y-91716529D02*
X146012300Y-91987957D01*
X145288490Y-92259386D01*
X146328966Y-91399862D02*
X146871823Y-91399862D01*
X146600395Y-92349862D02*
X146600395Y-91399862D01*
X147188490Y-92349862D02*
X147188490Y-91399862D01*
X147550395Y-91399862D01*
X147640871Y-91445100D01*
X147686110Y-91490338D01*
X147731348Y-91580814D01*
X147731348Y-91716529D01*
X147686110Y-91807005D01*
X147640871Y-91852243D01*
X147550395Y-91897481D01*
X147188490Y-91897481D01*
X147912300Y-92440338D02*
X148636110Y-92440338D01*
X148817062Y-92304624D02*
X148952777Y-92349862D01*
X149178967Y-92349862D01*
X149269443Y-92304624D01*
X149314681Y-92259386D01*
X149359920Y-92168910D01*
X149359920Y-92078433D01*
X149314681Y-91987957D01*
X149269443Y-91942719D01*
X149178967Y-91897481D01*
X148998015Y-91852243D01*
X148907539Y-91807005D01*
X148862300Y-91761767D01*
X148817062Y-91671290D01*
X148817062Y-91580814D01*
X148862300Y-91490338D01*
X148907539Y-91445100D01*
X148998015Y-91399862D01*
X149224205Y-91399862D01*
X149359920Y-91445100D01*
X149767062Y-92349862D02*
X149767062Y-91399862D01*
X150717063Y-91445100D02*
X150626586Y-91399862D01*
X150490872Y-91399862D01*
X150355158Y-91445100D01*
X150264682Y-91535576D01*
X150219443Y-91626052D01*
X150174205Y-91807005D01*
X150174205Y-91942719D01*
X150219443Y-92123671D01*
X150264682Y-92214148D01*
X150355158Y-92304624D01*
X150490872Y-92349862D01*
X150581348Y-92349862D01*
X150717063Y-92304624D01*
X150762301Y-92259386D01*
X150762301Y-91942719D01*
X150581348Y-91942719D01*
X151169443Y-92349862D02*
X151169443Y-91399862D01*
X151712301Y-92349862D01*
X151712301Y-91399862D01*
X152119443Y-92078433D02*
X152571824Y-92078433D01*
X152028967Y-92349862D02*
X152345634Y-91399862D01*
X152662301Y-92349862D01*
X153431348Y-92349862D02*
X152978967Y-92349862D01*
X152978967Y-91399862D01*
X153521825Y-92440338D02*
X154245635Y-92440338D01*
X154471825Y-92349862D02*
X154471825Y-91399862D01*
X155014683Y-92349862D01*
X155014683Y-91399862D01*
X155421825Y-92078433D02*
X155874206Y-92078433D01*
X155331349Y-92349862D02*
X155648016Y-91399862D01*
X155964683Y-92349862D01*
X156281349Y-92349862D02*
X156281349Y-91399862D01*
X156598016Y-92078433D01*
X156914683Y-91399862D01*
X156914683Y-92349862D01*
X157367063Y-91852243D02*
X157683730Y-91852243D01*
X157819444Y-92349862D02*
X157367063Y-92349862D01*
X157367063Y-91399862D01*
X157819444Y-91399862D01*
X143678890Y-81637929D02*
X144402700Y-81909357D01*
X143678890Y-82180786D01*
X144719366Y-81321262D02*
X145262223Y-81321262D01*
X144990795Y-82271262D02*
X144990795Y-81321262D01*
X145578890Y-82271262D02*
X145578890Y-81321262D01*
X145940795Y-81321262D01*
X146031271Y-81366500D01*
X146076510Y-81411738D01*
X146121748Y-81502214D01*
X146121748Y-81637929D01*
X146076510Y-81728405D01*
X146031271Y-81773643D01*
X145940795Y-81818881D01*
X145578890Y-81818881D01*
X146302700Y-82361738D02*
X147026510Y-82361738D01*
X147207462Y-82226024D02*
X147343177Y-82271262D01*
X147569367Y-82271262D01*
X147659843Y-82226024D01*
X147705081Y-82180786D01*
X147750320Y-82090310D01*
X147750320Y-81999833D01*
X147705081Y-81909357D01*
X147659843Y-81864119D01*
X147569367Y-81818881D01*
X147388415Y-81773643D01*
X147297939Y-81728405D01*
X147252700Y-81683167D01*
X147207462Y-81592690D01*
X147207462Y-81502214D01*
X147252700Y-81411738D01*
X147297939Y-81366500D01*
X147388415Y-81321262D01*
X147614605Y-81321262D01*
X147750320Y-81366500D01*
X148157462Y-82271262D02*
X148157462Y-81321262D01*
X149107463Y-81366500D02*
X149016986Y-81321262D01*
X148881272Y-81321262D01*
X148745558Y-81366500D01*
X148655082Y-81456976D01*
X148609843Y-81547452D01*
X148564605Y-81728405D01*
X148564605Y-81864119D01*
X148609843Y-82045071D01*
X148655082Y-82135548D01*
X148745558Y-82226024D01*
X148881272Y-82271262D01*
X148971748Y-82271262D01*
X149107463Y-82226024D01*
X149152701Y-82180786D01*
X149152701Y-81864119D01*
X148971748Y-81864119D01*
X149559843Y-82271262D02*
X149559843Y-81321262D01*
X150102701Y-82271262D01*
X150102701Y-81321262D01*
X150509843Y-81999833D02*
X150962224Y-81999833D01*
X150419367Y-82271262D02*
X150736034Y-81321262D01*
X151052701Y-82271262D01*
X151821748Y-82271262D02*
X151369367Y-82271262D01*
X151369367Y-81321262D01*
X151912225Y-82361738D02*
X152636035Y-82361738D01*
X152862225Y-82271262D02*
X152862225Y-81321262D01*
X153405083Y-82271262D01*
X153405083Y-81321262D01*
X153812225Y-81999833D02*
X154264606Y-81999833D01*
X153721749Y-82271262D02*
X154038416Y-81321262D01*
X154355083Y-82271262D01*
X154671749Y-82271262D02*
X154671749Y-81321262D01*
X154988416Y-81999833D01*
X155305083Y-81321262D01*
X155305083Y-82271262D01*
X155757463Y-81773643D02*
X156074130Y-81773643D01*
X156209844Y-82271262D02*
X155757463Y-82271262D01*
X155757463Y-81321262D01*
X156209844Y-81321262D01*
X145364690Y-107693129D02*
X146088500Y-107964557D01*
X145364690Y-108235986D01*
X146405166Y-107376462D02*
X146948023Y-107376462D01*
X146676595Y-108326462D02*
X146676595Y-107376462D01*
X147264690Y-108326462D02*
X147264690Y-107376462D01*
X147626595Y-107376462D01*
X147717071Y-107421700D01*
X147762310Y-107466938D01*
X147807548Y-107557414D01*
X147807548Y-107693129D01*
X147762310Y-107783605D01*
X147717071Y-107828843D01*
X147626595Y-107874081D01*
X147264690Y-107874081D01*
X147988500Y-108416938D02*
X148712310Y-108416938D01*
X148893262Y-108281224D02*
X149028977Y-108326462D01*
X149255167Y-108326462D01*
X149345643Y-108281224D01*
X149390881Y-108235986D01*
X149436120Y-108145510D01*
X149436120Y-108055033D01*
X149390881Y-107964557D01*
X149345643Y-107919319D01*
X149255167Y-107874081D01*
X149074215Y-107828843D01*
X148983739Y-107783605D01*
X148938500Y-107738367D01*
X148893262Y-107647890D01*
X148893262Y-107557414D01*
X148938500Y-107466938D01*
X148983739Y-107421700D01*
X149074215Y-107376462D01*
X149300405Y-107376462D01*
X149436120Y-107421700D01*
X149843262Y-108326462D02*
X149843262Y-107376462D01*
X150793263Y-107421700D02*
X150702786Y-107376462D01*
X150567072Y-107376462D01*
X150431358Y-107421700D01*
X150340882Y-107512176D01*
X150295643Y-107602652D01*
X150250405Y-107783605D01*
X150250405Y-107919319D01*
X150295643Y-108100271D01*
X150340882Y-108190748D01*
X150431358Y-108281224D01*
X150567072Y-108326462D01*
X150657548Y-108326462D01*
X150793263Y-108281224D01*
X150838501Y-108235986D01*
X150838501Y-107919319D01*
X150657548Y-107919319D01*
X151245643Y-108326462D02*
X151245643Y-107376462D01*
X151788501Y-108326462D01*
X151788501Y-107376462D01*
X152195643Y-108055033D02*
X152648024Y-108055033D01*
X152105167Y-108326462D02*
X152421834Y-107376462D01*
X152738501Y-108326462D01*
X153507548Y-108326462D02*
X153055167Y-108326462D01*
X153055167Y-107376462D01*
X153598025Y-108416938D02*
X154321835Y-108416938D01*
X154548025Y-108326462D02*
X154548025Y-107376462D01*
X155090883Y-108326462D01*
X155090883Y-107376462D01*
X155498025Y-108055033D02*
X155950406Y-108055033D01*
X155407549Y-108326462D02*
X155724216Y-107376462D01*
X156040883Y-108326462D01*
X156357549Y-108326462D02*
X156357549Y-107376462D01*
X156674216Y-108055033D01*
X156990883Y-107376462D01*
X156990883Y-108326462D01*
X157443263Y-107828843D02*
X157759930Y-107828843D01*
X157895644Y-108326462D02*
X157443263Y-108326462D01*
X157443263Y-107376462D01*
X157895644Y-107376462D01*
X145237690Y-110461729D02*
X145961500Y-110733157D01*
X145237690Y-111004586D01*
X146278166Y-110145062D02*
X146821023Y-110145062D01*
X146549595Y-111095062D02*
X146549595Y-110145062D01*
X147137690Y-111095062D02*
X147137690Y-110145062D01*
X147499595Y-110145062D01*
X147590071Y-110190300D01*
X147635310Y-110235538D01*
X147680548Y-110326014D01*
X147680548Y-110461729D01*
X147635310Y-110552205D01*
X147590071Y-110597443D01*
X147499595Y-110642681D01*
X147137690Y-110642681D01*
X147861500Y-111185538D02*
X148585310Y-111185538D01*
X148766262Y-111049824D02*
X148901977Y-111095062D01*
X149128167Y-111095062D01*
X149218643Y-111049824D01*
X149263881Y-111004586D01*
X149309120Y-110914110D01*
X149309120Y-110823633D01*
X149263881Y-110733157D01*
X149218643Y-110687919D01*
X149128167Y-110642681D01*
X148947215Y-110597443D01*
X148856739Y-110552205D01*
X148811500Y-110506967D01*
X148766262Y-110416490D01*
X148766262Y-110326014D01*
X148811500Y-110235538D01*
X148856739Y-110190300D01*
X148947215Y-110145062D01*
X149173405Y-110145062D01*
X149309120Y-110190300D01*
X149716262Y-111095062D02*
X149716262Y-110145062D01*
X150666263Y-110190300D02*
X150575786Y-110145062D01*
X150440072Y-110145062D01*
X150304358Y-110190300D01*
X150213882Y-110280776D01*
X150168643Y-110371252D01*
X150123405Y-110552205D01*
X150123405Y-110687919D01*
X150168643Y-110868871D01*
X150213882Y-110959348D01*
X150304358Y-111049824D01*
X150440072Y-111095062D01*
X150530548Y-111095062D01*
X150666263Y-111049824D01*
X150711501Y-111004586D01*
X150711501Y-110687919D01*
X150530548Y-110687919D01*
X151118643Y-111095062D02*
X151118643Y-110145062D01*
X151661501Y-111095062D01*
X151661501Y-110145062D01*
X152068643Y-110823633D02*
X152521024Y-110823633D01*
X151978167Y-111095062D02*
X152294834Y-110145062D01*
X152611501Y-111095062D01*
X153380548Y-111095062D02*
X152928167Y-111095062D01*
X152928167Y-110145062D01*
X153471025Y-111185538D02*
X154194835Y-111185538D01*
X154421025Y-111095062D02*
X154421025Y-110145062D01*
X154963883Y-111095062D01*
X154963883Y-110145062D01*
X155371025Y-110823633D02*
X155823406Y-110823633D01*
X155280549Y-111095062D02*
X155597216Y-110145062D01*
X155913883Y-111095062D01*
X156230549Y-111095062D02*
X156230549Y-110145062D01*
X156547216Y-110823633D01*
X156863883Y-110145062D01*
X156863883Y-111095062D01*
X157316263Y-110597443D02*
X157632930Y-110597443D01*
X157768644Y-111095062D02*
X157316263Y-111095062D01*
X157316263Y-110145062D01*
X157768644Y-110145062D01*
X145288490Y-97126729D02*
X146012300Y-97398157D01*
X145288490Y-97669586D01*
X146328966Y-96810062D02*
X146871823Y-96810062D01*
X146600395Y-97760062D02*
X146600395Y-96810062D01*
X147188490Y-97760062D02*
X147188490Y-96810062D01*
X147550395Y-96810062D01*
X147640871Y-96855300D01*
X147686110Y-96900538D01*
X147731348Y-96991014D01*
X147731348Y-97126729D01*
X147686110Y-97217205D01*
X147640871Y-97262443D01*
X147550395Y-97307681D01*
X147188490Y-97307681D01*
X147912300Y-97850538D02*
X148636110Y-97850538D01*
X148817062Y-97714824D02*
X148952777Y-97760062D01*
X149178967Y-97760062D01*
X149269443Y-97714824D01*
X149314681Y-97669586D01*
X149359920Y-97579110D01*
X149359920Y-97488633D01*
X149314681Y-97398157D01*
X149269443Y-97352919D01*
X149178967Y-97307681D01*
X148998015Y-97262443D01*
X148907539Y-97217205D01*
X148862300Y-97171967D01*
X148817062Y-97081490D01*
X148817062Y-96991014D01*
X148862300Y-96900538D01*
X148907539Y-96855300D01*
X148998015Y-96810062D01*
X149224205Y-96810062D01*
X149359920Y-96855300D01*
X149767062Y-97760062D02*
X149767062Y-96810062D01*
X150717063Y-96855300D02*
X150626586Y-96810062D01*
X150490872Y-96810062D01*
X150355158Y-96855300D01*
X150264682Y-96945776D01*
X150219443Y-97036252D01*
X150174205Y-97217205D01*
X150174205Y-97352919D01*
X150219443Y-97533871D01*
X150264682Y-97624348D01*
X150355158Y-97714824D01*
X150490872Y-97760062D01*
X150581348Y-97760062D01*
X150717063Y-97714824D01*
X150762301Y-97669586D01*
X150762301Y-97352919D01*
X150581348Y-97352919D01*
X151169443Y-97760062D02*
X151169443Y-96810062D01*
X151712301Y-97760062D01*
X151712301Y-96810062D01*
X152119443Y-97488633D02*
X152571824Y-97488633D01*
X152028967Y-97760062D02*
X152345634Y-96810062D01*
X152662301Y-97760062D01*
X153431348Y-97760062D02*
X152978967Y-97760062D01*
X152978967Y-96810062D01*
X153521825Y-97850538D02*
X154245635Y-97850538D01*
X154471825Y-97760062D02*
X154471825Y-96810062D01*
X155014683Y-97760062D01*
X155014683Y-96810062D01*
X155421825Y-97488633D02*
X155874206Y-97488633D01*
X155331349Y-97760062D02*
X155648016Y-96810062D01*
X155964683Y-97760062D01*
X156281349Y-97760062D02*
X156281349Y-96810062D01*
X156598016Y-97488633D01*
X156914683Y-96810062D01*
X156914683Y-97760062D01*
X157367063Y-97262443D02*
X157683730Y-97262443D01*
X157819444Y-97760062D02*
X157367063Y-97760062D01*
X157367063Y-96810062D01*
X157819444Y-96810062D01*
X145263090Y-121739329D02*
X145986900Y-122010757D01*
X145263090Y-122282186D01*
X146303566Y-121422662D02*
X146846423Y-121422662D01*
X146574995Y-122372662D02*
X146574995Y-121422662D01*
X147163090Y-122372662D02*
X147163090Y-121422662D01*
X147524995Y-121422662D01*
X147615471Y-121467900D01*
X147660710Y-121513138D01*
X147705948Y-121603614D01*
X147705948Y-121739329D01*
X147660710Y-121829805D01*
X147615471Y-121875043D01*
X147524995Y-121920281D01*
X147163090Y-121920281D01*
X147886900Y-122463138D02*
X148610710Y-122463138D01*
X148791662Y-122327424D02*
X148927377Y-122372662D01*
X149153567Y-122372662D01*
X149244043Y-122327424D01*
X149289281Y-122282186D01*
X149334520Y-122191710D01*
X149334520Y-122101233D01*
X149289281Y-122010757D01*
X149244043Y-121965519D01*
X149153567Y-121920281D01*
X148972615Y-121875043D01*
X148882139Y-121829805D01*
X148836900Y-121784567D01*
X148791662Y-121694090D01*
X148791662Y-121603614D01*
X148836900Y-121513138D01*
X148882139Y-121467900D01*
X148972615Y-121422662D01*
X149198805Y-121422662D01*
X149334520Y-121467900D01*
X149741662Y-122372662D02*
X149741662Y-121422662D01*
X150691663Y-121467900D02*
X150601186Y-121422662D01*
X150465472Y-121422662D01*
X150329758Y-121467900D01*
X150239282Y-121558376D01*
X150194043Y-121648852D01*
X150148805Y-121829805D01*
X150148805Y-121965519D01*
X150194043Y-122146471D01*
X150239282Y-122236948D01*
X150329758Y-122327424D01*
X150465472Y-122372662D01*
X150555948Y-122372662D01*
X150691663Y-122327424D01*
X150736901Y-122282186D01*
X150736901Y-121965519D01*
X150555948Y-121965519D01*
X151144043Y-122372662D02*
X151144043Y-121422662D01*
X151686901Y-122372662D01*
X151686901Y-121422662D01*
X152094043Y-122101233D02*
X152546424Y-122101233D01*
X152003567Y-122372662D02*
X152320234Y-121422662D01*
X152636901Y-122372662D01*
X153405948Y-122372662D02*
X152953567Y-122372662D01*
X152953567Y-121422662D01*
X153496425Y-122463138D02*
X154220235Y-122463138D01*
X154446425Y-122372662D02*
X154446425Y-121422662D01*
X154989283Y-122372662D01*
X154989283Y-121422662D01*
X155396425Y-122101233D02*
X155848806Y-122101233D01*
X155305949Y-122372662D02*
X155622616Y-121422662D01*
X155939283Y-122372662D01*
X156255949Y-122372662D02*
X156255949Y-121422662D01*
X156572616Y-122101233D01*
X156889283Y-121422662D01*
X156889283Y-122372662D01*
X157341663Y-121875043D02*
X157658330Y-121875043D01*
X157794044Y-122372662D02*
X157341663Y-122372662D01*
X157341663Y-121422662D01*
X157794044Y-121422662D01*
X145237690Y-105026129D02*
X145961500Y-105297557D01*
X145237690Y-105568986D01*
X146278166Y-104709462D02*
X146821023Y-104709462D01*
X146549595Y-105659462D02*
X146549595Y-104709462D01*
X147137690Y-105659462D02*
X147137690Y-104709462D01*
X147499595Y-104709462D01*
X147590071Y-104754700D01*
X147635310Y-104799938D01*
X147680548Y-104890414D01*
X147680548Y-105026129D01*
X147635310Y-105116605D01*
X147590071Y-105161843D01*
X147499595Y-105207081D01*
X147137690Y-105207081D01*
X147861500Y-105749938D02*
X148585310Y-105749938D01*
X148766262Y-105614224D02*
X148901977Y-105659462D01*
X149128167Y-105659462D01*
X149218643Y-105614224D01*
X149263881Y-105568986D01*
X149309120Y-105478510D01*
X149309120Y-105388033D01*
X149263881Y-105297557D01*
X149218643Y-105252319D01*
X149128167Y-105207081D01*
X148947215Y-105161843D01*
X148856739Y-105116605D01*
X148811500Y-105071367D01*
X148766262Y-104980890D01*
X148766262Y-104890414D01*
X148811500Y-104799938D01*
X148856739Y-104754700D01*
X148947215Y-104709462D01*
X149173405Y-104709462D01*
X149309120Y-104754700D01*
X149716262Y-105659462D02*
X149716262Y-104709462D01*
X150666263Y-104754700D02*
X150575786Y-104709462D01*
X150440072Y-104709462D01*
X150304358Y-104754700D01*
X150213882Y-104845176D01*
X150168643Y-104935652D01*
X150123405Y-105116605D01*
X150123405Y-105252319D01*
X150168643Y-105433271D01*
X150213882Y-105523748D01*
X150304358Y-105614224D01*
X150440072Y-105659462D01*
X150530548Y-105659462D01*
X150666263Y-105614224D01*
X150711501Y-105568986D01*
X150711501Y-105252319D01*
X150530548Y-105252319D01*
X151118643Y-105659462D02*
X151118643Y-104709462D01*
X151661501Y-105659462D01*
X151661501Y-104709462D01*
X152068643Y-105388033D02*
X152521024Y-105388033D01*
X151978167Y-105659462D02*
X152294834Y-104709462D01*
X152611501Y-105659462D01*
X153380548Y-105659462D02*
X152928167Y-105659462D01*
X152928167Y-104709462D01*
X153471025Y-105749938D02*
X154194835Y-105749938D01*
X154421025Y-105659462D02*
X154421025Y-104709462D01*
X154963883Y-105659462D01*
X154963883Y-104709462D01*
X155371025Y-105388033D02*
X155823406Y-105388033D01*
X155280549Y-105659462D02*
X155597216Y-104709462D01*
X155913883Y-105659462D01*
X156230549Y-105659462D02*
X156230549Y-104709462D01*
X156547216Y-105388033D01*
X156863883Y-104709462D01*
X156863883Y-105659462D01*
X157316263Y-105161843D02*
X157632930Y-105161843D01*
X157768644Y-105659462D02*
X157316263Y-105659462D01*
X157316263Y-104709462D01*
X157768644Y-104709462D01*
X145263090Y-113128729D02*
X145986900Y-113400157D01*
X145263090Y-113671586D01*
X146303566Y-112812062D02*
X146846423Y-112812062D01*
X146574995Y-113762062D02*
X146574995Y-112812062D01*
X147163090Y-113762062D02*
X147163090Y-112812062D01*
X147524995Y-112812062D01*
X147615471Y-112857300D01*
X147660710Y-112902538D01*
X147705948Y-112993014D01*
X147705948Y-113128729D01*
X147660710Y-113219205D01*
X147615471Y-113264443D01*
X147524995Y-113309681D01*
X147163090Y-113309681D01*
X147886900Y-113852538D02*
X148610710Y-113852538D01*
X148791662Y-113716824D02*
X148927377Y-113762062D01*
X149153567Y-113762062D01*
X149244043Y-113716824D01*
X149289281Y-113671586D01*
X149334520Y-113581110D01*
X149334520Y-113490633D01*
X149289281Y-113400157D01*
X149244043Y-113354919D01*
X149153567Y-113309681D01*
X148972615Y-113264443D01*
X148882139Y-113219205D01*
X148836900Y-113173967D01*
X148791662Y-113083490D01*
X148791662Y-112993014D01*
X148836900Y-112902538D01*
X148882139Y-112857300D01*
X148972615Y-112812062D01*
X149198805Y-112812062D01*
X149334520Y-112857300D01*
X149741662Y-113762062D02*
X149741662Y-112812062D01*
X150691663Y-112857300D02*
X150601186Y-112812062D01*
X150465472Y-112812062D01*
X150329758Y-112857300D01*
X150239282Y-112947776D01*
X150194043Y-113038252D01*
X150148805Y-113219205D01*
X150148805Y-113354919D01*
X150194043Y-113535871D01*
X150239282Y-113626348D01*
X150329758Y-113716824D01*
X150465472Y-113762062D01*
X150555948Y-113762062D01*
X150691663Y-113716824D01*
X150736901Y-113671586D01*
X150736901Y-113354919D01*
X150555948Y-113354919D01*
X151144043Y-113762062D02*
X151144043Y-112812062D01*
X151686901Y-113762062D01*
X151686901Y-112812062D01*
X152094043Y-113490633D02*
X152546424Y-113490633D01*
X152003567Y-113762062D02*
X152320234Y-112812062D01*
X152636901Y-113762062D01*
X153405948Y-113762062D02*
X152953567Y-113762062D01*
X152953567Y-112812062D01*
X153496425Y-113852538D02*
X154220235Y-113852538D01*
X154446425Y-113762062D02*
X154446425Y-112812062D01*
X154989283Y-113762062D01*
X154989283Y-112812062D01*
X155396425Y-113490633D02*
X155848806Y-113490633D01*
X155305949Y-113762062D02*
X155622616Y-112812062D01*
X155939283Y-113762062D01*
X156255949Y-113762062D02*
X156255949Y-112812062D01*
X156572616Y-113490633D01*
X156889283Y-112812062D01*
X156889283Y-113762062D01*
X157341663Y-113264443D02*
X157658330Y-113264443D01*
X157794044Y-113762062D02*
X157341663Y-113762062D01*
X157341663Y-112812062D01*
X157794044Y-112812062D01*
X145263090Y-115922729D02*
X145986900Y-116194157D01*
X145263090Y-116465586D01*
X146303566Y-115606062D02*
X146846423Y-115606062D01*
X146574995Y-116556062D02*
X146574995Y-115606062D01*
X147163090Y-116556062D02*
X147163090Y-115606062D01*
X147524995Y-115606062D01*
X147615471Y-115651300D01*
X147660710Y-115696538D01*
X147705948Y-115787014D01*
X147705948Y-115922729D01*
X147660710Y-116013205D01*
X147615471Y-116058443D01*
X147524995Y-116103681D01*
X147163090Y-116103681D01*
X147886900Y-116646538D02*
X148610710Y-116646538D01*
X148791662Y-116510824D02*
X148927377Y-116556062D01*
X149153567Y-116556062D01*
X149244043Y-116510824D01*
X149289281Y-116465586D01*
X149334520Y-116375110D01*
X149334520Y-116284633D01*
X149289281Y-116194157D01*
X149244043Y-116148919D01*
X149153567Y-116103681D01*
X148972615Y-116058443D01*
X148882139Y-116013205D01*
X148836900Y-115967967D01*
X148791662Y-115877490D01*
X148791662Y-115787014D01*
X148836900Y-115696538D01*
X148882139Y-115651300D01*
X148972615Y-115606062D01*
X149198805Y-115606062D01*
X149334520Y-115651300D01*
X149741662Y-116556062D02*
X149741662Y-115606062D01*
X150691663Y-115651300D02*
X150601186Y-115606062D01*
X150465472Y-115606062D01*
X150329758Y-115651300D01*
X150239282Y-115741776D01*
X150194043Y-115832252D01*
X150148805Y-116013205D01*
X150148805Y-116148919D01*
X150194043Y-116329871D01*
X150239282Y-116420348D01*
X150329758Y-116510824D01*
X150465472Y-116556062D01*
X150555948Y-116556062D01*
X150691663Y-116510824D01*
X150736901Y-116465586D01*
X150736901Y-116148919D01*
X150555948Y-116148919D01*
X151144043Y-116556062D02*
X151144043Y-115606062D01*
X151686901Y-116556062D01*
X151686901Y-115606062D01*
X152094043Y-116284633D02*
X152546424Y-116284633D01*
X152003567Y-116556062D02*
X152320234Y-115606062D01*
X152636901Y-116556062D01*
X153405948Y-116556062D02*
X152953567Y-116556062D01*
X152953567Y-115606062D01*
X153496425Y-116646538D02*
X154220235Y-116646538D01*
X154446425Y-116556062D02*
X154446425Y-115606062D01*
X154989283Y-116556062D01*
X154989283Y-115606062D01*
X155396425Y-116284633D02*
X155848806Y-116284633D01*
X155305949Y-116556062D02*
X155622616Y-115606062D01*
X155939283Y-116556062D01*
X156255949Y-116556062D02*
X156255949Y-115606062D01*
X156572616Y-116284633D01*
X156889283Y-115606062D01*
X156889283Y-116556062D01*
X157341663Y-116058443D02*
X157658330Y-116058443D01*
X157794044Y-116556062D02*
X157341663Y-116556062D01*
X157341663Y-115606062D01*
X157794044Y-115606062D01*
X145288490Y-99819129D02*
X146012300Y-100090557D01*
X145288490Y-100361986D01*
X146328966Y-99502462D02*
X146871823Y-99502462D01*
X146600395Y-100452462D02*
X146600395Y-99502462D01*
X147188490Y-100452462D02*
X147188490Y-99502462D01*
X147550395Y-99502462D01*
X147640871Y-99547700D01*
X147686110Y-99592938D01*
X147731348Y-99683414D01*
X147731348Y-99819129D01*
X147686110Y-99909605D01*
X147640871Y-99954843D01*
X147550395Y-100000081D01*
X147188490Y-100000081D01*
X147912300Y-100542938D02*
X148636110Y-100542938D01*
X148817062Y-100407224D02*
X148952777Y-100452462D01*
X149178967Y-100452462D01*
X149269443Y-100407224D01*
X149314681Y-100361986D01*
X149359920Y-100271510D01*
X149359920Y-100181033D01*
X149314681Y-100090557D01*
X149269443Y-100045319D01*
X149178967Y-100000081D01*
X148998015Y-99954843D01*
X148907539Y-99909605D01*
X148862300Y-99864367D01*
X148817062Y-99773890D01*
X148817062Y-99683414D01*
X148862300Y-99592938D01*
X148907539Y-99547700D01*
X148998015Y-99502462D01*
X149224205Y-99502462D01*
X149359920Y-99547700D01*
X149767062Y-100452462D02*
X149767062Y-99502462D01*
X150717063Y-99547700D02*
X150626586Y-99502462D01*
X150490872Y-99502462D01*
X150355158Y-99547700D01*
X150264682Y-99638176D01*
X150219443Y-99728652D01*
X150174205Y-99909605D01*
X150174205Y-100045319D01*
X150219443Y-100226271D01*
X150264682Y-100316748D01*
X150355158Y-100407224D01*
X150490872Y-100452462D01*
X150581348Y-100452462D01*
X150717063Y-100407224D01*
X150762301Y-100361986D01*
X150762301Y-100045319D01*
X150581348Y-100045319D01*
X151169443Y-100452462D02*
X151169443Y-99502462D01*
X151712301Y-100452462D01*
X151712301Y-99502462D01*
X152119443Y-100181033D02*
X152571824Y-100181033D01*
X152028967Y-100452462D02*
X152345634Y-99502462D01*
X152662301Y-100452462D01*
X153431348Y-100452462D02*
X152978967Y-100452462D01*
X152978967Y-99502462D01*
X153521825Y-100542938D02*
X154245635Y-100542938D01*
X154471825Y-100452462D02*
X154471825Y-99502462D01*
X155014683Y-100452462D01*
X155014683Y-99502462D01*
X155421825Y-100181033D02*
X155874206Y-100181033D01*
X155331349Y-100452462D02*
X155648016Y-99502462D01*
X155964683Y-100452462D01*
X156281349Y-100452462D02*
X156281349Y-99502462D01*
X156598016Y-100181033D01*
X156914683Y-99502462D01*
X156914683Y-100452462D01*
X157367063Y-99954843D02*
X157683730Y-99954843D01*
X157819444Y-100452462D02*
X157367063Y-100452462D01*
X157367063Y-99502462D01*
X157819444Y-99502462D01*
X129281290Y-119830329D02*
X130005100Y-120101757D01*
X129281290Y-120373186D01*
X130321766Y-119513662D02*
X130864623Y-119513662D01*
X130593195Y-120463662D02*
X130593195Y-119513662D01*
X131181290Y-120463662D02*
X131181290Y-119513662D01*
X131543195Y-119513662D01*
X131633671Y-119558900D01*
X131678910Y-119604138D01*
X131724148Y-119694614D01*
X131724148Y-119830329D01*
X131678910Y-119920805D01*
X131633671Y-119966043D01*
X131543195Y-120011281D01*
X131181290Y-120011281D01*
X131905100Y-120554138D02*
X132628910Y-120554138D01*
X132809862Y-120418424D02*
X132945577Y-120463662D01*
X133171767Y-120463662D01*
X133262243Y-120418424D01*
X133307481Y-120373186D01*
X133352720Y-120282710D01*
X133352720Y-120192233D01*
X133307481Y-120101757D01*
X133262243Y-120056519D01*
X133171767Y-120011281D01*
X132990815Y-119966043D01*
X132900339Y-119920805D01*
X132855100Y-119875567D01*
X132809862Y-119785090D01*
X132809862Y-119694614D01*
X132855100Y-119604138D01*
X132900339Y-119558900D01*
X132990815Y-119513662D01*
X133217005Y-119513662D01*
X133352720Y-119558900D01*
X133759862Y-120463662D02*
X133759862Y-119513662D01*
X134709863Y-119558900D02*
X134619386Y-119513662D01*
X134483672Y-119513662D01*
X134347958Y-119558900D01*
X134257482Y-119649376D01*
X134212243Y-119739852D01*
X134167005Y-119920805D01*
X134167005Y-120056519D01*
X134212243Y-120237471D01*
X134257482Y-120327948D01*
X134347958Y-120418424D01*
X134483672Y-120463662D01*
X134574148Y-120463662D01*
X134709863Y-120418424D01*
X134755101Y-120373186D01*
X134755101Y-120056519D01*
X134574148Y-120056519D01*
X135162243Y-120463662D02*
X135162243Y-119513662D01*
X135705101Y-120463662D01*
X135705101Y-119513662D01*
X136112243Y-120192233D02*
X136564624Y-120192233D01*
X136021767Y-120463662D02*
X136338434Y-119513662D01*
X136655101Y-120463662D01*
X137424148Y-120463662D02*
X136971767Y-120463662D01*
X136971767Y-119513662D01*
X137514625Y-120554138D02*
X138238435Y-120554138D01*
X138464625Y-120463662D02*
X138464625Y-119513662D01*
X139007483Y-120463662D01*
X139007483Y-119513662D01*
X139414625Y-120192233D02*
X139867006Y-120192233D01*
X139324149Y-120463662D02*
X139640816Y-119513662D01*
X139957483Y-120463662D01*
X140274149Y-120463662D02*
X140274149Y-119513662D01*
X140590816Y-120192233D01*
X140907483Y-119513662D01*
X140907483Y-120463662D01*
X141359863Y-119966043D02*
X141676530Y-119966043D01*
X141812244Y-120463662D02*
X141359863Y-120463662D01*
X141359863Y-119513662D01*
X141812244Y-119513662D01*
X105277290Y-119835329D02*
X106001100Y-120106757D01*
X105277290Y-120378186D01*
X106317766Y-119518662D02*
X106860623Y-119518662D01*
X106589195Y-120468662D02*
X106589195Y-119518662D01*
X107177290Y-120468662D02*
X107177290Y-119518662D01*
X107539195Y-119518662D01*
X107629671Y-119563900D01*
X107674910Y-119609138D01*
X107720148Y-119699614D01*
X107720148Y-119835329D01*
X107674910Y-119925805D01*
X107629671Y-119971043D01*
X107539195Y-120016281D01*
X107177290Y-120016281D01*
X107901100Y-120559138D02*
X108624910Y-120559138D01*
X108805862Y-120423424D02*
X108941577Y-120468662D01*
X109167767Y-120468662D01*
X109258243Y-120423424D01*
X109303481Y-120378186D01*
X109348720Y-120287710D01*
X109348720Y-120197233D01*
X109303481Y-120106757D01*
X109258243Y-120061519D01*
X109167767Y-120016281D01*
X108986815Y-119971043D01*
X108896339Y-119925805D01*
X108851100Y-119880567D01*
X108805862Y-119790090D01*
X108805862Y-119699614D01*
X108851100Y-119609138D01*
X108896339Y-119563900D01*
X108986815Y-119518662D01*
X109213005Y-119518662D01*
X109348720Y-119563900D01*
X109755862Y-120468662D02*
X109755862Y-119518662D01*
X110705863Y-119563900D02*
X110615386Y-119518662D01*
X110479672Y-119518662D01*
X110343958Y-119563900D01*
X110253482Y-119654376D01*
X110208243Y-119744852D01*
X110163005Y-119925805D01*
X110163005Y-120061519D01*
X110208243Y-120242471D01*
X110253482Y-120332948D01*
X110343958Y-120423424D01*
X110479672Y-120468662D01*
X110570148Y-120468662D01*
X110705863Y-120423424D01*
X110751101Y-120378186D01*
X110751101Y-120061519D01*
X110570148Y-120061519D01*
X111158243Y-120468662D02*
X111158243Y-119518662D01*
X111701101Y-120468662D01*
X111701101Y-119518662D01*
X112108243Y-120197233D02*
X112560624Y-120197233D01*
X112017767Y-120468662D02*
X112334434Y-119518662D01*
X112651101Y-120468662D01*
X113420148Y-120468662D02*
X112967767Y-120468662D01*
X112967767Y-119518662D01*
X113510625Y-120559138D02*
X114234435Y-120559138D01*
X114460625Y-120468662D02*
X114460625Y-119518662D01*
X115003483Y-120468662D01*
X115003483Y-119518662D01*
X115410625Y-120197233D02*
X115863006Y-120197233D01*
X115320149Y-120468662D02*
X115636816Y-119518662D01*
X115953483Y-120468662D01*
X116270149Y-120468662D02*
X116270149Y-119518662D01*
X116586816Y-120197233D01*
X116903483Y-119518662D01*
X116903483Y-120468662D01*
X117355863Y-119971043D02*
X117672530Y-119971043D01*
X117808244Y-120468662D02*
X117355863Y-120468662D01*
X117355863Y-119518662D01*
X117808244Y-119518662D01*
X129150290Y-95786329D02*
X129874100Y-96057757D01*
X129150290Y-96329186D01*
X130190766Y-95469662D02*
X130733623Y-95469662D01*
X130462195Y-96419662D02*
X130462195Y-95469662D01*
X131050290Y-96419662D02*
X131050290Y-95469662D01*
X131412195Y-95469662D01*
X131502671Y-95514900D01*
X131547910Y-95560138D01*
X131593148Y-95650614D01*
X131593148Y-95786329D01*
X131547910Y-95876805D01*
X131502671Y-95922043D01*
X131412195Y-95967281D01*
X131050290Y-95967281D01*
X131774100Y-96510138D02*
X132497910Y-96510138D01*
X132678862Y-96374424D02*
X132814577Y-96419662D01*
X133040767Y-96419662D01*
X133131243Y-96374424D01*
X133176481Y-96329186D01*
X133221720Y-96238710D01*
X133221720Y-96148233D01*
X133176481Y-96057757D01*
X133131243Y-96012519D01*
X133040767Y-95967281D01*
X132859815Y-95922043D01*
X132769339Y-95876805D01*
X132724100Y-95831567D01*
X132678862Y-95741090D01*
X132678862Y-95650614D01*
X132724100Y-95560138D01*
X132769339Y-95514900D01*
X132859815Y-95469662D01*
X133086005Y-95469662D01*
X133221720Y-95514900D01*
X133628862Y-96419662D02*
X133628862Y-95469662D01*
X134578863Y-95514900D02*
X134488386Y-95469662D01*
X134352672Y-95469662D01*
X134216958Y-95514900D01*
X134126482Y-95605376D01*
X134081243Y-95695852D01*
X134036005Y-95876805D01*
X134036005Y-96012519D01*
X134081243Y-96193471D01*
X134126482Y-96283948D01*
X134216958Y-96374424D01*
X134352672Y-96419662D01*
X134443148Y-96419662D01*
X134578863Y-96374424D01*
X134624101Y-96329186D01*
X134624101Y-96012519D01*
X134443148Y-96012519D01*
X135031243Y-96419662D02*
X135031243Y-95469662D01*
X135574101Y-96419662D01*
X135574101Y-95469662D01*
X135981243Y-96148233D02*
X136433624Y-96148233D01*
X135890767Y-96419662D02*
X136207434Y-95469662D01*
X136524101Y-96419662D01*
X137293148Y-96419662D02*
X136840767Y-96419662D01*
X136840767Y-95469662D01*
X137383625Y-96510138D02*
X138107435Y-96510138D01*
X138333625Y-96419662D02*
X138333625Y-95469662D01*
X138876483Y-96419662D01*
X138876483Y-95469662D01*
X139283625Y-96148233D02*
X139736006Y-96148233D01*
X139193149Y-96419662D02*
X139509816Y-95469662D01*
X139826483Y-96419662D01*
X140143149Y-96419662D02*
X140143149Y-95469662D01*
X140459816Y-96148233D01*
X140776483Y-95469662D01*
X140776483Y-96419662D01*
X141228863Y-95922043D02*
X141545530Y-95922043D01*
X141681244Y-96419662D02*
X141228863Y-96419662D01*
X141228863Y-95469662D01*
X141681244Y-95469662D01*
X105215290Y-95906329D02*
X105939100Y-96177757D01*
X105215290Y-96449186D01*
X106255766Y-95589662D02*
X106798623Y-95589662D01*
X106527195Y-96539662D02*
X106527195Y-95589662D01*
X107115290Y-96539662D02*
X107115290Y-95589662D01*
X107477195Y-95589662D01*
X107567671Y-95634900D01*
X107612910Y-95680138D01*
X107658148Y-95770614D01*
X107658148Y-95906329D01*
X107612910Y-95996805D01*
X107567671Y-96042043D01*
X107477195Y-96087281D01*
X107115290Y-96087281D01*
X107839100Y-96630138D02*
X108562910Y-96630138D01*
X108743862Y-96494424D02*
X108879577Y-96539662D01*
X109105767Y-96539662D01*
X109196243Y-96494424D01*
X109241481Y-96449186D01*
X109286720Y-96358710D01*
X109286720Y-96268233D01*
X109241481Y-96177757D01*
X109196243Y-96132519D01*
X109105767Y-96087281D01*
X108924815Y-96042043D01*
X108834339Y-95996805D01*
X108789100Y-95951567D01*
X108743862Y-95861090D01*
X108743862Y-95770614D01*
X108789100Y-95680138D01*
X108834339Y-95634900D01*
X108924815Y-95589662D01*
X109151005Y-95589662D01*
X109286720Y-95634900D01*
X109693862Y-96539662D02*
X109693862Y-95589662D01*
X110643863Y-95634900D02*
X110553386Y-95589662D01*
X110417672Y-95589662D01*
X110281958Y-95634900D01*
X110191482Y-95725376D01*
X110146243Y-95815852D01*
X110101005Y-95996805D01*
X110101005Y-96132519D01*
X110146243Y-96313471D01*
X110191482Y-96403948D01*
X110281958Y-96494424D01*
X110417672Y-96539662D01*
X110508148Y-96539662D01*
X110643863Y-96494424D01*
X110689101Y-96449186D01*
X110689101Y-96132519D01*
X110508148Y-96132519D01*
X111096243Y-96539662D02*
X111096243Y-95589662D01*
X111639101Y-96539662D01*
X111639101Y-95589662D01*
X112046243Y-96268233D02*
X112498624Y-96268233D01*
X111955767Y-96539662D02*
X112272434Y-95589662D01*
X112589101Y-96539662D01*
X113358148Y-96539662D02*
X112905767Y-96539662D01*
X112905767Y-95589662D01*
X113448625Y-96630138D02*
X114172435Y-96630138D01*
X114398625Y-96539662D02*
X114398625Y-95589662D01*
X114941483Y-96539662D01*
X114941483Y-95589662D01*
X115348625Y-96268233D02*
X115801006Y-96268233D01*
X115258149Y-96539662D02*
X115574816Y-95589662D01*
X115891483Y-96539662D01*
X116208149Y-96539662D02*
X116208149Y-95589662D01*
X116524816Y-96268233D01*
X116841483Y-95589662D01*
X116841483Y-96539662D01*
X117293863Y-96042043D02*
X117610530Y-96042043D01*
X117746244Y-96539662D02*
X117293863Y-96539662D01*
X117293863Y-95589662D01*
X117746244Y-95589662D01*
X125262290Y-115908329D02*
X125986100Y-116179757D01*
X125262290Y-116451186D01*
X126302766Y-115591662D02*
X126845623Y-115591662D01*
X126574195Y-116541662D02*
X126574195Y-115591662D01*
X127162290Y-116541662D02*
X127162290Y-115591662D01*
X127524195Y-115591662D01*
X127614671Y-115636900D01*
X127659910Y-115682138D01*
X127705148Y-115772614D01*
X127705148Y-115908329D01*
X127659910Y-115998805D01*
X127614671Y-116044043D01*
X127524195Y-116089281D01*
X127162290Y-116089281D01*
X127886100Y-116632138D02*
X128609910Y-116632138D01*
X128790862Y-116496424D02*
X128926577Y-116541662D01*
X129152767Y-116541662D01*
X129243243Y-116496424D01*
X129288481Y-116451186D01*
X129333720Y-116360710D01*
X129333720Y-116270233D01*
X129288481Y-116179757D01*
X129243243Y-116134519D01*
X129152767Y-116089281D01*
X128971815Y-116044043D01*
X128881339Y-115998805D01*
X128836100Y-115953567D01*
X128790862Y-115863090D01*
X128790862Y-115772614D01*
X128836100Y-115682138D01*
X128881339Y-115636900D01*
X128971815Y-115591662D01*
X129198005Y-115591662D01*
X129333720Y-115636900D01*
X129740862Y-116541662D02*
X129740862Y-115591662D01*
X130690863Y-115636900D02*
X130600386Y-115591662D01*
X130464672Y-115591662D01*
X130328958Y-115636900D01*
X130238482Y-115727376D01*
X130193243Y-115817852D01*
X130148005Y-115998805D01*
X130148005Y-116134519D01*
X130193243Y-116315471D01*
X130238482Y-116405948D01*
X130328958Y-116496424D01*
X130464672Y-116541662D01*
X130555148Y-116541662D01*
X130690863Y-116496424D01*
X130736101Y-116451186D01*
X130736101Y-116134519D01*
X130555148Y-116134519D01*
X131143243Y-116541662D02*
X131143243Y-115591662D01*
X131686101Y-116541662D01*
X131686101Y-115591662D01*
X132093243Y-116270233D02*
X132545624Y-116270233D01*
X132002767Y-116541662D02*
X132319434Y-115591662D01*
X132636101Y-116541662D01*
X133405148Y-116541662D02*
X132952767Y-116541662D01*
X132952767Y-115591662D01*
X133495625Y-116632138D02*
X134219435Y-116632138D01*
X134445625Y-116541662D02*
X134445625Y-115591662D01*
X134988483Y-116541662D01*
X134988483Y-115591662D01*
X135395625Y-116270233D02*
X135848006Y-116270233D01*
X135305149Y-116541662D02*
X135621816Y-115591662D01*
X135938483Y-116541662D01*
X136255149Y-116541662D02*
X136255149Y-115591662D01*
X136571816Y-116270233D01*
X136888483Y-115591662D01*
X136888483Y-116541662D01*
X137340863Y-116044043D02*
X137657530Y-116044043D01*
X137793244Y-116541662D02*
X137340863Y-116541662D01*
X137340863Y-115591662D01*
X137793244Y-115591662D01*
X109354290Y-115896329D02*
X110078100Y-116167757D01*
X109354290Y-116439186D01*
X110394766Y-115579662D02*
X110937623Y-115579662D01*
X110666195Y-116529662D02*
X110666195Y-115579662D01*
X111254290Y-116529662D02*
X111254290Y-115579662D01*
X111616195Y-115579662D01*
X111706671Y-115624900D01*
X111751910Y-115670138D01*
X111797148Y-115760614D01*
X111797148Y-115896329D01*
X111751910Y-115986805D01*
X111706671Y-116032043D01*
X111616195Y-116077281D01*
X111254290Y-116077281D01*
X111978100Y-116620138D02*
X112701910Y-116620138D01*
X112882862Y-116484424D02*
X113018577Y-116529662D01*
X113244767Y-116529662D01*
X113335243Y-116484424D01*
X113380481Y-116439186D01*
X113425720Y-116348710D01*
X113425720Y-116258233D01*
X113380481Y-116167757D01*
X113335243Y-116122519D01*
X113244767Y-116077281D01*
X113063815Y-116032043D01*
X112973339Y-115986805D01*
X112928100Y-115941567D01*
X112882862Y-115851090D01*
X112882862Y-115760614D01*
X112928100Y-115670138D01*
X112973339Y-115624900D01*
X113063815Y-115579662D01*
X113290005Y-115579662D01*
X113425720Y-115624900D01*
X113832862Y-116529662D02*
X113832862Y-115579662D01*
X114782863Y-115624900D02*
X114692386Y-115579662D01*
X114556672Y-115579662D01*
X114420958Y-115624900D01*
X114330482Y-115715376D01*
X114285243Y-115805852D01*
X114240005Y-115986805D01*
X114240005Y-116122519D01*
X114285243Y-116303471D01*
X114330482Y-116393948D01*
X114420958Y-116484424D01*
X114556672Y-116529662D01*
X114647148Y-116529662D01*
X114782863Y-116484424D01*
X114828101Y-116439186D01*
X114828101Y-116122519D01*
X114647148Y-116122519D01*
X115235243Y-116529662D02*
X115235243Y-115579662D01*
X115778101Y-116529662D01*
X115778101Y-115579662D01*
X116185243Y-116258233D02*
X116637624Y-116258233D01*
X116094767Y-116529662D02*
X116411434Y-115579662D01*
X116728101Y-116529662D01*
X117497148Y-116529662D02*
X117044767Y-116529662D01*
X117044767Y-115579662D01*
X117587625Y-116620138D02*
X118311435Y-116620138D01*
X118537625Y-116529662D02*
X118537625Y-115579662D01*
X119080483Y-116529662D01*
X119080483Y-115579662D01*
X119487625Y-116258233D02*
X119940006Y-116258233D01*
X119397149Y-116529662D02*
X119713816Y-115579662D01*
X120030483Y-116529662D01*
X120347149Y-116529662D02*
X120347149Y-115579662D01*
X120663816Y-116258233D01*
X120980483Y-115579662D01*
X120980483Y-116529662D01*
X121432863Y-116032043D02*
X121749530Y-116032043D01*
X121885244Y-116529662D02*
X121432863Y-116529662D01*
X121432863Y-115579662D01*
X121885244Y-115579662D01*
X125350290Y-99914329D02*
X126074100Y-100185757D01*
X125350290Y-100457186D01*
X126390766Y-99597662D02*
X126933623Y-99597662D01*
X126662195Y-100547662D02*
X126662195Y-99597662D01*
X127250290Y-100547662D02*
X127250290Y-99597662D01*
X127612195Y-99597662D01*
X127702671Y-99642900D01*
X127747910Y-99688138D01*
X127793148Y-99778614D01*
X127793148Y-99914329D01*
X127747910Y-100004805D01*
X127702671Y-100050043D01*
X127612195Y-100095281D01*
X127250290Y-100095281D01*
X127974100Y-100638138D02*
X128697910Y-100638138D01*
X128878862Y-100502424D02*
X129014577Y-100547662D01*
X129240767Y-100547662D01*
X129331243Y-100502424D01*
X129376481Y-100457186D01*
X129421720Y-100366710D01*
X129421720Y-100276233D01*
X129376481Y-100185757D01*
X129331243Y-100140519D01*
X129240767Y-100095281D01*
X129059815Y-100050043D01*
X128969339Y-100004805D01*
X128924100Y-99959567D01*
X128878862Y-99869090D01*
X128878862Y-99778614D01*
X128924100Y-99688138D01*
X128969339Y-99642900D01*
X129059815Y-99597662D01*
X129286005Y-99597662D01*
X129421720Y-99642900D01*
X129828862Y-100547662D02*
X129828862Y-99597662D01*
X130778863Y-99642900D02*
X130688386Y-99597662D01*
X130552672Y-99597662D01*
X130416958Y-99642900D01*
X130326482Y-99733376D01*
X130281243Y-99823852D01*
X130236005Y-100004805D01*
X130236005Y-100140519D01*
X130281243Y-100321471D01*
X130326482Y-100411948D01*
X130416958Y-100502424D01*
X130552672Y-100547662D01*
X130643148Y-100547662D01*
X130778863Y-100502424D01*
X130824101Y-100457186D01*
X130824101Y-100140519D01*
X130643148Y-100140519D01*
X131231243Y-100547662D02*
X131231243Y-99597662D01*
X131774101Y-100547662D01*
X131774101Y-99597662D01*
X132181243Y-100276233D02*
X132633624Y-100276233D01*
X132090767Y-100547662D02*
X132407434Y-99597662D01*
X132724101Y-100547662D01*
X133493148Y-100547662D02*
X133040767Y-100547662D01*
X133040767Y-99597662D01*
X133583625Y-100638138D02*
X134307435Y-100638138D01*
X134533625Y-100547662D02*
X134533625Y-99597662D01*
X135076483Y-100547662D01*
X135076483Y-99597662D01*
X135483625Y-100276233D02*
X135936006Y-100276233D01*
X135393149Y-100547662D02*
X135709816Y-99597662D01*
X136026483Y-100547662D01*
X136343149Y-100547662D02*
X136343149Y-99597662D01*
X136659816Y-100276233D01*
X136976483Y-99597662D01*
X136976483Y-100547662D01*
X137428863Y-100050043D02*
X137745530Y-100050043D01*
X137881244Y-100547662D02*
X137428863Y-100547662D01*
X137428863Y-99597662D01*
X137881244Y-99597662D01*
X109219290Y-99916329D02*
X109943100Y-100187757D01*
X109219290Y-100459186D01*
X110259766Y-99599662D02*
X110802623Y-99599662D01*
X110531195Y-100549662D02*
X110531195Y-99599662D01*
X111119290Y-100549662D02*
X111119290Y-99599662D01*
X111481195Y-99599662D01*
X111571671Y-99644900D01*
X111616910Y-99690138D01*
X111662148Y-99780614D01*
X111662148Y-99916329D01*
X111616910Y-100006805D01*
X111571671Y-100052043D01*
X111481195Y-100097281D01*
X111119290Y-100097281D01*
X111843100Y-100640138D02*
X112566910Y-100640138D01*
X112747862Y-100504424D02*
X112883577Y-100549662D01*
X113109767Y-100549662D01*
X113200243Y-100504424D01*
X113245481Y-100459186D01*
X113290720Y-100368710D01*
X113290720Y-100278233D01*
X113245481Y-100187757D01*
X113200243Y-100142519D01*
X113109767Y-100097281D01*
X112928815Y-100052043D01*
X112838339Y-100006805D01*
X112793100Y-99961567D01*
X112747862Y-99871090D01*
X112747862Y-99780614D01*
X112793100Y-99690138D01*
X112838339Y-99644900D01*
X112928815Y-99599662D01*
X113155005Y-99599662D01*
X113290720Y-99644900D01*
X113697862Y-100549662D02*
X113697862Y-99599662D01*
X114647863Y-99644900D02*
X114557386Y-99599662D01*
X114421672Y-99599662D01*
X114285958Y-99644900D01*
X114195482Y-99735376D01*
X114150243Y-99825852D01*
X114105005Y-100006805D01*
X114105005Y-100142519D01*
X114150243Y-100323471D01*
X114195482Y-100413948D01*
X114285958Y-100504424D01*
X114421672Y-100549662D01*
X114512148Y-100549662D01*
X114647863Y-100504424D01*
X114693101Y-100459186D01*
X114693101Y-100142519D01*
X114512148Y-100142519D01*
X115100243Y-100549662D02*
X115100243Y-99599662D01*
X115643101Y-100549662D01*
X115643101Y-99599662D01*
X116050243Y-100278233D02*
X116502624Y-100278233D01*
X115959767Y-100549662D02*
X116276434Y-99599662D01*
X116593101Y-100549662D01*
X117362148Y-100549662D02*
X116909767Y-100549662D01*
X116909767Y-99599662D01*
X117452625Y-100640138D02*
X118176435Y-100640138D01*
X118402625Y-100549662D02*
X118402625Y-99599662D01*
X118945483Y-100549662D01*
X118945483Y-99599662D01*
X119352625Y-100278233D02*
X119805006Y-100278233D01*
X119262149Y-100549662D02*
X119578816Y-99599662D01*
X119895483Y-100549662D01*
X120212149Y-100549662D02*
X120212149Y-99599662D01*
X120528816Y-100278233D01*
X120845483Y-99599662D01*
X120845483Y-100549662D01*
X121297863Y-100052043D02*
X121614530Y-100052043D01*
X121750244Y-100549662D02*
X121297863Y-100549662D01*
X121297863Y-99599662D01*
X121750244Y-99599662D01*
X137283290Y-127923329D02*
X138007100Y-128194757D01*
X137283290Y-128466186D01*
X138323766Y-127606662D02*
X138866623Y-127606662D01*
X138595195Y-128556662D02*
X138595195Y-127606662D01*
X139183290Y-128556662D02*
X139183290Y-127606662D01*
X139545195Y-127606662D01*
X139635671Y-127651900D01*
X139680910Y-127697138D01*
X139726148Y-127787614D01*
X139726148Y-127923329D01*
X139680910Y-128013805D01*
X139635671Y-128059043D01*
X139545195Y-128104281D01*
X139183290Y-128104281D01*
X139907100Y-128647138D02*
X140630910Y-128647138D01*
X140811862Y-128511424D02*
X140947577Y-128556662D01*
X141173767Y-128556662D01*
X141264243Y-128511424D01*
X141309481Y-128466186D01*
X141354720Y-128375710D01*
X141354720Y-128285233D01*
X141309481Y-128194757D01*
X141264243Y-128149519D01*
X141173767Y-128104281D01*
X140992815Y-128059043D01*
X140902339Y-128013805D01*
X140857100Y-127968567D01*
X140811862Y-127878090D01*
X140811862Y-127787614D01*
X140857100Y-127697138D01*
X140902339Y-127651900D01*
X140992815Y-127606662D01*
X141219005Y-127606662D01*
X141354720Y-127651900D01*
X141761862Y-128556662D02*
X141761862Y-127606662D01*
X142711863Y-127651900D02*
X142621386Y-127606662D01*
X142485672Y-127606662D01*
X142349958Y-127651900D01*
X142259482Y-127742376D01*
X142214243Y-127832852D01*
X142169005Y-128013805D01*
X142169005Y-128149519D01*
X142214243Y-128330471D01*
X142259482Y-128420948D01*
X142349958Y-128511424D01*
X142485672Y-128556662D01*
X142576148Y-128556662D01*
X142711863Y-128511424D01*
X142757101Y-128466186D01*
X142757101Y-128149519D01*
X142576148Y-128149519D01*
X143164243Y-128556662D02*
X143164243Y-127606662D01*
X143707101Y-128556662D01*
X143707101Y-127606662D01*
X144114243Y-128285233D02*
X144566624Y-128285233D01*
X144023767Y-128556662D02*
X144340434Y-127606662D01*
X144657101Y-128556662D01*
X145426148Y-128556662D02*
X144973767Y-128556662D01*
X144973767Y-127606662D01*
X145516625Y-128647138D02*
X146240435Y-128647138D01*
X146466625Y-128556662D02*
X146466625Y-127606662D01*
X147009483Y-128556662D01*
X147009483Y-127606662D01*
X147416625Y-128285233D02*
X147869006Y-128285233D01*
X147326149Y-128556662D02*
X147642816Y-127606662D01*
X147959483Y-128556662D01*
X148276149Y-128556662D02*
X148276149Y-127606662D01*
X148592816Y-128285233D01*
X148909483Y-127606662D01*
X148909483Y-128556662D01*
X149361863Y-128059043D02*
X149678530Y-128059043D01*
X149814244Y-128556662D02*
X149361863Y-128556662D01*
X149361863Y-127606662D01*
X149814244Y-127606662D01*
X97222290Y-127822329D02*
X97946100Y-128093757D01*
X97222290Y-128365186D01*
X98262766Y-127505662D02*
X98805623Y-127505662D01*
X98534195Y-128455662D02*
X98534195Y-127505662D01*
X99122290Y-128455662D02*
X99122290Y-127505662D01*
X99484195Y-127505662D01*
X99574671Y-127550900D01*
X99619910Y-127596138D01*
X99665148Y-127686614D01*
X99665148Y-127822329D01*
X99619910Y-127912805D01*
X99574671Y-127958043D01*
X99484195Y-128003281D01*
X99122290Y-128003281D01*
X99846100Y-128546138D02*
X100569910Y-128546138D01*
X100750862Y-128410424D02*
X100886577Y-128455662D01*
X101112767Y-128455662D01*
X101203243Y-128410424D01*
X101248481Y-128365186D01*
X101293720Y-128274710D01*
X101293720Y-128184233D01*
X101248481Y-128093757D01*
X101203243Y-128048519D01*
X101112767Y-128003281D01*
X100931815Y-127958043D01*
X100841339Y-127912805D01*
X100796100Y-127867567D01*
X100750862Y-127777090D01*
X100750862Y-127686614D01*
X100796100Y-127596138D01*
X100841339Y-127550900D01*
X100931815Y-127505662D01*
X101158005Y-127505662D01*
X101293720Y-127550900D01*
X101700862Y-128455662D02*
X101700862Y-127505662D01*
X102650863Y-127550900D02*
X102560386Y-127505662D01*
X102424672Y-127505662D01*
X102288958Y-127550900D01*
X102198482Y-127641376D01*
X102153243Y-127731852D01*
X102108005Y-127912805D01*
X102108005Y-128048519D01*
X102153243Y-128229471D01*
X102198482Y-128319948D01*
X102288958Y-128410424D01*
X102424672Y-128455662D01*
X102515148Y-128455662D01*
X102650863Y-128410424D01*
X102696101Y-128365186D01*
X102696101Y-128048519D01*
X102515148Y-128048519D01*
X103103243Y-128455662D02*
X103103243Y-127505662D01*
X103646101Y-128455662D01*
X103646101Y-127505662D01*
X104053243Y-128184233D02*
X104505624Y-128184233D01*
X103962767Y-128455662D02*
X104279434Y-127505662D01*
X104596101Y-128455662D01*
X105365148Y-128455662D02*
X104912767Y-128455662D01*
X104912767Y-127505662D01*
X105455625Y-128546138D02*
X106179435Y-128546138D01*
X106405625Y-128455662D02*
X106405625Y-127505662D01*
X106948483Y-128455662D01*
X106948483Y-127505662D01*
X107355625Y-128184233D02*
X107808006Y-128184233D01*
X107265149Y-128455662D02*
X107581816Y-127505662D01*
X107898483Y-128455662D01*
X108215149Y-128455662D02*
X108215149Y-127505662D01*
X108531816Y-128184233D01*
X108848483Y-127505662D01*
X108848483Y-128455662D01*
X109300863Y-127958043D02*
X109617530Y-127958043D01*
X109753244Y-128455662D02*
X109300863Y-128455662D01*
X109300863Y-127505662D01*
X109753244Y-127505662D01*
X137214290Y-87823329D02*
X137938100Y-88094757D01*
X137214290Y-88366186D01*
X138254766Y-87506662D02*
X138797623Y-87506662D01*
X138526195Y-88456662D02*
X138526195Y-87506662D01*
X139114290Y-88456662D02*
X139114290Y-87506662D01*
X139476195Y-87506662D01*
X139566671Y-87551900D01*
X139611910Y-87597138D01*
X139657148Y-87687614D01*
X139657148Y-87823329D01*
X139611910Y-87913805D01*
X139566671Y-87959043D01*
X139476195Y-88004281D01*
X139114290Y-88004281D01*
X139838100Y-88547138D02*
X140561910Y-88547138D01*
X140742862Y-88411424D02*
X140878577Y-88456662D01*
X141104767Y-88456662D01*
X141195243Y-88411424D01*
X141240481Y-88366186D01*
X141285720Y-88275710D01*
X141285720Y-88185233D01*
X141240481Y-88094757D01*
X141195243Y-88049519D01*
X141104767Y-88004281D01*
X140923815Y-87959043D01*
X140833339Y-87913805D01*
X140788100Y-87868567D01*
X140742862Y-87778090D01*
X140742862Y-87687614D01*
X140788100Y-87597138D01*
X140833339Y-87551900D01*
X140923815Y-87506662D01*
X141150005Y-87506662D01*
X141285720Y-87551900D01*
X141692862Y-88456662D02*
X141692862Y-87506662D01*
X142642863Y-87551900D02*
X142552386Y-87506662D01*
X142416672Y-87506662D01*
X142280958Y-87551900D01*
X142190482Y-87642376D01*
X142145243Y-87732852D01*
X142100005Y-87913805D01*
X142100005Y-88049519D01*
X142145243Y-88230471D01*
X142190482Y-88320948D01*
X142280958Y-88411424D01*
X142416672Y-88456662D01*
X142507148Y-88456662D01*
X142642863Y-88411424D01*
X142688101Y-88366186D01*
X142688101Y-88049519D01*
X142507148Y-88049519D01*
X143095243Y-88456662D02*
X143095243Y-87506662D01*
X143638101Y-88456662D01*
X143638101Y-87506662D01*
X144045243Y-88185233D02*
X144497624Y-88185233D01*
X143954767Y-88456662D02*
X144271434Y-87506662D01*
X144588101Y-88456662D01*
X145357148Y-88456662D02*
X144904767Y-88456662D01*
X144904767Y-87506662D01*
X145447625Y-88547138D02*
X146171435Y-88547138D01*
X146397625Y-88456662D02*
X146397625Y-87506662D01*
X146940483Y-88456662D01*
X146940483Y-87506662D01*
X147347625Y-88185233D02*
X147800006Y-88185233D01*
X147257149Y-88456662D02*
X147573816Y-87506662D01*
X147890483Y-88456662D01*
X148207149Y-88456662D02*
X148207149Y-87506662D01*
X148523816Y-88185233D01*
X148840483Y-87506662D01*
X148840483Y-88456662D01*
X149292863Y-87959043D02*
X149609530Y-87959043D01*
X149745244Y-88456662D02*
X149292863Y-88456662D01*
X149292863Y-87506662D01*
X149745244Y-87506662D01*
X97319290Y-87855329D02*
X98043100Y-88126757D01*
X97319290Y-88398186D01*
X98359766Y-87538662D02*
X98902623Y-87538662D01*
X98631195Y-88488662D02*
X98631195Y-87538662D01*
X99219290Y-88488662D02*
X99219290Y-87538662D01*
X99581195Y-87538662D01*
X99671671Y-87583900D01*
X99716910Y-87629138D01*
X99762148Y-87719614D01*
X99762148Y-87855329D01*
X99716910Y-87945805D01*
X99671671Y-87991043D01*
X99581195Y-88036281D01*
X99219290Y-88036281D01*
X99943100Y-88579138D02*
X100666910Y-88579138D01*
X100847862Y-88443424D02*
X100983577Y-88488662D01*
X101209767Y-88488662D01*
X101300243Y-88443424D01*
X101345481Y-88398186D01*
X101390720Y-88307710D01*
X101390720Y-88217233D01*
X101345481Y-88126757D01*
X101300243Y-88081519D01*
X101209767Y-88036281D01*
X101028815Y-87991043D01*
X100938339Y-87945805D01*
X100893100Y-87900567D01*
X100847862Y-87810090D01*
X100847862Y-87719614D01*
X100893100Y-87629138D01*
X100938339Y-87583900D01*
X101028815Y-87538662D01*
X101255005Y-87538662D01*
X101390720Y-87583900D01*
X101797862Y-88488662D02*
X101797862Y-87538662D01*
X102747863Y-87583900D02*
X102657386Y-87538662D01*
X102521672Y-87538662D01*
X102385958Y-87583900D01*
X102295482Y-87674376D01*
X102250243Y-87764852D01*
X102205005Y-87945805D01*
X102205005Y-88081519D01*
X102250243Y-88262471D01*
X102295482Y-88352948D01*
X102385958Y-88443424D01*
X102521672Y-88488662D01*
X102612148Y-88488662D01*
X102747863Y-88443424D01*
X102793101Y-88398186D01*
X102793101Y-88081519D01*
X102612148Y-88081519D01*
X103200243Y-88488662D02*
X103200243Y-87538662D01*
X103743101Y-88488662D01*
X103743101Y-87538662D01*
X104150243Y-88217233D02*
X104602624Y-88217233D01*
X104059767Y-88488662D02*
X104376434Y-87538662D01*
X104693101Y-88488662D01*
X105462148Y-88488662D02*
X105009767Y-88488662D01*
X105009767Y-87538662D01*
X105552625Y-88579138D02*
X106276435Y-88579138D01*
X106502625Y-88488662D02*
X106502625Y-87538662D01*
X107045483Y-88488662D01*
X107045483Y-87538662D01*
X107452625Y-88217233D02*
X107905006Y-88217233D01*
X107362149Y-88488662D02*
X107678816Y-87538662D01*
X107995483Y-88488662D01*
X108312149Y-88488662D02*
X108312149Y-87538662D01*
X108628816Y-88217233D01*
X108945483Y-87538662D01*
X108945483Y-88488662D01*
X109397863Y-87991043D02*
X109714530Y-87991043D01*
X109850244Y-88488662D02*
X109397863Y-88488662D01*
X109397863Y-87538662D01*
X109850244Y-87538662D01*
X143534890Y-131002529D02*
X144258700Y-131273957D01*
X143534890Y-131545386D01*
X144575366Y-130685862D02*
X145118223Y-130685862D01*
X144846795Y-131635862D02*
X144846795Y-130685862D01*
X145434890Y-131635862D02*
X145434890Y-130685862D01*
X145796795Y-130685862D01*
X145887271Y-130731100D01*
X145932510Y-130776338D01*
X145977748Y-130866814D01*
X145977748Y-131002529D01*
X145932510Y-131093005D01*
X145887271Y-131138243D01*
X145796795Y-131183481D01*
X145434890Y-131183481D01*
X146158700Y-131726338D02*
X146882510Y-131726338D01*
X147063462Y-131590624D02*
X147199177Y-131635862D01*
X147425367Y-131635862D01*
X147515843Y-131590624D01*
X147561081Y-131545386D01*
X147606320Y-131454910D01*
X147606320Y-131364433D01*
X147561081Y-131273957D01*
X147515843Y-131228719D01*
X147425367Y-131183481D01*
X147244415Y-131138243D01*
X147153939Y-131093005D01*
X147108700Y-131047767D01*
X147063462Y-130957290D01*
X147063462Y-130866814D01*
X147108700Y-130776338D01*
X147153939Y-130731100D01*
X147244415Y-130685862D01*
X147470605Y-130685862D01*
X147606320Y-130731100D01*
X148013462Y-131635862D02*
X148013462Y-130685862D01*
X148963463Y-130731100D02*
X148872986Y-130685862D01*
X148737272Y-130685862D01*
X148601558Y-130731100D01*
X148511082Y-130821576D01*
X148465843Y-130912052D01*
X148420605Y-131093005D01*
X148420605Y-131228719D01*
X148465843Y-131409671D01*
X148511082Y-131500148D01*
X148601558Y-131590624D01*
X148737272Y-131635862D01*
X148827748Y-131635862D01*
X148963463Y-131590624D01*
X149008701Y-131545386D01*
X149008701Y-131228719D01*
X148827748Y-131228719D01*
X149415843Y-131635862D02*
X149415843Y-130685862D01*
X149958701Y-131635862D01*
X149958701Y-130685862D01*
X150365843Y-131364433D02*
X150818224Y-131364433D01*
X150275367Y-131635862D02*
X150592034Y-130685862D01*
X150908701Y-131635862D01*
X151677748Y-131635862D02*
X151225367Y-131635862D01*
X151225367Y-130685862D01*
X151768225Y-131726338D02*
X152492035Y-131726338D01*
X152718225Y-131635862D02*
X152718225Y-130685862D01*
X153261083Y-131635862D01*
X153261083Y-130685862D01*
X153668225Y-131364433D02*
X154120606Y-131364433D01*
X153577749Y-131635862D02*
X153894416Y-130685862D01*
X154211083Y-131635862D01*
X154527749Y-131635862D02*
X154527749Y-130685862D01*
X154844416Y-131364433D01*
X155161083Y-130685862D01*
X155161083Y-131635862D01*
X155613463Y-131138243D02*
X155930130Y-131138243D01*
X156065844Y-131635862D02*
X155613463Y-131635862D01*
X155613463Y-130685862D01*
X156065844Y-130685862D01*
X133244290Y-123903329D02*
X133968100Y-124174757D01*
X133244290Y-124446186D01*
X134284766Y-123586662D02*
X134827623Y-123586662D01*
X134556195Y-124536662D02*
X134556195Y-123586662D01*
X135144290Y-124536662D02*
X135144290Y-123586662D01*
X135506195Y-123586662D01*
X135596671Y-123631900D01*
X135641910Y-123677138D01*
X135687148Y-123767614D01*
X135687148Y-123903329D01*
X135641910Y-123993805D01*
X135596671Y-124039043D01*
X135506195Y-124084281D01*
X135144290Y-124084281D01*
X135868100Y-124627138D02*
X136591910Y-124627138D01*
X136772862Y-124491424D02*
X136908577Y-124536662D01*
X137134767Y-124536662D01*
X137225243Y-124491424D01*
X137270481Y-124446186D01*
X137315720Y-124355710D01*
X137315720Y-124265233D01*
X137270481Y-124174757D01*
X137225243Y-124129519D01*
X137134767Y-124084281D01*
X136953815Y-124039043D01*
X136863339Y-123993805D01*
X136818100Y-123948567D01*
X136772862Y-123858090D01*
X136772862Y-123767614D01*
X136818100Y-123677138D01*
X136863339Y-123631900D01*
X136953815Y-123586662D01*
X137180005Y-123586662D01*
X137315720Y-123631900D01*
X137722862Y-124536662D02*
X137722862Y-123586662D01*
X138672863Y-123631900D02*
X138582386Y-123586662D01*
X138446672Y-123586662D01*
X138310958Y-123631900D01*
X138220482Y-123722376D01*
X138175243Y-123812852D01*
X138130005Y-123993805D01*
X138130005Y-124129519D01*
X138175243Y-124310471D01*
X138220482Y-124400948D01*
X138310958Y-124491424D01*
X138446672Y-124536662D01*
X138537148Y-124536662D01*
X138672863Y-124491424D01*
X138718101Y-124446186D01*
X138718101Y-124129519D01*
X138537148Y-124129519D01*
X139125243Y-124536662D02*
X139125243Y-123586662D01*
X139668101Y-124536662D01*
X139668101Y-123586662D01*
X140075243Y-124265233D02*
X140527624Y-124265233D01*
X139984767Y-124536662D02*
X140301434Y-123586662D01*
X140618101Y-124536662D01*
X141387148Y-124536662D02*
X140934767Y-124536662D01*
X140934767Y-123586662D01*
X141477625Y-124627138D02*
X142201435Y-124627138D01*
X142427625Y-124536662D02*
X142427625Y-123586662D01*
X142970483Y-124536662D01*
X142970483Y-123586662D01*
X143377625Y-124265233D02*
X143830006Y-124265233D01*
X143287149Y-124536662D02*
X143603816Y-123586662D01*
X143920483Y-124536662D01*
X144237149Y-124536662D02*
X144237149Y-123586662D01*
X144553816Y-124265233D01*
X144870483Y-123586662D01*
X144870483Y-124536662D01*
X145322863Y-124039043D02*
X145639530Y-124039043D01*
X145775244Y-124536662D02*
X145322863Y-124536662D01*
X145322863Y-123586662D01*
X145775244Y-123586662D01*
X101356290Y-123904329D02*
X102080100Y-124175757D01*
X101356290Y-124447186D01*
X102396766Y-123587662D02*
X102939623Y-123587662D01*
X102668195Y-124537662D02*
X102668195Y-123587662D01*
X103256290Y-124537662D02*
X103256290Y-123587662D01*
X103618195Y-123587662D01*
X103708671Y-123632900D01*
X103753910Y-123678138D01*
X103799148Y-123768614D01*
X103799148Y-123904329D01*
X103753910Y-123994805D01*
X103708671Y-124040043D01*
X103618195Y-124085281D01*
X103256290Y-124085281D01*
X103980100Y-124628138D02*
X104703910Y-124628138D01*
X104884862Y-124492424D02*
X105020577Y-124537662D01*
X105246767Y-124537662D01*
X105337243Y-124492424D01*
X105382481Y-124447186D01*
X105427720Y-124356710D01*
X105427720Y-124266233D01*
X105382481Y-124175757D01*
X105337243Y-124130519D01*
X105246767Y-124085281D01*
X105065815Y-124040043D01*
X104975339Y-123994805D01*
X104930100Y-123949567D01*
X104884862Y-123859090D01*
X104884862Y-123768614D01*
X104930100Y-123678138D01*
X104975339Y-123632900D01*
X105065815Y-123587662D01*
X105292005Y-123587662D01*
X105427720Y-123632900D01*
X105834862Y-124537662D02*
X105834862Y-123587662D01*
X106784863Y-123632900D02*
X106694386Y-123587662D01*
X106558672Y-123587662D01*
X106422958Y-123632900D01*
X106332482Y-123723376D01*
X106287243Y-123813852D01*
X106242005Y-123994805D01*
X106242005Y-124130519D01*
X106287243Y-124311471D01*
X106332482Y-124401948D01*
X106422958Y-124492424D01*
X106558672Y-124537662D01*
X106649148Y-124537662D01*
X106784863Y-124492424D01*
X106830101Y-124447186D01*
X106830101Y-124130519D01*
X106649148Y-124130519D01*
X107237243Y-124537662D02*
X107237243Y-123587662D01*
X107780101Y-124537662D01*
X107780101Y-123587662D01*
X108187243Y-124266233D02*
X108639624Y-124266233D01*
X108096767Y-124537662D02*
X108413434Y-123587662D01*
X108730101Y-124537662D01*
X109499148Y-124537662D02*
X109046767Y-124537662D01*
X109046767Y-123587662D01*
X109589625Y-124628138D02*
X110313435Y-124628138D01*
X110539625Y-124537662D02*
X110539625Y-123587662D01*
X111082483Y-124537662D01*
X111082483Y-123587662D01*
X111489625Y-124266233D02*
X111942006Y-124266233D01*
X111399149Y-124537662D02*
X111715816Y-123587662D01*
X112032483Y-124537662D01*
X112349149Y-124537662D02*
X112349149Y-123587662D01*
X112665816Y-124266233D01*
X112982483Y-123587662D01*
X112982483Y-124537662D01*
X113434863Y-124040043D02*
X113751530Y-124040043D01*
X113887244Y-124537662D02*
X113434863Y-124537662D01*
X113434863Y-123587662D01*
X113887244Y-123587662D01*
X133295290Y-91921329D02*
X134019100Y-92192757D01*
X133295290Y-92464186D01*
X134335766Y-91604662D02*
X134878623Y-91604662D01*
X134607195Y-92554662D02*
X134607195Y-91604662D01*
X135195290Y-92554662D02*
X135195290Y-91604662D01*
X135557195Y-91604662D01*
X135647671Y-91649900D01*
X135692910Y-91695138D01*
X135738148Y-91785614D01*
X135738148Y-91921329D01*
X135692910Y-92011805D01*
X135647671Y-92057043D01*
X135557195Y-92102281D01*
X135195290Y-92102281D01*
X135919100Y-92645138D02*
X136642910Y-92645138D01*
X136823862Y-92509424D02*
X136959577Y-92554662D01*
X137185767Y-92554662D01*
X137276243Y-92509424D01*
X137321481Y-92464186D01*
X137366720Y-92373710D01*
X137366720Y-92283233D01*
X137321481Y-92192757D01*
X137276243Y-92147519D01*
X137185767Y-92102281D01*
X137004815Y-92057043D01*
X136914339Y-92011805D01*
X136869100Y-91966567D01*
X136823862Y-91876090D01*
X136823862Y-91785614D01*
X136869100Y-91695138D01*
X136914339Y-91649900D01*
X137004815Y-91604662D01*
X137231005Y-91604662D01*
X137366720Y-91649900D01*
X137773862Y-92554662D02*
X137773862Y-91604662D01*
X138723863Y-91649900D02*
X138633386Y-91604662D01*
X138497672Y-91604662D01*
X138361958Y-91649900D01*
X138271482Y-91740376D01*
X138226243Y-91830852D01*
X138181005Y-92011805D01*
X138181005Y-92147519D01*
X138226243Y-92328471D01*
X138271482Y-92418948D01*
X138361958Y-92509424D01*
X138497672Y-92554662D01*
X138588148Y-92554662D01*
X138723863Y-92509424D01*
X138769101Y-92464186D01*
X138769101Y-92147519D01*
X138588148Y-92147519D01*
X139176243Y-92554662D02*
X139176243Y-91604662D01*
X139719101Y-92554662D01*
X139719101Y-91604662D01*
X140126243Y-92283233D02*
X140578624Y-92283233D01*
X140035767Y-92554662D02*
X140352434Y-91604662D01*
X140669101Y-92554662D01*
X141438148Y-92554662D02*
X140985767Y-92554662D01*
X140985767Y-91604662D01*
X141528625Y-92645138D02*
X142252435Y-92645138D01*
X142478625Y-92554662D02*
X142478625Y-91604662D01*
X143021483Y-92554662D01*
X143021483Y-91604662D01*
X143428625Y-92283233D02*
X143881006Y-92283233D01*
X143338149Y-92554662D02*
X143654816Y-91604662D01*
X143971483Y-92554662D01*
X144288149Y-92554662D02*
X144288149Y-91604662D01*
X144604816Y-92283233D01*
X144921483Y-91604662D01*
X144921483Y-92554662D01*
X145373863Y-92057043D02*
X145690530Y-92057043D01*
X145826244Y-92554662D02*
X145373863Y-92554662D01*
X145373863Y-91604662D01*
X145826244Y-91604662D01*
X101228290Y-91896329D02*
X101952100Y-92167757D01*
X101228290Y-92439186D01*
X102268766Y-91579662D02*
X102811623Y-91579662D01*
X102540195Y-92529662D02*
X102540195Y-91579662D01*
X103128290Y-92529662D02*
X103128290Y-91579662D01*
X103490195Y-91579662D01*
X103580671Y-91624900D01*
X103625910Y-91670138D01*
X103671148Y-91760614D01*
X103671148Y-91896329D01*
X103625910Y-91986805D01*
X103580671Y-92032043D01*
X103490195Y-92077281D01*
X103128290Y-92077281D01*
X103852100Y-92620138D02*
X104575910Y-92620138D01*
X104756862Y-92484424D02*
X104892577Y-92529662D01*
X105118767Y-92529662D01*
X105209243Y-92484424D01*
X105254481Y-92439186D01*
X105299720Y-92348710D01*
X105299720Y-92258233D01*
X105254481Y-92167757D01*
X105209243Y-92122519D01*
X105118767Y-92077281D01*
X104937815Y-92032043D01*
X104847339Y-91986805D01*
X104802100Y-91941567D01*
X104756862Y-91851090D01*
X104756862Y-91760614D01*
X104802100Y-91670138D01*
X104847339Y-91624900D01*
X104937815Y-91579662D01*
X105164005Y-91579662D01*
X105299720Y-91624900D01*
X105706862Y-92529662D02*
X105706862Y-91579662D01*
X106656863Y-91624900D02*
X106566386Y-91579662D01*
X106430672Y-91579662D01*
X106294958Y-91624900D01*
X106204482Y-91715376D01*
X106159243Y-91805852D01*
X106114005Y-91986805D01*
X106114005Y-92122519D01*
X106159243Y-92303471D01*
X106204482Y-92393948D01*
X106294958Y-92484424D01*
X106430672Y-92529662D01*
X106521148Y-92529662D01*
X106656863Y-92484424D01*
X106702101Y-92439186D01*
X106702101Y-92122519D01*
X106521148Y-92122519D01*
X107109243Y-92529662D02*
X107109243Y-91579662D01*
X107652101Y-92529662D01*
X107652101Y-91579662D01*
X108059243Y-92258233D02*
X108511624Y-92258233D01*
X107968767Y-92529662D02*
X108285434Y-91579662D01*
X108602101Y-92529662D01*
X109371148Y-92529662D02*
X108918767Y-92529662D01*
X108918767Y-91579662D01*
X109461625Y-92620138D02*
X110185435Y-92620138D01*
X110411625Y-92529662D02*
X110411625Y-91579662D01*
X110954483Y-92529662D01*
X110954483Y-91579662D01*
X111361625Y-92258233D02*
X111814006Y-92258233D01*
X111271149Y-92529662D02*
X111587816Y-91579662D01*
X111904483Y-92529662D01*
X112221149Y-92529662D02*
X112221149Y-91579662D01*
X112537816Y-92258233D01*
X112854483Y-91579662D01*
X112854483Y-92529662D01*
X113306863Y-92032043D02*
X113623530Y-92032043D01*
X113759244Y-92529662D02*
X113306863Y-92529662D01*
X113306863Y-91579662D01*
X113759244Y-91579662D01*
X143577890Y-127158329D02*
X144301700Y-127429757D01*
X143577890Y-127701186D01*
X144618366Y-126841662D02*
X145161223Y-126841662D01*
X144889795Y-127791662D02*
X144889795Y-126841662D01*
X145477890Y-127791662D02*
X145477890Y-126841662D01*
X145839795Y-126841662D01*
X145930271Y-126886900D01*
X145975510Y-126932138D01*
X146020748Y-127022614D01*
X146020748Y-127158329D01*
X145975510Y-127248805D01*
X145930271Y-127294043D01*
X145839795Y-127339281D01*
X145477890Y-127339281D01*
X146201700Y-127882138D02*
X146925510Y-127882138D01*
X147106462Y-127746424D02*
X147242177Y-127791662D01*
X147468367Y-127791662D01*
X147558843Y-127746424D01*
X147604081Y-127701186D01*
X147649320Y-127610710D01*
X147649320Y-127520233D01*
X147604081Y-127429757D01*
X147558843Y-127384519D01*
X147468367Y-127339281D01*
X147287415Y-127294043D01*
X147196939Y-127248805D01*
X147151700Y-127203567D01*
X147106462Y-127113090D01*
X147106462Y-127022614D01*
X147151700Y-126932138D01*
X147196939Y-126886900D01*
X147287415Y-126841662D01*
X147513605Y-126841662D01*
X147649320Y-126886900D01*
X148056462Y-127791662D02*
X148056462Y-126841662D01*
X149006463Y-126886900D02*
X148915986Y-126841662D01*
X148780272Y-126841662D01*
X148644558Y-126886900D01*
X148554082Y-126977376D01*
X148508843Y-127067852D01*
X148463605Y-127248805D01*
X148463605Y-127384519D01*
X148508843Y-127565471D01*
X148554082Y-127655948D01*
X148644558Y-127746424D01*
X148780272Y-127791662D01*
X148870748Y-127791662D01*
X149006463Y-127746424D01*
X149051701Y-127701186D01*
X149051701Y-127384519D01*
X148870748Y-127384519D01*
X149458843Y-127791662D02*
X149458843Y-126841662D01*
X150001701Y-127791662D01*
X150001701Y-126841662D01*
X150408843Y-127520233D02*
X150861224Y-127520233D01*
X150318367Y-127791662D02*
X150635034Y-126841662D01*
X150951701Y-127791662D01*
X151720748Y-127791662D02*
X151268367Y-127791662D01*
X151268367Y-126841662D01*
X151811225Y-127882138D02*
X152535035Y-127882138D01*
X152761225Y-127791662D02*
X152761225Y-126841662D01*
X153304083Y-127791662D01*
X153304083Y-126841662D01*
X153711225Y-127520233D02*
X154163606Y-127520233D01*
X153620749Y-127791662D02*
X153937416Y-126841662D01*
X154254083Y-127791662D01*
X154570749Y-127791662D02*
X154570749Y-126841662D01*
X154887416Y-127520233D01*
X155204083Y-126841662D01*
X155204083Y-127791662D01*
X155656463Y-127294043D02*
X155973130Y-127294043D01*
X156108844Y-127791662D02*
X155656463Y-127791662D01*
X155656463Y-126841662D01*
X156108844Y-126841662D01*
X145313890Y-94535929D02*
X146037700Y-94807357D01*
X145313890Y-95078786D01*
X146354366Y-94219262D02*
X146897223Y-94219262D01*
X146625795Y-95169262D02*
X146625795Y-94219262D01*
X147213890Y-95169262D02*
X147213890Y-94219262D01*
X147575795Y-94219262D01*
X147666271Y-94264500D01*
X147711510Y-94309738D01*
X147756748Y-94400214D01*
X147756748Y-94535929D01*
X147711510Y-94626405D01*
X147666271Y-94671643D01*
X147575795Y-94716881D01*
X147213890Y-94716881D01*
X147937700Y-95259738D02*
X148661510Y-95259738D01*
X148842462Y-95124024D02*
X148978177Y-95169262D01*
X149204367Y-95169262D01*
X149294843Y-95124024D01*
X149340081Y-95078786D01*
X149385320Y-94988310D01*
X149385320Y-94897833D01*
X149340081Y-94807357D01*
X149294843Y-94762119D01*
X149204367Y-94716881D01*
X149023415Y-94671643D01*
X148932939Y-94626405D01*
X148887700Y-94581167D01*
X148842462Y-94490690D01*
X148842462Y-94400214D01*
X148887700Y-94309738D01*
X148932939Y-94264500D01*
X149023415Y-94219262D01*
X149249605Y-94219262D01*
X149385320Y-94264500D01*
X149792462Y-95169262D02*
X149792462Y-94219262D01*
X150742463Y-94264500D02*
X150651986Y-94219262D01*
X150516272Y-94219262D01*
X150380558Y-94264500D01*
X150290082Y-94354976D01*
X150244843Y-94445452D01*
X150199605Y-94626405D01*
X150199605Y-94762119D01*
X150244843Y-94943071D01*
X150290082Y-95033548D01*
X150380558Y-95124024D01*
X150516272Y-95169262D01*
X150606748Y-95169262D01*
X150742463Y-95124024D01*
X150787701Y-95078786D01*
X150787701Y-94762119D01*
X150606748Y-94762119D01*
X151194843Y-95169262D02*
X151194843Y-94219262D01*
X151737701Y-95169262D01*
X151737701Y-94219262D01*
X152144843Y-94897833D02*
X152597224Y-94897833D01*
X152054367Y-95169262D02*
X152371034Y-94219262D01*
X152687701Y-95169262D01*
X153456748Y-95169262D02*
X153004367Y-95169262D01*
X153004367Y-94219262D01*
X153547225Y-95259738D02*
X154271035Y-95259738D01*
X154497225Y-95169262D02*
X154497225Y-94219262D01*
X155040083Y-95169262D01*
X155040083Y-94219262D01*
X155447225Y-94897833D02*
X155899606Y-94897833D01*
X155356749Y-95169262D02*
X155673416Y-94219262D01*
X155990083Y-95169262D01*
X156306749Y-95169262D02*
X156306749Y-94219262D01*
X156623416Y-94897833D01*
X156940083Y-94219262D01*
X156940083Y-95169262D01*
X157392463Y-94671643D02*
X157709130Y-94671643D01*
X157844844Y-95169262D02*
X157392463Y-95169262D01*
X157392463Y-94219262D01*
X157844844Y-94219262D01*
X143653090Y-84486329D02*
X144376900Y-84757757D01*
X143653090Y-85029186D01*
X144693566Y-84169662D02*
X145236423Y-84169662D01*
X144964995Y-85119662D02*
X144964995Y-84169662D01*
X145553090Y-85119662D02*
X145553090Y-84169662D01*
X145914995Y-84169662D01*
X146005471Y-84214900D01*
X146050710Y-84260138D01*
X146095948Y-84350614D01*
X146095948Y-84486329D01*
X146050710Y-84576805D01*
X146005471Y-84622043D01*
X145914995Y-84667281D01*
X145553090Y-84667281D01*
X146276900Y-85210138D02*
X147000710Y-85210138D01*
X147181662Y-85074424D02*
X147317377Y-85119662D01*
X147543567Y-85119662D01*
X147634043Y-85074424D01*
X147679281Y-85029186D01*
X147724520Y-84938710D01*
X147724520Y-84848233D01*
X147679281Y-84757757D01*
X147634043Y-84712519D01*
X147543567Y-84667281D01*
X147362615Y-84622043D01*
X147272139Y-84576805D01*
X147226900Y-84531567D01*
X147181662Y-84441090D01*
X147181662Y-84350614D01*
X147226900Y-84260138D01*
X147272139Y-84214900D01*
X147362615Y-84169662D01*
X147588805Y-84169662D01*
X147724520Y-84214900D01*
X148131662Y-85119662D02*
X148131662Y-84169662D01*
X149081663Y-84214900D02*
X148991186Y-84169662D01*
X148855472Y-84169662D01*
X148719758Y-84214900D01*
X148629282Y-84305376D01*
X148584043Y-84395852D01*
X148538805Y-84576805D01*
X148538805Y-84712519D01*
X148584043Y-84893471D01*
X148629282Y-84983948D01*
X148719758Y-85074424D01*
X148855472Y-85119662D01*
X148945948Y-85119662D01*
X149081663Y-85074424D01*
X149126901Y-85029186D01*
X149126901Y-84712519D01*
X148945948Y-84712519D01*
X149534043Y-85119662D02*
X149534043Y-84169662D01*
X150076901Y-85119662D01*
X150076901Y-84169662D01*
X150484043Y-84848233D02*
X150936424Y-84848233D01*
X150393567Y-85119662D02*
X150710234Y-84169662D01*
X151026901Y-85119662D01*
X151795948Y-85119662D02*
X151343567Y-85119662D01*
X151343567Y-84169662D01*
X151886425Y-85210138D02*
X152610235Y-85210138D01*
X152836425Y-85119662D02*
X152836425Y-84169662D01*
X153379283Y-85119662D01*
X153379283Y-84169662D01*
X153786425Y-84848233D02*
X154238806Y-84848233D01*
X153695949Y-85119662D02*
X154012616Y-84169662D01*
X154329283Y-85119662D01*
X154645949Y-85119662D02*
X154645949Y-84169662D01*
X154962616Y-84848233D01*
X155279283Y-84169662D01*
X155279283Y-85119662D01*
X155731663Y-84622043D02*
X156048330Y-84622043D01*
X156184044Y-85119662D02*
X155731663Y-85119662D01*
X155731663Y-84169662D01*
X156184044Y-84169662D01*
X145237690Y-118716729D02*
X145961500Y-118988157D01*
X145237690Y-119259586D01*
X146278166Y-118400062D02*
X146821023Y-118400062D01*
X146549595Y-119350062D02*
X146549595Y-118400062D01*
X147137690Y-119350062D02*
X147137690Y-118400062D01*
X147499595Y-118400062D01*
X147590071Y-118445300D01*
X147635310Y-118490538D01*
X147680548Y-118581014D01*
X147680548Y-118716729D01*
X147635310Y-118807205D01*
X147590071Y-118852443D01*
X147499595Y-118897681D01*
X147137690Y-118897681D01*
X147861500Y-119440538D02*
X148585310Y-119440538D01*
X148766262Y-119304824D02*
X148901977Y-119350062D01*
X149128167Y-119350062D01*
X149218643Y-119304824D01*
X149263881Y-119259586D01*
X149309120Y-119169110D01*
X149309120Y-119078633D01*
X149263881Y-118988157D01*
X149218643Y-118942919D01*
X149128167Y-118897681D01*
X148947215Y-118852443D01*
X148856739Y-118807205D01*
X148811500Y-118761967D01*
X148766262Y-118671490D01*
X148766262Y-118581014D01*
X148811500Y-118490538D01*
X148856739Y-118445300D01*
X148947215Y-118400062D01*
X149173405Y-118400062D01*
X149309120Y-118445300D01*
X149716262Y-119350062D02*
X149716262Y-118400062D01*
X150666263Y-118445300D02*
X150575786Y-118400062D01*
X150440072Y-118400062D01*
X150304358Y-118445300D01*
X150213882Y-118535776D01*
X150168643Y-118626252D01*
X150123405Y-118807205D01*
X150123405Y-118942919D01*
X150168643Y-119123871D01*
X150213882Y-119214348D01*
X150304358Y-119304824D01*
X150440072Y-119350062D01*
X150530548Y-119350062D01*
X150666263Y-119304824D01*
X150711501Y-119259586D01*
X150711501Y-118942919D01*
X150530548Y-118942919D01*
X151118643Y-119350062D02*
X151118643Y-118400062D01*
X151661501Y-119350062D01*
X151661501Y-118400062D01*
X152068643Y-119078633D02*
X152521024Y-119078633D01*
X151978167Y-119350062D02*
X152294834Y-118400062D01*
X152611501Y-119350062D01*
X153380548Y-119350062D02*
X152928167Y-119350062D01*
X152928167Y-118400062D01*
X153471025Y-119440538D02*
X154194835Y-119440538D01*
X154421025Y-119350062D02*
X154421025Y-118400062D01*
X154963883Y-119350062D01*
X154963883Y-118400062D01*
X155371025Y-119078633D02*
X155823406Y-119078633D01*
X155280549Y-119350062D02*
X155597216Y-118400062D01*
X155913883Y-119350062D01*
X156230549Y-119350062D02*
X156230549Y-118400062D01*
X156547216Y-119078633D01*
X156863883Y-118400062D01*
X156863883Y-119350062D01*
X157316263Y-118852443D02*
X157632930Y-118852443D01*
X157768644Y-119350062D02*
X157316263Y-119350062D01*
X157316263Y-118400062D01*
X157768644Y-118400062D01*
X145313890Y-102384529D02*
X146037700Y-102655957D01*
X145313890Y-102927386D01*
X146354366Y-102067862D02*
X146897223Y-102067862D01*
X146625795Y-103017862D02*
X146625795Y-102067862D01*
X147213890Y-103017862D02*
X147213890Y-102067862D01*
X147575795Y-102067862D01*
X147666271Y-102113100D01*
X147711510Y-102158338D01*
X147756748Y-102248814D01*
X147756748Y-102384529D01*
X147711510Y-102475005D01*
X147666271Y-102520243D01*
X147575795Y-102565481D01*
X147213890Y-102565481D01*
X147937700Y-103108338D02*
X148661510Y-103108338D01*
X148842462Y-102972624D02*
X148978177Y-103017862D01*
X149204367Y-103017862D01*
X149294843Y-102972624D01*
X149340081Y-102927386D01*
X149385320Y-102836910D01*
X149385320Y-102746433D01*
X149340081Y-102655957D01*
X149294843Y-102610719D01*
X149204367Y-102565481D01*
X149023415Y-102520243D01*
X148932939Y-102475005D01*
X148887700Y-102429767D01*
X148842462Y-102339290D01*
X148842462Y-102248814D01*
X148887700Y-102158338D01*
X148932939Y-102113100D01*
X149023415Y-102067862D01*
X149249605Y-102067862D01*
X149385320Y-102113100D01*
X149792462Y-103017862D02*
X149792462Y-102067862D01*
X150742463Y-102113100D02*
X150651986Y-102067862D01*
X150516272Y-102067862D01*
X150380558Y-102113100D01*
X150290082Y-102203576D01*
X150244843Y-102294052D01*
X150199605Y-102475005D01*
X150199605Y-102610719D01*
X150244843Y-102791671D01*
X150290082Y-102882148D01*
X150380558Y-102972624D01*
X150516272Y-103017862D01*
X150606748Y-103017862D01*
X150742463Y-102972624D01*
X150787701Y-102927386D01*
X150787701Y-102610719D01*
X150606748Y-102610719D01*
X151194843Y-103017862D02*
X151194843Y-102067862D01*
X151737701Y-103017862D01*
X151737701Y-102067862D01*
X152144843Y-102746433D02*
X152597224Y-102746433D01*
X152054367Y-103017862D02*
X152371034Y-102067862D01*
X152687701Y-103017862D01*
X153456748Y-103017862D02*
X153004367Y-103017862D01*
X153004367Y-102067862D01*
X153547225Y-103108338D02*
X154271035Y-103108338D01*
X154497225Y-103017862D02*
X154497225Y-102067862D01*
X155040083Y-103017862D01*
X155040083Y-102067862D01*
X155447225Y-102746433D02*
X155899606Y-102746433D01*
X155356749Y-103017862D02*
X155673416Y-102067862D01*
X155990083Y-103017862D01*
X156306749Y-103017862D02*
X156306749Y-102067862D01*
X156623416Y-102746433D01*
X156940083Y-102067862D01*
X156940083Y-103017862D01*
X157392463Y-102520243D02*
X157709130Y-102520243D01*
X157844844Y-103017862D02*
X157392463Y-103017862D01*
X157392463Y-102067862D01*
X157844844Y-102067862D01*
X106038290Y-84605329D02*
X106762100Y-84876757D01*
X106038290Y-85148186D01*
X107078766Y-84288662D02*
X107621623Y-84288662D01*
X107350195Y-85238662D02*
X107350195Y-84288662D01*
X107938290Y-85238662D02*
X107938290Y-84288662D01*
X108300195Y-84288662D01*
X108390671Y-84333900D01*
X108435910Y-84379138D01*
X108481148Y-84469614D01*
X108481148Y-84605329D01*
X108435910Y-84695805D01*
X108390671Y-84741043D01*
X108300195Y-84786281D01*
X107938290Y-84786281D01*
X108662100Y-85329138D02*
X109385910Y-85329138D01*
X109566862Y-85193424D02*
X109702577Y-85238662D01*
X109928767Y-85238662D01*
X110019243Y-85193424D01*
X110064481Y-85148186D01*
X110109720Y-85057710D01*
X110109720Y-84967233D01*
X110064481Y-84876757D01*
X110019243Y-84831519D01*
X109928767Y-84786281D01*
X109747815Y-84741043D01*
X109657339Y-84695805D01*
X109612100Y-84650567D01*
X109566862Y-84560090D01*
X109566862Y-84469614D01*
X109612100Y-84379138D01*
X109657339Y-84333900D01*
X109747815Y-84288662D01*
X109974005Y-84288662D01*
X110109720Y-84333900D01*
X110516862Y-85238662D02*
X110516862Y-84288662D01*
X111466863Y-84333900D02*
X111376386Y-84288662D01*
X111240672Y-84288662D01*
X111104958Y-84333900D01*
X111014482Y-84424376D01*
X110969243Y-84514852D01*
X110924005Y-84695805D01*
X110924005Y-84831519D01*
X110969243Y-85012471D01*
X111014482Y-85102948D01*
X111104958Y-85193424D01*
X111240672Y-85238662D01*
X111331148Y-85238662D01*
X111466863Y-85193424D01*
X111512101Y-85148186D01*
X111512101Y-84831519D01*
X111331148Y-84831519D01*
X111919243Y-85238662D02*
X111919243Y-84288662D01*
X112462101Y-85238662D01*
X112462101Y-84288662D01*
X112869243Y-84967233D02*
X113321624Y-84967233D01*
X112778767Y-85238662D02*
X113095434Y-84288662D01*
X113412101Y-85238662D01*
X114181148Y-85238662D02*
X113728767Y-85238662D01*
X113728767Y-84288662D01*
X114271625Y-85329138D02*
X114995435Y-85329138D01*
X115221625Y-85238662D02*
X115221625Y-84288662D01*
X115764483Y-85238662D01*
X115764483Y-84288662D01*
X116171625Y-84967233D02*
X116624006Y-84967233D01*
X116081149Y-85238662D02*
X116397816Y-84288662D01*
X116714483Y-85238662D01*
X117031149Y-85238662D02*
X117031149Y-84288662D01*
X117347816Y-84967233D01*
X117664483Y-84288662D01*
X117664483Y-85238662D01*
X118116863Y-84741043D02*
X118433530Y-84741043D01*
X118569244Y-85238662D02*
X118116863Y-85238662D01*
X118116863Y-84288662D01*
X118569244Y-84288662D01*
X106193290Y-81569329D02*
X106917100Y-81840757D01*
X106193290Y-82112186D01*
X107233766Y-81252662D02*
X107776623Y-81252662D01*
X107505195Y-82202662D02*
X107505195Y-81252662D01*
X108093290Y-82202662D02*
X108093290Y-81252662D01*
X108455195Y-81252662D01*
X108545671Y-81297900D01*
X108590910Y-81343138D01*
X108636148Y-81433614D01*
X108636148Y-81569329D01*
X108590910Y-81659805D01*
X108545671Y-81705043D01*
X108455195Y-81750281D01*
X108093290Y-81750281D01*
X108817100Y-82293138D02*
X109540910Y-82293138D01*
X109721862Y-82157424D02*
X109857577Y-82202662D01*
X110083767Y-82202662D01*
X110174243Y-82157424D01*
X110219481Y-82112186D01*
X110264720Y-82021710D01*
X110264720Y-81931233D01*
X110219481Y-81840757D01*
X110174243Y-81795519D01*
X110083767Y-81750281D01*
X109902815Y-81705043D01*
X109812339Y-81659805D01*
X109767100Y-81614567D01*
X109721862Y-81524090D01*
X109721862Y-81433614D01*
X109767100Y-81343138D01*
X109812339Y-81297900D01*
X109902815Y-81252662D01*
X110129005Y-81252662D01*
X110264720Y-81297900D01*
X110671862Y-82202662D02*
X110671862Y-81252662D01*
X111621863Y-81297900D02*
X111531386Y-81252662D01*
X111395672Y-81252662D01*
X111259958Y-81297900D01*
X111169482Y-81388376D01*
X111124243Y-81478852D01*
X111079005Y-81659805D01*
X111079005Y-81795519D01*
X111124243Y-81976471D01*
X111169482Y-82066948D01*
X111259958Y-82157424D01*
X111395672Y-82202662D01*
X111486148Y-82202662D01*
X111621863Y-82157424D01*
X111667101Y-82112186D01*
X111667101Y-81795519D01*
X111486148Y-81795519D01*
X112074243Y-82202662D02*
X112074243Y-81252662D01*
X112617101Y-82202662D01*
X112617101Y-81252662D01*
X113024243Y-81931233D02*
X113476624Y-81931233D01*
X112933767Y-82202662D02*
X113250434Y-81252662D01*
X113567101Y-82202662D01*
X114336148Y-82202662D02*
X113883767Y-82202662D01*
X113883767Y-81252662D01*
X114426625Y-82293138D02*
X115150435Y-82293138D01*
X115376625Y-82202662D02*
X115376625Y-81252662D01*
X115919483Y-82202662D01*
X115919483Y-81252662D01*
X116326625Y-81931233D02*
X116779006Y-81931233D01*
X116236149Y-82202662D02*
X116552816Y-81252662D01*
X116869483Y-82202662D01*
X117186149Y-82202662D02*
X117186149Y-81252662D01*
X117502816Y-81931233D01*
X117819483Y-81252662D01*
X117819483Y-82202662D01*
X118271863Y-81705043D02*
X118588530Y-81705043D01*
X118724244Y-82202662D02*
X118271863Y-82202662D01*
X118271863Y-81252662D01*
X118724244Y-81252662D01*
X94564290Y-87964329D02*
X95288100Y-88235757D01*
X94564290Y-88507186D01*
X95604766Y-87647662D02*
X96147623Y-87647662D01*
X95876195Y-88597662D02*
X95876195Y-87647662D01*
X96464290Y-88597662D02*
X96464290Y-87647662D01*
X96826195Y-87647662D01*
X96916671Y-87692900D01*
X96961910Y-87738138D01*
X97007148Y-87828614D01*
X97007148Y-87964329D01*
X96961910Y-88054805D01*
X96916671Y-88100043D01*
X96826195Y-88145281D01*
X96464290Y-88145281D01*
X97188100Y-88688138D02*
X97911910Y-88688138D01*
X98092862Y-88552424D02*
X98228577Y-88597662D01*
X98454767Y-88597662D01*
X98545243Y-88552424D01*
X98590481Y-88507186D01*
X98635720Y-88416710D01*
X98635720Y-88326233D01*
X98590481Y-88235757D01*
X98545243Y-88190519D01*
X98454767Y-88145281D01*
X98273815Y-88100043D01*
X98183339Y-88054805D01*
X98138100Y-88009567D01*
X98092862Y-87919090D01*
X98092862Y-87828614D01*
X98138100Y-87738138D01*
X98183339Y-87692900D01*
X98273815Y-87647662D01*
X98500005Y-87647662D01*
X98635720Y-87692900D01*
X99042862Y-88597662D02*
X99042862Y-87647662D01*
X99992863Y-87692900D02*
X99902386Y-87647662D01*
X99766672Y-87647662D01*
X99630958Y-87692900D01*
X99540482Y-87783376D01*
X99495243Y-87873852D01*
X99450005Y-88054805D01*
X99450005Y-88190519D01*
X99495243Y-88371471D01*
X99540482Y-88461948D01*
X99630958Y-88552424D01*
X99766672Y-88597662D01*
X99857148Y-88597662D01*
X99992863Y-88552424D01*
X100038101Y-88507186D01*
X100038101Y-88190519D01*
X99857148Y-88190519D01*
X100445243Y-88597662D02*
X100445243Y-87647662D01*
X100988101Y-88597662D01*
X100988101Y-87647662D01*
X101395243Y-88326233D02*
X101847624Y-88326233D01*
X101304767Y-88597662D02*
X101621434Y-87647662D01*
X101938101Y-88597662D01*
X102707148Y-88597662D02*
X102254767Y-88597662D01*
X102254767Y-87647662D01*
X102797625Y-88688138D02*
X103521435Y-88688138D01*
X103747625Y-88597662D02*
X103747625Y-87647662D01*
X104290483Y-88597662D01*
X104290483Y-87647662D01*
X104697625Y-88326233D02*
X105150006Y-88326233D01*
X104607149Y-88597662D02*
X104923816Y-87647662D01*
X105240483Y-88597662D01*
X105557149Y-88597662D02*
X105557149Y-87647662D01*
X105873816Y-88326233D01*
X106190483Y-87647662D01*
X106190483Y-88597662D01*
X106642863Y-88100043D02*
X106959530Y-88100043D01*
X107095244Y-88597662D02*
X106642863Y-88597662D01*
X106642863Y-87647662D01*
X107095244Y-87647662D01*
X94597290Y-91271329D02*
X95321100Y-91542757D01*
X94597290Y-91814186D01*
X95637766Y-90954662D02*
X96180623Y-90954662D01*
X95909195Y-91904662D02*
X95909195Y-90954662D01*
X96497290Y-91904662D02*
X96497290Y-90954662D01*
X96859195Y-90954662D01*
X96949671Y-90999900D01*
X96994910Y-91045138D01*
X97040148Y-91135614D01*
X97040148Y-91271329D01*
X96994910Y-91361805D01*
X96949671Y-91407043D01*
X96859195Y-91452281D01*
X96497290Y-91452281D01*
X97221100Y-91995138D02*
X97944910Y-91995138D01*
X98125862Y-91859424D02*
X98261577Y-91904662D01*
X98487767Y-91904662D01*
X98578243Y-91859424D01*
X98623481Y-91814186D01*
X98668720Y-91723710D01*
X98668720Y-91633233D01*
X98623481Y-91542757D01*
X98578243Y-91497519D01*
X98487767Y-91452281D01*
X98306815Y-91407043D01*
X98216339Y-91361805D01*
X98171100Y-91316567D01*
X98125862Y-91226090D01*
X98125862Y-91135614D01*
X98171100Y-91045138D01*
X98216339Y-90999900D01*
X98306815Y-90954662D01*
X98533005Y-90954662D01*
X98668720Y-90999900D01*
X99075862Y-91904662D02*
X99075862Y-90954662D01*
X100025863Y-90999900D02*
X99935386Y-90954662D01*
X99799672Y-90954662D01*
X99663958Y-90999900D01*
X99573482Y-91090376D01*
X99528243Y-91180852D01*
X99483005Y-91361805D01*
X99483005Y-91497519D01*
X99528243Y-91678471D01*
X99573482Y-91768948D01*
X99663958Y-91859424D01*
X99799672Y-91904662D01*
X99890148Y-91904662D01*
X100025863Y-91859424D01*
X100071101Y-91814186D01*
X100071101Y-91497519D01*
X99890148Y-91497519D01*
X100478243Y-91904662D02*
X100478243Y-90954662D01*
X101021101Y-91904662D01*
X101021101Y-90954662D01*
X101428243Y-91633233D02*
X101880624Y-91633233D01*
X101337767Y-91904662D02*
X101654434Y-90954662D01*
X101971101Y-91904662D01*
X102740148Y-91904662D02*
X102287767Y-91904662D01*
X102287767Y-90954662D01*
X102830625Y-91995138D02*
X103554435Y-91995138D01*
X103780625Y-91904662D02*
X103780625Y-90954662D01*
X104323483Y-91904662D01*
X104323483Y-90954662D01*
X104730625Y-91633233D02*
X105183006Y-91633233D01*
X104640149Y-91904662D02*
X104956816Y-90954662D01*
X105273483Y-91904662D01*
X105590149Y-91904662D02*
X105590149Y-90954662D01*
X105906816Y-91633233D01*
X106223483Y-90954662D01*
X106223483Y-91904662D01*
X106675863Y-91407043D02*
X106992530Y-91407043D01*
X107128244Y-91904662D02*
X106675863Y-91904662D01*
X106675863Y-90954662D01*
X107128244Y-90954662D01*
X106193290Y-87748329D02*
X106917100Y-88019757D01*
X106193290Y-88291186D01*
X107233766Y-87431662D02*
X107776623Y-87431662D01*
X107505195Y-88381662D02*
X107505195Y-87431662D01*
X108093290Y-88381662D02*
X108093290Y-87431662D01*
X108455195Y-87431662D01*
X108545671Y-87476900D01*
X108590910Y-87522138D01*
X108636148Y-87612614D01*
X108636148Y-87748329D01*
X108590910Y-87838805D01*
X108545671Y-87884043D01*
X108455195Y-87929281D01*
X108093290Y-87929281D01*
X108817100Y-88472138D02*
X109540910Y-88472138D01*
X109721862Y-88336424D02*
X109857577Y-88381662D01*
X110083767Y-88381662D01*
X110174243Y-88336424D01*
X110219481Y-88291186D01*
X110264720Y-88200710D01*
X110264720Y-88110233D01*
X110219481Y-88019757D01*
X110174243Y-87974519D01*
X110083767Y-87929281D01*
X109902815Y-87884043D01*
X109812339Y-87838805D01*
X109767100Y-87793567D01*
X109721862Y-87703090D01*
X109721862Y-87612614D01*
X109767100Y-87522138D01*
X109812339Y-87476900D01*
X109902815Y-87431662D01*
X110129005Y-87431662D01*
X110264720Y-87476900D01*
X110671862Y-88381662D02*
X110671862Y-87431662D01*
X111621863Y-87476900D02*
X111531386Y-87431662D01*
X111395672Y-87431662D01*
X111259958Y-87476900D01*
X111169482Y-87567376D01*
X111124243Y-87657852D01*
X111079005Y-87838805D01*
X111079005Y-87974519D01*
X111124243Y-88155471D01*
X111169482Y-88245948D01*
X111259958Y-88336424D01*
X111395672Y-88381662D01*
X111486148Y-88381662D01*
X111621863Y-88336424D01*
X111667101Y-88291186D01*
X111667101Y-87974519D01*
X111486148Y-87974519D01*
X112074243Y-88381662D02*
X112074243Y-87431662D01*
X112617101Y-88381662D01*
X112617101Y-87431662D01*
X113024243Y-88110233D02*
X113476624Y-88110233D01*
X112933767Y-88381662D02*
X113250434Y-87431662D01*
X113567101Y-88381662D01*
X114336148Y-88381662D02*
X113883767Y-88381662D01*
X113883767Y-87431662D01*
X114426625Y-88472138D02*
X115150435Y-88472138D01*
X115376625Y-88381662D02*
X115376625Y-87431662D01*
X115919483Y-88381662D01*
X115919483Y-87431662D01*
X116326625Y-88110233D02*
X116779006Y-88110233D01*
X116236149Y-88381662D02*
X116552816Y-87431662D01*
X116869483Y-88381662D01*
X117186149Y-88381662D02*
X117186149Y-87431662D01*
X117502816Y-88110233D01*
X117819483Y-87431662D01*
X117819483Y-88381662D01*
X118271863Y-87884043D02*
X118588530Y-87884043D01*
X118724244Y-88381662D02*
X118271863Y-88381662D01*
X118271863Y-87431662D01*
X118724244Y-87431662D01*
X94539290Y-81777329D02*
X95263100Y-82048757D01*
X94539290Y-82320186D01*
X95579766Y-81460662D02*
X96122623Y-81460662D01*
X95851195Y-82410662D02*
X95851195Y-81460662D01*
X96439290Y-82410662D02*
X96439290Y-81460662D01*
X96801195Y-81460662D01*
X96891671Y-81505900D01*
X96936910Y-81551138D01*
X96982148Y-81641614D01*
X96982148Y-81777329D01*
X96936910Y-81867805D01*
X96891671Y-81913043D01*
X96801195Y-81958281D01*
X96439290Y-81958281D01*
X97163100Y-82501138D02*
X97886910Y-82501138D01*
X98067862Y-82365424D02*
X98203577Y-82410662D01*
X98429767Y-82410662D01*
X98520243Y-82365424D01*
X98565481Y-82320186D01*
X98610720Y-82229710D01*
X98610720Y-82139233D01*
X98565481Y-82048757D01*
X98520243Y-82003519D01*
X98429767Y-81958281D01*
X98248815Y-81913043D01*
X98158339Y-81867805D01*
X98113100Y-81822567D01*
X98067862Y-81732090D01*
X98067862Y-81641614D01*
X98113100Y-81551138D01*
X98158339Y-81505900D01*
X98248815Y-81460662D01*
X98475005Y-81460662D01*
X98610720Y-81505900D01*
X99017862Y-82410662D02*
X99017862Y-81460662D01*
X99967863Y-81505900D02*
X99877386Y-81460662D01*
X99741672Y-81460662D01*
X99605958Y-81505900D01*
X99515482Y-81596376D01*
X99470243Y-81686852D01*
X99425005Y-81867805D01*
X99425005Y-82003519D01*
X99470243Y-82184471D01*
X99515482Y-82274948D01*
X99605958Y-82365424D01*
X99741672Y-82410662D01*
X99832148Y-82410662D01*
X99967863Y-82365424D01*
X100013101Y-82320186D01*
X100013101Y-82003519D01*
X99832148Y-82003519D01*
X100420243Y-82410662D02*
X100420243Y-81460662D01*
X100963101Y-82410662D01*
X100963101Y-81460662D01*
X101370243Y-82139233D02*
X101822624Y-82139233D01*
X101279767Y-82410662D02*
X101596434Y-81460662D01*
X101913101Y-82410662D01*
X102682148Y-82410662D02*
X102229767Y-82410662D01*
X102229767Y-81460662D01*
X102772625Y-82501138D02*
X103496435Y-82501138D01*
X103722625Y-82410662D02*
X103722625Y-81460662D01*
X104265483Y-82410662D01*
X104265483Y-81460662D01*
X104672625Y-82139233D02*
X105125006Y-82139233D01*
X104582149Y-82410662D02*
X104898816Y-81460662D01*
X105215483Y-82410662D01*
X105532149Y-82410662D02*
X105532149Y-81460662D01*
X105848816Y-82139233D01*
X106165483Y-81460662D01*
X106165483Y-82410662D01*
X106617863Y-81913043D02*
X106934530Y-81913043D01*
X107070244Y-82410662D02*
X106617863Y-82410662D01*
X106617863Y-81460662D01*
X107070244Y-81460662D01*
X94589290Y-84811329D02*
X95313100Y-85082757D01*
X94589290Y-85354186D01*
X95629766Y-84494662D02*
X96172623Y-84494662D01*
X95901195Y-85444662D02*
X95901195Y-84494662D01*
X96489290Y-85444662D02*
X96489290Y-84494662D01*
X96851195Y-84494662D01*
X96941671Y-84539900D01*
X96986910Y-84585138D01*
X97032148Y-84675614D01*
X97032148Y-84811329D01*
X96986910Y-84901805D01*
X96941671Y-84947043D01*
X96851195Y-84992281D01*
X96489290Y-84992281D01*
X97213100Y-85535138D02*
X97936910Y-85535138D01*
X98117862Y-85399424D02*
X98253577Y-85444662D01*
X98479767Y-85444662D01*
X98570243Y-85399424D01*
X98615481Y-85354186D01*
X98660720Y-85263710D01*
X98660720Y-85173233D01*
X98615481Y-85082757D01*
X98570243Y-85037519D01*
X98479767Y-84992281D01*
X98298815Y-84947043D01*
X98208339Y-84901805D01*
X98163100Y-84856567D01*
X98117862Y-84766090D01*
X98117862Y-84675614D01*
X98163100Y-84585138D01*
X98208339Y-84539900D01*
X98298815Y-84494662D01*
X98525005Y-84494662D01*
X98660720Y-84539900D01*
X99067862Y-85444662D02*
X99067862Y-84494662D01*
X100017863Y-84539900D02*
X99927386Y-84494662D01*
X99791672Y-84494662D01*
X99655958Y-84539900D01*
X99565482Y-84630376D01*
X99520243Y-84720852D01*
X99475005Y-84901805D01*
X99475005Y-85037519D01*
X99520243Y-85218471D01*
X99565482Y-85308948D01*
X99655958Y-85399424D01*
X99791672Y-85444662D01*
X99882148Y-85444662D01*
X100017863Y-85399424D01*
X100063101Y-85354186D01*
X100063101Y-85037519D01*
X99882148Y-85037519D01*
X100470243Y-85444662D02*
X100470243Y-84494662D01*
X101013101Y-85444662D01*
X101013101Y-84494662D01*
X101420243Y-85173233D02*
X101872624Y-85173233D01*
X101329767Y-85444662D02*
X101646434Y-84494662D01*
X101963101Y-85444662D01*
X102732148Y-85444662D02*
X102279767Y-85444662D01*
X102279767Y-84494662D01*
X102822625Y-85535138D02*
X103546435Y-85535138D01*
X103772625Y-85444662D02*
X103772625Y-84494662D01*
X104315483Y-85444662D01*
X104315483Y-84494662D01*
X104722625Y-85173233D02*
X105175006Y-85173233D01*
X104632149Y-85444662D02*
X104948816Y-84494662D01*
X105265483Y-85444662D01*
X105582149Y-85444662D02*
X105582149Y-84494662D01*
X105898816Y-85173233D01*
X106215483Y-84494662D01*
X106215483Y-85444662D01*
X106667863Y-84947043D02*
X106984530Y-84947043D01*
X107120244Y-85444662D02*
X106667863Y-85444662D01*
X106667863Y-84494662D01*
X107120244Y-84494662D01*
X106192290Y-90971329D02*
X106916100Y-91242757D01*
X106192290Y-91514186D01*
X107232766Y-90654662D02*
X107775623Y-90654662D01*
X107504195Y-91604662D02*
X107504195Y-90654662D01*
X108092290Y-91604662D02*
X108092290Y-90654662D01*
X108454195Y-90654662D01*
X108544671Y-90699900D01*
X108589910Y-90745138D01*
X108635148Y-90835614D01*
X108635148Y-90971329D01*
X108589910Y-91061805D01*
X108544671Y-91107043D01*
X108454195Y-91152281D01*
X108092290Y-91152281D01*
X108816100Y-91695138D02*
X109539910Y-91695138D01*
X109720862Y-91559424D02*
X109856577Y-91604662D01*
X110082767Y-91604662D01*
X110173243Y-91559424D01*
X110218481Y-91514186D01*
X110263720Y-91423710D01*
X110263720Y-91333233D01*
X110218481Y-91242757D01*
X110173243Y-91197519D01*
X110082767Y-91152281D01*
X109901815Y-91107043D01*
X109811339Y-91061805D01*
X109766100Y-91016567D01*
X109720862Y-90926090D01*
X109720862Y-90835614D01*
X109766100Y-90745138D01*
X109811339Y-90699900D01*
X109901815Y-90654662D01*
X110128005Y-90654662D01*
X110263720Y-90699900D01*
X110670862Y-91604662D02*
X110670862Y-90654662D01*
X111620863Y-90699900D02*
X111530386Y-90654662D01*
X111394672Y-90654662D01*
X111258958Y-90699900D01*
X111168482Y-90790376D01*
X111123243Y-90880852D01*
X111078005Y-91061805D01*
X111078005Y-91197519D01*
X111123243Y-91378471D01*
X111168482Y-91468948D01*
X111258958Y-91559424D01*
X111394672Y-91604662D01*
X111485148Y-91604662D01*
X111620863Y-91559424D01*
X111666101Y-91514186D01*
X111666101Y-91197519D01*
X111485148Y-91197519D01*
X112073243Y-91604662D02*
X112073243Y-90654662D01*
X112616101Y-91604662D01*
X112616101Y-90654662D01*
X113023243Y-91333233D02*
X113475624Y-91333233D01*
X112932767Y-91604662D02*
X113249434Y-90654662D01*
X113566101Y-91604662D01*
X114335148Y-91604662D02*
X113882767Y-91604662D01*
X113882767Y-90654662D01*
X114425625Y-91695138D02*
X115149435Y-91695138D01*
X115375625Y-91604662D02*
X115375625Y-90654662D01*
X115918483Y-91604662D01*
X115918483Y-90654662D01*
X116325625Y-91333233D02*
X116778006Y-91333233D01*
X116235149Y-91604662D02*
X116551816Y-90654662D01*
X116868483Y-91604662D01*
X117185149Y-91604662D02*
X117185149Y-90654662D01*
X117501816Y-91333233D01*
X117818483Y-90654662D01*
X117818483Y-91604662D01*
X118270863Y-91107043D02*
X118587530Y-91107043D01*
X118723244Y-91604662D02*
X118270863Y-91604662D01*
X118270863Y-90654662D01*
X118723244Y-90654662D01*
M02*
