G04 #@! TF.FileFunction,Copper,L1,Top,Signal*
%FSLAX46Y46*%
G04 Gerber Fmt 4.6, Leading zero omitted, Abs format (unit mm)*
G04 Created by KiCad (PCBNEW 4.0.6) date 05/07/17 20:49:46*
%MOMM*%
%LPD*%
G01*
G04 APERTURE LIST*
%ADD10C,0.100000*%
%ADD11R,1.500000X1.300000*%
%ADD12C,1.100000*%
%ADD13R,0.635000X1.270000*%
%ADD14C,3.000000*%
%ADD15C,0.906400*%
%ADD16C,2.250000*%
%ADD17C,1.006400*%
%ADD18C,1.016000*%
%ADD19C,0.406400*%
%ADD20C,2.540000*%
%ADD21C,0.304800*%
%ADD22C,0.812800*%
%ADD23C,1.270000*%
%ADD24C,2.184400*%
%ADD25C,0.609600*%
%ADD26C,1.676400*%
%ADD27C,0.350000*%
G04 APERTURE END LIST*
D10*
D11*
X115471300Y-104449900D03*
X115471300Y-106349900D03*
D12*
X145062300Y-90490100D03*
D13*
X145443300Y-90490100D03*
X146078300Y-90490100D03*
X144808300Y-90490100D03*
X144173300Y-90490100D03*
X143538300Y-90490100D03*
X146675200Y-90490100D03*
X147272100Y-90490100D03*
X142916000Y-90490100D03*
X142293700Y-90490100D03*
D12*
X143452700Y-80411500D03*
D13*
X143833700Y-80411500D03*
X144468700Y-80411500D03*
X143198700Y-80411500D03*
X142563700Y-80411500D03*
X141928700Y-80411500D03*
X145065600Y-80411500D03*
X145662500Y-80411500D03*
X141306400Y-80411500D03*
X140684100Y-80411500D03*
D12*
X145138500Y-106466700D03*
D13*
X145519500Y-106466700D03*
X146154500Y-106466700D03*
X144884500Y-106466700D03*
X144249500Y-106466700D03*
X143614500Y-106466700D03*
X146751400Y-106466700D03*
X147348300Y-106466700D03*
X142992200Y-106466700D03*
X142369900Y-106466700D03*
D12*
X145011500Y-109235300D03*
D13*
X145392500Y-109235300D03*
X146027500Y-109235300D03*
X144757500Y-109235300D03*
X144122500Y-109235300D03*
X143487500Y-109235300D03*
X146624400Y-109235300D03*
X147221300Y-109235300D03*
X142865200Y-109235300D03*
X142242900Y-109235300D03*
D12*
X145062300Y-95900300D03*
D13*
X145443300Y-95900300D03*
X146078300Y-95900300D03*
X144808300Y-95900300D03*
X144173300Y-95900300D03*
X143538300Y-95900300D03*
X146675200Y-95900300D03*
X147272100Y-95900300D03*
X142916000Y-95900300D03*
X142293700Y-95900300D03*
D12*
X145036900Y-120512900D03*
D13*
X145417900Y-120512900D03*
X146052900Y-120512900D03*
X144782900Y-120512900D03*
X144147900Y-120512900D03*
X143512900Y-120512900D03*
X146649800Y-120512900D03*
X147246700Y-120512900D03*
X142890600Y-120512900D03*
X142268300Y-120512900D03*
D12*
X145011500Y-103799700D03*
D13*
X145392500Y-103799700D03*
X146027500Y-103799700D03*
X144757500Y-103799700D03*
X144122500Y-103799700D03*
X143487500Y-103799700D03*
X146624400Y-103799700D03*
X147221300Y-103799700D03*
X142865200Y-103799700D03*
X142242900Y-103799700D03*
D12*
X145036900Y-111902300D03*
D13*
X145417900Y-111902300D03*
X146052900Y-111902300D03*
X144782900Y-111902300D03*
X144147900Y-111902300D03*
X143512900Y-111902300D03*
X146649800Y-111902300D03*
X147246700Y-111902300D03*
X142890600Y-111902300D03*
X142268300Y-111902300D03*
D12*
X145036900Y-114696300D03*
D13*
X145417900Y-114696300D03*
X146052900Y-114696300D03*
X144782900Y-114696300D03*
X144147900Y-114696300D03*
X143512900Y-114696300D03*
X146649800Y-114696300D03*
X147246700Y-114696300D03*
X142890600Y-114696300D03*
X142268300Y-114696300D03*
D12*
X145062300Y-98592700D03*
D13*
X145443300Y-98592700D03*
X146078300Y-98592700D03*
X144808300Y-98592700D03*
X144173300Y-98592700D03*
X143538300Y-98592700D03*
X146675200Y-98592700D03*
X147272100Y-98592700D03*
X142916000Y-98592700D03*
X142293700Y-98592700D03*
D12*
X143308700Y-129776100D03*
D13*
X143689700Y-129776100D03*
X144324700Y-129776100D03*
X143054700Y-129776100D03*
X142419700Y-129776100D03*
X141784700Y-129776100D03*
X144921600Y-129776100D03*
X145518500Y-129776100D03*
X141162400Y-129776100D03*
X140540100Y-129776100D03*
D12*
X143351700Y-125931900D03*
D13*
X143732700Y-125931900D03*
X144367700Y-125931900D03*
X143097700Y-125931900D03*
X142462700Y-125931900D03*
X141827700Y-125931900D03*
X144964600Y-125931900D03*
X145561500Y-125931900D03*
X141205400Y-125931900D03*
X140583100Y-125931900D03*
D12*
X145087700Y-93309500D03*
D13*
X145468700Y-93309500D03*
X146103700Y-93309500D03*
X144833700Y-93309500D03*
X144198700Y-93309500D03*
X143563700Y-93309500D03*
X146700600Y-93309500D03*
X147297500Y-93309500D03*
X142941400Y-93309500D03*
X142319100Y-93309500D03*
D11*
X119281300Y-106324500D03*
X119281300Y-104424500D03*
D12*
X143426900Y-83259900D03*
D13*
X143807900Y-83259900D03*
X144442900Y-83259900D03*
X143172900Y-83259900D03*
X142537900Y-83259900D03*
X141902900Y-83259900D03*
X145039800Y-83259900D03*
X145636700Y-83259900D03*
X141280600Y-83259900D03*
X140658300Y-83259900D03*
D12*
X145011500Y-117490300D03*
D13*
X145392500Y-117490300D03*
X146027500Y-117490300D03*
X144757500Y-117490300D03*
X144122500Y-117490300D03*
X143487500Y-117490300D03*
X146624400Y-117490300D03*
X147221300Y-117490300D03*
X142865200Y-117490300D03*
X142242900Y-117490300D03*
D12*
X145087700Y-101158100D03*
D13*
X145468700Y-101158100D03*
X146103700Y-101158100D03*
X144833700Y-101158100D03*
X144198700Y-101158100D03*
X143563700Y-101158100D03*
X146700600Y-101158100D03*
X147297500Y-101158100D03*
X142941400Y-101158100D03*
X142319100Y-101158100D03*
D11*
X119741100Y-124714900D03*
X119741100Y-126614900D03*
X116019500Y-124722300D03*
X116019500Y-126622300D03*
D12*
X105812100Y-83378900D03*
D13*
X106193100Y-83378900D03*
X106828100Y-83378900D03*
X105558100Y-83378900D03*
X104923100Y-83378900D03*
X104288100Y-83378900D03*
X107425000Y-83378900D03*
X108021900Y-83378900D03*
X103665800Y-83378900D03*
X103043500Y-83378900D03*
D12*
X105967100Y-80342900D03*
D13*
X106348100Y-80342900D03*
X106983100Y-80342900D03*
X105713100Y-80342900D03*
X105078100Y-80342900D03*
X104443100Y-80342900D03*
X107580000Y-80342900D03*
X108176900Y-80342900D03*
X103820800Y-80342900D03*
X103198500Y-80342900D03*
D12*
X94338100Y-86737900D03*
D13*
X94719100Y-86737900D03*
X95354100Y-86737900D03*
X94084100Y-86737900D03*
X93449100Y-86737900D03*
X92814100Y-86737900D03*
X95951000Y-86737900D03*
X96547900Y-86737900D03*
X92191800Y-86737900D03*
X91569500Y-86737900D03*
D12*
X94371100Y-90044900D03*
D13*
X94752100Y-90044900D03*
X95387100Y-90044900D03*
X94117100Y-90044900D03*
X93482100Y-90044900D03*
X92847100Y-90044900D03*
X95984000Y-90044900D03*
X96580900Y-90044900D03*
X92224800Y-90044900D03*
X91602500Y-90044900D03*
D12*
X105967100Y-86521900D03*
D13*
X106348100Y-86521900D03*
X106983100Y-86521900D03*
X105713100Y-86521900D03*
X105078100Y-86521900D03*
X104443100Y-86521900D03*
X107580000Y-86521900D03*
X108176900Y-86521900D03*
X103820800Y-86521900D03*
X103198500Y-86521900D03*
D12*
X94313100Y-80550900D03*
D13*
X94694100Y-80550900D03*
X95329100Y-80550900D03*
X94059100Y-80550900D03*
X93424100Y-80550900D03*
X92789100Y-80550900D03*
X95926000Y-80550900D03*
X96522900Y-80550900D03*
X92166800Y-80550900D03*
X91544500Y-80550900D03*
D12*
X94363100Y-83584900D03*
D13*
X94744100Y-83584900D03*
X95379100Y-83584900D03*
X94109100Y-83584900D03*
X93474100Y-83584900D03*
X92839100Y-83584900D03*
X95976000Y-83584900D03*
X96572900Y-83584900D03*
X92216800Y-83584900D03*
X91594500Y-83584900D03*
D12*
X105966100Y-89744900D03*
D13*
X106347100Y-89744900D03*
X106982100Y-89744900D03*
X105712100Y-89744900D03*
X105077100Y-89744900D03*
X104442100Y-89744900D03*
X107579000Y-89744900D03*
X108175900Y-89744900D03*
X103819800Y-89744900D03*
X103197500Y-89744900D03*
D14*
X110188100Y-105272900D03*
X118189100Y-97246500D03*
X126190100Y-105272900D03*
X118189100Y-113273900D03*
D15*
X130537100Y-102733900D03*
X135177100Y-102659900D03*
D16*
X92380100Y-102598900D03*
X92380100Y-110332900D03*
D17*
X113439300Y-104460100D03*
X135635100Y-97457900D03*
X122283100Y-106286900D03*
X111981600Y-114983400D03*
X122574700Y-111757100D03*
X120703700Y-108898100D03*
X140374100Y-88103900D03*
X132582100Y-86962900D03*
X140328100Y-96544900D03*
X138565700Y-106575300D03*
X143477100Y-86995900D03*
X133095100Y-83372900D03*
X94338100Y-86737900D03*
X138389100Y-128427900D03*
X106777100Y-125512900D03*
X131899100Y-125928900D03*
X118493900Y-101132700D03*
D15*
X131971100Y-108993900D03*
X123822100Y-101563900D03*
X135072100Y-114230900D03*
X138812100Y-117792900D03*
X128828100Y-104896900D03*
X135177100Y-104854900D03*
D18*
X105966100Y-89744900D02*
X127607100Y-89744900D01*
X127607100Y-89744900D02*
X132550100Y-94687900D01*
X132550100Y-94687900D02*
X132550100Y-106833900D01*
X132550100Y-106833900D02*
X134813100Y-109096900D01*
X134813100Y-109096900D02*
X144873100Y-109096900D01*
X144873100Y-109096900D02*
X145011500Y-109235300D01*
X94313100Y-80550900D02*
X98365100Y-80550900D01*
X98365100Y-80550900D02*
X99996100Y-82035900D01*
X99996100Y-82035900D02*
X99996100Y-90156900D01*
X99996100Y-90156900D02*
X101675100Y-91761900D01*
X101675100Y-91761900D02*
X126118100Y-91835900D01*
X126118100Y-91835900D02*
X130716100Y-96466900D01*
X130716100Y-96466900D02*
X130697100Y-102682900D01*
X130697100Y-102682900D02*
X130537100Y-102733900D01*
X135177100Y-102659900D02*
X135177100Y-100900900D01*
X135177100Y-100900900D02*
X137513100Y-98564900D01*
X137513100Y-98564900D02*
X145034500Y-98564900D01*
X145034500Y-98564900D02*
X145062300Y-98592700D01*
D19*
X115471300Y-104449900D02*
X113474900Y-104449900D01*
X113474900Y-104449900D02*
X113439300Y-104460100D01*
X115496700Y-106324500D02*
X115471300Y-106349900D01*
X115496700Y-106324500D02*
X119281300Y-106324500D01*
D20*
X105967100Y-80342900D02*
X135271100Y-80342900D01*
X135271100Y-80342900D02*
X143384100Y-80342900D01*
X143384100Y-80342900D02*
X143452700Y-80411500D01*
X135635100Y-97457900D02*
X135635100Y-97363900D01*
X135635100Y-97363900D02*
X137412100Y-95586900D01*
X137412100Y-95586900D02*
X137412100Y-82483900D01*
X137412100Y-82483900D02*
X135271100Y-80342900D01*
D21*
X119281300Y-106324500D02*
X122245500Y-106324500D01*
X122245500Y-106324500D02*
X122283100Y-106286900D01*
X122283100Y-106286900D02*
X113649100Y-106286900D01*
X113649100Y-106286900D02*
X113262100Y-106673900D01*
X113262100Y-106673900D02*
X113262100Y-113702900D01*
X113262100Y-113702900D02*
X111981600Y-114983400D01*
D22*
X119741100Y-126614900D02*
X116026900Y-126614900D01*
X116026900Y-126614900D02*
X116019500Y-126622300D01*
X119741100Y-126614900D02*
X114357100Y-126614900D01*
X114357100Y-126614900D02*
X113483100Y-125740900D01*
X113483100Y-125740900D02*
X113483100Y-118979900D01*
X113483100Y-118979900D02*
X116187100Y-116240900D01*
X116187100Y-116240900D02*
X121248100Y-116240900D01*
X121248100Y-116240900D02*
X122543100Y-114992900D01*
X122543100Y-114992900D02*
X122543100Y-112197500D01*
X122543100Y-112197500D02*
X122574700Y-111757100D01*
X119514100Y-126841900D02*
X119741100Y-126614900D01*
D23*
X106099100Y-86653900D02*
X105967100Y-86521900D01*
D19*
X120703700Y-108898100D02*
X121437300Y-108898100D01*
X121437300Y-108898100D02*
X122599100Y-110059900D01*
X122599100Y-110059900D02*
X122599100Y-111732700D01*
X122599100Y-111732700D02*
X122574700Y-111757100D01*
D22*
X145062300Y-90490100D02*
X140981300Y-90490100D01*
X140981300Y-90490100D02*
X140876100Y-90384900D01*
X140876100Y-90384900D02*
X140283100Y-89791900D01*
X140283100Y-89791900D02*
X140283100Y-88194900D01*
X140283100Y-88194900D02*
X140374100Y-88103900D01*
X132582100Y-86962900D02*
X130031100Y-86962900D01*
X130031100Y-86962900D02*
X129393100Y-86324900D01*
X129393100Y-86324900D02*
X106164100Y-86324900D01*
X106164100Y-86324900D02*
X105967100Y-86521900D01*
D19*
X140328100Y-96544900D02*
X140328100Y-90932900D01*
X140328100Y-90932900D02*
X140876100Y-90384900D01*
X138565700Y-106575300D02*
X145036900Y-106568300D01*
X145036900Y-106568300D02*
X145138500Y-106466700D01*
D24*
X143477100Y-86995900D02*
X143477100Y-83310100D01*
D20*
X143477100Y-83310100D02*
X143426900Y-83259900D01*
D24*
X105812100Y-83378900D02*
X133089100Y-83378900D01*
X133089100Y-83378900D02*
X133095100Y-83372900D01*
D25*
X94338100Y-86737900D02*
X95704100Y-86737900D01*
X95704100Y-86737900D02*
X95788100Y-86653900D01*
X95788100Y-86653900D02*
X94422100Y-86653900D01*
X94422100Y-86653900D02*
X94338100Y-86737900D01*
D26*
X143308700Y-129776100D02*
X139737300Y-129776100D01*
X139737300Y-129776100D02*
X138389100Y-128427900D01*
D25*
X94371100Y-90044900D02*
X95911100Y-90044900D01*
X95911100Y-90044900D02*
X97063100Y-91196900D01*
X97063100Y-91196900D02*
X97063100Y-124134900D01*
X97063100Y-124134900D02*
X98638100Y-125709900D01*
X98638100Y-125709900D02*
X106580100Y-125709900D01*
X106580100Y-125709900D02*
X106777100Y-125512900D01*
D23*
X143351700Y-125931900D02*
X131902100Y-125931900D01*
X131902100Y-125931900D02*
X131899100Y-125928900D01*
D19*
X119281300Y-104424500D02*
X119281300Y-101920100D01*
X119281300Y-101920100D02*
X118493900Y-101132700D01*
D22*
X116019500Y-124722300D02*
X116019500Y-119788500D01*
X116019500Y-119788500D02*
X117923100Y-117884900D01*
X117923100Y-117884900D02*
X135676100Y-117884900D01*
X135676100Y-117884900D02*
X138691600Y-114869400D01*
X138691600Y-114869400D02*
X138782100Y-114778900D01*
X138782100Y-114778900D02*
X144954300Y-114778900D01*
X144954300Y-114778900D02*
X145036900Y-114696300D01*
X131971100Y-108993900D02*
X132816100Y-108993900D01*
X132816100Y-108993900D02*
X138691600Y-114869400D01*
X119741100Y-124714900D02*
X119741100Y-120811900D01*
X119741100Y-120811900D02*
X120902100Y-119650900D01*
X120902100Y-119650900D02*
X136954100Y-119650900D01*
X136954100Y-119650900D02*
X138812100Y-117792900D01*
X138812100Y-117792900D02*
X139086100Y-117518900D01*
X139086100Y-117518900D02*
X144982900Y-117518900D01*
X144982900Y-117518900D02*
X145011500Y-117490300D01*
D27*
X123822100Y-101563900D02*
X123822100Y-107959900D01*
X123822100Y-107959900D02*
X125099100Y-109236900D01*
X125099100Y-109236900D02*
X130078100Y-109236900D01*
X130078100Y-109236900D02*
X135072100Y-114230900D01*
D18*
X94363100Y-83584900D02*
X97160100Y-83584900D01*
X97160100Y-83584900D02*
X98536100Y-84887900D01*
X98536100Y-84887900D02*
X98536100Y-91474900D01*
X98536100Y-91474900D02*
X100799100Y-93737900D01*
X100799100Y-93737900D02*
X124366100Y-93737900D01*
X124366100Y-93737900D02*
X128827100Y-98198900D01*
X128827100Y-98198900D02*
X128827100Y-103247900D01*
X128827100Y-103247900D02*
X128828100Y-104896900D01*
X135177100Y-104854900D02*
X138897100Y-104854900D01*
X138897100Y-104854900D02*
X140360100Y-103391900D01*
X140360100Y-103391900D02*
X140360100Y-101999900D01*
X140360100Y-101999900D02*
X141309100Y-101050900D01*
X141309100Y-101050900D02*
X145194900Y-101050900D01*
X146053100Y-101050900D02*
X145194900Y-101050900D01*
X145194900Y-101050900D02*
X145087700Y-101158100D01*
D19*
G36*
X135126100Y-83430792D02*
X135126100Y-94640008D01*
X134074100Y-95692008D01*
X134074100Y-94687900D01*
X134060362Y-94547785D01*
X134048094Y-94407559D01*
X134045858Y-94399863D01*
X134045076Y-94391887D01*
X134004382Y-94257102D01*
X133965112Y-94121936D01*
X133961425Y-94114823D01*
X133959108Y-94107149D01*
X133893010Y-93982837D01*
X133828234Y-93857870D01*
X133823235Y-93851607D01*
X133819472Y-93844531D01*
X133730451Y-93735381D01*
X133642671Y-93625421D01*
X133631680Y-93614274D01*
X133631486Y-93614037D01*
X133631266Y-93613855D01*
X133627731Y-93610270D01*
X128684731Y-88667269D01*
X128575935Y-88577903D01*
X128468110Y-88487427D01*
X128461087Y-88483566D01*
X128454895Y-88478480D01*
X128330833Y-88411959D01*
X128207467Y-88344138D01*
X128199829Y-88341715D01*
X128192766Y-88337928D01*
X128058149Y-88296771D01*
X127923957Y-88254203D01*
X127915992Y-88253310D01*
X127908330Y-88250967D01*
X127768250Y-88236738D01*
X127628378Y-88221049D01*
X127612719Y-88220939D01*
X127612420Y-88220909D01*
X127612142Y-88220935D01*
X127607100Y-88220900D01*
X108980797Y-88220900D01*
X108777820Y-88129404D01*
X108773047Y-88128726D01*
X108930614Y-88079930D01*
X109170494Y-87921860D01*
X109319270Y-87747300D01*
X128803922Y-87747300D01*
X129025311Y-87968689D01*
X129126869Y-88052109D01*
X129227491Y-88136541D01*
X129234044Y-88140144D01*
X129239825Y-88144892D01*
X129355610Y-88206975D01*
X129470757Y-88270278D01*
X129477889Y-88272540D01*
X129484479Y-88276074D01*
X129610086Y-88314476D01*
X129735366Y-88354217D01*
X129742802Y-88355051D01*
X129749952Y-88357237D01*
X129880640Y-88370512D01*
X130011240Y-88385161D01*
X130025863Y-88385263D01*
X130026135Y-88385291D01*
X130026389Y-88385267D01*
X130031100Y-88385300D01*
X132042993Y-88385300D01*
X132110370Y-88414736D01*
X132401350Y-88478712D01*
X132699216Y-88484952D01*
X132992620Y-88433217D01*
X133270388Y-88325478D01*
X133521939Y-88165839D01*
X133737692Y-87960380D01*
X133909428Y-87716927D01*
X134030608Y-87444754D01*
X134096614Y-87154228D01*
X134101365Y-86813935D01*
X134043497Y-86521678D01*
X133929965Y-86246228D01*
X133765092Y-85998075D01*
X133555160Y-85786672D01*
X133308165Y-85620072D01*
X133033513Y-85504619D01*
X132741668Y-85444712D01*
X132443745Y-85442632D01*
X132151091Y-85498458D01*
X132047034Y-85540500D01*
X130620278Y-85540500D01*
X130398889Y-85319111D01*
X130297304Y-85235668D01*
X130196709Y-85151259D01*
X130190159Y-85147658D01*
X130184375Y-85142907D01*
X130068551Y-85080803D01*
X129953443Y-85017522D01*
X129946311Y-85015260D01*
X129939721Y-85011726D01*
X129814114Y-84973324D01*
X129688834Y-84933583D01*
X129681398Y-84932749D01*
X129674248Y-84930563D01*
X129543560Y-84917288D01*
X129412960Y-84902639D01*
X129398337Y-84902537D01*
X129398065Y-84902509D01*
X129397811Y-84902533D01*
X129393100Y-84902500D01*
X108827863Y-84902500D01*
X109015494Y-84778860D01*
X109201840Y-84560219D01*
X109319896Y-84298320D01*
X109360315Y-84013900D01*
X109360315Y-82743900D01*
X109351145Y-82628900D01*
X134324208Y-82628900D01*
X135126100Y-83430792D01*
X135126100Y-83430792D01*
G37*
X135126100Y-83430792D02*
X135126100Y-94640008D01*
X134074100Y-95692008D01*
X134074100Y-94687900D01*
X134060362Y-94547785D01*
X134048094Y-94407559D01*
X134045858Y-94399863D01*
X134045076Y-94391887D01*
X134004382Y-94257102D01*
X133965112Y-94121936D01*
X133961425Y-94114823D01*
X133959108Y-94107149D01*
X133893010Y-93982837D01*
X133828234Y-93857870D01*
X133823235Y-93851607D01*
X133819472Y-93844531D01*
X133730451Y-93735381D01*
X133642671Y-93625421D01*
X133631680Y-93614274D01*
X133631486Y-93614037D01*
X133631266Y-93613855D01*
X133627731Y-93610270D01*
X128684731Y-88667269D01*
X128575935Y-88577903D01*
X128468110Y-88487427D01*
X128461087Y-88483566D01*
X128454895Y-88478480D01*
X128330833Y-88411959D01*
X128207467Y-88344138D01*
X128199829Y-88341715D01*
X128192766Y-88337928D01*
X128058149Y-88296771D01*
X127923957Y-88254203D01*
X127915992Y-88253310D01*
X127908330Y-88250967D01*
X127768250Y-88236738D01*
X127628378Y-88221049D01*
X127612719Y-88220939D01*
X127612420Y-88220909D01*
X127612142Y-88220935D01*
X127607100Y-88220900D01*
X108980797Y-88220900D01*
X108777820Y-88129404D01*
X108773047Y-88128726D01*
X108930614Y-88079930D01*
X109170494Y-87921860D01*
X109319270Y-87747300D01*
X128803922Y-87747300D01*
X129025311Y-87968689D01*
X129126869Y-88052109D01*
X129227491Y-88136541D01*
X129234044Y-88140144D01*
X129239825Y-88144892D01*
X129355610Y-88206975D01*
X129470757Y-88270278D01*
X129477889Y-88272540D01*
X129484479Y-88276074D01*
X129610086Y-88314476D01*
X129735366Y-88354217D01*
X129742802Y-88355051D01*
X129749952Y-88357237D01*
X129880640Y-88370512D01*
X130011240Y-88385161D01*
X130025863Y-88385263D01*
X130026135Y-88385291D01*
X130026389Y-88385267D01*
X130031100Y-88385300D01*
X132042993Y-88385300D01*
X132110370Y-88414736D01*
X132401350Y-88478712D01*
X132699216Y-88484952D01*
X132992620Y-88433217D01*
X133270388Y-88325478D01*
X133521939Y-88165839D01*
X133737692Y-87960380D01*
X133909428Y-87716927D01*
X134030608Y-87444754D01*
X134096614Y-87154228D01*
X134101365Y-86813935D01*
X134043497Y-86521678D01*
X133929965Y-86246228D01*
X133765092Y-85998075D01*
X133555160Y-85786672D01*
X133308165Y-85620072D01*
X133033513Y-85504619D01*
X132741668Y-85444712D01*
X132443745Y-85442632D01*
X132151091Y-85498458D01*
X132047034Y-85540500D01*
X130620278Y-85540500D01*
X130398889Y-85319111D01*
X130297304Y-85235668D01*
X130196709Y-85151259D01*
X130190159Y-85147658D01*
X130184375Y-85142907D01*
X130068551Y-85080803D01*
X129953443Y-85017522D01*
X129946311Y-85015260D01*
X129939721Y-85011726D01*
X129814114Y-84973324D01*
X129688834Y-84933583D01*
X129681398Y-84932749D01*
X129674248Y-84930563D01*
X129543560Y-84917288D01*
X129412960Y-84902639D01*
X129398337Y-84902537D01*
X129398065Y-84902509D01*
X129397811Y-84902533D01*
X129393100Y-84902500D01*
X108827863Y-84902500D01*
X109015494Y-84778860D01*
X109201840Y-84560219D01*
X109319896Y-84298320D01*
X109360315Y-84013900D01*
X109360315Y-82743900D01*
X109351145Y-82628900D01*
X134324208Y-82628900D01*
X135126100Y-83430792D01*
G36*
X139794481Y-84757340D02*
X140056380Y-84875396D01*
X140340800Y-84915815D01*
X144939067Y-84915815D01*
X144928508Y-87634463D01*
X144938278Y-87738253D01*
X144947597Y-87841936D01*
X144948246Y-87844152D01*
X144948463Y-87846452D01*
X144978174Y-87946258D01*
X145007486Y-88046266D01*
X145008555Y-88048316D01*
X145009213Y-88050527D01*
X145057712Y-88142600D01*
X145105923Y-88235071D01*
X145107370Y-88236874D01*
X145108445Y-88238916D01*
X145173964Y-88319890D01*
X145239158Y-88401162D01*
X145240925Y-88402648D01*
X145242378Y-88404444D01*
X145322382Y-88471153D01*
X145402116Y-88538210D01*
X145404140Y-88539326D01*
X145405913Y-88540804D01*
X145497316Y-88590685D01*
X145588589Y-88640996D01*
X145590790Y-88641697D01*
X145592817Y-88642803D01*
X145692227Y-88673999D01*
X145791476Y-88705605D01*
X145793769Y-88705865D01*
X145795975Y-88706557D01*
X145899506Y-88717845D01*
X146003048Y-88729576D01*
X146007429Y-88729611D01*
X146007646Y-88729635D01*
X146007876Y-88729615D01*
X146018281Y-88729699D01*
X146901158Y-88730685D01*
X146901468Y-88834185D01*
X141976200Y-88834185D01*
X141814406Y-88847087D01*
X141705500Y-88880813D01*
X141705500Y-88848781D01*
X141822608Y-88585754D01*
X141888614Y-88295228D01*
X141893365Y-87954935D01*
X141835497Y-87662678D01*
X141721965Y-87387228D01*
X141557092Y-87139075D01*
X141347160Y-86927672D01*
X141100165Y-86761072D01*
X140825513Y-86645619D01*
X140533668Y-86585712D01*
X140235745Y-86583632D01*
X139943091Y-86639458D01*
X139698100Y-86738441D01*
X139698100Y-84675195D01*
X139794481Y-84757340D01*
X139794481Y-84757340D01*
G37*
X139794481Y-84757340D02*
X140056380Y-84875396D01*
X140340800Y-84915815D01*
X144939067Y-84915815D01*
X144928508Y-87634463D01*
X144938278Y-87738253D01*
X144947597Y-87841936D01*
X144948246Y-87844152D01*
X144948463Y-87846452D01*
X144978174Y-87946258D01*
X145007486Y-88046266D01*
X145008555Y-88048316D01*
X145009213Y-88050527D01*
X145057712Y-88142600D01*
X145105923Y-88235071D01*
X145107370Y-88236874D01*
X145108445Y-88238916D01*
X145173964Y-88319890D01*
X145239158Y-88401162D01*
X145240925Y-88402648D01*
X145242378Y-88404444D01*
X145322382Y-88471153D01*
X145402116Y-88538210D01*
X145404140Y-88539326D01*
X145405913Y-88540804D01*
X145497316Y-88590685D01*
X145588589Y-88640996D01*
X145590790Y-88641697D01*
X145592817Y-88642803D01*
X145692227Y-88673999D01*
X145791476Y-88705605D01*
X145793769Y-88705865D01*
X145795975Y-88706557D01*
X145899506Y-88717845D01*
X146003048Y-88729576D01*
X146007429Y-88729611D01*
X146007646Y-88729635D01*
X146007876Y-88729615D01*
X146018281Y-88729699D01*
X146901158Y-88730685D01*
X146901468Y-88834185D01*
X141976200Y-88834185D01*
X141814406Y-88847087D01*
X141705500Y-88880813D01*
X141705500Y-88848781D01*
X141822608Y-88585754D01*
X141888614Y-88295228D01*
X141893365Y-87954935D01*
X141835497Y-87662678D01*
X141721965Y-87387228D01*
X141557092Y-87139075D01*
X141347160Y-86927672D01*
X141100165Y-86761072D01*
X140825513Y-86645619D01*
X140533668Y-86585712D01*
X140235745Y-86583632D01*
X139943091Y-86639458D01*
X139698100Y-86738441D01*
X139698100Y-84675195D01*
X139794481Y-84757340D01*
M02*
