G04 #@! TF.FileFunction,Glue,Top*
%FSLAX46Y46*%
G04 Gerber Fmt 4.6, Leading zero omitted, Abs format (unit mm)*
G04 Created by KiCad (PCBNEW 4.0.6) date 05/08/17 07:17:05*
%MOMM*%
%LPD*%
G01*
G04 APERTURE LIST*
%ADD10C,0.100000*%
G04 APERTURE END LIST*
D10*
G36*
X176040000Y-105144000D02*
X176040000Y-105543800D01*
X177040200Y-105543800D01*
X177040200Y-105144000D01*
X176040000Y-105144000D01*
G37*
G36*
X190571000Y-83106800D02*
X190571000Y-83506600D01*
X191571200Y-83506600D01*
X191571200Y-83106800D01*
X190571000Y-83106800D01*
G37*
G36*
X180951800Y-105315200D02*
X180951800Y-104915400D01*
X179951600Y-104915400D01*
X179951600Y-105315200D01*
X180951800Y-105315200D01*
G37*
G36*
X191681800Y-125071800D02*
X192081600Y-125071800D01*
X192081600Y-124071600D01*
X191681800Y-124071600D01*
X191681800Y-125071800D01*
G37*
G36*
X197893600Y-80778800D02*
X197893600Y-80379000D01*
X196893400Y-80379000D01*
X196893400Y-80778800D01*
X197893600Y-80778800D01*
G37*
G36*
X191631000Y-127953000D02*
X192030800Y-127953000D01*
X192030800Y-126952800D01*
X191631000Y-126952800D01*
X191631000Y-127953000D01*
G37*
G36*
X193484200Y-87365600D02*
X193484200Y-87765400D01*
X194484400Y-87765400D01*
X194484400Y-87365600D01*
X193484200Y-87365600D01*
G37*
G36*
X190851200Y-87399000D02*
X190851200Y-87798800D01*
X191851400Y-87798800D01*
X191851400Y-87399000D01*
X190851200Y-87399000D01*
G37*
M02*
