G04 #@! TF.FileFunction,Copper,L2,Bot,Signal*
%FSLAX46Y46*%
G04 Gerber Fmt 4.6, Leading zero omitted, Abs format (unit mm)*
G04 Created by KiCad (PCBNEW 4.0.6) date 05/07/17 20:47:01*
%MOMM*%
%LPD*%
G01*
G04 APERTURE LIST*
%ADD10C,0.100000*%
%ADD11R,1.200000X1.200000*%
%ADD12C,2.540000*%
%ADD13C,3.175000*%
%ADD14R,0.350000X0.805000*%
%ADD15R,0.805000X0.400000*%
%ADD16R,1.600000X1.600000*%
%ADD17C,2.184400*%
%ADD18C,1.006400*%
%ADD19C,0.812800*%
%ADD20C,0.406400*%
%ADD21C,3.200000*%
%ADD22C,0.304800*%
%ADD23C,1.016000*%
%ADD24C,1.270000*%
%ADD25C,2.540000*%
%ADD26C,0.609600*%
G04 APERTURE END LIST*
D10*
D11*
X176540100Y-104293900D03*
X176540100Y-106393900D03*
D12*
X191385100Y-93155900D03*
D13*
X191385100Y-93155900D03*
D12*
X167376100Y-117190900D03*
D13*
X167376100Y-117190900D03*
D12*
X171471100Y-113312900D03*
D13*
X171471100Y-113312900D03*
D12*
X187502100Y-97344900D03*
D13*
X187502100Y-97344900D03*
D12*
X199393100Y-85154900D03*
D13*
X199393100Y-85154900D03*
D12*
X159426100Y-125149900D03*
D13*
X159426100Y-125149900D03*
D12*
X195380100Y-89398900D03*
D13*
X195380100Y-89398900D03*
D12*
X163489100Y-121348900D03*
D13*
X163489100Y-121348900D03*
D14*
X178926300Y-103292000D03*
X179676300Y-103292000D03*
X180426300Y-103292000D03*
X181176300Y-103292000D03*
X181926300Y-103292000D03*
D15*
X182198800Y-104264500D03*
D14*
X181926300Y-106837000D03*
X181176300Y-106837000D03*
X180426300Y-106837000D03*
X179676300Y-106837000D03*
X178926300Y-106837000D03*
D15*
X178653800Y-104889500D03*
X182198800Y-105064500D03*
D12*
X187325100Y-113335900D03*
D13*
X187325100Y-113335900D03*
D12*
X171340500Y-97318500D03*
D13*
X171340500Y-97318500D03*
D12*
X167453500Y-93243700D03*
D13*
X167453500Y-93243700D03*
D12*
X191409300Y-117206700D03*
D13*
X191409300Y-117206700D03*
D12*
X199416300Y-125216700D03*
D13*
X199416300Y-125216700D03*
D12*
X159447500Y-85198300D03*
D13*
X159447500Y-85198300D03*
D12*
X163367300Y-89364100D03*
D13*
X163367300Y-89364100D03*
D12*
X195379300Y-121331900D03*
D13*
X195379300Y-121331900D03*
D16*
X186752100Y-87964900D03*
X186752100Y-78820900D03*
X171512100Y-78820900D03*
X171512100Y-87964900D03*
D17*
X171307700Y-105089900D03*
X179257700Y-97113500D03*
X187309700Y-105089900D03*
X179308700Y-113090900D03*
D18*
X174609700Y-104327900D03*
X183909100Y-106056900D03*
X185499600Y-95342400D03*
X181975700Y-108645900D03*
X174533500Y-101889500D03*
X197156100Y-86538900D03*
X195245100Y-81528900D03*
X157696100Y-122279900D03*
X156042300Y-90332500D03*
X161522100Y-80875900D03*
X196860100Y-103819900D03*
X203248100Y-85354100D03*
X168233100Y-90074900D03*
X186837100Y-91519900D03*
X201280100Y-130165900D03*
X157860100Y-130768900D03*
X200429100Y-122324900D03*
X167622100Y-123875900D03*
X198836100Y-118506900D03*
X199095300Y-111846300D03*
X179680100Y-100897900D03*
X193982100Y-96219900D03*
X192178100Y-99986900D03*
D19*
X176540100Y-104293900D02*
X174745300Y-104293900D01*
X174745300Y-104293900D02*
X174609700Y-104327900D01*
D20*
X178653800Y-104889500D02*
X178680400Y-104862900D01*
X178680400Y-104862900D02*
X180125100Y-104862900D01*
X180125100Y-104862900D02*
X180326700Y-105064500D01*
X180326700Y-105064500D02*
X182198800Y-105064500D01*
D21*
X187325100Y-113335900D02*
X187325100Y-113476900D01*
X187325100Y-113476900D02*
X183835100Y-116966900D01*
X183835100Y-116966900D02*
X175125100Y-116966900D01*
X175125100Y-116966900D02*
X171471100Y-113312900D01*
X171471100Y-113312900D02*
X171471100Y-113177900D01*
X171471100Y-113177900D02*
X168360100Y-110066900D01*
X168360100Y-110066900D02*
X168360100Y-110010900D01*
X168360100Y-110010900D02*
X167375100Y-109025900D01*
X167375100Y-109025900D02*
X167375100Y-101283900D01*
X167375100Y-101283900D02*
X171340500Y-97318500D01*
X171340500Y-97318500D02*
X171458500Y-97318500D01*
X171458500Y-97318500D02*
X174976100Y-93800900D01*
X174976100Y-93800900D02*
X183958100Y-93800900D01*
X183958100Y-93800900D02*
X185499600Y-95342400D01*
X185499600Y-95342400D02*
X187502100Y-97344900D01*
X171512100Y-87964900D02*
X186752100Y-87964900D01*
X171512100Y-87964900D02*
X177779100Y-87964900D01*
X177779100Y-87964900D02*
X179196100Y-89381900D01*
X179196100Y-89381900D02*
X179539100Y-89381900D01*
X179539100Y-89381900D02*
X183958100Y-93800900D01*
D22*
X183909100Y-106056900D02*
X183191200Y-106056900D01*
X183191200Y-106056900D02*
X182198800Y-105064500D01*
D20*
X181926300Y-106837000D02*
X181926300Y-108596500D01*
X181926300Y-108596500D02*
X181975700Y-108645900D01*
X178926300Y-103292000D02*
X178926300Y-102523100D01*
X178926300Y-102523100D02*
X178241900Y-101838700D01*
X178241900Y-101838700D02*
X174584300Y-101838700D01*
X174584300Y-101838700D02*
X174533500Y-101889500D01*
D23*
X197156100Y-86538900D02*
X197024100Y-86493900D01*
X197024100Y-86493900D02*
X195245100Y-84714900D01*
X195245100Y-84714900D02*
X195245100Y-81528900D01*
D24*
X157696100Y-122279900D02*
X157860100Y-122115900D01*
X157860100Y-122115900D02*
X157860100Y-91007900D01*
X157860100Y-91007900D02*
X157184700Y-90332500D01*
X157184700Y-90332500D02*
X156548100Y-90332500D01*
X156548100Y-90332500D02*
X156042300Y-90332500D01*
D25*
X158024100Y-80875900D02*
X155399100Y-83500900D01*
X155399100Y-83500900D02*
X155399100Y-88542900D01*
X155399100Y-88542900D02*
X156548100Y-89691900D01*
X156548100Y-89691900D02*
X156548100Y-90332500D01*
X161522100Y-80875900D02*
X158024100Y-80875900D01*
D22*
X176540100Y-106393900D02*
X176540100Y-109052300D01*
X176540100Y-109052300D02*
X177479900Y-109992100D01*
X177479900Y-109992100D02*
X195742500Y-109992100D01*
X195742500Y-109992100D02*
X196783900Y-108950700D01*
X196783900Y-108950700D02*
X196783900Y-103896100D01*
X196783900Y-103896100D02*
X196860100Y-103819900D01*
D25*
X202702100Y-91007900D02*
X202702100Y-90842900D01*
X202702100Y-90842900D02*
X203194100Y-90350900D01*
X203194100Y-90350900D02*
X203194100Y-85408100D01*
X203194100Y-85408100D02*
X203248100Y-85354100D01*
X191385100Y-93155900D02*
X193373100Y-93155900D01*
X193373100Y-93155900D02*
X194108100Y-92420900D01*
X194108100Y-92420900D02*
X201289100Y-92420900D01*
X201289100Y-92420900D02*
X202702100Y-91007900D01*
D21*
X191409300Y-117206700D02*
X191311300Y-117206700D01*
X191311300Y-117206700D02*
X188265100Y-120252900D01*
X188265100Y-120252900D02*
X188265100Y-120309900D01*
X188265100Y-120309900D02*
X187445100Y-121129900D01*
X187445100Y-121129900D02*
X171315100Y-121129900D01*
X171315100Y-121129900D02*
X167376100Y-117190900D01*
X167376100Y-117190900D02*
X167376100Y-117015900D01*
X167376100Y-117015900D02*
X163055100Y-112694900D01*
X163055100Y-112694900D02*
X163055100Y-97642100D01*
X163055100Y-97642100D02*
X167090700Y-93606500D01*
X167090700Y-93606500D02*
X167453500Y-93243700D01*
D25*
X168233100Y-90074900D02*
X168233100Y-92464100D01*
X168233100Y-92464100D02*
X167090700Y-93606500D01*
X191385100Y-93155900D02*
X188435100Y-93117900D01*
X188435100Y-93117900D02*
X186837100Y-91519900D01*
D20*
X199416300Y-125216700D02*
X159492900Y-125216700D01*
X159492900Y-125216700D02*
X159426100Y-125149900D01*
X159426100Y-125149900D02*
X159426100Y-85219700D01*
X159426100Y-85219700D02*
X159447500Y-85198300D01*
X199349700Y-85198300D02*
X199393100Y-85154900D01*
D23*
X201280100Y-130165900D02*
X199416300Y-128302100D01*
X199416300Y-128302100D02*
X199416300Y-125216700D01*
X157860100Y-130768900D02*
X159426100Y-129202900D01*
X159426100Y-129202900D02*
X159426100Y-125149900D01*
D26*
X199349700Y-85198300D02*
X199366100Y-85181900D01*
X199366100Y-85181900D02*
X199366100Y-81313900D01*
X199366100Y-81313900D02*
X197176100Y-79123900D01*
X197176100Y-79123900D02*
X192968100Y-79123900D01*
X159447500Y-85198300D02*
X159859700Y-85198300D01*
X159859700Y-85198300D02*
X161380100Y-83677900D01*
X161380100Y-83677900D02*
X188262100Y-83677900D01*
X188262100Y-83677900D02*
X189494100Y-82445900D01*
X189494100Y-82445900D02*
X189494100Y-79980900D01*
X189494100Y-79980900D02*
X190405100Y-79069900D01*
X190405100Y-79069900D02*
X192914100Y-79069900D01*
X192914100Y-79069900D02*
X192968100Y-79123900D01*
X195380100Y-89398900D02*
X195380100Y-87105900D01*
X195380100Y-87105900D02*
X193503100Y-85228900D01*
X193503100Y-85228900D02*
X167502500Y-85228900D01*
X167502500Y-85228900D02*
X163367300Y-89364100D01*
X163489100Y-121348900D02*
X163097100Y-121348900D01*
X163097100Y-121348900D02*
X160924100Y-119175900D01*
X160924100Y-119175900D02*
X160924100Y-119129900D01*
X160924100Y-119129900D02*
X160651100Y-118856900D01*
X160651100Y-118856900D02*
X160651100Y-92080300D01*
X160651100Y-92080300D02*
X163367300Y-89364100D01*
X195379300Y-121331900D02*
X195379300Y-121588700D01*
X195379300Y-121588700D02*
X193412100Y-123555900D01*
X193412100Y-123555900D02*
X193368100Y-123555900D01*
X193368100Y-123555900D02*
X193048100Y-123875900D01*
X193048100Y-123875900D02*
X167804100Y-123875900D01*
X167622100Y-123875900D02*
X166016100Y-123875900D01*
X166016100Y-123875900D02*
X163489100Y-121348900D01*
D24*
X200429100Y-122324900D02*
X200429100Y-121958900D01*
X200429100Y-121958900D02*
X199791100Y-121320900D01*
X199791100Y-121320900D02*
X195390300Y-121320900D01*
X195390300Y-121320900D02*
X195379300Y-121331900D01*
X167622100Y-123875900D02*
X167804100Y-123875900D01*
D19*
X198836100Y-118506900D02*
X199095300Y-118247700D01*
X199095300Y-118247700D02*
X199095300Y-111846300D01*
D22*
X179680100Y-100897900D02*
X179715100Y-103229200D01*
X179715100Y-103229200D02*
X179676300Y-103292000D01*
X180426300Y-103292000D02*
X179676300Y-103292000D01*
D20*
X181926300Y-103292000D02*
X181926300Y-102426700D01*
X181926300Y-102426700D02*
X182846100Y-101506900D01*
X182846100Y-101506900D02*
X193158100Y-101506900D01*
X193158100Y-101506900D02*
X194425100Y-100239900D01*
X194425100Y-100239900D02*
X194425100Y-96662900D01*
X194425100Y-96662900D02*
X193982100Y-96219900D01*
X181176300Y-103292000D02*
X181176300Y-101846700D01*
X181176300Y-101846700D02*
X182308100Y-100714900D01*
X182308100Y-100714900D02*
X191419100Y-100714900D01*
X191419100Y-100714900D02*
X192178100Y-99986900D01*
G36*
X170399662Y-86580370D02*
X170291629Y-86652555D01*
X170199755Y-86744430D01*
X170127570Y-86852462D01*
X170077848Y-86972502D01*
X170052500Y-87099935D01*
X170052500Y-87775000D01*
X170217400Y-87939900D01*
X171487100Y-87939900D01*
X171487100Y-87919900D01*
X171537100Y-87919900D01*
X171537100Y-87939900D01*
X172806800Y-87939900D01*
X172971700Y-87775000D01*
X172971700Y-87099935D01*
X172946352Y-86972502D01*
X172896630Y-86852462D01*
X172824445Y-86744430D01*
X172732571Y-86652555D01*
X172624538Y-86580370D01*
X172550494Y-86549700D01*
X185713706Y-86549700D01*
X185639662Y-86580370D01*
X185531629Y-86652555D01*
X185439755Y-86744430D01*
X185367570Y-86852462D01*
X185317848Y-86972502D01*
X185292500Y-87099935D01*
X185292500Y-87775000D01*
X185457400Y-87939900D01*
X186727100Y-87939900D01*
X186727100Y-87919900D01*
X186777100Y-87919900D01*
X186777100Y-87939900D01*
X188046800Y-87939900D01*
X188211700Y-87775000D01*
X188211700Y-87099935D01*
X188186352Y-86972502D01*
X188136630Y-86852462D01*
X188064445Y-86744430D01*
X187972571Y-86652555D01*
X187864538Y-86580370D01*
X187790494Y-86549700D01*
X192956006Y-86549700D01*
X193756281Y-87349975D01*
X193740844Y-87360076D01*
X193376053Y-87717305D01*
X193087597Y-88138586D01*
X192886461Y-88607871D01*
X192780307Y-89107286D01*
X192773178Y-89617809D01*
X192865346Y-90119994D01*
X192991006Y-90437376D01*
X192863055Y-90503699D01*
X192853660Y-90511199D01*
X192843047Y-90516842D01*
X192679402Y-90650307D01*
X192514381Y-90782042D01*
X192497654Y-90798537D01*
X192497306Y-90798821D01*
X192497113Y-90799054D01*
X192158701Y-90656799D01*
X191658557Y-90554134D01*
X191147996Y-90550570D01*
X190646467Y-90646242D01*
X190173073Y-90837505D01*
X190148206Y-90853778D01*
X189394157Y-90844065D01*
X188453546Y-89903454D01*
X188108791Y-89620270D01*
X187715599Y-89409442D01*
X187706599Y-89406691D01*
X187744498Y-89399152D01*
X187864538Y-89349430D01*
X187972571Y-89277245D01*
X188064445Y-89185370D01*
X188136630Y-89077338D01*
X188186352Y-88957298D01*
X188211700Y-88829865D01*
X188211700Y-88154800D01*
X188046800Y-87989900D01*
X186777100Y-87989900D01*
X186777100Y-88009900D01*
X186727100Y-88009900D01*
X186727100Y-87989900D01*
X185457400Y-87989900D01*
X185292500Y-88154800D01*
X185292500Y-88829865D01*
X185317848Y-88957298D01*
X185367570Y-89077338D01*
X185439755Y-89185370D01*
X185531629Y-89277245D01*
X185639662Y-89349430D01*
X185759702Y-89399152D01*
X185887135Y-89424500D01*
X185933260Y-89424500D01*
X185578701Y-89611438D01*
X185231978Y-89892209D01*
X184946393Y-90234977D01*
X184732826Y-90626689D01*
X184599409Y-91052423D01*
X184551225Y-91495961D01*
X184590110Y-91940412D01*
X184714582Y-92368847D01*
X184919899Y-92764945D01*
X185198242Y-93113619D01*
X185220654Y-93136346D01*
X186818654Y-94734346D01*
X186907936Y-94807683D01*
X186763467Y-94835242D01*
X186290073Y-95026505D01*
X185862844Y-95306076D01*
X185498053Y-95663305D01*
X185209597Y-96084586D01*
X185008461Y-96553871D01*
X184902307Y-97053286D01*
X184895178Y-97563809D01*
X184987346Y-98065994D01*
X185175300Y-98540713D01*
X185451882Y-98969883D01*
X185806555Y-99337158D01*
X186034667Y-99495700D01*
X182308100Y-99495700D01*
X182195997Y-99506692D01*
X182083827Y-99516505D01*
X182077672Y-99518293D01*
X182071289Y-99518919D01*
X181963440Y-99551481D01*
X181855328Y-99582890D01*
X181849637Y-99585840D01*
X181843499Y-99587693D01*
X181744072Y-99640560D01*
X181644076Y-99692392D01*
X181639064Y-99696393D01*
X181633405Y-99699402D01*
X181546134Y-99770578D01*
X181458117Y-99840842D01*
X181449192Y-99849643D01*
X181449010Y-99849791D01*
X181448871Y-99849959D01*
X181445995Y-99852795D01*
X181054116Y-100244674D01*
X181027965Y-100181228D01*
X180863092Y-99933075D01*
X180653160Y-99721672D01*
X180406165Y-99555072D01*
X180131513Y-99439619D01*
X179839668Y-99379712D01*
X179541745Y-99377632D01*
X179249091Y-99433458D01*
X178972855Y-99545065D01*
X178723557Y-99708201D01*
X178510694Y-99916652D01*
X178342373Y-100162478D01*
X178225006Y-100436317D01*
X178186069Y-100619500D01*
X175367537Y-100619500D01*
X175259565Y-100546672D01*
X174984913Y-100431219D01*
X174693068Y-100371312D01*
X174395145Y-100369232D01*
X174102491Y-100425058D01*
X173826255Y-100536665D01*
X173576957Y-100699801D01*
X173364094Y-100908252D01*
X173195773Y-101154078D01*
X173078406Y-101427917D01*
X173016463Y-101719337D01*
X173012303Y-102017238D01*
X173066085Y-102310274D01*
X173175761Y-102587283D01*
X173337152Y-102837714D01*
X173544112Y-103052027D01*
X173660853Y-103133165D01*
X173653157Y-103138201D01*
X173440294Y-103346652D01*
X173271973Y-103592478D01*
X173154606Y-103866317D01*
X173123423Y-104013020D01*
X172949343Y-103751008D01*
X172658020Y-103457644D01*
X172315263Y-103226452D01*
X171934128Y-103066237D01*
X171529133Y-102983104D01*
X171115704Y-102980217D01*
X170709588Y-103057688D01*
X170326253Y-103212565D01*
X169980302Y-103438950D01*
X169684911Y-103728218D01*
X169451331Y-104069353D01*
X169288460Y-104449359D01*
X169202501Y-104853764D01*
X169196729Y-105267163D01*
X169271362Y-105673810D01*
X169423559Y-106058217D01*
X169647523Y-106405740D01*
X169934722Y-106703144D01*
X170274218Y-106939099D01*
X170653078Y-107104619D01*
X171056873Y-107193399D01*
X171470222Y-107202058D01*
X171877380Y-107130265D01*
X172262839Y-106980755D01*
X172611918Y-106759223D01*
X172911319Y-106474107D01*
X173149639Y-106136267D01*
X173317800Y-105758571D01*
X173409397Y-105355406D01*
X173410565Y-105271789D01*
X173413352Y-105276114D01*
X173620312Y-105490427D01*
X173864957Y-105660460D01*
X174137970Y-105779736D01*
X174428950Y-105843712D01*
X174726816Y-105849952D01*
X174919185Y-105816032D01*
X174919185Y-106993900D01*
X174932087Y-107155694D01*
X175017070Y-107430114D01*
X175175140Y-107669994D01*
X175371700Y-107837521D01*
X175371700Y-109052300D01*
X175382230Y-109159689D01*
X175391638Y-109267229D01*
X175393353Y-109273131D01*
X175393952Y-109279243D01*
X175425144Y-109382558D01*
X175455257Y-109486206D01*
X175458084Y-109491659D01*
X175459860Y-109497543D01*
X175510526Y-109592831D01*
X175560197Y-109688657D01*
X175564032Y-109693461D01*
X175566915Y-109698883D01*
X175635110Y-109782498D01*
X175702462Y-109866868D01*
X175710898Y-109875423D01*
X175711038Y-109875595D01*
X175711197Y-109875727D01*
X175713916Y-109878484D01*
X176653717Y-110818284D01*
X176737100Y-110886775D01*
X176819793Y-110956163D01*
X176825177Y-110959123D01*
X176829924Y-110963022D01*
X176925027Y-111014016D01*
X177019618Y-111066018D01*
X177025475Y-111067876D01*
X177030889Y-111070779D01*
X177134080Y-111102327D01*
X177236976Y-111134968D01*
X177243084Y-111135653D01*
X177248958Y-111137449D01*
X177356331Y-111148356D01*
X177463587Y-111160386D01*
X177475595Y-111160470D01*
X177475822Y-111160493D01*
X177476034Y-111160473D01*
X177479900Y-111160500D01*
X178458594Y-111160500D01*
X178327253Y-111213565D01*
X177981302Y-111439950D01*
X177685911Y-111729218D01*
X177452331Y-112070353D01*
X177289460Y-112450359D01*
X177203501Y-112854764D01*
X177197729Y-113268163D01*
X177272362Y-113674810D01*
X177424559Y-114059217D01*
X177648523Y-114406740D01*
X177935722Y-114704144D01*
X178275218Y-114940099D01*
X178654078Y-115105619D01*
X179057873Y-115194399D01*
X179471222Y-115203058D01*
X179878380Y-115131265D01*
X180263839Y-114981755D01*
X180612918Y-114760223D01*
X180912319Y-114475107D01*
X181150639Y-114137267D01*
X181318800Y-113759571D01*
X181410397Y-113356406D01*
X181416991Y-112884180D01*
X181336687Y-112478615D01*
X181179137Y-112096371D01*
X180950343Y-111752008D01*
X180659020Y-111458644D01*
X180316263Y-111227452D01*
X180156991Y-111160500D01*
X185894554Y-111160500D01*
X185685844Y-111297076D01*
X185321053Y-111654305D01*
X185032597Y-112075586D01*
X184831461Y-112544871D01*
X184725307Y-113044286D01*
X184718178Y-113554809D01*
X184810346Y-114056994D01*
X184998300Y-114531713D01*
X185274882Y-114960883D01*
X185629555Y-115328158D01*
X186048812Y-115619549D01*
X186516682Y-115823956D01*
X187015344Y-115933594D01*
X187525804Y-115944287D01*
X188028620Y-115855627D01*
X188504639Y-115670991D01*
X188935730Y-115397413D01*
X189305472Y-115045312D01*
X189599783Y-114628100D01*
X189807452Y-114161668D01*
X189920568Y-113663784D01*
X189928711Y-113080614D01*
X189829541Y-112579765D01*
X189634977Y-112107717D01*
X189352430Y-111682450D01*
X188992663Y-111320163D01*
X188755953Y-111160500D01*
X195742500Y-111160500D01*
X195849889Y-111149970D01*
X195957429Y-111140562D01*
X195963331Y-111138847D01*
X195969443Y-111138248D01*
X196072758Y-111107056D01*
X196176406Y-111076943D01*
X196181859Y-111074116D01*
X196187743Y-111072340D01*
X196283031Y-111021674D01*
X196378857Y-110972003D01*
X196383661Y-110968168D01*
X196389083Y-110965285D01*
X196472698Y-110897090D01*
X196557068Y-110829738D01*
X196565623Y-110821302D01*
X196565795Y-110821162D01*
X196565927Y-110821003D01*
X196568684Y-110818284D01*
X197610084Y-109776884D01*
X197678596Y-109693476D01*
X197747963Y-109610807D01*
X197750923Y-109605423D01*
X197754822Y-109600676D01*
X197805816Y-109505573D01*
X197857818Y-109410982D01*
X197859676Y-109405125D01*
X197862579Y-109399711D01*
X197894127Y-109296520D01*
X197926768Y-109193624D01*
X197927453Y-109187516D01*
X197929249Y-109181642D01*
X197940156Y-109074269D01*
X197952186Y-108967013D01*
X197952270Y-108955005D01*
X197952293Y-108954778D01*
X197952273Y-108954566D01*
X197952300Y-108950700D01*
X197952300Y-104877747D01*
X198015692Y-104817380D01*
X198187428Y-104573927D01*
X198308608Y-104301754D01*
X198374614Y-104011228D01*
X198379365Y-103670935D01*
X198321497Y-103378678D01*
X198207965Y-103103228D01*
X198043092Y-102855075D01*
X197833160Y-102643672D01*
X197586165Y-102477072D01*
X197311513Y-102361619D01*
X197019668Y-102301712D01*
X196721745Y-102299632D01*
X196429091Y-102355458D01*
X196152855Y-102467065D01*
X195903557Y-102630201D01*
X195690694Y-102838652D01*
X195522373Y-103084478D01*
X195405006Y-103358317D01*
X195343063Y-103649737D01*
X195338903Y-103947638D01*
X195392685Y-104240674D01*
X195502361Y-104517683D01*
X195615500Y-104693241D01*
X195615500Y-108466732D01*
X195258532Y-108823700D01*
X183490403Y-108823700D01*
X183494965Y-108496935D01*
X183437097Y-108204678D01*
X183323565Y-107929228D01*
X183158692Y-107681075D01*
X183145500Y-107667791D01*
X183145500Y-106837000D01*
X183122281Y-106600189D01*
X183122215Y-106599970D01*
X183122215Y-106434500D01*
X183109313Y-106272706D01*
X183024330Y-105998286D01*
X182922236Y-105843352D01*
X183021771Y-105776845D01*
X183113645Y-105684970D01*
X183185830Y-105576938D01*
X183235552Y-105456898D01*
X183260900Y-105329465D01*
X183260900Y-105267163D01*
X185198729Y-105267163D01*
X185273362Y-105673810D01*
X185425559Y-106058217D01*
X185649523Y-106405740D01*
X185936722Y-106703144D01*
X186276218Y-106939099D01*
X186655078Y-107104619D01*
X187058873Y-107193399D01*
X187472222Y-107202058D01*
X187879380Y-107130265D01*
X188264839Y-106980755D01*
X188613918Y-106759223D01*
X188913319Y-106474107D01*
X189151639Y-106136267D01*
X189319800Y-105758571D01*
X189411397Y-105355406D01*
X189417991Y-104883180D01*
X189337687Y-104477615D01*
X189180137Y-104095371D01*
X188951343Y-103751008D01*
X188660020Y-103457644D01*
X188317263Y-103226452D01*
X187936128Y-103066237D01*
X187531133Y-102983104D01*
X187117704Y-102980217D01*
X186711588Y-103057688D01*
X186328253Y-103212565D01*
X185982302Y-103438950D01*
X185686911Y-103728218D01*
X185453331Y-104069353D01*
X185290460Y-104449359D01*
X185204501Y-104853764D01*
X185198729Y-105267163D01*
X183260900Y-105267163D01*
X183260900Y-105254400D01*
X183252418Y-105245918D01*
X183277394Y-105229460D01*
X183463740Y-105010819D01*
X183581796Y-104748920D01*
X183622215Y-104464500D01*
X183622215Y-104064500D01*
X183609313Y-103902706D01*
X183524330Y-103628286D01*
X183366260Y-103388406D01*
X183147619Y-103202060D01*
X183145500Y-103201105D01*
X183145500Y-102931710D01*
X183351109Y-102726100D01*
X193158100Y-102726100D01*
X193270203Y-102715108D01*
X193382373Y-102705295D01*
X193388528Y-102703507D01*
X193394911Y-102702881D01*
X193502760Y-102670319D01*
X193610872Y-102638910D01*
X193616563Y-102635960D01*
X193622701Y-102634107D01*
X193722128Y-102581240D01*
X193822124Y-102529408D01*
X193827136Y-102525407D01*
X193832795Y-102522398D01*
X193920066Y-102451222D01*
X194008083Y-102380958D01*
X194017008Y-102372157D01*
X194017190Y-102372009D01*
X194017329Y-102371841D01*
X194020205Y-102369005D01*
X195287205Y-101102004D01*
X195358687Y-101014980D01*
X195431078Y-100928708D01*
X195434166Y-100923091D01*
X195438237Y-100918135D01*
X195491487Y-100818826D01*
X195545710Y-100720194D01*
X195547647Y-100714087D01*
X195550679Y-100708433D01*
X195583618Y-100600693D01*
X195617658Y-100493386D01*
X195618373Y-100487015D01*
X195620247Y-100480884D01*
X195631631Y-100368815D01*
X195644181Y-100256923D01*
X195644269Y-100244397D01*
X195644293Y-100244156D01*
X195644272Y-100243932D01*
X195644300Y-100239900D01*
X195644300Y-96662900D01*
X195633313Y-96550842D01*
X195623495Y-96438627D01*
X195621707Y-96432472D01*
X195621081Y-96426089D01*
X195588519Y-96318240D01*
X195557110Y-96210128D01*
X195554160Y-96204437D01*
X195552307Y-96198299D01*
X195500936Y-96101684D01*
X195501365Y-96070935D01*
X195443497Y-95778678D01*
X195329965Y-95503228D01*
X195165092Y-95255075D01*
X194955160Y-95043672D01*
X194792580Y-94934011D01*
X194801798Y-94926493D01*
X194966819Y-94794758D01*
X194983546Y-94778263D01*
X194983894Y-94777979D01*
X194984161Y-94777657D01*
X194989546Y-94772346D01*
X195054992Y-94706900D01*
X201289100Y-94706900D01*
X201499234Y-94686296D01*
X201709612Y-94667890D01*
X201721156Y-94664536D01*
X201733120Y-94663363D01*
X201935287Y-94602325D01*
X202138047Y-94543418D01*
X202148718Y-94537887D01*
X202160227Y-94534412D01*
X202346678Y-94435275D01*
X202534145Y-94338101D01*
X202543540Y-94330601D01*
X202554153Y-94324958D01*
X202717798Y-94191493D01*
X202882819Y-94059758D01*
X202899546Y-94043263D01*
X202899894Y-94042979D01*
X202900161Y-94042657D01*
X202905546Y-94037346D01*
X204186676Y-92756216D01*
X204098105Y-122695672D01*
X204107106Y-122790357D01*
X204114125Y-122885203D01*
X204117172Y-122896241D01*
X204118256Y-122907643D01*
X204145476Y-122998774D01*
X204170783Y-123090452D01*
X204175916Y-123100689D01*
X204179194Y-123111662D01*
X204223598Y-123195773D01*
X204266230Y-123280786D01*
X204273254Y-123289831D01*
X204278601Y-123299959D01*
X204338488Y-123373833D01*
X204396828Y-123448958D01*
X204405477Y-123456468D01*
X204412687Y-123465362D01*
X204485765Y-123526182D01*
X204557604Y-123588560D01*
X204567550Y-123594249D01*
X204576348Y-123601571D01*
X204659843Y-123647037D01*
X204742433Y-123694275D01*
X204753291Y-123697922D01*
X204763347Y-123703398D01*
X204854128Y-123731794D01*
X204944276Y-123762075D01*
X204955630Y-123763543D01*
X204966563Y-123766963D01*
X205061126Y-123777185D01*
X205155444Y-123789381D01*
X205170673Y-123789744D01*
X205612914Y-123797215D01*
X205696327Y-131734900D01*
X159049362Y-131734900D01*
X160503730Y-130280531D01*
X160593072Y-130171765D01*
X160683573Y-130063910D01*
X160687434Y-130056887D01*
X160692520Y-130050695D01*
X160759041Y-129926633D01*
X160826862Y-129803267D01*
X160829285Y-129795629D01*
X160833072Y-129788566D01*
X160874229Y-129653949D01*
X160916797Y-129519757D01*
X160917690Y-129511792D01*
X160920033Y-129504130D01*
X160934262Y-129364050D01*
X160949951Y-129224178D01*
X160950061Y-129208519D01*
X160950091Y-129208220D01*
X160950065Y-129207942D01*
X160950100Y-129202900D01*
X160950100Y-127266390D01*
X161036730Y-127211413D01*
X161406472Y-126859312D01*
X161700783Y-126442100D01*
X161703543Y-126435900D01*
X197104572Y-126435900D01*
X197366082Y-126841683D01*
X197720755Y-127208958D01*
X197892300Y-127328185D01*
X197892300Y-128302100D01*
X197906038Y-128442210D01*
X197918306Y-128582442D01*
X197920542Y-128590139D01*
X197921324Y-128598113D01*
X197962011Y-128732873D01*
X198001288Y-128868065D01*
X198004976Y-128875180D01*
X198007292Y-128882851D01*
X198073380Y-129007145D01*
X198138166Y-129132130D01*
X198143166Y-129138393D01*
X198146928Y-129145469D01*
X198235929Y-129254595D01*
X198323729Y-129364580D01*
X198334725Y-129375731D01*
X198334914Y-129375963D01*
X198335128Y-129376140D01*
X198338669Y-129379731D01*
X200202469Y-131243531D01*
X200232742Y-131268398D01*
X200290712Y-131328427D01*
X200388922Y-131396685D01*
X200432305Y-131432320D01*
X200466828Y-131450831D01*
X200535357Y-131498460D01*
X200644959Y-131546344D01*
X200694434Y-131572872D01*
X200731895Y-131584325D01*
X200808370Y-131617736D01*
X200925180Y-131643418D01*
X200978870Y-131659833D01*
X201017845Y-131663792D01*
X201099350Y-131681712D01*
X201218920Y-131684217D01*
X201274780Y-131689891D01*
X201313782Y-131686204D01*
X201397216Y-131687952D01*
X201515011Y-131667182D01*
X201570893Y-131661899D01*
X201608425Y-131650710D01*
X201690620Y-131636217D01*
X201802141Y-131592961D01*
X201855929Y-131576926D01*
X201890573Y-131558660D01*
X201968388Y-131528478D01*
X202069377Y-131464388D01*
X202119033Y-131438208D01*
X202149473Y-131413558D01*
X202219939Y-131368839D01*
X202306561Y-131286350D01*
X202350181Y-131251027D01*
X202375251Y-131220937D01*
X202435692Y-131163380D01*
X202504634Y-131065647D01*
X202540571Y-131022515D01*
X202559324Y-130988119D01*
X202607428Y-130919927D01*
X202656075Y-130810664D01*
X202682949Y-130761374D01*
X202694663Y-130723996D01*
X202728608Y-130647754D01*
X202755106Y-130531121D01*
X202771894Y-130477552D01*
X202776124Y-130438610D01*
X202794614Y-130357228D01*
X202796037Y-130255309D01*
X202804016Y-130181859D01*
X202798019Y-130113315D01*
X202799365Y-130016935D01*
X202781848Y-129928466D01*
X202778094Y-129885558D01*
X202763204Y-129834306D01*
X202741497Y-129724678D01*
X202707126Y-129641289D01*
X202695112Y-129599935D01*
X202670556Y-129552561D01*
X202627965Y-129449228D01*
X202578053Y-129374104D01*
X202558234Y-129335870D01*
X202524940Y-129294164D01*
X202463092Y-129201075D01*
X202399538Y-129137076D01*
X202372671Y-129103420D01*
X202357731Y-129088269D01*
X200940300Y-127670838D01*
X200940300Y-127333190D01*
X201026930Y-127278213D01*
X201396672Y-126926112D01*
X201690983Y-126508900D01*
X201898652Y-126042468D01*
X202011768Y-125544584D01*
X202019911Y-124961414D01*
X201920741Y-124460565D01*
X201726177Y-123988517D01*
X201467146Y-123598644D01*
X201584244Y-123504494D01*
X201791362Y-123257661D01*
X201946592Y-122975298D01*
X202044022Y-122668162D01*
X202079939Y-122347952D01*
X202080100Y-122324900D01*
X202080100Y-121958900D01*
X202065214Y-121807082D01*
X202051926Y-121655197D01*
X202049504Y-121646862D01*
X202048657Y-121638219D01*
X202004563Y-121492173D01*
X201962030Y-121345772D01*
X201958036Y-121338067D01*
X201955526Y-121329753D01*
X201883927Y-121195096D01*
X201813745Y-121059700D01*
X201808327Y-121052913D01*
X201804253Y-121045251D01*
X201707863Y-120927065D01*
X201612719Y-120807881D01*
X201600805Y-120795799D01*
X201600601Y-120795549D01*
X201600369Y-120795357D01*
X201596533Y-120791467D01*
X200958533Y-120153467D01*
X200840701Y-120056678D01*
X200723861Y-119958638D01*
X200716252Y-119954455D01*
X200709544Y-119948945D01*
X200575126Y-119876871D01*
X200441498Y-119803408D01*
X200433226Y-119800784D01*
X200425572Y-119796680D01*
X200279738Y-119752094D01*
X200134362Y-119705978D01*
X200125731Y-119705010D01*
X200117433Y-119702473D01*
X199965748Y-119687065D01*
X199817335Y-119670418D01*
X199991692Y-119504380D01*
X200163428Y-119260927D01*
X200242983Y-119082245D01*
X200268941Y-119051309D01*
X200272542Y-119044759D01*
X200277293Y-119038975D01*
X200339397Y-118923151D01*
X200402678Y-118808043D01*
X200404940Y-118800911D01*
X200408474Y-118794321D01*
X200446876Y-118668714D01*
X200486617Y-118543434D01*
X200487451Y-118535998D01*
X200489637Y-118528848D01*
X200502912Y-118398160D01*
X200517561Y-118267560D01*
X200517663Y-118252937D01*
X200517691Y-118252665D01*
X200517667Y-118252411D01*
X200517700Y-118247700D01*
X200517700Y-112386793D01*
X200543808Y-112328154D01*
X200609814Y-112037628D01*
X200614565Y-111697335D01*
X200556697Y-111405078D01*
X200443165Y-111129628D01*
X200278292Y-110881475D01*
X200068360Y-110670072D01*
X199821365Y-110503472D01*
X199546713Y-110388019D01*
X199254868Y-110328112D01*
X198956945Y-110326032D01*
X198664291Y-110381858D01*
X198388055Y-110493465D01*
X198138757Y-110656601D01*
X197925894Y-110865052D01*
X197757573Y-111110878D01*
X197640206Y-111384717D01*
X197578263Y-111676137D01*
X197574103Y-111974038D01*
X197627885Y-112267074D01*
X197672900Y-112380769D01*
X197672900Y-117519575D01*
X197666694Y-117525652D01*
X197498373Y-117771478D01*
X197381006Y-118045317D01*
X197319063Y-118336737D01*
X197314903Y-118634638D01*
X197368685Y-118927674D01*
X197478361Y-119204683D01*
X197639752Y-119455114D01*
X197846712Y-119669427D01*
X197847393Y-119669900D01*
X197398139Y-119669900D01*
X197046863Y-119316163D01*
X196623579Y-119030654D01*
X196152901Y-118832799D01*
X195652757Y-118730134D01*
X195142196Y-118726570D01*
X194640667Y-118822242D01*
X194167273Y-119013505D01*
X193740044Y-119293076D01*
X193375253Y-119650305D01*
X193086797Y-120071586D01*
X192885661Y-120540871D01*
X192779507Y-121040286D01*
X192772378Y-121550809D01*
X192864546Y-122052994D01*
X192916327Y-122183779D01*
X192655345Y-122444761D01*
X192648741Y-122448184D01*
X192643313Y-122452517D01*
X192637180Y-122455778D01*
X192542616Y-122532902D01*
X192514810Y-122555100D01*
X189719482Y-122555100D01*
X190114891Y-122159691D01*
X190268248Y-121972991D01*
X190391623Y-121825959D01*
X192803563Y-119414020D01*
X192856972Y-119385622D01*
X192934297Y-119322557D01*
X193019930Y-119268213D01*
X193133283Y-119160269D01*
X193252623Y-119062937D01*
X193316228Y-118986052D01*
X193389672Y-118916112D01*
X193479897Y-118788210D01*
X193578062Y-118669549D01*
X193625522Y-118581774D01*
X193683983Y-118498900D01*
X193747647Y-118355908D01*
X193820894Y-118220441D01*
X193850401Y-118125119D01*
X193891652Y-118032468D01*
X193926329Y-117879835D01*
X193971869Y-117732720D01*
X193982299Y-117633480D01*
X194004768Y-117534584D01*
X194006618Y-117402104D01*
X194025236Y-117224963D01*
X194011239Y-117071162D01*
X194012911Y-116951414D01*
X193989649Y-116833933D01*
X193978963Y-116716510D01*
X193940569Y-116586059D01*
X193913741Y-116450565D01*
X193868103Y-116339838D01*
X193834813Y-116226729D01*
X193771813Y-116106221D01*
X193719177Y-115978517D01*
X193652899Y-115878761D01*
X193598275Y-115774275D01*
X193513069Y-115668300D01*
X193436630Y-115553250D01*
X193352243Y-115468272D01*
X193278361Y-115376381D01*
X193174186Y-115288968D01*
X193076863Y-115190963D01*
X192977581Y-115123996D01*
X192887254Y-115048203D01*
X192768085Y-114982689D01*
X192653579Y-114905454D01*
X192543176Y-114859045D01*
X192439852Y-114802242D01*
X192310233Y-114761124D01*
X192182901Y-114707599D01*
X192065584Y-114683517D01*
X191953197Y-114647866D01*
X191818062Y-114632708D01*
X191682757Y-114604934D01*
X191562997Y-114604098D01*
X191445825Y-114590955D01*
X191409300Y-114590700D01*
X191311300Y-114590700D01*
X191200466Y-114601567D01*
X191172196Y-114601370D01*
X191140170Y-114607479D01*
X191070778Y-114614283D01*
X190830083Y-114635341D01*
X190816874Y-114639179D01*
X190803183Y-114640521D01*
X190571866Y-114710360D01*
X190339802Y-114777781D01*
X190327587Y-114784113D01*
X190314420Y-114788088D01*
X190101079Y-114901523D01*
X189886524Y-115012738D01*
X189875773Y-115021320D01*
X189863628Y-115027778D01*
X189676374Y-115180498D01*
X189487516Y-115331262D01*
X189468369Y-115350144D01*
X189467977Y-115350463D01*
X189467677Y-115350826D01*
X189461508Y-115356909D01*
X186415309Y-118403109D01*
X186324304Y-118513900D01*
X172398682Y-118513900D01*
X169671392Y-115786610D01*
X169570062Y-115591125D01*
X169561481Y-115580376D01*
X169555022Y-115568228D01*
X169402284Y-115380952D01*
X169251538Y-115192116D01*
X169232660Y-115172973D01*
X169232337Y-115172577D01*
X169231970Y-115172274D01*
X169225891Y-115166109D01*
X167591591Y-113531809D01*
X168864178Y-113531809D01*
X168956346Y-114033994D01*
X169144300Y-114508713D01*
X169420882Y-114937883D01*
X169775555Y-115305158D01*
X170194812Y-115596549D01*
X170662682Y-115800956D01*
X171161344Y-115910594D01*
X171671804Y-115921287D01*
X172174620Y-115832627D01*
X172650639Y-115647991D01*
X173081730Y-115374413D01*
X173451472Y-115022312D01*
X173745783Y-114605100D01*
X173953452Y-114138668D01*
X174066568Y-113640784D01*
X174074711Y-113057614D01*
X173975541Y-112556765D01*
X173780977Y-112084717D01*
X173498430Y-111659450D01*
X173138663Y-111297163D01*
X172715379Y-111011654D01*
X172244701Y-110813799D01*
X171744557Y-110711134D01*
X171233996Y-110707570D01*
X170732467Y-110803242D01*
X170259073Y-110994505D01*
X169831844Y-111274076D01*
X169467053Y-111631305D01*
X169178597Y-112052586D01*
X168977461Y-112521871D01*
X168871307Y-113021286D01*
X168864178Y-113531809D01*
X167591591Y-113531809D01*
X165671100Y-111611318D01*
X165671100Y-98725682D01*
X166859373Y-97537409D01*
X168733578Y-97537409D01*
X168825746Y-98039594D01*
X169013700Y-98514313D01*
X169290282Y-98943483D01*
X169644955Y-99310758D01*
X170064212Y-99602149D01*
X170532082Y-99806556D01*
X171030744Y-99916194D01*
X171541204Y-99926887D01*
X172044020Y-99838227D01*
X172520039Y-99653591D01*
X172951130Y-99380013D01*
X173320872Y-99027912D01*
X173615183Y-98610700D01*
X173822852Y-98144268D01*
X173935968Y-97646384D01*
X173940933Y-97290763D01*
X177146729Y-97290763D01*
X177221362Y-97697410D01*
X177373559Y-98081817D01*
X177597523Y-98429340D01*
X177884722Y-98726744D01*
X178224218Y-98962699D01*
X178603078Y-99128219D01*
X179006873Y-99216999D01*
X179420222Y-99225658D01*
X179827380Y-99153865D01*
X180212839Y-99004355D01*
X180561918Y-98782823D01*
X180861319Y-98497707D01*
X181099639Y-98159867D01*
X181267800Y-97782171D01*
X181359397Y-97379006D01*
X181365991Y-96906780D01*
X181285687Y-96501215D01*
X181128137Y-96118971D01*
X180899343Y-95774608D01*
X180608020Y-95481244D01*
X180265263Y-95250052D01*
X179884128Y-95089837D01*
X179479133Y-95006704D01*
X179065704Y-95003817D01*
X178659588Y-95081288D01*
X178276253Y-95236165D01*
X177930302Y-95462550D01*
X177634911Y-95751818D01*
X177401331Y-96092953D01*
X177238460Y-96472959D01*
X177152501Y-96877364D01*
X177146729Y-97290763D01*
X173940933Y-97290763D01*
X173944111Y-97063214D01*
X173844941Y-96562365D01*
X173650377Y-96090317D01*
X173367830Y-95665050D01*
X173008063Y-95302763D01*
X172584779Y-95017254D01*
X172114101Y-94819399D01*
X171613957Y-94716734D01*
X171103396Y-94713170D01*
X170601867Y-94808842D01*
X170128473Y-95000105D01*
X169701244Y-95279676D01*
X169336453Y-95636905D01*
X169047997Y-96058186D01*
X168846861Y-96527471D01*
X168740707Y-97026886D01*
X168733578Y-97537409D01*
X166859373Y-97537409D01*
X168940491Y-95456292D01*
X168940496Y-95456286D01*
X169303292Y-95093491D01*
X169363749Y-95019889D01*
X169433872Y-94953112D01*
X169526752Y-94821446D01*
X169627356Y-94698969D01*
X169672366Y-94615026D01*
X169728183Y-94535900D01*
X169793723Y-94388696D01*
X169868618Y-94249016D01*
X169896465Y-94157933D01*
X169935852Y-94069468D01*
X169965371Y-93939538D01*
X169983572Y-93917380D01*
X170119309Y-93755615D01*
X170125100Y-93745081D01*
X170132731Y-93735791D01*
X170232539Y-93549650D01*
X170334243Y-93364651D01*
X170337876Y-93353197D01*
X170343559Y-93342599D01*
X170405313Y-93140610D01*
X170469145Y-92939386D01*
X170470485Y-92927442D01*
X170474000Y-92915944D01*
X170495346Y-92705799D01*
X170518877Y-92496018D01*
X170519041Y-92472531D01*
X170519087Y-92472079D01*
X170519047Y-92471658D01*
X170519100Y-92464100D01*
X170519100Y-90074900D01*
X170475563Y-89630880D01*
X170388295Y-89341835D01*
X170399662Y-89349430D01*
X170519702Y-89399152D01*
X170647135Y-89424500D01*
X171322200Y-89424500D01*
X171487100Y-89259600D01*
X171487100Y-87989900D01*
X171537100Y-87989900D01*
X171537100Y-89259600D01*
X171702000Y-89424500D01*
X172377065Y-89424500D01*
X172504498Y-89399152D01*
X172624538Y-89349430D01*
X172732571Y-89277245D01*
X172824445Y-89185370D01*
X172896630Y-89077338D01*
X172946352Y-88957298D01*
X172971700Y-88829865D01*
X172971700Y-88154800D01*
X172806800Y-87989900D01*
X171537100Y-87989900D01*
X171487100Y-87989900D01*
X170217400Y-87989900D01*
X170052500Y-88154800D01*
X170052500Y-88706046D01*
X169855179Y-88464106D01*
X169511415Y-88179720D01*
X169118961Y-87967521D01*
X168692764Y-87835591D01*
X168249059Y-87788956D01*
X167804746Y-87829391D01*
X167376749Y-87955358D01*
X166981370Y-88162057D01*
X166633670Y-88441615D01*
X166346891Y-88783385D01*
X166131957Y-89174349D01*
X165997055Y-89599614D01*
X165947323Y-90042982D01*
X165947100Y-90074900D01*
X165947100Y-91114898D01*
X165925981Y-91131757D01*
X165814244Y-91204876D01*
X165725398Y-91291880D01*
X165629716Y-91368262D01*
X165603709Y-91393908D01*
X165240980Y-91756638D01*
X165240908Y-91756709D01*
X161971900Y-95025718D01*
X161971900Y-92627394D01*
X162713207Y-91886087D01*
X163057544Y-91961794D01*
X163568004Y-91972487D01*
X164070820Y-91883827D01*
X164546839Y-91699191D01*
X164977930Y-91425613D01*
X165347672Y-91073512D01*
X165641983Y-90656300D01*
X165849652Y-90189868D01*
X165962768Y-89691984D01*
X165970911Y-89108814D01*
X165891506Y-88707788D01*
X168049594Y-86549700D01*
X170473706Y-86549700D01*
X170399662Y-86580370D01*
X170399662Y-86580370D01*
G37*
X170399662Y-86580370D02*
X170291629Y-86652555D01*
X170199755Y-86744430D01*
X170127570Y-86852462D01*
X170077848Y-86972502D01*
X170052500Y-87099935D01*
X170052500Y-87775000D01*
X170217400Y-87939900D01*
X171487100Y-87939900D01*
X171487100Y-87919900D01*
X171537100Y-87919900D01*
X171537100Y-87939900D01*
X172806800Y-87939900D01*
X172971700Y-87775000D01*
X172971700Y-87099935D01*
X172946352Y-86972502D01*
X172896630Y-86852462D01*
X172824445Y-86744430D01*
X172732571Y-86652555D01*
X172624538Y-86580370D01*
X172550494Y-86549700D01*
X185713706Y-86549700D01*
X185639662Y-86580370D01*
X185531629Y-86652555D01*
X185439755Y-86744430D01*
X185367570Y-86852462D01*
X185317848Y-86972502D01*
X185292500Y-87099935D01*
X185292500Y-87775000D01*
X185457400Y-87939900D01*
X186727100Y-87939900D01*
X186727100Y-87919900D01*
X186777100Y-87919900D01*
X186777100Y-87939900D01*
X188046800Y-87939900D01*
X188211700Y-87775000D01*
X188211700Y-87099935D01*
X188186352Y-86972502D01*
X188136630Y-86852462D01*
X188064445Y-86744430D01*
X187972571Y-86652555D01*
X187864538Y-86580370D01*
X187790494Y-86549700D01*
X192956006Y-86549700D01*
X193756281Y-87349975D01*
X193740844Y-87360076D01*
X193376053Y-87717305D01*
X193087597Y-88138586D01*
X192886461Y-88607871D01*
X192780307Y-89107286D01*
X192773178Y-89617809D01*
X192865346Y-90119994D01*
X192991006Y-90437376D01*
X192863055Y-90503699D01*
X192853660Y-90511199D01*
X192843047Y-90516842D01*
X192679402Y-90650307D01*
X192514381Y-90782042D01*
X192497654Y-90798537D01*
X192497306Y-90798821D01*
X192497113Y-90799054D01*
X192158701Y-90656799D01*
X191658557Y-90554134D01*
X191147996Y-90550570D01*
X190646467Y-90646242D01*
X190173073Y-90837505D01*
X190148206Y-90853778D01*
X189394157Y-90844065D01*
X188453546Y-89903454D01*
X188108791Y-89620270D01*
X187715599Y-89409442D01*
X187706599Y-89406691D01*
X187744498Y-89399152D01*
X187864538Y-89349430D01*
X187972571Y-89277245D01*
X188064445Y-89185370D01*
X188136630Y-89077338D01*
X188186352Y-88957298D01*
X188211700Y-88829865D01*
X188211700Y-88154800D01*
X188046800Y-87989900D01*
X186777100Y-87989900D01*
X186777100Y-88009900D01*
X186727100Y-88009900D01*
X186727100Y-87989900D01*
X185457400Y-87989900D01*
X185292500Y-88154800D01*
X185292500Y-88829865D01*
X185317848Y-88957298D01*
X185367570Y-89077338D01*
X185439755Y-89185370D01*
X185531629Y-89277245D01*
X185639662Y-89349430D01*
X185759702Y-89399152D01*
X185887135Y-89424500D01*
X185933260Y-89424500D01*
X185578701Y-89611438D01*
X185231978Y-89892209D01*
X184946393Y-90234977D01*
X184732826Y-90626689D01*
X184599409Y-91052423D01*
X184551225Y-91495961D01*
X184590110Y-91940412D01*
X184714582Y-92368847D01*
X184919899Y-92764945D01*
X185198242Y-93113619D01*
X185220654Y-93136346D01*
X186818654Y-94734346D01*
X186907936Y-94807683D01*
X186763467Y-94835242D01*
X186290073Y-95026505D01*
X185862844Y-95306076D01*
X185498053Y-95663305D01*
X185209597Y-96084586D01*
X185008461Y-96553871D01*
X184902307Y-97053286D01*
X184895178Y-97563809D01*
X184987346Y-98065994D01*
X185175300Y-98540713D01*
X185451882Y-98969883D01*
X185806555Y-99337158D01*
X186034667Y-99495700D01*
X182308100Y-99495700D01*
X182195997Y-99506692D01*
X182083827Y-99516505D01*
X182077672Y-99518293D01*
X182071289Y-99518919D01*
X181963440Y-99551481D01*
X181855328Y-99582890D01*
X181849637Y-99585840D01*
X181843499Y-99587693D01*
X181744072Y-99640560D01*
X181644076Y-99692392D01*
X181639064Y-99696393D01*
X181633405Y-99699402D01*
X181546134Y-99770578D01*
X181458117Y-99840842D01*
X181449192Y-99849643D01*
X181449010Y-99849791D01*
X181448871Y-99849959D01*
X181445995Y-99852795D01*
X181054116Y-100244674D01*
X181027965Y-100181228D01*
X180863092Y-99933075D01*
X180653160Y-99721672D01*
X180406165Y-99555072D01*
X180131513Y-99439619D01*
X179839668Y-99379712D01*
X179541745Y-99377632D01*
X179249091Y-99433458D01*
X178972855Y-99545065D01*
X178723557Y-99708201D01*
X178510694Y-99916652D01*
X178342373Y-100162478D01*
X178225006Y-100436317D01*
X178186069Y-100619500D01*
X175367537Y-100619500D01*
X175259565Y-100546672D01*
X174984913Y-100431219D01*
X174693068Y-100371312D01*
X174395145Y-100369232D01*
X174102491Y-100425058D01*
X173826255Y-100536665D01*
X173576957Y-100699801D01*
X173364094Y-100908252D01*
X173195773Y-101154078D01*
X173078406Y-101427917D01*
X173016463Y-101719337D01*
X173012303Y-102017238D01*
X173066085Y-102310274D01*
X173175761Y-102587283D01*
X173337152Y-102837714D01*
X173544112Y-103052027D01*
X173660853Y-103133165D01*
X173653157Y-103138201D01*
X173440294Y-103346652D01*
X173271973Y-103592478D01*
X173154606Y-103866317D01*
X173123423Y-104013020D01*
X172949343Y-103751008D01*
X172658020Y-103457644D01*
X172315263Y-103226452D01*
X171934128Y-103066237D01*
X171529133Y-102983104D01*
X171115704Y-102980217D01*
X170709588Y-103057688D01*
X170326253Y-103212565D01*
X169980302Y-103438950D01*
X169684911Y-103728218D01*
X169451331Y-104069353D01*
X169288460Y-104449359D01*
X169202501Y-104853764D01*
X169196729Y-105267163D01*
X169271362Y-105673810D01*
X169423559Y-106058217D01*
X169647523Y-106405740D01*
X169934722Y-106703144D01*
X170274218Y-106939099D01*
X170653078Y-107104619D01*
X171056873Y-107193399D01*
X171470222Y-107202058D01*
X171877380Y-107130265D01*
X172262839Y-106980755D01*
X172611918Y-106759223D01*
X172911319Y-106474107D01*
X173149639Y-106136267D01*
X173317800Y-105758571D01*
X173409397Y-105355406D01*
X173410565Y-105271789D01*
X173413352Y-105276114D01*
X173620312Y-105490427D01*
X173864957Y-105660460D01*
X174137970Y-105779736D01*
X174428950Y-105843712D01*
X174726816Y-105849952D01*
X174919185Y-105816032D01*
X174919185Y-106993900D01*
X174932087Y-107155694D01*
X175017070Y-107430114D01*
X175175140Y-107669994D01*
X175371700Y-107837521D01*
X175371700Y-109052300D01*
X175382230Y-109159689D01*
X175391638Y-109267229D01*
X175393353Y-109273131D01*
X175393952Y-109279243D01*
X175425144Y-109382558D01*
X175455257Y-109486206D01*
X175458084Y-109491659D01*
X175459860Y-109497543D01*
X175510526Y-109592831D01*
X175560197Y-109688657D01*
X175564032Y-109693461D01*
X175566915Y-109698883D01*
X175635110Y-109782498D01*
X175702462Y-109866868D01*
X175710898Y-109875423D01*
X175711038Y-109875595D01*
X175711197Y-109875727D01*
X175713916Y-109878484D01*
X176653717Y-110818284D01*
X176737100Y-110886775D01*
X176819793Y-110956163D01*
X176825177Y-110959123D01*
X176829924Y-110963022D01*
X176925027Y-111014016D01*
X177019618Y-111066018D01*
X177025475Y-111067876D01*
X177030889Y-111070779D01*
X177134080Y-111102327D01*
X177236976Y-111134968D01*
X177243084Y-111135653D01*
X177248958Y-111137449D01*
X177356331Y-111148356D01*
X177463587Y-111160386D01*
X177475595Y-111160470D01*
X177475822Y-111160493D01*
X177476034Y-111160473D01*
X177479900Y-111160500D01*
X178458594Y-111160500D01*
X178327253Y-111213565D01*
X177981302Y-111439950D01*
X177685911Y-111729218D01*
X177452331Y-112070353D01*
X177289460Y-112450359D01*
X177203501Y-112854764D01*
X177197729Y-113268163D01*
X177272362Y-113674810D01*
X177424559Y-114059217D01*
X177648523Y-114406740D01*
X177935722Y-114704144D01*
X178275218Y-114940099D01*
X178654078Y-115105619D01*
X179057873Y-115194399D01*
X179471222Y-115203058D01*
X179878380Y-115131265D01*
X180263839Y-114981755D01*
X180612918Y-114760223D01*
X180912319Y-114475107D01*
X181150639Y-114137267D01*
X181318800Y-113759571D01*
X181410397Y-113356406D01*
X181416991Y-112884180D01*
X181336687Y-112478615D01*
X181179137Y-112096371D01*
X180950343Y-111752008D01*
X180659020Y-111458644D01*
X180316263Y-111227452D01*
X180156991Y-111160500D01*
X185894554Y-111160500D01*
X185685844Y-111297076D01*
X185321053Y-111654305D01*
X185032597Y-112075586D01*
X184831461Y-112544871D01*
X184725307Y-113044286D01*
X184718178Y-113554809D01*
X184810346Y-114056994D01*
X184998300Y-114531713D01*
X185274882Y-114960883D01*
X185629555Y-115328158D01*
X186048812Y-115619549D01*
X186516682Y-115823956D01*
X187015344Y-115933594D01*
X187525804Y-115944287D01*
X188028620Y-115855627D01*
X188504639Y-115670991D01*
X188935730Y-115397413D01*
X189305472Y-115045312D01*
X189599783Y-114628100D01*
X189807452Y-114161668D01*
X189920568Y-113663784D01*
X189928711Y-113080614D01*
X189829541Y-112579765D01*
X189634977Y-112107717D01*
X189352430Y-111682450D01*
X188992663Y-111320163D01*
X188755953Y-111160500D01*
X195742500Y-111160500D01*
X195849889Y-111149970D01*
X195957429Y-111140562D01*
X195963331Y-111138847D01*
X195969443Y-111138248D01*
X196072758Y-111107056D01*
X196176406Y-111076943D01*
X196181859Y-111074116D01*
X196187743Y-111072340D01*
X196283031Y-111021674D01*
X196378857Y-110972003D01*
X196383661Y-110968168D01*
X196389083Y-110965285D01*
X196472698Y-110897090D01*
X196557068Y-110829738D01*
X196565623Y-110821302D01*
X196565795Y-110821162D01*
X196565927Y-110821003D01*
X196568684Y-110818284D01*
X197610084Y-109776884D01*
X197678596Y-109693476D01*
X197747963Y-109610807D01*
X197750923Y-109605423D01*
X197754822Y-109600676D01*
X197805816Y-109505573D01*
X197857818Y-109410982D01*
X197859676Y-109405125D01*
X197862579Y-109399711D01*
X197894127Y-109296520D01*
X197926768Y-109193624D01*
X197927453Y-109187516D01*
X197929249Y-109181642D01*
X197940156Y-109074269D01*
X197952186Y-108967013D01*
X197952270Y-108955005D01*
X197952293Y-108954778D01*
X197952273Y-108954566D01*
X197952300Y-108950700D01*
X197952300Y-104877747D01*
X198015692Y-104817380D01*
X198187428Y-104573927D01*
X198308608Y-104301754D01*
X198374614Y-104011228D01*
X198379365Y-103670935D01*
X198321497Y-103378678D01*
X198207965Y-103103228D01*
X198043092Y-102855075D01*
X197833160Y-102643672D01*
X197586165Y-102477072D01*
X197311513Y-102361619D01*
X197019668Y-102301712D01*
X196721745Y-102299632D01*
X196429091Y-102355458D01*
X196152855Y-102467065D01*
X195903557Y-102630201D01*
X195690694Y-102838652D01*
X195522373Y-103084478D01*
X195405006Y-103358317D01*
X195343063Y-103649737D01*
X195338903Y-103947638D01*
X195392685Y-104240674D01*
X195502361Y-104517683D01*
X195615500Y-104693241D01*
X195615500Y-108466732D01*
X195258532Y-108823700D01*
X183490403Y-108823700D01*
X183494965Y-108496935D01*
X183437097Y-108204678D01*
X183323565Y-107929228D01*
X183158692Y-107681075D01*
X183145500Y-107667791D01*
X183145500Y-106837000D01*
X183122281Y-106600189D01*
X183122215Y-106599970D01*
X183122215Y-106434500D01*
X183109313Y-106272706D01*
X183024330Y-105998286D01*
X182922236Y-105843352D01*
X183021771Y-105776845D01*
X183113645Y-105684970D01*
X183185830Y-105576938D01*
X183235552Y-105456898D01*
X183260900Y-105329465D01*
X183260900Y-105267163D01*
X185198729Y-105267163D01*
X185273362Y-105673810D01*
X185425559Y-106058217D01*
X185649523Y-106405740D01*
X185936722Y-106703144D01*
X186276218Y-106939099D01*
X186655078Y-107104619D01*
X187058873Y-107193399D01*
X187472222Y-107202058D01*
X187879380Y-107130265D01*
X188264839Y-106980755D01*
X188613918Y-106759223D01*
X188913319Y-106474107D01*
X189151639Y-106136267D01*
X189319800Y-105758571D01*
X189411397Y-105355406D01*
X189417991Y-104883180D01*
X189337687Y-104477615D01*
X189180137Y-104095371D01*
X188951343Y-103751008D01*
X188660020Y-103457644D01*
X188317263Y-103226452D01*
X187936128Y-103066237D01*
X187531133Y-102983104D01*
X187117704Y-102980217D01*
X186711588Y-103057688D01*
X186328253Y-103212565D01*
X185982302Y-103438950D01*
X185686911Y-103728218D01*
X185453331Y-104069353D01*
X185290460Y-104449359D01*
X185204501Y-104853764D01*
X185198729Y-105267163D01*
X183260900Y-105267163D01*
X183260900Y-105254400D01*
X183252418Y-105245918D01*
X183277394Y-105229460D01*
X183463740Y-105010819D01*
X183581796Y-104748920D01*
X183622215Y-104464500D01*
X183622215Y-104064500D01*
X183609313Y-103902706D01*
X183524330Y-103628286D01*
X183366260Y-103388406D01*
X183147619Y-103202060D01*
X183145500Y-103201105D01*
X183145500Y-102931710D01*
X183351109Y-102726100D01*
X193158100Y-102726100D01*
X193270203Y-102715108D01*
X193382373Y-102705295D01*
X193388528Y-102703507D01*
X193394911Y-102702881D01*
X193502760Y-102670319D01*
X193610872Y-102638910D01*
X193616563Y-102635960D01*
X193622701Y-102634107D01*
X193722128Y-102581240D01*
X193822124Y-102529408D01*
X193827136Y-102525407D01*
X193832795Y-102522398D01*
X193920066Y-102451222D01*
X194008083Y-102380958D01*
X194017008Y-102372157D01*
X194017190Y-102372009D01*
X194017329Y-102371841D01*
X194020205Y-102369005D01*
X195287205Y-101102004D01*
X195358687Y-101014980D01*
X195431078Y-100928708D01*
X195434166Y-100923091D01*
X195438237Y-100918135D01*
X195491487Y-100818826D01*
X195545710Y-100720194D01*
X195547647Y-100714087D01*
X195550679Y-100708433D01*
X195583618Y-100600693D01*
X195617658Y-100493386D01*
X195618373Y-100487015D01*
X195620247Y-100480884D01*
X195631631Y-100368815D01*
X195644181Y-100256923D01*
X195644269Y-100244397D01*
X195644293Y-100244156D01*
X195644272Y-100243932D01*
X195644300Y-100239900D01*
X195644300Y-96662900D01*
X195633313Y-96550842D01*
X195623495Y-96438627D01*
X195621707Y-96432472D01*
X195621081Y-96426089D01*
X195588519Y-96318240D01*
X195557110Y-96210128D01*
X195554160Y-96204437D01*
X195552307Y-96198299D01*
X195500936Y-96101684D01*
X195501365Y-96070935D01*
X195443497Y-95778678D01*
X195329965Y-95503228D01*
X195165092Y-95255075D01*
X194955160Y-95043672D01*
X194792580Y-94934011D01*
X194801798Y-94926493D01*
X194966819Y-94794758D01*
X194983546Y-94778263D01*
X194983894Y-94777979D01*
X194984161Y-94777657D01*
X194989546Y-94772346D01*
X195054992Y-94706900D01*
X201289100Y-94706900D01*
X201499234Y-94686296D01*
X201709612Y-94667890D01*
X201721156Y-94664536D01*
X201733120Y-94663363D01*
X201935287Y-94602325D01*
X202138047Y-94543418D01*
X202148718Y-94537887D01*
X202160227Y-94534412D01*
X202346678Y-94435275D01*
X202534145Y-94338101D01*
X202543540Y-94330601D01*
X202554153Y-94324958D01*
X202717798Y-94191493D01*
X202882819Y-94059758D01*
X202899546Y-94043263D01*
X202899894Y-94042979D01*
X202900161Y-94042657D01*
X202905546Y-94037346D01*
X204186676Y-92756216D01*
X204098105Y-122695672D01*
X204107106Y-122790357D01*
X204114125Y-122885203D01*
X204117172Y-122896241D01*
X204118256Y-122907643D01*
X204145476Y-122998774D01*
X204170783Y-123090452D01*
X204175916Y-123100689D01*
X204179194Y-123111662D01*
X204223598Y-123195773D01*
X204266230Y-123280786D01*
X204273254Y-123289831D01*
X204278601Y-123299959D01*
X204338488Y-123373833D01*
X204396828Y-123448958D01*
X204405477Y-123456468D01*
X204412687Y-123465362D01*
X204485765Y-123526182D01*
X204557604Y-123588560D01*
X204567550Y-123594249D01*
X204576348Y-123601571D01*
X204659843Y-123647037D01*
X204742433Y-123694275D01*
X204753291Y-123697922D01*
X204763347Y-123703398D01*
X204854128Y-123731794D01*
X204944276Y-123762075D01*
X204955630Y-123763543D01*
X204966563Y-123766963D01*
X205061126Y-123777185D01*
X205155444Y-123789381D01*
X205170673Y-123789744D01*
X205612914Y-123797215D01*
X205696327Y-131734900D01*
X159049362Y-131734900D01*
X160503730Y-130280531D01*
X160593072Y-130171765D01*
X160683573Y-130063910D01*
X160687434Y-130056887D01*
X160692520Y-130050695D01*
X160759041Y-129926633D01*
X160826862Y-129803267D01*
X160829285Y-129795629D01*
X160833072Y-129788566D01*
X160874229Y-129653949D01*
X160916797Y-129519757D01*
X160917690Y-129511792D01*
X160920033Y-129504130D01*
X160934262Y-129364050D01*
X160949951Y-129224178D01*
X160950061Y-129208519D01*
X160950091Y-129208220D01*
X160950065Y-129207942D01*
X160950100Y-129202900D01*
X160950100Y-127266390D01*
X161036730Y-127211413D01*
X161406472Y-126859312D01*
X161700783Y-126442100D01*
X161703543Y-126435900D01*
X197104572Y-126435900D01*
X197366082Y-126841683D01*
X197720755Y-127208958D01*
X197892300Y-127328185D01*
X197892300Y-128302100D01*
X197906038Y-128442210D01*
X197918306Y-128582442D01*
X197920542Y-128590139D01*
X197921324Y-128598113D01*
X197962011Y-128732873D01*
X198001288Y-128868065D01*
X198004976Y-128875180D01*
X198007292Y-128882851D01*
X198073380Y-129007145D01*
X198138166Y-129132130D01*
X198143166Y-129138393D01*
X198146928Y-129145469D01*
X198235929Y-129254595D01*
X198323729Y-129364580D01*
X198334725Y-129375731D01*
X198334914Y-129375963D01*
X198335128Y-129376140D01*
X198338669Y-129379731D01*
X200202469Y-131243531D01*
X200232742Y-131268398D01*
X200290712Y-131328427D01*
X200388922Y-131396685D01*
X200432305Y-131432320D01*
X200466828Y-131450831D01*
X200535357Y-131498460D01*
X200644959Y-131546344D01*
X200694434Y-131572872D01*
X200731895Y-131584325D01*
X200808370Y-131617736D01*
X200925180Y-131643418D01*
X200978870Y-131659833D01*
X201017845Y-131663792D01*
X201099350Y-131681712D01*
X201218920Y-131684217D01*
X201274780Y-131689891D01*
X201313782Y-131686204D01*
X201397216Y-131687952D01*
X201515011Y-131667182D01*
X201570893Y-131661899D01*
X201608425Y-131650710D01*
X201690620Y-131636217D01*
X201802141Y-131592961D01*
X201855929Y-131576926D01*
X201890573Y-131558660D01*
X201968388Y-131528478D01*
X202069377Y-131464388D01*
X202119033Y-131438208D01*
X202149473Y-131413558D01*
X202219939Y-131368839D01*
X202306561Y-131286350D01*
X202350181Y-131251027D01*
X202375251Y-131220937D01*
X202435692Y-131163380D01*
X202504634Y-131065647D01*
X202540571Y-131022515D01*
X202559324Y-130988119D01*
X202607428Y-130919927D01*
X202656075Y-130810664D01*
X202682949Y-130761374D01*
X202694663Y-130723996D01*
X202728608Y-130647754D01*
X202755106Y-130531121D01*
X202771894Y-130477552D01*
X202776124Y-130438610D01*
X202794614Y-130357228D01*
X202796037Y-130255309D01*
X202804016Y-130181859D01*
X202798019Y-130113315D01*
X202799365Y-130016935D01*
X202781848Y-129928466D01*
X202778094Y-129885558D01*
X202763204Y-129834306D01*
X202741497Y-129724678D01*
X202707126Y-129641289D01*
X202695112Y-129599935D01*
X202670556Y-129552561D01*
X202627965Y-129449228D01*
X202578053Y-129374104D01*
X202558234Y-129335870D01*
X202524940Y-129294164D01*
X202463092Y-129201075D01*
X202399538Y-129137076D01*
X202372671Y-129103420D01*
X202357731Y-129088269D01*
X200940300Y-127670838D01*
X200940300Y-127333190D01*
X201026930Y-127278213D01*
X201396672Y-126926112D01*
X201690983Y-126508900D01*
X201898652Y-126042468D01*
X202011768Y-125544584D01*
X202019911Y-124961414D01*
X201920741Y-124460565D01*
X201726177Y-123988517D01*
X201467146Y-123598644D01*
X201584244Y-123504494D01*
X201791362Y-123257661D01*
X201946592Y-122975298D01*
X202044022Y-122668162D01*
X202079939Y-122347952D01*
X202080100Y-122324900D01*
X202080100Y-121958900D01*
X202065214Y-121807082D01*
X202051926Y-121655197D01*
X202049504Y-121646862D01*
X202048657Y-121638219D01*
X202004563Y-121492173D01*
X201962030Y-121345772D01*
X201958036Y-121338067D01*
X201955526Y-121329753D01*
X201883927Y-121195096D01*
X201813745Y-121059700D01*
X201808327Y-121052913D01*
X201804253Y-121045251D01*
X201707863Y-120927065D01*
X201612719Y-120807881D01*
X201600805Y-120795799D01*
X201600601Y-120795549D01*
X201600369Y-120795357D01*
X201596533Y-120791467D01*
X200958533Y-120153467D01*
X200840701Y-120056678D01*
X200723861Y-119958638D01*
X200716252Y-119954455D01*
X200709544Y-119948945D01*
X200575126Y-119876871D01*
X200441498Y-119803408D01*
X200433226Y-119800784D01*
X200425572Y-119796680D01*
X200279738Y-119752094D01*
X200134362Y-119705978D01*
X200125731Y-119705010D01*
X200117433Y-119702473D01*
X199965748Y-119687065D01*
X199817335Y-119670418D01*
X199991692Y-119504380D01*
X200163428Y-119260927D01*
X200242983Y-119082245D01*
X200268941Y-119051309D01*
X200272542Y-119044759D01*
X200277293Y-119038975D01*
X200339397Y-118923151D01*
X200402678Y-118808043D01*
X200404940Y-118800911D01*
X200408474Y-118794321D01*
X200446876Y-118668714D01*
X200486617Y-118543434D01*
X200487451Y-118535998D01*
X200489637Y-118528848D01*
X200502912Y-118398160D01*
X200517561Y-118267560D01*
X200517663Y-118252937D01*
X200517691Y-118252665D01*
X200517667Y-118252411D01*
X200517700Y-118247700D01*
X200517700Y-112386793D01*
X200543808Y-112328154D01*
X200609814Y-112037628D01*
X200614565Y-111697335D01*
X200556697Y-111405078D01*
X200443165Y-111129628D01*
X200278292Y-110881475D01*
X200068360Y-110670072D01*
X199821365Y-110503472D01*
X199546713Y-110388019D01*
X199254868Y-110328112D01*
X198956945Y-110326032D01*
X198664291Y-110381858D01*
X198388055Y-110493465D01*
X198138757Y-110656601D01*
X197925894Y-110865052D01*
X197757573Y-111110878D01*
X197640206Y-111384717D01*
X197578263Y-111676137D01*
X197574103Y-111974038D01*
X197627885Y-112267074D01*
X197672900Y-112380769D01*
X197672900Y-117519575D01*
X197666694Y-117525652D01*
X197498373Y-117771478D01*
X197381006Y-118045317D01*
X197319063Y-118336737D01*
X197314903Y-118634638D01*
X197368685Y-118927674D01*
X197478361Y-119204683D01*
X197639752Y-119455114D01*
X197846712Y-119669427D01*
X197847393Y-119669900D01*
X197398139Y-119669900D01*
X197046863Y-119316163D01*
X196623579Y-119030654D01*
X196152901Y-118832799D01*
X195652757Y-118730134D01*
X195142196Y-118726570D01*
X194640667Y-118822242D01*
X194167273Y-119013505D01*
X193740044Y-119293076D01*
X193375253Y-119650305D01*
X193086797Y-120071586D01*
X192885661Y-120540871D01*
X192779507Y-121040286D01*
X192772378Y-121550809D01*
X192864546Y-122052994D01*
X192916327Y-122183779D01*
X192655345Y-122444761D01*
X192648741Y-122448184D01*
X192643313Y-122452517D01*
X192637180Y-122455778D01*
X192542616Y-122532902D01*
X192514810Y-122555100D01*
X189719482Y-122555100D01*
X190114891Y-122159691D01*
X190268248Y-121972991D01*
X190391623Y-121825959D01*
X192803563Y-119414020D01*
X192856972Y-119385622D01*
X192934297Y-119322557D01*
X193019930Y-119268213D01*
X193133283Y-119160269D01*
X193252623Y-119062937D01*
X193316228Y-118986052D01*
X193389672Y-118916112D01*
X193479897Y-118788210D01*
X193578062Y-118669549D01*
X193625522Y-118581774D01*
X193683983Y-118498900D01*
X193747647Y-118355908D01*
X193820894Y-118220441D01*
X193850401Y-118125119D01*
X193891652Y-118032468D01*
X193926329Y-117879835D01*
X193971869Y-117732720D01*
X193982299Y-117633480D01*
X194004768Y-117534584D01*
X194006618Y-117402104D01*
X194025236Y-117224963D01*
X194011239Y-117071162D01*
X194012911Y-116951414D01*
X193989649Y-116833933D01*
X193978963Y-116716510D01*
X193940569Y-116586059D01*
X193913741Y-116450565D01*
X193868103Y-116339838D01*
X193834813Y-116226729D01*
X193771813Y-116106221D01*
X193719177Y-115978517D01*
X193652899Y-115878761D01*
X193598275Y-115774275D01*
X193513069Y-115668300D01*
X193436630Y-115553250D01*
X193352243Y-115468272D01*
X193278361Y-115376381D01*
X193174186Y-115288968D01*
X193076863Y-115190963D01*
X192977581Y-115123996D01*
X192887254Y-115048203D01*
X192768085Y-114982689D01*
X192653579Y-114905454D01*
X192543176Y-114859045D01*
X192439852Y-114802242D01*
X192310233Y-114761124D01*
X192182901Y-114707599D01*
X192065584Y-114683517D01*
X191953197Y-114647866D01*
X191818062Y-114632708D01*
X191682757Y-114604934D01*
X191562997Y-114604098D01*
X191445825Y-114590955D01*
X191409300Y-114590700D01*
X191311300Y-114590700D01*
X191200466Y-114601567D01*
X191172196Y-114601370D01*
X191140170Y-114607479D01*
X191070778Y-114614283D01*
X190830083Y-114635341D01*
X190816874Y-114639179D01*
X190803183Y-114640521D01*
X190571866Y-114710360D01*
X190339802Y-114777781D01*
X190327587Y-114784113D01*
X190314420Y-114788088D01*
X190101079Y-114901523D01*
X189886524Y-115012738D01*
X189875773Y-115021320D01*
X189863628Y-115027778D01*
X189676374Y-115180498D01*
X189487516Y-115331262D01*
X189468369Y-115350144D01*
X189467977Y-115350463D01*
X189467677Y-115350826D01*
X189461508Y-115356909D01*
X186415309Y-118403109D01*
X186324304Y-118513900D01*
X172398682Y-118513900D01*
X169671392Y-115786610D01*
X169570062Y-115591125D01*
X169561481Y-115580376D01*
X169555022Y-115568228D01*
X169402284Y-115380952D01*
X169251538Y-115192116D01*
X169232660Y-115172973D01*
X169232337Y-115172577D01*
X169231970Y-115172274D01*
X169225891Y-115166109D01*
X167591591Y-113531809D01*
X168864178Y-113531809D01*
X168956346Y-114033994D01*
X169144300Y-114508713D01*
X169420882Y-114937883D01*
X169775555Y-115305158D01*
X170194812Y-115596549D01*
X170662682Y-115800956D01*
X171161344Y-115910594D01*
X171671804Y-115921287D01*
X172174620Y-115832627D01*
X172650639Y-115647991D01*
X173081730Y-115374413D01*
X173451472Y-115022312D01*
X173745783Y-114605100D01*
X173953452Y-114138668D01*
X174066568Y-113640784D01*
X174074711Y-113057614D01*
X173975541Y-112556765D01*
X173780977Y-112084717D01*
X173498430Y-111659450D01*
X173138663Y-111297163D01*
X172715379Y-111011654D01*
X172244701Y-110813799D01*
X171744557Y-110711134D01*
X171233996Y-110707570D01*
X170732467Y-110803242D01*
X170259073Y-110994505D01*
X169831844Y-111274076D01*
X169467053Y-111631305D01*
X169178597Y-112052586D01*
X168977461Y-112521871D01*
X168871307Y-113021286D01*
X168864178Y-113531809D01*
X167591591Y-113531809D01*
X165671100Y-111611318D01*
X165671100Y-98725682D01*
X166859373Y-97537409D01*
X168733578Y-97537409D01*
X168825746Y-98039594D01*
X169013700Y-98514313D01*
X169290282Y-98943483D01*
X169644955Y-99310758D01*
X170064212Y-99602149D01*
X170532082Y-99806556D01*
X171030744Y-99916194D01*
X171541204Y-99926887D01*
X172044020Y-99838227D01*
X172520039Y-99653591D01*
X172951130Y-99380013D01*
X173320872Y-99027912D01*
X173615183Y-98610700D01*
X173822852Y-98144268D01*
X173935968Y-97646384D01*
X173940933Y-97290763D01*
X177146729Y-97290763D01*
X177221362Y-97697410D01*
X177373559Y-98081817D01*
X177597523Y-98429340D01*
X177884722Y-98726744D01*
X178224218Y-98962699D01*
X178603078Y-99128219D01*
X179006873Y-99216999D01*
X179420222Y-99225658D01*
X179827380Y-99153865D01*
X180212839Y-99004355D01*
X180561918Y-98782823D01*
X180861319Y-98497707D01*
X181099639Y-98159867D01*
X181267800Y-97782171D01*
X181359397Y-97379006D01*
X181365991Y-96906780D01*
X181285687Y-96501215D01*
X181128137Y-96118971D01*
X180899343Y-95774608D01*
X180608020Y-95481244D01*
X180265263Y-95250052D01*
X179884128Y-95089837D01*
X179479133Y-95006704D01*
X179065704Y-95003817D01*
X178659588Y-95081288D01*
X178276253Y-95236165D01*
X177930302Y-95462550D01*
X177634911Y-95751818D01*
X177401331Y-96092953D01*
X177238460Y-96472959D01*
X177152501Y-96877364D01*
X177146729Y-97290763D01*
X173940933Y-97290763D01*
X173944111Y-97063214D01*
X173844941Y-96562365D01*
X173650377Y-96090317D01*
X173367830Y-95665050D01*
X173008063Y-95302763D01*
X172584779Y-95017254D01*
X172114101Y-94819399D01*
X171613957Y-94716734D01*
X171103396Y-94713170D01*
X170601867Y-94808842D01*
X170128473Y-95000105D01*
X169701244Y-95279676D01*
X169336453Y-95636905D01*
X169047997Y-96058186D01*
X168846861Y-96527471D01*
X168740707Y-97026886D01*
X168733578Y-97537409D01*
X166859373Y-97537409D01*
X168940491Y-95456292D01*
X168940496Y-95456286D01*
X169303292Y-95093491D01*
X169363749Y-95019889D01*
X169433872Y-94953112D01*
X169526752Y-94821446D01*
X169627356Y-94698969D01*
X169672366Y-94615026D01*
X169728183Y-94535900D01*
X169793723Y-94388696D01*
X169868618Y-94249016D01*
X169896465Y-94157933D01*
X169935852Y-94069468D01*
X169965371Y-93939538D01*
X169983572Y-93917380D01*
X170119309Y-93755615D01*
X170125100Y-93745081D01*
X170132731Y-93735791D01*
X170232539Y-93549650D01*
X170334243Y-93364651D01*
X170337876Y-93353197D01*
X170343559Y-93342599D01*
X170405313Y-93140610D01*
X170469145Y-92939386D01*
X170470485Y-92927442D01*
X170474000Y-92915944D01*
X170495346Y-92705799D01*
X170518877Y-92496018D01*
X170519041Y-92472531D01*
X170519087Y-92472079D01*
X170519047Y-92471658D01*
X170519100Y-92464100D01*
X170519100Y-90074900D01*
X170475563Y-89630880D01*
X170388295Y-89341835D01*
X170399662Y-89349430D01*
X170519702Y-89399152D01*
X170647135Y-89424500D01*
X171322200Y-89424500D01*
X171487100Y-89259600D01*
X171487100Y-87989900D01*
X171537100Y-87989900D01*
X171537100Y-89259600D01*
X171702000Y-89424500D01*
X172377065Y-89424500D01*
X172504498Y-89399152D01*
X172624538Y-89349430D01*
X172732571Y-89277245D01*
X172824445Y-89185370D01*
X172896630Y-89077338D01*
X172946352Y-88957298D01*
X172971700Y-88829865D01*
X172971700Y-88154800D01*
X172806800Y-87989900D01*
X171537100Y-87989900D01*
X171487100Y-87989900D01*
X170217400Y-87989900D01*
X170052500Y-88154800D01*
X170052500Y-88706046D01*
X169855179Y-88464106D01*
X169511415Y-88179720D01*
X169118961Y-87967521D01*
X168692764Y-87835591D01*
X168249059Y-87788956D01*
X167804746Y-87829391D01*
X167376749Y-87955358D01*
X166981370Y-88162057D01*
X166633670Y-88441615D01*
X166346891Y-88783385D01*
X166131957Y-89174349D01*
X165997055Y-89599614D01*
X165947323Y-90042982D01*
X165947100Y-90074900D01*
X165947100Y-91114898D01*
X165925981Y-91131757D01*
X165814244Y-91204876D01*
X165725398Y-91291880D01*
X165629716Y-91368262D01*
X165603709Y-91393908D01*
X165240980Y-91756638D01*
X165240908Y-91756709D01*
X161971900Y-95025718D01*
X161971900Y-92627394D01*
X162713207Y-91886087D01*
X163057544Y-91961794D01*
X163568004Y-91972487D01*
X164070820Y-91883827D01*
X164546839Y-91699191D01*
X164977930Y-91425613D01*
X165347672Y-91073512D01*
X165641983Y-90656300D01*
X165849652Y-90189868D01*
X165962768Y-89691984D01*
X165970911Y-89108814D01*
X165891506Y-88707788D01*
X168049594Y-86549700D01*
X170473706Y-86549700D01*
X170399662Y-86580370D01*
G36*
X180251300Y-104715415D02*
X180601300Y-104715415D01*
X180763094Y-104702513D01*
X180807620Y-104688724D01*
X180873270Y-104900714D01*
X181031340Y-105140594D01*
X181149662Y-105241438D01*
X181136700Y-105254400D01*
X181136700Y-105329465D01*
X181153433Y-105413585D01*
X181001300Y-105413585D01*
X180839506Y-105426487D01*
X180793136Y-105440847D01*
X180601300Y-105413585D01*
X180251300Y-105413585D01*
X180089506Y-105426487D01*
X180043136Y-105440847D01*
X179851300Y-105413585D01*
X179633048Y-105413585D01*
X179640830Y-105401938D01*
X179690552Y-105281898D01*
X179715900Y-105154465D01*
X179715900Y-105079400D01*
X179551000Y-104914500D01*
X178678800Y-104914500D01*
X178678800Y-104934500D01*
X178628800Y-104934500D01*
X178628800Y-104914500D01*
X178608800Y-104914500D01*
X178608800Y-104864500D01*
X178628800Y-104864500D01*
X178628800Y-104844500D01*
X178678800Y-104844500D01*
X178678800Y-104864500D01*
X179551000Y-104864500D01*
X179700085Y-104715415D01*
X179851300Y-104715415D01*
X180013094Y-104702513D01*
X180059464Y-104688153D01*
X180251300Y-104715415D01*
X180251300Y-104715415D01*
G37*
X180251300Y-104715415D02*
X180601300Y-104715415D01*
X180763094Y-104702513D01*
X180807620Y-104688724D01*
X180873270Y-104900714D01*
X181031340Y-105140594D01*
X181149662Y-105241438D01*
X181136700Y-105254400D01*
X181136700Y-105329465D01*
X181153433Y-105413585D01*
X181001300Y-105413585D01*
X180839506Y-105426487D01*
X180793136Y-105440847D01*
X180601300Y-105413585D01*
X180251300Y-105413585D01*
X180089506Y-105426487D01*
X180043136Y-105440847D01*
X179851300Y-105413585D01*
X179633048Y-105413585D01*
X179640830Y-105401938D01*
X179690552Y-105281898D01*
X179715900Y-105154465D01*
X179715900Y-105079400D01*
X179551000Y-104914500D01*
X178678800Y-104914500D01*
X178678800Y-104934500D01*
X178628800Y-104934500D01*
X178628800Y-104914500D01*
X178608800Y-104914500D01*
X178608800Y-104864500D01*
X178628800Y-104864500D01*
X178628800Y-104844500D01*
X178678800Y-104844500D01*
X178678800Y-104864500D01*
X179551000Y-104864500D01*
X179700085Y-104715415D01*
X179851300Y-104715415D01*
X180013094Y-104702513D01*
X180059464Y-104688153D01*
X180251300Y-104715415D01*
M02*
