%FSLAX45Y45*%
G04 Gerber Fmt 4.5, Leading zero omitted, Abs format (unit mm)*
G04 Created by KiCad (PCBNEW 4.0.6) date 05/08/17 07:17:13*
%MOMM*%
%LPD*%
G01*
G04 APERTURE LIST*
%ADD10C,0.127000*%
%ADD11C,0.150000*%
%ADD12C,0.200000*%
%ADD13C,0.300000*%
G04 APERTURE END LIST*
D10*
D11*
X15126190Y-7719950D02*
X20676410Y-7735250D01*
X15293110Y-8678290D02*
X15145290Y-8683810D01*
X15118870Y-12303930D02*
X15293110Y-12311990D01*
X20679770Y-13271630D02*
X20669270Y-12272430D01*
X20669270Y-12272430D02*
X20518910Y-12269890D01*
X20518910Y-12269890D02*
X20529410Y-8720590D01*
X20529410Y-8720590D02*
X20669610Y-8731090D01*
X20669610Y-8731090D02*
X20669610Y-7744590D01*
X15134790Y-7739510D02*
X15145290Y-8683810D01*
X15293110Y-8678290D02*
X15293110Y-12311990D01*
X15118870Y-12303930D02*
X15129370Y-13250530D01*
X15195210Y-13282590D02*
X20695210Y-13282590D01*
X20684310Y-13282590D02*
X15184310Y-13282590D01*
D12*
X15574230Y-9003250D02*
X15634230Y-9063250D01*
X15634230Y-9003250D02*
X15574230Y-9063250D01*
X15739610Y-12197990D02*
X15799610Y-12257990D01*
X15799610Y-12197990D02*
X15739610Y-12257990D01*
X15756010Y-13046890D02*
X15816010Y-13106890D01*
X15816010Y-13046890D02*
X15756010Y-13106890D01*
X16122210Y-8057590D02*
X16182210Y-8117590D01*
X16182210Y-8057590D02*
X16122210Y-8117590D01*
X16732210Y-12357590D02*
X16792210Y-12417590D01*
X16792210Y-12357590D02*
X16732210Y-12417590D01*
X16793310Y-8977490D02*
X16853310Y-9037490D01*
X16853310Y-8977490D02*
X16793310Y-9037490D01*
X17423350Y-10158950D02*
X17483350Y-10218950D01*
X17483350Y-10158950D02*
X17423350Y-10218950D01*
X17430970Y-10402790D02*
X17490970Y-10462790D01*
X17490970Y-10402790D02*
X17430970Y-10462790D01*
X17938010Y-10059790D02*
X17998010Y-10119790D01*
X17998010Y-10059790D02*
X17938010Y-10119790D01*
X18167570Y-10834590D02*
X18227570Y-10894590D01*
X18227570Y-10834590D02*
X18167570Y-10894590D01*
X18360910Y-10575690D02*
X18420910Y-10635690D01*
X18420910Y-10575690D02*
X18360910Y-10635690D01*
X18519960Y-9504240D02*
X18579960Y-9564240D01*
X18579960Y-9504240D02*
X18519960Y-9564240D01*
X18653710Y-9121990D02*
X18713710Y-9181990D01*
X18713710Y-9121990D02*
X18653710Y-9181990D01*
X19187810Y-9968690D02*
X19247810Y-10028690D01*
X19247810Y-9968690D02*
X19187810Y-10028690D01*
X19368210Y-9591990D02*
X19428210Y-9651990D01*
X19428210Y-9591990D02*
X19368210Y-9651990D01*
X19494510Y-8122890D02*
X19554510Y-8182890D01*
X19554510Y-8122890D02*
X19494510Y-8182890D01*
X19656010Y-10351990D02*
X19716010Y-10411990D01*
X19716010Y-10351990D02*
X19656010Y-10411990D01*
X19685610Y-8623890D02*
X19745610Y-8683890D01*
X19745610Y-8623890D02*
X19685610Y-8683890D01*
X19853610Y-11820690D02*
X19913610Y-11880690D01*
X19913610Y-11820690D02*
X19853610Y-11880690D01*
X19879530Y-11154630D02*
X19939530Y-11214630D01*
X19939530Y-11154630D02*
X19879530Y-11214630D01*
X20012910Y-12202490D02*
X20072910Y-12262490D01*
X20072910Y-12202490D02*
X20012910Y-12262490D01*
X20098010Y-12986590D02*
X20158010Y-13046590D01*
X20158010Y-12986590D02*
X20098010Y-13046590D01*
X20294810Y-8505410D02*
X20354810Y-8565410D01*
X20354810Y-8505410D02*
X20294810Y-8565410D01*
X17201210Y-7882090D02*
G75*
G03X17201210Y-7882090I-50000J0D01*
G01*
X17201210Y-8796490D02*
G75*
G03X17201210Y-8796490I-50000J0D01*
G01*
X18725210Y-7882090D02*
G75*
G03X18725210Y-7882090I-50000J0D01*
G01*
X18725210Y-8796490D02*
G75*
G03X18725210Y-8796490I-50000J0D01*
G01*
X17130770Y-10408990D02*
X17130770Y-10608990D01*
X17030770Y-10508990D02*
X17230770Y-10508990D01*
X17925770Y-9611350D02*
X17925770Y-9811350D01*
X17825770Y-9711350D02*
X18025770Y-9711350D01*
X17930870Y-11209090D02*
X17930870Y-11409090D01*
X17830870Y-11309090D02*
X18030870Y-11309090D01*
X18730970Y-10408990D02*
X18730970Y-10608990D01*
X18630970Y-10508990D02*
X18830970Y-10508990D01*
D13*
X15382798Y-13755804D02*
X15382798Y-13455804D01*
X15454227Y-13455804D01*
X15497084Y-13470090D01*
X15525656Y-13498661D01*
X15539941Y-13527233D01*
X15554227Y-13584376D01*
X15554227Y-13627233D01*
X15539941Y-13684376D01*
X15525656Y-13712947D01*
X15497084Y-13741519D01*
X15454227Y-13755804D01*
X15382798Y-13755804D01*
X15682798Y-13755804D02*
X15682798Y-13555804D01*
X15682798Y-13612947D02*
X15697084Y-13584376D01*
X15711370Y-13570090D01*
X15739941Y-13555804D01*
X15768513Y-13555804D01*
X15868513Y-13755804D02*
X15868513Y-13555804D01*
X15868513Y-13455804D02*
X15854227Y-13470090D01*
X15868513Y-13484376D01*
X15882798Y-13470090D01*
X15868513Y-13455804D01*
X15868513Y-13484376D01*
X16054227Y-13755804D02*
X16025656Y-13741519D01*
X16011370Y-13712947D01*
X16011370Y-13455804D01*
X16211370Y-13755804D02*
X16182798Y-13741519D01*
X16168513Y-13712947D01*
X16168513Y-13455804D01*
X16554227Y-13755804D02*
X16554227Y-13455804D01*
X16654227Y-13670090D01*
X16754227Y-13455804D01*
X16754227Y-13755804D01*
X17025656Y-13755804D02*
X17025656Y-13598661D01*
X17011370Y-13570090D01*
X16982799Y-13555804D01*
X16925656Y-13555804D01*
X16897084Y-13570090D01*
X17025656Y-13741519D02*
X16997084Y-13755804D01*
X16925656Y-13755804D01*
X16897084Y-13741519D01*
X16882799Y-13712947D01*
X16882799Y-13684376D01*
X16897084Y-13655804D01*
X16925656Y-13641519D01*
X16997084Y-13641519D01*
X17025656Y-13627233D01*
X17168513Y-13555804D02*
X17168513Y-13855804D01*
X17168513Y-13570090D02*
X17197084Y-13555804D01*
X17254227Y-13555804D01*
X17282799Y-13570090D01*
X17297084Y-13584376D01*
X17311370Y-13612947D01*
X17311370Y-13698661D01*
X17297084Y-13727233D01*
X17282799Y-13741519D01*
X17254227Y-13755804D01*
X17197084Y-13755804D01*
X17168513Y-13741519D01*
X17439941Y-13727233D02*
X17454227Y-13741519D01*
X17439941Y-13755804D01*
X17425656Y-13741519D01*
X17439941Y-13727233D01*
X17439941Y-13755804D01*
X17439941Y-13570090D02*
X17454227Y-13584376D01*
X17439941Y-13598661D01*
X17425656Y-13584376D01*
X17439941Y-13570090D01*
X17439941Y-13598661D01*
X15051370Y-14220090D02*
X15111370Y-14280090D01*
X15111370Y-14220090D02*
X15051370Y-14280090D01*
X15439941Y-14085804D02*
X15468513Y-14085804D01*
X15497084Y-14100090D01*
X15511370Y-14114376D01*
X15525656Y-14142947D01*
X15539941Y-14200090D01*
X15539941Y-14271519D01*
X15525656Y-14328661D01*
X15511370Y-14357233D01*
X15497084Y-14371519D01*
X15468513Y-14385804D01*
X15439941Y-14385804D01*
X15411370Y-14371519D01*
X15397084Y-14357233D01*
X15382798Y-14328661D01*
X15368513Y-14271519D01*
X15368513Y-14200090D01*
X15382798Y-14142947D01*
X15397084Y-14114376D01*
X15411370Y-14100090D01*
X15439941Y-14085804D01*
X15668513Y-14357233D02*
X15682798Y-14371519D01*
X15668513Y-14385804D01*
X15654227Y-14371519D01*
X15668513Y-14357233D01*
X15668513Y-14385804D01*
X15939941Y-14085804D02*
X15882798Y-14085804D01*
X15854227Y-14100090D01*
X15839941Y-14114376D01*
X15811370Y-14157233D01*
X15797084Y-14214376D01*
X15797084Y-14328661D01*
X15811370Y-14357233D01*
X15825656Y-14371519D01*
X15854227Y-14385804D01*
X15911370Y-14385804D01*
X15939941Y-14371519D01*
X15954227Y-14357233D01*
X15968513Y-14328661D01*
X15968513Y-14257233D01*
X15954227Y-14228661D01*
X15939941Y-14214376D01*
X15911370Y-14200090D01*
X15854227Y-14200090D01*
X15825656Y-14214376D01*
X15811370Y-14228661D01*
X15797084Y-14257233D01*
X16154227Y-14085804D02*
X16182798Y-14085804D01*
X16211370Y-14100090D01*
X16225656Y-14114376D01*
X16239941Y-14142947D01*
X16254227Y-14200090D01*
X16254227Y-14271519D01*
X16239941Y-14328661D01*
X16225656Y-14357233D01*
X16211370Y-14371519D01*
X16182798Y-14385804D01*
X16154227Y-14385804D01*
X16125656Y-14371519D01*
X16111370Y-14357233D01*
X16097084Y-14328661D01*
X16082798Y-14271519D01*
X16082798Y-14200090D01*
X16097084Y-14142947D01*
X16111370Y-14114376D01*
X16125656Y-14100090D01*
X16154227Y-14085804D01*
X16382798Y-14385804D02*
X16382798Y-14185804D01*
X16382798Y-14214376D02*
X16397084Y-14200090D01*
X16425656Y-14185804D01*
X16468513Y-14185804D01*
X16497084Y-14200090D01*
X16511370Y-14228661D01*
X16511370Y-14385804D01*
X16511370Y-14228661D02*
X16525656Y-14200090D01*
X16554227Y-14185804D01*
X16597084Y-14185804D01*
X16625656Y-14200090D01*
X16639941Y-14228661D01*
X16639941Y-14385804D01*
X16782799Y-14385804D02*
X16782799Y-14185804D01*
X16782799Y-14214376D02*
X16797084Y-14200090D01*
X16825656Y-14185804D01*
X16868513Y-14185804D01*
X16897084Y-14200090D01*
X16911370Y-14228661D01*
X16911370Y-14385804D01*
X16911370Y-14228661D02*
X16925656Y-14200090D01*
X16954227Y-14185804D01*
X16997084Y-14185804D01*
X17025656Y-14200090D01*
X17039941Y-14228661D01*
X17039941Y-14385804D01*
X17625656Y-14071519D02*
X17368513Y-14457233D01*
X18011370Y-14085804D02*
X18039941Y-14085804D01*
X18068513Y-14100090D01*
X18082798Y-14114376D01*
X18097084Y-14142947D01*
X18111370Y-14200090D01*
X18111370Y-14271519D01*
X18097084Y-14328661D01*
X18082798Y-14357233D01*
X18068513Y-14371519D01*
X18039941Y-14385804D01*
X18011370Y-14385804D01*
X17982798Y-14371519D01*
X17968513Y-14357233D01*
X17954227Y-14328661D01*
X17939941Y-14271519D01*
X17939941Y-14200090D01*
X17954227Y-14142947D01*
X17968513Y-14114376D01*
X17982798Y-14100090D01*
X18011370Y-14085804D01*
X18239941Y-14357233D02*
X18254227Y-14371519D01*
X18239941Y-14385804D01*
X18225656Y-14371519D01*
X18239941Y-14357233D01*
X18239941Y-14385804D01*
X18439941Y-14085804D02*
X18468513Y-14085804D01*
X18497084Y-14100090D01*
X18511370Y-14114376D01*
X18525656Y-14142947D01*
X18539941Y-14200090D01*
X18539941Y-14271519D01*
X18525656Y-14328661D01*
X18511370Y-14357233D01*
X18497084Y-14371519D01*
X18468513Y-14385804D01*
X18439941Y-14385804D01*
X18411370Y-14371519D01*
X18397084Y-14357233D01*
X18382798Y-14328661D01*
X18368513Y-14271519D01*
X18368513Y-14200090D01*
X18382798Y-14142947D01*
X18397084Y-14114376D01*
X18411370Y-14100090D01*
X18439941Y-14085804D01*
X18654227Y-14114376D02*
X18668513Y-14100090D01*
X18697084Y-14085804D01*
X18768513Y-14085804D01*
X18797084Y-14100090D01*
X18811370Y-14114376D01*
X18825656Y-14142947D01*
X18825656Y-14171519D01*
X18811370Y-14214376D01*
X18639941Y-14385804D01*
X18825656Y-14385804D01*
X19082798Y-14185804D02*
X19082798Y-14385804D01*
X19011370Y-14071519D02*
X18939941Y-14285804D01*
X19125656Y-14285804D01*
X19225656Y-14085804D02*
X19225656Y-14142947D01*
X19339941Y-14085804D02*
X19339941Y-14142947D01*
X19782798Y-14500090D02*
X19768513Y-14485804D01*
X19739941Y-14442947D01*
X19725656Y-14414376D01*
X19711370Y-14371519D01*
X19697084Y-14300090D01*
X19697084Y-14242947D01*
X19711370Y-14171519D01*
X19725656Y-14128661D01*
X19739941Y-14100090D01*
X19768513Y-14057233D01*
X19782798Y-14042947D01*
X19882798Y-14114376D02*
X19897084Y-14100090D01*
X19925656Y-14085804D01*
X19997084Y-14085804D01*
X20025656Y-14100090D01*
X20039941Y-14114376D01*
X20054227Y-14142947D01*
X20054227Y-14171519D01*
X20039941Y-14214376D01*
X19868513Y-14385804D01*
X20054227Y-14385804D01*
X20154227Y-14085804D02*
X20339941Y-14085804D01*
X20239941Y-14200090D01*
X20282798Y-14200090D01*
X20311370Y-14214376D01*
X20325656Y-14228661D01*
X20339941Y-14257233D01*
X20339941Y-14328661D01*
X20325656Y-14357233D01*
X20311370Y-14371519D01*
X20282798Y-14385804D01*
X20197084Y-14385804D01*
X20168513Y-14371519D01*
X20154227Y-14357233D01*
X20697084Y-14385804D02*
X20697084Y-14085804D01*
X20825656Y-14385804D02*
X20825656Y-14228661D01*
X20811370Y-14200090D01*
X20782798Y-14185804D01*
X20739941Y-14185804D01*
X20711370Y-14200090D01*
X20697084Y-14214376D01*
X21011370Y-14385804D02*
X20982798Y-14371519D01*
X20968513Y-14357233D01*
X20954227Y-14328661D01*
X20954227Y-14242947D01*
X20968513Y-14214376D01*
X20982798Y-14200090D01*
X21011370Y-14185804D01*
X21054227Y-14185804D01*
X21082798Y-14200090D01*
X21097084Y-14214376D01*
X21111370Y-14242947D01*
X21111370Y-14328661D01*
X21097084Y-14357233D01*
X21082798Y-14371519D01*
X21054227Y-14385804D01*
X21011370Y-14385804D01*
X21282798Y-14385804D02*
X21254227Y-14371519D01*
X21239941Y-14342947D01*
X21239941Y-14085804D01*
X21511370Y-14371519D02*
X21482799Y-14385804D01*
X21425656Y-14385804D01*
X21397084Y-14371519D01*
X21382799Y-14342947D01*
X21382799Y-14228661D01*
X21397084Y-14200090D01*
X21425656Y-14185804D01*
X21482799Y-14185804D01*
X21511370Y-14200090D01*
X21525656Y-14228661D01*
X21525656Y-14257233D01*
X21382799Y-14285804D01*
X21639941Y-14371519D02*
X21668513Y-14385804D01*
X21725656Y-14385804D01*
X21754227Y-14371519D01*
X21768513Y-14342947D01*
X21768513Y-14328661D01*
X21754227Y-14300090D01*
X21725656Y-14285804D01*
X21682799Y-14285804D01*
X21654227Y-14271519D01*
X21639941Y-14242947D01*
X21639941Y-14228661D01*
X21654227Y-14200090D01*
X21682799Y-14185804D01*
X21725656Y-14185804D01*
X21754227Y-14200090D01*
X21868513Y-14500090D02*
X21882799Y-14485804D01*
X21911370Y-14442947D01*
X21925656Y-14414376D01*
X21939941Y-14371519D01*
X21954227Y-14300090D01*
X21954227Y-14242947D01*
X21939941Y-14171519D01*
X21925656Y-14128661D01*
X21911370Y-14100090D01*
X21882799Y-14057233D01*
X21868513Y-14042947D01*
X15111370Y-14646090D02*
G75*
G03X15111370Y-14646090I-50000J0D01*
G01*
X15539941Y-14781804D02*
X15368513Y-14781804D01*
X15454227Y-14781804D02*
X15454227Y-14481804D01*
X15425656Y-14524661D01*
X15397084Y-14553233D01*
X15368513Y-14567519D01*
X15668513Y-14753233D02*
X15682798Y-14767519D01*
X15668513Y-14781804D01*
X15654227Y-14767519D01*
X15668513Y-14753233D01*
X15668513Y-14781804D01*
X15868513Y-14481804D02*
X15897084Y-14481804D01*
X15925656Y-14496090D01*
X15939941Y-14510376D01*
X15954227Y-14538947D01*
X15968513Y-14596090D01*
X15968513Y-14667519D01*
X15954227Y-14724661D01*
X15939941Y-14753233D01*
X15925656Y-14767519D01*
X15897084Y-14781804D01*
X15868513Y-14781804D01*
X15839941Y-14767519D01*
X15825656Y-14753233D01*
X15811370Y-14724661D01*
X15797084Y-14667519D01*
X15797084Y-14596090D01*
X15811370Y-14538947D01*
X15825656Y-14510376D01*
X15839941Y-14496090D01*
X15868513Y-14481804D01*
X16154227Y-14481804D02*
X16182798Y-14481804D01*
X16211370Y-14496090D01*
X16225656Y-14510376D01*
X16239941Y-14538947D01*
X16254227Y-14596090D01*
X16254227Y-14667519D01*
X16239941Y-14724661D01*
X16225656Y-14753233D01*
X16211370Y-14767519D01*
X16182798Y-14781804D01*
X16154227Y-14781804D01*
X16125656Y-14767519D01*
X16111370Y-14753233D01*
X16097084Y-14724661D01*
X16082798Y-14667519D01*
X16082798Y-14596090D01*
X16097084Y-14538947D01*
X16111370Y-14510376D01*
X16125656Y-14496090D01*
X16154227Y-14481804D01*
X16382798Y-14781804D02*
X16382798Y-14581804D01*
X16382798Y-14610376D02*
X16397084Y-14596090D01*
X16425656Y-14581804D01*
X16468513Y-14581804D01*
X16497084Y-14596090D01*
X16511370Y-14624661D01*
X16511370Y-14781804D01*
X16511370Y-14624661D02*
X16525656Y-14596090D01*
X16554227Y-14581804D01*
X16597084Y-14581804D01*
X16625656Y-14596090D01*
X16639941Y-14624661D01*
X16639941Y-14781804D01*
X16782799Y-14781804D02*
X16782799Y-14581804D01*
X16782799Y-14610376D02*
X16797084Y-14596090D01*
X16825656Y-14581804D01*
X16868513Y-14581804D01*
X16897084Y-14596090D01*
X16911370Y-14624661D01*
X16911370Y-14781804D01*
X16911370Y-14624661D02*
X16925656Y-14596090D01*
X16954227Y-14581804D01*
X16997084Y-14581804D01*
X17025656Y-14596090D01*
X17039941Y-14624661D01*
X17039941Y-14781804D01*
X17625656Y-14467519D02*
X17368513Y-14853233D01*
X18011370Y-14481804D02*
X18039941Y-14481804D01*
X18068513Y-14496090D01*
X18082798Y-14510376D01*
X18097084Y-14538947D01*
X18111370Y-14596090D01*
X18111370Y-14667519D01*
X18097084Y-14724661D01*
X18082798Y-14753233D01*
X18068513Y-14767519D01*
X18039941Y-14781804D01*
X18011370Y-14781804D01*
X17982798Y-14767519D01*
X17968513Y-14753233D01*
X17954227Y-14724661D01*
X17939941Y-14667519D01*
X17939941Y-14596090D01*
X17954227Y-14538947D01*
X17968513Y-14510376D01*
X17982798Y-14496090D01*
X18011370Y-14481804D01*
X18239941Y-14753233D02*
X18254227Y-14767519D01*
X18239941Y-14781804D01*
X18225656Y-14767519D01*
X18239941Y-14753233D01*
X18239941Y-14781804D01*
X18439941Y-14481804D02*
X18468513Y-14481804D01*
X18497084Y-14496090D01*
X18511370Y-14510376D01*
X18525656Y-14538947D01*
X18539941Y-14596090D01*
X18539941Y-14667519D01*
X18525656Y-14724661D01*
X18511370Y-14753233D01*
X18497084Y-14767519D01*
X18468513Y-14781804D01*
X18439941Y-14781804D01*
X18411370Y-14767519D01*
X18397084Y-14753233D01*
X18382798Y-14724661D01*
X18368513Y-14667519D01*
X18368513Y-14596090D01*
X18382798Y-14538947D01*
X18397084Y-14510376D01*
X18411370Y-14496090D01*
X18439941Y-14481804D01*
X18639941Y-14481804D02*
X18825656Y-14481804D01*
X18725656Y-14596090D01*
X18768513Y-14596090D01*
X18797084Y-14610376D01*
X18811370Y-14624661D01*
X18825656Y-14653233D01*
X18825656Y-14724661D01*
X18811370Y-14753233D01*
X18797084Y-14767519D01*
X18768513Y-14781804D01*
X18682798Y-14781804D01*
X18654227Y-14767519D01*
X18639941Y-14753233D01*
X18968513Y-14781804D02*
X19025656Y-14781804D01*
X19054227Y-14767519D01*
X19068513Y-14753233D01*
X19097084Y-14710376D01*
X19111370Y-14653233D01*
X19111370Y-14538947D01*
X19097084Y-14510376D01*
X19082798Y-14496090D01*
X19054227Y-14481804D01*
X18997084Y-14481804D01*
X18968513Y-14496090D01*
X18954227Y-14510376D01*
X18939941Y-14538947D01*
X18939941Y-14610376D01*
X18954227Y-14638947D01*
X18968513Y-14653233D01*
X18997084Y-14667519D01*
X19054227Y-14667519D01*
X19082798Y-14653233D01*
X19097084Y-14638947D01*
X19111370Y-14610376D01*
X19225656Y-14481804D02*
X19225656Y-14538947D01*
X19339941Y-14481804D02*
X19339941Y-14538947D01*
X19782798Y-14896090D02*
X19768513Y-14881804D01*
X19739941Y-14838947D01*
X19725656Y-14810376D01*
X19711370Y-14767519D01*
X19697084Y-14696090D01*
X19697084Y-14638947D01*
X19711370Y-14567519D01*
X19725656Y-14524661D01*
X19739941Y-14496090D01*
X19768513Y-14453233D01*
X19782798Y-14438947D01*
X20025656Y-14581804D02*
X20025656Y-14781804D01*
X19954227Y-14467519D02*
X19882798Y-14681804D01*
X20068513Y-14681804D01*
X20411370Y-14781804D02*
X20411370Y-14481804D01*
X20539941Y-14781804D02*
X20539941Y-14624661D01*
X20525656Y-14596090D01*
X20497084Y-14581804D01*
X20454227Y-14581804D01*
X20425656Y-14596090D01*
X20411370Y-14610376D01*
X20725656Y-14781804D02*
X20697084Y-14767519D01*
X20682798Y-14753233D01*
X20668513Y-14724661D01*
X20668513Y-14638947D01*
X20682798Y-14610376D01*
X20697084Y-14596090D01*
X20725656Y-14581804D01*
X20768513Y-14581804D01*
X20797084Y-14596090D01*
X20811370Y-14610376D01*
X20825656Y-14638947D01*
X20825656Y-14724661D01*
X20811370Y-14753233D01*
X20797084Y-14767519D01*
X20768513Y-14781804D01*
X20725656Y-14781804D01*
X20997084Y-14781804D02*
X20968513Y-14767519D01*
X20954227Y-14738947D01*
X20954227Y-14481804D01*
X21225656Y-14767519D02*
X21197084Y-14781804D01*
X21139941Y-14781804D01*
X21111370Y-14767519D01*
X21097084Y-14738947D01*
X21097084Y-14624661D01*
X21111370Y-14596090D01*
X21139941Y-14581804D01*
X21197084Y-14581804D01*
X21225656Y-14596090D01*
X21239941Y-14624661D01*
X21239941Y-14653233D01*
X21097084Y-14681804D01*
X21354227Y-14767519D02*
X21382799Y-14781804D01*
X21439941Y-14781804D01*
X21468513Y-14767519D01*
X21482799Y-14738947D01*
X21482799Y-14724661D01*
X21468513Y-14696090D01*
X21439941Y-14681804D01*
X21397084Y-14681804D01*
X21368513Y-14667519D01*
X21354227Y-14638947D01*
X21354227Y-14624661D01*
X21368513Y-14596090D01*
X21397084Y-14581804D01*
X21439941Y-14581804D01*
X21468513Y-14596090D01*
X21582798Y-14896090D02*
X21597084Y-14881804D01*
X21625656Y-14838947D01*
X21639941Y-14810376D01*
X21654227Y-14767519D01*
X21668513Y-14696090D01*
X21668513Y-14638947D01*
X21654227Y-14567519D01*
X21639941Y-14524661D01*
X21625656Y-14496090D01*
X21597084Y-14453233D01*
X21582798Y-14438947D01*
X15011370Y-14942090D02*
X15011370Y-15142090D01*
X14911370Y-15042090D02*
X15111370Y-15042090D01*
X15368513Y-14906376D02*
X15382798Y-14892090D01*
X15411370Y-14877804D01*
X15482798Y-14877804D01*
X15511370Y-14892090D01*
X15525656Y-14906376D01*
X15539941Y-14934947D01*
X15539941Y-14963519D01*
X15525656Y-15006376D01*
X15354227Y-15177804D01*
X15539941Y-15177804D01*
X15668513Y-15149233D02*
X15682798Y-15163519D01*
X15668513Y-15177804D01*
X15654227Y-15163519D01*
X15668513Y-15149233D01*
X15668513Y-15177804D01*
X15868513Y-14877804D02*
X15897084Y-14877804D01*
X15925656Y-14892090D01*
X15939941Y-14906376D01*
X15954227Y-14934947D01*
X15968513Y-14992090D01*
X15968513Y-15063519D01*
X15954227Y-15120661D01*
X15939941Y-15149233D01*
X15925656Y-15163519D01*
X15897084Y-15177804D01*
X15868513Y-15177804D01*
X15839941Y-15163519D01*
X15825656Y-15149233D01*
X15811370Y-15120661D01*
X15797084Y-15063519D01*
X15797084Y-14992090D01*
X15811370Y-14934947D01*
X15825656Y-14906376D01*
X15839941Y-14892090D01*
X15868513Y-14877804D01*
X16154227Y-14877804D02*
X16182798Y-14877804D01*
X16211370Y-14892090D01*
X16225656Y-14906376D01*
X16239941Y-14934947D01*
X16254227Y-14992090D01*
X16254227Y-15063519D01*
X16239941Y-15120661D01*
X16225656Y-15149233D01*
X16211370Y-15163519D01*
X16182798Y-15177804D01*
X16154227Y-15177804D01*
X16125656Y-15163519D01*
X16111370Y-15149233D01*
X16097084Y-15120661D01*
X16082798Y-15063519D01*
X16082798Y-14992090D01*
X16097084Y-14934947D01*
X16111370Y-14906376D01*
X16125656Y-14892090D01*
X16154227Y-14877804D01*
X16382798Y-15177804D02*
X16382798Y-14977804D01*
X16382798Y-15006376D02*
X16397084Y-14992090D01*
X16425656Y-14977804D01*
X16468513Y-14977804D01*
X16497084Y-14992090D01*
X16511370Y-15020661D01*
X16511370Y-15177804D01*
X16511370Y-15020661D02*
X16525656Y-14992090D01*
X16554227Y-14977804D01*
X16597084Y-14977804D01*
X16625656Y-14992090D01*
X16639941Y-15020661D01*
X16639941Y-15177804D01*
X16782799Y-15177804D02*
X16782799Y-14977804D01*
X16782799Y-15006376D02*
X16797084Y-14992090D01*
X16825656Y-14977804D01*
X16868513Y-14977804D01*
X16897084Y-14992090D01*
X16911370Y-15020661D01*
X16911370Y-15177804D01*
X16911370Y-15020661D02*
X16925656Y-14992090D01*
X16954227Y-14977804D01*
X16997084Y-14977804D01*
X17025656Y-14992090D01*
X17039941Y-15020661D01*
X17039941Y-15177804D01*
X17625656Y-14863519D02*
X17368513Y-15249233D01*
X18011370Y-14877804D02*
X18039941Y-14877804D01*
X18068513Y-14892090D01*
X18082798Y-14906376D01*
X18097084Y-14934947D01*
X18111370Y-14992090D01*
X18111370Y-15063519D01*
X18097084Y-15120661D01*
X18082798Y-15149233D01*
X18068513Y-15163519D01*
X18039941Y-15177804D01*
X18011370Y-15177804D01*
X17982798Y-15163519D01*
X17968513Y-15149233D01*
X17954227Y-15120661D01*
X17939941Y-15063519D01*
X17939941Y-14992090D01*
X17954227Y-14934947D01*
X17968513Y-14906376D01*
X17982798Y-14892090D01*
X18011370Y-14877804D01*
X18239941Y-15149233D02*
X18254227Y-15163519D01*
X18239941Y-15177804D01*
X18225656Y-15163519D01*
X18239941Y-15149233D01*
X18239941Y-15177804D01*
X18439941Y-14877804D02*
X18468513Y-14877804D01*
X18497084Y-14892090D01*
X18511370Y-14906376D01*
X18525656Y-14934947D01*
X18539941Y-14992090D01*
X18539941Y-15063519D01*
X18525656Y-15120661D01*
X18511370Y-15149233D01*
X18497084Y-15163519D01*
X18468513Y-15177804D01*
X18439941Y-15177804D01*
X18411370Y-15163519D01*
X18397084Y-15149233D01*
X18382798Y-15120661D01*
X18368513Y-15063519D01*
X18368513Y-14992090D01*
X18382798Y-14934947D01*
X18397084Y-14906376D01*
X18411370Y-14892090D01*
X18439941Y-14877804D01*
X18639941Y-14877804D02*
X18839941Y-14877804D01*
X18711370Y-15177804D01*
X18968513Y-15177804D02*
X19025656Y-15177804D01*
X19054227Y-15163519D01*
X19068513Y-15149233D01*
X19097084Y-15106376D01*
X19111370Y-15049233D01*
X19111370Y-14934947D01*
X19097084Y-14906376D01*
X19082798Y-14892090D01*
X19054227Y-14877804D01*
X18997084Y-14877804D01*
X18968513Y-14892090D01*
X18954227Y-14906376D01*
X18939941Y-14934947D01*
X18939941Y-15006376D01*
X18954227Y-15034947D01*
X18968513Y-15049233D01*
X18997084Y-15063519D01*
X19054227Y-15063519D01*
X19082798Y-15049233D01*
X19097084Y-15034947D01*
X19111370Y-15006376D01*
X19225656Y-14877804D02*
X19225656Y-14934947D01*
X19339941Y-14877804D02*
X19339941Y-14934947D01*
X19782798Y-15292090D02*
X19768513Y-15277804D01*
X19739941Y-15234947D01*
X19725656Y-15206376D01*
X19711370Y-15163519D01*
X19697084Y-15092090D01*
X19697084Y-15034947D01*
X19711370Y-14963519D01*
X19725656Y-14920661D01*
X19739941Y-14892090D01*
X19768513Y-14849233D01*
X19782798Y-14834947D01*
X20025656Y-14977804D02*
X20025656Y-15177804D01*
X19954227Y-14863519D02*
X19882798Y-15077804D01*
X20068513Y-15077804D01*
X20411370Y-15177804D02*
X20411370Y-14877804D01*
X20539941Y-15177804D02*
X20539941Y-15020661D01*
X20525656Y-14992090D01*
X20497084Y-14977804D01*
X20454227Y-14977804D01*
X20425656Y-14992090D01*
X20411370Y-15006376D01*
X20725656Y-15177804D02*
X20697084Y-15163519D01*
X20682798Y-15149233D01*
X20668513Y-15120661D01*
X20668513Y-15034947D01*
X20682798Y-15006376D01*
X20697084Y-14992090D01*
X20725656Y-14977804D01*
X20768513Y-14977804D01*
X20797084Y-14992090D01*
X20811370Y-15006376D01*
X20825656Y-15034947D01*
X20825656Y-15120661D01*
X20811370Y-15149233D01*
X20797084Y-15163519D01*
X20768513Y-15177804D01*
X20725656Y-15177804D01*
X20997084Y-15177804D02*
X20968513Y-15163519D01*
X20954227Y-15134947D01*
X20954227Y-14877804D01*
X21225656Y-15163519D02*
X21197084Y-15177804D01*
X21139941Y-15177804D01*
X21111370Y-15163519D01*
X21097084Y-15134947D01*
X21097084Y-15020661D01*
X21111370Y-14992090D01*
X21139941Y-14977804D01*
X21197084Y-14977804D01*
X21225656Y-14992090D01*
X21239941Y-15020661D01*
X21239941Y-15049233D01*
X21097084Y-15077804D01*
X21354227Y-15163519D02*
X21382799Y-15177804D01*
X21439941Y-15177804D01*
X21468513Y-15163519D01*
X21482799Y-15134947D01*
X21482799Y-15120661D01*
X21468513Y-15092090D01*
X21439941Y-15077804D01*
X21397084Y-15077804D01*
X21368513Y-15063519D01*
X21354227Y-15034947D01*
X21354227Y-15020661D01*
X21368513Y-14992090D01*
X21397084Y-14977804D01*
X21439941Y-14977804D01*
X21468513Y-14992090D01*
X21582798Y-15292090D02*
X21597084Y-15277804D01*
X21625656Y-15234947D01*
X21639941Y-15206376D01*
X21654227Y-15163519D01*
X21668513Y-15092090D01*
X21668513Y-15034947D01*
X21654227Y-14963519D01*
X21639941Y-14920661D01*
X21625656Y-14892090D01*
X21597084Y-14849233D01*
X21582798Y-14834947D01*
M02*
