G04 #@! TF.FileFunction,Other,Comment*
%FSLAX46Y46*%
G04 Gerber Fmt 4.6, Leading zero omitted, Abs format (unit mm)*
G04 Created by KiCad (PCBNEW 4.0.6) date 05/08/17 07:17:05*
%MOMM*%
%LPD*%
G01*
G04 APERTURE LIST*
%ADD10C,0.100000*%
%ADD11C,0.254000*%
%ADD12C,0.080000*%
G04 APERTURE END LIST*
D10*
D11*
X192020100Y-93155900D02*
G75*
G03X192020100Y-93155900I-635000J0D01*
G01*
X168011100Y-117190900D02*
G75*
G03X168011100Y-117190900I-635000J0D01*
G01*
X172106100Y-113312900D02*
G75*
G03X172106100Y-113312900I-635000J0D01*
G01*
X188137100Y-97344900D02*
G75*
G03X188137100Y-97344900I-635000J0D01*
G01*
X200028100Y-85154900D02*
G75*
G03X200028100Y-85154900I-635000J0D01*
G01*
X160061100Y-125149900D02*
G75*
G03X160061100Y-125149900I-635000J0D01*
G01*
X196015100Y-89398900D02*
G75*
G03X196015100Y-89398900I-635000J0D01*
G01*
X164124100Y-121348900D02*
G75*
G03X164124100Y-121348900I-635000J0D01*
G01*
X187960100Y-113335900D02*
G75*
G03X187960100Y-113335900I-635000J0D01*
G01*
X171975500Y-97318500D02*
G75*
G03X171975500Y-97318500I-635000J0D01*
G01*
X168088500Y-93243700D02*
G75*
G03X168088500Y-93243700I-635000J0D01*
G01*
X192044300Y-117206700D02*
G75*
G03X192044300Y-117206700I-635000J0D01*
G01*
X200051300Y-125216700D02*
G75*
G03X200051300Y-125216700I-635000J0D01*
G01*
X160082500Y-85198300D02*
G75*
G03X160082500Y-85198300I-635000J0D01*
G01*
X164002300Y-89364100D02*
G75*
G03X164002300Y-89364100I-635000J0D01*
G01*
X196014300Y-121331900D02*
G75*
G03X196014300Y-121331900I-635000J0D01*
G01*
D12*
X203283890Y-91508129D02*
X204007700Y-91779557D01*
X203283890Y-92050986D01*
X204324366Y-91191462D02*
X204867223Y-91191462D01*
X204595795Y-92141462D02*
X204595795Y-91191462D01*
X205183890Y-92141462D02*
X205183890Y-91191462D01*
X205545795Y-91191462D01*
X205636271Y-91236700D01*
X205681510Y-91281938D01*
X205726748Y-91372414D01*
X205726748Y-91508129D01*
X205681510Y-91598605D01*
X205636271Y-91643843D01*
X205545795Y-91689081D01*
X205183890Y-91689081D01*
X205907700Y-92231938D02*
X206631510Y-92231938D01*
X206812462Y-92096224D02*
X206948177Y-92141462D01*
X207174367Y-92141462D01*
X207264843Y-92096224D01*
X207310081Y-92050986D01*
X207355320Y-91960510D01*
X207355320Y-91870033D01*
X207310081Y-91779557D01*
X207264843Y-91734319D01*
X207174367Y-91689081D01*
X206993415Y-91643843D01*
X206902939Y-91598605D01*
X206857700Y-91553367D01*
X206812462Y-91462890D01*
X206812462Y-91372414D01*
X206857700Y-91281938D01*
X206902939Y-91236700D01*
X206993415Y-91191462D01*
X207219605Y-91191462D01*
X207355320Y-91236700D01*
X207762462Y-92141462D02*
X207762462Y-91191462D01*
X208712463Y-91236700D02*
X208621986Y-91191462D01*
X208486272Y-91191462D01*
X208350558Y-91236700D01*
X208260082Y-91327176D01*
X208214843Y-91417652D01*
X208169605Y-91598605D01*
X208169605Y-91734319D01*
X208214843Y-91915271D01*
X208260082Y-92005748D01*
X208350558Y-92096224D01*
X208486272Y-92141462D01*
X208576748Y-92141462D01*
X208712463Y-92096224D01*
X208757701Y-92050986D01*
X208757701Y-91734319D01*
X208576748Y-91734319D01*
X209164843Y-92141462D02*
X209164843Y-91191462D01*
X209707701Y-92141462D01*
X209707701Y-91191462D01*
X210114843Y-91870033D02*
X210567224Y-91870033D01*
X210024367Y-92141462D02*
X210341034Y-91191462D01*
X210657701Y-92141462D01*
X211426748Y-92141462D02*
X210974367Y-92141462D01*
X210974367Y-91191462D01*
X211517225Y-92231938D02*
X212241035Y-92231938D01*
X212467225Y-92141462D02*
X212467225Y-91191462D01*
X213010083Y-92141462D01*
X213010083Y-91191462D01*
X213417225Y-91870033D02*
X213869606Y-91870033D01*
X213326749Y-92141462D02*
X213643416Y-91191462D01*
X213960083Y-92141462D01*
X214276749Y-92141462D02*
X214276749Y-91191462D01*
X214593416Y-91870033D01*
X214910083Y-91191462D01*
X214910083Y-92141462D01*
X215362463Y-91643843D02*
X215679130Y-91643843D01*
X215814844Y-92141462D02*
X215362463Y-92141462D01*
X215362463Y-91191462D01*
X215814844Y-91191462D01*
X205239690Y-83634129D02*
X205963500Y-83905557D01*
X205239690Y-84176986D01*
X206280166Y-83317462D02*
X206823023Y-83317462D01*
X206551595Y-84267462D02*
X206551595Y-83317462D01*
X207139690Y-84267462D02*
X207139690Y-83317462D01*
X207501595Y-83317462D01*
X207592071Y-83362700D01*
X207637310Y-83407938D01*
X207682548Y-83498414D01*
X207682548Y-83634129D01*
X207637310Y-83724605D01*
X207592071Y-83769843D01*
X207501595Y-83815081D01*
X207139690Y-83815081D01*
X207863500Y-84357938D02*
X208587310Y-84357938D01*
X208768262Y-84222224D02*
X208903977Y-84267462D01*
X209130167Y-84267462D01*
X209220643Y-84222224D01*
X209265881Y-84176986D01*
X209311120Y-84086510D01*
X209311120Y-83996033D01*
X209265881Y-83905557D01*
X209220643Y-83860319D01*
X209130167Y-83815081D01*
X208949215Y-83769843D01*
X208858739Y-83724605D01*
X208813500Y-83679367D01*
X208768262Y-83588890D01*
X208768262Y-83498414D01*
X208813500Y-83407938D01*
X208858739Y-83362700D01*
X208949215Y-83317462D01*
X209175405Y-83317462D01*
X209311120Y-83362700D01*
X209718262Y-84267462D02*
X209718262Y-83317462D01*
X210668263Y-83362700D02*
X210577786Y-83317462D01*
X210442072Y-83317462D01*
X210306358Y-83362700D01*
X210215882Y-83453176D01*
X210170643Y-83543652D01*
X210125405Y-83724605D01*
X210125405Y-83860319D01*
X210170643Y-84041271D01*
X210215882Y-84131748D01*
X210306358Y-84222224D01*
X210442072Y-84267462D01*
X210532548Y-84267462D01*
X210668263Y-84222224D01*
X210713501Y-84176986D01*
X210713501Y-83860319D01*
X210532548Y-83860319D01*
X211120643Y-84267462D02*
X211120643Y-83317462D01*
X211663501Y-84267462D01*
X211663501Y-83317462D01*
X212070643Y-83996033D02*
X212523024Y-83996033D01*
X211980167Y-84267462D02*
X212296834Y-83317462D01*
X212613501Y-84267462D01*
X213382548Y-84267462D02*
X212930167Y-84267462D01*
X212930167Y-83317462D01*
X213473025Y-84357938D02*
X214196835Y-84357938D01*
X214423025Y-84267462D02*
X214423025Y-83317462D01*
X214965883Y-84267462D01*
X214965883Y-83317462D01*
X215373025Y-83996033D02*
X215825406Y-83996033D01*
X215282549Y-84267462D02*
X215599216Y-83317462D01*
X215915883Y-84267462D01*
X216232549Y-84267462D02*
X216232549Y-83317462D01*
X216549216Y-83996033D01*
X216865883Y-83317462D01*
X216865883Y-84267462D01*
X217318263Y-83769843D02*
X217634930Y-83769843D01*
X217770644Y-84267462D02*
X217318263Y-84267462D01*
X217318263Y-83317462D01*
X217770644Y-83317462D01*
X156268490Y-91558929D02*
X156992300Y-91830357D01*
X156268490Y-92101786D01*
X157308966Y-91242262D02*
X157851823Y-91242262D01*
X157580395Y-92192262D02*
X157580395Y-91242262D01*
X158168490Y-92192262D02*
X158168490Y-91242262D01*
X158530395Y-91242262D01*
X158620871Y-91287500D01*
X158666110Y-91332738D01*
X158711348Y-91423214D01*
X158711348Y-91558929D01*
X158666110Y-91649405D01*
X158620871Y-91694643D01*
X158530395Y-91739881D01*
X158168490Y-91739881D01*
X158892300Y-92282738D02*
X159616110Y-92282738D01*
X159797062Y-92147024D02*
X159932777Y-92192262D01*
X160158967Y-92192262D01*
X160249443Y-92147024D01*
X160294681Y-92101786D01*
X160339920Y-92011310D01*
X160339920Y-91920833D01*
X160294681Y-91830357D01*
X160249443Y-91785119D01*
X160158967Y-91739881D01*
X159978015Y-91694643D01*
X159887539Y-91649405D01*
X159842300Y-91604167D01*
X159797062Y-91513690D01*
X159797062Y-91423214D01*
X159842300Y-91332738D01*
X159887539Y-91287500D01*
X159978015Y-91242262D01*
X160204205Y-91242262D01*
X160339920Y-91287500D01*
X160747062Y-92192262D02*
X160747062Y-91242262D01*
X161697063Y-91287500D02*
X161606586Y-91242262D01*
X161470872Y-91242262D01*
X161335158Y-91287500D01*
X161244682Y-91377976D01*
X161199443Y-91468452D01*
X161154205Y-91649405D01*
X161154205Y-91785119D01*
X161199443Y-91966071D01*
X161244682Y-92056548D01*
X161335158Y-92147024D01*
X161470872Y-92192262D01*
X161561348Y-92192262D01*
X161697063Y-92147024D01*
X161742301Y-92101786D01*
X161742301Y-91785119D01*
X161561348Y-91785119D01*
X162149443Y-92192262D02*
X162149443Y-91242262D01*
X162692301Y-92192262D01*
X162692301Y-91242262D01*
X163099443Y-91920833D02*
X163551824Y-91920833D01*
X163008967Y-92192262D02*
X163325634Y-91242262D01*
X163642301Y-92192262D01*
X164411348Y-92192262D02*
X163958967Y-92192262D01*
X163958967Y-91242262D01*
X164501825Y-92282738D02*
X165225635Y-92282738D01*
X165451825Y-92192262D02*
X165451825Y-91242262D01*
X165994683Y-92192262D01*
X165994683Y-91242262D01*
X166401825Y-91920833D02*
X166854206Y-91920833D01*
X166311349Y-92192262D02*
X166628016Y-91242262D01*
X166944683Y-92192262D01*
X167261349Y-92192262D02*
X167261349Y-91242262D01*
X167578016Y-91920833D01*
X167894683Y-91242262D01*
X167894683Y-92192262D01*
X168347063Y-91694643D02*
X168663730Y-91694643D01*
X168799444Y-92192262D02*
X168347063Y-92192262D01*
X168347063Y-91242262D01*
X168799444Y-91242262D01*
X153601490Y-81551329D02*
X154325300Y-81822757D01*
X153601490Y-82094186D01*
X154641966Y-81234662D02*
X155184823Y-81234662D01*
X154913395Y-82184662D02*
X154913395Y-81234662D01*
X155501490Y-82184662D02*
X155501490Y-81234662D01*
X155863395Y-81234662D01*
X155953871Y-81279900D01*
X155999110Y-81325138D01*
X156044348Y-81415614D01*
X156044348Y-81551329D01*
X155999110Y-81641805D01*
X155953871Y-81687043D01*
X155863395Y-81732281D01*
X155501490Y-81732281D01*
X156225300Y-82275138D02*
X156949110Y-82275138D01*
X157130062Y-82139424D02*
X157265777Y-82184662D01*
X157491967Y-82184662D01*
X157582443Y-82139424D01*
X157627681Y-82094186D01*
X157672920Y-82003710D01*
X157672920Y-81913233D01*
X157627681Y-81822757D01*
X157582443Y-81777519D01*
X157491967Y-81732281D01*
X157311015Y-81687043D01*
X157220539Y-81641805D01*
X157175300Y-81596567D01*
X157130062Y-81506090D01*
X157130062Y-81415614D01*
X157175300Y-81325138D01*
X157220539Y-81279900D01*
X157311015Y-81234662D01*
X157537205Y-81234662D01*
X157672920Y-81279900D01*
X158080062Y-82184662D02*
X158080062Y-81234662D01*
X159030063Y-81279900D02*
X158939586Y-81234662D01*
X158803872Y-81234662D01*
X158668158Y-81279900D01*
X158577682Y-81370376D01*
X158532443Y-81460852D01*
X158487205Y-81641805D01*
X158487205Y-81777519D01*
X158532443Y-81958471D01*
X158577682Y-82048948D01*
X158668158Y-82139424D01*
X158803872Y-82184662D01*
X158894348Y-82184662D01*
X159030063Y-82139424D01*
X159075301Y-82094186D01*
X159075301Y-81777519D01*
X158894348Y-81777519D01*
X159482443Y-82184662D02*
X159482443Y-81234662D01*
X160025301Y-82184662D01*
X160025301Y-81234662D01*
X160432443Y-81913233D02*
X160884824Y-81913233D01*
X160341967Y-82184662D02*
X160658634Y-81234662D01*
X160975301Y-82184662D01*
X161744348Y-82184662D02*
X161291967Y-82184662D01*
X161291967Y-81234662D01*
X161834825Y-82275138D02*
X162558635Y-82275138D01*
X162784825Y-82184662D02*
X162784825Y-81234662D01*
X163327683Y-82184662D01*
X163327683Y-81234662D01*
X163734825Y-81913233D02*
X164187206Y-81913233D01*
X163644349Y-82184662D02*
X163961016Y-81234662D01*
X164277683Y-82184662D01*
X164594349Y-82184662D02*
X164594349Y-81234662D01*
X164911016Y-81913233D01*
X165227683Y-81234662D01*
X165227683Y-82184662D01*
X165680063Y-81687043D02*
X165996730Y-81687043D01*
X166132444Y-82184662D02*
X165680063Y-82184662D01*
X165680063Y-81234662D01*
X166132444Y-81234662D01*
X203207690Y-104995529D02*
X203931500Y-105266957D01*
X203207690Y-105538386D01*
X204248166Y-104678862D02*
X204791023Y-104678862D01*
X204519595Y-105628862D02*
X204519595Y-104678862D01*
X205107690Y-105628862D02*
X205107690Y-104678862D01*
X205469595Y-104678862D01*
X205560071Y-104724100D01*
X205605310Y-104769338D01*
X205650548Y-104859814D01*
X205650548Y-104995529D01*
X205605310Y-105086005D01*
X205560071Y-105131243D01*
X205469595Y-105176481D01*
X205107690Y-105176481D01*
X205831500Y-105719338D02*
X206555310Y-105719338D01*
X206736262Y-105583624D02*
X206871977Y-105628862D01*
X207098167Y-105628862D01*
X207188643Y-105583624D01*
X207233881Y-105538386D01*
X207279120Y-105447910D01*
X207279120Y-105357433D01*
X207233881Y-105266957D01*
X207188643Y-105221719D01*
X207098167Y-105176481D01*
X206917215Y-105131243D01*
X206826739Y-105086005D01*
X206781500Y-105040767D01*
X206736262Y-104950290D01*
X206736262Y-104859814D01*
X206781500Y-104769338D01*
X206826739Y-104724100D01*
X206917215Y-104678862D01*
X207143405Y-104678862D01*
X207279120Y-104724100D01*
X207686262Y-105628862D02*
X207686262Y-104678862D01*
X208636263Y-104724100D02*
X208545786Y-104678862D01*
X208410072Y-104678862D01*
X208274358Y-104724100D01*
X208183882Y-104814576D01*
X208138643Y-104905052D01*
X208093405Y-105086005D01*
X208093405Y-105221719D01*
X208138643Y-105402671D01*
X208183882Y-105493148D01*
X208274358Y-105583624D01*
X208410072Y-105628862D01*
X208500548Y-105628862D01*
X208636263Y-105583624D01*
X208681501Y-105538386D01*
X208681501Y-105221719D01*
X208500548Y-105221719D01*
X209088643Y-105628862D02*
X209088643Y-104678862D01*
X209631501Y-105628862D01*
X209631501Y-104678862D01*
X210038643Y-105357433D02*
X210491024Y-105357433D01*
X209948167Y-105628862D02*
X210264834Y-104678862D01*
X210581501Y-105628862D01*
X211350548Y-105628862D02*
X210898167Y-105628862D01*
X210898167Y-104678862D01*
X211441025Y-105719338D02*
X212164835Y-105719338D01*
X212391025Y-105628862D02*
X212391025Y-104678862D01*
X212933883Y-105628862D01*
X212933883Y-104678862D01*
X213341025Y-105357433D02*
X213793406Y-105357433D01*
X213250549Y-105628862D02*
X213567216Y-104678862D01*
X213883883Y-105628862D01*
X214200549Y-105628862D02*
X214200549Y-104678862D01*
X214517216Y-105357433D01*
X214833883Y-104678862D01*
X214833883Y-105628862D01*
X215286263Y-105131243D02*
X215602930Y-105131243D01*
X215738644Y-105628862D02*
X215286263Y-105628862D01*
X215286263Y-104678862D01*
X215738644Y-104678862D01*
X203106090Y-107611729D02*
X203829900Y-107883157D01*
X203106090Y-108154586D01*
X204146566Y-107295062D02*
X204689423Y-107295062D01*
X204417995Y-108245062D02*
X204417995Y-107295062D01*
X205006090Y-108245062D02*
X205006090Y-107295062D01*
X205367995Y-107295062D01*
X205458471Y-107340300D01*
X205503710Y-107385538D01*
X205548948Y-107476014D01*
X205548948Y-107611729D01*
X205503710Y-107702205D01*
X205458471Y-107747443D01*
X205367995Y-107792681D01*
X205006090Y-107792681D01*
X205729900Y-108335538D02*
X206453710Y-108335538D01*
X206634662Y-108199824D02*
X206770377Y-108245062D01*
X206996567Y-108245062D01*
X207087043Y-108199824D01*
X207132281Y-108154586D01*
X207177520Y-108064110D01*
X207177520Y-107973633D01*
X207132281Y-107883157D01*
X207087043Y-107837919D01*
X206996567Y-107792681D01*
X206815615Y-107747443D01*
X206725139Y-107702205D01*
X206679900Y-107656967D01*
X206634662Y-107566490D01*
X206634662Y-107476014D01*
X206679900Y-107385538D01*
X206725139Y-107340300D01*
X206815615Y-107295062D01*
X207041805Y-107295062D01*
X207177520Y-107340300D01*
X207584662Y-108245062D02*
X207584662Y-107295062D01*
X208534663Y-107340300D02*
X208444186Y-107295062D01*
X208308472Y-107295062D01*
X208172758Y-107340300D01*
X208082282Y-107430776D01*
X208037043Y-107521252D01*
X207991805Y-107702205D01*
X207991805Y-107837919D01*
X208037043Y-108018871D01*
X208082282Y-108109348D01*
X208172758Y-108199824D01*
X208308472Y-108245062D01*
X208398948Y-108245062D01*
X208534663Y-108199824D01*
X208579901Y-108154586D01*
X208579901Y-107837919D01*
X208398948Y-107837919D01*
X208987043Y-108245062D02*
X208987043Y-107295062D01*
X209529901Y-108245062D01*
X209529901Y-107295062D01*
X209937043Y-107973633D02*
X210389424Y-107973633D01*
X209846567Y-108245062D02*
X210163234Y-107295062D01*
X210479901Y-108245062D01*
X211248948Y-108245062D02*
X210796567Y-108245062D01*
X210796567Y-107295062D01*
X211339425Y-108335538D02*
X212063235Y-108335538D01*
X212289425Y-108245062D02*
X212289425Y-107295062D01*
X212832283Y-108245062D01*
X212832283Y-107295062D01*
X213239425Y-107973633D02*
X213691806Y-107973633D01*
X213148949Y-108245062D02*
X213465616Y-107295062D01*
X213782283Y-108245062D01*
X214098949Y-108245062D02*
X214098949Y-107295062D01*
X214415616Y-107973633D01*
X214732283Y-107295062D01*
X214732283Y-108245062D01*
X215184663Y-107747443D02*
X215501330Y-107747443D01*
X215637044Y-108245062D02*
X215184663Y-108245062D01*
X215184663Y-107295062D01*
X215637044Y-107295062D01*
X156293890Y-107535529D02*
X157017700Y-107806957D01*
X156293890Y-108078386D01*
X157334366Y-107218862D02*
X157877223Y-107218862D01*
X157605795Y-108168862D02*
X157605795Y-107218862D01*
X158193890Y-108168862D02*
X158193890Y-107218862D01*
X158555795Y-107218862D01*
X158646271Y-107264100D01*
X158691510Y-107309338D01*
X158736748Y-107399814D01*
X158736748Y-107535529D01*
X158691510Y-107626005D01*
X158646271Y-107671243D01*
X158555795Y-107716481D01*
X158193890Y-107716481D01*
X158917700Y-108259338D02*
X159641510Y-108259338D01*
X159822462Y-108123624D02*
X159958177Y-108168862D01*
X160184367Y-108168862D01*
X160274843Y-108123624D01*
X160320081Y-108078386D01*
X160365320Y-107987910D01*
X160365320Y-107897433D01*
X160320081Y-107806957D01*
X160274843Y-107761719D01*
X160184367Y-107716481D01*
X160003415Y-107671243D01*
X159912939Y-107626005D01*
X159867700Y-107580767D01*
X159822462Y-107490290D01*
X159822462Y-107399814D01*
X159867700Y-107309338D01*
X159912939Y-107264100D01*
X160003415Y-107218862D01*
X160229605Y-107218862D01*
X160365320Y-107264100D01*
X160772462Y-108168862D02*
X160772462Y-107218862D01*
X161722463Y-107264100D02*
X161631986Y-107218862D01*
X161496272Y-107218862D01*
X161360558Y-107264100D01*
X161270082Y-107354576D01*
X161224843Y-107445052D01*
X161179605Y-107626005D01*
X161179605Y-107761719D01*
X161224843Y-107942671D01*
X161270082Y-108033148D01*
X161360558Y-108123624D01*
X161496272Y-108168862D01*
X161586748Y-108168862D01*
X161722463Y-108123624D01*
X161767701Y-108078386D01*
X161767701Y-107761719D01*
X161586748Y-107761719D01*
X162174843Y-108168862D02*
X162174843Y-107218862D01*
X162717701Y-108168862D01*
X162717701Y-107218862D01*
X163124843Y-107897433D02*
X163577224Y-107897433D01*
X163034367Y-108168862D02*
X163351034Y-107218862D01*
X163667701Y-108168862D01*
X164436748Y-108168862D02*
X163984367Y-108168862D01*
X163984367Y-107218862D01*
X164527225Y-108259338D02*
X165251035Y-108259338D01*
X165477225Y-108168862D02*
X165477225Y-107218862D01*
X166020083Y-108168862D01*
X166020083Y-107218862D01*
X166427225Y-107897433D02*
X166879606Y-107897433D01*
X166336749Y-108168862D02*
X166653416Y-107218862D01*
X166970083Y-108168862D01*
X167286749Y-108168862D02*
X167286749Y-107218862D01*
X167603416Y-107897433D01*
X167920083Y-107218862D01*
X167920083Y-108168862D01*
X168372463Y-107671243D02*
X168689130Y-107671243D01*
X168824844Y-108168862D02*
X168372463Y-108168862D01*
X168372463Y-107218862D01*
X168824844Y-107218862D01*
X203207690Y-110253329D02*
X203931500Y-110524757D01*
X203207690Y-110796186D01*
X204248166Y-109936662D02*
X204791023Y-109936662D01*
X204519595Y-110886662D02*
X204519595Y-109936662D01*
X205107690Y-110886662D02*
X205107690Y-109936662D01*
X205469595Y-109936662D01*
X205560071Y-109981900D01*
X205605310Y-110027138D01*
X205650548Y-110117614D01*
X205650548Y-110253329D01*
X205605310Y-110343805D01*
X205560071Y-110389043D01*
X205469595Y-110434281D01*
X205107690Y-110434281D01*
X205831500Y-110977138D02*
X206555310Y-110977138D01*
X206736262Y-110841424D02*
X206871977Y-110886662D01*
X207098167Y-110886662D01*
X207188643Y-110841424D01*
X207233881Y-110796186D01*
X207279120Y-110705710D01*
X207279120Y-110615233D01*
X207233881Y-110524757D01*
X207188643Y-110479519D01*
X207098167Y-110434281D01*
X206917215Y-110389043D01*
X206826739Y-110343805D01*
X206781500Y-110298567D01*
X206736262Y-110208090D01*
X206736262Y-110117614D01*
X206781500Y-110027138D01*
X206826739Y-109981900D01*
X206917215Y-109936662D01*
X207143405Y-109936662D01*
X207279120Y-109981900D01*
X207686262Y-110886662D02*
X207686262Y-109936662D01*
X208636263Y-109981900D02*
X208545786Y-109936662D01*
X208410072Y-109936662D01*
X208274358Y-109981900D01*
X208183882Y-110072376D01*
X208138643Y-110162852D01*
X208093405Y-110343805D01*
X208093405Y-110479519D01*
X208138643Y-110660471D01*
X208183882Y-110750948D01*
X208274358Y-110841424D01*
X208410072Y-110886662D01*
X208500548Y-110886662D01*
X208636263Y-110841424D01*
X208681501Y-110796186D01*
X208681501Y-110479519D01*
X208500548Y-110479519D01*
X209088643Y-110886662D02*
X209088643Y-109936662D01*
X209631501Y-110886662D01*
X209631501Y-109936662D01*
X210038643Y-110615233D02*
X210491024Y-110615233D01*
X209948167Y-110886662D02*
X210264834Y-109936662D01*
X210581501Y-110886662D01*
X211350548Y-110886662D02*
X210898167Y-110886662D01*
X210898167Y-109936662D01*
X211441025Y-110977138D02*
X212164835Y-110977138D01*
X212391025Y-110886662D02*
X212391025Y-109936662D01*
X212933883Y-110886662D01*
X212933883Y-109936662D01*
X213341025Y-110615233D02*
X213793406Y-110615233D01*
X213250549Y-110886662D02*
X213567216Y-109936662D01*
X213883883Y-110886662D01*
X214200549Y-110886662D02*
X214200549Y-109936662D01*
X214517216Y-110615233D01*
X214833883Y-109936662D01*
X214833883Y-110886662D01*
X215286263Y-110389043D02*
X215602930Y-110389043D01*
X215738644Y-110886662D02*
X215286263Y-110886662D01*
X215286263Y-109936662D01*
X215738644Y-109936662D01*
X156319290Y-110304129D02*
X157043100Y-110575557D01*
X156319290Y-110846986D01*
X157359766Y-109987462D02*
X157902623Y-109987462D01*
X157631195Y-110937462D02*
X157631195Y-109987462D01*
X158219290Y-110937462D02*
X158219290Y-109987462D01*
X158581195Y-109987462D01*
X158671671Y-110032700D01*
X158716910Y-110077938D01*
X158762148Y-110168414D01*
X158762148Y-110304129D01*
X158716910Y-110394605D01*
X158671671Y-110439843D01*
X158581195Y-110485081D01*
X158219290Y-110485081D01*
X158943100Y-111027938D02*
X159666910Y-111027938D01*
X159847862Y-110892224D02*
X159983577Y-110937462D01*
X160209767Y-110937462D01*
X160300243Y-110892224D01*
X160345481Y-110846986D01*
X160390720Y-110756510D01*
X160390720Y-110666033D01*
X160345481Y-110575557D01*
X160300243Y-110530319D01*
X160209767Y-110485081D01*
X160028815Y-110439843D01*
X159938339Y-110394605D01*
X159893100Y-110349367D01*
X159847862Y-110258890D01*
X159847862Y-110168414D01*
X159893100Y-110077938D01*
X159938339Y-110032700D01*
X160028815Y-109987462D01*
X160255005Y-109987462D01*
X160390720Y-110032700D01*
X160797862Y-110937462D02*
X160797862Y-109987462D01*
X161747863Y-110032700D02*
X161657386Y-109987462D01*
X161521672Y-109987462D01*
X161385958Y-110032700D01*
X161295482Y-110123176D01*
X161250243Y-110213652D01*
X161205005Y-110394605D01*
X161205005Y-110530319D01*
X161250243Y-110711271D01*
X161295482Y-110801748D01*
X161385958Y-110892224D01*
X161521672Y-110937462D01*
X161612148Y-110937462D01*
X161747863Y-110892224D01*
X161793101Y-110846986D01*
X161793101Y-110530319D01*
X161612148Y-110530319D01*
X162200243Y-110937462D02*
X162200243Y-109987462D01*
X162743101Y-110937462D01*
X162743101Y-109987462D01*
X163150243Y-110666033D02*
X163602624Y-110666033D01*
X163059767Y-110937462D02*
X163376434Y-109987462D01*
X163693101Y-110937462D01*
X164462148Y-110937462D02*
X164009767Y-110937462D01*
X164009767Y-109987462D01*
X164552625Y-111027938D02*
X165276435Y-111027938D01*
X165502625Y-110937462D02*
X165502625Y-109987462D01*
X166045483Y-110937462D01*
X166045483Y-109987462D01*
X166452625Y-110666033D02*
X166905006Y-110666033D01*
X166362149Y-110937462D02*
X166678816Y-109987462D01*
X166995483Y-110937462D01*
X167312149Y-110937462D02*
X167312149Y-109987462D01*
X167628816Y-110666033D01*
X167945483Y-109987462D01*
X167945483Y-110937462D01*
X168397863Y-110439843D02*
X168714530Y-110439843D01*
X168850244Y-110937462D02*
X168397863Y-110937462D01*
X168397863Y-109987462D01*
X168850244Y-109987462D01*
X203233090Y-94124329D02*
X203956900Y-94395757D01*
X203233090Y-94667186D01*
X204273566Y-93807662D02*
X204816423Y-93807662D01*
X204544995Y-94757662D02*
X204544995Y-93807662D01*
X205133090Y-94757662D02*
X205133090Y-93807662D01*
X205494995Y-93807662D01*
X205585471Y-93852900D01*
X205630710Y-93898138D01*
X205675948Y-93988614D01*
X205675948Y-94124329D01*
X205630710Y-94214805D01*
X205585471Y-94260043D01*
X205494995Y-94305281D01*
X205133090Y-94305281D01*
X205856900Y-94848138D02*
X206580710Y-94848138D01*
X206761662Y-94712424D02*
X206897377Y-94757662D01*
X207123567Y-94757662D01*
X207214043Y-94712424D01*
X207259281Y-94667186D01*
X207304520Y-94576710D01*
X207304520Y-94486233D01*
X207259281Y-94395757D01*
X207214043Y-94350519D01*
X207123567Y-94305281D01*
X206942615Y-94260043D01*
X206852139Y-94214805D01*
X206806900Y-94169567D01*
X206761662Y-94079090D01*
X206761662Y-93988614D01*
X206806900Y-93898138D01*
X206852139Y-93852900D01*
X206942615Y-93807662D01*
X207168805Y-93807662D01*
X207304520Y-93852900D01*
X207711662Y-94757662D02*
X207711662Y-93807662D01*
X208661663Y-93852900D02*
X208571186Y-93807662D01*
X208435472Y-93807662D01*
X208299758Y-93852900D01*
X208209282Y-93943376D01*
X208164043Y-94033852D01*
X208118805Y-94214805D01*
X208118805Y-94350519D01*
X208164043Y-94531471D01*
X208209282Y-94621948D01*
X208299758Y-94712424D01*
X208435472Y-94757662D01*
X208525948Y-94757662D01*
X208661663Y-94712424D01*
X208706901Y-94667186D01*
X208706901Y-94350519D01*
X208525948Y-94350519D01*
X209114043Y-94757662D02*
X209114043Y-93807662D01*
X209656901Y-94757662D01*
X209656901Y-93807662D01*
X210064043Y-94486233D02*
X210516424Y-94486233D01*
X209973567Y-94757662D02*
X210290234Y-93807662D01*
X210606901Y-94757662D01*
X211375948Y-94757662D02*
X210923567Y-94757662D01*
X210923567Y-93807662D01*
X211466425Y-94848138D02*
X212190235Y-94848138D01*
X212416425Y-94757662D02*
X212416425Y-93807662D01*
X212959283Y-94757662D01*
X212959283Y-93807662D01*
X213366425Y-94486233D02*
X213818806Y-94486233D01*
X213275949Y-94757662D02*
X213592616Y-93807662D01*
X213909283Y-94757662D01*
X214225949Y-94757662D02*
X214225949Y-93807662D01*
X214542616Y-94486233D01*
X214859283Y-93807662D01*
X214859283Y-94757662D01*
X215311663Y-94260043D02*
X215628330Y-94260043D01*
X215764044Y-94757662D02*
X215311663Y-94757662D01*
X215311663Y-93807662D01*
X215764044Y-93807662D01*
X203283890Y-115841329D02*
X204007700Y-116112757D01*
X203283890Y-116384186D01*
X204324366Y-115524662D02*
X204867223Y-115524662D01*
X204595795Y-116474662D02*
X204595795Y-115524662D01*
X205183890Y-116474662D02*
X205183890Y-115524662D01*
X205545795Y-115524662D01*
X205636271Y-115569900D01*
X205681510Y-115615138D01*
X205726748Y-115705614D01*
X205726748Y-115841329D01*
X205681510Y-115931805D01*
X205636271Y-115977043D01*
X205545795Y-116022281D01*
X205183890Y-116022281D01*
X205907700Y-116565138D02*
X206631510Y-116565138D01*
X206812462Y-116429424D02*
X206948177Y-116474662D01*
X207174367Y-116474662D01*
X207264843Y-116429424D01*
X207310081Y-116384186D01*
X207355320Y-116293710D01*
X207355320Y-116203233D01*
X207310081Y-116112757D01*
X207264843Y-116067519D01*
X207174367Y-116022281D01*
X206993415Y-115977043D01*
X206902939Y-115931805D01*
X206857700Y-115886567D01*
X206812462Y-115796090D01*
X206812462Y-115705614D01*
X206857700Y-115615138D01*
X206902939Y-115569900D01*
X206993415Y-115524662D01*
X207219605Y-115524662D01*
X207355320Y-115569900D01*
X207762462Y-116474662D02*
X207762462Y-115524662D01*
X208712463Y-115569900D02*
X208621986Y-115524662D01*
X208486272Y-115524662D01*
X208350558Y-115569900D01*
X208260082Y-115660376D01*
X208214843Y-115750852D01*
X208169605Y-115931805D01*
X208169605Y-116067519D01*
X208214843Y-116248471D01*
X208260082Y-116338948D01*
X208350558Y-116429424D01*
X208486272Y-116474662D01*
X208576748Y-116474662D01*
X208712463Y-116429424D01*
X208757701Y-116384186D01*
X208757701Y-116067519D01*
X208576748Y-116067519D01*
X209164843Y-116474662D02*
X209164843Y-115524662D01*
X209707701Y-116474662D01*
X209707701Y-115524662D01*
X210114843Y-116203233D02*
X210567224Y-116203233D01*
X210024367Y-116474662D02*
X210341034Y-115524662D01*
X210657701Y-116474662D01*
X211426748Y-116474662D02*
X210974367Y-116474662D01*
X210974367Y-115524662D01*
X211517225Y-116565138D02*
X212241035Y-116565138D01*
X212467225Y-116474662D02*
X212467225Y-115524662D01*
X213010083Y-116474662D01*
X213010083Y-115524662D01*
X213417225Y-116203233D02*
X213869606Y-116203233D01*
X213326749Y-116474662D02*
X213643416Y-115524662D01*
X213960083Y-116474662D01*
X214276749Y-116474662D02*
X214276749Y-115524662D01*
X214593416Y-116203233D01*
X214910083Y-115524662D01*
X214910083Y-116474662D01*
X215362463Y-115977043D02*
X215679130Y-115977043D01*
X215814844Y-116474662D02*
X215362463Y-116474662D01*
X215362463Y-115524662D01*
X215814844Y-115524662D01*
X156243090Y-115739729D02*
X156966900Y-116011157D01*
X156243090Y-116282586D01*
X157283566Y-115423062D02*
X157826423Y-115423062D01*
X157554995Y-116373062D02*
X157554995Y-115423062D01*
X158143090Y-116373062D02*
X158143090Y-115423062D01*
X158504995Y-115423062D01*
X158595471Y-115468300D01*
X158640710Y-115513538D01*
X158685948Y-115604014D01*
X158685948Y-115739729D01*
X158640710Y-115830205D01*
X158595471Y-115875443D01*
X158504995Y-115920681D01*
X158143090Y-115920681D01*
X158866900Y-116463538D02*
X159590710Y-116463538D01*
X159771662Y-116327824D02*
X159907377Y-116373062D01*
X160133567Y-116373062D01*
X160224043Y-116327824D01*
X160269281Y-116282586D01*
X160314520Y-116192110D01*
X160314520Y-116101633D01*
X160269281Y-116011157D01*
X160224043Y-115965919D01*
X160133567Y-115920681D01*
X159952615Y-115875443D01*
X159862139Y-115830205D01*
X159816900Y-115784967D01*
X159771662Y-115694490D01*
X159771662Y-115604014D01*
X159816900Y-115513538D01*
X159862139Y-115468300D01*
X159952615Y-115423062D01*
X160178805Y-115423062D01*
X160314520Y-115468300D01*
X160721662Y-116373062D02*
X160721662Y-115423062D01*
X161671663Y-115468300D02*
X161581186Y-115423062D01*
X161445472Y-115423062D01*
X161309758Y-115468300D01*
X161219282Y-115558776D01*
X161174043Y-115649252D01*
X161128805Y-115830205D01*
X161128805Y-115965919D01*
X161174043Y-116146871D01*
X161219282Y-116237348D01*
X161309758Y-116327824D01*
X161445472Y-116373062D01*
X161535948Y-116373062D01*
X161671663Y-116327824D01*
X161716901Y-116282586D01*
X161716901Y-115965919D01*
X161535948Y-115965919D01*
X162124043Y-116373062D02*
X162124043Y-115423062D01*
X162666901Y-116373062D01*
X162666901Y-115423062D01*
X163074043Y-116101633D02*
X163526424Y-116101633D01*
X162983567Y-116373062D02*
X163300234Y-115423062D01*
X163616901Y-116373062D01*
X164385948Y-116373062D02*
X163933567Y-116373062D01*
X163933567Y-115423062D01*
X164476425Y-116463538D02*
X165200235Y-116463538D01*
X165426425Y-116373062D02*
X165426425Y-115423062D01*
X165969283Y-116373062D01*
X165969283Y-115423062D01*
X166376425Y-116101633D02*
X166828806Y-116101633D01*
X166285949Y-116373062D02*
X166602616Y-115423062D01*
X166919283Y-116373062D01*
X167235949Y-116373062D02*
X167235949Y-115423062D01*
X167552616Y-116101633D01*
X167869283Y-115423062D01*
X167869283Y-116373062D01*
X168321663Y-115875443D02*
X168638330Y-115875443D01*
X168774044Y-116373062D02*
X168321663Y-116373062D01*
X168321663Y-115423062D01*
X168774044Y-115423062D01*
X203207690Y-99636129D02*
X203931500Y-99907557D01*
X203207690Y-100178986D01*
X204248166Y-99319462D02*
X204791023Y-99319462D01*
X204519595Y-100269462D02*
X204519595Y-99319462D01*
X205107690Y-100269462D02*
X205107690Y-99319462D01*
X205469595Y-99319462D01*
X205560071Y-99364700D01*
X205605310Y-99409938D01*
X205650548Y-99500414D01*
X205650548Y-99636129D01*
X205605310Y-99726605D01*
X205560071Y-99771843D01*
X205469595Y-99817081D01*
X205107690Y-99817081D01*
X205831500Y-100359938D02*
X206555310Y-100359938D01*
X206736262Y-100224224D02*
X206871977Y-100269462D01*
X207098167Y-100269462D01*
X207188643Y-100224224D01*
X207233881Y-100178986D01*
X207279120Y-100088510D01*
X207279120Y-99998033D01*
X207233881Y-99907557D01*
X207188643Y-99862319D01*
X207098167Y-99817081D01*
X206917215Y-99771843D01*
X206826739Y-99726605D01*
X206781500Y-99681367D01*
X206736262Y-99590890D01*
X206736262Y-99500414D01*
X206781500Y-99409938D01*
X206826739Y-99364700D01*
X206917215Y-99319462D01*
X207143405Y-99319462D01*
X207279120Y-99364700D01*
X207686262Y-100269462D02*
X207686262Y-99319462D01*
X208636263Y-99364700D02*
X208545786Y-99319462D01*
X208410072Y-99319462D01*
X208274358Y-99364700D01*
X208183882Y-99455176D01*
X208138643Y-99545652D01*
X208093405Y-99726605D01*
X208093405Y-99862319D01*
X208138643Y-100043271D01*
X208183882Y-100133748D01*
X208274358Y-100224224D01*
X208410072Y-100269462D01*
X208500548Y-100269462D01*
X208636263Y-100224224D01*
X208681501Y-100178986D01*
X208681501Y-99862319D01*
X208500548Y-99862319D01*
X209088643Y-100269462D02*
X209088643Y-99319462D01*
X209631501Y-100269462D01*
X209631501Y-99319462D01*
X210038643Y-99998033D02*
X210491024Y-99998033D01*
X209948167Y-100269462D02*
X210264834Y-99319462D01*
X210581501Y-100269462D01*
X211350548Y-100269462D02*
X210898167Y-100269462D01*
X210898167Y-99319462D01*
X211441025Y-100359938D02*
X212164835Y-100359938D01*
X212391025Y-100269462D02*
X212391025Y-99319462D01*
X212933883Y-100269462D01*
X212933883Y-99319462D01*
X213341025Y-99998033D02*
X213793406Y-99998033D01*
X213250549Y-100269462D02*
X213567216Y-99319462D01*
X213883883Y-100269462D01*
X214200549Y-100269462D02*
X214200549Y-99319462D01*
X214517216Y-99998033D01*
X214833883Y-99319462D01*
X214833883Y-100269462D01*
X215286263Y-99771843D02*
X215602930Y-99771843D01*
X215738644Y-100269462D02*
X215286263Y-100269462D01*
X215286263Y-99319462D01*
X215738644Y-99319462D01*
X156192290Y-99636129D02*
X156916100Y-99907557D01*
X156192290Y-100178986D01*
X157232766Y-99319462D02*
X157775623Y-99319462D01*
X157504195Y-100269462D02*
X157504195Y-99319462D01*
X158092290Y-100269462D02*
X158092290Y-99319462D01*
X158454195Y-99319462D01*
X158544671Y-99364700D01*
X158589910Y-99409938D01*
X158635148Y-99500414D01*
X158635148Y-99636129D01*
X158589910Y-99726605D01*
X158544671Y-99771843D01*
X158454195Y-99817081D01*
X158092290Y-99817081D01*
X158816100Y-100359938D02*
X159539910Y-100359938D01*
X159720862Y-100224224D02*
X159856577Y-100269462D01*
X160082767Y-100269462D01*
X160173243Y-100224224D01*
X160218481Y-100178986D01*
X160263720Y-100088510D01*
X160263720Y-99998033D01*
X160218481Y-99907557D01*
X160173243Y-99862319D01*
X160082767Y-99817081D01*
X159901815Y-99771843D01*
X159811339Y-99726605D01*
X159766100Y-99681367D01*
X159720862Y-99590890D01*
X159720862Y-99500414D01*
X159766100Y-99409938D01*
X159811339Y-99364700D01*
X159901815Y-99319462D01*
X160128005Y-99319462D01*
X160263720Y-99364700D01*
X160670862Y-100269462D02*
X160670862Y-99319462D01*
X161620863Y-99364700D02*
X161530386Y-99319462D01*
X161394672Y-99319462D01*
X161258958Y-99364700D01*
X161168482Y-99455176D01*
X161123243Y-99545652D01*
X161078005Y-99726605D01*
X161078005Y-99862319D01*
X161123243Y-100043271D01*
X161168482Y-100133748D01*
X161258958Y-100224224D01*
X161394672Y-100269462D01*
X161485148Y-100269462D01*
X161620863Y-100224224D01*
X161666101Y-100178986D01*
X161666101Y-99862319D01*
X161485148Y-99862319D01*
X162073243Y-100269462D02*
X162073243Y-99319462D01*
X162616101Y-100269462D01*
X162616101Y-99319462D01*
X163023243Y-99998033D02*
X163475624Y-99998033D01*
X162932767Y-100269462D02*
X163249434Y-99319462D01*
X163566101Y-100269462D01*
X164335148Y-100269462D02*
X163882767Y-100269462D01*
X163882767Y-99319462D01*
X164425625Y-100359938D02*
X165149435Y-100359938D01*
X165375625Y-100269462D02*
X165375625Y-99319462D01*
X165918483Y-100269462D01*
X165918483Y-99319462D01*
X166325625Y-99998033D02*
X166778006Y-99998033D01*
X166235149Y-100269462D02*
X166551816Y-99319462D01*
X166868483Y-100269462D01*
X167185149Y-100269462D02*
X167185149Y-99319462D01*
X167501816Y-99998033D01*
X167818483Y-99319462D01*
X167818483Y-100269462D01*
X168270863Y-99771843D02*
X168587530Y-99771843D01*
X168723244Y-100269462D02*
X168270863Y-100269462D01*
X168270863Y-99319462D01*
X168723244Y-99319462D01*
X190341290Y-95652329D02*
X191065100Y-95923757D01*
X190341290Y-96195186D01*
X191381766Y-95335662D02*
X191924623Y-95335662D01*
X191653195Y-96285662D02*
X191653195Y-95335662D01*
X192241290Y-96285662D02*
X192241290Y-95335662D01*
X192603195Y-95335662D01*
X192693671Y-95380900D01*
X192738910Y-95426138D01*
X192784148Y-95516614D01*
X192784148Y-95652329D01*
X192738910Y-95742805D01*
X192693671Y-95788043D01*
X192603195Y-95833281D01*
X192241290Y-95833281D01*
X192965100Y-96376138D02*
X193688910Y-96376138D01*
X193869862Y-96240424D02*
X194005577Y-96285662D01*
X194231767Y-96285662D01*
X194322243Y-96240424D01*
X194367481Y-96195186D01*
X194412720Y-96104710D01*
X194412720Y-96014233D01*
X194367481Y-95923757D01*
X194322243Y-95878519D01*
X194231767Y-95833281D01*
X194050815Y-95788043D01*
X193960339Y-95742805D01*
X193915100Y-95697567D01*
X193869862Y-95607090D01*
X193869862Y-95516614D01*
X193915100Y-95426138D01*
X193960339Y-95380900D01*
X194050815Y-95335662D01*
X194277005Y-95335662D01*
X194412720Y-95380900D01*
X194819862Y-96285662D02*
X194819862Y-95335662D01*
X195769863Y-95380900D02*
X195679386Y-95335662D01*
X195543672Y-95335662D01*
X195407958Y-95380900D01*
X195317482Y-95471376D01*
X195272243Y-95561852D01*
X195227005Y-95742805D01*
X195227005Y-95878519D01*
X195272243Y-96059471D01*
X195317482Y-96149948D01*
X195407958Y-96240424D01*
X195543672Y-96285662D01*
X195634148Y-96285662D01*
X195769863Y-96240424D01*
X195815101Y-96195186D01*
X195815101Y-95878519D01*
X195634148Y-95878519D01*
X196222243Y-96285662D02*
X196222243Y-95335662D01*
X196765101Y-96285662D01*
X196765101Y-95335662D01*
X197172243Y-96014233D02*
X197624624Y-96014233D01*
X197081767Y-96285662D02*
X197398434Y-95335662D01*
X197715101Y-96285662D01*
X198484148Y-96285662D02*
X198031767Y-96285662D01*
X198031767Y-95335662D01*
X198574625Y-96376138D02*
X199298435Y-96376138D01*
X199524625Y-96285662D02*
X199524625Y-95335662D01*
X200067483Y-96285662D01*
X200067483Y-95335662D01*
X200474625Y-96014233D02*
X200927006Y-96014233D01*
X200384149Y-96285662D02*
X200700816Y-95335662D01*
X201017483Y-96285662D01*
X201334149Y-96285662D02*
X201334149Y-95335662D01*
X201650816Y-96014233D01*
X201967483Y-95335662D01*
X201967483Y-96285662D01*
X202419863Y-95788043D02*
X202736530Y-95788043D01*
X202872244Y-96285662D02*
X202419863Y-96285662D01*
X202419863Y-95335662D01*
X202872244Y-95335662D01*
X166332290Y-119687329D02*
X167056100Y-119958757D01*
X166332290Y-120230186D01*
X167372766Y-119370662D02*
X167915623Y-119370662D01*
X167644195Y-120320662D02*
X167644195Y-119370662D01*
X168232290Y-120320662D02*
X168232290Y-119370662D01*
X168594195Y-119370662D01*
X168684671Y-119415900D01*
X168729910Y-119461138D01*
X168775148Y-119551614D01*
X168775148Y-119687329D01*
X168729910Y-119777805D01*
X168684671Y-119823043D01*
X168594195Y-119868281D01*
X168232290Y-119868281D01*
X168956100Y-120411138D02*
X169679910Y-120411138D01*
X169860862Y-120275424D02*
X169996577Y-120320662D01*
X170222767Y-120320662D01*
X170313243Y-120275424D01*
X170358481Y-120230186D01*
X170403720Y-120139710D01*
X170403720Y-120049233D01*
X170358481Y-119958757D01*
X170313243Y-119913519D01*
X170222767Y-119868281D01*
X170041815Y-119823043D01*
X169951339Y-119777805D01*
X169906100Y-119732567D01*
X169860862Y-119642090D01*
X169860862Y-119551614D01*
X169906100Y-119461138D01*
X169951339Y-119415900D01*
X170041815Y-119370662D01*
X170268005Y-119370662D01*
X170403720Y-119415900D01*
X170810862Y-120320662D02*
X170810862Y-119370662D01*
X171760863Y-119415900D02*
X171670386Y-119370662D01*
X171534672Y-119370662D01*
X171398958Y-119415900D01*
X171308482Y-119506376D01*
X171263243Y-119596852D01*
X171218005Y-119777805D01*
X171218005Y-119913519D01*
X171263243Y-120094471D01*
X171308482Y-120184948D01*
X171398958Y-120275424D01*
X171534672Y-120320662D01*
X171625148Y-120320662D01*
X171760863Y-120275424D01*
X171806101Y-120230186D01*
X171806101Y-119913519D01*
X171625148Y-119913519D01*
X172213243Y-120320662D02*
X172213243Y-119370662D01*
X172756101Y-120320662D01*
X172756101Y-119370662D01*
X173163243Y-120049233D02*
X173615624Y-120049233D01*
X173072767Y-120320662D02*
X173389434Y-119370662D01*
X173706101Y-120320662D01*
X174475148Y-120320662D02*
X174022767Y-120320662D01*
X174022767Y-119370662D01*
X174565625Y-120411138D02*
X175289435Y-120411138D01*
X175515625Y-120320662D02*
X175515625Y-119370662D01*
X176058483Y-120320662D01*
X176058483Y-119370662D01*
X176465625Y-120049233D02*
X176918006Y-120049233D01*
X176375149Y-120320662D02*
X176691816Y-119370662D01*
X177008483Y-120320662D01*
X177325149Y-120320662D02*
X177325149Y-119370662D01*
X177641816Y-120049233D01*
X177958483Y-119370662D01*
X177958483Y-120320662D01*
X178410863Y-119823043D02*
X178727530Y-119823043D01*
X178863244Y-120320662D02*
X178410863Y-120320662D01*
X178410863Y-119370662D01*
X178863244Y-119370662D01*
X205265090Y-86580529D02*
X205988900Y-86851957D01*
X205265090Y-87123386D01*
X206305566Y-86263862D02*
X206848423Y-86263862D01*
X206576995Y-87213862D02*
X206576995Y-86263862D01*
X207165090Y-87213862D02*
X207165090Y-86263862D01*
X207526995Y-86263862D01*
X207617471Y-86309100D01*
X207662710Y-86354338D01*
X207707948Y-86444814D01*
X207707948Y-86580529D01*
X207662710Y-86671005D01*
X207617471Y-86716243D01*
X207526995Y-86761481D01*
X207165090Y-86761481D01*
X207888900Y-87304338D02*
X208612710Y-87304338D01*
X208793662Y-87168624D02*
X208929377Y-87213862D01*
X209155567Y-87213862D01*
X209246043Y-87168624D01*
X209291281Y-87123386D01*
X209336520Y-87032910D01*
X209336520Y-86942433D01*
X209291281Y-86851957D01*
X209246043Y-86806719D01*
X209155567Y-86761481D01*
X208974615Y-86716243D01*
X208884139Y-86671005D01*
X208838900Y-86625767D01*
X208793662Y-86535290D01*
X208793662Y-86444814D01*
X208838900Y-86354338D01*
X208884139Y-86309100D01*
X208974615Y-86263862D01*
X209200805Y-86263862D01*
X209336520Y-86309100D01*
X209743662Y-87213862D02*
X209743662Y-86263862D01*
X210693663Y-86309100D02*
X210603186Y-86263862D01*
X210467472Y-86263862D01*
X210331758Y-86309100D01*
X210241282Y-86399576D01*
X210196043Y-86490052D01*
X210150805Y-86671005D01*
X210150805Y-86806719D01*
X210196043Y-86987671D01*
X210241282Y-87078148D01*
X210331758Y-87168624D01*
X210467472Y-87213862D01*
X210557948Y-87213862D01*
X210693663Y-87168624D01*
X210738901Y-87123386D01*
X210738901Y-86806719D01*
X210557948Y-86806719D01*
X211146043Y-87213862D02*
X211146043Y-86263862D01*
X211688901Y-87213862D01*
X211688901Y-86263862D01*
X212096043Y-86942433D02*
X212548424Y-86942433D01*
X212005567Y-87213862D02*
X212322234Y-86263862D01*
X212638901Y-87213862D01*
X213407948Y-87213862D02*
X212955567Y-87213862D01*
X212955567Y-86263862D01*
X213498425Y-87304338D02*
X214222235Y-87304338D01*
X214448425Y-87213862D02*
X214448425Y-86263862D01*
X214991283Y-87213862D01*
X214991283Y-86263862D01*
X215398425Y-86942433D02*
X215850806Y-86942433D01*
X215307949Y-87213862D02*
X215624616Y-86263862D01*
X215941283Y-87213862D01*
X216257949Y-87213862D02*
X216257949Y-86263862D01*
X216574616Y-86942433D01*
X216891283Y-86263862D01*
X216891283Y-87213862D01*
X217343663Y-86716243D02*
X217660330Y-86716243D01*
X217796044Y-87213862D02*
X217343663Y-87213862D01*
X217343663Y-86263862D01*
X217796044Y-86263862D01*
X170427290Y-115809329D02*
X171151100Y-116080757D01*
X170427290Y-116352186D01*
X171467766Y-115492662D02*
X172010623Y-115492662D01*
X171739195Y-116442662D02*
X171739195Y-115492662D01*
X172327290Y-116442662D02*
X172327290Y-115492662D01*
X172689195Y-115492662D01*
X172779671Y-115537900D01*
X172824910Y-115583138D01*
X172870148Y-115673614D01*
X172870148Y-115809329D01*
X172824910Y-115899805D01*
X172779671Y-115945043D01*
X172689195Y-115990281D01*
X172327290Y-115990281D01*
X173051100Y-116533138D02*
X173774910Y-116533138D01*
X173955862Y-116397424D02*
X174091577Y-116442662D01*
X174317767Y-116442662D01*
X174408243Y-116397424D01*
X174453481Y-116352186D01*
X174498720Y-116261710D01*
X174498720Y-116171233D01*
X174453481Y-116080757D01*
X174408243Y-116035519D01*
X174317767Y-115990281D01*
X174136815Y-115945043D01*
X174046339Y-115899805D01*
X174001100Y-115854567D01*
X173955862Y-115764090D01*
X173955862Y-115673614D01*
X174001100Y-115583138D01*
X174046339Y-115537900D01*
X174136815Y-115492662D01*
X174363005Y-115492662D01*
X174498720Y-115537900D01*
X174905862Y-116442662D02*
X174905862Y-115492662D01*
X175855863Y-115537900D02*
X175765386Y-115492662D01*
X175629672Y-115492662D01*
X175493958Y-115537900D01*
X175403482Y-115628376D01*
X175358243Y-115718852D01*
X175313005Y-115899805D01*
X175313005Y-116035519D01*
X175358243Y-116216471D01*
X175403482Y-116306948D01*
X175493958Y-116397424D01*
X175629672Y-116442662D01*
X175720148Y-116442662D01*
X175855863Y-116397424D01*
X175901101Y-116352186D01*
X175901101Y-116035519D01*
X175720148Y-116035519D01*
X176308243Y-116442662D02*
X176308243Y-115492662D01*
X176851101Y-116442662D01*
X176851101Y-115492662D01*
X177258243Y-116171233D02*
X177710624Y-116171233D01*
X177167767Y-116442662D02*
X177484434Y-115492662D01*
X177801101Y-116442662D01*
X178570148Y-116442662D02*
X178117767Y-116442662D01*
X178117767Y-115492662D01*
X178660625Y-116533138D02*
X179384435Y-116533138D01*
X179610625Y-116442662D02*
X179610625Y-115492662D01*
X180153483Y-116442662D01*
X180153483Y-115492662D01*
X180560625Y-116171233D02*
X181013006Y-116171233D01*
X180470149Y-116442662D02*
X180786816Y-115492662D01*
X181103483Y-116442662D01*
X181420149Y-116442662D02*
X181420149Y-115492662D01*
X181736816Y-116171233D01*
X182053483Y-115492662D01*
X182053483Y-116442662D01*
X182505863Y-115945043D02*
X182822530Y-115945043D01*
X182958244Y-116442662D02*
X182505863Y-116442662D01*
X182505863Y-115492662D01*
X182958244Y-115492662D01*
X186458290Y-99841329D02*
X187182100Y-100112757D01*
X186458290Y-100384186D01*
X187498766Y-99524662D02*
X188041623Y-99524662D01*
X187770195Y-100474662D02*
X187770195Y-99524662D01*
X188358290Y-100474662D02*
X188358290Y-99524662D01*
X188720195Y-99524662D01*
X188810671Y-99569900D01*
X188855910Y-99615138D01*
X188901148Y-99705614D01*
X188901148Y-99841329D01*
X188855910Y-99931805D01*
X188810671Y-99977043D01*
X188720195Y-100022281D01*
X188358290Y-100022281D01*
X189082100Y-100565138D02*
X189805910Y-100565138D01*
X189986862Y-100429424D02*
X190122577Y-100474662D01*
X190348767Y-100474662D01*
X190439243Y-100429424D01*
X190484481Y-100384186D01*
X190529720Y-100293710D01*
X190529720Y-100203233D01*
X190484481Y-100112757D01*
X190439243Y-100067519D01*
X190348767Y-100022281D01*
X190167815Y-99977043D01*
X190077339Y-99931805D01*
X190032100Y-99886567D01*
X189986862Y-99796090D01*
X189986862Y-99705614D01*
X190032100Y-99615138D01*
X190077339Y-99569900D01*
X190167815Y-99524662D01*
X190394005Y-99524662D01*
X190529720Y-99569900D01*
X190936862Y-100474662D02*
X190936862Y-99524662D01*
X191886863Y-99569900D02*
X191796386Y-99524662D01*
X191660672Y-99524662D01*
X191524958Y-99569900D01*
X191434482Y-99660376D01*
X191389243Y-99750852D01*
X191344005Y-99931805D01*
X191344005Y-100067519D01*
X191389243Y-100248471D01*
X191434482Y-100338948D01*
X191524958Y-100429424D01*
X191660672Y-100474662D01*
X191751148Y-100474662D01*
X191886863Y-100429424D01*
X191932101Y-100384186D01*
X191932101Y-100067519D01*
X191751148Y-100067519D01*
X192339243Y-100474662D02*
X192339243Y-99524662D01*
X192882101Y-100474662D01*
X192882101Y-99524662D01*
X193289243Y-100203233D02*
X193741624Y-100203233D01*
X193198767Y-100474662D02*
X193515434Y-99524662D01*
X193832101Y-100474662D01*
X194601148Y-100474662D02*
X194148767Y-100474662D01*
X194148767Y-99524662D01*
X194691625Y-100565138D02*
X195415435Y-100565138D01*
X195641625Y-100474662D02*
X195641625Y-99524662D01*
X196184483Y-100474662D01*
X196184483Y-99524662D01*
X196591625Y-100203233D02*
X197044006Y-100203233D01*
X196501149Y-100474662D02*
X196817816Y-99524662D01*
X197134483Y-100474662D01*
X197451149Y-100474662D02*
X197451149Y-99524662D01*
X197767816Y-100203233D01*
X198084483Y-99524662D01*
X198084483Y-100474662D01*
X198536863Y-99977043D02*
X198853530Y-99977043D01*
X198989244Y-100474662D02*
X198536863Y-100474662D01*
X198536863Y-99524662D01*
X198989244Y-99524662D01*
X198349290Y-87651329D02*
X199073100Y-87922757D01*
X198349290Y-88194186D01*
X199389766Y-87334662D02*
X199932623Y-87334662D01*
X199661195Y-88284662D02*
X199661195Y-87334662D01*
X200249290Y-88284662D02*
X200249290Y-87334662D01*
X200611195Y-87334662D01*
X200701671Y-87379900D01*
X200746910Y-87425138D01*
X200792148Y-87515614D01*
X200792148Y-87651329D01*
X200746910Y-87741805D01*
X200701671Y-87787043D01*
X200611195Y-87832281D01*
X200249290Y-87832281D01*
X200973100Y-88375138D02*
X201696910Y-88375138D01*
X201877862Y-88239424D02*
X202013577Y-88284662D01*
X202239767Y-88284662D01*
X202330243Y-88239424D01*
X202375481Y-88194186D01*
X202420720Y-88103710D01*
X202420720Y-88013233D01*
X202375481Y-87922757D01*
X202330243Y-87877519D01*
X202239767Y-87832281D01*
X202058815Y-87787043D01*
X201968339Y-87741805D01*
X201923100Y-87696567D01*
X201877862Y-87606090D01*
X201877862Y-87515614D01*
X201923100Y-87425138D01*
X201968339Y-87379900D01*
X202058815Y-87334662D01*
X202285005Y-87334662D01*
X202420720Y-87379900D01*
X202827862Y-88284662D02*
X202827862Y-87334662D01*
X203777863Y-87379900D02*
X203687386Y-87334662D01*
X203551672Y-87334662D01*
X203415958Y-87379900D01*
X203325482Y-87470376D01*
X203280243Y-87560852D01*
X203235005Y-87741805D01*
X203235005Y-87877519D01*
X203280243Y-88058471D01*
X203325482Y-88148948D01*
X203415958Y-88239424D01*
X203551672Y-88284662D01*
X203642148Y-88284662D01*
X203777863Y-88239424D01*
X203823101Y-88194186D01*
X203823101Y-87877519D01*
X203642148Y-87877519D01*
X204230243Y-88284662D02*
X204230243Y-87334662D01*
X204773101Y-88284662D01*
X204773101Y-87334662D01*
X205180243Y-88013233D02*
X205632624Y-88013233D01*
X205089767Y-88284662D02*
X205406434Y-87334662D01*
X205723101Y-88284662D01*
X206492148Y-88284662D02*
X206039767Y-88284662D01*
X206039767Y-87334662D01*
X206582625Y-88375138D02*
X207306435Y-88375138D01*
X207532625Y-88284662D02*
X207532625Y-87334662D01*
X208075483Y-88284662D01*
X208075483Y-87334662D01*
X208482625Y-88013233D02*
X208935006Y-88013233D01*
X208392149Y-88284662D02*
X208708816Y-87334662D01*
X209025483Y-88284662D01*
X209342149Y-88284662D02*
X209342149Y-87334662D01*
X209658816Y-88013233D01*
X209975483Y-87334662D01*
X209975483Y-88284662D01*
X210427863Y-87787043D02*
X210744530Y-87787043D01*
X210880244Y-88284662D02*
X210427863Y-88284662D01*
X210427863Y-87334662D01*
X210880244Y-87334662D01*
X158382290Y-127646329D02*
X159106100Y-127917757D01*
X158382290Y-128189186D01*
X159422766Y-127329662D02*
X159965623Y-127329662D01*
X159694195Y-128279662D02*
X159694195Y-127329662D01*
X160282290Y-128279662D02*
X160282290Y-127329662D01*
X160644195Y-127329662D01*
X160734671Y-127374900D01*
X160779910Y-127420138D01*
X160825148Y-127510614D01*
X160825148Y-127646329D01*
X160779910Y-127736805D01*
X160734671Y-127782043D01*
X160644195Y-127827281D01*
X160282290Y-127827281D01*
X161006100Y-128370138D02*
X161729910Y-128370138D01*
X161910862Y-128234424D02*
X162046577Y-128279662D01*
X162272767Y-128279662D01*
X162363243Y-128234424D01*
X162408481Y-128189186D01*
X162453720Y-128098710D01*
X162453720Y-128008233D01*
X162408481Y-127917757D01*
X162363243Y-127872519D01*
X162272767Y-127827281D01*
X162091815Y-127782043D01*
X162001339Y-127736805D01*
X161956100Y-127691567D01*
X161910862Y-127601090D01*
X161910862Y-127510614D01*
X161956100Y-127420138D01*
X162001339Y-127374900D01*
X162091815Y-127329662D01*
X162318005Y-127329662D01*
X162453720Y-127374900D01*
X162860862Y-128279662D02*
X162860862Y-127329662D01*
X163810863Y-127374900D02*
X163720386Y-127329662D01*
X163584672Y-127329662D01*
X163448958Y-127374900D01*
X163358482Y-127465376D01*
X163313243Y-127555852D01*
X163268005Y-127736805D01*
X163268005Y-127872519D01*
X163313243Y-128053471D01*
X163358482Y-128143948D01*
X163448958Y-128234424D01*
X163584672Y-128279662D01*
X163675148Y-128279662D01*
X163810863Y-128234424D01*
X163856101Y-128189186D01*
X163856101Y-127872519D01*
X163675148Y-127872519D01*
X164263243Y-128279662D02*
X164263243Y-127329662D01*
X164806101Y-128279662D01*
X164806101Y-127329662D01*
X165213243Y-128008233D02*
X165665624Y-128008233D01*
X165122767Y-128279662D02*
X165439434Y-127329662D01*
X165756101Y-128279662D01*
X166525148Y-128279662D02*
X166072767Y-128279662D01*
X166072767Y-127329662D01*
X166615625Y-128370138D02*
X167339435Y-128370138D01*
X167565625Y-128279662D02*
X167565625Y-127329662D01*
X168108483Y-128279662D01*
X168108483Y-127329662D01*
X168515625Y-128008233D02*
X168968006Y-128008233D01*
X168425149Y-128279662D02*
X168741816Y-127329662D01*
X169058483Y-128279662D01*
X169375149Y-128279662D02*
X169375149Y-127329662D01*
X169691816Y-128008233D01*
X170008483Y-127329662D01*
X170008483Y-128279662D01*
X170460863Y-127782043D02*
X170777530Y-127782043D01*
X170913244Y-128279662D02*
X170460863Y-128279662D01*
X170460863Y-127329662D01*
X170913244Y-127329662D01*
X205341290Y-129201729D02*
X206065100Y-129473157D01*
X205341290Y-129744586D01*
X206381766Y-128885062D02*
X206924623Y-128885062D01*
X206653195Y-129835062D02*
X206653195Y-128885062D01*
X207241290Y-129835062D02*
X207241290Y-128885062D01*
X207603195Y-128885062D01*
X207693671Y-128930300D01*
X207738910Y-128975538D01*
X207784148Y-129066014D01*
X207784148Y-129201729D01*
X207738910Y-129292205D01*
X207693671Y-129337443D01*
X207603195Y-129382681D01*
X207241290Y-129382681D01*
X207965100Y-129925538D02*
X208688910Y-129925538D01*
X208869862Y-129789824D02*
X209005577Y-129835062D01*
X209231767Y-129835062D01*
X209322243Y-129789824D01*
X209367481Y-129744586D01*
X209412720Y-129654110D01*
X209412720Y-129563633D01*
X209367481Y-129473157D01*
X209322243Y-129427919D01*
X209231767Y-129382681D01*
X209050815Y-129337443D01*
X208960339Y-129292205D01*
X208915100Y-129246967D01*
X208869862Y-129156490D01*
X208869862Y-129066014D01*
X208915100Y-128975538D01*
X208960339Y-128930300D01*
X209050815Y-128885062D01*
X209277005Y-128885062D01*
X209412720Y-128930300D01*
X209819862Y-129835062D02*
X209819862Y-128885062D01*
X210769863Y-128930300D02*
X210679386Y-128885062D01*
X210543672Y-128885062D01*
X210407958Y-128930300D01*
X210317482Y-129020776D01*
X210272243Y-129111252D01*
X210227005Y-129292205D01*
X210227005Y-129427919D01*
X210272243Y-129608871D01*
X210317482Y-129699348D01*
X210407958Y-129789824D01*
X210543672Y-129835062D01*
X210634148Y-129835062D01*
X210769863Y-129789824D01*
X210815101Y-129744586D01*
X210815101Y-129427919D01*
X210634148Y-129427919D01*
X211222243Y-129835062D02*
X211222243Y-128885062D01*
X211765101Y-129835062D01*
X211765101Y-128885062D01*
X212172243Y-129563633D02*
X212624624Y-129563633D01*
X212081767Y-129835062D02*
X212398434Y-128885062D01*
X212715101Y-129835062D01*
X213484148Y-129835062D02*
X213031767Y-129835062D01*
X213031767Y-128885062D01*
X213574625Y-129925538D02*
X214298435Y-129925538D01*
X214524625Y-129835062D02*
X214524625Y-128885062D01*
X215067483Y-129835062D01*
X215067483Y-128885062D01*
X215474625Y-129563633D02*
X215927006Y-129563633D01*
X215384149Y-129835062D02*
X215700816Y-128885062D01*
X216017483Y-129835062D01*
X216334149Y-129835062D02*
X216334149Y-128885062D01*
X216650816Y-129563633D01*
X216967483Y-128885062D01*
X216967483Y-129835062D01*
X217419863Y-129337443D02*
X217736530Y-129337443D01*
X217872244Y-129835062D02*
X217419863Y-129835062D01*
X217419863Y-128885062D01*
X217872244Y-128885062D01*
X194336290Y-91895329D02*
X195060100Y-92166757D01*
X194336290Y-92438186D01*
X195376766Y-91578662D02*
X195919623Y-91578662D01*
X195648195Y-92528662D02*
X195648195Y-91578662D01*
X196236290Y-92528662D02*
X196236290Y-91578662D01*
X196598195Y-91578662D01*
X196688671Y-91623900D01*
X196733910Y-91669138D01*
X196779148Y-91759614D01*
X196779148Y-91895329D01*
X196733910Y-91985805D01*
X196688671Y-92031043D01*
X196598195Y-92076281D01*
X196236290Y-92076281D01*
X196960100Y-92619138D02*
X197683910Y-92619138D01*
X197864862Y-92483424D02*
X198000577Y-92528662D01*
X198226767Y-92528662D01*
X198317243Y-92483424D01*
X198362481Y-92438186D01*
X198407720Y-92347710D01*
X198407720Y-92257233D01*
X198362481Y-92166757D01*
X198317243Y-92121519D01*
X198226767Y-92076281D01*
X198045815Y-92031043D01*
X197955339Y-91985805D01*
X197910100Y-91940567D01*
X197864862Y-91850090D01*
X197864862Y-91759614D01*
X197910100Y-91669138D01*
X197955339Y-91623900D01*
X198045815Y-91578662D01*
X198272005Y-91578662D01*
X198407720Y-91623900D01*
X198814862Y-92528662D02*
X198814862Y-91578662D01*
X199764863Y-91623900D02*
X199674386Y-91578662D01*
X199538672Y-91578662D01*
X199402958Y-91623900D01*
X199312482Y-91714376D01*
X199267243Y-91804852D01*
X199222005Y-91985805D01*
X199222005Y-92121519D01*
X199267243Y-92302471D01*
X199312482Y-92392948D01*
X199402958Y-92483424D01*
X199538672Y-92528662D01*
X199629148Y-92528662D01*
X199764863Y-92483424D01*
X199810101Y-92438186D01*
X199810101Y-92121519D01*
X199629148Y-92121519D01*
X200217243Y-92528662D02*
X200217243Y-91578662D01*
X200760101Y-92528662D01*
X200760101Y-91578662D01*
X201167243Y-92257233D02*
X201619624Y-92257233D01*
X201076767Y-92528662D02*
X201393434Y-91578662D01*
X201710101Y-92528662D01*
X202479148Y-92528662D02*
X202026767Y-92528662D01*
X202026767Y-91578662D01*
X202569625Y-92619138D02*
X203293435Y-92619138D01*
X203519625Y-92528662D02*
X203519625Y-91578662D01*
X204062483Y-92528662D01*
X204062483Y-91578662D01*
X204469625Y-92257233D02*
X204922006Y-92257233D01*
X204379149Y-92528662D02*
X204695816Y-91578662D01*
X205012483Y-92528662D01*
X205329149Y-92528662D02*
X205329149Y-91578662D01*
X205645816Y-92257233D01*
X205962483Y-91578662D01*
X205962483Y-92528662D01*
X206414863Y-92031043D02*
X206731530Y-92031043D01*
X206867244Y-92528662D02*
X206414863Y-92528662D01*
X206414863Y-91578662D01*
X206867244Y-91578662D01*
X162445290Y-123845329D02*
X163169100Y-124116757D01*
X162445290Y-124388186D01*
X163485766Y-123528662D02*
X164028623Y-123528662D01*
X163757195Y-124478662D02*
X163757195Y-123528662D01*
X164345290Y-124478662D02*
X164345290Y-123528662D01*
X164707195Y-123528662D01*
X164797671Y-123573900D01*
X164842910Y-123619138D01*
X164888148Y-123709614D01*
X164888148Y-123845329D01*
X164842910Y-123935805D01*
X164797671Y-123981043D01*
X164707195Y-124026281D01*
X164345290Y-124026281D01*
X165069100Y-124569138D02*
X165792910Y-124569138D01*
X165973862Y-124433424D02*
X166109577Y-124478662D01*
X166335767Y-124478662D01*
X166426243Y-124433424D01*
X166471481Y-124388186D01*
X166516720Y-124297710D01*
X166516720Y-124207233D01*
X166471481Y-124116757D01*
X166426243Y-124071519D01*
X166335767Y-124026281D01*
X166154815Y-123981043D01*
X166064339Y-123935805D01*
X166019100Y-123890567D01*
X165973862Y-123800090D01*
X165973862Y-123709614D01*
X166019100Y-123619138D01*
X166064339Y-123573900D01*
X166154815Y-123528662D01*
X166381005Y-123528662D01*
X166516720Y-123573900D01*
X166923862Y-124478662D02*
X166923862Y-123528662D01*
X167873863Y-123573900D02*
X167783386Y-123528662D01*
X167647672Y-123528662D01*
X167511958Y-123573900D01*
X167421482Y-123664376D01*
X167376243Y-123754852D01*
X167331005Y-123935805D01*
X167331005Y-124071519D01*
X167376243Y-124252471D01*
X167421482Y-124342948D01*
X167511958Y-124433424D01*
X167647672Y-124478662D01*
X167738148Y-124478662D01*
X167873863Y-124433424D01*
X167919101Y-124388186D01*
X167919101Y-124071519D01*
X167738148Y-124071519D01*
X168326243Y-124478662D02*
X168326243Y-123528662D01*
X168869101Y-124478662D01*
X168869101Y-123528662D01*
X169276243Y-124207233D02*
X169728624Y-124207233D01*
X169185767Y-124478662D02*
X169502434Y-123528662D01*
X169819101Y-124478662D01*
X170588148Y-124478662D02*
X170135767Y-124478662D01*
X170135767Y-123528662D01*
X170678625Y-124569138D02*
X171402435Y-124569138D01*
X171628625Y-124478662D02*
X171628625Y-123528662D01*
X172171483Y-124478662D01*
X172171483Y-123528662D01*
X172578625Y-124207233D02*
X173031006Y-124207233D01*
X172488149Y-124478662D02*
X172804816Y-123528662D01*
X173121483Y-124478662D01*
X173438149Y-124478662D02*
X173438149Y-123528662D01*
X173754816Y-124207233D01*
X174071483Y-123528662D01*
X174071483Y-124478662D01*
X174523863Y-123981043D02*
X174840530Y-123981043D01*
X174976244Y-124478662D02*
X174523863Y-124478662D01*
X174523863Y-123528662D01*
X174976244Y-123528662D01*
X205392090Y-126102929D02*
X206115900Y-126374357D01*
X205392090Y-126645786D01*
X206432566Y-125786262D02*
X206975423Y-125786262D01*
X206703995Y-126736262D02*
X206703995Y-125786262D01*
X207292090Y-126736262D02*
X207292090Y-125786262D01*
X207653995Y-125786262D01*
X207744471Y-125831500D01*
X207789710Y-125876738D01*
X207834948Y-125967214D01*
X207834948Y-126102929D01*
X207789710Y-126193405D01*
X207744471Y-126238643D01*
X207653995Y-126283881D01*
X207292090Y-126283881D01*
X208015900Y-126826738D02*
X208739710Y-126826738D01*
X208920662Y-126691024D02*
X209056377Y-126736262D01*
X209282567Y-126736262D01*
X209373043Y-126691024D01*
X209418281Y-126645786D01*
X209463520Y-126555310D01*
X209463520Y-126464833D01*
X209418281Y-126374357D01*
X209373043Y-126329119D01*
X209282567Y-126283881D01*
X209101615Y-126238643D01*
X209011139Y-126193405D01*
X208965900Y-126148167D01*
X208920662Y-126057690D01*
X208920662Y-125967214D01*
X208965900Y-125876738D01*
X209011139Y-125831500D01*
X209101615Y-125786262D01*
X209327805Y-125786262D01*
X209463520Y-125831500D01*
X209870662Y-126736262D02*
X209870662Y-125786262D01*
X210820663Y-125831500D02*
X210730186Y-125786262D01*
X210594472Y-125786262D01*
X210458758Y-125831500D01*
X210368282Y-125921976D01*
X210323043Y-126012452D01*
X210277805Y-126193405D01*
X210277805Y-126329119D01*
X210323043Y-126510071D01*
X210368282Y-126600548D01*
X210458758Y-126691024D01*
X210594472Y-126736262D01*
X210684948Y-126736262D01*
X210820663Y-126691024D01*
X210865901Y-126645786D01*
X210865901Y-126329119D01*
X210684948Y-126329119D01*
X211273043Y-126736262D02*
X211273043Y-125786262D01*
X211815901Y-126736262D01*
X211815901Y-125786262D01*
X212223043Y-126464833D02*
X212675424Y-126464833D01*
X212132567Y-126736262D02*
X212449234Y-125786262D01*
X212765901Y-126736262D01*
X213534948Y-126736262D02*
X213082567Y-126736262D01*
X213082567Y-125786262D01*
X213625425Y-126826738D02*
X214349235Y-126826738D01*
X214575425Y-126736262D02*
X214575425Y-125786262D01*
X215118283Y-126736262D01*
X215118283Y-125786262D01*
X215525425Y-126464833D02*
X215977806Y-126464833D01*
X215434949Y-126736262D02*
X215751616Y-125786262D01*
X216068283Y-126736262D01*
X216384949Y-126736262D02*
X216384949Y-125786262D01*
X216701616Y-126464833D01*
X217018283Y-125786262D01*
X217018283Y-126736262D01*
X217470663Y-126238643D02*
X217787330Y-126238643D01*
X217923044Y-126736262D02*
X217470663Y-126736262D01*
X217470663Y-125786262D01*
X217923044Y-125786262D01*
X153601490Y-84472329D02*
X154325300Y-84743757D01*
X153601490Y-85015186D01*
X154641966Y-84155662D02*
X155184823Y-84155662D01*
X154913395Y-85105662D02*
X154913395Y-84155662D01*
X155501490Y-85105662D02*
X155501490Y-84155662D01*
X155863395Y-84155662D01*
X155953871Y-84200900D01*
X155999110Y-84246138D01*
X156044348Y-84336614D01*
X156044348Y-84472329D01*
X155999110Y-84562805D01*
X155953871Y-84608043D01*
X155863395Y-84653281D01*
X155501490Y-84653281D01*
X156225300Y-85196138D02*
X156949110Y-85196138D01*
X157130062Y-85060424D02*
X157265777Y-85105662D01*
X157491967Y-85105662D01*
X157582443Y-85060424D01*
X157627681Y-85015186D01*
X157672920Y-84924710D01*
X157672920Y-84834233D01*
X157627681Y-84743757D01*
X157582443Y-84698519D01*
X157491967Y-84653281D01*
X157311015Y-84608043D01*
X157220539Y-84562805D01*
X157175300Y-84517567D01*
X157130062Y-84427090D01*
X157130062Y-84336614D01*
X157175300Y-84246138D01*
X157220539Y-84200900D01*
X157311015Y-84155662D01*
X157537205Y-84155662D01*
X157672920Y-84200900D01*
X158080062Y-85105662D02*
X158080062Y-84155662D01*
X159030063Y-84200900D02*
X158939586Y-84155662D01*
X158803872Y-84155662D01*
X158668158Y-84200900D01*
X158577682Y-84291376D01*
X158532443Y-84381852D01*
X158487205Y-84562805D01*
X158487205Y-84698519D01*
X158532443Y-84879471D01*
X158577682Y-84969948D01*
X158668158Y-85060424D01*
X158803872Y-85105662D01*
X158894348Y-85105662D01*
X159030063Y-85060424D01*
X159075301Y-85015186D01*
X159075301Y-84698519D01*
X158894348Y-84698519D01*
X159482443Y-85105662D02*
X159482443Y-84155662D01*
X160025301Y-85105662D01*
X160025301Y-84155662D01*
X160432443Y-84834233D02*
X160884824Y-84834233D01*
X160341967Y-85105662D02*
X160658634Y-84155662D01*
X160975301Y-85105662D01*
X161744348Y-85105662D02*
X161291967Y-85105662D01*
X161291967Y-84155662D01*
X161834825Y-85196138D02*
X162558635Y-85196138D01*
X162784825Y-85105662D02*
X162784825Y-84155662D01*
X163327683Y-85105662D01*
X163327683Y-84155662D01*
X163734825Y-84834233D02*
X164187206Y-84834233D01*
X163644349Y-85105662D02*
X163961016Y-84155662D01*
X164277683Y-85105662D01*
X164594349Y-85105662D02*
X164594349Y-84155662D01*
X164911016Y-84834233D01*
X165227683Y-84155662D01*
X165227683Y-85105662D01*
X165680063Y-84608043D02*
X165996730Y-84608043D01*
X166132444Y-85105662D02*
X165680063Y-85105662D01*
X165680063Y-84155662D01*
X166132444Y-84155662D01*
X153576090Y-130928929D02*
X154299900Y-131200357D01*
X153576090Y-131471786D01*
X154616566Y-130612262D02*
X155159423Y-130612262D01*
X154887995Y-131562262D02*
X154887995Y-130612262D01*
X155476090Y-131562262D02*
X155476090Y-130612262D01*
X155837995Y-130612262D01*
X155928471Y-130657500D01*
X155973710Y-130702738D01*
X156018948Y-130793214D01*
X156018948Y-130928929D01*
X155973710Y-131019405D01*
X155928471Y-131064643D01*
X155837995Y-131109881D01*
X155476090Y-131109881D01*
X156199900Y-131652738D02*
X156923710Y-131652738D01*
X157104662Y-131517024D02*
X157240377Y-131562262D01*
X157466567Y-131562262D01*
X157557043Y-131517024D01*
X157602281Y-131471786D01*
X157647520Y-131381310D01*
X157647520Y-131290833D01*
X157602281Y-131200357D01*
X157557043Y-131155119D01*
X157466567Y-131109881D01*
X157285615Y-131064643D01*
X157195139Y-131019405D01*
X157149900Y-130974167D01*
X157104662Y-130883690D01*
X157104662Y-130793214D01*
X157149900Y-130702738D01*
X157195139Y-130657500D01*
X157285615Y-130612262D01*
X157511805Y-130612262D01*
X157647520Y-130657500D01*
X158054662Y-131562262D02*
X158054662Y-130612262D01*
X159004663Y-130657500D02*
X158914186Y-130612262D01*
X158778472Y-130612262D01*
X158642758Y-130657500D01*
X158552282Y-130747976D01*
X158507043Y-130838452D01*
X158461805Y-131019405D01*
X158461805Y-131155119D01*
X158507043Y-131336071D01*
X158552282Y-131426548D01*
X158642758Y-131517024D01*
X158778472Y-131562262D01*
X158868948Y-131562262D01*
X159004663Y-131517024D01*
X159049901Y-131471786D01*
X159049901Y-131155119D01*
X158868948Y-131155119D01*
X159457043Y-131562262D02*
X159457043Y-130612262D01*
X159999901Y-131562262D01*
X159999901Y-130612262D01*
X160407043Y-131290833D02*
X160859424Y-131290833D01*
X160316567Y-131562262D02*
X160633234Y-130612262D01*
X160949901Y-131562262D01*
X161718948Y-131562262D02*
X161266567Y-131562262D01*
X161266567Y-130612262D01*
X161809425Y-131652738D02*
X162533235Y-131652738D01*
X162759425Y-131562262D02*
X162759425Y-130612262D01*
X163302283Y-131562262D01*
X163302283Y-130612262D01*
X163709425Y-131290833D02*
X164161806Y-131290833D01*
X163618949Y-131562262D02*
X163935616Y-130612262D01*
X164252283Y-131562262D01*
X164568949Y-131562262D02*
X164568949Y-130612262D01*
X164885616Y-131290833D01*
X165202283Y-130612262D01*
X165202283Y-131562262D01*
X165654663Y-131064643D02*
X165971330Y-131064643D01*
X166107044Y-131562262D02*
X165654663Y-131562262D01*
X165654663Y-130612262D01*
X166107044Y-130612262D01*
X153626890Y-127017329D02*
X154350700Y-127288757D01*
X153626890Y-127560186D01*
X154667366Y-126700662D02*
X155210223Y-126700662D01*
X154938795Y-127650662D02*
X154938795Y-126700662D01*
X155526890Y-127650662D02*
X155526890Y-126700662D01*
X155888795Y-126700662D01*
X155979271Y-126745900D01*
X156024510Y-126791138D01*
X156069748Y-126881614D01*
X156069748Y-127017329D01*
X156024510Y-127107805D01*
X155979271Y-127153043D01*
X155888795Y-127198281D01*
X155526890Y-127198281D01*
X156250700Y-127741138D02*
X156974510Y-127741138D01*
X157155462Y-127605424D02*
X157291177Y-127650662D01*
X157517367Y-127650662D01*
X157607843Y-127605424D01*
X157653081Y-127560186D01*
X157698320Y-127469710D01*
X157698320Y-127379233D01*
X157653081Y-127288757D01*
X157607843Y-127243519D01*
X157517367Y-127198281D01*
X157336415Y-127153043D01*
X157245939Y-127107805D01*
X157200700Y-127062567D01*
X157155462Y-126972090D01*
X157155462Y-126881614D01*
X157200700Y-126791138D01*
X157245939Y-126745900D01*
X157336415Y-126700662D01*
X157562605Y-126700662D01*
X157698320Y-126745900D01*
X158105462Y-127650662D02*
X158105462Y-126700662D01*
X159055463Y-126745900D02*
X158964986Y-126700662D01*
X158829272Y-126700662D01*
X158693558Y-126745900D01*
X158603082Y-126836376D01*
X158557843Y-126926852D01*
X158512605Y-127107805D01*
X158512605Y-127243519D01*
X158557843Y-127424471D01*
X158603082Y-127514948D01*
X158693558Y-127605424D01*
X158829272Y-127650662D01*
X158919748Y-127650662D01*
X159055463Y-127605424D01*
X159100701Y-127560186D01*
X159100701Y-127243519D01*
X158919748Y-127243519D01*
X159507843Y-127650662D02*
X159507843Y-126700662D01*
X160050701Y-127650662D01*
X160050701Y-126700662D01*
X160457843Y-127379233D02*
X160910224Y-127379233D01*
X160367367Y-127650662D02*
X160684034Y-126700662D01*
X161000701Y-127650662D01*
X161769748Y-127650662D02*
X161317367Y-127650662D01*
X161317367Y-126700662D01*
X161860225Y-127741138D02*
X162584035Y-127741138D01*
X162810225Y-127650662D02*
X162810225Y-126700662D01*
X163353083Y-127650662D01*
X163353083Y-126700662D01*
X163760225Y-127379233D02*
X164212606Y-127379233D01*
X163669749Y-127650662D02*
X163986416Y-126700662D01*
X164303083Y-127650662D01*
X164619749Y-127650662D02*
X164619749Y-126700662D01*
X164936416Y-127379233D01*
X165253083Y-126700662D01*
X165253083Y-127650662D01*
X165705463Y-127153043D02*
X166022130Y-127153043D01*
X166157844Y-127650662D02*
X165705463Y-127650662D01*
X165705463Y-126700662D01*
X166157844Y-126700662D01*
X156192290Y-94352929D02*
X156916100Y-94624357D01*
X156192290Y-94895786D01*
X157232766Y-94036262D02*
X157775623Y-94036262D01*
X157504195Y-94986262D02*
X157504195Y-94036262D01*
X158092290Y-94986262D02*
X158092290Y-94036262D01*
X158454195Y-94036262D01*
X158544671Y-94081500D01*
X158589910Y-94126738D01*
X158635148Y-94217214D01*
X158635148Y-94352929D01*
X158589910Y-94443405D01*
X158544671Y-94488643D01*
X158454195Y-94533881D01*
X158092290Y-94533881D01*
X158816100Y-95076738D02*
X159539910Y-95076738D01*
X159720862Y-94941024D02*
X159856577Y-94986262D01*
X160082767Y-94986262D01*
X160173243Y-94941024D01*
X160218481Y-94895786D01*
X160263720Y-94805310D01*
X160263720Y-94714833D01*
X160218481Y-94624357D01*
X160173243Y-94579119D01*
X160082767Y-94533881D01*
X159901815Y-94488643D01*
X159811339Y-94443405D01*
X159766100Y-94398167D01*
X159720862Y-94307690D01*
X159720862Y-94217214D01*
X159766100Y-94126738D01*
X159811339Y-94081500D01*
X159901815Y-94036262D01*
X160128005Y-94036262D01*
X160263720Y-94081500D01*
X160670862Y-94986262D02*
X160670862Y-94036262D01*
X161620863Y-94081500D02*
X161530386Y-94036262D01*
X161394672Y-94036262D01*
X161258958Y-94081500D01*
X161168482Y-94171976D01*
X161123243Y-94262452D01*
X161078005Y-94443405D01*
X161078005Y-94579119D01*
X161123243Y-94760071D01*
X161168482Y-94850548D01*
X161258958Y-94941024D01*
X161394672Y-94986262D01*
X161485148Y-94986262D01*
X161620863Y-94941024D01*
X161666101Y-94895786D01*
X161666101Y-94579119D01*
X161485148Y-94579119D01*
X162073243Y-94986262D02*
X162073243Y-94036262D01*
X162616101Y-94986262D01*
X162616101Y-94036262D01*
X163023243Y-94714833D02*
X163475624Y-94714833D01*
X162932767Y-94986262D02*
X163249434Y-94036262D01*
X163566101Y-94986262D01*
X164335148Y-94986262D02*
X163882767Y-94986262D01*
X163882767Y-94036262D01*
X164425625Y-95076738D02*
X165149435Y-95076738D01*
X165375625Y-94986262D02*
X165375625Y-94036262D01*
X165918483Y-94986262D01*
X165918483Y-94036262D01*
X166325625Y-94714833D02*
X166778006Y-94714833D01*
X166235149Y-94986262D02*
X166551816Y-94036262D01*
X166868483Y-94986262D01*
X167185149Y-94986262D02*
X167185149Y-94036262D01*
X167501816Y-94714833D01*
X167818483Y-94036262D01*
X167818483Y-94986262D01*
X168270863Y-94488643D02*
X168587530Y-94488643D01*
X168723244Y-94986262D02*
X168270863Y-94986262D01*
X168270863Y-94036262D01*
X168723244Y-94036262D01*
X156268490Y-96969129D02*
X156992300Y-97240557D01*
X156268490Y-97511986D01*
X157308966Y-96652462D02*
X157851823Y-96652462D01*
X157580395Y-97602462D02*
X157580395Y-96652462D01*
X158168490Y-97602462D02*
X158168490Y-96652462D01*
X158530395Y-96652462D01*
X158620871Y-96697700D01*
X158666110Y-96742938D01*
X158711348Y-96833414D01*
X158711348Y-96969129D01*
X158666110Y-97059605D01*
X158620871Y-97104843D01*
X158530395Y-97150081D01*
X158168490Y-97150081D01*
X158892300Y-97692938D02*
X159616110Y-97692938D01*
X159797062Y-97557224D02*
X159932777Y-97602462D01*
X160158967Y-97602462D01*
X160249443Y-97557224D01*
X160294681Y-97511986D01*
X160339920Y-97421510D01*
X160339920Y-97331033D01*
X160294681Y-97240557D01*
X160249443Y-97195319D01*
X160158967Y-97150081D01*
X159978015Y-97104843D01*
X159887539Y-97059605D01*
X159842300Y-97014367D01*
X159797062Y-96923890D01*
X159797062Y-96833414D01*
X159842300Y-96742938D01*
X159887539Y-96697700D01*
X159978015Y-96652462D01*
X160204205Y-96652462D01*
X160339920Y-96697700D01*
X160747062Y-97602462D02*
X160747062Y-96652462D01*
X161697063Y-96697700D02*
X161606586Y-96652462D01*
X161470872Y-96652462D01*
X161335158Y-96697700D01*
X161244682Y-96788176D01*
X161199443Y-96878652D01*
X161154205Y-97059605D01*
X161154205Y-97195319D01*
X161199443Y-97376271D01*
X161244682Y-97466748D01*
X161335158Y-97557224D01*
X161470872Y-97602462D01*
X161561348Y-97602462D01*
X161697063Y-97557224D01*
X161742301Y-97511986D01*
X161742301Y-97195319D01*
X161561348Y-97195319D01*
X162149443Y-97602462D02*
X162149443Y-96652462D01*
X162692301Y-97602462D01*
X162692301Y-96652462D01*
X163099443Y-97331033D02*
X163551824Y-97331033D01*
X163008967Y-97602462D02*
X163325634Y-96652462D01*
X163642301Y-97602462D01*
X164411348Y-97602462D02*
X163958967Y-97602462D01*
X163958967Y-96652462D01*
X164501825Y-97692938D02*
X165225635Y-97692938D01*
X165451825Y-97602462D02*
X165451825Y-96652462D01*
X165994683Y-97602462D01*
X165994683Y-96652462D01*
X166401825Y-97331033D02*
X166854206Y-97331033D01*
X166311349Y-97602462D02*
X166628016Y-96652462D01*
X166944683Y-97602462D01*
X167261349Y-97602462D02*
X167261349Y-96652462D01*
X167578016Y-97331033D01*
X167894683Y-96652462D01*
X167894683Y-97602462D01*
X168347063Y-97104843D02*
X168663730Y-97104843D01*
X168799444Y-97602462D02*
X168347063Y-97602462D01*
X168347063Y-96652462D01*
X168799444Y-96652462D01*
X156243090Y-104868529D02*
X156966900Y-105139957D01*
X156243090Y-105411386D01*
X157283566Y-104551862D02*
X157826423Y-104551862D01*
X157554995Y-105501862D02*
X157554995Y-104551862D01*
X158143090Y-105501862D02*
X158143090Y-104551862D01*
X158504995Y-104551862D01*
X158595471Y-104597100D01*
X158640710Y-104642338D01*
X158685948Y-104732814D01*
X158685948Y-104868529D01*
X158640710Y-104959005D01*
X158595471Y-105004243D01*
X158504995Y-105049481D01*
X158143090Y-105049481D01*
X158866900Y-105592338D02*
X159590710Y-105592338D01*
X159771662Y-105456624D02*
X159907377Y-105501862D01*
X160133567Y-105501862D01*
X160224043Y-105456624D01*
X160269281Y-105411386D01*
X160314520Y-105320910D01*
X160314520Y-105230433D01*
X160269281Y-105139957D01*
X160224043Y-105094719D01*
X160133567Y-105049481D01*
X159952615Y-105004243D01*
X159862139Y-104959005D01*
X159816900Y-104913767D01*
X159771662Y-104823290D01*
X159771662Y-104732814D01*
X159816900Y-104642338D01*
X159862139Y-104597100D01*
X159952615Y-104551862D01*
X160178805Y-104551862D01*
X160314520Y-104597100D01*
X160721662Y-105501862D02*
X160721662Y-104551862D01*
X161671663Y-104597100D02*
X161581186Y-104551862D01*
X161445472Y-104551862D01*
X161309758Y-104597100D01*
X161219282Y-104687576D01*
X161174043Y-104778052D01*
X161128805Y-104959005D01*
X161128805Y-105094719D01*
X161174043Y-105275671D01*
X161219282Y-105366148D01*
X161309758Y-105456624D01*
X161445472Y-105501862D01*
X161535948Y-105501862D01*
X161671663Y-105456624D01*
X161716901Y-105411386D01*
X161716901Y-105094719D01*
X161535948Y-105094719D01*
X162124043Y-105501862D02*
X162124043Y-104551862D01*
X162666901Y-105501862D01*
X162666901Y-104551862D01*
X163074043Y-105230433D02*
X163526424Y-105230433D01*
X162983567Y-105501862D02*
X163300234Y-104551862D01*
X163616901Y-105501862D01*
X164385948Y-105501862D02*
X163933567Y-105501862D01*
X163933567Y-104551862D01*
X164476425Y-105592338D02*
X165200235Y-105592338D01*
X165426425Y-105501862D02*
X165426425Y-104551862D01*
X165969283Y-105501862D01*
X165969283Y-104551862D01*
X166376425Y-105230433D02*
X166828806Y-105230433D01*
X166285949Y-105501862D02*
X166602616Y-104551862D01*
X166919283Y-105501862D01*
X167235949Y-105501862D02*
X167235949Y-104551862D01*
X167552616Y-105230433D01*
X167869283Y-104551862D01*
X167869283Y-105501862D01*
X168321663Y-105004243D02*
X168638330Y-105004243D01*
X168774044Y-105501862D02*
X168321663Y-105501862D01*
X168321663Y-104551862D01*
X168774044Y-104551862D01*
X156090690Y-112996529D02*
X156814500Y-113267957D01*
X156090690Y-113539386D01*
X157131166Y-112679862D02*
X157674023Y-112679862D01*
X157402595Y-113629862D02*
X157402595Y-112679862D01*
X157990690Y-113629862D02*
X157990690Y-112679862D01*
X158352595Y-112679862D01*
X158443071Y-112725100D01*
X158488310Y-112770338D01*
X158533548Y-112860814D01*
X158533548Y-112996529D01*
X158488310Y-113087005D01*
X158443071Y-113132243D01*
X158352595Y-113177481D01*
X157990690Y-113177481D01*
X158714500Y-113720338D02*
X159438310Y-113720338D01*
X159619262Y-113584624D02*
X159754977Y-113629862D01*
X159981167Y-113629862D01*
X160071643Y-113584624D01*
X160116881Y-113539386D01*
X160162120Y-113448910D01*
X160162120Y-113358433D01*
X160116881Y-113267957D01*
X160071643Y-113222719D01*
X159981167Y-113177481D01*
X159800215Y-113132243D01*
X159709739Y-113087005D01*
X159664500Y-113041767D01*
X159619262Y-112951290D01*
X159619262Y-112860814D01*
X159664500Y-112770338D01*
X159709739Y-112725100D01*
X159800215Y-112679862D01*
X160026405Y-112679862D01*
X160162120Y-112725100D01*
X160569262Y-113629862D02*
X160569262Y-112679862D01*
X161519263Y-112725100D02*
X161428786Y-112679862D01*
X161293072Y-112679862D01*
X161157358Y-112725100D01*
X161066882Y-112815576D01*
X161021643Y-112906052D01*
X160976405Y-113087005D01*
X160976405Y-113222719D01*
X161021643Y-113403671D01*
X161066882Y-113494148D01*
X161157358Y-113584624D01*
X161293072Y-113629862D01*
X161383548Y-113629862D01*
X161519263Y-113584624D01*
X161564501Y-113539386D01*
X161564501Y-113222719D01*
X161383548Y-113222719D01*
X161971643Y-113629862D02*
X161971643Y-112679862D01*
X162514501Y-113629862D01*
X162514501Y-112679862D01*
X162921643Y-113358433D02*
X163374024Y-113358433D01*
X162831167Y-113629862D02*
X163147834Y-112679862D01*
X163464501Y-113629862D01*
X164233548Y-113629862D02*
X163781167Y-113629862D01*
X163781167Y-112679862D01*
X164324025Y-113720338D02*
X165047835Y-113720338D01*
X165274025Y-113629862D02*
X165274025Y-112679862D01*
X165816883Y-113629862D01*
X165816883Y-112679862D01*
X166224025Y-113358433D02*
X166676406Y-113358433D01*
X166133549Y-113629862D02*
X166450216Y-112679862D01*
X166766883Y-113629862D01*
X167083549Y-113629862D02*
X167083549Y-112679862D01*
X167400216Y-113358433D01*
X167716883Y-112679862D01*
X167716883Y-113629862D01*
X168169263Y-113132243D02*
X168485930Y-113132243D01*
X168621644Y-113629862D02*
X168169263Y-113629862D01*
X168169263Y-112679862D01*
X168621644Y-112679862D01*
X156293890Y-121657929D02*
X157017700Y-121929357D01*
X156293890Y-122200786D01*
X157334366Y-121341262D02*
X157877223Y-121341262D01*
X157605795Y-122291262D02*
X157605795Y-121341262D01*
X158193890Y-122291262D02*
X158193890Y-121341262D01*
X158555795Y-121341262D01*
X158646271Y-121386500D01*
X158691510Y-121431738D01*
X158736748Y-121522214D01*
X158736748Y-121657929D01*
X158691510Y-121748405D01*
X158646271Y-121793643D01*
X158555795Y-121838881D01*
X158193890Y-121838881D01*
X158917700Y-122381738D02*
X159641510Y-122381738D01*
X159822462Y-122246024D02*
X159958177Y-122291262D01*
X160184367Y-122291262D01*
X160274843Y-122246024D01*
X160320081Y-122200786D01*
X160365320Y-122110310D01*
X160365320Y-122019833D01*
X160320081Y-121929357D01*
X160274843Y-121884119D01*
X160184367Y-121838881D01*
X160003415Y-121793643D01*
X159912939Y-121748405D01*
X159867700Y-121703167D01*
X159822462Y-121612690D01*
X159822462Y-121522214D01*
X159867700Y-121431738D01*
X159912939Y-121386500D01*
X160003415Y-121341262D01*
X160229605Y-121341262D01*
X160365320Y-121386500D01*
X160772462Y-122291262D02*
X160772462Y-121341262D01*
X161722463Y-121386500D02*
X161631986Y-121341262D01*
X161496272Y-121341262D01*
X161360558Y-121386500D01*
X161270082Y-121476976D01*
X161224843Y-121567452D01*
X161179605Y-121748405D01*
X161179605Y-121884119D01*
X161224843Y-122065071D01*
X161270082Y-122155548D01*
X161360558Y-122246024D01*
X161496272Y-122291262D01*
X161586748Y-122291262D01*
X161722463Y-122246024D01*
X161767701Y-122200786D01*
X161767701Y-121884119D01*
X161586748Y-121884119D01*
X162174843Y-122291262D02*
X162174843Y-121341262D01*
X162717701Y-122291262D01*
X162717701Y-121341262D01*
X163124843Y-122019833D02*
X163577224Y-122019833D01*
X163034367Y-122291262D02*
X163351034Y-121341262D01*
X163667701Y-122291262D01*
X164436748Y-122291262D02*
X163984367Y-122291262D01*
X163984367Y-121341262D01*
X164527225Y-122381738D02*
X165251035Y-122381738D01*
X165477225Y-122291262D02*
X165477225Y-121341262D01*
X166020083Y-122291262D01*
X166020083Y-121341262D01*
X166427225Y-122019833D02*
X166879606Y-122019833D01*
X166336749Y-122291262D02*
X166653416Y-121341262D01*
X166970083Y-122291262D01*
X167286749Y-122291262D02*
X167286749Y-121341262D01*
X167603416Y-122019833D01*
X167920083Y-121341262D01*
X167920083Y-122291262D01*
X168372463Y-121793643D02*
X168689130Y-121793643D01*
X168824844Y-122291262D02*
X168372463Y-122291262D01*
X168372463Y-121341262D01*
X168824844Y-121341262D01*
X205265090Y-80865529D02*
X205988900Y-81136957D01*
X205265090Y-81408386D01*
X206305566Y-80548862D02*
X206848423Y-80548862D01*
X206576995Y-81498862D02*
X206576995Y-80548862D01*
X207165090Y-81498862D02*
X207165090Y-80548862D01*
X207526995Y-80548862D01*
X207617471Y-80594100D01*
X207662710Y-80639338D01*
X207707948Y-80729814D01*
X207707948Y-80865529D01*
X207662710Y-80956005D01*
X207617471Y-81001243D01*
X207526995Y-81046481D01*
X207165090Y-81046481D01*
X207888900Y-81589338D02*
X208612710Y-81589338D01*
X208793662Y-81453624D02*
X208929377Y-81498862D01*
X209155567Y-81498862D01*
X209246043Y-81453624D01*
X209291281Y-81408386D01*
X209336520Y-81317910D01*
X209336520Y-81227433D01*
X209291281Y-81136957D01*
X209246043Y-81091719D01*
X209155567Y-81046481D01*
X208974615Y-81001243D01*
X208884139Y-80956005D01*
X208838900Y-80910767D01*
X208793662Y-80820290D01*
X208793662Y-80729814D01*
X208838900Y-80639338D01*
X208884139Y-80594100D01*
X208974615Y-80548862D01*
X209200805Y-80548862D01*
X209336520Y-80594100D01*
X209743662Y-81498862D02*
X209743662Y-80548862D01*
X210693663Y-80594100D02*
X210603186Y-80548862D01*
X210467472Y-80548862D01*
X210331758Y-80594100D01*
X210241282Y-80684576D01*
X210196043Y-80775052D01*
X210150805Y-80956005D01*
X210150805Y-81091719D01*
X210196043Y-81272671D01*
X210241282Y-81363148D01*
X210331758Y-81453624D01*
X210467472Y-81498862D01*
X210557948Y-81498862D01*
X210693663Y-81453624D01*
X210738901Y-81408386D01*
X210738901Y-81091719D01*
X210557948Y-81091719D01*
X211146043Y-81498862D02*
X211146043Y-80548862D01*
X211688901Y-81498862D01*
X211688901Y-80548862D01*
X212096043Y-81227433D02*
X212548424Y-81227433D01*
X212005567Y-81498862D02*
X212322234Y-80548862D01*
X212638901Y-81498862D01*
X213407948Y-81498862D02*
X212955567Y-81498862D01*
X212955567Y-80548862D01*
X213498425Y-81589338D02*
X214222235Y-81589338D01*
X214448425Y-81498862D02*
X214448425Y-80548862D01*
X214991283Y-81498862D01*
X214991283Y-80548862D01*
X215398425Y-81227433D02*
X215850806Y-81227433D01*
X215307949Y-81498862D02*
X215624616Y-80548862D01*
X215941283Y-81498862D01*
X216257949Y-81498862D02*
X216257949Y-80548862D01*
X216574616Y-81227433D01*
X216891283Y-80548862D01*
X216891283Y-81498862D01*
X217343663Y-81001243D02*
X217660330Y-81001243D01*
X217796044Y-81498862D02*
X217343663Y-81498862D01*
X217343663Y-80548862D01*
X217796044Y-80548862D01*
X203207690Y-121124529D02*
X203931500Y-121395957D01*
X203207690Y-121667386D01*
X204248166Y-120807862D02*
X204791023Y-120807862D01*
X204519595Y-121757862D02*
X204519595Y-120807862D01*
X205107690Y-121757862D02*
X205107690Y-120807862D01*
X205469595Y-120807862D01*
X205560071Y-120853100D01*
X205605310Y-120898338D01*
X205650548Y-120988814D01*
X205650548Y-121124529D01*
X205605310Y-121215005D01*
X205560071Y-121260243D01*
X205469595Y-121305481D01*
X205107690Y-121305481D01*
X205831500Y-121848338D02*
X206555310Y-121848338D01*
X206736262Y-121712624D02*
X206871977Y-121757862D01*
X207098167Y-121757862D01*
X207188643Y-121712624D01*
X207233881Y-121667386D01*
X207279120Y-121576910D01*
X207279120Y-121486433D01*
X207233881Y-121395957D01*
X207188643Y-121350719D01*
X207098167Y-121305481D01*
X206917215Y-121260243D01*
X206826739Y-121215005D01*
X206781500Y-121169767D01*
X206736262Y-121079290D01*
X206736262Y-120988814D01*
X206781500Y-120898338D01*
X206826739Y-120853100D01*
X206917215Y-120807862D01*
X207143405Y-120807862D01*
X207279120Y-120853100D01*
X207686262Y-121757862D02*
X207686262Y-120807862D01*
X208636263Y-120853100D02*
X208545786Y-120807862D01*
X208410072Y-120807862D01*
X208274358Y-120853100D01*
X208183882Y-120943576D01*
X208138643Y-121034052D01*
X208093405Y-121215005D01*
X208093405Y-121350719D01*
X208138643Y-121531671D01*
X208183882Y-121622148D01*
X208274358Y-121712624D01*
X208410072Y-121757862D01*
X208500548Y-121757862D01*
X208636263Y-121712624D01*
X208681501Y-121667386D01*
X208681501Y-121350719D01*
X208500548Y-121350719D01*
X209088643Y-121757862D02*
X209088643Y-120807862D01*
X209631501Y-121757862D01*
X209631501Y-120807862D01*
X210038643Y-121486433D02*
X210491024Y-121486433D01*
X209948167Y-121757862D02*
X210264834Y-120807862D01*
X210581501Y-121757862D01*
X211350548Y-121757862D02*
X210898167Y-121757862D01*
X210898167Y-120807862D01*
X211441025Y-121848338D02*
X212164835Y-121848338D01*
X212391025Y-121757862D02*
X212391025Y-120807862D01*
X212933883Y-121757862D01*
X212933883Y-120807862D01*
X213341025Y-121486433D02*
X213793406Y-121486433D01*
X213250549Y-121757862D02*
X213567216Y-120807862D01*
X213883883Y-121757862D01*
X214200549Y-121757862D02*
X214200549Y-120807862D01*
X214517216Y-121486433D01*
X214833883Y-120807862D01*
X214833883Y-121757862D01*
X215286263Y-121260243D02*
X215602930Y-121260243D01*
X215738644Y-121757862D02*
X215286263Y-121757862D01*
X215286263Y-120807862D01*
X215738644Y-120807862D01*
X203283890Y-113072729D02*
X204007700Y-113344157D01*
X203283890Y-113615586D01*
X204324366Y-112756062D02*
X204867223Y-112756062D01*
X204595795Y-113706062D02*
X204595795Y-112756062D01*
X205183890Y-113706062D02*
X205183890Y-112756062D01*
X205545795Y-112756062D01*
X205636271Y-112801300D01*
X205681510Y-112846538D01*
X205726748Y-112937014D01*
X205726748Y-113072729D01*
X205681510Y-113163205D01*
X205636271Y-113208443D01*
X205545795Y-113253681D01*
X205183890Y-113253681D01*
X205907700Y-113796538D02*
X206631510Y-113796538D01*
X206812462Y-113660824D02*
X206948177Y-113706062D01*
X207174367Y-113706062D01*
X207264843Y-113660824D01*
X207310081Y-113615586D01*
X207355320Y-113525110D01*
X207355320Y-113434633D01*
X207310081Y-113344157D01*
X207264843Y-113298919D01*
X207174367Y-113253681D01*
X206993415Y-113208443D01*
X206902939Y-113163205D01*
X206857700Y-113117967D01*
X206812462Y-113027490D01*
X206812462Y-112937014D01*
X206857700Y-112846538D01*
X206902939Y-112801300D01*
X206993415Y-112756062D01*
X207219605Y-112756062D01*
X207355320Y-112801300D01*
X207762462Y-113706062D02*
X207762462Y-112756062D01*
X208712463Y-112801300D02*
X208621986Y-112756062D01*
X208486272Y-112756062D01*
X208350558Y-112801300D01*
X208260082Y-112891776D01*
X208214843Y-112982252D01*
X208169605Y-113163205D01*
X208169605Y-113298919D01*
X208214843Y-113479871D01*
X208260082Y-113570348D01*
X208350558Y-113660824D01*
X208486272Y-113706062D01*
X208576748Y-113706062D01*
X208712463Y-113660824D01*
X208757701Y-113615586D01*
X208757701Y-113298919D01*
X208576748Y-113298919D01*
X209164843Y-113706062D02*
X209164843Y-112756062D01*
X209707701Y-113706062D01*
X209707701Y-112756062D01*
X210114843Y-113434633D02*
X210567224Y-113434633D01*
X210024367Y-113706062D02*
X210341034Y-112756062D01*
X210657701Y-113706062D01*
X211426748Y-113706062D02*
X210974367Y-113706062D01*
X210974367Y-112756062D01*
X211517225Y-113796538D02*
X212241035Y-113796538D01*
X212467225Y-113706062D02*
X212467225Y-112756062D01*
X213010083Y-113706062D01*
X213010083Y-112756062D01*
X213417225Y-113434633D02*
X213869606Y-113434633D01*
X213326749Y-113706062D02*
X213643416Y-112756062D01*
X213960083Y-113706062D01*
X214276749Y-113706062D02*
X214276749Y-112756062D01*
X214593416Y-113434633D01*
X214910083Y-112756062D01*
X214910083Y-113706062D01*
X215362463Y-113208443D02*
X215679130Y-113208443D01*
X215814844Y-113706062D02*
X215362463Y-113706062D01*
X215362463Y-112756062D01*
X215814844Y-112756062D01*
X203283890Y-96892929D02*
X204007700Y-97164357D01*
X203283890Y-97435786D01*
X204324366Y-96576262D02*
X204867223Y-96576262D01*
X204595795Y-97526262D02*
X204595795Y-96576262D01*
X205183890Y-97526262D02*
X205183890Y-96576262D01*
X205545795Y-96576262D01*
X205636271Y-96621500D01*
X205681510Y-96666738D01*
X205726748Y-96757214D01*
X205726748Y-96892929D01*
X205681510Y-96983405D01*
X205636271Y-97028643D01*
X205545795Y-97073881D01*
X205183890Y-97073881D01*
X205907700Y-97616738D02*
X206631510Y-97616738D01*
X206812462Y-97481024D02*
X206948177Y-97526262D01*
X207174367Y-97526262D01*
X207264843Y-97481024D01*
X207310081Y-97435786D01*
X207355320Y-97345310D01*
X207355320Y-97254833D01*
X207310081Y-97164357D01*
X207264843Y-97119119D01*
X207174367Y-97073881D01*
X206993415Y-97028643D01*
X206902939Y-96983405D01*
X206857700Y-96938167D01*
X206812462Y-96847690D01*
X206812462Y-96757214D01*
X206857700Y-96666738D01*
X206902939Y-96621500D01*
X206993415Y-96576262D01*
X207219605Y-96576262D01*
X207355320Y-96621500D01*
X207762462Y-97526262D02*
X207762462Y-96576262D01*
X208712463Y-96621500D02*
X208621986Y-96576262D01*
X208486272Y-96576262D01*
X208350558Y-96621500D01*
X208260082Y-96711976D01*
X208214843Y-96802452D01*
X208169605Y-96983405D01*
X208169605Y-97119119D01*
X208214843Y-97300071D01*
X208260082Y-97390548D01*
X208350558Y-97481024D01*
X208486272Y-97526262D01*
X208576748Y-97526262D01*
X208712463Y-97481024D01*
X208757701Y-97435786D01*
X208757701Y-97119119D01*
X208576748Y-97119119D01*
X209164843Y-97526262D02*
X209164843Y-96576262D01*
X209707701Y-97526262D01*
X209707701Y-96576262D01*
X210114843Y-97254833D02*
X210567224Y-97254833D01*
X210024367Y-97526262D02*
X210341034Y-96576262D01*
X210657701Y-97526262D01*
X211426748Y-97526262D02*
X210974367Y-97526262D01*
X210974367Y-96576262D01*
X211517225Y-97616738D02*
X212241035Y-97616738D01*
X212467225Y-97526262D02*
X212467225Y-96576262D01*
X213010083Y-97526262D01*
X213010083Y-96576262D01*
X213417225Y-97254833D02*
X213869606Y-97254833D01*
X213326749Y-97526262D02*
X213643416Y-96576262D01*
X213960083Y-97526262D01*
X214276749Y-97526262D02*
X214276749Y-96576262D01*
X214593416Y-97254833D01*
X214910083Y-96576262D01*
X214910083Y-97526262D01*
X215362463Y-97028643D02*
X215679130Y-97028643D01*
X215814844Y-97526262D02*
X215362463Y-97526262D01*
X215362463Y-96576262D01*
X215814844Y-96576262D01*
X203334690Y-118508329D02*
X204058500Y-118779757D01*
X203334690Y-119051186D01*
X204375166Y-118191662D02*
X204918023Y-118191662D01*
X204646595Y-119141662D02*
X204646595Y-118191662D01*
X205234690Y-119141662D02*
X205234690Y-118191662D01*
X205596595Y-118191662D01*
X205687071Y-118236900D01*
X205732310Y-118282138D01*
X205777548Y-118372614D01*
X205777548Y-118508329D01*
X205732310Y-118598805D01*
X205687071Y-118644043D01*
X205596595Y-118689281D01*
X205234690Y-118689281D01*
X205958500Y-119232138D02*
X206682310Y-119232138D01*
X206863262Y-119096424D02*
X206998977Y-119141662D01*
X207225167Y-119141662D01*
X207315643Y-119096424D01*
X207360881Y-119051186D01*
X207406120Y-118960710D01*
X207406120Y-118870233D01*
X207360881Y-118779757D01*
X207315643Y-118734519D01*
X207225167Y-118689281D01*
X207044215Y-118644043D01*
X206953739Y-118598805D01*
X206908500Y-118553567D01*
X206863262Y-118463090D01*
X206863262Y-118372614D01*
X206908500Y-118282138D01*
X206953739Y-118236900D01*
X207044215Y-118191662D01*
X207270405Y-118191662D01*
X207406120Y-118236900D01*
X207813262Y-119141662D02*
X207813262Y-118191662D01*
X208763263Y-118236900D02*
X208672786Y-118191662D01*
X208537072Y-118191662D01*
X208401358Y-118236900D01*
X208310882Y-118327376D01*
X208265643Y-118417852D01*
X208220405Y-118598805D01*
X208220405Y-118734519D01*
X208265643Y-118915471D01*
X208310882Y-119005948D01*
X208401358Y-119096424D01*
X208537072Y-119141662D01*
X208627548Y-119141662D01*
X208763263Y-119096424D01*
X208808501Y-119051186D01*
X208808501Y-118734519D01*
X208627548Y-118734519D01*
X209215643Y-119141662D02*
X209215643Y-118191662D01*
X209758501Y-119141662D01*
X209758501Y-118191662D01*
X210165643Y-118870233D02*
X210618024Y-118870233D01*
X210075167Y-119141662D02*
X210391834Y-118191662D01*
X210708501Y-119141662D01*
X211477548Y-119141662D02*
X211025167Y-119141662D01*
X211025167Y-118191662D01*
X211568025Y-119232138D02*
X212291835Y-119232138D01*
X212518025Y-119141662D02*
X212518025Y-118191662D01*
X213060883Y-119141662D01*
X213060883Y-118191662D01*
X213468025Y-118870233D02*
X213920406Y-118870233D01*
X213377549Y-119141662D02*
X213694216Y-118191662D01*
X214010883Y-119141662D01*
X214327549Y-119141662D02*
X214327549Y-118191662D01*
X214644216Y-118870233D01*
X214960883Y-118191662D01*
X214960883Y-119141662D01*
X215413263Y-118644043D02*
X215729930Y-118644043D01*
X215865644Y-119141662D02*
X215413263Y-119141662D01*
X215413263Y-118191662D01*
X215865644Y-118191662D01*
X156268490Y-118533729D02*
X156992300Y-118805157D01*
X156268490Y-119076586D01*
X157308966Y-118217062D02*
X157851823Y-118217062D01*
X157580395Y-119167062D02*
X157580395Y-118217062D01*
X158168490Y-119167062D02*
X158168490Y-118217062D01*
X158530395Y-118217062D01*
X158620871Y-118262300D01*
X158666110Y-118307538D01*
X158711348Y-118398014D01*
X158711348Y-118533729D01*
X158666110Y-118624205D01*
X158620871Y-118669443D01*
X158530395Y-118714681D01*
X158168490Y-118714681D01*
X158892300Y-119257538D02*
X159616110Y-119257538D01*
X159797062Y-119121824D02*
X159932777Y-119167062D01*
X160158967Y-119167062D01*
X160249443Y-119121824D01*
X160294681Y-119076586D01*
X160339920Y-118986110D01*
X160339920Y-118895633D01*
X160294681Y-118805157D01*
X160249443Y-118759919D01*
X160158967Y-118714681D01*
X159978015Y-118669443D01*
X159887539Y-118624205D01*
X159842300Y-118578967D01*
X159797062Y-118488490D01*
X159797062Y-118398014D01*
X159842300Y-118307538D01*
X159887539Y-118262300D01*
X159978015Y-118217062D01*
X160204205Y-118217062D01*
X160339920Y-118262300D01*
X160747062Y-119167062D02*
X160747062Y-118217062D01*
X161697063Y-118262300D02*
X161606586Y-118217062D01*
X161470872Y-118217062D01*
X161335158Y-118262300D01*
X161244682Y-118352776D01*
X161199443Y-118443252D01*
X161154205Y-118624205D01*
X161154205Y-118759919D01*
X161199443Y-118940871D01*
X161244682Y-119031348D01*
X161335158Y-119121824D01*
X161470872Y-119167062D01*
X161561348Y-119167062D01*
X161697063Y-119121824D01*
X161742301Y-119076586D01*
X161742301Y-118759919D01*
X161561348Y-118759919D01*
X162149443Y-119167062D02*
X162149443Y-118217062D01*
X162692301Y-119167062D01*
X162692301Y-118217062D01*
X163099443Y-118895633D02*
X163551824Y-118895633D01*
X163008967Y-119167062D02*
X163325634Y-118217062D01*
X163642301Y-119167062D01*
X164411348Y-119167062D02*
X163958967Y-119167062D01*
X163958967Y-118217062D01*
X164501825Y-119257538D02*
X165225635Y-119257538D01*
X165451825Y-119167062D02*
X165451825Y-118217062D01*
X165994683Y-119167062D01*
X165994683Y-118217062D01*
X166401825Y-118895633D02*
X166854206Y-118895633D01*
X166311349Y-119167062D02*
X166628016Y-118217062D01*
X166944683Y-119167062D01*
X167261349Y-119167062D02*
X167261349Y-118217062D01*
X167578016Y-118895633D01*
X167894683Y-118217062D01*
X167894683Y-119167062D01*
X168347063Y-118669443D02*
X168663730Y-118669443D01*
X168799444Y-119167062D02*
X168347063Y-119167062D01*
X168347063Y-118217062D01*
X168799444Y-118217062D01*
X203233090Y-102201529D02*
X203956900Y-102472957D01*
X203233090Y-102744386D01*
X204273566Y-101884862D02*
X204816423Y-101884862D01*
X204544995Y-102834862D02*
X204544995Y-101884862D01*
X205133090Y-102834862D02*
X205133090Y-101884862D01*
X205494995Y-101884862D01*
X205585471Y-101930100D01*
X205630710Y-101975338D01*
X205675948Y-102065814D01*
X205675948Y-102201529D01*
X205630710Y-102292005D01*
X205585471Y-102337243D01*
X205494995Y-102382481D01*
X205133090Y-102382481D01*
X205856900Y-102925338D02*
X206580710Y-102925338D01*
X206761662Y-102789624D02*
X206897377Y-102834862D01*
X207123567Y-102834862D01*
X207214043Y-102789624D01*
X207259281Y-102744386D01*
X207304520Y-102653910D01*
X207304520Y-102563433D01*
X207259281Y-102472957D01*
X207214043Y-102427719D01*
X207123567Y-102382481D01*
X206942615Y-102337243D01*
X206852139Y-102292005D01*
X206806900Y-102246767D01*
X206761662Y-102156290D01*
X206761662Y-102065814D01*
X206806900Y-101975338D01*
X206852139Y-101930100D01*
X206942615Y-101884862D01*
X207168805Y-101884862D01*
X207304520Y-101930100D01*
X207711662Y-102834862D02*
X207711662Y-101884862D01*
X208661663Y-101930100D02*
X208571186Y-101884862D01*
X208435472Y-101884862D01*
X208299758Y-101930100D01*
X208209282Y-102020576D01*
X208164043Y-102111052D01*
X208118805Y-102292005D01*
X208118805Y-102427719D01*
X208164043Y-102608671D01*
X208209282Y-102699148D01*
X208299758Y-102789624D01*
X208435472Y-102834862D01*
X208525948Y-102834862D01*
X208661663Y-102789624D01*
X208706901Y-102744386D01*
X208706901Y-102427719D01*
X208525948Y-102427719D01*
X209114043Y-102834862D02*
X209114043Y-101884862D01*
X209656901Y-102834862D01*
X209656901Y-101884862D01*
X210064043Y-102563433D02*
X210516424Y-102563433D01*
X209973567Y-102834862D02*
X210290234Y-101884862D01*
X210606901Y-102834862D01*
X211375948Y-102834862D02*
X210923567Y-102834862D01*
X210923567Y-101884862D01*
X211466425Y-102925338D02*
X212190235Y-102925338D01*
X212416425Y-102834862D02*
X212416425Y-101884862D01*
X212959283Y-102834862D01*
X212959283Y-101884862D01*
X213366425Y-102563433D02*
X213818806Y-102563433D01*
X213275949Y-102834862D02*
X213592616Y-101884862D01*
X213909283Y-102834862D01*
X214225949Y-102834862D02*
X214225949Y-101884862D01*
X214542616Y-102563433D01*
X214859283Y-101884862D01*
X214859283Y-102834862D01*
X215311663Y-102337243D02*
X215628330Y-102337243D01*
X215764044Y-102834862D02*
X215311663Y-102834862D01*
X215311663Y-101884862D01*
X215764044Y-101884862D01*
X156293890Y-102176129D02*
X157017700Y-102447557D01*
X156293890Y-102718986D01*
X157334366Y-101859462D02*
X157877223Y-101859462D01*
X157605795Y-102809462D02*
X157605795Y-101859462D01*
X158193890Y-102809462D02*
X158193890Y-101859462D01*
X158555795Y-101859462D01*
X158646271Y-101904700D01*
X158691510Y-101949938D01*
X158736748Y-102040414D01*
X158736748Y-102176129D01*
X158691510Y-102266605D01*
X158646271Y-102311843D01*
X158555795Y-102357081D01*
X158193890Y-102357081D01*
X158917700Y-102899938D02*
X159641510Y-102899938D01*
X159822462Y-102764224D02*
X159958177Y-102809462D01*
X160184367Y-102809462D01*
X160274843Y-102764224D01*
X160320081Y-102718986D01*
X160365320Y-102628510D01*
X160365320Y-102538033D01*
X160320081Y-102447557D01*
X160274843Y-102402319D01*
X160184367Y-102357081D01*
X160003415Y-102311843D01*
X159912939Y-102266605D01*
X159867700Y-102221367D01*
X159822462Y-102130890D01*
X159822462Y-102040414D01*
X159867700Y-101949938D01*
X159912939Y-101904700D01*
X160003415Y-101859462D01*
X160229605Y-101859462D01*
X160365320Y-101904700D01*
X160772462Y-102809462D02*
X160772462Y-101859462D01*
X161722463Y-101904700D02*
X161631986Y-101859462D01*
X161496272Y-101859462D01*
X161360558Y-101904700D01*
X161270082Y-101995176D01*
X161224843Y-102085652D01*
X161179605Y-102266605D01*
X161179605Y-102402319D01*
X161224843Y-102583271D01*
X161270082Y-102673748D01*
X161360558Y-102764224D01*
X161496272Y-102809462D01*
X161586748Y-102809462D01*
X161722463Y-102764224D01*
X161767701Y-102718986D01*
X161767701Y-102402319D01*
X161586748Y-102402319D01*
X162174843Y-102809462D02*
X162174843Y-101859462D01*
X162717701Y-102809462D01*
X162717701Y-101859462D01*
X163124843Y-102538033D02*
X163577224Y-102538033D01*
X163034367Y-102809462D02*
X163351034Y-101859462D01*
X163667701Y-102809462D01*
X164436748Y-102809462D02*
X163984367Y-102809462D01*
X163984367Y-101859462D01*
X164527225Y-102899938D02*
X165251035Y-102899938D01*
X165477225Y-102809462D02*
X165477225Y-101859462D01*
X166020083Y-102809462D01*
X166020083Y-101859462D01*
X166427225Y-102538033D02*
X166879606Y-102538033D01*
X166336749Y-102809462D02*
X166653416Y-101859462D01*
X166970083Y-102809462D01*
X167286749Y-102809462D02*
X167286749Y-101859462D01*
X167603416Y-102538033D01*
X167920083Y-101859462D01*
X167920083Y-102809462D01*
X168372463Y-102311843D02*
X168689130Y-102311843D01*
X168824844Y-102809462D02*
X168372463Y-102809462D01*
X168372463Y-101859462D01*
X168824844Y-101859462D01*
X186281290Y-115832329D02*
X187005100Y-116103757D01*
X186281290Y-116375186D01*
X187321766Y-115515662D02*
X187864623Y-115515662D01*
X187593195Y-116465662D02*
X187593195Y-115515662D01*
X188181290Y-116465662D02*
X188181290Y-115515662D01*
X188543195Y-115515662D01*
X188633671Y-115560900D01*
X188678910Y-115606138D01*
X188724148Y-115696614D01*
X188724148Y-115832329D01*
X188678910Y-115922805D01*
X188633671Y-115968043D01*
X188543195Y-116013281D01*
X188181290Y-116013281D01*
X188905100Y-116556138D02*
X189628910Y-116556138D01*
X189809862Y-116420424D02*
X189945577Y-116465662D01*
X190171767Y-116465662D01*
X190262243Y-116420424D01*
X190307481Y-116375186D01*
X190352720Y-116284710D01*
X190352720Y-116194233D01*
X190307481Y-116103757D01*
X190262243Y-116058519D01*
X190171767Y-116013281D01*
X189990815Y-115968043D01*
X189900339Y-115922805D01*
X189855100Y-115877567D01*
X189809862Y-115787090D01*
X189809862Y-115696614D01*
X189855100Y-115606138D01*
X189900339Y-115560900D01*
X189990815Y-115515662D01*
X190217005Y-115515662D01*
X190352720Y-115560900D01*
X190759862Y-116465662D02*
X190759862Y-115515662D01*
X191709863Y-115560900D02*
X191619386Y-115515662D01*
X191483672Y-115515662D01*
X191347958Y-115560900D01*
X191257482Y-115651376D01*
X191212243Y-115741852D01*
X191167005Y-115922805D01*
X191167005Y-116058519D01*
X191212243Y-116239471D01*
X191257482Y-116329948D01*
X191347958Y-116420424D01*
X191483672Y-116465662D01*
X191574148Y-116465662D01*
X191709863Y-116420424D01*
X191755101Y-116375186D01*
X191755101Y-116058519D01*
X191574148Y-116058519D01*
X192162243Y-116465662D02*
X192162243Y-115515662D01*
X192705101Y-116465662D01*
X192705101Y-115515662D01*
X193112243Y-116194233D02*
X193564624Y-116194233D01*
X193021767Y-116465662D02*
X193338434Y-115515662D01*
X193655101Y-116465662D01*
X194424148Y-116465662D02*
X193971767Y-116465662D01*
X193971767Y-115515662D01*
X194514625Y-116556138D02*
X195238435Y-116556138D01*
X195464625Y-116465662D02*
X195464625Y-115515662D01*
X196007483Y-116465662D01*
X196007483Y-115515662D01*
X196414625Y-116194233D02*
X196867006Y-116194233D01*
X196324149Y-116465662D02*
X196640816Y-115515662D01*
X196957483Y-116465662D01*
X197274149Y-116465662D02*
X197274149Y-115515662D01*
X197590816Y-116194233D01*
X197907483Y-115515662D01*
X197907483Y-116465662D01*
X198359863Y-115968043D02*
X198676530Y-115968043D01*
X198812244Y-116465662D02*
X198359863Y-116465662D01*
X198359863Y-115515662D01*
X198812244Y-115515662D01*
X170296690Y-99814929D02*
X171020500Y-100086357D01*
X170296690Y-100357786D01*
X171337166Y-99498262D02*
X171880023Y-99498262D01*
X171608595Y-100448262D02*
X171608595Y-99498262D01*
X172196690Y-100448262D02*
X172196690Y-99498262D01*
X172558595Y-99498262D01*
X172649071Y-99543500D01*
X172694310Y-99588738D01*
X172739548Y-99679214D01*
X172739548Y-99814929D01*
X172694310Y-99905405D01*
X172649071Y-99950643D01*
X172558595Y-99995881D01*
X172196690Y-99995881D01*
X172920500Y-100538738D02*
X173644310Y-100538738D01*
X173825262Y-100403024D02*
X173960977Y-100448262D01*
X174187167Y-100448262D01*
X174277643Y-100403024D01*
X174322881Y-100357786D01*
X174368120Y-100267310D01*
X174368120Y-100176833D01*
X174322881Y-100086357D01*
X174277643Y-100041119D01*
X174187167Y-99995881D01*
X174006215Y-99950643D01*
X173915739Y-99905405D01*
X173870500Y-99860167D01*
X173825262Y-99769690D01*
X173825262Y-99679214D01*
X173870500Y-99588738D01*
X173915739Y-99543500D01*
X174006215Y-99498262D01*
X174232405Y-99498262D01*
X174368120Y-99543500D01*
X174775262Y-100448262D02*
X174775262Y-99498262D01*
X175725263Y-99543500D02*
X175634786Y-99498262D01*
X175499072Y-99498262D01*
X175363358Y-99543500D01*
X175272882Y-99633976D01*
X175227643Y-99724452D01*
X175182405Y-99905405D01*
X175182405Y-100041119D01*
X175227643Y-100222071D01*
X175272882Y-100312548D01*
X175363358Y-100403024D01*
X175499072Y-100448262D01*
X175589548Y-100448262D01*
X175725263Y-100403024D01*
X175770501Y-100357786D01*
X175770501Y-100041119D01*
X175589548Y-100041119D01*
X176177643Y-100448262D02*
X176177643Y-99498262D01*
X176720501Y-100448262D01*
X176720501Y-99498262D01*
X177127643Y-100176833D02*
X177580024Y-100176833D01*
X177037167Y-100448262D02*
X177353834Y-99498262D01*
X177670501Y-100448262D01*
X178439548Y-100448262D02*
X177987167Y-100448262D01*
X177987167Y-99498262D01*
X178530025Y-100538738D02*
X179253835Y-100538738D01*
X179480025Y-100448262D02*
X179480025Y-99498262D01*
X180022883Y-100448262D01*
X180022883Y-99498262D01*
X180430025Y-100176833D02*
X180882406Y-100176833D01*
X180339549Y-100448262D02*
X180656216Y-99498262D01*
X180972883Y-100448262D01*
X181289549Y-100448262D02*
X181289549Y-99498262D01*
X181606216Y-100176833D01*
X181922883Y-99498262D01*
X181922883Y-100448262D01*
X182375263Y-99950643D02*
X182691930Y-99950643D01*
X182827644Y-100448262D02*
X182375263Y-100448262D01*
X182375263Y-99498262D01*
X182827644Y-99498262D01*
X166409690Y-95740129D02*
X167133500Y-96011557D01*
X166409690Y-96282986D01*
X167450166Y-95423462D02*
X167993023Y-95423462D01*
X167721595Y-96373462D02*
X167721595Y-95423462D01*
X168309690Y-96373462D02*
X168309690Y-95423462D01*
X168671595Y-95423462D01*
X168762071Y-95468700D01*
X168807310Y-95513938D01*
X168852548Y-95604414D01*
X168852548Y-95740129D01*
X168807310Y-95830605D01*
X168762071Y-95875843D01*
X168671595Y-95921081D01*
X168309690Y-95921081D01*
X169033500Y-96463938D02*
X169757310Y-96463938D01*
X169938262Y-96328224D02*
X170073977Y-96373462D01*
X170300167Y-96373462D01*
X170390643Y-96328224D01*
X170435881Y-96282986D01*
X170481120Y-96192510D01*
X170481120Y-96102033D01*
X170435881Y-96011557D01*
X170390643Y-95966319D01*
X170300167Y-95921081D01*
X170119215Y-95875843D01*
X170028739Y-95830605D01*
X169983500Y-95785367D01*
X169938262Y-95694890D01*
X169938262Y-95604414D01*
X169983500Y-95513938D01*
X170028739Y-95468700D01*
X170119215Y-95423462D01*
X170345405Y-95423462D01*
X170481120Y-95468700D01*
X170888262Y-96373462D02*
X170888262Y-95423462D01*
X171838263Y-95468700D02*
X171747786Y-95423462D01*
X171612072Y-95423462D01*
X171476358Y-95468700D01*
X171385882Y-95559176D01*
X171340643Y-95649652D01*
X171295405Y-95830605D01*
X171295405Y-95966319D01*
X171340643Y-96147271D01*
X171385882Y-96237748D01*
X171476358Y-96328224D01*
X171612072Y-96373462D01*
X171702548Y-96373462D01*
X171838263Y-96328224D01*
X171883501Y-96282986D01*
X171883501Y-95966319D01*
X171702548Y-95966319D01*
X172290643Y-96373462D02*
X172290643Y-95423462D01*
X172833501Y-96373462D01*
X172833501Y-95423462D01*
X173240643Y-96102033D02*
X173693024Y-96102033D01*
X173150167Y-96373462D02*
X173466834Y-95423462D01*
X173783501Y-96373462D01*
X174552548Y-96373462D02*
X174100167Y-96373462D01*
X174100167Y-95423462D01*
X174643025Y-96463938D02*
X175366835Y-96463938D01*
X175593025Y-96373462D02*
X175593025Y-95423462D01*
X176135883Y-96373462D01*
X176135883Y-95423462D01*
X176543025Y-96102033D02*
X176995406Y-96102033D01*
X176452549Y-96373462D02*
X176769216Y-95423462D01*
X177085883Y-96373462D01*
X177402549Y-96373462D02*
X177402549Y-95423462D01*
X177719216Y-96102033D01*
X178035883Y-95423462D01*
X178035883Y-96373462D01*
X178488263Y-95875843D02*
X178804930Y-95875843D01*
X178940644Y-96373462D02*
X178488263Y-96373462D01*
X178488263Y-95423462D01*
X178940644Y-95423462D01*
X190365490Y-119703129D02*
X191089300Y-119974557D01*
X190365490Y-120245986D01*
X191405966Y-119386462D02*
X191948823Y-119386462D01*
X191677395Y-120336462D02*
X191677395Y-119386462D01*
X192265490Y-120336462D02*
X192265490Y-119386462D01*
X192627395Y-119386462D01*
X192717871Y-119431700D01*
X192763110Y-119476938D01*
X192808348Y-119567414D01*
X192808348Y-119703129D01*
X192763110Y-119793605D01*
X192717871Y-119838843D01*
X192627395Y-119884081D01*
X192265490Y-119884081D01*
X192989300Y-120426938D02*
X193713110Y-120426938D01*
X193894062Y-120291224D02*
X194029777Y-120336462D01*
X194255967Y-120336462D01*
X194346443Y-120291224D01*
X194391681Y-120245986D01*
X194436920Y-120155510D01*
X194436920Y-120065033D01*
X194391681Y-119974557D01*
X194346443Y-119929319D01*
X194255967Y-119884081D01*
X194075015Y-119838843D01*
X193984539Y-119793605D01*
X193939300Y-119748367D01*
X193894062Y-119657890D01*
X193894062Y-119567414D01*
X193939300Y-119476938D01*
X193984539Y-119431700D01*
X194075015Y-119386462D01*
X194301205Y-119386462D01*
X194436920Y-119431700D01*
X194844062Y-120336462D02*
X194844062Y-119386462D01*
X195794063Y-119431700D02*
X195703586Y-119386462D01*
X195567872Y-119386462D01*
X195432158Y-119431700D01*
X195341682Y-119522176D01*
X195296443Y-119612652D01*
X195251205Y-119793605D01*
X195251205Y-119929319D01*
X195296443Y-120110271D01*
X195341682Y-120200748D01*
X195432158Y-120291224D01*
X195567872Y-120336462D01*
X195658348Y-120336462D01*
X195794063Y-120291224D01*
X195839301Y-120245986D01*
X195839301Y-119929319D01*
X195658348Y-119929319D01*
X196246443Y-120336462D02*
X196246443Y-119386462D01*
X196789301Y-120336462D01*
X196789301Y-119386462D01*
X197196443Y-120065033D02*
X197648824Y-120065033D01*
X197105967Y-120336462D02*
X197422634Y-119386462D01*
X197739301Y-120336462D01*
X198508348Y-120336462D02*
X198055967Y-120336462D01*
X198055967Y-119386462D01*
X198598825Y-120426938D02*
X199322635Y-120426938D01*
X199548825Y-120336462D02*
X199548825Y-119386462D01*
X200091683Y-120336462D01*
X200091683Y-119386462D01*
X200498825Y-120065033D02*
X200951206Y-120065033D01*
X200408349Y-120336462D02*
X200725016Y-119386462D01*
X201041683Y-120336462D01*
X201358349Y-120336462D02*
X201358349Y-119386462D01*
X201675016Y-120065033D01*
X201991683Y-119386462D01*
X201991683Y-120336462D01*
X202444063Y-119838843D02*
X202760730Y-119838843D01*
X202896444Y-120336462D02*
X202444063Y-120336462D01*
X202444063Y-119386462D01*
X202896444Y-119386462D01*
X198372490Y-127713129D02*
X199096300Y-127984557D01*
X198372490Y-128255986D01*
X199412966Y-127396462D02*
X199955823Y-127396462D01*
X199684395Y-128346462D02*
X199684395Y-127396462D01*
X200272490Y-128346462D02*
X200272490Y-127396462D01*
X200634395Y-127396462D01*
X200724871Y-127441700D01*
X200770110Y-127486938D01*
X200815348Y-127577414D01*
X200815348Y-127713129D01*
X200770110Y-127803605D01*
X200724871Y-127848843D01*
X200634395Y-127894081D01*
X200272490Y-127894081D01*
X200996300Y-128436938D02*
X201720110Y-128436938D01*
X201901062Y-128301224D02*
X202036777Y-128346462D01*
X202262967Y-128346462D01*
X202353443Y-128301224D01*
X202398681Y-128255986D01*
X202443920Y-128165510D01*
X202443920Y-128075033D01*
X202398681Y-127984557D01*
X202353443Y-127939319D01*
X202262967Y-127894081D01*
X202082015Y-127848843D01*
X201991539Y-127803605D01*
X201946300Y-127758367D01*
X201901062Y-127667890D01*
X201901062Y-127577414D01*
X201946300Y-127486938D01*
X201991539Y-127441700D01*
X202082015Y-127396462D01*
X202308205Y-127396462D01*
X202443920Y-127441700D01*
X202851062Y-128346462D02*
X202851062Y-127396462D01*
X203801063Y-127441700D02*
X203710586Y-127396462D01*
X203574872Y-127396462D01*
X203439158Y-127441700D01*
X203348682Y-127532176D01*
X203303443Y-127622652D01*
X203258205Y-127803605D01*
X203258205Y-127939319D01*
X203303443Y-128120271D01*
X203348682Y-128210748D01*
X203439158Y-128301224D01*
X203574872Y-128346462D01*
X203665348Y-128346462D01*
X203801063Y-128301224D01*
X203846301Y-128255986D01*
X203846301Y-127939319D01*
X203665348Y-127939319D01*
X204253443Y-128346462D02*
X204253443Y-127396462D01*
X204796301Y-128346462D01*
X204796301Y-127396462D01*
X205203443Y-128075033D02*
X205655824Y-128075033D01*
X205112967Y-128346462D02*
X205429634Y-127396462D01*
X205746301Y-128346462D01*
X206515348Y-128346462D02*
X206062967Y-128346462D01*
X206062967Y-127396462D01*
X206605825Y-128436938D02*
X207329635Y-128436938D01*
X207555825Y-128346462D02*
X207555825Y-127396462D01*
X208098683Y-128346462D01*
X208098683Y-127396462D01*
X208505825Y-128075033D02*
X208958206Y-128075033D01*
X208415349Y-128346462D02*
X208732016Y-127396462D01*
X209048683Y-128346462D01*
X209365349Y-128346462D02*
X209365349Y-127396462D01*
X209682016Y-128075033D01*
X209998683Y-127396462D01*
X209998683Y-128346462D01*
X210451063Y-127848843D02*
X210767730Y-127848843D01*
X210903444Y-128346462D02*
X210451063Y-128346462D01*
X210451063Y-127396462D01*
X210903444Y-127396462D01*
X158403690Y-87694729D02*
X159127500Y-87966157D01*
X158403690Y-88237586D01*
X159444166Y-87378062D02*
X159987023Y-87378062D01*
X159715595Y-88328062D02*
X159715595Y-87378062D01*
X160303690Y-88328062D02*
X160303690Y-87378062D01*
X160665595Y-87378062D01*
X160756071Y-87423300D01*
X160801310Y-87468538D01*
X160846548Y-87559014D01*
X160846548Y-87694729D01*
X160801310Y-87785205D01*
X160756071Y-87830443D01*
X160665595Y-87875681D01*
X160303690Y-87875681D01*
X161027500Y-88418538D02*
X161751310Y-88418538D01*
X161932262Y-88282824D02*
X162067977Y-88328062D01*
X162294167Y-88328062D01*
X162384643Y-88282824D01*
X162429881Y-88237586D01*
X162475120Y-88147110D01*
X162475120Y-88056633D01*
X162429881Y-87966157D01*
X162384643Y-87920919D01*
X162294167Y-87875681D01*
X162113215Y-87830443D01*
X162022739Y-87785205D01*
X161977500Y-87739967D01*
X161932262Y-87649490D01*
X161932262Y-87559014D01*
X161977500Y-87468538D01*
X162022739Y-87423300D01*
X162113215Y-87378062D01*
X162339405Y-87378062D01*
X162475120Y-87423300D01*
X162882262Y-88328062D02*
X162882262Y-87378062D01*
X163832263Y-87423300D02*
X163741786Y-87378062D01*
X163606072Y-87378062D01*
X163470358Y-87423300D01*
X163379882Y-87513776D01*
X163334643Y-87604252D01*
X163289405Y-87785205D01*
X163289405Y-87920919D01*
X163334643Y-88101871D01*
X163379882Y-88192348D01*
X163470358Y-88282824D01*
X163606072Y-88328062D01*
X163696548Y-88328062D01*
X163832263Y-88282824D01*
X163877501Y-88237586D01*
X163877501Y-87920919D01*
X163696548Y-87920919D01*
X164284643Y-88328062D02*
X164284643Y-87378062D01*
X164827501Y-88328062D01*
X164827501Y-87378062D01*
X165234643Y-88056633D02*
X165687024Y-88056633D01*
X165144167Y-88328062D02*
X165460834Y-87378062D01*
X165777501Y-88328062D01*
X166546548Y-88328062D02*
X166094167Y-88328062D01*
X166094167Y-87378062D01*
X166637025Y-88418538D02*
X167360835Y-88418538D01*
X167587025Y-88328062D02*
X167587025Y-87378062D01*
X168129883Y-88328062D01*
X168129883Y-87378062D01*
X168537025Y-88056633D02*
X168989406Y-88056633D01*
X168446549Y-88328062D02*
X168763216Y-87378062D01*
X169079883Y-88328062D01*
X169396549Y-88328062D02*
X169396549Y-87378062D01*
X169713216Y-88056633D01*
X170029883Y-87378062D01*
X170029883Y-88328062D01*
X170482263Y-87830443D02*
X170798930Y-87830443D01*
X170934644Y-88328062D02*
X170482263Y-88328062D01*
X170482263Y-87378062D01*
X170934644Y-87378062D01*
X162323490Y-91860529D02*
X163047300Y-92131957D01*
X162323490Y-92403386D01*
X163363966Y-91543862D02*
X163906823Y-91543862D01*
X163635395Y-92493862D02*
X163635395Y-91543862D01*
X164223490Y-92493862D02*
X164223490Y-91543862D01*
X164585395Y-91543862D01*
X164675871Y-91589100D01*
X164721110Y-91634338D01*
X164766348Y-91724814D01*
X164766348Y-91860529D01*
X164721110Y-91951005D01*
X164675871Y-91996243D01*
X164585395Y-92041481D01*
X164223490Y-92041481D01*
X164947300Y-92584338D02*
X165671110Y-92584338D01*
X165852062Y-92448624D02*
X165987777Y-92493862D01*
X166213967Y-92493862D01*
X166304443Y-92448624D01*
X166349681Y-92403386D01*
X166394920Y-92312910D01*
X166394920Y-92222433D01*
X166349681Y-92131957D01*
X166304443Y-92086719D01*
X166213967Y-92041481D01*
X166033015Y-91996243D01*
X165942539Y-91951005D01*
X165897300Y-91905767D01*
X165852062Y-91815290D01*
X165852062Y-91724814D01*
X165897300Y-91634338D01*
X165942539Y-91589100D01*
X166033015Y-91543862D01*
X166259205Y-91543862D01*
X166394920Y-91589100D01*
X166802062Y-92493862D02*
X166802062Y-91543862D01*
X167752063Y-91589100D02*
X167661586Y-91543862D01*
X167525872Y-91543862D01*
X167390158Y-91589100D01*
X167299682Y-91679576D01*
X167254443Y-91770052D01*
X167209205Y-91951005D01*
X167209205Y-92086719D01*
X167254443Y-92267671D01*
X167299682Y-92358148D01*
X167390158Y-92448624D01*
X167525872Y-92493862D01*
X167616348Y-92493862D01*
X167752063Y-92448624D01*
X167797301Y-92403386D01*
X167797301Y-92086719D01*
X167616348Y-92086719D01*
X168204443Y-92493862D02*
X168204443Y-91543862D01*
X168747301Y-92493862D01*
X168747301Y-91543862D01*
X169154443Y-92222433D02*
X169606824Y-92222433D01*
X169063967Y-92493862D02*
X169380634Y-91543862D01*
X169697301Y-92493862D01*
X170466348Y-92493862D02*
X170013967Y-92493862D01*
X170013967Y-91543862D01*
X170556825Y-92584338D02*
X171280635Y-92584338D01*
X171506825Y-92493862D02*
X171506825Y-91543862D01*
X172049683Y-92493862D01*
X172049683Y-91543862D01*
X172456825Y-92222433D02*
X172909206Y-92222433D01*
X172366349Y-92493862D02*
X172683016Y-91543862D01*
X172999683Y-92493862D01*
X173316349Y-92493862D02*
X173316349Y-91543862D01*
X173633016Y-92222433D01*
X173949683Y-91543862D01*
X173949683Y-92493862D01*
X174402063Y-91996243D02*
X174718730Y-91996243D01*
X174854444Y-92493862D02*
X174402063Y-92493862D01*
X174402063Y-91543862D01*
X174854444Y-91543862D01*
X194335490Y-123828329D02*
X195059300Y-124099757D01*
X194335490Y-124371186D01*
X195375966Y-123511662D02*
X195918823Y-123511662D01*
X195647395Y-124461662D02*
X195647395Y-123511662D01*
X196235490Y-124461662D02*
X196235490Y-123511662D01*
X196597395Y-123511662D01*
X196687871Y-123556900D01*
X196733110Y-123602138D01*
X196778348Y-123692614D01*
X196778348Y-123828329D01*
X196733110Y-123918805D01*
X196687871Y-123964043D01*
X196597395Y-124009281D01*
X196235490Y-124009281D01*
X196959300Y-124552138D02*
X197683110Y-124552138D01*
X197864062Y-124416424D02*
X197999777Y-124461662D01*
X198225967Y-124461662D01*
X198316443Y-124416424D01*
X198361681Y-124371186D01*
X198406920Y-124280710D01*
X198406920Y-124190233D01*
X198361681Y-124099757D01*
X198316443Y-124054519D01*
X198225967Y-124009281D01*
X198045015Y-123964043D01*
X197954539Y-123918805D01*
X197909300Y-123873567D01*
X197864062Y-123783090D01*
X197864062Y-123692614D01*
X197909300Y-123602138D01*
X197954539Y-123556900D01*
X198045015Y-123511662D01*
X198271205Y-123511662D01*
X198406920Y-123556900D01*
X198814062Y-124461662D02*
X198814062Y-123511662D01*
X199764063Y-123556900D02*
X199673586Y-123511662D01*
X199537872Y-123511662D01*
X199402158Y-123556900D01*
X199311682Y-123647376D01*
X199266443Y-123737852D01*
X199221205Y-123918805D01*
X199221205Y-124054519D01*
X199266443Y-124235471D01*
X199311682Y-124325948D01*
X199402158Y-124416424D01*
X199537872Y-124461662D01*
X199628348Y-124461662D01*
X199764063Y-124416424D01*
X199809301Y-124371186D01*
X199809301Y-124054519D01*
X199628348Y-124054519D01*
X200216443Y-124461662D02*
X200216443Y-123511662D01*
X200759301Y-124461662D01*
X200759301Y-123511662D01*
X201166443Y-124190233D02*
X201618824Y-124190233D01*
X201075967Y-124461662D02*
X201392634Y-123511662D01*
X201709301Y-124461662D01*
X202478348Y-124461662D02*
X202025967Y-124461662D01*
X202025967Y-123511662D01*
X202568825Y-124552138D02*
X203292635Y-124552138D01*
X203518825Y-124461662D02*
X203518825Y-123511662D01*
X204061683Y-124461662D01*
X204061683Y-123511662D01*
X204468825Y-124190233D02*
X204921206Y-124190233D01*
X204378349Y-124461662D02*
X204695016Y-123511662D01*
X205011683Y-124461662D01*
X205328349Y-124461662D02*
X205328349Y-123511662D01*
X205645016Y-124190233D01*
X205961683Y-123511662D01*
X205961683Y-124461662D01*
X206414063Y-123964043D02*
X206730730Y-123964043D01*
X206866444Y-124461662D02*
X206414063Y-124461662D01*
X206414063Y-123511662D01*
X206866444Y-123511662D01*
M02*
