G04 #@! TF.FileFunction,Drawing*
%FSLAX46Y46*%
G04 Gerber Fmt 4.6, Leading zero omitted, Abs format (unit mm)*
G04 Created by KiCad (PCBNEW 4.0.6) date 05/08/17 07:17:05*
%MOMM*%
%LPD*%
G01*
G04 APERTURE LIST*
%ADD10C,0.100000*%
%ADD11C,0.101600*%
%ADD12C,0.152400*%
%ADD13C,0.127000*%
G04 APERTURE END LIST*
D10*
D11*
X176190100Y-104343900D02*
G75*
G03X176890100Y-104343900I350000J0D01*
G01*
X176190100Y-106343900D02*
G75*
G02X176890100Y-106343900I350000J0D01*
G01*
X175965100Y-104818900D02*
X175965100Y-105868900D01*
X177115100Y-105843900D02*
X177115100Y-104418900D01*
X177093100Y-104493900D02*
G75*
G03X177093100Y-104493900I-103000J0D01*
G01*
D10*
G36*
X176240100Y-104843900D02*
X175915100Y-104843900D01*
X175915100Y-104343900D01*
X176240100Y-104343900D01*
X176240100Y-104843900D01*
G37*
G36*
X176865100Y-104843900D02*
X176715100Y-104843900D01*
X176715100Y-104593900D01*
X176865100Y-104593900D01*
X176865100Y-104843900D01*
G37*
G36*
X176365100Y-104843900D02*
X176215100Y-104843900D01*
X176215100Y-104593900D01*
X176365100Y-104593900D01*
X176365100Y-104843900D01*
G37*
G36*
X176740100Y-104843900D02*
X176340100Y-104843900D01*
X176340100Y-104668900D01*
X176740100Y-104668900D01*
X176740100Y-104843900D01*
G37*
G36*
X176240100Y-106343900D02*
X175915100Y-106343900D01*
X175915100Y-105843900D01*
X176240100Y-105843900D01*
X176240100Y-106343900D01*
G37*
G36*
X177165100Y-106343900D02*
X176840100Y-106343900D01*
X176840100Y-105843900D01*
X177165100Y-105843900D01*
X177165100Y-106343900D01*
G37*
G36*
X176365100Y-106093900D02*
X176215100Y-106093900D01*
X176215100Y-105843900D01*
X176365100Y-105843900D01*
X176365100Y-106093900D01*
G37*
G36*
X176865100Y-106093900D02*
X176715100Y-106093900D01*
X176715100Y-105843900D01*
X176865100Y-105843900D01*
X176865100Y-106093900D01*
G37*
G36*
X176740100Y-106018900D02*
X176340100Y-106018900D01*
X176340100Y-105843900D01*
X176740100Y-105843900D01*
X176740100Y-106018900D01*
G37*
G36*
X177140100Y-104843900D02*
X176840100Y-104843900D01*
X176840100Y-104543900D01*
X177140100Y-104543900D01*
X177140100Y-104843900D01*
G37*
G36*
X177165100Y-104418900D02*
X176940100Y-104418900D01*
X176940100Y-104343900D01*
X177165100Y-104343900D01*
X177165100Y-104418900D01*
G37*
D11*
X191211900Y-80076500D02*
G75*
G02X191211900Y-80776500I0J-350000D01*
G01*
X193211900Y-80076500D02*
G75*
G03X193211900Y-80776500I0J-350000D01*
G01*
X191686900Y-79851500D02*
X192736900Y-79851500D01*
X192711900Y-81001500D02*
X191286900Y-81001500D01*
X191464900Y-80876500D02*
G75*
G03X191464900Y-80876500I-103000J0D01*
G01*
D10*
G36*
X191711900Y-80126500D02*
X191711900Y-79801500D01*
X191211900Y-79801500D01*
X191211900Y-80126500D01*
X191711900Y-80126500D01*
G37*
G36*
X191711900Y-80751500D02*
X191711900Y-80601500D01*
X191461900Y-80601500D01*
X191461900Y-80751500D01*
X191711900Y-80751500D01*
G37*
G36*
X191711900Y-80251500D02*
X191711900Y-80101500D01*
X191461900Y-80101500D01*
X191461900Y-80251500D01*
X191711900Y-80251500D01*
G37*
G36*
X191711900Y-80626500D02*
X191711900Y-80226500D01*
X191536900Y-80226500D01*
X191536900Y-80626500D01*
X191711900Y-80626500D01*
G37*
G36*
X193211900Y-80126500D02*
X193211900Y-79801500D01*
X192711900Y-79801500D01*
X192711900Y-80126500D01*
X193211900Y-80126500D01*
G37*
G36*
X193211900Y-81051500D02*
X193211900Y-80726500D01*
X192711900Y-80726500D01*
X192711900Y-81051500D01*
X193211900Y-81051500D01*
G37*
G36*
X192961900Y-80251500D02*
X192961900Y-80101500D01*
X192711900Y-80101500D01*
X192711900Y-80251500D01*
X192961900Y-80251500D01*
G37*
G36*
X192961900Y-80751500D02*
X192961900Y-80601500D01*
X192711900Y-80601500D01*
X192711900Y-80751500D01*
X192961900Y-80751500D01*
G37*
G36*
X192886900Y-80626500D02*
X192886900Y-80226500D01*
X192711900Y-80226500D01*
X192711900Y-80626500D01*
X192886900Y-80626500D01*
G37*
G36*
X191711900Y-81026500D02*
X191711900Y-80726500D01*
X191411900Y-80726500D01*
X191411900Y-81026500D01*
X191711900Y-81026500D01*
G37*
G36*
X191286900Y-81051500D02*
X191286900Y-80826500D01*
X191211900Y-80826500D01*
X191211900Y-81051500D01*
X191286900Y-81051500D01*
G37*
D12*
X177175100Y-104933900D02*
X177175100Y-105753900D01*
X175905100Y-104933900D02*
X175905100Y-105753900D01*
D10*
G36*
X175841600Y-105750300D02*
X175841600Y-106400300D01*
X177241600Y-106400300D01*
X177241600Y-105750300D01*
X175841600Y-105750300D01*
G37*
G36*
X175841600Y-104277100D02*
X175841600Y-104927100D01*
X177241600Y-104927100D01*
X177241600Y-104277100D01*
X175841600Y-104277100D01*
G37*
D12*
X191706100Y-82896700D02*
X191706100Y-83716700D01*
X190436100Y-82896700D02*
X190436100Y-83716700D01*
D10*
G36*
X190372600Y-83713100D02*
X190372600Y-84363100D01*
X191772600Y-84363100D01*
X191772600Y-83713100D01*
X190372600Y-83713100D01*
G37*
G36*
X190372600Y-82239900D02*
X190372600Y-82889900D01*
X191772600Y-82889900D01*
X191772600Y-82239900D01*
X190372600Y-82239900D01*
G37*
D12*
X179816700Y-105525300D02*
X179816700Y-104705300D01*
X181086700Y-105525300D02*
X181086700Y-104705300D01*
D10*
G36*
X181150200Y-104708900D02*
X181150200Y-104058900D01*
X179750200Y-104058900D01*
X179750200Y-104708900D01*
X181150200Y-104708900D01*
G37*
G36*
X181150200Y-106182100D02*
X181150200Y-105532100D01*
X179750200Y-105532100D01*
X179750200Y-106182100D01*
X181150200Y-106182100D01*
G37*
D12*
X191471700Y-123936700D02*
X192291700Y-123936700D01*
X191471700Y-125206700D02*
X192291700Y-125206700D01*
D10*
G36*
X192288100Y-125270200D02*
X192938100Y-125270200D01*
X192938100Y-123870200D01*
X192288100Y-123870200D01*
X192288100Y-125270200D01*
G37*
G36*
X190814900Y-125270200D02*
X191464900Y-125270200D01*
X191464900Y-123870200D01*
X190814900Y-123870200D01*
X190814900Y-125270200D01*
G37*
D12*
X196758500Y-80988900D02*
X196758500Y-80168900D01*
X198028500Y-80988900D02*
X198028500Y-80168900D01*
D10*
G36*
X198092000Y-80172500D02*
X198092000Y-79522500D01*
X196692000Y-79522500D01*
X196692000Y-80172500D01*
X198092000Y-80172500D01*
G37*
G36*
X198092000Y-81645700D02*
X198092000Y-80995700D01*
X196692000Y-80995700D01*
X196692000Y-81645700D01*
X198092000Y-81645700D01*
G37*
D12*
X191420900Y-126817900D02*
X192240900Y-126817900D01*
X191420900Y-128087900D02*
X192240900Y-128087900D01*
D10*
G36*
X192237300Y-128151400D02*
X192887300Y-128151400D01*
X192887300Y-126751400D01*
X192237300Y-126751400D01*
X192237300Y-128151400D01*
G37*
G36*
X190764100Y-128151400D02*
X191414100Y-128151400D01*
X191414100Y-126751400D01*
X190764100Y-126751400D01*
X190764100Y-128151400D01*
G37*
D13*
X178451300Y-103089500D02*
X182401300Y-103089500D01*
X182401300Y-103089500D02*
X182401300Y-107039500D01*
X182401300Y-107039500D02*
X178451300Y-107039500D01*
X178451300Y-107039500D02*
X178451300Y-103089500D01*
D12*
X194619300Y-87155500D02*
X194619300Y-87975500D01*
X193349300Y-87155500D02*
X193349300Y-87975500D01*
D10*
G36*
X193285800Y-87971900D02*
X193285800Y-88621900D01*
X194685800Y-88621900D01*
X194685800Y-87971900D01*
X193285800Y-87971900D01*
G37*
G36*
X193285800Y-86498700D02*
X193285800Y-87148700D01*
X194685800Y-87148700D01*
X194685800Y-86498700D01*
X193285800Y-86498700D01*
G37*
D12*
X191986300Y-87188900D02*
X191986300Y-88008900D01*
X190716300Y-87188900D02*
X190716300Y-88008900D01*
D10*
G36*
X190652800Y-88005300D02*
X190652800Y-88655300D01*
X192052800Y-88655300D01*
X192052800Y-88005300D01*
X190652800Y-88005300D01*
G37*
G36*
X190652800Y-86532100D02*
X190652800Y-87182100D01*
X192052800Y-87182100D01*
X192052800Y-86532100D01*
X190652800Y-86532100D01*
G37*
D12*
X165960100Y-80454900D02*
X167960100Y-80454900D01*
X167960100Y-80454900D02*
X167960100Y-81854900D01*
X167960100Y-81854900D02*
X165960100Y-81854900D01*
X165960100Y-81854900D02*
X165960100Y-80454900D01*
X166460100Y-81154900D02*
X167060100Y-80754900D01*
X167060100Y-80754900D02*
X167060100Y-81554900D01*
X167060100Y-81554900D02*
X166460100Y-81154900D01*
D10*
G36*
X166260100Y-81854900D02*
X166460100Y-81854900D01*
X166460100Y-80454900D01*
X166260100Y-80454900D01*
X166260100Y-81854900D01*
G37*
D12*
X165992100Y-78179900D02*
X167992100Y-78179900D01*
X167992100Y-78179900D02*
X167992100Y-79579900D01*
X167992100Y-79579900D02*
X165992100Y-79579900D01*
X165992100Y-79579900D02*
X165992100Y-78179900D01*
X166492100Y-78879900D02*
X167092100Y-78479900D01*
X167092100Y-78479900D02*
X167092100Y-79279900D01*
X167092100Y-79279900D02*
X166492100Y-78879900D01*
D10*
G36*
X166292100Y-79579900D02*
X166492100Y-79579900D01*
X166492100Y-78179900D01*
X166292100Y-78179900D01*
X166292100Y-79579900D01*
G37*
M02*
