G04 #@! TF.FileFunction,Soldermask,Bot*
%FSLAX46Y46*%
G04 Gerber Fmt 4.6, Leading zero omitted, Abs format (unit mm)*
G04 Created by KiCad (PCBNEW 4.0.6) date 05/07/17 20:47:01*
%MOMM*%
%LPD*%
G01*
G04 APERTURE LIST*
%ADD10C,0.100000*%
%ADD11R,1.600000X1.600000*%
%ADD12C,2.940000*%
%ADD13C,3.575000*%
%ADD14R,0.750000X1.205000*%
%ADD15R,1.205000X0.800000*%
%ADD16R,2.000000X2.000000*%
G04 APERTURE END LIST*
D10*
D11*
X176540100Y-104293900D03*
X176540100Y-106393900D03*
D12*
X191385100Y-93155900D03*
D13*
X191385100Y-93155900D03*
D12*
X167376100Y-117190900D03*
D13*
X167376100Y-117190900D03*
D12*
X171471100Y-113312900D03*
D13*
X171471100Y-113312900D03*
D12*
X187502100Y-97344900D03*
D13*
X187502100Y-97344900D03*
D12*
X199393100Y-85154900D03*
D13*
X199393100Y-85154900D03*
D12*
X159426100Y-125149900D03*
D13*
X159426100Y-125149900D03*
D12*
X195380100Y-89398900D03*
D13*
X195380100Y-89398900D03*
D12*
X163489100Y-121348900D03*
D13*
X163489100Y-121348900D03*
D14*
X178926300Y-103292000D03*
X179676300Y-103292000D03*
X180426300Y-103292000D03*
X181176300Y-103292000D03*
X181926300Y-103292000D03*
D15*
X182198800Y-104264500D03*
D14*
X181926300Y-106837000D03*
X181176300Y-106837000D03*
X180426300Y-106837000D03*
X179676300Y-106837000D03*
X178926300Y-106837000D03*
D15*
X178653800Y-104889500D03*
X182198800Y-105064500D03*
D12*
X187325100Y-113335900D03*
D13*
X187325100Y-113335900D03*
D12*
X171340500Y-97318500D03*
D13*
X171340500Y-97318500D03*
D12*
X167453500Y-93243700D03*
D13*
X167453500Y-93243700D03*
D12*
X191409300Y-117206700D03*
D13*
X191409300Y-117206700D03*
D12*
X199416300Y-125216700D03*
D13*
X199416300Y-125216700D03*
D12*
X159447500Y-85198300D03*
D13*
X159447500Y-85198300D03*
D12*
X163367300Y-89364100D03*
D13*
X163367300Y-89364100D03*
D12*
X195379300Y-121331900D03*
D13*
X195379300Y-121331900D03*
D16*
X186752100Y-87964900D03*
X186752100Y-78820900D03*
X171512100Y-78820900D03*
X171512100Y-87964900D03*
M02*
