G04 #@! TF.FileFunction,Copper,L1,Top,Signal*
%FSLAX46Y46*%
G04 Gerber Fmt 4.6, Leading zero omitted, Abs format (unit mm)*
G04 Created by KiCad (PCBNEW 4.0.6) date 05/08/17 07:17:05*
%MOMM*%
%LPD*%
G01*
G04 APERTURE LIST*
%ADD10C,0.100000*%
%ADD11R,1.200000X1.200000*%
%ADD12R,1.500000X1.300000*%
%ADD13C,1.100000*%
%ADD14R,0.635000X1.270000*%
%ADD15R,1.300000X1.500000*%
%ADD16R,1.600000X1.600000*%
%ADD17R,1.200000X0.700000*%
%ADD18C,2.184400*%
%ADD19C,1.006400*%
%ADD20C,0.406400*%
%ADD21C,0.812800*%
%ADD22C,1.016000*%
%ADD23C,0.304800*%
%ADD24C,1.930400*%
%ADD25C,2.184400*%
%ADD26C,2.540000*%
%ADD27C,1.270000*%
%ADD28C,3.200000*%
G04 APERTURE END LIST*
D10*
D11*
X191161900Y-80426500D03*
X193261900Y-80426500D03*
D12*
X176540100Y-104393900D03*
X176540100Y-106293900D03*
X191071100Y-82356700D03*
X191071100Y-84256700D03*
D13*
X203057700Y-90281700D03*
D14*
X203438700Y-90281700D03*
X204073700Y-90281700D03*
X202803700Y-90281700D03*
X202168700Y-90281700D03*
X201533700Y-90281700D03*
X204670600Y-90281700D03*
X205267500Y-90281700D03*
X200911400Y-90281700D03*
X200289100Y-90281700D03*
D13*
X205013500Y-82407700D03*
D14*
X205394500Y-82407700D03*
X206029500Y-82407700D03*
X204759500Y-82407700D03*
X204124500Y-82407700D03*
X203489500Y-82407700D03*
X206626400Y-82407700D03*
X207223300Y-82407700D03*
X202867200Y-82407700D03*
X202244900Y-82407700D03*
D13*
X156042300Y-90332500D03*
D14*
X156423300Y-90332500D03*
X157058300Y-90332500D03*
X155788300Y-90332500D03*
X155153300Y-90332500D03*
X154518300Y-90332500D03*
X157655200Y-90332500D03*
X158252100Y-90332500D03*
X153896000Y-90332500D03*
X153273700Y-90332500D03*
D13*
X153375300Y-80324900D03*
D14*
X153756300Y-80324900D03*
X154391300Y-80324900D03*
X153121300Y-80324900D03*
X152486300Y-80324900D03*
X151851300Y-80324900D03*
X154988200Y-80324900D03*
X155585100Y-80324900D03*
X151229000Y-80324900D03*
X150606700Y-80324900D03*
D13*
X202981500Y-103769100D03*
D14*
X203362500Y-103769100D03*
X203997500Y-103769100D03*
X202727500Y-103769100D03*
X202092500Y-103769100D03*
X201457500Y-103769100D03*
X204594400Y-103769100D03*
X205191300Y-103769100D03*
X200835200Y-103769100D03*
X200212900Y-103769100D03*
D13*
X202879900Y-106385300D03*
D14*
X203260900Y-106385300D03*
X203895900Y-106385300D03*
X202625900Y-106385300D03*
X201990900Y-106385300D03*
X201355900Y-106385300D03*
X204492800Y-106385300D03*
X205089700Y-106385300D03*
X200733600Y-106385300D03*
X200111300Y-106385300D03*
D13*
X156067700Y-106309100D03*
D14*
X156448700Y-106309100D03*
X157083700Y-106309100D03*
X155813700Y-106309100D03*
X155178700Y-106309100D03*
X154543700Y-106309100D03*
X157680600Y-106309100D03*
X158277500Y-106309100D03*
X153921400Y-106309100D03*
X153299100Y-106309100D03*
D13*
X202981500Y-109026900D03*
D14*
X203362500Y-109026900D03*
X203997500Y-109026900D03*
X202727500Y-109026900D03*
X202092500Y-109026900D03*
X201457500Y-109026900D03*
X204594400Y-109026900D03*
X205191300Y-109026900D03*
X200835200Y-109026900D03*
X200212900Y-109026900D03*
D13*
X156093100Y-109077700D03*
D14*
X156474100Y-109077700D03*
X157109100Y-109077700D03*
X155839100Y-109077700D03*
X155204100Y-109077700D03*
X154569100Y-109077700D03*
X157706000Y-109077700D03*
X158302900Y-109077700D03*
X153946800Y-109077700D03*
X153324500Y-109077700D03*
D13*
X203006900Y-92897900D03*
D14*
X203387900Y-92897900D03*
X204022900Y-92897900D03*
X202752900Y-92897900D03*
X202117900Y-92897900D03*
X201482900Y-92897900D03*
X204619800Y-92897900D03*
X205216700Y-92897900D03*
X200860600Y-92897900D03*
X200238300Y-92897900D03*
D13*
X203057700Y-114614900D03*
D14*
X203438700Y-114614900D03*
X204073700Y-114614900D03*
X202803700Y-114614900D03*
X202168700Y-114614900D03*
X201533700Y-114614900D03*
X204670600Y-114614900D03*
X205267500Y-114614900D03*
X200911400Y-114614900D03*
X200289100Y-114614900D03*
D13*
X156016900Y-114513300D03*
D14*
X156397900Y-114513300D03*
X157032900Y-114513300D03*
X155762900Y-114513300D03*
X155127900Y-114513300D03*
X154492900Y-114513300D03*
X157629800Y-114513300D03*
X158226700Y-114513300D03*
X153870600Y-114513300D03*
X153248300Y-114513300D03*
D13*
X202981500Y-98409700D03*
D14*
X203362500Y-98409700D03*
X203997500Y-98409700D03*
X202727500Y-98409700D03*
X202092500Y-98409700D03*
X201457500Y-98409700D03*
X204594400Y-98409700D03*
X205191300Y-98409700D03*
X200835200Y-98409700D03*
X200212900Y-98409700D03*
D13*
X155966100Y-98409700D03*
D14*
X156347100Y-98409700D03*
X156982100Y-98409700D03*
X155712100Y-98409700D03*
X155077100Y-98409700D03*
X154442100Y-98409700D03*
X157579000Y-98409700D03*
X158175900Y-98409700D03*
X153819800Y-98409700D03*
X153197500Y-98409700D03*
D13*
X205038900Y-85354100D03*
D14*
X205419900Y-85354100D03*
X206054900Y-85354100D03*
X204784900Y-85354100D03*
X204149900Y-85354100D03*
X203514900Y-85354100D03*
X206651800Y-85354100D03*
X207248700Y-85354100D03*
X202892600Y-85354100D03*
X202270300Y-85354100D03*
D13*
X205115100Y-127975300D03*
D14*
X205496100Y-127975300D03*
X206131100Y-127975300D03*
X204861100Y-127975300D03*
X204226100Y-127975300D03*
X203591100Y-127975300D03*
X206728000Y-127975300D03*
X207324900Y-127975300D03*
X202968800Y-127975300D03*
X202346500Y-127975300D03*
D13*
X205165900Y-124876500D03*
D14*
X205546900Y-124876500D03*
X206181900Y-124876500D03*
X204911900Y-124876500D03*
X204276900Y-124876500D03*
X203641900Y-124876500D03*
X206778800Y-124876500D03*
X207375700Y-124876500D03*
X203019600Y-124876500D03*
X202397300Y-124876500D03*
D13*
X153375300Y-83245900D03*
D14*
X153756300Y-83245900D03*
X154391300Y-83245900D03*
X153121300Y-83245900D03*
X152486300Y-83245900D03*
X151851300Y-83245900D03*
X154988200Y-83245900D03*
X155585100Y-83245900D03*
X151229000Y-83245900D03*
X150606700Y-83245900D03*
D13*
X153349900Y-129702500D03*
D14*
X153730900Y-129702500D03*
X154365900Y-129702500D03*
X153095900Y-129702500D03*
X152460900Y-129702500D03*
X151825900Y-129702500D03*
X154962800Y-129702500D03*
X155559700Y-129702500D03*
X151203600Y-129702500D03*
X150581300Y-129702500D03*
D13*
X153400700Y-125790900D03*
D14*
X153781700Y-125790900D03*
X154416700Y-125790900D03*
X153146700Y-125790900D03*
X152511700Y-125790900D03*
X151876700Y-125790900D03*
X155013600Y-125790900D03*
X155610500Y-125790900D03*
X151254400Y-125790900D03*
X150632100Y-125790900D03*
D13*
X155966100Y-93126500D03*
D14*
X156347100Y-93126500D03*
X156982100Y-93126500D03*
X155712100Y-93126500D03*
X155077100Y-93126500D03*
X154442100Y-93126500D03*
X157579000Y-93126500D03*
X158175900Y-93126500D03*
X153819800Y-93126500D03*
X153197500Y-93126500D03*
D13*
X156042300Y-95742700D03*
D14*
X156423300Y-95742700D03*
X157058300Y-95742700D03*
X155788300Y-95742700D03*
X155153300Y-95742700D03*
X154518300Y-95742700D03*
X157655200Y-95742700D03*
X158252100Y-95742700D03*
X153896000Y-95742700D03*
X153273700Y-95742700D03*
D13*
X156016900Y-103642100D03*
D14*
X156397900Y-103642100D03*
X157032900Y-103642100D03*
X155762900Y-103642100D03*
X155127900Y-103642100D03*
X154492900Y-103642100D03*
X157629800Y-103642100D03*
X158226700Y-103642100D03*
X153870600Y-103642100D03*
X153248300Y-103642100D03*
D13*
X155864500Y-111770100D03*
D14*
X156245500Y-111770100D03*
X156880500Y-111770100D03*
X155610500Y-111770100D03*
X154975500Y-111770100D03*
X154340500Y-111770100D03*
X157477400Y-111770100D03*
X158074300Y-111770100D03*
X153718200Y-111770100D03*
X153095900Y-111770100D03*
D13*
X156067700Y-120431500D03*
D14*
X156448700Y-120431500D03*
X157083700Y-120431500D03*
X155813700Y-120431500D03*
X155178700Y-120431500D03*
X154543700Y-120431500D03*
X157680600Y-120431500D03*
X158277500Y-120431500D03*
X153921400Y-120431500D03*
X153299100Y-120431500D03*
D12*
X180451700Y-106065300D03*
X180451700Y-104165300D03*
D13*
X205038900Y-79639100D03*
D14*
X205419900Y-79639100D03*
X206054900Y-79639100D03*
X204784900Y-79639100D03*
X204149900Y-79639100D03*
X203514900Y-79639100D03*
X206651800Y-79639100D03*
X207248700Y-79639100D03*
X202892600Y-79639100D03*
X202270300Y-79639100D03*
D13*
X202981500Y-119898100D03*
D14*
X203362500Y-119898100D03*
X203997500Y-119898100D03*
X202727500Y-119898100D03*
X202092500Y-119898100D03*
X201457500Y-119898100D03*
X204594400Y-119898100D03*
X205191300Y-119898100D03*
X200835200Y-119898100D03*
X200212900Y-119898100D03*
D13*
X203057700Y-111846300D03*
D14*
X203438700Y-111846300D03*
X204073700Y-111846300D03*
X202803700Y-111846300D03*
X202168700Y-111846300D03*
X201533700Y-111846300D03*
X204670600Y-111846300D03*
X205267500Y-111846300D03*
X200911400Y-111846300D03*
X200289100Y-111846300D03*
D15*
X190931700Y-124571700D03*
X192831700Y-124571700D03*
D12*
X197393500Y-81528900D03*
X197393500Y-79628900D03*
D15*
X190880900Y-127452900D03*
X192780900Y-127452900D03*
D13*
X203057700Y-95666500D03*
D14*
X203438700Y-95666500D03*
X204073700Y-95666500D03*
X202803700Y-95666500D03*
X202168700Y-95666500D03*
X201533700Y-95666500D03*
X204670600Y-95666500D03*
X205267500Y-95666500D03*
X200911400Y-95666500D03*
X200289100Y-95666500D03*
D13*
X203108500Y-117281900D03*
D14*
X203489500Y-117281900D03*
X204124500Y-117281900D03*
X202854500Y-117281900D03*
X202219500Y-117281900D03*
X201584500Y-117281900D03*
X204721400Y-117281900D03*
X205318300Y-117281900D03*
X200962200Y-117281900D03*
X200339900Y-117281900D03*
D13*
X156042300Y-117307300D03*
D14*
X156423300Y-117307300D03*
X157058300Y-117307300D03*
X155788300Y-117307300D03*
X155153300Y-117307300D03*
X154518300Y-117307300D03*
X157655200Y-117307300D03*
X158252100Y-117307300D03*
X153896000Y-117307300D03*
X153273700Y-117307300D03*
D13*
X203006900Y-100975100D03*
D14*
X203387900Y-100975100D03*
X204022900Y-100975100D03*
X202752900Y-100975100D03*
X202117900Y-100975100D03*
X201482900Y-100975100D03*
X204619800Y-100975100D03*
X205216700Y-100975100D03*
X200860600Y-100975100D03*
X200238300Y-100975100D03*
D13*
X156067700Y-100949700D03*
D14*
X156448700Y-100949700D03*
X157083700Y-100949700D03*
X155813700Y-100949700D03*
X155178700Y-100949700D03*
X154543700Y-100949700D03*
X157680600Y-100949700D03*
X158277500Y-100949700D03*
X153921400Y-100949700D03*
X153299100Y-100949700D03*
D12*
X193984300Y-86615500D03*
X193984300Y-88515500D03*
X191351300Y-86648900D03*
X191351300Y-88548900D03*
D16*
X186752100Y-87964900D03*
X186752100Y-78820900D03*
X171512100Y-78820900D03*
X171512100Y-87964900D03*
D17*
X165110100Y-81154900D03*
X168810100Y-81154900D03*
X165142100Y-78879900D03*
X168842100Y-78879900D03*
D18*
X171307700Y-105089900D03*
X179257700Y-97113500D03*
X187309700Y-105089900D03*
X179308700Y-113090900D03*
D19*
X174609700Y-104327900D03*
X183909100Y-106056900D03*
X185499600Y-95342400D03*
X181975700Y-108645900D03*
X174533500Y-101889500D03*
X197156100Y-86538900D03*
X195245100Y-81528900D03*
X157696100Y-122279900D03*
X156042300Y-90332500D03*
X161522100Y-80875900D03*
X196860100Y-103819900D03*
X203248100Y-85354100D03*
X168233100Y-90074900D03*
X186837100Y-91519900D03*
X201280100Y-130165900D03*
X157860100Y-130768900D03*
X200429100Y-122324900D03*
X167622100Y-123875900D03*
X198836100Y-118506900D03*
X199095300Y-111846300D03*
X179680100Y-100897900D03*
X193982100Y-96219900D03*
X192178100Y-99986900D03*
D20*
X156067700Y-106309100D02*
X160487300Y-106309100D01*
X160487300Y-106309100D02*
X161858900Y-107680700D01*
X161858900Y-107680700D02*
X161858900Y-111744700D01*
X161858900Y-111744700D02*
X166837300Y-116723100D01*
X166837300Y-116723100D02*
X191703900Y-116723100D01*
X191703900Y-116723100D02*
X195844100Y-112582900D01*
X195844100Y-112582900D02*
X195844100Y-107731500D01*
X195844100Y-107731500D02*
X197139500Y-106436100D01*
X197139500Y-106436100D02*
X202829100Y-106436100D01*
X202829100Y-106436100D02*
X202879900Y-106385300D01*
X156093100Y-109077700D02*
X159852300Y-109077700D01*
X159852300Y-109077700D02*
X160741300Y-109966700D01*
X160741300Y-109966700D02*
X160741300Y-112786100D01*
X160741300Y-112786100D02*
X165973700Y-118018500D01*
X165973700Y-118018500D02*
X192364300Y-118018500D01*
X192364300Y-118018500D02*
X197215700Y-113167100D01*
X197215700Y-113167100D02*
X197215700Y-109890500D01*
X197215700Y-109890500D02*
X198053900Y-109052300D01*
X198053900Y-109052300D02*
X202956100Y-109052300D01*
X202956100Y-109052300D02*
X202981500Y-109026900D01*
X156016900Y-114513300D02*
X160309500Y-114513300D01*
X160309500Y-114513300D02*
X165262500Y-119466300D01*
X165262500Y-119466300D02*
X193227900Y-119466300D01*
X193227900Y-119466300D02*
X198130100Y-114564100D01*
X198130100Y-114564100D02*
X203006900Y-114564100D01*
X203006900Y-114564100D02*
X203057700Y-114614900D01*
X155966100Y-98409700D02*
X162493900Y-98409700D01*
X162493900Y-98409700D02*
X164729100Y-100644900D01*
X164729100Y-100644900D02*
X164729100Y-108569700D01*
X192618300Y-102753100D02*
X197012500Y-98358900D01*
X197012500Y-98358900D02*
X202930700Y-98358900D01*
X202930700Y-98358900D02*
X202981500Y-98409700D01*
X164729100Y-108569700D02*
X166100700Y-109941300D01*
X166100700Y-109941300D02*
X191399100Y-109941300D01*
X191399100Y-109941300D02*
X192618300Y-108722100D01*
X192618300Y-102753100D02*
X192618300Y-108722100D01*
X156042300Y-117307300D02*
X161071500Y-117307300D01*
X161071500Y-117307300D02*
X164475100Y-120710900D01*
X164475100Y-120710900D02*
X193939100Y-120710900D01*
X193939100Y-120710900D02*
X197342700Y-117307300D01*
X197342700Y-117307300D02*
X203083100Y-117307300D01*
X203083100Y-117307300D02*
X203108500Y-117281900D01*
X156067700Y-100949700D02*
X161604900Y-100949700D01*
X161604900Y-100949700D02*
X163154300Y-102499100D01*
X163154300Y-102499100D02*
X163154300Y-110500100D01*
X163154300Y-110500100D02*
X168259700Y-115605500D01*
X168259700Y-115605500D02*
X190916500Y-115605500D01*
X190916500Y-115605500D02*
X194599500Y-111922500D01*
X194599500Y-111922500D02*
X194599500Y-103388100D01*
X194599500Y-103388100D02*
X197012500Y-100975100D01*
X197012500Y-100975100D02*
X203006900Y-100975100D01*
D21*
X174609700Y-104327900D02*
X176448700Y-104302500D01*
X176448700Y-104302500D02*
X176540100Y-104393900D01*
D22*
X191161900Y-80426500D02*
X191161900Y-82265900D01*
X191161900Y-82265900D02*
X191071100Y-82356700D01*
D23*
X176540100Y-106293900D02*
X180223100Y-106293900D01*
X180223100Y-106293900D02*
X180451700Y-106065300D01*
D24*
X191071100Y-84256700D02*
X198724300Y-84256700D01*
X198724300Y-84256700D02*
X200524100Y-82456900D01*
X200524100Y-82456900D02*
X204964300Y-82456900D01*
X204964300Y-82456900D02*
X205013500Y-82407700D01*
D25*
X153375300Y-80324900D02*
X157884100Y-80324900D01*
X157884100Y-80324900D02*
X158626100Y-81066900D01*
X158626100Y-81066900D02*
X158626100Y-84184900D01*
X158626100Y-84184900D02*
X159841100Y-85399900D01*
X159841100Y-85399900D02*
X170320100Y-85399900D01*
X170320100Y-85399900D02*
X171346100Y-86425900D01*
X171346100Y-86425900D02*
X171346100Y-87798900D01*
D26*
X171346100Y-87798900D02*
X171512100Y-87964900D01*
D24*
X191071100Y-84256700D02*
X188209300Y-84256700D01*
X188209300Y-84256700D02*
X186800100Y-85665900D01*
X186800100Y-85665900D02*
X186800100Y-87916900D01*
X186800100Y-87916900D02*
X186752100Y-87964900D01*
D23*
X180451700Y-106065300D02*
X183900700Y-106065300D01*
X183900700Y-106065300D02*
X183909100Y-106056900D01*
D20*
X183900700Y-106065300D02*
X183900700Y-96941300D01*
X183900700Y-96941300D02*
X185499600Y-95342400D01*
D21*
X190931700Y-124571700D02*
X190931700Y-127544100D01*
X190931700Y-127544100D02*
X190880900Y-127452900D01*
D22*
X181975700Y-108645900D02*
X168285100Y-108645900D01*
X168285100Y-108645900D02*
X167345300Y-107706100D01*
X167345300Y-107706100D02*
X167345300Y-99044700D01*
X167345300Y-99044700D02*
X164932300Y-96631700D01*
X167345300Y-99044700D02*
X168666100Y-100365500D01*
X168666100Y-100365500D02*
X173009500Y-100365500D01*
X173009500Y-100365500D02*
X174533500Y-101889500D01*
X157587100Y-90332500D02*
X158633100Y-90332500D01*
X158633100Y-90332500D02*
X164932300Y-96631700D01*
X164932300Y-96631700D02*
X164898900Y-96631700D01*
X164898900Y-96631700D02*
X164265100Y-95997900D01*
X164265100Y-95997900D02*
X164216100Y-95997900D01*
X164216100Y-95997900D02*
X164167100Y-95948900D01*
D27*
X203057700Y-90281700D02*
X203057700Y-89131500D01*
X203057700Y-89131500D02*
X201983100Y-88056900D01*
X201983100Y-88056900D02*
X200876100Y-88056900D01*
X200876100Y-88056900D02*
X199399100Y-86579900D01*
X197393500Y-81528900D02*
X195245100Y-81528900D01*
X195245100Y-81528900D02*
X194364300Y-81528900D01*
X194364300Y-81528900D02*
X193261900Y-80426500D01*
X199399100Y-86579900D02*
X197219100Y-86579900D01*
X197219100Y-86579900D02*
X197156100Y-86538900D01*
D22*
X193984300Y-86615500D02*
X197079500Y-86615500D01*
X197079500Y-86615500D02*
X197156100Y-86538900D01*
X191351300Y-86648900D02*
X193950900Y-86648900D01*
X193950900Y-86648900D02*
X193984300Y-86615500D01*
X191351300Y-86648900D02*
X189911100Y-86648900D01*
X189911100Y-86648900D02*
X189426100Y-87133900D01*
X189426100Y-87133900D02*
X189426100Y-101570900D01*
X189426100Y-101570900D02*
X190280100Y-102424900D01*
X190280100Y-102424900D02*
X190280100Y-107459900D01*
X190280100Y-107459900D02*
X188952100Y-108787900D01*
X188952100Y-108787900D02*
X182117700Y-108787900D01*
X182117700Y-108787900D02*
X181975700Y-108645900D01*
D27*
X190931700Y-124571700D02*
X188639900Y-122279900D01*
X188639900Y-122279900D02*
X157696100Y-122279900D01*
X156042300Y-90332500D02*
X157587100Y-90332500D01*
D26*
X165142100Y-78879900D02*
X165142100Y-81122900D01*
X165142100Y-81122900D02*
X165110100Y-81154900D01*
X165110100Y-81154900D02*
X161801100Y-81154900D01*
X161801100Y-81154900D02*
X161522100Y-80875900D01*
D23*
X196860100Y-103819900D02*
X202930700Y-103819900D01*
X202930700Y-103819900D02*
X202981500Y-103769100D01*
D26*
X203248100Y-85354100D02*
X202539300Y-85354100D01*
X203248100Y-85354100D02*
X205038900Y-85354100D01*
D25*
X167283100Y-88174900D02*
X167296100Y-88187900D01*
X167296100Y-88187900D02*
X168195100Y-89086900D01*
X168195100Y-89086900D02*
X168195100Y-90036900D01*
D26*
X168195100Y-90036900D02*
X168233100Y-90074900D01*
D25*
X153375300Y-83245900D02*
X154958100Y-83245900D01*
X154958100Y-83245900D02*
X155416100Y-83703900D01*
X155416100Y-83703900D02*
X155416100Y-86825900D01*
X155416100Y-86825900D02*
X156778100Y-88187900D01*
X156778100Y-88187900D02*
X167296100Y-88187900D01*
D28*
X186752100Y-78820900D02*
X181225100Y-78820900D01*
X181225100Y-78820900D02*
X178877100Y-81168900D01*
X178877100Y-81168900D02*
X178877100Y-89010900D01*
X178877100Y-89010900D02*
X178877100Y-90661900D01*
X178877100Y-90661900D02*
X176872100Y-92666900D01*
X176872100Y-92666900D02*
X170104100Y-92666900D01*
X170104100Y-92666900D02*
X168233100Y-90795900D01*
X168233100Y-90795900D02*
X168233100Y-90074900D01*
D26*
X186837100Y-91519900D02*
X181386100Y-91519900D01*
X181386100Y-91519900D02*
X178877100Y-89010900D01*
D22*
X205115100Y-127975300D02*
X202924500Y-130165900D01*
X202924500Y-130165900D02*
X201280100Y-130165900D01*
X153349900Y-129702500D02*
X154416300Y-130768900D01*
X154416300Y-130768900D02*
X157860100Y-130768900D01*
D27*
X205165900Y-124876500D02*
X200836700Y-124876500D01*
X200836700Y-124876500D02*
X200429100Y-124468900D01*
X200429100Y-124468900D02*
X200429100Y-122324900D01*
X153400700Y-125790900D02*
X165707100Y-125790900D01*
X165707100Y-125790900D02*
X167622100Y-123875900D01*
X197393500Y-79628900D02*
X205028700Y-79628900D01*
D21*
X205028700Y-79628900D02*
X205038900Y-79639100D01*
X192780900Y-127452900D02*
X197073900Y-127452900D01*
X197073900Y-127452900D02*
X197688100Y-126878700D01*
X197688100Y-126878700D02*
X197644100Y-121041100D01*
X197644100Y-121041100D02*
X198841300Y-119948900D01*
X198841300Y-119948900D02*
X202930700Y-119948900D01*
X202930700Y-119948900D02*
X202981500Y-119898100D01*
X195285300Y-124495500D02*
X192907900Y-124495500D01*
X192907900Y-124495500D02*
X192831700Y-124571700D01*
X195285300Y-124495500D02*
X196102100Y-123678700D01*
X196102100Y-123678700D02*
X196102100Y-120521900D01*
X196102100Y-120521900D02*
X198117100Y-118506900D01*
X198117100Y-118506900D02*
X198836100Y-118506900D01*
X199095300Y-111846300D02*
X203057700Y-111846300D01*
D23*
X180451700Y-104165300D02*
X180451700Y-102118100D01*
X180451700Y-102118100D02*
X179715100Y-101381500D01*
X179715100Y-101381500D02*
X179680100Y-100897900D01*
D22*
X203006900Y-92897900D02*
X197304100Y-92897900D01*
X197304100Y-92897900D02*
X193982100Y-96219900D01*
X193982100Y-96219900D02*
X193982100Y-88517700D01*
X193982100Y-88517700D02*
X193984300Y-88515500D01*
X203057700Y-95666500D02*
X196531500Y-95666500D01*
X196531500Y-95666500D02*
X192178100Y-99986900D01*
X192178100Y-99986900D02*
X191451100Y-99321900D01*
X191451100Y-99321900D02*
X191451100Y-88648700D01*
X191451100Y-88648700D02*
X191351300Y-88548900D01*
D26*
X171512100Y-78820900D02*
X168901100Y-78820900D01*
X168901100Y-78820900D02*
X168842100Y-78879900D01*
X168810100Y-81154900D02*
X168810100Y-78911900D01*
X168810100Y-78911900D02*
X168842100Y-78879900D01*
D20*
G36*
X185292500Y-78384315D02*
X185292500Y-78631000D01*
X185457400Y-78795900D01*
X186727100Y-78795900D01*
X186727100Y-78775900D01*
X186777100Y-78775900D01*
X186777100Y-78795900D01*
X188046800Y-78795900D01*
X188211700Y-78631000D01*
X188211700Y-78392362D01*
X195797516Y-78413273D01*
X195781060Y-78432581D01*
X195663004Y-78694480D01*
X195622585Y-78978900D01*
X195622585Y-79877900D01*
X195048166Y-79877900D01*
X194872941Y-79702675D01*
X194869913Y-79664706D01*
X194784930Y-79390286D01*
X194626860Y-79150406D01*
X194408219Y-78964060D01*
X194146320Y-78846004D01*
X193861900Y-78805585D01*
X193563740Y-78805585D01*
X193267663Y-78775510D01*
X192949508Y-78805585D01*
X192661900Y-78805585D01*
X192500106Y-78818487D01*
X192225686Y-78903470D01*
X192204612Y-78917357D01*
X192046320Y-78846004D01*
X191761900Y-78805585D01*
X190561900Y-78805585D01*
X190400106Y-78818487D01*
X190125686Y-78903470D01*
X189885806Y-79061540D01*
X189699460Y-79280181D01*
X189581404Y-79542080D01*
X189540985Y-79826500D01*
X189540985Y-81026500D01*
X189543704Y-81060598D01*
X189458660Y-81160381D01*
X189340604Y-81422280D01*
X189300185Y-81706700D01*
X189300185Y-82275500D01*
X188209300Y-82275500D01*
X188027187Y-82293356D01*
X187844856Y-82309308D01*
X187834847Y-82312216D01*
X187824483Y-82313232D01*
X187649340Y-82366110D01*
X187473546Y-82417183D01*
X187464295Y-82421978D01*
X187454323Y-82424989D01*
X187292754Y-82510897D01*
X187130262Y-82595125D01*
X187122120Y-82601625D01*
X187112921Y-82606516D01*
X186971104Y-82722179D01*
X186828077Y-82836356D01*
X186813577Y-82850655D01*
X186813279Y-82850898D01*
X186813050Y-82851174D01*
X186808380Y-82855780D01*
X185399180Y-84264980D01*
X185283031Y-84406383D01*
X185165385Y-84546587D01*
X185160365Y-84555719D01*
X185153754Y-84563767D01*
X185067274Y-84725051D01*
X184979109Y-84885422D01*
X184975960Y-84895349D01*
X184971035Y-84904534D01*
X184917521Y-85079571D01*
X184862194Y-85253985D01*
X184861033Y-85264339D01*
X184857987Y-85274301D01*
X184839494Y-85456358D01*
X184819093Y-85638238D01*
X184818951Y-85658601D01*
X184818912Y-85658984D01*
X184818946Y-85659341D01*
X184818900Y-85665900D01*
X184818900Y-87544148D01*
X184809987Y-87573301D01*
X184770912Y-87957984D01*
X184807300Y-88342931D01*
X184917765Y-88713478D01*
X184931185Y-88738931D01*
X184931185Y-88764900D01*
X184944087Y-88926694D01*
X185029070Y-89201114D01*
X185187140Y-89440994D01*
X185405781Y-89627340D01*
X185667680Y-89745396D01*
X185952100Y-89785815D01*
X185972867Y-89785815D01*
X185977984Y-89788605D01*
X186346953Y-89904232D01*
X186731353Y-89945991D01*
X187116544Y-89912292D01*
X187487854Y-89804416D01*
X187523739Y-89785815D01*
X187552100Y-89785815D01*
X187713894Y-89772913D01*
X187902100Y-89714629D01*
X187902100Y-101570900D01*
X187915838Y-101711010D01*
X187928106Y-101851242D01*
X187930342Y-101858939D01*
X187931124Y-101866913D01*
X187971811Y-102001673D01*
X188011088Y-102136865D01*
X188014776Y-102143980D01*
X188017092Y-102151651D01*
X188083180Y-102275945D01*
X188147966Y-102400930D01*
X188152966Y-102407193D01*
X188156728Y-102414269D01*
X188245729Y-102523395D01*
X188333529Y-102633380D01*
X188344525Y-102644531D01*
X188344714Y-102644763D01*
X188344928Y-102644940D01*
X188348469Y-102648531D01*
X188756100Y-103056162D01*
X188756100Y-103554397D01*
X188660020Y-103457644D01*
X188317263Y-103226452D01*
X187936128Y-103066237D01*
X187531133Y-102983104D01*
X187117704Y-102980217D01*
X186711588Y-103057688D01*
X186328253Y-103212565D01*
X185982302Y-103438950D01*
X185686911Y-103728218D01*
X185453331Y-104069353D01*
X185290460Y-104449359D01*
X185204501Y-104853764D01*
X185198928Y-105252876D01*
X185119900Y-105133929D01*
X185119900Y-97446310D01*
X185719963Y-96846247D01*
X185910120Y-96812717D01*
X186187888Y-96704978D01*
X186439439Y-96545339D01*
X186655192Y-96339880D01*
X186826928Y-96096427D01*
X186948108Y-95824254D01*
X187014114Y-95533728D01*
X187018865Y-95193435D01*
X186960997Y-94901178D01*
X186847465Y-94625728D01*
X186682592Y-94377575D01*
X186472660Y-94166172D01*
X186225665Y-93999572D01*
X185951013Y-93884119D01*
X185659168Y-93824212D01*
X185361245Y-93822132D01*
X185068591Y-93877958D01*
X184792355Y-93989565D01*
X184543057Y-94152701D01*
X184330194Y-94361152D01*
X184161873Y-94606978D01*
X184044506Y-94880817D01*
X183992553Y-95125237D01*
X183038595Y-96079195D01*
X182967074Y-96166266D01*
X182894722Y-96252492D01*
X182891636Y-96258106D01*
X182887563Y-96263064D01*
X182834321Y-96362360D01*
X182780090Y-96461006D01*
X182778151Y-96467117D01*
X182775122Y-96472767D01*
X182742197Y-96580461D01*
X182708142Y-96687814D01*
X182707427Y-96694185D01*
X182705553Y-96700316D01*
X182694169Y-96812385D01*
X182681619Y-96924277D01*
X182681531Y-96936803D01*
X182681507Y-96937044D01*
X182681528Y-96937268D01*
X182681500Y-96941300D01*
X182681500Y-104896900D01*
X182211019Y-104896900D01*
X182222615Y-104815300D01*
X182222615Y-103515300D01*
X182209713Y-103353506D01*
X182124730Y-103079086D01*
X181966660Y-102839206D01*
X181748019Y-102652860D01*
X181620100Y-102595198D01*
X181620100Y-102118100D01*
X181609570Y-102010711D01*
X181600162Y-101903171D01*
X181598447Y-101897269D01*
X181597848Y-101891157D01*
X181566656Y-101787842D01*
X181536543Y-101684194D01*
X181533717Y-101678741D01*
X181531940Y-101672857D01*
X181481264Y-101577549D01*
X181431603Y-101481744D01*
X181427769Y-101476942D01*
X181424885Y-101471517D01*
X181356672Y-101387880D01*
X181289338Y-101303532D01*
X181280906Y-101294981D01*
X181280762Y-101294805D01*
X181280599Y-101294670D01*
X181277884Y-101291917D01*
X181172506Y-101186538D01*
X181194614Y-101089228D01*
X181199365Y-100748935D01*
X181141497Y-100456678D01*
X181027965Y-100181228D01*
X180863092Y-99933075D01*
X180653160Y-99721672D01*
X180406165Y-99555072D01*
X180131513Y-99439619D01*
X179839668Y-99379712D01*
X179541745Y-99377632D01*
X179249091Y-99433458D01*
X178972855Y-99545065D01*
X178723557Y-99708201D01*
X178510694Y-99916652D01*
X178342373Y-100162478D01*
X178225006Y-100436317D01*
X178163063Y-100727737D01*
X178158903Y-101025638D01*
X178212685Y-101318674D01*
X178322361Y-101595683D01*
X178483752Y-101846114D01*
X178690712Y-102060427D01*
X178866978Y-102182936D01*
X178877462Y-102196068D01*
X178888916Y-102207684D01*
X179271607Y-102590374D01*
X179265486Y-102592270D01*
X179025606Y-102750340D01*
X178839260Y-102968981D01*
X178721204Y-103230880D01*
X178680785Y-103515300D01*
X178680785Y-104815300D01*
X178693687Y-104977094D01*
X178733123Y-105104438D01*
X178723629Y-105125500D01*
X178299419Y-105125500D01*
X178311015Y-105043900D01*
X178311015Y-103743900D01*
X178298113Y-103582106D01*
X178213130Y-103307686D01*
X178055060Y-103067806D01*
X177836419Y-102881460D01*
X177574520Y-102763404D01*
X177290100Y-102722985D01*
X175806582Y-102722985D01*
X175812724Y-102711719D01*
X175860828Y-102643527D01*
X175909475Y-102534264D01*
X175936349Y-102484974D01*
X175948062Y-102447597D01*
X175982008Y-102371354D01*
X176008509Y-102254711D01*
X176025293Y-102201152D01*
X176029523Y-102162218D01*
X176048014Y-102080828D01*
X176049437Y-101978905D01*
X176057416Y-101905458D01*
X176051419Y-101836916D01*
X176052765Y-101740535D01*
X176035246Y-101652059D01*
X176031493Y-101609158D01*
X176016606Y-101557915D01*
X175994897Y-101448278D01*
X175960526Y-101364887D01*
X175948512Y-101323535D01*
X175923956Y-101276162D01*
X175881365Y-101172828D01*
X175831451Y-101097701D01*
X175811633Y-101059469D01*
X175778341Y-101017765D01*
X175716492Y-100924675D01*
X175652938Y-100860676D01*
X175626071Y-100827020D01*
X175611130Y-100811869D01*
X174087131Y-99287869D01*
X173978335Y-99198503D01*
X173870510Y-99108027D01*
X173863487Y-99104166D01*
X173857295Y-99099080D01*
X173733233Y-99032559D01*
X173609867Y-98964738D01*
X173602229Y-98962315D01*
X173595166Y-98958528D01*
X173460549Y-98917371D01*
X173326357Y-98874803D01*
X173318392Y-98873910D01*
X173310730Y-98871567D01*
X173170650Y-98857338D01*
X173030778Y-98841649D01*
X173015119Y-98841539D01*
X173014820Y-98841509D01*
X173014542Y-98841535D01*
X173009500Y-98841500D01*
X169297362Y-98841500D01*
X167746625Y-97290763D01*
X177146729Y-97290763D01*
X177221362Y-97697410D01*
X177373559Y-98081817D01*
X177597523Y-98429340D01*
X177884722Y-98726744D01*
X178224218Y-98962699D01*
X178603078Y-99128219D01*
X179006873Y-99216999D01*
X179420222Y-99225658D01*
X179827380Y-99153865D01*
X180212839Y-99004355D01*
X180561918Y-98782823D01*
X180861319Y-98497707D01*
X181099639Y-98159867D01*
X181267800Y-97782171D01*
X181359397Y-97379006D01*
X181365991Y-96906780D01*
X181285687Y-96501215D01*
X181128137Y-96118971D01*
X180899343Y-95774608D01*
X180608020Y-95481244D01*
X180265263Y-95250052D01*
X179884128Y-95089837D01*
X179479133Y-95006704D01*
X179065704Y-95003817D01*
X178659588Y-95081288D01*
X178276253Y-95236165D01*
X177930302Y-95462550D01*
X177634911Y-95751818D01*
X177401331Y-96092953D01*
X177238460Y-96472959D01*
X177152501Y-96877364D01*
X177146729Y-97290763D01*
X167746625Y-97290763D01*
X159710731Y-89254869D01*
X159601931Y-89165500D01*
X159494110Y-89075027D01*
X159487087Y-89071166D01*
X159480895Y-89066080D01*
X159356833Y-88999559D01*
X159233467Y-88931738D01*
X159226912Y-88929659D01*
X159115919Y-88835060D01*
X158854020Y-88717004D01*
X158569600Y-88676585D01*
X154022100Y-88676585D01*
X154022100Y-86782900D01*
X154020479Y-86766367D01*
X154021597Y-86749800D01*
X154010105Y-86660566D01*
X154001322Y-86570990D01*
X153996521Y-86555089D01*
X153994400Y-86538618D01*
X153965792Y-86453308D01*
X153939780Y-86367152D01*
X153931982Y-86352486D01*
X153926702Y-86336741D01*
X153882067Y-86258610D01*
X153839817Y-86179150D01*
X153829319Y-86166278D01*
X153821081Y-86151858D01*
X153762122Y-86083886D01*
X153705242Y-86014144D01*
X153692444Y-86003557D01*
X153681562Y-85991011D01*
X153610515Y-85935779D01*
X153541179Y-85878420D01*
X153526570Y-85870521D01*
X153513457Y-85860327D01*
X153433041Y-85819950D01*
X153353880Y-85777147D01*
X153338013Y-85772235D01*
X153323171Y-85764783D01*
X153236449Y-85740796D01*
X153150476Y-85714183D01*
X153133955Y-85712447D01*
X153117951Y-85708020D01*
X153028206Y-85701332D01*
X152938717Y-85691927D01*
X152922183Y-85693432D01*
X152905614Y-85692197D01*
X152890387Y-85692660D01*
X152531380Y-85706066D01*
X152522438Y-84901815D01*
X155902600Y-84901815D01*
X156064394Y-84888913D01*
X156338814Y-84803930D01*
X156574438Y-84648665D01*
X156614358Y-84780886D01*
X156668667Y-84967818D01*
X156673767Y-84977656D01*
X156676972Y-84988273D01*
X156768428Y-85160277D01*
X156858015Y-85333108D01*
X156864929Y-85341769D01*
X156870135Y-85351560D01*
X156993222Y-85502480D01*
X157114709Y-85654664D01*
X157129928Y-85670097D01*
X157130183Y-85670410D01*
X157130473Y-85670650D01*
X157135377Y-85675623D01*
X158350377Y-86890622D01*
X158500888Y-87014253D01*
X158650037Y-87139404D01*
X158659749Y-87144743D01*
X158668317Y-87151781D01*
X158839966Y-87243818D01*
X159010592Y-87337621D01*
X159021158Y-87340973D01*
X159030929Y-87346212D01*
X159217190Y-87403158D01*
X159402781Y-87462031D01*
X159413796Y-87463266D01*
X159424398Y-87466508D01*
X159618120Y-87486185D01*
X159811665Y-87507895D01*
X159833337Y-87508046D01*
X159833741Y-87508087D01*
X159834118Y-87508051D01*
X159841100Y-87508100D01*
X169089216Y-87508100D01*
X169060225Y-87774961D01*
X169099110Y-88219412D01*
X169223582Y-88647847D01*
X169428899Y-89043945D01*
X169707242Y-89392619D01*
X169729654Y-89415346D01*
X169895654Y-89581346D01*
X170240408Y-89864530D01*
X170633601Y-90075358D01*
X171060255Y-90205800D01*
X171504120Y-90250886D01*
X171948289Y-90208900D01*
X172375843Y-90081440D01*
X172770499Y-89873362D01*
X173117221Y-89592591D01*
X173402806Y-89249822D01*
X173616374Y-88858111D01*
X173749791Y-88432377D01*
X173797974Y-87988839D01*
X173759090Y-87544388D01*
X173634618Y-87115953D01*
X173454300Y-86768085D01*
X173454300Y-86425900D01*
X173435292Y-86232043D01*
X173418324Y-86038094D01*
X173415232Y-86027452D01*
X173414150Y-86016415D01*
X173357842Y-85829914D01*
X173303533Y-85642982D01*
X173298433Y-85633144D01*
X173295228Y-85622527D01*
X173203783Y-85450544D01*
X173114185Y-85277691D01*
X173107269Y-85269028D01*
X173102065Y-85259240D01*
X172978996Y-85108342D01*
X172857491Y-84956136D01*
X172842276Y-84940707D01*
X172842017Y-84940390D01*
X172841723Y-84940147D01*
X172836822Y-84935177D01*
X171810823Y-83909177D01*
X171660255Y-83785499D01*
X171511163Y-83660396D01*
X171501454Y-83655059D01*
X171492883Y-83648018D01*
X171321196Y-83555960D01*
X171150608Y-83462179D01*
X171140043Y-83458827D01*
X171130271Y-83453588D01*
X170944010Y-83396642D01*
X170758419Y-83337769D01*
X170747404Y-83336534D01*
X170736802Y-83333292D01*
X170543080Y-83313615D01*
X170349535Y-83291905D01*
X170327863Y-83291754D01*
X170327459Y-83291713D01*
X170327082Y-83291749D01*
X170320100Y-83291700D01*
X169607814Y-83291700D01*
X169666451Y-83274442D01*
X170061830Y-83067743D01*
X170409530Y-82788185D01*
X170696309Y-82446415D01*
X170911243Y-82055451D01*
X171046145Y-81630186D01*
X171095877Y-81186818D01*
X171096100Y-81154900D01*
X171096100Y-81106900D01*
X171512100Y-81106900D01*
X171956120Y-81063363D01*
X172383227Y-80934412D01*
X172777153Y-80724958D01*
X173122894Y-80442979D01*
X173407280Y-80099215D01*
X173619479Y-79706761D01*
X173751409Y-79280564D01*
X173779762Y-79010800D01*
X185292500Y-79010800D01*
X185292500Y-79685865D01*
X185317848Y-79813298D01*
X185367570Y-79933338D01*
X185439755Y-80041370D01*
X185531629Y-80133245D01*
X185639662Y-80205430D01*
X185759702Y-80255152D01*
X185887135Y-80280500D01*
X186562200Y-80280500D01*
X186727100Y-80115600D01*
X186727100Y-78845900D01*
X186777100Y-78845900D01*
X186777100Y-80115600D01*
X186942000Y-80280500D01*
X187617065Y-80280500D01*
X187744498Y-80255152D01*
X187864538Y-80205430D01*
X187972571Y-80133245D01*
X188064445Y-80041370D01*
X188136630Y-79933338D01*
X188186352Y-79813298D01*
X188211700Y-79685865D01*
X188211700Y-79010800D01*
X188046800Y-78845900D01*
X186777100Y-78845900D01*
X186727100Y-78845900D01*
X185457400Y-78845900D01*
X185292500Y-79010800D01*
X173779762Y-79010800D01*
X173798044Y-78836859D01*
X173757609Y-78392546D01*
X173745818Y-78352485D01*
X185292500Y-78384315D01*
X185292500Y-78384315D01*
G37*
X185292500Y-78384315D02*
X185292500Y-78631000D01*
X185457400Y-78795900D01*
X186727100Y-78795900D01*
X186727100Y-78775900D01*
X186777100Y-78775900D01*
X186777100Y-78795900D01*
X188046800Y-78795900D01*
X188211700Y-78631000D01*
X188211700Y-78392362D01*
X195797516Y-78413273D01*
X195781060Y-78432581D01*
X195663004Y-78694480D01*
X195622585Y-78978900D01*
X195622585Y-79877900D01*
X195048166Y-79877900D01*
X194872941Y-79702675D01*
X194869913Y-79664706D01*
X194784930Y-79390286D01*
X194626860Y-79150406D01*
X194408219Y-78964060D01*
X194146320Y-78846004D01*
X193861900Y-78805585D01*
X193563740Y-78805585D01*
X193267663Y-78775510D01*
X192949508Y-78805585D01*
X192661900Y-78805585D01*
X192500106Y-78818487D01*
X192225686Y-78903470D01*
X192204612Y-78917357D01*
X192046320Y-78846004D01*
X191761900Y-78805585D01*
X190561900Y-78805585D01*
X190400106Y-78818487D01*
X190125686Y-78903470D01*
X189885806Y-79061540D01*
X189699460Y-79280181D01*
X189581404Y-79542080D01*
X189540985Y-79826500D01*
X189540985Y-81026500D01*
X189543704Y-81060598D01*
X189458660Y-81160381D01*
X189340604Y-81422280D01*
X189300185Y-81706700D01*
X189300185Y-82275500D01*
X188209300Y-82275500D01*
X188027187Y-82293356D01*
X187844856Y-82309308D01*
X187834847Y-82312216D01*
X187824483Y-82313232D01*
X187649340Y-82366110D01*
X187473546Y-82417183D01*
X187464295Y-82421978D01*
X187454323Y-82424989D01*
X187292754Y-82510897D01*
X187130262Y-82595125D01*
X187122120Y-82601625D01*
X187112921Y-82606516D01*
X186971104Y-82722179D01*
X186828077Y-82836356D01*
X186813577Y-82850655D01*
X186813279Y-82850898D01*
X186813050Y-82851174D01*
X186808380Y-82855780D01*
X185399180Y-84264980D01*
X185283031Y-84406383D01*
X185165385Y-84546587D01*
X185160365Y-84555719D01*
X185153754Y-84563767D01*
X185067274Y-84725051D01*
X184979109Y-84885422D01*
X184975960Y-84895349D01*
X184971035Y-84904534D01*
X184917521Y-85079571D01*
X184862194Y-85253985D01*
X184861033Y-85264339D01*
X184857987Y-85274301D01*
X184839494Y-85456358D01*
X184819093Y-85638238D01*
X184818951Y-85658601D01*
X184818912Y-85658984D01*
X184818946Y-85659341D01*
X184818900Y-85665900D01*
X184818900Y-87544148D01*
X184809987Y-87573301D01*
X184770912Y-87957984D01*
X184807300Y-88342931D01*
X184917765Y-88713478D01*
X184931185Y-88738931D01*
X184931185Y-88764900D01*
X184944087Y-88926694D01*
X185029070Y-89201114D01*
X185187140Y-89440994D01*
X185405781Y-89627340D01*
X185667680Y-89745396D01*
X185952100Y-89785815D01*
X185972867Y-89785815D01*
X185977984Y-89788605D01*
X186346953Y-89904232D01*
X186731353Y-89945991D01*
X187116544Y-89912292D01*
X187487854Y-89804416D01*
X187523739Y-89785815D01*
X187552100Y-89785815D01*
X187713894Y-89772913D01*
X187902100Y-89714629D01*
X187902100Y-101570900D01*
X187915838Y-101711010D01*
X187928106Y-101851242D01*
X187930342Y-101858939D01*
X187931124Y-101866913D01*
X187971811Y-102001673D01*
X188011088Y-102136865D01*
X188014776Y-102143980D01*
X188017092Y-102151651D01*
X188083180Y-102275945D01*
X188147966Y-102400930D01*
X188152966Y-102407193D01*
X188156728Y-102414269D01*
X188245729Y-102523395D01*
X188333529Y-102633380D01*
X188344525Y-102644531D01*
X188344714Y-102644763D01*
X188344928Y-102644940D01*
X188348469Y-102648531D01*
X188756100Y-103056162D01*
X188756100Y-103554397D01*
X188660020Y-103457644D01*
X188317263Y-103226452D01*
X187936128Y-103066237D01*
X187531133Y-102983104D01*
X187117704Y-102980217D01*
X186711588Y-103057688D01*
X186328253Y-103212565D01*
X185982302Y-103438950D01*
X185686911Y-103728218D01*
X185453331Y-104069353D01*
X185290460Y-104449359D01*
X185204501Y-104853764D01*
X185198928Y-105252876D01*
X185119900Y-105133929D01*
X185119900Y-97446310D01*
X185719963Y-96846247D01*
X185910120Y-96812717D01*
X186187888Y-96704978D01*
X186439439Y-96545339D01*
X186655192Y-96339880D01*
X186826928Y-96096427D01*
X186948108Y-95824254D01*
X187014114Y-95533728D01*
X187018865Y-95193435D01*
X186960997Y-94901178D01*
X186847465Y-94625728D01*
X186682592Y-94377575D01*
X186472660Y-94166172D01*
X186225665Y-93999572D01*
X185951013Y-93884119D01*
X185659168Y-93824212D01*
X185361245Y-93822132D01*
X185068591Y-93877958D01*
X184792355Y-93989565D01*
X184543057Y-94152701D01*
X184330194Y-94361152D01*
X184161873Y-94606978D01*
X184044506Y-94880817D01*
X183992553Y-95125237D01*
X183038595Y-96079195D01*
X182967074Y-96166266D01*
X182894722Y-96252492D01*
X182891636Y-96258106D01*
X182887563Y-96263064D01*
X182834321Y-96362360D01*
X182780090Y-96461006D01*
X182778151Y-96467117D01*
X182775122Y-96472767D01*
X182742197Y-96580461D01*
X182708142Y-96687814D01*
X182707427Y-96694185D01*
X182705553Y-96700316D01*
X182694169Y-96812385D01*
X182681619Y-96924277D01*
X182681531Y-96936803D01*
X182681507Y-96937044D01*
X182681528Y-96937268D01*
X182681500Y-96941300D01*
X182681500Y-104896900D01*
X182211019Y-104896900D01*
X182222615Y-104815300D01*
X182222615Y-103515300D01*
X182209713Y-103353506D01*
X182124730Y-103079086D01*
X181966660Y-102839206D01*
X181748019Y-102652860D01*
X181620100Y-102595198D01*
X181620100Y-102118100D01*
X181609570Y-102010711D01*
X181600162Y-101903171D01*
X181598447Y-101897269D01*
X181597848Y-101891157D01*
X181566656Y-101787842D01*
X181536543Y-101684194D01*
X181533717Y-101678741D01*
X181531940Y-101672857D01*
X181481264Y-101577549D01*
X181431603Y-101481744D01*
X181427769Y-101476942D01*
X181424885Y-101471517D01*
X181356672Y-101387880D01*
X181289338Y-101303532D01*
X181280906Y-101294981D01*
X181280762Y-101294805D01*
X181280599Y-101294670D01*
X181277884Y-101291917D01*
X181172506Y-101186538D01*
X181194614Y-101089228D01*
X181199365Y-100748935D01*
X181141497Y-100456678D01*
X181027965Y-100181228D01*
X180863092Y-99933075D01*
X180653160Y-99721672D01*
X180406165Y-99555072D01*
X180131513Y-99439619D01*
X179839668Y-99379712D01*
X179541745Y-99377632D01*
X179249091Y-99433458D01*
X178972855Y-99545065D01*
X178723557Y-99708201D01*
X178510694Y-99916652D01*
X178342373Y-100162478D01*
X178225006Y-100436317D01*
X178163063Y-100727737D01*
X178158903Y-101025638D01*
X178212685Y-101318674D01*
X178322361Y-101595683D01*
X178483752Y-101846114D01*
X178690712Y-102060427D01*
X178866978Y-102182936D01*
X178877462Y-102196068D01*
X178888916Y-102207684D01*
X179271607Y-102590374D01*
X179265486Y-102592270D01*
X179025606Y-102750340D01*
X178839260Y-102968981D01*
X178721204Y-103230880D01*
X178680785Y-103515300D01*
X178680785Y-104815300D01*
X178693687Y-104977094D01*
X178733123Y-105104438D01*
X178723629Y-105125500D01*
X178299419Y-105125500D01*
X178311015Y-105043900D01*
X178311015Y-103743900D01*
X178298113Y-103582106D01*
X178213130Y-103307686D01*
X178055060Y-103067806D01*
X177836419Y-102881460D01*
X177574520Y-102763404D01*
X177290100Y-102722985D01*
X175806582Y-102722985D01*
X175812724Y-102711719D01*
X175860828Y-102643527D01*
X175909475Y-102534264D01*
X175936349Y-102484974D01*
X175948062Y-102447597D01*
X175982008Y-102371354D01*
X176008509Y-102254711D01*
X176025293Y-102201152D01*
X176029523Y-102162218D01*
X176048014Y-102080828D01*
X176049437Y-101978905D01*
X176057416Y-101905458D01*
X176051419Y-101836916D01*
X176052765Y-101740535D01*
X176035246Y-101652059D01*
X176031493Y-101609158D01*
X176016606Y-101557915D01*
X175994897Y-101448278D01*
X175960526Y-101364887D01*
X175948512Y-101323535D01*
X175923956Y-101276162D01*
X175881365Y-101172828D01*
X175831451Y-101097701D01*
X175811633Y-101059469D01*
X175778341Y-101017765D01*
X175716492Y-100924675D01*
X175652938Y-100860676D01*
X175626071Y-100827020D01*
X175611130Y-100811869D01*
X174087131Y-99287869D01*
X173978335Y-99198503D01*
X173870510Y-99108027D01*
X173863487Y-99104166D01*
X173857295Y-99099080D01*
X173733233Y-99032559D01*
X173609867Y-98964738D01*
X173602229Y-98962315D01*
X173595166Y-98958528D01*
X173460549Y-98917371D01*
X173326357Y-98874803D01*
X173318392Y-98873910D01*
X173310730Y-98871567D01*
X173170650Y-98857338D01*
X173030778Y-98841649D01*
X173015119Y-98841539D01*
X173014820Y-98841509D01*
X173014542Y-98841535D01*
X173009500Y-98841500D01*
X169297362Y-98841500D01*
X167746625Y-97290763D01*
X177146729Y-97290763D01*
X177221362Y-97697410D01*
X177373559Y-98081817D01*
X177597523Y-98429340D01*
X177884722Y-98726744D01*
X178224218Y-98962699D01*
X178603078Y-99128219D01*
X179006873Y-99216999D01*
X179420222Y-99225658D01*
X179827380Y-99153865D01*
X180212839Y-99004355D01*
X180561918Y-98782823D01*
X180861319Y-98497707D01*
X181099639Y-98159867D01*
X181267800Y-97782171D01*
X181359397Y-97379006D01*
X181365991Y-96906780D01*
X181285687Y-96501215D01*
X181128137Y-96118971D01*
X180899343Y-95774608D01*
X180608020Y-95481244D01*
X180265263Y-95250052D01*
X179884128Y-95089837D01*
X179479133Y-95006704D01*
X179065704Y-95003817D01*
X178659588Y-95081288D01*
X178276253Y-95236165D01*
X177930302Y-95462550D01*
X177634911Y-95751818D01*
X177401331Y-96092953D01*
X177238460Y-96472959D01*
X177152501Y-96877364D01*
X177146729Y-97290763D01*
X167746625Y-97290763D01*
X159710731Y-89254869D01*
X159601931Y-89165500D01*
X159494110Y-89075027D01*
X159487087Y-89071166D01*
X159480895Y-89066080D01*
X159356833Y-88999559D01*
X159233467Y-88931738D01*
X159226912Y-88929659D01*
X159115919Y-88835060D01*
X158854020Y-88717004D01*
X158569600Y-88676585D01*
X154022100Y-88676585D01*
X154022100Y-86782900D01*
X154020479Y-86766367D01*
X154021597Y-86749800D01*
X154010105Y-86660566D01*
X154001322Y-86570990D01*
X153996521Y-86555089D01*
X153994400Y-86538618D01*
X153965792Y-86453308D01*
X153939780Y-86367152D01*
X153931982Y-86352486D01*
X153926702Y-86336741D01*
X153882067Y-86258610D01*
X153839817Y-86179150D01*
X153829319Y-86166278D01*
X153821081Y-86151858D01*
X153762122Y-86083886D01*
X153705242Y-86014144D01*
X153692444Y-86003557D01*
X153681562Y-85991011D01*
X153610515Y-85935779D01*
X153541179Y-85878420D01*
X153526570Y-85870521D01*
X153513457Y-85860327D01*
X153433041Y-85819950D01*
X153353880Y-85777147D01*
X153338013Y-85772235D01*
X153323171Y-85764783D01*
X153236449Y-85740796D01*
X153150476Y-85714183D01*
X153133955Y-85712447D01*
X153117951Y-85708020D01*
X153028206Y-85701332D01*
X152938717Y-85691927D01*
X152922183Y-85693432D01*
X152905614Y-85692197D01*
X152890387Y-85692660D01*
X152531380Y-85706066D01*
X152522438Y-84901815D01*
X155902600Y-84901815D01*
X156064394Y-84888913D01*
X156338814Y-84803930D01*
X156574438Y-84648665D01*
X156614358Y-84780886D01*
X156668667Y-84967818D01*
X156673767Y-84977656D01*
X156676972Y-84988273D01*
X156768428Y-85160277D01*
X156858015Y-85333108D01*
X156864929Y-85341769D01*
X156870135Y-85351560D01*
X156993222Y-85502480D01*
X157114709Y-85654664D01*
X157129928Y-85670097D01*
X157130183Y-85670410D01*
X157130473Y-85670650D01*
X157135377Y-85675623D01*
X158350377Y-86890622D01*
X158500888Y-87014253D01*
X158650037Y-87139404D01*
X158659749Y-87144743D01*
X158668317Y-87151781D01*
X158839966Y-87243818D01*
X159010592Y-87337621D01*
X159021158Y-87340973D01*
X159030929Y-87346212D01*
X159217190Y-87403158D01*
X159402781Y-87462031D01*
X159413796Y-87463266D01*
X159424398Y-87466508D01*
X159618120Y-87486185D01*
X159811665Y-87507895D01*
X159833337Y-87508046D01*
X159833741Y-87508087D01*
X159834118Y-87508051D01*
X159841100Y-87508100D01*
X169089216Y-87508100D01*
X169060225Y-87774961D01*
X169099110Y-88219412D01*
X169223582Y-88647847D01*
X169428899Y-89043945D01*
X169707242Y-89392619D01*
X169729654Y-89415346D01*
X169895654Y-89581346D01*
X170240408Y-89864530D01*
X170633601Y-90075358D01*
X171060255Y-90205800D01*
X171504120Y-90250886D01*
X171948289Y-90208900D01*
X172375843Y-90081440D01*
X172770499Y-89873362D01*
X173117221Y-89592591D01*
X173402806Y-89249822D01*
X173616374Y-88858111D01*
X173749791Y-88432377D01*
X173797974Y-87988839D01*
X173759090Y-87544388D01*
X173634618Y-87115953D01*
X173454300Y-86768085D01*
X173454300Y-86425900D01*
X173435292Y-86232043D01*
X173418324Y-86038094D01*
X173415232Y-86027452D01*
X173414150Y-86016415D01*
X173357842Y-85829914D01*
X173303533Y-85642982D01*
X173298433Y-85633144D01*
X173295228Y-85622527D01*
X173203783Y-85450544D01*
X173114185Y-85277691D01*
X173107269Y-85269028D01*
X173102065Y-85259240D01*
X172978996Y-85108342D01*
X172857491Y-84956136D01*
X172842276Y-84940707D01*
X172842017Y-84940390D01*
X172841723Y-84940147D01*
X172836822Y-84935177D01*
X171810823Y-83909177D01*
X171660255Y-83785499D01*
X171511163Y-83660396D01*
X171501454Y-83655059D01*
X171492883Y-83648018D01*
X171321196Y-83555960D01*
X171150608Y-83462179D01*
X171140043Y-83458827D01*
X171130271Y-83453588D01*
X170944010Y-83396642D01*
X170758419Y-83337769D01*
X170747404Y-83336534D01*
X170736802Y-83333292D01*
X170543080Y-83313615D01*
X170349535Y-83291905D01*
X170327863Y-83291754D01*
X170327459Y-83291713D01*
X170327082Y-83291749D01*
X170320100Y-83291700D01*
X169607814Y-83291700D01*
X169666451Y-83274442D01*
X170061830Y-83067743D01*
X170409530Y-82788185D01*
X170696309Y-82446415D01*
X170911243Y-82055451D01*
X171046145Y-81630186D01*
X171095877Y-81186818D01*
X171096100Y-81154900D01*
X171096100Y-81106900D01*
X171512100Y-81106900D01*
X171956120Y-81063363D01*
X172383227Y-80934412D01*
X172777153Y-80724958D01*
X173122894Y-80442979D01*
X173407280Y-80099215D01*
X173619479Y-79706761D01*
X173751409Y-79280564D01*
X173779762Y-79010800D01*
X185292500Y-79010800D01*
X185292500Y-79685865D01*
X185317848Y-79813298D01*
X185367570Y-79933338D01*
X185439755Y-80041370D01*
X185531629Y-80133245D01*
X185639662Y-80205430D01*
X185759702Y-80255152D01*
X185887135Y-80280500D01*
X186562200Y-80280500D01*
X186727100Y-80115600D01*
X186727100Y-78845900D01*
X186777100Y-78845900D01*
X186777100Y-80115600D01*
X186942000Y-80280500D01*
X187617065Y-80280500D01*
X187744498Y-80255152D01*
X187864538Y-80205430D01*
X187972571Y-80133245D01*
X188064445Y-80041370D01*
X188136630Y-79933338D01*
X188186352Y-79813298D01*
X188211700Y-79685865D01*
X188211700Y-79010800D01*
X188046800Y-78845900D01*
X186777100Y-78845900D01*
X186727100Y-78845900D01*
X185457400Y-78845900D01*
X185292500Y-79010800D01*
X173779762Y-79010800D01*
X173798044Y-78836859D01*
X173757609Y-78392546D01*
X173745818Y-78352485D01*
X185292500Y-78384315D01*
M02*
