M48
;DRILL file {KiCad 4.0.6} date 05/07/17 20:47:19
;FORMAT={-:-/ absolute / inch / decimal}
FMAT,2
INCH,TZ
T1C0.024
T2C0.039
T3C0.079
%
G90
G05
M72
T1
X6.1434Y-3.5564
X6.2085Y-4.8142
X6.215Y-5.1484
X6.3591Y-3.1841
X6.5993Y-4.877
X6.6234Y-3.5463
X6.8714Y-4.0114
X6.8744Y-4.1074
X7.074Y-3.9724
X7.1644Y-4.2774
X7.2405Y-4.1755
X7.3031Y-3.7536
X7.3558Y-3.6031
X7.5661Y-3.9365
X7.6371Y-3.7882
X7.6868Y-3.2098
X7.7504Y-4.0874
X7.7621Y-3.407
X7.8282Y-4.6656
X7.8384Y-4.4034
X7.8909Y-4.8159
X7.9244Y-5.1246
X8.0019Y-3.3604
T2
X6.7524Y-3.1032
X6.7524Y-3.4632
X7.3524Y-3.1032
X7.3524Y-3.4632
T3
X6.7444Y-4.1374
X7.0574Y-3.8234
X7.0594Y-4.4524
X7.3744Y-4.1374
T0
M30
