G04 #@! TF.FileFunction,Legend,Bot*
%FSLAX46Y46*%
G04 Gerber Fmt 4.6, Leading zero omitted, Abs format (unit mm)*
G04 Created by KiCad (PCBNEW 4.0.6) date 05/07/17 20:47:01*
%MOMM*%
%LPD*%
G01*
G04 APERTURE LIST*
%ADD10C,0.100000*%
%ADD11C,0.113792*%
%ADD12C,0.127000*%
%ADD13C,0.304800*%
%ADD14C,0.101600*%
G04 APERTURE END LIST*
D10*
D11*
X189511033Y-131394140D02*
X189961460Y-131394140D01*
X190154500Y-132101953D02*
X189511033Y-132101953D01*
X189511033Y-130750673D01*
X190154500Y-130750673D01*
X190733620Y-132101953D02*
X190733620Y-130750673D01*
X191184047Y-131715873D01*
X191634474Y-130750673D01*
X191634474Y-132101953D01*
X192277940Y-131394140D02*
X192728367Y-131394140D01*
X192921407Y-132101953D02*
X192277940Y-132101953D01*
X192277940Y-130750673D01*
X192921407Y-130750673D01*
X194272687Y-132101953D02*
X193822261Y-131458487D01*
X193500527Y-132101953D02*
X193500527Y-130750673D01*
X194015301Y-130750673D01*
X194143994Y-130815020D01*
X194208341Y-130879367D01*
X194272687Y-131008060D01*
X194272687Y-131201100D01*
X194208341Y-131329793D01*
X194143994Y-131394140D01*
X194015301Y-131458487D01*
X193500527Y-131458487D01*
X195559621Y-130815020D02*
X195430927Y-130750673D01*
X195237887Y-130750673D01*
X195044847Y-130815020D01*
X194916154Y-130943713D01*
X194851807Y-131072407D01*
X194787461Y-131329793D01*
X194787461Y-131522833D01*
X194851807Y-131780220D01*
X194916154Y-131908913D01*
X195044847Y-132037607D01*
X195237887Y-132101953D01*
X195366581Y-132101953D01*
X195559621Y-132037607D01*
X195623967Y-131973260D01*
X195623967Y-131522833D01*
X195366581Y-131522833D01*
X196203087Y-131394140D02*
X196653514Y-131394140D01*
X196846554Y-132101953D02*
X196203087Y-132101953D01*
X196203087Y-130750673D01*
X196846554Y-130750673D01*
X198905648Y-131394140D02*
X198455221Y-131394140D01*
X198455221Y-132101953D02*
X198455221Y-130750673D01*
X199098688Y-130750673D01*
X199549115Y-131715873D02*
X200192581Y-131715873D01*
X199420421Y-132101953D02*
X199870848Y-130750673D01*
X200321275Y-132101953D01*
X201543861Y-131973260D02*
X201479515Y-132037607D01*
X201286475Y-132101953D01*
X201157781Y-132101953D01*
X200964741Y-132037607D01*
X200836048Y-131908913D01*
X200771701Y-131780220D01*
X200707355Y-131522833D01*
X200707355Y-131329793D01*
X200771701Y-131072407D01*
X200836048Y-130943713D01*
X200964741Y-130815020D01*
X201157781Y-130750673D01*
X201286475Y-130750673D01*
X201479515Y-130815020D01*
X201543861Y-130879367D01*
X202122981Y-131394140D02*
X202573408Y-131394140D01*
X202766448Y-132101953D02*
X202122981Y-132101953D01*
X202122981Y-130750673D01*
X202766448Y-130750673D01*
X204310769Y-130879367D02*
X204375115Y-130815020D01*
X204503809Y-130750673D01*
X204825542Y-130750673D01*
X204954235Y-130815020D01*
X205018582Y-130879367D01*
X205082929Y-131008060D01*
X205082929Y-131136753D01*
X205018582Y-131329793D01*
X204246422Y-132101953D01*
X205082929Y-132101953D01*
D10*
G36*
X176640100Y-105343900D02*
X176440100Y-105343900D01*
X176440100Y-105143900D01*
X176640100Y-105143900D01*
X176640100Y-105343900D01*
G37*
D12*
X178646300Y-103084500D02*
X178446300Y-103084500D01*
X178446300Y-103084500D02*
X178446300Y-104524500D01*
X178456300Y-105234500D02*
X178456300Y-107044500D01*
X178456300Y-107044500D02*
X178636300Y-107044500D01*
X182196300Y-103094500D02*
X182396300Y-103094500D01*
X182396300Y-103094500D02*
X182396300Y-103924500D01*
X182186300Y-107034500D02*
X182406300Y-107034500D01*
X182406300Y-107034500D02*
X182406300Y-105424500D01*
D13*
X179070309Y-102474500D02*
G75*
G03X179070309Y-102474500I-164009J0D01*
G01*
D12*
X178947922Y-102474500D02*
G75*
G03X178947922Y-102474500I-31622J0D01*
G01*
D14*
X177752648Y-107475686D02*
X177752648Y-106901162D01*
X176546148Y-106901162D01*
X177120671Y-107877852D02*
X177120671Y-108280019D01*
X177752648Y-108452376D02*
X177752648Y-107877852D01*
X176546148Y-107877852D01*
X176546148Y-108452376D01*
X177752648Y-108969447D02*
X176546148Y-108969447D01*
X176546148Y-109256709D01*
X176603600Y-109429066D01*
X176718505Y-109543971D01*
X176833410Y-109601423D01*
X177063219Y-109658875D01*
X177235576Y-109658875D01*
X177465386Y-109601423D01*
X177580290Y-109543971D01*
X177695195Y-109429066D01*
X177752648Y-109256709D01*
X177752648Y-108969447D01*
X176661052Y-110118495D02*
X176603600Y-110175947D01*
X176546148Y-110290852D01*
X176546148Y-110578114D01*
X176603600Y-110693018D01*
X176661052Y-110750471D01*
X176775957Y-110807923D01*
X176890862Y-110807923D01*
X177063219Y-110750471D01*
X177752648Y-110061042D01*
X177752648Y-110807923D01*
D12*
X190230005Y-90240948D02*
X190632171Y-91447448D01*
X191034338Y-90240948D01*
X192125933Y-91332543D02*
X192068481Y-91389995D01*
X191896124Y-91447448D01*
X191781219Y-91447448D01*
X191608862Y-91389995D01*
X191493957Y-91275090D01*
X191436505Y-91160186D01*
X191379053Y-90930376D01*
X191379053Y-90758019D01*
X191436505Y-90528210D01*
X191493957Y-90413305D01*
X191608862Y-90298400D01*
X191781219Y-90240948D01*
X191896124Y-90240948D01*
X192068481Y-90298400D01*
X192125933Y-90355852D01*
X193332433Y-91332543D02*
X193274981Y-91389995D01*
X193102624Y-91447448D01*
X192987719Y-91447448D01*
X192815362Y-91389995D01*
X192700457Y-91275090D01*
X192643005Y-91160186D01*
X192585553Y-90930376D01*
X192585553Y-90758019D01*
X192643005Y-90528210D01*
X192700457Y-90413305D01*
X192815362Y-90298400D01*
X192987719Y-90240948D01*
X193102624Y-90240948D01*
X193274981Y-90298400D01*
X193332433Y-90355852D01*
X193562243Y-91562352D02*
X194481481Y-91562352D01*
X194711291Y-90355852D02*
X194768743Y-90298400D01*
X194883648Y-90240948D01*
X195170910Y-90240948D01*
X195285814Y-90298400D01*
X195343267Y-90355852D01*
X195400719Y-90470757D01*
X195400719Y-90585662D01*
X195343267Y-90758019D01*
X194653838Y-91447448D01*
X195400719Y-91447448D01*
X195630529Y-91562352D02*
X196549767Y-91562352D01*
X197526457Y-91332543D02*
X197469005Y-91389995D01*
X197296648Y-91447448D01*
X197181743Y-91447448D01*
X197009386Y-91389995D01*
X196894481Y-91275090D01*
X196837029Y-91160186D01*
X196779577Y-90930376D01*
X196779577Y-90758019D01*
X196837029Y-90528210D01*
X196894481Y-90413305D01*
X197009386Y-90298400D01*
X197181743Y-90240948D01*
X197296648Y-90240948D01*
X197469005Y-90298400D01*
X197526457Y-90355852D01*
X197986077Y-90355852D02*
X198043529Y-90298400D01*
X198158434Y-90240948D01*
X198445696Y-90240948D01*
X198560600Y-90298400D01*
X198618053Y-90355852D01*
X198675505Y-90470757D01*
X198675505Y-90585662D01*
X198618053Y-90758019D01*
X197928624Y-91447448D01*
X198675505Y-91447448D01*
X166221005Y-114275948D02*
X166623171Y-115482448D01*
X167025338Y-114275948D01*
X168116933Y-115367543D02*
X168059481Y-115424995D01*
X167887124Y-115482448D01*
X167772219Y-115482448D01*
X167599862Y-115424995D01*
X167484957Y-115310090D01*
X167427505Y-115195186D01*
X167370053Y-114965376D01*
X167370053Y-114793019D01*
X167427505Y-114563210D01*
X167484957Y-114448305D01*
X167599862Y-114333400D01*
X167772219Y-114275948D01*
X167887124Y-114275948D01*
X168059481Y-114333400D01*
X168116933Y-114390852D01*
X169323433Y-115367543D02*
X169265981Y-115424995D01*
X169093624Y-115482448D01*
X168978719Y-115482448D01*
X168806362Y-115424995D01*
X168691457Y-115310090D01*
X168634005Y-115195186D01*
X168576553Y-114965376D01*
X168576553Y-114793019D01*
X168634005Y-114563210D01*
X168691457Y-114448305D01*
X168806362Y-114333400D01*
X168978719Y-114275948D01*
X169093624Y-114275948D01*
X169265981Y-114333400D01*
X169323433Y-114390852D01*
X169553243Y-115597352D02*
X170472481Y-115597352D01*
X171391719Y-115482448D02*
X170702291Y-115482448D01*
X171047005Y-115482448D02*
X171047005Y-114275948D01*
X170932100Y-114448305D01*
X170817195Y-114563210D01*
X170702291Y-114620662D01*
X171621529Y-115597352D02*
X172540767Y-115597352D01*
X173517457Y-115367543D02*
X173460005Y-115424995D01*
X173287648Y-115482448D01*
X173172743Y-115482448D01*
X173000386Y-115424995D01*
X172885481Y-115310090D01*
X172828029Y-115195186D01*
X172770577Y-114965376D01*
X172770577Y-114793019D01*
X172828029Y-114563210D01*
X172885481Y-114448305D01*
X173000386Y-114333400D01*
X173172743Y-114275948D01*
X173287648Y-114275948D01*
X173460005Y-114333400D01*
X173517457Y-114390852D01*
X173977077Y-114390852D02*
X174034529Y-114333400D01*
X174149434Y-114275948D01*
X174436696Y-114275948D01*
X174551600Y-114333400D01*
X174609053Y-114390852D01*
X174666505Y-114505757D01*
X174666505Y-114620662D01*
X174609053Y-114793019D01*
X173919624Y-115482448D01*
X174666505Y-115482448D01*
X171120338Y-110455400D02*
X171005433Y-110397948D01*
X170833076Y-110397948D01*
X170660719Y-110455400D01*
X170545814Y-110570305D01*
X170488362Y-110685210D01*
X170430910Y-110915019D01*
X170430910Y-111087376D01*
X170488362Y-111317186D01*
X170545814Y-111432090D01*
X170660719Y-111546995D01*
X170833076Y-111604448D01*
X170947981Y-111604448D01*
X171120338Y-111546995D01*
X171177790Y-111489543D01*
X171177790Y-111087376D01*
X170947981Y-111087376D01*
X171694862Y-111604448D02*
X171694862Y-110397948D01*
X172384290Y-111604448D01*
X172384290Y-110397948D01*
X172958814Y-111604448D02*
X172958814Y-110397948D01*
X173246076Y-110397948D01*
X173418433Y-110455400D01*
X173533338Y-110570305D01*
X173590790Y-110685210D01*
X173648242Y-110915019D01*
X173648242Y-111087376D01*
X173590790Y-111317186D01*
X173533338Y-111432090D01*
X173418433Y-111546995D01*
X173246076Y-111604448D01*
X172958814Y-111604448D01*
X173878052Y-111719352D02*
X174797290Y-111719352D01*
X175027100Y-110512852D02*
X175084552Y-110455400D01*
X175199457Y-110397948D01*
X175486719Y-110397948D01*
X175601623Y-110455400D01*
X175659076Y-110512852D01*
X175716528Y-110627757D01*
X175716528Y-110742662D01*
X175659076Y-110915019D01*
X174969647Y-111604448D01*
X175716528Y-111604448D01*
X175946338Y-111719352D02*
X176865576Y-111719352D01*
X177842266Y-111489543D02*
X177784814Y-111546995D01*
X177612457Y-111604448D01*
X177497552Y-111604448D01*
X177325195Y-111546995D01*
X177210290Y-111432090D01*
X177152838Y-111317186D01*
X177095386Y-111087376D01*
X177095386Y-110915019D01*
X177152838Y-110685210D01*
X177210290Y-110570305D01*
X177325195Y-110455400D01*
X177497552Y-110397948D01*
X177612457Y-110397948D01*
X177784814Y-110455400D01*
X177842266Y-110512852D01*
X178301886Y-110512852D02*
X178359338Y-110455400D01*
X178474243Y-110397948D01*
X178761505Y-110397948D01*
X178876409Y-110455400D01*
X178933862Y-110512852D01*
X178991314Y-110627757D01*
X178991314Y-110742662D01*
X178933862Y-110915019D01*
X178244433Y-111604448D01*
X178991314Y-111604448D01*
X187151338Y-94487400D02*
X187036433Y-94429948D01*
X186864076Y-94429948D01*
X186691719Y-94487400D01*
X186576814Y-94602305D01*
X186519362Y-94717210D01*
X186461910Y-94947019D01*
X186461910Y-95119376D01*
X186519362Y-95349186D01*
X186576814Y-95464090D01*
X186691719Y-95578995D01*
X186864076Y-95636448D01*
X186978981Y-95636448D01*
X187151338Y-95578995D01*
X187208790Y-95521543D01*
X187208790Y-95119376D01*
X186978981Y-95119376D01*
X187725862Y-95636448D02*
X187725862Y-94429948D01*
X188415290Y-95636448D01*
X188415290Y-94429948D01*
X188989814Y-95636448D02*
X188989814Y-94429948D01*
X189277076Y-94429948D01*
X189449433Y-94487400D01*
X189564338Y-94602305D01*
X189621790Y-94717210D01*
X189679242Y-94947019D01*
X189679242Y-95119376D01*
X189621790Y-95349186D01*
X189564338Y-95464090D01*
X189449433Y-95578995D01*
X189277076Y-95636448D01*
X188989814Y-95636448D01*
X189909052Y-95751352D02*
X190828290Y-95751352D01*
X191747528Y-95636448D02*
X191058100Y-95636448D01*
X191402814Y-95636448D02*
X191402814Y-94429948D01*
X191287909Y-94602305D01*
X191173004Y-94717210D01*
X191058100Y-94774662D01*
X191977338Y-95751352D02*
X192896576Y-95751352D01*
X193873266Y-95521543D02*
X193815814Y-95578995D01*
X193643457Y-95636448D01*
X193528552Y-95636448D01*
X193356195Y-95578995D01*
X193241290Y-95464090D01*
X193183838Y-95349186D01*
X193126386Y-95119376D01*
X193126386Y-94947019D01*
X193183838Y-94717210D01*
X193241290Y-94602305D01*
X193356195Y-94487400D01*
X193528552Y-94429948D01*
X193643457Y-94429948D01*
X193815814Y-94487400D01*
X193873266Y-94544852D01*
X194332886Y-94544852D02*
X194390338Y-94487400D01*
X194505243Y-94429948D01*
X194792505Y-94429948D01*
X194907409Y-94487400D01*
X194964862Y-94544852D01*
X195022314Y-94659757D01*
X195022314Y-94774662D01*
X194964862Y-94947019D01*
X194275433Y-95636448D01*
X195022314Y-95636448D01*
X199099790Y-83331543D02*
X199042338Y-83388995D01*
X198869981Y-83446448D01*
X198755076Y-83446448D01*
X198582719Y-83388995D01*
X198467814Y-83274090D01*
X198410362Y-83159186D01*
X198352910Y-82929376D01*
X198352910Y-82757019D01*
X198410362Y-82527210D01*
X198467814Y-82412305D01*
X198582719Y-82297400D01*
X198755076Y-82239948D01*
X198869981Y-82239948D01*
X199042338Y-82297400D01*
X199099790Y-82354852D01*
X199559410Y-83101733D02*
X200133933Y-83101733D01*
X199444505Y-83446448D02*
X199846671Y-82239948D01*
X200248838Y-83446448D01*
X200651005Y-83446448D02*
X200651005Y-82239948D01*
X201340433Y-83446448D01*
X201340433Y-82239948D01*
X202489481Y-83446448D02*
X201914957Y-83446448D01*
X201914957Y-82239948D01*
X202604385Y-83561352D02*
X203523623Y-83561352D01*
X203753433Y-82354852D02*
X203810885Y-82297400D01*
X203925790Y-82239948D01*
X204213052Y-82239948D01*
X204327956Y-82297400D01*
X204385409Y-82354852D01*
X204442861Y-82469757D01*
X204442861Y-82584662D01*
X204385409Y-82757019D01*
X203695980Y-83446448D01*
X204442861Y-83446448D01*
X204672671Y-83561352D02*
X205591909Y-83561352D01*
X206568599Y-83331543D02*
X206511147Y-83388995D01*
X206338790Y-83446448D01*
X206223885Y-83446448D01*
X206051528Y-83388995D01*
X205936623Y-83274090D01*
X205879171Y-83159186D01*
X205821719Y-82929376D01*
X205821719Y-82757019D01*
X205879171Y-82527210D01*
X205936623Y-82412305D01*
X206051528Y-82297400D01*
X206223885Y-82239948D01*
X206338790Y-82239948D01*
X206511147Y-82297400D01*
X206568599Y-82354852D01*
X207028219Y-82354852D02*
X207085671Y-82297400D01*
X207200576Y-82239948D01*
X207487838Y-82239948D01*
X207602742Y-82297400D01*
X207660195Y-82354852D01*
X207717647Y-82469757D01*
X207717647Y-82584662D01*
X207660195Y-82757019D01*
X206970766Y-83446448D01*
X207717647Y-83446448D01*
X159132790Y-123326543D02*
X159075338Y-123383995D01*
X158902981Y-123441448D01*
X158788076Y-123441448D01*
X158615719Y-123383995D01*
X158500814Y-123269090D01*
X158443362Y-123154186D01*
X158385910Y-122924376D01*
X158385910Y-122752019D01*
X158443362Y-122522210D01*
X158500814Y-122407305D01*
X158615719Y-122292400D01*
X158788076Y-122234948D01*
X158902981Y-122234948D01*
X159075338Y-122292400D01*
X159132790Y-122349852D01*
X159592410Y-123096733D02*
X160166933Y-123096733D01*
X159477505Y-123441448D02*
X159879671Y-122234948D01*
X160281838Y-123441448D01*
X160684005Y-123441448D02*
X160684005Y-122234948D01*
X161373433Y-123441448D01*
X161373433Y-122234948D01*
X162522481Y-123441448D02*
X161947957Y-123441448D01*
X161947957Y-122234948D01*
X162637385Y-123556352D02*
X163556623Y-123556352D01*
X164475861Y-123441448D02*
X163786433Y-123441448D01*
X164131147Y-123441448D02*
X164131147Y-122234948D01*
X164016242Y-122407305D01*
X163901337Y-122522210D01*
X163786433Y-122579662D01*
X164705671Y-123556352D02*
X165624909Y-123556352D01*
X166601599Y-123326543D02*
X166544147Y-123383995D01*
X166371790Y-123441448D01*
X166256885Y-123441448D01*
X166084528Y-123383995D01*
X165969623Y-123269090D01*
X165912171Y-123154186D01*
X165854719Y-122924376D01*
X165854719Y-122752019D01*
X165912171Y-122522210D01*
X165969623Y-122407305D01*
X166084528Y-122292400D01*
X166256885Y-122234948D01*
X166371790Y-122234948D01*
X166544147Y-122292400D01*
X166601599Y-122349852D01*
X167061219Y-122349852D02*
X167118671Y-122292400D01*
X167233576Y-122234948D01*
X167520838Y-122234948D01*
X167635742Y-122292400D01*
X167693195Y-122349852D01*
X167750647Y-122464757D01*
X167750647Y-122579662D01*
X167693195Y-122752019D01*
X167003766Y-123441448D01*
X167750647Y-123441448D01*
X195086790Y-87575543D02*
X195029338Y-87632995D01*
X194856981Y-87690448D01*
X194742076Y-87690448D01*
X194569719Y-87632995D01*
X194454814Y-87518090D01*
X194397362Y-87403186D01*
X194339910Y-87173376D01*
X194339910Y-87001019D01*
X194397362Y-86771210D01*
X194454814Y-86656305D01*
X194569719Y-86541400D01*
X194742076Y-86483948D01*
X194856981Y-86483948D01*
X195029338Y-86541400D01*
X195086790Y-86598852D01*
X195546410Y-87345733D02*
X196120933Y-87345733D01*
X195431505Y-87690448D02*
X195833671Y-86483948D01*
X196235838Y-87690448D01*
X196638005Y-87690448D02*
X196638005Y-86483948D01*
X197327433Y-87690448D01*
X197327433Y-86483948D01*
X197901957Y-87690448D02*
X197901957Y-86483948D01*
X197901957Y-87058471D02*
X198591385Y-87058471D01*
X198591385Y-87690448D02*
X198591385Y-86483948D01*
X198878647Y-87805352D02*
X199797885Y-87805352D01*
X200027695Y-86598852D02*
X200085147Y-86541400D01*
X200200052Y-86483948D01*
X200487314Y-86483948D01*
X200602218Y-86541400D01*
X200659671Y-86598852D01*
X200717123Y-86713757D01*
X200717123Y-86828662D01*
X200659671Y-87001019D01*
X199970242Y-87690448D01*
X200717123Y-87690448D01*
X200946933Y-87805352D02*
X201866171Y-87805352D01*
X202842861Y-87575543D02*
X202785409Y-87632995D01*
X202613052Y-87690448D01*
X202498147Y-87690448D01*
X202325790Y-87632995D01*
X202210885Y-87518090D01*
X202153433Y-87403186D01*
X202095981Y-87173376D01*
X202095981Y-87001019D01*
X202153433Y-86771210D01*
X202210885Y-86656305D01*
X202325790Y-86541400D01*
X202498147Y-86483948D01*
X202613052Y-86483948D01*
X202785409Y-86541400D01*
X202842861Y-86598852D01*
X203302481Y-86598852D02*
X203359933Y-86541400D01*
X203474838Y-86483948D01*
X203762100Y-86483948D01*
X203877004Y-86541400D01*
X203934457Y-86598852D01*
X203991909Y-86713757D01*
X203991909Y-86828662D01*
X203934457Y-87001019D01*
X203245028Y-87690448D01*
X203991909Y-87690448D01*
X163195790Y-119525543D02*
X163138338Y-119582995D01*
X162965981Y-119640448D01*
X162851076Y-119640448D01*
X162678719Y-119582995D01*
X162563814Y-119468090D01*
X162506362Y-119353186D01*
X162448910Y-119123376D01*
X162448910Y-118951019D01*
X162506362Y-118721210D01*
X162563814Y-118606305D01*
X162678719Y-118491400D01*
X162851076Y-118433948D01*
X162965981Y-118433948D01*
X163138338Y-118491400D01*
X163195790Y-118548852D01*
X163655410Y-119295733D02*
X164229933Y-119295733D01*
X163540505Y-119640448D02*
X163942671Y-118433948D01*
X164344838Y-119640448D01*
X164747005Y-119640448D02*
X164747005Y-118433948D01*
X165436433Y-119640448D01*
X165436433Y-118433948D01*
X166010957Y-119640448D02*
X166010957Y-118433948D01*
X166010957Y-119008471D02*
X166700385Y-119008471D01*
X166700385Y-119640448D02*
X166700385Y-118433948D01*
X166987647Y-119755352D02*
X167906885Y-119755352D01*
X168826123Y-119640448D02*
X168136695Y-119640448D01*
X168481409Y-119640448D02*
X168481409Y-118433948D01*
X168366504Y-118606305D01*
X168251599Y-118721210D01*
X168136695Y-118778662D01*
X169055933Y-119755352D02*
X169975171Y-119755352D01*
X170951861Y-119525543D02*
X170894409Y-119582995D01*
X170722052Y-119640448D01*
X170607147Y-119640448D01*
X170434790Y-119582995D01*
X170319885Y-119468090D01*
X170262433Y-119353186D01*
X170204981Y-119123376D01*
X170204981Y-118951019D01*
X170262433Y-118721210D01*
X170319885Y-118606305D01*
X170434790Y-118491400D01*
X170607147Y-118433948D01*
X170722052Y-118433948D01*
X170894409Y-118491400D01*
X170951861Y-118548852D01*
X171411481Y-118548852D02*
X171468933Y-118491400D01*
X171583838Y-118433948D01*
X171871100Y-118433948D01*
X171986004Y-118491400D01*
X172043457Y-118548852D01*
X172100909Y-118663757D01*
X172100909Y-118778662D01*
X172043457Y-118951019D01*
X171354028Y-119640448D01*
X172100909Y-119640448D01*
D14*
X176962348Y-102291762D02*
X177939038Y-102291762D01*
X178053943Y-102349214D01*
X178111395Y-102406667D01*
X178168848Y-102521571D01*
X178168848Y-102751381D01*
X178111395Y-102866286D01*
X178053943Y-102923738D01*
X177939038Y-102981190D01*
X176962348Y-102981190D01*
X176962348Y-103440809D02*
X176962348Y-104187690D01*
X177421967Y-103785523D01*
X177421967Y-103957881D01*
X177479419Y-104072785D01*
X177536871Y-104130238D01*
X177651776Y-104187690D01*
X177939038Y-104187690D01*
X178053943Y-104130238D01*
X178111395Y-104072785D01*
X178168848Y-103957881D01*
X178168848Y-103613166D01*
X178111395Y-103498262D01*
X178053943Y-103440809D01*
X182742348Y-101929405D02*
X183948848Y-102331571D01*
X182742348Y-102733738D01*
X183833943Y-103825333D02*
X183891395Y-103767881D01*
X183948848Y-103595524D01*
X183948848Y-103480619D01*
X183891395Y-103308262D01*
X183776490Y-103193357D01*
X183661586Y-103135905D01*
X183431776Y-103078453D01*
X183259419Y-103078453D01*
X183029610Y-103135905D01*
X182914705Y-103193357D01*
X182799800Y-103308262D01*
X182742348Y-103480619D01*
X182742348Y-103595524D01*
X182799800Y-103767881D01*
X182857252Y-103825333D01*
X183948848Y-104342405D02*
X182742348Y-104342405D01*
X183948848Y-105031833D01*
X182742348Y-105031833D01*
X183948848Y-106180881D02*
X183948848Y-105606357D01*
X182742348Y-105606357D01*
X183144514Y-107100118D02*
X183948848Y-107100118D01*
X182684895Y-106812856D02*
X183546681Y-106525595D01*
X183546681Y-107272475D01*
X182742348Y-107961904D02*
X182742348Y-108076809D01*
X182799800Y-108191714D01*
X182857252Y-108249166D01*
X182972157Y-108306619D01*
X183201967Y-108364071D01*
X183489229Y-108364071D01*
X183719038Y-108306619D01*
X183833943Y-108249166D01*
X183891395Y-108191714D01*
X183948848Y-108076809D01*
X183948848Y-107961904D01*
X183891395Y-107847000D01*
X183833943Y-107789547D01*
X183719038Y-107732095D01*
X183489229Y-107674643D01*
X183201967Y-107674643D01*
X182972157Y-107732095D01*
X182857252Y-107789547D01*
X182799800Y-107847000D01*
X182742348Y-107961904D01*
X183948848Y-109513119D02*
X183948848Y-108823691D01*
X183948848Y-109168405D02*
X182742348Y-109168405D01*
X182914705Y-109053500D01*
X183029610Y-108938595D01*
X183087062Y-108823691D01*
X182742348Y-110260000D02*
X182742348Y-110374905D01*
X182799800Y-110489810D01*
X182857252Y-110547262D01*
X182972157Y-110604715D01*
X183201967Y-110662167D01*
X183489229Y-110662167D01*
X183719038Y-110604715D01*
X183833943Y-110547262D01*
X183891395Y-110489810D01*
X183948848Y-110374905D01*
X183948848Y-110260000D01*
X183891395Y-110145096D01*
X183833943Y-110087643D01*
X183719038Y-110030191D01*
X183489229Y-109972739D01*
X183201967Y-109972739D01*
X182972157Y-110030191D01*
X182857252Y-110087643D01*
X182799800Y-110145096D01*
X182742348Y-110260000D01*
X183489229Y-111179239D02*
X183489229Y-112098477D01*
X182799800Y-113304977D02*
X182742348Y-113190072D01*
X182742348Y-113017715D01*
X182799800Y-112845358D01*
X182914705Y-112730453D01*
X183029610Y-112673001D01*
X183259419Y-112615549D01*
X183431776Y-112615549D01*
X183661586Y-112673001D01*
X183776490Y-112730453D01*
X183891395Y-112845358D01*
X183948848Y-113017715D01*
X183948848Y-113132620D01*
X183891395Y-113304977D01*
X183833943Y-113362429D01*
X183431776Y-113362429D01*
X183431776Y-113132620D01*
X183891395Y-113822049D02*
X183948848Y-113994406D01*
X183948848Y-114281668D01*
X183891395Y-114396572D01*
X183833943Y-114454025D01*
X183719038Y-114511477D01*
X183604133Y-114511477D01*
X183489229Y-114454025D01*
X183431776Y-114396572D01*
X183374324Y-114281668D01*
X183316871Y-114051858D01*
X183259419Y-113936953D01*
X183201967Y-113879501D01*
X183087062Y-113822049D01*
X182972157Y-113822049D01*
X182857252Y-113879501D01*
X182799800Y-113936953D01*
X182742348Y-114051858D01*
X182742348Y-114339120D01*
X182799800Y-114511477D01*
X182742348Y-115258358D02*
X182742348Y-115373263D01*
X182799800Y-115488168D01*
X182857252Y-115545620D01*
X182972157Y-115603073D01*
X183201967Y-115660525D01*
X183489229Y-115660525D01*
X183719038Y-115603073D01*
X183833943Y-115545620D01*
X183891395Y-115488168D01*
X183948848Y-115373263D01*
X183948848Y-115258358D01*
X183891395Y-115143454D01*
X183833943Y-115086001D01*
X183719038Y-115028549D01*
X183489229Y-114971097D01*
X183201967Y-114971097D01*
X182972157Y-115028549D01*
X182857252Y-115086001D01*
X182799800Y-115143454D01*
X182742348Y-115258358D01*
X183259419Y-116349954D02*
X183201967Y-116235049D01*
X183144514Y-116177597D01*
X183029610Y-116120145D01*
X182972157Y-116120145D01*
X182857252Y-116177597D01*
X182799800Y-116235049D01*
X182742348Y-116349954D01*
X182742348Y-116579764D01*
X182799800Y-116694668D01*
X182857252Y-116752121D01*
X182972157Y-116809573D01*
X183029610Y-116809573D01*
X183144514Y-116752121D01*
X183201967Y-116694668D01*
X183259419Y-116579764D01*
X183259419Y-116349954D01*
X183316871Y-116235049D01*
X183374324Y-116177597D01*
X183489229Y-116120145D01*
X183719038Y-116120145D01*
X183833943Y-116177597D01*
X183891395Y-116235049D01*
X183948848Y-116349954D01*
X183948848Y-116579764D01*
X183891395Y-116694668D01*
X183833943Y-116752121D01*
X183719038Y-116809573D01*
X183489229Y-116809573D01*
X183374324Y-116752121D01*
X183316871Y-116694668D01*
X183259419Y-116579764D01*
D12*
X186974338Y-110478400D02*
X186859433Y-110420948D01*
X186687076Y-110420948D01*
X186514719Y-110478400D01*
X186399814Y-110593305D01*
X186342362Y-110708210D01*
X186284910Y-110938019D01*
X186284910Y-111110376D01*
X186342362Y-111340186D01*
X186399814Y-111455090D01*
X186514719Y-111569995D01*
X186687076Y-111627448D01*
X186801981Y-111627448D01*
X186974338Y-111569995D01*
X187031790Y-111512543D01*
X187031790Y-111110376D01*
X186801981Y-111110376D01*
X187548862Y-111627448D02*
X187548862Y-110420948D01*
X188238290Y-111627448D01*
X188238290Y-110420948D01*
X188812814Y-111627448D02*
X188812814Y-110420948D01*
X189100076Y-110420948D01*
X189272433Y-110478400D01*
X189387338Y-110593305D01*
X189444790Y-110708210D01*
X189502242Y-110938019D01*
X189502242Y-111110376D01*
X189444790Y-111340186D01*
X189387338Y-111455090D01*
X189272433Y-111569995D01*
X189100076Y-111627448D01*
X188812814Y-111627448D01*
X189732052Y-111742352D02*
X190651290Y-111742352D01*
X191455623Y-110823114D02*
X191455623Y-111627448D01*
X191168361Y-110363495D02*
X190881100Y-111225281D01*
X191627980Y-111225281D01*
X191800338Y-111742352D02*
X192719576Y-111742352D01*
X193696266Y-111512543D02*
X193638814Y-111569995D01*
X193466457Y-111627448D01*
X193351552Y-111627448D01*
X193179195Y-111569995D01*
X193064290Y-111455090D01*
X193006838Y-111340186D01*
X192949386Y-111110376D01*
X192949386Y-110938019D01*
X193006838Y-110708210D01*
X193064290Y-110593305D01*
X193179195Y-110478400D01*
X193351552Y-110420948D01*
X193466457Y-110420948D01*
X193638814Y-110478400D01*
X193696266Y-110535852D01*
X194155886Y-110535852D02*
X194213338Y-110478400D01*
X194328243Y-110420948D01*
X194615505Y-110420948D01*
X194730409Y-110478400D01*
X194787862Y-110535852D01*
X194845314Y-110650757D01*
X194845314Y-110765662D01*
X194787862Y-110938019D01*
X194098433Y-111627448D01*
X194845314Y-111627448D01*
X170989738Y-94461000D02*
X170874833Y-94403548D01*
X170702476Y-94403548D01*
X170530119Y-94461000D01*
X170415214Y-94575905D01*
X170357762Y-94690810D01*
X170300310Y-94920619D01*
X170300310Y-95092976D01*
X170357762Y-95322786D01*
X170415214Y-95437690D01*
X170530119Y-95552595D01*
X170702476Y-95610048D01*
X170817381Y-95610048D01*
X170989738Y-95552595D01*
X171047190Y-95495143D01*
X171047190Y-95092976D01*
X170817381Y-95092976D01*
X171564262Y-95610048D02*
X171564262Y-94403548D01*
X172253690Y-95610048D01*
X172253690Y-94403548D01*
X172828214Y-95610048D02*
X172828214Y-94403548D01*
X173115476Y-94403548D01*
X173287833Y-94461000D01*
X173402738Y-94575905D01*
X173460190Y-94690810D01*
X173517642Y-94920619D01*
X173517642Y-95092976D01*
X173460190Y-95322786D01*
X173402738Y-95437690D01*
X173287833Y-95552595D01*
X173115476Y-95610048D01*
X172828214Y-95610048D01*
X173747452Y-95724952D02*
X174666690Y-95724952D01*
X174839047Y-94403548D02*
X175585928Y-94403548D01*
X175183761Y-94863167D01*
X175356119Y-94863167D01*
X175471023Y-94920619D01*
X175528476Y-94978071D01*
X175585928Y-95092976D01*
X175585928Y-95380238D01*
X175528476Y-95495143D01*
X175471023Y-95552595D01*
X175356119Y-95610048D01*
X175011404Y-95610048D01*
X174896500Y-95552595D01*
X174839047Y-95495143D01*
X175815738Y-95724952D02*
X176734976Y-95724952D01*
X177711666Y-95495143D02*
X177654214Y-95552595D01*
X177481857Y-95610048D01*
X177366952Y-95610048D01*
X177194595Y-95552595D01*
X177079690Y-95437690D01*
X177022238Y-95322786D01*
X176964786Y-95092976D01*
X176964786Y-94920619D01*
X177022238Y-94690810D01*
X177079690Y-94575905D01*
X177194595Y-94461000D01*
X177366952Y-94403548D01*
X177481857Y-94403548D01*
X177654214Y-94461000D01*
X177711666Y-94518452D01*
X178171286Y-94518452D02*
X178228738Y-94461000D01*
X178343643Y-94403548D01*
X178630905Y-94403548D01*
X178745809Y-94461000D01*
X178803262Y-94518452D01*
X178860714Y-94633357D01*
X178860714Y-94748262D01*
X178803262Y-94920619D01*
X178113833Y-95610048D01*
X178860714Y-95610048D01*
X166298405Y-90328748D02*
X166700571Y-91535248D01*
X167102738Y-90328748D01*
X168194333Y-91420343D02*
X168136881Y-91477795D01*
X167964524Y-91535248D01*
X167849619Y-91535248D01*
X167677262Y-91477795D01*
X167562357Y-91362890D01*
X167504905Y-91247986D01*
X167447453Y-91018176D01*
X167447453Y-90845819D01*
X167504905Y-90616010D01*
X167562357Y-90501105D01*
X167677262Y-90386200D01*
X167849619Y-90328748D01*
X167964524Y-90328748D01*
X168136881Y-90386200D01*
X168194333Y-90443652D01*
X169400833Y-91420343D02*
X169343381Y-91477795D01*
X169171024Y-91535248D01*
X169056119Y-91535248D01*
X168883762Y-91477795D01*
X168768857Y-91362890D01*
X168711405Y-91247986D01*
X168653953Y-91018176D01*
X168653953Y-90845819D01*
X168711405Y-90616010D01*
X168768857Y-90501105D01*
X168883762Y-90386200D01*
X169056119Y-90328748D01*
X169171024Y-90328748D01*
X169343381Y-90386200D01*
X169400833Y-90443652D01*
X169630643Y-91650152D02*
X170549881Y-91650152D01*
X170722238Y-90328748D02*
X171469119Y-90328748D01*
X171066952Y-90788367D01*
X171239310Y-90788367D01*
X171354214Y-90845819D01*
X171411667Y-90903271D01*
X171469119Y-91018176D01*
X171469119Y-91305438D01*
X171411667Y-91420343D01*
X171354214Y-91477795D01*
X171239310Y-91535248D01*
X170894595Y-91535248D01*
X170779691Y-91477795D01*
X170722238Y-91420343D01*
X171698929Y-91650152D02*
X172618167Y-91650152D01*
X173594857Y-91420343D02*
X173537405Y-91477795D01*
X173365048Y-91535248D01*
X173250143Y-91535248D01*
X173077786Y-91477795D01*
X172962881Y-91362890D01*
X172905429Y-91247986D01*
X172847977Y-91018176D01*
X172847977Y-90845819D01*
X172905429Y-90616010D01*
X172962881Y-90501105D01*
X173077786Y-90386200D01*
X173250143Y-90328748D01*
X173365048Y-90328748D01*
X173537405Y-90386200D01*
X173594857Y-90443652D01*
X174054477Y-90443652D02*
X174111929Y-90386200D01*
X174226834Y-90328748D01*
X174514096Y-90328748D01*
X174629000Y-90386200D01*
X174686453Y-90443652D01*
X174743905Y-90558557D01*
X174743905Y-90673462D01*
X174686453Y-90845819D01*
X173997024Y-91535248D01*
X174743905Y-91535248D01*
X190254205Y-114291748D02*
X190656371Y-115498248D01*
X191058538Y-114291748D01*
X192150133Y-115383343D02*
X192092681Y-115440795D01*
X191920324Y-115498248D01*
X191805419Y-115498248D01*
X191633062Y-115440795D01*
X191518157Y-115325890D01*
X191460705Y-115210986D01*
X191403253Y-114981176D01*
X191403253Y-114808819D01*
X191460705Y-114579010D01*
X191518157Y-114464105D01*
X191633062Y-114349200D01*
X191805419Y-114291748D01*
X191920324Y-114291748D01*
X192092681Y-114349200D01*
X192150133Y-114406652D01*
X193356633Y-115383343D02*
X193299181Y-115440795D01*
X193126824Y-115498248D01*
X193011919Y-115498248D01*
X192839562Y-115440795D01*
X192724657Y-115325890D01*
X192667205Y-115210986D01*
X192609753Y-114981176D01*
X192609753Y-114808819D01*
X192667205Y-114579010D01*
X192724657Y-114464105D01*
X192839562Y-114349200D01*
X193011919Y-114291748D01*
X193126824Y-114291748D01*
X193299181Y-114349200D01*
X193356633Y-114406652D01*
X193586443Y-115613152D02*
X194505681Y-115613152D01*
X195310014Y-114693914D02*
X195310014Y-115498248D01*
X195022752Y-114234295D02*
X194735491Y-115096081D01*
X195482371Y-115096081D01*
X195654729Y-115613152D02*
X196573967Y-115613152D01*
X197550657Y-115383343D02*
X197493205Y-115440795D01*
X197320848Y-115498248D01*
X197205943Y-115498248D01*
X197033586Y-115440795D01*
X196918681Y-115325890D01*
X196861229Y-115210986D01*
X196803777Y-114981176D01*
X196803777Y-114808819D01*
X196861229Y-114579010D01*
X196918681Y-114464105D01*
X197033586Y-114349200D01*
X197205943Y-114291748D01*
X197320848Y-114291748D01*
X197493205Y-114349200D01*
X197550657Y-114406652D01*
X198010277Y-114406652D02*
X198067729Y-114349200D01*
X198182634Y-114291748D01*
X198469896Y-114291748D01*
X198584800Y-114349200D01*
X198642253Y-114406652D01*
X198699705Y-114521557D01*
X198699705Y-114636462D01*
X198642253Y-114808819D01*
X197952824Y-115498248D01*
X198699705Y-115498248D01*
X199122990Y-123393343D02*
X199065538Y-123450795D01*
X198893181Y-123508248D01*
X198778276Y-123508248D01*
X198605919Y-123450795D01*
X198491014Y-123335890D01*
X198433562Y-123220986D01*
X198376110Y-122991176D01*
X198376110Y-122818819D01*
X198433562Y-122589010D01*
X198491014Y-122474105D01*
X198605919Y-122359200D01*
X198778276Y-122301748D01*
X198893181Y-122301748D01*
X199065538Y-122359200D01*
X199122990Y-122416652D01*
X199582610Y-123163533D02*
X200157133Y-123163533D01*
X199467705Y-123508248D02*
X199869871Y-122301748D01*
X200272038Y-123508248D01*
X200674205Y-123508248D02*
X200674205Y-122301748D01*
X201363633Y-123508248D01*
X201363633Y-122301748D01*
X202512681Y-123508248D02*
X201938157Y-123508248D01*
X201938157Y-122301748D01*
X202627585Y-123623152D02*
X203546823Y-123623152D01*
X204351156Y-122703914D02*
X204351156Y-123508248D01*
X204063894Y-122244295D02*
X203776633Y-123106081D01*
X204523513Y-123106081D01*
X204695871Y-123623152D02*
X205615109Y-123623152D01*
X206591799Y-123393343D02*
X206534347Y-123450795D01*
X206361990Y-123508248D01*
X206247085Y-123508248D01*
X206074728Y-123450795D01*
X205959823Y-123335890D01*
X205902371Y-123220986D01*
X205844919Y-122991176D01*
X205844919Y-122818819D01*
X205902371Y-122589010D01*
X205959823Y-122474105D01*
X206074728Y-122359200D01*
X206247085Y-122301748D01*
X206361990Y-122301748D01*
X206534347Y-122359200D01*
X206591799Y-122416652D01*
X207051419Y-122416652D02*
X207108871Y-122359200D01*
X207223776Y-122301748D01*
X207511038Y-122301748D01*
X207625942Y-122359200D01*
X207683395Y-122416652D01*
X207740847Y-122531557D01*
X207740847Y-122646462D01*
X207683395Y-122818819D01*
X206993966Y-123508248D01*
X207740847Y-123508248D01*
X159154190Y-83374943D02*
X159096738Y-83432395D01*
X158924381Y-83489848D01*
X158809476Y-83489848D01*
X158637119Y-83432395D01*
X158522214Y-83317490D01*
X158464762Y-83202586D01*
X158407310Y-82972776D01*
X158407310Y-82800419D01*
X158464762Y-82570610D01*
X158522214Y-82455705D01*
X158637119Y-82340800D01*
X158809476Y-82283348D01*
X158924381Y-82283348D01*
X159096738Y-82340800D01*
X159154190Y-82398252D01*
X159613810Y-83145133D02*
X160188333Y-83145133D01*
X159498905Y-83489848D02*
X159901071Y-82283348D01*
X160303238Y-83489848D01*
X160705405Y-83489848D02*
X160705405Y-82283348D01*
X161394833Y-83489848D01*
X161394833Y-82283348D01*
X162543881Y-83489848D02*
X161969357Y-83489848D01*
X161969357Y-82283348D01*
X162658785Y-83604752D02*
X163578023Y-83604752D01*
X163750380Y-82283348D02*
X164497261Y-82283348D01*
X164095094Y-82742967D01*
X164267452Y-82742967D01*
X164382356Y-82800419D01*
X164439809Y-82857871D01*
X164497261Y-82972776D01*
X164497261Y-83260038D01*
X164439809Y-83374943D01*
X164382356Y-83432395D01*
X164267452Y-83489848D01*
X163922737Y-83489848D01*
X163807833Y-83432395D01*
X163750380Y-83374943D01*
X164727071Y-83604752D02*
X165646309Y-83604752D01*
X166622999Y-83374943D02*
X166565547Y-83432395D01*
X166393190Y-83489848D01*
X166278285Y-83489848D01*
X166105928Y-83432395D01*
X165991023Y-83317490D01*
X165933571Y-83202586D01*
X165876119Y-82972776D01*
X165876119Y-82800419D01*
X165933571Y-82570610D01*
X165991023Y-82455705D01*
X166105928Y-82340800D01*
X166278285Y-82283348D01*
X166393190Y-82283348D01*
X166565547Y-82340800D01*
X166622999Y-82398252D01*
X167082619Y-82398252D02*
X167140071Y-82340800D01*
X167254976Y-82283348D01*
X167542238Y-82283348D01*
X167657142Y-82340800D01*
X167714595Y-82398252D01*
X167772047Y-82513157D01*
X167772047Y-82628062D01*
X167714595Y-82800419D01*
X167025166Y-83489848D01*
X167772047Y-83489848D01*
X163073990Y-87540743D02*
X163016538Y-87598195D01*
X162844181Y-87655648D01*
X162729276Y-87655648D01*
X162556919Y-87598195D01*
X162442014Y-87483290D01*
X162384562Y-87368386D01*
X162327110Y-87138576D01*
X162327110Y-86966219D01*
X162384562Y-86736410D01*
X162442014Y-86621505D01*
X162556919Y-86506600D01*
X162729276Y-86449148D01*
X162844181Y-86449148D01*
X163016538Y-86506600D01*
X163073990Y-86564052D01*
X163533610Y-87310933D02*
X164108133Y-87310933D01*
X163418705Y-87655648D02*
X163820871Y-86449148D01*
X164223038Y-87655648D01*
X164625205Y-87655648D02*
X164625205Y-86449148D01*
X165314633Y-87655648D01*
X165314633Y-86449148D01*
X165889157Y-87655648D02*
X165889157Y-86449148D01*
X165889157Y-87023671D02*
X166578585Y-87023671D01*
X166578585Y-87655648D02*
X166578585Y-86449148D01*
X166865847Y-87770552D02*
X167785085Y-87770552D01*
X168589418Y-86851314D02*
X168589418Y-87655648D01*
X168302156Y-86391695D02*
X168014895Y-87253481D01*
X168761775Y-87253481D01*
X168934133Y-87770552D02*
X169853371Y-87770552D01*
X170830061Y-87540743D02*
X170772609Y-87598195D01*
X170600252Y-87655648D01*
X170485347Y-87655648D01*
X170312990Y-87598195D01*
X170198085Y-87483290D01*
X170140633Y-87368386D01*
X170083181Y-87138576D01*
X170083181Y-86966219D01*
X170140633Y-86736410D01*
X170198085Y-86621505D01*
X170312990Y-86506600D01*
X170485347Y-86449148D01*
X170600252Y-86449148D01*
X170772609Y-86506600D01*
X170830061Y-86564052D01*
X171289681Y-86564052D02*
X171347133Y-86506600D01*
X171462038Y-86449148D01*
X171749300Y-86449148D01*
X171864204Y-86506600D01*
X171921657Y-86564052D01*
X171979109Y-86678957D01*
X171979109Y-86793862D01*
X171921657Y-86966219D01*
X171232228Y-87655648D01*
X171979109Y-87655648D01*
X195085990Y-119508543D02*
X195028538Y-119565995D01*
X194856181Y-119623448D01*
X194741276Y-119623448D01*
X194568919Y-119565995D01*
X194454014Y-119451090D01*
X194396562Y-119336186D01*
X194339110Y-119106376D01*
X194339110Y-118934019D01*
X194396562Y-118704210D01*
X194454014Y-118589305D01*
X194568919Y-118474400D01*
X194741276Y-118416948D01*
X194856181Y-118416948D01*
X195028538Y-118474400D01*
X195085990Y-118531852D01*
X195545610Y-119278733D02*
X196120133Y-119278733D01*
X195430705Y-119623448D02*
X195832871Y-118416948D01*
X196235038Y-119623448D01*
X196637205Y-119623448D02*
X196637205Y-118416948D01*
X197326633Y-119623448D01*
X197326633Y-118416948D01*
X197901157Y-119623448D02*
X197901157Y-118416948D01*
X197901157Y-118991471D02*
X198590585Y-118991471D01*
X198590585Y-119623448D02*
X198590585Y-118416948D01*
X198877847Y-119738352D02*
X199797085Y-119738352D01*
X199969442Y-118416948D02*
X200716323Y-118416948D01*
X200314156Y-118876567D01*
X200486514Y-118876567D01*
X200601418Y-118934019D01*
X200658871Y-118991471D01*
X200716323Y-119106376D01*
X200716323Y-119393638D01*
X200658871Y-119508543D01*
X200601418Y-119565995D01*
X200486514Y-119623448D01*
X200141799Y-119623448D01*
X200026895Y-119565995D01*
X199969442Y-119508543D01*
X200946133Y-119738352D02*
X201865371Y-119738352D01*
X202842061Y-119508543D02*
X202784609Y-119565995D01*
X202612252Y-119623448D01*
X202497347Y-119623448D01*
X202324990Y-119565995D01*
X202210085Y-119451090D01*
X202152633Y-119336186D01*
X202095181Y-119106376D01*
X202095181Y-118934019D01*
X202152633Y-118704210D01*
X202210085Y-118589305D01*
X202324990Y-118474400D01*
X202497347Y-118416948D01*
X202612252Y-118416948D01*
X202784609Y-118474400D01*
X202842061Y-118531852D01*
X203301681Y-118531852D02*
X203359133Y-118474400D01*
X203474038Y-118416948D01*
X203761300Y-118416948D01*
X203876204Y-118474400D01*
X203933657Y-118531852D01*
X203991109Y-118646757D01*
X203991109Y-118761662D01*
X203933657Y-118934019D01*
X203244228Y-119623448D01*
X203991109Y-119623448D01*
M02*
