%FSLAX45Y45*%
G04 Gerber Fmt 4.5, Leading zero omitted, Abs format (unit mm)*
G04 Created by KiCad (PCBNEW 4.0.6) date 05/08/17 07:10:59*
%MOMM*%
%LPD*%
G01*
G04 APERTURE LIST*
%ADD10C,0.127000*%
%ADD11C,0.150000*%
%ADD12C,0.200000*%
%ADD13C,0.300000*%
G04 APERTURE END LIST*
D10*
D11*
X20994170Y-8797350D02*
X20834450Y-8787510D01*
X20834450Y-8787510D02*
X20839530Y-12232470D01*
X20839530Y-12232470D02*
X20984330Y-12227930D01*
X20984330Y-12227930D02*
X20984330Y-13294730D01*
X26513530Y-13290290D02*
X26518610Y-7765790D01*
X26518610Y-7765790D02*
X20986870Y-7759450D01*
X20986870Y-7759450D02*
X20994170Y-8797350D01*
X26509810Y-13264390D02*
X26509810Y-7764390D01*
X26513210Y-7761890D02*
X21013210Y-7761890D01*
X26513210Y-13261890D02*
X26513210Y-7761890D01*
X21019610Y-13278290D02*
X26519610Y-13278290D01*
X26519610Y-13278290D02*
X26519610Y-7778290D01*
X26524010Y-7771090D02*
X21024010Y-7771090D01*
X26524010Y-13271090D02*
X26524010Y-7771090D01*
D12*
X23894030Y-8262830D02*
X23994030Y-8362830D01*
X23994030Y-8262830D02*
X23894030Y-8362830D01*
X24334030Y-8262830D02*
X24434030Y-8362830D01*
X24434030Y-8262830D02*
X24334030Y-8362830D01*
D13*
X21098379Y-13767944D02*
X21098379Y-13467944D01*
X21169807Y-13467944D01*
X21212664Y-13482230D01*
X21241236Y-13510801D01*
X21255521Y-13539373D01*
X21269807Y-13596516D01*
X21269807Y-13639373D01*
X21255521Y-13696516D01*
X21241236Y-13725087D01*
X21212664Y-13753659D01*
X21169807Y-13767944D01*
X21098379Y-13767944D01*
X21398379Y-13767944D02*
X21398379Y-13567944D01*
X21398379Y-13625087D02*
X21412664Y-13596516D01*
X21426950Y-13582230D01*
X21455521Y-13567944D01*
X21484093Y-13567944D01*
X21584093Y-13767944D02*
X21584093Y-13567944D01*
X21584093Y-13467944D02*
X21569807Y-13482230D01*
X21584093Y-13496516D01*
X21598379Y-13482230D01*
X21584093Y-13467944D01*
X21584093Y-13496516D01*
X21769807Y-13767944D02*
X21741236Y-13753659D01*
X21726950Y-13725087D01*
X21726950Y-13467944D01*
X21926950Y-13767944D02*
X21898379Y-13753659D01*
X21884093Y-13725087D01*
X21884093Y-13467944D01*
X22269807Y-13767944D02*
X22269807Y-13467944D01*
X22369807Y-13682230D01*
X22469807Y-13467944D01*
X22469807Y-13767944D01*
X22741236Y-13767944D02*
X22741236Y-13610801D01*
X22726950Y-13582230D01*
X22698378Y-13567944D01*
X22641236Y-13567944D01*
X22612664Y-13582230D01*
X22741236Y-13753659D02*
X22712664Y-13767944D01*
X22641236Y-13767944D01*
X22612664Y-13753659D01*
X22598378Y-13725087D01*
X22598378Y-13696516D01*
X22612664Y-13667944D01*
X22641236Y-13653659D01*
X22712664Y-13653659D01*
X22741236Y-13639373D01*
X22884093Y-13567944D02*
X22884093Y-13867944D01*
X22884093Y-13582230D02*
X22912664Y-13567944D01*
X22969807Y-13567944D01*
X22998378Y-13582230D01*
X23012664Y-13596516D01*
X23026950Y-13625087D01*
X23026950Y-13710801D01*
X23012664Y-13739373D01*
X22998378Y-13753659D01*
X22969807Y-13767944D01*
X22912664Y-13767944D01*
X22884093Y-13753659D01*
X23155521Y-13739373D02*
X23169807Y-13753659D01*
X23155521Y-13767944D01*
X23141236Y-13753659D01*
X23155521Y-13739373D01*
X23155521Y-13767944D01*
X23155521Y-13582230D02*
X23169807Y-13596516D01*
X23155521Y-13610801D01*
X23141236Y-13596516D01*
X23155521Y-13582230D01*
X23155521Y-13610801D01*
X20726950Y-14212230D02*
X20826950Y-14312230D01*
X20826950Y-14212230D02*
X20726950Y-14312230D01*
X21255521Y-14397944D02*
X21084093Y-14397944D01*
X21169807Y-14397944D02*
X21169807Y-14097944D01*
X21141236Y-14140801D01*
X21112664Y-14169373D01*
X21084093Y-14183659D01*
X21384093Y-14369373D02*
X21398379Y-14383659D01*
X21384093Y-14397944D01*
X21369807Y-14383659D01*
X21384093Y-14369373D01*
X21384093Y-14397944D01*
X21584093Y-14097944D02*
X21612664Y-14097944D01*
X21641236Y-14112230D01*
X21655521Y-14126516D01*
X21669807Y-14155087D01*
X21684093Y-14212230D01*
X21684093Y-14283659D01*
X21669807Y-14340801D01*
X21655521Y-14369373D01*
X21641236Y-14383659D01*
X21612664Y-14397944D01*
X21584093Y-14397944D01*
X21555521Y-14383659D01*
X21541236Y-14369373D01*
X21526950Y-14340801D01*
X21512664Y-14283659D01*
X21512664Y-14212230D01*
X21526950Y-14155087D01*
X21541236Y-14126516D01*
X21555521Y-14112230D01*
X21584093Y-14097944D01*
X21869807Y-14097944D02*
X21898379Y-14097944D01*
X21926950Y-14112230D01*
X21941236Y-14126516D01*
X21955521Y-14155087D01*
X21969807Y-14212230D01*
X21969807Y-14283659D01*
X21955521Y-14340801D01*
X21941236Y-14369373D01*
X21926950Y-14383659D01*
X21898379Y-14397944D01*
X21869807Y-14397944D01*
X21841236Y-14383659D01*
X21826950Y-14369373D01*
X21812664Y-14340801D01*
X21798379Y-14283659D01*
X21798379Y-14212230D01*
X21812664Y-14155087D01*
X21826950Y-14126516D01*
X21841236Y-14112230D01*
X21869807Y-14097944D01*
X22098379Y-14397944D02*
X22098379Y-14197944D01*
X22098379Y-14226516D02*
X22112664Y-14212230D01*
X22141236Y-14197944D01*
X22184093Y-14197944D01*
X22212664Y-14212230D01*
X22226950Y-14240801D01*
X22226950Y-14397944D01*
X22226950Y-14240801D02*
X22241236Y-14212230D01*
X22269807Y-14197944D01*
X22312664Y-14197944D01*
X22341236Y-14212230D01*
X22355521Y-14240801D01*
X22355521Y-14397944D01*
X22498378Y-14397944D02*
X22498378Y-14197944D01*
X22498378Y-14226516D02*
X22512664Y-14212230D01*
X22541236Y-14197944D01*
X22584093Y-14197944D01*
X22612664Y-14212230D01*
X22626950Y-14240801D01*
X22626950Y-14397944D01*
X22626950Y-14240801D02*
X22641236Y-14212230D01*
X22669807Y-14197944D01*
X22712664Y-14197944D01*
X22741236Y-14212230D01*
X22755521Y-14240801D01*
X22755521Y-14397944D01*
X23341236Y-14083659D02*
X23084093Y-14469373D01*
X23726950Y-14097944D02*
X23755521Y-14097944D01*
X23784093Y-14112230D01*
X23798378Y-14126516D01*
X23812664Y-14155087D01*
X23826950Y-14212230D01*
X23826950Y-14283659D01*
X23812664Y-14340801D01*
X23798378Y-14369373D01*
X23784093Y-14383659D01*
X23755521Y-14397944D01*
X23726950Y-14397944D01*
X23698378Y-14383659D01*
X23684093Y-14369373D01*
X23669807Y-14340801D01*
X23655521Y-14283659D01*
X23655521Y-14212230D01*
X23669807Y-14155087D01*
X23684093Y-14126516D01*
X23698378Y-14112230D01*
X23726950Y-14097944D01*
X23955521Y-14369373D02*
X23969807Y-14383659D01*
X23955521Y-14397944D01*
X23941236Y-14383659D01*
X23955521Y-14369373D01*
X23955521Y-14397944D01*
X24155521Y-14097944D02*
X24184093Y-14097944D01*
X24212664Y-14112230D01*
X24226950Y-14126516D01*
X24241235Y-14155087D01*
X24255521Y-14212230D01*
X24255521Y-14283659D01*
X24241235Y-14340801D01*
X24226950Y-14369373D01*
X24212664Y-14383659D01*
X24184093Y-14397944D01*
X24155521Y-14397944D01*
X24126950Y-14383659D01*
X24112664Y-14369373D01*
X24098378Y-14340801D01*
X24084093Y-14283659D01*
X24084093Y-14212230D01*
X24098378Y-14155087D01*
X24112664Y-14126516D01*
X24126950Y-14112230D01*
X24155521Y-14097944D01*
X24355521Y-14097944D02*
X24541235Y-14097944D01*
X24441235Y-14212230D01*
X24484093Y-14212230D01*
X24512664Y-14226516D01*
X24526950Y-14240801D01*
X24541235Y-14269373D01*
X24541235Y-14340801D01*
X24526950Y-14369373D01*
X24512664Y-14383659D01*
X24484093Y-14397944D01*
X24398378Y-14397944D01*
X24369807Y-14383659D01*
X24355521Y-14369373D01*
X24684093Y-14397944D02*
X24741235Y-14397944D01*
X24769807Y-14383659D01*
X24784093Y-14369373D01*
X24812664Y-14326516D01*
X24826950Y-14269373D01*
X24826950Y-14155087D01*
X24812664Y-14126516D01*
X24798378Y-14112230D01*
X24769807Y-14097944D01*
X24712664Y-14097944D01*
X24684093Y-14112230D01*
X24669807Y-14126516D01*
X24655521Y-14155087D01*
X24655521Y-14226516D01*
X24669807Y-14255087D01*
X24684093Y-14269373D01*
X24712664Y-14283659D01*
X24769807Y-14283659D01*
X24798378Y-14269373D01*
X24812664Y-14255087D01*
X24826950Y-14226516D01*
X24941236Y-14097944D02*
X24941236Y-14155087D01*
X25055521Y-14097944D02*
X25055521Y-14155087D01*
X25498378Y-14512230D02*
X25484093Y-14497944D01*
X25455521Y-14455087D01*
X25441235Y-14426516D01*
X25426950Y-14383659D01*
X25412664Y-14312230D01*
X25412664Y-14255087D01*
X25426950Y-14183659D01*
X25441235Y-14140801D01*
X25455521Y-14112230D01*
X25484093Y-14069373D01*
X25498378Y-14055087D01*
X25598378Y-14126516D02*
X25612664Y-14112230D01*
X25641235Y-14097944D01*
X25712664Y-14097944D01*
X25741235Y-14112230D01*
X25755521Y-14126516D01*
X25769807Y-14155087D01*
X25769807Y-14183659D01*
X25755521Y-14226516D01*
X25584093Y-14397944D01*
X25769807Y-14397944D01*
X26126950Y-14397944D02*
X26126950Y-14097944D01*
X26255521Y-14397944D02*
X26255521Y-14240801D01*
X26241235Y-14212230D01*
X26212664Y-14197944D01*
X26169807Y-14197944D01*
X26141235Y-14212230D01*
X26126950Y-14226516D01*
X26441235Y-14397944D02*
X26412664Y-14383659D01*
X26398378Y-14369373D01*
X26384093Y-14340801D01*
X26384093Y-14255087D01*
X26398378Y-14226516D01*
X26412664Y-14212230D01*
X26441235Y-14197944D01*
X26484093Y-14197944D01*
X26512664Y-14212230D01*
X26526950Y-14226516D01*
X26541235Y-14255087D01*
X26541235Y-14340801D01*
X26526950Y-14369373D01*
X26512664Y-14383659D01*
X26484093Y-14397944D01*
X26441235Y-14397944D01*
X26712664Y-14397944D02*
X26684093Y-14383659D01*
X26669807Y-14355087D01*
X26669807Y-14097944D01*
X26941236Y-14383659D02*
X26912664Y-14397944D01*
X26855521Y-14397944D01*
X26826950Y-14383659D01*
X26812664Y-14355087D01*
X26812664Y-14240801D01*
X26826950Y-14212230D01*
X26855521Y-14197944D01*
X26912664Y-14197944D01*
X26941236Y-14212230D01*
X26955521Y-14240801D01*
X26955521Y-14269373D01*
X26812664Y-14297944D01*
X27069807Y-14383659D02*
X27098378Y-14397944D01*
X27155521Y-14397944D01*
X27184093Y-14383659D01*
X27198378Y-14355087D01*
X27198378Y-14340801D01*
X27184093Y-14312230D01*
X27155521Y-14297944D01*
X27112664Y-14297944D01*
X27084093Y-14283659D01*
X27069807Y-14255087D01*
X27069807Y-14240801D01*
X27084093Y-14212230D01*
X27112664Y-14197944D01*
X27155521Y-14197944D01*
X27184093Y-14212230D01*
X27298378Y-14512230D02*
X27312664Y-14497944D01*
X27341236Y-14455087D01*
X27355521Y-14426516D01*
X27369807Y-14383659D01*
X27384093Y-14312230D01*
X27384093Y-14255087D01*
X27369807Y-14183659D01*
X27355521Y-14140801D01*
X27341236Y-14112230D01*
X27312664Y-14069373D01*
X27298378Y-14055087D01*
X27841236Y-14512230D02*
X27826950Y-14497944D01*
X27798378Y-14455087D01*
X27784093Y-14426516D01*
X27769807Y-14383659D01*
X27755521Y-14312230D01*
X27755521Y-14255087D01*
X27769807Y-14183659D01*
X27784093Y-14140801D01*
X27798378Y-14112230D01*
X27826950Y-14069373D01*
X27841236Y-14055087D01*
X27955521Y-14197944D02*
X27955521Y-14397944D01*
X27955521Y-14226516D02*
X27969807Y-14212230D01*
X27998378Y-14197944D01*
X28041236Y-14197944D01*
X28069807Y-14212230D01*
X28084093Y-14240801D01*
X28084093Y-14397944D01*
X28269807Y-14397944D02*
X28241236Y-14383659D01*
X28226950Y-14369373D01*
X28212664Y-14340801D01*
X28212664Y-14255087D01*
X28226950Y-14226516D01*
X28241236Y-14212230D01*
X28269807Y-14197944D01*
X28312664Y-14197944D01*
X28341236Y-14212230D01*
X28355521Y-14226516D01*
X28369807Y-14255087D01*
X28369807Y-14340801D01*
X28355521Y-14369373D01*
X28341236Y-14383659D01*
X28312664Y-14397944D01*
X28269807Y-14397944D01*
X28455521Y-14197944D02*
X28569807Y-14197944D01*
X28498378Y-14097944D02*
X28498378Y-14355087D01*
X28512664Y-14383659D01*
X28541236Y-14397944D01*
X28569807Y-14397944D01*
X28898378Y-14197944D02*
X28898378Y-14497944D01*
X28898378Y-14212230D02*
X28926950Y-14197944D01*
X28984093Y-14197944D01*
X29012664Y-14212230D01*
X29026950Y-14226516D01*
X29041236Y-14255087D01*
X29041236Y-14340801D01*
X29026950Y-14369373D01*
X29012664Y-14383659D01*
X28984093Y-14397944D01*
X28926950Y-14397944D01*
X28898378Y-14383659D01*
X29212664Y-14397944D02*
X29184093Y-14383659D01*
X29169807Y-14355087D01*
X29169807Y-14097944D01*
X29455521Y-14397944D02*
X29455521Y-14240801D01*
X29441236Y-14212230D01*
X29412664Y-14197944D01*
X29355521Y-14197944D01*
X29326950Y-14212230D01*
X29455521Y-14383659D02*
X29426950Y-14397944D01*
X29355521Y-14397944D01*
X29326950Y-14383659D01*
X29312664Y-14355087D01*
X29312664Y-14326516D01*
X29326950Y-14297944D01*
X29355521Y-14283659D01*
X29426950Y-14283659D01*
X29455521Y-14269373D01*
X29555521Y-14197944D02*
X29669807Y-14197944D01*
X29598379Y-14097944D02*
X29598379Y-14355087D01*
X29612664Y-14383659D01*
X29641236Y-14397944D01*
X29669807Y-14397944D01*
X29884093Y-14383659D02*
X29855521Y-14397944D01*
X29798379Y-14397944D01*
X29769807Y-14383659D01*
X29755521Y-14355087D01*
X29755521Y-14240801D01*
X29769807Y-14212230D01*
X29798379Y-14197944D01*
X29855521Y-14197944D01*
X29884093Y-14212230D01*
X29898379Y-14240801D01*
X29898379Y-14269373D01*
X29755521Y-14297944D01*
X30155521Y-14397944D02*
X30155521Y-14097944D01*
X30155521Y-14383659D02*
X30126950Y-14397944D01*
X30069807Y-14397944D01*
X30041236Y-14383659D01*
X30026950Y-14369373D01*
X30012664Y-14340801D01*
X30012664Y-14255087D01*
X30026950Y-14226516D01*
X30041236Y-14212230D01*
X30069807Y-14197944D01*
X30126950Y-14197944D01*
X30155521Y-14212230D01*
X30269807Y-14512230D02*
X30284093Y-14497944D01*
X30312664Y-14455087D01*
X30326950Y-14426516D01*
X30341236Y-14383659D01*
X30355521Y-14312230D01*
X30355521Y-14255087D01*
X30341236Y-14183659D01*
X30326950Y-14140801D01*
X30312664Y-14112230D01*
X30284093Y-14069373D01*
X30269807Y-14055087D01*
M02*
