G04 #@! TF.FileFunction,Copper,L2,Bot,Signal*
%FSLAX46Y46*%
G04 Gerber Fmt 4.6, Leading zero omitted, Abs format (unit mm)*
G04 Created by KiCad (PCBNEW 4.0.6) date 05/07/17 20:41:04*
%MOMM*%
%LPD*%
G01*
G04 APERTURE LIST*
%ADD10C,0.100000*%
%ADD11O,1.524000X3.048000*%
%ADD12R,1.200000X1.200000*%
%ADD13C,2.540000*%
%ADD14C,3.175000*%
%ADD15R,0.350000X0.805000*%
%ADD16R,0.805000X0.400000*%
%ADD17C,1.006400*%
%ADD18C,2.184400*%
%ADD19C,3.000000*%
%ADD20C,0.906400*%
%ADD21C,0.304800*%
%ADD22C,0.406400*%
%ADD23C,0.609600*%
%ADD24C,0.270000*%
%ADD25C,0.250000*%
%ADD26C,3.200000*%
%ADD27C,2.540000*%
%ADD28C,1.676400*%
%ADD29C,1.778000*%
%ADD30C,0.812800*%
%ADD31C,2.184400*%
G04 APERTURE END LIST*
D10*
D11*
X256042100Y-131099500D03*
X258582100Y-131099500D03*
X261122100Y-131099500D03*
D12*
X234985500Y-104039900D03*
X234985500Y-106139900D03*
D13*
X225707100Y-117285900D03*
D14*
X225707100Y-117285900D03*
D13*
X249703100Y-117110900D03*
D14*
X249703100Y-117110900D03*
D13*
X249700100Y-93294900D03*
D14*
X249700100Y-93294900D03*
D13*
X225779100Y-93237900D03*
D14*
X225779100Y-93237900D03*
D13*
X245730100Y-113257900D03*
D14*
X245730100Y-113257900D03*
D13*
X229670100Y-113285900D03*
D14*
X229670100Y-113285900D03*
D13*
X245697100Y-97322900D03*
D14*
X245697100Y-97322900D03*
D13*
X229771100Y-97283900D03*
D14*
X229771100Y-97283900D03*
D13*
X257755100Y-125137900D03*
D14*
X257755100Y-125137900D03*
D13*
X217629100Y-125047900D03*
D14*
X217629100Y-125047900D03*
D13*
X257669100Y-85165900D03*
D14*
X257669100Y-85165900D03*
D13*
X217680100Y-85114900D03*
D14*
X217680100Y-85114900D03*
D13*
X253761100Y-121206900D03*
D14*
X253761100Y-121206900D03*
D13*
X221799100Y-121302900D03*
D14*
X221799100Y-121302900D03*
D13*
X253667100Y-89292900D03*
D14*
X253667100Y-89292900D03*
D13*
X221779100Y-89231900D03*
D14*
X221779100Y-89231900D03*
D15*
X237498700Y-103342800D03*
X238248700Y-103342800D03*
X238998700Y-103342800D03*
X239748700Y-103342800D03*
X240498700Y-103342800D03*
D16*
X240771200Y-104315300D03*
D15*
X240498700Y-106887800D03*
X239748700Y-106887800D03*
X238998700Y-106887800D03*
X238248700Y-106887800D03*
X237498700Y-106887800D03*
D16*
X237226200Y-104940300D03*
X240771200Y-105115300D03*
D17*
X243824700Y-83144300D03*
X239430500Y-83144300D03*
D18*
X245755100Y-105089900D03*
X229753100Y-105089900D03*
X237728700Y-113090900D03*
D19*
X237761100Y-97108900D03*
D17*
X231734300Y-81518700D03*
X258008100Y-114563900D03*
X234528300Y-80020100D03*
X259369500Y-112989300D03*
X239444100Y-125137900D03*
X217403100Y-127895900D03*
X215018100Y-121452900D03*
X215084100Y-111162900D03*
X213967100Y-123319900D03*
X215060100Y-107765900D03*
X219599100Y-109162900D03*
X243660100Y-100536900D03*
X229067100Y-102470900D03*
X214935100Y-102688900D03*
X251565100Y-126496900D03*
X232978900Y-104099300D03*
X234985500Y-107756900D03*
D20*
X242519100Y-106387900D03*
X231663100Y-107681900D03*
X233637100Y-107681900D03*
X232102100Y-102291900D03*
D17*
X216470100Y-101848900D03*
X215843100Y-90210900D03*
X216462100Y-121059900D03*
X226629100Y-82172900D03*
D20*
X251334100Y-108882900D03*
X255324100Y-111428900D03*
X232726100Y-105994900D03*
D17*
X227997100Y-95632900D03*
X228042100Y-83723900D03*
X224373600Y-83655400D03*
X248470100Y-79127900D03*
X261988100Y-79165900D03*
X262094100Y-118633900D03*
X248496100Y-96781900D03*
X254164100Y-93902900D03*
X223406100Y-95600900D03*
X257341100Y-119860900D03*
X249069100Y-87794900D03*
X229743100Y-87794900D03*
X236865100Y-100365500D03*
X242503900Y-103362700D03*
X247863300Y-106613900D03*
X239298700Y-100392100D03*
D21*
X258734500Y-81594900D02*
X231810500Y-81594900D01*
X231810500Y-81594900D02*
X231734300Y-81518700D01*
X258734500Y-81594900D02*
X260182300Y-83042700D01*
X260182300Y-83042700D02*
X260182300Y-109788900D01*
X260182300Y-109788900D02*
X258404300Y-111566900D01*
X258404300Y-111566900D02*
X258353500Y-111566900D01*
X258353500Y-111566900D02*
X258023300Y-111897100D01*
X258023300Y-111897100D02*
X258023300Y-114548700D01*
X258023300Y-114548700D02*
X258008100Y-114563900D01*
X234528300Y-80020100D02*
X259445700Y-80020100D01*
X259445700Y-80020100D02*
X261426900Y-82001300D01*
X261426900Y-82001300D02*
X261452300Y-111008100D01*
X261452300Y-111008100D02*
X259369500Y-112989300D01*
D22*
X257755100Y-125137900D02*
X239444100Y-125137900D01*
X239444100Y-125137900D02*
X218244100Y-125137900D01*
X218244100Y-125137900D02*
X217576100Y-124469900D01*
X217576100Y-124469900D02*
X217576100Y-124994900D01*
X217576100Y-124994900D02*
X217629100Y-125047900D01*
X217576100Y-124469900D02*
X217576100Y-85218900D01*
X217576100Y-85218900D02*
X217680100Y-85114900D01*
X217456100Y-125925900D02*
X217888600Y-125493400D01*
X217888600Y-125493400D02*
X218244100Y-125137900D01*
D21*
X217403100Y-127895900D02*
X217403100Y-125978900D01*
X217403100Y-125978900D02*
X217888600Y-125493400D01*
D23*
X257669100Y-85165900D02*
X217731100Y-85165900D01*
X217731100Y-85165900D02*
X217680100Y-85114900D01*
D21*
X215084100Y-111162900D02*
X215084100Y-121042900D01*
X215084100Y-121042900D02*
X215018100Y-121452900D01*
D23*
X253761100Y-121206900D02*
X253761100Y-121801900D01*
X253761100Y-121801900D02*
X251891100Y-123671900D01*
X251891100Y-123671900D02*
X224168100Y-123671900D01*
X224168100Y-123671900D02*
X221799100Y-121302900D01*
X221799100Y-121302900D02*
X221799100Y-120875900D01*
X221799100Y-120875900D02*
X219599100Y-118675900D01*
X219599100Y-118675900D02*
X219599100Y-109162900D01*
X219599100Y-109162900D02*
X219599100Y-91411900D01*
X219599100Y-91411900D02*
X221779100Y-89231900D01*
X221779100Y-89231900D02*
X221809100Y-89231900D01*
X221809100Y-89231900D02*
X224351100Y-86689900D01*
X224351100Y-86689900D02*
X251064100Y-86689900D01*
X251064100Y-86689900D02*
X253667100Y-89292900D01*
D22*
X213967100Y-123319900D02*
X213967100Y-108858900D01*
X213967100Y-108858900D02*
X215060100Y-107765900D01*
D21*
X243660100Y-100536900D02*
X243660100Y-99709900D01*
X243660100Y-99709900D02*
X243177100Y-99226900D01*
X243177100Y-99226900D02*
X232135100Y-99226900D01*
X232135100Y-99226900D02*
X232104100Y-99195900D01*
X232104100Y-99195900D02*
X231823100Y-99195900D01*
X231823100Y-99195900D02*
X229067100Y-101951900D01*
X251462100Y-126582900D02*
X251565100Y-126496900D01*
X212818100Y-103661900D02*
X212818100Y-127870900D01*
X212818100Y-127870900D02*
X215716100Y-130768900D01*
X215716100Y-130768900D02*
X250275100Y-130768900D01*
X250275100Y-130768900D02*
X251590100Y-129453900D01*
X251590100Y-129453900D02*
X251590100Y-126521900D01*
X251590100Y-126521900D02*
X251565100Y-126496900D01*
X229067100Y-102470900D02*
X229067100Y-101951900D01*
X212818100Y-103661900D02*
X213698100Y-102781900D01*
X213698100Y-102781900D02*
X214842100Y-102781900D01*
X214842100Y-102781900D02*
X214935100Y-102688900D01*
X232978900Y-104099300D02*
X234926100Y-104099300D01*
X234926100Y-104099300D02*
X234985500Y-104039900D01*
X234985500Y-106139900D02*
X234985500Y-107756900D01*
D24*
X242519100Y-106387900D02*
X242519100Y-106563900D01*
X242519100Y-106563900D02*
X242054100Y-107028900D01*
X242054100Y-107028900D02*
X242050100Y-107032900D01*
X242050100Y-107032900D02*
X240643800Y-107032900D01*
X240643800Y-107032900D02*
X240498700Y-106887800D01*
X237498700Y-103342800D02*
X237498700Y-102366500D01*
X237498700Y-102366500D02*
X236801100Y-101668900D01*
X232725100Y-101668900D02*
X232721100Y-101668900D01*
X232721100Y-101668900D02*
X231695100Y-102694900D01*
X231695100Y-102694900D02*
X231695100Y-107388900D01*
X231695100Y-107388900D02*
X231663100Y-107681900D01*
X233637100Y-107681900D02*
X233641100Y-108953900D01*
X233641100Y-108953900D02*
X234065100Y-109363900D01*
X234065100Y-109363900D02*
X241516100Y-109363900D01*
X241516100Y-109363900D02*
X242054100Y-108952900D01*
X236801100Y-101668900D02*
X232725100Y-101668900D01*
X232725100Y-101668900D02*
X232102100Y-102291900D01*
D22*
X216470100Y-101848900D02*
X216438100Y-90805900D01*
D21*
X216438100Y-90805900D02*
X215843100Y-90210900D01*
X216462100Y-121059900D02*
X216458100Y-102387900D01*
X216458100Y-102387900D02*
X216470100Y-101848900D01*
D24*
X242054100Y-108952900D02*
X242054100Y-107028900D01*
D22*
X215843100Y-90210900D02*
X215843100Y-87658900D01*
X215843100Y-87658900D02*
X214691100Y-86506900D01*
X214691100Y-86506900D02*
X214691100Y-83220900D01*
X214691100Y-83220900D02*
X215785100Y-82126900D01*
X215785100Y-82126900D02*
X226629100Y-82172900D01*
D21*
X240771200Y-105115300D02*
X239151100Y-105115300D01*
X239151100Y-105115300D02*
X238973300Y-104937500D01*
X238973300Y-104937500D02*
X237229000Y-104937500D01*
X237229000Y-104937500D02*
X237226200Y-104940300D01*
D25*
X251334100Y-108882900D02*
X251822100Y-108882900D01*
X251822100Y-108882900D02*
X252861100Y-107843900D01*
X252861100Y-107843900D02*
X253430100Y-107843900D01*
X253430100Y-107843900D02*
X255324100Y-109737900D01*
X255324100Y-109737900D02*
X255324100Y-111428900D01*
D24*
X240771200Y-105115300D02*
X243241500Y-105115300D01*
X243241500Y-105115300D02*
X243692100Y-105565900D01*
X243692100Y-105565900D02*
X243692100Y-107092900D01*
X243692100Y-107092900D02*
X244366100Y-107766900D01*
X244366100Y-107766900D02*
X250218100Y-107766900D01*
X250218100Y-107766900D02*
X251334100Y-108882900D01*
X232726100Y-105994900D02*
X232726100Y-109303900D01*
X232726100Y-109303900D02*
X233453100Y-110027900D01*
X233453100Y-110027900D02*
X250273100Y-110027900D01*
X250273100Y-110027900D02*
X251334100Y-108882900D01*
D26*
X229670100Y-113285900D02*
X229670100Y-114077900D01*
X229670100Y-114077900D02*
X232231100Y-116638900D01*
X232231100Y-116638900D02*
X242891100Y-116638900D01*
X242891100Y-116638900D02*
X245520100Y-114009900D01*
X245520100Y-114009900D02*
X245520100Y-113467900D01*
X245520100Y-113467900D02*
X245730100Y-113257900D01*
X229670100Y-113285900D02*
X229159100Y-113285900D01*
X229159100Y-113285900D02*
X227528100Y-111654900D01*
X227528100Y-111654900D02*
X227528100Y-111652900D01*
X227528100Y-111652900D02*
X226380100Y-110504900D01*
X226380100Y-110504900D02*
X226380100Y-100674900D01*
X226380100Y-100674900D02*
X229771100Y-97283900D01*
X229771100Y-97283900D02*
X229771100Y-97190900D01*
X229771100Y-97190900D02*
X233380100Y-93581900D01*
X233380100Y-93581900D02*
X241956100Y-93581900D01*
X241956100Y-93581900D02*
X245697100Y-97322900D01*
D22*
X229670100Y-113285900D02*
X230195100Y-113285900D01*
X230195100Y-113285900D02*
X233453100Y-110027900D01*
D27*
X227997100Y-95632900D02*
X228120100Y-95632900D01*
X228120100Y-95632900D02*
X229771100Y-97283900D01*
D22*
X228042100Y-83723900D02*
X224442100Y-83723900D01*
X224442100Y-83723900D02*
X224373600Y-83655400D01*
D21*
X248470100Y-79127900D02*
X261988100Y-79165900D01*
D28*
X262094100Y-118633900D02*
X262832100Y-118633900D01*
X262832100Y-118633900D02*
X263386100Y-119187900D01*
X263386100Y-119187900D02*
X263386100Y-130690900D01*
X263386100Y-130690900D02*
X262964100Y-131112900D01*
X262964100Y-131112900D02*
X261135500Y-131112900D01*
X261135500Y-131112900D02*
X261122100Y-131099500D01*
D29*
X262094100Y-118633900D02*
X260768100Y-118633900D01*
X260768100Y-118633900D02*
X260198100Y-118063900D01*
D30*
X260198100Y-118063900D02*
X260198100Y-117999900D01*
D29*
X260198100Y-117999900D02*
X259534100Y-117335900D01*
X259534100Y-117335900D02*
X258333100Y-117335900D01*
D30*
X258333100Y-117335900D02*
X255959100Y-114961900D01*
X255959100Y-114961900D02*
X255929100Y-114961900D01*
D29*
X255929100Y-114961900D02*
X253776100Y-112808900D01*
X253776100Y-112808900D02*
X246179100Y-112808900D01*
D28*
X246179100Y-112808900D02*
X245730100Y-113257900D01*
D21*
X248496100Y-96781900D02*
X246238100Y-96781900D01*
X246238100Y-96781900D02*
X245697100Y-97322900D01*
X254164100Y-93902900D02*
X254143100Y-93902900D01*
X254143100Y-93902900D02*
X251330100Y-96715900D01*
X251330100Y-96715900D02*
X248562100Y-96715900D01*
X248562100Y-96715900D02*
X248496100Y-96781900D01*
D26*
X249703100Y-117110900D02*
X248443100Y-117110900D01*
X248443100Y-117110900D02*
X245246100Y-120307900D01*
X245246100Y-120307900D02*
X228729100Y-120307900D01*
X228729100Y-120307900D02*
X225707100Y-117285900D01*
X249700100Y-93294900D02*
X247207100Y-93294900D01*
X247207100Y-93294900D02*
X244098100Y-90185900D01*
X244098100Y-90185900D02*
X228831100Y-90185900D01*
X228831100Y-90185900D02*
X225779100Y-93237900D01*
X225779100Y-93237900D02*
X225769100Y-93237900D01*
X225769100Y-93237900D02*
X223406100Y-95600900D01*
X223406100Y-95600900D02*
X223406100Y-95602900D01*
X223406100Y-95602900D02*
X222225100Y-96783900D01*
X222225100Y-96783900D02*
X222225100Y-113803900D01*
X222225100Y-113803900D02*
X225707100Y-117285900D01*
D31*
X257341100Y-119860900D02*
X257341100Y-119674900D01*
X257341100Y-119674900D02*
X254926100Y-117259900D01*
X254926100Y-117259900D02*
X249852100Y-117259900D01*
X249852100Y-117259900D02*
X249703100Y-117110900D01*
D28*
X258582100Y-131099500D02*
X258582100Y-128849900D01*
X258582100Y-128849900D02*
X259300100Y-128131900D01*
X259300100Y-128131900D02*
X259958100Y-128131900D01*
X259958100Y-128131900D02*
X260697100Y-127392900D01*
X260697100Y-127392900D02*
X260697100Y-121850144D01*
X260697100Y-121850144D02*
X258746100Y-119899144D01*
X258746100Y-119899144D02*
X257379344Y-119899144D01*
X257379344Y-119899144D02*
X257341100Y-119860900D01*
D21*
X249069100Y-87794900D02*
X229743100Y-87794900D01*
D22*
X238248700Y-103342800D02*
X238998700Y-103342800D01*
D21*
X238248700Y-103342800D02*
X238248700Y-101241100D01*
X238248700Y-101241100D02*
X237398500Y-100390900D01*
X237398500Y-100390900D02*
X236890500Y-100390900D01*
X236890500Y-100390900D02*
X236865100Y-100365500D01*
X242503900Y-103362700D02*
X240504200Y-103337300D01*
X240504200Y-103337300D02*
X240498700Y-103342800D01*
X240141700Y-101610100D02*
X239709900Y-102041900D01*
X239709900Y-102041900D02*
X239709900Y-103304000D01*
X239709900Y-103304000D02*
X239748700Y-103342800D01*
X247863300Y-106613900D02*
X247863300Y-102803900D01*
X247863300Y-102803900D02*
X246669500Y-101610100D01*
X246669500Y-101610100D02*
X240141700Y-101610100D01*
X239298700Y-100392100D02*
X239485700Y-100371100D01*
X239485700Y-100371100D02*
X239628300Y-100574700D01*
X239628300Y-100574700D02*
X239608300Y-101076700D01*
X239608300Y-101076700D02*
X240141700Y-101610100D01*
D22*
G36*
X264057900Y-131742700D02*
X262543700Y-131742700D01*
X262543700Y-131124500D01*
X261147100Y-131124500D01*
X261147100Y-131144500D01*
X261097100Y-131144500D01*
X261097100Y-131124500D01*
X261077100Y-131124500D01*
X261077100Y-131074500D01*
X261097100Y-131074500D01*
X261097100Y-131054500D01*
X261147100Y-131054500D01*
X261147100Y-131074500D01*
X262543700Y-131074500D01*
X262543700Y-130312500D01*
X262511507Y-130035640D01*
X262425920Y-129770380D01*
X262290228Y-129526914D01*
X262109645Y-129314599D01*
X261891112Y-129141593D01*
X261643026Y-129014545D01*
X261629649Y-129010743D01*
X261972296Y-128668096D01*
X262078038Y-128539365D01*
X262185110Y-128411761D01*
X262189676Y-128403455D01*
X262195698Y-128396124D01*
X262274418Y-128249311D01*
X262354669Y-128103335D01*
X262357537Y-128094292D01*
X262362017Y-128085938D01*
X262410715Y-127926654D01*
X262461091Y-127767848D01*
X262462148Y-127758425D01*
X262464921Y-127749355D01*
X262481758Y-127583599D01*
X262500324Y-127418079D01*
X262500454Y-127399544D01*
X262500489Y-127399195D01*
X262500458Y-127398870D01*
X262500500Y-127392900D01*
X262500500Y-121850144D01*
X262484244Y-121684350D01*
X262469726Y-121518406D01*
X262467080Y-121509300D01*
X262466155Y-121499862D01*
X262418022Y-121340438D01*
X262371532Y-121180419D01*
X262367165Y-121171995D01*
X262364426Y-121162922D01*
X262286250Y-121015895D01*
X262209559Y-120867943D01*
X262203642Y-120860531D01*
X262199190Y-120852158D01*
X262093885Y-120723041D01*
X261989976Y-120592877D01*
X261976961Y-120579678D01*
X261976740Y-120579407D01*
X261976489Y-120579200D01*
X261972297Y-120574948D01*
X260021296Y-118623948D01*
X259892565Y-118518206D01*
X259764961Y-118411134D01*
X259756655Y-118406568D01*
X259749324Y-118400546D01*
X259602511Y-118321826D01*
X259456535Y-118241575D01*
X259447492Y-118238707D01*
X259439138Y-118234227D01*
X259279854Y-118185529D01*
X259121048Y-118135153D01*
X259111625Y-118134096D01*
X259102555Y-118131323D01*
X258936799Y-118114486D01*
X258771279Y-118095920D01*
X258752744Y-118095790D01*
X258752395Y-118095755D01*
X258752070Y-118095786D01*
X258746100Y-118095744D01*
X258671547Y-118095744D01*
X256380901Y-115805099D01*
X256234072Y-115684492D01*
X256088463Y-115562311D01*
X256078981Y-115557098D01*
X256070622Y-115550232D01*
X255903130Y-115460424D01*
X255736596Y-115368871D01*
X255726285Y-115365600D01*
X255716749Y-115360487D01*
X255535005Y-115304923D01*
X255353858Y-115247459D01*
X255343105Y-115246253D01*
X255332760Y-115243090D01*
X255143690Y-115223885D01*
X254954826Y-115202701D01*
X254933676Y-115202553D01*
X254933282Y-115202513D01*
X254932915Y-115202548D01*
X254926100Y-115202500D01*
X251405658Y-115202500D01*
X251338125Y-115134494D01*
X251242700Y-115070129D01*
X251152353Y-114994319D01*
X251033150Y-114928787D01*
X250923100Y-114854557D01*
X250816998Y-114809956D01*
X250713640Y-114753134D01*
X250583980Y-114712004D01*
X250461606Y-114660562D01*
X250348855Y-114637418D01*
X250236435Y-114601756D01*
X250101256Y-114586593D01*
X249971221Y-114559901D01*
X249856128Y-114559097D01*
X249738916Y-114545950D01*
X249703100Y-114545700D01*
X248443100Y-114545700D01*
X248207283Y-114568822D01*
X247971228Y-114589474D01*
X247958273Y-114593238D01*
X247944850Y-114594554D01*
X247902162Y-114607442D01*
X247960399Y-114524886D01*
X248164015Y-114067556D01*
X248274925Y-113579386D01*
X248282909Y-113007595D01*
X248185673Y-112516519D01*
X247994906Y-112053681D01*
X247717872Y-111636713D01*
X247365125Y-111281494D01*
X246950100Y-111001557D01*
X246488606Y-110807562D01*
X245998221Y-110706901D01*
X245497623Y-110703406D01*
X245005880Y-110797211D01*
X244541722Y-110984743D01*
X244122829Y-111258858D01*
X243765157Y-111609117D01*
X243482329Y-112022177D01*
X243285117Y-112482306D01*
X243181035Y-112971977D01*
X243174045Y-113472538D01*
X243264415Y-113964924D01*
X243448702Y-114430379D01*
X243719886Y-114851176D01*
X244067639Y-115211285D01*
X244478715Y-115496990D01*
X244937456Y-115697408D01*
X245426388Y-115804907D01*
X245926888Y-115815391D01*
X246150255Y-115776005D01*
X244183560Y-117742700D01*
X229791641Y-117742700D01*
X227521042Y-115472102D01*
X227520971Y-115472030D01*
X225549479Y-113500538D01*
X227114045Y-113500538D01*
X227204415Y-113992924D01*
X227388702Y-114458379D01*
X227659886Y-114879176D01*
X228007639Y-115239285D01*
X228418715Y-115524990D01*
X228877456Y-115725408D01*
X229366388Y-115832907D01*
X229866888Y-115843391D01*
X230359893Y-115756461D01*
X230826624Y-115575428D01*
X231249303Y-115307188D01*
X231611831Y-114961957D01*
X231900399Y-114552886D01*
X232104015Y-114095556D01*
X232214925Y-113607386D01*
X232219721Y-113263892D01*
X235668596Y-113263892D01*
X235741431Y-113660740D01*
X235889961Y-114035884D01*
X236108527Y-114375033D01*
X236388806Y-114665270D01*
X236720121Y-114895540D01*
X237089852Y-115057071D01*
X237483917Y-115143712D01*
X237887305Y-115152162D01*
X238284653Y-115082099D01*
X238660824Y-114936192D01*
X239001491Y-114719998D01*
X239293678Y-114441752D01*
X239526255Y-114112053D01*
X239690364Y-113743459D01*
X239779753Y-113350008D01*
X239786188Y-112889162D01*
X239707819Y-112493369D01*
X239554066Y-112120336D01*
X239330785Y-111784271D01*
X239046482Y-111497976D01*
X238711984Y-111272354D01*
X238340034Y-111116001D01*
X237944797Y-111034870D01*
X237541330Y-111032053D01*
X237145000Y-111107657D01*
X236770903Y-111258803D01*
X236433287Y-111479732D01*
X236145014Y-111762030D01*
X235917063Y-112094944D01*
X235758117Y-112465794D01*
X235674229Y-112860454D01*
X235668596Y-113263892D01*
X232219721Y-113263892D01*
X232222909Y-113035595D01*
X232125673Y-112544519D01*
X231934906Y-112081681D01*
X231657872Y-111664713D01*
X231305125Y-111309494D01*
X230890100Y-111029557D01*
X230428606Y-110835562D01*
X229938221Y-110734901D01*
X229437623Y-110731406D01*
X228945880Y-110825211D01*
X228481722Y-111012743D01*
X228062829Y-111286858D01*
X227705157Y-111637117D01*
X227422329Y-112050177D01*
X227225117Y-112510306D01*
X227121035Y-112999977D01*
X227114045Y-113500538D01*
X225549479Y-113500538D01*
X224790300Y-112741360D01*
X224790300Y-97846440D01*
X225219970Y-97416770D01*
X225229169Y-97405571D01*
X227519647Y-95115094D01*
X227567468Y-95076919D01*
X227586236Y-95058410D01*
X227586628Y-95058091D01*
X227586928Y-95057728D01*
X227592970Y-95051770D01*
X229893640Y-92751100D01*
X243035560Y-92751100D01*
X245118830Y-94834370D01*
X244972880Y-94862211D01*
X244508722Y-95049743D01*
X244089829Y-95323858D01*
X243732157Y-95674117D01*
X243449329Y-96087177D01*
X243252117Y-96547306D01*
X243148035Y-97036977D01*
X243141045Y-97537538D01*
X243231415Y-98029924D01*
X243266147Y-98117647D01*
X243192704Y-98109409D01*
X243181215Y-98109329D01*
X243181001Y-98109307D01*
X243180802Y-98109326D01*
X243177100Y-98109300D01*
X240014306Y-98109300D01*
X240111587Y-97890803D01*
X240218695Y-97419366D01*
X240226406Y-96867175D01*
X240132503Y-96392931D01*
X239948274Y-95945959D01*
X239680737Y-95543283D01*
X239340081Y-95200240D01*
X238939282Y-94929898D01*
X238493607Y-94742553D01*
X238020030Y-94645342D01*
X237536591Y-94641967D01*
X237061704Y-94732556D01*
X236613456Y-94913660D01*
X236208922Y-95178380D01*
X235863510Y-95516633D01*
X235590376Y-95915534D01*
X235399925Y-96359891D01*
X235299410Y-96832777D01*
X235292660Y-97316181D01*
X235379932Y-97791689D01*
X235505683Y-98109300D01*
X232357198Y-98109300D01*
X232336462Y-98102722D01*
X232330621Y-98102067D01*
X232325002Y-98100349D01*
X232222314Y-98089918D01*
X232206251Y-98088117D01*
X232315925Y-97605386D01*
X232323909Y-97033595D01*
X232226673Y-96542519D01*
X232035906Y-96079681D01*
X231758872Y-95662713D01*
X231406125Y-95307494D01*
X230991100Y-95027557D01*
X230529606Y-94833562D01*
X230039221Y-94732901D01*
X229538623Y-94729406D01*
X229046880Y-94823211D01*
X228582722Y-95010743D01*
X228163829Y-95284858D01*
X227806157Y-95635117D01*
X227523329Y-96048177D01*
X227326117Y-96508306D01*
X227222035Y-96997977D01*
X227215045Y-97498538D01*
X227305415Y-97990924D01*
X227489702Y-98456379D01*
X227760886Y-98877176D01*
X228108639Y-99237285D01*
X228519715Y-99522990D01*
X228978456Y-99723408D01*
X229467388Y-99830907D01*
X229604691Y-99833783D01*
X228276837Y-101161637D01*
X228211308Y-101241414D01*
X228146976Y-101318082D01*
X228142543Y-101320983D01*
X227936798Y-101522464D01*
X227774105Y-101760070D01*
X227660662Y-102024752D01*
X227600790Y-102306427D01*
X227596770Y-102594367D01*
X227648754Y-102877604D01*
X227754762Y-103145350D01*
X227910756Y-103387407D01*
X228110796Y-103594554D01*
X228244512Y-103687489D01*
X228169414Y-103761030D01*
X227941463Y-104093944D01*
X227782517Y-104464794D01*
X227698629Y-104859454D01*
X227692996Y-105262892D01*
X227765831Y-105659740D01*
X227914361Y-106034884D01*
X228132927Y-106374033D01*
X228413206Y-106664270D01*
X228744521Y-106894540D01*
X229114252Y-107056071D01*
X229508317Y-107142712D01*
X229911705Y-107151162D01*
X230309053Y-107081099D01*
X230390966Y-107049327D01*
X230304553Y-107250943D01*
X230246719Y-107523027D01*
X230242836Y-107801163D01*
X230293049Y-108074756D01*
X230395448Y-108333385D01*
X230546131Y-108567199D01*
X230739359Y-108767292D01*
X230967772Y-108926044D01*
X231222670Y-109037406D01*
X231494343Y-109097137D01*
X231772445Y-109102962D01*
X232046381Y-109054660D01*
X232305719Y-108954070D01*
X232540426Y-108805121D01*
X232540905Y-108957359D01*
X232541082Y-108959104D01*
X232540922Y-108960846D01*
X232551891Y-109065886D01*
X232562530Y-109170989D01*
X232563041Y-109172662D01*
X232563223Y-109174406D01*
X232594399Y-109275358D01*
X232625237Y-109376350D01*
X232626065Y-109377895D01*
X232626581Y-109379567D01*
X232676793Y-109472580D01*
X232726639Y-109565619D01*
X232727748Y-109566970D01*
X232728582Y-109568515D01*
X232795950Y-109650060D01*
X232862872Y-109731590D01*
X232864224Y-109732702D01*
X232865340Y-109734052D01*
X232876308Y-109744807D01*
X233300308Y-110154807D01*
X233372706Y-110212268D01*
X233443523Y-110271690D01*
X233456710Y-110278940D01*
X233468495Y-110288293D01*
X233550681Y-110330601D01*
X233631685Y-110375133D01*
X233646026Y-110379682D01*
X233659406Y-110386570D01*
X233748255Y-110412111D01*
X233836356Y-110440058D01*
X233851309Y-110441735D01*
X233865769Y-110445892D01*
X233957871Y-110453688D01*
X234049739Y-110463993D01*
X234065100Y-110464100D01*
X241516100Y-110464100D01*
X241544620Y-110461304D01*
X241573252Y-110462615D01*
X241651276Y-110450846D01*
X241729797Y-110443147D01*
X241757233Y-110434864D01*
X241785572Y-110430589D01*
X241859815Y-110403892D01*
X241935354Y-110381086D01*
X241960661Y-110367630D01*
X241987628Y-110357933D01*
X242055275Y-110317322D01*
X242124941Y-110280280D01*
X242147150Y-110262167D01*
X242171723Y-110247415D01*
X242183994Y-110238175D01*
X242721995Y-109827175D01*
X242771322Y-109781213D01*
X242823870Y-109738963D01*
X242849698Y-109708182D01*
X242879089Y-109680796D01*
X242918548Y-109626130D01*
X242961890Y-109574477D01*
X242981245Y-109539270D01*
X243004760Y-109506693D01*
X243032851Y-109445399D01*
X243065333Y-109386315D01*
X243077482Y-109348018D01*
X243094220Y-109311495D01*
X243109872Y-109245911D01*
X243130258Y-109181644D01*
X243134736Y-109141721D01*
X243144063Y-109102639D01*
X243146678Y-109035262D01*
X243154193Y-108968261D01*
X243154300Y-108952900D01*
X243154300Y-107662948D01*
X243161719Y-107660070D01*
X243396580Y-107511023D01*
X243598017Y-107319196D01*
X243758359Y-107091897D01*
X243871498Y-106837783D01*
X243933124Y-106566533D01*
X243937561Y-106248819D01*
X243883532Y-105975954D01*
X243777533Y-105718780D01*
X243623600Y-105487092D01*
X243427597Y-105289716D01*
X243196990Y-105134169D01*
X242940562Y-105026377D01*
X242668081Y-104970445D01*
X242389925Y-104968503D01*
X242116689Y-105020625D01*
X241945849Y-105089649D01*
X241993019Y-105034304D01*
X242105172Y-104785499D01*
X242106127Y-104778781D01*
X242329194Y-104827826D01*
X242617099Y-104833856D01*
X242900693Y-104783851D01*
X243169172Y-104679715D01*
X243412312Y-104525414D01*
X243620850Y-104326825D01*
X243786844Y-104091514D01*
X243903971Y-103828442D01*
X243967770Y-103547630D01*
X243972363Y-103218716D01*
X243916430Y-102936232D01*
X243830479Y-102727700D01*
X246206574Y-102727700D01*
X246745700Y-103266825D01*
X246745700Y-103276289D01*
X246738384Y-103271354D01*
X246366434Y-103115001D01*
X245971197Y-103033870D01*
X245567730Y-103031053D01*
X245171400Y-103106657D01*
X244797303Y-103257803D01*
X244459687Y-103478732D01*
X244171414Y-103761030D01*
X243943463Y-104093944D01*
X243784517Y-104464794D01*
X243700629Y-104859454D01*
X243694996Y-105262892D01*
X243767831Y-105659740D01*
X243916361Y-106034884D01*
X244134927Y-106374033D01*
X244415206Y-106664270D01*
X244746521Y-106894540D01*
X245116252Y-107056071D01*
X245510317Y-107142712D01*
X245913705Y-107151162D01*
X246311053Y-107081099D01*
X246447891Y-107028023D01*
X246550962Y-107288350D01*
X246706956Y-107530407D01*
X246906996Y-107737554D01*
X247143461Y-107901901D01*
X247407344Y-108017189D01*
X247688594Y-108079026D01*
X247976499Y-108085056D01*
X248260093Y-108035051D01*
X248528572Y-107930915D01*
X248771712Y-107776614D01*
X248980250Y-107578025D01*
X249146244Y-107342714D01*
X249263371Y-107079642D01*
X249327170Y-106798830D01*
X249331763Y-106469916D01*
X249275830Y-106187432D01*
X249166094Y-105921192D01*
X249006734Y-105681338D01*
X248980900Y-105655323D01*
X248980900Y-102803900D01*
X248970827Y-102701167D01*
X248961828Y-102598316D01*
X248960188Y-102592673D01*
X248959615Y-102586824D01*
X248929779Y-102488002D01*
X248900976Y-102388859D01*
X248898271Y-102383641D01*
X248896573Y-102378016D01*
X248848109Y-102286870D01*
X248800598Y-102195211D01*
X248796932Y-102190618D01*
X248794173Y-102185430D01*
X248728937Y-102105443D01*
X248664519Y-102024748D01*
X248656451Y-102016567D01*
X248656316Y-102016401D01*
X248656162Y-102016274D01*
X248653562Y-102013637D01*
X247459763Y-100819837D01*
X247379986Y-100754308D01*
X247300907Y-100687953D01*
X247295756Y-100685121D01*
X247291216Y-100681392D01*
X247200231Y-100632606D01*
X247109769Y-100582874D01*
X247104169Y-100581098D01*
X247098989Y-100578320D01*
X247000263Y-100548137D01*
X246901862Y-100516922D01*
X246896021Y-100516267D01*
X246890402Y-100514549D01*
X246787714Y-100504118D01*
X246685104Y-100492609D01*
X246673615Y-100492529D01*
X246673401Y-100492507D01*
X246673202Y-100492526D01*
X246669500Y-100492500D01*
X245127172Y-100492500D01*
X245128563Y-100392916D01*
X245072630Y-100110432D01*
X244962894Y-99844192D01*
X244909258Y-99763464D01*
X245393388Y-99869907D01*
X245893888Y-99880391D01*
X246386893Y-99793461D01*
X246853624Y-99612428D01*
X247276303Y-99344188D01*
X247638831Y-98998957D01*
X247927399Y-98589886D01*
X248131015Y-98132556D01*
X248241925Y-97644386D01*
X248249909Y-97072595D01*
X248152673Y-96581519D01*
X247961906Y-96118681D01*
X247790104Y-95860100D01*
X249700100Y-95860100D01*
X249799523Y-95850351D01*
X249896888Y-95852391D01*
X250044907Y-95826291D01*
X250198350Y-95811246D01*
X250293984Y-95782372D01*
X250389893Y-95765461D01*
X250530027Y-95711107D01*
X250677622Y-95666545D01*
X250765826Y-95619646D01*
X250856624Y-95584428D01*
X250983527Y-95503893D01*
X251119660Y-95431510D01*
X251197077Y-95368370D01*
X251279303Y-95316188D01*
X251388146Y-95212538D01*
X251507628Y-95115091D01*
X251571307Y-95038116D01*
X251641831Y-94970957D01*
X251728469Y-94848139D01*
X251826747Y-94729342D01*
X251874261Y-94641467D01*
X251930399Y-94561886D01*
X251991534Y-94424575D01*
X252064863Y-94288955D01*
X252094403Y-94193525D01*
X252134015Y-94104556D01*
X252167315Y-93957985D01*
X252212906Y-93810705D01*
X252223348Y-93711358D01*
X252244925Y-93616386D01*
X252246701Y-93489162D01*
X252265237Y-93312808D01*
X252251302Y-93159687D01*
X252252909Y-93044595D01*
X252230552Y-92931686D01*
X252219863Y-92814229D01*
X252181457Y-92683735D01*
X252155673Y-92553519D01*
X252111813Y-92447106D01*
X252078512Y-92333959D01*
X252015493Y-92213414D01*
X251964906Y-92090681D01*
X251901209Y-91994810D01*
X251846568Y-91890291D01*
X251761333Y-91784280D01*
X251687872Y-91673713D01*
X251606768Y-91592041D01*
X251532865Y-91500124D01*
X251428666Y-91412691D01*
X251335125Y-91318494D01*
X251239700Y-91254129D01*
X251149353Y-91178319D01*
X251030150Y-91112787D01*
X250920100Y-91038557D01*
X250813998Y-90993956D01*
X250710640Y-90937134D01*
X250580980Y-90896004D01*
X250458606Y-90844562D01*
X250345855Y-90821418D01*
X250233435Y-90785756D01*
X250098256Y-90770593D01*
X249968221Y-90743901D01*
X249853128Y-90743097D01*
X249735916Y-90729950D01*
X249700100Y-90729700D01*
X248269640Y-90729700D01*
X246452440Y-88912500D01*
X248106950Y-88912500D01*
X248112796Y-88918554D01*
X248349261Y-89082901D01*
X248613144Y-89198189D01*
X248894394Y-89260026D01*
X249182299Y-89266056D01*
X249465893Y-89216051D01*
X249734372Y-89111915D01*
X249977512Y-88957614D01*
X250186050Y-88759025D01*
X250352044Y-88523714D01*
X250469171Y-88260642D01*
X250532970Y-87979830D01*
X250533248Y-87959900D01*
X250538048Y-87959900D01*
X251199914Y-88621766D01*
X251118035Y-89006977D01*
X251111045Y-89507538D01*
X251201415Y-89999924D01*
X251385702Y-90465379D01*
X251656886Y-90886176D01*
X252004639Y-91246285D01*
X252415715Y-91531990D01*
X252874456Y-91732408D01*
X253363388Y-91839907D01*
X253863888Y-91850391D01*
X254356893Y-91763461D01*
X254823624Y-91582428D01*
X255246303Y-91314188D01*
X255608831Y-90968957D01*
X255897399Y-90559886D01*
X256101015Y-90102556D01*
X256211925Y-89614386D01*
X256219909Y-89042595D01*
X256122673Y-88551519D01*
X255931906Y-88088681D01*
X255654872Y-87671713D01*
X255302125Y-87316494D01*
X254887100Y-87036557D01*
X254425606Y-86842562D01*
X253935221Y-86741901D01*
X253434623Y-86738406D01*
X252992918Y-86822666D01*
X252606152Y-86435900D01*
X255450550Y-86435900D01*
X255658886Y-86759176D01*
X256006639Y-87119285D01*
X256417715Y-87404990D01*
X256876456Y-87605408D01*
X257365388Y-87712907D01*
X257865888Y-87723391D01*
X258358893Y-87636461D01*
X258825624Y-87455428D01*
X259064700Y-87303706D01*
X259064700Y-109325975D01*
X257778572Y-110612102D01*
X257744811Y-110629602D01*
X257740218Y-110633268D01*
X257735030Y-110636027D01*
X257655043Y-110701263D01*
X257574348Y-110765681D01*
X257566167Y-110773749D01*
X257566001Y-110773884D01*
X257565874Y-110774038D01*
X257563237Y-110776638D01*
X257233037Y-111106837D01*
X257167508Y-111186614D01*
X257101153Y-111265693D01*
X257098321Y-111270844D01*
X257094592Y-111275384D01*
X257045806Y-111366369D01*
X256996074Y-111456831D01*
X256994298Y-111462431D01*
X256991520Y-111467611D01*
X256961337Y-111566337D01*
X256930122Y-111664738D01*
X256929467Y-111670579D01*
X256927749Y-111676198D01*
X256917318Y-111778886D01*
X256905809Y-111881496D01*
X256905729Y-111892985D01*
X256905707Y-111893199D01*
X256905726Y-111893398D01*
X256905700Y-111897100D01*
X256905700Y-113588140D01*
X256877798Y-113615464D01*
X256715105Y-113853070D01*
X256601662Y-114117752D01*
X256541790Y-114399427D01*
X256537770Y-114687367D01*
X256589754Y-114970604D01*
X256695762Y-115238350D01*
X256851756Y-115480407D01*
X257051796Y-115687554D01*
X257288261Y-115851901D01*
X257552144Y-115967189D01*
X257833394Y-116029026D01*
X258121299Y-116035056D01*
X258404893Y-115985051D01*
X258673372Y-115880915D01*
X258916512Y-115726614D01*
X259125050Y-115528025D01*
X259291044Y-115292714D01*
X259408171Y-115029642D01*
X259471970Y-114748830D01*
X259475999Y-114460316D01*
X259482699Y-114460456D01*
X259766293Y-114410451D01*
X260034772Y-114306315D01*
X260277912Y-114152014D01*
X260486450Y-113953425D01*
X260652444Y-113718114D01*
X260769571Y-113455042D01*
X260833370Y-113174230D01*
X260833864Y-113138825D01*
X262222565Y-111817866D01*
X262228211Y-111811332D01*
X262234943Y-111805910D01*
X262299498Y-111728839D01*
X262365180Y-111652832D01*
X262369450Y-111645324D01*
X262375000Y-111638699D01*
X262423334Y-111550596D01*
X262473024Y-111463241D01*
X262475757Y-111455041D01*
X262479911Y-111447469D01*
X262510212Y-111351658D01*
X262541988Y-111256313D01*
X262543075Y-111247744D01*
X262545681Y-111239505D01*
X262556798Y-111139607D01*
X262569446Y-111039931D01*
X262568848Y-111031314D01*
X262569804Y-111022725D01*
X262569900Y-111007121D01*
X262544500Y-82000321D01*
X262534389Y-81898126D01*
X262525429Y-81795716D01*
X262523650Y-81789594D01*
X262523024Y-81783264D01*
X262493256Y-81684976D01*
X262464576Y-81586259D01*
X262461646Y-81580607D01*
X262459800Y-81574511D01*
X262411475Y-81483818D01*
X262364198Y-81392611D01*
X262360225Y-81387634D01*
X262357231Y-81382015D01*
X262292236Y-81302466D01*
X262228119Y-81222148D01*
X262219336Y-81213241D01*
X262219226Y-81213107D01*
X262219104Y-81213006D01*
X262217163Y-81211038D01*
X260235963Y-79229837D01*
X260156186Y-79164308D01*
X260077107Y-79097953D01*
X260071956Y-79095121D01*
X260067416Y-79091392D01*
X259976431Y-79042606D01*
X259885969Y-78992874D01*
X259880369Y-78991098D01*
X259875189Y-78988320D01*
X259776463Y-78958137D01*
X259678062Y-78926922D01*
X259672221Y-78926267D01*
X259666602Y-78924549D01*
X259563914Y-78914118D01*
X259461304Y-78902609D01*
X259449815Y-78902529D01*
X259449601Y-78902507D01*
X259449402Y-78902526D01*
X259445700Y-78902500D01*
X235487984Y-78902500D01*
X235468822Y-78883204D01*
X235272970Y-78751100D01*
X264057900Y-78751100D01*
X264057900Y-131742700D01*
X264057900Y-131742700D01*
G37*
X264057900Y-131742700D02*
X262543700Y-131742700D01*
X262543700Y-131124500D01*
X261147100Y-131124500D01*
X261147100Y-131144500D01*
X261097100Y-131144500D01*
X261097100Y-131124500D01*
X261077100Y-131124500D01*
X261077100Y-131074500D01*
X261097100Y-131074500D01*
X261097100Y-131054500D01*
X261147100Y-131054500D01*
X261147100Y-131074500D01*
X262543700Y-131074500D01*
X262543700Y-130312500D01*
X262511507Y-130035640D01*
X262425920Y-129770380D01*
X262290228Y-129526914D01*
X262109645Y-129314599D01*
X261891112Y-129141593D01*
X261643026Y-129014545D01*
X261629649Y-129010743D01*
X261972296Y-128668096D01*
X262078038Y-128539365D01*
X262185110Y-128411761D01*
X262189676Y-128403455D01*
X262195698Y-128396124D01*
X262274418Y-128249311D01*
X262354669Y-128103335D01*
X262357537Y-128094292D01*
X262362017Y-128085938D01*
X262410715Y-127926654D01*
X262461091Y-127767848D01*
X262462148Y-127758425D01*
X262464921Y-127749355D01*
X262481758Y-127583599D01*
X262500324Y-127418079D01*
X262500454Y-127399544D01*
X262500489Y-127399195D01*
X262500458Y-127398870D01*
X262500500Y-127392900D01*
X262500500Y-121850144D01*
X262484244Y-121684350D01*
X262469726Y-121518406D01*
X262467080Y-121509300D01*
X262466155Y-121499862D01*
X262418022Y-121340438D01*
X262371532Y-121180419D01*
X262367165Y-121171995D01*
X262364426Y-121162922D01*
X262286250Y-121015895D01*
X262209559Y-120867943D01*
X262203642Y-120860531D01*
X262199190Y-120852158D01*
X262093885Y-120723041D01*
X261989976Y-120592877D01*
X261976961Y-120579678D01*
X261976740Y-120579407D01*
X261976489Y-120579200D01*
X261972297Y-120574948D01*
X260021296Y-118623948D01*
X259892565Y-118518206D01*
X259764961Y-118411134D01*
X259756655Y-118406568D01*
X259749324Y-118400546D01*
X259602511Y-118321826D01*
X259456535Y-118241575D01*
X259447492Y-118238707D01*
X259439138Y-118234227D01*
X259279854Y-118185529D01*
X259121048Y-118135153D01*
X259111625Y-118134096D01*
X259102555Y-118131323D01*
X258936799Y-118114486D01*
X258771279Y-118095920D01*
X258752744Y-118095790D01*
X258752395Y-118095755D01*
X258752070Y-118095786D01*
X258746100Y-118095744D01*
X258671547Y-118095744D01*
X256380901Y-115805099D01*
X256234072Y-115684492D01*
X256088463Y-115562311D01*
X256078981Y-115557098D01*
X256070622Y-115550232D01*
X255903130Y-115460424D01*
X255736596Y-115368871D01*
X255726285Y-115365600D01*
X255716749Y-115360487D01*
X255535005Y-115304923D01*
X255353858Y-115247459D01*
X255343105Y-115246253D01*
X255332760Y-115243090D01*
X255143690Y-115223885D01*
X254954826Y-115202701D01*
X254933676Y-115202553D01*
X254933282Y-115202513D01*
X254932915Y-115202548D01*
X254926100Y-115202500D01*
X251405658Y-115202500D01*
X251338125Y-115134494D01*
X251242700Y-115070129D01*
X251152353Y-114994319D01*
X251033150Y-114928787D01*
X250923100Y-114854557D01*
X250816998Y-114809956D01*
X250713640Y-114753134D01*
X250583980Y-114712004D01*
X250461606Y-114660562D01*
X250348855Y-114637418D01*
X250236435Y-114601756D01*
X250101256Y-114586593D01*
X249971221Y-114559901D01*
X249856128Y-114559097D01*
X249738916Y-114545950D01*
X249703100Y-114545700D01*
X248443100Y-114545700D01*
X248207283Y-114568822D01*
X247971228Y-114589474D01*
X247958273Y-114593238D01*
X247944850Y-114594554D01*
X247902162Y-114607442D01*
X247960399Y-114524886D01*
X248164015Y-114067556D01*
X248274925Y-113579386D01*
X248282909Y-113007595D01*
X248185673Y-112516519D01*
X247994906Y-112053681D01*
X247717872Y-111636713D01*
X247365125Y-111281494D01*
X246950100Y-111001557D01*
X246488606Y-110807562D01*
X245998221Y-110706901D01*
X245497623Y-110703406D01*
X245005880Y-110797211D01*
X244541722Y-110984743D01*
X244122829Y-111258858D01*
X243765157Y-111609117D01*
X243482329Y-112022177D01*
X243285117Y-112482306D01*
X243181035Y-112971977D01*
X243174045Y-113472538D01*
X243264415Y-113964924D01*
X243448702Y-114430379D01*
X243719886Y-114851176D01*
X244067639Y-115211285D01*
X244478715Y-115496990D01*
X244937456Y-115697408D01*
X245426388Y-115804907D01*
X245926888Y-115815391D01*
X246150255Y-115776005D01*
X244183560Y-117742700D01*
X229791641Y-117742700D01*
X227521042Y-115472102D01*
X227520971Y-115472030D01*
X225549479Y-113500538D01*
X227114045Y-113500538D01*
X227204415Y-113992924D01*
X227388702Y-114458379D01*
X227659886Y-114879176D01*
X228007639Y-115239285D01*
X228418715Y-115524990D01*
X228877456Y-115725408D01*
X229366388Y-115832907D01*
X229866888Y-115843391D01*
X230359893Y-115756461D01*
X230826624Y-115575428D01*
X231249303Y-115307188D01*
X231611831Y-114961957D01*
X231900399Y-114552886D01*
X232104015Y-114095556D01*
X232214925Y-113607386D01*
X232219721Y-113263892D01*
X235668596Y-113263892D01*
X235741431Y-113660740D01*
X235889961Y-114035884D01*
X236108527Y-114375033D01*
X236388806Y-114665270D01*
X236720121Y-114895540D01*
X237089852Y-115057071D01*
X237483917Y-115143712D01*
X237887305Y-115152162D01*
X238284653Y-115082099D01*
X238660824Y-114936192D01*
X239001491Y-114719998D01*
X239293678Y-114441752D01*
X239526255Y-114112053D01*
X239690364Y-113743459D01*
X239779753Y-113350008D01*
X239786188Y-112889162D01*
X239707819Y-112493369D01*
X239554066Y-112120336D01*
X239330785Y-111784271D01*
X239046482Y-111497976D01*
X238711984Y-111272354D01*
X238340034Y-111116001D01*
X237944797Y-111034870D01*
X237541330Y-111032053D01*
X237145000Y-111107657D01*
X236770903Y-111258803D01*
X236433287Y-111479732D01*
X236145014Y-111762030D01*
X235917063Y-112094944D01*
X235758117Y-112465794D01*
X235674229Y-112860454D01*
X235668596Y-113263892D01*
X232219721Y-113263892D01*
X232222909Y-113035595D01*
X232125673Y-112544519D01*
X231934906Y-112081681D01*
X231657872Y-111664713D01*
X231305125Y-111309494D01*
X230890100Y-111029557D01*
X230428606Y-110835562D01*
X229938221Y-110734901D01*
X229437623Y-110731406D01*
X228945880Y-110825211D01*
X228481722Y-111012743D01*
X228062829Y-111286858D01*
X227705157Y-111637117D01*
X227422329Y-112050177D01*
X227225117Y-112510306D01*
X227121035Y-112999977D01*
X227114045Y-113500538D01*
X225549479Y-113500538D01*
X224790300Y-112741360D01*
X224790300Y-97846440D01*
X225219970Y-97416770D01*
X225229169Y-97405571D01*
X227519647Y-95115094D01*
X227567468Y-95076919D01*
X227586236Y-95058410D01*
X227586628Y-95058091D01*
X227586928Y-95057728D01*
X227592970Y-95051770D01*
X229893640Y-92751100D01*
X243035560Y-92751100D01*
X245118830Y-94834370D01*
X244972880Y-94862211D01*
X244508722Y-95049743D01*
X244089829Y-95323858D01*
X243732157Y-95674117D01*
X243449329Y-96087177D01*
X243252117Y-96547306D01*
X243148035Y-97036977D01*
X243141045Y-97537538D01*
X243231415Y-98029924D01*
X243266147Y-98117647D01*
X243192704Y-98109409D01*
X243181215Y-98109329D01*
X243181001Y-98109307D01*
X243180802Y-98109326D01*
X243177100Y-98109300D01*
X240014306Y-98109300D01*
X240111587Y-97890803D01*
X240218695Y-97419366D01*
X240226406Y-96867175D01*
X240132503Y-96392931D01*
X239948274Y-95945959D01*
X239680737Y-95543283D01*
X239340081Y-95200240D01*
X238939282Y-94929898D01*
X238493607Y-94742553D01*
X238020030Y-94645342D01*
X237536591Y-94641967D01*
X237061704Y-94732556D01*
X236613456Y-94913660D01*
X236208922Y-95178380D01*
X235863510Y-95516633D01*
X235590376Y-95915534D01*
X235399925Y-96359891D01*
X235299410Y-96832777D01*
X235292660Y-97316181D01*
X235379932Y-97791689D01*
X235505683Y-98109300D01*
X232357198Y-98109300D01*
X232336462Y-98102722D01*
X232330621Y-98102067D01*
X232325002Y-98100349D01*
X232222314Y-98089918D01*
X232206251Y-98088117D01*
X232315925Y-97605386D01*
X232323909Y-97033595D01*
X232226673Y-96542519D01*
X232035906Y-96079681D01*
X231758872Y-95662713D01*
X231406125Y-95307494D01*
X230991100Y-95027557D01*
X230529606Y-94833562D01*
X230039221Y-94732901D01*
X229538623Y-94729406D01*
X229046880Y-94823211D01*
X228582722Y-95010743D01*
X228163829Y-95284858D01*
X227806157Y-95635117D01*
X227523329Y-96048177D01*
X227326117Y-96508306D01*
X227222035Y-96997977D01*
X227215045Y-97498538D01*
X227305415Y-97990924D01*
X227489702Y-98456379D01*
X227760886Y-98877176D01*
X228108639Y-99237285D01*
X228519715Y-99522990D01*
X228978456Y-99723408D01*
X229467388Y-99830907D01*
X229604691Y-99833783D01*
X228276837Y-101161637D01*
X228211308Y-101241414D01*
X228146976Y-101318082D01*
X228142543Y-101320983D01*
X227936798Y-101522464D01*
X227774105Y-101760070D01*
X227660662Y-102024752D01*
X227600790Y-102306427D01*
X227596770Y-102594367D01*
X227648754Y-102877604D01*
X227754762Y-103145350D01*
X227910756Y-103387407D01*
X228110796Y-103594554D01*
X228244512Y-103687489D01*
X228169414Y-103761030D01*
X227941463Y-104093944D01*
X227782517Y-104464794D01*
X227698629Y-104859454D01*
X227692996Y-105262892D01*
X227765831Y-105659740D01*
X227914361Y-106034884D01*
X228132927Y-106374033D01*
X228413206Y-106664270D01*
X228744521Y-106894540D01*
X229114252Y-107056071D01*
X229508317Y-107142712D01*
X229911705Y-107151162D01*
X230309053Y-107081099D01*
X230390966Y-107049327D01*
X230304553Y-107250943D01*
X230246719Y-107523027D01*
X230242836Y-107801163D01*
X230293049Y-108074756D01*
X230395448Y-108333385D01*
X230546131Y-108567199D01*
X230739359Y-108767292D01*
X230967772Y-108926044D01*
X231222670Y-109037406D01*
X231494343Y-109097137D01*
X231772445Y-109102962D01*
X232046381Y-109054660D01*
X232305719Y-108954070D01*
X232540426Y-108805121D01*
X232540905Y-108957359D01*
X232541082Y-108959104D01*
X232540922Y-108960846D01*
X232551891Y-109065886D01*
X232562530Y-109170989D01*
X232563041Y-109172662D01*
X232563223Y-109174406D01*
X232594399Y-109275358D01*
X232625237Y-109376350D01*
X232626065Y-109377895D01*
X232626581Y-109379567D01*
X232676793Y-109472580D01*
X232726639Y-109565619D01*
X232727748Y-109566970D01*
X232728582Y-109568515D01*
X232795950Y-109650060D01*
X232862872Y-109731590D01*
X232864224Y-109732702D01*
X232865340Y-109734052D01*
X232876308Y-109744807D01*
X233300308Y-110154807D01*
X233372706Y-110212268D01*
X233443523Y-110271690D01*
X233456710Y-110278940D01*
X233468495Y-110288293D01*
X233550681Y-110330601D01*
X233631685Y-110375133D01*
X233646026Y-110379682D01*
X233659406Y-110386570D01*
X233748255Y-110412111D01*
X233836356Y-110440058D01*
X233851309Y-110441735D01*
X233865769Y-110445892D01*
X233957871Y-110453688D01*
X234049739Y-110463993D01*
X234065100Y-110464100D01*
X241516100Y-110464100D01*
X241544620Y-110461304D01*
X241573252Y-110462615D01*
X241651276Y-110450846D01*
X241729797Y-110443147D01*
X241757233Y-110434864D01*
X241785572Y-110430589D01*
X241859815Y-110403892D01*
X241935354Y-110381086D01*
X241960661Y-110367630D01*
X241987628Y-110357933D01*
X242055275Y-110317322D01*
X242124941Y-110280280D01*
X242147150Y-110262167D01*
X242171723Y-110247415D01*
X242183994Y-110238175D01*
X242721995Y-109827175D01*
X242771322Y-109781213D01*
X242823870Y-109738963D01*
X242849698Y-109708182D01*
X242879089Y-109680796D01*
X242918548Y-109626130D01*
X242961890Y-109574477D01*
X242981245Y-109539270D01*
X243004760Y-109506693D01*
X243032851Y-109445399D01*
X243065333Y-109386315D01*
X243077482Y-109348018D01*
X243094220Y-109311495D01*
X243109872Y-109245911D01*
X243130258Y-109181644D01*
X243134736Y-109141721D01*
X243144063Y-109102639D01*
X243146678Y-109035262D01*
X243154193Y-108968261D01*
X243154300Y-108952900D01*
X243154300Y-107662948D01*
X243161719Y-107660070D01*
X243396580Y-107511023D01*
X243598017Y-107319196D01*
X243758359Y-107091897D01*
X243871498Y-106837783D01*
X243933124Y-106566533D01*
X243937561Y-106248819D01*
X243883532Y-105975954D01*
X243777533Y-105718780D01*
X243623600Y-105487092D01*
X243427597Y-105289716D01*
X243196990Y-105134169D01*
X242940562Y-105026377D01*
X242668081Y-104970445D01*
X242389925Y-104968503D01*
X242116689Y-105020625D01*
X241945849Y-105089649D01*
X241993019Y-105034304D01*
X242105172Y-104785499D01*
X242106127Y-104778781D01*
X242329194Y-104827826D01*
X242617099Y-104833856D01*
X242900693Y-104783851D01*
X243169172Y-104679715D01*
X243412312Y-104525414D01*
X243620850Y-104326825D01*
X243786844Y-104091514D01*
X243903971Y-103828442D01*
X243967770Y-103547630D01*
X243972363Y-103218716D01*
X243916430Y-102936232D01*
X243830479Y-102727700D01*
X246206574Y-102727700D01*
X246745700Y-103266825D01*
X246745700Y-103276289D01*
X246738384Y-103271354D01*
X246366434Y-103115001D01*
X245971197Y-103033870D01*
X245567730Y-103031053D01*
X245171400Y-103106657D01*
X244797303Y-103257803D01*
X244459687Y-103478732D01*
X244171414Y-103761030D01*
X243943463Y-104093944D01*
X243784517Y-104464794D01*
X243700629Y-104859454D01*
X243694996Y-105262892D01*
X243767831Y-105659740D01*
X243916361Y-106034884D01*
X244134927Y-106374033D01*
X244415206Y-106664270D01*
X244746521Y-106894540D01*
X245116252Y-107056071D01*
X245510317Y-107142712D01*
X245913705Y-107151162D01*
X246311053Y-107081099D01*
X246447891Y-107028023D01*
X246550962Y-107288350D01*
X246706956Y-107530407D01*
X246906996Y-107737554D01*
X247143461Y-107901901D01*
X247407344Y-108017189D01*
X247688594Y-108079026D01*
X247976499Y-108085056D01*
X248260093Y-108035051D01*
X248528572Y-107930915D01*
X248771712Y-107776614D01*
X248980250Y-107578025D01*
X249146244Y-107342714D01*
X249263371Y-107079642D01*
X249327170Y-106798830D01*
X249331763Y-106469916D01*
X249275830Y-106187432D01*
X249166094Y-105921192D01*
X249006734Y-105681338D01*
X248980900Y-105655323D01*
X248980900Y-102803900D01*
X248970827Y-102701167D01*
X248961828Y-102598316D01*
X248960188Y-102592673D01*
X248959615Y-102586824D01*
X248929779Y-102488002D01*
X248900976Y-102388859D01*
X248898271Y-102383641D01*
X248896573Y-102378016D01*
X248848109Y-102286870D01*
X248800598Y-102195211D01*
X248796932Y-102190618D01*
X248794173Y-102185430D01*
X248728937Y-102105443D01*
X248664519Y-102024748D01*
X248656451Y-102016567D01*
X248656316Y-102016401D01*
X248656162Y-102016274D01*
X248653562Y-102013637D01*
X247459763Y-100819837D01*
X247379986Y-100754308D01*
X247300907Y-100687953D01*
X247295756Y-100685121D01*
X247291216Y-100681392D01*
X247200231Y-100632606D01*
X247109769Y-100582874D01*
X247104169Y-100581098D01*
X247098989Y-100578320D01*
X247000263Y-100548137D01*
X246901862Y-100516922D01*
X246896021Y-100516267D01*
X246890402Y-100514549D01*
X246787714Y-100504118D01*
X246685104Y-100492609D01*
X246673615Y-100492529D01*
X246673401Y-100492507D01*
X246673202Y-100492526D01*
X246669500Y-100492500D01*
X245127172Y-100492500D01*
X245128563Y-100392916D01*
X245072630Y-100110432D01*
X244962894Y-99844192D01*
X244909258Y-99763464D01*
X245393388Y-99869907D01*
X245893888Y-99880391D01*
X246386893Y-99793461D01*
X246853624Y-99612428D01*
X247276303Y-99344188D01*
X247638831Y-98998957D01*
X247927399Y-98589886D01*
X248131015Y-98132556D01*
X248241925Y-97644386D01*
X248249909Y-97072595D01*
X248152673Y-96581519D01*
X247961906Y-96118681D01*
X247790104Y-95860100D01*
X249700100Y-95860100D01*
X249799523Y-95850351D01*
X249896888Y-95852391D01*
X250044907Y-95826291D01*
X250198350Y-95811246D01*
X250293984Y-95782372D01*
X250389893Y-95765461D01*
X250530027Y-95711107D01*
X250677622Y-95666545D01*
X250765826Y-95619646D01*
X250856624Y-95584428D01*
X250983527Y-95503893D01*
X251119660Y-95431510D01*
X251197077Y-95368370D01*
X251279303Y-95316188D01*
X251388146Y-95212538D01*
X251507628Y-95115091D01*
X251571307Y-95038116D01*
X251641831Y-94970957D01*
X251728469Y-94848139D01*
X251826747Y-94729342D01*
X251874261Y-94641467D01*
X251930399Y-94561886D01*
X251991534Y-94424575D01*
X252064863Y-94288955D01*
X252094403Y-94193525D01*
X252134015Y-94104556D01*
X252167315Y-93957985D01*
X252212906Y-93810705D01*
X252223348Y-93711358D01*
X252244925Y-93616386D01*
X252246701Y-93489162D01*
X252265237Y-93312808D01*
X252251302Y-93159687D01*
X252252909Y-93044595D01*
X252230552Y-92931686D01*
X252219863Y-92814229D01*
X252181457Y-92683735D01*
X252155673Y-92553519D01*
X252111813Y-92447106D01*
X252078512Y-92333959D01*
X252015493Y-92213414D01*
X251964906Y-92090681D01*
X251901209Y-91994810D01*
X251846568Y-91890291D01*
X251761333Y-91784280D01*
X251687872Y-91673713D01*
X251606768Y-91592041D01*
X251532865Y-91500124D01*
X251428666Y-91412691D01*
X251335125Y-91318494D01*
X251239700Y-91254129D01*
X251149353Y-91178319D01*
X251030150Y-91112787D01*
X250920100Y-91038557D01*
X250813998Y-90993956D01*
X250710640Y-90937134D01*
X250580980Y-90896004D01*
X250458606Y-90844562D01*
X250345855Y-90821418D01*
X250233435Y-90785756D01*
X250098256Y-90770593D01*
X249968221Y-90743901D01*
X249853128Y-90743097D01*
X249735916Y-90729950D01*
X249700100Y-90729700D01*
X248269640Y-90729700D01*
X246452440Y-88912500D01*
X248106950Y-88912500D01*
X248112796Y-88918554D01*
X248349261Y-89082901D01*
X248613144Y-89198189D01*
X248894394Y-89260026D01*
X249182299Y-89266056D01*
X249465893Y-89216051D01*
X249734372Y-89111915D01*
X249977512Y-88957614D01*
X250186050Y-88759025D01*
X250352044Y-88523714D01*
X250469171Y-88260642D01*
X250532970Y-87979830D01*
X250533248Y-87959900D01*
X250538048Y-87959900D01*
X251199914Y-88621766D01*
X251118035Y-89006977D01*
X251111045Y-89507538D01*
X251201415Y-89999924D01*
X251385702Y-90465379D01*
X251656886Y-90886176D01*
X252004639Y-91246285D01*
X252415715Y-91531990D01*
X252874456Y-91732408D01*
X253363388Y-91839907D01*
X253863888Y-91850391D01*
X254356893Y-91763461D01*
X254823624Y-91582428D01*
X255246303Y-91314188D01*
X255608831Y-90968957D01*
X255897399Y-90559886D01*
X256101015Y-90102556D01*
X256211925Y-89614386D01*
X256219909Y-89042595D01*
X256122673Y-88551519D01*
X255931906Y-88088681D01*
X255654872Y-87671713D01*
X255302125Y-87316494D01*
X254887100Y-87036557D01*
X254425606Y-86842562D01*
X253935221Y-86741901D01*
X253434623Y-86738406D01*
X252992918Y-86822666D01*
X252606152Y-86435900D01*
X255450550Y-86435900D01*
X255658886Y-86759176D01*
X256006639Y-87119285D01*
X256417715Y-87404990D01*
X256876456Y-87605408D01*
X257365388Y-87712907D01*
X257865888Y-87723391D01*
X258358893Y-87636461D01*
X258825624Y-87455428D01*
X259064700Y-87303706D01*
X259064700Y-109325975D01*
X257778572Y-110612102D01*
X257744811Y-110629602D01*
X257740218Y-110633268D01*
X257735030Y-110636027D01*
X257655043Y-110701263D01*
X257574348Y-110765681D01*
X257566167Y-110773749D01*
X257566001Y-110773884D01*
X257565874Y-110774038D01*
X257563237Y-110776638D01*
X257233037Y-111106837D01*
X257167508Y-111186614D01*
X257101153Y-111265693D01*
X257098321Y-111270844D01*
X257094592Y-111275384D01*
X257045806Y-111366369D01*
X256996074Y-111456831D01*
X256994298Y-111462431D01*
X256991520Y-111467611D01*
X256961337Y-111566337D01*
X256930122Y-111664738D01*
X256929467Y-111670579D01*
X256927749Y-111676198D01*
X256917318Y-111778886D01*
X256905809Y-111881496D01*
X256905729Y-111892985D01*
X256905707Y-111893199D01*
X256905726Y-111893398D01*
X256905700Y-111897100D01*
X256905700Y-113588140D01*
X256877798Y-113615464D01*
X256715105Y-113853070D01*
X256601662Y-114117752D01*
X256541790Y-114399427D01*
X256537770Y-114687367D01*
X256589754Y-114970604D01*
X256695762Y-115238350D01*
X256851756Y-115480407D01*
X257051796Y-115687554D01*
X257288261Y-115851901D01*
X257552144Y-115967189D01*
X257833394Y-116029026D01*
X258121299Y-116035056D01*
X258404893Y-115985051D01*
X258673372Y-115880915D01*
X258916512Y-115726614D01*
X259125050Y-115528025D01*
X259291044Y-115292714D01*
X259408171Y-115029642D01*
X259471970Y-114748830D01*
X259475999Y-114460316D01*
X259482699Y-114460456D01*
X259766293Y-114410451D01*
X260034772Y-114306315D01*
X260277912Y-114152014D01*
X260486450Y-113953425D01*
X260652444Y-113718114D01*
X260769571Y-113455042D01*
X260833370Y-113174230D01*
X260833864Y-113138825D01*
X262222565Y-111817866D01*
X262228211Y-111811332D01*
X262234943Y-111805910D01*
X262299498Y-111728839D01*
X262365180Y-111652832D01*
X262369450Y-111645324D01*
X262375000Y-111638699D01*
X262423334Y-111550596D01*
X262473024Y-111463241D01*
X262475757Y-111455041D01*
X262479911Y-111447469D01*
X262510212Y-111351658D01*
X262541988Y-111256313D01*
X262543075Y-111247744D01*
X262545681Y-111239505D01*
X262556798Y-111139607D01*
X262569446Y-111039931D01*
X262568848Y-111031314D01*
X262569804Y-111022725D01*
X262569900Y-111007121D01*
X262544500Y-82000321D01*
X262534389Y-81898126D01*
X262525429Y-81795716D01*
X262523650Y-81789594D01*
X262523024Y-81783264D01*
X262493256Y-81684976D01*
X262464576Y-81586259D01*
X262461646Y-81580607D01*
X262459800Y-81574511D01*
X262411475Y-81483818D01*
X262364198Y-81392611D01*
X262360225Y-81387634D01*
X262357231Y-81382015D01*
X262292236Y-81302466D01*
X262228119Y-81222148D01*
X262219336Y-81213241D01*
X262219226Y-81213107D01*
X262219104Y-81213006D01*
X262217163Y-81211038D01*
X260235963Y-79229837D01*
X260156186Y-79164308D01*
X260077107Y-79097953D01*
X260071956Y-79095121D01*
X260067416Y-79091392D01*
X259976431Y-79042606D01*
X259885969Y-78992874D01*
X259880369Y-78991098D01*
X259875189Y-78988320D01*
X259776463Y-78958137D01*
X259678062Y-78926922D01*
X259672221Y-78926267D01*
X259666602Y-78924549D01*
X259563914Y-78914118D01*
X259461304Y-78902609D01*
X259449815Y-78902529D01*
X259449601Y-78902507D01*
X259449402Y-78902526D01*
X259445700Y-78902500D01*
X235487984Y-78902500D01*
X235468822Y-78883204D01*
X235272970Y-78751100D01*
X264057900Y-78751100D01*
X264057900Y-131742700D01*
G36*
X233603743Y-78870183D02*
X233397998Y-79071664D01*
X233235305Y-79309270D01*
X233121862Y-79573952D01*
X233061990Y-79855627D01*
X233057970Y-80143567D01*
X233109954Y-80426804D01*
X233129947Y-80477300D01*
X232769653Y-80477300D01*
X232674822Y-80381804D01*
X232436086Y-80220774D01*
X232170619Y-80109182D01*
X231888532Y-80051278D01*
X231600571Y-80049268D01*
X231317704Y-80103227D01*
X231050704Y-80211102D01*
X230809743Y-80368783D01*
X230603998Y-80570264D01*
X230441305Y-80807870D01*
X230327862Y-81072552D01*
X230267990Y-81354227D01*
X230263970Y-81642167D01*
X230315954Y-81925404D01*
X230421962Y-82193150D01*
X230577956Y-82435207D01*
X230777996Y-82642354D01*
X231014461Y-82806701D01*
X231278344Y-82921989D01*
X231559594Y-82983826D01*
X231847499Y-82989856D01*
X232131093Y-82939851D01*
X232399572Y-82835715D01*
X232593728Y-82712500D01*
X238021012Y-82712500D01*
X237964190Y-82979827D01*
X237960170Y-83267767D01*
X238012154Y-83551004D01*
X238118162Y-83818750D01*
X238167881Y-83895900D01*
X219935085Y-83895900D01*
X219667872Y-83493713D01*
X219486441Y-83311011D01*
X225731715Y-83337503D01*
X225909261Y-83460901D01*
X226173144Y-83576189D01*
X226454394Y-83638026D01*
X226742299Y-83644056D01*
X227025893Y-83594051D01*
X227294372Y-83489915D01*
X227537512Y-83335614D01*
X227746050Y-83137025D01*
X227912044Y-82901714D01*
X228029171Y-82638642D01*
X228092970Y-82357830D01*
X228097563Y-82028916D01*
X228041630Y-81746432D01*
X227931894Y-81480192D01*
X227772534Y-81240338D01*
X227569622Y-81036004D01*
X227330886Y-80874974D01*
X227065419Y-80763382D01*
X226783332Y-80705478D01*
X226495371Y-80703468D01*
X226212504Y-80757427D01*
X225945504Y-80865302D01*
X225738576Y-81000712D01*
X215790056Y-80958511D01*
X215680328Y-80968800D01*
X215570171Y-80978438D01*
X215566656Y-80979459D01*
X215563021Y-80979800D01*
X215457235Y-81011249D01*
X215351194Y-81042057D01*
X215347951Y-81043738D01*
X215344443Y-81044781D01*
X215246717Y-81096212D01*
X215148744Y-81146997D01*
X215145886Y-81149278D01*
X215142651Y-81150981D01*
X215056795Y-81220399D01*
X214970532Y-81289262D01*
X214965554Y-81294171D01*
X214965329Y-81294353D01*
X214965141Y-81294578D01*
X214958917Y-81300716D01*
X213864916Y-82394716D01*
X213796404Y-82478124D01*
X213727037Y-82560793D01*
X213724077Y-82566177D01*
X213720178Y-82570924D01*
X213669184Y-82666027D01*
X213617182Y-82760618D01*
X213615324Y-82766475D01*
X213612421Y-82771889D01*
X213580873Y-82875080D01*
X213548232Y-82977976D01*
X213547547Y-82984084D01*
X213545751Y-82989958D01*
X213534844Y-83097331D01*
X213522814Y-83204587D01*
X213522730Y-83216595D01*
X213522707Y-83216822D01*
X213522727Y-83217034D01*
X213522700Y-83220900D01*
X213522700Y-86506900D01*
X213533230Y-86614289D01*
X213542638Y-86721829D01*
X213544353Y-86727731D01*
X213544952Y-86733843D01*
X213576144Y-86837158D01*
X213606257Y-86940806D01*
X213609084Y-86946259D01*
X213610860Y-86952143D01*
X213661526Y-87047431D01*
X213711197Y-87143257D01*
X213715032Y-87148061D01*
X213717915Y-87153483D01*
X213786110Y-87237098D01*
X213853462Y-87321468D01*
X213861898Y-87330023D01*
X213862038Y-87330195D01*
X213862197Y-87330327D01*
X213864916Y-87333084D01*
X214674700Y-88142868D01*
X214674700Y-89318104D01*
X214550105Y-89500070D01*
X214436662Y-89764752D01*
X214376790Y-90046427D01*
X214372770Y-90334367D01*
X214424754Y-90617604D01*
X214530762Y-90885350D01*
X214686756Y-91127407D01*
X214886796Y-91334554D01*
X215123261Y-91498901D01*
X215271892Y-91563836D01*
X215299119Y-100959874D01*
X215177105Y-101138070D01*
X215137149Y-101231293D01*
X215089332Y-101221478D01*
X214801371Y-101219468D01*
X214518504Y-101273427D01*
X214251504Y-101381302D01*
X214010543Y-101538983D01*
X213882574Y-101664300D01*
X213698100Y-101664300D01*
X213595417Y-101674368D01*
X213492516Y-101683371D01*
X213486868Y-101685012D01*
X213481024Y-101685585D01*
X213382244Y-101715408D01*
X213283059Y-101744224D01*
X213277841Y-101746929D01*
X213272216Y-101748627D01*
X213181070Y-101797091D01*
X213089411Y-101844602D01*
X213084818Y-101848268D01*
X213079630Y-101851027D01*
X212999643Y-101916263D01*
X212918948Y-101980681D01*
X212910767Y-101988749D01*
X212910601Y-101988884D01*
X212910474Y-101989038D01*
X212907838Y-101991637D01*
X212027837Y-102871637D01*
X211962308Y-102951414D01*
X211895953Y-103030493D01*
X211893121Y-103035644D01*
X211889392Y-103040184D01*
X211840606Y-103131169D01*
X211790874Y-103221631D01*
X211789098Y-103227231D01*
X211786320Y-103232411D01*
X211756137Y-103331137D01*
X211724922Y-103429538D01*
X211724267Y-103435379D01*
X211722549Y-103440998D01*
X211712118Y-103543686D01*
X211700609Y-103646296D01*
X211700529Y-103657785D01*
X211700507Y-103657999D01*
X211700526Y-103658198D01*
X211700500Y-103661900D01*
X211700500Y-127870900D01*
X211710568Y-127973583D01*
X211719571Y-128076484D01*
X211721212Y-128082132D01*
X211721785Y-128087976D01*
X211751608Y-128186756D01*
X211780424Y-128285941D01*
X211783129Y-128291159D01*
X211784827Y-128296784D01*
X211833291Y-128387930D01*
X211880802Y-128479589D01*
X211884468Y-128484182D01*
X211887227Y-128489370D01*
X211952463Y-128569357D01*
X212016881Y-128650052D01*
X212024952Y-128658237D01*
X212025084Y-128658399D01*
X212025234Y-128658523D01*
X212027837Y-128661163D01*
X214925838Y-131559163D01*
X215005589Y-131624671D01*
X215084693Y-131691047D01*
X215089844Y-131693879D01*
X215094384Y-131697608D01*
X215178480Y-131742700D01*
X210883500Y-131742700D01*
X210883500Y-122279300D01*
X210882259Y-122266647D01*
X210883192Y-122253961D01*
X210872364Y-122165725D01*
X210863690Y-122077257D01*
X210860014Y-122065080D01*
X210858465Y-122052461D01*
X210830707Y-121968015D01*
X210805013Y-121882911D01*
X210799044Y-121871685D01*
X210795072Y-121859601D01*
X210751440Y-121782154D01*
X210709705Y-121703662D01*
X210701665Y-121693804D01*
X210695425Y-121682728D01*
X210637585Y-121615235D01*
X210581395Y-121546339D01*
X210571598Y-121538234D01*
X210563322Y-121528577D01*
X210493453Y-121473588D01*
X210424972Y-121416935D01*
X210413789Y-121410888D01*
X210403794Y-121403022D01*
X210324583Y-121362655D01*
X210246394Y-121320378D01*
X210234247Y-121316618D01*
X210222915Y-121310843D01*
X210137363Y-121286628D01*
X210052461Y-121260346D01*
X210039817Y-121259017D01*
X210027579Y-121255553D01*
X209938969Y-121248417D01*
X209850562Y-121239125D01*
X209837896Y-121240278D01*
X209825221Y-121239257D01*
X209810702Y-121239611D01*
X209433919Y-121251425D01*
X209386333Y-88981458D01*
X209877737Y-89011732D01*
X209909809Y-89010570D01*
X209941754Y-89013701D01*
X210011043Y-89006903D01*
X210080615Y-89004383D01*
X210111856Y-88997013D01*
X210143796Y-88993879D01*
X210210440Y-88973754D01*
X210278202Y-88957768D01*
X210307411Y-88944472D01*
X210338140Y-88935193D01*
X210399616Y-88902501D01*
X210462972Y-88873662D01*
X210489042Y-88854946D01*
X210517383Y-88839875D01*
X210571336Y-88795867D01*
X210627887Y-88755269D01*
X210649826Y-88731845D01*
X210674699Y-88711557D01*
X210719078Y-88657907D01*
X210766665Y-88607099D01*
X210783635Y-88579862D01*
X210804095Y-88555128D01*
X210837210Y-88493875D01*
X210874020Y-88434796D01*
X210885376Y-88404782D01*
X210900643Y-88376544D01*
X210921230Y-88310028D01*
X210945864Y-88244922D01*
X210951175Y-88213272D01*
X210960665Y-88182609D01*
X210967939Y-88113371D01*
X210979460Y-88044710D01*
X210978522Y-88012626D01*
X210981875Y-87980708D01*
X210981874Y-87966184D01*
X210917060Y-78751100D01*
X233785720Y-78751100D01*
X233603743Y-78870183D01*
X233603743Y-78870183D01*
G37*
X233603743Y-78870183D02*
X233397998Y-79071664D01*
X233235305Y-79309270D01*
X233121862Y-79573952D01*
X233061990Y-79855627D01*
X233057970Y-80143567D01*
X233109954Y-80426804D01*
X233129947Y-80477300D01*
X232769653Y-80477300D01*
X232674822Y-80381804D01*
X232436086Y-80220774D01*
X232170619Y-80109182D01*
X231888532Y-80051278D01*
X231600571Y-80049268D01*
X231317704Y-80103227D01*
X231050704Y-80211102D01*
X230809743Y-80368783D01*
X230603998Y-80570264D01*
X230441305Y-80807870D01*
X230327862Y-81072552D01*
X230267990Y-81354227D01*
X230263970Y-81642167D01*
X230315954Y-81925404D01*
X230421962Y-82193150D01*
X230577956Y-82435207D01*
X230777996Y-82642354D01*
X231014461Y-82806701D01*
X231278344Y-82921989D01*
X231559594Y-82983826D01*
X231847499Y-82989856D01*
X232131093Y-82939851D01*
X232399572Y-82835715D01*
X232593728Y-82712500D01*
X238021012Y-82712500D01*
X237964190Y-82979827D01*
X237960170Y-83267767D01*
X238012154Y-83551004D01*
X238118162Y-83818750D01*
X238167881Y-83895900D01*
X219935085Y-83895900D01*
X219667872Y-83493713D01*
X219486441Y-83311011D01*
X225731715Y-83337503D01*
X225909261Y-83460901D01*
X226173144Y-83576189D01*
X226454394Y-83638026D01*
X226742299Y-83644056D01*
X227025893Y-83594051D01*
X227294372Y-83489915D01*
X227537512Y-83335614D01*
X227746050Y-83137025D01*
X227912044Y-82901714D01*
X228029171Y-82638642D01*
X228092970Y-82357830D01*
X228097563Y-82028916D01*
X228041630Y-81746432D01*
X227931894Y-81480192D01*
X227772534Y-81240338D01*
X227569622Y-81036004D01*
X227330886Y-80874974D01*
X227065419Y-80763382D01*
X226783332Y-80705478D01*
X226495371Y-80703468D01*
X226212504Y-80757427D01*
X225945504Y-80865302D01*
X225738576Y-81000712D01*
X215790056Y-80958511D01*
X215680328Y-80968800D01*
X215570171Y-80978438D01*
X215566656Y-80979459D01*
X215563021Y-80979800D01*
X215457235Y-81011249D01*
X215351194Y-81042057D01*
X215347951Y-81043738D01*
X215344443Y-81044781D01*
X215246717Y-81096212D01*
X215148744Y-81146997D01*
X215145886Y-81149278D01*
X215142651Y-81150981D01*
X215056795Y-81220399D01*
X214970532Y-81289262D01*
X214965554Y-81294171D01*
X214965329Y-81294353D01*
X214965141Y-81294578D01*
X214958917Y-81300716D01*
X213864916Y-82394716D01*
X213796404Y-82478124D01*
X213727037Y-82560793D01*
X213724077Y-82566177D01*
X213720178Y-82570924D01*
X213669184Y-82666027D01*
X213617182Y-82760618D01*
X213615324Y-82766475D01*
X213612421Y-82771889D01*
X213580873Y-82875080D01*
X213548232Y-82977976D01*
X213547547Y-82984084D01*
X213545751Y-82989958D01*
X213534844Y-83097331D01*
X213522814Y-83204587D01*
X213522730Y-83216595D01*
X213522707Y-83216822D01*
X213522727Y-83217034D01*
X213522700Y-83220900D01*
X213522700Y-86506900D01*
X213533230Y-86614289D01*
X213542638Y-86721829D01*
X213544353Y-86727731D01*
X213544952Y-86733843D01*
X213576144Y-86837158D01*
X213606257Y-86940806D01*
X213609084Y-86946259D01*
X213610860Y-86952143D01*
X213661526Y-87047431D01*
X213711197Y-87143257D01*
X213715032Y-87148061D01*
X213717915Y-87153483D01*
X213786110Y-87237098D01*
X213853462Y-87321468D01*
X213861898Y-87330023D01*
X213862038Y-87330195D01*
X213862197Y-87330327D01*
X213864916Y-87333084D01*
X214674700Y-88142868D01*
X214674700Y-89318104D01*
X214550105Y-89500070D01*
X214436662Y-89764752D01*
X214376790Y-90046427D01*
X214372770Y-90334367D01*
X214424754Y-90617604D01*
X214530762Y-90885350D01*
X214686756Y-91127407D01*
X214886796Y-91334554D01*
X215123261Y-91498901D01*
X215271892Y-91563836D01*
X215299119Y-100959874D01*
X215177105Y-101138070D01*
X215137149Y-101231293D01*
X215089332Y-101221478D01*
X214801371Y-101219468D01*
X214518504Y-101273427D01*
X214251504Y-101381302D01*
X214010543Y-101538983D01*
X213882574Y-101664300D01*
X213698100Y-101664300D01*
X213595417Y-101674368D01*
X213492516Y-101683371D01*
X213486868Y-101685012D01*
X213481024Y-101685585D01*
X213382244Y-101715408D01*
X213283059Y-101744224D01*
X213277841Y-101746929D01*
X213272216Y-101748627D01*
X213181070Y-101797091D01*
X213089411Y-101844602D01*
X213084818Y-101848268D01*
X213079630Y-101851027D01*
X212999643Y-101916263D01*
X212918948Y-101980681D01*
X212910767Y-101988749D01*
X212910601Y-101988884D01*
X212910474Y-101989038D01*
X212907838Y-101991637D01*
X212027837Y-102871637D01*
X211962308Y-102951414D01*
X211895953Y-103030493D01*
X211893121Y-103035644D01*
X211889392Y-103040184D01*
X211840606Y-103131169D01*
X211790874Y-103221631D01*
X211789098Y-103227231D01*
X211786320Y-103232411D01*
X211756137Y-103331137D01*
X211724922Y-103429538D01*
X211724267Y-103435379D01*
X211722549Y-103440998D01*
X211712118Y-103543686D01*
X211700609Y-103646296D01*
X211700529Y-103657785D01*
X211700507Y-103657999D01*
X211700526Y-103658198D01*
X211700500Y-103661900D01*
X211700500Y-127870900D01*
X211710568Y-127973583D01*
X211719571Y-128076484D01*
X211721212Y-128082132D01*
X211721785Y-128087976D01*
X211751608Y-128186756D01*
X211780424Y-128285941D01*
X211783129Y-128291159D01*
X211784827Y-128296784D01*
X211833291Y-128387930D01*
X211880802Y-128479589D01*
X211884468Y-128484182D01*
X211887227Y-128489370D01*
X211952463Y-128569357D01*
X212016881Y-128650052D01*
X212024952Y-128658237D01*
X212025084Y-128658399D01*
X212025234Y-128658523D01*
X212027837Y-128661163D01*
X214925838Y-131559163D01*
X215005589Y-131624671D01*
X215084693Y-131691047D01*
X215089844Y-131693879D01*
X215094384Y-131697608D01*
X215178480Y-131742700D01*
X210883500Y-131742700D01*
X210883500Y-122279300D01*
X210882259Y-122266647D01*
X210883192Y-122253961D01*
X210872364Y-122165725D01*
X210863690Y-122077257D01*
X210860014Y-122065080D01*
X210858465Y-122052461D01*
X210830707Y-121968015D01*
X210805013Y-121882911D01*
X210799044Y-121871685D01*
X210795072Y-121859601D01*
X210751440Y-121782154D01*
X210709705Y-121703662D01*
X210701665Y-121693804D01*
X210695425Y-121682728D01*
X210637585Y-121615235D01*
X210581395Y-121546339D01*
X210571598Y-121538234D01*
X210563322Y-121528577D01*
X210493453Y-121473588D01*
X210424972Y-121416935D01*
X210413789Y-121410888D01*
X210403794Y-121403022D01*
X210324583Y-121362655D01*
X210246394Y-121320378D01*
X210234247Y-121316618D01*
X210222915Y-121310843D01*
X210137363Y-121286628D01*
X210052461Y-121260346D01*
X210039817Y-121259017D01*
X210027579Y-121255553D01*
X209938969Y-121248417D01*
X209850562Y-121239125D01*
X209837896Y-121240278D01*
X209825221Y-121239257D01*
X209810702Y-121239611D01*
X209433919Y-121251425D01*
X209386333Y-88981458D01*
X209877737Y-89011732D01*
X209909809Y-89010570D01*
X209941754Y-89013701D01*
X210011043Y-89006903D01*
X210080615Y-89004383D01*
X210111856Y-88997013D01*
X210143796Y-88993879D01*
X210210440Y-88973754D01*
X210278202Y-88957768D01*
X210307411Y-88944472D01*
X210338140Y-88935193D01*
X210399616Y-88902501D01*
X210462972Y-88873662D01*
X210489042Y-88854946D01*
X210517383Y-88839875D01*
X210571336Y-88795867D01*
X210627887Y-88755269D01*
X210649826Y-88731845D01*
X210674699Y-88711557D01*
X210719078Y-88657907D01*
X210766665Y-88607099D01*
X210783635Y-88579862D01*
X210804095Y-88555128D01*
X210837210Y-88493875D01*
X210874020Y-88434796D01*
X210885376Y-88404782D01*
X210900643Y-88376544D01*
X210921230Y-88310028D01*
X210945864Y-88244922D01*
X210951175Y-88213272D01*
X210960665Y-88182609D01*
X210967939Y-88113371D01*
X210979460Y-88044710D01*
X210978522Y-88012626D01*
X210981875Y-87980708D01*
X210981874Y-87966184D01*
X210917060Y-78751100D01*
X233785720Y-78751100D01*
X233603743Y-78870183D01*
G36*
X239418556Y-104693122D02*
X239491821Y-104929704D01*
X239641987Y-105157590D01*
X239757910Y-105256390D01*
X239709100Y-105305200D01*
X239709100Y-105380265D01*
X239734448Y-105507698D01*
X239737651Y-105515430D01*
X239573700Y-105515430D01*
X239419995Y-105527687D01*
X239369653Y-105543277D01*
X239173700Y-105515430D01*
X238823700Y-105515430D01*
X238669995Y-105527687D01*
X238619653Y-105543277D01*
X238423700Y-105515430D01*
X238171340Y-105515430D01*
X238213230Y-105452738D01*
X238262952Y-105332698D01*
X238288300Y-105205265D01*
X238288300Y-105130200D01*
X238123400Y-104965300D01*
X237251200Y-104965300D01*
X237251200Y-104985300D01*
X237201200Y-104985300D01*
X237201200Y-104965300D01*
X237181200Y-104965300D01*
X237181200Y-104915300D01*
X237201200Y-104915300D01*
X237201200Y-104895300D01*
X237251200Y-104895300D01*
X237251200Y-104915300D01*
X238123400Y-104915300D01*
X238288300Y-104750400D01*
X238288300Y-104715170D01*
X238423700Y-104715170D01*
X238577405Y-104702913D01*
X238627747Y-104687323D01*
X238823700Y-104715170D01*
X239173700Y-104715170D01*
X239327405Y-104702913D01*
X239377747Y-104687323D01*
X239418556Y-104693122D01*
X239418556Y-104693122D01*
G37*
X239418556Y-104693122D02*
X239491821Y-104929704D01*
X239641987Y-105157590D01*
X239757910Y-105256390D01*
X239709100Y-105305200D01*
X239709100Y-105380265D01*
X239734448Y-105507698D01*
X239737651Y-105515430D01*
X239573700Y-105515430D01*
X239419995Y-105527687D01*
X239369653Y-105543277D01*
X239173700Y-105515430D01*
X238823700Y-105515430D01*
X238669995Y-105527687D01*
X238619653Y-105543277D01*
X238423700Y-105515430D01*
X238171340Y-105515430D01*
X238213230Y-105452738D01*
X238262952Y-105332698D01*
X238288300Y-105205265D01*
X238288300Y-105130200D01*
X238123400Y-104965300D01*
X237251200Y-104965300D01*
X237251200Y-104985300D01*
X237201200Y-104985300D01*
X237201200Y-104965300D01*
X237181200Y-104965300D01*
X237181200Y-104915300D01*
X237201200Y-104915300D01*
X237201200Y-104895300D01*
X237251200Y-104895300D01*
X237251200Y-104915300D01*
X238123400Y-104915300D01*
X238288300Y-104750400D01*
X238288300Y-104715170D01*
X238423700Y-104715170D01*
X238577405Y-104702913D01*
X238627747Y-104687323D01*
X238823700Y-104715170D01*
X239173700Y-104715170D01*
X239327405Y-104702913D01*
X239377747Y-104687323D01*
X239418556Y-104693122D01*
M02*
