G04 #@! TF.FileFunction,Legend,Bot*
%FSLAX46Y46*%
G04 Gerber Fmt 4.6, Leading zero omitted, Abs format (unit mm)*
G04 Created by KiCad (PCBNEW 4.0.6) date 05/08/17 07:10:38*
%MOMM*%
%LPD*%
G01*
G04 APERTURE LIST*
%ADD10C,0.100000*%
%ADD11C,0.113792*%
%ADD12C,0.127000*%
%ADD13C,0.304800*%
%ADD14C,0.101600*%
G04 APERTURE END LIST*
D10*
D11*
X211920833Y-131749140D02*
X212371260Y-131749140D01*
X212564300Y-132456953D02*
X211920833Y-132456953D01*
X211920833Y-131105673D01*
X212564300Y-131105673D01*
X213143420Y-132456953D02*
X213143420Y-131105673D01*
X213593847Y-132070873D01*
X214044274Y-131105673D01*
X214044274Y-132456953D01*
X214687740Y-131749140D02*
X215138167Y-131749140D01*
X215331207Y-132456953D02*
X214687740Y-132456953D01*
X214687740Y-131105673D01*
X215331207Y-131105673D01*
X216682487Y-132456953D02*
X216232061Y-131813487D01*
X215910327Y-132456953D02*
X215910327Y-131105673D01*
X216425101Y-131105673D01*
X216553794Y-131170020D01*
X216618141Y-131234367D01*
X216682487Y-131363060D01*
X216682487Y-131556100D01*
X216618141Y-131684793D01*
X216553794Y-131749140D01*
X216425101Y-131813487D01*
X215910327Y-131813487D01*
X217969421Y-131170020D02*
X217840727Y-131105673D01*
X217647687Y-131105673D01*
X217454647Y-131170020D01*
X217325954Y-131298713D01*
X217261607Y-131427407D01*
X217197261Y-131684793D01*
X217197261Y-131877833D01*
X217261607Y-132135220D01*
X217325954Y-132263913D01*
X217454647Y-132392607D01*
X217647687Y-132456953D01*
X217776381Y-132456953D01*
X217969421Y-132392607D01*
X218033767Y-132328260D01*
X218033767Y-131877833D01*
X217776381Y-131877833D01*
X218612887Y-131749140D02*
X219063314Y-131749140D01*
X219256354Y-132456953D02*
X218612887Y-132456953D01*
X218612887Y-131105673D01*
X219256354Y-131105673D01*
X221315448Y-131749140D02*
X220865021Y-131749140D01*
X220865021Y-132456953D02*
X220865021Y-131105673D01*
X221508488Y-131105673D01*
X221958915Y-132070873D02*
X222602381Y-132070873D01*
X221830221Y-132456953D02*
X222280648Y-131105673D01*
X222731075Y-132456953D01*
X223953661Y-132328260D02*
X223889315Y-132392607D01*
X223696275Y-132456953D01*
X223567581Y-132456953D01*
X223374541Y-132392607D01*
X223245848Y-132263913D01*
X223181501Y-132135220D01*
X223117155Y-131877833D01*
X223117155Y-131684793D01*
X223181501Y-131427407D01*
X223245848Y-131298713D01*
X223374541Y-131170020D01*
X223567581Y-131105673D01*
X223696275Y-131105673D01*
X223889315Y-131170020D01*
X223953661Y-131234367D01*
X224532781Y-131749140D02*
X224983208Y-131749140D01*
X225176248Y-132456953D02*
X224532781Y-132456953D01*
X224532781Y-131105673D01*
X225176248Y-131105673D01*
X227492729Y-132456953D02*
X226720569Y-132456953D01*
X227106649Y-132456953D02*
X227106649Y-131105673D01*
X226977955Y-131298713D01*
X226849262Y-131427407D01*
X226720569Y-131491753D01*
D10*
G36*
X235085500Y-105089900D02*
X234885500Y-105089900D01*
X234885500Y-104889900D01*
X235085500Y-104889900D01*
X235085500Y-105089900D01*
G37*
D12*
X237218700Y-103135300D02*
X237018700Y-103135300D01*
X237018700Y-103135300D02*
X237018700Y-104575300D01*
X237028700Y-105285300D02*
X237028700Y-107095300D01*
X237028700Y-107095300D02*
X237208700Y-107095300D01*
X240768700Y-103145300D02*
X240968700Y-103145300D01*
X240968700Y-103145300D02*
X240968700Y-103975300D01*
X240758700Y-107085300D02*
X240978700Y-107085300D01*
X240978700Y-107085300D02*
X240978700Y-105475300D01*
D13*
X237642709Y-102525300D02*
G75*
G03X237642709Y-102525300I-164009J0D01*
G01*
D12*
X237520322Y-102525300D02*
G75*
G03X237520322Y-102525300I-31622J0D01*
G01*
D14*
X236198048Y-107221686D02*
X236198048Y-106647162D01*
X234991548Y-106647162D01*
X235566071Y-107623852D02*
X235566071Y-108026019D01*
X236198048Y-108198376D02*
X236198048Y-107623852D01*
X234991548Y-107623852D01*
X234991548Y-108198376D01*
X236198048Y-108715447D02*
X234991548Y-108715447D01*
X234991548Y-109002709D01*
X235049000Y-109175066D01*
X235163905Y-109289971D01*
X235278810Y-109347423D01*
X235508619Y-109404875D01*
X235680976Y-109404875D01*
X235910786Y-109347423D01*
X236025690Y-109289971D01*
X236140595Y-109175066D01*
X236198048Y-109002709D01*
X236198048Y-108715447D01*
X236198048Y-110553923D02*
X236198048Y-109864495D01*
X236198048Y-110209209D02*
X234991548Y-110209209D01*
X235163905Y-110094304D01*
X235278810Y-109979399D01*
X235336262Y-109864495D01*
D12*
X224552005Y-114370948D02*
X224954171Y-115577448D01*
X225356338Y-114370948D01*
X226447933Y-115462543D02*
X226390481Y-115519995D01*
X226218124Y-115577448D01*
X226103219Y-115577448D01*
X225930862Y-115519995D01*
X225815957Y-115405090D01*
X225758505Y-115290186D01*
X225701053Y-115060376D01*
X225701053Y-114888019D01*
X225758505Y-114658210D01*
X225815957Y-114543305D01*
X225930862Y-114428400D01*
X226103219Y-114370948D01*
X226218124Y-114370948D01*
X226390481Y-114428400D01*
X226447933Y-114485852D01*
X227654433Y-115462543D02*
X227596981Y-115519995D01*
X227424624Y-115577448D01*
X227309719Y-115577448D01*
X227137362Y-115519995D01*
X227022457Y-115405090D01*
X226965005Y-115290186D01*
X226907553Y-115060376D01*
X226907553Y-114888019D01*
X226965005Y-114658210D01*
X227022457Y-114543305D01*
X227137362Y-114428400D01*
X227309719Y-114370948D01*
X227424624Y-114370948D01*
X227596981Y-114428400D01*
X227654433Y-114485852D01*
X227884243Y-115692352D02*
X228803481Y-115692352D01*
X229033291Y-114485852D02*
X229090743Y-114428400D01*
X229205648Y-114370948D01*
X229492910Y-114370948D01*
X229607814Y-114428400D01*
X229665267Y-114485852D01*
X229722719Y-114600757D01*
X229722719Y-114715662D01*
X229665267Y-114888019D01*
X228975838Y-115577448D01*
X229722719Y-115577448D01*
X229952529Y-115692352D02*
X230871767Y-115692352D01*
X231848457Y-115462543D02*
X231791005Y-115519995D01*
X231618648Y-115577448D01*
X231503743Y-115577448D01*
X231331386Y-115519995D01*
X231216481Y-115405090D01*
X231159029Y-115290186D01*
X231101577Y-115060376D01*
X231101577Y-114888019D01*
X231159029Y-114658210D01*
X231216481Y-114543305D01*
X231331386Y-114428400D01*
X231503743Y-114370948D01*
X231618648Y-114370948D01*
X231791005Y-114428400D01*
X231848457Y-114485852D01*
X232997505Y-115577448D02*
X232308077Y-115577448D01*
X232652791Y-115577448D02*
X232652791Y-114370948D01*
X232537886Y-114543305D01*
X232422981Y-114658210D01*
X232308077Y-114715662D01*
X248548005Y-114195948D02*
X248950171Y-115402448D01*
X249352338Y-114195948D01*
X250443933Y-115287543D02*
X250386481Y-115344995D01*
X250214124Y-115402448D01*
X250099219Y-115402448D01*
X249926862Y-115344995D01*
X249811957Y-115230090D01*
X249754505Y-115115186D01*
X249697053Y-114885376D01*
X249697053Y-114713019D01*
X249754505Y-114483210D01*
X249811957Y-114368305D01*
X249926862Y-114253400D01*
X250099219Y-114195948D01*
X250214124Y-114195948D01*
X250386481Y-114253400D01*
X250443933Y-114310852D01*
X251650433Y-115287543D02*
X251592981Y-115344995D01*
X251420624Y-115402448D01*
X251305719Y-115402448D01*
X251133362Y-115344995D01*
X251018457Y-115230090D01*
X250961005Y-115115186D01*
X250903553Y-114885376D01*
X250903553Y-114713019D01*
X250961005Y-114483210D01*
X251018457Y-114368305D01*
X251133362Y-114253400D01*
X251305719Y-114195948D01*
X251420624Y-114195948D01*
X251592981Y-114253400D01*
X251650433Y-114310852D01*
X251880243Y-115517352D02*
X252799481Y-115517352D01*
X253718719Y-115402448D02*
X253029291Y-115402448D01*
X253374005Y-115402448D02*
X253374005Y-114195948D01*
X253259100Y-114368305D01*
X253144195Y-114483210D01*
X253029291Y-114540662D01*
X253948529Y-115517352D02*
X254867767Y-115517352D01*
X255844457Y-115287543D02*
X255787005Y-115344995D01*
X255614648Y-115402448D01*
X255499743Y-115402448D01*
X255327386Y-115344995D01*
X255212481Y-115230090D01*
X255155029Y-115115186D01*
X255097577Y-114885376D01*
X255097577Y-114713019D01*
X255155029Y-114483210D01*
X255212481Y-114368305D01*
X255327386Y-114253400D01*
X255499743Y-114195948D01*
X255614648Y-114195948D01*
X255787005Y-114253400D01*
X255844457Y-114310852D01*
X256993505Y-115402448D02*
X256304077Y-115402448D01*
X256648791Y-115402448D02*
X256648791Y-114195948D01*
X256533886Y-114368305D01*
X256418981Y-114483210D01*
X256304077Y-114540662D01*
X248545005Y-90379948D02*
X248947171Y-91586448D01*
X249349338Y-90379948D01*
X250440933Y-91471543D02*
X250383481Y-91528995D01*
X250211124Y-91586448D01*
X250096219Y-91586448D01*
X249923862Y-91528995D01*
X249808957Y-91414090D01*
X249751505Y-91299186D01*
X249694053Y-91069376D01*
X249694053Y-90897019D01*
X249751505Y-90667210D01*
X249808957Y-90552305D01*
X249923862Y-90437400D01*
X250096219Y-90379948D01*
X250211124Y-90379948D01*
X250383481Y-90437400D01*
X250440933Y-90494852D01*
X251647433Y-91471543D02*
X251589981Y-91528995D01*
X251417624Y-91586448D01*
X251302719Y-91586448D01*
X251130362Y-91528995D01*
X251015457Y-91414090D01*
X250958005Y-91299186D01*
X250900553Y-91069376D01*
X250900553Y-90897019D01*
X250958005Y-90667210D01*
X251015457Y-90552305D01*
X251130362Y-90437400D01*
X251302719Y-90379948D01*
X251417624Y-90379948D01*
X251589981Y-90437400D01*
X251647433Y-90494852D01*
X251877243Y-91701352D02*
X252796481Y-91701352D01*
X252968838Y-90379948D02*
X253715719Y-90379948D01*
X253313552Y-90839567D01*
X253485910Y-90839567D01*
X253600814Y-90897019D01*
X253658267Y-90954471D01*
X253715719Y-91069376D01*
X253715719Y-91356638D01*
X253658267Y-91471543D01*
X253600814Y-91528995D01*
X253485910Y-91586448D01*
X253141195Y-91586448D01*
X253026291Y-91528995D01*
X252968838Y-91471543D01*
X253945529Y-91701352D02*
X254864767Y-91701352D01*
X255841457Y-91471543D02*
X255784005Y-91528995D01*
X255611648Y-91586448D01*
X255496743Y-91586448D01*
X255324386Y-91528995D01*
X255209481Y-91414090D01*
X255152029Y-91299186D01*
X255094577Y-91069376D01*
X255094577Y-90897019D01*
X255152029Y-90667210D01*
X255209481Y-90552305D01*
X255324386Y-90437400D01*
X255496743Y-90379948D01*
X255611648Y-90379948D01*
X255784005Y-90437400D01*
X255841457Y-90494852D01*
X256990505Y-91586448D02*
X256301077Y-91586448D01*
X256645791Y-91586448D02*
X256645791Y-90379948D01*
X256530886Y-90552305D01*
X256415981Y-90667210D01*
X256301077Y-90724662D01*
X224624005Y-90322948D02*
X225026171Y-91529448D01*
X225428338Y-90322948D01*
X226519933Y-91414543D02*
X226462481Y-91471995D01*
X226290124Y-91529448D01*
X226175219Y-91529448D01*
X226002862Y-91471995D01*
X225887957Y-91357090D01*
X225830505Y-91242186D01*
X225773053Y-91012376D01*
X225773053Y-90840019D01*
X225830505Y-90610210D01*
X225887957Y-90495305D01*
X226002862Y-90380400D01*
X226175219Y-90322948D01*
X226290124Y-90322948D01*
X226462481Y-90380400D01*
X226519933Y-90437852D01*
X227726433Y-91414543D02*
X227668981Y-91471995D01*
X227496624Y-91529448D01*
X227381719Y-91529448D01*
X227209362Y-91471995D01*
X227094457Y-91357090D01*
X227037005Y-91242186D01*
X226979553Y-91012376D01*
X226979553Y-90840019D01*
X227037005Y-90610210D01*
X227094457Y-90495305D01*
X227209362Y-90380400D01*
X227381719Y-90322948D01*
X227496624Y-90322948D01*
X227668981Y-90380400D01*
X227726433Y-90437852D01*
X227956243Y-91644352D02*
X228875481Y-91644352D01*
X229679814Y-90725114D02*
X229679814Y-91529448D01*
X229392552Y-90265495D02*
X229105291Y-91127281D01*
X229852171Y-91127281D01*
X230024529Y-91644352D02*
X230943767Y-91644352D01*
X231920457Y-91414543D02*
X231863005Y-91471995D01*
X231690648Y-91529448D01*
X231575743Y-91529448D01*
X231403386Y-91471995D01*
X231288481Y-91357090D01*
X231231029Y-91242186D01*
X231173577Y-91012376D01*
X231173577Y-90840019D01*
X231231029Y-90610210D01*
X231288481Y-90495305D01*
X231403386Y-90380400D01*
X231575743Y-90322948D01*
X231690648Y-90322948D01*
X231863005Y-90380400D01*
X231920457Y-90437852D01*
X233069505Y-91529448D02*
X232380077Y-91529448D01*
X232724791Y-91529448D02*
X232724791Y-90322948D01*
X232609886Y-90495305D01*
X232494981Y-90610210D01*
X232380077Y-90667662D01*
X245379338Y-110400400D02*
X245264433Y-110342948D01*
X245092076Y-110342948D01*
X244919719Y-110400400D01*
X244804814Y-110515305D01*
X244747362Y-110630210D01*
X244689910Y-110860019D01*
X244689910Y-111032376D01*
X244747362Y-111262186D01*
X244804814Y-111377090D01*
X244919719Y-111491995D01*
X245092076Y-111549448D01*
X245206981Y-111549448D01*
X245379338Y-111491995D01*
X245436790Y-111434543D01*
X245436790Y-111032376D01*
X245206981Y-111032376D01*
X245953862Y-111549448D02*
X245953862Y-110342948D01*
X246643290Y-111549448D01*
X246643290Y-110342948D01*
X247217814Y-111549448D02*
X247217814Y-110342948D01*
X247505076Y-110342948D01*
X247677433Y-110400400D01*
X247792338Y-110515305D01*
X247849790Y-110630210D01*
X247907242Y-110860019D01*
X247907242Y-111032376D01*
X247849790Y-111262186D01*
X247792338Y-111377090D01*
X247677433Y-111491995D01*
X247505076Y-111549448D01*
X247217814Y-111549448D01*
X248137052Y-111664352D02*
X249056290Y-111664352D01*
X249286100Y-110457852D02*
X249343552Y-110400400D01*
X249458457Y-110342948D01*
X249745719Y-110342948D01*
X249860623Y-110400400D01*
X249918076Y-110457852D01*
X249975528Y-110572757D01*
X249975528Y-110687662D01*
X249918076Y-110860019D01*
X249228647Y-111549448D01*
X249975528Y-111549448D01*
X250205338Y-111664352D02*
X251124576Y-111664352D01*
X252101266Y-111434543D02*
X252043814Y-111491995D01*
X251871457Y-111549448D01*
X251756552Y-111549448D01*
X251584195Y-111491995D01*
X251469290Y-111377090D01*
X251411838Y-111262186D01*
X251354386Y-111032376D01*
X251354386Y-110860019D01*
X251411838Y-110630210D01*
X251469290Y-110515305D01*
X251584195Y-110400400D01*
X251756552Y-110342948D01*
X251871457Y-110342948D01*
X252043814Y-110400400D01*
X252101266Y-110457852D01*
X253250314Y-111549448D02*
X252560886Y-111549448D01*
X252905600Y-111549448D02*
X252905600Y-110342948D01*
X252790695Y-110515305D01*
X252675790Y-110630210D01*
X252560886Y-110687662D01*
X229319338Y-110428400D02*
X229204433Y-110370948D01*
X229032076Y-110370948D01*
X228859719Y-110428400D01*
X228744814Y-110543305D01*
X228687362Y-110658210D01*
X228629910Y-110888019D01*
X228629910Y-111060376D01*
X228687362Y-111290186D01*
X228744814Y-111405090D01*
X228859719Y-111519995D01*
X229032076Y-111577448D01*
X229146981Y-111577448D01*
X229319338Y-111519995D01*
X229376790Y-111462543D01*
X229376790Y-111060376D01*
X229146981Y-111060376D01*
X229893862Y-111577448D02*
X229893862Y-110370948D01*
X230583290Y-111577448D01*
X230583290Y-110370948D01*
X231157814Y-111577448D02*
X231157814Y-110370948D01*
X231445076Y-110370948D01*
X231617433Y-110428400D01*
X231732338Y-110543305D01*
X231789790Y-110658210D01*
X231847242Y-110888019D01*
X231847242Y-111060376D01*
X231789790Y-111290186D01*
X231732338Y-111405090D01*
X231617433Y-111519995D01*
X231445076Y-111577448D01*
X231157814Y-111577448D01*
X232077052Y-111692352D02*
X232996290Y-111692352D01*
X233915528Y-111577448D02*
X233226100Y-111577448D01*
X233570814Y-111577448D02*
X233570814Y-110370948D01*
X233455909Y-110543305D01*
X233341004Y-110658210D01*
X233226100Y-110715662D01*
X234145338Y-111692352D02*
X235064576Y-111692352D01*
X236041266Y-111462543D02*
X235983814Y-111519995D01*
X235811457Y-111577448D01*
X235696552Y-111577448D01*
X235524195Y-111519995D01*
X235409290Y-111405090D01*
X235351838Y-111290186D01*
X235294386Y-111060376D01*
X235294386Y-110888019D01*
X235351838Y-110658210D01*
X235409290Y-110543305D01*
X235524195Y-110428400D01*
X235696552Y-110370948D01*
X235811457Y-110370948D01*
X235983814Y-110428400D01*
X236041266Y-110485852D01*
X237190314Y-111577448D02*
X236500886Y-111577448D01*
X236845600Y-111577448D02*
X236845600Y-110370948D01*
X236730695Y-110543305D01*
X236615790Y-110658210D01*
X236500886Y-110715662D01*
X245346338Y-94465400D02*
X245231433Y-94407948D01*
X245059076Y-94407948D01*
X244886719Y-94465400D01*
X244771814Y-94580305D01*
X244714362Y-94695210D01*
X244656910Y-94925019D01*
X244656910Y-95097376D01*
X244714362Y-95327186D01*
X244771814Y-95442090D01*
X244886719Y-95556995D01*
X245059076Y-95614448D01*
X245173981Y-95614448D01*
X245346338Y-95556995D01*
X245403790Y-95499543D01*
X245403790Y-95097376D01*
X245173981Y-95097376D01*
X245920862Y-95614448D02*
X245920862Y-94407948D01*
X246610290Y-95614448D01*
X246610290Y-94407948D01*
X247184814Y-95614448D02*
X247184814Y-94407948D01*
X247472076Y-94407948D01*
X247644433Y-94465400D01*
X247759338Y-94580305D01*
X247816790Y-94695210D01*
X247874242Y-94925019D01*
X247874242Y-95097376D01*
X247816790Y-95327186D01*
X247759338Y-95442090D01*
X247644433Y-95556995D01*
X247472076Y-95614448D01*
X247184814Y-95614448D01*
X248104052Y-95729352D02*
X249023290Y-95729352D01*
X249195647Y-94407948D02*
X249942528Y-94407948D01*
X249540361Y-94867567D01*
X249712719Y-94867567D01*
X249827623Y-94925019D01*
X249885076Y-94982471D01*
X249942528Y-95097376D01*
X249942528Y-95384638D01*
X249885076Y-95499543D01*
X249827623Y-95556995D01*
X249712719Y-95614448D01*
X249368004Y-95614448D01*
X249253100Y-95556995D01*
X249195647Y-95499543D01*
X250172338Y-95729352D02*
X251091576Y-95729352D01*
X252068266Y-95499543D02*
X252010814Y-95556995D01*
X251838457Y-95614448D01*
X251723552Y-95614448D01*
X251551195Y-95556995D01*
X251436290Y-95442090D01*
X251378838Y-95327186D01*
X251321386Y-95097376D01*
X251321386Y-94925019D01*
X251378838Y-94695210D01*
X251436290Y-94580305D01*
X251551195Y-94465400D01*
X251723552Y-94407948D01*
X251838457Y-94407948D01*
X252010814Y-94465400D01*
X252068266Y-94522852D01*
X253217314Y-95614448D02*
X252527886Y-95614448D01*
X252872600Y-95614448D02*
X252872600Y-94407948D01*
X252757695Y-94580305D01*
X252642790Y-94695210D01*
X252527886Y-94752662D01*
X229420338Y-94426400D02*
X229305433Y-94368948D01*
X229133076Y-94368948D01*
X228960719Y-94426400D01*
X228845814Y-94541305D01*
X228788362Y-94656210D01*
X228730910Y-94886019D01*
X228730910Y-95058376D01*
X228788362Y-95288186D01*
X228845814Y-95403090D01*
X228960719Y-95517995D01*
X229133076Y-95575448D01*
X229247981Y-95575448D01*
X229420338Y-95517995D01*
X229477790Y-95460543D01*
X229477790Y-95058376D01*
X229247981Y-95058376D01*
X229994862Y-95575448D02*
X229994862Y-94368948D01*
X230684290Y-95575448D01*
X230684290Y-94368948D01*
X231258814Y-95575448D02*
X231258814Y-94368948D01*
X231546076Y-94368948D01*
X231718433Y-94426400D01*
X231833338Y-94541305D01*
X231890790Y-94656210D01*
X231948242Y-94886019D01*
X231948242Y-95058376D01*
X231890790Y-95288186D01*
X231833338Y-95403090D01*
X231718433Y-95517995D01*
X231546076Y-95575448D01*
X231258814Y-95575448D01*
X232178052Y-95690352D02*
X233097290Y-95690352D01*
X233901623Y-94771114D02*
X233901623Y-95575448D01*
X233614361Y-94311495D02*
X233327100Y-95173281D01*
X234073980Y-95173281D01*
X234246338Y-95690352D02*
X235165576Y-95690352D01*
X236142266Y-95460543D02*
X236084814Y-95517995D01*
X235912457Y-95575448D01*
X235797552Y-95575448D01*
X235625195Y-95517995D01*
X235510290Y-95403090D01*
X235452838Y-95288186D01*
X235395386Y-95058376D01*
X235395386Y-94886019D01*
X235452838Y-94656210D01*
X235510290Y-94541305D01*
X235625195Y-94426400D01*
X235797552Y-94368948D01*
X235912457Y-94368948D01*
X236084814Y-94426400D01*
X236142266Y-94483852D01*
X237291314Y-95575448D02*
X236601886Y-95575448D01*
X236946600Y-95575448D02*
X236946600Y-94368948D01*
X236831695Y-94541305D01*
X236716790Y-94656210D01*
X236601886Y-94713662D01*
X257461790Y-123314543D02*
X257404338Y-123371995D01*
X257231981Y-123429448D01*
X257117076Y-123429448D01*
X256944719Y-123371995D01*
X256829814Y-123257090D01*
X256772362Y-123142186D01*
X256714910Y-122912376D01*
X256714910Y-122740019D01*
X256772362Y-122510210D01*
X256829814Y-122395305D01*
X256944719Y-122280400D01*
X257117076Y-122222948D01*
X257231981Y-122222948D01*
X257404338Y-122280400D01*
X257461790Y-122337852D01*
X257921410Y-123084733D02*
X258495933Y-123084733D01*
X257806505Y-123429448D02*
X258208671Y-122222948D01*
X258610838Y-123429448D01*
X259013005Y-123429448D02*
X259013005Y-122222948D01*
X259702433Y-123429448D01*
X259702433Y-122222948D01*
X260851481Y-123429448D02*
X260276957Y-123429448D01*
X260276957Y-122222948D01*
X260966385Y-123544352D02*
X261885623Y-123544352D01*
X262115433Y-122337852D02*
X262172885Y-122280400D01*
X262287790Y-122222948D01*
X262575052Y-122222948D01*
X262689956Y-122280400D01*
X262747409Y-122337852D01*
X262804861Y-122452757D01*
X262804861Y-122567662D01*
X262747409Y-122740019D01*
X262057980Y-123429448D01*
X262804861Y-123429448D01*
X263034671Y-123544352D02*
X263953909Y-123544352D01*
X264930599Y-123314543D02*
X264873147Y-123371995D01*
X264700790Y-123429448D01*
X264585885Y-123429448D01*
X264413528Y-123371995D01*
X264298623Y-123257090D01*
X264241171Y-123142186D01*
X264183719Y-122912376D01*
X264183719Y-122740019D01*
X264241171Y-122510210D01*
X264298623Y-122395305D01*
X264413528Y-122280400D01*
X264585885Y-122222948D01*
X264700790Y-122222948D01*
X264873147Y-122280400D01*
X264930599Y-122337852D01*
X266079647Y-123429448D02*
X265390219Y-123429448D01*
X265734933Y-123429448D02*
X265734933Y-122222948D01*
X265620028Y-122395305D01*
X265505123Y-122510210D01*
X265390219Y-122567662D01*
X217335790Y-123224543D02*
X217278338Y-123281995D01*
X217105981Y-123339448D01*
X216991076Y-123339448D01*
X216818719Y-123281995D01*
X216703814Y-123167090D01*
X216646362Y-123052186D01*
X216588910Y-122822376D01*
X216588910Y-122650019D01*
X216646362Y-122420210D01*
X216703814Y-122305305D01*
X216818719Y-122190400D01*
X216991076Y-122132948D01*
X217105981Y-122132948D01*
X217278338Y-122190400D01*
X217335790Y-122247852D01*
X217795410Y-122994733D02*
X218369933Y-122994733D01*
X217680505Y-123339448D02*
X218082671Y-122132948D01*
X218484838Y-123339448D01*
X218887005Y-123339448D02*
X218887005Y-122132948D01*
X219576433Y-123339448D01*
X219576433Y-122132948D01*
X220725481Y-123339448D02*
X220150957Y-123339448D01*
X220150957Y-122132948D01*
X220840385Y-123454352D02*
X221759623Y-123454352D01*
X222678861Y-123339448D02*
X221989433Y-123339448D01*
X222334147Y-123339448D02*
X222334147Y-122132948D01*
X222219242Y-122305305D01*
X222104337Y-122420210D01*
X221989433Y-122477662D01*
X222908671Y-123454352D02*
X223827909Y-123454352D01*
X224804599Y-123224543D02*
X224747147Y-123281995D01*
X224574790Y-123339448D01*
X224459885Y-123339448D01*
X224287528Y-123281995D01*
X224172623Y-123167090D01*
X224115171Y-123052186D01*
X224057719Y-122822376D01*
X224057719Y-122650019D01*
X224115171Y-122420210D01*
X224172623Y-122305305D01*
X224287528Y-122190400D01*
X224459885Y-122132948D01*
X224574790Y-122132948D01*
X224747147Y-122190400D01*
X224804599Y-122247852D01*
X225953647Y-123339448D02*
X225264219Y-123339448D01*
X225608933Y-123339448D02*
X225608933Y-122132948D01*
X225494028Y-122305305D01*
X225379123Y-122420210D01*
X225264219Y-122477662D01*
X257375790Y-83342543D02*
X257318338Y-83399995D01*
X257145981Y-83457448D01*
X257031076Y-83457448D01*
X256858719Y-83399995D01*
X256743814Y-83285090D01*
X256686362Y-83170186D01*
X256628910Y-82940376D01*
X256628910Y-82768019D01*
X256686362Y-82538210D01*
X256743814Y-82423305D01*
X256858719Y-82308400D01*
X257031076Y-82250948D01*
X257145981Y-82250948D01*
X257318338Y-82308400D01*
X257375790Y-82365852D01*
X257835410Y-83112733D02*
X258409933Y-83112733D01*
X257720505Y-83457448D02*
X258122671Y-82250948D01*
X258524838Y-83457448D01*
X258927005Y-83457448D02*
X258927005Y-82250948D01*
X259616433Y-83457448D01*
X259616433Y-82250948D01*
X260765481Y-83457448D02*
X260190957Y-83457448D01*
X260190957Y-82250948D01*
X260880385Y-83572352D02*
X261799623Y-83572352D01*
X261971980Y-82250948D02*
X262718861Y-82250948D01*
X262316694Y-82710567D01*
X262489052Y-82710567D01*
X262603956Y-82768019D01*
X262661409Y-82825471D01*
X262718861Y-82940376D01*
X262718861Y-83227638D01*
X262661409Y-83342543D01*
X262603956Y-83399995D01*
X262489052Y-83457448D01*
X262144337Y-83457448D01*
X262029433Y-83399995D01*
X261971980Y-83342543D01*
X262948671Y-83572352D02*
X263867909Y-83572352D01*
X264844599Y-83342543D02*
X264787147Y-83399995D01*
X264614790Y-83457448D01*
X264499885Y-83457448D01*
X264327528Y-83399995D01*
X264212623Y-83285090D01*
X264155171Y-83170186D01*
X264097719Y-82940376D01*
X264097719Y-82768019D01*
X264155171Y-82538210D01*
X264212623Y-82423305D01*
X264327528Y-82308400D01*
X264499885Y-82250948D01*
X264614790Y-82250948D01*
X264787147Y-82308400D01*
X264844599Y-82365852D01*
X265993647Y-83457448D02*
X265304219Y-83457448D01*
X265648933Y-83457448D02*
X265648933Y-82250948D01*
X265534028Y-82423305D01*
X265419123Y-82538210D01*
X265304219Y-82595662D01*
X217386790Y-83291543D02*
X217329338Y-83348995D01*
X217156981Y-83406448D01*
X217042076Y-83406448D01*
X216869719Y-83348995D01*
X216754814Y-83234090D01*
X216697362Y-83119186D01*
X216639910Y-82889376D01*
X216639910Y-82717019D01*
X216697362Y-82487210D01*
X216754814Y-82372305D01*
X216869719Y-82257400D01*
X217042076Y-82199948D01*
X217156981Y-82199948D01*
X217329338Y-82257400D01*
X217386790Y-82314852D01*
X217846410Y-83061733D02*
X218420933Y-83061733D01*
X217731505Y-83406448D02*
X218133671Y-82199948D01*
X218535838Y-83406448D01*
X218938005Y-83406448D02*
X218938005Y-82199948D01*
X219627433Y-83406448D01*
X219627433Y-82199948D01*
X220776481Y-83406448D02*
X220201957Y-83406448D01*
X220201957Y-82199948D01*
X220891385Y-83521352D02*
X221810623Y-83521352D01*
X222614956Y-82602114D02*
X222614956Y-83406448D01*
X222327694Y-82142495D02*
X222040433Y-83004281D01*
X222787313Y-83004281D01*
X222959671Y-83521352D02*
X223878909Y-83521352D01*
X224855599Y-83291543D02*
X224798147Y-83348995D01*
X224625790Y-83406448D01*
X224510885Y-83406448D01*
X224338528Y-83348995D01*
X224223623Y-83234090D01*
X224166171Y-83119186D01*
X224108719Y-82889376D01*
X224108719Y-82717019D01*
X224166171Y-82487210D01*
X224223623Y-82372305D01*
X224338528Y-82257400D01*
X224510885Y-82199948D01*
X224625790Y-82199948D01*
X224798147Y-82257400D01*
X224855599Y-82314852D01*
X226004647Y-83406448D02*
X225315219Y-83406448D01*
X225659933Y-83406448D02*
X225659933Y-82199948D01*
X225545028Y-82372305D01*
X225430123Y-82487210D01*
X225315219Y-82544662D01*
X253467790Y-119383543D02*
X253410338Y-119440995D01*
X253237981Y-119498448D01*
X253123076Y-119498448D01*
X252950719Y-119440995D01*
X252835814Y-119326090D01*
X252778362Y-119211186D01*
X252720910Y-118981376D01*
X252720910Y-118809019D01*
X252778362Y-118579210D01*
X252835814Y-118464305D01*
X252950719Y-118349400D01*
X253123076Y-118291948D01*
X253237981Y-118291948D01*
X253410338Y-118349400D01*
X253467790Y-118406852D01*
X253927410Y-119153733D02*
X254501933Y-119153733D01*
X253812505Y-119498448D02*
X254214671Y-118291948D01*
X254616838Y-119498448D01*
X255019005Y-119498448D02*
X255019005Y-118291948D01*
X255708433Y-119498448D01*
X255708433Y-118291948D01*
X256282957Y-119498448D02*
X256282957Y-118291948D01*
X256282957Y-118866471D02*
X256972385Y-118866471D01*
X256972385Y-119498448D02*
X256972385Y-118291948D01*
X257259647Y-119613352D02*
X258178885Y-119613352D01*
X258408695Y-118406852D02*
X258466147Y-118349400D01*
X258581052Y-118291948D01*
X258868314Y-118291948D01*
X258983218Y-118349400D01*
X259040671Y-118406852D01*
X259098123Y-118521757D01*
X259098123Y-118636662D01*
X259040671Y-118809019D01*
X258351242Y-119498448D01*
X259098123Y-119498448D01*
X259327933Y-119613352D02*
X260247171Y-119613352D01*
X261223861Y-119383543D02*
X261166409Y-119440995D01*
X260994052Y-119498448D01*
X260879147Y-119498448D01*
X260706790Y-119440995D01*
X260591885Y-119326090D01*
X260534433Y-119211186D01*
X260476981Y-118981376D01*
X260476981Y-118809019D01*
X260534433Y-118579210D01*
X260591885Y-118464305D01*
X260706790Y-118349400D01*
X260879147Y-118291948D01*
X260994052Y-118291948D01*
X261166409Y-118349400D01*
X261223861Y-118406852D01*
X262372909Y-119498448D02*
X261683481Y-119498448D01*
X262028195Y-119498448D02*
X262028195Y-118291948D01*
X261913290Y-118464305D01*
X261798385Y-118579210D01*
X261683481Y-118636662D01*
X221505790Y-119479543D02*
X221448338Y-119536995D01*
X221275981Y-119594448D01*
X221161076Y-119594448D01*
X220988719Y-119536995D01*
X220873814Y-119422090D01*
X220816362Y-119307186D01*
X220758910Y-119077376D01*
X220758910Y-118905019D01*
X220816362Y-118675210D01*
X220873814Y-118560305D01*
X220988719Y-118445400D01*
X221161076Y-118387948D01*
X221275981Y-118387948D01*
X221448338Y-118445400D01*
X221505790Y-118502852D01*
X221965410Y-119249733D02*
X222539933Y-119249733D01*
X221850505Y-119594448D02*
X222252671Y-118387948D01*
X222654838Y-119594448D01*
X223057005Y-119594448D02*
X223057005Y-118387948D01*
X223746433Y-119594448D01*
X223746433Y-118387948D01*
X224320957Y-119594448D02*
X224320957Y-118387948D01*
X224320957Y-118962471D02*
X225010385Y-118962471D01*
X225010385Y-119594448D02*
X225010385Y-118387948D01*
X225297647Y-119709352D02*
X226216885Y-119709352D01*
X227136123Y-119594448D02*
X226446695Y-119594448D01*
X226791409Y-119594448D02*
X226791409Y-118387948D01*
X226676504Y-118560305D01*
X226561599Y-118675210D01*
X226446695Y-118732662D01*
X227365933Y-119709352D02*
X228285171Y-119709352D01*
X229261861Y-119479543D02*
X229204409Y-119536995D01*
X229032052Y-119594448D01*
X228917147Y-119594448D01*
X228744790Y-119536995D01*
X228629885Y-119422090D01*
X228572433Y-119307186D01*
X228514981Y-119077376D01*
X228514981Y-118905019D01*
X228572433Y-118675210D01*
X228629885Y-118560305D01*
X228744790Y-118445400D01*
X228917147Y-118387948D01*
X229032052Y-118387948D01*
X229204409Y-118445400D01*
X229261861Y-118502852D01*
X230410909Y-119594448D02*
X229721481Y-119594448D01*
X230066195Y-119594448D02*
X230066195Y-118387948D01*
X229951290Y-118560305D01*
X229836385Y-118675210D01*
X229721481Y-118732662D01*
X253373790Y-87469543D02*
X253316338Y-87526995D01*
X253143981Y-87584448D01*
X253029076Y-87584448D01*
X252856719Y-87526995D01*
X252741814Y-87412090D01*
X252684362Y-87297186D01*
X252626910Y-87067376D01*
X252626910Y-86895019D01*
X252684362Y-86665210D01*
X252741814Y-86550305D01*
X252856719Y-86435400D01*
X253029076Y-86377948D01*
X253143981Y-86377948D01*
X253316338Y-86435400D01*
X253373790Y-86492852D01*
X253833410Y-87239733D02*
X254407933Y-87239733D01*
X253718505Y-87584448D02*
X254120671Y-86377948D01*
X254522838Y-87584448D01*
X254925005Y-87584448D02*
X254925005Y-86377948D01*
X255614433Y-87584448D01*
X255614433Y-86377948D01*
X256188957Y-87584448D02*
X256188957Y-86377948D01*
X256188957Y-86952471D02*
X256878385Y-86952471D01*
X256878385Y-87584448D02*
X256878385Y-86377948D01*
X257165647Y-87699352D02*
X258084885Y-87699352D01*
X258257242Y-86377948D02*
X259004123Y-86377948D01*
X258601956Y-86837567D01*
X258774314Y-86837567D01*
X258889218Y-86895019D01*
X258946671Y-86952471D01*
X259004123Y-87067376D01*
X259004123Y-87354638D01*
X258946671Y-87469543D01*
X258889218Y-87526995D01*
X258774314Y-87584448D01*
X258429599Y-87584448D01*
X258314695Y-87526995D01*
X258257242Y-87469543D01*
X259233933Y-87699352D02*
X260153171Y-87699352D01*
X261129861Y-87469543D02*
X261072409Y-87526995D01*
X260900052Y-87584448D01*
X260785147Y-87584448D01*
X260612790Y-87526995D01*
X260497885Y-87412090D01*
X260440433Y-87297186D01*
X260382981Y-87067376D01*
X260382981Y-86895019D01*
X260440433Y-86665210D01*
X260497885Y-86550305D01*
X260612790Y-86435400D01*
X260785147Y-86377948D01*
X260900052Y-86377948D01*
X261072409Y-86435400D01*
X261129861Y-86492852D01*
X262278909Y-87584448D02*
X261589481Y-87584448D01*
X261934195Y-87584448D02*
X261934195Y-86377948D01*
X261819290Y-86550305D01*
X261704385Y-86665210D01*
X261589481Y-86722662D01*
X221485790Y-87408543D02*
X221428338Y-87465995D01*
X221255981Y-87523448D01*
X221141076Y-87523448D01*
X220968719Y-87465995D01*
X220853814Y-87351090D01*
X220796362Y-87236186D01*
X220738910Y-87006376D01*
X220738910Y-86834019D01*
X220796362Y-86604210D01*
X220853814Y-86489305D01*
X220968719Y-86374400D01*
X221141076Y-86316948D01*
X221255981Y-86316948D01*
X221428338Y-86374400D01*
X221485790Y-86431852D01*
X221945410Y-87178733D02*
X222519933Y-87178733D01*
X221830505Y-87523448D02*
X222232671Y-86316948D01*
X222634838Y-87523448D01*
X223037005Y-87523448D02*
X223037005Y-86316948D01*
X223726433Y-87523448D01*
X223726433Y-86316948D01*
X224300957Y-87523448D02*
X224300957Y-86316948D01*
X224300957Y-86891471D02*
X224990385Y-86891471D01*
X224990385Y-87523448D02*
X224990385Y-86316948D01*
X225277647Y-87638352D02*
X226196885Y-87638352D01*
X227001218Y-86719114D02*
X227001218Y-87523448D01*
X226713956Y-86259495D02*
X226426695Y-87121281D01*
X227173575Y-87121281D01*
X227345933Y-87638352D02*
X228265171Y-87638352D01*
X229241861Y-87408543D02*
X229184409Y-87465995D01*
X229012052Y-87523448D01*
X228897147Y-87523448D01*
X228724790Y-87465995D01*
X228609885Y-87351090D01*
X228552433Y-87236186D01*
X228494981Y-87006376D01*
X228494981Y-86834019D01*
X228552433Y-86604210D01*
X228609885Y-86489305D01*
X228724790Y-86374400D01*
X228897147Y-86316948D01*
X229012052Y-86316948D01*
X229184409Y-86374400D01*
X229241861Y-86431852D01*
X230390909Y-87523448D02*
X229701481Y-87523448D01*
X230046195Y-87523448D02*
X230046195Y-86316948D01*
X229931290Y-86489305D01*
X229816385Y-86604210D01*
X229701481Y-86661662D01*
D14*
X235534748Y-102342562D02*
X236511438Y-102342562D01*
X236626343Y-102400014D01*
X236683795Y-102457467D01*
X236741248Y-102572371D01*
X236741248Y-102802181D01*
X236683795Y-102917086D01*
X236626343Y-102974538D01*
X236511438Y-103031990D01*
X235534748Y-103031990D01*
X235649652Y-103549062D02*
X235592200Y-103606514D01*
X235534748Y-103721419D01*
X235534748Y-104008681D01*
X235592200Y-104123585D01*
X235649652Y-104181038D01*
X235764557Y-104238490D01*
X235879462Y-104238490D01*
X236051819Y-104181038D01*
X236741248Y-103491609D01*
X236741248Y-104238490D01*
X241314748Y-101980205D02*
X242521248Y-102382371D01*
X241314748Y-102784538D01*
X242406343Y-103876133D02*
X242463795Y-103818681D01*
X242521248Y-103646324D01*
X242521248Y-103531419D01*
X242463795Y-103359062D01*
X242348890Y-103244157D01*
X242233986Y-103186705D01*
X242004176Y-103129253D01*
X241831819Y-103129253D01*
X241602010Y-103186705D01*
X241487105Y-103244157D01*
X241372200Y-103359062D01*
X241314748Y-103531419D01*
X241314748Y-103646324D01*
X241372200Y-103818681D01*
X241429652Y-103876133D01*
X242521248Y-104393205D02*
X241314748Y-104393205D01*
X242521248Y-105082633D01*
X241314748Y-105082633D01*
X242521248Y-106231681D02*
X242521248Y-105657157D01*
X241314748Y-105657157D01*
X241716914Y-107150918D02*
X242521248Y-107150918D01*
X241257295Y-106863656D02*
X242119081Y-106576395D01*
X242119081Y-107323275D01*
X241314748Y-108012704D02*
X241314748Y-108127609D01*
X241372200Y-108242514D01*
X241429652Y-108299966D01*
X241544557Y-108357419D01*
X241774367Y-108414871D01*
X242061629Y-108414871D01*
X242291438Y-108357419D01*
X242406343Y-108299966D01*
X242463795Y-108242514D01*
X242521248Y-108127609D01*
X242521248Y-108012704D01*
X242463795Y-107897800D01*
X242406343Y-107840347D01*
X242291438Y-107782895D01*
X242061629Y-107725443D01*
X241774367Y-107725443D01*
X241544557Y-107782895D01*
X241429652Y-107840347D01*
X241372200Y-107897800D01*
X241314748Y-108012704D01*
X242521248Y-109563919D02*
X242521248Y-108874491D01*
X242521248Y-109219205D02*
X241314748Y-109219205D01*
X241487105Y-109104300D01*
X241602010Y-108989395D01*
X241659462Y-108874491D01*
X241314748Y-110310800D02*
X241314748Y-110425705D01*
X241372200Y-110540610D01*
X241429652Y-110598062D01*
X241544557Y-110655515D01*
X241774367Y-110712967D01*
X242061629Y-110712967D01*
X242291438Y-110655515D01*
X242406343Y-110598062D01*
X242463795Y-110540610D01*
X242521248Y-110425705D01*
X242521248Y-110310800D01*
X242463795Y-110195896D01*
X242406343Y-110138443D01*
X242291438Y-110080991D01*
X242061629Y-110023539D01*
X241774367Y-110023539D01*
X241544557Y-110080991D01*
X241429652Y-110138443D01*
X241372200Y-110195896D01*
X241314748Y-110310800D01*
X242061629Y-111230039D02*
X242061629Y-112149277D01*
X241372200Y-113355777D02*
X241314748Y-113240872D01*
X241314748Y-113068515D01*
X241372200Y-112896158D01*
X241487105Y-112781253D01*
X241602010Y-112723801D01*
X241831819Y-112666349D01*
X242004176Y-112666349D01*
X242233986Y-112723801D01*
X242348890Y-112781253D01*
X242463795Y-112896158D01*
X242521248Y-113068515D01*
X242521248Y-113183420D01*
X242463795Y-113355777D01*
X242406343Y-113413229D01*
X242004176Y-113413229D01*
X242004176Y-113183420D01*
X242463795Y-113872849D02*
X242521248Y-114045206D01*
X242521248Y-114332468D01*
X242463795Y-114447372D01*
X242406343Y-114504825D01*
X242291438Y-114562277D01*
X242176533Y-114562277D01*
X242061629Y-114504825D01*
X242004176Y-114447372D01*
X241946724Y-114332468D01*
X241889271Y-114102658D01*
X241831819Y-113987753D01*
X241774367Y-113930301D01*
X241659462Y-113872849D01*
X241544557Y-113872849D01*
X241429652Y-113930301D01*
X241372200Y-113987753D01*
X241314748Y-114102658D01*
X241314748Y-114389920D01*
X241372200Y-114562277D01*
X241314748Y-115309158D02*
X241314748Y-115424063D01*
X241372200Y-115538968D01*
X241429652Y-115596420D01*
X241544557Y-115653873D01*
X241774367Y-115711325D01*
X242061629Y-115711325D01*
X242291438Y-115653873D01*
X242406343Y-115596420D01*
X242463795Y-115538968D01*
X242521248Y-115424063D01*
X242521248Y-115309158D01*
X242463795Y-115194254D01*
X242406343Y-115136801D01*
X242291438Y-115079349D01*
X242061629Y-115021897D01*
X241774367Y-115021897D01*
X241544557Y-115079349D01*
X241429652Y-115136801D01*
X241372200Y-115194254D01*
X241314748Y-115309158D01*
X241831819Y-116400754D02*
X241774367Y-116285849D01*
X241716914Y-116228397D01*
X241602010Y-116170945D01*
X241544557Y-116170945D01*
X241429652Y-116228397D01*
X241372200Y-116285849D01*
X241314748Y-116400754D01*
X241314748Y-116630564D01*
X241372200Y-116745468D01*
X241429652Y-116802921D01*
X241544557Y-116860373D01*
X241602010Y-116860373D01*
X241716914Y-116802921D01*
X241774367Y-116745468D01*
X241831819Y-116630564D01*
X241831819Y-116400754D01*
X241889271Y-116285849D01*
X241946724Y-116228397D01*
X242061629Y-116170945D01*
X242291438Y-116170945D01*
X242406343Y-116228397D01*
X242463795Y-116285849D01*
X242521248Y-116400754D01*
X242521248Y-116630564D01*
X242463795Y-116745468D01*
X242406343Y-116802921D01*
X242291438Y-116860373D01*
X242061629Y-116860373D01*
X241946724Y-116802921D01*
X241889271Y-116745468D01*
X241831819Y-116630564D01*
M02*
