M48
;DRILL file {KiCad 4.0.6} date 05/07/17 20:45:12
;FORMAT={-:-/ absolute / inch / decimal}
FMAT,2
INCH,TZ
T1C0.020
T2C0.024
T3C0.040
T4C0.079
%
G90
G05
M72
T1
X9.1206Y-4.2394
X9.1379Y-4.0272
X9.1624Y-4.173
X9.1983Y-4.2394
X9.548Y-4.1885
X9.895Y-4.2867
X10.0521Y-4.387
T2
X8.4239Y-4.8551
X8.462Y-4.0429
X8.4653Y-4.7816
X8.4669Y-4.2428
X8.4679Y-4.3765
X8.4978Y-3.5516
X8.5221Y-4.7661
X8.5224Y-4.0098
X8.5592Y-5.0353
X8.6456Y-4.2978
X8.7955Y-3.7638
X8.8336Y-3.2935
X8.9224Y-3.2352
X8.9763Y-3.7651
X8.978Y-3.2962
X9.0184Y-4.0343
X9.045Y-3.4565
X9.1234Y-3.2094
X9.1724Y-4.0984
X9.2334Y-3.1504
X9.2514Y-4.2424
X9.3254Y-3.9514
X9.4212Y-3.9524
X9.4264Y-3.2734
X9.4269Y-4.9267
X9.5474Y-4.0694
X9.5929Y-3.9581
X9.5994Y-3.2734
X9.7584Y-4.1974
X9.7823Y-3.1153
X9.7833Y-3.8103
X9.8059Y-3.4565
X9.9041Y-4.9802
X10.0065Y-3.697
X10.1315Y-4.7189
X10.1578Y-4.5104
X10.2114Y-4.4484
X10.3145Y-3.1168
X10.3187Y-4.6706
T3
X10.0804Y-5.1614
X10.1804Y-5.1614
X10.2804Y-5.1614
T4
X9.0454Y-4.1374
X9.3594Y-4.4524
X9.3607Y-3.8232
X9.6754Y-4.1374
T0
M30
