%FSLAX45Y45*%
G04 Gerber Fmt 4.5, Leading zero omitted, Abs format (unit mm)*
G04 Created by KiCad (PCBNEW 4.0.6) date 05/08/17 07:10:59*
%MOMM*%
%LPD*%
G01*
G04 APERTURE LIST*
%ADD10C,0.127000*%
%ADD11C,0.150000*%
%ADD12C,0.200000*%
%ADD13C,0.300000*%
G04 APERTURE END LIST*
D10*
D11*
X20994170Y-8797350D02*
X20834450Y-8787510D01*
X20834450Y-8787510D02*
X20839530Y-12232470D01*
X20839530Y-12232470D02*
X20984330Y-12227930D01*
X20984330Y-12227930D02*
X20984330Y-13294730D01*
X26513530Y-13290290D02*
X26518610Y-7765790D01*
X26518610Y-7765790D02*
X20986870Y-7759450D01*
X20986870Y-7759450D02*
X20994170Y-8797350D01*
X26509810Y-13264390D02*
X26509810Y-7764390D01*
X26513210Y-7761890D02*
X21013210Y-7761890D01*
X26513210Y-13261890D02*
X26513210Y-7761890D01*
X21019610Y-13278290D02*
X26519610Y-13278290D01*
X26519610Y-13278290D02*
X26519610Y-7778290D01*
X26524010Y-7771090D02*
X21024010Y-7771090D01*
X26524010Y-13271090D02*
X26524010Y-7771090D01*
D12*
X23141310Y-10743190D02*
X23191310Y-10793190D01*
X23191310Y-10743190D02*
X23141310Y-10793190D01*
X23185210Y-10204190D02*
X23235210Y-10254190D01*
X23235210Y-10204190D02*
X23185210Y-10254190D01*
X23247610Y-10574490D02*
X23297610Y-10624490D01*
X23297610Y-10574490D02*
X23247610Y-10624490D01*
X23338710Y-10743190D02*
X23388710Y-10793190D01*
X23388710Y-10743190D02*
X23338710Y-10793190D01*
X24226910Y-10613790D02*
X24276910Y-10663790D01*
X24276910Y-10613790D02*
X24226910Y-10663790D01*
X25108410Y-10863290D02*
X25158410Y-10913290D01*
X25158410Y-10863290D02*
X25108410Y-10913290D01*
X25507410Y-11117890D02*
X25557410Y-11167890D01*
X25557410Y-11117890D02*
X25507410Y-11167890D01*
X21426710Y-12331990D02*
G75*
G03X21426710Y-12331990I-30000J0D01*
G01*
X21523510Y-10268890D02*
G75*
G03X21523510Y-10268890I-30000J0D01*
G01*
X21531810Y-12145290D02*
G75*
G03X21531810Y-12145290I-30000J0D01*
G01*
X21536010Y-10776590D02*
G75*
G03X21536010Y-10776590I-30000J0D01*
G01*
X21538410Y-11116290D02*
G75*
G03X21538410Y-11116290I-30000J0D01*
G01*
X21614310Y-9021090D02*
G75*
G03X21614310Y-9021090I-30000J0D01*
G01*
X21676210Y-12105990D02*
G75*
G03X21676210Y-12105990I-30000J0D01*
G01*
X21677010Y-10184890D02*
G75*
G03X21677010Y-10184890I-30000J0D01*
G01*
X21770310Y-12789590D02*
G75*
G03X21770310Y-12789590I-30000J0D01*
G01*
X21989910Y-10916290D02*
G75*
G03X21989910Y-10916290I-30000J0D01*
G01*
X22370610Y-9560090D02*
G75*
G03X22370610Y-9560090I-30000J0D01*
G01*
X22467360Y-8365540D02*
G75*
G03X22467360Y-8365540I-30000J0D01*
G01*
X22692910Y-8217290D02*
G75*
G03X22692910Y-8217290I-30000J0D01*
G01*
X22829710Y-9563290D02*
G75*
G03X22829710Y-9563290I-30000J0D01*
G01*
X22834210Y-8372390D02*
G75*
G03X22834210Y-8372390I-30000J0D01*
G01*
X22936710Y-10247090D02*
G75*
G03X22936710Y-10247090I-30000J0D01*
G01*
X23004310Y-8779490D02*
G75*
G03X23004310Y-8779490I-30000J0D01*
G01*
X23203430Y-8151870D02*
G75*
G03X23203430Y-8151870I-30000J0D01*
G01*
X23327890Y-10409930D02*
G75*
G03X23327890Y-10409930I-30000J0D01*
G01*
X23482830Y-8002010D02*
G75*
G03X23482830Y-8002010I-30000J0D01*
G01*
X23528550Y-10775690D02*
G75*
G03X23528550Y-10775690I-30000J0D01*
G01*
X23716510Y-10036550D02*
G75*
G03X23716510Y-10036550I-30000J0D01*
G01*
X23959870Y-10039210D02*
G75*
G03X23959870Y-10039210I-30000J0D01*
G01*
X23973050Y-8314430D02*
G75*
G03X23973050Y-8314430I-30000J0D01*
G01*
X23974410Y-12513790D02*
G75*
G03X23974410Y-12513790I-30000J0D01*
G01*
X24280390Y-10336270D02*
G75*
G03X24280390Y-10336270I-30000J0D01*
G01*
X24396010Y-10053690D02*
G75*
G03X24396010Y-10053690I-30000J0D01*
G01*
X24412470Y-8314430D02*
G75*
G03X24412470Y-8314430I-30000J0D01*
G01*
X24816330Y-10661390D02*
G75*
G03X24816330Y-10661390I-30000J0D01*
G01*
X24877010Y-7912790D02*
G75*
G03X24877010Y-7912790I-30000J0D01*
G01*
X24879610Y-9678190D02*
G75*
G03X24879610Y-9678190I-30000J0D01*
G01*
X24936910Y-8779490D02*
G75*
G03X24936910Y-8779490I-30000J0D01*
G01*
X25186510Y-12649690D02*
G75*
G03X25186510Y-12649690I-30000J0D01*
G01*
X25446410Y-9390290D02*
G75*
G03X25446410Y-9390290I-30000J0D01*
G01*
X25764110Y-11986090D02*
G75*
G03X25764110Y-11986090I-30000J0D01*
G01*
X25830810Y-11456390D02*
G75*
G03X25830810Y-11456390I-30000J0D01*
G01*
X25966950Y-11298930D02*
G75*
G03X25966950Y-11298930I-30000J0D01*
G01*
X26228810Y-7916590D02*
G75*
G03X26228810Y-7916590I-30000J0D01*
G01*
X26239410Y-11863390D02*
G75*
G03X26239410Y-11863390I-30000J0D01*
G01*
X25604210Y-13059150D02*
X25604210Y-13160750D01*
X25553410Y-13109950D02*
X25655010Y-13109950D01*
X25858210Y-13059150D02*
X25858210Y-13160750D01*
X25807410Y-13109950D02*
X25909010Y-13109950D01*
X26112210Y-13059150D02*
X26112210Y-13160750D01*
X26061410Y-13109950D02*
X26163010Y-13109950D01*
X23046021Y-10579701D02*
X23046021Y-10438279D01*
X22904599Y-10438279D01*
X22904599Y-10579701D01*
X23046021Y-10579701D01*
X23843581Y-11379801D02*
X23843581Y-11238379D01*
X23702159Y-11238379D01*
X23702159Y-11379801D01*
X23843581Y-11379801D01*
X23846821Y-9781601D02*
X23846821Y-9640179D01*
X23705399Y-9640179D01*
X23705399Y-9781601D01*
X23846821Y-9781601D01*
X24646221Y-10579701D02*
X24646221Y-10438279D01*
X24504799Y-10438279D01*
X24504799Y-10579701D01*
X24646221Y-10579701D01*
D13*
X21098379Y-13767944D02*
X21098379Y-13467944D01*
X21169807Y-13467944D01*
X21212664Y-13482230D01*
X21241236Y-13510801D01*
X21255521Y-13539373D01*
X21269807Y-13596516D01*
X21269807Y-13639373D01*
X21255521Y-13696516D01*
X21241236Y-13725087D01*
X21212664Y-13753659D01*
X21169807Y-13767944D01*
X21098379Y-13767944D01*
X21398379Y-13767944D02*
X21398379Y-13567944D01*
X21398379Y-13625087D02*
X21412664Y-13596516D01*
X21426950Y-13582230D01*
X21455521Y-13567944D01*
X21484093Y-13567944D01*
X21584093Y-13767944D02*
X21584093Y-13567944D01*
X21584093Y-13467944D02*
X21569807Y-13482230D01*
X21584093Y-13496516D01*
X21598379Y-13482230D01*
X21584093Y-13467944D01*
X21584093Y-13496516D01*
X21769807Y-13767944D02*
X21741236Y-13753659D01*
X21726950Y-13725087D01*
X21726950Y-13467944D01*
X21926950Y-13767944D02*
X21898379Y-13753659D01*
X21884093Y-13725087D01*
X21884093Y-13467944D01*
X22269807Y-13767944D02*
X22269807Y-13467944D01*
X22369807Y-13682230D01*
X22469807Y-13467944D01*
X22469807Y-13767944D01*
X22741236Y-13767944D02*
X22741236Y-13610801D01*
X22726950Y-13582230D01*
X22698378Y-13567944D01*
X22641236Y-13567944D01*
X22612664Y-13582230D01*
X22741236Y-13753659D02*
X22712664Y-13767944D01*
X22641236Y-13767944D01*
X22612664Y-13753659D01*
X22598378Y-13725087D01*
X22598378Y-13696516D01*
X22612664Y-13667944D01*
X22641236Y-13653659D01*
X22712664Y-13653659D01*
X22741236Y-13639373D01*
X22884093Y-13567944D02*
X22884093Y-13867944D01*
X22884093Y-13582230D02*
X22912664Y-13567944D01*
X22969807Y-13567944D01*
X22998378Y-13582230D01*
X23012664Y-13596516D01*
X23026950Y-13625087D01*
X23026950Y-13710801D01*
X23012664Y-13739373D01*
X22998378Y-13753659D01*
X22969807Y-13767944D01*
X22912664Y-13767944D01*
X22884093Y-13753659D01*
X23155521Y-13739373D02*
X23169807Y-13753659D01*
X23155521Y-13767944D01*
X23141236Y-13753659D01*
X23155521Y-13739373D01*
X23155521Y-13767944D01*
X23155521Y-13582230D02*
X23169807Y-13596516D01*
X23155521Y-13610801D01*
X23141236Y-13596516D01*
X23155521Y-13582230D01*
X23155521Y-13610801D01*
X20776950Y-14237230D02*
X20826950Y-14287230D01*
X20826950Y-14237230D02*
X20776950Y-14287230D01*
X21155521Y-14097944D02*
X21184093Y-14097944D01*
X21212664Y-14112230D01*
X21226950Y-14126516D01*
X21241236Y-14155087D01*
X21255521Y-14212230D01*
X21255521Y-14283659D01*
X21241236Y-14340801D01*
X21226950Y-14369373D01*
X21212664Y-14383659D01*
X21184093Y-14397944D01*
X21155521Y-14397944D01*
X21126950Y-14383659D01*
X21112664Y-14369373D01*
X21098379Y-14340801D01*
X21084093Y-14283659D01*
X21084093Y-14212230D01*
X21098379Y-14155087D01*
X21112664Y-14126516D01*
X21126950Y-14112230D01*
X21155521Y-14097944D01*
X21384093Y-14369373D02*
X21398379Y-14383659D01*
X21384093Y-14397944D01*
X21369807Y-14383659D01*
X21384093Y-14369373D01*
X21384093Y-14397944D01*
X21669807Y-14097944D02*
X21526950Y-14097944D01*
X21512664Y-14240801D01*
X21526950Y-14226516D01*
X21555521Y-14212230D01*
X21626950Y-14212230D01*
X21655521Y-14226516D01*
X21669807Y-14240801D01*
X21684093Y-14269373D01*
X21684093Y-14340801D01*
X21669807Y-14369373D01*
X21655521Y-14383659D01*
X21626950Y-14397944D01*
X21555521Y-14397944D01*
X21526950Y-14383659D01*
X21512664Y-14369373D01*
X21869807Y-14097944D02*
X21898379Y-14097944D01*
X21926950Y-14112230D01*
X21941236Y-14126516D01*
X21955521Y-14155087D01*
X21969807Y-14212230D01*
X21969807Y-14283659D01*
X21955521Y-14340801D01*
X21941236Y-14369373D01*
X21926950Y-14383659D01*
X21898379Y-14397944D01*
X21869807Y-14397944D01*
X21841236Y-14383659D01*
X21826950Y-14369373D01*
X21812664Y-14340801D01*
X21798379Y-14283659D01*
X21798379Y-14212230D01*
X21812664Y-14155087D01*
X21826950Y-14126516D01*
X21841236Y-14112230D01*
X21869807Y-14097944D01*
X22098379Y-14397944D02*
X22098379Y-14197944D01*
X22098379Y-14226516D02*
X22112664Y-14212230D01*
X22141236Y-14197944D01*
X22184093Y-14197944D01*
X22212664Y-14212230D01*
X22226950Y-14240801D01*
X22226950Y-14397944D01*
X22226950Y-14240801D02*
X22241236Y-14212230D01*
X22269807Y-14197944D01*
X22312664Y-14197944D01*
X22341236Y-14212230D01*
X22355521Y-14240801D01*
X22355521Y-14397944D01*
X22498378Y-14397944D02*
X22498378Y-14197944D01*
X22498378Y-14226516D02*
X22512664Y-14212230D01*
X22541236Y-14197944D01*
X22584093Y-14197944D01*
X22612664Y-14212230D01*
X22626950Y-14240801D01*
X22626950Y-14397944D01*
X22626950Y-14240801D02*
X22641236Y-14212230D01*
X22669807Y-14197944D01*
X22712664Y-14197944D01*
X22741236Y-14212230D01*
X22755521Y-14240801D01*
X22755521Y-14397944D01*
X23341236Y-14083659D02*
X23084093Y-14469373D01*
X23726950Y-14097944D02*
X23755521Y-14097944D01*
X23784093Y-14112230D01*
X23798378Y-14126516D01*
X23812664Y-14155087D01*
X23826950Y-14212230D01*
X23826950Y-14283659D01*
X23812664Y-14340801D01*
X23798378Y-14369373D01*
X23784093Y-14383659D01*
X23755521Y-14397944D01*
X23726950Y-14397944D01*
X23698378Y-14383659D01*
X23684093Y-14369373D01*
X23669807Y-14340801D01*
X23655521Y-14283659D01*
X23655521Y-14212230D01*
X23669807Y-14155087D01*
X23684093Y-14126516D01*
X23698378Y-14112230D01*
X23726950Y-14097944D01*
X23955521Y-14369373D02*
X23969807Y-14383659D01*
X23955521Y-14397944D01*
X23941236Y-14383659D01*
X23955521Y-14369373D01*
X23955521Y-14397944D01*
X24155521Y-14097944D02*
X24184093Y-14097944D01*
X24212664Y-14112230D01*
X24226950Y-14126516D01*
X24241235Y-14155087D01*
X24255521Y-14212230D01*
X24255521Y-14283659D01*
X24241235Y-14340801D01*
X24226950Y-14369373D01*
X24212664Y-14383659D01*
X24184093Y-14397944D01*
X24155521Y-14397944D01*
X24126950Y-14383659D01*
X24112664Y-14369373D01*
X24098378Y-14340801D01*
X24084093Y-14283659D01*
X24084093Y-14212230D01*
X24098378Y-14155087D01*
X24112664Y-14126516D01*
X24126950Y-14112230D01*
X24155521Y-14097944D01*
X24369807Y-14126516D02*
X24384093Y-14112230D01*
X24412664Y-14097944D01*
X24484093Y-14097944D01*
X24512664Y-14112230D01*
X24526950Y-14126516D01*
X24541235Y-14155087D01*
X24541235Y-14183659D01*
X24526950Y-14226516D01*
X24355521Y-14397944D01*
X24541235Y-14397944D01*
X24726950Y-14097944D02*
X24755521Y-14097944D01*
X24784093Y-14112230D01*
X24798378Y-14126516D01*
X24812664Y-14155087D01*
X24826950Y-14212230D01*
X24826950Y-14283659D01*
X24812664Y-14340801D01*
X24798378Y-14369373D01*
X24784093Y-14383659D01*
X24755521Y-14397944D01*
X24726950Y-14397944D01*
X24698378Y-14383659D01*
X24684093Y-14369373D01*
X24669807Y-14340801D01*
X24655521Y-14283659D01*
X24655521Y-14212230D01*
X24669807Y-14155087D01*
X24684093Y-14126516D01*
X24698378Y-14112230D01*
X24726950Y-14097944D01*
X24941236Y-14097944D02*
X24941236Y-14155087D01*
X25055521Y-14097944D02*
X25055521Y-14155087D01*
X25498378Y-14512230D02*
X25484093Y-14497944D01*
X25455521Y-14455087D01*
X25441235Y-14426516D01*
X25426950Y-14383659D01*
X25412664Y-14312230D01*
X25412664Y-14255087D01*
X25426950Y-14183659D01*
X25441235Y-14140801D01*
X25455521Y-14112230D01*
X25484093Y-14069373D01*
X25498378Y-14055087D01*
X25584093Y-14097944D02*
X25784093Y-14097944D01*
X25655521Y-14397944D01*
X26126950Y-14397944D02*
X26126950Y-14097944D01*
X26255521Y-14397944D02*
X26255521Y-14240801D01*
X26241235Y-14212230D01*
X26212664Y-14197944D01*
X26169807Y-14197944D01*
X26141235Y-14212230D01*
X26126950Y-14226516D01*
X26441235Y-14397944D02*
X26412664Y-14383659D01*
X26398378Y-14369373D01*
X26384093Y-14340801D01*
X26384093Y-14255087D01*
X26398378Y-14226516D01*
X26412664Y-14212230D01*
X26441235Y-14197944D01*
X26484093Y-14197944D01*
X26512664Y-14212230D01*
X26526950Y-14226516D01*
X26541235Y-14255087D01*
X26541235Y-14340801D01*
X26526950Y-14369373D01*
X26512664Y-14383659D01*
X26484093Y-14397944D01*
X26441235Y-14397944D01*
X26712664Y-14397944D02*
X26684093Y-14383659D01*
X26669807Y-14355087D01*
X26669807Y-14097944D01*
X26941236Y-14383659D02*
X26912664Y-14397944D01*
X26855521Y-14397944D01*
X26826950Y-14383659D01*
X26812664Y-14355087D01*
X26812664Y-14240801D01*
X26826950Y-14212230D01*
X26855521Y-14197944D01*
X26912664Y-14197944D01*
X26941236Y-14212230D01*
X26955521Y-14240801D01*
X26955521Y-14269373D01*
X26812664Y-14297944D01*
X27069807Y-14383659D02*
X27098378Y-14397944D01*
X27155521Y-14397944D01*
X27184093Y-14383659D01*
X27198378Y-14355087D01*
X27198378Y-14340801D01*
X27184093Y-14312230D01*
X27155521Y-14297944D01*
X27112664Y-14297944D01*
X27084093Y-14283659D01*
X27069807Y-14255087D01*
X27069807Y-14240801D01*
X27084093Y-14212230D01*
X27112664Y-14197944D01*
X27155521Y-14197944D01*
X27184093Y-14212230D01*
X27298378Y-14512230D02*
X27312664Y-14497944D01*
X27341236Y-14455087D01*
X27355521Y-14426516D01*
X27369807Y-14383659D01*
X27384093Y-14312230D01*
X27384093Y-14255087D01*
X27369807Y-14183659D01*
X27355521Y-14140801D01*
X27341236Y-14112230D01*
X27312664Y-14069373D01*
X27298378Y-14055087D01*
X20826950Y-14658230D02*
G75*
G03X20826950Y-14658230I-30000J0D01*
G01*
X21155521Y-14493944D02*
X21184093Y-14493944D01*
X21212664Y-14508230D01*
X21226950Y-14522516D01*
X21241236Y-14551087D01*
X21255521Y-14608230D01*
X21255521Y-14679659D01*
X21241236Y-14736801D01*
X21226950Y-14765373D01*
X21212664Y-14779659D01*
X21184093Y-14793944D01*
X21155521Y-14793944D01*
X21126950Y-14779659D01*
X21112664Y-14765373D01*
X21098379Y-14736801D01*
X21084093Y-14679659D01*
X21084093Y-14608230D01*
X21098379Y-14551087D01*
X21112664Y-14522516D01*
X21126950Y-14508230D01*
X21155521Y-14493944D01*
X21384093Y-14765373D02*
X21398379Y-14779659D01*
X21384093Y-14793944D01*
X21369807Y-14779659D01*
X21384093Y-14765373D01*
X21384093Y-14793944D01*
X21655521Y-14493944D02*
X21598378Y-14493944D01*
X21569807Y-14508230D01*
X21555521Y-14522516D01*
X21526950Y-14565373D01*
X21512664Y-14622516D01*
X21512664Y-14736801D01*
X21526950Y-14765373D01*
X21541236Y-14779659D01*
X21569807Y-14793944D01*
X21626950Y-14793944D01*
X21655521Y-14779659D01*
X21669807Y-14765373D01*
X21684093Y-14736801D01*
X21684093Y-14665373D01*
X21669807Y-14636801D01*
X21655521Y-14622516D01*
X21626950Y-14608230D01*
X21569807Y-14608230D01*
X21541236Y-14622516D01*
X21526950Y-14636801D01*
X21512664Y-14665373D01*
X21869807Y-14493944D02*
X21898379Y-14493944D01*
X21926950Y-14508230D01*
X21941236Y-14522516D01*
X21955521Y-14551087D01*
X21969807Y-14608230D01*
X21969807Y-14679659D01*
X21955521Y-14736801D01*
X21941236Y-14765373D01*
X21926950Y-14779659D01*
X21898379Y-14793944D01*
X21869807Y-14793944D01*
X21841236Y-14779659D01*
X21826950Y-14765373D01*
X21812664Y-14736801D01*
X21798379Y-14679659D01*
X21798379Y-14608230D01*
X21812664Y-14551087D01*
X21826950Y-14522516D01*
X21841236Y-14508230D01*
X21869807Y-14493944D01*
X22098379Y-14793944D02*
X22098379Y-14593944D01*
X22098379Y-14622516D02*
X22112664Y-14608230D01*
X22141236Y-14593944D01*
X22184093Y-14593944D01*
X22212664Y-14608230D01*
X22226950Y-14636801D01*
X22226950Y-14793944D01*
X22226950Y-14636801D02*
X22241236Y-14608230D01*
X22269807Y-14593944D01*
X22312664Y-14593944D01*
X22341236Y-14608230D01*
X22355521Y-14636801D01*
X22355521Y-14793944D01*
X22498378Y-14793944D02*
X22498378Y-14593944D01*
X22498378Y-14622516D02*
X22512664Y-14608230D01*
X22541236Y-14593944D01*
X22584093Y-14593944D01*
X22612664Y-14608230D01*
X22626950Y-14636801D01*
X22626950Y-14793944D01*
X22626950Y-14636801D02*
X22641236Y-14608230D01*
X22669807Y-14593944D01*
X22712664Y-14593944D01*
X22741236Y-14608230D01*
X22755521Y-14636801D01*
X22755521Y-14793944D01*
X23341236Y-14479659D02*
X23084093Y-14865373D01*
X23726950Y-14493944D02*
X23755521Y-14493944D01*
X23784093Y-14508230D01*
X23798378Y-14522516D01*
X23812664Y-14551087D01*
X23826950Y-14608230D01*
X23826950Y-14679659D01*
X23812664Y-14736801D01*
X23798378Y-14765373D01*
X23784093Y-14779659D01*
X23755521Y-14793944D01*
X23726950Y-14793944D01*
X23698378Y-14779659D01*
X23684093Y-14765373D01*
X23669807Y-14736801D01*
X23655521Y-14679659D01*
X23655521Y-14608230D01*
X23669807Y-14551087D01*
X23684093Y-14522516D01*
X23698378Y-14508230D01*
X23726950Y-14493944D01*
X23955521Y-14765373D02*
X23969807Y-14779659D01*
X23955521Y-14793944D01*
X23941236Y-14779659D01*
X23955521Y-14765373D01*
X23955521Y-14793944D01*
X24155521Y-14493944D02*
X24184093Y-14493944D01*
X24212664Y-14508230D01*
X24226950Y-14522516D01*
X24241235Y-14551087D01*
X24255521Y-14608230D01*
X24255521Y-14679659D01*
X24241235Y-14736801D01*
X24226950Y-14765373D01*
X24212664Y-14779659D01*
X24184093Y-14793944D01*
X24155521Y-14793944D01*
X24126950Y-14779659D01*
X24112664Y-14765373D01*
X24098378Y-14736801D01*
X24084093Y-14679659D01*
X24084093Y-14608230D01*
X24098378Y-14551087D01*
X24112664Y-14522516D01*
X24126950Y-14508230D01*
X24155521Y-14493944D01*
X24369807Y-14522516D02*
X24384093Y-14508230D01*
X24412664Y-14493944D01*
X24484093Y-14493944D01*
X24512664Y-14508230D01*
X24526950Y-14522516D01*
X24541235Y-14551087D01*
X24541235Y-14579659D01*
X24526950Y-14622516D01*
X24355521Y-14793944D01*
X24541235Y-14793944D01*
X24798378Y-14593944D02*
X24798378Y-14793944D01*
X24726950Y-14479659D02*
X24655521Y-14693944D01*
X24841235Y-14693944D01*
X24941236Y-14493944D02*
X24941236Y-14551087D01*
X25055521Y-14493944D02*
X25055521Y-14551087D01*
X25498378Y-14908230D02*
X25484093Y-14893944D01*
X25455521Y-14851087D01*
X25441235Y-14822516D01*
X25426950Y-14779659D01*
X25412664Y-14708230D01*
X25412664Y-14651087D01*
X25426950Y-14579659D01*
X25441235Y-14536801D01*
X25455521Y-14508230D01*
X25484093Y-14465373D01*
X25498378Y-14451087D01*
X25584093Y-14493944D02*
X25769807Y-14493944D01*
X25669807Y-14608230D01*
X25712664Y-14608230D01*
X25741235Y-14622516D01*
X25755521Y-14636801D01*
X25769807Y-14665373D01*
X25769807Y-14736801D01*
X25755521Y-14765373D01*
X25741235Y-14779659D01*
X25712664Y-14793944D01*
X25626950Y-14793944D01*
X25598378Y-14779659D01*
X25584093Y-14765373D01*
X25912664Y-14793944D02*
X25969807Y-14793944D01*
X25998378Y-14779659D01*
X26012664Y-14765373D01*
X26041235Y-14722516D01*
X26055521Y-14665373D01*
X26055521Y-14551087D01*
X26041235Y-14522516D01*
X26026950Y-14508230D01*
X25998378Y-14493944D01*
X25941235Y-14493944D01*
X25912664Y-14508230D01*
X25898378Y-14522516D01*
X25884093Y-14551087D01*
X25884093Y-14622516D01*
X25898378Y-14651087D01*
X25912664Y-14665373D01*
X25941235Y-14679659D01*
X25998378Y-14679659D01*
X26026950Y-14665373D01*
X26041235Y-14651087D01*
X26055521Y-14622516D01*
X26412664Y-14793944D02*
X26412664Y-14493944D01*
X26541235Y-14793944D02*
X26541235Y-14636801D01*
X26526950Y-14608230D01*
X26498378Y-14593944D01*
X26455521Y-14593944D01*
X26426950Y-14608230D01*
X26412664Y-14622516D01*
X26726950Y-14793944D02*
X26698378Y-14779659D01*
X26684093Y-14765373D01*
X26669807Y-14736801D01*
X26669807Y-14651087D01*
X26684093Y-14622516D01*
X26698378Y-14608230D01*
X26726950Y-14593944D01*
X26769807Y-14593944D01*
X26798378Y-14608230D01*
X26812664Y-14622516D01*
X26826950Y-14651087D01*
X26826950Y-14736801D01*
X26812664Y-14765373D01*
X26798378Y-14779659D01*
X26769807Y-14793944D01*
X26726950Y-14793944D01*
X26998378Y-14793944D02*
X26969807Y-14779659D01*
X26955521Y-14751087D01*
X26955521Y-14493944D01*
X27226950Y-14779659D02*
X27198378Y-14793944D01*
X27141236Y-14793944D01*
X27112664Y-14779659D01*
X27098378Y-14751087D01*
X27098378Y-14636801D01*
X27112664Y-14608230D01*
X27141236Y-14593944D01*
X27198378Y-14593944D01*
X27226950Y-14608230D01*
X27241236Y-14636801D01*
X27241236Y-14665373D01*
X27098378Y-14693944D01*
X27355521Y-14779659D02*
X27384093Y-14793944D01*
X27441236Y-14793944D01*
X27469807Y-14779659D01*
X27484093Y-14751087D01*
X27484093Y-14736801D01*
X27469807Y-14708230D01*
X27441236Y-14693944D01*
X27398378Y-14693944D01*
X27369807Y-14679659D01*
X27355521Y-14651087D01*
X27355521Y-14636801D01*
X27369807Y-14608230D01*
X27398378Y-14593944D01*
X27441236Y-14593944D01*
X27469807Y-14608230D01*
X27584093Y-14908230D02*
X27598378Y-14893944D01*
X27626950Y-14851087D01*
X27641236Y-14822516D01*
X27655521Y-14779659D01*
X27669807Y-14708230D01*
X27669807Y-14651087D01*
X27655521Y-14579659D01*
X27641236Y-14536801D01*
X27626950Y-14508230D01*
X27598378Y-14465373D01*
X27584093Y-14451087D01*
X20776150Y-15003430D02*
X20776150Y-15105030D01*
X20725350Y-15054230D02*
X20826950Y-15054230D01*
X21255521Y-15189944D02*
X21084093Y-15189944D01*
X21169807Y-15189944D02*
X21169807Y-14889944D01*
X21141236Y-14932801D01*
X21112664Y-14961373D01*
X21084093Y-14975659D01*
X21384093Y-15161373D02*
X21398379Y-15175659D01*
X21384093Y-15189944D01*
X21369807Y-15175659D01*
X21384093Y-15161373D01*
X21384093Y-15189944D01*
X21584093Y-14889944D02*
X21612664Y-14889944D01*
X21641236Y-14904230D01*
X21655521Y-14918516D01*
X21669807Y-14947087D01*
X21684093Y-15004230D01*
X21684093Y-15075659D01*
X21669807Y-15132801D01*
X21655521Y-15161373D01*
X21641236Y-15175659D01*
X21612664Y-15189944D01*
X21584093Y-15189944D01*
X21555521Y-15175659D01*
X21541236Y-15161373D01*
X21526950Y-15132801D01*
X21512664Y-15075659D01*
X21512664Y-15004230D01*
X21526950Y-14947087D01*
X21541236Y-14918516D01*
X21555521Y-14904230D01*
X21584093Y-14889944D01*
X21798379Y-14918516D02*
X21812664Y-14904230D01*
X21841236Y-14889944D01*
X21912664Y-14889944D01*
X21941236Y-14904230D01*
X21955521Y-14918516D01*
X21969807Y-14947087D01*
X21969807Y-14975659D01*
X21955521Y-15018516D01*
X21784093Y-15189944D01*
X21969807Y-15189944D01*
X22098379Y-15189944D02*
X22098379Y-14989944D01*
X22098379Y-15018516D02*
X22112664Y-15004230D01*
X22141236Y-14989944D01*
X22184093Y-14989944D01*
X22212664Y-15004230D01*
X22226950Y-15032801D01*
X22226950Y-15189944D01*
X22226950Y-15032801D02*
X22241236Y-15004230D01*
X22269807Y-14989944D01*
X22312664Y-14989944D01*
X22341236Y-15004230D01*
X22355521Y-15032801D01*
X22355521Y-15189944D01*
X22498378Y-15189944D02*
X22498378Y-14989944D01*
X22498378Y-15018516D02*
X22512664Y-15004230D01*
X22541236Y-14989944D01*
X22584093Y-14989944D01*
X22612664Y-15004230D01*
X22626950Y-15032801D01*
X22626950Y-15189944D01*
X22626950Y-15032801D02*
X22641236Y-15004230D01*
X22669807Y-14989944D01*
X22712664Y-14989944D01*
X22741236Y-15004230D01*
X22755521Y-15032801D01*
X22755521Y-15189944D01*
X23341236Y-14875659D02*
X23084093Y-15261373D01*
X23726950Y-14889944D02*
X23755521Y-14889944D01*
X23784093Y-14904230D01*
X23798378Y-14918516D01*
X23812664Y-14947087D01*
X23826950Y-15004230D01*
X23826950Y-15075659D01*
X23812664Y-15132801D01*
X23798378Y-15161373D01*
X23784093Y-15175659D01*
X23755521Y-15189944D01*
X23726950Y-15189944D01*
X23698378Y-15175659D01*
X23684093Y-15161373D01*
X23669807Y-15132801D01*
X23655521Y-15075659D01*
X23655521Y-15004230D01*
X23669807Y-14947087D01*
X23684093Y-14918516D01*
X23698378Y-14904230D01*
X23726950Y-14889944D01*
X23955521Y-15161373D02*
X23969807Y-15175659D01*
X23955521Y-15189944D01*
X23941236Y-15175659D01*
X23955521Y-15161373D01*
X23955521Y-15189944D01*
X24155521Y-14889944D02*
X24184093Y-14889944D01*
X24212664Y-14904230D01*
X24226950Y-14918516D01*
X24241235Y-14947087D01*
X24255521Y-15004230D01*
X24255521Y-15075659D01*
X24241235Y-15132801D01*
X24226950Y-15161373D01*
X24212664Y-15175659D01*
X24184093Y-15189944D01*
X24155521Y-15189944D01*
X24126950Y-15175659D01*
X24112664Y-15161373D01*
X24098378Y-15132801D01*
X24084093Y-15075659D01*
X24084093Y-15004230D01*
X24098378Y-14947087D01*
X24112664Y-14918516D01*
X24126950Y-14904230D01*
X24155521Y-14889944D01*
X24512664Y-14989944D02*
X24512664Y-15189944D01*
X24441235Y-14875659D02*
X24369807Y-15089944D01*
X24555521Y-15089944D01*
X24726950Y-14889944D02*
X24755521Y-14889944D01*
X24784093Y-14904230D01*
X24798378Y-14918516D01*
X24812664Y-14947087D01*
X24826950Y-15004230D01*
X24826950Y-15075659D01*
X24812664Y-15132801D01*
X24798378Y-15161373D01*
X24784093Y-15175659D01*
X24755521Y-15189944D01*
X24726950Y-15189944D01*
X24698378Y-15175659D01*
X24684093Y-15161373D01*
X24669807Y-15132801D01*
X24655521Y-15075659D01*
X24655521Y-15004230D01*
X24669807Y-14947087D01*
X24684093Y-14918516D01*
X24698378Y-14904230D01*
X24726950Y-14889944D01*
X24941236Y-14889944D02*
X24941236Y-14947087D01*
X25055521Y-14889944D02*
X25055521Y-14947087D01*
X25498378Y-15304230D02*
X25484093Y-15289944D01*
X25455521Y-15247087D01*
X25441235Y-15218516D01*
X25426950Y-15175659D01*
X25412664Y-15104230D01*
X25412664Y-15047087D01*
X25426950Y-14975659D01*
X25441235Y-14932801D01*
X25455521Y-14904230D01*
X25484093Y-14861373D01*
X25498378Y-14847087D01*
X25584093Y-14889944D02*
X25769807Y-14889944D01*
X25669807Y-15004230D01*
X25712664Y-15004230D01*
X25741235Y-15018516D01*
X25755521Y-15032801D01*
X25769807Y-15061373D01*
X25769807Y-15132801D01*
X25755521Y-15161373D01*
X25741235Y-15175659D01*
X25712664Y-15189944D01*
X25626950Y-15189944D01*
X25598378Y-15175659D01*
X25584093Y-15161373D01*
X26126950Y-15189944D02*
X26126950Y-14889944D01*
X26255521Y-15189944D02*
X26255521Y-15032801D01*
X26241235Y-15004230D01*
X26212664Y-14989944D01*
X26169807Y-14989944D01*
X26141235Y-15004230D01*
X26126950Y-15018516D01*
X26441235Y-15189944D02*
X26412664Y-15175659D01*
X26398378Y-15161373D01*
X26384093Y-15132801D01*
X26384093Y-15047087D01*
X26398378Y-15018516D01*
X26412664Y-15004230D01*
X26441235Y-14989944D01*
X26484093Y-14989944D01*
X26512664Y-15004230D01*
X26526950Y-15018516D01*
X26541235Y-15047087D01*
X26541235Y-15132801D01*
X26526950Y-15161373D01*
X26512664Y-15175659D01*
X26484093Y-15189944D01*
X26441235Y-15189944D01*
X26712664Y-15189944D02*
X26684093Y-15175659D01*
X26669807Y-15147087D01*
X26669807Y-14889944D01*
X26941236Y-15175659D02*
X26912664Y-15189944D01*
X26855521Y-15189944D01*
X26826950Y-15175659D01*
X26812664Y-15147087D01*
X26812664Y-15032801D01*
X26826950Y-15004230D01*
X26855521Y-14989944D01*
X26912664Y-14989944D01*
X26941236Y-15004230D01*
X26955521Y-15032801D01*
X26955521Y-15061373D01*
X26812664Y-15089944D01*
X27069807Y-15175659D02*
X27098378Y-15189944D01*
X27155521Y-15189944D01*
X27184093Y-15175659D01*
X27198378Y-15147087D01*
X27198378Y-15132801D01*
X27184093Y-15104230D01*
X27155521Y-15089944D01*
X27112664Y-15089944D01*
X27084093Y-15075659D01*
X27069807Y-15047087D01*
X27069807Y-15032801D01*
X27084093Y-15004230D01*
X27112664Y-14989944D01*
X27155521Y-14989944D01*
X27184093Y-15004230D01*
X27298378Y-15304230D02*
X27312664Y-15289944D01*
X27341236Y-15247087D01*
X27355521Y-15218516D01*
X27369807Y-15175659D01*
X27384093Y-15104230D01*
X27384093Y-15047087D01*
X27369807Y-14975659D01*
X27355521Y-14932801D01*
X27341236Y-14904230D01*
X27312664Y-14861373D01*
X27298378Y-14847087D01*
X20797661Y-15520941D02*
X20797661Y-15379519D01*
X20656239Y-15379519D01*
X20656239Y-15520941D01*
X20797661Y-15520941D01*
X21084093Y-15314516D02*
X21098379Y-15300230D01*
X21126950Y-15285944D01*
X21198379Y-15285944D01*
X21226950Y-15300230D01*
X21241236Y-15314516D01*
X21255521Y-15343087D01*
X21255521Y-15371659D01*
X21241236Y-15414516D01*
X21069807Y-15585944D01*
X21255521Y-15585944D01*
X21384093Y-15557373D02*
X21398379Y-15571659D01*
X21384093Y-15585944D01*
X21369807Y-15571659D01*
X21384093Y-15557373D01*
X21384093Y-15585944D01*
X21584093Y-15285944D02*
X21612664Y-15285944D01*
X21641236Y-15300230D01*
X21655521Y-15314516D01*
X21669807Y-15343087D01*
X21684093Y-15400230D01*
X21684093Y-15471659D01*
X21669807Y-15528801D01*
X21655521Y-15557373D01*
X21641236Y-15571659D01*
X21612664Y-15585944D01*
X21584093Y-15585944D01*
X21555521Y-15571659D01*
X21541236Y-15557373D01*
X21526950Y-15528801D01*
X21512664Y-15471659D01*
X21512664Y-15400230D01*
X21526950Y-15343087D01*
X21541236Y-15314516D01*
X21555521Y-15300230D01*
X21584093Y-15285944D01*
X21869807Y-15285944D02*
X21898379Y-15285944D01*
X21926950Y-15300230D01*
X21941236Y-15314516D01*
X21955521Y-15343087D01*
X21969807Y-15400230D01*
X21969807Y-15471659D01*
X21955521Y-15528801D01*
X21941236Y-15557373D01*
X21926950Y-15571659D01*
X21898379Y-15585944D01*
X21869807Y-15585944D01*
X21841236Y-15571659D01*
X21826950Y-15557373D01*
X21812664Y-15528801D01*
X21798379Y-15471659D01*
X21798379Y-15400230D01*
X21812664Y-15343087D01*
X21826950Y-15314516D01*
X21841236Y-15300230D01*
X21869807Y-15285944D01*
X22098379Y-15585944D02*
X22098379Y-15385944D01*
X22098379Y-15414516D02*
X22112664Y-15400230D01*
X22141236Y-15385944D01*
X22184093Y-15385944D01*
X22212664Y-15400230D01*
X22226950Y-15428801D01*
X22226950Y-15585944D01*
X22226950Y-15428801D02*
X22241236Y-15400230D01*
X22269807Y-15385944D01*
X22312664Y-15385944D01*
X22341236Y-15400230D01*
X22355521Y-15428801D01*
X22355521Y-15585944D01*
X22498378Y-15585944D02*
X22498378Y-15385944D01*
X22498378Y-15414516D02*
X22512664Y-15400230D01*
X22541236Y-15385944D01*
X22584093Y-15385944D01*
X22612664Y-15400230D01*
X22626950Y-15428801D01*
X22626950Y-15585944D01*
X22626950Y-15428801D02*
X22641236Y-15400230D01*
X22669807Y-15385944D01*
X22712664Y-15385944D01*
X22741236Y-15400230D01*
X22755521Y-15428801D01*
X22755521Y-15585944D01*
X23341236Y-15271659D02*
X23084093Y-15657373D01*
X23726950Y-15285944D02*
X23755521Y-15285944D01*
X23784093Y-15300230D01*
X23798378Y-15314516D01*
X23812664Y-15343087D01*
X23826950Y-15400230D01*
X23826950Y-15471659D01*
X23812664Y-15528801D01*
X23798378Y-15557373D01*
X23784093Y-15571659D01*
X23755521Y-15585944D01*
X23726950Y-15585944D01*
X23698378Y-15571659D01*
X23684093Y-15557373D01*
X23669807Y-15528801D01*
X23655521Y-15471659D01*
X23655521Y-15400230D01*
X23669807Y-15343087D01*
X23684093Y-15314516D01*
X23698378Y-15300230D01*
X23726950Y-15285944D01*
X23955521Y-15557373D02*
X23969807Y-15571659D01*
X23955521Y-15585944D01*
X23941236Y-15571659D01*
X23955521Y-15557373D01*
X23955521Y-15585944D01*
X24155521Y-15285944D02*
X24184093Y-15285944D01*
X24212664Y-15300230D01*
X24226950Y-15314516D01*
X24241235Y-15343087D01*
X24255521Y-15400230D01*
X24255521Y-15471659D01*
X24241235Y-15528801D01*
X24226950Y-15557373D01*
X24212664Y-15571659D01*
X24184093Y-15585944D01*
X24155521Y-15585944D01*
X24126950Y-15571659D01*
X24112664Y-15557373D01*
X24098378Y-15528801D01*
X24084093Y-15471659D01*
X24084093Y-15400230D01*
X24098378Y-15343087D01*
X24112664Y-15314516D01*
X24126950Y-15300230D01*
X24155521Y-15285944D01*
X24355521Y-15285944D02*
X24555521Y-15285944D01*
X24426950Y-15585944D01*
X24684093Y-15585944D02*
X24741235Y-15585944D01*
X24769807Y-15571659D01*
X24784093Y-15557373D01*
X24812664Y-15514516D01*
X24826950Y-15457373D01*
X24826950Y-15343087D01*
X24812664Y-15314516D01*
X24798378Y-15300230D01*
X24769807Y-15285944D01*
X24712664Y-15285944D01*
X24684093Y-15300230D01*
X24669807Y-15314516D01*
X24655521Y-15343087D01*
X24655521Y-15414516D01*
X24669807Y-15443087D01*
X24684093Y-15457373D01*
X24712664Y-15471659D01*
X24769807Y-15471659D01*
X24798378Y-15457373D01*
X24812664Y-15443087D01*
X24826950Y-15414516D01*
X24941236Y-15285944D02*
X24941236Y-15343087D01*
X25055521Y-15285944D02*
X25055521Y-15343087D01*
X25498378Y-15700230D02*
X25484093Y-15685944D01*
X25455521Y-15643087D01*
X25441235Y-15614516D01*
X25426950Y-15571659D01*
X25412664Y-15500230D01*
X25412664Y-15443087D01*
X25426950Y-15371659D01*
X25441235Y-15328801D01*
X25455521Y-15300230D01*
X25484093Y-15257373D01*
X25498378Y-15243087D01*
X25741235Y-15385944D02*
X25741235Y-15585944D01*
X25669807Y-15271659D02*
X25598378Y-15485944D01*
X25784093Y-15485944D01*
X26126950Y-15585944D02*
X26126950Y-15285944D01*
X26255521Y-15585944D02*
X26255521Y-15428801D01*
X26241235Y-15400230D01*
X26212664Y-15385944D01*
X26169807Y-15385944D01*
X26141235Y-15400230D01*
X26126950Y-15414516D01*
X26441235Y-15585944D02*
X26412664Y-15571659D01*
X26398378Y-15557373D01*
X26384093Y-15528801D01*
X26384093Y-15443087D01*
X26398378Y-15414516D01*
X26412664Y-15400230D01*
X26441235Y-15385944D01*
X26484093Y-15385944D01*
X26512664Y-15400230D01*
X26526950Y-15414516D01*
X26541235Y-15443087D01*
X26541235Y-15528801D01*
X26526950Y-15557373D01*
X26512664Y-15571659D01*
X26484093Y-15585944D01*
X26441235Y-15585944D01*
X26712664Y-15585944D02*
X26684093Y-15571659D01*
X26669807Y-15543087D01*
X26669807Y-15285944D01*
X26941236Y-15571659D02*
X26912664Y-15585944D01*
X26855521Y-15585944D01*
X26826950Y-15571659D01*
X26812664Y-15543087D01*
X26812664Y-15428801D01*
X26826950Y-15400230D01*
X26855521Y-15385944D01*
X26912664Y-15385944D01*
X26941236Y-15400230D01*
X26955521Y-15428801D01*
X26955521Y-15457373D01*
X26812664Y-15485944D01*
X27069807Y-15571659D02*
X27098378Y-15585944D01*
X27155521Y-15585944D01*
X27184093Y-15571659D01*
X27198378Y-15543087D01*
X27198378Y-15528801D01*
X27184093Y-15500230D01*
X27155521Y-15485944D01*
X27112664Y-15485944D01*
X27084093Y-15471659D01*
X27069807Y-15443087D01*
X27069807Y-15428801D01*
X27084093Y-15400230D01*
X27112664Y-15385944D01*
X27155521Y-15385944D01*
X27184093Y-15400230D01*
X27298378Y-15700230D02*
X27312664Y-15685944D01*
X27341236Y-15643087D01*
X27355521Y-15614516D01*
X27369807Y-15571659D01*
X27384093Y-15500230D01*
X27384093Y-15443087D01*
X27369807Y-15371659D01*
X27355521Y-15328801D01*
X27341236Y-15300230D01*
X27312664Y-15257373D01*
X27298378Y-15243087D01*
M02*
