G04 #@! TF.FileFunction,Glue,Top*
%FSLAX46Y46*%
G04 Gerber Fmt 4.6, Leading zero omitted, Abs format (unit mm)*
G04 Created by KiCad (PCBNEW 4.0.6) date 05/08/17 07:10:38*
%MOMM*%
%LPD*%
G01*
G04 APERTURE LIST*
%ADD10C,0.100000*%
G04 APERTURE END LIST*
D10*
G36*
X259604400Y-126757600D02*
X259604400Y-126957800D01*
X260404600Y-126957800D01*
X260404600Y-126757600D01*
X259604400Y-126757600D01*
G37*
G36*
X261992000Y-126808400D02*
X261992000Y-127008600D01*
X262792200Y-127008600D01*
X262792200Y-126808400D01*
X261992000Y-126808400D01*
G37*
G36*
X254062400Y-126851400D02*
X254262600Y-126851400D01*
X254262600Y-126051200D01*
X254062400Y-126051200D01*
X254062400Y-126851400D01*
G37*
G36*
X253784800Y-80545600D02*
X254184600Y-80545600D01*
X254184600Y-79545400D01*
X253784800Y-79545400D01*
X253784800Y-80545600D01*
G37*
G36*
X241327000Y-125394800D02*
X241327000Y-125794600D01*
X242327200Y-125794600D01*
X242327200Y-125394800D01*
X241327000Y-125394800D01*
G37*
G36*
X253937200Y-128754800D02*
X254337000Y-128754800D01*
X254337000Y-127754600D01*
X253937200Y-127754600D01*
X253937200Y-128754800D01*
G37*
G36*
X257990000Y-127032200D02*
X257990000Y-126632400D01*
X256989800Y-126632400D01*
X256989800Y-127032200D01*
X257990000Y-127032200D01*
G37*
G36*
X234307600Y-104839200D02*
X234307600Y-105239000D01*
X235307800Y-105239000D01*
X235307800Y-104839200D01*
X234307600Y-104839200D01*
G37*
G36*
X232259800Y-84995200D02*
X232259800Y-84595400D01*
X231259600Y-84595400D01*
X231259600Y-84995200D01*
X232259800Y-84995200D01*
G37*
G36*
X234926800Y-84969800D02*
X234926800Y-84570000D01*
X233926600Y-84570000D01*
X233926600Y-84969800D01*
X234926800Y-84969800D01*
G37*
G36*
X262649400Y-95912600D02*
X263049200Y-95912600D01*
X263049200Y-94912400D01*
X262649400Y-94912400D01*
X262649400Y-95912600D01*
G37*
G36*
X263023800Y-91229400D02*
X262624000Y-91229400D01*
X262624000Y-92229600D01*
X263023800Y-92229600D01*
X263023800Y-91229400D01*
G37*
G36*
X259449000Y-86720900D02*
X259848800Y-86720900D01*
X259848800Y-86120900D01*
X259449000Y-86120900D01*
X259449000Y-86720900D01*
G37*
G36*
X262411200Y-83142800D02*
X262411200Y-82942600D01*
X261611000Y-82942600D01*
X261611000Y-83142800D01*
X262411200Y-83142800D01*
G37*
G36*
X259337800Y-83142800D02*
X259337800Y-82942600D01*
X258537600Y-82942600D01*
X258537600Y-83142800D01*
X259337800Y-83142800D01*
G37*
G36*
X257483600Y-92210600D02*
X257483600Y-92010400D01*
X256683400Y-92010400D01*
X256683400Y-92210600D01*
X257483600Y-92210600D01*
G37*
G36*
X253810200Y-85803400D02*
X254210000Y-85803400D01*
X254210000Y-84803200D01*
X253810200Y-84803200D01*
X253810200Y-85803400D01*
G37*
G36*
X254084800Y-82363200D02*
X253884600Y-82363200D01*
X253884600Y-83163400D01*
X254084800Y-83163400D01*
X254084800Y-82363200D01*
G37*
G36*
X236238000Y-104839200D02*
X236238000Y-105239000D01*
X237238200Y-105239000D01*
X237238200Y-104839200D01*
X236238000Y-104839200D01*
G37*
G36*
X239219400Y-105239000D02*
X239219400Y-104839200D01*
X238219200Y-104839200D01*
X238219200Y-105239000D01*
X239219400Y-105239000D01*
G37*
G36*
X241200600Y-105239000D02*
X241200600Y-104839200D01*
X240200400Y-104839200D01*
X240200400Y-105239000D01*
X241200600Y-105239000D01*
G37*
M02*
