G04 #@! TF.FileFunction,Soldermask,Bot*
%FSLAX46Y46*%
G04 Gerber Fmt 4.6, Leading zero omitted, Abs format (unit mm)*
G04 Created by KiCad (PCBNEW 4.0.6) date 05/07/17 20:41:04*
%MOMM*%
%LPD*%
G01*
G04 APERTURE LIST*
%ADD10C,0.100000*%
%ADD11O,1.924000X3.448000*%
%ADD12R,1.600000X1.600000*%
%ADD13C,2.940000*%
%ADD14C,3.575000*%
%ADD15R,0.750000X1.205000*%
%ADD16R,1.205000X0.800000*%
G04 APERTURE END LIST*
D10*
D11*
X256042100Y-131099500D03*
X258582100Y-131099500D03*
X261122100Y-131099500D03*
D12*
X234985500Y-104039900D03*
X234985500Y-106139900D03*
D13*
X225707100Y-117285900D03*
D14*
X225707100Y-117285900D03*
D13*
X249703100Y-117110900D03*
D14*
X249703100Y-117110900D03*
D13*
X249700100Y-93294900D03*
D14*
X249700100Y-93294900D03*
D13*
X225779100Y-93237900D03*
D14*
X225779100Y-93237900D03*
D13*
X245730100Y-113257900D03*
D14*
X245730100Y-113257900D03*
D13*
X229670100Y-113285900D03*
D14*
X229670100Y-113285900D03*
D13*
X245697100Y-97322900D03*
D14*
X245697100Y-97322900D03*
D13*
X229771100Y-97283900D03*
D14*
X229771100Y-97283900D03*
D13*
X257755100Y-125137900D03*
D14*
X257755100Y-125137900D03*
D13*
X217629100Y-125047900D03*
D14*
X217629100Y-125047900D03*
D13*
X257669100Y-85165900D03*
D14*
X257669100Y-85165900D03*
D13*
X217680100Y-85114900D03*
D14*
X217680100Y-85114900D03*
D13*
X253761100Y-121206900D03*
D14*
X253761100Y-121206900D03*
D13*
X221799100Y-121302900D03*
D14*
X221799100Y-121302900D03*
D13*
X253667100Y-89292900D03*
D14*
X253667100Y-89292900D03*
D13*
X221779100Y-89231900D03*
D14*
X221779100Y-89231900D03*
D15*
X237498700Y-103342800D03*
X238248700Y-103342800D03*
X238998700Y-103342800D03*
X239748700Y-103342800D03*
X240498700Y-103342800D03*
D16*
X240771200Y-104315300D03*
D15*
X240498700Y-106887800D03*
X239748700Y-106887800D03*
X238998700Y-106887800D03*
X238248700Y-106887800D03*
X237498700Y-106887800D03*
D16*
X237226200Y-104940300D03*
X240771200Y-105115300D03*
M02*
