G04 #@! TF.FileFunction,Other,Comment*
%FSLAX46Y46*%
G04 Gerber Fmt 4.6, Leading zero omitted, Abs format (unit mm)*
G04 Created by KiCad (PCBNEW 4.0.6) date 05/08/17 07:32:33*
%MOMM*%
%LPD*%
G01*
G04 APERTURE LIST*
%ADD10C,0.100000*%
%ADD11C,0.254000*%
%ADD12C,0.080000*%
G04 APERTURE END LIST*
D10*
D11*
X226342100Y-117285900D02*
G75*
G03X226342100Y-117285900I-635000J0D01*
G01*
X250338100Y-117110900D02*
G75*
G03X250338100Y-117110900I-635000J0D01*
G01*
X250335100Y-93294900D02*
G75*
G03X250335100Y-93294900I-635000J0D01*
G01*
X226414100Y-93237900D02*
G75*
G03X226414100Y-93237900I-635000J0D01*
G01*
X246365100Y-113257900D02*
G75*
G03X246365100Y-113257900I-635000J0D01*
G01*
X230305100Y-113285900D02*
G75*
G03X230305100Y-113285900I-635000J0D01*
G01*
X246332100Y-97322900D02*
G75*
G03X246332100Y-97322900I-635000J0D01*
G01*
X230406100Y-97283900D02*
G75*
G03X230406100Y-97283900I-635000J0D01*
G01*
X254396100Y-121206900D02*
G75*
G03X254396100Y-121206900I-635000J0D01*
G01*
X222434100Y-121302900D02*
G75*
G03X222434100Y-121302900I-635000J0D01*
G01*
X254302100Y-89292900D02*
G75*
G03X254302100Y-89292900I-635000J0D01*
G01*
X222414100Y-89231900D02*
G75*
G03X222414100Y-89231900I-635000J0D01*
G01*
D12*
X211638690Y-91508129D02*
X212362500Y-91779557D01*
X211638690Y-92050986D01*
X212679166Y-91191462D02*
X213222023Y-91191462D01*
X212950595Y-92141462D02*
X212950595Y-91191462D01*
X213538690Y-92141462D02*
X213538690Y-91191462D01*
X213900595Y-91191462D01*
X213991071Y-91236700D01*
X214036310Y-91281938D01*
X214081548Y-91372414D01*
X214081548Y-91508129D01*
X214036310Y-91598605D01*
X213991071Y-91643843D01*
X213900595Y-91689081D01*
X213538690Y-91689081D01*
X214262500Y-92231938D02*
X214986310Y-92231938D01*
X215167262Y-92096224D02*
X215302977Y-92141462D01*
X215529167Y-92141462D01*
X215619643Y-92096224D01*
X215664881Y-92050986D01*
X215710120Y-91960510D01*
X215710120Y-91870033D01*
X215664881Y-91779557D01*
X215619643Y-91734319D01*
X215529167Y-91689081D01*
X215348215Y-91643843D01*
X215257739Y-91598605D01*
X215212500Y-91553367D01*
X215167262Y-91462890D01*
X215167262Y-91372414D01*
X215212500Y-91281938D01*
X215257739Y-91236700D01*
X215348215Y-91191462D01*
X215574405Y-91191462D01*
X215710120Y-91236700D01*
X216117262Y-92141462D02*
X216117262Y-91191462D01*
X217067263Y-91236700D02*
X216976786Y-91191462D01*
X216841072Y-91191462D01*
X216705358Y-91236700D01*
X216614882Y-91327176D01*
X216569643Y-91417652D01*
X216524405Y-91598605D01*
X216524405Y-91734319D01*
X216569643Y-91915271D01*
X216614882Y-92005748D01*
X216705358Y-92096224D01*
X216841072Y-92141462D01*
X216931548Y-92141462D01*
X217067263Y-92096224D01*
X217112501Y-92050986D01*
X217112501Y-91734319D01*
X216931548Y-91734319D01*
X217519643Y-92141462D02*
X217519643Y-91191462D01*
X218062501Y-92141462D01*
X218062501Y-91191462D01*
X218469643Y-91870033D02*
X218922024Y-91870033D01*
X218379167Y-92141462D02*
X218695834Y-91191462D01*
X219012501Y-92141462D01*
X219781548Y-92141462D02*
X219329167Y-92141462D01*
X219329167Y-91191462D01*
X219872025Y-92231938D02*
X220595835Y-92231938D01*
X220822025Y-92141462D02*
X220822025Y-91191462D01*
X221364883Y-92141462D01*
X221364883Y-91191462D01*
X221772025Y-91870033D02*
X222224406Y-91870033D01*
X221681549Y-92141462D02*
X221998216Y-91191462D01*
X222314883Y-92141462D01*
X222631549Y-92141462D02*
X222631549Y-91191462D01*
X222948216Y-91870033D01*
X223264883Y-91191462D01*
X223264883Y-92141462D01*
X223717263Y-91643843D02*
X224033930Y-91643843D01*
X224169644Y-92141462D02*
X223717263Y-92141462D01*
X223717263Y-91191462D01*
X224169644Y-91191462D01*
X213240690Y-83684929D02*
X213964500Y-83956357D01*
X213240690Y-84227786D01*
X214281166Y-83368262D02*
X214824023Y-83368262D01*
X214552595Y-84318262D02*
X214552595Y-83368262D01*
X215140690Y-84318262D02*
X215140690Y-83368262D01*
X215502595Y-83368262D01*
X215593071Y-83413500D01*
X215638310Y-83458738D01*
X215683548Y-83549214D01*
X215683548Y-83684929D01*
X215638310Y-83775405D01*
X215593071Y-83820643D01*
X215502595Y-83865881D01*
X215140690Y-83865881D01*
X215864500Y-84408738D02*
X216588310Y-84408738D01*
X216769262Y-84273024D02*
X216904977Y-84318262D01*
X217131167Y-84318262D01*
X217221643Y-84273024D01*
X217266881Y-84227786D01*
X217312120Y-84137310D01*
X217312120Y-84046833D01*
X217266881Y-83956357D01*
X217221643Y-83911119D01*
X217131167Y-83865881D01*
X216950215Y-83820643D01*
X216859739Y-83775405D01*
X216814500Y-83730167D01*
X216769262Y-83639690D01*
X216769262Y-83549214D01*
X216814500Y-83458738D01*
X216859739Y-83413500D01*
X216950215Y-83368262D01*
X217176405Y-83368262D01*
X217312120Y-83413500D01*
X217719262Y-84318262D02*
X217719262Y-83368262D01*
X218669263Y-83413500D02*
X218578786Y-83368262D01*
X218443072Y-83368262D01*
X218307358Y-83413500D01*
X218216882Y-83503976D01*
X218171643Y-83594452D01*
X218126405Y-83775405D01*
X218126405Y-83911119D01*
X218171643Y-84092071D01*
X218216882Y-84182548D01*
X218307358Y-84273024D01*
X218443072Y-84318262D01*
X218533548Y-84318262D01*
X218669263Y-84273024D01*
X218714501Y-84227786D01*
X218714501Y-83911119D01*
X218533548Y-83911119D01*
X219121643Y-84318262D02*
X219121643Y-83368262D01*
X219664501Y-84318262D01*
X219664501Y-83368262D01*
X220071643Y-84046833D02*
X220524024Y-84046833D01*
X219981167Y-84318262D02*
X220297834Y-83368262D01*
X220614501Y-84318262D01*
X221383548Y-84318262D02*
X220931167Y-84318262D01*
X220931167Y-83368262D01*
X221474025Y-84408738D02*
X222197835Y-84408738D01*
X222424025Y-84318262D02*
X222424025Y-83368262D01*
X222966883Y-84318262D01*
X222966883Y-83368262D01*
X223374025Y-84046833D02*
X223826406Y-84046833D01*
X223283549Y-84318262D02*
X223600216Y-83368262D01*
X223916883Y-84318262D01*
X224233549Y-84318262D02*
X224233549Y-83368262D01*
X224550216Y-84046833D01*
X224866883Y-83368262D01*
X224866883Y-84318262D01*
X225319263Y-83820643D02*
X225635930Y-83820643D01*
X225771644Y-84318262D02*
X225319263Y-84318262D01*
X225319263Y-83368262D01*
X225771644Y-83368262D01*
X211612290Y-104944729D02*
X212336100Y-105216157D01*
X211612290Y-105487586D01*
X212652766Y-104628062D02*
X213195623Y-104628062D01*
X212924195Y-105578062D02*
X212924195Y-104628062D01*
X213512290Y-105578062D02*
X213512290Y-104628062D01*
X213874195Y-104628062D01*
X213964671Y-104673300D01*
X214009910Y-104718538D01*
X214055148Y-104809014D01*
X214055148Y-104944729D01*
X214009910Y-105035205D01*
X213964671Y-105080443D01*
X213874195Y-105125681D01*
X213512290Y-105125681D01*
X214236100Y-105668538D02*
X214959910Y-105668538D01*
X215140862Y-105532824D02*
X215276577Y-105578062D01*
X215502767Y-105578062D01*
X215593243Y-105532824D01*
X215638481Y-105487586D01*
X215683720Y-105397110D01*
X215683720Y-105306633D01*
X215638481Y-105216157D01*
X215593243Y-105170919D01*
X215502767Y-105125681D01*
X215321815Y-105080443D01*
X215231339Y-105035205D01*
X215186100Y-104989967D01*
X215140862Y-104899490D01*
X215140862Y-104809014D01*
X215186100Y-104718538D01*
X215231339Y-104673300D01*
X215321815Y-104628062D01*
X215548005Y-104628062D01*
X215683720Y-104673300D01*
X216090862Y-105578062D02*
X216090862Y-104628062D01*
X217040863Y-104673300D02*
X216950386Y-104628062D01*
X216814672Y-104628062D01*
X216678958Y-104673300D01*
X216588482Y-104763776D01*
X216543243Y-104854252D01*
X216498005Y-105035205D01*
X216498005Y-105170919D01*
X216543243Y-105351871D01*
X216588482Y-105442348D01*
X216678958Y-105532824D01*
X216814672Y-105578062D01*
X216905148Y-105578062D01*
X217040863Y-105532824D01*
X217086101Y-105487586D01*
X217086101Y-105170919D01*
X216905148Y-105170919D01*
X217493243Y-105578062D02*
X217493243Y-104628062D01*
X218036101Y-105578062D01*
X218036101Y-104628062D01*
X218443243Y-105306633D02*
X218895624Y-105306633D01*
X218352767Y-105578062D02*
X218669434Y-104628062D01*
X218986101Y-105578062D01*
X219755148Y-105578062D02*
X219302767Y-105578062D01*
X219302767Y-104628062D01*
X219845625Y-105668538D02*
X220569435Y-105668538D01*
X220795625Y-105578062D02*
X220795625Y-104628062D01*
X221338483Y-105578062D01*
X221338483Y-104628062D01*
X221745625Y-105306633D02*
X222198006Y-105306633D01*
X221655149Y-105578062D02*
X221971816Y-104628062D01*
X222288483Y-105578062D01*
X222605149Y-105578062D02*
X222605149Y-104628062D01*
X222921816Y-105306633D01*
X223238483Y-104628062D01*
X223238483Y-105578062D01*
X223690863Y-105080443D02*
X224007530Y-105080443D01*
X224143244Y-105578062D02*
X223690863Y-105578062D01*
X223690863Y-104628062D01*
X224143244Y-104628062D01*
X211637690Y-107611729D02*
X212361500Y-107883157D01*
X211637690Y-108154586D01*
X212678166Y-107295062D02*
X213221023Y-107295062D01*
X212949595Y-108245062D02*
X212949595Y-107295062D01*
X213537690Y-108245062D02*
X213537690Y-107295062D01*
X213899595Y-107295062D01*
X213990071Y-107340300D01*
X214035310Y-107385538D01*
X214080548Y-107476014D01*
X214080548Y-107611729D01*
X214035310Y-107702205D01*
X213990071Y-107747443D01*
X213899595Y-107792681D01*
X213537690Y-107792681D01*
X214261500Y-108335538D02*
X214985310Y-108335538D01*
X215166262Y-108199824D02*
X215301977Y-108245062D01*
X215528167Y-108245062D01*
X215618643Y-108199824D01*
X215663881Y-108154586D01*
X215709120Y-108064110D01*
X215709120Y-107973633D01*
X215663881Y-107883157D01*
X215618643Y-107837919D01*
X215528167Y-107792681D01*
X215347215Y-107747443D01*
X215256739Y-107702205D01*
X215211500Y-107656967D01*
X215166262Y-107566490D01*
X215166262Y-107476014D01*
X215211500Y-107385538D01*
X215256739Y-107340300D01*
X215347215Y-107295062D01*
X215573405Y-107295062D01*
X215709120Y-107340300D01*
X216116262Y-108245062D02*
X216116262Y-107295062D01*
X217066263Y-107340300D02*
X216975786Y-107295062D01*
X216840072Y-107295062D01*
X216704358Y-107340300D01*
X216613882Y-107430776D01*
X216568643Y-107521252D01*
X216523405Y-107702205D01*
X216523405Y-107837919D01*
X216568643Y-108018871D01*
X216613882Y-108109348D01*
X216704358Y-108199824D01*
X216840072Y-108245062D01*
X216930548Y-108245062D01*
X217066263Y-108199824D01*
X217111501Y-108154586D01*
X217111501Y-107837919D01*
X216930548Y-107837919D01*
X217518643Y-108245062D02*
X217518643Y-107295062D01*
X218061501Y-108245062D01*
X218061501Y-107295062D01*
X218468643Y-107973633D02*
X218921024Y-107973633D01*
X218378167Y-108245062D02*
X218694834Y-107295062D01*
X219011501Y-108245062D01*
X219780548Y-108245062D02*
X219328167Y-108245062D01*
X219328167Y-107295062D01*
X219871025Y-108335538D02*
X220594835Y-108335538D01*
X220821025Y-108245062D02*
X220821025Y-107295062D01*
X221363883Y-108245062D01*
X221363883Y-107295062D01*
X221771025Y-107973633D02*
X222223406Y-107973633D01*
X221680549Y-108245062D02*
X221997216Y-107295062D01*
X222313883Y-108245062D01*
X222630549Y-108245062D02*
X222630549Y-107295062D01*
X222947216Y-107973633D01*
X223263883Y-107295062D01*
X223263883Y-108245062D01*
X223716263Y-107747443D02*
X224032930Y-107747443D01*
X224168644Y-108245062D02*
X223716263Y-108245062D01*
X223716263Y-107295062D01*
X224168644Y-107295062D01*
X211813690Y-110304129D02*
X212537500Y-110575557D01*
X211813690Y-110846986D01*
X212854166Y-109987462D02*
X213397023Y-109987462D01*
X213125595Y-110937462D02*
X213125595Y-109987462D01*
X213713690Y-110937462D02*
X213713690Y-109987462D01*
X214075595Y-109987462D01*
X214166071Y-110032700D01*
X214211310Y-110077938D01*
X214256548Y-110168414D01*
X214256548Y-110304129D01*
X214211310Y-110394605D01*
X214166071Y-110439843D01*
X214075595Y-110485081D01*
X213713690Y-110485081D01*
X214437500Y-111027938D02*
X215161310Y-111027938D01*
X215342262Y-110892224D02*
X215477977Y-110937462D01*
X215704167Y-110937462D01*
X215794643Y-110892224D01*
X215839881Y-110846986D01*
X215885120Y-110756510D01*
X215885120Y-110666033D01*
X215839881Y-110575557D01*
X215794643Y-110530319D01*
X215704167Y-110485081D01*
X215523215Y-110439843D01*
X215432739Y-110394605D01*
X215387500Y-110349367D01*
X215342262Y-110258890D01*
X215342262Y-110168414D01*
X215387500Y-110077938D01*
X215432739Y-110032700D01*
X215523215Y-109987462D01*
X215749405Y-109987462D01*
X215885120Y-110032700D01*
X216292262Y-110937462D02*
X216292262Y-109987462D01*
X217242263Y-110032700D02*
X217151786Y-109987462D01*
X217016072Y-109987462D01*
X216880358Y-110032700D01*
X216789882Y-110123176D01*
X216744643Y-110213652D01*
X216699405Y-110394605D01*
X216699405Y-110530319D01*
X216744643Y-110711271D01*
X216789882Y-110801748D01*
X216880358Y-110892224D01*
X217016072Y-110937462D01*
X217106548Y-110937462D01*
X217242263Y-110892224D01*
X217287501Y-110846986D01*
X217287501Y-110530319D01*
X217106548Y-110530319D01*
X217694643Y-110937462D02*
X217694643Y-109987462D01*
X218237501Y-110937462D01*
X218237501Y-109987462D01*
X218644643Y-110666033D02*
X219097024Y-110666033D01*
X218554167Y-110937462D02*
X218870834Y-109987462D01*
X219187501Y-110937462D01*
X219956548Y-110937462D02*
X219504167Y-110937462D01*
X219504167Y-109987462D01*
X220047025Y-111027938D02*
X220770835Y-111027938D01*
X220997025Y-110937462D02*
X220997025Y-109987462D01*
X221539883Y-110937462D01*
X221539883Y-109987462D01*
X221947025Y-110666033D02*
X222399406Y-110666033D01*
X221856549Y-110937462D02*
X222173216Y-109987462D01*
X222489883Y-110937462D01*
X222806549Y-110937462D02*
X222806549Y-109987462D01*
X223123216Y-110666033D01*
X223439883Y-109987462D01*
X223439883Y-110937462D01*
X223892263Y-110439843D02*
X224208930Y-110439843D01*
X224344644Y-110937462D02*
X223892263Y-110937462D01*
X223892263Y-109987462D01*
X224344644Y-109987462D01*
X205095242Y-94650129D02*
X205819052Y-94921557D01*
X205095242Y-95192986D01*
X206135718Y-94333462D02*
X206678575Y-94333462D01*
X206407147Y-95283462D02*
X206407147Y-94333462D01*
X206995242Y-95283462D02*
X206995242Y-94333462D01*
X207357147Y-94333462D01*
X207447623Y-94378700D01*
X207492862Y-94423938D01*
X207538100Y-94514414D01*
X207538100Y-94650129D01*
X207492862Y-94740605D01*
X207447623Y-94785843D01*
X207357147Y-94831081D01*
X206995242Y-94831081D01*
X207719052Y-95373938D02*
X208442862Y-95373938D01*
X208623814Y-95238224D02*
X208759529Y-95283462D01*
X208985719Y-95283462D01*
X209076195Y-95238224D01*
X209121433Y-95192986D01*
X209166672Y-95102510D01*
X209166672Y-95012033D01*
X209121433Y-94921557D01*
X209076195Y-94876319D01*
X208985719Y-94831081D01*
X208804767Y-94785843D01*
X208714291Y-94740605D01*
X208669052Y-94695367D01*
X208623814Y-94604890D01*
X208623814Y-94514414D01*
X208669052Y-94423938D01*
X208714291Y-94378700D01*
X208804767Y-94333462D01*
X209030957Y-94333462D01*
X209166672Y-94378700D01*
X209573814Y-95283462D02*
X209573814Y-94333462D01*
X210523815Y-94378700D02*
X210433338Y-94333462D01*
X210297624Y-94333462D01*
X210161910Y-94378700D01*
X210071434Y-94469176D01*
X210026195Y-94559652D01*
X209980957Y-94740605D01*
X209980957Y-94876319D01*
X210026195Y-95057271D01*
X210071434Y-95147748D01*
X210161910Y-95238224D01*
X210297624Y-95283462D01*
X210388100Y-95283462D01*
X210523815Y-95238224D01*
X210569053Y-95192986D01*
X210569053Y-94876319D01*
X210388100Y-94876319D01*
X210976195Y-95283462D02*
X210976195Y-94333462D01*
X211519053Y-95283462D01*
X211519053Y-94333462D01*
X211926195Y-95012033D02*
X212378576Y-95012033D01*
X211835719Y-95283462D02*
X212152386Y-94333462D01*
X212469053Y-95283462D01*
X213238100Y-95283462D02*
X212785719Y-95283462D01*
X212785719Y-94333462D01*
X213328577Y-95373938D02*
X214052387Y-95373938D01*
X214278577Y-95283462D02*
X214278577Y-94333462D01*
X214821435Y-95283462D01*
X214821435Y-94333462D01*
X215228577Y-95012033D02*
X215680958Y-95012033D01*
X215138101Y-95283462D02*
X215454768Y-94333462D01*
X215771435Y-95283462D01*
X216088101Y-95283462D02*
X216088101Y-94333462D01*
X216404768Y-95012033D01*
X216721435Y-94333462D01*
X216721435Y-95283462D01*
X217173815Y-94785843D02*
X217490482Y-94785843D01*
X217626196Y-95283462D02*
X217173815Y-95283462D01*
X217173815Y-94333462D01*
X217626196Y-94333462D01*
X205118842Y-116316329D02*
X205842652Y-116587757D01*
X205118842Y-116859186D01*
X206159318Y-115999662D02*
X206702175Y-115999662D01*
X206430747Y-116949662D02*
X206430747Y-115999662D01*
X207018842Y-116949662D02*
X207018842Y-115999662D01*
X207380747Y-115999662D01*
X207471223Y-116044900D01*
X207516462Y-116090138D01*
X207561700Y-116180614D01*
X207561700Y-116316329D01*
X207516462Y-116406805D01*
X207471223Y-116452043D01*
X207380747Y-116497281D01*
X207018842Y-116497281D01*
X207742652Y-117040138D02*
X208466462Y-117040138D01*
X208647414Y-116904424D02*
X208783129Y-116949662D01*
X209009319Y-116949662D01*
X209099795Y-116904424D01*
X209145033Y-116859186D01*
X209190272Y-116768710D01*
X209190272Y-116678233D01*
X209145033Y-116587757D01*
X209099795Y-116542519D01*
X209009319Y-116497281D01*
X208828367Y-116452043D01*
X208737891Y-116406805D01*
X208692652Y-116361567D01*
X208647414Y-116271090D01*
X208647414Y-116180614D01*
X208692652Y-116090138D01*
X208737891Y-116044900D01*
X208828367Y-115999662D01*
X209054557Y-115999662D01*
X209190272Y-116044900D01*
X209597414Y-116949662D02*
X209597414Y-115999662D01*
X210547415Y-116044900D02*
X210456938Y-115999662D01*
X210321224Y-115999662D01*
X210185510Y-116044900D01*
X210095034Y-116135376D01*
X210049795Y-116225852D01*
X210004557Y-116406805D01*
X210004557Y-116542519D01*
X210049795Y-116723471D01*
X210095034Y-116813948D01*
X210185510Y-116904424D01*
X210321224Y-116949662D01*
X210411700Y-116949662D01*
X210547415Y-116904424D01*
X210592653Y-116859186D01*
X210592653Y-116542519D01*
X210411700Y-116542519D01*
X210999795Y-116949662D02*
X210999795Y-115999662D01*
X211542653Y-116949662D01*
X211542653Y-115999662D01*
X211949795Y-116678233D02*
X212402176Y-116678233D01*
X211859319Y-116949662D02*
X212175986Y-115999662D01*
X212492653Y-116949662D01*
X213261700Y-116949662D02*
X212809319Y-116949662D01*
X212809319Y-115999662D01*
X213352177Y-117040138D02*
X214075987Y-117040138D01*
X214302177Y-116949662D02*
X214302177Y-115999662D01*
X214845035Y-116949662D01*
X214845035Y-115999662D01*
X215252177Y-116678233D02*
X215704558Y-116678233D01*
X215161701Y-116949662D02*
X215478368Y-115999662D01*
X215795035Y-116949662D01*
X216111701Y-116949662D02*
X216111701Y-115999662D01*
X216428368Y-116678233D01*
X216745035Y-115999662D01*
X216745035Y-116949662D01*
X217197415Y-116452043D02*
X217514082Y-116452043D01*
X217649796Y-116949662D02*
X217197415Y-116949662D01*
X217197415Y-115999662D01*
X217649796Y-115999662D01*
X211615090Y-99610729D02*
X212338900Y-99882157D01*
X211615090Y-100153586D01*
X212655566Y-99294062D02*
X213198423Y-99294062D01*
X212926995Y-100244062D02*
X212926995Y-99294062D01*
X213515090Y-100244062D02*
X213515090Y-99294062D01*
X213876995Y-99294062D01*
X213967471Y-99339300D01*
X214012710Y-99384538D01*
X214057948Y-99475014D01*
X214057948Y-99610729D01*
X214012710Y-99701205D01*
X213967471Y-99746443D01*
X213876995Y-99791681D01*
X213515090Y-99791681D01*
X214238900Y-100334538D02*
X214962710Y-100334538D01*
X215143662Y-100198824D02*
X215279377Y-100244062D01*
X215505567Y-100244062D01*
X215596043Y-100198824D01*
X215641281Y-100153586D01*
X215686520Y-100063110D01*
X215686520Y-99972633D01*
X215641281Y-99882157D01*
X215596043Y-99836919D01*
X215505567Y-99791681D01*
X215324615Y-99746443D01*
X215234139Y-99701205D01*
X215188900Y-99655967D01*
X215143662Y-99565490D01*
X215143662Y-99475014D01*
X215188900Y-99384538D01*
X215234139Y-99339300D01*
X215324615Y-99294062D01*
X215550805Y-99294062D01*
X215686520Y-99339300D01*
X216093662Y-100244062D02*
X216093662Y-99294062D01*
X217043663Y-99339300D02*
X216953186Y-99294062D01*
X216817472Y-99294062D01*
X216681758Y-99339300D01*
X216591282Y-99429776D01*
X216546043Y-99520252D01*
X216500805Y-99701205D01*
X216500805Y-99836919D01*
X216546043Y-100017871D01*
X216591282Y-100108348D01*
X216681758Y-100198824D01*
X216817472Y-100244062D01*
X216907948Y-100244062D01*
X217043663Y-100198824D01*
X217088901Y-100153586D01*
X217088901Y-99836919D01*
X216907948Y-99836919D01*
X217496043Y-100244062D02*
X217496043Y-99294062D01*
X218038901Y-100244062D01*
X218038901Y-99294062D01*
X218446043Y-99972633D02*
X218898424Y-99972633D01*
X218355567Y-100244062D02*
X218672234Y-99294062D01*
X218988901Y-100244062D01*
X219757948Y-100244062D02*
X219305567Y-100244062D01*
X219305567Y-99294062D01*
X219848425Y-100334538D02*
X220572235Y-100334538D01*
X220798425Y-100244062D02*
X220798425Y-99294062D01*
X221341283Y-100244062D01*
X221341283Y-99294062D01*
X221748425Y-99972633D02*
X222200806Y-99972633D01*
X221657949Y-100244062D02*
X221974616Y-99294062D01*
X222291283Y-100244062D01*
X222607949Y-100244062D02*
X222607949Y-99294062D01*
X222924616Y-99972633D01*
X223241283Y-99294062D01*
X223241283Y-100244062D01*
X223693663Y-99746443D02*
X224010330Y-99746443D01*
X224146044Y-100244062D02*
X223693663Y-100244062D01*
X223693663Y-99294062D01*
X224146044Y-99294062D01*
X224663290Y-119782329D02*
X225387100Y-120053757D01*
X224663290Y-120325186D01*
X225703766Y-119465662D02*
X226246623Y-119465662D01*
X225975195Y-120415662D02*
X225975195Y-119465662D01*
X226563290Y-120415662D02*
X226563290Y-119465662D01*
X226925195Y-119465662D01*
X227015671Y-119510900D01*
X227060910Y-119556138D01*
X227106148Y-119646614D01*
X227106148Y-119782329D01*
X227060910Y-119872805D01*
X227015671Y-119918043D01*
X226925195Y-119963281D01*
X226563290Y-119963281D01*
X227287100Y-120506138D02*
X228010910Y-120506138D01*
X228191862Y-120370424D02*
X228327577Y-120415662D01*
X228553767Y-120415662D01*
X228644243Y-120370424D01*
X228689481Y-120325186D01*
X228734720Y-120234710D01*
X228734720Y-120144233D01*
X228689481Y-120053757D01*
X228644243Y-120008519D01*
X228553767Y-119963281D01*
X228372815Y-119918043D01*
X228282339Y-119872805D01*
X228237100Y-119827567D01*
X228191862Y-119737090D01*
X228191862Y-119646614D01*
X228237100Y-119556138D01*
X228282339Y-119510900D01*
X228372815Y-119465662D01*
X228599005Y-119465662D01*
X228734720Y-119510900D01*
X229141862Y-120415662D02*
X229141862Y-119465662D01*
X230091863Y-119510900D02*
X230001386Y-119465662D01*
X229865672Y-119465662D01*
X229729958Y-119510900D01*
X229639482Y-119601376D01*
X229594243Y-119691852D01*
X229549005Y-119872805D01*
X229549005Y-120008519D01*
X229594243Y-120189471D01*
X229639482Y-120279948D01*
X229729958Y-120370424D01*
X229865672Y-120415662D01*
X229956148Y-120415662D01*
X230091863Y-120370424D01*
X230137101Y-120325186D01*
X230137101Y-120008519D01*
X229956148Y-120008519D01*
X230544243Y-120415662D02*
X230544243Y-119465662D01*
X231087101Y-120415662D01*
X231087101Y-119465662D01*
X231494243Y-120144233D02*
X231946624Y-120144233D01*
X231403767Y-120415662D02*
X231720434Y-119465662D01*
X232037101Y-120415662D01*
X232806148Y-120415662D02*
X232353767Y-120415662D01*
X232353767Y-119465662D01*
X232896625Y-120506138D02*
X233620435Y-120506138D01*
X233846625Y-120415662D02*
X233846625Y-119465662D01*
X234389483Y-120415662D01*
X234389483Y-119465662D01*
X234796625Y-120144233D02*
X235249006Y-120144233D01*
X234706149Y-120415662D02*
X235022816Y-119465662D01*
X235339483Y-120415662D01*
X235656149Y-120415662D02*
X235656149Y-119465662D01*
X235972816Y-120144233D01*
X236289483Y-119465662D01*
X236289483Y-120415662D01*
X236741863Y-119918043D02*
X237058530Y-119918043D01*
X237194244Y-120415662D02*
X236741863Y-120415662D01*
X236741863Y-119465662D01*
X237194244Y-119465662D01*
X248659290Y-119607329D02*
X249383100Y-119878757D01*
X248659290Y-120150186D01*
X249699766Y-119290662D02*
X250242623Y-119290662D01*
X249971195Y-120240662D02*
X249971195Y-119290662D01*
X250559290Y-120240662D02*
X250559290Y-119290662D01*
X250921195Y-119290662D01*
X251011671Y-119335900D01*
X251056910Y-119381138D01*
X251102148Y-119471614D01*
X251102148Y-119607329D01*
X251056910Y-119697805D01*
X251011671Y-119743043D01*
X250921195Y-119788281D01*
X250559290Y-119788281D01*
X251283100Y-120331138D02*
X252006910Y-120331138D01*
X252187862Y-120195424D02*
X252323577Y-120240662D01*
X252549767Y-120240662D01*
X252640243Y-120195424D01*
X252685481Y-120150186D01*
X252730720Y-120059710D01*
X252730720Y-119969233D01*
X252685481Y-119878757D01*
X252640243Y-119833519D01*
X252549767Y-119788281D01*
X252368815Y-119743043D01*
X252278339Y-119697805D01*
X252233100Y-119652567D01*
X252187862Y-119562090D01*
X252187862Y-119471614D01*
X252233100Y-119381138D01*
X252278339Y-119335900D01*
X252368815Y-119290662D01*
X252595005Y-119290662D01*
X252730720Y-119335900D01*
X253137862Y-120240662D02*
X253137862Y-119290662D01*
X254087863Y-119335900D02*
X253997386Y-119290662D01*
X253861672Y-119290662D01*
X253725958Y-119335900D01*
X253635482Y-119426376D01*
X253590243Y-119516852D01*
X253545005Y-119697805D01*
X253545005Y-119833519D01*
X253590243Y-120014471D01*
X253635482Y-120104948D01*
X253725958Y-120195424D01*
X253861672Y-120240662D01*
X253952148Y-120240662D01*
X254087863Y-120195424D01*
X254133101Y-120150186D01*
X254133101Y-119833519D01*
X253952148Y-119833519D01*
X254540243Y-120240662D02*
X254540243Y-119290662D01*
X255083101Y-120240662D01*
X255083101Y-119290662D01*
X255490243Y-119969233D02*
X255942624Y-119969233D01*
X255399767Y-120240662D02*
X255716434Y-119290662D01*
X256033101Y-120240662D01*
X256802148Y-120240662D02*
X256349767Y-120240662D01*
X256349767Y-119290662D01*
X256892625Y-120331138D02*
X257616435Y-120331138D01*
X257842625Y-120240662D02*
X257842625Y-119290662D01*
X258385483Y-120240662D01*
X258385483Y-119290662D01*
X258792625Y-119969233D02*
X259245006Y-119969233D01*
X258702149Y-120240662D02*
X259018816Y-119290662D01*
X259335483Y-120240662D01*
X259652149Y-120240662D02*
X259652149Y-119290662D01*
X259968816Y-119969233D01*
X260285483Y-119290662D01*
X260285483Y-120240662D01*
X260737863Y-119743043D02*
X261054530Y-119743043D01*
X261190244Y-120240662D02*
X260737863Y-120240662D01*
X260737863Y-119290662D01*
X261190244Y-119290662D01*
X248656290Y-95791329D02*
X249380100Y-96062757D01*
X248656290Y-96334186D01*
X249696766Y-95474662D02*
X250239623Y-95474662D01*
X249968195Y-96424662D02*
X249968195Y-95474662D01*
X250556290Y-96424662D02*
X250556290Y-95474662D01*
X250918195Y-95474662D01*
X251008671Y-95519900D01*
X251053910Y-95565138D01*
X251099148Y-95655614D01*
X251099148Y-95791329D01*
X251053910Y-95881805D01*
X251008671Y-95927043D01*
X250918195Y-95972281D01*
X250556290Y-95972281D01*
X251280100Y-96515138D02*
X252003910Y-96515138D01*
X252184862Y-96379424D02*
X252320577Y-96424662D01*
X252546767Y-96424662D01*
X252637243Y-96379424D01*
X252682481Y-96334186D01*
X252727720Y-96243710D01*
X252727720Y-96153233D01*
X252682481Y-96062757D01*
X252637243Y-96017519D01*
X252546767Y-95972281D01*
X252365815Y-95927043D01*
X252275339Y-95881805D01*
X252230100Y-95836567D01*
X252184862Y-95746090D01*
X252184862Y-95655614D01*
X252230100Y-95565138D01*
X252275339Y-95519900D01*
X252365815Y-95474662D01*
X252592005Y-95474662D01*
X252727720Y-95519900D01*
X253134862Y-96424662D02*
X253134862Y-95474662D01*
X254084863Y-95519900D02*
X253994386Y-95474662D01*
X253858672Y-95474662D01*
X253722958Y-95519900D01*
X253632482Y-95610376D01*
X253587243Y-95700852D01*
X253542005Y-95881805D01*
X253542005Y-96017519D01*
X253587243Y-96198471D01*
X253632482Y-96288948D01*
X253722958Y-96379424D01*
X253858672Y-96424662D01*
X253949148Y-96424662D01*
X254084863Y-96379424D01*
X254130101Y-96334186D01*
X254130101Y-96017519D01*
X253949148Y-96017519D01*
X254537243Y-96424662D02*
X254537243Y-95474662D01*
X255080101Y-96424662D01*
X255080101Y-95474662D01*
X255487243Y-96153233D02*
X255939624Y-96153233D01*
X255396767Y-96424662D02*
X255713434Y-95474662D01*
X256030101Y-96424662D01*
X256799148Y-96424662D02*
X256346767Y-96424662D01*
X256346767Y-95474662D01*
X256889625Y-96515138D02*
X257613435Y-96515138D01*
X257839625Y-96424662D02*
X257839625Y-95474662D01*
X258382483Y-96424662D01*
X258382483Y-95474662D01*
X258789625Y-96153233D02*
X259242006Y-96153233D01*
X258699149Y-96424662D02*
X259015816Y-95474662D01*
X259332483Y-96424662D01*
X259649149Y-96424662D02*
X259649149Y-95474662D01*
X259965816Y-96153233D01*
X260282483Y-95474662D01*
X260282483Y-96424662D01*
X260734863Y-95927043D02*
X261051530Y-95927043D01*
X261187244Y-96424662D02*
X260734863Y-96424662D01*
X260734863Y-95474662D01*
X261187244Y-95474662D01*
X224735290Y-95734329D02*
X225459100Y-96005757D01*
X224735290Y-96277186D01*
X225775766Y-95417662D02*
X226318623Y-95417662D01*
X226047195Y-96367662D02*
X226047195Y-95417662D01*
X226635290Y-96367662D02*
X226635290Y-95417662D01*
X226997195Y-95417662D01*
X227087671Y-95462900D01*
X227132910Y-95508138D01*
X227178148Y-95598614D01*
X227178148Y-95734329D01*
X227132910Y-95824805D01*
X227087671Y-95870043D01*
X226997195Y-95915281D01*
X226635290Y-95915281D01*
X227359100Y-96458138D02*
X228082910Y-96458138D01*
X228263862Y-96322424D02*
X228399577Y-96367662D01*
X228625767Y-96367662D01*
X228716243Y-96322424D01*
X228761481Y-96277186D01*
X228806720Y-96186710D01*
X228806720Y-96096233D01*
X228761481Y-96005757D01*
X228716243Y-95960519D01*
X228625767Y-95915281D01*
X228444815Y-95870043D01*
X228354339Y-95824805D01*
X228309100Y-95779567D01*
X228263862Y-95689090D01*
X228263862Y-95598614D01*
X228309100Y-95508138D01*
X228354339Y-95462900D01*
X228444815Y-95417662D01*
X228671005Y-95417662D01*
X228806720Y-95462900D01*
X229213862Y-96367662D02*
X229213862Y-95417662D01*
X230163863Y-95462900D02*
X230073386Y-95417662D01*
X229937672Y-95417662D01*
X229801958Y-95462900D01*
X229711482Y-95553376D01*
X229666243Y-95643852D01*
X229621005Y-95824805D01*
X229621005Y-95960519D01*
X229666243Y-96141471D01*
X229711482Y-96231948D01*
X229801958Y-96322424D01*
X229937672Y-96367662D01*
X230028148Y-96367662D01*
X230163863Y-96322424D01*
X230209101Y-96277186D01*
X230209101Y-95960519D01*
X230028148Y-95960519D01*
X230616243Y-96367662D02*
X230616243Y-95417662D01*
X231159101Y-96367662D01*
X231159101Y-95417662D01*
X231566243Y-96096233D02*
X232018624Y-96096233D01*
X231475767Y-96367662D02*
X231792434Y-95417662D01*
X232109101Y-96367662D01*
X232878148Y-96367662D02*
X232425767Y-96367662D01*
X232425767Y-95417662D01*
X232968625Y-96458138D02*
X233692435Y-96458138D01*
X233918625Y-96367662D02*
X233918625Y-95417662D01*
X234461483Y-96367662D01*
X234461483Y-95417662D01*
X234868625Y-96096233D02*
X235321006Y-96096233D01*
X234778149Y-96367662D02*
X235094816Y-95417662D01*
X235411483Y-96367662D01*
X235728149Y-96367662D02*
X235728149Y-95417662D01*
X236044816Y-96096233D01*
X236361483Y-95417662D01*
X236361483Y-96367662D01*
X236813863Y-95870043D02*
X237130530Y-95870043D01*
X237266244Y-96367662D02*
X236813863Y-96367662D01*
X236813863Y-95417662D01*
X237266244Y-95417662D01*
X213240690Y-86580529D02*
X213964500Y-86851957D01*
X213240690Y-87123386D01*
X214281166Y-86263862D02*
X214824023Y-86263862D01*
X214552595Y-87213862D02*
X214552595Y-86263862D01*
X215140690Y-87213862D02*
X215140690Y-86263862D01*
X215502595Y-86263862D01*
X215593071Y-86309100D01*
X215638310Y-86354338D01*
X215683548Y-86444814D01*
X215683548Y-86580529D01*
X215638310Y-86671005D01*
X215593071Y-86716243D01*
X215502595Y-86761481D01*
X215140690Y-86761481D01*
X215864500Y-87304338D02*
X216588310Y-87304338D01*
X216769262Y-87168624D02*
X216904977Y-87213862D01*
X217131167Y-87213862D01*
X217221643Y-87168624D01*
X217266881Y-87123386D01*
X217312120Y-87032910D01*
X217312120Y-86942433D01*
X217266881Y-86851957D01*
X217221643Y-86806719D01*
X217131167Y-86761481D01*
X216950215Y-86716243D01*
X216859739Y-86671005D01*
X216814500Y-86625767D01*
X216769262Y-86535290D01*
X216769262Y-86444814D01*
X216814500Y-86354338D01*
X216859739Y-86309100D01*
X216950215Y-86263862D01*
X217176405Y-86263862D01*
X217312120Y-86309100D01*
X217719262Y-87213862D02*
X217719262Y-86263862D01*
X218669263Y-86309100D02*
X218578786Y-86263862D01*
X218443072Y-86263862D01*
X218307358Y-86309100D01*
X218216882Y-86399576D01*
X218171643Y-86490052D01*
X218126405Y-86671005D01*
X218126405Y-86806719D01*
X218171643Y-86987671D01*
X218216882Y-87078148D01*
X218307358Y-87168624D01*
X218443072Y-87213862D01*
X218533548Y-87213862D01*
X218669263Y-87168624D01*
X218714501Y-87123386D01*
X218714501Y-86806719D01*
X218533548Y-86806719D01*
X219121643Y-87213862D02*
X219121643Y-86263862D01*
X219664501Y-87213862D01*
X219664501Y-86263862D01*
X220071643Y-86942433D02*
X220524024Y-86942433D01*
X219981167Y-87213862D02*
X220297834Y-86263862D01*
X220614501Y-87213862D01*
X221383548Y-87213862D02*
X220931167Y-87213862D01*
X220931167Y-86263862D01*
X221474025Y-87304338D02*
X222197835Y-87304338D01*
X222424025Y-87213862D02*
X222424025Y-86263862D01*
X222966883Y-87213862D01*
X222966883Y-86263862D01*
X223374025Y-86942433D02*
X223826406Y-86942433D01*
X223283549Y-87213862D02*
X223600216Y-86263862D01*
X223916883Y-87213862D01*
X224233549Y-87213862D02*
X224233549Y-86263862D01*
X224550216Y-86942433D01*
X224866883Y-86263862D01*
X224866883Y-87213862D01*
X225319263Y-86716243D02*
X225635930Y-86716243D01*
X225771644Y-87213862D02*
X225319263Y-87213862D01*
X225319263Y-86263862D01*
X225771644Y-86263862D01*
X244686290Y-115754329D02*
X245410100Y-116025757D01*
X244686290Y-116297186D01*
X245726766Y-115437662D02*
X246269623Y-115437662D01*
X245998195Y-116387662D02*
X245998195Y-115437662D01*
X246586290Y-116387662D02*
X246586290Y-115437662D01*
X246948195Y-115437662D01*
X247038671Y-115482900D01*
X247083910Y-115528138D01*
X247129148Y-115618614D01*
X247129148Y-115754329D01*
X247083910Y-115844805D01*
X247038671Y-115890043D01*
X246948195Y-115935281D01*
X246586290Y-115935281D01*
X247310100Y-116478138D02*
X248033910Y-116478138D01*
X248214862Y-116342424D02*
X248350577Y-116387662D01*
X248576767Y-116387662D01*
X248667243Y-116342424D01*
X248712481Y-116297186D01*
X248757720Y-116206710D01*
X248757720Y-116116233D01*
X248712481Y-116025757D01*
X248667243Y-115980519D01*
X248576767Y-115935281D01*
X248395815Y-115890043D01*
X248305339Y-115844805D01*
X248260100Y-115799567D01*
X248214862Y-115709090D01*
X248214862Y-115618614D01*
X248260100Y-115528138D01*
X248305339Y-115482900D01*
X248395815Y-115437662D01*
X248622005Y-115437662D01*
X248757720Y-115482900D01*
X249164862Y-116387662D02*
X249164862Y-115437662D01*
X250114863Y-115482900D02*
X250024386Y-115437662D01*
X249888672Y-115437662D01*
X249752958Y-115482900D01*
X249662482Y-115573376D01*
X249617243Y-115663852D01*
X249572005Y-115844805D01*
X249572005Y-115980519D01*
X249617243Y-116161471D01*
X249662482Y-116251948D01*
X249752958Y-116342424D01*
X249888672Y-116387662D01*
X249979148Y-116387662D01*
X250114863Y-116342424D01*
X250160101Y-116297186D01*
X250160101Y-115980519D01*
X249979148Y-115980519D01*
X250567243Y-116387662D02*
X250567243Y-115437662D01*
X251110101Y-116387662D01*
X251110101Y-115437662D01*
X251517243Y-116116233D02*
X251969624Y-116116233D01*
X251426767Y-116387662D02*
X251743434Y-115437662D01*
X252060101Y-116387662D01*
X252829148Y-116387662D02*
X252376767Y-116387662D01*
X252376767Y-115437662D01*
X252919625Y-116478138D02*
X253643435Y-116478138D01*
X253869625Y-116387662D02*
X253869625Y-115437662D01*
X254412483Y-116387662D01*
X254412483Y-115437662D01*
X254819625Y-116116233D02*
X255272006Y-116116233D01*
X254729149Y-116387662D02*
X255045816Y-115437662D01*
X255362483Y-116387662D01*
X255679149Y-116387662D02*
X255679149Y-115437662D01*
X255995816Y-116116233D01*
X256312483Y-115437662D01*
X256312483Y-116387662D01*
X256764863Y-115890043D02*
X257081530Y-115890043D01*
X257217244Y-116387662D02*
X256764863Y-116387662D01*
X256764863Y-115437662D01*
X257217244Y-115437662D01*
X228626290Y-115782329D02*
X229350100Y-116053757D01*
X228626290Y-116325186D01*
X229666766Y-115465662D02*
X230209623Y-115465662D01*
X229938195Y-116415662D02*
X229938195Y-115465662D01*
X230526290Y-116415662D02*
X230526290Y-115465662D01*
X230888195Y-115465662D01*
X230978671Y-115510900D01*
X231023910Y-115556138D01*
X231069148Y-115646614D01*
X231069148Y-115782329D01*
X231023910Y-115872805D01*
X230978671Y-115918043D01*
X230888195Y-115963281D01*
X230526290Y-115963281D01*
X231250100Y-116506138D02*
X231973910Y-116506138D01*
X232154862Y-116370424D02*
X232290577Y-116415662D01*
X232516767Y-116415662D01*
X232607243Y-116370424D01*
X232652481Y-116325186D01*
X232697720Y-116234710D01*
X232697720Y-116144233D01*
X232652481Y-116053757D01*
X232607243Y-116008519D01*
X232516767Y-115963281D01*
X232335815Y-115918043D01*
X232245339Y-115872805D01*
X232200100Y-115827567D01*
X232154862Y-115737090D01*
X232154862Y-115646614D01*
X232200100Y-115556138D01*
X232245339Y-115510900D01*
X232335815Y-115465662D01*
X232562005Y-115465662D01*
X232697720Y-115510900D01*
X233104862Y-116415662D02*
X233104862Y-115465662D01*
X234054863Y-115510900D02*
X233964386Y-115465662D01*
X233828672Y-115465662D01*
X233692958Y-115510900D01*
X233602482Y-115601376D01*
X233557243Y-115691852D01*
X233512005Y-115872805D01*
X233512005Y-116008519D01*
X233557243Y-116189471D01*
X233602482Y-116279948D01*
X233692958Y-116370424D01*
X233828672Y-116415662D01*
X233919148Y-116415662D01*
X234054863Y-116370424D01*
X234100101Y-116325186D01*
X234100101Y-116008519D01*
X233919148Y-116008519D01*
X234507243Y-116415662D02*
X234507243Y-115465662D01*
X235050101Y-116415662D01*
X235050101Y-115465662D01*
X235457243Y-116144233D02*
X235909624Y-116144233D01*
X235366767Y-116415662D02*
X235683434Y-115465662D01*
X236000101Y-116415662D01*
X236769148Y-116415662D02*
X236316767Y-116415662D01*
X236316767Y-115465662D01*
X236859625Y-116506138D02*
X237583435Y-116506138D01*
X237809625Y-116415662D02*
X237809625Y-115465662D01*
X238352483Y-116415662D01*
X238352483Y-115465662D01*
X238759625Y-116144233D02*
X239212006Y-116144233D01*
X238669149Y-116415662D02*
X238985816Y-115465662D01*
X239302483Y-116415662D01*
X239619149Y-116415662D02*
X239619149Y-115465662D01*
X239935816Y-116144233D01*
X240252483Y-115465662D01*
X240252483Y-116415662D01*
X240704863Y-115918043D02*
X241021530Y-115918043D01*
X241157244Y-116415662D02*
X240704863Y-116415662D01*
X240704863Y-115465662D01*
X241157244Y-115465662D01*
X244653290Y-99819329D02*
X245377100Y-100090757D01*
X244653290Y-100362186D01*
X245693766Y-99502662D02*
X246236623Y-99502662D01*
X245965195Y-100452662D02*
X245965195Y-99502662D01*
X246553290Y-100452662D02*
X246553290Y-99502662D01*
X246915195Y-99502662D01*
X247005671Y-99547900D01*
X247050910Y-99593138D01*
X247096148Y-99683614D01*
X247096148Y-99819329D01*
X247050910Y-99909805D01*
X247005671Y-99955043D01*
X246915195Y-100000281D01*
X246553290Y-100000281D01*
X247277100Y-100543138D02*
X248000910Y-100543138D01*
X248181862Y-100407424D02*
X248317577Y-100452662D01*
X248543767Y-100452662D01*
X248634243Y-100407424D01*
X248679481Y-100362186D01*
X248724720Y-100271710D01*
X248724720Y-100181233D01*
X248679481Y-100090757D01*
X248634243Y-100045519D01*
X248543767Y-100000281D01*
X248362815Y-99955043D01*
X248272339Y-99909805D01*
X248227100Y-99864567D01*
X248181862Y-99774090D01*
X248181862Y-99683614D01*
X248227100Y-99593138D01*
X248272339Y-99547900D01*
X248362815Y-99502662D01*
X248589005Y-99502662D01*
X248724720Y-99547900D01*
X249131862Y-100452662D02*
X249131862Y-99502662D01*
X250081863Y-99547900D02*
X249991386Y-99502662D01*
X249855672Y-99502662D01*
X249719958Y-99547900D01*
X249629482Y-99638376D01*
X249584243Y-99728852D01*
X249539005Y-99909805D01*
X249539005Y-100045519D01*
X249584243Y-100226471D01*
X249629482Y-100316948D01*
X249719958Y-100407424D01*
X249855672Y-100452662D01*
X249946148Y-100452662D01*
X250081863Y-100407424D01*
X250127101Y-100362186D01*
X250127101Y-100045519D01*
X249946148Y-100045519D01*
X250534243Y-100452662D02*
X250534243Y-99502662D01*
X251077101Y-100452662D01*
X251077101Y-99502662D01*
X251484243Y-100181233D02*
X251936624Y-100181233D01*
X251393767Y-100452662D02*
X251710434Y-99502662D01*
X252027101Y-100452662D01*
X252796148Y-100452662D02*
X252343767Y-100452662D01*
X252343767Y-99502662D01*
X252886625Y-100543138D02*
X253610435Y-100543138D01*
X253836625Y-100452662D02*
X253836625Y-99502662D01*
X254379483Y-100452662D01*
X254379483Y-99502662D01*
X254786625Y-100181233D02*
X255239006Y-100181233D01*
X254696149Y-100452662D02*
X255012816Y-99502662D01*
X255329483Y-100452662D01*
X255646149Y-100452662D02*
X255646149Y-99502662D01*
X255962816Y-100181233D01*
X256279483Y-99502662D01*
X256279483Y-100452662D01*
X256731863Y-99955043D02*
X257048530Y-99955043D01*
X257184244Y-100452662D02*
X256731863Y-100452662D01*
X256731863Y-99502662D01*
X257184244Y-99502662D01*
X228727290Y-99780329D02*
X229451100Y-100051757D01*
X228727290Y-100323186D01*
X229767766Y-99463662D02*
X230310623Y-99463662D01*
X230039195Y-100413662D02*
X230039195Y-99463662D01*
X230627290Y-100413662D02*
X230627290Y-99463662D01*
X230989195Y-99463662D01*
X231079671Y-99508900D01*
X231124910Y-99554138D01*
X231170148Y-99644614D01*
X231170148Y-99780329D01*
X231124910Y-99870805D01*
X231079671Y-99916043D01*
X230989195Y-99961281D01*
X230627290Y-99961281D01*
X231351100Y-100504138D02*
X232074910Y-100504138D01*
X232255862Y-100368424D02*
X232391577Y-100413662D01*
X232617767Y-100413662D01*
X232708243Y-100368424D01*
X232753481Y-100323186D01*
X232798720Y-100232710D01*
X232798720Y-100142233D01*
X232753481Y-100051757D01*
X232708243Y-100006519D01*
X232617767Y-99961281D01*
X232436815Y-99916043D01*
X232346339Y-99870805D01*
X232301100Y-99825567D01*
X232255862Y-99735090D01*
X232255862Y-99644614D01*
X232301100Y-99554138D01*
X232346339Y-99508900D01*
X232436815Y-99463662D01*
X232663005Y-99463662D01*
X232798720Y-99508900D01*
X233205862Y-100413662D02*
X233205862Y-99463662D01*
X234155863Y-99508900D02*
X234065386Y-99463662D01*
X233929672Y-99463662D01*
X233793958Y-99508900D01*
X233703482Y-99599376D01*
X233658243Y-99689852D01*
X233613005Y-99870805D01*
X233613005Y-100006519D01*
X233658243Y-100187471D01*
X233703482Y-100277948D01*
X233793958Y-100368424D01*
X233929672Y-100413662D01*
X234020148Y-100413662D01*
X234155863Y-100368424D01*
X234201101Y-100323186D01*
X234201101Y-100006519D01*
X234020148Y-100006519D01*
X234608243Y-100413662D02*
X234608243Y-99463662D01*
X235151101Y-100413662D01*
X235151101Y-99463662D01*
X235558243Y-100142233D02*
X236010624Y-100142233D01*
X235467767Y-100413662D02*
X235784434Y-99463662D01*
X236101101Y-100413662D01*
X236870148Y-100413662D02*
X236417767Y-100413662D01*
X236417767Y-99463662D01*
X236960625Y-100504138D02*
X237684435Y-100504138D01*
X237910625Y-100413662D02*
X237910625Y-99463662D01*
X238453483Y-100413662D01*
X238453483Y-99463662D01*
X238860625Y-100142233D02*
X239313006Y-100142233D01*
X238770149Y-100413662D02*
X239086816Y-99463662D01*
X239403483Y-100413662D01*
X239720149Y-100413662D02*
X239720149Y-99463662D01*
X240036816Y-100142233D01*
X240353483Y-99463662D01*
X240353483Y-100413662D01*
X240805863Y-99916043D02*
X241122530Y-99916043D01*
X241258244Y-100413662D02*
X240805863Y-100413662D01*
X240805863Y-99463662D01*
X241258244Y-99463662D01*
X252717290Y-123703329D02*
X253441100Y-123974757D01*
X252717290Y-124246186D01*
X253757766Y-123386662D02*
X254300623Y-123386662D01*
X254029195Y-124336662D02*
X254029195Y-123386662D01*
X254617290Y-124336662D02*
X254617290Y-123386662D01*
X254979195Y-123386662D01*
X255069671Y-123431900D01*
X255114910Y-123477138D01*
X255160148Y-123567614D01*
X255160148Y-123703329D01*
X255114910Y-123793805D01*
X255069671Y-123839043D01*
X254979195Y-123884281D01*
X254617290Y-123884281D01*
X255341100Y-124427138D02*
X256064910Y-124427138D01*
X256245862Y-124291424D02*
X256381577Y-124336662D01*
X256607767Y-124336662D01*
X256698243Y-124291424D01*
X256743481Y-124246186D01*
X256788720Y-124155710D01*
X256788720Y-124065233D01*
X256743481Y-123974757D01*
X256698243Y-123929519D01*
X256607767Y-123884281D01*
X256426815Y-123839043D01*
X256336339Y-123793805D01*
X256291100Y-123748567D01*
X256245862Y-123658090D01*
X256245862Y-123567614D01*
X256291100Y-123477138D01*
X256336339Y-123431900D01*
X256426815Y-123386662D01*
X256653005Y-123386662D01*
X256788720Y-123431900D01*
X257195862Y-124336662D02*
X257195862Y-123386662D01*
X258145863Y-123431900D02*
X258055386Y-123386662D01*
X257919672Y-123386662D01*
X257783958Y-123431900D01*
X257693482Y-123522376D01*
X257648243Y-123612852D01*
X257603005Y-123793805D01*
X257603005Y-123929519D01*
X257648243Y-124110471D01*
X257693482Y-124200948D01*
X257783958Y-124291424D01*
X257919672Y-124336662D01*
X258010148Y-124336662D01*
X258145863Y-124291424D01*
X258191101Y-124246186D01*
X258191101Y-123929519D01*
X258010148Y-123929519D01*
X258598243Y-124336662D02*
X258598243Y-123386662D01*
X259141101Y-124336662D01*
X259141101Y-123386662D01*
X259548243Y-124065233D02*
X260000624Y-124065233D01*
X259457767Y-124336662D02*
X259774434Y-123386662D01*
X260091101Y-124336662D01*
X260860148Y-124336662D02*
X260407767Y-124336662D01*
X260407767Y-123386662D01*
X260950625Y-124427138D02*
X261674435Y-124427138D01*
X261900625Y-124336662D02*
X261900625Y-123386662D01*
X262443483Y-124336662D01*
X262443483Y-123386662D01*
X262850625Y-124065233D02*
X263303006Y-124065233D01*
X262760149Y-124336662D02*
X263076816Y-123386662D01*
X263393483Y-124336662D01*
X263710149Y-124336662D02*
X263710149Y-123386662D01*
X264026816Y-124065233D01*
X264343483Y-123386662D01*
X264343483Y-124336662D01*
X264795863Y-123839043D02*
X265112530Y-123839043D01*
X265248244Y-124336662D02*
X264795863Y-124336662D01*
X264795863Y-123386662D01*
X265248244Y-123386662D01*
X220755290Y-123799329D02*
X221479100Y-124070757D01*
X220755290Y-124342186D01*
X221795766Y-123482662D02*
X222338623Y-123482662D01*
X222067195Y-124432662D02*
X222067195Y-123482662D01*
X222655290Y-124432662D02*
X222655290Y-123482662D01*
X223017195Y-123482662D01*
X223107671Y-123527900D01*
X223152910Y-123573138D01*
X223198148Y-123663614D01*
X223198148Y-123799329D01*
X223152910Y-123889805D01*
X223107671Y-123935043D01*
X223017195Y-123980281D01*
X222655290Y-123980281D01*
X223379100Y-124523138D02*
X224102910Y-124523138D01*
X224283862Y-124387424D02*
X224419577Y-124432662D01*
X224645767Y-124432662D01*
X224736243Y-124387424D01*
X224781481Y-124342186D01*
X224826720Y-124251710D01*
X224826720Y-124161233D01*
X224781481Y-124070757D01*
X224736243Y-124025519D01*
X224645767Y-123980281D01*
X224464815Y-123935043D01*
X224374339Y-123889805D01*
X224329100Y-123844567D01*
X224283862Y-123754090D01*
X224283862Y-123663614D01*
X224329100Y-123573138D01*
X224374339Y-123527900D01*
X224464815Y-123482662D01*
X224691005Y-123482662D01*
X224826720Y-123527900D01*
X225233862Y-124432662D02*
X225233862Y-123482662D01*
X226183863Y-123527900D02*
X226093386Y-123482662D01*
X225957672Y-123482662D01*
X225821958Y-123527900D01*
X225731482Y-123618376D01*
X225686243Y-123708852D01*
X225641005Y-123889805D01*
X225641005Y-124025519D01*
X225686243Y-124206471D01*
X225731482Y-124296948D01*
X225821958Y-124387424D01*
X225957672Y-124432662D01*
X226048148Y-124432662D01*
X226183863Y-124387424D01*
X226229101Y-124342186D01*
X226229101Y-124025519D01*
X226048148Y-124025519D01*
X226636243Y-124432662D02*
X226636243Y-123482662D01*
X227179101Y-124432662D01*
X227179101Y-123482662D01*
X227586243Y-124161233D02*
X228038624Y-124161233D01*
X227495767Y-124432662D02*
X227812434Y-123482662D01*
X228129101Y-124432662D01*
X228898148Y-124432662D02*
X228445767Y-124432662D01*
X228445767Y-123482662D01*
X228988625Y-124523138D02*
X229712435Y-124523138D01*
X229938625Y-124432662D02*
X229938625Y-123482662D01*
X230481483Y-124432662D01*
X230481483Y-123482662D01*
X230888625Y-124161233D02*
X231341006Y-124161233D01*
X230798149Y-124432662D02*
X231114816Y-123482662D01*
X231431483Y-124432662D01*
X231748149Y-124432662D02*
X231748149Y-123482662D01*
X232064816Y-124161233D01*
X232381483Y-123482662D01*
X232381483Y-124432662D01*
X232833863Y-123935043D02*
X233150530Y-123935043D01*
X233286244Y-124432662D02*
X232833863Y-124432662D01*
X232833863Y-123482662D01*
X233286244Y-123482662D01*
X252623290Y-91789329D02*
X253347100Y-92060757D01*
X252623290Y-92332186D01*
X253663766Y-91472662D02*
X254206623Y-91472662D01*
X253935195Y-92422662D02*
X253935195Y-91472662D01*
X254523290Y-92422662D02*
X254523290Y-91472662D01*
X254885195Y-91472662D01*
X254975671Y-91517900D01*
X255020910Y-91563138D01*
X255066148Y-91653614D01*
X255066148Y-91789329D01*
X255020910Y-91879805D01*
X254975671Y-91925043D01*
X254885195Y-91970281D01*
X254523290Y-91970281D01*
X255247100Y-92513138D02*
X255970910Y-92513138D01*
X256151862Y-92377424D02*
X256287577Y-92422662D01*
X256513767Y-92422662D01*
X256604243Y-92377424D01*
X256649481Y-92332186D01*
X256694720Y-92241710D01*
X256694720Y-92151233D01*
X256649481Y-92060757D01*
X256604243Y-92015519D01*
X256513767Y-91970281D01*
X256332815Y-91925043D01*
X256242339Y-91879805D01*
X256197100Y-91834567D01*
X256151862Y-91744090D01*
X256151862Y-91653614D01*
X256197100Y-91563138D01*
X256242339Y-91517900D01*
X256332815Y-91472662D01*
X256559005Y-91472662D01*
X256694720Y-91517900D01*
X257101862Y-92422662D02*
X257101862Y-91472662D01*
X258051863Y-91517900D02*
X257961386Y-91472662D01*
X257825672Y-91472662D01*
X257689958Y-91517900D01*
X257599482Y-91608376D01*
X257554243Y-91698852D01*
X257509005Y-91879805D01*
X257509005Y-92015519D01*
X257554243Y-92196471D01*
X257599482Y-92286948D01*
X257689958Y-92377424D01*
X257825672Y-92422662D01*
X257916148Y-92422662D01*
X258051863Y-92377424D01*
X258097101Y-92332186D01*
X258097101Y-92015519D01*
X257916148Y-92015519D01*
X258504243Y-92422662D02*
X258504243Y-91472662D01*
X259047101Y-92422662D01*
X259047101Y-91472662D01*
X259454243Y-92151233D02*
X259906624Y-92151233D01*
X259363767Y-92422662D02*
X259680434Y-91472662D01*
X259997101Y-92422662D01*
X260766148Y-92422662D02*
X260313767Y-92422662D01*
X260313767Y-91472662D01*
X260856625Y-92513138D02*
X261580435Y-92513138D01*
X261806625Y-92422662D02*
X261806625Y-91472662D01*
X262349483Y-92422662D01*
X262349483Y-91472662D01*
X262756625Y-92151233D02*
X263209006Y-92151233D01*
X262666149Y-92422662D02*
X262982816Y-91472662D01*
X263299483Y-92422662D01*
X263616149Y-92422662D02*
X263616149Y-91472662D01*
X263932816Y-92151233D01*
X264249483Y-91472662D01*
X264249483Y-92422662D01*
X264701863Y-91925043D02*
X265018530Y-91925043D01*
X265154244Y-92422662D02*
X264701863Y-92422662D01*
X264701863Y-91472662D01*
X265154244Y-91472662D01*
X220735290Y-91728329D02*
X221459100Y-91999757D01*
X220735290Y-92271186D01*
X221775766Y-91411662D02*
X222318623Y-91411662D01*
X222047195Y-92361662D02*
X222047195Y-91411662D01*
X222635290Y-92361662D02*
X222635290Y-91411662D01*
X222997195Y-91411662D01*
X223087671Y-91456900D01*
X223132910Y-91502138D01*
X223178148Y-91592614D01*
X223178148Y-91728329D01*
X223132910Y-91818805D01*
X223087671Y-91864043D01*
X222997195Y-91909281D01*
X222635290Y-91909281D01*
X223359100Y-92452138D02*
X224082910Y-92452138D01*
X224263862Y-92316424D02*
X224399577Y-92361662D01*
X224625767Y-92361662D01*
X224716243Y-92316424D01*
X224761481Y-92271186D01*
X224806720Y-92180710D01*
X224806720Y-92090233D01*
X224761481Y-91999757D01*
X224716243Y-91954519D01*
X224625767Y-91909281D01*
X224444815Y-91864043D01*
X224354339Y-91818805D01*
X224309100Y-91773567D01*
X224263862Y-91683090D01*
X224263862Y-91592614D01*
X224309100Y-91502138D01*
X224354339Y-91456900D01*
X224444815Y-91411662D01*
X224671005Y-91411662D01*
X224806720Y-91456900D01*
X225213862Y-92361662D02*
X225213862Y-91411662D01*
X226163863Y-91456900D02*
X226073386Y-91411662D01*
X225937672Y-91411662D01*
X225801958Y-91456900D01*
X225711482Y-91547376D01*
X225666243Y-91637852D01*
X225621005Y-91818805D01*
X225621005Y-91954519D01*
X225666243Y-92135471D01*
X225711482Y-92225948D01*
X225801958Y-92316424D01*
X225937672Y-92361662D01*
X226028148Y-92361662D01*
X226163863Y-92316424D01*
X226209101Y-92271186D01*
X226209101Y-91954519D01*
X226028148Y-91954519D01*
X226616243Y-92361662D02*
X226616243Y-91411662D01*
X227159101Y-92361662D01*
X227159101Y-91411662D01*
X227566243Y-92090233D02*
X228018624Y-92090233D01*
X227475767Y-92361662D02*
X227792434Y-91411662D01*
X228109101Y-92361662D01*
X228878148Y-92361662D02*
X228425767Y-92361662D01*
X228425767Y-91411662D01*
X228968625Y-92452138D02*
X229692435Y-92452138D01*
X229918625Y-92361662D02*
X229918625Y-91411662D01*
X230461483Y-92361662D01*
X230461483Y-91411662D01*
X230868625Y-92090233D02*
X231321006Y-92090233D01*
X230778149Y-92361662D02*
X231094816Y-91411662D01*
X231411483Y-92361662D01*
X231728149Y-92361662D02*
X231728149Y-91411662D01*
X232044816Y-92090233D01*
X232361483Y-91411662D01*
X232361483Y-92361662D01*
X232813863Y-91864043D02*
X233130530Y-91864043D01*
X233266244Y-92361662D02*
X232813863Y-92361662D01*
X232813863Y-91411662D01*
X233266244Y-91411662D01*
X213189890Y-126052129D02*
X213913700Y-126323557D01*
X213189890Y-126594986D01*
X214230366Y-125735462D02*
X214773223Y-125735462D01*
X214501795Y-126685462D02*
X214501795Y-125735462D01*
X215089890Y-126685462D02*
X215089890Y-125735462D01*
X215451795Y-125735462D01*
X215542271Y-125780700D01*
X215587510Y-125825938D01*
X215632748Y-125916414D01*
X215632748Y-126052129D01*
X215587510Y-126142605D01*
X215542271Y-126187843D01*
X215451795Y-126233081D01*
X215089890Y-126233081D01*
X215813700Y-126775938D02*
X216537510Y-126775938D01*
X216718462Y-126640224D02*
X216854177Y-126685462D01*
X217080367Y-126685462D01*
X217170843Y-126640224D01*
X217216081Y-126594986D01*
X217261320Y-126504510D01*
X217261320Y-126414033D01*
X217216081Y-126323557D01*
X217170843Y-126278319D01*
X217080367Y-126233081D01*
X216899415Y-126187843D01*
X216808939Y-126142605D01*
X216763700Y-126097367D01*
X216718462Y-126006890D01*
X216718462Y-125916414D01*
X216763700Y-125825938D01*
X216808939Y-125780700D01*
X216899415Y-125735462D01*
X217125605Y-125735462D01*
X217261320Y-125780700D01*
X217668462Y-126685462D02*
X217668462Y-125735462D01*
X218618463Y-125780700D02*
X218527986Y-125735462D01*
X218392272Y-125735462D01*
X218256558Y-125780700D01*
X218166082Y-125871176D01*
X218120843Y-125961652D01*
X218075605Y-126142605D01*
X218075605Y-126278319D01*
X218120843Y-126459271D01*
X218166082Y-126549748D01*
X218256558Y-126640224D01*
X218392272Y-126685462D01*
X218482748Y-126685462D01*
X218618463Y-126640224D01*
X218663701Y-126594986D01*
X218663701Y-126278319D01*
X218482748Y-126278319D01*
X219070843Y-126685462D02*
X219070843Y-125735462D01*
X219613701Y-126685462D01*
X219613701Y-125735462D01*
X220020843Y-126414033D02*
X220473224Y-126414033D01*
X219930367Y-126685462D02*
X220247034Y-125735462D01*
X220563701Y-126685462D01*
X221332748Y-126685462D02*
X220880367Y-126685462D01*
X220880367Y-125735462D01*
X221423225Y-126775938D02*
X222147035Y-126775938D01*
X222373225Y-126685462D02*
X222373225Y-125735462D01*
X222916083Y-126685462D01*
X222916083Y-125735462D01*
X223323225Y-126414033D02*
X223775606Y-126414033D01*
X223232749Y-126685462D02*
X223549416Y-125735462D01*
X223866083Y-126685462D01*
X224182749Y-126685462D02*
X224182749Y-125735462D01*
X224499416Y-126414033D01*
X224816083Y-125735462D01*
X224816083Y-126685462D01*
X225268463Y-126187843D02*
X225585130Y-126187843D01*
X225720844Y-126685462D02*
X225268463Y-126685462D01*
X225268463Y-125735462D01*
X225720844Y-125735462D01*
X213189890Y-80890929D02*
X213913700Y-81162357D01*
X213189890Y-81433786D01*
X214230366Y-80574262D02*
X214773223Y-80574262D01*
X214501795Y-81524262D02*
X214501795Y-80574262D01*
X215089890Y-81524262D02*
X215089890Y-80574262D01*
X215451795Y-80574262D01*
X215542271Y-80619500D01*
X215587510Y-80664738D01*
X215632748Y-80755214D01*
X215632748Y-80890929D01*
X215587510Y-80981405D01*
X215542271Y-81026643D01*
X215451795Y-81071881D01*
X215089890Y-81071881D01*
X215813700Y-81614738D02*
X216537510Y-81614738D01*
X216718462Y-81479024D02*
X216854177Y-81524262D01*
X217080367Y-81524262D01*
X217170843Y-81479024D01*
X217216081Y-81433786D01*
X217261320Y-81343310D01*
X217261320Y-81252833D01*
X217216081Y-81162357D01*
X217170843Y-81117119D01*
X217080367Y-81071881D01*
X216899415Y-81026643D01*
X216808939Y-80981405D01*
X216763700Y-80936167D01*
X216718462Y-80845690D01*
X216718462Y-80755214D01*
X216763700Y-80664738D01*
X216808939Y-80619500D01*
X216899415Y-80574262D01*
X217125605Y-80574262D01*
X217261320Y-80619500D01*
X217668462Y-81524262D02*
X217668462Y-80574262D01*
X218618463Y-80619500D02*
X218527986Y-80574262D01*
X218392272Y-80574262D01*
X218256558Y-80619500D01*
X218166082Y-80709976D01*
X218120843Y-80800452D01*
X218075605Y-80981405D01*
X218075605Y-81117119D01*
X218120843Y-81298071D01*
X218166082Y-81388548D01*
X218256558Y-81479024D01*
X218392272Y-81524262D01*
X218482748Y-81524262D01*
X218618463Y-81479024D01*
X218663701Y-81433786D01*
X218663701Y-81117119D01*
X218482748Y-81117119D01*
X219070843Y-81524262D02*
X219070843Y-80574262D01*
X219613701Y-81524262D01*
X219613701Y-80574262D01*
X220020843Y-81252833D02*
X220473224Y-81252833D01*
X219930367Y-81524262D02*
X220247034Y-80574262D01*
X220563701Y-81524262D01*
X221332748Y-81524262D02*
X220880367Y-81524262D01*
X220880367Y-80574262D01*
X221423225Y-81614738D02*
X222147035Y-81614738D01*
X222373225Y-81524262D02*
X222373225Y-80574262D01*
X222916083Y-81524262D01*
X222916083Y-80574262D01*
X223323225Y-81252833D02*
X223775606Y-81252833D01*
X223232749Y-81524262D02*
X223549416Y-80574262D01*
X223866083Y-81524262D01*
X224182749Y-81524262D02*
X224182749Y-80574262D01*
X224499416Y-81252833D01*
X224816083Y-80574262D01*
X224816083Y-81524262D01*
X225268463Y-81026643D02*
X225585130Y-81026643D01*
X225720844Y-81524262D02*
X225268463Y-81524262D01*
X225268463Y-80574262D01*
X225720844Y-80574262D01*
X211736490Y-121175329D02*
X212460300Y-121446757D01*
X211736490Y-121718186D01*
X212776966Y-120858662D02*
X213319823Y-120858662D01*
X213048395Y-121808662D02*
X213048395Y-120858662D01*
X213636490Y-121808662D02*
X213636490Y-120858662D01*
X213998395Y-120858662D01*
X214088871Y-120903900D01*
X214134110Y-120949138D01*
X214179348Y-121039614D01*
X214179348Y-121175329D01*
X214134110Y-121265805D01*
X214088871Y-121311043D01*
X213998395Y-121356281D01*
X213636490Y-121356281D01*
X214360300Y-121899138D02*
X215084110Y-121899138D01*
X215265062Y-121763424D02*
X215400777Y-121808662D01*
X215626967Y-121808662D01*
X215717443Y-121763424D01*
X215762681Y-121718186D01*
X215807920Y-121627710D01*
X215807920Y-121537233D01*
X215762681Y-121446757D01*
X215717443Y-121401519D01*
X215626967Y-121356281D01*
X215446015Y-121311043D01*
X215355539Y-121265805D01*
X215310300Y-121220567D01*
X215265062Y-121130090D01*
X215265062Y-121039614D01*
X215310300Y-120949138D01*
X215355539Y-120903900D01*
X215446015Y-120858662D01*
X215672205Y-120858662D01*
X215807920Y-120903900D01*
X216215062Y-121808662D02*
X216215062Y-120858662D01*
X217165063Y-120903900D02*
X217074586Y-120858662D01*
X216938872Y-120858662D01*
X216803158Y-120903900D01*
X216712682Y-120994376D01*
X216667443Y-121084852D01*
X216622205Y-121265805D01*
X216622205Y-121401519D01*
X216667443Y-121582471D01*
X216712682Y-121672948D01*
X216803158Y-121763424D01*
X216938872Y-121808662D01*
X217029348Y-121808662D01*
X217165063Y-121763424D01*
X217210301Y-121718186D01*
X217210301Y-121401519D01*
X217029348Y-121401519D01*
X217617443Y-121808662D02*
X217617443Y-120858662D01*
X218160301Y-121808662D01*
X218160301Y-120858662D01*
X218567443Y-121537233D02*
X219019824Y-121537233D01*
X218476967Y-121808662D02*
X218793634Y-120858662D01*
X219110301Y-121808662D01*
X219879348Y-121808662D02*
X219426967Y-121808662D01*
X219426967Y-120858662D01*
X219969825Y-121899138D02*
X220693635Y-121899138D01*
X220919825Y-121808662D02*
X220919825Y-120858662D01*
X221462683Y-121808662D01*
X221462683Y-120858662D01*
X221869825Y-121537233D02*
X222322206Y-121537233D01*
X221779349Y-121808662D02*
X222096016Y-120858662D01*
X222412683Y-121808662D01*
X222729349Y-121808662D02*
X222729349Y-120858662D01*
X223046016Y-121537233D01*
X223362683Y-120858662D01*
X223362683Y-121808662D01*
X223815063Y-121311043D02*
X224131730Y-121311043D01*
X224267444Y-121808662D02*
X223815063Y-121808662D01*
X223815063Y-120858662D01*
X224267444Y-120858662D01*
X211624090Y-113072729D02*
X212347900Y-113344157D01*
X211624090Y-113615586D01*
X212664566Y-112756062D02*
X213207423Y-112756062D01*
X212935995Y-113706062D02*
X212935995Y-112756062D01*
X213524090Y-113706062D02*
X213524090Y-112756062D01*
X213885995Y-112756062D01*
X213976471Y-112801300D01*
X214021710Y-112846538D01*
X214066948Y-112937014D01*
X214066948Y-113072729D01*
X214021710Y-113163205D01*
X213976471Y-113208443D01*
X213885995Y-113253681D01*
X213524090Y-113253681D01*
X214247900Y-113796538D02*
X214971710Y-113796538D01*
X215152662Y-113660824D02*
X215288377Y-113706062D01*
X215514567Y-113706062D01*
X215605043Y-113660824D01*
X215650281Y-113615586D01*
X215695520Y-113525110D01*
X215695520Y-113434633D01*
X215650281Y-113344157D01*
X215605043Y-113298919D01*
X215514567Y-113253681D01*
X215333615Y-113208443D01*
X215243139Y-113163205D01*
X215197900Y-113117967D01*
X215152662Y-113027490D01*
X215152662Y-112937014D01*
X215197900Y-112846538D01*
X215243139Y-112801300D01*
X215333615Y-112756062D01*
X215559805Y-112756062D01*
X215695520Y-112801300D01*
X216102662Y-113706062D02*
X216102662Y-112756062D01*
X217052663Y-112801300D02*
X216962186Y-112756062D01*
X216826472Y-112756062D01*
X216690758Y-112801300D01*
X216600282Y-112891776D01*
X216555043Y-112982252D01*
X216509805Y-113163205D01*
X216509805Y-113298919D01*
X216555043Y-113479871D01*
X216600282Y-113570348D01*
X216690758Y-113660824D01*
X216826472Y-113706062D01*
X216916948Y-113706062D01*
X217052663Y-113660824D01*
X217097901Y-113615586D01*
X217097901Y-113298919D01*
X216916948Y-113298919D01*
X217505043Y-113706062D02*
X217505043Y-112756062D01*
X218047901Y-113706062D01*
X218047901Y-112756062D01*
X218455043Y-113434633D02*
X218907424Y-113434633D01*
X218364567Y-113706062D02*
X218681234Y-112756062D01*
X218997901Y-113706062D01*
X219766948Y-113706062D02*
X219314567Y-113706062D01*
X219314567Y-112756062D01*
X219857425Y-113796538D02*
X220581235Y-113796538D01*
X220807425Y-113706062D02*
X220807425Y-112756062D01*
X221350283Y-113706062D01*
X221350283Y-112756062D01*
X221757425Y-113434633D02*
X222209806Y-113434633D01*
X221666949Y-113706062D02*
X221983616Y-112756062D01*
X222300283Y-113706062D01*
X222616949Y-113706062D02*
X222616949Y-112756062D01*
X222933616Y-113434633D01*
X223250283Y-112756062D01*
X223250283Y-113706062D01*
X223702663Y-113208443D02*
X224019330Y-113208443D01*
X224155044Y-113706062D02*
X223702663Y-113706062D01*
X223702663Y-112756062D01*
X224155044Y-112756062D01*
X205095242Y-97342529D02*
X205819052Y-97613957D01*
X205095242Y-97885386D01*
X206135718Y-97025862D02*
X206678575Y-97025862D01*
X206407147Y-97975862D02*
X206407147Y-97025862D01*
X206995242Y-97975862D02*
X206995242Y-97025862D01*
X207357147Y-97025862D01*
X207447623Y-97071100D01*
X207492862Y-97116338D01*
X207538100Y-97206814D01*
X207538100Y-97342529D01*
X207492862Y-97433005D01*
X207447623Y-97478243D01*
X207357147Y-97523481D01*
X206995242Y-97523481D01*
X207719052Y-98066338D02*
X208442862Y-98066338D01*
X208623814Y-97930624D02*
X208759529Y-97975862D01*
X208985719Y-97975862D01*
X209076195Y-97930624D01*
X209121433Y-97885386D01*
X209166672Y-97794910D01*
X209166672Y-97704433D01*
X209121433Y-97613957D01*
X209076195Y-97568719D01*
X208985719Y-97523481D01*
X208804767Y-97478243D01*
X208714291Y-97433005D01*
X208669052Y-97387767D01*
X208623814Y-97297290D01*
X208623814Y-97206814D01*
X208669052Y-97116338D01*
X208714291Y-97071100D01*
X208804767Y-97025862D01*
X209030957Y-97025862D01*
X209166672Y-97071100D01*
X209573814Y-97975862D02*
X209573814Y-97025862D01*
X210523815Y-97071100D02*
X210433338Y-97025862D01*
X210297624Y-97025862D01*
X210161910Y-97071100D01*
X210071434Y-97161576D01*
X210026195Y-97252052D01*
X209980957Y-97433005D01*
X209980957Y-97568719D01*
X210026195Y-97749671D01*
X210071434Y-97840148D01*
X210161910Y-97930624D01*
X210297624Y-97975862D01*
X210388100Y-97975862D01*
X210523815Y-97930624D01*
X210569053Y-97885386D01*
X210569053Y-97568719D01*
X210388100Y-97568719D01*
X210976195Y-97975862D02*
X210976195Y-97025862D01*
X211519053Y-97975862D01*
X211519053Y-97025862D01*
X211926195Y-97704433D02*
X212378576Y-97704433D01*
X211835719Y-97975862D02*
X212152386Y-97025862D01*
X212469053Y-97975862D01*
X213238100Y-97975862D02*
X212785719Y-97975862D01*
X212785719Y-97025862D01*
X213328577Y-98066338D02*
X214052387Y-98066338D01*
X214278577Y-97975862D02*
X214278577Y-97025862D01*
X214821435Y-97975862D01*
X214821435Y-97025862D01*
X215228577Y-97704433D02*
X215680958Y-97704433D01*
X215138101Y-97975862D02*
X215454768Y-97025862D01*
X215771435Y-97975862D01*
X216088101Y-97975862D02*
X216088101Y-97025862D01*
X216404768Y-97704433D01*
X216721435Y-97025862D01*
X216721435Y-97975862D01*
X217173815Y-97478243D02*
X217490482Y-97478243D01*
X217626196Y-97975862D02*
X217173815Y-97975862D01*
X217173815Y-97025862D01*
X217626196Y-97025862D01*
X211711090Y-118533729D02*
X212434900Y-118805157D01*
X211711090Y-119076586D01*
X212751566Y-118217062D02*
X213294423Y-118217062D01*
X213022995Y-119167062D02*
X213022995Y-118217062D01*
X213611090Y-119167062D02*
X213611090Y-118217062D01*
X213972995Y-118217062D01*
X214063471Y-118262300D01*
X214108710Y-118307538D01*
X214153948Y-118398014D01*
X214153948Y-118533729D01*
X214108710Y-118624205D01*
X214063471Y-118669443D01*
X213972995Y-118714681D01*
X213611090Y-118714681D01*
X214334900Y-119257538D02*
X215058710Y-119257538D01*
X215239662Y-119121824D02*
X215375377Y-119167062D01*
X215601567Y-119167062D01*
X215692043Y-119121824D01*
X215737281Y-119076586D01*
X215782520Y-118986110D01*
X215782520Y-118895633D01*
X215737281Y-118805157D01*
X215692043Y-118759919D01*
X215601567Y-118714681D01*
X215420615Y-118669443D01*
X215330139Y-118624205D01*
X215284900Y-118578967D01*
X215239662Y-118488490D01*
X215239662Y-118398014D01*
X215284900Y-118307538D01*
X215330139Y-118262300D01*
X215420615Y-118217062D01*
X215646805Y-118217062D01*
X215782520Y-118262300D01*
X216189662Y-119167062D02*
X216189662Y-118217062D01*
X217139663Y-118262300D02*
X217049186Y-118217062D01*
X216913472Y-118217062D01*
X216777758Y-118262300D01*
X216687282Y-118352776D01*
X216642043Y-118443252D01*
X216596805Y-118624205D01*
X216596805Y-118759919D01*
X216642043Y-118940871D01*
X216687282Y-119031348D01*
X216777758Y-119121824D01*
X216913472Y-119167062D01*
X217003948Y-119167062D01*
X217139663Y-119121824D01*
X217184901Y-119076586D01*
X217184901Y-118759919D01*
X217003948Y-118759919D01*
X217592043Y-119167062D02*
X217592043Y-118217062D01*
X218134901Y-119167062D01*
X218134901Y-118217062D01*
X218542043Y-118895633D02*
X218994424Y-118895633D01*
X218451567Y-119167062D02*
X218768234Y-118217062D01*
X219084901Y-119167062D01*
X219853948Y-119167062D02*
X219401567Y-119167062D01*
X219401567Y-118217062D01*
X219944425Y-119257538D02*
X220668235Y-119257538D01*
X220894425Y-119167062D02*
X220894425Y-118217062D01*
X221437283Y-119167062D01*
X221437283Y-118217062D01*
X221844425Y-118895633D02*
X222296806Y-118895633D01*
X221753949Y-119167062D02*
X222070616Y-118217062D01*
X222387283Y-119167062D01*
X222703949Y-119167062D02*
X222703949Y-118217062D01*
X223020616Y-118895633D01*
X223337283Y-118217062D01*
X223337283Y-119167062D01*
X223789663Y-118669443D02*
X224106330Y-118669443D01*
X224242044Y-119167062D02*
X223789663Y-119167062D01*
X223789663Y-118217062D01*
X224242044Y-118217062D01*
X211600490Y-102277729D02*
X212324300Y-102549157D01*
X211600490Y-102820586D01*
X212640966Y-101961062D02*
X213183823Y-101961062D01*
X212912395Y-102911062D02*
X212912395Y-101961062D01*
X213500490Y-102911062D02*
X213500490Y-101961062D01*
X213862395Y-101961062D01*
X213952871Y-102006300D01*
X213998110Y-102051538D01*
X214043348Y-102142014D01*
X214043348Y-102277729D01*
X213998110Y-102368205D01*
X213952871Y-102413443D01*
X213862395Y-102458681D01*
X213500490Y-102458681D01*
X214224300Y-103001538D02*
X214948110Y-103001538D01*
X215129062Y-102865824D02*
X215264777Y-102911062D01*
X215490967Y-102911062D01*
X215581443Y-102865824D01*
X215626681Y-102820586D01*
X215671920Y-102730110D01*
X215671920Y-102639633D01*
X215626681Y-102549157D01*
X215581443Y-102503919D01*
X215490967Y-102458681D01*
X215310015Y-102413443D01*
X215219539Y-102368205D01*
X215174300Y-102322967D01*
X215129062Y-102232490D01*
X215129062Y-102142014D01*
X215174300Y-102051538D01*
X215219539Y-102006300D01*
X215310015Y-101961062D01*
X215536205Y-101961062D01*
X215671920Y-102006300D01*
X216079062Y-102911062D02*
X216079062Y-101961062D01*
X217029063Y-102006300D02*
X216938586Y-101961062D01*
X216802872Y-101961062D01*
X216667158Y-102006300D01*
X216576682Y-102096776D01*
X216531443Y-102187252D01*
X216486205Y-102368205D01*
X216486205Y-102503919D01*
X216531443Y-102684871D01*
X216576682Y-102775348D01*
X216667158Y-102865824D01*
X216802872Y-102911062D01*
X216893348Y-102911062D01*
X217029063Y-102865824D01*
X217074301Y-102820586D01*
X217074301Y-102503919D01*
X216893348Y-102503919D01*
X217481443Y-102911062D02*
X217481443Y-101961062D01*
X218024301Y-102911062D01*
X218024301Y-101961062D01*
X218431443Y-102639633D02*
X218883824Y-102639633D01*
X218340967Y-102911062D02*
X218657634Y-101961062D01*
X218974301Y-102911062D01*
X219743348Y-102911062D02*
X219290967Y-102911062D01*
X219290967Y-101961062D01*
X219833825Y-103001538D02*
X220557635Y-103001538D01*
X220783825Y-102911062D02*
X220783825Y-101961062D01*
X221326683Y-102911062D01*
X221326683Y-101961062D01*
X221733825Y-102639633D02*
X222186206Y-102639633D01*
X221643349Y-102911062D02*
X221960016Y-101961062D01*
X222276683Y-102911062D01*
X222593349Y-102911062D02*
X222593349Y-101961062D01*
X222910016Y-102639633D01*
X223226683Y-101961062D01*
X223226683Y-102911062D01*
X223679063Y-102413443D02*
X223995730Y-102413443D01*
X224131444Y-102911062D02*
X223679063Y-102911062D01*
X223679063Y-101961062D01*
X224131444Y-101961062D01*
M02*
