G04 #@! TF.FileFunction,Legend,Bot*
%FSLAX46Y46*%
G04 Gerber Fmt 4.6, Leading zero omitted, Abs format (unit mm)*
G04 Created by KiCad (PCBNEW 4.0.6) date 05/07/17 21:00:14*
%MOMM*%
%LPD*%
G01*
G04 APERTURE LIST*
%ADD10C,0.100000*%
%ADD11C,0.113792*%
%ADD12C,0.127000*%
G04 APERTURE END LIST*
D10*
D11*
X211920833Y-131749140D02*
X212371260Y-131749140D01*
X212564300Y-132456953D02*
X211920833Y-132456953D01*
X211920833Y-131105673D01*
X212564300Y-131105673D01*
X213143420Y-132456953D02*
X213143420Y-131105673D01*
X213593847Y-132070873D01*
X214044274Y-131105673D01*
X214044274Y-132456953D01*
X214687740Y-131749140D02*
X215138167Y-131749140D01*
X215331207Y-132456953D02*
X214687740Y-132456953D01*
X214687740Y-131105673D01*
X215331207Y-131105673D01*
X216682487Y-132456953D02*
X216232061Y-131813487D01*
X215910327Y-132456953D02*
X215910327Y-131105673D01*
X216425101Y-131105673D01*
X216553794Y-131170020D01*
X216618141Y-131234367D01*
X216682487Y-131363060D01*
X216682487Y-131556100D01*
X216618141Y-131684793D01*
X216553794Y-131749140D01*
X216425101Y-131813487D01*
X215910327Y-131813487D01*
X217969421Y-131170020D02*
X217840727Y-131105673D01*
X217647687Y-131105673D01*
X217454647Y-131170020D01*
X217325954Y-131298713D01*
X217261607Y-131427407D01*
X217197261Y-131684793D01*
X217197261Y-131877833D01*
X217261607Y-132135220D01*
X217325954Y-132263913D01*
X217454647Y-132392607D01*
X217647687Y-132456953D01*
X217776381Y-132456953D01*
X217969421Y-132392607D01*
X218033767Y-132328260D01*
X218033767Y-131877833D01*
X217776381Y-131877833D01*
X218612887Y-131749140D02*
X219063314Y-131749140D01*
X219256354Y-132456953D02*
X218612887Y-132456953D01*
X218612887Y-131105673D01*
X219256354Y-131105673D01*
X221315448Y-131749140D02*
X220865021Y-131749140D01*
X220865021Y-132456953D02*
X220865021Y-131105673D01*
X221508488Y-131105673D01*
X221958915Y-132070873D02*
X222602381Y-132070873D01*
X221830221Y-132456953D02*
X222280648Y-131105673D01*
X222731075Y-132456953D01*
X223953661Y-132328260D02*
X223889315Y-132392607D01*
X223696275Y-132456953D01*
X223567581Y-132456953D01*
X223374541Y-132392607D01*
X223245848Y-132263913D01*
X223181501Y-132135220D01*
X223117155Y-131877833D01*
X223117155Y-131684793D01*
X223181501Y-131427407D01*
X223245848Y-131298713D01*
X223374541Y-131170020D01*
X223567581Y-131105673D01*
X223696275Y-131105673D01*
X223889315Y-131170020D01*
X223953661Y-131234367D01*
X224532781Y-131749140D02*
X224983208Y-131749140D01*
X225176248Y-132456953D02*
X224532781Y-132456953D01*
X224532781Y-131105673D01*
X225176248Y-131105673D01*
X227492729Y-132456953D02*
X226720569Y-132456953D01*
X227106649Y-132456953D02*
X227106649Y-131105673D01*
X226977955Y-131298713D01*
X226849262Y-131427407D01*
X226720569Y-131491753D01*
D12*
X224322195Y-114370948D02*
X223920029Y-115577448D01*
X223517862Y-114370948D01*
X222426267Y-115462543D02*
X222483719Y-115519995D01*
X222656076Y-115577448D01*
X222770981Y-115577448D01*
X222943338Y-115519995D01*
X223058243Y-115405090D01*
X223115695Y-115290186D01*
X223173147Y-115060376D01*
X223173147Y-114888019D01*
X223115695Y-114658210D01*
X223058243Y-114543305D01*
X222943338Y-114428400D01*
X222770981Y-114370948D01*
X222656076Y-114370948D01*
X222483719Y-114428400D01*
X222426267Y-114485852D01*
X221219767Y-115462543D02*
X221277219Y-115519995D01*
X221449576Y-115577448D01*
X221564481Y-115577448D01*
X221736838Y-115519995D01*
X221851743Y-115405090D01*
X221909195Y-115290186D01*
X221966647Y-115060376D01*
X221966647Y-114888019D01*
X221909195Y-114658210D01*
X221851743Y-114543305D01*
X221736838Y-114428400D01*
X221564481Y-114370948D01*
X221449576Y-114370948D01*
X221277219Y-114428400D01*
X221219767Y-114485852D01*
X220989957Y-115692352D02*
X220070719Y-115692352D01*
X219840909Y-114485852D02*
X219783457Y-114428400D01*
X219668552Y-114370948D01*
X219381290Y-114370948D01*
X219266386Y-114428400D01*
X219208933Y-114485852D01*
X219151481Y-114600757D01*
X219151481Y-114715662D01*
X219208933Y-114888019D01*
X219898362Y-115577448D01*
X219151481Y-115577448D01*
X218921671Y-115692352D02*
X218002433Y-115692352D01*
X217025743Y-115462543D02*
X217083195Y-115519995D01*
X217255552Y-115577448D01*
X217370457Y-115577448D01*
X217542814Y-115519995D01*
X217657719Y-115405090D01*
X217715171Y-115290186D01*
X217772623Y-115060376D01*
X217772623Y-114888019D01*
X217715171Y-114658210D01*
X217657719Y-114543305D01*
X217542814Y-114428400D01*
X217370457Y-114370948D01*
X217255552Y-114370948D01*
X217083195Y-114428400D01*
X217025743Y-114485852D01*
X215876695Y-115577448D02*
X216566123Y-115577448D01*
X216221409Y-115577448D02*
X216221409Y-114370948D01*
X216336314Y-114543305D01*
X216451219Y-114658210D01*
X216566123Y-114715662D01*
X248318195Y-114195948D02*
X247916029Y-115402448D01*
X247513862Y-114195948D01*
X246422267Y-115287543D02*
X246479719Y-115344995D01*
X246652076Y-115402448D01*
X246766981Y-115402448D01*
X246939338Y-115344995D01*
X247054243Y-115230090D01*
X247111695Y-115115186D01*
X247169147Y-114885376D01*
X247169147Y-114713019D01*
X247111695Y-114483210D01*
X247054243Y-114368305D01*
X246939338Y-114253400D01*
X246766981Y-114195948D01*
X246652076Y-114195948D01*
X246479719Y-114253400D01*
X246422267Y-114310852D01*
X245215767Y-115287543D02*
X245273219Y-115344995D01*
X245445576Y-115402448D01*
X245560481Y-115402448D01*
X245732838Y-115344995D01*
X245847743Y-115230090D01*
X245905195Y-115115186D01*
X245962647Y-114885376D01*
X245962647Y-114713019D01*
X245905195Y-114483210D01*
X245847743Y-114368305D01*
X245732838Y-114253400D01*
X245560481Y-114195948D01*
X245445576Y-114195948D01*
X245273219Y-114253400D01*
X245215767Y-114310852D01*
X244985957Y-115517352D02*
X244066719Y-115517352D01*
X243147481Y-115402448D02*
X243836909Y-115402448D01*
X243492195Y-115402448D02*
X243492195Y-114195948D01*
X243607100Y-114368305D01*
X243722005Y-114483210D01*
X243836909Y-114540662D01*
X242917671Y-115517352D02*
X241998433Y-115517352D01*
X241021743Y-115287543D02*
X241079195Y-115344995D01*
X241251552Y-115402448D01*
X241366457Y-115402448D01*
X241538814Y-115344995D01*
X241653719Y-115230090D01*
X241711171Y-115115186D01*
X241768623Y-114885376D01*
X241768623Y-114713019D01*
X241711171Y-114483210D01*
X241653719Y-114368305D01*
X241538814Y-114253400D01*
X241366457Y-114195948D01*
X241251552Y-114195948D01*
X241079195Y-114253400D01*
X241021743Y-114310852D01*
X239872695Y-115402448D02*
X240562123Y-115402448D01*
X240217409Y-115402448D02*
X240217409Y-114195948D01*
X240332314Y-114368305D01*
X240447219Y-114483210D01*
X240562123Y-114540662D01*
X248315195Y-90379948D02*
X247913029Y-91586448D01*
X247510862Y-90379948D01*
X246419267Y-91471543D02*
X246476719Y-91528995D01*
X246649076Y-91586448D01*
X246763981Y-91586448D01*
X246936338Y-91528995D01*
X247051243Y-91414090D01*
X247108695Y-91299186D01*
X247166147Y-91069376D01*
X247166147Y-90897019D01*
X247108695Y-90667210D01*
X247051243Y-90552305D01*
X246936338Y-90437400D01*
X246763981Y-90379948D01*
X246649076Y-90379948D01*
X246476719Y-90437400D01*
X246419267Y-90494852D01*
X245212767Y-91471543D02*
X245270219Y-91528995D01*
X245442576Y-91586448D01*
X245557481Y-91586448D01*
X245729838Y-91528995D01*
X245844743Y-91414090D01*
X245902195Y-91299186D01*
X245959647Y-91069376D01*
X245959647Y-90897019D01*
X245902195Y-90667210D01*
X245844743Y-90552305D01*
X245729838Y-90437400D01*
X245557481Y-90379948D01*
X245442576Y-90379948D01*
X245270219Y-90437400D01*
X245212767Y-90494852D01*
X244982957Y-91701352D02*
X244063719Y-91701352D01*
X243891362Y-90379948D02*
X243144481Y-90379948D01*
X243546648Y-90839567D01*
X243374290Y-90839567D01*
X243259386Y-90897019D01*
X243201933Y-90954471D01*
X243144481Y-91069376D01*
X243144481Y-91356638D01*
X243201933Y-91471543D01*
X243259386Y-91528995D01*
X243374290Y-91586448D01*
X243719005Y-91586448D01*
X243833909Y-91528995D01*
X243891362Y-91471543D01*
X242914671Y-91701352D02*
X241995433Y-91701352D01*
X241018743Y-91471543D02*
X241076195Y-91528995D01*
X241248552Y-91586448D01*
X241363457Y-91586448D01*
X241535814Y-91528995D01*
X241650719Y-91414090D01*
X241708171Y-91299186D01*
X241765623Y-91069376D01*
X241765623Y-90897019D01*
X241708171Y-90667210D01*
X241650719Y-90552305D01*
X241535814Y-90437400D01*
X241363457Y-90379948D01*
X241248552Y-90379948D01*
X241076195Y-90437400D01*
X241018743Y-90494852D01*
X239869695Y-91586448D02*
X240559123Y-91586448D01*
X240214409Y-91586448D02*
X240214409Y-90379948D01*
X240329314Y-90552305D01*
X240444219Y-90667210D01*
X240559123Y-90724662D01*
X224394195Y-90322948D02*
X223992029Y-91529448D01*
X223589862Y-90322948D01*
X222498267Y-91414543D02*
X222555719Y-91471995D01*
X222728076Y-91529448D01*
X222842981Y-91529448D01*
X223015338Y-91471995D01*
X223130243Y-91357090D01*
X223187695Y-91242186D01*
X223245147Y-91012376D01*
X223245147Y-90840019D01*
X223187695Y-90610210D01*
X223130243Y-90495305D01*
X223015338Y-90380400D01*
X222842981Y-90322948D01*
X222728076Y-90322948D01*
X222555719Y-90380400D01*
X222498267Y-90437852D01*
X221291767Y-91414543D02*
X221349219Y-91471995D01*
X221521576Y-91529448D01*
X221636481Y-91529448D01*
X221808838Y-91471995D01*
X221923743Y-91357090D01*
X221981195Y-91242186D01*
X222038647Y-91012376D01*
X222038647Y-90840019D01*
X221981195Y-90610210D01*
X221923743Y-90495305D01*
X221808838Y-90380400D01*
X221636481Y-90322948D01*
X221521576Y-90322948D01*
X221349219Y-90380400D01*
X221291767Y-90437852D01*
X221061957Y-91644352D02*
X220142719Y-91644352D01*
X219338386Y-90725114D02*
X219338386Y-91529448D01*
X219625648Y-90265495D02*
X219912909Y-91127281D01*
X219166029Y-91127281D01*
X218993671Y-91644352D02*
X218074433Y-91644352D01*
X217097743Y-91414543D02*
X217155195Y-91471995D01*
X217327552Y-91529448D01*
X217442457Y-91529448D01*
X217614814Y-91471995D01*
X217729719Y-91357090D01*
X217787171Y-91242186D01*
X217844623Y-91012376D01*
X217844623Y-90840019D01*
X217787171Y-90610210D01*
X217729719Y-90495305D01*
X217614814Y-90380400D01*
X217442457Y-90322948D01*
X217327552Y-90322948D01*
X217155195Y-90380400D01*
X217097743Y-90437852D01*
X215948695Y-91529448D02*
X216638123Y-91529448D01*
X216293409Y-91529448D02*
X216293409Y-90322948D01*
X216408314Y-90495305D01*
X216523219Y-90610210D01*
X216638123Y-90667662D01*
X243540862Y-110400400D02*
X243655767Y-110342948D01*
X243828124Y-110342948D01*
X244000481Y-110400400D01*
X244115386Y-110515305D01*
X244172838Y-110630210D01*
X244230290Y-110860019D01*
X244230290Y-111032376D01*
X244172838Y-111262186D01*
X244115386Y-111377090D01*
X244000481Y-111491995D01*
X243828124Y-111549448D01*
X243713219Y-111549448D01*
X243540862Y-111491995D01*
X243483410Y-111434543D01*
X243483410Y-111032376D01*
X243713219Y-111032376D01*
X242966338Y-111549448D02*
X242966338Y-110342948D01*
X242276910Y-111549448D01*
X242276910Y-110342948D01*
X241702386Y-111549448D02*
X241702386Y-110342948D01*
X241415124Y-110342948D01*
X241242767Y-110400400D01*
X241127862Y-110515305D01*
X241070410Y-110630210D01*
X241012958Y-110860019D01*
X241012958Y-111032376D01*
X241070410Y-111262186D01*
X241127862Y-111377090D01*
X241242767Y-111491995D01*
X241415124Y-111549448D01*
X241702386Y-111549448D01*
X240783148Y-111664352D02*
X239863910Y-111664352D01*
X239634100Y-110457852D02*
X239576648Y-110400400D01*
X239461743Y-110342948D01*
X239174481Y-110342948D01*
X239059577Y-110400400D01*
X239002124Y-110457852D01*
X238944672Y-110572757D01*
X238944672Y-110687662D01*
X239002124Y-110860019D01*
X239691553Y-111549448D01*
X238944672Y-111549448D01*
X238714862Y-111664352D02*
X237795624Y-111664352D01*
X236818934Y-111434543D02*
X236876386Y-111491995D01*
X237048743Y-111549448D01*
X237163648Y-111549448D01*
X237336005Y-111491995D01*
X237450910Y-111377090D01*
X237508362Y-111262186D01*
X237565814Y-111032376D01*
X237565814Y-110860019D01*
X237508362Y-110630210D01*
X237450910Y-110515305D01*
X237336005Y-110400400D01*
X237163648Y-110342948D01*
X237048743Y-110342948D01*
X236876386Y-110400400D01*
X236818934Y-110457852D01*
X235669886Y-111549448D02*
X236359314Y-111549448D01*
X236014600Y-111549448D02*
X236014600Y-110342948D01*
X236129505Y-110515305D01*
X236244410Y-110630210D01*
X236359314Y-110687662D01*
X227480862Y-110428400D02*
X227595767Y-110370948D01*
X227768124Y-110370948D01*
X227940481Y-110428400D01*
X228055386Y-110543305D01*
X228112838Y-110658210D01*
X228170290Y-110888019D01*
X228170290Y-111060376D01*
X228112838Y-111290186D01*
X228055386Y-111405090D01*
X227940481Y-111519995D01*
X227768124Y-111577448D01*
X227653219Y-111577448D01*
X227480862Y-111519995D01*
X227423410Y-111462543D01*
X227423410Y-111060376D01*
X227653219Y-111060376D01*
X226906338Y-111577448D02*
X226906338Y-110370948D01*
X226216910Y-111577448D01*
X226216910Y-110370948D01*
X225642386Y-111577448D02*
X225642386Y-110370948D01*
X225355124Y-110370948D01*
X225182767Y-110428400D01*
X225067862Y-110543305D01*
X225010410Y-110658210D01*
X224952958Y-110888019D01*
X224952958Y-111060376D01*
X225010410Y-111290186D01*
X225067862Y-111405090D01*
X225182767Y-111519995D01*
X225355124Y-111577448D01*
X225642386Y-111577448D01*
X224723148Y-111692352D02*
X223803910Y-111692352D01*
X222884672Y-111577448D02*
X223574100Y-111577448D01*
X223229386Y-111577448D02*
X223229386Y-110370948D01*
X223344291Y-110543305D01*
X223459196Y-110658210D01*
X223574100Y-110715662D01*
X222654862Y-111692352D02*
X221735624Y-111692352D01*
X220758934Y-111462543D02*
X220816386Y-111519995D01*
X220988743Y-111577448D01*
X221103648Y-111577448D01*
X221276005Y-111519995D01*
X221390910Y-111405090D01*
X221448362Y-111290186D01*
X221505814Y-111060376D01*
X221505814Y-110888019D01*
X221448362Y-110658210D01*
X221390910Y-110543305D01*
X221276005Y-110428400D01*
X221103648Y-110370948D01*
X220988743Y-110370948D01*
X220816386Y-110428400D01*
X220758934Y-110485852D01*
X219609886Y-111577448D02*
X220299314Y-111577448D01*
X219954600Y-111577448D02*
X219954600Y-110370948D01*
X220069505Y-110543305D01*
X220184410Y-110658210D01*
X220299314Y-110715662D01*
X243507862Y-94465400D02*
X243622767Y-94407948D01*
X243795124Y-94407948D01*
X243967481Y-94465400D01*
X244082386Y-94580305D01*
X244139838Y-94695210D01*
X244197290Y-94925019D01*
X244197290Y-95097376D01*
X244139838Y-95327186D01*
X244082386Y-95442090D01*
X243967481Y-95556995D01*
X243795124Y-95614448D01*
X243680219Y-95614448D01*
X243507862Y-95556995D01*
X243450410Y-95499543D01*
X243450410Y-95097376D01*
X243680219Y-95097376D01*
X242933338Y-95614448D02*
X242933338Y-94407948D01*
X242243910Y-95614448D01*
X242243910Y-94407948D01*
X241669386Y-95614448D02*
X241669386Y-94407948D01*
X241382124Y-94407948D01*
X241209767Y-94465400D01*
X241094862Y-94580305D01*
X241037410Y-94695210D01*
X240979958Y-94925019D01*
X240979958Y-95097376D01*
X241037410Y-95327186D01*
X241094862Y-95442090D01*
X241209767Y-95556995D01*
X241382124Y-95614448D01*
X241669386Y-95614448D01*
X240750148Y-95729352D02*
X239830910Y-95729352D01*
X239658553Y-94407948D02*
X238911672Y-94407948D01*
X239313839Y-94867567D01*
X239141481Y-94867567D01*
X239026577Y-94925019D01*
X238969124Y-94982471D01*
X238911672Y-95097376D01*
X238911672Y-95384638D01*
X238969124Y-95499543D01*
X239026577Y-95556995D01*
X239141481Y-95614448D01*
X239486196Y-95614448D01*
X239601100Y-95556995D01*
X239658553Y-95499543D01*
X238681862Y-95729352D02*
X237762624Y-95729352D01*
X236785934Y-95499543D02*
X236843386Y-95556995D01*
X237015743Y-95614448D01*
X237130648Y-95614448D01*
X237303005Y-95556995D01*
X237417910Y-95442090D01*
X237475362Y-95327186D01*
X237532814Y-95097376D01*
X237532814Y-94925019D01*
X237475362Y-94695210D01*
X237417910Y-94580305D01*
X237303005Y-94465400D01*
X237130648Y-94407948D01*
X237015743Y-94407948D01*
X236843386Y-94465400D01*
X236785934Y-94522852D01*
X235636886Y-95614448D02*
X236326314Y-95614448D01*
X235981600Y-95614448D02*
X235981600Y-94407948D01*
X236096505Y-94580305D01*
X236211410Y-94695210D01*
X236326314Y-94752662D01*
X227581862Y-94426400D02*
X227696767Y-94368948D01*
X227869124Y-94368948D01*
X228041481Y-94426400D01*
X228156386Y-94541305D01*
X228213838Y-94656210D01*
X228271290Y-94886019D01*
X228271290Y-95058376D01*
X228213838Y-95288186D01*
X228156386Y-95403090D01*
X228041481Y-95517995D01*
X227869124Y-95575448D01*
X227754219Y-95575448D01*
X227581862Y-95517995D01*
X227524410Y-95460543D01*
X227524410Y-95058376D01*
X227754219Y-95058376D01*
X227007338Y-95575448D02*
X227007338Y-94368948D01*
X226317910Y-95575448D01*
X226317910Y-94368948D01*
X225743386Y-95575448D02*
X225743386Y-94368948D01*
X225456124Y-94368948D01*
X225283767Y-94426400D01*
X225168862Y-94541305D01*
X225111410Y-94656210D01*
X225053958Y-94886019D01*
X225053958Y-95058376D01*
X225111410Y-95288186D01*
X225168862Y-95403090D01*
X225283767Y-95517995D01*
X225456124Y-95575448D01*
X225743386Y-95575448D01*
X224824148Y-95690352D02*
X223904910Y-95690352D01*
X223100577Y-94771114D02*
X223100577Y-95575448D01*
X223387839Y-94311495D02*
X223675100Y-95173281D01*
X222928220Y-95173281D01*
X222755862Y-95690352D02*
X221836624Y-95690352D01*
X220859934Y-95460543D02*
X220917386Y-95517995D01*
X221089743Y-95575448D01*
X221204648Y-95575448D01*
X221377005Y-95517995D01*
X221491910Y-95403090D01*
X221549362Y-95288186D01*
X221606814Y-95058376D01*
X221606814Y-94886019D01*
X221549362Y-94656210D01*
X221491910Y-94541305D01*
X221377005Y-94426400D01*
X221204648Y-94368948D01*
X221089743Y-94368948D01*
X220917386Y-94426400D01*
X220859934Y-94483852D01*
X219710886Y-95575448D02*
X220400314Y-95575448D01*
X220055600Y-95575448D02*
X220055600Y-94368948D01*
X220170505Y-94541305D01*
X220285410Y-94656210D01*
X220400314Y-94713662D01*
X251514410Y-119383543D02*
X251571862Y-119440995D01*
X251744219Y-119498448D01*
X251859124Y-119498448D01*
X252031481Y-119440995D01*
X252146386Y-119326090D01*
X252203838Y-119211186D01*
X252261290Y-118981376D01*
X252261290Y-118809019D01*
X252203838Y-118579210D01*
X252146386Y-118464305D01*
X252031481Y-118349400D01*
X251859124Y-118291948D01*
X251744219Y-118291948D01*
X251571862Y-118349400D01*
X251514410Y-118406852D01*
X251054790Y-119153733D02*
X250480267Y-119153733D01*
X251169695Y-119498448D02*
X250767529Y-118291948D01*
X250365362Y-119498448D01*
X249963195Y-119498448D02*
X249963195Y-118291948D01*
X249273767Y-119498448D01*
X249273767Y-118291948D01*
X248699243Y-119498448D02*
X248699243Y-118291948D01*
X248699243Y-118866471D02*
X248009815Y-118866471D01*
X248009815Y-119498448D02*
X248009815Y-118291948D01*
X247722553Y-119613352D02*
X246803315Y-119613352D01*
X246573505Y-118406852D02*
X246516053Y-118349400D01*
X246401148Y-118291948D01*
X246113886Y-118291948D01*
X245998982Y-118349400D01*
X245941529Y-118406852D01*
X245884077Y-118521757D01*
X245884077Y-118636662D01*
X245941529Y-118809019D01*
X246630958Y-119498448D01*
X245884077Y-119498448D01*
X245654267Y-119613352D02*
X244735029Y-119613352D01*
X243758339Y-119383543D02*
X243815791Y-119440995D01*
X243988148Y-119498448D01*
X244103053Y-119498448D01*
X244275410Y-119440995D01*
X244390315Y-119326090D01*
X244447767Y-119211186D01*
X244505219Y-118981376D01*
X244505219Y-118809019D01*
X244447767Y-118579210D01*
X244390315Y-118464305D01*
X244275410Y-118349400D01*
X244103053Y-118291948D01*
X243988148Y-118291948D01*
X243815791Y-118349400D01*
X243758339Y-118406852D01*
X242609291Y-119498448D02*
X243298719Y-119498448D01*
X242954005Y-119498448D02*
X242954005Y-118291948D01*
X243068910Y-118464305D01*
X243183815Y-118579210D01*
X243298719Y-118636662D01*
X219552410Y-119479543D02*
X219609862Y-119536995D01*
X219782219Y-119594448D01*
X219897124Y-119594448D01*
X220069481Y-119536995D01*
X220184386Y-119422090D01*
X220241838Y-119307186D01*
X220299290Y-119077376D01*
X220299290Y-118905019D01*
X220241838Y-118675210D01*
X220184386Y-118560305D01*
X220069481Y-118445400D01*
X219897124Y-118387948D01*
X219782219Y-118387948D01*
X219609862Y-118445400D01*
X219552410Y-118502852D01*
X219092790Y-119249733D02*
X218518267Y-119249733D01*
X219207695Y-119594448D02*
X218805529Y-118387948D01*
X218403362Y-119594448D01*
X218001195Y-119594448D02*
X218001195Y-118387948D01*
X217311767Y-119594448D01*
X217311767Y-118387948D01*
X216737243Y-119594448D02*
X216737243Y-118387948D01*
X216737243Y-118962471D02*
X216047815Y-118962471D01*
X216047815Y-119594448D02*
X216047815Y-118387948D01*
X215760553Y-119709352D02*
X214841315Y-119709352D01*
X213922077Y-119594448D02*
X214611505Y-119594448D01*
X214266791Y-119594448D02*
X214266791Y-118387948D01*
X214381696Y-118560305D01*
X214496601Y-118675210D01*
X214611505Y-118732662D01*
X213692267Y-119709352D02*
X212773029Y-119709352D01*
X211796339Y-119479543D02*
X211853791Y-119536995D01*
X212026148Y-119594448D01*
X212141053Y-119594448D01*
X212313410Y-119536995D01*
X212428315Y-119422090D01*
X212485767Y-119307186D01*
X212543219Y-119077376D01*
X212543219Y-118905019D01*
X212485767Y-118675210D01*
X212428315Y-118560305D01*
X212313410Y-118445400D01*
X212141053Y-118387948D01*
X212026148Y-118387948D01*
X211853791Y-118445400D01*
X211796339Y-118502852D01*
X210647291Y-119594448D02*
X211336719Y-119594448D01*
X210992005Y-119594448D02*
X210992005Y-118387948D01*
X211106910Y-118560305D01*
X211221815Y-118675210D01*
X211336719Y-118732662D01*
X251420410Y-87469543D02*
X251477862Y-87526995D01*
X251650219Y-87584448D01*
X251765124Y-87584448D01*
X251937481Y-87526995D01*
X252052386Y-87412090D01*
X252109838Y-87297186D01*
X252167290Y-87067376D01*
X252167290Y-86895019D01*
X252109838Y-86665210D01*
X252052386Y-86550305D01*
X251937481Y-86435400D01*
X251765124Y-86377948D01*
X251650219Y-86377948D01*
X251477862Y-86435400D01*
X251420410Y-86492852D01*
X250960790Y-87239733D02*
X250386267Y-87239733D01*
X251075695Y-87584448D02*
X250673529Y-86377948D01*
X250271362Y-87584448D01*
X249869195Y-87584448D02*
X249869195Y-86377948D01*
X249179767Y-87584448D01*
X249179767Y-86377948D01*
X248605243Y-87584448D02*
X248605243Y-86377948D01*
X248605243Y-86952471D02*
X247915815Y-86952471D01*
X247915815Y-87584448D02*
X247915815Y-86377948D01*
X247628553Y-87699352D02*
X246709315Y-87699352D01*
X246536958Y-86377948D02*
X245790077Y-86377948D01*
X246192244Y-86837567D01*
X246019886Y-86837567D01*
X245904982Y-86895019D01*
X245847529Y-86952471D01*
X245790077Y-87067376D01*
X245790077Y-87354638D01*
X245847529Y-87469543D01*
X245904982Y-87526995D01*
X246019886Y-87584448D01*
X246364601Y-87584448D01*
X246479505Y-87526995D01*
X246536958Y-87469543D01*
X245560267Y-87699352D02*
X244641029Y-87699352D01*
X243664339Y-87469543D02*
X243721791Y-87526995D01*
X243894148Y-87584448D01*
X244009053Y-87584448D01*
X244181410Y-87526995D01*
X244296315Y-87412090D01*
X244353767Y-87297186D01*
X244411219Y-87067376D01*
X244411219Y-86895019D01*
X244353767Y-86665210D01*
X244296315Y-86550305D01*
X244181410Y-86435400D01*
X244009053Y-86377948D01*
X243894148Y-86377948D01*
X243721791Y-86435400D01*
X243664339Y-86492852D01*
X242515291Y-87584448D02*
X243204719Y-87584448D01*
X242860005Y-87584448D02*
X242860005Y-86377948D01*
X242974910Y-86550305D01*
X243089815Y-86665210D01*
X243204719Y-86722662D01*
X219532410Y-87408543D02*
X219589862Y-87465995D01*
X219762219Y-87523448D01*
X219877124Y-87523448D01*
X220049481Y-87465995D01*
X220164386Y-87351090D01*
X220221838Y-87236186D01*
X220279290Y-87006376D01*
X220279290Y-86834019D01*
X220221838Y-86604210D01*
X220164386Y-86489305D01*
X220049481Y-86374400D01*
X219877124Y-86316948D01*
X219762219Y-86316948D01*
X219589862Y-86374400D01*
X219532410Y-86431852D01*
X219072790Y-87178733D02*
X218498267Y-87178733D01*
X219187695Y-87523448D02*
X218785529Y-86316948D01*
X218383362Y-87523448D01*
X217981195Y-87523448D02*
X217981195Y-86316948D01*
X217291767Y-87523448D01*
X217291767Y-86316948D01*
X216717243Y-87523448D02*
X216717243Y-86316948D01*
X216717243Y-86891471D02*
X216027815Y-86891471D01*
X216027815Y-87523448D02*
X216027815Y-86316948D01*
X215740553Y-87638352D02*
X214821315Y-87638352D01*
X214016982Y-86719114D02*
X214016982Y-87523448D01*
X214304244Y-86259495D02*
X214591505Y-87121281D01*
X213844625Y-87121281D01*
X213672267Y-87638352D02*
X212753029Y-87638352D01*
X211776339Y-87408543D02*
X211833791Y-87465995D01*
X212006148Y-87523448D01*
X212121053Y-87523448D01*
X212293410Y-87465995D01*
X212408315Y-87351090D01*
X212465767Y-87236186D01*
X212523219Y-87006376D01*
X212523219Y-86834019D01*
X212465767Y-86604210D01*
X212408315Y-86489305D01*
X212293410Y-86374400D01*
X212121053Y-86316948D01*
X212006148Y-86316948D01*
X211833791Y-86374400D01*
X211776339Y-86431852D01*
X210627291Y-87523448D02*
X211316719Y-87523448D01*
X210972005Y-87523448D02*
X210972005Y-86316948D01*
X211086910Y-86489305D01*
X211201815Y-86604210D01*
X211316719Y-86661662D01*
M02*
