G04 #@! TF.FileFunction,Legend,Top*
%FSLAX46Y46*%
G04 Gerber Fmt 4.6, Leading zero omitted, Abs format (unit mm)*
G04 Created by KiCad (PCBNEW 4.0.6) date 05/08/17 07:32:33*
%MOMM*%
%LPD*%
G01*
G04 APERTURE LIST*
%ADD10C,0.100000*%
%ADD11C,0.152400*%
%ADD12C,0.101600*%
%ADD13C,0.002032*%
%ADD14C,0.127000*%
G04 APERTURE END LIST*
D10*
D11*
X262800100Y-131458900D02*
X261530100Y-131458900D01*
X261530100Y-131458900D02*
X260895100Y-130823900D01*
X260895100Y-130823900D02*
X260895100Y-129553900D01*
X260895100Y-129553900D02*
X261530100Y-128918900D01*
X260895100Y-130823900D02*
X260260100Y-131458900D01*
X260260100Y-131458900D02*
X258990100Y-131458900D01*
X258990100Y-131458900D02*
X258355100Y-130823900D01*
X258355100Y-130823900D02*
X258355100Y-129553900D01*
X258355100Y-129553900D02*
X258990100Y-128918900D01*
X258990100Y-128918900D02*
X260260100Y-128918900D01*
X260260100Y-128918900D02*
X260895100Y-129553900D01*
X263435100Y-130823900D02*
X263435100Y-129553900D01*
X262800100Y-131458900D02*
X263435100Y-130823900D01*
X263435100Y-129553900D02*
X262800100Y-128918900D01*
X261530100Y-128918900D02*
X262800100Y-128918900D01*
X258355100Y-130823900D02*
X257720100Y-131458900D01*
X257720100Y-131458900D02*
X256450100Y-131458900D01*
X256450100Y-131458900D02*
X255815100Y-130823900D01*
X255815100Y-130823900D02*
X255815100Y-129553900D01*
X255815100Y-129553900D02*
X256450100Y-128918900D01*
X256450100Y-128918900D02*
X257720100Y-128918900D01*
X257720100Y-128918900D02*
X258355100Y-129553900D01*
D12*
X211034957Y-88417848D02*
X211781838Y-88417848D01*
X211379671Y-88877467D01*
X211552029Y-88877467D01*
X211666933Y-88934919D01*
X211724386Y-88992371D01*
X211781838Y-89107276D01*
X211781838Y-89394538D01*
X211724386Y-89509443D01*
X211666933Y-89566895D01*
X211552029Y-89624348D01*
X211207314Y-89624348D01*
X211092410Y-89566895D01*
X211034957Y-89509443D01*
X212126553Y-88417848D02*
X212528719Y-89624348D01*
X212930886Y-88417848D01*
X213218148Y-88417848D02*
X213965029Y-88417848D01*
X213562862Y-88877467D01*
X213735220Y-88877467D01*
X213850124Y-88934919D01*
X213907577Y-88992371D01*
X213965029Y-89107276D01*
X213965029Y-89394538D01*
X213907577Y-89509443D01*
X213850124Y-89566895D01*
X213735220Y-89624348D01*
X213390505Y-89624348D01*
X213275601Y-89566895D01*
X213218148Y-89509443D01*
X214194839Y-89739252D02*
X215114077Y-89739252D01*
X216090767Y-89509443D02*
X216033315Y-89566895D01*
X215860958Y-89624348D01*
X215746053Y-89624348D01*
X215573696Y-89566895D01*
X215458791Y-89451990D01*
X215401339Y-89337086D01*
X215343887Y-89107276D01*
X215343887Y-88934919D01*
X215401339Y-88705110D01*
X215458791Y-88590205D01*
X215573696Y-88475300D01*
X215746053Y-88417848D01*
X215860958Y-88417848D01*
X216033315Y-88475300D01*
X216090767Y-88532752D01*
X217239815Y-89624348D02*
X216550387Y-89624348D01*
X216895101Y-89624348D02*
X216895101Y-88417848D01*
X216780196Y-88590205D01*
X216665291Y-88705110D01*
X216550387Y-88762562D01*
D13*
X210910245Y-90788551D02*
X210910245Y-90764421D01*
X210919438Y-90764421D01*
X210921736Y-90765570D01*
X210922885Y-90766719D01*
X210924034Y-90769017D01*
X210924034Y-90772464D01*
X210922885Y-90774762D01*
X210921736Y-90775911D01*
X210919438Y-90777060D01*
X210910245Y-90777060D01*
X210930928Y-90764421D02*
X210944717Y-90764421D01*
X210937822Y-90788551D02*
X210937822Y-90764421D01*
X210966549Y-90788551D02*
X210958505Y-90777060D01*
X210952760Y-90788551D02*
X210952760Y-90764421D01*
X210961953Y-90764421D01*
X210964251Y-90765570D01*
X210965400Y-90766719D01*
X210966549Y-90769017D01*
X210966549Y-90772464D01*
X210965400Y-90774762D01*
X210964251Y-90775911D01*
X210961953Y-90777060D01*
X210952760Y-90777060D01*
X210989530Y-90788551D02*
X210975741Y-90788551D01*
X210982635Y-90788551D02*
X210982635Y-90764421D01*
X210980337Y-90767868D01*
X210978039Y-90770166D01*
X210975741Y-90771315D01*
X210996424Y-90764421D02*
X211010213Y-90764421D01*
X211003318Y-90788551D02*
X211003318Y-90764421D01*
X211018256Y-90788551D02*
X211018256Y-90764421D01*
X211027449Y-90764421D01*
X211029747Y-90765570D01*
X211030896Y-90766719D01*
X211032045Y-90769017D01*
X211032045Y-90772464D01*
X211030896Y-90774762D01*
X211029747Y-90775911D01*
X211027449Y-90777060D01*
X211018256Y-90777060D01*
X211055026Y-90788551D02*
X211041237Y-90788551D01*
X211048131Y-90788551D02*
X211048131Y-90764421D01*
X211045833Y-90767868D01*
X211043535Y-90770166D01*
X211041237Y-90771315D01*
X211078007Y-90788551D02*
X211064218Y-90788551D01*
X211071112Y-90788551D02*
X211071112Y-90764421D01*
X211068814Y-90767868D01*
X211066516Y-90770166D01*
X211064218Y-90771315D01*
X211102137Y-90788551D02*
X211094093Y-90777060D01*
X211088348Y-90788551D02*
X211088348Y-90764421D01*
X211097541Y-90764421D01*
X211099839Y-90765570D01*
X211100988Y-90766719D01*
X211102137Y-90769017D01*
X211102137Y-90772464D01*
X211100988Y-90774762D01*
X211099839Y-90775911D01*
X211097541Y-90777060D01*
X211088348Y-90777060D01*
D12*
X213383838Y-80652100D02*
X213268933Y-80594648D01*
X213096576Y-80594648D01*
X212924219Y-80652100D01*
X212809314Y-80767005D01*
X212751862Y-80881910D01*
X212694410Y-81111719D01*
X212694410Y-81284076D01*
X212751862Y-81513886D01*
X212809314Y-81628790D01*
X212924219Y-81743695D01*
X213096576Y-81801148D01*
X213211481Y-81801148D01*
X213383838Y-81743695D01*
X213441290Y-81686243D01*
X213441290Y-81284076D01*
X213211481Y-81284076D01*
X213958362Y-81801148D02*
X213958362Y-80594648D01*
X214647790Y-81801148D01*
X214647790Y-80594648D01*
X215222314Y-81801148D02*
X215222314Y-80594648D01*
X215509576Y-80594648D01*
X215681933Y-80652100D01*
X215796838Y-80767005D01*
X215854290Y-80881910D01*
X215911742Y-81111719D01*
X215911742Y-81284076D01*
X215854290Y-81513886D01*
X215796838Y-81628790D01*
X215681933Y-81743695D01*
X215509576Y-81801148D01*
X215222314Y-81801148D01*
X216141552Y-81916052D02*
X217060790Y-81916052D01*
X218037480Y-81686243D02*
X217980028Y-81743695D01*
X217807671Y-81801148D01*
X217692766Y-81801148D01*
X217520409Y-81743695D01*
X217405504Y-81628790D01*
X217348052Y-81513886D01*
X217290600Y-81284076D01*
X217290600Y-81111719D01*
X217348052Y-80881910D01*
X217405504Y-80767005D01*
X217520409Y-80652100D01*
X217692766Y-80594648D01*
X217807671Y-80594648D01*
X217980028Y-80652100D01*
X218037480Y-80709552D01*
X219186528Y-81801148D02*
X218497100Y-81801148D01*
X218841814Y-81801148D02*
X218841814Y-80594648D01*
X218726909Y-80767005D01*
X218612004Y-80881910D01*
X218497100Y-80939362D01*
D13*
X212512245Y-82965351D02*
X212512245Y-82941221D01*
X212521438Y-82941221D01*
X212523736Y-82942370D01*
X212524885Y-82943519D01*
X212526034Y-82945817D01*
X212526034Y-82949264D01*
X212524885Y-82951562D01*
X212523736Y-82952711D01*
X212521438Y-82953860D01*
X212512245Y-82953860D01*
X212532928Y-82941221D02*
X212546717Y-82941221D01*
X212539822Y-82965351D02*
X212539822Y-82941221D01*
X212568549Y-82965351D02*
X212560505Y-82953860D01*
X212554760Y-82965351D02*
X212554760Y-82941221D01*
X212563953Y-82941221D01*
X212566251Y-82942370D01*
X212567400Y-82943519D01*
X212568549Y-82945817D01*
X212568549Y-82949264D01*
X212567400Y-82951562D01*
X212566251Y-82952711D01*
X212563953Y-82953860D01*
X212554760Y-82953860D01*
X212591530Y-82965351D02*
X212577741Y-82965351D01*
X212584635Y-82965351D02*
X212584635Y-82941221D01*
X212582337Y-82944668D01*
X212580039Y-82946966D01*
X212577741Y-82948115D01*
X212598424Y-82941221D02*
X212612213Y-82941221D01*
X212605318Y-82965351D02*
X212605318Y-82941221D01*
X212620256Y-82965351D02*
X212620256Y-82941221D01*
X212629449Y-82941221D01*
X212631747Y-82942370D01*
X212632896Y-82943519D01*
X212634045Y-82945817D01*
X212634045Y-82949264D01*
X212632896Y-82951562D01*
X212631747Y-82952711D01*
X212629449Y-82953860D01*
X212620256Y-82953860D01*
X212657026Y-82965351D02*
X212643237Y-82965351D01*
X212650131Y-82965351D02*
X212650131Y-82941221D01*
X212647833Y-82944668D01*
X212645535Y-82946966D01*
X212643237Y-82948115D01*
X212680007Y-82965351D02*
X212666218Y-82965351D01*
X212673112Y-82965351D02*
X212673112Y-82941221D01*
X212670814Y-82944668D01*
X212668516Y-82946966D01*
X212666218Y-82948115D01*
X212704137Y-82965351D02*
X212696093Y-82953860D01*
X212690348Y-82965351D02*
X212690348Y-82941221D01*
X212699541Y-82941221D01*
X212701839Y-82942370D01*
X212702988Y-82943519D01*
X212704137Y-82945817D01*
X212704137Y-82949264D01*
X212702988Y-82951562D01*
X212701839Y-82952711D01*
X212699541Y-82953860D01*
X212690348Y-82953860D01*
D12*
X211697986Y-103060948D02*
X211123462Y-103060948D01*
X211123462Y-101854448D01*
X211812890Y-103175852D02*
X212732128Y-103175852D01*
X213708818Y-102946043D02*
X213651366Y-103003495D01*
X213479009Y-103060948D01*
X213364104Y-103060948D01*
X213191747Y-103003495D01*
X213076842Y-102888590D01*
X213019390Y-102773686D01*
X212961938Y-102543876D01*
X212961938Y-102371519D01*
X213019390Y-102141710D01*
X213076842Y-102026805D01*
X213191747Y-101911900D01*
X213364104Y-101854448D01*
X213479009Y-101854448D01*
X213651366Y-101911900D01*
X213708818Y-101969352D01*
X214168438Y-101969352D02*
X214225890Y-101911900D01*
X214340795Y-101854448D01*
X214628057Y-101854448D01*
X214742961Y-101911900D01*
X214800414Y-101969352D01*
X214857866Y-102084257D01*
X214857866Y-102199162D01*
X214800414Y-102371519D01*
X214110985Y-103060948D01*
X214857866Y-103060948D01*
D13*
X210883845Y-104225151D02*
X210883845Y-104201021D01*
X210893038Y-104201021D01*
X210895336Y-104202170D01*
X210896485Y-104203319D01*
X210897634Y-104205617D01*
X210897634Y-104209064D01*
X210896485Y-104211362D01*
X210895336Y-104212511D01*
X210893038Y-104213660D01*
X210883845Y-104213660D01*
X210904528Y-104201021D02*
X210918317Y-104201021D01*
X210911422Y-104225151D02*
X210911422Y-104201021D01*
X210940149Y-104225151D02*
X210932105Y-104213660D01*
X210926360Y-104225151D02*
X210926360Y-104201021D01*
X210935553Y-104201021D01*
X210937851Y-104202170D01*
X210939000Y-104203319D01*
X210940149Y-104205617D01*
X210940149Y-104209064D01*
X210939000Y-104211362D01*
X210937851Y-104212511D01*
X210935553Y-104213660D01*
X210926360Y-104213660D01*
X210963130Y-104225151D02*
X210949341Y-104225151D01*
X210956235Y-104225151D02*
X210956235Y-104201021D01*
X210953937Y-104204468D01*
X210951639Y-104206766D01*
X210949341Y-104207915D01*
X210970024Y-104201021D02*
X210983813Y-104201021D01*
X210976918Y-104225151D02*
X210976918Y-104201021D01*
X210991856Y-104225151D02*
X210991856Y-104201021D01*
X211001049Y-104201021D01*
X211003347Y-104202170D01*
X211004496Y-104203319D01*
X211005645Y-104205617D01*
X211005645Y-104209064D01*
X211004496Y-104211362D01*
X211003347Y-104212511D01*
X211001049Y-104213660D01*
X210991856Y-104213660D01*
X211028626Y-104225151D02*
X211014837Y-104225151D01*
X211021731Y-104225151D02*
X211021731Y-104201021D01*
X211019433Y-104204468D01*
X211017135Y-104206766D01*
X211014837Y-104207915D01*
X211051607Y-104225151D02*
X211037818Y-104225151D01*
X211044712Y-104225151D02*
X211044712Y-104201021D01*
X211042414Y-104204468D01*
X211040116Y-104206766D01*
X211037818Y-104207915D01*
X211075737Y-104225151D02*
X211067693Y-104213660D01*
X211061948Y-104225151D02*
X211061948Y-104201021D01*
X211071141Y-104201021D01*
X211073439Y-104202170D01*
X211074588Y-104203319D01*
X211075737Y-104205617D01*
X211075737Y-104209064D01*
X211074588Y-104211362D01*
X211073439Y-104212511D01*
X211071141Y-104213660D01*
X211061948Y-104213660D01*
D12*
X211723386Y-105727948D02*
X211148862Y-105727948D01*
X211148862Y-104521448D01*
X211838290Y-105842852D02*
X212757528Y-105842852D01*
X213734218Y-105613043D02*
X213676766Y-105670495D01*
X213504409Y-105727948D01*
X213389504Y-105727948D01*
X213217147Y-105670495D01*
X213102242Y-105555590D01*
X213044790Y-105440686D01*
X212987338Y-105210876D01*
X212987338Y-105038519D01*
X213044790Y-104808710D01*
X213102242Y-104693805D01*
X213217147Y-104578900D01*
X213389504Y-104521448D01*
X213504409Y-104521448D01*
X213676766Y-104578900D01*
X213734218Y-104636352D01*
X214136385Y-104521448D02*
X214883266Y-104521448D01*
X214481099Y-104981067D01*
X214653457Y-104981067D01*
X214768361Y-105038519D01*
X214825814Y-105095971D01*
X214883266Y-105210876D01*
X214883266Y-105498138D01*
X214825814Y-105613043D01*
X214768361Y-105670495D01*
X214653457Y-105727948D01*
X214308742Y-105727948D01*
X214193838Y-105670495D01*
X214136385Y-105613043D01*
D13*
X210909245Y-106892151D02*
X210909245Y-106868021D01*
X210918438Y-106868021D01*
X210920736Y-106869170D01*
X210921885Y-106870319D01*
X210923034Y-106872617D01*
X210923034Y-106876064D01*
X210921885Y-106878362D01*
X210920736Y-106879511D01*
X210918438Y-106880660D01*
X210909245Y-106880660D01*
X210929928Y-106868021D02*
X210943717Y-106868021D01*
X210936822Y-106892151D02*
X210936822Y-106868021D01*
X210965549Y-106892151D02*
X210957505Y-106880660D01*
X210951760Y-106892151D02*
X210951760Y-106868021D01*
X210960953Y-106868021D01*
X210963251Y-106869170D01*
X210964400Y-106870319D01*
X210965549Y-106872617D01*
X210965549Y-106876064D01*
X210964400Y-106878362D01*
X210963251Y-106879511D01*
X210960953Y-106880660D01*
X210951760Y-106880660D01*
X210988530Y-106892151D02*
X210974741Y-106892151D01*
X210981635Y-106892151D02*
X210981635Y-106868021D01*
X210979337Y-106871468D01*
X210977039Y-106873766D01*
X210974741Y-106874915D01*
X210995424Y-106868021D02*
X211009213Y-106868021D01*
X211002318Y-106892151D02*
X211002318Y-106868021D01*
X211017256Y-106892151D02*
X211017256Y-106868021D01*
X211026449Y-106868021D01*
X211028747Y-106869170D01*
X211029896Y-106870319D01*
X211031045Y-106872617D01*
X211031045Y-106876064D01*
X211029896Y-106878362D01*
X211028747Y-106879511D01*
X211026449Y-106880660D01*
X211017256Y-106880660D01*
X211054026Y-106892151D02*
X211040237Y-106892151D01*
X211047131Y-106892151D02*
X211047131Y-106868021D01*
X211044833Y-106871468D01*
X211042535Y-106873766D01*
X211040237Y-106874915D01*
X211077007Y-106892151D02*
X211063218Y-106892151D01*
X211070112Y-106892151D02*
X211070112Y-106868021D01*
X211067814Y-106871468D01*
X211065516Y-106873766D01*
X211063218Y-106874915D01*
X211101137Y-106892151D02*
X211093093Y-106880660D01*
X211087348Y-106892151D02*
X211087348Y-106868021D01*
X211096541Y-106868021D01*
X211098839Y-106869170D01*
X211099988Y-106870319D01*
X211101137Y-106872617D01*
X211101137Y-106876064D01*
X211099988Y-106878362D01*
X211098839Y-106879511D01*
X211096541Y-106880660D01*
X211087348Y-106880660D01*
D12*
X211899386Y-108420348D02*
X211324862Y-108420348D01*
X211324862Y-107213848D01*
X212014290Y-108535252D02*
X212933528Y-108535252D01*
X213910218Y-108305443D02*
X213852766Y-108362895D01*
X213680409Y-108420348D01*
X213565504Y-108420348D01*
X213393147Y-108362895D01*
X213278242Y-108247990D01*
X213220790Y-108133086D01*
X213163338Y-107903276D01*
X213163338Y-107730919D01*
X213220790Y-107501110D01*
X213278242Y-107386205D01*
X213393147Y-107271300D01*
X213565504Y-107213848D01*
X213680409Y-107213848D01*
X213852766Y-107271300D01*
X213910218Y-107328752D01*
X214944361Y-107616014D02*
X214944361Y-108420348D01*
X214657099Y-107156395D02*
X214369838Y-108018181D01*
X215116718Y-108018181D01*
D13*
X211085245Y-109584551D02*
X211085245Y-109560421D01*
X211094438Y-109560421D01*
X211096736Y-109561570D01*
X211097885Y-109562719D01*
X211099034Y-109565017D01*
X211099034Y-109568464D01*
X211097885Y-109570762D01*
X211096736Y-109571911D01*
X211094438Y-109573060D01*
X211085245Y-109573060D01*
X211105928Y-109560421D02*
X211119717Y-109560421D01*
X211112822Y-109584551D02*
X211112822Y-109560421D01*
X211141549Y-109584551D02*
X211133505Y-109573060D01*
X211127760Y-109584551D02*
X211127760Y-109560421D01*
X211136953Y-109560421D01*
X211139251Y-109561570D01*
X211140400Y-109562719D01*
X211141549Y-109565017D01*
X211141549Y-109568464D01*
X211140400Y-109570762D01*
X211139251Y-109571911D01*
X211136953Y-109573060D01*
X211127760Y-109573060D01*
X211164530Y-109584551D02*
X211150741Y-109584551D01*
X211157635Y-109584551D02*
X211157635Y-109560421D01*
X211155337Y-109563868D01*
X211153039Y-109566166D01*
X211150741Y-109567315D01*
X211171424Y-109560421D02*
X211185213Y-109560421D01*
X211178318Y-109584551D02*
X211178318Y-109560421D01*
X211193256Y-109584551D02*
X211193256Y-109560421D01*
X211202449Y-109560421D01*
X211204747Y-109561570D01*
X211205896Y-109562719D01*
X211207045Y-109565017D01*
X211207045Y-109568464D01*
X211205896Y-109570762D01*
X211204747Y-109571911D01*
X211202449Y-109573060D01*
X211193256Y-109573060D01*
X211230026Y-109584551D02*
X211216237Y-109584551D01*
X211223131Y-109584551D02*
X211223131Y-109560421D01*
X211220833Y-109563868D01*
X211218535Y-109566166D01*
X211216237Y-109567315D01*
X211253007Y-109584551D02*
X211239218Y-109584551D01*
X211246112Y-109584551D02*
X211246112Y-109560421D01*
X211243814Y-109563868D01*
X211241516Y-109566166D01*
X211239218Y-109567315D01*
X211277137Y-109584551D02*
X211269093Y-109573060D01*
X211263348Y-109584551D02*
X211263348Y-109560421D01*
X211272541Y-109560421D01*
X211274839Y-109561570D01*
X211275988Y-109562719D01*
X211277137Y-109565017D01*
X211277137Y-109568464D01*
X211275988Y-109570762D01*
X211274839Y-109571911D01*
X211272541Y-109573060D01*
X211263348Y-109573060D01*
D12*
X211018010Y-92233895D02*
X211190367Y-92291348D01*
X211477629Y-92291348D01*
X211592533Y-92233895D01*
X211649986Y-92176443D01*
X211707438Y-92061538D01*
X211707438Y-91946633D01*
X211649986Y-91831729D01*
X211592533Y-91774276D01*
X211477629Y-91716824D01*
X211247819Y-91659371D01*
X211132914Y-91601919D01*
X211075462Y-91544467D01*
X211018010Y-91429562D01*
X211018010Y-91314657D01*
X211075462Y-91199752D01*
X211132914Y-91142300D01*
X211247819Y-91084848D01*
X211535081Y-91084848D01*
X211707438Y-91142300D01*
X212913938Y-92176443D02*
X212856486Y-92233895D01*
X212684129Y-92291348D01*
X212569224Y-92291348D01*
X212396867Y-92233895D01*
X212281962Y-92118990D01*
X212224510Y-92004086D01*
X212167058Y-91774276D01*
X212167058Y-91601919D01*
X212224510Y-91372110D01*
X212281962Y-91257205D01*
X212396867Y-91142300D01*
X212569224Y-91084848D01*
X212684129Y-91084848D01*
X212856486Y-91142300D01*
X212913938Y-91199752D01*
X214005534Y-92291348D02*
X213431010Y-92291348D01*
X213431010Y-91084848D01*
X214120438Y-92406252D02*
X215039676Y-92406252D01*
X215269486Y-92233895D02*
X215441843Y-92291348D01*
X215729105Y-92291348D01*
X215844009Y-92233895D01*
X215901462Y-92176443D01*
X215958914Y-92061538D01*
X215958914Y-91946633D01*
X215901462Y-91831729D01*
X215844009Y-91774276D01*
X215729105Y-91716824D01*
X215499295Y-91659371D01*
X215384390Y-91601919D01*
X215326938Y-91544467D01*
X215269486Y-91429562D01*
X215269486Y-91314657D01*
X215326938Y-91199752D01*
X215384390Y-91142300D01*
X215499295Y-91084848D01*
X215786557Y-91084848D01*
X215958914Y-91142300D01*
X216418534Y-91199752D02*
X216475986Y-91142300D01*
X216590891Y-91084848D01*
X216878153Y-91084848D01*
X216993057Y-91142300D01*
X217050510Y-91199752D01*
X217107962Y-91314657D01*
X217107962Y-91429562D01*
X217050510Y-91601919D01*
X216361081Y-92291348D01*
X217107962Y-92291348D01*
X217337772Y-92406252D02*
X218257010Y-92406252D01*
X219233700Y-92176443D02*
X219176248Y-92233895D01*
X219003891Y-92291348D01*
X218888986Y-92291348D01*
X218716629Y-92233895D01*
X218601724Y-92118990D01*
X218544272Y-92004086D01*
X218486820Y-91774276D01*
X218486820Y-91601919D01*
X218544272Y-91372110D01*
X218601724Y-91257205D01*
X218716629Y-91142300D01*
X218888986Y-91084848D01*
X219003891Y-91084848D01*
X219176248Y-91142300D01*
X219233700Y-91199752D01*
X219693320Y-91199752D02*
X219750772Y-91142300D01*
X219865677Y-91084848D01*
X220152939Y-91084848D01*
X220267843Y-91142300D01*
X220325296Y-91199752D01*
X220382748Y-91314657D01*
X220382748Y-91429562D01*
X220325296Y-91601919D01*
X219635867Y-92291348D01*
X220382748Y-92291348D01*
D13*
X210835845Y-93455551D02*
X210835845Y-93431421D01*
X210845038Y-93431421D01*
X210847336Y-93432570D01*
X210848485Y-93433719D01*
X210849634Y-93436017D01*
X210849634Y-93439464D01*
X210848485Y-93441762D01*
X210847336Y-93442911D01*
X210845038Y-93444060D01*
X210835845Y-93444060D01*
X210856528Y-93431421D02*
X210870317Y-93431421D01*
X210863422Y-93455551D02*
X210863422Y-93431421D01*
X210892149Y-93455551D02*
X210884105Y-93444060D01*
X210878360Y-93455551D02*
X210878360Y-93431421D01*
X210887553Y-93431421D01*
X210889851Y-93432570D01*
X210891000Y-93433719D01*
X210892149Y-93436017D01*
X210892149Y-93439464D01*
X210891000Y-93441762D01*
X210889851Y-93442911D01*
X210887553Y-93444060D01*
X210878360Y-93444060D01*
X210915130Y-93455551D02*
X210901341Y-93455551D01*
X210908235Y-93455551D02*
X210908235Y-93431421D01*
X210905937Y-93434868D01*
X210903639Y-93437166D01*
X210901341Y-93438315D01*
X210922024Y-93431421D02*
X210935813Y-93431421D01*
X210928918Y-93455551D02*
X210928918Y-93431421D01*
X210943856Y-93455551D02*
X210943856Y-93431421D01*
X210953049Y-93431421D01*
X210955347Y-93432570D01*
X210956496Y-93433719D01*
X210957645Y-93436017D01*
X210957645Y-93439464D01*
X210956496Y-93441762D01*
X210955347Y-93442911D01*
X210953049Y-93444060D01*
X210943856Y-93444060D01*
X210980626Y-93455551D02*
X210966837Y-93455551D01*
X210973731Y-93455551D02*
X210973731Y-93431421D01*
X210971433Y-93434868D01*
X210969135Y-93437166D01*
X210966837Y-93438315D01*
X211003607Y-93455551D02*
X210989818Y-93455551D01*
X210996712Y-93455551D02*
X210996712Y-93431421D01*
X210994414Y-93434868D01*
X210992116Y-93437166D01*
X210989818Y-93438315D01*
X211027737Y-93455551D02*
X211019693Y-93444060D01*
X211013948Y-93455551D02*
X211013948Y-93431421D01*
X211023141Y-93431421D01*
X211025439Y-93432570D01*
X211026588Y-93433719D01*
X211027737Y-93436017D01*
X211027737Y-93439464D01*
X211026588Y-93441762D01*
X211025439Y-93442911D01*
X211023141Y-93444060D01*
X211013948Y-93444060D01*
D12*
X211041610Y-113900095D02*
X211213967Y-113957548D01*
X211501229Y-113957548D01*
X211616133Y-113900095D01*
X211673586Y-113842643D01*
X211731038Y-113727738D01*
X211731038Y-113612833D01*
X211673586Y-113497929D01*
X211616133Y-113440476D01*
X211501229Y-113383024D01*
X211271419Y-113325571D01*
X211156514Y-113268119D01*
X211099062Y-113210667D01*
X211041610Y-113095762D01*
X211041610Y-112980857D01*
X211099062Y-112865952D01*
X211156514Y-112808500D01*
X211271419Y-112751048D01*
X211558681Y-112751048D01*
X211731038Y-112808500D01*
X212937538Y-113842643D02*
X212880086Y-113900095D01*
X212707729Y-113957548D01*
X212592824Y-113957548D01*
X212420467Y-113900095D01*
X212305562Y-113785190D01*
X212248110Y-113670286D01*
X212190658Y-113440476D01*
X212190658Y-113268119D01*
X212248110Y-113038310D01*
X212305562Y-112923405D01*
X212420467Y-112808500D01*
X212592824Y-112751048D01*
X212707729Y-112751048D01*
X212880086Y-112808500D01*
X212937538Y-112865952D01*
X214029134Y-113957548D02*
X213454610Y-113957548D01*
X213454610Y-112751048D01*
X214144038Y-114072452D02*
X215063276Y-114072452D01*
X215293086Y-113900095D02*
X215465443Y-113957548D01*
X215752705Y-113957548D01*
X215867609Y-113900095D01*
X215925062Y-113842643D01*
X215982514Y-113727738D01*
X215982514Y-113612833D01*
X215925062Y-113497929D01*
X215867609Y-113440476D01*
X215752705Y-113383024D01*
X215522895Y-113325571D01*
X215407990Y-113268119D01*
X215350538Y-113210667D01*
X215293086Y-113095762D01*
X215293086Y-112980857D01*
X215350538Y-112865952D01*
X215407990Y-112808500D01*
X215522895Y-112751048D01*
X215810157Y-112751048D01*
X215982514Y-112808500D01*
X216384681Y-112751048D02*
X217131562Y-112751048D01*
X216729395Y-113210667D01*
X216901753Y-113210667D01*
X217016657Y-113268119D01*
X217074110Y-113325571D01*
X217131562Y-113440476D01*
X217131562Y-113727738D01*
X217074110Y-113842643D01*
X217016657Y-113900095D01*
X216901753Y-113957548D01*
X216557038Y-113957548D01*
X216442134Y-113900095D01*
X216384681Y-113842643D01*
X217361372Y-114072452D02*
X218280610Y-114072452D01*
X219257300Y-113842643D02*
X219199848Y-113900095D01*
X219027491Y-113957548D01*
X218912586Y-113957548D01*
X218740229Y-113900095D01*
X218625324Y-113785190D01*
X218567872Y-113670286D01*
X218510420Y-113440476D01*
X218510420Y-113268119D01*
X218567872Y-113038310D01*
X218625324Y-112923405D01*
X218740229Y-112808500D01*
X218912586Y-112751048D01*
X219027491Y-112751048D01*
X219199848Y-112808500D01*
X219257300Y-112865952D01*
X219659467Y-112751048D02*
X220406348Y-112751048D01*
X220004181Y-113210667D01*
X220176539Y-113210667D01*
X220291443Y-113268119D01*
X220348896Y-113325571D01*
X220406348Y-113440476D01*
X220406348Y-113727738D01*
X220348896Y-113842643D01*
X220291443Y-113900095D01*
X220176539Y-113957548D01*
X219831824Y-113957548D01*
X219716920Y-113900095D01*
X219659467Y-113842643D01*
D13*
X210859445Y-115121751D02*
X210859445Y-115097621D01*
X210868638Y-115097621D01*
X210870936Y-115098770D01*
X210872085Y-115099919D01*
X210873234Y-115102217D01*
X210873234Y-115105664D01*
X210872085Y-115107962D01*
X210870936Y-115109111D01*
X210868638Y-115110260D01*
X210859445Y-115110260D01*
X210880128Y-115097621D02*
X210893917Y-115097621D01*
X210887022Y-115121751D02*
X210887022Y-115097621D01*
X210915749Y-115121751D02*
X210907705Y-115110260D01*
X210901960Y-115121751D02*
X210901960Y-115097621D01*
X210911153Y-115097621D01*
X210913451Y-115098770D01*
X210914600Y-115099919D01*
X210915749Y-115102217D01*
X210915749Y-115105664D01*
X210914600Y-115107962D01*
X210913451Y-115109111D01*
X210911153Y-115110260D01*
X210901960Y-115110260D01*
X210938730Y-115121751D02*
X210924941Y-115121751D01*
X210931835Y-115121751D02*
X210931835Y-115097621D01*
X210929537Y-115101068D01*
X210927239Y-115103366D01*
X210924941Y-115104515D01*
X210945624Y-115097621D02*
X210959413Y-115097621D01*
X210952518Y-115121751D02*
X210952518Y-115097621D01*
X210967456Y-115121751D02*
X210967456Y-115097621D01*
X210976649Y-115097621D01*
X210978947Y-115098770D01*
X210980096Y-115099919D01*
X210981245Y-115102217D01*
X210981245Y-115105664D01*
X210980096Y-115107962D01*
X210978947Y-115109111D01*
X210976649Y-115110260D01*
X210967456Y-115110260D01*
X211004226Y-115121751D02*
X210990437Y-115121751D01*
X210997331Y-115121751D02*
X210997331Y-115097621D01*
X210995033Y-115101068D01*
X210992735Y-115103366D01*
X210990437Y-115104515D01*
X211027207Y-115121751D02*
X211013418Y-115121751D01*
X211020312Y-115121751D02*
X211020312Y-115097621D01*
X211018014Y-115101068D01*
X211015716Y-115103366D01*
X211013418Y-115104515D01*
X211051337Y-115121751D02*
X211043293Y-115110260D01*
X211037548Y-115121751D02*
X211037548Y-115097621D01*
X211046741Y-115097621D01*
X211049039Y-115098770D01*
X211050188Y-115099919D01*
X211051337Y-115102217D01*
X211051337Y-115105664D01*
X211050188Y-115107962D01*
X211049039Y-115109111D01*
X211046741Y-115110260D01*
X211037548Y-115110260D01*
D12*
X211068810Y-97669495D02*
X211241167Y-97726948D01*
X211528429Y-97726948D01*
X211643333Y-97669495D01*
X211700786Y-97612043D01*
X211758238Y-97497138D01*
X211758238Y-97382233D01*
X211700786Y-97267329D01*
X211643333Y-97209876D01*
X211528429Y-97152424D01*
X211298619Y-97094971D01*
X211183714Y-97037519D01*
X211126262Y-96980067D01*
X211068810Y-96865162D01*
X211068810Y-96750257D01*
X211126262Y-96635352D01*
X211183714Y-96577900D01*
X211298619Y-96520448D01*
X211585881Y-96520448D01*
X211758238Y-96577900D01*
X212964738Y-97612043D02*
X212907286Y-97669495D01*
X212734929Y-97726948D01*
X212620024Y-97726948D01*
X212447667Y-97669495D01*
X212332762Y-97554590D01*
X212275310Y-97439686D01*
X212217858Y-97209876D01*
X212217858Y-97037519D01*
X212275310Y-96807710D01*
X212332762Y-96692805D01*
X212447667Y-96577900D01*
X212620024Y-96520448D01*
X212734929Y-96520448D01*
X212907286Y-96577900D01*
X212964738Y-96635352D01*
X214056334Y-97726948D02*
X213481810Y-97726948D01*
X213481810Y-96520448D01*
X214171238Y-97841852D02*
X215090476Y-97841852D01*
X215320286Y-97669495D02*
X215492643Y-97726948D01*
X215779905Y-97726948D01*
X215894809Y-97669495D01*
X215952262Y-97612043D01*
X216009714Y-97497138D01*
X216009714Y-97382233D01*
X215952262Y-97267329D01*
X215894809Y-97209876D01*
X215779905Y-97152424D01*
X215550095Y-97094971D01*
X215435190Y-97037519D01*
X215377738Y-96980067D01*
X215320286Y-96865162D01*
X215320286Y-96750257D01*
X215377738Y-96635352D01*
X215435190Y-96577900D01*
X215550095Y-96520448D01*
X215837357Y-96520448D01*
X216009714Y-96577900D01*
X217043857Y-96922614D02*
X217043857Y-97726948D01*
X216756595Y-96462995D02*
X216469334Y-97324781D01*
X217216214Y-97324781D01*
X217388572Y-97841852D02*
X218307810Y-97841852D01*
X219284500Y-97612043D02*
X219227048Y-97669495D01*
X219054691Y-97726948D01*
X218939786Y-97726948D01*
X218767429Y-97669495D01*
X218652524Y-97554590D01*
X218595072Y-97439686D01*
X218537620Y-97209876D01*
X218537620Y-97037519D01*
X218595072Y-96807710D01*
X218652524Y-96692805D01*
X218767429Y-96577900D01*
X218939786Y-96520448D01*
X219054691Y-96520448D01*
X219227048Y-96577900D01*
X219284500Y-96635352D01*
X220318643Y-96922614D02*
X220318643Y-97726948D01*
X220031381Y-96462995D02*
X219744120Y-97324781D01*
X220491000Y-97324781D01*
D13*
X210886645Y-98891151D02*
X210886645Y-98867021D01*
X210895838Y-98867021D01*
X210898136Y-98868170D01*
X210899285Y-98869319D01*
X210900434Y-98871617D01*
X210900434Y-98875064D01*
X210899285Y-98877362D01*
X210898136Y-98878511D01*
X210895838Y-98879660D01*
X210886645Y-98879660D01*
X210907328Y-98867021D02*
X210921117Y-98867021D01*
X210914222Y-98891151D02*
X210914222Y-98867021D01*
X210942949Y-98891151D02*
X210934905Y-98879660D01*
X210929160Y-98891151D02*
X210929160Y-98867021D01*
X210938353Y-98867021D01*
X210940651Y-98868170D01*
X210941800Y-98869319D01*
X210942949Y-98871617D01*
X210942949Y-98875064D01*
X210941800Y-98877362D01*
X210940651Y-98878511D01*
X210938353Y-98879660D01*
X210929160Y-98879660D01*
X210965930Y-98891151D02*
X210952141Y-98891151D01*
X210959035Y-98891151D02*
X210959035Y-98867021D01*
X210956737Y-98870468D01*
X210954439Y-98872766D01*
X210952141Y-98873915D01*
X210972824Y-98867021D02*
X210986613Y-98867021D01*
X210979718Y-98891151D02*
X210979718Y-98867021D01*
X210994656Y-98891151D02*
X210994656Y-98867021D01*
X211003849Y-98867021D01*
X211006147Y-98868170D01*
X211007296Y-98869319D01*
X211008445Y-98871617D01*
X211008445Y-98875064D01*
X211007296Y-98877362D01*
X211006147Y-98878511D01*
X211003849Y-98879660D01*
X210994656Y-98879660D01*
X211031426Y-98891151D02*
X211017637Y-98891151D01*
X211024531Y-98891151D02*
X211024531Y-98867021D01*
X211022233Y-98870468D01*
X211019935Y-98872766D01*
X211017637Y-98873915D01*
X211054407Y-98891151D02*
X211040618Y-98891151D01*
X211047512Y-98891151D02*
X211047512Y-98867021D01*
X211045214Y-98870468D01*
X211042916Y-98872766D01*
X211040618Y-98873915D01*
X211078537Y-98891151D02*
X211070493Y-98879660D01*
X211064748Y-98891151D02*
X211064748Y-98867021D01*
X211073941Y-98867021D01*
X211076239Y-98868170D01*
X211077388Y-98869319D01*
X211078537Y-98871617D01*
X211078537Y-98875064D01*
X211077388Y-98877362D01*
X211076239Y-98878511D01*
X211073941Y-98879660D01*
X211064748Y-98879660D01*
X224439398Y-118657621D02*
X224453187Y-118657621D01*
X224446292Y-118681751D02*
X224446292Y-118657621D01*
X224461230Y-118681751D02*
X224461230Y-118657621D01*
X224470423Y-118657621D01*
X224472721Y-118658770D01*
X224473870Y-118659919D01*
X224475019Y-118662217D01*
X224475019Y-118665664D01*
X224473870Y-118667962D01*
X224472721Y-118669111D01*
X224470423Y-118670260D01*
X224461230Y-118670260D01*
X224493404Y-118669111D02*
X224496851Y-118670260D01*
X224498000Y-118671410D01*
X224499149Y-118673708D01*
X224499149Y-118677155D01*
X224498000Y-118679453D01*
X224496851Y-118680602D01*
X224494553Y-118681751D01*
X224485360Y-118681751D01*
X224485360Y-118657621D01*
X224493404Y-118657621D01*
X224495702Y-118658770D01*
X224496851Y-118659919D01*
X224498000Y-118662217D01*
X224498000Y-118664515D01*
X224496851Y-118666813D01*
X224495702Y-118667962D01*
X224493404Y-118669111D01*
X224485360Y-118669111D01*
X224508341Y-118659919D02*
X224509490Y-118658770D01*
X224511788Y-118657621D01*
X224517534Y-118657621D01*
X224519832Y-118658770D01*
X224520981Y-118659919D01*
X224522130Y-118662217D01*
X224522130Y-118664515D01*
X224520981Y-118667962D01*
X224507192Y-118681751D01*
X224522130Y-118681751D01*
X224533620Y-118680602D02*
X224533620Y-118681751D01*
X224532471Y-118684049D01*
X224531322Y-118685198D01*
X224555452Y-118657621D02*
X224543961Y-118657621D01*
X224542812Y-118669111D01*
X224543961Y-118667962D01*
X224546259Y-118666813D01*
X224552005Y-118666813D01*
X224554303Y-118667962D01*
X224555452Y-118669111D01*
X224556601Y-118671410D01*
X224556601Y-118677155D01*
X224555452Y-118679453D01*
X224554303Y-118680602D01*
X224552005Y-118681751D01*
X224546259Y-118681751D01*
X224543961Y-118680602D01*
X224542812Y-118679453D01*
X224577284Y-118665664D02*
X224577284Y-118681751D01*
X224571538Y-118656472D02*
X224565793Y-118673708D01*
X224580731Y-118673708D01*
X248435398Y-118482621D02*
X248449187Y-118482621D01*
X248442292Y-118506751D02*
X248442292Y-118482621D01*
X248457230Y-118506751D02*
X248457230Y-118482621D01*
X248466423Y-118482621D01*
X248468721Y-118483770D01*
X248469870Y-118484919D01*
X248471019Y-118487217D01*
X248471019Y-118490664D01*
X248469870Y-118492962D01*
X248468721Y-118494111D01*
X248466423Y-118495260D01*
X248457230Y-118495260D01*
X248489404Y-118494111D02*
X248492851Y-118495260D01*
X248494000Y-118496410D01*
X248495149Y-118498708D01*
X248495149Y-118502155D01*
X248494000Y-118504453D01*
X248492851Y-118505602D01*
X248490553Y-118506751D01*
X248481360Y-118506751D01*
X248481360Y-118482621D01*
X248489404Y-118482621D01*
X248491702Y-118483770D01*
X248492851Y-118484919D01*
X248494000Y-118487217D01*
X248494000Y-118489515D01*
X248492851Y-118491813D01*
X248491702Y-118492962D01*
X248489404Y-118494111D01*
X248481360Y-118494111D01*
X248504341Y-118484919D02*
X248505490Y-118483770D01*
X248507788Y-118482621D01*
X248513534Y-118482621D01*
X248515832Y-118483770D01*
X248516981Y-118484919D01*
X248518130Y-118487217D01*
X248518130Y-118489515D01*
X248516981Y-118492962D01*
X248503192Y-118506751D01*
X248518130Y-118506751D01*
X248529620Y-118505602D02*
X248529620Y-118506751D01*
X248528471Y-118509049D01*
X248527322Y-118510198D01*
X248551452Y-118482621D02*
X248539961Y-118482621D01*
X248538812Y-118494111D01*
X248539961Y-118492962D01*
X248542259Y-118491813D01*
X248548005Y-118491813D01*
X248550303Y-118492962D01*
X248551452Y-118494111D01*
X248552601Y-118496410D01*
X248552601Y-118502155D01*
X248551452Y-118504453D01*
X248550303Y-118505602D01*
X248548005Y-118506751D01*
X248542259Y-118506751D01*
X248539961Y-118505602D01*
X248538812Y-118504453D01*
X248573284Y-118490664D02*
X248573284Y-118506751D01*
X248567538Y-118481472D02*
X248561793Y-118498708D01*
X248576731Y-118498708D01*
X248432398Y-94666621D02*
X248446187Y-94666621D01*
X248439292Y-94690751D02*
X248439292Y-94666621D01*
X248454230Y-94690751D02*
X248454230Y-94666621D01*
X248463423Y-94666621D01*
X248465721Y-94667770D01*
X248466870Y-94668919D01*
X248468019Y-94671217D01*
X248468019Y-94674664D01*
X248466870Y-94676962D01*
X248465721Y-94678111D01*
X248463423Y-94679260D01*
X248454230Y-94679260D01*
X248486404Y-94678111D02*
X248489851Y-94679260D01*
X248491000Y-94680410D01*
X248492149Y-94682708D01*
X248492149Y-94686155D01*
X248491000Y-94688453D01*
X248489851Y-94689602D01*
X248487553Y-94690751D01*
X248478360Y-94690751D01*
X248478360Y-94666621D01*
X248486404Y-94666621D01*
X248488702Y-94667770D01*
X248489851Y-94668919D01*
X248491000Y-94671217D01*
X248491000Y-94673515D01*
X248489851Y-94675813D01*
X248488702Y-94676962D01*
X248486404Y-94678111D01*
X248478360Y-94678111D01*
X248501341Y-94668919D02*
X248502490Y-94667770D01*
X248504788Y-94666621D01*
X248510534Y-94666621D01*
X248512832Y-94667770D01*
X248513981Y-94668919D01*
X248515130Y-94671217D01*
X248515130Y-94673515D01*
X248513981Y-94676962D01*
X248500192Y-94690751D01*
X248515130Y-94690751D01*
X248526620Y-94689602D02*
X248526620Y-94690751D01*
X248525471Y-94693049D01*
X248524322Y-94694198D01*
X248548452Y-94666621D02*
X248536961Y-94666621D01*
X248535812Y-94678111D01*
X248536961Y-94676962D01*
X248539259Y-94675813D01*
X248545005Y-94675813D01*
X248547303Y-94676962D01*
X248548452Y-94678111D01*
X248549601Y-94680410D01*
X248549601Y-94686155D01*
X248548452Y-94688453D01*
X248547303Y-94689602D01*
X248545005Y-94690751D01*
X248539259Y-94690751D01*
X248536961Y-94689602D01*
X248535812Y-94688453D01*
X248570284Y-94674664D02*
X248570284Y-94690751D01*
X248564538Y-94665472D02*
X248558793Y-94682708D01*
X248573731Y-94682708D01*
X224511398Y-94609621D02*
X224525187Y-94609621D01*
X224518292Y-94633751D02*
X224518292Y-94609621D01*
X224533230Y-94633751D02*
X224533230Y-94609621D01*
X224542423Y-94609621D01*
X224544721Y-94610770D01*
X224545870Y-94611919D01*
X224547019Y-94614217D01*
X224547019Y-94617664D01*
X224545870Y-94619962D01*
X224544721Y-94621111D01*
X224542423Y-94622260D01*
X224533230Y-94622260D01*
X224565404Y-94621111D02*
X224568851Y-94622260D01*
X224570000Y-94623410D01*
X224571149Y-94625708D01*
X224571149Y-94629155D01*
X224570000Y-94631453D01*
X224568851Y-94632602D01*
X224566553Y-94633751D01*
X224557360Y-94633751D01*
X224557360Y-94609621D01*
X224565404Y-94609621D01*
X224567702Y-94610770D01*
X224568851Y-94611919D01*
X224570000Y-94614217D01*
X224570000Y-94616515D01*
X224568851Y-94618813D01*
X224567702Y-94619962D01*
X224565404Y-94621111D01*
X224557360Y-94621111D01*
X224580341Y-94611919D02*
X224581490Y-94610770D01*
X224583788Y-94609621D01*
X224589534Y-94609621D01*
X224591832Y-94610770D01*
X224592981Y-94611919D01*
X224594130Y-94614217D01*
X224594130Y-94616515D01*
X224592981Y-94619962D01*
X224579192Y-94633751D01*
X224594130Y-94633751D01*
X224605620Y-94632602D02*
X224605620Y-94633751D01*
X224604471Y-94636049D01*
X224603322Y-94637198D01*
X224627452Y-94609621D02*
X224615961Y-94609621D01*
X224614812Y-94621111D01*
X224615961Y-94619962D01*
X224618259Y-94618813D01*
X224624005Y-94618813D01*
X224626303Y-94619962D01*
X224627452Y-94621111D01*
X224628601Y-94623410D01*
X224628601Y-94629155D01*
X224627452Y-94631453D01*
X224626303Y-94632602D01*
X224624005Y-94633751D01*
X224618259Y-94633751D01*
X224615961Y-94632602D01*
X224614812Y-94631453D01*
X224649284Y-94617664D02*
X224649284Y-94633751D01*
X224643538Y-94608472D02*
X224637793Y-94625708D01*
X224652731Y-94625708D01*
D12*
X212579505Y-83490248D02*
X212981671Y-84696748D01*
X213383838Y-83490248D01*
X214475433Y-84581843D02*
X214417981Y-84639295D01*
X214245624Y-84696748D01*
X214130719Y-84696748D01*
X213958362Y-84639295D01*
X213843457Y-84524390D01*
X213786005Y-84409486D01*
X213728553Y-84179676D01*
X213728553Y-84007319D01*
X213786005Y-83777510D01*
X213843457Y-83662605D01*
X213958362Y-83547700D01*
X214130719Y-83490248D01*
X214245624Y-83490248D01*
X214417981Y-83547700D01*
X214475433Y-83605152D01*
X215681933Y-84581843D02*
X215624481Y-84639295D01*
X215452124Y-84696748D01*
X215337219Y-84696748D01*
X215164862Y-84639295D01*
X215049957Y-84524390D01*
X214992505Y-84409486D01*
X214935053Y-84179676D01*
X214935053Y-84007319D01*
X214992505Y-83777510D01*
X215049957Y-83662605D01*
X215164862Y-83547700D01*
X215337219Y-83490248D01*
X215452124Y-83490248D01*
X215624481Y-83547700D01*
X215681933Y-83605152D01*
X215911743Y-84811652D02*
X216830981Y-84811652D01*
X217807671Y-84581843D02*
X217750219Y-84639295D01*
X217577862Y-84696748D01*
X217462957Y-84696748D01*
X217290600Y-84639295D01*
X217175695Y-84524390D01*
X217118243Y-84409486D01*
X217060791Y-84179676D01*
X217060791Y-84007319D01*
X217118243Y-83777510D01*
X217175695Y-83662605D01*
X217290600Y-83547700D01*
X217462957Y-83490248D01*
X217577862Y-83490248D01*
X217750219Y-83547700D01*
X217807671Y-83605152D01*
X218956719Y-84696748D02*
X218267291Y-84696748D01*
X218612005Y-84696748D02*
X218612005Y-83490248D01*
X218497100Y-83662605D01*
X218382195Y-83777510D01*
X218267291Y-83834962D01*
D13*
X212512245Y-85860951D02*
X212512245Y-85836821D01*
X212521438Y-85836821D01*
X212523736Y-85837970D01*
X212524885Y-85839119D01*
X212526034Y-85841417D01*
X212526034Y-85844864D01*
X212524885Y-85847162D01*
X212523736Y-85848311D01*
X212521438Y-85849460D01*
X212512245Y-85849460D01*
X212532928Y-85836821D02*
X212546717Y-85836821D01*
X212539822Y-85860951D02*
X212539822Y-85836821D01*
X212568549Y-85860951D02*
X212560505Y-85849460D01*
X212554760Y-85860951D02*
X212554760Y-85836821D01*
X212563953Y-85836821D01*
X212566251Y-85837970D01*
X212567400Y-85839119D01*
X212568549Y-85841417D01*
X212568549Y-85844864D01*
X212567400Y-85847162D01*
X212566251Y-85848311D01*
X212563953Y-85849460D01*
X212554760Y-85849460D01*
X212591530Y-85860951D02*
X212577741Y-85860951D01*
X212584635Y-85860951D02*
X212584635Y-85836821D01*
X212582337Y-85840268D01*
X212580039Y-85842566D01*
X212577741Y-85843715D01*
X212598424Y-85836821D02*
X212612213Y-85836821D01*
X212605318Y-85860951D02*
X212605318Y-85836821D01*
X212620256Y-85860951D02*
X212620256Y-85836821D01*
X212629449Y-85836821D01*
X212631747Y-85837970D01*
X212632896Y-85839119D01*
X212634045Y-85841417D01*
X212634045Y-85844864D01*
X212632896Y-85847162D01*
X212631747Y-85848311D01*
X212629449Y-85849460D01*
X212620256Y-85849460D01*
X212657026Y-85860951D02*
X212643237Y-85860951D01*
X212650131Y-85860951D02*
X212650131Y-85836821D01*
X212647833Y-85840268D01*
X212645535Y-85842566D01*
X212643237Y-85843715D01*
X212680007Y-85860951D02*
X212666218Y-85860951D01*
X212673112Y-85860951D02*
X212673112Y-85836821D01*
X212670814Y-85840268D01*
X212668516Y-85842566D01*
X212666218Y-85843715D01*
X212704137Y-85860951D02*
X212696093Y-85849460D01*
X212690348Y-85860951D02*
X212690348Y-85836821D01*
X212699541Y-85836821D01*
X212701839Y-85837970D01*
X212702988Y-85839119D01*
X212704137Y-85841417D01*
X212704137Y-85844864D01*
X212702988Y-85847162D01*
X212701839Y-85848311D01*
X212699541Y-85849460D01*
X212690348Y-85849460D01*
X244462398Y-114629621D02*
X244476187Y-114629621D01*
X244469292Y-114653751D02*
X244469292Y-114629621D01*
X244484230Y-114653751D02*
X244484230Y-114629621D01*
X244493423Y-114629621D01*
X244495721Y-114630770D01*
X244496870Y-114631919D01*
X244498019Y-114634217D01*
X244498019Y-114637664D01*
X244496870Y-114639962D01*
X244495721Y-114641111D01*
X244493423Y-114642260D01*
X244484230Y-114642260D01*
X244516404Y-114641111D02*
X244519851Y-114642260D01*
X244521000Y-114643410D01*
X244522149Y-114645708D01*
X244522149Y-114649155D01*
X244521000Y-114651453D01*
X244519851Y-114652602D01*
X244517553Y-114653751D01*
X244508360Y-114653751D01*
X244508360Y-114629621D01*
X244516404Y-114629621D01*
X244518702Y-114630770D01*
X244519851Y-114631919D01*
X244521000Y-114634217D01*
X244521000Y-114636515D01*
X244519851Y-114638813D01*
X244518702Y-114639962D01*
X244516404Y-114641111D01*
X244508360Y-114641111D01*
X244531341Y-114631919D02*
X244532490Y-114630770D01*
X244534788Y-114629621D01*
X244540534Y-114629621D01*
X244542832Y-114630770D01*
X244543981Y-114631919D01*
X244545130Y-114634217D01*
X244545130Y-114636515D01*
X244543981Y-114639962D01*
X244530192Y-114653751D01*
X244545130Y-114653751D01*
X244556620Y-114652602D02*
X244556620Y-114653751D01*
X244555471Y-114656049D01*
X244554322Y-114657198D01*
X244578452Y-114629621D02*
X244566961Y-114629621D01*
X244565812Y-114641111D01*
X244566961Y-114639962D01*
X244569259Y-114638813D01*
X244575005Y-114638813D01*
X244577303Y-114639962D01*
X244578452Y-114641111D01*
X244579601Y-114643410D01*
X244579601Y-114649155D01*
X244578452Y-114651453D01*
X244577303Y-114652602D01*
X244575005Y-114653751D01*
X244569259Y-114653751D01*
X244566961Y-114652602D01*
X244565812Y-114651453D01*
X244600284Y-114637664D02*
X244600284Y-114653751D01*
X244594538Y-114628472D02*
X244588793Y-114645708D01*
X244603731Y-114645708D01*
X228402398Y-114657621D02*
X228416187Y-114657621D01*
X228409292Y-114681751D02*
X228409292Y-114657621D01*
X228424230Y-114681751D02*
X228424230Y-114657621D01*
X228433423Y-114657621D01*
X228435721Y-114658770D01*
X228436870Y-114659919D01*
X228438019Y-114662217D01*
X228438019Y-114665664D01*
X228436870Y-114667962D01*
X228435721Y-114669111D01*
X228433423Y-114670260D01*
X228424230Y-114670260D01*
X228456404Y-114669111D02*
X228459851Y-114670260D01*
X228461000Y-114671410D01*
X228462149Y-114673708D01*
X228462149Y-114677155D01*
X228461000Y-114679453D01*
X228459851Y-114680602D01*
X228457553Y-114681751D01*
X228448360Y-114681751D01*
X228448360Y-114657621D01*
X228456404Y-114657621D01*
X228458702Y-114658770D01*
X228459851Y-114659919D01*
X228461000Y-114662217D01*
X228461000Y-114664515D01*
X228459851Y-114666813D01*
X228458702Y-114667962D01*
X228456404Y-114669111D01*
X228448360Y-114669111D01*
X228471341Y-114659919D02*
X228472490Y-114658770D01*
X228474788Y-114657621D01*
X228480534Y-114657621D01*
X228482832Y-114658770D01*
X228483981Y-114659919D01*
X228485130Y-114662217D01*
X228485130Y-114664515D01*
X228483981Y-114667962D01*
X228470192Y-114681751D01*
X228485130Y-114681751D01*
X228496620Y-114680602D02*
X228496620Y-114681751D01*
X228495471Y-114684049D01*
X228494322Y-114685198D01*
X228518452Y-114657621D02*
X228506961Y-114657621D01*
X228505812Y-114669111D01*
X228506961Y-114667962D01*
X228509259Y-114666813D01*
X228515005Y-114666813D01*
X228517303Y-114667962D01*
X228518452Y-114669111D01*
X228519601Y-114671410D01*
X228519601Y-114677155D01*
X228518452Y-114679453D01*
X228517303Y-114680602D01*
X228515005Y-114681751D01*
X228509259Y-114681751D01*
X228506961Y-114680602D01*
X228505812Y-114679453D01*
X228540284Y-114665664D02*
X228540284Y-114681751D01*
X228534538Y-114656472D02*
X228528793Y-114673708D01*
X228543731Y-114673708D01*
X244429398Y-98694621D02*
X244443187Y-98694621D01*
X244436292Y-98718751D02*
X244436292Y-98694621D01*
X244451230Y-98718751D02*
X244451230Y-98694621D01*
X244460423Y-98694621D01*
X244462721Y-98695770D01*
X244463870Y-98696919D01*
X244465019Y-98699217D01*
X244465019Y-98702664D01*
X244463870Y-98704962D01*
X244462721Y-98706111D01*
X244460423Y-98707260D01*
X244451230Y-98707260D01*
X244483404Y-98706111D02*
X244486851Y-98707260D01*
X244488000Y-98708410D01*
X244489149Y-98710708D01*
X244489149Y-98714155D01*
X244488000Y-98716453D01*
X244486851Y-98717602D01*
X244484553Y-98718751D01*
X244475360Y-98718751D01*
X244475360Y-98694621D01*
X244483404Y-98694621D01*
X244485702Y-98695770D01*
X244486851Y-98696919D01*
X244488000Y-98699217D01*
X244488000Y-98701515D01*
X244486851Y-98703813D01*
X244485702Y-98704962D01*
X244483404Y-98706111D01*
X244475360Y-98706111D01*
X244498341Y-98696919D02*
X244499490Y-98695770D01*
X244501788Y-98694621D01*
X244507534Y-98694621D01*
X244509832Y-98695770D01*
X244510981Y-98696919D01*
X244512130Y-98699217D01*
X244512130Y-98701515D01*
X244510981Y-98704962D01*
X244497192Y-98718751D01*
X244512130Y-98718751D01*
X244523620Y-98717602D02*
X244523620Y-98718751D01*
X244522471Y-98721049D01*
X244521322Y-98722198D01*
X244545452Y-98694621D02*
X244533961Y-98694621D01*
X244532812Y-98706111D01*
X244533961Y-98704962D01*
X244536259Y-98703813D01*
X244542005Y-98703813D01*
X244544303Y-98704962D01*
X244545452Y-98706111D01*
X244546601Y-98708410D01*
X244546601Y-98714155D01*
X244545452Y-98716453D01*
X244544303Y-98717602D01*
X244542005Y-98718751D01*
X244536259Y-98718751D01*
X244533961Y-98717602D01*
X244532812Y-98716453D01*
X244567284Y-98702664D02*
X244567284Y-98718751D01*
X244561538Y-98693472D02*
X244555793Y-98710708D01*
X244570731Y-98710708D01*
X228503398Y-98655621D02*
X228517187Y-98655621D01*
X228510292Y-98679751D02*
X228510292Y-98655621D01*
X228525230Y-98679751D02*
X228525230Y-98655621D01*
X228534423Y-98655621D01*
X228536721Y-98656770D01*
X228537870Y-98657919D01*
X228539019Y-98660217D01*
X228539019Y-98663664D01*
X228537870Y-98665962D01*
X228536721Y-98667111D01*
X228534423Y-98668260D01*
X228525230Y-98668260D01*
X228557404Y-98667111D02*
X228560851Y-98668260D01*
X228562000Y-98669410D01*
X228563149Y-98671708D01*
X228563149Y-98675155D01*
X228562000Y-98677453D01*
X228560851Y-98678602D01*
X228558553Y-98679751D01*
X228549360Y-98679751D01*
X228549360Y-98655621D01*
X228557404Y-98655621D01*
X228559702Y-98656770D01*
X228560851Y-98657919D01*
X228562000Y-98660217D01*
X228562000Y-98662515D01*
X228560851Y-98664813D01*
X228559702Y-98665962D01*
X228557404Y-98667111D01*
X228549360Y-98667111D01*
X228572341Y-98657919D02*
X228573490Y-98656770D01*
X228575788Y-98655621D01*
X228581534Y-98655621D01*
X228583832Y-98656770D01*
X228584981Y-98657919D01*
X228586130Y-98660217D01*
X228586130Y-98662515D01*
X228584981Y-98665962D01*
X228571192Y-98679751D01*
X228586130Y-98679751D01*
X228597620Y-98678602D02*
X228597620Y-98679751D01*
X228596471Y-98682049D01*
X228595322Y-98683198D01*
X228619452Y-98655621D02*
X228607961Y-98655621D01*
X228606812Y-98667111D01*
X228607961Y-98665962D01*
X228610259Y-98664813D01*
X228616005Y-98664813D01*
X228618303Y-98665962D01*
X228619452Y-98667111D01*
X228620601Y-98669410D01*
X228620601Y-98675155D01*
X228619452Y-98677453D01*
X228618303Y-98678602D01*
X228616005Y-98679751D01*
X228610259Y-98679751D01*
X228607961Y-98678602D01*
X228606812Y-98677453D01*
X228641284Y-98663664D02*
X228641284Y-98679751D01*
X228635538Y-98654472D02*
X228629793Y-98671708D01*
X228644731Y-98671708D01*
X252493398Y-122578621D02*
X252507187Y-122578621D01*
X252500292Y-122602751D02*
X252500292Y-122578621D01*
X252515230Y-122602751D02*
X252515230Y-122578621D01*
X252524423Y-122578621D01*
X252526721Y-122579770D01*
X252527870Y-122580919D01*
X252529019Y-122583217D01*
X252529019Y-122586664D01*
X252527870Y-122588962D01*
X252526721Y-122590111D01*
X252524423Y-122591260D01*
X252515230Y-122591260D01*
X252547404Y-122590111D02*
X252550851Y-122591260D01*
X252552000Y-122592410D01*
X252553149Y-122594708D01*
X252553149Y-122598155D01*
X252552000Y-122600453D01*
X252550851Y-122601602D01*
X252548553Y-122602751D01*
X252539360Y-122602751D01*
X252539360Y-122578621D01*
X252547404Y-122578621D01*
X252549702Y-122579770D01*
X252550851Y-122580919D01*
X252552000Y-122583217D01*
X252552000Y-122585515D01*
X252550851Y-122587813D01*
X252549702Y-122588962D01*
X252547404Y-122590111D01*
X252539360Y-122590111D01*
X252562341Y-122580919D02*
X252563490Y-122579770D01*
X252565788Y-122578621D01*
X252571534Y-122578621D01*
X252573832Y-122579770D01*
X252574981Y-122580919D01*
X252576130Y-122583217D01*
X252576130Y-122585515D01*
X252574981Y-122588962D01*
X252561192Y-122602751D01*
X252576130Y-122602751D01*
X252587620Y-122601602D02*
X252587620Y-122602751D01*
X252586471Y-122605049D01*
X252585322Y-122606198D01*
X252609452Y-122578621D02*
X252597961Y-122578621D01*
X252596812Y-122590111D01*
X252597961Y-122588962D01*
X252600259Y-122587813D01*
X252606005Y-122587813D01*
X252608303Y-122588962D01*
X252609452Y-122590111D01*
X252610601Y-122592410D01*
X252610601Y-122598155D01*
X252609452Y-122600453D01*
X252608303Y-122601602D01*
X252606005Y-122602751D01*
X252600259Y-122602751D01*
X252597961Y-122601602D01*
X252596812Y-122600453D01*
X252631284Y-122586664D02*
X252631284Y-122602751D01*
X252625538Y-122577472D02*
X252619793Y-122594708D01*
X252634731Y-122594708D01*
X220531398Y-122674621D02*
X220545187Y-122674621D01*
X220538292Y-122698751D02*
X220538292Y-122674621D01*
X220553230Y-122698751D02*
X220553230Y-122674621D01*
X220562423Y-122674621D01*
X220564721Y-122675770D01*
X220565870Y-122676919D01*
X220567019Y-122679217D01*
X220567019Y-122682664D01*
X220565870Y-122684962D01*
X220564721Y-122686111D01*
X220562423Y-122687260D01*
X220553230Y-122687260D01*
X220585404Y-122686111D02*
X220588851Y-122687260D01*
X220590000Y-122688410D01*
X220591149Y-122690708D01*
X220591149Y-122694155D01*
X220590000Y-122696453D01*
X220588851Y-122697602D01*
X220586553Y-122698751D01*
X220577360Y-122698751D01*
X220577360Y-122674621D01*
X220585404Y-122674621D01*
X220587702Y-122675770D01*
X220588851Y-122676919D01*
X220590000Y-122679217D01*
X220590000Y-122681515D01*
X220588851Y-122683813D01*
X220587702Y-122684962D01*
X220585404Y-122686111D01*
X220577360Y-122686111D01*
X220600341Y-122676919D02*
X220601490Y-122675770D01*
X220603788Y-122674621D01*
X220609534Y-122674621D01*
X220611832Y-122675770D01*
X220612981Y-122676919D01*
X220614130Y-122679217D01*
X220614130Y-122681515D01*
X220612981Y-122684962D01*
X220599192Y-122698751D01*
X220614130Y-122698751D01*
X220625620Y-122697602D02*
X220625620Y-122698751D01*
X220624471Y-122701049D01*
X220623322Y-122702198D01*
X220647452Y-122674621D02*
X220635961Y-122674621D01*
X220634812Y-122686111D01*
X220635961Y-122684962D01*
X220638259Y-122683813D01*
X220644005Y-122683813D01*
X220646303Y-122684962D01*
X220647452Y-122686111D01*
X220648601Y-122688410D01*
X220648601Y-122694155D01*
X220647452Y-122696453D01*
X220646303Y-122697602D01*
X220644005Y-122698751D01*
X220638259Y-122698751D01*
X220635961Y-122697602D01*
X220634812Y-122696453D01*
X220669284Y-122682664D02*
X220669284Y-122698751D01*
X220663538Y-122673472D02*
X220657793Y-122690708D01*
X220672731Y-122690708D01*
X252399398Y-90664621D02*
X252413187Y-90664621D01*
X252406292Y-90688751D02*
X252406292Y-90664621D01*
X252421230Y-90688751D02*
X252421230Y-90664621D01*
X252430423Y-90664621D01*
X252432721Y-90665770D01*
X252433870Y-90666919D01*
X252435019Y-90669217D01*
X252435019Y-90672664D01*
X252433870Y-90674962D01*
X252432721Y-90676111D01*
X252430423Y-90677260D01*
X252421230Y-90677260D01*
X252453404Y-90676111D02*
X252456851Y-90677260D01*
X252458000Y-90678410D01*
X252459149Y-90680708D01*
X252459149Y-90684155D01*
X252458000Y-90686453D01*
X252456851Y-90687602D01*
X252454553Y-90688751D01*
X252445360Y-90688751D01*
X252445360Y-90664621D01*
X252453404Y-90664621D01*
X252455702Y-90665770D01*
X252456851Y-90666919D01*
X252458000Y-90669217D01*
X252458000Y-90671515D01*
X252456851Y-90673813D01*
X252455702Y-90674962D01*
X252453404Y-90676111D01*
X252445360Y-90676111D01*
X252468341Y-90666919D02*
X252469490Y-90665770D01*
X252471788Y-90664621D01*
X252477534Y-90664621D01*
X252479832Y-90665770D01*
X252480981Y-90666919D01*
X252482130Y-90669217D01*
X252482130Y-90671515D01*
X252480981Y-90674962D01*
X252467192Y-90688751D01*
X252482130Y-90688751D01*
X252493620Y-90687602D02*
X252493620Y-90688751D01*
X252492471Y-90691049D01*
X252491322Y-90692198D01*
X252515452Y-90664621D02*
X252503961Y-90664621D01*
X252502812Y-90676111D01*
X252503961Y-90674962D01*
X252506259Y-90673813D01*
X252512005Y-90673813D01*
X252514303Y-90674962D01*
X252515452Y-90676111D01*
X252516601Y-90678410D01*
X252516601Y-90684155D01*
X252515452Y-90686453D01*
X252514303Y-90687602D01*
X252512005Y-90688751D01*
X252506259Y-90688751D01*
X252503961Y-90687602D01*
X252502812Y-90686453D01*
X252537284Y-90672664D02*
X252537284Y-90688751D01*
X252531538Y-90663472D02*
X252525793Y-90680708D01*
X252540731Y-90680708D01*
X220511398Y-90603621D02*
X220525187Y-90603621D01*
X220518292Y-90627751D02*
X220518292Y-90603621D01*
X220533230Y-90627751D02*
X220533230Y-90603621D01*
X220542423Y-90603621D01*
X220544721Y-90604770D01*
X220545870Y-90605919D01*
X220547019Y-90608217D01*
X220547019Y-90611664D01*
X220545870Y-90613962D01*
X220544721Y-90615111D01*
X220542423Y-90616260D01*
X220533230Y-90616260D01*
X220565404Y-90615111D02*
X220568851Y-90616260D01*
X220570000Y-90617410D01*
X220571149Y-90619708D01*
X220571149Y-90623155D01*
X220570000Y-90625453D01*
X220568851Y-90626602D01*
X220566553Y-90627751D01*
X220557360Y-90627751D01*
X220557360Y-90603621D01*
X220565404Y-90603621D01*
X220567702Y-90604770D01*
X220568851Y-90605919D01*
X220570000Y-90608217D01*
X220570000Y-90610515D01*
X220568851Y-90612813D01*
X220567702Y-90613962D01*
X220565404Y-90615111D01*
X220557360Y-90615111D01*
X220580341Y-90605919D02*
X220581490Y-90604770D01*
X220583788Y-90603621D01*
X220589534Y-90603621D01*
X220591832Y-90604770D01*
X220592981Y-90605919D01*
X220594130Y-90608217D01*
X220594130Y-90610515D01*
X220592981Y-90613962D01*
X220579192Y-90627751D01*
X220594130Y-90627751D01*
X220605620Y-90626602D02*
X220605620Y-90627751D01*
X220604471Y-90630049D01*
X220603322Y-90631198D01*
X220627452Y-90603621D02*
X220615961Y-90603621D01*
X220614812Y-90615111D01*
X220615961Y-90613962D01*
X220618259Y-90612813D01*
X220624005Y-90612813D01*
X220626303Y-90613962D01*
X220627452Y-90615111D01*
X220628601Y-90617410D01*
X220628601Y-90623155D01*
X220627452Y-90625453D01*
X220626303Y-90626602D01*
X220624005Y-90627751D01*
X220618259Y-90627751D01*
X220615961Y-90626602D01*
X220614812Y-90625453D01*
X220649284Y-90611664D02*
X220649284Y-90627751D01*
X220643538Y-90602472D02*
X220637793Y-90619708D01*
X220652731Y-90619708D01*
D12*
X213390490Y-124053443D02*
X213333038Y-124110895D01*
X213160681Y-124168348D01*
X213045776Y-124168348D01*
X212873419Y-124110895D01*
X212758514Y-123995990D01*
X212701062Y-123881086D01*
X212643610Y-123651276D01*
X212643610Y-123478919D01*
X212701062Y-123249110D01*
X212758514Y-123134205D01*
X212873419Y-123019300D01*
X213045776Y-122961848D01*
X213160681Y-122961848D01*
X213333038Y-123019300D01*
X213390490Y-123076752D01*
X213850110Y-123823633D02*
X214424633Y-123823633D01*
X213735205Y-124168348D02*
X214137371Y-122961848D01*
X214539538Y-124168348D01*
X214941705Y-124168348D02*
X214941705Y-122961848D01*
X215631133Y-124168348D01*
X215631133Y-122961848D01*
X216205657Y-124168348D02*
X216205657Y-122961848D01*
X216205657Y-123536371D02*
X216895085Y-123536371D01*
X216895085Y-124168348D02*
X216895085Y-122961848D01*
X217182347Y-124283252D02*
X218101585Y-124283252D01*
X219078275Y-124053443D02*
X219020823Y-124110895D01*
X218848466Y-124168348D01*
X218733561Y-124168348D01*
X218561204Y-124110895D01*
X218446299Y-123995990D01*
X218388847Y-123881086D01*
X218331395Y-123651276D01*
X218331395Y-123478919D01*
X218388847Y-123249110D01*
X218446299Y-123134205D01*
X218561204Y-123019300D01*
X218733561Y-122961848D01*
X218848466Y-122961848D01*
X219020823Y-123019300D01*
X219078275Y-123076752D01*
X220227323Y-124168348D02*
X219537895Y-124168348D01*
X219882609Y-124168348D02*
X219882609Y-122961848D01*
X219767704Y-123134205D01*
X219652799Y-123249110D01*
X219537895Y-123306562D01*
D13*
X212461445Y-125332551D02*
X212461445Y-125308421D01*
X212470638Y-125308421D01*
X212472936Y-125309570D01*
X212474085Y-125310719D01*
X212475234Y-125313017D01*
X212475234Y-125316464D01*
X212474085Y-125318762D01*
X212472936Y-125319911D01*
X212470638Y-125321060D01*
X212461445Y-125321060D01*
X212482128Y-125308421D02*
X212495917Y-125308421D01*
X212489022Y-125332551D02*
X212489022Y-125308421D01*
X212517749Y-125332551D02*
X212509705Y-125321060D01*
X212503960Y-125332551D02*
X212503960Y-125308421D01*
X212513153Y-125308421D01*
X212515451Y-125309570D01*
X212516600Y-125310719D01*
X212517749Y-125313017D01*
X212517749Y-125316464D01*
X212516600Y-125318762D01*
X212515451Y-125319911D01*
X212513153Y-125321060D01*
X212503960Y-125321060D01*
X212540730Y-125332551D02*
X212526941Y-125332551D01*
X212533835Y-125332551D02*
X212533835Y-125308421D01*
X212531537Y-125311868D01*
X212529239Y-125314166D01*
X212526941Y-125315315D01*
X212547624Y-125308421D02*
X212561413Y-125308421D01*
X212554518Y-125332551D02*
X212554518Y-125308421D01*
X212569456Y-125332551D02*
X212569456Y-125308421D01*
X212578649Y-125308421D01*
X212580947Y-125309570D01*
X212582096Y-125310719D01*
X212583245Y-125313017D01*
X212583245Y-125316464D01*
X212582096Y-125318762D01*
X212580947Y-125319911D01*
X212578649Y-125321060D01*
X212569456Y-125321060D01*
X212606226Y-125332551D02*
X212592437Y-125332551D01*
X212599331Y-125332551D02*
X212599331Y-125308421D01*
X212597033Y-125311868D01*
X212594735Y-125314166D01*
X212592437Y-125315315D01*
X212629207Y-125332551D02*
X212615418Y-125332551D01*
X212622312Y-125332551D02*
X212622312Y-125308421D01*
X212620014Y-125311868D01*
X212617716Y-125314166D01*
X212615418Y-125315315D01*
X212653337Y-125332551D02*
X212645293Y-125321060D01*
X212639548Y-125332551D02*
X212639548Y-125308421D01*
X212648741Y-125308421D01*
X212651039Y-125309570D01*
X212652188Y-125310719D01*
X212653337Y-125313017D01*
X212653337Y-125316464D01*
X212652188Y-125318762D01*
X212651039Y-125319911D01*
X212648741Y-125321060D01*
X212639548Y-125321060D01*
D12*
X212528705Y-77800648D02*
X212930871Y-79007148D01*
X213333038Y-77800648D01*
X213735205Y-79007148D02*
X213735205Y-77800648D01*
X214022467Y-77800648D01*
X214194824Y-77858100D01*
X214309729Y-77973005D01*
X214367181Y-78087910D01*
X214424633Y-78317719D01*
X214424633Y-78490076D01*
X214367181Y-78719886D01*
X214309729Y-78834790D01*
X214194824Y-78949695D01*
X214022467Y-79007148D01*
X213735205Y-79007148D01*
X214941705Y-79007148D02*
X214941705Y-77800648D01*
X215228967Y-77800648D01*
X215401324Y-77858100D01*
X215516229Y-77973005D01*
X215573681Y-78087910D01*
X215631133Y-78317719D01*
X215631133Y-78490076D01*
X215573681Y-78719886D01*
X215516229Y-78834790D01*
X215401324Y-78949695D01*
X215228967Y-79007148D01*
X214941705Y-79007148D01*
X216148205Y-79007148D02*
X216148205Y-77800648D01*
X216435467Y-77800648D01*
X216607824Y-77858100D01*
X216722729Y-77973005D01*
X216780181Y-78087910D01*
X216837633Y-78317719D01*
X216837633Y-78490076D01*
X216780181Y-78719886D01*
X216722729Y-78834790D01*
X216607824Y-78949695D01*
X216435467Y-79007148D01*
X216148205Y-79007148D01*
X217067443Y-79122052D02*
X217986681Y-79122052D01*
X218963371Y-78892243D02*
X218905919Y-78949695D01*
X218733562Y-79007148D01*
X218618657Y-79007148D01*
X218446300Y-78949695D01*
X218331395Y-78834790D01*
X218273943Y-78719886D01*
X218216491Y-78490076D01*
X218216491Y-78317719D01*
X218273943Y-78087910D01*
X218331395Y-77973005D01*
X218446300Y-77858100D01*
X218618657Y-77800648D01*
X218733562Y-77800648D01*
X218905919Y-77858100D01*
X218963371Y-77915552D01*
X220112419Y-79007148D02*
X219422991Y-79007148D01*
X219767705Y-79007148D02*
X219767705Y-77800648D01*
X219652800Y-77973005D01*
X219537895Y-78087910D01*
X219422991Y-78145362D01*
D13*
X212461445Y-80171351D02*
X212461445Y-80147221D01*
X212470638Y-80147221D01*
X212472936Y-80148370D01*
X212474085Y-80149519D01*
X212475234Y-80151817D01*
X212475234Y-80155264D01*
X212474085Y-80157562D01*
X212472936Y-80158711D01*
X212470638Y-80159860D01*
X212461445Y-80159860D01*
X212482128Y-80147221D02*
X212495917Y-80147221D01*
X212489022Y-80171351D02*
X212489022Y-80147221D01*
X212517749Y-80171351D02*
X212509705Y-80159860D01*
X212503960Y-80171351D02*
X212503960Y-80147221D01*
X212513153Y-80147221D01*
X212515451Y-80148370D01*
X212516600Y-80149519D01*
X212517749Y-80151817D01*
X212517749Y-80155264D01*
X212516600Y-80157562D01*
X212515451Y-80158711D01*
X212513153Y-80159860D01*
X212503960Y-80159860D01*
X212540730Y-80171351D02*
X212526941Y-80171351D01*
X212533835Y-80171351D02*
X212533835Y-80147221D01*
X212531537Y-80150668D01*
X212529239Y-80152966D01*
X212526941Y-80154115D01*
X212547624Y-80147221D02*
X212561413Y-80147221D01*
X212554518Y-80171351D02*
X212554518Y-80147221D01*
X212569456Y-80171351D02*
X212569456Y-80147221D01*
X212578649Y-80147221D01*
X212580947Y-80148370D01*
X212582096Y-80149519D01*
X212583245Y-80151817D01*
X212583245Y-80155264D01*
X212582096Y-80157562D01*
X212580947Y-80158711D01*
X212578649Y-80159860D01*
X212569456Y-80159860D01*
X212606226Y-80171351D02*
X212592437Y-80171351D01*
X212599331Y-80171351D02*
X212599331Y-80147221D01*
X212597033Y-80150668D01*
X212594735Y-80152966D01*
X212592437Y-80154115D01*
X212629207Y-80171351D02*
X212615418Y-80171351D01*
X212622312Y-80171351D02*
X212622312Y-80147221D01*
X212620014Y-80150668D01*
X212617716Y-80152966D01*
X212615418Y-80154115D01*
X212653337Y-80171351D02*
X212645293Y-80159860D01*
X212639548Y-80171351D02*
X212639548Y-80147221D01*
X212648741Y-80147221D01*
X212651039Y-80148370D01*
X212652188Y-80149519D01*
X212653337Y-80151817D01*
X212653337Y-80155264D01*
X212652188Y-80157562D01*
X212651039Y-80158711D01*
X212648741Y-80159860D01*
X212639548Y-80159860D01*
D12*
X211075305Y-118085048D02*
X211477471Y-119291548D01*
X211879638Y-118085048D01*
X212281805Y-119291548D02*
X212281805Y-118085048D01*
X212569067Y-118085048D01*
X212741424Y-118142500D01*
X212856329Y-118257405D01*
X212913781Y-118372310D01*
X212971233Y-118602119D01*
X212971233Y-118774476D01*
X212913781Y-119004286D01*
X212856329Y-119119190D01*
X212741424Y-119234095D01*
X212569067Y-119291548D01*
X212281805Y-119291548D01*
X213488305Y-119291548D02*
X213488305Y-118085048D01*
X213775567Y-118085048D01*
X213947924Y-118142500D01*
X214062829Y-118257405D01*
X214120281Y-118372310D01*
X214177733Y-118602119D01*
X214177733Y-118774476D01*
X214120281Y-119004286D01*
X214062829Y-119119190D01*
X213947924Y-119234095D01*
X213775567Y-119291548D01*
X213488305Y-119291548D01*
X214694805Y-119291548D02*
X214694805Y-118085048D01*
X215499138Y-118085048D02*
X215728948Y-118085048D01*
X215843853Y-118142500D01*
X215958757Y-118257405D01*
X216016210Y-118487214D01*
X216016210Y-118889381D01*
X215958757Y-119119190D01*
X215843853Y-119234095D01*
X215728948Y-119291548D01*
X215499138Y-119291548D01*
X215384234Y-119234095D01*
X215269329Y-119119190D01*
X215211877Y-118889381D01*
X215211877Y-118487214D01*
X215269329Y-118257405D01*
X215384234Y-118142500D01*
X215499138Y-118085048D01*
X216246019Y-119406452D02*
X217165257Y-119406452D01*
X218141947Y-119176643D02*
X218084495Y-119234095D01*
X217912138Y-119291548D01*
X217797233Y-119291548D01*
X217624876Y-119234095D01*
X217509971Y-119119190D01*
X217452519Y-119004286D01*
X217395067Y-118774476D01*
X217395067Y-118602119D01*
X217452519Y-118372310D01*
X217509971Y-118257405D01*
X217624876Y-118142500D01*
X217797233Y-118085048D01*
X217912138Y-118085048D01*
X218084495Y-118142500D01*
X218141947Y-118199952D01*
X219290995Y-119291548D02*
X218601567Y-119291548D01*
X218946281Y-119291548D02*
X218946281Y-118085048D01*
X218831376Y-118257405D01*
X218716471Y-118372310D01*
X218601567Y-118429762D01*
D13*
X211008045Y-120455751D02*
X211008045Y-120431621D01*
X211017238Y-120431621D01*
X211019536Y-120432770D01*
X211020685Y-120433919D01*
X211021834Y-120436217D01*
X211021834Y-120439664D01*
X211020685Y-120441962D01*
X211019536Y-120443111D01*
X211017238Y-120444260D01*
X211008045Y-120444260D01*
X211028728Y-120431621D02*
X211042517Y-120431621D01*
X211035622Y-120455751D02*
X211035622Y-120431621D01*
X211064349Y-120455751D02*
X211056305Y-120444260D01*
X211050560Y-120455751D02*
X211050560Y-120431621D01*
X211059753Y-120431621D01*
X211062051Y-120432770D01*
X211063200Y-120433919D01*
X211064349Y-120436217D01*
X211064349Y-120439664D01*
X211063200Y-120441962D01*
X211062051Y-120443111D01*
X211059753Y-120444260D01*
X211050560Y-120444260D01*
X211087330Y-120455751D02*
X211073541Y-120455751D01*
X211080435Y-120455751D02*
X211080435Y-120431621D01*
X211078137Y-120435068D01*
X211075839Y-120437366D01*
X211073541Y-120438515D01*
X211094224Y-120431621D02*
X211108013Y-120431621D01*
X211101118Y-120455751D02*
X211101118Y-120431621D01*
X211116056Y-120455751D02*
X211116056Y-120431621D01*
X211125249Y-120431621D01*
X211127547Y-120432770D01*
X211128696Y-120433919D01*
X211129845Y-120436217D01*
X211129845Y-120439664D01*
X211128696Y-120441962D01*
X211127547Y-120443111D01*
X211125249Y-120444260D01*
X211116056Y-120444260D01*
X211152826Y-120455751D02*
X211139037Y-120455751D01*
X211145931Y-120455751D02*
X211145931Y-120431621D01*
X211143633Y-120435068D01*
X211141335Y-120437366D01*
X211139037Y-120438515D01*
X211175807Y-120455751D02*
X211162018Y-120455751D01*
X211168912Y-120455751D02*
X211168912Y-120431621D01*
X211166614Y-120435068D01*
X211164316Y-120437366D01*
X211162018Y-120438515D01*
X211199937Y-120455751D02*
X211191893Y-120444260D01*
X211186148Y-120455751D02*
X211186148Y-120431621D01*
X211195341Y-120431621D01*
X211197639Y-120432770D01*
X211198788Y-120433919D01*
X211199937Y-120436217D01*
X211199937Y-120439664D01*
X211198788Y-120441962D01*
X211197639Y-120443111D01*
X211195341Y-120444260D01*
X211186148Y-120444260D01*
D12*
X210962905Y-109982448D02*
X211365071Y-111188948D01*
X211767238Y-109982448D01*
X212169405Y-111188948D02*
X212169405Y-109982448D01*
X212456667Y-109982448D01*
X212629024Y-110039900D01*
X212743929Y-110154805D01*
X212801381Y-110269710D01*
X212858833Y-110499519D01*
X212858833Y-110671876D01*
X212801381Y-110901686D01*
X212743929Y-111016590D01*
X212629024Y-111131495D01*
X212456667Y-111188948D01*
X212169405Y-111188948D01*
X213375905Y-111188948D02*
X213375905Y-109982448D01*
X213663167Y-109982448D01*
X213835524Y-110039900D01*
X213950429Y-110154805D01*
X214007881Y-110269710D01*
X214065333Y-110499519D01*
X214065333Y-110671876D01*
X214007881Y-110901686D01*
X213950429Y-111016590D01*
X213835524Y-111131495D01*
X213663167Y-111188948D01*
X213375905Y-111188948D01*
X214524953Y-110844233D02*
X215099476Y-110844233D01*
X214410048Y-111188948D02*
X214812214Y-109982448D01*
X215214381Y-111188948D01*
X215329286Y-111303852D02*
X216248524Y-111303852D01*
X217225214Y-111074043D02*
X217167762Y-111131495D01*
X216995405Y-111188948D01*
X216880500Y-111188948D01*
X216708143Y-111131495D01*
X216593238Y-111016590D01*
X216535786Y-110901686D01*
X216478334Y-110671876D01*
X216478334Y-110499519D01*
X216535786Y-110269710D01*
X216593238Y-110154805D01*
X216708143Y-110039900D01*
X216880500Y-109982448D01*
X216995405Y-109982448D01*
X217167762Y-110039900D01*
X217225214Y-110097352D01*
X218374262Y-111188948D02*
X217684834Y-111188948D01*
X218029548Y-111188948D02*
X218029548Y-109982448D01*
X217914643Y-110154805D01*
X217799738Y-110269710D01*
X217684834Y-110327162D01*
D13*
X210895645Y-112353151D02*
X210895645Y-112329021D01*
X210904838Y-112329021D01*
X210907136Y-112330170D01*
X210908285Y-112331319D01*
X210909434Y-112333617D01*
X210909434Y-112337064D01*
X210908285Y-112339362D01*
X210907136Y-112340511D01*
X210904838Y-112341660D01*
X210895645Y-112341660D01*
X210916328Y-112329021D02*
X210930117Y-112329021D01*
X210923222Y-112353151D02*
X210923222Y-112329021D01*
X210951949Y-112353151D02*
X210943905Y-112341660D01*
X210938160Y-112353151D02*
X210938160Y-112329021D01*
X210947353Y-112329021D01*
X210949651Y-112330170D01*
X210950800Y-112331319D01*
X210951949Y-112333617D01*
X210951949Y-112337064D01*
X210950800Y-112339362D01*
X210949651Y-112340511D01*
X210947353Y-112341660D01*
X210938160Y-112341660D01*
X210974930Y-112353151D02*
X210961141Y-112353151D01*
X210968035Y-112353151D02*
X210968035Y-112329021D01*
X210965737Y-112332468D01*
X210963439Y-112334766D01*
X210961141Y-112335915D01*
X210981824Y-112329021D02*
X210995613Y-112329021D01*
X210988718Y-112353151D02*
X210988718Y-112329021D01*
X211003656Y-112353151D02*
X211003656Y-112329021D01*
X211012849Y-112329021D01*
X211015147Y-112330170D01*
X211016296Y-112331319D01*
X211017445Y-112333617D01*
X211017445Y-112337064D01*
X211016296Y-112339362D01*
X211015147Y-112340511D01*
X211012849Y-112341660D01*
X211003656Y-112341660D01*
X211040426Y-112353151D02*
X211026637Y-112353151D01*
X211033531Y-112353151D02*
X211033531Y-112329021D01*
X211031233Y-112332468D01*
X211028935Y-112334766D01*
X211026637Y-112335915D01*
X211063407Y-112353151D02*
X211049618Y-112353151D01*
X211056512Y-112353151D02*
X211056512Y-112329021D01*
X211054214Y-112332468D01*
X211051916Y-112334766D01*
X211049618Y-112335915D01*
X211087537Y-112353151D02*
X211079493Y-112341660D01*
X211073748Y-112353151D02*
X211073748Y-112329021D01*
X211082941Y-112329021D01*
X211085239Y-112330170D01*
X211086388Y-112331319D01*
X211087537Y-112333617D01*
X211087537Y-112337064D01*
X211086388Y-112339362D01*
X211085239Y-112340511D01*
X211082941Y-112341660D01*
X211073748Y-112341660D01*
D12*
X211018010Y-94926295D02*
X211190367Y-94983748D01*
X211477629Y-94983748D01*
X211592533Y-94926295D01*
X211649986Y-94868843D01*
X211707438Y-94753938D01*
X211707438Y-94639033D01*
X211649986Y-94524129D01*
X211592533Y-94466676D01*
X211477629Y-94409224D01*
X211247819Y-94351771D01*
X211132914Y-94294319D01*
X211075462Y-94236867D01*
X211018010Y-94121962D01*
X211018010Y-94007057D01*
X211075462Y-93892152D01*
X211132914Y-93834700D01*
X211247819Y-93777248D01*
X211535081Y-93777248D01*
X211707438Y-93834700D01*
X212224510Y-94983748D02*
X212224510Y-93777248D01*
X212511772Y-93777248D01*
X212684129Y-93834700D01*
X212799034Y-93949605D01*
X212856486Y-94064510D01*
X212913938Y-94294319D01*
X212913938Y-94466676D01*
X212856486Y-94696486D01*
X212799034Y-94811390D01*
X212684129Y-94926295D01*
X212511772Y-94983748D01*
X212224510Y-94983748D01*
X213373558Y-94639033D02*
X213948081Y-94639033D01*
X213258653Y-94983748D02*
X213660819Y-93777248D01*
X214062986Y-94983748D01*
X214177891Y-95098652D02*
X215097129Y-95098652D01*
X215326939Y-94926295D02*
X215499296Y-94983748D01*
X215786558Y-94983748D01*
X215901462Y-94926295D01*
X215958915Y-94868843D01*
X216016367Y-94753938D01*
X216016367Y-94639033D01*
X215958915Y-94524129D01*
X215901462Y-94466676D01*
X215786558Y-94409224D01*
X215556748Y-94351771D01*
X215441843Y-94294319D01*
X215384391Y-94236867D01*
X215326939Y-94121962D01*
X215326939Y-94007057D01*
X215384391Y-93892152D01*
X215441843Y-93834700D01*
X215556748Y-93777248D01*
X215844010Y-93777248D01*
X216016367Y-93834700D01*
X216475987Y-93892152D02*
X216533439Y-93834700D01*
X216648344Y-93777248D01*
X216935606Y-93777248D01*
X217050510Y-93834700D01*
X217107963Y-93892152D01*
X217165415Y-94007057D01*
X217165415Y-94121962D01*
X217107963Y-94294319D01*
X216418534Y-94983748D01*
X217165415Y-94983748D01*
X217395225Y-95098652D02*
X218314463Y-95098652D01*
X219291153Y-94868843D02*
X219233701Y-94926295D01*
X219061344Y-94983748D01*
X218946439Y-94983748D01*
X218774082Y-94926295D01*
X218659177Y-94811390D01*
X218601725Y-94696486D01*
X218544273Y-94466676D01*
X218544273Y-94294319D01*
X218601725Y-94064510D01*
X218659177Y-93949605D01*
X218774082Y-93834700D01*
X218946439Y-93777248D01*
X219061344Y-93777248D01*
X219233701Y-93834700D01*
X219291153Y-93892152D01*
X220440201Y-94983748D02*
X219750773Y-94983748D01*
X220095487Y-94983748D02*
X220095487Y-93777248D01*
X219980582Y-93949605D01*
X219865677Y-94064510D01*
X219750773Y-94121962D01*
D13*
X210835845Y-96147951D02*
X210835845Y-96123821D01*
X210845038Y-96123821D01*
X210847336Y-96124970D01*
X210848485Y-96126119D01*
X210849634Y-96128417D01*
X210849634Y-96131864D01*
X210848485Y-96134162D01*
X210847336Y-96135311D01*
X210845038Y-96136460D01*
X210835845Y-96136460D01*
X210856528Y-96123821D02*
X210870317Y-96123821D01*
X210863422Y-96147951D02*
X210863422Y-96123821D01*
X210892149Y-96147951D02*
X210884105Y-96136460D01*
X210878360Y-96147951D02*
X210878360Y-96123821D01*
X210887553Y-96123821D01*
X210889851Y-96124970D01*
X210891000Y-96126119D01*
X210892149Y-96128417D01*
X210892149Y-96131864D01*
X210891000Y-96134162D01*
X210889851Y-96135311D01*
X210887553Y-96136460D01*
X210878360Y-96136460D01*
X210915130Y-96147951D02*
X210901341Y-96147951D01*
X210908235Y-96147951D02*
X210908235Y-96123821D01*
X210905937Y-96127268D01*
X210903639Y-96129566D01*
X210901341Y-96130715D01*
X210922024Y-96123821D02*
X210935813Y-96123821D01*
X210928918Y-96147951D02*
X210928918Y-96123821D01*
X210943856Y-96147951D02*
X210943856Y-96123821D01*
X210953049Y-96123821D01*
X210955347Y-96124970D01*
X210956496Y-96126119D01*
X210957645Y-96128417D01*
X210957645Y-96131864D01*
X210956496Y-96134162D01*
X210955347Y-96135311D01*
X210953049Y-96136460D01*
X210943856Y-96136460D01*
X210980626Y-96147951D02*
X210966837Y-96147951D01*
X210973731Y-96147951D02*
X210973731Y-96123821D01*
X210971433Y-96127268D01*
X210969135Y-96129566D01*
X210966837Y-96130715D01*
X211003607Y-96147951D02*
X210989818Y-96147951D01*
X210996712Y-96147951D02*
X210996712Y-96123821D01*
X210994414Y-96127268D01*
X210992116Y-96129566D01*
X210989818Y-96130715D01*
X211027737Y-96147951D02*
X211019693Y-96136460D01*
X211013948Y-96147951D02*
X211013948Y-96123821D01*
X211023141Y-96123821D01*
X211025439Y-96124970D01*
X211026588Y-96126119D01*
X211027737Y-96128417D01*
X211027737Y-96131864D01*
X211026588Y-96134162D01*
X211025439Y-96135311D01*
X211023141Y-96136460D01*
X211013948Y-96136460D01*
D12*
X211164810Y-116592495D02*
X211337167Y-116649948D01*
X211624429Y-116649948D01*
X211739333Y-116592495D01*
X211796786Y-116535043D01*
X211854238Y-116420138D01*
X211854238Y-116305233D01*
X211796786Y-116190329D01*
X211739333Y-116132876D01*
X211624429Y-116075424D01*
X211394619Y-116017971D01*
X211279714Y-115960519D01*
X211222262Y-115903067D01*
X211164810Y-115788162D01*
X211164810Y-115673257D01*
X211222262Y-115558352D01*
X211279714Y-115500900D01*
X211394619Y-115443448D01*
X211681881Y-115443448D01*
X211854238Y-115500900D01*
X212371310Y-116649948D02*
X212371310Y-115443448D01*
X212658572Y-115443448D01*
X212830929Y-115500900D01*
X212945834Y-115615805D01*
X213003286Y-115730710D01*
X213060738Y-115960519D01*
X213060738Y-116132876D01*
X213003286Y-116362686D01*
X212945834Y-116477590D01*
X212830929Y-116592495D01*
X212658572Y-116649948D01*
X212371310Y-116649948D01*
X213520358Y-116305233D02*
X214094881Y-116305233D01*
X213405453Y-116649948D02*
X213807619Y-115443448D01*
X214209786Y-116649948D01*
X214324691Y-116764852D02*
X215243929Y-116764852D01*
X215473739Y-116592495D02*
X215646096Y-116649948D01*
X215933358Y-116649948D01*
X216048262Y-116592495D01*
X216105715Y-116535043D01*
X216163167Y-116420138D01*
X216163167Y-116305233D01*
X216105715Y-116190329D01*
X216048262Y-116132876D01*
X215933358Y-116075424D01*
X215703548Y-116017971D01*
X215588643Y-115960519D01*
X215531191Y-115903067D01*
X215473739Y-115788162D01*
X215473739Y-115673257D01*
X215531191Y-115558352D01*
X215588643Y-115500900D01*
X215703548Y-115443448D01*
X215990810Y-115443448D01*
X216163167Y-115500900D01*
X216565334Y-115443448D02*
X217312215Y-115443448D01*
X216910048Y-115903067D01*
X217082406Y-115903067D01*
X217197310Y-115960519D01*
X217254763Y-116017971D01*
X217312215Y-116132876D01*
X217312215Y-116420138D01*
X217254763Y-116535043D01*
X217197310Y-116592495D01*
X217082406Y-116649948D01*
X216737691Y-116649948D01*
X216622787Y-116592495D01*
X216565334Y-116535043D01*
X217542025Y-116764852D02*
X218461263Y-116764852D01*
X219437953Y-116535043D02*
X219380501Y-116592495D01*
X219208144Y-116649948D01*
X219093239Y-116649948D01*
X218920882Y-116592495D01*
X218805977Y-116477590D01*
X218748525Y-116362686D01*
X218691073Y-116132876D01*
X218691073Y-115960519D01*
X218748525Y-115730710D01*
X218805977Y-115615805D01*
X218920882Y-115500900D01*
X219093239Y-115443448D01*
X219208144Y-115443448D01*
X219380501Y-115500900D01*
X219437953Y-115558352D01*
X220587001Y-116649948D02*
X219897573Y-116649948D01*
X220242287Y-116649948D02*
X220242287Y-115443448D01*
X220127382Y-115615805D01*
X220012477Y-115730710D01*
X219897573Y-115788162D01*
D13*
X210982645Y-117814151D02*
X210982645Y-117790021D01*
X210991838Y-117790021D01*
X210994136Y-117791170D01*
X210995285Y-117792319D01*
X210996434Y-117794617D01*
X210996434Y-117798064D01*
X210995285Y-117800362D01*
X210994136Y-117801511D01*
X210991838Y-117802660D01*
X210982645Y-117802660D01*
X211003328Y-117790021D02*
X211017117Y-117790021D01*
X211010222Y-117814151D02*
X211010222Y-117790021D01*
X211038949Y-117814151D02*
X211030905Y-117802660D01*
X211025160Y-117814151D02*
X211025160Y-117790021D01*
X211034353Y-117790021D01*
X211036651Y-117791170D01*
X211037800Y-117792319D01*
X211038949Y-117794617D01*
X211038949Y-117798064D01*
X211037800Y-117800362D01*
X211036651Y-117801511D01*
X211034353Y-117802660D01*
X211025160Y-117802660D01*
X211061930Y-117814151D02*
X211048141Y-117814151D01*
X211055035Y-117814151D02*
X211055035Y-117790021D01*
X211052737Y-117793468D01*
X211050439Y-117795766D01*
X211048141Y-117796915D01*
X211068824Y-117790021D02*
X211082613Y-117790021D01*
X211075718Y-117814151D02*
X211075718Y-117790021D01*
X211090656Y-117814151D02*
X211090656Y-117790021D01*
X211099849Y-117790021D01*
X211102147Y-117791170D01*
X211103296Y-117792319D01*
X211104445Y-117794617D01*
X211104445Y-117798064D01*
X211103296Y-117800362D01*
X211102147Y-117801511D01*
X211099849Y-117802660D01*
X211090656Y-117802660D01*
X211127426Y-117814151D02*
X211113637Y-117814151D01*
X211120531Y-117814151D02*
X211120531Y-117790021D01*
X211118233Y-117793468D01*
X211115935Y-117795766D01*
X211113637Y-117796915D01*
X211150407Y-117814151D02*
X211136618Y-117814151D01*
X211143512Y-117814151D02*
X211143512Y-117790021D01*
X211141214Y-117793468D01*
X211138916Y-117795766D01*
X211136618Y-117796915D01*
X211174537Y-117814151D02*
X211166493Y-117802660D01*
X211160748Y-117814151D02*
X211160748Y-117790021D01*
X211169941Y-117790021D01*
X211172239Y-117791170D01*
X211173388Y-117792319D01*
X211174537Y-117794617D01*
X211174537Y-117798064D01*
X211173388Y-117800362D01*
X211172239Y-117801511D01*
X211169941Y-117802660D01*
X211160748Y-117802660D01*
D12*
X211054210Y-100336495D02*
X211226567Y-100393948D01*
X211513829Y-100393948D01*
X211628733Y-100336495D01*
X211686186Y-100279043D01*
X211743638Y-100164138D01*
X211743638Y-100049233D01*
X211686186Y-99934329D01*
X211628733Y-99876876D01*
X211513829Y-99819424D01*
X211284019Y-99761971D01*
X211169114Y-99704519D01*
X211111662Y-99647067D01*
X211054210Y-99532162D01*
X211054210Y-99417257D01*
X211111662Y-99302352D01*
X211169114Y-99244900D01*
X211284019Y-99187448D01*
X211571281Y-99187448D01*
X211743638Y-99244900D01*
X212260710Y-100393948D02*
X212260710Y-99187448D01*
X212547972Y-99187448D01*
X212720329Y-99244900D01*
X212835234Y-99359805D01*
X212892686Y-99474710D01*
X212950138Y-99704519D01*
X212950138Y-99876876D01*
X212892686Y-100106686D01*
X212835234Y-100221590D01*
X212720329Y-100336495D01*
X212547972Y-100393948D01*
X212260710Y-100393948D01*
X213409758Y-100049233D02*
X213984281Y-100049233D01*
X213294853Y-100393948D02*
X213697019Y-99187448D01*
X214099186Y-100393948D01*
X214214091Y-100508852D02*
X215133329Y-100508852D01*
X215363139Y-100336495D02*
X215535496Y-100393948D01*
X215822758Y-100393948D01*
X215937662Y-100336495D01*
X215995115Y-100279043D01*
X216052567Y-100164138D01*
X216052567Y-100049233D01*
X215995115Y-99934329D01*
X215937662Y-99876876D01*
X215822758Y-99819424D01*
X215592948Y-99761971D01*
X215478043Y-99704519D01*
X215420591Y-99647067D01*
X215363139Y-99532162D01*
X215363139Y-99417257D01*
X215420591Y-99302352D01*
X215478043Y-99244900D01*
X215592948Y-99187448D01*
X215880210Y-99187448D01*
X216052567Y-99244900D01*
X217086710Y-99589614D02*
X217086710Y-100393948D01*
X216799448Y-99129995D02*
X216512187Y-99991781D01*
X217259067Y-99991781D01*
X217431425Y-100508852D02*
X218350663Y-100508852D01*
X219327353Y-100279043D02*
X219269901Y-100336495D01*
X219097544Y-100393948D01*
X218982639Y-100393948D01*
X218810282Y-100336495D01*
X218695377Y-100221590D01*
X218637925Y-100106686D01*
X218580473Y-99876876D01*
X218580473Y-99704519D01*
X218637925Y-99474710D01*
X218695377Y-99359805D01*
X218810282Y-99244900D01*
X218982639Y-99187448D01*
X219097544Y-99187448D01*
X219269901Y-99244900D01*
X219327353Y-99302352D01*
X220476401Y-100393948D02*
X219786973Y-100393948D01*
X220131687Y-100393948D02*
X220131687Y-99187448D01*
X220016782Y-99359805D01*
X219901877Y-99474710D01*
X219786973Y-99532162D01*
D13*
X210872045Y-101558151D02*
X210872045Y-101534021D01*
X210881238Y-101534021D01*
X210883536Y-101535170D01*
X210884685Y-101536319D01*
X210885834Y-101538617D01*
X210885834Y-101542064D01*
X210884685Y-101544362D01*
X210883536Y-101545511D01*
X210881238Y-101546660D01*
X210872045Y-101546660D01*
X210892728Y-101534021D02*
X210906517Y-101534021D01*
X210899622Y-101558151D02*
X210899622Y-101534021D01*
X210928349Y-101558151D02*
X210920305Y-101546660D01*
X210914560Y-101558151D02*
X210914560Y-101534021D01*
X210923753Y-101534021D01*
X210926051Y-101535170D01*
X210927200Y-101536319D01*
X210928349Y-101538617D01*
X210928349Y-101542064D01*
X210927200Y-101544362D01*
X210926051Y-101545511D01*
X210923753Y-101546660D01*
X210914560Y-101546660D01*
X210951330Y-101558151D02*
X210937541Y-101558151D01*
X210944435Y-101558151D02*
X210944435Y-101534021D01*
X210942137Y-101537468D01*
X210939839Y-101539766D01*
X210937541Y-101540915D01*
X210958224Y-101534021D02*
X210972013Y-101534021D01*
X210965118Y-101558151D02*
X210965118Y-101534021D01*
X210980056Y-101558151D02*
X210980056Y-101534021D01*
X210989249Y-101534021D01*
X210991547Y-101535170D01*
X210992696Y-101536319D01*
X210993845Y-101538617D01*
X210993845Y-101542064D01*
X210992696Y-101544362D01*
X210991547Y-101545511D01*
X210989249Y-101546660D01*
X210980056Y-101546660D01*
X211016826Y-101558151D02*
X211003037Y-101558151D01*
X211009931Y-101558151D02*
X211009931Y-101534021D01*
X211007633Y-101537468D01*
X211005335Y-101539766D01*
X211003037Y-101540915D01*
X211039807Y-101558151D02*
X211026018Y-101558151D01*
X211032912Y-101558151D02*
X211032912Y-101534021D01*
X211030614Y-101537468D01*
X211028316Y-101539766D01*
X211026018Y-101540915D01*
X211063937Y-101558151D02*
X211055893Y-101546660D01*
X211050148Y-101558151D02*
X211050148Y-101534021D01*
X211059341Y-101534021D01*
X211061639Y-101535170D01*
X211062788Y-101536319D01*
X211063937Y-101538617D01*
X211063937Y-101542064D01*
X211062788Y-101544362D01*
X211061639Y-101545511D01*
X211059341Y-101546660D01*
X211050148Y-101546660D01*
D14*
X260868490Y-131960248D02*
X260868490Y-132822033D01*
X260811038Y-132994390D01*
X260696133Y-133109295D01*
X260523776Y-133166748D01*
X260408871Y-133166748D01*
X261443014Y-133166748D02*
X261443014Y-131960248D01*
X261902633Y-131960248D01*
X262017538Y-132017700D01*
X262074990Y-132075152D01*
X262132442Y-132190057D01*
X262132442Y-132362414D01*
X262074990Y-132477319D01*
X262017538Y-132534771D01*
X261902633Y-132592224D01*
X261443014Y-132592224D01*
X263281490Y-133166748D02*
X262592062Y-133166748D01*
X262936776Y-133166748D02*
X262936776Y-131960248D01*
X262821871Y-132132605D01*
X262706966Y-132247510D01*
X262592062Y-132304962D01*
D12*
M02*
