G04 #@! TF.FileFunction,Paste,Top*
%FSLAX46Y46*%
G04 Gerber Fmt 4.6, Leading zero omitted, Abs format (unit mm)*
G04 Created by KiCad (PCBNEW 4.0.6) date 05/08/17 07:31:45*
%MOMM*%
%LPD*%
G01*
G04 APERTURE LIST*
%ADD10C,0.100000*%
%ADD11C,2.540000*%
%ADD12C,3.175000*%
%ADD13C,1.100000*%
%ADD14R,0.635000X1.270000*%
G04 APERTURE END LIST*
D10*
D11*
X130325100Y-89676100D03*
D12*
X130325100Y-89676100D03*
D11*
X106321100Y-89671100D03*
D12*
X106321100Y-89671100D03*
D11*
X130194100Y-113720100D03*
D12*
X130194100Y-113720100D03*
D11*
X106259100Y-113600100D03*
D12*
X106259100Y-113600100D03*
D11*
X126306100Y-93598100D03*
D12*
X126306100Y-93598100D03*
D11*
X110398100Y-93610100D03*
D12*
X110398100Y-93610100D03*
D11*
X126394100Y-109592100D03*
D12*
X126394100Y-109592100D03*
D11*
X110263100Y-109590100D03*
D12*
X110263100Y-109590100D03*
D11*
X134288100Y-85603100D03*
D12*
X134288100Y-85603100D03*
D11*
X102400100Y-85602100D03*
D12*
X102400100Y-85602100D03*
D11*
X134339100Y-117585100D03*
D12*
X134339100Y-117585100D03*
D11*
X102272100Y-117610100D03*
D12*
X102272100Y-117610100D03*
D13*
X94338100Y-86737900D03*
D14*
X94719100Y-86737900D03*
X95354100Y-86737900D03*
X94084100Y-86737900D03*
X93449100Y-86737900D03*
X92814100Y-86737900D03*
X95951000Y-86737900D03*
X96547900Y-86737900D03*
X92191800Y-86737900D03*
X91569500Y-86737900D03*
D13*
X94371100Y-90044900D03*
D14*
X94752100Y-90044900D03*
X95387100Y-90044900D03*
X94117100Y-90044900D03*
X93482100Y-90044900D03*
X92847100Y-90044900D03*
X95984000Y-90044900D03*
X96580900Y-90044900D03*
X92224800Y-90044900D03*
X91602500Y-90044900D03*
D13*
X94313100Y-80550900D03*
D14*
X94694100Y-80550900D03*
X95329100Y-80550900D03*
X94059100Y-80550900D03*
X93424100Y-80550900D03*
X92789100Y-80550900D03*
X95926000Y-80550900D03*
X96522900Y-80550900D03*
X92166800Y-80550900D03*
X91544500Y-80550900D03*
D13*
X94363100Y-83584900D03*
D14*
X94744100Y-83584900D03*
X95379100Y-83584900D03*
X94109100Y-83584900D03*
X93474100Y-83584900D03*
X92839100Y-83584900D03*
X95976000Y-83584900D03*
X96572900Y-83584900D03*
X92216800Y-83584900D03*
X91594500Y-83584900D03*
M02*
