G04 #@! TF.FileFunction,Legend,Bot*
%FSLAX46Y46*%
G04 Gerber Fmt 4.6, Leading zero omitted, Abs format (unit mm)*
G04 Created by KiCad (PCBNEW 4.0.6) date 05/08/17 07:31:45*
%MOMM*%
%LPD*%
G01*
G04 APERTURE LIST*
%ADD10C,0.100000*%
%ADD11C,0.101600*%
%ADD12C,0.002032*%
G04 APERTURE END LIST*
D10*
D11*
X144340043Y-115855848D02*
X143593162Y-115855848D01*
X143995329Y-116315467D01*
X143822971Y-116315467D01*
X143708067Y-116372919D01*
X143650614Y-116430371D01*
X143593162Y-116545276D01*
X143593162Y-116832538D01*
X143650614Y-116947443D01*
X143708067Y-117004895D01*
X143822971Y-117062348D01*
X144167686Y-117062348D01*
X144282590Y-117004895D01*
X144340043Y-116947443D01*
X143248447Y-115855848D02*
X142846281Y-117062348D01*
X142444114Y-115855848D01*
X142156852Y-115855848D02*
X141409971Y-115855848D01*
X141812138Y-116315467D01*
X141639780Y-116315467D01*
X141524876Y-116372919D01*
X141467423Y-116430371D01*
X141409971Y-116545276D01*
X141409971Y-116832538D01*
X141467423Y-116947443D01*
X141524876Y-117004895D01*
X141639780Y-117062348D01*
X141984495Y-117062348D01*
X142099399Y-117004895D01*
X142156852Y-116947443D01*
X141180161Y-117177252D02*
X140260923Y-117177252D01*
X139284233Y-116947443D02*
X139341685Y-117004895D01*
X139514042Y-117062348D01*
X139628947Y-117062348D01*
X139801304Y-117004895D01*
X139916209Y-116889990D01*
X139973661Y-116775086D01*
X140031113Y-116545276D01*
X140031113Y-116372919D01*
X139973661Y-116143110D01*
X139916209Y-116028205D01*
X139801304Y-115913300D01*
X139628947Y-115855848D01*
X139514042Y-115855848D01*
X139341685Y-115913300D01*
X139284233Y-115970752D01*
X138882066Y-115855848D02*
X138135185Y-115855848D01*
X138537352Y-116315467D01*
X138364994Y-116315467D01*
X138250090Y-116372919D01*
X138192637Y-116430371D01*
X138135185Y-116545276D01*
X138135185Y-116832538D01*
X138192637Y-116947443D01*
X138250090Y-117004895D01*
X138364994Y-117062348D01*
X138709709Y-117062348D01*
X138824613Y-117004895D01*
X138882066Y-116947443D01*
D12*
X144548555Y-116010751D02*
X144548555Y-115986621D01*
X144539362Y-115986621D01*
X144537064Y-115987770D01*
X144535915Y-115988919D01*
X144534766Y-115991217D01*
X144534766Y-115994664D01*
X144535915Y-115996962D01*
X144537064Y-115998111D01*
X144539362Y-115999260D01*
X144548555Y-115999260D01*
X144527872Y-115986621D02*
X144514083Y-115986621D01*
X144520978Y-116010751D02*
X144520978Y-115986621D01*
X144492251Y-116010751D02*
X144500295Y-115999260D01*
X144506040Y-116010751D02*
X144506040Y-115986621D01*
X144496847Y-115986621D01*
X144494549Y-115987770D01*
X144493400Y-115988919D01*
X144492251Y-115991217D01*
X144492251Y-115994664D01*
X144493400Y-115996962D01*
X144494549Y-115998111D01*
X144496847Y-115999260D01*
X144506040Y-115999260D01*
X144469270Y-116010751D02*
X144483059Y-116010751D01*
X144476165Y-116010751D02*
X144476165Y-115986621D01*
X144478463Y-115990068D01*
X144480761Y-115992366D01*
X144483059Y-115993515D01*
X144462376Y-115986621D02*
X144448587Y-115986621D01*
X144455482Y-116010751D02*
X144455482Y-115986621D01*
X144440544Y-116010751D02*
X144440544Y-115986621D01*
X144431351Y-115986621D01*
X144429053Y-115987770D01*
X144427904Y-115988919D01*
X144426755Y-115991217D01*
X144426755Y-115994664D01*
X144427904Y-115996962D01*
X144429053Y-115998111D01*
X144431351Y-115999260D01*
X144440544Y-115999260D01*
X144403774Y-116010751D02*
X144417563Y-116010751D01*
X144410669Y-116010751D02*
X144410669Y-115986621D01*
X144412967Y-115990068D01*
X144415265Y-115992366D01*
X144417563Y-115993515D01*
X144380793Y-116010751D02*
X144394582Y-116010751D01*
X144387688Y-116010751D02*
X144387688Y-115986621D01*
X144389986Y-115990068D01*
X144392284Y-115992366D01*
X144394582Y-115993515D01*
X144356663Y-116010751D02*
X144364707Y-115999260D01*
X144370452Y-116010751D02*
X144370452Y-115986621D01*
X144361259Y-115986621D01*
X144358961Y-115987770D01*
X144357812Y-115988919D01*
X144356663Y-115991217D01*
X144356663Y-115994664D01*
X144357812Y-115996962D01*
X144358961Y-115998111D01*
X144361259Y-115999260D01*
X144370452Y-115999260D01*
D11*
X141983562Y-125991900D02*
X142098467Y-125934448D01*
X142270824Y-125934448D01*
X142443181Y-125991900D01*
X142558086Y-126106805D01*
X142615538Y-126221710D01*
X142672990Y-126451519D01*
X142672990Y-126623876D01*
X142615538Y-126853686D01*
X142558086Y-126968590D01*
X142443181Y-127083495D01*
X142270824Y-127140948D01*
X142155919Y-127140948D01*
X141983562Y-127083495D01*
X141926110Y-127026043D01*
X141926110Y-126623876D01*
X142155919Y-126623876D01*
X141409038Y-127140948D02*
X141409038Y-125934448D01*
X140719610Y-127140948D01*
X140719610Y-125934448D01*
X140145086Y-127140948D02*
X140145086Y-125934448D01*
X139857824Y-125934448D01*
X139685467Y-125991900D01*
X139570562Y-126106805D01*
X139513110Y-126221710D01*
X139455658Y-126451519D01*
X139455658Y-126623876D01*
X139513110Y-126853686D01*
X139570562Y-126968590D01*
X139685467Y-127083495D01*
X139857824Y-127140948D01*
X140145086Y-127140948D01*
X139225848Y-127255852D02*
X138306610Y-127255852D01*
X137329920Y-127026043D02*
X137387372Y-127083495D01*
X137559729Y-127140948D01*
X137674634Y-127140948D01*
X137846991Y-127083495D01*
X137961896Y-126968590D01*
X138019348Y-126853686D01*
X138076800Y-126623876D01*
X138076800Y-126451519D01*
X138019348Y-126221710D01*
X137961896Y-126106805D01*
X137846991Y-125991900D01*
X137674634Y-125934448D01*
X137559729Y-125934448D01*
X137387372Y-125991900D01*
X137329920Y-126049352D01*
X136927753Y-125934448D02*
X136180872Y-125934448D01*
X136583039Y-126394067D01*
X136410681Y-126394067D01*
X136295777Y-126451519D01*
X136238324Y-126508971D01*
X136180872Y-126623876D01*
X136180872Y-126911138D01*
X136238324Y-127026043D01*
X136295777Y-127083495D01*
X136410681Y-127140948D01*
X136755396Y-127140948D01*
X136870300Y-127083495D01*
X136927753Y-127026043D01*
D12*
X142938955Y-126089351D02*
X142938955Y-126065221D01*
X142929762Y-126065221D01*
X142927464Y-126066370D01*
X142926315Y-126067519D01*
X142925166Y-126069817D01*
X142925166Y-126073264D01*
X142926315Y-126075562D01*
X142927464Y-126076711D01*
X142929762Y-126077860D01*
X142938955Y-126077860D01*
X142918272Y-126065221D02*
X142904483Y-126065221D01*
X142911378Y-126089351D02*
X142911378Y-126065221D01*
X142882651Y-126089351D02*
X142890695Y-126077860D01*
X142896440Y-126089351D02*
X142896440Y-126065221D01*
X142887247Y-126065221D01*
X142884949Y-126066370D01*
X142883800Y-126067519D01*
X142882651Y-126069817D01*
X142882651Y-126073264D01*
X142883800Y-126075562D01*
X142884949Y-126076711D01*
X142887247Y-126077860D01*
X142896440Y-126077860D01*
X142859670Y-126089351D02*
X142873459Y-126089351D01*
X142866565Y-126089351D02*
X142866565Y-126065221D01*
X142868863Y-126068668D01*
X142871161Y-126070966D01*
X142873459Y-126072115D01*
X142852776Y-126065221D02*
X142838987Y-126065221D01*
X142845882Y-126089351D02*
X142845882Y-126065221D01*
X142830944Y-126089351D02*
X142830944Y-126065221D01*
X142821751Y-126065221D01*
X142819453Y-126066370D01*
X142818304Y-126067519D01*
X142817155Y-126069817D01*
X142817155Y-126073264D01*
X142818304Y-126075562D01*
X142819453Y-126076711D01*
X142821751Y-126077860D01*
X142830944Y-126077860D01*
X142794174Y-126089351D02*
X142807963Y-126089351D01*
X142801069Y-126089351D02*
X142801069Y-126065221D01*
X142803367Y-126068668D01*
X142805665Y-126070966D01*
X142807963Y-126072115D01*
X142771193Y-126089351D02*
X142784982Y-126089351D01*
X142778088Y-126089351D02*
X142778088Y-126065221D01*
X142780386Y-126068668D01*
X142782684Y-126070966D01*
X142784982Y-126072115D01*
X142747063Y-126089351D02*
X142755107Y-126077860D01*
X142760852Y-126089351D02*
X142760852Y-126065221D01*
X142751659Y-126065221D01*
X142749361Y-126066370D01*
X142748212Y-126067519D01*
X142747063Y-126069817D01*
X142747063Y-126073264D01*
X142748212Y-126075562D01*
X142749361Y-126076711D01*
X142751659Y-126077860D01*
X142760852Y-126077860D01*
D11*
X143726814Y-101085748D02*
X144301338Y-101085748D01*
X144301338Y-99879248D01*
X143611910Y-101200652D02*
X142692672Y-101200652D01*
X141715982Y-100970843D02*
X141773434Y-101028295D01*
X141945791Y-101085748D01*
X142060696Y-101085748D01*
X142233053Y-101028295D01*
X142347958Y-100913390D01*
X142405410Y-100798486D01*
X142462862Y-100568676D01*
X142462862Y-100396319D01*
X142405410Y-100166510D01*
X142347958Y-100051605D01*
X142233053Y-99936700D01*
X142060696Y-99879248D01*
X141945791Y-99879248D01*
X141773434Y-99936700D01*
X141715982Y-99994152D01*
X141256362Y-99994152D02*
X141198910Y-99936700D01*
X141084005Y-99879248D01*
X140796743Y-99879248D01*
X140681839Y-99936700D01*
X140624386Y-99994152D01*
X140566934Y-100109057D01*
X140566934Y-100223962D01*
X140624386Y-100396319D01*
X141313815Y-101085748D01*
X140566934Y-101085748D01*
X140337124Y-101200652D02*
X139417886Y-101200652D01*
X138441196Y-100970843D02*
X138498648Y-101028295D01*
X138671005Y-101085748D01*
X138785910Y-101085748D01*
X138958267Y-101028295D01*
X139073172Y-100913390D01*
X139130624Y-100798486D01*
X139188076Y-100568676D01*
X139188076Y-100396319D01*
X139130624Y-100166510D01*
X139073172Y-100051605D01*
X138958267Y-99936700D01*
X138785910Y-99879248D01*
X138671005Y-99879248D01*
X138498648Y-99936700D01*
X138441196Y-99994152D01*
X138039029Y-99879248D02*
X137292148Y-99879248D01*
X137694315Y-100338867D01*
X137521957Y-100338867D01*
X137407053Y-100396319D01*
X137349600Y-100453771D01*
X137292148Y-100568676D01*
X137292148Y-100855938D01*
X137349600Y-100970843D01*
X137407053Y-101028295D01*
X137521957Y-101085748D01*
X137866672Y-101085748D01*
X137981576Y-101028295D01*
X138039029Y-100970843D01*
D12*
X144624755Y-100034151D02*
X144624755Y-100010021D01*
X144615562Y-100010021D01*
X144613264Y-100011170D01*
X144612115Y-100012319D01*
X144610966Y-100014617D01*
X144610966Y-100018064D01*
X144612115Y-100020362D01*
X144613264Y-100021511D01*
X144615562Y-100022660D01*
X144624755Y-100022660D01*
X144604072Y-100010021D02*
X144590283Y-100010021D01*
X144597178Y-100034151D02*
X144597178Y-100010021D01*
X144568451Y-100034151D02*
X144576495Y-100022660D01*
X144582240Y-100034151D02*
X144582240Y-100010021D01*
X144573047Y-100010021D01*
X144570749Y-100011170D01*
X144569600Y-100012319D01*
X144568451Y-100014617D01*
X144568451Y-100018064D01*
X144569600Y-100020362D01*
X144570749Y-100021511D01*
X144573047Y-100022660D01*
X144582240Y-100022660D01*
X144545470Y-100034151D02*
X144559259Y-100034151D01*
X144552365Y-100034151D02*
X144552365Y-100010021D01*
X144554663Y-100013468D01*
X144556961Y-100015766D01*
X144559259Y-100016915D01*
X144538576Y-100010021D02*
X144524787Y-100010021D01*
X144531682Y-100034151D02*
X144531682Y-100010021D01*
X144516744Y-100034151D02*
X144516744Y-100010021D01*
X144507551Y-100010021D01*
X144505253Y-100011170D01*
X144504104Y-100012319D01*
X144502955Y-100014617D01*
X144502955Y-100018064D01*
X144504104Y-100020362D01*
X144505253Y-100021511D01*
X144507551Y-100022660D01*
X144516744Y-100022660D01*
X144479974Y-100034151D02*
X144493763Y-100034151D01*
X144486869Y-100034151D02*
X144486869Y-100010021D01*
X144489167Y-100013468D01*
X144491465Y-100015766D01*
X144493763Y-100016915D01*
X144456993Y-100034151D02*
X144470782Y-100034151D01*
X144463888Y-100034151D02*
X144463888Y-100010021D01*
X144466186Y-100013468D01*
X144468484Y-100015766D01*
X144470782Y-100016915D01*
X144432863Y-100034151D02*
X144440907Y-100022660D01*
X144446652Y-100034151D02*
X144446652Y-100010021D01*
X144437459Y-100010021D01*
X144435161Y-100011170D01*
X144434012Y-100012319D01*
X144432863Y-100014617D01*
X144432863Y-100018064D01*
X144434012Y-100020362D01*
X144435161Y-100021511D01*
X144437459Y-100022660D01*
X144446652Y-100022660D01*
D11*
X143599814Y-98317148D02*
X144174338Y-98317148D01*
X144174338Y-97110648D01*
X143484910Y-98432052D02*
X142565672Y-98432052D01*
X141588982Y-98202243D02*
X141646434Y-98259695D01*
X141818791Y-98317148D01*
X141933696Y-98317148D01*
X142106053Y-98259695D01*
X142220958Y-98144790D01*
X142278410Y-98029886D01*
X142335862Y-97800076D01*
X142335862Y-97627719D01*
X142278410Y-97397910D01*
X142220958Y-97283005D01*
X142106053Y-97168100D01*
X141933696Y-97110648D01*
X141818791Y-97110648D01*
X141646434Y-97168100D01*
X141588982Y-97225552D01*
X141129362Y-97225552D02*
X141071910Y-97168100D01*
X140957005Y-97110648D01*
X140669743Y-97110648D01*
X140554839Y-97168100D01*
X140497386Y-97225552D01*
X140439934Y-97340457D01*
X140439934Y-97455362D01*
X140497386Y-97627719D01*
X141186815Y-98317148D01*
X140439934Y-98317148D01*
X140210124Y-98432052D02*
X139290886Y-98432052D01*
X138314196Y-98202243D02*
X138371648Y-98259695D01*
X138544005Y-98317148D01*
X138658910Y-98317148D01*
X138831267Y-98259695D01*
X138946172Y-98144790D01*
X139003624Y-98029886D01*
X139061076Y-97800076D01*
X139061076Y-97627719D01*
X139003624Y-97397910D01*
X138946172Y-97283005D01*
X138831267Y-97168100D01*
X138658910Y-97110648D01*
X138544005Y-97110648D01*
X138371648Y-97168100D01*
X138314196Y-97225552D01*
X137280053Y-97512814D02*
X137280053Y-98317148D01*
X137567315Y-97053195D02*
X137854576Y-97914981D01*
X137107696Y-97914981D01*
D12*
X144497755Y-97265551D02*
X144497755Y-97241421D01*
X144488562Y-97241421D01*
X144486264Y-97242570D01*
X144485115Y-97243719D01*
X144483966Y-97246017D01*
X144483966Y-97249464D01*
X144485115Y-97251762D01*
X144486264Y-97252911D01*
X144488562Y-97254060D01*
X144497755Y-97254060D01*
X144477072Y-97241421D02*
X144463283Y-97241421D01*
X144470178Y-97265551D02*
X144470178Y-97241421D01*
X144441451Y-97265551D02*
X144449495Y-97254060D01*
X144455240Y-97265551D02*
X144455240Y-97241421D01*
X144446047Y-97241421D01*
X144443749Y-97242570D01*
X144442600Y-97243719D01*
X144441451Y-97246017D01*
X144441451Y-97249464D01*
X144442600Y-97251762D01*
X144443749Y-97252911D01*
X144446047Y-97254060D01*
X144455240Y-97254060D01*
X144418470Y-97265551D02*
X144432259Y-97265551D01*
X144425365Y-97265551D02*
X144425365Y-97241421D01*
X144427663Y-97244868D01*
X144429961Y-97247166D01*
X144432259Y-97248315D01*
X144411576Y-97241421D02*
X144397787Y-97241421D01*
X144404682Y-97265551D02*
X144404682Y-97241421D01*
X144389744Y-97265551D02*
X144389744Y-97241421D01*
X144380551Y-97241421D01*
X144378253Y-97242570D01*
X144377104Y-97243719D01*
X144375955Y-97246017D01*
X144375955Y-97249464D01*
X144377104Y-97251762D01*
X144378253Y-97252911D01*
X144380551Y-97254060D01*
X144389744Y-97254060D01*
X144352974Y-97265551D02*
X144366763Y-97265551D01*
X144359869Y-97265551D02*
X144359869Y-97241421D01*
X144362167Y-97244868D01*
X144364465Y-97247166D01*
X144366763Y-97248315D01*
X144329993Y-97265551D02*
X144343782Y-97265551D01*
X144336888Y-97265551D02*
X144336888Y-97241421D01*
X144339186Y-97244868D01*
X144341484Y-97247166D01*
X144343782Y-97248315D01*
X144305863Y-97265551D02*
X144313907Y-97254060D01*
X144319652Y-97265551D02*
X144319652Y-97241421D01*
X144310459Y-97241421D01*
X144308161Y-97242570D01*
X144307012Y-97243719D01*
X144305863Y-97246017D01*
X144305863Y-97249464D01*
X144307012Y-97251762D01*
X144308161Y-97252911D01*
X144310459Y-97254060D01*
X144319652Y-97254060D01*
D11*
X144225138Y-111652148D02*
X144225138Y-110445648D01*
X143822971Y-111307433D01*
X143420805Y-110445648D01*
X143420805Y-111652148D01*
X142846281Y-111020171D02*
X142444114Y-111020171D01*
X142271757Y-111652148D02*
X142846281Y-111652148D01*
X142846281Y-110445648D01*
X142271757Y-110445648D01*
X141065258Y-111537243D02*
X141122710Y-111594695D01*
X141295067Y-111652148D01*
X141409972Y-111652148D01*
X141582329Y-111594695D01*
X141697234Y-111479790D01*
X141754686Y-111364886D01*
X141812138Y-111135076D01*
X141812138Y-110962719D01*
X141754686Y-110732910D01*
X141697234Y-110618005D01*
X141582329Y-110503100D01*
X141409972Y-110445648D01*
X141295067Y-110445648D01*
X141122710Y-110503100D01*
X141065258Y-110560552D01*
X140548186Y-111652148D02*
X140548186Y-110445648D01*
X140548186Y-111020171D02*
X139858758Y-111020171D01*
X139858758Y-111652148D02*
X139858758Y-110445648D01*
X139571496Y-111767052D02*
X138652258Y-111767052D01*
X137790472Y-111652148D02*
X138364996Y-111652148D01*
X138364996Y-110445648D01*
X137388306Y-111652148D02*
X137388306Y-110445648D01*
X136813782Y-111652148D02*
X136813782Y-110445648D01*
X136124354Y-111652148D01*
X136124354Y-110445648D01*
X135549830Y-111652148D02*
X135549830Y-110445648D01*
X134860402Y-111652148D02*
X135377473Y-110962719D01*
X134860402Y-110445648D02*
X135549830Y-111135076D01*
X134630592Y-111767052D02*
X133711354Y-111767052D01*
X133538997Y-110445648D02*
X132734664Y-110445648D01*
X133251735Y-111652148D01*
D12*
X144548555Y-110600551D02*
X144548555Y-110576421D01*
X144539362Y-110576421D01*
X144537064Y-110577570D01*
X144535915Y-110578719D01*
X144534766Y-110581017D01*
X144534766Y-110584464D01*
X144535915Y-110586762D01*
X144537064Y-110587911D01*
X144539362Y-110589060D01*
X144548555Y-110589060D01*
X144527872Y-110576421D02*
X144514083Y-110576421D01*
X144520978Y-110600551D02*
X144520978Y-110576421D01*
X144492251Y-110600551D02*
X144500295Y-110589060D01*
X144506040Y-110600551D02*
X144506040Y-110576421D01*
X144496847Y-110576421D01*
X144494549Y-110577570D01*
X144493400Y-110578719D01*
X144492251Y-110581017D01*
X144492251Y-110584464D01*
X144493400Y-110586762D01*
X144494549Y-110587911D01*
X144496847Y-110589060D01*
X144506040Y-110589060D01*
X144469270Y-110600551D02*
X144483059Y-110600551D01*
X144476165Y-110600551D02*
X144476165Y-110576421D01*
X144478463Y-110579868D01*
X144480761Y-110582166D01*
X144483059Y-110583315D01*
X144462376Y-110576421D02*
X144448587Y-110576421D01*
X144455482Y-110600551D02*
X144455482Y-110576421D01*
X144440544Y-110600551D02*
X144440544Y-110576421D01*
X144431351Y-110576421D01*
X144429053Y-110577570D01*
X144427904Y-110578719D01*
X144426755Y-110581017D01*
X144426755Y-110584464D01*
X144427904Y-110586762D01*
X144429053Y-110587911D01*
X144431351Y-110589060D01*
X144440544Y-110589060D01*
X144403774Y-110600551D02*
X144417563Y-110600551D01*
X144410669Y-110600551D02*
X144410669Y-110576421D01*
X144412967Y-110579868D01*
X144415265Y-110582166D01*
X144417563Y-110583315D01*
X144380793Y-110600551D02*
X144394582Y-110600551D01*
X144387688Y-110600551D02*
X144387688Y-110576421D01*
X144389986Y-110579868D01*
X144392284Y-110582166D01*
X144394582Y-110583315D01*
X144356663Y-110600551D02*
X144364707Y-110589060D01*
X144370452Y-110600551D02*
X144370452Y-110576421D01*
X144361259Y-110576421D01*
X144358961Y-110577570D01*
X144357812Y-110578719D01*
X144356663Y-110581017D01*
X144356663Y-110584464D01*
X144357812Y-110586762D01*
X144358961Y-110587911D01*
X144361259Y-110589060D01*
X144370452Y-110589060D01*
D11*
X144199738Y-87039548D02*
X144199738Y-85833048D01*
X143797571Y-86694833D01*
X143395405Y-85833048D01*
X143395405Y-87039548D01*
X142820881Y-86407571D02*
X142418714Y-86407571D01*
X142246357Y-87039548D02*
X142820881Y-87039548D01*
X142820881Y-85833048D01*
X142246357Y-85833048D01*
X141039858Y-86924643D02*
X141097310Y-86982095D01*
X141269667Y-87039548D01*
X141384572Y-87039548D01*
X141556929Y-86982095D01*
X141671834Y-86867190D01*
X141729286Y-86752286D01*
X141786738Y-86522476D01*
X141786738Y-86350119D01*
X141729286Y-86120310D01*
X141671834Y-86005405D01*
X141556929Y-85890500D01*
X141384572Y-85833048D01*
X141269667Y-85833048D01*
X141097310Y-85890500D01*
X141039858Y-85947952D01*
X140522786Y-87039548D02*
X140522786Y-85833048D01*
X140522786Y-86407571D02*
X139833358Y-86407571D01*
X139833358Y-87039548D02*
X139833358Y-85833048D01*
X139546096Y-87154452D02*
X138626858Y-87154452D01*
X137765072Y-87039548D02*
X138339596Y-87039548D01*
X138339596Y-85833048D01*
X137362906Y-87039548D02*
X137362906Y-85833048D01*
X136788382Y-87039548D02*
X136788382Y-85833048D01*
X136098954Y-87039548D01*
X136098954Y-85833048D01*
X135524430Y-87039548D02*
X135524430Y-85833048D01*
X134835002Y-87039548D02*
X135352073Y-86350119D01*
X134835002Y-85833048D02*
X135524430Y-86522476D01*
X134605192Y-87154452D02*
X133685954Y-87154452D01*
X132766716Y-87039548D02*
X133456144Y-87039548D01*
X133111430Y-87039548D02*
X133111430Y-85833048D01*
X133226335Y-86005405D01*
X133341240Y-86120310D01*
X133456144Y-86177762D01*
X131617668Y-87039548D02*
X132307096Y-87039548D01*
X131962382Y-87039548D02*
X131962382Y-85833048D01*
X132077287Y-86005405D01*
X132192192Y-86120310D01*
X132307096Y-86177762D01*
D12*
X144523155Y-85987951D02*
X144523155Y-85963821D01*
X144513962Y-85963821D01*
X144511664Y-85964970D01*
X144510515Y-85966119D01*
X144509366Y-85968417D01*
X144509366Y-85971864D01*
X144510515Y-85974162D01*
X144511664Y-85975311D01*
X144513962Y-85976460D01*
X144523155Y-85976460D01*
X144502472Y-85963821D02*
X144488683Y-85963821D01*
X144495578Y-85987951D02*
X144495578Y-85963821D01*
X144466851Y-85987951D02*
X144474895Y-85976460D01*
X144480640Y-85987951D02*
X144480640Y-85963821D01*
X144471447Y-85963821D01*
X144469149Y-85964970D01*
X144468000Y-85966119D01*
X144466851Y-85968417D01*
X144466851Y-85971864D01*
X144468000Y-85974162D01*
X144469149Y-85975311D01*
X144471447Y-85976460D01*
X144480640Y-85976460D01*
X144443870Y-85987951D02*
X144457659Y-85987951D01*
X144450765Y-85987951D02*
X144450765Y-85963821D01*
X144453063Y-85967268D01*
X144455361Y-85969566D01*
X144457659Y-85970715D01*
X144436976Y-85963821D02*
X144423187Y-85963821D01*
X144430082Y-85987951D02*
X144430082Y-85963821D01*
X144415144Y-85987951D02*
X144415144Y-85963821D01*
X144405951Y-85963821D01*
X144403653Y-85964970D01*
X144402504Y-85966119D01*
X144401355Y-85968417D01*
X144401355Y-85971864D01*
X144402504Y-85974162D01*
X144403653Y-85975311D01*
X144405951Y-85976460D01*
X144415144Y-85976460D01*
X144378374Y-85987951D02*
X144392163Y-85987951D01*
X144385269Y-85987951D02*
X144385269Y-85963821D01*
X144387567Y-85967268D01*
X144389865Y-85969566D01*
X144392163Y-85970715D01*
X144355393Y-85987951D02*
X144369182Y-85987951D01*
X144362288Y-85987951D02*
X144362288Y-85963821D01*
X144364586Y-85967268D01*
X144366884Y-85969566D01*
X144369182Y-85970715D01*
X144331263Y-85987951D02*
X144339307Y-85976460D01*
X144345052Y-85987951D02*
X144345052Y-85963821D01*
X144335859Y-85963821D01*
X144333561Y-85964970D01*
X144332412Y-85966119D01*
X144331263Y-85968417D01*
X144331263Y-85971864D01*
X144332412Y-85974162D01*
X144333561Y-85975311D01*
X144335859Y-85976460D01*
X144345052Y-85976460D01*
D11*
X144174338Y-103752748D02*
X144174338Y-102546248D01*
X143772171Y-103408033D01*
X143370005Y-102546248D01*
X143370005Y-103752748D01*
X142795481Y-103120771D02*
X142393314Y-103120771D01*
X142220957Y-103752748D02*
X142795481Y-103752748D01*
X142795481Y-102546248D01*
X142220957Y-102546248D01*
X141014458Y-103637843D02*
X141071910Y-103695295D01*
X141244267Y-103752748D01*
X141359172Y-103752748D01*
X141531529Y-103695295D01*
X141646434Y-103580390D01*
X141703886Y-103465486D01*
X141761338Y-103235676D01*
X141761338Y-103063319D01*
X141703886Y-102833510D01*
X141646434Y-102718605D01*
X141531529Y-102603700D01*
X141359172Y-102546248D01*
X141244267Y-102546248D01*
X141071910Y-102603700D01*
X141014458Y-102661152D01*
X140497386Y-103752748D02*
X140497386Y-102546248D01*
X140497386Y-103120771D02*
X139807958Y-103120771D01*
X139807958Y-103752748D02*
X139807958Y-102546248D01*
X139520696Y-103867652D02*
X138601458Y-103867652D01*
X137739672Y-103752748D02*
X138314196Y-103752748D01*
X138314196Y-102546248D01*
X137337506Y-103752748D02*
X137337506Y-102546248D01*
X136762982Y-103752748D02*
X136762982Y-102546248D01*
X136073554Y-103752748D01*
X136073554Y-102546248D01*
X135499030Y-103752748D02*
X135499030Y-102546248D01*
X134809602Y-103752748D02*
X135326673Y-103063319D01*
X134809602Y-102546248D02*
X135499030Y-103235676D01*
X134579792Y-103867652D02*
X133660554Y-103867652D01*
X133200935Y-103063319D02*
X133315840Y-103005867D01*
X133373292Y-102948414D01*
X133430744Y-102833510D01*
X133430744Y-102776057D01*
X133373292Y-102661152D01*
X133315840Y-102603700D01*
X133200935Y-102546248D01*
X132971125Y-102546248D01*
X132856221Y-102603700D01*
X132798768Y-102661152D01*
X132741316Y-102776057D01*
X132741316Y-102833510D01*
X132798768Y-102948414D01*
X132856221Y-103005867D01*
X132971125Y-103063319D01*
X133200935Y-103063319D01*
X133315840Y-103120771D01*
X133373292Y-103178224D01*
X133430744Y-103293129D01*
X133430744Y-103522938D01*
X133373292Y-103637843D01*
X133315840Y-103695295D01*
X133200935Y-103752748D01*
X132971125Y-103752748D01*
X132856221Y-103695295D01*
X132798768Y-103637843D01*
X132741316Y-103522938D01*
X132741316Y-103293129D01*
X132798768Y-103178224D01*
X132856221Y-103120771D01*
X132971125Y-103063319D01*
D12*
X144497755Y-102701151D02*
X144497755Y-102677021D01*
X144488562Y-102677021D01*
X144486264Y-102678170D01*
X144485115Y-102679319D01*
X144483966Y-102681617D01*
X144483966Y-102685064D01*
X144485115Y-102687362D01*
X144486264Y-102688511D01*
X144488562Y-102689660D01*
X144497755Y-102689660D01*
X144477072Y-102677021D02*
X144463283Y-102677021D01*
X144470178Y-102701151D02*
X144470178Y-102677021D01*
X144441451Y-102701151D02*
X144449495Y-102689660D01*
X144455240Y-102701151D02*
X144455240Y-102677021D01*
X144446047Y-102677021D01*
X144443749Y-102678170D01*
X144442600Y-102679319D01*
X144441451Y-102681617D01*
X144441451Y-102685064D01*
X144442600Y-102687362D01*
X144443749Y-102688511D01*
X144446047Y-102689660D01*
X144455240Y-102689660D01*
X144418470Y-102701151D02*
X144432259Y-102701151D01*
X144425365Y-102701151D02*
X144425365Y-102677021D01*
X144427663Y-102680468D01*
X144429961Y-102682766D01*
X144432259Y-102683915D01*
X144411576Y-102677021D02*
X144397787Y-102677021D01*
X144404682Y-102701151D02*
X144404682Y-102677021D01*
X144389744Y-102701151D02*
X144389744Y-102677021D01*
X144380551Y-102677021D01*
X144378253Y-102678170D01*
X144377104Y-102679319D01*
X144375955Y-102681617D01*
X144375955Y-102685064D01*
X144377104Y-102687362D01*
X144378253Y-102688511D01*
X144380551Y-102689660D01*
X144389744Y-102689660D01*
X144352974Y-102701151D02*
X144366763Y-102701151D01*
X144359869Y-102701151D02*
X144359869Y-102677021D01*
X144362167Y-102680468D01*
X144364465Y-102682766D01*
X144366763Y-102683915D01*
X144329993Y-102701151D02*
X144343782Y-102701151D01*
X144336888Y-102701151D02*
X144336888Y-102677021D01*
X144339186Y-102680468D01*
X144341484Y-102682766D01*
X144343782Y-102683915D01*
X144305863Y-102701151D02*
X144313907Y-102689660D01*
X144319652Y-102701151D02*
X144319652Y-102677021D01*
X144310459Y-102677021D01*
X144308161Y-102678170D01*
X144307012Y-102679319D01*
X144305863Y-102681617D01*
X144305863Y-102685064D01*
X144307012Y-102687362D01*
X144308161Y-102688511D01*
X144310459Y-102689660D01*
X144319652Y-102689660D01*
D11*
X144199738Y-95650148D02*
X144199738Y-94443648D01*
X143797571Y-95305433D01*
X143395405Y-94443648D01*
X143395405Y-95650148D01*
X142820881Y-95018171D02*
X142418714Y-95018171D01*
X142246357Y-95650148D02*
X142820881Y-95650148D01*
X142820881Y-94443648D01*
X142246357Y-94443648D01*
X141039858Y-95535243D02*
X141097310Y-95592695D01*
X141269667Y-95650148D01*
X141384572Y-95650148D01*
X141556929Y-95592695D01*
X141671834Y-95477790D01*
X141729286Y-95362886D01*
X141786738Y-95133076D01*
X141786738Y-94960719D01*
X141729286Y-94730910D01*
X141671834Y-94616005D01*
X141556929Y-94501100D01*
X141384572Y-94443648D01*
X141269667Y-94443648D01*
X141097310Y-94501100D01*
X141039858Y-94558552D01*
X140522786Y-95650148D02*
X140522786Y-94443648D01*
X140522786Y-95018171D02*
X139833358Y-95018171D01*
X139833358Y-95650148D02*
X139833358Y-94443648D01*
X139546096Y-95765052D02*
X138626858Y-95765052D01*
X137765072Y-95650148D02*
X138339596Y-95650148D01*
X138339596Y-94443648D01*
X137362906Y-95650148D02*
X137362906Y-94443648D01*
X136788382Y-95650148D02*
X136788382Y-94443648D01*
X136098954Y-95650148D01*
X136098954Y-94443648D01*
X135524430Y-95650148D02*
X135524430Y-94443648D01*
X134835002Y-95650148D02*
X135352073Y-94960719D01*
X134835002Y-94443648D02*
X135524430Y-95133076D01*
X134605192Y-95765052D02*
X133685954Y-95765052D01*
X133341240Y-95650148D02*
X133111430Y-95650148D01*
X132996525Y-95592695D01*
X132939073Y-95535243D01*
X132824168Y-95362886D01*
X132766716Y-95133076D01*
X132766716Y-94673457D01*
X132824168Y-94558552D01*
X132881621Y-94501100D01*
X132996525Y-94443648D01*
X133226335Y-94443648D01*
X133341240Y-94501100D01*
X133398692Y-94558552D01*
X133456144Y-94673457D01*
X133456144Y-94960719D01*
X133398692Y-95075624D01*
X133341240Y-95133076D01*
X133226335Y-95190529D01*
X132996525Y-95190529D01*
X132881621Y-95133076D01*
X132824168Y-95075624D01*
X132766716Y-94960719D01*
D12*
X144523155Y-94598551D02*
X144523155Y-94574421D01*
X144513962Y-94574421D01*
X144511664Y-94575570D01*
X144510515Y-94576719D01*
X144509366Y-94579017D01*
X144509366Y-94582464D01*
X144510515Y-94584762D01*
X144511664Y-94585911D01*
X144513962Y-94587060D01*
X144523155Y-94587060D01*
X144502472Y-94574421D02*
X144488683Y-94574421D01*
X144495578Y-94598551D02*
X144495578Y-94574421D01*
X144466851Y-94598551D02*
X144474895Y-94587060D01*
X144480640Y-94598551D02*
X144480640Y-94574421D01*
X144471447Y-94574421D01*
X144469149Y-94575570D01*
X144468000Y-94576719D01*
X144466851Y-94579017D01*
X144466851Y-94582464D01*
X144468000Y-94584762D01*
X144469149Y-94585911D01*
X144471447Y-94587060D01*
X144480640Y-94587060D01*
X144443870Y-94598551D02*
X144457659Y-94598551D01*
X144450765Y-94598551D02*
X144450765Y-94574421D01*
X144453063Y-94577868D01*
X144455361Y-94580166D01*
X144457659Y-94581315D01*
X144436976Y-94574421D02*
X144423187Y-94574421D01*
X144430082Y-94598551D02*
X144430082Y-94574421D01*
X144415144Y-94598551D02*
X144415144Y-94574421D01*
X144405951Y-94574421D01*
X144403653Y-94575570D01*
X144402504Y-94576719D01*
X144401355Y-94579017D01*
X144401355Y-94582464D01*
X144402504Y-94584762D01*
X144403653Y-94585911D01*
X144405951Y-94587060D01*
X144415144Y-94587060D01*
X144378374Y-94598551D02*
X144392163Y-94598551D01*
X144385269Y-94598551D02*
X144385269Y-94574421D01*
X144387567Y-94577868D01*
X144389865Y-94580166D01*
X144392163Y-94581315D01*
X144355393Y-94598551D02*
X144369182Y-94598551D01*
X144362288Y-94598551D02*
X144362288Y-94574421D01*
X144364586Y-94577868D01*
X144366884Y-94580166D01*
X144369182Y-94581315D01*
X144331263Y-94598551D02*
X144339307Y-94587060D01*
X144345052Y-94598551D02*
X144345052Y-94574421D01*
X144335859Y-94574421D01*
X144333561Y-94575570D01*
X144332412Y-94576719D01*
X144331263Y-94579017D01*
X144331263Y-94582464D01*
X144332412Y-94584762D01*
X144333561Y-94585911D01*
X144335859Y-94587060D01*
X144345052Y-94587060D01*
D11*
X144257190Y-92798695D02*
X144084833Y-92856148D01*
X143797571Y-92856148D01*
X143682667Y-92798695D01*
X143625214Y-92741243D01*
X143567762Y-92626338D01*
X143567762Y-92511433D01*
X143625214Y-92396529D01*
X143682667Y-92339076D01*
X143797571Y-92281624D01*
X144027381Y-92224171D01*
X144142286Y-92166719D01*
X144199738Y-92109267D01*
X144257190Y-91994362D01*
X144257190Y-91879457D01*
X144199738Y-91764552D01*
X144142286Y-91707100D01*
X144027381Y-91649648D01*
X143740119Y-91649648D01*
X143567762Y-91707100D01*
X142361262Y-92741243D02*
X142418714Y-92798695D01*
X142591071Y-92856148D01*
X142705976Y-92856148D01*
X142878333Y-92798695D01*
X142993238Y-92683790D01*
X143050690Y-92568886D01*
X143108142Y-92339076D01*
X143108142Y-92166719D01*
X143050690Y-91936910D01*
X142993238Y-91822005D01*
X142878333Y-91707100D01*
X142705976Y-91649648D01*
X142591071Y-91649648D01*
X142418714Y-91707100D01*
X142361262Y-91764552D01*
X141269666Y-92856148D02*
X141844190Y-92856148D01*
X141844190Y-91649648D01*
X141154762Y-92971052D02*
X140235524Y-92971052D01*
X140005714Y-92798695D02*
X139833357Y-92856148D01*
X139546095Y-92856148D01*
X139431191Y-92798695D01*
X139373738Y-92741243D01*
X139316286Y-92626338D01*
X139316286Y-92511433D01*
X139373738Y-92396529D01*
X139431191Y-92339076D01*
X139546095Y-92281624D01*
X139775905Y-92224171D01*
X139890810Y-92166719D01*
X139948262Y-92109267D01*
X140005714Y-91994362D01*
X140005714Y-91879457D01*
X139948262Y-91764552D01*
X139890810Y-91707100D01*
X139775905Y-91649648D01*
X139488643Y-91649648D01*
X139316286Y-91707100D01*
X138914119Y-91649648D02*
X138167238Y-91649648D01*
X138569405Y-92109267D01*
X138397047Y-92109267D01*
X138282143Y-92166719D01*
X138224690Y-92224171D01*
X138167238Y-92339076D01*
X138167238Y-92626338D01*
X138224690Y-92741243D01*
X138282143Y-92798695D01*
X138397047Y-92856148D01*
X138741762Y-92856148D01*
X138856666Y-92798695D01*
X138914119Y-92741243D01*
X137937428Y-92971052D02*
X137018190Y-92971052D01*
X136041500Y-92741243D02*
X136098952Y-92798695D01*
X136271309Y-92856148D01*
X136386214Y-92856148D01*
X136558571Y-92798695D01*
X136673476Y-92683790D01*
X136730928Y-92568886D01*
X136788380Y-92339076D01*
X136788380Y-92166719D01*
X136730928Y-91936910D01*
X136673476Y-91822005D01*
X136558571Y-91707100D01*
X136386214Y-91649648D01*
X136271309Y-91649648D01*
X136098952Y-91707100D01*
X136041500Y-91764552D01*
X135639333Y-91649648D02*
X134892452Y-91649648D01*
X135294619Y-92109267D01*
X135122261Y-92109267D01*
X135007357Y-92166719D01*
X134949904Y-92224171D01*
X134892452Y-92339076D01*
X134892452Y-92626338D01*
X134949904Y-92741243D01*
X135007357Y-92798695D01*
X135122261Y-92856148D01*
X135466976Y-92856148D01*
X135581880Y-92798695D01*
X135639333Y-92741243D01*
X134662642Y-92971052D02*
X133743404Y-92971052D01*
X132766714Y-92741243D02*
X132824166Y-92798695D01*
X132996523Y-92856148D01*
X133111428Y-92856148D01*
X133283785Y-92798695D01*
X133398690Y-92683790D01*
X133456142Y-92568886D01*
X133513594Y-92339076D01*
X133513594Y-92166719D01*
X133456142Y-91936910D01*
X133398690Y-91822005D01*
X133283785Y-91707100D01*
X133111428Y-91649648D01*
X132996523Y-91649648D01*
X132824166Y-91707100D01*
X132766714Y-91764552D01*
X132307094Y-91764552D02*
X132249642Y-91707100D01*
X132134737Y-91649648D01*
X131847475Y-91649648D01*
X131732571Y-91707100D01*
X131675118Y-91764552D01*
X131617666Y-91879457D01*
X131617666Y-91994362D01*
X131675118Y-92166719D01*
X132364547Y-92856148D01*
X131617666Y-92856148D01*
D12*
X144523155Y-91804551D02*
X144523155Y-91780421D01*
X144513962Y-91780421D01*
X144511664Y-91781570D01*
X144510515Y-91782719D01*
X144509366Y-91785017D01*
X144509366Y-91788464D01*
X144510515Y-91790762D01*
X144511664Y-91791911D01*
X144513962Y-91793060D01*
X144523155Y-91793060D01*
X144502472Y-91780421D02*
X144488683Y-91780421D01*
X144495578Y-91804551D02*
X144495578Y-91780421D01*
X144466851Y-91804551D02*
X144474895Y-91793060D01*
X144480640Y-91804551D02*
X144480640Y-91780421D01*
X144471447Y-91780421D01*
X144469149Y-91781570D01*
X144468000Y-91782719D01*
X144466851Y-91785017D01*
X144466851Y-91788464D01*
X144468000Y-91790762D01*
X144469149Y-91791911D01*
X144471447Y-91793060D01*
X144480640Y-91793060D01*
X144443870Y-91804551D02*
X144457659Y-91804551D01*
X144450765Y-91804551D02*
X144450765Y-91780421D01*
X144453063Y-91783868D01*
X144455361Y-91786166D01*
X144457659Y-91787315D01*
X144436976Y-91780421D02*
X144423187Y-91780421D01*
X144430082Y-91804551D02*
X144430082Y-91780421D01*
X144415144Y-91804551D02*
X144415144Y-91780421D01*
X144405951Y-91780421D01*
X144403653Y-91781570D01*
X144402504Y-91782719D01*
X144401355Y-91785017D01*
X144401355Y-91788464D01*
X144402504Y-91790762D01*
X144403653Y-91791911D01*
X144405951Y-91793060D01*
X144415144Y-91793060D01*
X144378374Y-91804551D02*
X144392163Y-91804551D01*
X144385269Y-91804551D02*
X144385269Y-91780421D01*
X144387567Y-91783868D01*
X144389865Y-91786166D01*
X144392163Y-91787315D01*
X144355393Y-91804551D02*
X144369182Y-91804551D01*
X144362288Y-91804551D02*
X144362288Y-91780421D01*
X144364586Y-91783868D01*
X144366884Y-91786166D01*
X144369182Y-91787315D01*
X144331263Y-91804551D02*
X144339307Y-91793060D01*
X144345052Y-91804551D02*
X144345052Y-91780421D01*
X144335859Y-91780421D01*
X144333561Y-91781570D01*
X144332412Y-91782719D01*
X144331263Y-91785017D01*
X144331263Y-91788464D01*
X144332412Y-91790762D01*
X144333561Y-91791911D01*
X144335859Y-91793060D01*
X144345052Y-91793060D01*
D11*
X144282590Y-108902295D02*
X144110233Y-108959748D01*
X143822971Y-108959748D01*
X143708067Y-108902295D01*
X143650614Y-108844843D01*
X143593162Y-108729938D01*
X143593162Y-108615033D01*
X143650614Y-108500129D01*
X143708067Y-108442676D01*
X143822971Y-108385224D01*
X144052781Y-108327771D01*
X144167686Y-108270319D01*
X144225138Y-108212867D01*
X144282590Y-108097962D01*
X144282590Y-107983057D01*
X144225138Y-107868152D01*
X144167686Y-107810700D01*
X144052781Y-107753248D01*
X143765519Y-107753248D01*
X143593162Y-107810700D01*
X142386662Y-108844843D02*
X142444114Y-108902295D01*
X142616471Y-108959748D01*
X142731376Y-108959748D01*
X142903733Y-108902295D01*
X143018638Y-108787390D01*
X143076090Y-108672486D01*
X143133542Y-108442676D01*
X143133542Y-108270319D01*
X143076090Y-108040510D01*
X143018638Y-107925605D01*
X142903733Y-107810700D01*
X142731376Y-107753248D01*
X142616471Y-107753248D01*
X142444114Y-107810700D01*
X142386662Y-107868152D01*
X141295066Y-108959748D02*
X141869590Y-108959748D01*
X141869590Y-107753248D01*
X141180162Y-109074652D02*
X140260924Y-109074652D01*
X140031114Y-108902295D02*
X139858757Y-108959748D01*
X139571495Y-108959748D01*
X139456591Y-108902295D01*
X139399138Y-108844843D01*
X139341686Y-108729938D01*
X139341686Y-108615033D01*
X139399138Y-108500129D01*
X139456591Y-108442676D01*
X139571495Y-108385224D01*
X139801305Y-108327771D01*
X139916210Y-108270319D01*
X139973662Y-108212867D01*
X140031114Y-108097962D01*
X140031114Y-107983057D01*
X139973662Y-107868152D01*
X139916210Y-107810700D01*
X139801305Y-107753248D01*
X139514043Y-107753248D01*
X139341686Y-107810700D01*
X138307543Y-108155414D02*
X138307543Y-108959748D01*
X138594805Y-107695795D02*
X138882066Y-108557581D01*
X138135186Y-108557581D01*
X137962828Y-109074652D02*
X137043590Y-109074652D01*
X136066900Y-108844843D02*
X136124352Y-108902295D01*
X136296709Y-108959748D01*
X136411614Y-108959748D01*
X136583971Y-108902295D01*
X136698876Y-108787390D01*
X136756328Y-108672486D01*
X136813780Y-108442676D01*
X136813780Y-108270319D01*
X136756328Y-108040510D01*
X136698876Y-107925605D01*
X136583971Y-107810700D01*
X136411614Y-107753248D01*
X136296709Y-107753248D01*
X136124352Y-107810700D01*
X136066900Y-107868152D01*
X135032757Y-108155414D02*
X135032757Y-108959748D01*
X135320019Y-107695795D02*
X135607280Y-108557581D01*
X134860400Y-108557581D01*
X134688042Y-109074652D02*
X133768804Y-109074652D01*
X132792114Y-108844843D02*
X132849566Y-108902295D01*
X133021923Y-108959748D01*
X133136828Y-108959748D01*
X133309185Y-108902295D01*
X133424090Y-108787390D01*
X133481542Y-108672486D01*
X133538994Y-108442676D01*
X133538994Y-108270319D01*
X133481542Y-108040510D01*
X133424090Y-107925605D01*
X133309185Y-107810700D01*
X133136828Y-107753248D01*
X133021923Y-107753248D01*
X132849566Y-107810700D01*
X132792114Y-107868152D01*
X132332494Y-107868152D02*
X132275042Y-107810700D01*
X132160137Y-107753248D01*
X131872875Y-107753248D01*
X131757971Y-107810700D01*
X131700518Y-107868152D01*
X131643066Y-107983057D01*
X131643066Y-108097962D01*
X131700518Y-108270319D01*
X132389947Y-108959748D01*
X131643066Y-108959748D01*
D12*
X144548555Y-107908151D02*
X144548555Y-107884021D01*
X144539362Y-107884021D01*
X144537064Y-107885170D01*
X144535915Y-107886319D01*
X144534766Y-107888617D01*
X144534766Y-107892064D01*
X144535915Y-107894362D01*
X144537064Y-107895511D01*
X144539362Y-107896660D01*
X144548555Y-107896660D01*
X144527872Y-107884021D02*
X144514083Y-107884021D01*
X144520978Y-107908151D02*
X144520978Y-107884021D01*
X144492251Y-107908151D02*
X144500295Y-107896660D01*
X144506040Y-107908151D02*
X144506040Y-107884021D01*
X144496847Y-107884021D01*
X144494549Y-107885170D01*
X144493400Y-107886319D01*
X144492251Y-107888617D01*
X144492251Y-107892064D01*
X144493400Y-107894362D01*
X144494549Y-107895511D01*
X144496847Y-107896660D01*
X144506040Y-107896660D01*
X144469270Y-107908151D02*
X144483059Y-107908151D01*
X144476165Y-107908151D02*
X144476165Y-107884021D01*
X144478463Y-107887468D01*
X144480761Y-107889766D01*
X144483059Y-107890915D01*
X144462376Y-107884021D02*
X144448587Y-107884021D01*
X144455482Y-107908151D02*
X144455482Y-107884021D01*
X144440544Y-107908151D02*
X144440544Y-107884021D01*
X144431351Y-107884021D01*
X144429053Y-107885170D01*
X144427904Y-107886319D01*
X144426755Y-107888617D01*
X144426755Y-107892064D01*
X144427904Y-107894362D01*
X144429053Y-107895511D01*
X144431351Y-107896660D01*
X144440544Y-107896660D01*
X144403774Y-107908151D02*
X144417563Y-107908151D01*
X144410669Y-107908151D02*
X144410669Y-107884021D01*
X144412967Y-107887468D01*
X144415265Y-107889766D01*
X144417563Y-107890915D01*
X144380793Y-107908151D02*
X144394582Y-107908151D01*
X144387688Y-107908151D02*
X144387688Y-107884021D01*
X144389986Y-107887468D01*
X144392284Y-107889766D01*
X144394582Y-107890915D01*
X144356663Y-107908151D02*
X144364707Y-107896660D01*
X144370452Y-107908151D02*
X144370452Y-107884021D01*
X144361259Y-107884021D01*
X144358961Y-107885170D01*
X144357812Y-107886319D01*
X144356663Y-107888617D01*
X144356663Y-107892064D01*
X144357812Y-107894362D01*
X144358961Y-107895511D01*
X144361259Y-107896660D01*
X144370452Y-107896660D01*
X129052802Y-88253821D02*
X129039013Y-88253821D01*
X129045908Y-88277951D02*
X129045908Y-88253821D01*
X129030970Y-88277951D02*
X129030970Y-88253821D01*
X129021777Y-88253821D01*
X129019479Y-88254970D01*
X129018330Y-88256119D01*
X129017181Y-88258417D01*
X129017181Y-88261864D01*
X129018330Y-88264162D01*
X129019479Y-88265311D01*
X129021777Y-88266460D01*
X129030970Y-88266460D01*
X128998796Y-88265311D02*
X128995349Y-88266460D01*
X128994200Y-88267610D01*
X128993051Y-88269908D01*
X128993051Y-88273355D01*
X128994200Y-88275653D01*
X128995349Y-88276802D01*
X128997647Y-88277951D01*
X129006840Y-88277951D01*
X129006840Y-88253821D01*
X128998796Y-88253821D01*
X128996498Y-88254970D01*
X128995349Y-88256119D01*
X128994200Y-88258417D01*
X128994200Y-88260715D01*
X128995349Y-88263013D01*
X128996498Y-88264162D01*
X128998796Y-88265311D01*
X129006840Y-88265311D01*
X128983859Y-88256119D02*
X128982710Y-88254970D01*
X128980412Y-88253821D01*
X128974666Y-88253821D01*
X128972368Y-88254970D01*
X128971219Y-88256119D01*
X128970070Y-88258417D01*
X128970070Y-88260715D01*
X128971219Y-88264162D01*
X128985008Y-88277951D01*
X128970070Y-88277951D01*
X128958580Y-88276802D02*
X128958580Y-88277951D01*
X128959729Y-88280249D01*
X128960878Y-88281398D01*
X128936748Y-88253821D02*
X128948239Y-88253821D01*
X128949388Y-88265311D01*
X128948239Y-88264162D01*
X128945941Y-88263013D01*
X128940195Y-88263013D01*
X128937897Y-88264162D01*
X128936748Y-88265311D01*
X128935599Y-88267610D01*
X128935599Y-88273355D01*
X128936748Y-88275653D01*
X128937897Y-88276802D01*
X128940195Y-88277951D01*
X128945941Y-88277951D01*
X128948239Y-88276802D01*
X128949388Y-88275653D01*
X128914916Y-88261864D02*
X128914916Y-88277951D01*
X128920662Y-88252672D02*
X128926407Y-88269908D01*
X128911469Y-88269908D01*
X105048802Y-88248821D02*
X105035013Y-88248821D01*
X105041908Y-88272951D02*
X105041908Y-88248821D01*
X105026970Y-88272951D02*
X105026970Y-88248821D01*
X105017777Y-88248821D01*
X105015479Y-88249970D01*
X105014330Y-88251119D01*
X105013181Y-88253417D01*
X105013181Y-88256864D01*
X105014330Y-88259162D01*
X105015479Y-88260311D01*
X105017777Y-88261460D01*
X105026970Y-88261460D01*
X104994796Y-88260311D02*
X104991349Y-88261460D01*
X104990200Y-88262610D01*
X104989051Y-88264908D01*
X104989051Y-88268355D01*
X104990200Y-88270653D01*
X104991349Y-88271802D01*
X104993647Y-88272951D01*
X105002840Y-88272951D01*
X105002840Y-88248821D01*
X104994796Y-88248821D01*
X104992498Y-88249970D01*
X104991349Y-88251119D01*
X104990200Y-88253417D01*
X104990200Y-88255715D01*
X104991349Y-88258013D01*
X104992498Y-88259162D01*
X104994796Y-88260311D01*
X105002840Y-88260311D01*
X104979859Y-88251119D02*
X104978710Y-88249970D01*
X104976412Y-88248821D01*
X104970666Y-88248821D01*
X104968368Y-88249970D01*
X104967219Y-88251119D01*
X104966070Y-88253417D01*
X104966070Y-88255715D01*
X104967219Y-88259162D01*
X104981008Y-88272951D01*
X104966070Y-88272951D01*
X104954580Y-88271802D02*
X104954580Y-88272951D01*
X104955729Y-88275249D01*
X104956878Y-88276398D01*
X104932748Y-88248821D02*
X104944239Y-88248821D01*
X104945388Y-88260311D01*
X104944239Y-88259162D01*
X104941941Y-88258013D01*
X104936195Y-88258013D01*
X104933897Y-88259162D01*
X104932748Y-88260311D01*
X104931599Y-88262610D01*
X104931599Y-88268355D01*
X104932748Y-88270653D01*
X104933897Y-88271802D01*
X104936195Y-88272951D01*
X104941941Y-88272951D01*
X104944239Y-88271802D01*
X104945388Y-88270653D01*
X104910916Y-88256864D02*
X104910916Y-88272951D01*
X104916662Y-88247672D02*
X104922407Y-88264908D01*
X104907469Y-88264908D01*
X128921802Y-112297821D02*
X128908013Y-112297821D01*
X128914908Y-112321951D02*
X128914908Y-112297821D01*
X128899970Y-112321951D02*
X128899970Y-112297821D01*
X128890777Y-112297821D01*
X128888479Y-112298970D01*
X128887330Y-112300119D01*
X128886181Y-112302417D01*
X128886181Y-112305864D01*
X128887330Y-112308162D01*
X128888479Y-112309311D01*
X128890777Y-112310460D01*
X128899970Y-112310460D01*
X128867796Y-112309311D02*
X128864349Y-112310460D01*
X128863200Y-112311610D01*
X128862051Y-112313908D01*
X128862051Y-112317355D01*
X128863200Y-112319653D01*
X128864349Y-112320802D01*
X128866647Y-112321951D01*
X128875840Y-112321951D01*
X128875840Y-112297821D01*
X128867796Y-112297821D01*
X128865498Y-112298970D01*
X128864349Y-112300119D01*
X128863200Y-112302417D01*
X128863200Y-112304715D01*
X128864349Y-112307013D01*
X128865498Y-112308162D01*
X128867796Y-112309311D01*
X128875840Y-112309311D01*
X128852859Y-112300119D02*
X128851710Y-112298970D01*
X128849412Y-112297821D01*
X128843666Y-112297821D01*
X128841368Y-112298970D01*
X128840219Y-112300119D01*
X128839070Y-112302417D01*
X128839070Y-112304715D01*
X128840219Y-112308162D01*
X128854008Y-112321951D01*
X128839070Y-112321951D01*
X128827580Y-112320802D02*
X128827580Y-112321951D01*
X128828729Y-112324249D01*
X128829878Y-112325398D01*
X128805748Y-112297821D02*
X128817239Y-112297821D01*
X128818388Y-112309311D01*
X128817239Y-112308162D01*
X128814941Y-112307013D01*
X128809195Y-112307013D01*
X128806897Y-112308162D01*
X128805748Y-112309311D01*
X128804599Y-112311610D01*
X128804599Y-112317355D01*
X128805748Y-112319653D01*
X128806897Y-112320802D01*
X128809195Y-112321951D01*
X128814941Y-112321951D01*
X128817239Y-112320802D01*
X128818388Y-112319653D01*
X128783916Y-112305864D02*
X128783916Y-112321951D01*
X128789662Y-112296672D02*
X128795407Y-112313908D01*
X128780469Y-112313908D01*
X104986802Y-112177821D02*
X104973013Y-112177821D01*
X104979908Y-112201951D02*
X104979908Y-112177821D01*
X104964970Y-112201951D02*
X104964970Y-112177821D01*
X104955777Y-112177821D01*
X104953479Y-112178970D01*
X104952330Y-112180119D01*
X104951181Y-112182417D01*
X104951181Y-112185864D01*
X104952330Y-112188162D01*
X104953479Y-112189311D01*
X104955777Y-112190460D01*
X104964970Y-112190460D01*
X104932796Y-112189311D02*
X104929349Y-112190460D01*
X104928200Y-112191610D01*
X104927051Y-112193908D01*
X104927051Y-112197355D01*
X104928200Y-112199653D01*
X104929349Y-112200802D01*
X104931647Y-112201951D01*
X104940840Y-112201951D01*
X104940840Y-112177821D01*
X104932796Y-112177821D01*
X104930498Y-112178970D01*
X104929349Y-112180119D01*
X104928200Y-112182417D01*
X104928200Y-112184715D01*
X104929349Y-112187013D01*
X104930498Y-112188162D01*
X104932796Y-112189311D01*
X104940840Y-112189311D01*
X104917859Y-112180119D02*
X104916710Y-112178970D01*
X104914412Y-112177821D01*
X104908666Y-112177821D01*
X104906368Y-112178970D01*
X104905219Y-112180119D01*
X104904070Y-112182417D01*
X104904070Y-112184715D01*
X104905219Y-112188162D01*
X104919008Y-112201951D01*
X104904070Y-112201951D01*
X104892580Y-112200802D02*
X104892580Y-112201951D01*
X104893729Y-112204249D01*
X104894878Y-112205398D01*
X104870748Y-112177821D02*
X104882239Y-112177821D01*
X104883388Y-112189311D01*
X104882239Y-112188162D01*
X104879941Y-112187013D01*
X104874195Y-112187013D01*
X104871897Y-112188162D01*
X104870748Y-112189311D01*
X104869599Y-112191610D01*
X104869599Y-112197355D01*
X104870748Y-112199653D01*
X104871897Y-112200802D01*
X104874195Y-112201951D01*
X104879941Y-112201951D01*
X104882239Y-112200802D01*
X104883388Y-112199653D01*
X104848916Y-112185864D02*
X104848916Y-112201951D01*
X104854662Y-112176672D02*
X104860407Y-112193908D01*
X104845469Y-112193908D01*
X125033802Y-92175821D02*
X125020013Y-92175821D01*
X125026908Y-92199951D02*
X125026908Y-92175821D01*
X125011970Y-92199951D02*
X125011970Y-92175821D01*
X125002777Y-92175821D01*
X125000479Y-92176970D01*
X124999330Y-92178119D01*
X124998181Y-92180417D01*
X124998181Y-92183864D01*
X124999330Y-92186162D01*
X125000479Y-92187311D01*
X125002777Y-92188460D01*
X125011970Y-92188460D01*
X124979796Y-92187311D02*
X124976349Y-92188460D01*
X124975200Y-92189610D01*
X124974051Y-92191908D01*
X124974051Y-92195355D01*
X124975200Y-92197653D01*
X124976349Y-92198802D01*
X124978647Y-92199951D01*
X124987840Y-92199951D01*
X124987840Y-92175821D01*
X124979796Y-92175821D01*
X124977498Y-92176970D01*
X124976349Y-92178119D01*
X124975200Y-92180417D01*
X124975200Y-92182715D01*
X124976349Y-92185013D01*
X124977498Y-92186162D01*
X124979796Y-92187311D01*
X124987840Y-92187311D01*
X124964859Y-92178119D02*
X124963710Y-92176970D01*
X124961412Y-92175821D01*
X124955666Y-92175821D01*
X124953368Y-92176970D01*
X124952219Y-92178119D01*
X124951070Y-92180417D01*
X124951070Y-92182715D01*
X124952219Y-92186162D01*
X124966008Y-92199951D01*
X124951070Y-92199951D01*
X124939580Y-92198802D02*
X124939580Y-92199951D01*
X124940729Y-92202249D01*
X124941878Y-92203398D01*
X124917748Y-92175821D02*
X124929239Y-92175821D01*
X124930388Y-92187311D01*
X124929239Y-92186162D01*
X124926941Y-92185013D01*
X124921195Y-92185013D01*
X124918897Y-92186162D01*
X124917748Y-92187311D01*
X124916599Y-92189610D01*
X124916599Y-92195355D01*
X124917748Y-92197653D01*
X124918897Y-92198802D01*
X124921195Y-92199951D01*
X124926941Y-92199951D01*
X124929239Y-92198802D01*
X124930388Y-92197653D01*
X124895916Y-92183864D02*
X124895916Y-92199951D01*
X124901662Y-92174672D02*
X124907407Y-92191908D01*
X124892469Y-92191908D01*
X109125802Y-92187821D02*
X109112013Y-92187821D01*
X109118908Y-92211951D02*
X109118908Y-92187821D01*
X109103970Y-92211951D02*
X109103970Y-92187821D01*
X109094777Y-92187821D01*
X109092479Y-92188970D01*
X109091330Y-92190119D01*
X109090181Y-92192417D01*
X109090181Y-92195864D01*
X109091330Y-92198162D01*
X109092479Y-92199311D01*
X109094777Y-92200460D01*
X109103970Y-92200460D01*
X109071796Y-92199311D02*
X109068349Y-92200460D01*
X109067200Y-92201610D01*
X109066051Y-92203908D01*
X109066051Y-92207355D01*
X109067200Y-92209653D01*
X109068349Y-92210802D01*
X109070647Y-92211951D01*
X109079840Y-92211951D01*
X109079840Y-92187821D01*
X109071796Y-92187821D01*
X109069498Y-92188970D01*
X109068349Y-92190119D01*
X109067200Y-92192417D01*
X109067200Y-92194715D01*
X109068349Y-92197013D01*
X109069498Y-92198162D01*
X109071796Y-92199311D01*
X109079840Y-92199311D01*
X109056859Y-92190119D02*
X109055710Y-92188970D01*
X109053412Y-92187821D01*
X109047666Y-92187821D01*
X109045368Y-92188970D01*
X109044219Y-92190119D01*
X109043070Y-92192417D01*
X109043070Y-92194715D01*
X109044219Y-92198162D01*
X109058008Y-92211951D01*
X109043070Y-92211951D01*
X109031580Y-92210802D02*
X109031580Y-92211951D01*
X109032729Y-92214249D01*
X109033878Y-92215398D01*
X109009748Y-92187821D02*
X109021239Y-92187821D01*
X109022388Y-92199311D01*
X109021239Y-92198162D01*
X109018941Y-92197013D01*
X109013195Y-92197013D01*
X109010897Y-92198162D01*
X109009748Y-92199311D01*
X109008599Y-92201610D01*
X109008599Y-92207355D01*
X109009748Y-92209653D01*
X109010897Y-92210802D01*
X109013195Y-92211951D01*
X109018941Y-92211951D01*
X109021239Y-92210802D01*
X109022388Y-92209653D01*
X108987916Y-92195864D02*
X108987916Y-92211951D01*
X108993662Y-92186672D02*
X108999407Y-92203908D01*
X108984469Y-92203908D01*
X125121802Y-108169821D02*
X125108013Y-108169821D01*
X125114908Y-108193951D02*
X125114908Y-108169821D01*
X125099970Y-108193951D02*
X125099970Y-108169821D01*
X125090777Y-108169821D01*
X125088479Y-108170970D01*
X125087330Y-108172119D01*
X125086181Y-108174417D01*
X125086181Y-108177864D01*
X125087330Y-108180162D01*
X125088479Y-108181311D01*
X125090777Y-108182460D01*
X125099970Y-108182460D01*
X125067796Y-108181311D02*
X125064349Y-108182460D01*
X125063200Y-108183610D01*
X125062051Y-108185908D01*
X125062051Y-108189355D01*
X125063200Y-108191653D01*
X125064349Y-108192802D01*
X125066647Y-108193951D01*
X125075840Y-108193951D01*
X125075840Y-108169821D01*
X125067796Y-108169821D01*
X125065498Y-108170970D01*
X125064349Y-108172119D01*
X125063200Y-108174417D01*
X125063200Y-108176715D01*
X125064349Y-108179013D01*
X125065498Y-108180162D01*
X125067796Y-108181311D01*
X125075840Y-108181311D01*
X125052859Y-108172119D02*
X125051710Y-108170970D01*
X125049412Y-108169821D01*
X125043666Y-108169821D01*
X125041368Y-108170970D01*
X125040219Y-108172119D01*
X125039070Y-108174417D01*
X125039070Y-108176715D01*
X125040219Y-108180162D01*
X125054008Y-108193951D01*
X125039070Y-108193951D01*
X125027580Y-108192802D02*
X125027580Y-108193951D01*
X125028729Y-108196249D01*
X125029878Y-108197398D01*
X125005748Y-108169821D02*
X125017239Y-108169821D01*
X125018388Y-108181311D01*
X125017239Y-108180162D01*
X125014941Y-108179013D01*
X125009195Y-108179013D01*
X125006897Y-108180162D01*
X125005748Y-108181311D01*
X125004599Y-108183610D01*
X125004599Y-108189355D01*
X125005748Y-108191653D01*
X125006897Y-108192802D01*
X125009195Y-108193951D01*
X125014941Y-108193951D01*
X125017239Y-108192802D01*
X125018388Y-108191653D01*
X124983916Y-108177864D02*
X124983916Y-108193951D01*
X124989662Y-108168672D02*
X124995407Y-108185908D01*
X124980469Y-108185908D01*
X108990802Y-108167821D02*
X108977013Y-108167821D01*
X108983908Y-108191951D02*
X108983908Y-108167821D01*
X108968970Y-108191951D02*
X108968970Y-108167821D01*
X108959777Y-108167821D01*
X108957479Y-108168970D01*
X108956330Y-108170119D01*
X108955181Y-108172417D01*
X108955181Y-108175864D01*
X108956330Y-108178162D01*
X108957479Y-108179311D01*
X108959777Y-108180460D01*
X108968970Y-108180460D01*
X108936796Y-108179311D02*
X108933349Y-108180460D01*
X108932200Y-108181610D01*
X108931051Y-108183908D01*
X108931051Y-108187355D01*
X108932200Y-108189653D01*
X108933349Y-108190802D01*
X108935647Y-108191951D01*
X108944840Y-108191951D01*
X108944840Y-108167821D01*
X108936796Y-108167821D01*
X108934498Y-108168970D01*
X108933349Y-108170119D01*
X108932200Y-108172417D01*
X108932200Y-108174715D01*
X108933349Y-108177013D01*
X108934498Y-108178162D01*
X108936796Y-108179311D01*
X108944840Y-108179311D01*
X108921859Y-108170119D02*
X108920710Y-108168970D01*
X108918412Y-108167821D01*
X108912666Y-108167821D01*
X108910368Y-108168970D01*
X108909219Y-108170119D01*
X108908070Y-108172417D01*
X108908070Y-108174715D01*
X108909219Y-108178162D01*
X108923008Y-108191951D01*
X108908070Y-108191951D01*
X108896580Y-108190802D02*
X108896580Y-108191951D01*
X108897729Y-108194249D01*
X108898878Y-108195398D01*
X108874748Y-108167821D02*
X108886239Y-108167821D01*
X108887388Y-108179311D01*
X108886239Y-108178162D01*
X108883941Y-108177013D01*
X108878195Y-108177013D01*
X108875897Y-108178162D01*
X108874748Y-108179311D01*
X108873599Y-108181610D01*
X108873599Y-108187355D01*
X108874748Y-108189653D01*
X108875897Y-108190802D01*
X108878195Y-108191951D01*
X108883941Y-108191951D01*
X108886239Y-108190802D01*
X108887388Y-108189653D01*
X108852916Y-108175864D02*
X108852916Y-108191951D01*
X108858662Y-108166672D02*
X108864407Y-108183908D01*
X108849469Y-108183908D01*
X133015802Y-84180821D02*
X133002013Y-84180821D01*
X133008908Y-84204951D02*
X133008908Y-84180821D01*
X132993970Y-84204951D02*
X132993970Y-84180821D01*
X132984777Y-84180821D01*
X132982479Y-84181970D01*
X132981330Y-84183119D01*
X132980181Y-84185417D01*
X132980181Y-84188864D01*
X132981330Y-84191162D01*
X132982479Y-84192311D01*
X132984777Y-84193460D01*
X132993970Y-84193460D01*
X132961796Y-84192311D02*
X132958349Y-84193460D01*
X132957200Y-84194610D01*
X132956051Y-84196908D01*
X132956051Y-84200355D01*
X132957200Y-84202653D01*
X132958349Y-84203802D01*
X132960647Y-84204951D01*
X132969840Y-84204951D01*
X132969840Y-84180821D01*
X132961796Y-84180821D01*
X132959498Y-84181970D01*
X132958349Y-84183119D01*
X132957200Y-84185417D01*
X132957200Y-84187715D01*
X132958349Y-84190013D01*
X132959498Y-84191162D01*
X132961796Y-84192311D01*
X132969840Y-84192311D01*
X132946859Y-84183119D02*
X132945710Y-84181970D01*
X132943412Y-84180821D01*
X132937666Y-84180821D01*
X132935368Y-84181970D01*
X132934219Y-84183119D01*
X132933070Y-84185417D01*
X132933070Y-84187715D01*
X132934219Y-84191162D01*
X132948008Y-84204951D01*
X132933070Y-84204951D01*
X132921580Y-84203802D02*
X132921580Y-84204951D01*
X132922729Y-84207249D01*
X132923878Y-84208398D01*
X132899748Y-84180821D02*
X132911239Y-84180821D01*
X132912388Y-84192311D01*
X132911239Y-84191162D01*
X132908941Y-84190013D01*
X132903195Y-84190013D01*
X132900897Y-84191162D01*
X132899748Y-84192311D01*
X132898599Y-84194610D01*
X132898599Y-84200355D01*
X132899748Y-84202653D01*
X132900897Y-84203802D01*
X132903195Y-84204951D01*
X132908941Y-84204951D01*
X132911239Y-84203802D01*
X132912388Y-84202653D01*
X132877916Y-84188864D02*
X132877916Y-84204951D01*
X132883662Y-84179672D02*
X132889407Y-84196908D01*
X132874469Y-84196908D01*
X101127802Y-84179821D02*
X101114013Y-84179821D01*
X101120908Y-84203951D02*
X101120908Y-84179821D01*
X101105970Y-84203951D02*
X101105970Y-84179821D01*
X101096777Y-84179821D01*
X101094479Y-84180970D01*
X101093330Y-84182119D01*
X101092181Y-84184417D01*
X101092181Y-84187864D01*
X101093330Y-84190162D01*
X101094479Y-84191311D01*
X101096777Y-84192460D01*
X101105970Y-84192460D01*
X101073796Y-84191311D02*
X101070349Y-84192460D01*
X101069200Y-84193610D01*
X101068051Y-84195908D01*
X101068051Y-84199355D01*
X101069200Y-84201653D01*
X101070349Y-84202802D01*
X101072647Y-84203951D01*
X101081840Y-84203951D01*
X101081840Y-84179821D01*
X101073796Y-84179821D01*
X101071498Y-84180970D01*
X101070349Y-84182119D01*
X101069200Y-84184417D01*
X101069200Y-84186715D01*
X101070349Y-84189013D01*
X101071498Y-84190162D01*
X101073796Y-84191311D01*
X101081840Y-84191311D01*
X101058859Y-84182119D02*
X101057710Y-84180970D01*
X101055412Y-84179821D01*
X101049666Y-84179821D01*
X101047368Y-84180970D01*
X101046219Y-84182119D01*
X101045070Y-84184417D01*
X101045070Y-84186715D01*
X101046219Y-84190162D01*
X101060008Y-84203951D01*
X101045070Y-84203951D01*
X101033580Y-84202802D02*
X101033580Y-84203951D01*
X101034729Y-84206249D01*
X101035878Y-84207398D01*
X101011748Y-84179821D02*
X101023239Y-84179821D01*
X101024388Y-84191311D01*
X101023239Y-84190162D01*
X101020941Y-84189013D01*
X101015195Y-84189013D01*
X101012897Y-84190162D01*
X101011748Y-84191311D01*
X101010599Y-84193610D01*
X101010599Y-84199355D01*
X101011748Y-84201653D01*
X101012897Y-84202802D01*
X101015195Y-84203951D01*
X101020941Y-84203951D01*
X101023239Y-84202802D01*
X101024388Y-84201653D01*
X100989916Y-84187864D02*
X100989916Y-84203951D01*
X100995662Y-84178672D02*
X101001407Y-84195908D01*
X100986469Y-84195908D01*
X133066802Y-116162821D02*
X133053013Y-116162821D01*
X133059908Y-116186951D02*
X133059908Y-116162821D01*
X133044970Y-116186951D02*
X133044970Y-116162821D01*
X133035777Y-116162821D01*
X133033479Y-116163970D01*
X133032330Y-116165119D01*
X133031181Y-116167417D01*
X133031181Y-116170864D01*
X133032330Y-116173162D01*
X133033479Y-116174311D01*
X133035777Y-116175460D01*
X133044970Y-116175460D01*
X133012796Y-116174311D02*
X133009349Y-116175460D01*
X133008200Y-116176610D01*
X133007051Y-116178908D01*
X133007051Y-116182355D01*
X133008200Y-116184653D01*
X133009349Y-116185802D01*
X133011647Y-116186951D01*
X133020840Y-116186951D01*
X133020840Y-116162821D01*
X133012796Y-116162821D01*
X133010498Y-116163970D01*
X133009349Y-116165119D01*
X133008200Y-116167417D01*
X133008200Y-116169715D01*
X133009349Y-116172013D01*
X133010498Y-116173162D01*
X133012796Y-116174311D01*
X133020840Y-116174311D01*
X132997859Y-116165119D02*
X132996710Y-116163970D01*
X132994412Y-116162821D01*
X132988666Y-116162821D01*
X132986368Y-116163970D01*
X132985219Y-116165119D01*
X132984070Y-116167417D01*
X132984070Y-116169715D01*
X132985219Y-116173162D01*
X132999008Y-116186951D01*
X132984070Y-116186951D01*
X132972580Y-116185802D02*
X132972580Y-116186951D01*
X132973729Y-116189249D01*
X132974878Y-116190398D01*
X132950748Y-116162821D02*
X132962239Y-116162821D01*
X132963388Y-116174311D01*
X132962239Y-116173162D01*
X132959941Y-116172013D01*
X132954195Y-116172013D01*
X132951897Y-116173162D01*
X132950748Y-116174311D01*
X132949599Y-116176610D01*
X132949599Y-116182355D01*
X132950748Y-116184653D01*
X132951897Y-116185802D01*
X132954195Y-116186951D01*
X132959941Y-116186951D01*
X132962239Y-116185802D01*
X132963388Y-116184653D01*
X132928916Y-116170864D02*
X132928916Y-116186951D01*
X132934662Y-116161672D02*
X132940407Y-116178908D01*
X132925469Y-116178908D01*
X100999802Y-116187821D02*
X100986013Y-116187821D01*
X100992908Y-116211951D02*
X100992908Y-116187821D01*
X100977970Y-116211951D02*
X100977970Y-116187821D01*
X100968777Y-116187821D01*
X100966479Y-116188970D01*
X100965330Y-116190119D01*
X100964181Y-116192417D01*
X100964181Y-116195864D01*
X100965330Y-116198162D01*
X100966479Y-116199311D01*
X100968777Y-116200460D01*
X100977970Y-116200460D01*
X100945796Y-116199311D02*
X100942349Y-116200460D01*
X100941200Y-116201610D01*
X100940051Y-116203908D01*
X100940051Y-116207355D01*
X100941200Y-116209653D01*
X100942349Y-116210802D01*
X100944647Y-116211951D01*
X100953840Y-116211951D01*
X100953840Y-116187821D01*
X100945796Y-116187821D01*
X100943498Y-116188970D01*
X100942349Y-116190119D01*
X100941200Y-116192417D01*
X100941200Y-116194715D01*
X100942349Y-116197013D01*
X100943498Y-116198162D01*
X100945796Y-116199311D01*
X100953840Y-116199311D01*
X100930859Y-116190119D02*
X100929710Y-116188970D01*
X100927412Y-116187821D01*
X100921666Y-116187821D01*
X100919368Y-116188970D01*
X100918219Y-116190119D01*
X100917070Y-116192417D01*
X100917070Y-116194715D01*
X100918219Y-116198162D01*
X100932008Y-116211951D01*
X100917070Y-116211951D01*
X100905580Y-116210802D02*
X100905580Y-116211951D01*
X100906729Y-116214249D01*
X100907878Y-116215398D01*
X100883748Y-116187821D02*
X100895239Y-116187821D01*
X100896388Y-116199311D01*
X100895239Y-116198162D01*
X100892941Y-116197013D01*
X100887195Y-116197013D01*
X100884897Y-116198162D01*
X100883748Y-116199311D01*
X100882599Y-116201610D01*
X100882599Y-116207355D01*
X100883748Y-116209653D01*
X100884897Y-116210802D01*
X100887195Y-116211951D01*
X100892941Y-116211951D01*
X100895239Y-116210802D01*
X100896388Y-116209653D01*
X100861916Y-116195864D02*
X100861916Y-116211951D01*
X100867662Y-116186672D02*
X100873407Y-116203908D01*
X100858469Y-116203908D01*
D11*
X141825110Y-81505643D02*
X141882562Y-81563095D01*
X142054919Y-81620548D01*
X142169824Y-81620548D01*
X142342181Y-81563095D01*
X142457086Y-81448190D01*
X142514538Y-81333286D01*
X142571990Y-81103476D01*
X142571990Y-80931119D01*
X142514538Y-80701310D01*
X142457086Y-80586405D01*
X142342181Y-80471500D01*
X142169824Y-80414048D01*
X142054919Y-80414048D01*
X141882562Y-80471500D01*
X141825110Y-80528952D01*
X141365490Y-81275833D02*
X140790967Y-81275833D01*
X141480395Y-81620548D02*
X141078229Y-80414048D01*
X140676062Y-81620548D01*
X140273895Y-81620548D02*
X140273895Y-80414048D01*
X139584467Y-81620548D01*
X139584467Y-80414048D01*
X139009943Y-81620548D02*
X139009943Y-80414048D01*
X139009943Y-80988571D02*
X138320515Y-80988571D01*
X138320515Y-81620548D02*
X138320515Y-80414048D01*
X138033253Y-81735452D02*
X137114015Y-81735452D01*
X136137325Y-81505643D02*
X136194777Y-81563095D01*
X136367134Y-81620548D01*
X136482039Y-81620548D01*
X136654396Y-81563095D01*
X136769301Y-81448190D01*
X136826753Y-81333286D01*
X136884205Y-81103476D01*
X136884205Y-80931119D01*
X136826753Y-80701310D01*
X136769301Y-80586405D01*
X136654396Y-80471500D01*
X136482039Y-80414048D01*
X136367134Y-80414048D01*
X136194777Y-80471500D01*
X136137325Y-80528952D01*
X135735158Y-80414048D02*
X134988277Y-80414048D01*
X135390444Y-80873667D01*
X135218086Y-80873667D01*
X135103182Y-80931119D01*
X135045729Y-80988571D01*
X134988277Y-81103476D01*
X134988277Y-81390738D01*
X135045729Y-81505643D01*
X135103182Y-81563095D01*
X135218086Y-81620548D01*
X135562801Y-81620548D01*
X135677705Y-81563095D01*
X135735158Y-81505643D01*
D12*
X142837955Y-80568951D02*
X142837955Y-80544821D01*
X142828762Y-80544821D01*
X142826464Y-80545970D01*
X142825315Y-80547119D01*
X142824166Y-80549417D01*
X142824166Y-80552864D01*
X142825315Y-80555162D01*
X142826464Y-80556311D01*
X142828762Y-80557460D01*
X142837955Y-80557460D01*
X142817272Y-80544821D02*
X142803483Y-80544821D01*
X142810378Y-80568951D02*
X142810378Y-80544821D01*
X142781651Y-80568951D02*
X142789695Y-80557460D01*
X142795440Y-80568951D02*
X142795440Y-80544821D01*
X142786247Y-80544821D01*
X142783949Y-80545970D01*
X142782800Y-80547119D01*
X142781651Y-80549417D01*
X142781651Y-80552864D01*
X142782800Y-80555162D01*
X142783949Y-80556311D01*
X142786247Y-80557460D01*
X142795440Y-80557460D01*
X142758670Y-80568951D02*
X142772459Y-80568951D01*
X142765565Y-80568951D02*
X142765565Y-80544821D01*
X142767863Y-80548268D01*
X142770161Y-80550566D01*
X142772459Y-80551715D01*
X142751776Y-80544821D02*
X142737987Y-80544821D01*
X142744882Y-80568951D02*
X142744882Y-80544821D01*
X142729944Y-80568951D02*
X142729944Y-80544821D01*
X142720751Y-80544821D01*
X142718453Y-80545970D01*
X142717304Y-80547119D01*
X142716155Y-80549417D01*
X142716155Y-80552864D01*
X142717304Y-80555162D01*
X142718453Y-80556311D01*
X142720751Y-80557460D01*
X142729944Y-80557460D01*
X142693174Y-80568951D02*
X142706963Y-80568951D01*
X142700069Y-80568951D02*
X142700069Y-80544821D01*
X142702367Y-80548268D01*
X142704665Y-80550566D01*
X142706963Y-80551715D01*
X142670193Y-80568951D02*
X142683982Y-80568951D01*
X142677088Y-80568951D02*
X142677088Y-80544821D01*
X142679386Y-80548268D01*
X142681684Y-80550566D01*
X142683982Y-80551715D01*
X142646063Y-80568951D02*
X142654107Y-80557460D01*
X142659852Y-80568951D02*
X142659852Y-80544821D01*
X142650659Y-80544821D01*
X142648361Y-80545970D01*
X142647212Y-80547119D01*
X142646063Y-80549417D01*
X142646063Y-80552864D01*
X142647212Y-80555162D01*
X142648361Y-80556311D01*
X142650659Y-80557460D01*
X142659852Y-80557460D01*
D11*
X144250538Y-114242948D02*
X144250538Y-113036448D01*
X143848371Y-113898233D01*
X143446205Y-113036448D01*
X143446205Y-114242948D01*
X142871681Y-113610971D02*
X142469514Y-113610971D01*
X142297157Y-114242948D02*
X142871681Y-114242948D01*
X142871681Y-113036448D01*
X142297157Y-113036448D01*
X141090658Y-114128043D02*
X141148110Y-114185495D01*
X141320467Y-114242948D01*
X141435372Y-114242948D01*
X141607729Y-114185495D01*
X141722634Y-114070590D01*
X141780086Y-113955686D01*
X141837538Y-113725876D01*
X141837538Y-113553519D01*
X141780086Y-113323710D01*
X141722634Y-113208805D01*
X141607729Y-113093900D01*
X141435372Y-113036448D01*
X141320467Y-113036448D01*
X141148110Y-113093900D01*
X141090658Y-113151352D01*
X140573586Y-114242948D02*
X140573586Y-113036448D01*
X140573586Y-113610971D02*
X139884158Y-113610971D01*
X139884158Y-114242948D02*
X139884158Y-113036448D01*
X139596896Y-114357852D02*
X138677658Y-114357852D01*
X137815872Y-114242948D02*
X138390396Y-114242948D01*
X138390396Y-113036448D01*
X137413706Y-114242948D02*
X137413706Y-113036448D01*
X136839182Y-114242948D02*
X136839182Y-113036448D01*
X136149754Y-114242948D01*
X136149754Y-113036448D01*
X135575230Y-114242948D02*
X135575230Y-113036448D01*
X134885802Y-114242948D02*
X135402873Y-113553519D01*
X134885802Y-113036448D02*
X135575230Y-113725876D01*
X134655992Y-114357852D02*
X133736754Y-114357852D01*
X132932421Y-113036448D02*
X133162230Y-113036448D01*
X133277135Y-113093900D01*
X133334587Y-113151352D01*
X133449492Y-113323710D01*
X133506944Y-113553519D01*
X133506944Y-114013138D01*
X133449492Y-114128043D01*
X133392040Y-114185495D01*
X133277135Y-114242948D01*
X133047325Y-114242948D01*
X132932421Y-114185495D01*
X132874968Y-114128043D01*
X132817516Y-114013138D01*
X132817516Y-113725876D01*
X132874968Y-113610971D01*
X132932421Y-113553519D01*
X133047325Y-113496067D01*
X133277135Y-113496067D01*
X133392040Y-113553519D01*
X133449492Y-113610971D01*
X133506944Y-113725876D01*
D12*
X144573955Y-113191351D02*
X144573955Y-113167221D01*
X144564762Y-113167221D01*
X144562464Y-113168370D01*
X144561315Y-113169519D01*
X144560166Y-113171817D01*
X144560166Y-113175264D01*
X144561315Y-113177562D01*
X144562464Y-113178711D01*
X144564762Y-113179860D01*
X144573955Y-113179860D01*
X144553272Y-113167221D02*
X144539483Y-113167221D01*
X144546378Y-113191351D02*
X144546378Y-113167221D01*
X144517651Y-113191351D02*
X144525695Y-113179860D01*
X144531440Y-113191351D02*
X144531440Y-113167221D01*
X144522247Y-113167221D01*
X144519949Y-113168370D01*
X144518800Y-113169519D01*
X144517651Y-113171817D01*
X144517651Y-113175264D01*
X144518800Y-113177562D01*
X144519949Y-113178711D01*
X144522247Y-113179860D01*
X144531440Y-113179860D01*
X144494670Y-113191351D02*
X144508459Y-113191351D01*
X144501565Y-113191351D02*
X144501565Y-113167221D01*
X144503863Y-113170668D01*
X144506161Y-113172966D01*
X144508459Y-113174115D01*
X144487776Y-113167221D02*
X144473987Y-113167221D01*
X144480882Y-113191351D02*
X144480882Y-113167221D01*
X144465944Y-113191351D02*
X144465944Y-113167221D01*
X144456751Y-113167221D01*
X144454453Y-113168370D01*
X144453304Y-113169519D01*
X144452155Y-113171817D01*
X144452155Y-113175264D01*
X144453304Y-113177562D01*
X144454453Y-113178711D01*
X144456751Y-113179860D01*
X144465944Y-113179860D01*
X144429174Y-113191351D02*
X144442963Y-113191351D01*
X144436069Y-113191351D02*
X144436069Y-113167221D01*
X144438367Y-113170668D01*
X144440665Y-113172966D01*
X144442963Y-113174115D01*
X144406193Y-113191351D02*
X144419982Y-113191351D01*
X144413088Y-113191351D02*
X144413088Y-113167221D01*
X144415386Y-113170668D01*
X144417684Y-113172966D01*
X144419982Y-113174115D01*
X144382063Y-113191351D02*
X144390107Y-113179860D01*
X144395852Y-113191351D02*
X144395852Y-113167221D01*
X144386659Y-113167221D01*
X144384361Y-113168370D01*
X144383212Y-113169519D01*
X144382063Y-113171817D01*
X144382063Y-113175264D01*
X144383212Y-113177562D01*
X144384361Y-113178711D01*
X144386659Y-113179860D01*
X144395852Y-113179860D01*
D11*
X142762095Y-123086048D02*
X142359929Y-124292548D01*
X141957762Y-123086048D01*
X140866167Y-124177643D02*
X140923619Y-124235095D01*
X141095976Y-124292548D01*
X141210881Y-124292548D01*
X141383238Y-124235095D01*
X141498143Y-124120190D01*
X141555595Y-124005286D01*
X141613047Y-123775476D01*
X141613047Y-123603119D01*
X141555595Y-123373310D01*
X141498143Y-123258405D01*
X141383238Y-123143500D01*
X141210881Y-123086048D01*
X141095976Y-123086048D01*
X140923619Y-123143500D01*
X140866167Y-123200952D01*
X139659667Y-124177643D02*
X139717119Y-124235095D01*
X139889476Y-124292548D01*
X140004381Y-124292548D01*
X140176738Y-124235095D01*
X140291643Y-124120190D01*
X140349095Y-124005286D01*
X140406547Y-123775476D01*
X140406547Y-123603119D01*
X140349095Y-123373310D01*
X140291643Y-123258405D01*
X140176738Y-123143500D01*
X140004381Y-123086048D01*
X139889476Y-123086048D01*
X139717119Y-123143500D01*
X139659667Y-123200952D01*
X139429857Y-124407452D02*
X138510619Y-124407452D01*
X137533929Y-124177643D02*
X137591381Y-124235095D01*
X137763738Y-124292548D01*
X137878643Y-124292548D01*
X138051000Y-124235095D01*
X138165905Y-124120190D01*
X138223357Y-124005286D01*
X138280809Y-123775476D01*
X138280809Y-123603119D01*
X138223357Y-123373310D01*
X138165905Y-123258405D01*
X138051000Y-123143500D01*
X137878643Y-123086048D01*
X137763738Y-123086048D01*
X137591381Y-123143500D01*
X137533929Y-123200952D01*
X137131762Y-123086048D02*
X136384881Y-123086048D01*
X136787048Y-123545667D01*
X136614690Y-123545667D01*
X136499786Y-123603119D01*
X136442333Y-123660571D01*
X136384881Y-123775476D01*
X136384881Y-124062738D01*
X136442333Y-124177643D01*
X136499786Y-124235095D01*
X136614690Y-124292548D01*
X136959405Y-124292548D01*
X137074309Y-124235095D01*
X137131762Y-124177643D01*
D12*
X142913155Y-123240951D02*
X142913155Y-123216821D01*
X142903962Y-123216821D01*
X142901664Y-123217970D01*
X142900515Y-123219119D01*
X142899366Y-123221417D01*
X142899366Y-123224864D01*
X142900515Y-123227162D01*
X142901664Y-123228311D01*
X142903962Y-123229460D01*
X142913155Y-123229460D01*
X142892472Y-123216821D02*
X142878683Y-123216821D01*
X142885578Y-123240951D02*
X142885578Y-123216821D01*
X142856851Y-123240951D02*
X142864895Y-123229460D01*
X142870640Y-123240951D02*
X142870640Y-123216821D01*
X142861447Y-123216821D01*
X142859149Y-123217970D01*
X142858000Y-123219119D01*
X142856851Y-123221417D01*
X142856851Y-123224864D01*
X142858000Y-123227162D01*
X142859149Y-123228311D01*
X142861447Y-123229460D01*
X142870640Y-123229460D01*
X142833870Y-123240951D02*
X142847659Y-123240951D01*
X142840765Y-123240951D02*
X142840765Y-123216821D01*
X142843063Y-123220268D01*
X142845361Y-123222566D01*
X142847659Y-123223715D01*
X142826976Y-123216821D02*
X142813187Y-123216821D01*
X142820082Y-123240951D02*
X142820082Y-123216821D01*
X142805144Y-123240951D02*
X142805144Y-123216821D01*
X142795951Y-123216821D01*
X142793653Y-123217970D01*
X142792504Y-123219119D01*
X142791355Y-123221417D01*
X142791355Y-123224864D01*
X142792504Y-123227162D01*
X142793653Y-123228311D01*
X142795951Y-123229460D01*
X142805144Y-123229460D01*
X142768374Y-123240951D02*
X142782163Y-123240951D01*
X142775269Y-123240951D02*
X142775269Y-123216821D01*
X142777567Y-123220268D01*
X142779865Y-123222566D01*
X142782163Y-123223715D01*
X142745393Y-123240951D02*
X142759182Y-123240951D01*
X142752288Y-123240951D02*
X142752288Y-123216821D01*
X142754586Y-123220268D01*
X142756884Y-123222566D01*
X142759182Y-123223715D01*
X142721263Y-123240951D02*
X142729307Y-123229460D01*
X142735052Y-123240951D02*
X142735052Y-123216821D01*
X142725859Y-123216821D01*
X142723561Y-123217970D01*
X142722412Y-123219119D01*
X142721263Y-123221417D01*
X142721263Y-123224864D01*
X142722412Y-123227162D01*
X142723561Y-123228311D01*
X142725859Y-123229460D01*
X142735052Y-123229460D01*
D11*
X144231790Y-90004695D02*
X144059433Y-90062148D01*
X143772171Y-90062148D01*
X143657267Y-90004695D01*
X143599814Y-89947243D01*
X143542362Y-89832338D01*
X143542362Y-89717433D01*
X143599814Y-89602529D01*
X143657267Y-89545076D01*
X143772171Y-89487624D01*
X144001981Y-89430171D01*
X144116886Y-89372719D01*
X144174338Y-89315267D01*
X144231790Y-89200362D01*
X144231790Y-89085457D01*
X144174338Y-88970552D01*
X144116886Y-88913100D01*
X144001981Y-88855648D01*
X143714719Y-88855648D01*
X143542362Y-88913100D01*
X143025290Y-90062148D02*
X143025290Y-88855648D01*
X142738028Y-88855648D01*
X142565671Y-88913100D01*
X142450766Y-89028005D01*
X142393314Y-89142910D01*
X142335862Y-89372719D01*
X142335862Y-89545076D01*
X142393314Y-89774886D01*
X142450766Y-89889790D01*
X142565671Y-90004695D01*
X142738028Y-90062148D01*
X143025290Y-90062148D01*
X141876242Y-89717433D02*
X141301719Y-89717433D01*
X141991147Y-90062148D02*
X141588981Y-88855648D01*
X141186814Y-90062148D01*
X141071909Y-90177052D02*
X140152671Y-90177052D01*
X139922861Y-90004695D02*
X139750504Y-90062148D01*
X139463242Y-90062148D01*
X139348338Y-90004695D01*
X139290885Y-89947243D01*
X139233433Y-89832338D01*
X139233433Y-89717433D01*
X139290885Y-89602529D01*
X139348338Y-89545076D01*
X139463242Y-89487624D01*
X139693052Y-89430171D01*
X139807957Y-89372719D01*
X139865409Y-89315267D01*
X139922861Y-89200362D01*
X139922861Y-89085457D01*
X139865409Y-88970552D01*
X139807957Y-88913100D01*
X139693052Y-88855648D01*
X139405790Y-88855648D01*
X139233433Y-88913100D01*
X138831266Y-88855648D02*
X138084385Y-88855648D01*
X138486552Y-89315267D01*
X138314194Y-89315267D01*
X138199290Y-89372719D01*
X138141837Y-89430171D01*
X138084385Y-89545076D01*
X138084385Y-89832338D01*
X138141837Y-89947243D01*
X138199290Y-90004695D01*
X138314194Y-90062148D01*
X138658909Y-90062148D01*
X138773813Y-90004695D01*
X138831266Y-89947243D01*
X137854575Y-90177052D02*
X136935337Y-90177052D01*
X135958647Y-89947243D02*
X136016099Y-90004695D01*
X136188456Y-90062148D01*
X136303361Y-90062148D01*
X136475718Y-90004695D01*
X136590623Y-89889790D01*
X136648075Y-89774886D01*
X136705527Y-89545076D01*
X136705527Y-89372719D01*
X136648075Y-89142910D01*
X136590623Y-89028005D01*
X136475718Y-88913100D01*
X136303361Y-88855648D01*
X136188456Y-88855648D01*
X136016099Y-88913100D01*
X135958647Y-88970552D01*
X135556480Y-88855648D02*
X134809599Y-88855648D01*
X135211766Y-89315267D01*
X135039408Y-89315267D01*
X134924504Y-89372719D01*
X134867051Y-89430171D01*
X134809599Y-89545076D01*
X134809599Y-89832338D01*
X134867051Y-89947243D01*
X134924504Y-90004695D01*
X135039408Y-90062148D01*
X135384123Y-90062148D01*
X135499027Y-90004695D01*
X135556480Y-89947243D01*
X134579789Y-90177052D02*
X133660551Y-90177052D01*
X132683861Y-89947243D02*
X132741313Y-90004695D01*
X132913670Y-90062148D01*
X133028575Y-90062148D01*
X133200932Y-90004695D01*
X133315837Y-89889790D01*
X133373289Y-89774886D01*
X133430741Y-89545076D01*
X133430741Y-89372719D01*
X133373289Y-89142910D01*
X133315837Y-89028005D01*
X133200932Y-88913100D01*
X133028575Y-88855648D01*
X132913670Y-88855648D01*
X132741313Y-88913100D01*
X132683861Y-88970552D01*
X131649718Y-89257814D02*
X131649718Y-90062148D01*
X131936980Y-88798195D02*
X132224241Y-89659981D01*
X131477361Y-89659981D01*
D12*
X144497755Y-89010551D02*
X144497755Y-88986421D01*
X144488562Y-88986421D01*
X144486264Y-88987570D01*
X144485115Y-88988719D01*
X144483966Y-88991017D01*
X144483966Y-88994464D01*
X144485115Y-88996762D01*
X144486264Y-88997911D01*
X144488562Y-88999060D01*
X144497755Y-88999060D01*
X144477072Y-88986421D02*
X144463283Y-88986421D01*
X144470178Y-89010551D02*
X144470178Y-88986421D01*
X144441451Y-89010551D02*
X144449495Y-88999060D01*
X144455240Y-89010551D02*
X144455240Y-88986421D01*
X144446047Y-88986421D01*
X144443749Y-88987570D01*
X144442600Y-88988719D01*
X144441451Y-88991017D01*
X144441451Y-88994464D01*
X144442600Y-88996762D01*
X144443749Y-88997911D01*
X144446047Y-88999060D01*
X144455240Y-88999060D01*
X144418470Y-89010551D02*
X144432259Y-89010551D01*
X144425365Y-89010551D02*
X144425365Y-88986421D01*
X144427663Y-88989868D01*
X144429961Y-88992166D01*
X144432259Y-88993315D01*
X144411576Y-88986421D02*
X144397787Y-88986421D01*
X144404682Y-89010551D02*
X144404682Y-88986421D01*
X144389744Y-89010551D02*
X144389744Y-88986421D01*
X144380551Y-88986421D01*
X144378253Y-88987570D01*
X144377104Y-88988719D01*
X144375955Y-88991017D01*
X144375955Y-88994464D01*
X144377104Y-88996762D01*
X144378253Y-88997911D01*
X144380551Y-88999060D01*
X144389744Y-88999060D01*
X144352974Y-89010551D02*
X144366763Y-89010551D01*
X144359869Y-89010551D02*
X144359869Y-88986421D01*
X144362167Y-88989868D01*
X144364465Y-88992166D01*
X144366763Y-88993315D01*
X144329993Y-89010551D02*
X144343782Y-89010551D01*
X144336888Y-89010551D02*
X144336888Y-88986421D01*
X144339186Y-88989868D01*
X144341484Y-88992166D01*
X144343782Y-88993315D01*
X144305863Y-89010551D02*
X144313907Y-88999060D01*
X144319652Y-89010551D02*
X144319652Y-88986421D01*
X144310459Y-88986421D01*
X144308161Y-88987570D01*
X144307012Y-88988719D01*
X144305863Y-88991017D01*
X144305863Y-88994464D01*
X144307012Y-88996762D01*
X144308161Y-88997911D01*
X144310459Y-88999060D01*
X144319652Y-88999060D01*
D11*
X144307990Y-106336895D02*
X144135633Y-106394348D01*
X143848371Y-106394348D01*
X143733467Y-106336895D01*
X143676014Y-106279443D01*
X143618562Y-106164538D01*
X143618562Y-106049633D01*
X143676014Y-105934729D01*
X143733467Y-105877276D01*
X143848371Y-105819824D01*
X144078181Y-105762371D01*
X144193086Y-105704919D01*
X144250538Y-105647467D01*
X144307990Y-105532562D01*
X144307990Y-105417657D01*
X144250538Y-105302752D01*
X144193086Y-105245300D01*
X144078181Y-105187848D01*
X143790919Y-105187848D01*
X143618562Y-105245300D01*
X143101490Y-106394348D02*
X143101490Y-105187848D01*
X142814228Y-105187848D01*
X142641871Y-105245300D01*
X142526966Y-105360205D01*
X142469514Y-105475110D01*
X142412062Y-105704919D01*
X142412062Y-105877276D01*
X142469514Y-106107086D01*
X142526966Y-106221990D01*
X142641871Y-106336895D01*
X142814228Y-106394348D01*
X143101490Y-106394348D01*
X141952442Y-106049633D02*
X141377919Y-106049633D01*
X142067347Y-106394348D02*
X141665181Y-105187848D01*
X141263014Y-106394348D01*
X141148109Y-106509252D02*
X140228871Y-106509252D01*
X139999061Y-106336895D02*
X139826704Y-106394348D01*
X139539442Y-106394348D01*
X139424538Y-106336895D01*
X139367085Y-106279443D01*
X139309633Y-106164538D01*
X139309633Y-106049633D01*
X139367085Y-105934729D01*
X139424538Y-105877276D01*
X139539442Y-105819824D01*
X139769252Y-105762371D01*
X139884157Y-105704919D01*
X139941609Y-105647467D01*
X139999061Y-105532562D01*
X139999061Y-105417657D01*
X139941609Y-105302752D01*
X139884157Y-105245300D01*
X139769252Y-105187848D01*
X139481990Y-105187848D01*
X139309633Y-105245300D01*
X138275490Y-105590014D02*
X138275490Y-106394348D01*
X138562752Y-105130395D02*
X138850013Y-105992181D01*
X138103133Y-105992181D01*
X137930775Y-106509252D02*
X137011537Y-106509252D01*
X136034847Y-106279443D02*
X136092299Y-106336895D01*
X136264656Y-106394348D01*
X136379561Y-106394348D01*
X136551918Y-106336895D01*
X136666823Y-106221990D01*
X136724275Y-106107086D01*
X136781727Y-105877276D01*
X136781727Y-105704919D01*
X136724275Y-105475110D01*
X136666823Y-105360205D01*
X136551918Y-105245300D01*
X136379561Y-105187848D01*
X136264656Y-105187848D01*
X136092299Y-105245300D01*
X136034847Y-105302752D01*
X135000704Y-105590014D02*
X135000704Y-106394348D01*
X135287966Y-105130395D02*
X135575227Y-105992181D01*
X134828347Y-105992181D01*
X134655989Y-106509252D02*
X133736751Y-106509252D01*
X132760061Y-106279443D02*
X132817513Y-106336895D01*
X132989870Y-106394348D01*
X133104775Y-106394348D01*
X133277132Y-106336895D01*
X133392037Y-106221990D01*
X133449489Y-106107086D01*
X133506941Y-105877276D01*
X133506941Y-105704919D01*
X133449489Y-105475110D01*
X133392037Y-105360205D01*
X133277132Y-105245300D01*
X133104775Y-105187848D01*
X132989870Y-105187848D01*
X132817513Y-105245300D01*
X132760061Y-105302752D01*
X131725918Y-105590014D02*
X131725918Y-106394348D01*
X132013180Y-105130395D02*
X132300441Y-105992181D01*
X131553561Y-105992181D01*
D12*
X144573955Y-105342751D02*
X144573955Y-105318621D01*
X144564762Y-105318621D01*
X144562464Y-105319770D01*
X144561315Y-105320919D01*
X144560166Y-105323217D01*
X144560166Y-105326664D01*
X144561315Y-105328962D01*
X144562464Y-105330111D01*
X144564762Y-105331260D01*
X144573955Y-105331260D01*
X144553272Y-105318621D02*
X144539483Y-105318621D01*
X144546378Y-105342751D02*
X144546378Y-105318621D01*
X144517651Y-105342751D02*
X144525695Y-105331260D01*
X144531440Y-105342751D02*
X144531440Y-105318621D01*
X144522247Y-105318621D01*
X144519949Y-105319770D01*
X144518800Y-105320919D01*
X144517651Y-105323217D01*
X144517651Y-105326664D01*
X144518800Y-105328962D01*
X144519949Y-105330111D01*
X144522247Y-105331260D01*
X144531440Y-105331260D01*
X144494670Y-105342751D02*
X144508459Y-105342751D01*
X144501565Y-105342751D02*
X144501565Y-105318621D01*
X144503863Y-105322068D01*
X144506161Y-105324366D01*
X144508459Y-105325515D01*
X144487776Y-105318621D02*
X144473987Y-105318621D01*
X144480882Y-105342751D02*
X144480882Y-105318621D01*
X144465944Y-105342751D02*
X144465944Y-105318621D01*
X144456751Y-105318621D01*
X144454453Y-105319770D01*
X144453304Y-105320919D01*
X144452155Y-105323217D01*
X144452155Y-105326664D01*
X144453304Y-105328962D01*
X144454453Y-105330111D01*
X144456751Y-105331260D01*
X144465944Y-105331260D01*
X144429174Y-105342751D02*
X144442963Y-105342751D01*
X144436069Y-105342751D02*
X144436069Y-105318621D01*
X144438367Y-105322068D01*
X144440665Y-105324366D01*
X144442963Y-105325515D01*
X144406193Y-105342751D02*
X144419982Y-105342751D01*
X144413088Y-105342751D02*
X144413088Y-105318621D01*
X144415386Y-105322068D01*
X144417684Y-105324366D01*
X144419982Y-105325515D01*
X144382063Y-105342751D02*
X144390107Y-105331260D01*
X144395852Y-105342751D02*
X144395852Y-105318621D01*
X144386659Y-105318621D01*
X144384361Y-105319770D01*
X144383212Y-105320919D01*
X144382063Y-105323217D01*
X144382063Y-105326664D01*
X144383212Y-105328962D01*
X144384361Y-105330111D01*
X144386659Y-105331260D01*
X144395852Y-105331260D01*
D11*
X105147295Y-122967048D02*
X104745129Y-124173548D01*
X104342962Y-122967048D01*
X103251367Y-124058643D02*
X103308819Y-124116095D01*
X103481176Y-124173548D01*
X103596081Y-124173548D01*
X103768438Y-124116095D01*
X103883343Y-124001190D01*
X103940795Y-123886286D01*
X103998247Y-123656476D01*
X103998247Y-123484119D01*
X103940795Y-123254310D01*
X103883343Y-123139405D01*
X103768438Y-123024500D01*
X103596081Y-122967048D01*
X103481176Y-122967048D01*
X103308819Y-123024500D01*
X103251367Y-123081952D01*
X102044867Y-124058643D02*
X102102319Y-124116095D01*
X102274676Y-124173548D01*
X102389581Y-124173548D01*
X102561938Y-124116095D01*
X102676843Y-124001190D01*
X102734295Y-123886286D01*
X102791747Y-123656476D01*
X102791747Y-123484119D01*
X102734295Y-123254310D01*
X102676843Y-123139405D01*
X102561938Y-123024500D01*
X102389581Y-122967048D01*
X102274676Y-122967048D01*
X102102319Y-123024500D01*
X102044867Y-123081952D01*
D12*
X105298355Y-123121951D02*
X105298355Y-123097821D01*
X105289162Y-123097821D01*
X105286864Y-123098970D01*
X105285715Y-123100119D01*
X105284566Y-123102417D01*
X105284566Y-123105864D01*
X105285715Y-123108162D01*
X105286864Y-123109311D01*
X105289162Y-123110460D01*
X105298355Y-123110460D01*
X105277672Y-123097821D02*
X105263883Y-123097821D01*
X105270778Y-123121951D02*
X105270778Y-123097821D01*
X105242051Y-123121951D02*
X105250095Y-123110460D01*
X105255840Y-123121951D02*
X105255840Y-123097821D01*
X105246647Y-123097821D01*
X105244349Y-123098970D01*
X105243200Y-123100119D01*
X105242051Y-123102417D01*
X105242051Y-123105864D01*
X105243200Y-123108162D01*
X105244349Y-123109311D01*
X105246647Y-123110460D01*
X105255840Y-123110460D01*
X105219070Y-123121951D02*
X105232859Y-123121951D01*
X105225965Y-123121951D02*
X105225965Y-123097821D01*
X105228263Y-123101268D01*
X105230561Y-123103566D01*
X105232859Y-123104715D01*
X105212176Y-123097821D02*
X105198387Y-123097821D01*
X105205282Y-123121951D02*
X105205282Y-123097821D01*
X105190344Y-123121951D02*
X105190344Y-123097821D01*
X105181151Y-123097821D01*
X105178853Y-123098970D01*
X105177704Y-123100119D01*
X105176555Y-123102417D01*
X105176555Y-123105864D01*
X105177704Y-123108162D01*
X105178853Y-123109311D01*
X105181151Y-123110460D01*
X105190344Y-123110460D01*
X105153574Y-123121951D02*
X105167363Y-123121951D01*
X105160469Y-123121951D02*
X105160469Y-123097821D01*
X105162767Y-123101268D01*
X105165065Y-123103566D01*
X105167363Y-123104715D01*
X105130593Y-123121951D02*
X105144382Y-123121951D01*
X105137488Y-123121951D02*
X105137488Y-123097821D01*
X105139786Y-123101268D01*
X105142084Y-123103566D01*
X105144382Y-123104715D01*
X105106463Y-123121951D02*
X105114507Y-123110460D01*
X105120252Y-123121951D02*
X105120252Y-123097821D01*
X105111059Y-123097821D01*
X105108761Y-123098970D01*
X105107612Y-123100119D01*
X105106463Y-123102417D01*
X105106463Y-123105864D01*
X105107612Y-123108162D01*
X105108761Y-123109311D01*
X105111059Y-123110460D01*
X105120252Y-123110460D01*
D11*
X104497962Y-126060500D02*
X104612867Y-126003048D01*
X104785224Y-126003048D01*
X104957581Y-126060500D01*
X105072486Y-126175405D01*
X105129938Y-126290310D01*
X105187390Y-126520119D01*
X105187390Y-126692476D01*
X105129938Y-126922286D01*
X105072486Y-127037190D01*
X104957581Y-127152095D01*
X104785224Y-127209548D01*
X104670319Y-127209548D01*
X104497962Y-127152095D01*
X104440510Y-127094643D01*
X104440510Y-126692476D01*
X104670319Y-126692476D01*
X103923438Y-127209548D02*
X103923438Y-126003048D01*
X103234010Y-127209548D01*
X103234010Y-126003048D01*
X102659486Y-127209548D02*
X102659486Y-126003048D01*
X102372224Y-126003048D01*
X102199867Y-126060500D01*
X102084962Y-126175405D01*
X102027510Y-126290310D01*
X101970058Y-126520119D01*
X101970058Y-126692476D01*
X102027510Y-126922286D01*
X102084962Y-127037190D01*
X102199867Y-127152095D01*
X102372224Y-127209548D01*
X102659486Y-127209548D01*
D12*
X105453355Y-126157951D02*
X105453355Y-126133821D01*
X105444162Y-126133821D01*
X105441864Y-126134970D01*
X105440715Y-126136119D01*
X105439566Y-126138417D01*
X105439566Y-126141864D01*
X105440715Y-126144162D01*
X105441864Y-126145311D01*
X105444162Y-126146460D01*
X105453355Y-126146460D01*
X105432672Y-126133821D02*
X105418883Y-126133821D01*
X105425778Y-126157951D02*
X105425778Y-126133821D01*
X105397051Y-126157951D02*
X105405095Y-126146460D01*
X105410840Y-126157951D02*
X105410840Y-126133821D01*
X105401647Y-126133821D01*
X105399349Y-126134970D01*
X105398200Y-126136119D01*
X105397051Y-126138417D01*
X105397051Y-126141864D01*
X105398200Y-126144162D01*
X105399349Y-126145311D01*
X105401647Y-126146460D01*
X105410840Y-126146460D01*
X105374070Y-126157951D02*
X105387859Y-126157951D01*
X105380965Y-126157951D02*
X105380965Y-126133821D01*
X105383263Y-126137268D01*
X105385561Y-126139566D01*
X105387859Y-126140715D01*
X105367176Y-126133821D02*
X105353387Y-126133821D01*
X105360282Y-126157951D02*
X105360282Y-126133821D01*
X105345344Y-126157951D02*
X105345344Y-126133821D01*
X105336151Y-126133821D01*
X105333853Y-126134970D01*
X105332704Y-126136119D01*
X105331555Y-126138417D01*
X105331555Y-126141864D01*
X105332704Y-126144162D01*
X105333853Y-126145311D01*
X105336151Y-126146460D01*
X105345344Y-126146460D01*
X105308574Y-126157951D02*
X105322363Y-126157951D01*
X105315469Y-126157951D02*
X105315469Y-126133821D01*
X105317767Y-126137268D01*
X105320065Y-126139566D01*
X105322363Y-126140715D01*
X105285593Y-126157951D02*
X105299382Y-126157951D01*
X105292488Y-126157951D02*
X105292488Y-126133821D01*
X105294786Y-126137268D01*
X105297084Y-126139566D01*
X105299382Y-126140715D01*
X105261463Y-126157951D02*
X105269507Y-126146460D01*
X105275252Y-126157951D02*
X105275252Y-126133821D01*
X105266059Y-126133821D01*
X105263761Y-126134970D01*
X105262612Y-126136119D01*
X105261463Y-126138417D01*
X105261463Y-126141864D01*
X105262612Y-126144162D01*
X105263761Y-126145311D01*
X105266059Y-126146460D01*
X105275252Y-126146460D01*
D11*
X105244843Y-119824048D02*
X104497962Y-119824048D01*
X104900129Y-120283667D01*
X104727771Y-120283667D01*
X104612867Y-120341119D01*
X104555414Y-120398571D01*
X104497962Y-120513476D01*
X104497962Y-120800738D01*
X104555414Y-120915643D01*
X104612867Y-120973095D01*
X104727771Y-121030548D01*
X105072486Y-121030548D01*
X105187390Y-120973095D01*
X105244843Y-120915643D01*
X104153247Y-119824048D02*
X103751081Y-121030548D01*
X103348914Y-119824048D01*
X103061652Y-119824048D02*
X102314771Y-119824048D01*
X102716938Y-120283667D01*
X102544580Y-120283667D01*
X102429676Y-120341119D01*
X102372223Y-120398571D01*
X102314771Y-120513476D01*
X102314771Y-120800738D01*
X102372223Y-120915643D01*
X102429676Y-120973095D01*
X102544580Y-121030548D01*
X102889295Y-121030548D01*
X103004199Y-120973095D01*
X103061652Y-120915643D01*
D12*
X105453355Y-119978951D02*
X105453355Y-119954821D01*
X105444162Y-119954821D01*
X105441864Y-119955970D01*
X105440715Y-119957119D01*
X105439566Y-119959417D01*
X105439566Y-119962864D01*
X105440715Y-119965162D01*
X105441864Y-119966311D01*
X105444162Y-119967460D01*
X105453355Y-119967460D01*
X105432672Y-119954821D02*
X105418883Y-119954821D01*
X105425778Y-119978951D02*
X105425778Y-119954821D01*
X105397051Y-119978951D02*
X105405095Y-119967460D01*
X105410840Y-119978951D02*
X105410840Y-119954821D01*
X105401647Y-119954821D01*
X105399349Y-119955970D01*
X105398200Y-119957119D01*
X105397051Y-119959417D01*
X105397051Y-119962864D01*
X105398200Y-119965162D01*
X105399349Y-119966311D01*
X105401647Y-119967460D01*
X105410840Y-119967460D01*
X105374070Y-119978951D02*
X105387859Y-119978951D01*
X105380965Y-119978951D02*
X105380965Y-119954821D01*
X105383263Y-119958268D01*
X105385561Y-119960566D01*
X105387859Y-119961715D01*
X105367176Y-119954821D02*
X105353387Y-119954821D01*
X105360282Y-119978951D02*
X105360282Y-119954821D01*
X105345344Y-119978951D02*
X105345344Y-119954821D01*
X105336151Y-119954821D01*
X105333853Y-119955970D01*
X105332704Y-119957119D01*
X105331555Y-119959417D01*
X105331555Y-119962864D01*
X105332704Y-119965162D01*
X105333853Y-119966311D01*
X105336151Y-119967460D01*
X105345344Y-119967460D01*
X105308574Y-119978951D02*
X105322363Y-119978951D01*
X105315469Y-119978951D02*
X105315469Y-119954821D01*
X105317767Y-119958268D01*
X105320065Y-119960566D01*
X105322363Y-119961715D01*
X105285593Y-119978951D02*
X105299382Y-119978951D01*
X105292488Y-119978951D02*
X105292488Y-119954821D01*
X105294786Y-119958268D01*
X105297084Y-119960566D01*
X105299382Y-119961715D01*
X105261463Y-119978951D02*
X105269507Y-119967460D01*
X105275252Y-119978951D02*
X105275252Y-119954821D01*
X105266059Y-119954821D01*
X105263761Y-119955970D01*
X105262612Y-119957119D01*
X105261463Y-119959417D01*
X105261463Y-119962864D01*
X105262612Y-119965162D01*
X105263761Y-119966311D01*
X105266059Y-119967460D01*
X105275252Y-119967460D01*
D11*
X104554414Y-117807548D02*
X105128938Y-117807548D01*
X105128938Y-116601048D01*
X104152248Y-117175571D02*
X103750081Y-117175571D01*
X103577724Y-117807548D02*
X104152248Y-117807548D01*
X104152248Y-116601048D01*
X103577724Y-116601048D01*
X103060653Y-117807548D02*
X103060653Y-116601048D01*
X102773391Y-116601048D01*
X102601034Y-116658500D01*
X102486129Y-116773405D01*
X102428677Y-116888310D01*
X102371225Y-117118119D01*
X102371225Y-117290476D01*
X102428677Y-117520286D01*
X102486129Y-117635190D01*
X102601034Y-117750095D01*
X102773391Y-117807548D01*
X103060653Y-117807548D01*
D12*
X105452355Y-116755951D02*
X105452355Y-116731821D01*
X105443162Y-116731821D01*
X105440864Y-116732970D01*
X105439715Y-116734119D01*
X105438566Y-116736417D01*
X105438566Y-116739864D01*
X105439715Y-116742162D01*
X105440864Y-116743311D01*
X105443162Y-116744460D01*
X105452355Y-116744460D01*
X105431672Y-116731821D02*
X105417883Y-116731821D01*
X105424778Y-116755951D02*
X105424778Y-116731821D01*
X105396051Y-116755951D02*
X105404095Y-116744460D01*
X105409840Y-116755951D02*
X105409840Y-116731821D01*
X105400647Y-116731821D01*
X105398349Y-116732970D01*
X105397200Y-116734119D01*
X105396051Y-116736417D01*
X105396051Y-116739864D01*
X105397200Y-116742162D01*
X105398349Y-116743311D01*
X105400647Y-116744460D01*
X105409840Y-116744460D01*
X105373070Y-116755951D02*
X105386859Y-116755951D01*
X105379965Y-116755951D02*
X105379965Y-116731821D01*
X105382263Y-116735268D01*
X105384561Y-116737566D01*
X105386859Y-116738715D01*
X105366176Y-116731821D02*
X105352387Y-116731821D01*
X105359282Y-116755951D02*
X105359282Y-116731821D01*
X105344344Y-116755951D02*
X105344344Y-116731821D01*
X105335151Y-116731821D01*
X105332853Y-116732970D01*
X105331704Y-116734119D01*
X105330555Y-116736417D01*
X105330555Y-116739864D01*
X105331704Y-116742162D01*
X105332853Y-116743311D01*
X105335151Y-116744460D01*
X105344344Y-116744460D01*
X105307574Y-116755951D02*
X105321363Y-116755951D01*
X105314469Y-116755951D02*
X105314469Y-116731821D01*
X105316767Y-116735268D01*
X105319065Y-116737566D01*
X105321363Y-116738715D01*
X105284593Y-116755951D02*
X105298382Y-116755951D01*
X105291488Y-116755951D02*
X105291488Y-116731821D01*
X105293786Y-116735268D01*
X105296084Y-116737566D01*
X105298382Y-116738715D01*
X105260463Y-116755951D02*
X105268507Y-116744460D01*
X105274252Y-116755951D02*
X105274252Y-116731821D01*
X105265059Y-116731821D01*
X105262761Y-116732970D01*
X105261612Y-116734119D01*
X105260463Y-116736417D01*
X105260463Y-116739864D01*
X105261612Y-116742162D01*
X105262761Y-116743311D01*
X105265059Y-116744460D01*
X105274252Y-116744460D01*
M02*
