G04 #@! TF.FileFunction,Copper,L1,Top,Signal*
%FSLAX46Y46*%
G04 Gerber Fmt 4.6, Leading zero omitted, Abs format (unit mm)*
G04 Created by KiCad (PCBNEW 4.0.6) date 05/08/17 07:31:45*
%MOMM*%
%LPD*%
G01*
G04 APERTURE LIST*
%ADD10C,0.100000*%
%ADD11C,2.540000*%
%ADD12C,3.175000*%
%ADD13C,1.100000*%
%ADD14R,0.635000X1.270000*%
%ADD15C,3.000000*%
%ADD16C,2.250000*%
%ADD17C,1.006400*%
%ADD18C,3.200000*%
%ADD19C,2.540000*%
%ADD20C,2.184400*%
%ADD21C,0.609600*%
%ADD22C,0.406400*%
G04 APERTURE END LIST*
D10*
D11*
X130325100Y-89676100D03*
D12*
X130325100Y-89676100D03*
D11*
X106321100Y-89671100D03*
D12*
X106321100Y-89671100D03*
D11*
X130194100Y-113720100D03*
D12*
X130194100Y-113720100D03*
D11*
X106259100Y-113600100D03*
D12*
X106259100Y-113600100D03*
D11*
X126306100Y-93598100D03*
D12*
X126306100Y-93598100D03*
D11*
X110398100Y-93610100D03*
D12*
X110398100Y-93610100D03*
D11*
X126394100Y-109592100D03*
D12*
X126394100Y-109592100D03*
D11*
X110263100Y-109590100D03*
D12*
X110263100Y-109590100D03*
D11*
X134288100Y-85603100D03*
D12*
X134288100Y-85603100D03*
D11*
X102400100Y-85602100D03*
D12*
X102400100Y-85602100D03*
D11*
X134339100Y-117585100D03*
D12*
X134339100Y-117585100D03*
D11*
X102272100Y-117610100D03*
D12*
X102272100Y-117610100D03*
D13*
X94338100Y-86737900D03*
D14*
X94719100Y-86737900D03*
X95354100Y-86737900D03*
X94084100Y-86737900D03*
X93449100Y-86737900D03*
X92814100Y-86737900D03*
X95951000Y-86737900D03*
X96547900Y-86737900D03*
X92191800Y-86737900D03*
X91569500Y-86737900D03*
D13*
X94371100Y-90044900D03*
D14*
X94752100Y-90044900D03*
X95387100Y-90044900D03*
X94117100Y-90044900D03*
X93482100Y-90044900D03*
X92847100Y-90044900D03*
X95984000Y-90044900D03*
X96580900Y-90044900D03*
X92224800Y-90044900D03*
X91602500Y-90044900D03*
D13*
X94313100Y-80550900D03*
D14*
X94694100Y-80550900D03*
X95329100Y-80550900D03*
X94059100Y-80550900D03*
X93424100Y-80550900D03*
X92789100Y-80550900D03*
X95926000Y-80550900D03*
X96522900Y-80550900D03*
X92166800Y-80550900D03*
X91544500Y-80550900D03*
D13*
X94363100Y-83584900D03*
D14*
X94744100Y-83584900D03*
X95379100Y-83584900D03*
X94109100Y-83584900D03*
X93474100Y-83584900D03*
X92839100Y-83584900D03*
X95976000Y-83584900D03*
X96572900Y-83584900D03*
X92216800Y-83584900D03*
X91594500Y-83584900D03*
D15*
X110188100Y-101737100D03*
X118189100Y-109763500D03*
X126190100Y-101737100D03*
X118189100Y-93736100D03*
D16*
X92380100Y-102598900D03*
X92380100Y-110332900D03*
D17*
X135635100Y-109552100D03*
X143477100Y-120014100D03*
X133095100Y-123637100D03*
X98090100Y-116824100D03*
X137696100Y-81301100D03*
D18*
X110263100Y-109590100D02*
X110337100Y-109590100D01*
X110337100Y-109590100D02*
X113931100Y-113184100D01*
X113931100Y-113184100D02*
X122802100Y-113184100D01*
X122802100Y-113184100D02*
X126394100Y-109592100D01*
D19*
X113931100Y-113184100D02*
X122798100Y-113184100D01*
X122798100Y-113184100D02*
X127433100Y-108549100D01*
X127433100Y-108549100D02*
X134632100Y-108549100D01*
X134632100Y-108549100D02*
X135635100Y-109552100D01*
D18*
X126306100Y-93598100D02*
X126306100Y-93089100D01*
X126306100Y-93089100D02*
X123328100Y-90111100D01*
X123328100Y-90111100D02*
X113897100Y-90111100D01*
X113897100Y-90111100D02*
X110398100Y-93610100D01*
X127433100Y-108549100D02*
X127433100Y-108741100D01*
X127433100Y-108741100D02*
X123139100Y-113035100D01*
X123139100Y-113035100D02*
X113797100Y-113035100D01*
X113797100Y-113035100D02*
X106597100Y-105835100D01*
X106597100Y-105835100D02*
X106597100Y-97411100D01*
X106597100Y-97411100D02*
X110398100Y-93610100D01*
X130194100Y-113720100D02*
X142467100Y-113720100D01*
X142467100Y-113720100D02*
X143439100Y-114692100D01*
X143439100Y-114692100D02*
X143439100Y-119976100D01*
X143439100Y-119976100D02*
X143477100Y-120014100D01*
D20*
X133095100Y-123637100D02*
X133095100Y-123640100D01*
X133095100Y-123640100D02*
X135721100Y-126266100D01*
X135721100Y-126266100D02*
X141625100Y-126266100D01*
X141625100Y-126266100D02*
X143400100Y-124491100D01*
X143400100Y-124491100D02*
X143400100Y-120091100D01*
X143400100Y-120091100D02*
X143477100Y-120014100D01*
D18*
X130325100Y-89676100D02*
X130325100Y-89629100D01*
X130325100Y-89629100D02*
X126466100Y-85770100D01*
X126466100Y-85770100D02*
X110222100Y-85770100D01*
X110222100Y-85770100D02*
X106321100Y-89671100D01*
X106321100Y-89671100D02*
X106236100Y-89671100D01*
X106236100Y-89671100D02*
X101985100Y-93922100D01*
X101985100Y-93922100D02*
X101985100Y-109326100D01*
X101985100Y-109326100D02*
X106259100Y-113600100D01*
X106259100Y-113600100D02*
X106464100Y-113600100D01*
X106464100Y-113600100D02*
X109927100Y-117063100D01*
X109927100Y-117063100D02*
X126851100Y-117063100D01*
X126851100Y-117063100D02*
X130194100Y-113720100D01*
D21*
X134339100Y-117585100D02*
X132184100Y-117585100D01*
X132184100Y-117585100D02*
X129814100Y-119955100D01*
X129814100Y-119955100D02*
X104617100Y-119955100D01*
X104617100Y-119955100D02*
X102272100Y-117610100D01*
D18*
X98090100Y-116824100D02*
X98941100Y-116824100D01*
X98941100Y-116824100D02*
X101486100Y-116824100D01*
X101486100Y-116824100D02*
X102272100Y-117610100D01*
X102400100Y-85602100D02*
X102400100Y-85799100D01*
X102400100Y-85799100D02*
X98941100Y-89258100D01*
X98941100Y-89258100D02*
X98941100Y-89261100D01*
X98941100Y-89261100D02*
X97807100Y-90395100D01*
X97807100Y-90395100D02*
X97807100Y-115690100D01*
X97807100Y-115690100D02*
X98941100Y-116824100D01*
X102400100Y-85602100D02*
X102486100Y-85602100D01*
X102486100Y-85602100D02*
X106787100Y-81301100D01*
X106787100Y-81301100D02*
X129986100Y-81301100D01*
X129986100Y-81301100D02*
X134288100Y-85603100D01*
X137696100Y-81301100D02*
X137696100Y-82195100D01*
X137696100Y-82195100D02*
X134288100Y-85603100D01*
D22*
G36*
X144819647Y-79034255D02*
X144828702Y-84411737D01*
X144838174Y-84506694D01*
X144845710Y-84601798D01*
X144848730Y-84612519D01*
X144849836Y-84623611D01*
X144877576Y-84714935D01*
X144903436Y-84806749D01*
X144908481Y-84816681D01*
X144911721Y-84827346D01*
X144956669Y-84911537D01*
X144999873Y-84996584D01*
X145006753Y-85005348D01*
X145012001Y-85015179D01*
X145072430Y-85089019D01*
X145131345Y-85164073D01*
X145139797Y-85171335D01*
X145146854Y-85179958D01*
X145220456Y-85240639D01*
X145292845Y-85302836D01*
X145302550Y-85308320D01*
X145311145Y-85315406D01*
X145395128Y-85360633D01*
X145478222Y-85407587D01*
X145488806Y-85411081D01*
X145498614Y-85416363D01*
X145589805Y-85444423D01*
X145680415Y-85474336D01*
X145691472Y-85475707D01*
X145702124Y-85478985D01*
X145797007Y-85488796D01*
X145891722Y-85500542D01*
X145906953Y-85500826D01*
X146024708Y-85502202D01*
X146080962Y-87779318D01*
X146090402Y-87835713D01*
X146115180Y-87887244D01*
X146153333Y-87929832D01*
X146201841Y-87960105D01*
X146274650Y-87977280D01*
X146991790Y-88010667D01*
X146901158Y-118279315D01*
X146018281Y-118280301D01*
X145914484Y-118290595D01*
X145810906Y-118300427D01*
X145808696Y-118301087D01*
X145806395Y-118301315D01*
X145706643Y-118331553D01*
X145606878Y-118361337D01*
X145604836Y-118362415D01*
X145602625Y-118363085D01*
X145510684Y-118412103D01*
X145418568Y-118460717D01*
X145416774Y-118462171D01*
X145414735Y-118463258D01*
X145334060Y-118529205D01*
X145253145Y-118594781D01*
X145251667Y-118596556D01*
X145249880Y-118598017D01*
X145183606Y-118678311D01*
X145116914Y-118758422D01*
X145115808Y-118760452D01*
X145114339Y-118762232D01*
X145064910Y-118853893D01*
X145015061Y-118945407D01*
X145014371Y-118947611D01*
X145013275Y-118949644D01*
X144982590Y-119049167D01*
X144951468Y-119148614D01*
X144951219Y-119150911D01*
X144950539Y-119153118D01*
X144939775Y-119256643D01*
X144928555Y-119360304D01*
X144928541Y-119364686D01*
X144928519Y-119364902D01*
X144928540Y-119365131D01*
X144928508Y-119375537D01*
X144967508Y-129417138D01*
X144989109Y-129628965D01*
X145051442Y-129832563D01*
X145152135Y-130020175D01*
X145287350Y-130184657D01*
X145451938Y-130319743D01*
X145639629Y-130420288D01*
X145745787Y-130452698D01*
X145776583Y-131804900D01*
X91975100Y-131804900D01*
X91975100Y-112436086D01*
X92125371Y-112469125D01*
X92545150Y-112477918D01*
X92958643Y-112405008D01*
X93350099Y-112253173D01*
X93704609Y-112028194D01*
X94008668Y-111738642D01*
X94250696Y-111395546D01*
X94421473Y-111011974D01*
X94514495Y-110602537D01*
X94521191Y-110122964D01*
X94439638Y-109711089D01*
X94279637Y-109322898D01*
X94047284Y-108973178D01*
X93751428Y-108675249D01*
X93403338Y-108440460D01*
X93016274Y-108277753D01*
X92604978Y-108193326D01*
X92185117Y-108190395D01*
X91975100Y-108230458D01*
X91975100Y-104702086D01*
X92125371Y-104735125D01*
X92545150Y-104743918D01*
X92958643Y-104671008D01*
X93350099Y-104519173D01*
X93704609Y-104294194D01*
X94008668Y-104004642D01*
X94250696Y-103661546D01*
X94421473Y-103277974D01*
X94514495Y-102868537D01*
X94521191Y-102388964D01*
X94439638Y-101977089D01*
X94279637Y-101588898D01*
X94047284Y-101239178D01*
X93751428Y-100941249D01*
X93403338Y-100706460D01*
X93016274Y-100543753D01*
X92604978Y-100459326D01*
X92185117Y-100456395D01*
X91975100Y-100496458D01*
X91975100Y-91700815D01*
X95191100Y-91700815D01*
X95191100Y-115690100D01*
X95214679Y-115930581D01*
X95235741Y-116171317D01*
X95239579Y-116184526D01*
X95240921Y-116198217D01*
X95310760Y-116429534D01*
X95378181Y-116661598D01*
X95384513Y-116673813D01*
X95388488Y-116686980D01*
X95478806Y-116856844D01*
X95520437Y-117314290D01*
X95664587Y-117804071D01*
X95901125Y-118256525D01*
X96221039Y-118654419D01*
X96612146Y-118982597D01*
X97059548Y-119228558D01*
X97546203Y-119382934D01*
X98053575Y-119439845D01*
X98090100Y-119440100D01*
X100402518Y-119440100D01*
X100422309Y-119459891D01*
X100502916Y-119526103D01*
X100576555Y-119602358D01*
X100701304Y-119689061D01*
X100816831Y-119783956D01*
X100908769Y-119833253D01*
X100995812Y-119893749D01*
X101135024Y-119954569D01*
X101266784Y-120025218D01*
X101366545Y-120055718D01*
X101463682Y-120098156D01*
X101612056Y-120130778D01*
X101755028Y-120174489D01*
X101858812Y-120185031D01*
X101962344Y-120207794D01*
X102114231Y-120210976D01*
X102262969Y-120226084D01*
X102366823Y-120216267D01*
X102472804Y-120218487D01*
X102622415Y-120192107D01*
X102771256Y-120178037D01*
X102871228Y-120148234D01*
X102931681Y-120137575D01*
X103683154Y-120889047D01*
X103777445Y-120966499D01*
X103870892Y-121044910D01*
X103876976Y-121048254D01*
X103882345Y-121052665D01*
X103989897Y-121110333D01*
X104096782Y-121169094D01*
X104103402Y-121171194D01*
X104109523Y-121174476D01*
X104226190Y-121210145D01*
X104342490Y-121247037D01*
X104349393Y-121247811D01*
X104356035Y-121249842D01*
X104477430Y-121262173D01*
X104598659Y-121275771D01*
X104612234Y-121275866D01*
X104612490Y-121275892D01*
X104612729Y-121275869D01*
X104617100Y-121275900D01*
X129814100Y-121275900D01*
X129935528Y-121263994D01*
X130057063Y-121253361D01*
X130063730Y-121251424D01*
X130070645Y-121250746D01*
X130187451Y-121215480D01*
X130304603Y-121181444D01*
X130310771Y-121178247D01*
X130317418Y-121176240D01*
X130425130Y-121118968D01*
X130533459Y-121062816D01*
X130538887Y-121058483D01*
X130545020Y-121055222D01*
X130639584Y-120978098D01*
X130734916Y-120901995D01*
X130744584Y-120892461D01*
X130744781Y-120892301D01*
X130744931Y-120892119D01*
X130748047Y-120889047D01*
X132356741Y-119280353D01*
X132643555Y-119577358D01*
X133062812Y-119868749D01*
X133530682Y-120073156D01*
X134029344Y-120182794D01*
X134539804Y-120193487D01*
X135042620Y-120104827D01*
X135518639Y-119920191D01*
X135949730Y-119646613D01*
X136319472Y-119294512D01*
X136613783Y-118877300D01*
X136821452Y-118410868D01*
X136934568Y-117912984D01*
X136942711Y-117329814D01*
X136843541Y-116828965D01*
X136648977Y-116356917D01*
X136366430Y-115931650D01*
X136006663Y-115569363D01*
X135583379Y-115283854D01*
X135112701Y-115085999D01*
X134612557Y-114983334D01*
X134101996Y-114979770D01*
X133600467Y-115075442D01*
X133127073Y-115266705D01*
X132699844Y-115546276D01*
X132335053Y-115903505D01*
X132081097Y-116274399D01*
X132062672Y-116276206D01*
X131941137Y-116286839D01*
X131934470Y-116288776D01*
X131927555Y-116289454D01*
X131810749Y-116324720D01*
X131693597Y-116358756D01*
X131687429Y-116361953D01*
X131680782Y-116363960D01*
X131573070Y-116421232D01*
X131464741Y-116477384D01*
X131459313Y-116481717D01*
X131453180Y-116484978D01*
X131358616Y-116562102D01*
X131263284Y-116638205D01*
X131253616Y-116647739D01*
X131253419Y-116647899D01*
X131253269Y-116648081D01*
X131250153Y-116651153D01*
X129267006Y-118634300D01*
X105164193Y-118634300D01*
X104795150Y-118265257D01*
X104832817Y-118145062D01*
X104844084Y-118041351D01*
X104867568Y-117937984D01*
X104869375Y-117808539D01*
X104887957Y-117637495D01*
X104873993Y-117477882D01*
X104875711Y-117354814D01*
X104853341Y-117241837D01*
X104843459Y-117128884D01*
X104804262Y-116993966D01*
X104776541Y-116853965D01*
X104732651Y-116747479D01*
X104701019Y-116638602D01*
X104636364Y-116513870D01*
X104581977Y-116381917D01*
X104518239Y-116285984D01*
X104466062Y-116185324D01*
X104378410Y-116075524D01*
X104299430Y-115956650D01*
X104218274Y-115874926D01*
X104147538Y-115786316D01*
X104121891Y-115760309D01*
X103335891Y-114974309D01*
X103149164Y-114820929D01*
X102964054Y-114665603D01*
X102952002Y-114658978D01*
X102941370Y-114650244D01*
X102728383Y-114536042D01*
X102516652Y-114419642D01*
X102503539Y-114415482D01*
X102491416Y-114408982D01*
X102260338Y-114338335D01*
X102029997Y-114265266D01*
X102016326Y-114263733D01*
X102003172Y-114259711D01*
X101762776Y-114235292D01*
X101522625Y-114208355D01*
X101495737Y-114208167D01*
X101495232Y-114208116D01*
X101494762Y-114208160D01*
X101486100Y-114208100D01*
X100423100Y-114208100D01*
X100423100Y-113819009D01*
X103652178Y-113819009D01*
X103744346Y-114321194D01*
X103932300Y-114795913D01*
X104208882Y-115225083D01*
X104563555Y-115592358D01*
X104982812Y-115883749D01*
X105450682Y-116088156D01*
X105949344Y-116197794D01*
X106459804Y-116208487D01*
X106962620Y-116119827D01*
X107438639Y-115935191D01*
X107869730Y-115661613D01*
X108239472Y-115309512D01*
X108533783Y-114892300D01*
X108741452Y-114425868D01*
X108854568Y-113927984D01*
X108862711Y-113344814D01*
X108763541Y-112843965D01*
X108568977Y-112371917D01*
X108286430Y-111946650D01*
X107926663Y-111584363D01*
X107503379Y-111298854D01*
X107032701Y-111100999D01*
X106532557Y-110998334D01*
X106021996Y-110994770D01*
X105520467Y-111090442D01*
X105047073Y-111281705D01*
X104619844Y-111561276D01*
X104255053Y-111918505D01*
X103966597Y-112339786D01*
X103765461Y-112809071D01*
X103659307Y-113308486D01*
X103652178Y-113819009D01*
X100423100Y-113819009D01*
X100423100Y-97411100D01*
X103981100Y-97411100D01*
X103981100Y-105835100D01*
X104004679Y-106075581D01*
X104025741Y-106316317D01*
X104029579Y-106329526D01*
X104030921Y-106343217D01*
X104100760Y-106574534D01*
X104168181Y-106806598D01*
X104174513Y-106818813D01*
X104178488Y-106831980D01*
X104291923Y-107045321D01*
X104403138Y-107259876D01*
X104411720Y-107270627D01*
X104418178Y-107282772D01*
X104570898Y-107470026D01*
X104721662Y-107658884D01*
X104740540Y-107678027D01*
X104740863Y-107678423D01*
X104741230Y-107678726D01*
X104747309Y-107684891D01*
X108062274Y-110999857D01*
X108074125Y-111022525D01*
X108148004Y-111114412D01*
X108212882Y-111215083D01*
X108308831Y-111314441D01*
X108394039Y-111420419D01*
X108484362Y-111496209D01*
X108567555Y-111582358D01*
X108680974Y-111661186D01*
X108785146Y-111748597D01*
X108809286Y-111761868D01*
X112081309Y-115033892D01*
X112268043Y-115187277D01*
X112453146Y-115342597D01*
X112465200Y-115349224D01*
X112475831Y-115357956D01*
X112688796Y-115472146D01*
X112900548Y-115588558D01*
X112913661Y-115592718D01*
X112925784Y-115599218D01*
X113156903Y-115669878D01*
X113387203Y-115742934D01*
X113400869Y-115744467D01*
X113414028Y-115748490D01*
X113654469Y-115772913D01*
X113894575Y-115799845D01*
X113921464Y-115800033D01*
X113921969Y-115800084D01*
X113922439Y-115800040D01*
X113931100Y-115800100D01*
X122802100Y-115800100D01*
X123042581Y-115776521D01*
X123283317Y-115755459D01*
X123296526Y-115751621D01*
X123310217Y-115750279D01*
X123541534Y-115680440D01*
X123773598Y-115613019D01*
X123785813Y-115606687D01*
X123798980Y-115602712D01*
X123998662Y-115496540D01*
X124110598Y-115464019D01*
X124122813Y-115457687D01*
X124135980Y-115453712D01*
X124349321Y-115340277D01*
X124563876Y-115229062D01*
X124574627Y-115220480D01*
X124586772Y-115214022D01*
X124774026Y-115061302D01*
X124962884Y-114910538D01*
X124982027Y-114891660D01*
X124982423Y-114891337D01*
X124982726Y-114890970D01*
X124988891Y-114884891D01*
X125934773Y-113939009D01*
X127587178Y-113939009D01*
X127679346Y-114441194D01*
X127867300Y-114915913D01*
X128143882Y-115345083D01*
X128498555Y-115712358D01*
X128917812Y-116003749D01*
X129385682Y-116208156D01*
X129884344Y-116317794D01*
X130394804Y-116328487D01*
X130897620Y-116239827D01*
X131373639Y-116055191D01*
X131804730Y-115781613D01*
X132174472Y-115429512D01*
X132468783Y-115012300D01*
X132676452Y-114545868D01*
X132789568Y-114047984D01*
X132797711Y-113464814D01*
X132698541Y-112963965D01*
X132503977Y-112491917D01*
X132221430Y-112066650D01*
X131861663Y-111704363D01*
X131438379Y-111418854D01*
X130967701Y-111220999D01*
X130467557Y-111118334D01*
X129956996Y-111114770D01*
X129455467Y-111210442D01*
X128982073Y-111401705D01*
X128554844Y-111681276D01*
X128190053Y-112038505D01*
X127901597Y-112459786D01*
X127700461Y-112929071D01*
X127594307Y-113428486D01*
X127587178Y-113939009D01*
X125934773Y-113939009D01*
X129038682Y-110835100D01*
X133685208Y-110835100D01*
X134018654Y-111168546D01*
X134363409Y-111451730D01*
X134756601Y-111662558D01*
X135183255Y-111793000D01*
X135627120Y-111838086D01*
X136071289Y-111796100D01*
X136498844Y-111668640D01*
X136893499Y-111460562D01*
X137240222Y-111179791D01*
X137525807Y-110837022D01*
X137739374Y-110445311D01*
X137872791Y-110019577D01*
X137920975Y-109576039D01*
X137882090Y-109131588D01*
X137757618Y-108703153D01*
X137552300Y-108307055D01*
X137273958Y-107958381D01*
X137251546Y-107935654D01*
X136248546Y-106932654D01*
X136085407Y-106798650D01*
X135923615Y-106662891D01*
X135913077Y-106657098D01*
X135903791Y-106649470D01*
X135717724Y-106549701D01*
X135532651Y-106447957D01*
X135521192Y-106444322D01*
X135510599Y-106438642D01*
X135308643Y-106376898D01*
X135107386Y-106313055D01*
X135095443Y-106311715D01*
X135083945Y-106308200D01*
X134873834Y-106286858D01*
X134664018Y-106263323D01*
X134640521Y-106263159D01*
X134640080Y-106263114D01*
X134639669Y-106263153D01*
X134632100Y-106263100D01*
X128679122Y-106263100D01*
X128446841Y-106137506D01*
X127959120Y-105986531D01*
X127451363Y-105933164D01*
X126942910Y-105979437D01*
X126453129Y-106123587D01*
X126000675Y-106360125D01*
X125602781Y-106680039D01*
X125274603Y-107071146D01*
X125152666Y-107292948D01*
X125078021Y-107341795D01*
X124969324Y-107398138D01*
X124866577Y-107480160D01*
X124754844Y-107553276D01*
X124665999Y-107640279D01*
X124570316Y-107716662D01*
X124544309Y-107742309D01*
X121867518Y-110419100D01*
X120620380Y-110419100D01*
X120697339Y-110080364D01*
X120705208Y-109516793D01*
X120609370Y-109032777D01*
X120421345Y-108576594D01*
X120148295Y-108165620D01*
X119800619Y-107815508D01*
X119391561Y-107539595D01*
X118936701Y-107348390D01*
X118453366Y-107249176D01*
X117959965Y-107245731D01*
X117475292Y-107338187D01*
X117017807Y-107523023D01*
X116604937Y-107793198D01*
X116252406Y-108138421D01*
X115973644Y-108545543D01*
X115779268Y-108999056D01*
X115676682Y-109481687D01*
X115669793Y-109975052D01*
X115751291Y-110419100D01*
X114880683Y-110419100D01*
X109213100Y-104751518D01*
X109213100Y-104056888D01*
X109406851Y-104141536D01*
X109888754Y-104247490D01*
X110382059Y-104257823D01*
X110867976Y-104172143D01*
X111327997Y-103993712D01*
X111744599Y-103729328D01*
X112101915Y-103389061D01*
X112386334Y-102985871D01*
X112587024Y-102535116D01*
X112696339Y-102053964D01*
X112697809Y-101948652D01*
X123670793Y-101948652D01*
X123759863Y-102433959D01*
X123941501Y-102892723D01*
X124208787Y-103307470D01*
X124551540Y-103662401D01*
X124956706Y-103943999D01*
X125408851Y-104141536D01*
X125890754Y-104247490D01*
X126384059Y-104257823D01*
X126869976Y-104172143D01*
X127329997Y-103993712D01*
X127746599Y-103729328D01*
X128103915Y-103389061D01*
X128388334Y-102985871D01*
X128589024Y-102535116D01*
X128698339Y-102053964D01*
X128706208Y-101490393D01*
X128610370Y-101006377D01*
X128422345Y-100550194D01*
X128149295Y-100139220D01*
X127801619Y-99789108D01*
X127392561Y-99513195D01*
X126937701Y-99321990D01*
X126454366Y-99222776D01*
X125960965Y-99219331D01*
X125476292Y-99311787D01*
X125018807Y-99496623D01*
X124605937Y-99766798D01*
X124253406Y-100112021D01*
X123974644Y-100519143D01*
X123780268Y-100972656D01*
X123677682Y-101455287D01*
X123670793Y-101948652D01*
X112697809Y-101948652D01*
X112704208Y-101490393D01*
X112608370Y-101006377D01*
X112420345Y-100550194D01*
X112147295Y-100139220D01*
X111799619Y-99789108D01*
X111390561Y-99513195D01*
X110935701Y-99321990D01*
X110452366Y-99222776D01*
X109958965Y-99219331D01*
X109474292Y-99311787D01*
X109213100Y-99417315D01*
X109213100Y-98494682D01*
X112247892Y-95459891D01*
X112247897Y-95459885D01*
X114980683Y-92727100D01*
X115884085Y-92727100D01*
X115779268Y-92971656D01*
X115676682Y-93454287D01*
X115669793Y-93947652D01*
X115758863Y-94432959D01*
X115940501Y-94891723D01*
X116207787Y-95306470D01*
X116550540Y-95661401D01*
X116955706Y-95942999D01*
X117407851Y-96140536D01*
X117889754Y-96246490D01*
X118383059Y-96256823D01*
X118868976Y-96171143D01*
X119328997Y-95992712D01*
X119745599Y-95728328D01*
X120102915Y-95388061D01*
X120387334Y-94984871D01*
X120588024Y-94534116D01*
X120697339Y-94052964D01*
X120705208Y-93489393D01*
X120609370Y-93005377D01*
X120494673Y-92727100D01*
X122244518Y-92727100D01*
X123781171Y-94263753D01*
X123791346Y-94319194D01*
X123845579Y-94456171D01*
X123887488Y-94594980D01*
X123938587Y-94691083D01*
X123979300Y-94793913D01*
X124059107Y-94917749D01*
X124127178Y-95045772D01*
X124195974Y-95130124D01*
X124255882Y-95223083D01*
X124358218Y-95329055D01*
X124449863Y-95441423D01*
X124533733Y-95510806D01*
X124610555Y-95590358D01*
X124731526Y-95674435D01*
X124843251Y-95766862D01*
X124939002Y-95818634D01*
X125029812Y-95881749D01*
X125164806Y-95940726D01*
X125292359Y-96009694D01*
X125396345Y-96041883D01*
X125497682Y-96086156D01*
X125641558Y-96117789D01*
X125780080Y-96160669D01*
X125888338Y-96172047D01*
X125996344Y-96195794D01*
X126143630Y-96198879D01*
X126287837Y-96214036D01*
X126396236Y-96204171D01*
X126506804Y-96206487D01*
X126651890Y-96180905D01*
X126796290Y-96167763D01*
X126900709Y-96137031D01*
X127009620Y-96117827D01*
X127146968Y-96064553D01*
X127286071Y-96023613D01*
X127382536Y-95973182D01*
X127485639Y-95933191D01*
X127610025Y-95854253D01*
X127738525Y-95787075D01*
X127823353Y-95718872D01*
X127916730Y-95659613D01*
X128023414Y-95558019D01*
X128136419Y-95467161D01*
X128206389Y-95383774D01*
X128286472Y-95307512D01*
X128371388Y-95187136D01*
X128464597Y-95076054D01*
X128517038Y-94980665D01*
X128580783Y-94890300D01*
X128640702Y-94755720D01*
X128710558Y-94628652D01*
X128743471Y-94524897D01*
X128788452Y-94423868D01*
X128821090Y-94280211D01*
X128864934Y-94141997D01*
X128877068Y-94033823D01*
X128901568Y-93925984D01*
X128903332Y-93799674D01*
X128921845Y-93634625D01*
X128922100Y-93598100D01*
X128922100Y-93089100D01*
X128898521Y-92848619D01*
X128877459Y-92607883D01*
X128873621Y-92594674D01*
X128872279Y-92580983D01*
X128802440Y-92349666D01*
X128735019Y-92117602D01*
X128728687Y-92105387D01*
X128724712Y-92092220D01*
X128611277Y-91878879D01*
X128500062Y-91664324D01*
X128491480Y-91653573D01*
X128485022Y-91641428D01*
X128332302Y-91454174D01*
X128181538Y-91265316D01*
X128162660Y-91246173D01*
X128162337Y-91245777D01*
X128161970Y-91245474D01*
X128155891Y-91239309D01*
X126811591Y-89895009D01*
X127718178Y-89895009D01*
X127810346Y-90397194D01*
X127998300Y-90871913D01*
X128274882Y-91301083D01*
X128629555Y-91668358D01*
X129048812Y-91959749D01*
X129516682Y-92164156D01*
X130015344Y-92273794D01*
X130525804Y-92284487D01*
X131028620Y-92195827D01*
X131504639Y-92011191D01*
X131935730Y-91737613D01*
X132305472Y-91385512D01*
X132599783Y-90968300D01*
X132807452Y-90501868D01*
X132920568Y-90003984D01*
X132928711Y-89420814D01*
X132829541Y-88919965D01*
X132634977Y-88447917D01*
X132352430Y-88022650D01*
X131992663Y-87660363D01*
X131569379Y-87374854D01*
X131098701Y-87176999D01*
X130598557Y-87074334D01*
X130087996Y-87070770D01*
X129586467Y-87166442D01*
X129113073Y-87357705D01*
X128685844Y-87637276D01*
X128321053Y-87994505D01*
X128032597Y-88415786D01*
X127831461Y-88885071D01*
X127725307Y-89384486D01*
X127718178Y-89895009D01*
X126811591Y-89895009D01*
X125177891Y-88261309D01*
X124991164Y-88107929D01*
X124806054Y-87952603D01*
X124794002Y-87945978D01*
X124783370Y-87937244D01*
X124570383Y-87823042D01*
X124358652Y-87706642D01*
X124345539Y-87702482D01*
X124333416Y-87695982D01*
X124102338Y-87625335D01*
X123871997Y-87552266D01*
X123858326Y-87550733D01*
X123845172Y-87546711D01*
X123604776Y-87522292D01*
X123364625Y-87495355D01*
X123337737Y-87495167D01*
X123337232Y-87495116D01*
X123336762Y-87495160D01*
X123328100Y-87495100D01*
X113897100Y-87495100D01*
X113656619Y-87518679D01*
X113415883Y-87539741D01*
X113402674Y-87543579D01*
X113388983Y-87544921D01*
X113157666Y-87614760D01*
X112925602Y-87682181D01*
X112913387Y-87688513D01*
X112900220Y-87692488D01*
X112686879Y-87805923D01*
X112472324Y-87917138D01*
X112461573Y-87925720D01*
X112449428Y-87932178D01*
X112262174Y-88084898D01*
X112073316Y-88235662D01*
X112054169Y-88254544D01*
X112053777Y-88254863D01*
X112053477Y-88255226D01*
X112047308Y-88261309D01*
X108548381Y-91760237D01*
X108548309Y-91760308D01*
X104747309Y-95561309D01*
X104593929Y-95748036D01*
X104438603Y-95933146D01*
X104431978Y-95945198D01*
X104423244Y-95955830D01*
X104309042Y-96168817D01*
X104192642Y-96380548D01*
X104188482Y-96393661D01*
X104181982Y-96405784D01*
X104111335Y-96636862D01*
X104038266Y-96867203D01*
X104036733Y-96880874D01*
X104032711Y-96894028D01*
X104008292Y-97134424D01*
X103981355Y-97374575D01*
X103981167Y-97401463D01*
X103981116Y-97401968D01*
X103981160Y-97402438D01*
X103981100Y-97411100D01*
X100423100Y-97411100D01*
X100423100Y-91478682D01*
X100790891Y-91110891D01*
X100804689Y-91094093D01*
X102008773Y-89890009D01*
X103714178Y-89890009D01*
X103806346Y-90392194D01*
X103994300Y-90866913D01*
X104270882Y-91296083D01*
X104625555Y-91663358D01*
X105044812Y-91954749D01*
X105512682Y-92159156D01*
X106011344Y-92268794D01*
X106521804Y-92279487D01*
X107024620Y-92190827D01*
X107500639Y-92006191D01*
X107931730Y-91732613D01*
X108301472Y-91380512D01*
X108595783Y-90963300D01*
X108803452Y-90496868D01*
X108916568Y-89998984D01*
X108924711Y-89415814D01*
X108825541Y-88914965D01*
X108630977Y-88442917D01*
X108348430Y-88017650D01*
X107988663Y-87655363D01*
X107565379Y-87369854D01*
X107094701Y-87171999D01*
X106594557Y-87069334D01*
X106083996Y-87065770D01*
X105582467Y-87161442D01*
X105109073Y-87352705D01*
X104681844Y-87632276D01*
X104317053Y-87989505D01*
X104028597Y-88410786D01*
X103827461Y-88880071D01*
X103721307Y-89379486D01*
X103714178Y-89890009D01*
X102008773Y-89890009D01*
X104249892Y-87648891D01*
X104403277Y-87462157D01*
X104558597Y-87277054D01*
X104565224Y-87265000D01*
X104573956Y-87254369D01*
X104620827Y-87166955D01*
X107870683Y-83917100D01*
X128902518Y-83917100D01*
X132438309Y-87452892D01*
X132518920Y-87519106D01*
X132592555Y-87595358D01*
X132709754Y-87676814D01*
X132817691Y-87766743D01*
X132825740Y-87771132D01*
X132832831Y-87776956D01*
X132924769Y-87826253D01*
X133011812Y-87886749D01*
X133142591Y-87943885D01*
X133265947Y-88011141D01*
X133274703Y-88013885D01*
X133282784Y-88018218D01*
X133382545Y-88048718D01*
X133479682Y-88091156D01*
X133619075Y-88121803D01*
X133753138Y-88163816D01*
X133762253Y-88164806D01*
X133771028Y-88167489D01*
X133874812Y-88178031D01*
X133978344Y-88200794D01*
X134121029Y-88203783D01*
X134260705Y-88218957D01*
X134269846Y-88218157D01*
X134278969Y-88219084D01*
X134382823Y-88209267D01*
X134488804Y-88211487D01*
X134629354Y-88186704D01*
X134769317Y-88174459D01*
X134778125Y-88171900D01*
X134787256Y-88171037D01*
X134887228Y-88141234D01*
X134991620Y-88122827D01*
X135124680Y-88071216D01*
X135259598Y-88032019D01*
X135267738Y-88027800D01*
X135276532Y-88025178D01*
X135368816Y-87976522D01*
X135467639Y-87938191D01*
X135588139Y-87861719D01*
X135712876Y-87797062D01*
X135720043Y-87791340D01*
X135728158Y-87787062D01*
X135809229Y-87721412D01*
X135898730Y-87664613D01*
X136002084Y-87566190D01*
X136111884Y-87478538D01*
X136124425Y-87466170D01*
X136124932Y-87465760D01*
X136125350Y-87465259D01*
X136137891Y-87452891D01*
X139545891Y-84044891D01*
X139699252Y-83858186D01*
X139854597Y-83673054D01*
X139861224Y-83660999D01*
X139869956Y-83650369D01*
X139984146Y-83437404D01*
X140100558Y-83225652D01*
X140104718Y-83212539D01*
X140111218Y-83200416D01*
X140181865Y-82969338D01*
X140254934Y-82738997D01*
X140256467Y-82725326D01*
X140260489Y-82712172D01*
X140284907Y-82471781D01*
X140311845Y-82231625D01*
X140312033Y-82204736D01*
X140312084Y-82204231D01*
X140312040Y-82203761D01*
X140312100Y-82195100D01*
X140312100Y-81301100D01*
X140262279Y-80792983D01*
X140114712Y-80304220D01*
X139875022Y-79853428D01*
X139552337Y-79457777D01*
X139158949Y-79132338D01*
X138955205Y-79022174D01*
X144819647Y-79034255D01*
X144819647Y-79034255D01*
G37*
X144819647Y-79034255D02*
X144828702Y-84411737D01*
X144838174Y-84506694D01*
X144845710Y-84601798D01*
X144848730Y-84612519D01*
X144849836Y-84623611D01*
X144877576Y-84714935D01*
X144903436Y-84806749D01*
X144908481Y-84816681D01*
X144911721Y-84827346D01*
X144956669Y-84911537D01*
X144999873Y-84996584D01*
X145006753Y-85005348D01*
X145012001Y-85015179D01*
X145072430Y-85089019D01*
X145131345Y-85164073D01*
X145139797Y-85171335D01*
X145146854Y-85179958D01*
X145220456Y-85240639D01*
X145292845Y-85302836D01*
X145302550Y-85308320D01*
X145311145Y-85315406D01*
X145395128Y-85360633D01*
X145478222Y-85407587D01*
X145488806Y-85411081D01*
X145498614Y-85416363D01*
X145589805Y-85444423D01*
X145680415Y-85474336D01*
X145691472Y-85475707D01*
X145702124Y-85478985D01*
X145797007Y-85488796D01*
X145891722Y-85500542D01*
X145906953Y-85500826D01*
X146024708Y-85502202D01*
X146080962Y-87779318D01*
X146090402Y-87835713D01*
X146115180Y-87887244D01*
X146153333Y-87929832D01*
X146201841Y-87960105D01*
X146274650Y-87977280D01*
X146991790Y-88010667D01*
X146901158Y-118279315D01*
X146018281Y-118280301D01*
X145914484Y-118290595D01*
X145810906Y-118300427D01*
X145808696Y-118301087D01*
X145806395Y-118301315D01*
X145706643Y-118331553D01*
X145606878Y-118361337D01*
X145604836Y-118362415D01*
X145602625Y-118363085D01*
X145510684Y-118412103D01*
X145418568Y-118460717D01*
X145416774Y-118462171D01*
X145414735Y-118463258D01*
X145334060Y-118529205D01*
X145253145Y-118594781D01*
X145251667Y-118596556D01*
X145249880Y-118598017D01*
X145183606Y-118678311D01*
X145116914Y-118758422D01*
X145115808Y-118760452D01*
X145114339Y-118762232D01*
X145064910Y-118853893D01*
X145015061Y-118945407D01*
X145014371Y-118947611D01*
X145013275Y-118949644D01*
X144982590Y-119049167D01*
X144951468Y-119148614D01*
X144951219Y-119150911D01*
X144950539Y-119153118D01*
X144939775Y-119256643D01*
X144928555Y-119360304D01*
X144928541Y-119364686D01*
X144928519Y-119364902D01*
X144928540Y-119365131D01*
X144928508Y-119375537D01*
X144967508Y-129417138D01*
X144989109Y-129628965D01*
X145051442Y-129832563D01*
X145152135Y-130020175D01*
X145287350Y-130184657D01*
X145451938Y-130319743D01*
X145639629Y-130420288D01*
X145745787Y-130452698D01*
X145776583Y-131804900D01*
X91975100Y-131804900D01*
X91975100Y-112436086D01*
X92125371Y-112469125D01*
X92545150Y-112477918D01*
X92958643Y-112405008D01*
X93350099Y-112253173D01*
X93704609Y-112028194D01*
X94008668Y-111738642D01*
X94250696Y-111395546D01*
X94421473Y-111011974D01*
X94514495Y-110602537D01*
X94521191Y-110122964D01*
X94439638Y-109711089D01*
X94279637Y-109322898D01*
X94047284Y-108973178D01*
X93751428Y-108675249D01*
X93403338Y-108440460D01*
X93016274Y-108277753D01*
X92604978Y-108193326D01*
X92185117Y-108190395D01*
X91975100Y-108230458D01*
X91975100Y-104702086D01*
X92125371Y-104735125D01*
X92545150Y-104743918D01*
X92958643Y-104671008D01*
X93350099Y-104519173D01*
X93704609Y-104294194D01*
X94008668Y-104004642D01*
X94250696Y-103661546D01*
X94421473Y-103277974D01*
X94514495Y-102868537D01*
X94521191Y-102388964D01*
X94439638Y-101977089D01*
X94279637Y-101588898D01*
X94047284Y-101239178D01*
X93751428Y-100941249D01*
X93403338Y-100706460D01*
X93016274Y-100543753D01*
X92604978Y-100459326D01*
X92185117Y-100456395D01*
X91975100Y-100496458D01*
X91975100Y-91700815D01*
X95191100Y-91700815D01*
X95191100Y-115690100D01*
X95214679Y-115930581D01*
X95235741Y-116171317D01*
X95239579Y-116184526D01*
X95240921Y-116198217D01*
X95310760Y-116429534D01*
X95378181Y-116661598D01*
X95384513Y-116673813D01*
X95388488Y-116686980D01*
X95478806Y-116856844D01*
X95520437Y-117314290D01*
X95664587Y-117804071D01*
X95901125Y-118256525D01*
X96221039Y-118654419D01*
X96612146Y-118982597D01*
X97059548Y-119228558D01*
X97546203Y-119382934D01*
X98053575Y-119439845D01*
X98090100Y-119440100D01*
X100402518Y-119440100D01*
X100422309Y-119459891D01*
X100502916Y-119526103D01*
X100576555Y-119602358D01*
X100701304Y-119689061D01*
X100816831Y-119783956D01*
X100908769Y-119833253D01*
X100995812Y-119893749D01*
X101135024Y-119954569D01*
X101266784Y-120025218D01*
X101366545Y-120055718D01*
X101463682Y-120098156D01*
X101612056Y-120130778D01*
X101755028Y-120174489D01*
X101858812Y-120185031D01*
X101962344Y-120207794D01*
X102114231Y-120210976D01*
X102262969Y-120226084D01*
X102366823Y-120216267D01*
X102472804Y-120218487D01*
X102622415Y-120192107D01*
X102771256Y-120178037D01*
X102871228Y-120148234D01*
X102931681Y-120137575D01*
X103683154Y-120889047D01*
X103777445Y-120966499D01*
X103870892Y-121044910D01*
X103876976Y-121048254D01*
X103882345Y-121052665D01*
X103989897Y-121110333D01*
X104096782Y-121169094D01*
X104103402Y-121171194D01*
X104109523Y-121174476D01*
X104226190Y-121210145D01*
X104342490Y-121247037D01*
X104349393Y-121247811D01*
X104356035Y-121249842D01*
X104477430Y-121262173D01*
X104598659Y-121275771D01*
X104612234Y-121275866D01*
X104612490Y-121275892D01*
X104612729Y-121275869D01*
X104617100Y-121275900D01*
X129814100Y-121275900D01*
X129935528Y-121263994D01*
X130057063Y-121253361D01*
X130063730Y-121251424D01*
X130070645Y-121250746D01*
X130187451Y-121215480D01*
X130304603Y-121181444D01*
X130310771Y-121178247D01*
X130317418Y-121176240D01*
X130425130Y-121118968D01*
X130533459Y-121062816D01*
X130538887Y-121058483D01*
X130545020Y-121055222D01*
X130639584Y-120978098D01*
X130734916Y-120901995D01*
X130744584Y-120892461D01*
X130744781Y-120892301D01*
X130744931Y-120892119D01*
X130748047Y-120889047D01*
X132356741Y-119280353D01*
X132643555Y-119577358D01*
X133062812Y-119868749D01*
X133530682Y-120073156D01*
X134029344Y-120182794D01*
X134539804Y-120193487D01*
X135042620Y-120104827D01*
X135518639Y-119920191D01*
X135949730Y-119646613D01*
X136319472Y-119294512D01*
X136613783Y-118877300D01*
X136821452Y-118410868D01*
X136934568Y-117912984D01*
X136942711Y-117329814D01*
X136843541Y-116828965D01*
X136648977Y-116356917D01*
X136366430Y-115931650D01*
X136006663Y-115569363D01*
X135583379Y-115283854D01*
X135112701Y-115085999D01*
X134612557Y-114983334D01*
X134101996Y-114979770D01*
X133600467Y-115075442D01*
X133127073Y-115266705D01*
X132699844Y-115546276D01*
X132335053Y-115903505D01*
X132081097Y-116274399D01*
X132062672Y-116276206D01*
X131941137Y-116286839D01*
X131934470Y-116288776D01*
X131927555Y-116289454D01*
X131810749Y-116324720D01*
X131693597Y-116358756D01*
X131687429Y-116361953D01*
X131680782Y-116363960D01*
X131573070Y-116421232D01*
X131464741Y-116477384D01*
X131459313Y-116481717D01*
X131453180Y-116484978D01*
X131358616Y-116562102D01*
X131263284Y-116638205D01*
X131253616Y-116647739D01*
X131253419Y-116647899D01*
X131253269Y-116648081D01*
X131250153Y-116651153D01*
X129267006Y-118634300D01*
X105164193Y-118634300D01*
X104795150Y-118265257D01*
X104832817Y-118145062D01*
X104844084Y-118041351D01*
X104867568Y-117937984D01*
X104869375Y-117808539D01*
X104887957Y-117637495D01*
X104873993Y-117477882D01*
X104875711Y-117354814D01*
X104853341Y-117241837D01*
X104843459Y-117128884D01*
X104804262Y-116993966D01*
X104776541Y-116853965D01*
X104732651Y-116747479D01*
X104701019Y-116638602D01*
X104636364Y-116513870D01*
X104581977Y-116381917D01*
X104518239Y-116285984D01*
X104466062Y-116185324D01*
X104378410Y-116075524D01*
X104299430Y-115956650D01*
X104218274Y-115874926D01*
X104147538Y-115786316D01*
X104121891Y-115760309D01*
X103335891Y-114974309D01*
X103149164Y-114820929D01*
X102964054Y-114665603D01*
X102952002Y-114658978D01*
X102941370Y-114650244D01*
X102728383Y-114536042D01*
X102516652Y-114419642D01*
X102503539Y-114415482D01*
X102491416Y-114408982D01*
X102260338Y-114338335D01*
X102029997Y-114265266D01*
X102016326Y-114263733D01*
X102003172Y-114259711D01*
X101762776Y-114235292D01*
X101522625Y-114208355D01*
X101495737Y-114208167D01*
X101495232Y-114208116D01*
X101494762Y-114208160D01*
X101486100Y-114208100D01*
X100423100Y-114208100D01*
X100423100Y-113819009D01*
X103652178Y-113819009D01*
X103744346Y-114321194D01*
X103932300Y-114795913D01*
X104208882Y-115225083D01*
X104563555Y-115592358D01*
X104982812Y-115883749D01*
X105450682Y-116088156D01*
X105949344Y-116197794D01*
X106459804Y-116208487D01*
X106962620Y-116119827D01*
X107438639Y-115935191D01*
X107869730Y-115661613D01*
X108239472Y-115309512D01*
X108533783Y-114892300D01*
X108741452Y-114425868D01*
X108854568Y-113927984D01*
X108862711Y-113344814D01*
X108763541Y-112843965D01*
X108568977Y-112371917D01*
X108286430Y-111946650D01*
X107926663Y-111584363D01*
X107503379Y-111298854D01*
X107032701Y-111100999D01*
X106532557Y-110998334D01*
X106021996Y-110994770D01*
X105520467Y-111090442D01*
X105047073Y-111281705D01*
X104619844Y-111561276D01*
X104255053Y-111918505D01*
X103966597Y-112339786D01*
X103765461Y-112809071D01*
X103659307Y-113308486D01*
X103652178Y-113819009D01*
X100423100Y-113819009D01*
X100423100Y-97411100D01*
X103981100Y-97411100D01*
X103981100Y-105835100D01*
X104004679Y-106075581D01*
X104025741Y-106316317D01*
X104029579Y-106329526D01*
X104030921Y-106343217D01*
X104100760Y-106574534D01*
X104168181Y-106806598D01*
X104174513Y-106818813D01*
X104178488Y-106831980D01*
X104291923Y-107045321D01*
X104403138Y-107259876D01*
X104411720Y-107270627D01*
X104418178Y-107282772D01*
X104570898Y-107470026D01*
X104721662Y-107658884D01*
X104740540Y-107678027D01*
X104740863Y-107678423D01*
X104741230Y-107678726D01*
X104747309Y-107684891D01*
X108062274Y-110999857D01*
X108074125Y-111022525D01*
X108148004Y-111114412D01*
X108212882Y-111215083D01*
X108308831Y-111314441D01*
X108394039Y-111420419D01*
X108484362Y-111496209D01*
X108567555Y-111582358D01*
X108680974Y-111661186D01*
X108785146Y-111748597D01*
X108809286Y-111761868D01*
X112081309Y-115033892D01*
X112268043Y-115187277D01*
X112453146Y-115342597D01*
X112465200Y-115349224D01*
X112475831Y-115357956D01*
X112688796Y-115472146D01*
X112900548Y-115588558D01*
X112913661Y-115592718D01*
X112925784Y-115599218D01*
X113156903Y-115669878D01*
X113387203Y-115742934D01*
X113400869Y-115744467D01*
X113414028Y-115748490D01*
X113654469Y-115772913D01*
X113894575Y-115799845D01*
X113921464Y-115800033D01*
X113921969Y-115800084D01*
X113922439Y-115800040D01*
X113931100Y-115800100D01*
X122802100Y-115800100D01*
X123042581Y-115776521D01*
X123283317Y-115755459D01*
X123296526Y-115751621D01*
X123310217Y-115750279D01*
X123541534Y-115680440D01*
X123773598Y-115613019D01*
X123785813Y-115606687D01*
X123798980Y-115602712D01*
X123998662Y-115496540D01*
X124110598Y-115464019D01*
X124122813Y-115457687D01*
X124135980Y-115453712D01*
X124349321Y-115340277D01*
X124563876Y-115229062D01*
X124574627Y-115220480D01*
X124586772Y-115214022D01*
X124774026Y-115061302D01*
X124962884Y-114910538D01*
X124982027Y-114891660D01*
X124982423Y-114891337D01*
X124982726Y-114890970D01*
X124988891Y-114884891D01*
X125934773Y-113939009D01*
X127587178Y-113939009D01*
X127679346Y-114441194D01*
X127867300Y-114915913D01*
X128143882Y-115345083D01*
X128498555Y-115712358D01*
X128917812Y-116003749D01*
X129385682Y-116208156D01*
X129884344Y-116317794D01*
X130394804Y-116328487D01*
X130897620Y-116239827D01*
X131373639Y-116055191D01*
X131804730Y-115781613D01*
X132174472Y-115429512D01*
X132468783Y-115012300D01*
X132676452Y-114545868D01*
X132789568Y-114047984D01*
X132797711Y-113464814D01*
X132698541Y-112963965D01*
X132503977Y-112491917D01*
X132221430Y-112066650D01*
X131861663Y-111704363D01*
X131438379Y-111418854D01*
X130967701Y-111220999D01*
X130467557Y-111118334D01*
X129956996Y-111114770D01*
X129455467Y-111210442D01*
X128982073Y-111401705D01*
X128554844Y-111681276D01*
X128190053Y-112038505D01*
X127901597Y-112459786D01*
X127700461Y-112929071D01*
X127594307Y-113428486D01*
X127587178Y-113939009D01*
X125934773Y-113939009D01*
X129038682Y-110835100D01*
X133685208Y-110835100D01*
X134018654Y-111168546D01*
X134363409Y-111451730D01*
X134756601Y-111662558D01*
X135183255Y-111793000D01*
X135627120Y-111838086D01*
X136071289Y-111796100D01*
X136498844Y-111668640D01*
X136893499Y-111460562D01*
X137240222Y-111179791D01*
X137525807Y-110837022D01*
X137739374Y-110445311D01*
X137872791Y-110019577D01*
X137920975Y-109576039D01*
X137882090Y-109131588D01*
X137757618Y-108703153D01*
X137552300Y-108307055D01*
X137273958Y-107958381D01*
X137251546Y-107935654D01*
X136248546Y-106932654D01*
X136085407Y-106798650D01*
X135923615Y-106662891D01*
X135913077Y-106657098D01*
X135903791Y-106649470D01*
X135717724Y-106549701D01*
X135532651Y-106447957D01*
X135521192Y-106444322D01*
X135510599Y-106438642D01*
X135308643Y-106376898D01*
X135107386Y-106313055D01*
X135095443Y-106311715D01*
X135083945Y-106308200D01*
X134873834Y-106286858D01*
X134664018Y-106263323D01*
X134640521Y-106263159D01*
X134640080Y-106263114D01*
X134639669Y-106263153D01*
X134632100Y-106263100D01*
X128679122Y-106263100D01*
X128446841Y-106137506D01*
X127959120Y-105986531D01*
X127451363Y-105933164D01*
X126942910Y-105979437D01*
X126453129Y-106123587D01*
X126000675Y-106360125D01*
X125602781Y-106680039D01*
X125274603Y-107071146D01*
X125152666Y-107292948D01*
X125078021Y-107341795D01*
X124969324Y-107398138D01*
X124866577Y-107480160D01*
X124754844Y-107553276D01*
X124665999Y-107640279D01*
X124570316Y-107716662D01*
X124544309Y-107742309D01*
X121867518Y-110419100D01*
X120620380Y-110419100D01*
X120697339Y-110080364D01*
X120705208Y-109516793D01*
X120609370Y-109032777D01*
X120421345Y-108576594D01*
X120148295Y-108165620D01*
X119800619Y-107815508D01*
X119391561Y-107539595D01*
X118936701Y-107348390D01*
X118453366Y-107249176D01*
X117959965Y-107245731D01*
X117475292Y-107338187D01*
X117017807Y-107523023D01*
X116604937Y-107793198D01*
X116252406Y-108138421D01*
X115973644Y-108545543D01*
X115779268Y-108999056D01*
X115676682Y-109481687D01*
X115669793Y-109975052D01*
X115751291Y-110419100D01*
X114880683Y-110419100D01*
X109213100Y-104751518D01*
X109213100Y-104056888D01*
X109406851Y-104141536D01*
X109888754Y-104247490D01*
X110382059Y-104257823D01*
X110867976Y-104172143D01*
X111327997Y-103993712D01*
X111744599Y-103729328D01*
X112101915Y-103389061D01*
X112386334Y-102985871D01*
X112587024Y-102535116D01*
X112696339Y-102053964D01*
X112697809Y-101948652D01*
X123670793Y-101948652D01*
X123759863Y-102433959D01*
X123941501Y-102892723D01*
X124208787Y-103307470D01*
X124551540Y-103662401D01*
X124956706Y-103943999D01*
X125408851Y-104141536D01*
X125890754Y-104247490D01*
X126384059Y-104257823D01*
X126869976Y-104172143D01*
X127329997Y-103993712D01*
X127746599Y-103729328D01*
X128103915Y-103389061D01*
X128388334Y-102985871D01*
X128589024Y-102535116D01*
X128698339Y-102053964D01*
X128706208Y-101490393D01*
X128610370Y-101006377D01*
X128422345Y-100550194D01*
X128149295Y-100139220D01*
X127801619Y-99789108D01*
X127392561Y-99513195D01*
X126937701Y-99321990D01*
X126454366Y-99222776D01*
X125960965Y-99219331D01*
X125476292Y-99311787D01*
X125018807Y-99496623D01*
X124605937Y-99766798D01*
X124253406Y-100112021D01*
X123974644Y-100519143D01*
X123780268Y-100972656D01*
X123677682Y-101455287D01*
X123670793Y-101948652D01*
X112697809Y-101948652D01*
X112704208Y-101490393D01*
X112608370Y-101006377D01*
X112420345Y-100550194D01*
X112147295Y-100139220D01*
X111799619Y-99789108D01*
X111390561Y-99513195D01*
X110935701Y-99321990D01*
X110452366Y-99222776D01*
X109958965Y-99219331D01*
X109474292Y-99311787D01*
X109213100Y-99417315D01*
X109213100Y-98494682D01*
X112247892Y-95459891D01*
X112247897Y-95459885D01*
X114980683Y-92727100D01*
X115884085Y-92727100D01*
X115779268Y-92971656D01*
X115676682Y-93454287D01*
X115669793Y-93947652D01*
X115758863Y-94432959D01*
X115940501Y-94891723D01*
X116207787Y-95306470D01*
X116550540Y-95661401D01*
X116955706Y-95942999D01*
X117407851Y-96140536D01*
X117889754Y-96246490D01*
X118383059Y-96256823D01*
X118868976Y-96171143D01*
X119328997Y-95992712D01*
X119745599Y-95728328D01*
X120102915Y-95388061D01*
X120387334Y-94984871D01*
X120588024Y-94534116D01*
X120697339Y-94052964D01*
X120705208Y-93489393D01*
X120609370Y-93005377D01*
X120494673Y-92727100D01*
X122244518Y-92727100D01*
X123781171Y-94263753D01*
X123791346Y-94319194D01*
X123845579Y-94456171D01*
X123887488Y-94594980D01*
X123938587Y-94691083D01*
X123979300Y-94793913D01*
X124059107Y-94917749D01*
X124127178Y-95045772D01*
X124195974Y-95130124D01*
X124255882Y-95223083D01*
X124358218Y-95329055D01*
X124449863Y-95441423D01*
X124533733Y-95510806D01*
X124610555Y-95590358D01*
X124731526Y-95674435D01*
X124843251Y-95766862D01*
X124939002Y-95818634D01*
X125029812Y-95881749D01*
X125164806Y-95940726D01*
X125292359Y-96009694D01*
X125396345Y-96041883D01*
X125497682Y-96086156D01*
X125641558Y-96117789D01*
X125780080Y-96160669D01*
X125888338Y-96172047D01*
X125996344Y-96195794D01*
X126143630Y-96198879D01*
X126287837Y-96214036D01*
X126396236Y-96204171D01*
X126506804Y-96206487D01*
X126651890Y-96180905D01*
X126796290Y-96167763D01*
X126900709Y-96137031D01*
X127009620Y-96117827D01*
X127146968Y-96064553D01*
X127286071Y-96023613D01*
X127382536Y-95973182D01*
X127485639Y-95933191D01*
X127610025Y-95854253D01*
X127738525Y-95787075D01*
X127823353Y-95718872D01*
X127916730Y-95659613D01*
X128023414Y-95558019D01*
X128136419Y-95467161D01*
X128206389Y-95383774D01*
X128286472Y-95307512D01*
X128371388Y-95187136D01*
X128464597Y-95076054D01*
X128517038Y-94980665D01*
X128580783Y-94890300D01*
X128640702Y-94755720D01*
X128710558Y-94628652D01*
X128743471Y-94524897D01*
X128788452Y-94423868D01*
X128821090Y-94280211D01*
X128864934Y-94141997D01*
X128877068Y-94033823D01*
X128901568Y-93925984D01*
X128903332Y-93799674D01*
X128921845Y-93634625D01*
X128922100Y-93598100D01*
X128922100Y-93089100D01*
X128898521Y-92848619D01*
X128877459Y-92607883D01*
X128873621Y-92594674D01*
X128872279Y-92580983D01*
X128802440Y-92349666D01*
X128735019Y-92117602D01*
X128728687Y-92105387D01*
X128724712Y-92092220D01*
X128611277Y-91878879D01*
X128500062Y-91664324D01*
X128491480Y-91653573D01*
X128485022Y-91641428D01*
X128332302Y-91454174D01*
X128181538Y-91265316D01*
X128162660Y-91246173D01*
X128162337Y-91245777D01*
X128161970Y-91245474D01*
X128155891Y-91239309D01*
X126811591Y-89895009D01*
X127718178Y-89895009D01*
X127810346Y-90397194D01*
X127998300Y-90871913D01*
X128274882Y-91301083D01*
X128629555Y-91668358D01*
X129048812Y-91959749D01*
X129516682Y-92164156D01*
X130015344Y-92273794D01*
X130525804Y-92284487D01*
X131028620Y-92195827D01*
X131504639Y-92011191D01*
X131935730Y-91737613D01*
X132305472Y-91385512D01*
X132599783Y-90968300D01*
X132807452Y-90501868D01*
X132920568Y-90003984D01*
X132928711Y-89420814D01*
X132829541Y-88919965D01*
X132634977Y-88447917D01*
X132352430Y-88022650D01*
X131992663Y-87660363D01*
X131569379Y-87374854D01*
X131098701Y-87176999D01*
X130598557Y-87074334D01*
X130087996Y-87070770D01*
X129586467Y-87166442D01*
X129113073Y-87357705D01*
X128685844Y-87637276D01*
X128321053Y-87994505D01*
X128032597Y-88415786D01*
X127831461Y-88885071D01*
X127725307Y-89384486D01*
X127718178Y-89895009D01*
X126811591Y-89895009D01*
X125177891Y-88261309D01*
X124991164Y-88107929D01*
X124806054Y-87952603D01*
X124794002Y-87945978D01*
X124783370Y-87937244D01*
X124570383Y-87823042D01*
X124358652Y-87706642D01*
X124345539Y-87702482D01*
X124333416Y-87695982D01*
X124102338Y-87625335D01*
X123871997Y-87552266D01*
X123858326Y-87550733D01*
X123845172Y-87546711D01*
X123604776Y-87522292D01*
X123364625Y-87495355D01*
X123337737Y-87495167D01*
X123337232Y-87495116D01*
X123336762Y-87495160D01*
X123328100Y-87495100D01*
X113897100Y-87495100D01*
X113656619Y-87518679D01*
X113415883Y-87539741D01*
X113402674Y-87543579D01*
X113388983Y-87544921D01*
X113157666Y-87614760D01*
X112925602Y-87682181D01*
X112913387Y-87688513D01*
X112900220Y-87692488D01*
X112686879Y-87805923D01*
X112472324Y-87917138D01*
X112461573Y-87925720D01*
X112449428Y-87932178D01*
X112262174Y-88084898D01*
X112073316Y-88235662D01*
X112054169Y-88254544D01*
X112053777Y-88254863D01*
X112053477Y-88255226D01*
X112047308Y-88261309D01*
X108548381Y-91760237D01*
X108548309Y-91760308D01*
X104747309Y-95561309D01*
X104593929Y-95748036D01*
X104438603Y-95933146D01*
X104431978Y-95945198D01*
X104423244Y-95955830D01*
X104309042Y-96168817D01*
X104192642Y-96380548D01*
X104188482Y-96393661D01*
X104181982Y-96405784D01*
X104111335Y-96636862D01*
X104038266Y-96867203D01*
X104036733Y-96880874D01*
X104032711Y-96894028D01*
X104008292Y-97134424D01*
X103981355Y-97374575D01*
X103981167Y-97401463D01*
X103981116Y-97401968D01*
X103981160Y-97402438D01*
X103981100Y-97411100D01*
X100423100Y-97411100D01*
X100423100Y-91478682D01*
X100790891Y-91110891D01*
X100804689Y-91094093D01*
X102008773Y-89890009D01*
X103714178Y-89890009D01*
X103806346Y-90392194D01*
X103994300Y-90866913D01*
X104270882Y-91296083D01*
X104625555Y-91663358D01*
X105044812Y-91954749D01*
X105512682Y-92159156D01*
X106011344Y-92268794D01*
X106521804Y-92279487D01*
X107024620Y-92190827D01*
X107500639Y-92006191D01*
X107931730Y-91732613D01*
X108301472Y-91380512D01*
X108595783Y-90963300D01*
X108803452Y-90496868D01*
X108916568Y-89998984D01*
X108924711Y-89415814D01*
X108825541Y-88914965D01*
X108630977Y-88442917D01*
X108348430Y-88017650D01*
X107988663Y-87655363D01*
X107565379Y-87369854D01*
X107094701Y-87171999D01*
X106594557Y-87069334D01*
X106083996Y-87065770D01*
X105582467Y-87161442D01*
X105109073Y-87352705D01*
X104681844Y-87632276D01*
X104317053Y-87989505D01*
X104028597Y-88410786D01*
X103827461Y-88880071D01*
X103721307Y-89379486D01*
X103714178Y-89890009D01*
X102008773Y-89890009D01*
X104249892Y-87648891D01*
X104403277Y-87462157D01*
X104558597Y-87277054D01*
X104565224Y-87265000D01*
X104573956Y-87254369D01*
X104620827Y-87166955D01*
X107870683Y-83917100D01*
X128902518Y-83917100D01*
X132438309Y-87452892D01*
X132518920Y-87519106D01*
X132592555Y-87595358D01*
X132709754Y-87676814D01*
X132817691Y-87766743D01*
X132825740Y-87771132D01*
X132832831Y-87776956D01*
X132924769Y-87826253D01*
X133011812Y-87886749D01*
X133142591Y-87943885D01*
X133265947Y-88011141D01*
X133274703Y-88013885D01*
X133282784Y-88018218D01*
X133382545Y-88048718D01*
X133479682Y-88091156D01*
X133619075Y-88121803D01*
X133753138Y-88163816D01*
X133762253Y-88164806D01*
X133771028Y-88167489D01*
X133874812Y-88178031D01*
X133978344Y-88200794D01*
X134121029Y-88203783D01*
X134260705Y-88218957D01*
X134269846Y-88218157D01*
X134278969Y-88219084D01*
X134382823Y-88209267D01*
X134488804Y-88211487D01*
X134629354Y-88186704D01*
X134769317Y-88174459D01*
X134778125Y-88171900D01*
X134787256Y-88171037D01*
X134887228Y-88141234D01*
X134991620Y-88122827D01*
X135124680Y-88071216D01*
X135259598Y-88032019D01*
X135267738Y-88027800D01*
X135276532Y-88025178D01*
X135368816Y-87976522D01*
X135467639Y-87938191D01*
X135588139Y-87861719D01*
X135712876Y-87797062D01*
X135720043Y-87791340D01*
X135728158Y-87787062D01*
X135809229Y-87721412D01*
X135898730Y-87664613D01*
X136002084Y-87566190D01*
X136111884Y-87478538D01*
X136124425Y-87466170D01*
X136124932Y-87465760D01*
X136125350Y-87465259D01*
X136137891Y-87452891D01*
X139545891Y-84044891D01*
X139699252Y-83858186D01*
X139854597Y-83673054D01*
X139861224Y-83660999D01*
X139869956Y-83650369D01*
X139984146Y-83437404D01*
X140100558Y-83225652D01*
X140104718Y-83212539D01*
X140111218Y-83200416D01*
X140181865Y-82969338D01*
X140254934Y-82738997D01*
X140256467Y-82725326D01*
X140260489Y-82712172D01*
X140284907Y-82471781D01*
X140311845Y-82231625D01*
X140312033Y-82204736D01*
X140312084Y-82204231D01*
X140312040Y-82203761D01*
X140312100Y-82195100D01*
X140312100Y-81301100D01*
X140262279Y-80792983D01*
X140114712Y-80304220D01*
X139875022Y-79853428D01*
X139552337Y-79457777D01*
X139158949Y-79132338D01*
X138955205Y-79022174D01*
X144819647Y-79034255D01*
M02*
