G04 #@! TF.FileFunction,Copper,L2,Bot,Signal*
%FSLAX46Y46*%
G04 Gerber Fmt 4.6, Leading zero omitted, Abs format (unit mm)*
G04 Created by KiCad (PCBNEW 4.0.6) date 05/07/17 20:57:05*
%MOMM*%
%LPD*%
G01*
G04 APERTURE LIST*
%ADD10C,0.100000*%
%ADD11C,1.100000*%
%ADD12R,0.635000X1.270000*%
%ADD13C,3.000000*%
%ADD14C,2.250000*%
%ADD15C,1.006400*%
%ADD16C,2.540000*%
%ADD17C,2.184400*%
%ADD18C,3.200000*%
%ADD19C,0.406400*%
G04 APERTURE END LIST*
D10*
D11*
X145062300Y-116519900D03*
D12*
X145443300Y-116519900D03*
X146078300Y-116519900D03*
X144808300Y-116519900D03*
X144173300Y-116519900D03*
X143538300Y-116519900D03*
X146675200Y-116519900D03*
X147272100Y-116519900D03*
X142916000Y-116519900D03*
X142293700Y-116519900D03*
D11*
X143452700Y-126598500D03*
D12*
X143833700Y-126598500D03*
X144468700Y-126598500D03*
X143198700Y-126598500D03*
X142563700Y-126598500D03*
X141928700Y-126598500D03*
X145065600Y-126598500D03*
X145662500Y-126598500D03*
X141306400Y-126598500D03*
X140684100Y-126598500D03*
D11*
X145138500Y-100543300D03*
D12*
X145519500Y-100543300D03*
X146154500Y-100543300D03*
X144884500Y-100543300D03*
X144249500Y-100543300D03*
X143614500Y-100543300D03*
X146751400Y-100543300D03*
X147348300Y-100543300D03*
X142992200Y-100543300D03*
X142369900Y-100543300D03*
D11*
X145011500Y-97774700D03*
D12*
X145392500Y-97774700D03*
X146027500Y-97774700D03*
X144757500Y-97774700D03*
X144122500Y-97774700D03*
X143487500Y-97774700D03*
X146624400Y-97774700D03*
X147221300Y-97774700D03*
X142865200Y-97774700D03*
X142242900Y-97774700D03*
D11*
X145062300Y-111109700D03*
D12*
X145443300Y-111109700D03*
X146078300Y-111109700D03*
X144808300Y-111109700D03*
X144173300Y-111109700D03*
X143538300Y-111109700D03*
X146675200Y-111109700D03*
X147272100Y-111109700D03*
X142916000Y-111109700D03*
X142293700Y-111109700D03*
D11*
X145036900Y-86497100D03*
D12*
X145417900Y-86497100D03*
X146052900Y-86497100D03*
X144782900Y-86497100D03*
X144147900Y-86497100D03*
X143512900Y-86497100D03*
X146649800Y-86497100D03*
X147246700Y-86497100D03*
X142890600Y-86497100D03*
X142268300Y-86497100D03*
D11*
X145011500Y-103210300D03*
D12*
X145392500Y-103210300D03*
X146027500Y-103210300D03*
X144757500Y-103210300D03*
X144122500Y-103210300D03*
X143487500Y-103210300D03*
X146624400Y-103210300D03*
X147221300Y-103210300D03*
X142865200Y-103210300D03*
X142242900Y-103210300D03*
D11*
X145036900Y-95107700D03*
D12*
X145417900Y-95107700D03*
X146052900Y-95107700D03*
X144782900Y-95107700D03*
X144147900Y-95107700D03*
X143512900Y-95107700D03*
X146649800Y-95107700D03*
X147246700Y-95107700D03*
X142890600Y-95107700D03*
X142268300Y-95107700D03*
D11*
X145036900Y-92313700D03*
D12*
X145417900Y-92313700D03*
X146052900Y-92313700D03*
X144782900Y-92313700D03*
X144147900Y-92313700D03*
X143512900Y-92313700D03*
X146649800Y-92313700D03*
X147246700Y-92313700D03*
X142890600Y-92313700D03*
X142268300Y-92313700D03*
D11*
X145062300Y-108417300D03*
D12*
X145443300Y-108417300D03*
X146078300Y-108417300D03*
X144808300Y-108417300D03*
X144173300Y-108417300D03*
X143538300Y-108417300D03*
X146675200Y-108417300D03*
X147272100Y-108417300D03*
X142916000Y-108417300D03*
X142293700Y-108417300D03*
D11*
X143351700Y-81078100D03*
D12*
X143732700Y-81078100D03*
X144367700Y-81078100D03*
X143097700Y-81078100D03*
X142462700Y-81078100D03*
X141827700Y-81078100D03*
X144964600Y-81078100D03*
X145561500Y-81078100D03*
X141205400Y-81078100D03*
X140583100Y-81078100D03*
D11*
X145087700Y-113700500D03*
D12*
X145468700Y-113700500D03*
X146103700Y-113700500D03*
X144833700Y-113700500D03*
X144198700Y-113700500D03*
X143563700Y-113700500D03*
X146700600Y-113700500D03*
X147297500Y-113700500D03*
X142941400Y-113700500D03*
X142319100Y-113700500D03*
D11*
X143426900Y-123750100D03*
D12*
X143807900Y-123750100D03*
X144442900Y-123750100D03*
X143172900Y-123750100D03*
X142537900Y-123750100D03*
X141902900Y-123750100D03*
X145039800Y-123750100D03*
X145636700Y-123750100D03*
X141280600Y-123750100D03*
X140658300Y-123750100D03*
D11*
X145011500Y-89519700D03*
D12*
X145392500Y-89519700D03*
X146027500Y-89519700D03*
X144757500Y-89519700D03*
X144122500Y-89519700D03*
X143487500Y-89519700D03*
X146624400Y-89519700D03*
X147221300Y-89519700D03*
X142865200Y-89519700D03*
X142242900Y-89519700D03*
D11*
X145087700Y-105851900D03*
D12*
X145468700Y-105851900D03*
X146103700Y-105851900D03*
X144833700Y-105851900D03*
X144198700Y-105851900D03*
X143563700Y-105851900D03*
X146700600Y-105851900D03*
X147297500Y-105851900D03*
X142941400Y-105851900D03*
X142319100Y-105851900D03*
D11*
X105812100Y-123631100D03*
D12*
X106193100Y-123631100D03*
X106828100Y-123631100D03*
X105558100Y-123631100D03*
X104923100Y-123631100D03*
X104288100Y-123631100D03*
X107425000Y-123631100D03*
X108021900Y-123631100D03*
X103665800Y-123631100D03*
X103043500Y-123631100D03*
D11*
X105967100Y-126667100D03*
D12*
X106348100Y-126667100D03*
X106983100Y-126667100D03*
X105713100Y-126667100D03*
X105078100Y-126667100D03*
X104443100Y-126667100D03*
X107580000Y-126667100D03*
X108176900Y-126667100D03*
X103820800Y-126667100D03*
X103198500Y-126667100D03*
D11*
X105967100Y-120488100D03*
D12*
X106348100Y-120488100D03*
X106983100Y-120488100D03*
X105713100Y-120488100D03*
X105078100Y-120488100D03*
X104443100Y-120488100D03*
X107580000Y-120488100D03*
X108176900Y-120488100D03*
X103820800Y-120488100D03*
X103198500Y-120488100D03*
D11*
X105966100Y-117265100D03*
D12*
X106347100Y-117265100D03*
X106982100Y-117265100D03*
X105712100Y-117265100D03*
X105077100Y-117265100D03*
X104442100Y-117265100D03*
X107579000Y-117265100D03*
X108175900Y-117265100D03*
X103819800Y-117265100D03*
X103197500Y-117265100D03*
D13*
X110188100Y-101737100D03*
X118189100Y-109763500D03*
X126190100Y-101737100D03*
X118189100Y-93736100D03*
D14*
X92380100Y-102598900D03*
X92380100Y-110332900D03*
D15*
X135635100Y-109552100D03*
X143477100Y-120014100D03*
X133095100Y-123637100D03*
X98090100Y-116824100D03*
X137696100Y-81301100D03*
D16*
X105967100Y-126667100D02*
X135271100Y-126667100D01*
X135271100Y-126667100D02*
X143384100Y-126667100D01*
X143384100Y-126667100D02*
X143452700Y-126598500D01*
X135635100Y-109552100D02*
X135635100Y-109646100D01*
X135635100Y-109646100D02*
X137412100Y-111423100D01*
X137412100Y-111423100D02*
X137412100Y-124526100D01*
X137412100Y-124526100D02*
X135271100Y-126667100D01*
D17*
X143477100Y-120014100D02*
X143477100Y-123699900D01*
D16*
X143477100Y-123699900D02*
X143426900Y-123750100D01*
D17*
X105812100Y-123631100D02*
X133089100Y-123631100D01*
X133089100Y-123631100D02*
X133095100Y-123637100D01*
D18*
X94371100Y-116965100D02*
X97949100Y-116965100D01*
X97949100Y-116965100D02*
X98090100Y-116824100D01*
X143351700Y-81078100D02*
X137919100Y-81078100D01*
X137919100Y-81078100D02*
X137696100Y-81301100D01*
D19*
G36*
X134708198Y-78962625D02*
X134600560Y-79018419D01*
X134592105Y-79025169D01*
X134582552Y-79030248D01*
X134435270Y-79150368D01*
X134286753Y-79268928D01*
X134271695Y-79283777D01*
X134271386Y-79284029D01*
X134271150Y-79284315D01*
X134266299Y-79289098D01*
X131640299Y-81915099D01*
X131519692Y-82061928D01*
X131397511Y-82207537D01*
X131392298Y-82217019D01*
X131385432Y-82225378D01*
X131295624Y-82392870D01*
X131204071Y-82559404D01*
X131200800Y-82569715D01*
X131195687Y-82579251D01*
X131140123Y-82760995D01*
X131082659Y-82942142D01*
X131081453Y-82952895D01*
X131078290Y-82963240D01*
X131059085Y-83152310D01*
X131037901Y-83341174D01*
X131037753Y-83362324D01*
X131037713Y-83362718D01*
X131037748Y-83363085D01*
X131037700Y-83369900D01*
X131037700Y-83372900D01*
X131064851Y-83649810D01*
X131075501Y-83762471D01*
X131076092Y-83764455D01*
X131076883Y-83772518D01*
X131192939Y-84156914D01*
X131381448Y-84511448D01*
X131635229Y-84822614D01*
X131944617Y-85078562D01*
X132297825Y-85269541D01*
X132681402Y-85388278D01*
X133080737Y-85430250D01*
X133480618Y-85393858D01*
X133865816Y-85280488D01*
X134221657Y-85094459D01*
X134534587Y-84842856D01*
X134549437Y-84825159D01*
X134549901Y-84824701D01*
X136573303Y-82801300D01*
X140772898Y-82801300D01*
X141342700Y-83371103D01*
X141342700Y-85560596D01*
X141322519Y-85584647D01*
X141316020Y-85596469D01*
X141307459Y-85606891D01*
X141195498Y-85815697D01*
X141081334Y-86023360D01*
X141077255Y-86036218D01*
X141070881Y-86048106D01*
X141001594Y-86274734D01*
X140929956Y-86500565D01*
X140928453Y-86513966D01*
X140924508Y-86526869D01*
X140900557Y-86762664D01*
X140874150Y-86998084D01*
X140873966Y-87024444D01*
X140873915Y-87024946D01*
X140873959Y-87025414D01*
X140873900Y-87033900D01*
X140873900Y-90724700D01*
X136546251Y-90724700D01*
X136569399Y-90691886D01*
X136773015Y-90234556D01*
X136883925Y-89746386D01*
X136891909Y-89174595D01*
X136794673Y-88683519D01*
X136603906Y-88220681D01*
X136326872Y-87803713D01*
X135974125Y-87448494D01*
X135559100Y-87168557D01*
X135097606Y-86974562D01*
X134607221Y-86873901D01*
X134106623Y-86870406D01*
X133614880Y-86964211D01*
X133150722Y-87151743D01*
X132731829Y-87425858D01*
X132374157Y-87776117D01*
X132356767Y-87801515D01*
X130712126Y-86156874D01*
X130621418Y-86082366D01*
X130531608Y-86007006D01*
X130525758Y-86003790D01*
X130520595Y-85999549D01*
X130417217Y-85944119D01*
X130314406Y-85887598D01*
X130308036Y-85885577D01*
X130302155Y-85882424D01*
X130190012Y-85848138D01*
X130078148Y-85812653D01*
X130071512Y-85811909D01*
X130065125Y-85809956D01*
X129948410Y-85798100D01*
X129831832Y-85785024D01*
X129818777Y-85784933D01*
X129818534Y-85784908D01*
X129818307Y-85784929D01*
X129814100Y-85784900D01*
X104617100Y-85784900D01*
X104500337Y-85796349D01*
X104383482Y-85806572D01*
X104377068Y-85808435D01*
X104370422Y-85809087D01*
X104258138Y-85842988D01*
X104145463Y-85875723D01*
X104139532Y-85878798D01*
X104133141Y-85880727D01*
X104029591Y-85935785D01*
X103925409Y-85989788D01*
X103920189Y-85993955D01*
X103914293Y-85997090D01*
X103823361Y-86071253D01*
X103731701Y-86144424D01*
X103722407Y-86153588D01*
X103722215Y-86153745D01*
X103722068Y-86153923D01*
X103719075Y-86156874D01*
X102944136Y-86931812D01*
X102913532Y-86925530D01*
X102796674Y-86888909D01*
X102665937Y-86874707D01*
X102540221Y-86848901D01*
X102420708Y-86848067D01*
X102298962Y-86834841D01*
X102167960Y-86846302D01*
X102039623Y-86845406D01*
X101922226Y-86867801D01*
X101800228Y-86878474D01*
X101673943Y-86915163D01*
X101547880Y-86939211D01*
X101437070Y-86983981D01*
X101319467Y-87018148D01*
X101202713Y-87078667D01*
X101083722Y-87126743D01*
X100983716Y-87192185D01*
X100874992Y-87248542D01*
X100772222Y-87330582D01*
X100664829Y-87400858D01*
X100579435Y-87484483D01*
X100483732Y-87560881D01*
X100458230Y-87586030D01*
X100423560Y-87620700D01*
X98090100Y-87620700D01*
X97591850Y-87669554D01*
X97112578Y-87814255D01*
X96670540Y-88049290D01*
X96282572Y-88365709D01*
X95963453Y-88751458D01*
X95725337Y-89191845D01*
X95577294Y-89670095D01*
X95524963Y-90167992D01*
X95525260Y-90171252D01*
X95449334Y-90309360D01*
X95445255Y-90322218D01*
X95438881Y-90334106D01*
X95369594Y-90560734D01*
X95297956Y-90786565D01*
X95296453Y-90799966D01*
X95292508Y-90812869D01*
X95268557Y-91048664D01*
X95242150Y-91284084D01*
X95241966Y-91310444D01*
X95241915Y-91310946D01*
X95241959Y-91311414D01*
X95241900Y-91319900D01*
X95241900Y-116614900D01*
X95265027Y-116850767D01*
X95285675Y-117086772D01*
X95289437Y-117099722D01*
X95290754Y-117113150D01*
X95359240Y-117339986D01*
X95425348Y-117567533D01*
X95431557Y-117579512D01*
X95435455Y-117592422D01*
X95546688Y-117801621D01*
X95655742Y-118012008D01*
X95664157Y-118022549D01*
X95670490Y-118034460D01*
X95820267Y-118218104D01*
X95968081Y-118403268D01*
X95986590Y-118422036D01*
X95986909Y-118422428D01*
X95987272Y-118422728D01*
X95993230Y-118428770D01*
X97091605Y-119527145D01*
X97102081Y-119540268D01*
X97120590Y-119559036D01*
X97120909Y-119559428D01*
X97121272Y-119559728D01*
X97127230Y-119565770D01*
X100103538Y-122542079D01*
X100118702Y-122580379D01*
X100190610Y-122691958D01*
X100253632Y-122812509D01*
X100259267Y-122819517D01*
X100263490Y-122827460D01*
X100332330Y-122911866D01*
X100389886Y-123001176D01*
X100482106Y-123096672D01*
X100567335Y-123202676D01*
X100574222Y-123208455D01*
X100579909Y-123215428D01*
X100663830Y-123284853D01*
X100737639Y-123361285D01*
X100846652Y-123437051D01*
X100950847Y-123524481D01*
X100958727Y-123528813D01*
X100965658Y-123534547D01*
X101007785Y-123557325D01*
X104973230Y-127522771D01*
X105156380Y-127673212D01*
X105337847Y-127825481D01*
X105349665Y-127831978D01*
X105360091Y-127840542D01*
X105568918Y-127952513D01*
X105776560Y-128066666D01*
X105789421Y-128070746D01*
X105801307Y-128077119D01*
X106027920Y-128146402D01*
X106253765Y-128218044D01*
X106267166Y-128219547D01*
X106280069Y-128223492D01*
X106515864Y-128247443D01*
X106751284Y-128273850D01*
X106777644Y-128274034D01*
X106778146Y-128274085D01*
X106778614Y-128274041D01*
X106787100Y-128274100D01*
X129986100Y-128274100D01*
X130221967Y-128250973D01*
X130457972Y-128230325D01*
X130470922Y-128226563D01*
X130484350Y-128225246D01*
X130711186Y-128156760D01*
X130938733Y-128090652D01*
X130950712Y-128084443D01*
X130963622Y-128080545D01*
X131172821Y-127969312D01*
X131383208Y-127860258D01*
X131393749Y-127851843D01*
X131405660Y-127845510D01*
X131589304Y-127695733D01*
X131774468Y-127547919D01*
X131793236Y-127529410D01*
X131793628Y-127529091D01*
X131793928Y-127528728D01*
X131799970Y-127522770D01*
X134288100Y-125034640D01*
X135149222Y-125895762D01*
X135179754Y-126207150D01*
X135324455Y-126686422D01*
X135559490Y-127128460D01*
X135875909Y-127516428D01*
X136261658Y-127835547D01*
X136702045Y-128073663D01*
X137180295Y-128221706D01*
X137678192Y-128274037D01*
X138176771Y-128228663D01*
X138657041Y-128087312D01*
X139100709Y-127855368D01*
X139490876Y-127541665D01*
X139812681Y-127158153D01*
X140053866Y-126719440D01*
X140205244Y-126242235D01*
X140261050Y-125744716D01*
X140261300Y-125708900D01*
X140261300Y-124814900D01*
X140238178Y-124579083D01*
X140217526Y-124343028D01*
X140213762Y-124330073D01*
X140212446Y-124316650D01*
X140143972Y-124089855D01*
X140077852Y-123862267D01*
X140071643Y-123850288D01*
X140067745Y-123837378D01*
X139956512Y-123628179D01*
X139847458Y-123417792D01*
X139839043Y-123407251D01*
X139832710Y-123395340D01*
X139682933Y-123211696D01*
X139535119Y-123026532D01*
X139516610Y-123007764D01*
X139516291Y-123007372D01*
X139515928Y-123007072D01*
X139509970Y-123001030D01*
X136101970Y-119593030D01*
X136007345Y-119515304D01*
X135923125Y-119430494D01*
X135824038Y-119363659D01*
X135729956Y-119285273D01*
X135722058Y-119280967D01*
X135715109Y-119275259D01*
X135607185Y-119217391D01*
X135508100Y-119150557D01*
X135397925Y-119104244D01*
X135290404Y-119045621D01*
X135281820Y-119042931D01*
X135273894Y-119038681D01*
X135156784Y-119002877D01*
X135046606Y-118956562D01*
X134929533Y-118932530D01*
X134812674Y-118895909D01*
X134803732Y-118894938D01*
X134795131Y-118892308D01*
X134673291Y-118879932D01*
X134556221Y-118855901D01*
X134436708Y-118855067D01*
X134314962Y-118841841D01*
X134306007Y-118842624D01*
X134297054Y-118841715D01*
X134175130Y-118853240D01*
X134055623Y-118852406D01*
X133938226Y-118874801D01*
X133816228Y-118885474D01*
X133807589Y-118887984D01*
X133798637Y-118888830D01*
X133681279Y-118923816D01*
X133563880Y-118946211D01*
X133453068Y-118990982D01*
X133335468Y-119025148D01*
X133327482Y-119029288D01*
X133318863Y-119031857D01*
X133210538Y-119088970D01*
X133099722Y-119133743D01*
X132999715Y-119199185D01*
X132890992Y-119255542D01*
X132883959Y-119261156D01*
X132876007Y-119265349D01*
X132780845Y-119342410D01*
X132680829Y-119407858D01*
X132595435Y-119491483D01*
X132499732Y-119567881D01*
X132487435Y-119580007D01*
X132486937Y-119580411D01*
X132486526Y-119580904D01*
X132474230Y-119593030D01*
X128923560Y-123143700D01*
X128173318Y-123143700D01*
X128254468Y-123078919D01*
X128273236Y-123060410D01*
X128273628Y-123060091D01*
X128273928Y-123059728D01*
X128279970Y-123053770D01*
X132138970Y-119194770D01*
X132289365Y-119011676D01*
X132441681Y-118830153D01*
X132448180Y-118818331D01*
X132456741Y-118807909D01*
X132568702Y-118599103D01*
X132682866Y-118391440D01*
X132686945Y-118378582D01*
X132693319Y-118366694D01*
X132762606Y-118140066D01*
X132834244Y-117914235D01*
X132835747Y-117900834D01*
X132839692Y-117887931D01*
X132857967Y-117708020D01*
X132869925Y-117655386D01*
X132870870Y-117587709D01*
X132890050Y-117416716D01*
X132890234Y-117390356D01*
X132890285Y-117389854D01*
X132890241Y-117389386D01*
X132890300Y-117380900D01*
X132890300Y-117333900D01*
X132876394Y-117192078D01*
X132877909Y-117083595D01*
X132853837Y-116962023D01*
X132841446Y-116835650D01*
X132804745Y-116714090D01*
X132780673Y-116592519D01*
X132733446Y-116477936D01*
X132696745Y-116356378D01*
X132637135Y-116244267D01*
X132589906Y-116129681D01*
X132521322Y-116026454D01*
X132461710Y-115914340D01*
X132381453Y-115815935D01*
X132312872Y-115712713D01*
X132225549Y-115624778D01*
X132145291Y-115526372D01*
X132047450Y-115445431D01*
X131960125Y-115357494D01*
X131857382Y-115288193D01*
X131759542Y-115207253D01*
X131647842Y-115146857D01*
X131545100Y-115077557D01*
X131430853Y-115029532D01*
X131319155Y-114969137D01*
X131197858Y-114931589D01*
X131083606Y-114883562D01*
X130962200Y-114858641D01*
X130840905Y-114821094D01*
X130714624Y-114807821D01*
X130593221Y-114782901D01*
X130469290Y-114782036D01*
X130343008Y-114768763D01*
X130216553Y-114780271D01*
X130092623Y-114779406D01*
X129970886Y-114802629D01*
X129844429Y-114814137D01*
X129722615Y-114849989D01*
X129600880Y-114873211D01*
X129485975Y-114919636D01*
X129364159Y-114955488D01*
X129251626Y-115014319D01*
X129136722Y-115060743D01*
X129033022Y-115128602D01*
X128920491Y-115187432D01*
X128821534Y-115266995D01*
X128717829Y-115334858D01*
X128629278Y-115421574D01*
X128530324Y-115501135D01*
X128448707Y-115598402D01*
X128360157Y-115685117D01*
X128290138Y-115787378D01*
X128286255Y-115792005D01*
X125403560Y-118674700D01*
X111284640Y-118674700D01*
X108134970Y-115525030D01*
X108040345Y-115447304D01*
X107956125Y-115362494D01*
X107860700Y-115298129D01*
X107770353Y-115222319D01*
X107758531Y-115215820D01*
X107748109Y-115207259D01*
X107713806Y-115188866D01*
X106139478Y-113614538D01*
X107842045Y-113614538D01*
X107932415Y-114106924D01*
X108116702Y-114572379D01*
X108387886Y-114993176D01*
X108735639Y-115353285D01*
X109146715Y-115638990D01*
X109605456Y-115839408D01*
X110094388Y-115946907D01*
X110594888Y-115957391D01*
X111087893Y-115870461D01*
X111554624Y-115689428D01*
X111977303Y-115421188D01*
X112339831Y-115075957D01*
X112628399Y-114666886D01*
X112832015Y-114209556D01*
X112942925Y-113721386D01*
X112946279Y-113481181D01*
X115720660Y-113481181D01*
X115807932Y-113956689D01*
X115985902Y-114406190D01*
X116247791Y-114812563D01*
X116583624Y-115160328D01*
X116980609Y-115436240D01*
X117423625Y-115629789D01*
X117895798Y-115733603D01*
X118379143Y-115743727D01*
X118855249Y-115659777D01*
X119305981Y-115484949D01*
X119714172Y-115225904D01*
X120064274Y-114892506D01*
X120342950Y-114497457D01*
X120539587Y-114055803D01*
X120637113Y-113626538D01*
X123750045Y-113626538D01*
X123840415Y-114118924D01*
X124024702Y-114584379D01*
X124295886Y-115005176D01*
X124643639Y-115365285D01*
X125054715Y-115650990D01*
X125513456Y-115851408D01*
X126002388Y-115958907D01*
X126502888Y-115969391D01*
X126995893Y-115882461D01*
X127462624Y-115701428D01*
X127885303Y-115433188D01*
X128247831Y-115087957D01*
X128536399Y-114678886D01*
X128740015Y-114221556D01*
X128850925Y-113733386D01*
X128858909Y-113161595D01*
X128761673Y-112670519D01*
X128570906Y-112207681D01*
X128293872Y-111790713D01*
X127941125Y-111435494D01*
X127526100Y-111155557D01*
X127064606Y-110961562D01*
X126574221Y-110860901D01*
X126073623Y-110857406D01*
X125581880Y-110951211D01*
X125117722Y-111138743D01*
X124698829Y-111412858D01*
X124341157Y-111763117D01*
X124058329Y-112176177D01*
X123861117Y-112636306D01*
X123757035Y-113125977D01*
X123750045Y-113626538D01*
X120637113Y-113626538D01*
X120646695Y-113584366D01*
X120654406Y-113032175D01*
X120560503Y-112557931D01*
X120376274Y-112110959D01*
X120108737Y-111708283D01*
X119768081Y-111365240D01*
X119367282Y-111094898D01*
X118921607Y-110907553D01*
X118448030Y-110810342D01*
X117964591Y-110806967D01*
X117489704Y-110897556D01*
X117041456Y-111078660D01*
X116636922Y-111343380D01*
X116291510Y-111681633D01*
X116018376Y-112080534D01*
X115827925Y-112524891D01*
X115727410Y-112997777D01*
X115720660Y-113481181D01*
X112946279Y-113481181D01*
X112950909Y-113149595D01*
X112853673Y-112658519D01*
X112662906Y-112195681D01*
X112385872Y-111778713D01*
X112033125Y-111423494D01*
X111618100Y-111143557D01*
X111156606Y-110949562D01*
X110666221Y-110848901D01*
X110165623Y-110845406D01*
X109673880Y-110939211D01*
X109209722Y-111126743D01*
X108790829Y-111400858D01*
X108433157Y-111751117D01*
X108150329Y-112164177D01*
X107953117Y-112624306D01*
X107849035Y-113113977D01*
X107842045Y-113614538D01*
X106139478Y-113614538D01*
X104550300Y-112025360D01*
X104550300Y-105480181D01*
X107719660Y-105480181D01*
X107806932Y-105955689D01*
X107984902Y-106405190D01*
X108246791Y-106811563D01*
X108582624Y-107159328D01*
X108979609Y-107435240D01*
X109422625Y-107628789D01*
X109894798Y-107732603D01*
X110378143Y-107742727D01*
X110854249Y-107658777D01*
X111304981Y-107483949D01*
X111713172Y-107224904D01*
X112063274Y-106891506D01*
X112341950Y-106496457D01*
X112538587Y-106054803D01*
X112645695Y-105583366D01*
X112647135Y-105480181D01*
X123721660Y-105480181D01*
X123808932Y-105955689D01*
X123986902Y-106405190D01*
X124248791Y-106811563D01*
X124584624Y-107159328D01*
X124981609Y-107435240D01*
X125424625Y-107628789D01*
X125896798Y-107732603D01*
X126380143Y-107742727D01*
X126856249Y-107658777D01*
X127306981Y-107483949D01*
X127715172Y-107224904D01*
X128065274Y-106891506D01*
X128343950Y-106496457D01*
X128540587Y-106054803D01*
X128647695Y-105583366D01*
X128655406Y-105031175D01*
X128561503Y-104556931D01*
X128377274Y-104109959D01*
X128109737Y-103707283D01*
X127769081Y-103364240D01*
X127368282Y-103093898D01*
X126922607Y-102906553D01*
X126449030Y-102809342D01*
X125965591Y-102805967D01*
X125490704Y-102896556D01*
X125042456Y-103077660D01*
X124637922Y-103342380D01*
X124292510Y-103680633D01*
X124019376Y-104079534D01*
X123828925Y-104523891D01*
X123728410Y-104996777D01*
X123721660Y-105480181D01*
X112647135Y-105480181D01*
X112653406Y-105031175D01*
X112559503Y-104556931D01*
X112375274Y-104109959D01*
X112107737Y-103707283D01*
X111767081Y-103364240D01*
X111366282Y-103093898D01*
X110920607Y-102906553D01*
X110447030Y-102809342D01*
X109963591Y-102805967D01*
X109488704Y-102896556D01*
X109040456Y-103077660D01*
X108635922Y-103342380D01*
X108290510Y-103680633D01*
X108017376Y-104079534D01*
X107826925Y-104523891D01*
X107726410Y-104996777D01*
X107719660Y-105480181D01*
X104550300Y-105480181D01*
X104550300Y-98746440D01*
X105662202Y-97634538D01*
X107707045Y-97634538D01*
X107797415Y-98126924D01*
X107981702Y-98592379D01*
X108252886Y-99013176D01*
X108600639Y-99373285D01*
X109011715Y-99658990D01*
X109470456Y-99859408D01*
X109959388Y-99966907D01*
X110459888Y-99977391D01*
X110952893Y-99890461D01*
X111419624Y-99709428D01*
X111842303Y-99441188D01*
X112204831Y-99095957D01*
X112493399Y-98686886D01*
X112697015Y-98229556D01*
X112807925Y-97741386D01*
X112811940Y-97453781D01*
X115720660Y-97453781D01*
X115807932Y-97929289D01*
X115985902Y-98378790D01*
X116247791Y-98785163D01*
X116583624Y-99132928D01*
X116980609Y-99408840D01*
X117423625Y-99602389D01*
X117895798Y-99706203D01*
X118379143Y-99716327D01*
X118855249Y-99632377D01*
X119305981Y-99457549D01*
X119714172Y-99198504D01*
X120064274Y-98865106D01*
X120342950Y-98470057D01*
X120539587Y-98028403D01*
X120629525Y-97632538D01*
X123838045Y-97632538D01*
X123928415Y-98124924D01*
X124112702Y-98590379D01*
X124383886Y-99011176D01*
X124731639Y-99371285D01*
X125142715Y-99656990D01*
X125601456Y-99857408D01*
X126090388Y-99964907D01*
X126590888Y-99975391D01*
X127083893Y-99888461D01*
X127550624Y-99707428D01*
X127973303Y-99439188D01*
X128335831Y-99093957D01*
X128624399Y-98684886D01*
X128828015Y-98227556D01*
X128938925Y-97739386D01*
X128946909Y-97167595D01*
X128849673Y-96676519D01*
X128658906Y-96213681D01*
X128381872Y-95796713D01*
X128029125Y-95441494D01*
X127614100Y-95161557D01*
X127152606Y-94967562D01*
X126662221Y-94866901D01*
X126161623Y-94863406D01*
X125669880Y-94957211D01*
X125205722Y-95144743D01*
X124786829Y-95418858D01*
X124429157Y-95769117D01*
X124146329Y-96182177D01*
X123949117Y-96642306D01*
X123845035Y-97131977D01*
X123838045Y-97632538D01*
X120629525Y-97632538D01*
X120646695Y-97556966D01*
X120654406Y-97004775D01*
X120560503Y-96530531D01*
X120376274Y-96083559D01*
X120108737Y-95680883D01*
X119768081Y-95337840D01*
X119367282Y-95067498D01*
X118921607Y-94880153D01*
X118448030Y-94782942D01*
X117964591Y-94779567D01*
X117489704Y-94870156D01*
X117041456Y-95051260D01*
X116636922Y-95315980D01*
X116291510Y-95654233D01*
X116018376Y-96053134D01*
X115827925Y-96497491D01*
X115727410Y-96970377D01*
X115720660Y-97453781D01*
X112811940Y-97453781D01*
X112815909Y-97169595D01*
X112718673Y-96678519D01*
X112527906Y-96215681D01*
X112250872Y-95798713D01*
X111898125Y-95443494D01*
X111483100Y-95163557D01*
X111021606Y-94969562D01*
X110531221Y-94868901D01*
X110030623Y-94865406D01*
X109538880Y-94959211D01*
X109074722Y-95146743D01*
X108655829Y-95420858D01*
X108298157Y-95771117D01*
X108015329Y-96184177D01*
X107818117Y-96644306D01*
X107714035Y-97133977D01*
X107707045Y-97634538D01*
X105662202Y-97634538D01*
X107598731Y-95698009D01*
X107650821Y-95670312D01*
X107861208Y-95561258D01*
X107871749Y-95552843D01*
X107883660Y-95546510D01*
X108067304Y-95396733D01*
X108252468Y-95248919D01*
X108271236Y-95230410D01*
X108271628Y-95230091D01*
X108271928Y-95229728D01*
X108277970Y-95223770D01*
X110989641Y-92512100D01*
X125788560Y-92512100D01*
X128380230Y-95103770D01*
X128460902Y-95170035D01*
X128531639Y-95243285D01*
X128640652Y-95319051D01*
X128744847Y-95406481D01*
X128756669Y-95412980D01*
X128767091Y-95421541D01*
X128859099Y-95470875D01*
X128942715Y-95528990D01*
X129064360Y-95582135D01*
X129183560Y-95647666D01*
X129196418Y-95651745D01*
X129208306Y-95658119D01*
X129308155Y-95688646D01*
X129401456Y-95729408D01*
X129531102Y-95757913D01*
X129660765Y-95799044D01*
X129674166Y-95800547D01*
X129687069Y-95804492D01*
X129790948Y-95815044D01*
X129890388Y-95836907D01*
X130023104Y-95839687D01*
X130158284Y-95854850D01*
X130184644Y-95855034D01*
X130185146Y-95855085D01*
X130185614Y-95855041D01*
X130194100Y-95855100D01*
X142467100Y-95855100D01*
X142702967Y-95831973D01*
X142938972Y-95811325D01*
X142951922Y-95807563D01*
X142965350Y-95806246D01*
X143192186Y-95737760D01*
X143419733Y-95671652D01*
X143431712Y-95665443D01*
X143444622Y-95661545D01*
X143653821Y-95550312D01*
X143864208Y-95441258D01*
X143874749Y-95432843D01*
X143886660Y-95426510D01*
X144070304Y-95276733D01*
X144255468Y-95128919D01*
X144274236Y-95110410D01*
X144274628Y-95110091D01*
X144274928Y-95109728D01*
X144280970Y-95103770D01*
X145252971Y-94131770D01*
X145403412Y-93948620D01*
X145555681Y-93767153D01*
X145562178Y-93755335D01*
X145570742Y-93744909D01*
X145682724Y-93536064D01*
X145796866Y-93328440D01*
X145800945Y-93315582D01*
X145807319Y-93303694D01*
X145876606Y-93077066D01*
X145948244Y-92851235D01*
X145949747Y-92837834D01*
X145953692Y-92824931D01*
X145977643Y-92589136D01*
X146004050Y-92353716D01*
X146004234Y-92327356D01*
X146004285Y-92326854D01*
X146004241Y-92326386D01*
X146004300Y-92317900D01*
X146004300Y-88678786D01*
X146007983Y-88678816D01*
X146008198Y-88678839D01*
X146008426Y-88678819D01*
X146018338Y-88678899D01*
X146951807Y-88679942D01*
X147050217Y-121546619D01*
X145907547Y-121559971D01*
X145817079Y-121569910D01*
X145726507Y-121577999D01*
X145716319Y-121580979D01*
X145705749Y-121582140D01*
X145618922Y-121609466D01*
X145531659Y-121634989D01*
X145522238Y-121639894D01*
X145512102Y-121643084D01*
X145432272Y-121686734D01*
X145351591Y-121728740D01*
X145343301Y-121735382D01*
X145333978Y-121740480D01*
X145264138Y-121798812D01*
X145193162Y-121855682D01*
X145186321Y-121863807D01*
X145178165Y-121870619D01*
X145120991Y-121941399D01*
X145062408Y-122010977D01*
X145057274Y-122020278D01*
X145050598Y-122028543D01*
X145008270Y-122109061D01*
X144964306Y-122188713D01*
X144961076Y-122198836D01*
X144956134Y-122208237D01*
X144930255Y-122295435D01*
X144902597Y-122382117D01*
X144901395Y-122392674D01*
X144898372Y-122402859D01*
X144889920Y-122493439D01*
X144879627Y-122583826D01*
X144879501Y-122598349D01*
X144863913Y-131855700D01*
X91924300Y-131855700D01*
X91924300Y-112372902D01*
X92131414Y-112418439D01*
X92541234Y-112427024D01*
X92944916Y-112355844D01*
X93327084Y-112207610D01*
X93673182Y-111987970D01*
X93970027Y-111705288D01*
X94206312Y-111370333D01*
X94373038Y-110995862D01*
X94463852Y-110596139D01*
X94470390Y-110127945D01*
X94390772Y-109725842D01*
X94234567Y-109346862D01*
X94007727Y-109005440D01*
X93718891Y-108714580D01*
X93379060Y-108485362D01*
X93001180Y-108326515D01*
X92599643Y-108244092D01*
X92189743Y-108241230D01*
X91924300Y-108291866D01*
X91924300Y-104638902D01*
X92131414Y-104684439D01*
X92541234Y-104693024D01*
X92944916Y-104621844D01*
X93327084Y-104473610D01*
X93673182Y-104253970D01*
X93970027Y-103971288D01*
X94206312Y-103636333D01*
X94373038Y-103261862D01*
X94463852Y-102862139D01*
X94470390Y-102393945D01*
X94390772Y-101991842D01*
X94234567Y-101612862D01*
X94007727Y-101271440D01*
X93718891Y-100980580D01*
X93379060Y-100751362D01*
X93001180Y-100592515D01*
X92599643Y-100510092D01*
X92189743Y-100507230D01*
X91924300Y-100557866D01*
X91924300Y-78936100D01*
X121831998Y-78936100D01*
X134708198Y-78962625D01*
X134708198Y-78962625D01*
G37*
X134708198Y-78962625D02*
X134600560Y-79018419D01*
X134592105Y-79025169D01*
X134582552Y-79030248D01*
X134435270Y-79150368D01*
X134286753Y-79268928D01*
X134271695Y-79283777D01*
X134271386Y-79284029D01*
X134271150Y-79284315D01*
X134266299Y-79289098D01*
X131640299Y-81915099D01*
X131519692Y-82061928D01*
X131397511Y-82207537D01*
X131392298Y-82217019D01*
X131385432Y-82225378D01*
X131295624Y-82392870D01*
X131204071Y-82559404D01*
X131200800Y-82569715D01*
X131195687Y-82579251D01*
X131140123Y-82760995D01*
X131082659Y-82942142D01*
X131081453Y-82952895D01*
X131078290Y-82963240D01*
X131059085Y-83152310D01*
X131037901Y-83341174D01*
X131037753Y-83362324D01*
X131037713Y-83362718D01*
X131037748Y-83363085D01*
X131037700Y-83369900D01*
X131037700Y-83372900D01*
X131064851Y-83649810D01*
X131075501Y-83762471D01*
X131076092Y-83764455D01*
X131076883Y-83772518D01*
X131192939Y-84156914D01*
X131381448Y-84511448D01*
X131635229Y-84822614D01*
X131944617Y-85078562D01*
X132297825Y-85269541D01*
X132681402Y-85388278D01*
X133080737Y-85430250D01*
X133480618Y-85393858D01*
X133865816Y-85280488D01*
X134221657Y-85094459D01*
X134534587Y-84842856D01*
X134549437Y-84825159D01*
X134549901Y-84824701D01*
X136573303Y-82801300D01*
X140772898Y-82801300D01*
X141342700Y-83371103D01*
X141342700Y-85560596D01*
X141322519Y-85584647D01*
X141316020Y-85596469D01*
X141307459Y-85606891D01*
X141195498Y-85815697D01*
X141081334Y-86023360D01*
X141077255Y-86036218D01*
X141070881Y-86048106D01*
X141001594Y-86274734D01*
X140929956Y-86500565D01*
X140928453Y-86513966D01*
X140924508Y-86526869D01*
X140900557Y-86762664D01*
X140874150Y-86998084D01*
X140873966Y-87024444D01*
X140873915Y-87024946D01*
X140873959Y-87025414D01*
X140873900Y-87033900D01*
X140873900Y-90724700D01*
X136546251Y-90724700D01*
X136569399Y-90691886D01*
X136773015Y-90234556D01*
X136883925Y-89746386D01*
X136891909Y-89174595D01*
X136794673Y-88683519D01*
X136603906Y-88220681D01*
X136326872Y-87803713D01*
X135974125Y-87448494D01*
X135559100Y-87168557D01*
X135097606Y-86974562D01*
X134607221Y-86873901D01*
X134106623Y-86870406D01*
X133614880Y-86964211D01*
X133150722Y-87151743D01*
X132731829Y-87425858D01*
X132374157Y-87776117D01*
X132356767Y-87801515D01*
X130712126Y-86156874D01*
X130621418Y-86082366D01*
X130531608Y-86007006D01*
X130525758Y-86003790D01*
X130520595Y-85999549D01*
X130417217Y-85944119D01*
X130314406Y-85887598D01*
X130308036Y-85885577D01*
X130302155Y-85882424D01*
X130190012Y-85848138D01*
X130078148Y-85812653D01*
X130071512Y-85811909D01*
X130065125Y-85809956D01*
X129948410Y-85798100D01*
X129831832Y-85785024D01*
X129818777Y-85784933D01*
X129818534Y-85784908D01*
X129818307Y-85784929D01*
X129814100Y-85784900D01*
X104617100Y-85784900D01*
X104500337Y-85796349D01*
X104383482Y-85806572D01*
X104377068Y-85808435D01*
X104370422Y-85809087D01*
X104258138Y-85842988D01*
X104145463Y-85875723D01*
X104139532Y-85878798D01*
X104133141Y-85880727D01*
X104029591Y-85935785D01*
X103925409Y-85989788D01*
X103920189Y-85993955D01*
X103914293Y-85997090D01*
X103823361Y-86071253D01*
X103731701Y-86144424D01*
X103722407Y-86153588D01*
X103722215Y-86153745D01*
X103722068Y-86153923D01*
X103719075Y-86156874D01*
X102944136Y-86931812D01*
X102913532Y-86925530D01*
X102796674Y-86888909D01*
X102665937Y-86874707D01*
X102540221Y-86848901D01*
X102420708Y-86848067D01*
X102298962Y-86834841D01*
X102167960Y-86846302D01*
X102039623Y-86845406D01*
X101922226Y-86867801D01*
X101800228Y-86878474D01*
X101673943Y-86915163D01*
X101547880Y-86939211D01*
X101437070Y-86983981D01*
X101319467Y-87018148D01*
X101202713Y-87078667D01*
X101083722Y-87126743D01*
X100983716Y-87192185D01*
X100874992Y-87248542D01*
X100772222Y-87330582D01*
X100664829Y-87400858D01*
X100579435Y-87484483D01*
X100483732Y-87560881D01*
X100458230Y-87586030D01*
X100423560Y-87620700D01*
X98090100Y-87620700D01*
X97591850Y-87669554D01*
X97112578Y-87814255D01*
X96670540Y-88049290D01*
X96282572Y-88365709D01*
X95963453Y-88751458D01*
X95725337Y-89191845D01*
X95577294Y-89670095D01*
X95524963Y-90167992D01*
X95525260Y-90171252D01*
X95449334Y-90309360D01*
X95445255Y-90322218D01*
X95438881Y-90334106D01*
X95369594Y-90560734D01*
X95297956Y-90786565D01*
X95296453Y-90799966D01*
X95292508Y-90812869D01*
X95268557Y-91048664D01*
X95242150Y-91284084D01*
X95241966Y-91310444D01*
X95241915Y-91310946D01*
X95241959Y-91311414D01*
X95241900Y-91319900D01*
X95241900Y-116614900D01*
X95265027Y-116850767D01*
X95285675Y-117086772D01*
X95289437Y-117099722D01*
X95290754Y-117113150D01*
X95359240Y-117339986D01*
X95425348Y-117567533D01*
X95431557Y-117579512D01*
X95435455Y-117592422D01*
X95546688Y-117801621D01*
X95655742Y-118012008D01*
X95664157Y-118022549D01*
X95670490Y-118034460D01*
X95820267Y-118218104D01*
X95968081Y-118403268D01*
X95986590Y-118422036D01*
X95986909Y-118422428D01*
X95987272Y-118422728D01*
X95993230Y-118428770D01*
X97091605Y-119527145D01*
X97102081Y-119540268D01*
X97120590Y-119559036D01*
X97120909Y-119559428D01*
X97121272Y-119559728D01*
X97127230Y-119565770D01*
X100103538Y-122542079D01*
X100118702Y-122580379D01*
X100190610Y-122691958D01*
X100253632Y-122812509D01*
X100259267Y-122819517D01*
X100263490Y-122827460D01*
X100332330Y-122911866D01*
X100389886Y-123001176D01*
X100482106Y-123096672D01*
X100567335Y-123202676D01*
X100574222Y-123208455D01*
X100579909Y-123215428D01*
X100663830Y-123284853D01*
X100737639Y-123361285D01*
X100846652Y-123437051D01*
X100950847Y-123524481D01*
X100958727Y-123528813D01*
X100965658Y-123534547D01*
X101007785Y-123557325D01*
X104973230Y-127522771D01*
X105156380Y-127673212D01*
X105337847Y-127825481D01*
X105349665Y-127831978D01*
X105360091Y-127840542D01*
X105568918Y-127952513D01*
X105776560Y-128066666D01*
X105789421Y-128070746D01*
X105801307Y-128077119D01*
X106027920Y-128146402D01*
X106253765Y-128218044D01*
X106267166Y-128219547D01*
X106280069Y-128223492D01*
X106515864Y-128247443D01*
X106751284Y-128273850D01*
X106777644Y-128274034D01*
X106778146Y-128274085D01*
X106778614Y-128274041D01*
X106787100Y-128274100D01*
X129986100Y-128274100D01*
X130221967Y-128250973D01*
X130457972Y-128230325D01*
X130470922Y-128226563D01*
X130484350Y-128225246D01*
X130711186Y-128156760D01*
X130938733Y-128090652D01*
X130950712Y-128084443D01*
X130963622Y-128080545D01*
X131172821Y-127969312D01*
X131383208Y-127860258D01*
X131393749Y-127851843D01*
X131405660Y-127845510D01*
X131589304Y-127695733D01*
X131774468Y-127547919D01*
X131793236Y-127529410D01*
X131793628Y-127529091D01*
X131793928Y-127528728D01*
X131799970Y-127522770D01*
X134288100Y-125034640D01*
X135149222Y-125895762D01*
X135179754Y-126207150D01*
X135324455Y-126686422D01*
X135559490Y-127128460D01*
X135875909Y-127516428D01*
X136261658Y-127835547D01*
X136702045Y-128073663D01*
X137180295Y-128221706D01*
X137678192Y-128274037D01*
X138176771Y-128228663D01*
X138657041Y-128087312D01*
X139100709Y-127855368D01*
X139490876Y-127541665D01*
X139812681Y-127158153D01*
X140053866Y-126719440D01*
X140205244Y-126242235D01*
X140261050Y-125744716D01*
X140261300Y-125708900D01*
X140261300Y-124814900D01*
X140238178Y-124579083D01*
X140217526Y-124343028D01*
X140213762Y-124330073D01*
X140212446Y-124316650D01*
X140143972Y-124089855D01*
X140077852Y-123862267D01*
X140071643Y-123850288D01*
X140067745Y-123837378D01*
X139956512Y-123628179D01*
X139847458Y-123417792D01*
X139839043Y-123407251D01*
X139832710Y-123395340D01*
X139682933Y-123211696D01*
X139535119Y-123026532D01*
X139516610Y-123007764D01*
X139516291Y-123007372D01*
X139515928Y-123007072D01*
X139509970Y-123001030D01*
X136101970Y-119593030D01*
X136007345Y-119515304D01*
X135923125Y-119430494D01*
X135824038Y-119363659D01*
X135729956Y-119285273D01*
X135722058Y-119280967D01*
X135715109Y-119275259D01*
X135607185Y-119217391D01*
X135508100Y-119150557D01*
X135397925Y-119104244D01*
X135290404Y-119045621D01*
X135281820Y-119042931D01*
X135273894Y-119038681D01*
X135156784Y-119002877D01*
X135046606Y-118956562D01*
X134929533Y-118932530D01*
X134812674Y-118895909D01*
X134803732Y-118894938D01*
X134795131Y-118892308D01*
X134673291Y-118879932D01*
X134556221Y-118855901D01*
X134436708Y-118855067D01*
X134314962Y-118841841D01*
X134306007Y-118842624D01*
X134297054Y-118841715D01*
X134175130Y-118853240D01*
X134055623Y-118852406D01*
X133938226Y-118874801D01*
X133816228Y-118885474D01*
X133807589Y-118887984D01*
X133798637Y-118888830D01*
X133681279Y-118923816D01*
X133563880Y-118946211D01*
X133453068Y-118990982D01*
X133335468Y-119025148D01*
X133327482Y-119029288D01*
X133318863Y-119031857D01*
X133210538Y-119088970D01*
X133099722Y-119133743D01*
X132999715Y-119199185D01*
X132890992Y-119255542D01*
X132883959Y-119261156D01*
X132876007Y-119265349D01*
X132780845Y-119342410D01*
X132680829Y-119407858D01*
X132595435Y-119491483D01*
X132499732Y-119567881D01*
X132487435Y-119580007D01*
X132486937Y-119580411D01*
X132486526Y-119580904D01*
X132474230Y-119593030D01*
X128923560Y-123143700D01*
X128173318Y-123143700D01*
X128254468Y-123078919D01*
X128273236Y-123060410D01*
X128273628Y-123060091D01*
X128273928Y-123059728D01*
X128279970Y-123053770D01*
X132138970Y-119194770D01*
X132289365Y-119011676D01*
X132441681Y-118830153D01*
X132448180Y-118818331D01*
X132456741Y-118807909D01*
X132568702Y-118599103D01*
X132682866Y-118391440D01*
X132686945Y-118378582D01*
X132693319Y-118366694D01*
X132762606Y-118140066D01*
X132834244Y-117914235D01*
X132835747Y-117900834D01*
X132839692Y-117887931D01*
X132857967Y-117708020D01*
X132869925Y-117655386D01*
X132870870Y-117587709D01*
X132890050Y-117416716D01*
X132890234Y-117390356D01*
X132890285Y-117389854D01*
X132890241Y-117389386D01*
X132890300Y-117380900D01*
X132890300Y-117333900D01*
X132876394Y-117192078D01*
X132877909Y-117083595D01*
X132853837Y-116962023D01*
X132841446Y-116835650D01*
X132804745Y-116714090D01*
X132780673Y-116592519D01*
X132733446Y-116477936D01*
X132696745Y-116356378D01*
X132637135Y-116244267D01*
X132589906Y-116129681D01*
X132521322Y-116026454D01*
X132461710Y-115914340D01*
X132381453Y-115815935D01*
X132312872Y-115712713D01*
X132225549Y-115624778D01*
X132145291Y-115526372D01*
X132047450Y-115445431D01*
X131960125Y-115357494D01*
X131857382Y-115288193D01*
X131759542Y-115207253D01*
X131647842Y-115146857D01*
X131545100Y-115077557D01*
X131430853Y-115029532D01*
X131319155Y-114969137D01*
X131197858Y-114931589D01*
X131083606Y-114883562D01*
X130962200Y-114858641D01*
X130840905Y-114821094D01*
X130714624Y-114807821D01*
X130593221Y-114782901D01*
X130469290Y-114782036D01*
X130343008Y-114768763D01*
X130216553Y-114780271D01*
X130092623Y-114779406D01*
X129970886Y-114802629D01*
X129844429Y-114814137D01*
X129722615Y-114849989D01*
X129600880Y-114873211D01*
X129485975Y-114919636D01*
X129364159Y-114955488D01*
X129251626Y-115014319D01*
X129136722Y-115060743D01*
X129033022Y-115128602D01*
X128920491Y-115187432D01*
X128821534Y-115266995D01*
X128717829Y-115334858D01*
X128629278Y-115421574D01*
X128530324Y-115501135D01*
X128448707Y-115598402D01*
X128360157Y-115685117D01*
X128290138Y-115787378D01*
X128286255Y-115792005D01*
X125403560Y-118674700D01*
X111284640Y-118674700D01*
X108134970Y-115525030D01*
X108040345Y-115447304D01*
X107956125Y-115362494D01*
X107860700Y-115298129D01*
X107770353Y-115222319D01*
X107758531Y-115215820D01*
X107748109Y-115207259D01*
X107713806Y-115188866D01*
X106139478Y-113614538D01*
X107842045Y-113614538D01*
X107932415Y-114106924D01*
X108116702Y-114572379D01*
X108387886Y-114993176D01*
X108735639Y-115353285D01*
X109146715Y-115638990D01*
X109605456Y-115839408D01*
X110094388Y-115946907D01*
X110594888Y-115957391D01*
X111087893Y-115870461D01*
X111554624Y-115689428D01*
X111977303Y-115421188D01*
X112339831Y-115075957D01*
X112628399Y-114666886D01*
X112832015Y-114209556D01*
X112942925Y-113721386D01*
X112946279Y-113481181D01*
X115720660Y-113481181D01*
X115807932Y-113956689D01*
X115985902Y-114406190D01*
X116247791Y-114812563D01*
X116583624Y-115160328D01*
X116980609Y-115436240D01*
X117423625Y-115629789D01*
X117895798Y-115733603D01*
X118379143Y-115743727D01*
X118855249Y-115659777D01*
X119305981Y-115484949D01*
X119714172Y-115225904D01*
X120064274Y-114892506D01*
X120342950Y-114497457D01*
X120539587Y-114055803D01*
X120637113Y-113626538D01*
X123750045Y-113626538D01*
X123840415Y-114118924D01*
X124024702Y-114584379D01*
X124295886Y-115005176D01*
X124643639Y-115365285D01*
X125054715Y-115650990D01*
X125513456Y-115851408D01*
X126002388Y-115958907D01*
X126502888Y-115969391D01*
X126995893Y-115882461D01*
X127462624Y-115701428D01*
X127885303Y-115433188D01*
X128247831Y-115087957D01*
X128536399Y-114678886D01*
X128740015Y-114221556D01*
X128850925Y-113733386D01*
X128858909Y-113161595D01*
X128761673Y-112670519D01*
X128570906Y-112207681D01*
X128293872Y-111790713D01*
X127941125Y-111435494D01*
X127526100Y-111155557D01*
X127064606Y-110961562D01*
X126574221Y-110860901D01*
X126073623Y-110857406D01*
X125581880Y-110951211D01*
X125117722Y-111138743D01*
X124698829Y-111412858D01*
X124341157Y-111763117D01*
X124058329Y-112176177D01*
X123861117Y-112636306D01*
X123757035Y-113125977D01*
X123750045Y-113626538D01*
X120637113Y-113626538D01*
X120646695Y-113584366D01*
X120654406Y-113032175D01*
X120560503Y-112557931D01*
X120376274Y-112110959D01*
X120108737Y-111708283D01*
X119768081Y-111365240D01*
X119367282Y-111094898D01*
X118921607Y-110907553D01*
X118448030Y-110810342D01*
X117964591Y-110806967D01*
X117489704Y-110897556D01*
X117041456Y-111078660D01*
X116636922Y-111343380D01*
X116291510Y-111681633D01*
X116018376Y-112080534D01*
X115827925Y-112524891D01*
X115727410Y-112997777D01*
X115720660Y-113481181D01*
X112946279Y-113481181D01*
X112950909Y-113149595D01*
X112853673Y-112658519D01*
X112662906Y-112195681D01*
X112385872Y-111778713D01*
X112033125Y-111423494D01*
X111618100Y-111143557D01*
X111156606Y-110949562D01*
X110666221Y-110848901D01*
X110165623Y-110845406D01*
X109673880Y-110939211D01*
X109209722Y-111126743D01*
X108790829Y-111400858D01*
X108433157Y-111751117D01*
X108150329Y-112164177D01*
X107953117Y-112624306D01*
X107849035Y-113113977D01*
X107842045Y-113614538D01*
X106139478Y-113614538D01*
X104550300Y-112025360D01*
X104550300Y-105480181D01*
X107719660Y-105480181D01*
X107806932Y-105955689D01*
X107984902Y-106405190D01*
X108246791Y-106811563D01*
X108582624Y-107159328D01*
X108979609Y-107435240D01*
X109422625Y-107628789D01*
X109894798Y-107732603D01*
X110378143Y-107742727D01*
X110854249Y-107658777D01*
X111304981Y-107483949D01*
X111713172Y-107224904D01*
X112063274Y-106891506D01*
X112341950Y-106496457D01*
X112538587Y-106054803D01*
X112645695Y-105583366D01*
X112647135Y-105480181D01*
X123721660Y-105480181D01*
X123808932Y-105955689D01*
X123986902Y-106405190D01*
X124248791Y-106811563D01*
X124584624Y-107159328D01*
X124981609Y-107435240D01*
X125424625Y-107628789D01*
X125896798Y-107732603D01*
X126380143Y-107742727D01*
X126856249Y-107658777D01*
X127306981Y-107483949D01*
X127715172Y-107224904D01*
X128065274Y-106891506D01*
X128343950Y-106496457D01*
X128540587Y-106054803D01*
X128647695Y-105583366D01*
X128655406Y-105031175D01*
X128561503Y-104556931D01*
X128377274Y-104109959D01*
X128109737Y-103707283D01*
X127769081Y-103364240D01*
X127368282Y-103093898D01*
X126922607Y-102906553D01*
X126449030Y-102809342D01*
X125965591Y-102805967D01*
X125490704Y-102896556D01*
X125042456Y-103077660D01*
X124637922Y-103342380D01*
X124292510Y-103680633D01*
X124019376Y-104079534D01*
X123828925Y-104523891D01*
X123728410Y-104996777D01*
X123721660Y-105480181D01*
X112647135Y-105480181D01*
X112653406Y-105031175D01*
X112559503Y-104556931D01*
X112375274Y-104109959D01*
X112107737Y-103707283D01*
X111767081Y-103364240D01*
X111366282Y-103093898D01*
X110920607Y-102906553D01*
X110447030Y-102809342D01*
X109963591Y-102805967D01*
X109488704Y-102896556D01*
X109040456Y-103077660D01*
X108635922Y-103342380D01*
X108290510Y-103680633D01*
X108017376Y-104079534D01*
X107826925Y-104523891D01*
X107726410Y-104996777D01*
X107719660Y-105480181D01*
X104550300Y-105480181D01*
X104550300Y-98746440D01*
X105662202Y-97634538D01*
X107707045Y-97634538D01*
X107797415Y-98126924D01*
X107981702Y-98592379D01*
X108252886Y-99013176D01*
X108600639Y-99373285D01*
X109011715Y-99658990D01*
X109470456Y-99859408D01*
X109959388Y-99966907D01*
X110459888Y-99977391D01*
X110952893Y-99890461D01*
X111419624Y-99709428D01*
X111842303Y-99441188D01*
X112204831Y-99095957D01*
X112493399Y-98686886D01*
X112697015Y-98229556D01*
X112807925Y-97741386D01*
X112811940Y-97453781D01*
X115720660Y-97453781D01*
X115807932Y-97929289D01*
X115985902Y-98378790D01*
X116247791Y-98785163D01*
X116583624Y-99132928D01*
X116980609Y-99408840D01*
X117423625Y-99602389D01*
X117895798Y-99706203D01*
X118379143Y-99716327D01*
X118855249Y-99632377D01*
X119305981Y-99457549D01*
X119714172Y-99198504D01*
X120064274Y-98865106D01*
X120342950Y-98470057D01*
X120539587Y-98028403D01*
X120629525Y-97632538D01*
X123838045Y-97632538D01*
X123928415Y-98124924D01*
X124112702Y-98590379D01*
X124383886Y-99011176D01*
X124731639Y-99371285D01*
X125142715Y-99656990D01*
X125601456Y-99857408D01*
X126090388Y-99964907D01*
X126590888Y-99975391D01*
X127083893Y-99888461D01*
X127550624Y-99707428D01*
X127973303Y-99439188D01*
X128335831Y-99093957D01*
X128624399Y-98684886D01*
X128828015Y-98227556D01*
X128938925Y-97739386D01*
X128946909Y-97167595D01*
X128849673Y-96676519D01*
X128658906Y-96213681D01*
X128381872Y-95796713D01*
X128029125Y-95441494D01*
X127614100Y-95161557D01*
X127152606Y-94967562D01*
X126662221Y-94866901D01*
X126161623Y-94863406D01*
X125669880Y-94957211D01*
X125205722Y-95144743D01*
X124786829Y-95418858D01*
X124429157Y-95769117D01*
X124146329Y-96182177D01*
X123949117Y-96642306D01*
X123845035Y-97131977D01*
X123838045Y-97632538D01*
X120629525Y-97632538D01*
X120646695Y-97556966D01*
X120654406Y-97004775D01*
X120560503Y-96530531D01*
X120376274Y-96083559D01*
X120108737Y-95680883D01*
X119768081Y-95337840D01*
X119367282Y-95067498D01*
X118921607Y-94880153D01*
X118448030Y-94782942D01*
X117964591Y-94779567D01*
X117489704Y-94870156D01*
X117041456Y-95051260D01*
X116636922Y-95315980D01*
X116291510Y-95654233D01*
X116018376Y-96053134D01*
X115827925Y-96497491D01*
X115727410Y-96970377D01*
X115720660Y-97453781D01*
X112811940Y-97453781D01*
X112815909Y-97169595D01*
X112718673Y-96678519D01*
X112527906Y-96215681D01*
X112250872Y-95798713D01*
X111898125Y-95443494D01*
X111483100Y-95163557D01*
X111021606Y-94969562D01*
X110531221Y-94868901D01*
X110030623Y-94865406D01*
X109538880Y-94959211D01*
X109074722Y-95146743D01*
X108655829Y-95420858D01*
X108298157Y-95771117D01*
X108015329Y-96184177D01*
X107818117Y-96644306D01*
X107714035Y-97133977D01*
X107707045Y-97634538D01*
X105662202Y-97634538D01*
X107598731Y-95698009D01*
X107650821Y-95670312D01*
X107861208Y-95561258D01*
X107871749Y-95552843D01*
X107883660Y-95546510D01*
X108067304Y-95396733D01*
X108252468Y-95248919D01*
X108271236Y-95230410D01*
X108271628Y-95230091D01*
X108271928Y-95229728D01*
X108277970Y-95223770D01*
X110989641Y-92512100D01*
X125788560Y-92512100D01*
X128380230Y-95103770D01*
X128460902Y-95170035D01*
X128531639Y-95243285D01*
X128640652Y-95319051D01*
X128744847Y-95406481D01*
X128756669Y-95412980D01*
X128767091Y-95421541D01*
X128859099Y-95470875D01*
X128942715Y-95528990D01*
X129064360Y-95582135D01*
X129183560Y-95647666D01*
X129196418Y-95651745D01*
X129208306Y-95658119D01*
X129308155Y-95688646D01*
X129401456Y-95729408D01*
X129531102Y-95757913D01*
X129660765Y-95799044D01*
X129674166Y-95800547D01*
X129687069Y-95804492D01*
X129790948Y-95815044D01*
X129890388Y-95836907D01*
X130023104Y-95839687D01*
X130158284Y-95854850D01*
X130184644Y-95855034D01*
X130185146Y-95855085D01*
X130185614Y-95855041D01*
X130194100Y-95855100D01*
X142467100Y-95855100D01*
X142702967Y-95831973D01*
X142938972Y-95811325D01*
X142951922Y-95807563D01*
X142965350Y-95806246D01*
X143192186Y-95737760D01*
X143419733Y-95671652D01*
X143431712Y-95665443D01*
X143444622Y-95661545D01*
X143653821Y-95550312D01*
X143864208Y-95441258D01*
X143874749Y-95432843D01*
X143886660Y-95426510D01*
X144070304Y-95276733D01*
X144255468Y-95128919D01*
X144274236Y-95110410D01*
X144274628Y-95110091D01*
X144274928Y-95109728D01*
X144280970Y-95103770D01*
X145252971Y-94131770D01*
X145403412Y-93948620D01*
X145555681Y-93767153D01*
X145562178Y-93755335D01*
X145570742Y-93744909D01*
X145682724Y-93536064D01*
X145796866Y-93328440D01*
X145800945Y-93315582D01*
X145807319Y-93303694D01*
X145876606Y-93077066D01*
X145948244Y-92851235D01*
X145949747Y-92837834D01*
X145953692Y-92824931D01*
X145977643Y-92589136D01*
X146004050Y-92353716D01*
X146004234Y-92327356D01*
X146004285Y-92326854D01*
X146004241Y-92326386D01*
X146004300Y-92317900D01*
X146004300Y-88678786D01*
X146007983Y-88678816D01*
X146008198Y-88678839D01*
X146008426Y-88678819D01*
X146018338Y-88678899D01*
X146951807Y-88679942D01*
X147050217Y-121546619D01*
X145907547Y-121559971D01*
X145817079Y-121569910D01*
X145726507Y-121577999D01*
X145716319Y-121580979D01*
X145705749Y-121582140D01*
X145618922Y-121609466D01*
X145531659Y-121634989D01*
X145522238Y-121639894D01*
X145512102Y-121643084D01*
X145432272Y-121686734D01*
X145351591Y-121728740D01*
X145343301Y-121735382D01*
X145333978Y-121740480D01*
X145264138Y-121798812D01*
X145193162Y-121855682D01*
X145186321Y-121863807D01*
X145178165Y-121870619D01*
X145120991Y-121941399D01*
X145062408Y-122010977D01*
X145057274Y-122020278D01*
X145050598Y-122028543D01*
X145008270Y-122109061D01*
X144964306Y-122188713D01*
X144961076Y-122198836D01*
X144956134Y-122208237D01*
X144930255Y-122295435D01*
X144902597Y-122382117D01*
X144901395Y-122392674D01*
X144898372Y-122402859D01*
X144889920Y-122493439D01*
X144879627Y-122583826D01*
X144879501Y-122598349D01*
X144863913Y-131855700D01*
X91924300Y-131855700D01*
X91924300Y-112372902D01*
X92131414Y-112418439D01*
X92541234Y-112427024D01*
X92944916Y-112355844D01*
X93327084Y-112207610D01*
X93673182Y-111987970D01*
X93970027Y-111705288D01*
X94206312Y-111370333D01*
X94373038Y-110995862D01*
X94463852Y-110596139D01*
X94470390Y-110127945D01*
X94390772Y-109725842D01*
X94234567Y-109346862D01*
X94007727Y-109005440D01*
X93718891Y-108714580D01*
X93379060Y-108485362D01*
X93001180Y-108326515D01*
X92599643Y-108244092D01*
X92189743Y-108241230D01*
X91924300Y-108291866D01*
X91924300Y-104638902D01*
X92131414Y-104684439D01*
X92541234Y-104693024D01*
X92944916Y-104621844D01*
X93327084Y-104473610D01*
X93673182Y-104253970D01*
X93970027Y-103971288D01*
X94206312Y-103636333D01*
X94373038Y-103261862D01*
X94463852Y-102862139D01*
X94470390Y-102393945D01*
X94390772Y-101991842D01*
X94234567Y-101612862D01*
X94007727Y-101271440D01*
X93718891Y-100980580D01*
X93379060Y-100751362D01*
X93001180Y-100592515D01*
X92599643Y-100510092D01*
X92189743Y-100507230D01*
X91924300Y-100557866D01*
X91924300Y-78936100D01*
X121831998Y-78936100D01*
X134708198Y-78962625D01*
M02*
