G04 #@! TF.FileFunction,Soldermask,Bot*
%FSLAX46Y46*%
G04 Gerber Fmt 4.6, Leading zero omitted, Abs format (unit mm)*
G04 Created by KiCad (PCBNEW 4.0.6) date 05/08/17 07:31:45*
%MOMM*%
%LPD*%
G01*
G04 APERTURE LIST*
%ADD10C,0.100000*%
%ADD11C,1.500000*%
%ADD12R,1.035000X1.670000*%
G04 APERTURE END LIST*
D10*
D11*
X145062300Y-116519900D03*
D12*
X145443300Y-116519900D03*
X146078300Y-116519900D03*
X144808300Y-116519900D03*
X144173300Y-116519900D03*
X143538300Y-116519900D03*
X146675200Y-116519900D03*
X147272100Y-116519900D03*
X142916000Y-116519900D03*
X142293700Y-116519900D03*
D11*
X143452700Y-126598500D03*
D12*
X143833700Y-126598500D03*
X144468700Y-126598500D03*
X143198700Y-126598500D03*
X142563700Y-126598500D03*
X141928700Y-126598500D03*
X145065600Y-126598500D03*
X145662500Y-126598500D03*
X141306400Y-126598500D03*
X140684100Y-126598500D03*
D11*
X145138500Y-100543300D03*
D12*
X145519500Y-100543300D03*
X146154500Y-100543300D03*
X144884500Y-100543300D03*
X144249500Y-100543300D03*
X143614500Y-100543300D03*
X146751400Y-100543300D03*
X147348300Y-100543300D03*
X142992200Y-100543300D03*
X142369900Y-100543300D03*
D11*
X145011500Y-97774700D03*
D12*
X145392500Y-97774700D03*
X146027500Y-97774700D03*
X144757500Y-97774700D03*
X144122500Y-97774700D03*
X143487500Y-97774700D03*
X146624400Y-97774700D03*
X147221300Y-97774700D03*
X142865200Y-97774700D03*
X142242900Y-97774700D03*
D11*
X145062300Y-111109700D03*
D12*
X145443300Y-111109700D03*
X146078300Y-111109700D03*
X144808300Y-111109700D03*
X144173300Y-111109700D03*
X143538300Y-111109700D03*
X146675200Y-111109700D03*
X147272100Y-111109700D03*
X142916000Y-111109700D03*
X142293700Y-111109700D03*
D11*
X145036900Y-86497100D03*
D12*
X145417900Y-86497100D03*
X146052900Y-86497100D03*
X144782900Y-86497100D03*
X144147900Y-86497100D03*
X143512900Y-86497100D03*
X146649800Y-86497100D03*
X147246700Y-86497100D03*
X142890600Y-86497100D03*
X142268300Y-86497100D03*
D11*
X145011500Y-103210300D03*
D12*
X145392500Y-103210300D03*
X146027500Y-103210300D03*
X144757500Y-103210300D03*
X144122500Y-103210300D03*
X143487500Y-103210300D03*
X146624400Y-103210300D03*
X147221300Y-103210300D03*
X142865200Y-103210300D03*
X142242900Y-103210300D03*
D11*
X145036900Y-95107700D03*
D12*
X145417900Y-95107700D03*
X146052900Y-95107700D03*
X144782900Y-95107700D03*
X144147900Y-95107700D03*
X143512900Y-95107700D03*
X146649800Y-95107700D03*
X147246700Y-95107700D03*
X142890600Y-95107700D03*
X142268300Y-95107700D03*
D11*
X145036900Y-92313700D03*
D12*
X145417900Y-92313700D03*
X146052900Y-92313700D03*
X144782900Y-92313700D03*
X144147900Y-92313700D03*
X143512900Y-92313700D03*
X146649800Y-92313700D03*
X147246700Y-92313700D03*
X142890600Y-92313700D03*
X142268300Y-92313700D03*
D11*
X145062300Y-108417300D03*
D12*
X145443300Y-108417300D03*
X146078300Y-108417300D03*
X144808300Y-108417300D03*
X144173300Y-108417300D03*
X143538300Y-108417300D03*
X146675200Y-108417300D03*
X147272100Y-108417300D03*
X142916000Y-108417300D03*
X142293700Y-108417300D03*
D11*
X143351700Y-81078100D03*
D12*
X143732700Y-81078100D03*
X144367700Y-81078100D03*
X143097700Y-81078100D03*
X142462700Y-81078100D03*
X141827700Y-81078100D03*
X144964600Y-81078100D03*
X145561500Y-81078100D03*
X141205400Y-81078100D03*
X140583100Y-81078100D03*
D11*
X145087700Y-113700500D03*
D12*
X145468700Y-113700500D03*
X146103700Y-113700500D03*
X144833700Y-113700500D03*
X144198700Y-113700500D03*
X143563700Y-113700500D03*
X146700600Y-113700500D03*
X147297500Y-113700500D03*
X142941400Y-113700500D03*
X142319100Y-113700500D03*
D11*
X143426900Y-123750100D03*
D12*
X143807900Y-123750100D03*
X144442900Y-123750100D03*
X143172900Y-123750100D03*
X142537900Y-123750100D03*
X141902900Y-123750100D03*
X145039800Y-123750100D03*
X145636700Y-123750100D03*
X141280600Y-123750100D03*
X140658300Y-123750100D03*
D11*
X145011500Y-89519700D03*
D12*
X145392500Y-89519700D03*
X146027500Y-89519700D03*
X144757500Y-89519700D03*
X144122500Y-89519700D03*
X143487500Y-89519700D03*
X146624400Y-89519700D03*
X147221300Y-89519700D03*
X142865200Y-89519700D03*
X142242900Y-89519700D03*
D11*
X145087700Y-105851900D03*
D12*
X145468700Y-105851900D03*
X146103700Y-105851900D03*
X144833700Y-105851900D03*
X144198700Y-105851900D03*
X143563700Y-105851900D03*
X146700600Y-105851900D03*
X147297500Y-105851900D03*
X142941400Y-105851900D03*
X142319100Y-105851900D03*
D11*
X105812100Y-123631100D03*
D12*
X106193100Y-123631100D03*
X106828100Y-123631100D03*
X105558100Y-123631100D03*
X104923100Y-123631100D03*
X104288100Y-123631100D03*
X107425000Y-123631100D03*
X108021900Y-123631100D03*
X103665800Y-123631100D03*
X103043500Y-123631100D03*
D11*
X105967100Y-126667100D03*
D12*
X106348100Y-126667100D03*
X106983100Y-126667100D03*
X105713100Y-126667100D03*
X105078100Y-126667100D03*
X104443100Y-126667100D03*
X107580000Y-126667100D03*
X108176900Y-126667100D03*
X103820800Y-126667100D03*
X103198500Y-126667100D03*
D11*
X105967100Y-120488100D03*
D12*
X106348100Y-120488100D03*
X106983100Y-120488100D03*
X105713100Y-120488100D03*
X105078100Y-120488100D03*
X104443100Y-120488100D03*
X107580000Y-120488100D03*
X108176900Y-120488100D03*
X103820800Y-120488100D03*
X103198500Y-120488100D03*
D11*
X105966100Y-117265100D03*
D12*
X106347100Y-117265100D03*
X106982100Y-117265100D03*
X105712100Y-117265100D03*
X105077100Y-117265100D03*
X104442100Y-117265100D03*
X107579000Y-117265100D03*
X108175900Y-117265100D03*
X103819800Y-117265100D03*
X103197500Y-117265100D03*
M02*
