G04 #@! TF.FileFunction,Legend,Top*
%FSLAX46Y46*%
G04 Gerber Fmt 4.6, Leading zero omitted, Abs format (unit mm)*
G04 Created by KiCad (PCBNEW 4.0.6) date 05/07/17 20:57:05*
%MOMM*%
%LPD*%
G01*
G04 APERTURE LIST*
%ADD10C,0.100000*%
%ADD11C,0.113792*%
%ADD12C,0.127000*%
%ADD13C,0.101600*%
%ADD14C,0.002032*%
G04 APERTURE END LIST*
D10*
D11*
X124166567Y-77546140D02*
X123716140Y-77546140D01*
X123523100Y-78253953D02*
X124166567Y-78253953D01*
X124166567Y-76902673D01*
X123523100Y-76902673D01*
X122943980Y-78253953D02*
X122943980Y-76902673D01*
X122493553Y-77867873D01*
X122043126Y-76902673D01*
X122043126Y-78253953D01*
X121399660Y-77546140D02*
X120949233Y-77546140D01*
X120756193Y-78253953D02*
X121399660Y-78253953D01*
X121399660Y-76902673D01*
X120756193Y-76902673D01*
X119404913Y-78253953D02*
X119855339Y-77610487D01*
X120177073Y-78253953D02*
X120177073Y-76902673D01*
X119662299Y-76902673D01*
X119533606Y-76967020D01*
X119469259Y-77031367D01*
X119404913Y-77160060D01*
X119404913Y-77353100D01*
X119469259Y-77481793D01*
X119533606Y-77546140D01*
X119662299Y-77610487D01*
X120177073Y-77610487D01*
X118117979Y-76967020D02*
X118246673Y-76902673D01*
X118439713Y-76902673D01*
X118632753Y-76967020D01*
X118761446Y-77095713D01*
X118825793Y-77224407D01*
X118890139Y-77481793D01*
X118890139Y-77674833D01*
X118825793Y-77932220D01*
X118761446Y-78060913D01*
X118632753Y-78189607D01*
X118439713Y-78253953D01*
X118311019Y-78253953D01*
X118117979Y-78189607D01*
X118053633Y-78125260D01*
X118053633Y-77674833D01*
X118311019Y-77674833D01*
X117474513Y-77546140D02*
X117024086Y-77546140D01*
X116831046Y-78253953D02*
X117474513Y-78253953D01*
X117474513Y-76902673D01*
X116831046Y-76902673D01*
X114771952Y-77546140D02*
X115222379Y-77546140D01*
X115222379Y-78253953D02*
X115222379Y-76902673D01*
X114578912Y-76902673D01*
X114128485Y-77867873D02*
X113485019Y-77867873D01*
X114257179Y-78253953D02*
X113806752Y-76902673D01*
X113356325Y-78253953D01*
X112133739Y-78125260D02*
X112198085Y-78189607D01*
X112391125Y-78253953D01*
X112519819Y-78253953D01*
X112712859Y-78189607D01*
X112841552Y-78060913D01*
X112905899Y-77932220D01*
X112970245Y-77674833D01*
X112970245Y-77481793D01*
X112905899Y-77224407D01*
X112841552Y-77095713D01*
X112712859Y-76967020D01*
X112519819Y-76902673D01*
X112391125Y-76902673D01*
X112198085Y-76967020D01*
X112133739Y-77031367D01*
X111554619Y-77546140D02*
X111104192Y-77546140D01*
X110911152Y-78253953D02*
X111554619Y-78253953D01*
X111554619Y-76902673D01*
X110911152Y-76902673D01*
X109431178Y-76902673D02*
X108594671Y-76902673D01*
X109045098Y-77417447D01*
X108852058Y-77417447D01*
X108723365Y-77481793D01*
X108659018Y-77546140D01*
X108594671Y-77674833D01*
X108594671Y-77996567D01*
X108659018Y-78125260D01*
X108723365Y-78189607D01*
X108852058Y-78253953D01*
X109238138Y-78253953D01*
X109366831Y-78189607D01*
X109431178Y-78125260D01*
D12*
X129170005Y-90063148D02*
X129572171Y-91269648D01*
X129974338Y-90063148D01*
X131065933Y-91154743D02*
X131008481Y-91212195D01*
X130836124Y-91269648D01*
X130721219Y-91269648D01*
X130548862Y-91212195D01*
X130433957Y-91097290D01*
X130376505Y-90982386D01*
X130319053Y-90752576D01*
X130319053Y-90580219D01*
X130376505Y-90350410D01*
X130433957Y-90235505D01*
X130548862Y-90120600D01*
X130721219Y-90063148D01*
X130836124Y-90063148D01*
X131008481Y-90120600D01*
X131065933Y-90178052D01*
X132272433Y-91154743D02*
X132214981Y-91212195D01*
X132042624Y-91269648D01*
X131927719Y-91269648D01*
X131755362Y-91212195D01*
X131640457Y-91097290D01*
X131583005Y-90982386D01*
X131525553Y-90752576D01*
X131525553Y-90580219D01*
X131583005Y-90350410D01*
X131640457Y-90235505D01*
X131755362Y-90120600D01*
X131927719Y-90063148D01*
X132042624Y-90063148D01*
X132214981Y-90120600D01*
X132272433Y-90178052D01*
X132502243Y-91384552D02*
X133421481Y-91384552D01*
X133651291Y-90178052D02*
X133708743Y-90120600D01*
X133823648Y-90063148D01*
X134110910Y-90063148D01*
X134225814Y-90120600D01*
X134283267Y-90178052D01*
X134340719Y-90292957D01*
X134340719Y-90407862D01*
X134283267Y-90580219D01*
X133593838Y-91269648D01*
X134340719Y-91269648D01*
X134570529Y-91384552D02*
X135489767Y-91384552D01*
X136466457Y-91154743D02*
X136409005Y-91212195D01*
X136236648Y-91269648D01*
X136121743Y-91269648D01*
X135949386Y-91212195D01*
X135834481Y-91097290D01*
X135777029Y-90982386D01*
X135719577Y-90752576D01*
X135719577Y-90580219D01*
X135777029Y-90350410D01*
X135834481Y-90235505D01*
X135949386Y-90120600D01*
X136121743Y-90063148D01*
X136236648Y-90063148D01*
X136409005Y-90120600D01*
X136466457Y-90178052D01*
X136868624Y-90063148D02*
X137615505Y-90063148D01*
X137213338Y-90522767D01*
X137385696Y-90522767D01*
X137500600Y-90580219D01*
X137558053Y-90637671D01*
X137615505Y-90752576D01*
X137615505Y-91039838D01*
X137558053Y-91154743D01*
X137500600Y-91212195D01*
X137385696Y-91269648D01*
X137040981Y-91269648D01*
X136926077Y-91212195D01*
X136868624Y-91154743D01*
X105166005Y-90058148D02*
X105568171Y-91264648D01*
X105970338Y-90058148D01*
X107061933Y-91149743D02*
X107004481Y-91207195D01*
X106832124Y-91264648D01*
X106717219Y-91264648D01*
X106544862Y-91207195D01*
X106429957Y-91092290D01*
X106372505Y-90977386D01*
X106315053Y-90747576D01*
X106315053Y-90575219D01*
X106372505Y-90345410D01*
X106429957Y-90230505D01*
X106544862Y-90115600D01*
X106717219Y-90058148D01*
X106832124Y-90058148D01*
X107004481Y-90115600D01*
X107061933Y-90173052D01*
X108268433Y-91149743D02*
X108210981Y-91207195D01*
X108038624Y-91264648D01*
X107923719Y-91264648D01*
X107751362Y-91207195D01*
X107636457Y-91092290D01*
X107579005Y-90977386D01*
X107521553Y-90747576D01*
X107521553Y-90575219D01*
X107579005Y-90345410D01*
X107636457Y-90230505D01*
X107751362Y-90115600D01*
X107923719Y-90058148D01*
X108038624Y-90058148D01*
X108210981Y-90115600D01*
X108268433Y-90173052D01*
X108498243Y-91379552D02*
X109417481Y-91379552D01*
X110336719Y-91264648D02*
X109647291Y-91264648D01*
X109992005Y-91264648D02*
X109992005Y-90058148D01*
X109877100Y-90230505D01*
X109762195Y-90345410D01*
X109647291Y-90402862D01*
X110566529Y-91379552D02*
X111485767Y-91379552D01*
X112462457Y-91149743D02*
X112405005Y-91207195D01*
X112232648Y-91264648D01*
X112117743Y-91264648D01*
X111945386Y-91207195D01*
X111830481Y-91092290D01*
X111773029Y-90977386D01*
X111715577Y-90747576D01*
X111715577Y-90575219D01*
X111773029Y-90345410D01*
X111830481Y-90230505D01*
X111945386Y-90115600D01*
X112117743Y-90058148D01*
X112232648Y-90058148D01*
X112405005Y-90115600D01*
X112462457Y-90173052D01*
X112864624Y-90058148D02*
X113611505Y-90058148D01*
X113209338Y-90517767D01*
X113381696Y-90517767D01*
X113496600Y-90575219D01*
X113554053Y-90632671D01*
X113611505Y-90747576D01*
X113611505Y-91034838D01*
X113554053Y-91149743D01*
X113496600Y-91207195D01*
X113381696Y-91264648D01*
X113036981Y-91264648D01*
X112922077Y-91207195D01*
X112864624Y-91149743D01*
X129039005Y-114107148D02*
X129441171Y-115313648D01*
X129843338Y-114107148D01*
X130934933Y-115198743D02*
X130877481Y-115256195D01*
X130705124Y-115313648D01*
X130590219Y-115313648D01*
X130417862Y-115256195D01*
X130302957Y-115141290D01*
X130245505Y-115026386D01*
X130188053Y-114796576D01*
X130188053Y-114624219D01*
X130245505Y-114394410D01*
X130302957Y-114279505D01*
X130417862Y-114164600D01*
X130590219Y-114107148D01*
X130705124Y-114107148D01*
X130877481Y-114164600D01*
X130934933Y-114222052D01*
X132141433Y-115198743D02*
X132083981Y-115256195D01*
X131911624Y-115313648D01*
X131796719Y-115313648D01*
X131624362Y-115256195D01*
X131509457Y-115141290D01*
X131452005Y-115026386D01*
X131394553Y-114796576D01*
X131394553Y-114624219D01*
X131452005Y-114394410D01*
X131509457Y-114279505D01*
X131624362Y-114164600D01*
X131796719Y-114107148D01*
X131911624Y-114107148D01*
X132083981Y-114164600D01*
X132141433Y-114222052D01*
X132371243Y-115428552D02*
X133290481Y-115428552D01*
X133462838Y-114107148D02*
X134209719Y-114107148D01*
X133807552Y-114566767D01*
X133979910Y-114566767D01*
X134094814Y-114624219D01*
X134152267Y-114681671D01*
X134209719Y-114796576D01*
X134209719Y-115083838D01*
X134152267Y-115198743D01*
X134094814Y-115256195D01*
X133979910Y-115313648D01*
X133635195Y-115313648D01*
X133520291Y-115256195D01*
X133462838Y-115198743D01*
X134439529Y-115428552D02*
X135358767Y-115428552D01*
X136335457Y-115198743D02*
X136278005Y-115256195D01*
X136105648Y-115313648D01*
X135990743Y-115313648D01*
X135818386Y-115256195D01*
X135703481Y-115141290D01*
X135646029Y-115026386D01*
X135588577Y-114796576D01*
X135588577Y-114624219D01*
X135646029Y-114394410D01*
X135703481Y-114279505D01*
X135818386Y-114164600D01*
X135990743Y-114107148D01*
X136105648Y-114107148D01*
X136278005Y-114164600D01*
X136335457Y-114222052D01*
X136737624Y-114107148D02*
X137484505Y-114107148D01*
X137082338Y-114566767D01*
X137254696Y-114566767D01*
X137369600Y-114624219D01*
X137427053Y-114681671D01*
X137484505Y-114796576D01*
X137484505Y-115083838D01*
X137427053Y-115198743D01*
X137369600Y-115256195D01*
X137254696Y-115313648D01*
X136909981Y-115313648D01*
X136795077Y-115256195D01*
X136737624Y-115198743D01*
X105104005Y-113987148D02*
X105506171Y-115193648D01*
X105908338Y-113987148D01*
X106999933Y-115078743D02*
X106942481Y-115136195D01*
X106770124Y-115193648D01*
X106655219Y-115193648D01*
X106482862Y-115136195D01*
X106367957Y-115021290D01*
X106310505Y-114906386D01*
X106253053Y-114676576D01*
X106253053Y-114504219D01*
X106310505Y-114274410D01*
X106367957Y-114159505D01*
X106482862Y-114044600D01*
X106655219Y-113987148D01*
X106770124Y-113987148D01*
X106942481Y-114044600D01*
X106999933Y-114102052D01*
X108206433Y-115078743D02*
X108148981Y-115136195D01*
X107976624Y-115193648D01*
X107861719Y-115193648D01*
X107689362Y-115136195D01*
X107574457Y-115021290D01*
X107517005Y-114906386D01*
X107459553Y-114676576D01*
X107459553Y-114504219D01*
X107517005Y-114274410D01*
X107574457Y-114159505D01*
X107689362Y-114044600D01*
X107861719Y-113987148D01*
X107976624Y-113987148D01*
X108148981Y-114044600D01*
X108206433Y-114102052D01*
X108436243Y-115308552D02*
X109355481Y-115308552D01*
X110159814Y-114389314D02*
X110159814Y-115193648D01*
X109872552Y-113929695D02*
X109585291Y-114791481D01*
X110332171Y-114791481D01*
X110504529Y-115308552D02*
X111423767Y-115308552D01*
X112400457Y-115078743D02*
X112343005Y-115136195D01*
X112170648Y-115193648D01*
X112055743Y-115193648D01*
X111883386Y-115136195D01*
X111768481Y-115021290D01*
X111711029Y-114906386D01*
X111653577Y-114676576D01*
X111653577Y-114504219D01*
X111711029Y-114274410D01*
X111768481Y-114159505D01*
X111883386Y-114044600D01*
X112055743Y-113987148D01*
X112170648Y-113987148D01*
X112343005Y-114044600D01*
X112400457Y-114102052D01*
X112802624Y-113987148D02*
X113549505Y-113987148D01*
X113147338Y-114446767D01*
X113319696Y-114446767D01*
X113434600Y-114504219D01*
X113492053Y-114561671D01*
X113549505Y-114676576D01*
X113549505Y-114963838D01*
X113492053Y-115078743D01*
X113434600Y-115136195D01*
X113319696Y-115193648D01*
X112974981Y-115193648D01*
X112860077Y-115136195D01*
X112802624Y-115078743D01*
X125955338Y-94042600D02*
X125840433Y-93985148D01*
X125668076Y-93985148D01*
X125495719Y-94042600D01*
X125380814Y-94157505D01*
X125323362Y-94272410D01*
X125265910Y-94502219D01*
X125265910Y-94674576D01*
X125323362Y-94904386D01*
X125380814Y-95019290D01*
X125495719Y-95134195D01*
X125668076Y-95191648D01*
X125782981Y-95191648D01*
X125955338Y-95134195D01*
X126012790Y-95076743D01*
X126012790Y-94674576D01*
X125782981Y-94674576D01*
X126529862Y-95191648D02*
X126529862Y-93985148D01*
X127219290Y-95191648D01*
X127219290Y-93985148D01*
X127793814Y-95191648D02*
X127793814Y-93985148D01*
X128081076Y-93985148D01*
X128253433Y-94042600D01*
X128368338Y-94157505D01*
X128425790Y-94272410D01*
X128483242Y-94502219D01*
X128483242Y-94674576D01*
X128425790Y-94904386D01*
X128368338Y-95019290D01*
X128253433Y-95134195D01*
X128081076Y-95191648D01*
X127793814Y-95191648D01*
X128713052Y-95306552D02*
X129632290Y-95306552D01*
X129862100Y-94100052D02*
X129919552Y-94042600D01*
X130034457Y-93985148D01*
X130321719Y-93985148D01*
X130436623Y-94042600D01*
X130494076Y-94100052D01*
X130551528Y-94214957D01*
X130551528Y-94329862D01*
X130494076Y-94502219D01*
X129804647Y-95191648D01*
X130551528Y-95191648D01*
X130781338Y-95306552D02*
X131700576Y-95306552D01*
X132677266Y-95076743D02*
X132619814Y-95134195D01*
X132447457Y-95191648D01*
X132332552Y-95191648D01*
X132160195Y-95134195D01*
X132045290Y-95019290D01*
X131987838Y-94904386D01*
X131930386Y-94674576D01*
X131930386Y-94502219D01*
X131987838Y-94272410D01*
X132045290Y-94157505D01*
X132160195Y-94042600D01*
X132332552Y-93985148D01*
X132447457Y-93985148D01*
X132619814Y-94042600D01*
X132677266Y-94100052D01*
X133079433Y-93985148D02*
X133826314Y-93985148D01*
X133424147Y-94444767D01*
X133596505Y-94444767D01*
X133711409Y-94502219D01*
X133768862Y-94559671D01*
X133826314Y-94674576D01*
X133826314Y-94961838D01*
X133768862Y-95076743D01*
X133711409Y-95134195D01*
X133596505Y-95191648D01*
X133251790Y-95191648D01*
X133136886Y-95134195D01*
X133079433Y-95076743D01*
X110047338Y-94054600D02*
X109932433Y-93997148D01*
X109760076Y-93997148D01*
X109587719Y-94054600D01*
X109472814Y-94169505D01*
X109415362Y-94284410D01*
X109357910Y-94514219D01*
X109357910Y-94686576D01*
X109415362Y-94916386D01*
X109472814Y-95031290D01*
X109587719Y-95146195D01*
X109760076Y-95203648D01*
X109874981Y-95203648D01*
X110047338Y-95146195D01*
X110104790Y-95088743D01*
X110104790Y-94686576D01*
X109874981Y-94686576D01*
X110621862Y-95203648D02*
X110621862Y-93997148D01*
X111311290Y-95203648D01*
X111311290Y-93997148D01*
X111885814Y-95203648D02*
X111885814Y-93997148D01*
X112173076Y-93997148D01*
X112345433Y-94054600D01*
X112460338Y-94169505D01*
X112517790Y-94284410D01*
X112575242Y-94514219D01*
X112575242Y-94686576D01*
X112517790Y-94916386D01*
X112460338Y-95031290D01*
X112345433Y-95146195D01*
X112173076Y-95203648D01*
X111885814Y-95203648D01*
X112805052Y-95318552D02*
X113724290Y-95318552D01*
X114643528Y-95203648D02*
X113954100Y-95203648D01*
X114298814Y-95203648D02*
X114298814Y-93997148D01*
X114183909Y-94169505D01*
X114069004Y-94284410D01*
X113954100Y-94341862D01*
X114873338Y-95318552D02*
X115792576Y-95318552D01*
X116769266Y-95088743D02*
X116711814Y-95146195D01*
X116539457Y-95203648D01*
X116424552Y-95203648D01*
X116252195Y-95146195D01*
X116137290Y-95031290D01*
X116079838Y-94916386D01*
X116022386Y-94686576D01*
X116022386Y-94514219D01*
X116079838Y-94284410D01*
X116137290Y-94169505D01*
X116252195Y-94054600D01*
X116424552Y-93997148D01*
X116539457Y-93997148D01*
X116711814Y-94054600D01*
X116769266Y-94112052D01*
X117171433Y-93997148D02*
X117918314Y-93997148D01*
X117516147Y-94456767D01*
X117688505Y-94456767D01*
X117803409Y-94514219D01*
X117860862Y-94571671D01*
X117918314Y-94686576D01*
X117918314Y-94973838D01*
X117860862Y-95088743D01*
X117803409Y-95146195D01*
X117688505Y-95203648D01*
X117343790Y-95203648D01*
X117228886Y-95146195D01*
X117171433Y-95088743D01*
X126043338Y-110036600D02*
X125928433Y-109979148D01*
X125756076Y-109979148D01*
X125583719Y-110036600D01*
X125468814Y-110151505D01*
X125411362Y-110266410D01*
X125353910Y-110496219D01*
X125353910Y-110668576D01*
X125411362Y-110898386D01*
X125468814Y-111013290D01*
X125583719Y-111128195D01*
X125756076Y-111185648D01*
X125870981Y-111185648D01*
X126043338Y-111128195D01*
X126100790Y-111070743D01*
X126100790Y-110668576D01*
X125870981Y-110668576D01*
X126617862Y-111185648D02*
X126617862Y-109979148D01*
X127307290Y-111185648D01*
X127307290Y-109979148D01*
X127881814Y-111185648D02*
X127881814Y-109979148D01*
X128169076Y-109979148D01*
X128341433Y-110036600D01*
X128456338Y-110151505D01*
X128513790Y-110266410D01*
X128571242Y-110496219D01*
X128571242Y-110668576D01*
X128513790Y-110898386D01*
X128456338Y-111013290D01*
X128341433Y-111128195D01*
X128169076Y-111185648D01*
X127881814Y-111185648D01*
X128801052Y-111300552D02*
X129720290Y-111300552D01*
X129892647Y-109979148D02*
X130639528Y-109979148D01*
X130237361Y-110438767D01*
X130409719Y-110438767D01*
X130524623Y-110496219D01*
X130582076Y-110553671D01*
X130639528Y-110668576D01*
X130639528Y-110955838D01*
X130582076Y-111070743D01*
X130524623Y-111128195D01*
X130409719Y-111185648D01*
X130065004Y-111185648D01*
X129950100Y-111128195D01*
X129892647Y-111070743D01*
X130869338Y-111300552D02*
X131788576Y-111300552D01*
X132765266Y-111070743D02*
X132707814Y-111128195D01*
X132535457Y-111185648D01*
X132420552Y-111185648D01*
X132248195Y-111128195D01*
X132133290Y-111013290D01*
X132075838Y-110898386D01*
X132018386Y-110668576D01*
X132018386Y-110496219D01*
X132075838Y-110266410D01*
X132133290Y-110151505D01*
X132248195Y-110036600D01*
X132420552Y-109979148D01*
X132535457Y-109979148D01*
X132707814Y-110036600D01*
X132765266Y-110094052D01*
X133167433Y-109979148D02*
X133914314Y-109979148D01*
X133512147Y-110438767D01*
X133684505Y-110438767D01*
X133799409Y-110496219D01*
X133856862Y-110553671D01*
X133914314Y-110668576D01*
X133914314Y-110955838D01*
X133856862Y-111070743D01*
X133799409Y-111128195D01*
X133684505Y-111185648D01*
X133339790Y-111185648D01*
X133224886Y-111128195D01*
X133167433Y-111070743D01*
X109912338Y-110034600D02*
X109797433Y-109977148D01*
X109625076Y-109977148D01*
X109452719Y-110034600D01*
X109337814Y-110149505D01*
X109280362Y-110264410D01*
X109222910Y-110494219D01*
X109222910Y-110666576D01*
X109280362Y-110896386D01*
X109337814Y-111011290D01*
X109452719Y-111126195D01*
X109625076Y-111183648D01*
X109739981Y-111183648D01*
X109912338Y-111126195D01*
X109969790Y-111068743D01*
X109969790Y-110666576D01*
X109739981Y-110666576D01*
X110486862Y-111183648D02*
X110486862Y-109977148D01*
X111176290Y-111183648D01*
X111176290Y-109977148D01*
X111750814Y-111183648D02*
X111750814Y-109977148D01*
X112038076Y-109977148D01*
X112210433Y-110034600D01*
X112325338Y-110149505D01*
X112382790Y-110264410D01*
X112440242Y-110494219D01*
X112440242Y-110666576D01*
X112382790Y-110896386D01*
X112325338Y-111011290D01*
X112210433Y-111126195D01*
X112038076Y-111183648D01*
X111750814Y-111183648D01*
X112670052Y-111298552D02*
X113589290Y-111298552D01*
X114393623Y-110379314D02*
X114393623Y-111183648D01*
X114106361Y-109919695D02*
X113819100Y-110781481D01*
X114565980Y-110781481D01*
X114738338Y-111298552D02*
X115657576Y-111298552D01*
X116634266Y-111068743D02*
X116576814Y-111126195D01*
X116404457Y-111183648D01*
X116289552Y-111183648D01*
X116117195Y-111126195D01*
X116002290Y-111011290D01*
X115944838Y-110896386D01*
X115887386Y-110666576D01*
X115887386Y-110494219D01*
X115944838Y-110264410D01*
X116002290Y-110149505D01*
X116117195Y-110034600D01*
X116289552Y-109977148D01*
X116404457Y-109977148D01*
X116576814Y-110034600D01*
X116634266Y-110092052D01*
X117036433Y-109977148D02*
X117783314Y-109977148D01*
X117381147Y-110436767D01*
X117553505Y-110436767D01*
X117668409Y-110494219D01*
X117725862Y-110551671D01*
X117783314Y-110666576D01*
X117783314Y-110953838D01*
X117725862Y-111068743D01*
X117668409Y-111126195D01*
X117553505Y-111183648D01*
X117208790Y-111183648D01*
X117093886Y-111126195D01*
X117036433Y-111068743D01*
X133994790Y-87081743D02*
X133937338Y-87139195D01*
X133764981Y-87196648D01*
X133650076Y-87196648D01*
X133477719Y-87139195D01*
X133362814Y-87024290D01*
X133305362Y-86909386D01*
X133247910Y-86679576D01*
X133247910Y-86507219D01*
X133305362Y-86277410D01*
X133362814Y-86162505D01*
X133477719Y-86047600D01*
X133650076Y-85990148D01*
X133764981Y-85990148D01*
X133937338Y-86047600D01*
X133994790Y-86105052D01*
X134454410Y-86851933D02*
X135028933Y-86851933D01*
X134339505Y-87196648D02*
X134741671Y-85990148D01*
X135143838Y-87196648D01*
X135546005Y-87196648D02*
X135546005Y-85990148D01*
X136235433Y-87196648D01*
X136235433Y-85990148D01*
X136809957Y-87196648D02*
X136809957Y-85990148D01*
X136809957Y-86564671D02*
X137499385Y-86564671D01*
X137499385Y-87196648D02*
X137499385Y-85990148D01*
X137786647Y-87311552D02*
X138705885Y-87311552D01*
X138935695Y-86105052D02*
X138993147Y-86047600D01*
X139108052Y-85990148D01*
X139395314Y-85990148D01*
X139510218Y-86047600D01*
X139567671Y-86105052D01*
X139625123Y-86219957D01*
X139625123Y-86334862D01*
X139567671Y-86507219D01*
X138878242Y-87196648D01*
X139625123Y-87196648D01*
X139854933Y-87311552D02*
X140774171Y-87311552D01*
X141750861Y-87081743D02*
X141693409Y-87139195D01*
X141521052Y-87196648D01*
X141406147Y-87196648D01*
X141233790Y-87139195D01*
X141118885Y-87024290D01*
X141061433Y-86909386D01*
X141003981Y-86679576D01*
X141003981Y-86507219D01*
X141061433Y-86277410D01*
X141118885Y-86162505D01*
X141233790Y-86047600D01*
X141406147Y-85990148D01*
X141521052Y-85990148D01*
X141693409Y-86047600D01*
X141750861Y-86105052D01*
X142153028Y-85990148D02*
X142899909Y-85990148D01*
X142497742Y-86449767D01*
X142670100Y-86449767D01*
X142785004Y-86507219D01*
X142842457Y-86564671D01*
X142899909Y-86679576D01*
X142899909Y-86966838D01*
X142842457Y-87081743D01*
X142785004Y-87139195D01*
X142670100Y-87196648D01*
X142325385Y-87196648D01*
X142210481Y-87139195D01*
X142153028Y-87081743D01*
X102106790Y-87080743D02*
X102049338Y-87138195D01*
X101876981Y-87195648D01*
X101762076Y-87195648D01*
X101589719Y-87138195D01*
X101474814Y-87023290D01*
X101417362Y-86908386D01*
X101359910Y-86678576D01*
X101359910Y-86506219D01*
X101417362Y-86276410D01*
X101474814Y-86161505D01*
X101589719Y-86046600D01*
X101762076Y-85989148D01*
X101876981Y-85989148D01*
X102049338Y-86046600D01*
X102106790Y-86104052D01*
X102566410Y-86850933D02*
X103140933Y-86850933D01*
X102451505Y-87195648D02*
X102853671Y-85989148D01*
X103255838Y-87195648D01*
X103658005Y-87195648D02*
X103658005Y-85989148D01*
X104347433Y-87195648D01*
X104347433Y-85989148D01*
X104921957Y-87195648D02*
X104921957Y-85989148D01*
X104921957Y-86563671D02*
X105611385Y-86563671D01*
X105611385Y-87195648D02*
X105611385Y-85989148D01*
X105898647Y-87310552D02*
X106817885Y-87310552D01*
X107737123Y-87195648D02*
X107047695Y-87195648D01*
X107392409Y-87195648D02*
X107392409Y-85989148D01*
X107277504Y-86161505D01*
X107162599Y-86276410D01*
X107047695Y-86333862D01*
X107966933Y-87310552D02*
X108886171Y-87310552D01*
X109862861Y-87080743D02*
X109805409Y-87138195D01*
X109633052Y-87195648D01*
X109518147Y-87195648D01*
X109345790Y-87138195D01*
X109230885Y-87023290D01*
X109173433Y-86908386D01*
X109115981Y-86678576D01*
X109115981Y-86506219D01*
X109173433Y-86276410D01*
X109230885Y-86161505D01*
X109345790Y-86046600D01*
X109518147Y-85989148D01*
X109633052Y-85989148D01*
X109805409Y-86046600D01*
X109862861Y-86104052D01*
X110265028Y-85989148D02*
X111011909Y-85989148D01*
X110609742Y-86448767D01*
X110782100Y-86448767D01*
X110897004Y-86506219D01*
X110954457Y-86563671D01*
X111011909Y-86678576D01*
X111011909Y-86965838D01*
X110954457Y-87080743D01*
X110897004Y-87138195D01*
X110782100Y-87195648D01*
X110437385Y-87195648D01*
X110322481Y-87138195D01*
X110265028Y-87080743D01*
X134045790Y-119063743D02*
X133988338Y-119121195D01*
X133815981Y-119178648D01*
X133701076Y-119178648D01*
X133528719Y-119121195D01*
X133413814Y-119006290D01*
X133356362Y-118891386D01*
X133298910Y-118661576D01*
X133298910Y-118489219D01*
X133356362Y-118259410D01*
X133413814Y-118144505D01*
X133528719Y-118029600D01*
X133701076Y-117972148D01*
X133815981Y-117972148D01*
X133988338Y-118029600D01*
X134045790Y-118087052D01*
X134505410Y-118833933D02*
X135079933Y-118833933D01*
X134390505Y-119178648D02*
X134792671Y-117972148D01*
X135194838Y-119178648D01*
X135597005Y-119178648D02*
X135597005Y-117972148D01*
X136286433Y-119178648D01*
X136286433Y-117972148D01*
X136860957Y-119178648D02*
X136860957Y-117972148D01*
X136860957Y-118546671D02*
X137550385Y-118546671D01*
X137550385Y-119178648D02*
X137550385Y-117972148D01*
X137837647Y-119293552D02*
X138756885Y-119293552D01*
X138929242Y-117972148D02*
X139676123Y-117972148D01*
X139273956Y-118431767D01*
X139446314Y-118431767D01*
X139561218Y-118489219D01*
X139618671Y-118546671D01*
X139676123Y-118661576D01*
X139676123Y-118948838D01*
X139618671Y-119063743D01*
X139561218Y-119121195D01*
X139446314Y-119178648D01*
X139101599Y-119178648D01*
X138986695Y-119121195D01*
X138929242Y-119063743D01*
X139905933Y-119293552D02*
X140825171Y-119293552D01*
X141801861Y-119063743D02*
X141744409Y-119121195D01*
X141572052Y-119178648D01*
X141457147Y-119178648D01*
X141284790Y-119121195D01*
X141169885Y-119006290D01*
X141112433Y-118891386D01*
X141054981Y-118661576D01*
X141054981Y-118489219D01*
X141112433Y-118259410D01*
X141169885Y-118144505D01*
X141284790Y-118029600D01*
X141457147Y-117972148D01*
X141572052Y-117972148D01*
X141744409Y-118029600D01*
X141801861Y-118087052D01*
X142204028Y-117972148D02*
X142950909Y-117972148D01*
X142548742Y-118431767D01*
X142721100Y-118431767D01*
X142836004Y-118489219D01*
X142893457Y-118546671D01*
X142950909Y-118661576D01*
X142950909Y-118948838D01*
X142893457Y-119063743D01*
X142836004Y-119121195D01*
X142721100Y-119178648D01*
X142376385Y-119178648D01*
X142261481Y-119121195D01*
X142204028Y-119063743D01*
X101978790Y-119088743D02*
X101921338Y-119146195D01*
X101748981Y-119203648D01*
X101634076Y-119203648D01*
X101461719Y-119146195D01*
X101346814Y-119031290D01*
X101289362Y-118916386D01*
X101231910Y-118686576D01*
X101231910Y-118514219D01*
X101289362Y-118284410D01*
X101346814Y-118169505D01*
X101461719Y-118054600D01*
X101634076Y-117997148D01*
X101748981Y-117997148D01*
X101921338Y-118054600D01*
X101978790Y-118112052D01*
X102438410Y-118858933D02*
X103012933Y-118858933D01*
X102323505Y-119203648D02*
X102725671Y-117997148D01*
X103127838Y-119203648D01*
X103530005Y-119203648D02*
X103530005Y-117997148D01*
X104219433Y-119203648D01*
X104219433Y-117997148D01*
X104793957Y-119203648D02*
X104793957Y-117997148D01*
X104793957Y-118571671D02*
X105483385Y-118571671D01*
X105483385Y-119203648D02*
X105483385Y-117997148D01*
X105770647Y-119318552D02*
X106689885Y-119318552D01*
X107494218Y-118399314D02*
X107494218Y-119203648D01*
X107206956Y-117939695D02*
X106919695Y-118801481D01*
X107666575Y-118801481D01*
X107838933Y-119318552D02*
X108758171Y-119318552D01*
X109734861Y-119088743D02*
X109677409Y-119146195D01*
X109505052Y-119203648D01*
X109390147Y-119203648D01*
X109217790Y-119146195D01*
X109102885Y-119031290D01*
X109045433Y-118916386D01*
X108987981Y-118686576D01*
X108987981Y-118514219D01*
X109045433Y-118284410D01*
X109102885Y-118169505D01*
X109217790Y-118054600D01*
X109390147Y-117997148D01*
X109505052Y-117997148D01*
X109677409Y-118054600D01*
X109734861Y-118112052D01*
X110137028Y-117997148D02*
X110883909Y-117997148D01*
X110481742Y-118456767D01*
X110654100Y-118456767D01*
X110769004Y-118514219D01*
X110826457Y-118571671D01*
X110883909Y-118686576D01*
X110883909Y-118973838D01*
X110826457Y-119088743D01*
X110769004Y-119146195D01*
X110654100Y-119203648D01*
X110309385Y-119203648D01*
X110194481Y-119146195D01*
X110137028Y-119088743D01*
D13*
X94764890Y-85965643D02*
X94707438Y-86023095D01*
X94535081Y-86080548D01*
X94420176Y-86080548D01*
X94247819Y-86023095D01*
X94132914Y-85908190D01*
X94075462Y-85793286D01*
X94018010Y-85563476D01*
X94018010Y-85391119D01*
X94075462Y-85161310D01*
X94132914Y-85046405D01*
X94247819Y-84931500D01*
X94420176Y-84874048D01*
X94535081Y-84874048D01*
X94707438Y-84931500D01*
X94764890Y-84988952D01*
X95224510Y-85735833D02*
X95799033Y-85735833D01*
X95109605Y-86080548D02*
X95511771Y-84874048D01*
X95913938Y-86080548D01*
X96316105Y-86080548D02*
X96316105Y-84874048D01*
X97005533Y-86080548D01*
X97005533Y-84874048D01*
X98154581Y-86080548D02*
X97580057Y-86080548D01*
X97580057Y-84874048D01*
D14*
X93835845Y-87244751D02*
X93835845Y-87220621D01*
X93845038Y-87220621D01*
X93847336Y-87221770D01*
X93848485Y-87222919D01*
X93849634Y-87225217D01*
X93849634Y-87228664D01*
X93848485Y-87230962D01*
X93847336Y-87232111D01*
X93845038Y-87233260D01*
X93835845Y-87233260D01*
X93856528Y-87220621D02*
X93870317Y-87220621D01*
X93863422Y-87244751D02*
X93863422Y-87220621D01*
X93892149Y-87244751D02*
X93884105Y-87233260D01*
X93878360Y-87244751D02*
X93878360Y-87220621D01*
X93887553Y-87220621D01*
X93889851Y-87221770D01*
X93891000Y-87222919D01*
X93892149Y-87225217D01*
X93892149Y-87228664D01*
X93891000Y-87230962D01*
X93889851Y-87232111D01*
X93887553Y-87233260D01*
X93878360Y-87233260D01*
X93915130Y-87244751D02*
X93901341Y-87244751D01*
X93908235Y-87244751D02*
X93908235Y-87220621D01*
X93905937Y-87224068D01*
X93903639Y-87226366D01*
X93901341Y-87227515D01*
X93922024Y-87220621D02*
X93935813Y-87220621D01*
X93928918Y-87244751D02*
X93928918Y-87220621D01*
X93943856Y-87244751D02*
X93943856Y-87220621D01*
X93953049Y-87220621D01*
X93955347Y-87221770D01*
X93956496Y-87222919D01*
X93957645Y-87225217D01*
X93957645Y-87228664D01*
X93956496Y-87230962D01*
X93955347Y-87232111D01*
X93953049Y-87233260D01*
X93943856Y-87233260D01*
X93980626Y-87244751D02*
X93966837Y-87244751D01*
X93973731Y-87244751D02*
X93973731Y-87220621D01*
X93971433Y-87224068D01*
X93969135Y-87226366D01*
X93966837Y-87227515D01*
X94003607Y-87244751D02*
X93989818Y-87244751D01*
X93996712Y-87244751D02*
X93996712Y-87220621D01*
X93994414Y-87224068D01*
X93992116Y-87226366D01*
X93989818Y-87227515D01*
X94027737Y-87244751D02*
X94019693Y-87233260D01*
X94013948Y-87244751D02*
X94013948Y-87220621D01*
X94023141Y-87220621D01*
X94025439Y-87221770D01*
X94026588Y-87222919D01*
X94027737Y-87225217D01*
X94027737Y-87228664D01*
X94026588Y-87230962D01*
X94025439Y-87232111D01*
X94023141Y-87233260D01*
X94013948Y-87233260D01*
D13*
X94797890Y-89272643D02*
X94740438Y-89330095D01*
X94568081Y-89387548D01*
X94453176Y-89387548D01*
X94280819Y-89330095D01*
X94165914Y-89215190D01*
X94108462Y-89100286D01*
X94051010Y-88870476D01*
X94051010Y-88698119D01*
X94108462Y-88468310D01*
X94165914Y-88353405D01*
X94280819Y-88238500D01*
X94453176Y-88181048D01*
X94568081Y-88181048D01*
X94740438Y-88238500D01*
X94797890Y-88295952D01*
X95257510Y-89042833D02*
X95832033Y-89042833D01*
X95142605Y-89387548D02*
X95544771Y-88181048D01*
X95946938Y-89387548D01*
X96349105Y-89387548D02*
X96349105Y-88181048D01*
X97038533Y-89387548D01*
X97038533Y-88181048D01*
X97613057Y-89387548D02*
X97613057Y-88181048D01*
X97613057Y-88755571D02*
X98302485Y-88755571D01*
X98302485Y-89387548D02*
X98302485Y-88181048D01*
D14*
X93868845Y-90551751D02*
X93868845Y-90527621D01*
X93878038Y-90527621D01*
X93880336Y-90528770D01*
X93881485Y-90529919D01*
X93882634Y-90532217D01*
X93882634Y-90535664D01*
X93881485Y-90537962D01*
X93880336Y-90539111D01*
X93878038Y-90540260D01*
X93868845Y-90540260D01*
X93889528Y-90527621D02*
X93903317Y-90527621D01*
X93896422Y-90551751D02*
X93896422Y-90527621D01*
X93925149Y-90551751D02*
X93917105Y-90540260D01*
X93911360Y-90551751D02*
X93911360Y-90527621D01*
X93920553Y-90527621D01*
X93922851Y-90528770D01*
X93924000Y-90529919D01*
X93925149Y-90532217D01*
X93925149Y-90535664D01*
X93924000Y-90537962D01*
X93922851Y-90539111D01*
X93920553Y-90540260D01*
X93911360Y-90540260D01*
X93948130Y-90551751D02*
X93934341Y-90551751D01*
X93941235Y-90551751D02*
X93941235Y-90527621D01*
X93938937Y-90531068D01*
X93936639Y-90533366D01*
X93934341Y-90534515D01*
X93955024Y-90527621D02*
X93968813Y-90527621D01*
X93961918Y-90551751D02*
X93961918Y-90527621D01*
X93976856Y-90551751D02*
X93976856Y-90527621D01*
X93986049Y-90527621D01*
X93988347Y-90528770D01*
X93989496Y-90529919D01*
X93990645Y-90532217D01*
X93990645Y-90535664D01*
X93989496Y-90537962D01*
X93988347Y-90539111D01*
X93986049Y-90540260D01*
X93976856Y-90540260D01*
X94013626Y-90551751D02*
X93999837Y-90551751D01*
X94006731Y-90551751D02*
X94006731Y-90527621D01*
X94004433Y-90531068D01*
X94002135Y-90533366D01*
X93999837Y-90534515D01*
X94036607Y-90551751D02*
X94022818Y-90551751D01*
X94029712Y-90551751D02*
X94029712Y-90527621D01*
X94027414Y-90531068D01*
X94025116Y-90533366D01*
X94022818Y-90534515D01*
X94060737Y-90551751D02*
X94052693Y-90540260D01*
X94046948Y-90551751D02*
X94046948Y-90527621D01*
X94056141Y-90527621D01*
X94058439Y-90528770D01*
X94059588Y-90529919D01*
X94060737Y-90532217D01*
X94060737Y-90535664D01*
X94059588Y-90537962D01*
X94058439Y-90539111D01*
X94056141Y-90540260D01*
X94046948Y-90540260D01*
D13*
X93993010Y-79836095D02*
X94165367Y-79893548D01*
X94452629Y-79893548D01*
X94567533Y-79836095D01*
X94624986Y-79778643D01*
X94682438Y-79663738D01*
X94682438Y-79548833D01*
X94624986Y-79433929D01*
X94567533Y-79376476D01*
X94452629Y-79319024D01*
X94222819Y-79261571D01*
X94107914Y-79204119D01*
X94050462Y-79146667D01*
X93993010Y-79031762D01*
X93993010Y-78916857D01*
X94050462Y-78801952D01*
X94107914Y-78744500D01*
X94222819Y-78687048D01*
X94510081Y-78687048D01*
X94682438Y-78744500D01*
X95888938Y-79778643D02*
X95831486Y-79836095D01*
X95659129Y-79893548D01*
X95544224Y-79893548D01*
X95371867Y-79836095D01*
X95256962Y-79721190D01*
X95199510Y-79606286D01*
X95142058Y-79376476D01*
X95142058Y-79204119D01*
X95199510Y-78974310D01*
X95256962Y-78859405D01*
X95371867Y-78744500D01*
X95544224Y-78687048D01*
X95659129Y-78687048D01*
X95831486Y-78744500D01*
X95888938Y-78801952D01*
X96980534Y-79893548D02*
X96406010Y-79893548D01*
X96406010Y-78687048D01*
D14*
X93810845Y-81057751D02*
X93810845Y-81033621D01*
X93820038Y-81033621D01*
X93822336Y-81034770D01*
X93823485Y-81035919D01*
X93824634Y-81038217D01*
X93824634Y-81041664D01*
X93823485Y-81043962D01*
X93822336Y-81045111D01*
X93820038Y-81046260D01*
X93810845Y-81046260D01*
X93831528Y-81033621D02*
X93845317Y-81033621D01*
X93838422Y-81057751D02*
X93838422Y-81033621D01*
X93867149Y-81057751D02*
X93859105Y-81046260D01*
X93853360Y-81057751D02*
X93853360Y-81033621D01*
X93862553Y-81033621D01*
X93864851Y-81034770D01*
X93866000Y-81035919D01*
X93867149Y-81038217D01*
X93867149Y-81041664D01*
X93866000Y-81043962D01*
X93864851Y-81045111D01*
X93862553Y-81046260D01*
X93853360Y-81046260D01*
X93890130Y-81057751D02*
X93876341Y-81057751D01*
X93883235Y-81057751D02*
X93883235Y-81033621D01*
X93880937Y-81037068D01*
X93878639Y-81039366D01*
X93876341Y-81040515D01*
X93897024Y-81033621D02*
X93910813Y-81033621D01*
X93903918Y-81057751D02*
X93903918Y-81033621D01*
X93918856Y-81057751D02*
X93918856Y-81033621D01*
X93928049Y-81033621D01*
X93930347Y-81034770D01*
X93931496Y-81035919D01*
X93932645Y-81038217D01*
X93932645Y-81041664D01*
X93931496Y-81043962D01*
X93930347Y-81045111D01*
X93928049Y-81046260D01*
X93918856Y-81046260D01*
X93955626Y-81057751D02*
X93941837Y-81057751D01*
X93948731Y-81057751D02*
X93948731Y-81033621D01*
X93946433Y-81037068D01*
X93944135Y-81039366D01*
X93941837Y-81040515D01*
X93978607Y-81057751D02*
X93964818Y-81057751D01*
X93971712Y-81057751D02*
X93971712Y-81033621D01*
X93969414Y-81037068D01*
X93967116Y-81039366D01*
X93964818Y-81040515D01*
X94002737Y-81057751D02*
X93994693Y-81046260D01*
X93988948Y-81057751D02*
X93988948Y-81033621D01*
X93998141Y-81033621D01*
X94000439Y-81034770D01*
X94001588Y-81035919D01*
X94002737Y-81038217D01*
X94002737Y-81041664D01*
X94001588Y-81043962D01*
X94000439Y-81045111D01*
X93998141Y-81046260D01*
X93988948Y-81046260D01*
D13*
X94043010Y-82870095D02*
X94215367Y-82927548D01*
X94502629Y-82927548D01*
X94617533Y-82870095D01*
X94674986Y-82812643D01*
X94732438Y-82697738D01*
X94732438Y-82582833D01*
X94674986Y-82467929D01*
X94617533Y-82410476D01*
X94502629Y-82353024D01*
X94272819Y-82295571D01*
X94157914Y-82238119D01*
X94100462Y-82180667D01*
X94043010Y-82065762D01*
X94043010Y-81950857D01*
X94100462Y-81835952D01*
X94157914Y-81778500D01*
X94272819Y-81721048D01*
X94560081Y-81721048D01*
X94732438Y-81778500D01*
X95249510Y-82927548D02*
X95249510Y-81721048D01*
X95536772Y-81721048D01*
X95709129Y-81778500D01*
X95824034Y-81893405D01*
X95881486Y-82008310D01*
X95938938Y-82238119D01*
X95938938Y-82410476D01*
X95881486Y-82640286D01*
X95824034Y-82755190D01*
X95709129Y-82870095D01*
X95536772Y-82927548D01*
X95249510Y-82927548D01*
X96398558Y-82582833D02*
X96973081Y-82582833D01*
X96283653Y-82927548D02*
X96685819Y-81721048D01*
X97087986Y-82927548D01*
D14*
X93860845Y-84091751D02*
X93860845Y-84067621D01*
X93870038Y-84067621D01*
X93872336Y-84068770D01*
X93873485Y-84069919D01*
X93874634Y-84072217D01*
X93874634Y-84075664D01*
X93873485Y-84077962D01*
X93872336Y-84079111D01*
X93870038Y-84080260D01*
X93860845Y-84080260D01*
X93881528Y-84067621D02*
X93895317Y-84067621D01*
X93888422Y-84091751D02*
X93888422Y-84067621D01*
X93917149Y-84091751D02*
X93909105Y-84080260D01*
X93903360Y-84091751D02*
X93903360Y-84067621D01*
X93912553Y-84067621D01*
X93914851Y-84068770D01*
X93916000Y-84069919D01*
X93917149Y-84072217D01*
X93917149Y-84075664D01*
X93916000Y-84077962D01*
X93914851Y-84079111D01*
X93912553Y-84080260D01*
X93903360Y-84080260D01*
X93940130Y-84091751D02*
X93926341Y-84091751D01*
X93933235Y-84091751D02*
X93933235Y-84067621D01*
X93930937Y-84071068D01*
X93928639Y-84073366D01*
X93926341Y-84074515D01*
X93947024Y-84067621D02*
X93960813Y-84067621D01*
X93953918Y-84091751D02*
X93953918Y-84067621D01*
X93968856Y-84091751D02*
X93968856Y-84067621D01*
X93978049Y-84067621D01*
X93980347Y-84068770D01*
X93981496Y-84069919D01*
X93982645Y-84072217D01*
X93982645Y-84075664D01*
X93981496Y-84077962D01*
X93980347Y-84079111D01*
X93978049Y-84080260D01*
X93968856Y-84080260D01*
X94005626Y-84091751D02*
X93991837Y-84091751D01*
X93998731Y-84091751D02*
X93998731Y-84067621D01*
X93996433Y-84071068D01*
X93994135Y-84073366D01*
X93991837Y-84074515D01*
X94028607Y-84091751D02*
X94014818Y-84091751D01*
X94021712Y-84091751D02*
X94021712Y-84067621D01*
X94019414Y-84071068D01*
X94017116Y-84073366D01*
X94014818Y-84074515D01*
X94052737Y-84091751D02*
X94044693Y-84080260D01*
X94038948Y-84091751D02*
X94038948Y-84067621D01*
X94048141Y-84067621D01*
X94050439Y-84068770D01*
X94051588Y-84069919D01*
X94052737Y-84072217D01*
X94052737Y-84075664D01*
X94051588Y-84077962D01*
X94050439Y-84079111D01*
X94048141Y-84080260D01*
X94038948Y-84080260D01*
M02*
